<svg width="238" height="204" viewBox="0 0 238 204" fill="none" xmlns="http://www.w3.org/2000/svg">
<rect width="238" height="204" fill="black"/>
<path d="M149.625 75.5554C149.148 76.8171 129.079 64.1523 110.752 72.7928C97.427 79.075 91.9221 91.2538 91.9221 101.639C91.9221 109.821 94.7512 116.004 97.8436 120.032C102.873 126.585 107.553 129.05 111.594 131.24C118.103 134.768 129.173 134.886 132.534 134.711C138.793 134.384 146.146 132.567 152.346 129.66C154.713 128.55 158.558 126.143 161.925 123.45C167.675 118.852 172.971 113.069 172.879 113.516C172.732 114.226 172.792 114.787 169.916 119.855C161.397 134.871 147.233 141.421 147.233 141.421C127.278 152.024 109.571 146.524 106.129 145.204C91.0194 139.41 83.1391 128.546 81.298 125.091C78.2955 119.456 72.9126 98.7602 80.125 82.3099C85.4699 70.1194 97.8612 64.1299 99.2293 63.5567C121.307 54.3017 150.059 74.4089 149.625 75.5554Z" fill="url(#paint0_linear_2471_7683)"/>
<path d="M150.256 74.5059C149.359 75.3409 142.914 67.5723 132.567 61.9619C129.608 60.3584 118.321 54.5946 104.536 54.8905C81.6844 55.3787 66.4981 72.2139 63.7901 75.334C50.2547 90.9279 43.882 114.94 51.4951 133.625C61.3892 157.907 94.4938 171.873 91.9767 172.148L89.0804 171.218C85.5863 169.834 42.703 150.439 41.1671 111.79C40.3012 90.0128 47.2736 72.3759 51.4951 67.5614C58.8713 59.1492 64.7857 55.0994 69.7718 52.4246C79.7906 47.0535 98.6328 42.4509 112.617 44.5652C128.307 46.9383 138.156 57.9383 142.959 63.3026C147.292 68.1406 150.981 73.8311 150.256 74.5059Z" fill="url(#paint1_linear_2471_7683)"/>
<path d="M150.142 75.5349C151.202 75.0622 149.788 60.6009 140.429 49.6038C136.655 45.1599 132.505 41.1193 127.41 38.2914C106.346 26.8323 80.4474 36.0472 74.8411 38.2914C69.0984 40.5892 56.845 46.8681 46.5579 59.751C34.9622 74.2746 33.2449 89.8558 32.5847 96.6761C29.7636 125.799 44.8502 148.671 45.9241 148.326C46.5498 148.125 39.7054 133.573 41.1672 111.79C41.724 103.498 42.8678 88.3102 53.344 73.732C59.6901 65.1342 67.0316 57.9775 76.6087 53.2526C82.1506 50.5045 101.98 41.6473 121.837 48.6815C127.887 50.8686 133.457 54.207 138.241 58.5127C146.886 66.4434 149.276 75.9226 150.142 75.5349Z" fill="url(#paint2_linear_2471_7683)"/>
<path d="M119.634 157.11C119.137 157.96 84.7806 148.119 71.8743 123.866C69.9317 120.218 60.9614 100.769 66.8466 85.6287C69.3079 79.2956 74.1535 72.2057 76.1107 70.0036C79.2721 66.4469 84.6356 63.2494 91.4462 60.3519C94.5062 59.0807 100.097 57.7574 103.381 57.3191C106.636 56.9169 111.636 57.0032 114.901 57.3191C121.248 57.9333 129.826 65.3721 129.585 65.3721C129.52 65.3721 122.777 63.2022 115.804 62.7213C110.025 62.3227 103.756 63.6697 101.533 64.4586C96.6268 66.1994 89.9029 70.0036 86.0151 74.8098C82.1273 79.6161 78.8086 86.4092 78.1017 95.5156C77.5835 102.191 78.2946 111.928 81.1775 119.52C82.5595 123.159 84.9396 127.79 89.5141 133.888C99.2511 146.869 119.994 156.502 119.634 157.11Z" fill="url(#paint3_linear_2471_7683)"/>
<path d="M101.02 54.2741C106.98 53.4117 112.081 53.1143 117.99 54.2741C124.773 55.6413 128.523 57.0504 133.143 59.4215C141.032 63.4714 151.017 73.8559 150.256 75.4145C148.902 78.1928 127.878 55.8685 98.9966 63.5513C90.8285 66.3494 85.7911 68.9623 80.5748 72.9532C71.6904 79.7504 67.2878 88.6912 65.8966 92.3475C63.5083 98.6249 62.8597 102.157 62.5706 108.837C62.5706 117.832 64.2476 123.049 66.276 128.768C69.1615 136.908 74.543 146.213 73.6785 145.61C63.7918 138.717 57.6136 117.447 56.931 113.039C56.2483 108.631 53.3335 89.536 65.8966 73.6365C77.3499 59.1422 96.5767 54.9235 101.02 54.2741Z" fill="url(#paint4_linear_2471_7683)"/>
<path d="M129.624 91.2253L129.102 92.3773C127.894 91.3624 126.33 90.7864 124.573 90.7864C120.043 90.7864 116.804 94.0505 116.804 98.6311C116.804 103.239 120.043 106.531 124.573 106.531C126.302 106.531 127.84 105.982 129.047 104.995L129.487 106.037H133.44V91.2253H129.624ZM125.259 102.032C123.337 102.032 121.937 100.579 121.937 98.6311C121.937 96.7111 123.337 95.2848 125.259 95.2848C127.181 95.2848 128.581 96.7111 128.581 98.6311C128.581 100.579 127.181 102.032 125.259 102.032Z" fill="white"/>
<path d="M138.526 106.037H143.632V85.8766H138.526V106.037Z" fill="white"/>
<path d="M157.46 101.593C156.39 101.593 155.731 100.935 155.731 99.8929V95.1751H159.327V91.2253H155.621V86.9189H154.55L147.907 93.9682V95.1751H150.625V100.743C150.625 104.035 152.629 106.037 155.895 106.037H159.409V101.593H157.46Z" fill="white"/>
<path d="M176.861 91.2253L176.34 92.3773C175.132 91.3624 173.567 90.7864 171.81 90.7864C167.281 90.7864 164.041 94.0505 164.041 98.6311C164.041 103.239 167.281 106.531 171.81 106.531C173.54 106.531 175.077 105.982 176.285 104.995L176.724 106.037H180.677V91.2253H176.861ZM172.497 102.032C170.575 102.032 169.175 100.579 169.175 98.6311C169.175 96.7111 170.575 95.2848 172.497 95.2848C174.418 95.2848 175.818 96.7111 175.818 98.6311C175.818 100.579 174.418 102.032 172.497 102.032Z" fill="white"/>
<path d="M185.79 89.3875H190.842V85.0537H185.79V89.3875ZM185.763 106.037H190.869V91.2253H185.763V106.037Z" fill="white"/>
<path d="M204.228 91.1704C202.471 91.1704 201.208 91.6641 200.165 92.871L199.369 91.2253H195.937V106.037H201.043V98.5214C201.043 96.6288 201.812 95.8334 203.596 95.8334H205.6V91.1704H204.228Z" fill="white"/>
<defs>
<linearGradient id="paint0_linear_2471_7683" x1="137.054" y1="61.5972" x2="137.054" y2="148.171" gradientUnits="userSpaceOnUse">
<stop stop-color="#FAB961"/>
<stop offset="1"/>
</linearGradient>
<linearGradient id="paint1_linear_2471_7683" x1="95.7206" y1="44.04" x2="95.7206" y2="172.363" gradientUnits="userSpaceOnUse">
<stop stop-color="#FAB961"/>
<stop offset="1"/>
</linearGradient>
<linearGradient id="paint2_linear_2471_7683" x1="91.3576" y1="33.3814" x2="91.3576" y2="148.332" gradientUnits="userSpaceOnUse">
<stop/>
<stop offset="0.414296" stop-color="#FAB961"/>
</linearGradient>
<linearGradient id="paint3_linear_2471_7683" x1="92.7354" y1="61.2659" x2="92.7354" y2="154.744" gradientUnits="userSpaceOnUse">
<stop/>
<stop offset="1" stop-color="#FAB961"/>
</linearGradient>
<linearGradient id="paint4_linear_2471_7683" x1="103.224" y1="55.7623" x2="103.224" y2="145.638" gradientUnits="userSpaceOnUse">
<stop/>
<stop offset="1" stop-color="#FAB961"/>
</linearGradient>
</defs>
</svg>
