<svg width="240" height="204" viewBox="0 0 240 204" fill="none" xmlns="http://www.w3.org/2000/svg">
<rect width="240" height="204" fill="black"/>
<path d="M150.626 75.5564C150.149 76.8181 130.08 64.1533 111.753 72.7938C98.4279 79.0759 92.923 91.2548 92.923 101.64C92.923 109.822 95.7521 116.005 98.8446 120.033C103.874 126.586 108.554 129.051 112.595 131.241C119.104 134.769 130.174 134.887 133.535 134.712C139.794 134.385 147.147 132.568 153.347 129.661C155.714 128.551 159.559 126.144 162.926 123.451C168.676 118.853 173.972 113.07 173.88 113.517C173.733 114.227 173.793 114.788 170.917 119.856C162.398 134.872 148.234 141.422 148.234 141.422C128.279 152.025 110.571 146.525 107.13 145.205C92.0203 139.411 84.1401 128.547 82.299 125.092C79.2965 119.457 73.9136 98.7612 81.1259 82.3109C86.4708 70.1204 98.8621 64.1309 100.23 63.5577C122.308 54.3027 151.06 74.4099 150.626 75.5564Z" fill="url(#paint0_linear_2471_7702)"/>
<path d="M151.256 74.5059C150.359 75.3409 143.914 67.5723 133.567 61.9619C130.608 60.3584 119.322 54.5946 105.537 54.8905C82.6846 55.3787 67.4983 72.2139 64.7903 75.334C51.255 90.9279 44.8823 114.94 52.4954 133.625C62.3894 157.907 95.494 171.873 92.977 172.148L90.0806 171.218C86.5866 169.834 43.7033 150.439 42.1674 111.79C41.3014 90.0128 48.2739 72.3759 52.4954 67.5614C59.8716 59.1492 65.786 55.0994 70.772 52.4246C80.7909 47.0535 99.633 42.4509 113.617 44.5652C129.307 46.9383 139.157 57.9383 143.959 63.3026C148.292 68.1406 151.981 73.8311 151.256 74.5059Z" fill="url(#paint1_linear_2471_7702)"/>
<path d="M151.143 75.5349C152.203 75.0622 150.788 60.6009 141.43 49.6038C137.655 45.1599 133.505 41.1193 128.41 38.2914C107.347 26.8323 81.4479 36.0472 75.8416 38.2914C70.0989 40.5892 57.8455 46.8681 47.5584 59.751C35.9627 74.2746 34.2454 89.8558 33.5852 96.6761C30.7641 125.799 45.8507 148.671 46.9246 148.326C47.5503 148.125 40.7059 133.573 42.1677 111.79C42.7245 103.498 43.8683 88.3102 54.3445 73.732C60.6906 65.1342 68.0321 57.9775 77.6092 53.2526C83.151 50.5045 102.98 41.6473 122.837 48.6815C128.887 50.8686 134.458 54.207 139.242 58.5127C147.887 66.4434 150.276 75.9226 151.143 75.5349Z" fill="url(#paint2_linear_2471_7702)"/>
<path d="M120.634 157.109C120.137 157.959 85.7811 148.118 72.8748 123.865C70.9322 120.217 61.9619 100.768 67.8471 85.6277C70.3084 79.2946 75.154 72.2047 77.1111 70.0026C80.2726 66.4459 85.6361 63.2484 92.4466 60.3509C95.5067 59.0797 101.097 57.7564 104.381 57.3181C107.637 56.9159 112.637 57.0022 115.902 57.3181C122.249 57.9323 130.827 65.3711 130.585 65.3711C130.52 65.3711 123.777 63.2013 116.805 62.7203C111.026 62.3217 104.756 63.6687 102.533 64.4576C97.6273 66.1984 90.9034 70.0026 87.0156 74.8088C83.1278 79.6151 79.8091 86.4083 79.1022 95.5146C78.584 102.19 79.2951 111.927 82.178 119.519C83.5599 123.158 85.9401 127.789 90.5146 133.887C100.252 146.868 120.994 156.501 120.634 157.109Z" fill="url(#paint3_linear_2471_7702)"/>
<path d="M102.02 54.2741C107.98 53.4117 113.081 53.1143 118.99 54.2741C125.773 55.6413 129.523 57.0504 134.143 59.4215C142.032 63.4714 152.017 73.8559 151.256 75.4145C149.902 78.1928 128.878 55.8685 99.9966 63.5513C91.8285 66.3494 86.7911 68.9623 81.5748 72.9532C72.6904 79.7504 68.2878 88.6912 66.8966 92.3475C64.5083 98.6249 63.8597 102.157 63.5706 108.837C63.5706 117.832 65.2476 123.049 67.276 128.768C70.1615 136.908 75.543 146.213 74.6785 145.61C64.7918 138.717 58.6136 117.447 57.931 113.039C57.2483 108.631 54.3335 89.536 66.8966 73.6365C78.3499 59.1422 97.5767 54.9235 102.02 54.2741Z" fill="url(#paint4_linear_2471_7702)"/>
<path d="M130.624 91.2243L130.102 92.3763C128.894 91.3614 127.33 90.7854 125.573 90.7854C121.043 90.7854 117.804 94.0495 117.804 98.6302C117.804 103.238 121.043 106.53 125.573 106.53C127.302 106.53 128.84 105.981 130.047 104.994L130.487 106.036H134.44V91.2243H130.624ZM126.259 102.031C124.337 102.031 122.937 100.578 122.937 98.6302C122.937 96.7101 124.337 95.2838 126.259 95.2838C128.181 95.2838 129.581 96.7101 129.581 98.6302C129.581 100.578 128.181 102.031 126.259 102.031Z" fill="white"/>
<path d="M139.526 106.036H144.632V85.8756H139.526V106.036Z" fill="white"/>
<path d="M158.46 101.593C157.39 101.593 156.731 100.934 156.731 99.8919V95.1741H160.327V91.2243H156.621V86.9179H155.55L148.907 93.9672V95.1741H151.625V100.742C151.625 104.034 153.629 106.036 156.895 106.036H160.409V101.593H158.46Z" fill="white"/>
<path d="M177.861 91.2243L177.34 92.3763C176.132 91.3614 174.567 90.7854 172.81 90.7854C168.281 90.7854 165.041 94.0495 165.041 98.6302C165.041 103.238 168.281 106.53 172.81 106.53C174.54 106.53 176.077 105.981 177.285 104.994L177.724 106.036H181.677V91.2243H177.861ZM173.497 102.031C171.575 102.031 170.175 100.578 170.175 98.6302C170.175 96.7101 171.575 95.2838 173.497 95.2838C175.418 95.2838 176.818 96.7101 176.818 98.6302C176.818 100.578 175.418 102.031 173.497 102.031Z" fill="white"/>
<path d="M186.79 89.3865H191.842V85.0527H186.79V89.3865ZM186.763 106.036H191.869V91.2243H186.763V106.036Z" fill="white"/>
<path d="M205.228 91.1694C203.471 91.1694 202.208 91.6632 201.165 92.87L200.369 91.2243H196.937V106.036H202.043V98.5205C202.043 96.6278 202.812 95.8324 204.596 95.8324H206.6V91.1694H205.228Z" fill="white"/>
<line x1="1" y1="32.5" x2="239" y2="32.5" stroke="#D60909"/>
<line x1="207.5" y1="1.83503e-08" x2="207.5" y2="204" stroke="#D60909"/>
<line x1="1" y1="171.5" x2="239" y2="171.5" stroke="#D60909"/>
<line x1="32.5" y1="1.83503e-08" x2="32.5" y2="204" stroke="#D60909"/>
<path d="M103.392 14.328H103.904C104.192 14.328 104.475 14.3067 104.752 14.264C105.04 14.2107 105.301 14.12 105.536 13.992C105.771 13.864 105.957 13.6933 106.096 13.48C106.245 13.256 106.32 12.968 106.32 12.616C106.32 12.36 106.272 12.1307 106.176 11.928C106.08 11.7253 105.947 11.5547 105.776 11.416C105.616 11.2773 105.424 11.1707 105.2 11.096C104.987 11.0213 104.763 10.984 104.528 10.984C104.059 10.984 103.669 11.1173 103.36 11.384C103.051 11.6507 102.837 12.0027 102.72 12.44L100.912 11.976C101.008 11.592 101.168 11.2453 101.392 10.936C101.627 10.616 101.904 10.344 102.224 10.12C102.555 9.88533 102.923 9.704 103.328 9.576C103.733 9.448 104.16 9.384 104.608 9.384C105.099 9.384 105.563 9.45333 106 9.592C106.448 9.72 106.837 9.91733 107.168 10.184C107.509 10.44 107.776 10.76 107.968 11.144C108.16 11.528 108.256 11.976 108.256 12.488C108.256 13.096 108.069 13.64 107.696 14.12C107.333 14.5893 106.843 14.8987 106.224 15.048V15.08C106.917 15.2187 107.477 15.5333 107.904 16.024C108.341 16.504 108.56 17.096 108.56 17.8C108.56 18.3867 108.443 18.8987 108.208 19.336C107.984 19.7733 107.68 20.136 107.296 20.424C106.923 20.712 106.501 20.9253 106.032 21.064C105.563 21.2133 105.088 21.288 104.608 21.288C104.128 21.288 103.675 21.2347 103.248 21.128C102.821 21.032 102.427 20.8773 102.064 20.664C101.712 20.4507 101.397 20.1733 101.12 19.832C100.853 19.4907 100.645 19.0853 100.496 18.616L102.288 18.056C102.427 18.504 102.683 18.8827 103.056 19.192C103.44 19.5013 103.936 19.656 104.544 19.656C104.789 19.656 105.035 19.624 105.28 19.56C105.536 19.4853 105.76 19.3733 105.952 19.224C106.155 19.0747 106.315 18.8827 106.432 18.648C106.56 18.4133 106.624 18.1253 106.624 17.784C106.624 17.4213 106.533 17.1173 106.352 16.872C106.181 16.616 105.963 16.4187 105.696 16.28C105.429 16.1307 105.131 16.024 104.8 15.96C104.48 15.896 104.171 15.864 103.872 15.864H103.392V14.328ZM111.37 19.24L115.738 14.952C116.09 14.6107 116.367 14.2693 116.57 13.928C116.783 13.576 116.89 13.176 116.89 12.728C116.89 12.1947 116.714 11.7733 116.362 11.464C116.02 11.144 115.594 10.984 115.082 10.984C114.538 10.984 114.1 11.1707 113.77 11.544C113.439 11.9067 113.236 12.3653 113.162 12.92L111.29 12.632C111.343 12.1627 111.476 11.7307 111.69 11.336C111.903 10.9413 112.175 10.6 112.506 10.312C112.836 10.024 113.22 9.8 113.658 9.64C114.106 9.46933 114.591 9.384 115.114 9.384C115.604 9.384 116.074 9.45333 116.522 9.592C116.98 9.73067 117.386 9.944 117.738 10.232C118.09 10.5093 118.367 10.856 118.57 11.272C118.783 11.6773 118.89 12.152 118.89 12.696C118.89 13.0587 118.842 13.4 118.746 13.72C118.65 14.0293 118.516 14.3227 118.346 14.6C118.186 14.8773 117.994 15.144 117.77 15.4C117.556 15.6453 117.322 15.8853 117.066 16.12L113.802 19.24H118.906V21H111.37V19.24ZM123.523 13.32V14.392H123.571C123.667 14.2427 123.79 14.0933 123.939 13.944C124.099 13.784 124.291 13.6453 124.515 13.528C124.739 13.4 124.99 13.2987 125.267 13.224C125.555 13.1387 125.875 13.096 126.227 13.096C126.771 13.096 127.273 13.2027 127.731 13.416C128.19 13.6187 128.585 13.9013 128.915 14.264C129.246 14.6267 129.502 15.0533 129.683 15.544C129.865 16.0347 129.955 16.5627 129.955 17.128C129.955 17.6933 129.865 18.2267 129.683 18.728C129.513 19.2187 129.262 19.6507 128.931 20.024C128.611 20.3867 128.217 20.68 127.747 20.904C127.289 21.1173 126.766 21.224 126.179 21.224C125.635 21.224 125.134 21.112 124.675 20.888C124.227 20.664 123.881 20.36 123.635 19.976H123.603V24.84H121.683V13.32H123.523ZM128.003 17.128C128.003 16.8293 127.955 16.536 127.859 16.248C127.774 15.9493 127.641 15.6827 127.459 15.448C127.278 15.2133 127.049 15.0267 126.771 14.888C126.494 14.7387 126.169 14.664 125.795 14.664C125.443 14.664 125.129 14.7387 124.851 14.888C124.574 15.0373 124.334 15.2293 124.131 15.464C123.939 15.6987 123.79 15.9653 123.683 16.264C123.587 16.5627 123.539 16.8613 123.539 17.16C123.539 17.4587 123.587 17.7573 123.683 18.056C123.79 18.344 123.939 18.6053 124.131 18.84C124.334 19.0747 124.574 19.2667 124.851 19.416C125.129 19.5547 125.443 19.624 125.795 19.624C126.169 19.624 126.494 19.5493 126.771 19.4C127.049 19.2507 127.278 19.0587 127.459 18.824C127.641 18.5893 127.774 18.3227 127.859 18.024C127.955 17.7253 128.003 17.4267 128.003 17.128ZM134.26 16.92L131.492 13.32H133.796L135.46 15.704L137.172 13.32H139.38L136.628 16.92L139.764 21H137.428L135.428 18.2L133.412 21H131.14L134.26 16.92Z" fill="white"/>
<path d="M103.392 186.328H103.904C104.192 186.328 104.475 186.307 104.752 186.264C105.04 186.211 105.301 186.12 105.536 185.992C105.771 185.864 105.957 185.693 106.096 185.48C106.245 185.256 106.32 184.968 106.32 184.616C106.32 184.36 106.272 184.131 106.176 183.928C106.08 183.725 105.947 183.555 105.776 183.416C105.616 183.277 105.424 183.171 105.2 183.096C104.987 183.021 104.763 182.984 104.528 182.984C104.059 182.984 103.669 183.117 103.36 183.384C103.051 183.651 102.837 184.003 102.72 184.44L100.912 183.976C101.008 183.592 101.168 183.245 101.392 182.936C101.627 182.616 101.904 182.344 102.224 182.12C102.555 181.885 102.923 181.704 103.328 181.576C103.733 181.448 104.16 181.384 104.608 181.384C105.099 181.384 105.563 181.453 106 181.592C106.448 181.72 106.837 181.917 107.168 182.184C107.509 182.44 107.776 182.76 107.968 183.144C108.16 183.528 108.256 183.976 108.256 184.488C108.256 185.096 108.069 185.64 107.696 186.12C107.333 186.589 106.843 186.899 106.224 187.048V187.08C106.917 187.219 107.477 187.533 107.904 188.024C108.341 188.504 108.56 189.096 108.56 189.8C108.56 190.387 108.443 190.899 108.208 191.336C107.984 191.773 107.68 192.136 107.296 192.424C106.923 192.712 106.501 192.925 106.032 193.064C105.563 193.213 105.088 193.288 104.608 193.288C104.128 193.288 103.675 193.235 103.248 193.128C102.821 193.032 102.427 192.877 102.064 192.664C101.712 192.451 101.397 192.173 101.12 191.832C100.853 191.491 100.645 191.085 100.496 190.616L102.288 190.056C102.427 190.504 102.683 190.883 103.056 191.192C103.44 191.501 103.936 191.656 104.544 191.656C104.789 191.656 105.035 191.624 105.28 191.56C105.536 191.485 105.76 191.373 105.952 191.224C106.155 191.075 106.315 190.883 106.432 190.648C106.56 190.413 106.624 190.125 106.624 189.784C106.624 189.421 106.533 189.117 106.352 188.872C106.181 188.616 105.963 188.419 105.696 188.28C105.429 188.131 105.131 188.024 104.8 187.96C104.48 187.896 104.171 187.864 103.872 187.864H103.392V186.328ZM111.37 191.24L115.738 186.952C116.09 186.611 116.367 186.269 116.57 185.928C116.783 185.576 116.89 185.176 116.89 184.728C116.89 184.195 116.714 183.773 116.362 183.464C116.02 183.144 115.594 182.984 115.082 182.984C114.538 182.984 114.1 183.171 113.77 183.544C113.439 183.907 113.236 184.365 113.162 184.92L111.29 184.632C111.343 184.163 111.476 183.731 111.69 183.336C111.903 182.941 112.175 182.6 112.506 182.312C112.836 182.024 113.22 181.8 113.658 181.64C114.106 181.469 114.591 181.384 115.114 181.384C115.604 181.384 116.074 181.453 116.522 181.592C116.98 181.731 117.386 181.944 117.738 182.232C118.09 182.509 118.367 182.856 118.57 183.272C118.783 183.677 118.89 184.152 118.89 184.696C118.89 185.059 118.842 185.4 118.746 185.72C118.65 186.029 118.516 186.323 118.346 186.6C118.186 186.877 117.994 187.144 117.77 187.4C117.556 187.645 117.322 187.885 117.066 188.12L113.802 191.24H118.906V193H111.37V191.24ZM123.523 185.32V186.392H123.571C123.667 186.243 123.79 186.093 123.939 185.944C124.099 185.784 124.291 185.645 124.515 185.528C124.739 185.4 124.99 185.299 125.267 185.224C125.555 185.139 125.875 185.096 126.227 185.096C126.771 185.096 127.273 185.203 127.731 185.416C128.19 185.619 128.585 185.901 128.915 186.264C129.246 186.627 129.502 187.053 129.683 187.544C129.865 188.035 129.955 188.563 129.955 189.128C129.955 189.693 129.865 190.227 129.683 190.728C129.513 191.219 129.262 191.651 128.931 192.024C128.611 192.387 128.217 192.68 127.747 192.904C127.289 193.117 126.766 193.224 126.179 193.224C125.635 193.224 125.134 193.112 124.675 192.888C124.227 192.664 123.881 192.36 123.635 191.976H123.603V196.84H121.683V185.32H123.523ZM128.003 189.128C128.003 188.829 127.955 188.536 127.859 188.248C127.774 187.949 127.641 187.683 127.459 187.448C127.278 187.213 127.049 187.027 126.771 186.888C126.494 186.739 126.169 186.664 125.795 186.664C125.443 186.664 125.129 186.739 124.851 186.888C124.574 187.037 124.334 187.229 124.131 187.464C123.939 187.699 123.79 187.965 123.683 188.264C123.587 188.563 123.539 188.861 123.539 189.16C123.539 189.459 123.587 189.757 123.683 190.056C123.79 190.344 123.939 190.605 124.131 190.84C124.334 191.075 124.574 191.267 124.851 191.416C125.129 191.555 125.443 191.624 125.795 191.624C126.169 191.624 126.494 191.549 126.771 191.4C127.049 191.251 127.278 191.059 127.459 190.824C127.641 190.589 127.774 190.323 127.859 190.024C127.955 189.725 128.003 189.427 128.003 189.128ZM134.26 188.92L131.492 185.32H133.796L135.46 187.704L137.172 185.32H139.38L136.628 188.92L139.764 193H137.428L135.428 190.2L133.412 193H131.14L134.26 188.92Z" fill="white"/>
<path d="M16.672 91.392L16.672 91.904C16.672 92.192 16.6933 92.4747 16.736 92.752C16.7893 93.04 16.88 93.3013 17.008 93.536C17.136 93.7707 17.3067 93.9573 17.52 94.096C17.744 94.2453 18.032 94.32 18.384 94.32C18.64 94.32 18.8693 94.272 19.072 94.176C19.2747 94.08 19.4453 93.9467 19.584 93.776C19.7227 93.616 19.8293 93.424 19.904 93.2C19.9787 92.9867 20.016 92.7627 20.016 92.528C20.016 92.0587 19.8827 91.6693 19.616 91.36C19.3493 91.0507 18.9973 90.8373 18.56 90.72L19.024 88.912C19.408 89.008 19.7547 89.168 20.064 89.392C20.384 89.6267 20.656 89.904 20.88 90.224C21.1147 90.5547 21.296 90.9227 21.424 91.328C21.552 91.7333 21.616 92.16 21.616 92.608C21.616 93.0987 21.5467 93.5627 21.408 94C21.28 94.448 21.0827 94.8373 20.816 95.168C20.56 95.5093 20.24 95.776 19.856 95.968C19.472 96.16 19.024 96.256 18.512 96.256C17.904 96.256 17.36 96.0693 16.88 95.696C16.4107 95.3333 16.1013 94.8427 15.952 94.224L15.92 94.224C15.7813 94.9173 15.4667 95.4773 14.976 95.904C14.496 96.3413 13.904 96.56 13.2 96.56C12.6133 96.56 12.1013 96.4427 11.664 96.208C11.2267 95.984 10.864 95.68 10.576 95.296C10.288 94.9227 10.0747 94.5013 9.936 94.032C9.78667 93.5627 9.712 93.088 9.712 92.608C9.712 92.128 9.76533 91.6747 9.872 91.248C9.968 90.8213 10.1227 90.4267 10.336 90.064C10.5493 89.712 10.8267 89.3973 11.168 89.12C11.5093 88.8533 11.9147 88.6453 12.384 88.496L12.944 90.288C12.496 90.4267 12.1173 90.6827 11.808 91.056C11.4987 91.44 11.344 91.936 11.344 92.544C11.344 92.7893 11.376 93.0347 11.44 93.28C11.5147 93.536 11.6267 93.76 11.776 93.952C11.9253 94.1547 12.1173 94.3147 12.352 94.432C12.5867 94.56 12.8747 94.624 13.216 94.624C13.5787 94.624 13.8827 94.5333 14.128 94.352C14.384 94.1813 14.5813 93.9627 14.72 93.696C14.8693 93.4293 14.976 93.1307 15.04 92.8C15.104 92.48 15.136 92.1707 15.136 91.872L15.136 91.392L16.672 91.392ZM11.76 99.3696L16.048 103.738C16.3893 104.09 16.7307 104.367 17.072 104.57C17.424 104.783 17.824 104.89 18.272 104.89C18.8053 104.89 19.2267 104.714 19.536 104.362C19.856 104.02 20.016 103.594 20.016 103.082C20.016 102.538 19.8293 102.1 19.456 101.77C19.0933 101.439 18.6347 101.236 18.08 101.162L18.368 99.2896C18.8373 99.343 19.2693 99.4763 19.664 99.6896C20.0587 99.903 20.4 100.175 20.688 100.506C20.976 100.836 21.2 101.22 21.36 101.658C21.5307 102.106 21.616 102.591 21.616 103.114C21.616 103.604 21.5467 104.074 21.408 104.522C21.2693 104.98 21.056 105.386 20.768 105.738C20.4907 106.09 20.144 106.367 19.728 106.57C19.3227 106.783 18.848 106.89 18.304 106.89C17.9413 106.89 17.6 106.842 17.28 106.746C16.9707 106.65 16.6773 106.516 16.4 106.346C16.1227 106.186 15.856 105.994 15.6 105.77C15.3547 105.556 15.1147 105.322 14.88 105.066L11.76 101.802L11.76 106.906L10 106.906L10 99.3696L11.76 99.3696ZM17.68 111.523L16.608 111.523L16.608 111.571C16.7573 111.667 16.9067 111.79 17.056 111.939C17.216 112.099 17.3547 112.291 17.472 112.515C17.6 112.739 17.7013 112.99 17.776 113.267C17.8613 113.555 17.904 113.875 17.904 114.227C17.904 114.771 17.7973 115.273 17.584 115.731C17.3813 116.19 17.0987 116.585 16.736 116.915C16.3733 117.246 15.9467 117.502 15.456 117.683C14.9653 117.865 14.4373 117.955 13.872 117.955C13.3067 117.955 12.7733 117.865 12.272 117.683C11.7813 117.513 11.3493 117.262 10.976 116.931C10.6133 116.611 10.32 116.217 10.096 115.747C9.88267 115.289 9.776 114.766 9.776 114.179C9.776 113.635 9.888 113.134 10.112 112.675C10.336 112.227 10.64 111.881 11.024 111.635L11.024 111.603L6.16 111.603L6.16 109.683L17.68 109.683L17.68 111.523ZM13.872 116.003C14.1707 116.003 14.464 115.955 14.752 115.859C15.0507 115.774 15.3173 115.641 15.552 115.459C15.7867 115.278 15.9733 115.049 16.112 114.771C16.2613 114.494 16.336 114.169 16.336 113.795C16.336 113.443 16.2613 113.129 16.112 112.851C15.9627 112.574 15.7707 112.334 15.536 112.131C15.3013 111.939 15.0347 111.79 14.736 111.683C14.4373 111.587 14.1387 111.539 13.84 111.539C13.5413 111.539 13.2427 111.587 12.944 111.683C12.656 111.79 12.3947 111.939 12.16 112.131C11.9253 112.334 11.7333 112.574 11.584 112.851C11.4453 113.129 11.376 113.443 11.376 113.795C11.376 114.169 11.4507 114.494 11.6 114.771C11.7493 115.049 11.9413 115.278 12.176 115.459C12.4107 115.641 12.6773 115.774 12.976 115.859C13.2747 115.955 13.5733 116.003 13.872 116.003ZM14.08 122.26L17.68 119.492L17.68 121.796L15.296 123.46L17.68 125.172L17.68 127.38L14.08 124.628L10 127.764L10 125.428L12.8 123.428L10 121.412L10 119.14L14.08 122.26Z" fill="white"/>
<path d="M222.328 124.608V124.096C222.328 123.808 222.307 123.525 222.264 123.248C222.211 122.96 222.12 122.699 221.992 122.464C221.864 122.229 221.693 122.043 221.48 121.904C221.256 121.755 220.968 121.68 220.616 121.68C220.36 121.68 220.131 121.728 219.928 121.824C219.725 121.92 219.555 122.053 219.416 122.224C219.277 122.384 219.171 122.576 219.096 122.8C219.021 123.013 218.984 123.237 218.984 123.472C218.984 123.941 219.117 124.331 219.384 124.64C219.651 124.949 220.003 125.163 220.44 125.28L219.976 127.088C219.592 126.992 219.245 126.832 218.936 126.608C218.616 126.373 218.344 126.096 218.12 125.776C217.885 125.445 217.704 125.077 217.576 124.672C217.448 124.267 217.384 123.84 217.384 123.392C217.384 122.901 217.453 122.437 217.592 122C217.72 121.552 217.917 121.163 218.184 120.832C218.44 120.491 218.76 120.224 219.144 120.032C219.528 119.84 219.976 119.744 220.488 119.744C221.096 119.744 221.64 119.931 222.12 120.304C222.589 120.667 222.899 121.157 223.048 121.776H223.08C223.219 121.083 223.533 120.523 224.024 120.096C224.504 119.659 225.096 119.44 225.8 119.44C226.387 119.44 226.899 119.557 227.336 119.792C227.773 120.016 228.136 120.32 228.424 120.704C228.712 121.077 228.925 121.499 229.064 121.968C229.213 122.437 229.288 122.912 229.288 123.392C229.288 123.872 229.235 124.325 229.128 124.752C229.032 125.179 228.877 125.573 228.664 125.936C228.451 126.288 228.173 126.603 227.832 126.88C227.491 127.147 227.085 127.355 226.616 127.504L226.056 125.712C226.504 125.573 226.883 125.317 227.192 124.944C227.501 124.56 227.656 124.064 227.656 123.456C227.656 123.211 227.624 122.965 227.56 122.72C227.485 122.464 227.373 122.24 227.224 122.048C227.075 121.845 226.883 121.685 226.648 121.568C226.413 121.44 226.125 121.376 225.784 121.376C225.421 121.376 225.117 121.467 224.872 121.648C224.616 121.819 224.419 122.037 224.28 122.304C224.131 122.571 224.024 122.869 223.96 123.2C223.896 123.52 223.864 123.829 223.864 124.128V124.608H222.328ZM227.24 116.63L222.952 112.262C222.611 111.91 222.269 111.633 221.928 111.43C221.576 111.217 221.176 111.11 220.728 111.11C220.195 111.11 219.773 111.286 219.464 111.638C219.144 111.98 218.984 112.406 218.984 112.918C218.984 113.462 219.171 113.9 219.544 114.23C219.907 114.561 220.365 114.764 220.92 114.838L220.632 116.71C220.163 116.657 219.731 116.524 219.336 116.31C218.941 116.097 218.6 115.825 218.312 115.494C218.024 115.164 217.8 114.78 217.64 114.342C217.469 113.894 217.384 113.409 217.384 112.886C217.384 112.396 217.453 111.926 217.592 111.478C217.731 111.02 217.944 110.614 218.232 110.262C218.509 109.91 218.856 109.633 219.272 109.43C219.677 109.217 220.152 109.11 220.696 109.11C221.059 109.11 221.4 109.158 221.72 109.254C222.029 109.35 222.323 109.484 222.6 109.654C222.877 109.814 223.144 110.006 223.4 110.23C223.645 110.444 223.885 110.678 224.12 110.934L227.24 114.198V109.094H229V116.63H227.24ZM221.32 104.477H222.392V104.429C222.243 104.333 222.093 104.21 221.944 104.061C221.784 103.901 221.645 103.709 221.528 103.485C221.4 103.261 221.299 103.01 221.224 102.733C221.139 102.445 221.096 102.125 221.096 101.773C221.096 101.229 221.203 100.727 221.416 100.269C221.619 99.8101 221.901 99.4154 222.264 99.0847C222.627 98.7541 223.053 98.4981 223.544 98.3167C224.035 98.1354 224.563 98.0447 225.128 98.0447C225.693 98.0447 226.227 98.1354 226.728 98.3167C227.219 98.4874 227.651 98.7381 228.024 99.0687C228.387 99.3887 228.68 99.7834 228.904 100.253C229.117 100.711 229.224 101.234 229.224 101.821C229.224 102.365 229.112 102.866 228.888 103.325C228.664 103.773 228.36 104.119 227.976 104.365V104.397H232.84V106.317H221.32V104.477ZM225.128 99.9967C224.829 99.9967 224.536 100.045 224.248 100.141C223.949 100.226 223.683 100.359 223.448 100.541C223.213 100.722 223.027 100.951 222.888 101.229C222.739 101.506 222.664 101.831 222.664 102.205C222.664 102.557 222.739 102.871 222.888 103.149C223.037 103.426 223.229 103.666 223.464 103.869C223.699 104.061 223.965 104.21 224.264 104.317C224.563 104.413 224.861 104.461 225.16 104.461C225.459 104.461 225.757 104.413 226.056 104.317C226.344 104.21 226.605 104.061 226.84 103.869C227.075 103.666 227.267 103.426 227.416 103.149C227.555 102.871 227.624 102.557 227.624 102.205C227.624 101.831 227.549 101.506 227.4 101.229C227.251 100.951 227.059 100.722 226.824 100.541C226.589 100.359 226.323 100.226 226.024 100.141C225.725 100.045 225.427 99.9967 225.128 99.9967ZM224.92 93.7397L221.32 96.5077V94.2037L223.704 92.5397L221.32 90.8277V88.6198L224.92 91.3717L229 88.2357V90.5717L226.2 92.5717L229 94.5877V96.8598L224.92 93.7397Z" fill="white"/>
<defs>
<linearGradient id="paint0_linear_2471_7702" x1="138.055" y1="61.5982" x2="138.055" y2="148.172" gradientUnits="userSpaceOnUse">
<stop stop-color="#FAB961"/>
<stop offset="1"/>
</linearGradient>
<linearGradient id="paint1_linear_2471_7702" x1="96.7208" y1="44.04" x2="96.7208" y2="172.363" gradientUnits="userSpaceOnUse">
<stop stop-color="#FAB961"/>
<stop offset="1"/>
</linearGradient>
<linearGradient id="paint2_linear_2471_7702" x1="92.3581" y1="33.3814" x2="92.3581" y2="148.332" gradientUnits="userSpaceOnUse">
<stop/>
<stop offset="0.414296" stop-color="#FAB961"/>
</linearGradient>
<linearGradient id="paint3_linear_2471_7702" x1="93.7359" y1="61.2649" x2="93.7359" y2="154.743" gradientUnits="userSpaceOnUse">
<stop/>
<stop offset="1" stop-color="#FAB961"/>
</linearGradient>
<linearGradient id="paint4_linear_2471_7702" x1="104.224" y1="55.7623" x2="104.224" y2="145.638" gradientUnits="userSpaceOnUse">
<stop/>
<stop offset="1" stop-color="#FAB961"/>
</linearGradient>
</defs>
</svg>
