<svg width="206" height="206" viewBox="0 0 206 206" fill="none" xmlns="http://www.w3.org/2000/svg">
<circle cx="103" cy="103" r="103" fill="black"/>
<path d="M150.374 76.7951C149.893 78.0615 129.694 65.3499 111.247 74.0223C97.8356 80.3276 92.2948 92.5513 92.2948 102.975C92.2948 111.187 95.1423 117.392 98.2549 121.436C103.318 128.012 108.027 130.486 112.095 132.685C118.646 136.226 129.789 136.344 133.172 136.168C139.471 135.841 146.872 134.017 153.113 131.099C155.495 129.985 159.365 127.569 162.754 124.866C168.541 120.252 173.872 114.447 173.779 114.896C173.632 115.608 173.692 116.171 170.797 121.258C162.222 136.329 147.966 142.903 147.966 142.903C127.881 153.545 110.058 148.025 106.594 146.701C91.3862 140.885 83.4547 129.981 81.6015 126.513C78.5794 120.857 73.1615 100.085 80.4208 83.5745C85.8006 71.339 98.2726 65.3275 99.6497 64.7521C121.871 55.4631 150.811 75.6444 150.374 76.7951Z" fill="url(#paint0_linear_2471_7713)"/>
<path d="M151.009 75.7402C150.106 76.5782 143.619 68.781 133.204 63.15C130.226 61.5405 118.866 55.7555 104.991 56.0525C81.9902 56.5426 66.7049 73.4398 63.9792 76.5714C50.3557 92.2227 43.9414 116.323 51.6042 135.077C61.5627 159.448 94.883 173.466 92.3496 173.742L89.4343 172.809C85.9176 171.42 42.7548 151.953 41.2089 113.162C40.3373 91.3042 47.3552 73.6024 51.6042 68.7701C59.0284 60.327 64.9814 56.2622 69.9999 53.5775C80.0841 48.1866 99.049 43.5671 113.124 45.6892C128.917 48.071 138.83 59.1116 143.664 64.4957C148.025 69.3514 151.738 75.0629 151.009 75.7402Z" fill="url(#paint1_linear_2471_7713)"/>
<path d="M150.895 76.7729C151.962 76.2985 150.538 61.784 141.118 50.7463C137.319 46.2861 133.142 42.2305 128.014 39.3922C106.813 27.8909 80.7455 37.1398 75.1027 39.3922C69.3225 41.6985 56.9892 48.0005 46.6352 60.9309C34.9639 75.508 33.2354 91.1466 32.5709 97.9921C29.7314 127.223 44.9164 150.178 45.9972 149.832C46.627 149.63 39.738 135.025 41.2093 113.162C41.7697 104.839 42.921 89.5953 53.4655 74.9634C59.8529 66.3339 67.2422 59.1509 76.8818 54.4085C82.4598 51.6503 102.418 42.7605 122.405 49.8206C128.494 52.0157 134.101 55.3664 138.916 59.688C147.617 67.6479 150.022 77.1621 150.895 76.7729Z" fill="url(#paint2_linear_2471_7713)"/>
<path d="M120.187 158.648C119.687 159.501 85.1069 149.624 72.1164 125.281C70.1612 121.619 61.1325 102.099 67.056 86.9029C69.5333 80.5465 74.4105 73.4305 76.3804 71.2202C79.5625 67.6505 84.9609 64.4412 91.8159 61.533C94.8959 60.2571 100.523 58.9289 103.828 58.4891C107.105 58.0853 112.137 58.172 115.424 58.4891C121.812 59.1055 130.446 66.5717 130.203 66.5717C130.138 66.5717 123.35 64.3938 116.333 63.9112C110.516 63.5111 104.206 64.863 101.968 65.6549C97.0303 67.4021 90.2626 71.2202 86.3494 76.0442C82.4363 80.8682 79.096 87.6863 78.3845 96.8262C77.8629 103.526 78.5786 113.3 81.4803 120.919C82.8712 124.571 85.2669 129.219 89.8712 135.34C99.6717 148.369 120.549 158.037 120.187 158.648Z" fill="url(#paint3_linear_2471_7713)"/>
<path d="M101.452 55.4341C107.451 54.5685 112.585 54.2701 118.533 55.4341C125.36 56.8063 129.135 58.2207 133.784 60.6005C141.725 64.6653 151.775 75.0881 151.01 76.6524C149.646 79.441 128.486 57.0344 99.4157 64.7455C91.1944 67.5539 86.1242 70.1764 80.8739 74.182C71.9315 81.0043 67.5002 89.978 66.1 93.6478C63.6961 99.9484 63.0433 103.494 62.7523 110.198C62.7523 119.226 64.4403 124.463 66.4819 130.203C69.3862 138.372 74.8028 147.712 73.9326 147.107C63.9814 140.188 57.763 118.84 57.0759 114.415C56.3889 109.991 53.455 90.8259 66.1 74.8678C77.628 60.3202 96.9801 56.0859 101.452 55.4341Z" fill="url(#paint4_linear_2471_7713)"/>
<line x1="31.5" y1="1.85302e-08" x2="31.5" y2="206" stroke="#D60909"/>
<line x1="174.5" y1="1.85302e-08" x2="174.5" y2="206" stroke="#D60909"/>
<line y1="172.5" x2="206" y2="172.5" stroke="#D60909"/>
<line y1="33.5" x2="206" y2="33.5" stroke="#D60909"/>
<path d="M90.392 16.328H90.904C91.192 16.328 91.4747 16.3067 91.752 16.264C92.04 16.2107 92.3013 16.12 92.536 15.992C92.7707 15.864 92.9573 15.6933 93.096 15.48C93.2453 15.256 93.32 14.968 93.32 14.616C93.32 14.36 93.272 14.1307 93.176 13.928C93.08 13.7253 92.9467 13.5547 92.776 13.416C92.616 13.2773 92.424 13.1707 92.2 13.096C91.9867 13.0213 91.7627 12.984 91.528 12.984C91.0587 12.984 90.6693 13.1173 90.36 13.384C90.0507 13.6507 89.8373 14.0027 89.72 14.44L87.912 13.976C88.008 13.592 88.168 13.2453 88.392 12.936C88.6267 12.616 88.904 12.344 89.224 12.12C89.5547 11.8853 89.9227 11.704 90.328 11.576C90.7333 11.448 91.16 11.384 91.608 11.384C92.0987 11.384 92.5627 11.4533 93 11.592C93.448 11.72 93.8373 11.9173 94.168 12.184C94.5093 12.44 94.776 12.76 94.968 13.144C95.16 13.528 95.256 13.976 95.256 14.488C95.256 15.096 95.0693 15.64 94.696 16.12C94.3333 16.5893 93.8427 16.8987 93.224 17.048V17.08C93.9173 17.2187 94.4773 17.5333 94.904 18.024C95.3413 18.504 95.56 19.096 95.56 19.8C95.56 20.3867 95.4427 20.8987 95.208 21.336C94.984 21.7733 94.68 22.136 94.296 22.424C93.9227 22.712 93.5013 22.9253 93.032 23.064C92.5627 23.2133 92.088 23.288 91.608 23.288C91.128 23.288 90.6747 23.2347 90.248 23.128C89.8213 23.032 89.4267 22.8773 89.064 22.664C88.712 22.4507 88.3973 22.1733 88.12 21.832C87.8533 21.4907 87.6453 21.0853 87.496 20.616L89.288 20.056C89.4267 20.504 89.6827 20.8827 90.056 21.192C90.44 21.5013 90.936 21.656 91.544 21.656C91.7893 21.656 92.0347 21.624 92.28 21.56C92.536 21.4853 92.76 21.3733 92.952 21.224C93.1547 21.0747 93.3147 20.8827 93.432 20.648C93.56 20.4133 93.624 20.1253 93.624 19.784C93.624 19.4213 93.5333 19.1173 93.352 18.872C93.1813 18.616 92.9627 18.4187 92.696 18.28C92.4293 18.1307 92.1307 18.024 91.8 17.96C91.48 17.896 91.1707 17.864 90.872 17.864H90.392V16.328ZM98.3696 21.24L102.738 16.952C103.09 16.6107 103.367 16.2693 103.57 15.928C103.783 15.576 103.89 15.176 103.89 14.728C103.89 14.1947 103.714 13.7733 103.362 13.464C103.02 13.144 102.594 12.984 102.082 12.984C101.538 12.984 101.1 13.1707 100.77 13.544C100.439 13.9067 100.236 14.3653 100.162 14.92L98.2896 14.632C98.343 14.1627 98.4763 13.7307 98.6896 13.336C98.903 12.9413 99.175 12.6 99.5056 12.312C99.8363 12.024 100.22 11.8 100.658 11.64C101.106 11.4693 101.591 11.384 102.114 11.384C102.604 11.384 103.074 11.4533 103.522 11.592C103.98 11.7307 104.386 11.944 104.738 12.232C105.09 12.5093 105.367 12.856 105.57 13.272C105.783 13.6773 105.89 14.152 105.89 14.696C105.89 15.0587 105.842 15.4 105.746 15.72C105.65 16.0293 105.516 16.3227 105.346 16.6C105.186 16.8773 104.994 17.144 104.77 17.4C104.556 17.6453 104.322 17.8853 104.066 18.12L100.802 21.24H105.906V23H98.3696V21.24ZM110.523 15.32V16.392H110.571C110.667 16.2427 110.79 16.0933 110.939 15.944C111.099 15.784 111.291 15.6453 111.515 15.528C111.739 15.4 111.99 15.2987 112.267 15.224C112.555 15.1387 112.875 15.096 113.227 15.096C113.771 15.096 114.273 15.2027 114.731 15.416C115.19 15.6187 115.585 15.9013 115.915 16.264C116.246 16.6267 116.502 17.0533 116.683 17.544C116.865 18.0347 116.955 18.5627 116.955 19.128C116.955 19.6933 116.865 20.2267 116.683 20.728C116.513 21.2187 116.262 21.6507 115.931 22.024C115.611 22.3867 115.217 22.68 114.747 22.904C114.289 23.1173 113.766 23.224 113.179 23.224C112.635 23.224 112.134 23.112 111.675 22.888C111.227 22.664 110.881 22.36 110.635 21.976H110.603V26.84H108.683V15.32H110.523ZM115.003 19.128C115.003 18.8293 114.955 18.536 114.859 18.248C114.774 17.9493 114.641 17.6827 114.459 17.448C114.278 17.2133 114.049 17.0267 113.771 16.888C113.494 16.7387 113.169 16.664 112.795 16.664C112.443 16.664 112.129 16.7387 111.851 16.888C111.574 17.0373 111.334 17.2293 111.131 17.464C110.939 17.6987 110.79 17.9653 110.683 18.264C110.587 18.5627 110.539 18.8613 110.539 19.16C110.539 19.4587 110.587 19.7573 110.683 20.056C110.79 20.344 110.939 20.6053 111.131 20.84C111.334 21.0747 111.574 21.2667 111.851 21.416C112.129 21.5547 112.443 21.624 112.795 21.624C113.169 21.624 113.494 21.5493 113.771 21.4C114.049 21.2507 114.278 21.0587 114.459 20.824C114.641 20.5893 114.774 20.3227 114.859 20.024C114.955 19.7253 115.003 19.4267 115.003 19.128ZM121.26 18.92L118.492 15.32H120.796L122.46 17.704L124.172 15.32H126.38L123.628 18.92L126.764 23H124.428L122.428 20.2L120.412 23H118.14L121.26 18.92Z" fill="white"/>
<path d="M90.392 188.328H90.904C91.192 188.328 91.4747 188.307 91.752 188.264C92.04 188.211 92.3013 188.12 92.536 187.992C92.7707 187.864 92.9573 187.693 93.096 187.48C93.2453 187.256 93.32 186.968 93.32 186.616C93.32 186.36 93.272 186.131 93.176 185.928C93.08 185.725 92.9467 185.555 92.776 185.416C92.616 185.277 92.424 185.171 92.2 185.096C91.9867 185.021 91.7627 184.984 91.528 184.984C91.0587 184.984 90.6693 185.117 90.36 185.384C90.0507 185.651 89.8373 186.003 89.72 186.44L87.912 185.976C88.008 185.592 88.168 185.245 88.392 184.936C88.6267 184.616 88.904 184.344 89.224 184.12C89.5547 183.885 89.9227 183.704 90.328 183.576C90.7333 183.448 91.16 183.384 91.608 183.384C92.0987 183.384 92.5627 183.453 93 183.592C93.448 183.72 93.8373 183.917 94.168 184.184C94.5093 184.44 94.776 184.76 94.968 185.144C95.16 185.528 95.256 185.976 95.256 186.488C95.256 187.096 95.0693 187.64 94.696 188.12C94.3333 188.589 93.8427 188.899 93.224 189.048V189.08C93.9173 189.219 94.4773 189.533 94.904 190.024C95.3413 190.504 95.56 191.096 95.56 191.8C95.56 192.387 95.4427 192.899 95.208 193.336C94.984 193.773 94.68 194.136 94.296 194.424C93.9227 194.712 93.5013 194.925 93.032 195.064C92.5627 195.213 92.088 195.288 91.608 195.288C91.128 195.288 90.6747 195.235 90.248 195.128C89.8213 195.032 89.4267 194.877 89.064 194.664C88.712 194.451 88.3973 194.173 88.12 193.832C87.8533 193.491 87.6453 193.085 87.496 192.616L89.288 192.056C89.4267 192.504 89.6827 192.883 90.056 193.192C90.44 193.501 90.936 193.656 91.544 193.656C91.7893 193.656 92.0347 193.624 92.28 193.56C92.536 193.485 92.76 193.373 92.952 193.224C93.1547 193.075 93.3147 192.883 93.432 192.648C93.56 192.413 93.624 192.125 93.624 191.784C93.624 191.421 93.5333 191.117 93.352 190.872C93.1813 190.616 92.9627 190.419 92.696 190.28C92.4293 190.131 92.1307 190.024 91.8 189.96C91.48 189.896 91.1707 189.864 90.872 189.864H90.392V188.328ZM98.3696 193.24L102.738 188.952C103.09 188.611 103.367 188.269 103.57 187.928C103.783 187.576 103.89 187.176 103.89 186.728C103.89 186.195 103.714 185.773 103.362 185.464C103.02 185.144 102.594 184.984 102.082 184.984C101.538 184.984 101.1 185.171 100.77 185.544C100.439 185.907 100.236 186.365 100.162 186.92L98.2896 186.632C98.343 186.163 98.4763 185.731 98.6896 185.336C98.903 184.941 99.175 184.6 99.5056 184.312C99.8363 184.024 100.22 183.8 100.658 183.64C101.106 183.469 101.591 183.384 102.114 183.384C102.604 183.384 103.074 183.453 103.522 183.592C103.98 183.731 104.386 183.944 104.738 184.232C105.09 184.509 105.367 184.856 105.57 185.272C105.783 185.677 105.89 186.152 105.89 186.696C105.89 187.059 105.842 187.4 105.746 187.72C105.65 188.029 105.516 188.323 105.346 188.6C105.186 188.877 104.994 189.144 104.77 189.4C104.556 189.645 104.322 189.885 104.066 190.12L100.802 193.24H105.906V195H98.3696V193.24ZM110.523 187.32V188.392H110.571C110.667 188.243 110.79 188.093 110.939 187.944C111.099 187.784 111.291 187.645 111.515 187.528C111.739 187.4 111.99 187.299 112.267 187.224C112.555 187.139 112.875 187.096 113.227 187.096C113.771 187.096 114.273 187.203 114.731 187.416C115.19 187.619 115.585 187.901 115.915 188.264C116.246 188.627 116.502 189.053 116.683 189.544C116.865 190.035 116.955 190.563 116.955 191.128C116.955 191.693 116.865 192.227 116.683 192.728C116.513 193.219 116.262 193.651 115.931 194.024C115.611 194.387 115.217 194.68 114.747 194.904C114.289 195.117 113.766 195.224 113.179 195.224C112.635 195.224 112.134 195.112 111.675 194.888C111.227 194.664 110.881 194.36 110.635 193.976H110.603V198.84H108.683V187.32H110.523ZM115.003 191.128C115.003 190.829 114.955 190.536 114.859 190.248C114.774 189.949 114.641 189.683 114.459 189.448C114.278 189.213 114.049 189.027 113.771 188.888C113.494 188.739 113.169 188.664 112.795 188.664C112.443 188.664 112.129 188.739 111.851 188.888C111.574 189.037 111.334 189.229 111.131 189.464C110.939 189.699 110.79 189.965 110.683 190.264C110.587 190.563 110.539 190.861 110.539 191.16C110.539 191.459 110.587 191.757 110.683 192.056C110.79 192.344 110.939 192.605 111.131 192.84C111.334 193.075 111.574 193.267 111.851 193.416C112.129 193.555 112.443 193.624 112.795 193.624C113.169 193.624 113.494 193.549 113.771 193.4C114.049 193.251 114.278 193.059 114.459 192.824C114.641 192.589 114.774 192.323 114.859 192.024C114.955 191.725 115.003 191.427 115.003 191.128ZM121.26 190.92L118.492 187.32H120.796L122.46 189.704L124.172 187.32H126.38L123.628 190.92L126.764 195H124.428L122.428 192.2L120.412 195H118.14L121.26 190.92Z" fill="white"/>
<path d="M17.672 89.392L17.672 89.904C17.672 90.192 17.6933 90.4747 17.736 90.752C17.7893 91.04 17.88 91.3013 18.008 91.536C18.136 91.7707 18.3067 91.9573 18.52 92.096C18.744 92.2453 19.032 92.32 19.384 92.32C19.64 92.32 19.8693 92.272 20.072 92.176C20.2747 92.08 20.4453 91.9467 20.584 91.776C20.7227 91.616 20.8293 91.424 20.904 91.2C20.9787 90.9867 21.016 90.7627 21.016 90.528C21.016 90.0587 20.8827 89.6693 20.616 89.36C20.3493 89.0507 19.9973 88.8373 19.56 88.72L20.024 86.912C20.408 87.008 20.7547 87.168 21.064 87.392C21.384 87.6267 21.656 87.904 21.88 88.224C22.1147 88.5547 22.296 88.9227 22.424 89.328C22.552 89.7333 22.616 90.16 22.616 90.608C22.616 91.0987 22.5467 91.5627 22.408 92C22.28 92.448 22.0827 92.8373 21.816 93.168C21.56 93.5093 21.24 93.776 20.856 93.968C20.472 94.16 20.024 94.256 19.512 94.256C18.904 94.256 18.36 94.0693 17.88 93.696C17.4107 93.3333 17.1013 92.8427 16.952 92.224L16.92 92.224C16.7813 92.9173 16.4667 93.4773 15.976 93.904C15.496 94.3413 14.904 94.56 14.2 94.56C13.6133 94.56 13.1013 94.4427 12.664 94.208C12.2267 93.984 11.864 93.68 11.576 93.296C11.288 92.9227 11.0747 92.5013 10.936 92.032C10.7867 91.5627 10.712 91.088 10.712 90.608C10.712 90.128 10.7653 89.6747 10.872 89.248C10.968 88.8213 11.1227 88.4267 11.336 88.064C11.5493 87.712 11.8267 87.3973 12.168 87.12C12.5093 86.8533 12.9147 86.6453 13.384 86.496L13.944 88.288C13.496 88.4267 13.1173 88.6827 12.808 89.056C12.4987 89.44 12.344 89.936 12.344 90.544C12.344 90.7893 12.376 91.0347 12.44 91.28C12.5147 91.536 12.6267 91.76 12.776 91.952C12.9253 92.1547 13.1173 92.3147 13.352 92.432C13.5867 92.56 13.8747 92.624 14.216 92.624C14.5787 92.624 14.8827 92.5333 15.128 92.352C15.384 92.1813 15.5813 91.9627 15.72 91.696C15.8693 91.4293 15.976 91.1307 16.04 90.8C16.104 90.48 16.136 90.1707 16.136 89.872L16.136 89.392L17.672 89.392ZM12.76 97.3696L17.048 101.738C17.3893 102.09 17.7307 102.367 18.072 102.57C18.424 102.783 18.824 102.89 19.272 102.89C19.8053 102.89 20.2267 102.714 20.536 102.362C20.856 102.02 21.016 101.594 21.016 101.082C21.016 100.538 20.8293 100.1 20.456 99.7696C20.0933 99.439 19.6347 99.2363 19.08 99.1616L19.368 97.2896C19.8373 97.343 20.2693 97.4763 20.664 97.6896C21.0587 97.903 21.4 98.175 21.688 98.5056C21.976 98.8363 22.2 99.2203 22.36 99.6576C22.5307 100.106 22.616 100.591 22.616 101.114C22.616 101.604 22.5467 102.074 22.408 102.522C22.2693 102.98 22.056 103.386 21.768 103.738C21.4907 104.09 21.144 104.367 20.728 104.57C20.3227 104.783 19.848 104.89 19.304 104.89C18.9413 104.89 18.6 104.842 18.28 104.746C17.9707 104.65 17.6773 104.516 17.4 104.346C17.1227 104.186 16.856 103.994 16.6 103.77C16.3547 103.556 16.1147 103.322 15.88 103.066L12.76 99.8016L12.76 104.906L11 104.906L11 97.3696L12.76 97.3696ZM18.68 109.523L17.608 109.523L17.608 109.571C17.7573 109.667 17.9067 109.79 18.056 109.939C18.216 110.099 18.3547 110.291 18.472 110.515C18.6 110.739 18.7013 110.99 18.776 111.267C18.8613 111.555 18.904 111.875 18.904 112.227C18.904 112.771 18.7973 113.273 18.584 113.731C18.3813 114.19 18.0987 114.585 17.736 114.915C17.3733 115.246 16.9467 115.502 16.456 115.683C15.9653 115.865 15.4373 115.955 14.872 115.955C14.3067 115.955 13.7733 115.865 13.272 115.683C12.7813 115.513 12.3493 115.262 11.976 114.931C11.6133 114.611 11.32 114.217 11.096 113.747C10.8827 113.289 10.776 112.766 10.776 112.179C10.776 111.635 10.888 111.134 11.112 110.675C11.336 110.227 11.64 109.881 12.024 109.635L12.024 109.603L7.16 109.603L7.16 107.683L18.68 107.683L18.68 109.523ZM14.872 114.003C15.1707 114.003 15.464 113.955 15.752 113.859C16.0507 113.774 16.3173 113.641 16.552 113.459C16.7867 113.278 16.9733 113.049 17.112 112.771C17.2613 112.494 17.336 112.169 17.336 111.795C17.336 111.443 17.2613 111.129 17.112 110.851C16.9627 110.574 16.7707 110.334 16.536 110.131C16.3013 109.939 16.0347 109.79 15.736 109.683C15.4373 109.587 15.1387 109.539 14.84 109.539C14.5413 109.539 14.2427 109.587 13.944 109.683C13.656 109.79 13.3947 109.939 13.16 110.131C12.9253 110.334 12.7333 110.574 12.584 110.851C12.4453 111.129 12.376 111.443 12.376 111.795C12.376 112.169 12.4507 112.494 12.6 112.771C12.7493 113.049 12.9413 113.278 13.176 113.459C13.4107 113.641 13.6773 113.774 13.976 113.859C14.2747 113.955 14.5733 114.003 14.872 114.003ZM15.08 120.26L18.68 117.492L18.68 119.796L16.296 121.46L18.68 123.172L18.68 125.38L15.08 122.628L11 125.764L11 123.428L13.8 121.428L11 119.412L11 117.14L15.08 120.26Z" fill="white"/>
<path d="M189.328 120.608V120.096C189.328 119.808 189.307 119.525 189.264 119.248C189.211 118.96 189.12 118.699 188.992 118.464C188.864 118.229 188.693 118.043 188.48 117.904C188.256 117.755 187.968 117.68 187.616 117.68C187.36 117.68 187.131 117.728 186.928 117.824C186.725 117.92 186.555 118.053 186.416 118.224C186.277 118.384 186.171 118.576 186.096 118.8C186.021 119.013 185.984 119.237 185.984 119.472C185.984 119.941 186.117 120.331 186.384 120.64C186.651 120.949 187.003 121.163 187.44 121.28L186.976 123.088C186.592 122.992 186.245 122.832 185.936 122.608C185.616 122.373 185.344 122.096 185.12 121.776C184.885 121.445 184.704 121.077 184.576 120.672C184.448 120.267 184.384 119.84 184.384 119.392C184.384 118.901 184.453 118.437 184.592 118C184.72 117.552 184.917 117.163 185.184 116.832C185.44 116.491 185.76 116.224 186.144 116.032C186.528 115.84 186.976 115.744 187.488 115.744C188.096 115.744 188.64 115.931 189.12 116.304C189.589 116.667 189.899 117.157 190.048 117.776H190.08C190.219 117.083 190.533 116.523 191.024 116.096C191.504 115.659 192.096 115.44 192.8 115.44C193.387 115.44 193.899 115.557 194.336 115.792C194.773 116.016 195.136 116.32 195.424 116.704C195.712 117.077 195.925 117.499 196.064 117.968C196.213 118.437 196.288 118.912 196.288 119.392C196.288 119.872 196.235 120.325 196.128 120.752C196.032 121.179 195.877 121.573 195.664 121.936C195.451 122.288 195.173 122.603 194.832 122.88C194.491 123.147 194.085 123.355 193.616 123.504L193.056 121.712C193.504 121.573 193.883 121.317 194.192 120.944C194.501 120.56 194.656 120.064 194.656 119.456C194.656 119.211 194.624 118.965 194.56 118.72C194.485 118.464 194.373 118.24 194.224 118.048C194.075 117.845 193.883 117.685 193.648 117.568C193.413 117.44 193.125 117.376 192.784 117.376C192.421 117.376 192.117 117.467 191.872 117.648C191.616 117.819 191.419 118.037 191.28 118.304C191.131 118.571 191.024 118.869 190.96 119.2C190.896 119.52 190.864 119.829 190.864 120.128V120.608H189.328ZM194.24 112.63L189.952 108.262C189.611 107.91 189.269 107.633 188.928 107.43C188.576 107.217 188.176 107.11 187.728 107.11C187.195 107.11 186.773 107.286 186.464 107.638C186.144 107.98 185.984 108.406 185.984 108.918C185.984 109.462 186.171 109.9 186.544 110.23C186.907 110.561 187.365 110.764 187.92 110.838L187.632 112.71C187.163 112.657 186.731 112.524 186.336 112.31C185.941 112.097 185.6 111.825 185.312 111.494C185.024 111.164 184.8 110.78 184.64 110.342C184.469 109.894 184.384 109.409 184.384 108.886C184.384 108.396 184.453 107.926 184.592 107.478C184.731 107.02 184.944 106.614 185.232 106.262C185.509 105.91 185.856 105.633 186.272 105.43C186.677 105.217 187.152 105.11 187.696 105.11C188.059 105.11 188.4 105.158 188.72 105.254C189.029 105.35 189.323 105.484 189.6 105.654C189.877 105.814 190.144 106.006 190.4 106.23C190.645 106.444 190.885 106.678 191.12 106.934L194.24 110.198V105.094H196V112.63H194.24ZM188.32 100.477H189.392V100.429C189.243 100.333 189.093 100.21 188.944 100.061C188.784 99.9007 188.645 99.7087 188.528 99.4847C188.4 99.2607 188.299 99.0101 188.224 98.7327C188.139 98.4447 188.096 98.1247 188.096 97.7727C188.096 97.2287 188.203 96.7274 188.416 96.2687C188.619 95.8101 188.901 95.4154 189.264 95.0847C189.627 94.7541 190.053 94.4981 190.544 94.3167C191.035 94.1354 191.563 94.0447 192.128 94.0447C192.693 94.0447 193.227 94.1354 193.728 94.3167C194.219 94.4874 194.651 94.7381 195.024 95.0687C195.387 95.3887 195.68 95.7834 195.904 96.2527C196.117 96.7114 196.224 97.2341 196.224 97.8207C196.224 98.3647 196.112 98.8661 195.888 99.3247C195.664 99.7727 195.36 100.119 194.976 100.365V100.397H199.84V102.317H188.32V100.477ZM192.128 95.9967C191.829 95.9967 191.536 96.0447 191.248 96.1407C190.949 96.2261 190.683 96.3594 190.448 96.5407C190.213 96.7221 190.027 96.9514 189.888 97.2287C189.739 97.5061 189.664 97.8314 189.664 98.2047C189.664 98.5567 189.739 98.8714 189.888 99.1487C190.037 99.4261 190.229 99.6661 190.464 99.8687C190.699 100.061 190.965 100.21 191.264 100.317C191.563 100.413 191.861 100.461 192.16 100.461C192.459 100.461 192.757 100.413 193.056 100.317C193.344 100.21 193.605 100.061 193.84 99.8687C194.075 99.6661 194.267 99.4261 194.416 99.1487C194.555 98.8714 194.624 98.5567 194.624 98.2047C194.624 97.8314 194.549 97.5061 194.4 97.2287C194.251 96.9514 194.059 96.7221 193.824 96.5407C193.589 96.3594 193.323 96.2261 193.024 96.1407C192.725 96.0447 192.427 95.9967 192.128 95.9967ZM191.92 89.7397L188.32 92.5077V90.2037L190.704 88.5397L188.32 86.8277V84.6198L191.92 87.3717L196 84.2357V86.5717L193.2 88.5717L196 90.5877V92.8598L191.92 89.7397Z" fill="white"/>
<defs>
<linearGradient id="paint0_linear_2471_7713" x1="137.721" y1="62.7855" x2="137.721" y2="149.679" gradientUnits="userSpaceOnUse">
<stop stop-color="#FAB961"/>
<stop offset="1"/>
</linearGradient>
<linearGradient id="paint1_linear_2471_7713" x1="96.1178" y1="45.1621" x2="96.1178" y2="173.957" gradientUnits="userSpaceOnUse">
<stop stop-color="#FAB961"/>
<stop offset="1"/>
</linearGradient>
<linearGradient id="paint2_linear_2471_7713" x1="91.7268" y1="34.4641" x2="91.7268" y2="149.838" gradientUnits="userSpaceOnUse">
<stop/>
<stop offset="0.414296" stop-color="#FAB961"/>
</linearGradient>
<linearGradient id="paint3_linear_2471_7713" x1="93.1135" y1="62.4504" x2="93.1135" y2="156.273" gradientUnits="userSpaceOnUse">
<stop/>
<stop offset="1" stop-color="#FAB961"/>
</linearGradient>
<linearGradient id="paint4_linear_2471_7713" x1="103.67" y1="56.9279" x2="103.67" y2="147.134" gradientUnits="userSpaceOnUse">
<stop/>
<stop offset="1" stop-color="#FAB961"/>
</linearGradient>
</defs>
</svg>
