<svg width="242" height="209" viewBox="0 0 242 209" fill="none" xmlns="http://www.w3.org/2000/svg">
<rect width="242" height="209" fill="white"/>
<path d="M151.272 77.7673C150.8 79.013 131.003 66.5085 112.923 75.0396C99.7778 81.2423 94.3471 93.2669 94.3471 103.521C94.3471 111.599 97.1381 117.704 100.189 121.681C105.151 128.15 109.767 130.584 113.753 132.747C120.175 136.23 131.096 136.347 134.411 136.174C140.585 135.851 147.839 134.057 153.956 131.187C156.291 130.091 160.083 127.714 163.405 125.056C169.078 120.516 174.302 114.806 174.211 115.248C174.067 115.948 174.125 116.502 171.289 121.506C162.884 136.332 148.911 142.799 148.911 142.799C129.226 153.267 111.757 147.838 108.362 146.534C93.4566 140.813 85.6828 130.087 83.8665 126.675C80.9045 121.112 75.5943 100.678 82.7093 84.4363C87.982 72.4001 100.206 66.4865 101.556 65.9205C123.336 56.7827 151.7 76.6353 151.272 77.7673Z" fill="url(#paint0_linear_2471_7680)"/>
<path d="M151.894 76.7315C151.009 77.5559 144.651 69.8857 134.443 64.3463C131.525 62.7631 120.39 57.0723 106.791 57.3644C84.2478 57.8465 69.2665 74.4685 66.595 77.5491C53.2424 92.9456 46.9557 116.653 54.4661 135.102C64.2266 159.076 96.8843 172.866 94.4012 173.138L91.5439 172.219C88.0971 170.853 45.7926 151.703 44.2775 113.544C43.4232 92.042 50.3016 74.6285 54.4661 69.8749C61.7427 61.5693 67.5772 57.5707 72.496 54.9298C82.3796 49.6266 100.967 45.0824 114.763 47.1699C130.241 49.5129 139.957 60.3737 144.695 65.6701C148.97 70.4467 152.609 76.0652 151.894 76.7315Z" fill="url(#paint1_linear_2471_7680)"/>
<path d="M151.782 77.747C152.827 77.2803 151.432 63.0021 142.199 52.1442C138.476 47.7566 134.382 43.7671 129.356 40.975C108.576 29.661 83.0273 38.7592 77.4967 40.975C71.8315 43.2438 59.7435 49.4431 49.5953 62.1629C38.1561 76.5026 36.462 91.8865 35.8107 98.6205C33.0276 127.375 47.9107 149.957 48.97 149.616C49.5873 149.418 42.8353 135.05 44.2773 113.543C44.8266 105.356 45.955 90.3605 56.2898 75.9669C62.5502 67.4779 69.7926 60.4119 79.2404 55.7467C84.7075 53.0335 104.269 44.2884 123.858 51.2336C129.826 53.393 135.322 56.6891 140.041 60.9403C148.569 68.7706 150.926 78.1297 151.782 77.747Z" fill="url(#paint2_linear_2471_7680)"/>
<path d="M121.685 158.289C121.194 159.128 87.3019 149.411 74.5698 125.465C72.6535 121.863 63.8043 102.661 69.61 87.7121C72.0381 81.4592 76.8183 74.4591 78.749 72.2848C81.8678 68.7732 87.1589 65.6162 93.8775 62.7554C96.8963 61.5002 102.411 60.1937 105.651 59.761C108.862 59.3638 113.795 59.4491 117.016 59.761C123.277 60.3674 131.739 67.712 131.501 67.712C131.437 67.712 124.785 65.5696 117.907 65.0948C112.206 64.7013 106.021 66.0312 103.828 66.8101C98.9883 68.5289 92.3551 72.2848 88.5198 77.0303C84.6844 81.7757 81.4105 88.4828 80.7132 97.4738C80.202 104.065 80.9035 113.679 83.7475 121.174C85.1108 124.767 87.4587 129.339 91.9715 135.361C101.577 148.178 122.04 157.688 121.685 158.289Z" fill="url(#paint3_linear_2471_7680)"/>
<path d="M103.322 56.7556C109.201 55.9042 114.234 55.6106 120.063 56.7556C126.754 58.1055 130.454 59.4968 135.011 61.8379C142.794 65.8365 152.644 76.0895 151.894 77.6284C150.558 80.3716 129.818 58.3299 101.326 65.9154C93.2681 68.6781 88.2987 71.2579 83.1529 75.1982C74.3883 81.9094 70.0452 90.737 68.6728 94.347C66.3167 100.545 65.6768 104.032 65.3916 110.628C65.3916 119.509 67.0461 124.66 69.047 130.307C71.8936 138.343 77.2025 147.531 76.3496 146.935C66.5964 140.129 60.5016 119.129 59.8282 114.776C59.1548 110.424 56.2793 91.5711 68.6728 75.8729C79.9715 61.5621 98.9388 57.3968 103.322 56.7556Z" fill="url(#paint4_linear_2471_7680)"/>
<path d="M131.54 93.238L131.025 94.3754C129.834 93.3734 128.29 92.8046 126.557 92.8046C122.088 92.8046 118.893 96.0274 118.893 100.55C118.893 105.1 122.088 108.35 126.557 108.35C128.263 108.35 129.78 107.808 130.971 106.833L131.405 107.862H135.304V93.238H131.54ZM127.234 103.908C125.338 103.908 123.957 102.473 123.957 100.55C123.957 98.6543 125.338 97.2461 127.234 97.2461C129.13 97.2461 130.511 98.6543 130.511 100.55C130.511 102.473 129.13 103.908 127.234 103.908Z" fill="black"/>
<path d="M140.321 107.862H145.359V87.957H140.321V107.862Z" fill="black"/>
<path d="M159.001 103.475C157.944 103.475 157.294 102.825 157.294 101.796V97.1377H160.842V93.238H157.186V88.9861H156.13L149.576 95.9461V97.1377H152.257V102.635C152.257 105.885 154.234 107.862 157.457 107.862H160.923V103.475H159.001Z" fill="black"/>
<path d="M178.14 93.238L177.625 94.3754C176.434 93.3734 174.89 92.8046 173.157 92.8046C168.688 92.8046 165.493 96.0274 165.493 100.55C165.493 105.1 168.688 108.35 173.157 108.35C174.863 108.35 176.38 107.808 177.571 106.833L178.004 107.862H181.904V93.238H178.14ZM173.834 103.908C171.938 103.908 170.557 102.473 170.557 100.55C170.557 98.6543 171.938 97.2461 173.834 97.2461C175.73 97.2461 177.111 98.6543 177.111 100.55C177.111 102.473 175.73 103.908 173.834 103.908Z" fill="black"/>
<path d="M186.948 91.4235H191.931V87.1445H186.948V91.4235ZM186.921 107.862H191.958V93.238H186.921V107.862Z" fill="black"/>
<path d="M205.137 93.1838C203.403 93.1838 202.158 93.6713 201.129 94.8629L200.343 93.238H196.958V107.862H201.995V100.442C201.995 98.5731 202.753 97.7877 204.514 97.7877H206.491V93.1838H205.137Z" fill="black"/>
<defs>
<linearGradient id="paint0_linear_2471_7680" x1="138.87" y1="63.9858" x2="138.87" y2="149.464" gradientUnits="userSpaceOnUse">
<stop stop-color="#FAB961"/>
<stop offset="1"/>
</linearGradient>
<linearGradient id="paint1_linear_2471_7680" x1="98.0945" y1="46.6514" x2="98.0945" y2="173.349" gradientUnits="userSpaceOnUse">
<stop stop-color="#FAB961"/>
<stop offset="1"/>
</linearGradient>
<linearGradient id="paint2_linear_2471_7680" x1="93.7903" y1="36.1272" x2="93.7903" y2="149.623" gradientUnits="userSpaceOnUse">
<stop/>
<stop offset="0.414296" stop-color="#FAB961"/>
</linearGradient>
<linearGradient id="paint3_linear_2471_7680" x1="95.1494" y1="63.6578" x2="95.1494" y2="155.952" gradientUnits="userSpaceOnUse">
<stop/>
<stop offset="1" stop-color="#FAB961"/>
</linearGradient>
<linearGradient id="paint4_linear_2471_7680" x1="105.496" y1="58.2251" x2="105.496" y2="146.962" gradientUnits="userSpaceOnUse">
<stop/>
<stop offset="1" stop-color="#FAB961"/>
</linearGradient>
</defs>
</svg>
