<svg width="499" height="210" viewBox="0 0 499 210" fill="none" xmlns="http://www.w3.org/2000/svg">
<rect width="498.748" height="209.259" fill="black"/>
<mask id="mask0_2471_7481" style="mask-type:alpha" maskUnits="userSpaceOnUse" x="42" y="42" width="127" height="103">
<path fill-rule="evenodd" clip-rule="evenodd" d="M42.4727 42.5605H168.665V144.872H42.4727V42.5605Z" fill="white"/>
</mask>
<g mask="url(#mask0_2471_7481)">
<path fill-rule="evenodd" clip-rule="evenodd" d="M57.249 141.072C53.499 132.993 51.4044 123.979 51.4044 114.473C51.4044 79.7215 79.3969 51.5497 113.927 51.5497C133.155 51.5497 150.354 60.2848 161.823 74.0263L168.665 68.2483C155.558 52.5436 135.901 42.5605 113.927 42.5605C74.464 42.5605 42.4727 74.757 42.4727 114.473C42.4727 125.337 44.8664 135.639 49.1521 144.872L57.249 141.072Z" fill="white"/>
</g>
<path fill-rule="evenodd" clip-rule="evenodd" d="M113.927 157.173C90.4961 157.173 71.5013 138.056 71.5013 114.474C71.5013 90.8929 90.4961 71.7762 113.927 71.7762C126.974 71.7762 138.644 77.7051 146.426 87.0297L153.27 81.2502C143.849 69.9625 129.721 62.7871 113.927 62.7871C85.5631 62.7871 62.5693 85.9283 62.5693 114.474C62.5693 143.02 85.5631 166.162 113.927 166.162V157.173Z" fill="white"/>
<path fill-rule="evenodd" clip-rule="evenodd" d="M129.322 127.473C125.635 131.89 120.108 134.698 113.927 134.698C102.828 134.698 93.8308 125.643 93.8308 114.473C93.8308 103.303 102.828 94.2475 113.927 94.2475C120.108 94.2475 125.635 97.056 129.322 101.473L137.019 94.9729C131.489 88.3475 123.198 84.1348 113.927 84.1348C97.2788 84.1348 83.7825 97.7176 83.7825 114.473C83.7825 131.228 97.2788 144.811 113.927 144.811C122.423 144.811 130.095 141.271 135.574 135.581L129.322 127.473Z" fill="white"/>
<path fill-rule="evenodd" clip-rule="evenodd" d="M183.659 104.629H192.842V110.872H193.004C193.862 108.926 195.352 107.211 197.474 105.724C199.595 104.238 202.106 103.494 205.006 103.494C207.53 103.494 209.691 103.94 211.491 104.832C213.29 105.724 214.766 106.899 215.922 108.359C217.076 109.818 217.922 111.494 218.459 113.385C218.995 115.278 219.265 117.223 219.265 119.222V143.544H209.598V121.979C209.598 120.844 209.518 119.655 209.356 118.412C209.195 117.169 208.846 116.048 208.31 115.047C207.772 114.048 207.033 113.223 206.094 112.575C205.154 111.926 203.905 111.602 202.348 111.602C200.79 111.602 199.448 111.913 198.321 112.534C197.192 113.156 196.266 113.953 195.541 114.926C194.816 115.898 194.265 117.021 193.889 118.29C193.513 119.561 193.326 120.844 193.326 122.141V143.544H183.659V104.629Z" fill="white"/>
<path fill-rule="evenodd" clip-rule="evenodd" d="M223.372 112.412V104.629H230.139V93.3594H239.645V104.629H249.311V112.412H239.645V130.491C239.645 132.221 239.953 133.653 240.571 134.788C241.188 135.923 242.571 136.49 244.72 136.49C245.364 136.49 246.062 136.423 246.814 136.288C247.566 136.153 248.237 135.951 248.828 135.679L249.15 143.3C248.291 143.625 247.27 143.881 246.089 144.071C244.907 144.259 243.78 144.354 242.706 144.354C240.128 144.354 238.034 143.99 236.423 143.26C234.811 142.53 233.535 141.531 232.596 140.26C231.656 138.991 231.011 137.531 230.663 135.882C230.313 134.234 230.139 132.464 230.139 130.572V112.412H223.372Z" fill="white"/>
<path fill-rule="evenodd" clip-rule="evenodd" d="M255.113 104.629H264.377V111.115H264.538C265.611 108.845 267.116 107.008 269.049 105.602C270.982 104.197 273.238 103.494 275.816 103.494C276.191 103.494 276.593 103.508 277.024 103.535C277.453 103.563 277.829 103.63 278.152 103.737V112.656C277.507 112.494 276.956 112.386 276.5 112.331C276.043 112.278 275.6 112.25 275.171 112.25C272.969 112.25 271.196 112.656 269.855 113.466C268.511 114.277 267.464 115.25 266.713 116.385C265.96 117.52 265.451 118.683 265.182 119.871C264.913 121.06 264.779 122.007 264.779 122.708V143.544H255.113V104.629Z" fill="white"/>
<path fill-rule="evenodd" clip-rule="evenodd" d="M282.581 143.543H292.247V104.628H282.581V143.543ZM281.211 91.4132C281.211 89.8464 281.788 88.4818 282.943 87.3191C284.097 86.1573 285.561 85.5762 287.334 85.5762C289.106 85.5762 290.596 86.1307 291.804 87.2381C293.013 88.3462 293.617 89.7387 293.617 91.4132C293.617 93.0889 293.013 94.4815 291.804 95.5883C290.596 96.697 289.106 97.2506 287.334 97.2506C285.561 97.2506 284.097 96.6704 282.943 95.5072C281.788 94.3458 281.211 92.9813 281.211 91.4132Z" fill="white"/>
<path fill-rule="evenodd" clip-rule="evenodd" d="M304.735 112.411H297.405V104.628H304.735V101.718C304.735 99.3948 304.99 97.1653 305.501 95.0295C306.011 92.895 306.87 91.0161 308.079 89.3947C309.287 87.7735 310.884 86.49 312.872 85.544C314.858 84.5989 317.355 84.125 320.364 84.125C321.437 84.125 322.337 84.1655 323.062 84.2466C323.787 84.3277 324.525 84.4773 325.278 84.6926L324.633 92.9621C324.095 92.8 323.518 92.6658 322.901 92.5567C322.283 92.4491 321.624 92.3946 320.927 92.3946C319.53 92.3946 318.402 92.6658 317.544 93.2054C316.684 93.746 316.026 94.4493 315.57 95.3133C315.113 96.1782 314.805 97.1248 314.644 98.1509C314.483 99.178 314.402 100.178 314.402 101.15V104.628H323.344V112.411H314.402V143.543H304.735V112.411Z" fill="white"/>
<path fill-rule="evenodd" clip-rule="evenodd" d="M363.784 143.544H354.601V137.301H354.44C353.58 139.247 352.09 140.963 349.969 142.449C347.847 143.935 345.337 144.679 342.437 144.679C339.912 144.679 337.751 144.233 335.952 143.341C334.153 142.449 332.676 141.274 331.521 139.815C330.366 138.355 329.52 136.681 328.984 134.788C328.447 132.897 328.179 130.951 328.179 128.951V104.629H337.846V126.194C337.846 127.329 337.926 128.519 338.087 129.762C338.248 131.006 338.597 132.127 339.134 133.126C339.67 134.127 340.409 134.95 341.349 135.599C342.288 136.247 343.537 136.572 345.096 136.572C346.598 136.572 347.928 136.261 349.083 135.639C350.237 135.018 351.177 134.221 351.903 133.247C352.628 132.275 353.178 131.154 353.554 129.883C353.929 128.614 354.118 127.329 354.118 126.032V104.629H363.784V143.544Z" fill="white"/>
<path fill-rule="evenodd" clip-rule="evenodd" d="M151.402 113.426C153.416 111.67 155.873 110.791 158.773 110.791C160.33 110.791 161.685 111.048 162.841 111.561C163.995 112.076 164.948 112.765 165.701 113.628C166.452 114.494 167.002 115.493 167.352 116.628C167.701 117.763 167.876 118.953 167.876 120.195H148.059C148.273 117.439 149.388 115.183 151.402 113.426ZM169.326 131.708C168.251 133.276 166.881 134.505 165.218 135.396C163.552 136.288 161.512 136.734 159.095 136.734C157.698 136.734 156.356 136.491 155.067 136.004C153.778 135.518 152.623 134.857 151.603 134.018C150.583 133.181 149.763 132.181 149.146 131.019C148.529 129.857 148.166 128.574 148.059 127.168H177.462C177.515 126.736 177.543 126.304 177.543 125.87V124.573C177.543 121.06 177.072 117.994 176.133 115.371C175.193 112.75 173.89 110.561 172.226 108.805C170.561 107.049 168.587 105.724 166.305 104.832C164.022 103.94 161.538 103.494 158.854 103.494C155.953 103.494 153.255 103.995 150.758 104.994C148.261 105.995 146.098 107.4 144.273 109.21C142.446 111.021 141.01 113.21 139.963 115.777C138.916 118.345 138.392 121.196 138.392 124.33C138.392 127.52 138.916 130.37 139.963 132.883C141.01 135.396 142.46 137.518 144.313 139.248C146.166 140.978 148.354 142.315 150.878 143.26C153.402 144.206 156.168 144.68 159.176 144.68C165.668 144.68 170.78 142.598 174.516 138.438L169.326 131.708Z" fill="white"/>
<path fill-rule="evenodd" clip-rule="evenodd" d="M430.017 113.426C432.031 111.67 434.488 110.791 437.388 110.791C438.945 110.791 440.3 111.048 441.456 111.561C442.61 112.076 443.563 112.765 444.315 113.628C445.067 114.494 445.617 115.493 445.967 116.628C446.316 117.763 446.491 118.953 446.491 120.195H426.674C426.888 117.439 428.003 115.183 430.017 113.426ZM447.941 131.708C446.866 133.276 445.496 134.505 443.833 135.396C442.167 136.288 440.127 136.734 437.71 136.734C436.313 136.734 434.971 136.491 433.682 136.004C432.393 135.518 431.238 134.857 430.218 134.018C429.198 133.181 428.378 132.181 427.761 131.019C427.144 129.857 426.781 128.574 426.674 127.168H456.077C456.13 126.736 456.158 126.304 456.158 125.87V124.573C456.158 121.06 455.687 117.994 454.748 115.371C453.808 112.75 452.505 110.561 450.841 108.805C449.176 107.049 447.202 105.724 444.92 104.832C442.637 103.94 440.153 103.494 437.468 103.494C434.568 103.494 431.87 103.995 429.373 104.994C426.875 105.995 424.713 107.4 422.888 109.21C421.061 111.021 419.625 113.21 418.578 115.777C417.53 118.345 417.007 121.196 417.007 124.33C417.007 127.52 417.53 130.37 418.578 132.883C419.625 135.396 421.075 137.518 422.928 139.248C424.781 140.978 426.969 142.315 429.493 143.26C432.017 144.206 434.783 144.68 437.791 144.68C444.282 144.68 449.395 142.598 453.131 138.438L447.941 131.708Z" fill="white"/>
<path fill-rule="evenodd" clip-rule="evenodd" d="M401.076 128.45C400.538 129.931 399.772 131.238 398.78 132.369C397.785 133.5 396.577 134.402 395.155 135.076C393.731 135.75 392.134 136.086 390.361 136.086C388.642 136.086 387.099 135.736 385.73 135.035C384.36 134.335 383.204 133.405 382.265 132.247C381.325 131.089 380.6 129.782 380.09 128.328C379.58 126.874 379.325 125.366 379.325 123.803C379.325 122.08 379.58 120.464 380.09 118.955C380.6 117.446 381.325 116.14 382.265 115.036C383.204 113.931 384.36 113.056 385.73 112.41C387.099 111.764 388.67 111.439 390.442 111.439C392.214 111.439 393.798 111.764 395.195 112.41C396.591 113.056 397.785 113.945 398.78 115.076C399.772 116.208 400.538 117.527 401.076 119.035C401.612 120.544 401.881 122.133 401.881 123.803C401.881 125.419 401.612 126.969 401.076 128.45ZM401.881 104.629V110.466H401.72C400.323 108.089 398.443 106.332 396.081 105.197C393.717 104.062 391.167 103.494 388.428 103.494C385.528 103.494 382.91 104.035 380.574 105.116C378.238 106.198 376.25 107.657 374.612 109.494C372.974 111.332 371.713 113.494 370.826 115.979C369.94 118.466 369.498 121.115 369.498 123.925C369.498 126.681 369.953 129.29 370.867 131.748C371.779 134.208 373.054 136.357 374.693 138.193C376.331 140.031 378.331 141.491 380.695 142.571C383.057 143.652 385.689 144.193 388.589 144.193C391.274 144.193 393.705 143.688 395.88 142.678C398.055 141.668 399.839 140.208 401.237 138.296H401.398V141.144C401.398 143.097 401.196 144.887 400.794 146.515C400.391 148.141 399.718 149.553 398.78 150.746C397.839 151.939 396.577 152.874 394.993 153.553C393.409 154.231 391.462 154.57 389.153 154.57C386.737 154.57 384.346 154.096 381.983 153.151C379.682 152.23 377.611 150.911 375.769 149.196L370.061 156.597C371.296 157.623 372.692 158.543 374.25 159.354C375.807 160.164 377.432 160.839 379.124 161.38C380.816 161.92 382.533 162.326 384.28 162.596C386.024 162.866 387.675 163.002 389.234 163.002C392.992 163.002 396.242 162.461 398.981 161.38C401.72 160.298 403.988 158.772 405.788 156.8C407.587 154.826 408.916 152.421 409.776 149.584C410.634 146.747 411.065 143.571 411.065 140.058V104.629H401.881Z" fill="white"/>
</svg>
