<svg width="499" height="210" viewBox="0 0 499 210" fill="none" xmlns="http://www.w3.org/2000/svg">
<mask id="mask0_2471_7485" style="mask-type:alpha" maskUnits="userSpaceOnUse" x="42" y="42" width="127" height="103">
<path fill-rule="evenodd" clip-rule="evenodd" d="M42.4727 42.5605H168.665V144.872H42.4727V42.5605Z" fill="white"/>
</mask>
<g mask="url(#mask0_2471_7485)">
<path fill-rule="evenodd" clip-rule="evenodd" d="M57.249 141.072C53.499 132.993 51.4044 123.979 51.4044 114.473C51.4044 79.7215 79.3969 51.5497 113.927 51.5497C133.155 51.5497 150.354 60.2848 161.823 74.0263L168.665 68.2483C155.558 52.5436 135.901 42.5605 113.927 42.5605C74.464 42.5605 42.4727 74.757 42.4727 114.473C42.4727 125.337 44.8664 135.639 49.1521 144.872L57.249 141.072Z" fill="black"/>
</g>
<path fill-rule="evenodd" clip-rule="evenodd" d="M113.927 157.171C90.4958 157.171 71.501 138.054 71.501 114.472C71.501 90.8909 90.4958 71.7742 113.927 71.7742C126.974 71.7742 138.644 77.7032 146.426 87.0278L153.27 81.2482C143.849 69.9605 129.721 62.7852 113.927 62.7852C85.5629 62.7852 62.5691 85.9263 62.5691 114.472C62.5691 143.019 85.5629 166.16 113.927 166.16V157.171Z" fill="black"/>
<path fill-rule="evenodd" clip-rule="evenodd" d="M129.322 127.473C125.635 131.89 120.108 134.698 113.928 134.698C102.829 134.698 93.831 125.643 93.831 114.473C93.831 103.303 102.829 94.2475 113.928 94.2475C120.108 94.2475 125.635 97.056 129.322 101.473L137.019 94.9729C131.489 88.3475 123.198 84.1348 113.928 84.1348C97.2791 84.1348 83.7827 97.7176 83.7827 114.473C83.7827 131.228 97.2791 144.811 113.928 144.811C122.423 144.811 130.095 141.271 135.575 135.581L129.322 127.473Z" fill="black"/>
<path fill-rule="evenodd" clip-rule="evenodd" d="M183.66 104.627H192.843V110.87H193.004C193.863 108.924 195.353 107.209 197.475 105.722C199.596 104.236 202.107 103.492 205.007 103.492C207.531 103.492 209.692 103.938 211.492 104.83C213.291 105.722 214.767 106.897 215.922 108.357C217.077 109.816 217.923 111.492 218.46 113.383C218.996 115.276 219.265 117.221 219.265 119.221V143.542H209.599V121.977C209.599 120.842 209.518 119.654 209.357 118.41C209.196 117.167 208.846 116.046 208.31 115.045C207.772 114.046 207.033 113.221 206.094 112.573C205.154 111.924 203.905 111.6 202.349 111.6C200.79 111.6 199.449 111.911 198.321 112.532C197.193 113.154 196.266 113.951 195.542 114.924C194.817 115.896 194.265 117.019 193.89 118.288C193.514 119.559 193.326 120.842 193.326 122.139V143.542H183.66V104.627Z" fill="black"/>
<path fill-rule="evenodd" clip-rule="evenodd" d="M223.373 112.412V104.629H230.139V93.3594H239.645V104.629H249.312V112.412H239.645V130.491C239.645 132.221 239.953 133.653 240.571 134.788C241.188 135.923 242.571 136.49 244.72 136.49C245.365 136.49 246.062 136.423 246.814 136.288C247.566 136.153 248.237 135.951 248.829 135.679L249.15 143.3C248.291 143.625 247.27 143.881 246.09 144.071C244.907 144.259 243.78 144.354 242.706 144.354C240.128 144.354 238.034 143.99 236.423 143.26C234.811 142.53 233.535 141.531 232.596 140.26C231.656 138.991 231.012 137.531 230.663 135.882C230.313 134.234 230.139 132.464 230.139 130.572V112.412H223.373Z" fill="black"/>
<path fill-rule="evenodd" clip-rule="evenodd" d="M255.112 104.627H264.376V111.113H264.537C265.611 108.843 267.115 107.006 269.048 105.6C270.982 104.195 273.237 103.492 275.815 103.492C276.19 103.492 276.593 103.506 277.024 103.533C277.453 103.561 277.829 103.628 278.151 103.736V112.654C277.507 112.492 276.956 112.384 276.5 112.329C276.043 112.276 275.6 112.248 275.17 112.248C272.968 112.248 271.196 112.654 269.854 113.464C268.511 114.275 267.464 115.248 266.712 116.383C265.959 117.518 265.45 118.681 265.182 119.869C264.912 121.059 264.779 122.005 264.779 122.706V143.542H255.112V104.627Z" fill="black"/>
<path fill-rule="evenodd" clip-rule="evenodd" d="M282.581 143.544H292.247V104.629H282.581V143.544ZM281.211 91.4132C281.211 89.8464 281.788 88.4818 282.943 87.3191C284.098 86.1573 285.561 85.5762 287.334 85.5762C289.106 85.5762 290.596 86.1307 291.805 87.2381C293.013 88.3462 293.617 89.7387 293.617 91.4132C293.617 93.0889 293.013 94.4815 291.805 95.5883C290.596 96.697 289.106 97.2506 287.334 97.2506C285.561 97.2506 284.098 96.6704 282.943 95.5072C281.788 94.3458 281.211 92.9813 281.211 91.4132Z" fill="black"/>
<path fill-rule="evenodd" clip-rule="evenodd" d="M304.735 112.411H297.405V104.628H304.735V101.718C304.735 99.3948 304.989 97.1653 305.501 95.0295C306.01 92.895 306.87 91.0161 308.078 89.3947C309.287 87.7735 310.884 86.49 312.871 85.544C314.857 84.5989 317.355 84.125 320.363 84.125C321.437 84.125 322.337 84.1655 323.062 84.2466C323.787 84.3277 324.524 84.4773 325.277 84.6926L324.633 92.9621C324.095 92.8 323.518 92.6658 322.901 92.5567C322.283 92.4491 321.624 92.3946 320.927 92.3946C319.53 92.3946 318.402 92.6658 317.544 93.2054C316.684 93.746 316.026 94.4493 315.57 95.3133C315.113 96.1782 314.805 97.1248 314.644 98.1509C314.483 99.178 314.402 100.178 314.402 101.15V104.628H323.343V112.411H314.402V143.543H304.735V112.411Z" fill="black"/>
<path fill-rule="evenodd" clip-rule="evenodd" d="M363.784 143.542H354.601V137.299H354.44C353.58 139.245 352.09 140.961 349.969 142.447C347.847 143.933 345.337 144.677 342.437 144.677C339.912 144.677 337.751 144.231 335.952 143.339C334.153 142.447 332.676 141.272 331.521 139.813C330.366 138.353 329.52 136.679 328.984 134.786C328.447 132.895 328.179 130.949 328.179 128.949V104.627H337.846V126.192C337.846 127.327 337.926 128.517 338.087 129.76C338.248 131.004 338.597 132.125 339.134 133.124C339.67 134.125 340.409 134.948 341.349 135.597C342.288 136.245 343.537 136.57 345.096 136.57C346.598 136.57 347.928 136.259 349.083 135.637C350.237 135.016 351.177 134.219 351.903 133.246C352.628 132.273 353.178 131.152 353.554 129.881C353.929 128.612 354.118 127.327 354.118 126.03V104.627H363.784V143.542Z" fill="black"/>
<path fill-rule="evenodd" clip-rule="evenodd" d="M151.401 113.424C153.415 111.669 155.872 110.789 158.772 110.789C160.33 110.789 161.685 111.046 162.841 111.559C163.995 112.074 164.948 112.763 165.7 113.627C166.452 114.492 167.002 115.491 167.352 116.626C167.7 117.761 167.876 118.951 167.876 120.193H148.059C148.272 117.437 149.388 115.181 151.401 113.424ZM169.326 131.706C168.251 133.274 166.881 134.503 165.217 135.394C163.552 136.286 161.512 136.732 159.095 136.732C157.698 136.732 156.356 136.489 155.067 136.003C153.778 135.516 152.623 134.855 151.603 134.016C150.582 133.179 149.763 132.179 149.146 131.017C148.528 129.855 148.166 128.572 148.059 127.166H177.462C177.515 126.734 177.543 126.302 177.543 125.868V124.571C177.543 121.059 177.072 117.992 176.133 115.369C175.193 112.748 173.89 110.56 172.226 108.803C170.561 107.047 168.587 105.722 166.305 104.83C164.021 103.938 161.538 103.492 158.853 103.492C155.953 103.492 153.254 103.993 150.758 104.992C148.26 105.993 146.098 107.398 144.272 109.208C142.446 111.019 141.01 113.208 139.963 115.775C138.915 118.343 138.392 121.194 138.392 124.328C138.392 127.518 138.915 130.368 139.963 132.881C141.01 135.394 142.46 137.516 144.313 139.246C146.165 140.976 148.353 142.313 150.878 143.259C153.402 144.204 156.167 144.678 159.175 144.678C165.667 144.678 170.779 142.596 174.516 138.436L169.326 131.706Z" fill="black"/>
<path fill-rule="evenodd" clip-rule="evenodd" d="M430.017 113.424C432.03 111.669 434.487 110.789 437.387 110.789C438.945 110.789 440.3 111.046 441.456 111.559C442.61 112.074 443.563 112.763 444.315 113.627C445.067 114.492 445.617 115.491 445.967 116.626C446.316 117.761 446.491 118.951 446.491 120.193H426.674C426.888 117.437 428.003 115.181 430.017 113.424ZM447.941 131.706C446.866 133.274 445.496 134.503 443.833 135.394C442.167 136.286 440.127 136.732 437.71 136.732C436.313 136.732 434.971 136.489 433.682 136.003C432.393 135.516 431.238 134.855 430.218 134.016C429.198 133.179 428.378 132.179 427.761 131.017C427.144 129.855 426.781 128.572 426.674 127.166H456.077C456.13 126.734 456.158 126.302 456.158 125.868V124.571C456.158 121.059 455.687 117.992 454.748 115.369C453.808 112.748 452.505 110.56 450.841 108.803C449.176 107.047 447.202 105.722 444.92 104.83C442.637 103.938 440.153 103.492 437.468 103.492C434.568 103.492 431.87 103.993 429.373 104.992C426.875 105.993 424.713 107.398 422.888 109.208C421.061 111.019 419.625 113.208 418.578 115.775C417.53 118.343 417.007 121.194 417.007 124.328C417.007 127.518 417.53 130.368 418.578 132.881C419.625 135.394 421.075 137.516 422.928 139.246C424.781 140.976 426.969 142.313 429.493 143.259C432.017 144.204 434.783 144.678 437.791 144.678C444.282 144.678 449.395 142.596 453.131 138.436L447.941 131.706Z" fill="black"/>
<path fill-rule="evenodd" clip-rule="evenodd" d="M401.075 128.448C400.537 129.93 399.772 131.236 398.779 132.367C397.784 133.498 396.576 134.4 395.154 135.074C393.73 135.748 392.133 136.084 390.361 136.084C388.641 136.084 387.098 135.734 385.729 135.033C384.359 134.333 383.204 133.403 382.265 132.245C381.325 131.088 380.599 129.78 380.09 128.326C379.579 126.872 379.325 125.365 379.325 123.801C379.325 122.078 379.579 120.462 380.09 118.953C380.599 117.444 381.325 116.138 382.265 115.034C383.204 113.929 384.359 113.054 385.729 112.408C387.098 111.762 388.669 111.438 390.441 111.438C392.213 111.438 393.797 111.762 395.194 112.408C396.59 113.054 397.784 113.943 398.779 115.074C399.772 116.206 400.537 117.525 401.075 119.033C401.611 120.542 401.88 122.132 401.88 123.801C401.88 125.418 401.611 126.967 401.075 128.448ZM401.881 104.627V110.464H401.72C400.323 108.087 398.443 106.33 396.081 105.195C393.717 104.06 391.167 103.492 388.428 103.492C385.528 103.492 382.91 104.033 380.574 105.114C378.238 106.196 376.25 107.655 374.612 109.492C372.974 111.33 371.713 113.492 370.826 115.977C369.94 118.464 369.498 121.113 369.498 123.923C369.498 126.679 369.953 129.288 370.867 131.746C371.779 134.206 373.054 136.355 374.693 138.191C376.331 140.029 378.331 141.489 380.695 142.569C383.057 143.65 385.689 144.191 388.589 144.191C391.274 144.191 393.705 143.686 395.88 142.676C398.055 141.666 399.839 140.206 401.237 138.294H401.398V141.142C401.398 143.095 401.196 144.885 400.794 146.513C400.391 148.139 399.718 149.551 398.78 150.744C397.839 151.937 396.577 152.872 394.993 153.551C393.409 154.229 391.462 154.568 389.153 154.568C386.737 154.568 384.346 154.094 381.983 153.149C379.682 152.228 377.611 150.909 375.769 149.194L370.061 156.595C371.296 157.621 372.692 158.541 374.25 159.352C375.807 160.162 377.432 160.837 379.124 161.378C380.816 161.918 382.533 162.324 384.28 162.594C386.024 162.864 387.675 163 389.234 163C392.992 163 396.242 162.459 398.981 161.378C401.72 160.296 403.988 158.77 405.788 156.798C407.587 154.824 408.916 152.419 409.776 149.582C410.634 146.745 411.065 143.569 411.065 140.056V104.627H401.881Z" fill="black"/>
</svg>
