<svg width="484" height="204" viewBox="0 0 484 204" fill="none" xmlns="http://www.w3.org/2000/svg">
<rect y="0.798828" width="484.001" height="203.072" fill="black"/>
<mask id="mask0_2471_7657" style="mask-type:alpha" maskUnits="userSpaceOnUse" x="41" y="42" width="123" height="100">
<path fill-rule="evenodd" clip-rule="evenodd" d="M41.2168 42.0996H163.678V141.386H41.2168V42.0996Z" fill="white"/>
</mask>
<g mask="url(#mask0_2471_7657)">
<path fill-rule="evenodd" clip-rule="evenodd" d="M55.5562 137.699C51.9172 129.858 49.8845 121.111 49.8845 111.886C49.8845 78.1618 77.0492 50.823 110.559 50.823C129.217 50.823 145.908 59.2998 157.038 72.635L163.678 67.0278C150.958 51.7875 131.883 42.0996 110.559 42.0996C72.2623 42.0996 41.2168 73.3441 41.2168 111.886C41.2168 122.429 43.5397 132.426 47.6987 141.386L55.5562 137.699Z" fill="white"/>
</g>
<path fill-rule="evenodd" clip-rule="evenodd" d="M110.559 153.321C87.82 153.321 69.3868 134.77 69.3868 111.886C69.3868 89.0013 87.82 70.4498 110.559 70.4498C123.22 70.4498 134.544 76.2035 142.097 85.2524L148.738 79.6437C139.596 68.6898 125.885 61.7266 110.559 61.7266C83.0329 61.7266 60.719 84.1835 60.719 111.886C60.719 139.588 83.0329 162.044 110.559 162.044V153.321Z" fill="white"/>
<path fill-rule="evenodd" clip-rule="evenodd" d="M125.498 124.502C121.92 128.789 116.556 131.514 110.559 131.514C99.7877 131.514 91.0561 122.726 91.0561 111.886C91.0561 101.047 99.7877 92.259 110.559 92.259C116.556 92.259 121.92 94.9845 125.498 99.2708L132.967 92.9629C127.601 86.5334 119.555 82.4453 110.559 82.4453C94.4022 82.4453 81.3049 95.6266 81.3049 111.886C81.3049 128.146 94.4022 141.328 110.559 141.328C118.803 141.328 126.248 137.893 131.565 132.37L125.498 124.502Z" fill="white"/>
<path fill-rule="evenodd" clip-rule="evenodd" d="M178.229 102.332H187.141V108.39H187.297C188.13 106.502 189.576 104.837 191.635 103.394C193.694 101.952 196.131 101.23 198.945 101.23C201.394 101.23 203.491 101.663 205.238 102.529C206.984 103.394 208.416 104.535 209.537 105.951C210.658 107.367 211.479 108.994 212 110.829C212.52 112.665 212.782 114.554 212.782 116.494V140.096H203.401V119.169C203.401 118.067 203.323 116.914 203.166 115.707C203.01 114.501 202.671 113.413 202.15 112.442C201.628 111.472 200.911 110.672 200 110.043C199.088 109.413 197.876 109.098 196.365 109.098C194.853 109.098 193.551 109.401 192.457 110.003C191.362 110.607 190.463 111.38 189.759 112.324C189.056 113.268 188.521 114.357 188.157 115.589C187.792 116.822 187.61 118.067 187.61 119.326V140.096H178.229V102.332Z" fill="white"/>
<path fill-rule="evenodd" clip-rule="evenodd" d="M216.768 109.886V102.333H223.334V91.3965H232.559V102.333H241.94V109.886H232.559V127.43C232.559 129.109 232.858 130.498 233.458 131.6C234.056 132.701 235.399 133.252 237.484 133.252C238.109 133.252 238.786 133.187 239.516 133.056C240.246 132.925 240.897 132.729 241.471 132.465L241.783 139.861C240.949 140.176 239.958 140.424 238.813 140.608C237.666 140.792 236.571 140.884 235.529 140.884C233.028 140.884 230.995 140.53 229.432 139.821C227.868 139.113 226.63 138.144 225.718 136.91C224.806 135.679 224.181 134.262 223.842 132.662C223.503 131.063 223.334 129.345 223.334 127.509V109.886H216.768Z" fill="white"/>
<path fill-rule="evenodd" clip-rule="evenodd" d="M247.57 102.332H256.559V108.626H256.716C257.758 106.423 259.218 104.641 261.094 103.276C262.97 101.913 265.159 101.23 267.66 101.23C268.024 101.23 268.415 101.244 268.833 101.27C269.25 101.297 269.614 101.362 269.927 101.467V110.121C269.302 109.964 268.767 109.859 268.325 109.806C267.881 109.754 267.451 109.728 267.035 109.728C264.897 109.728 263.177 110.121 261.876 110.908C260.572 111.695 259.556 112.638 258.827 113.74C258.096 114.842 257.602 115.97 257.341 117.123C257.08 118.277 256.95 119.195 256.95 119.877V140.096H247.57V102.332Z" fill="white"/>
<path fill-rule="evenodd" clip-rule="evenodd" d="M274.225 140.097H283.606V102.333H274.225V140.097ZM272.896 89.5082C272.896 87.9878 273.456 86.6635 274.577 85.5352C275.697 84.4077 277.117 83.8438 278.838 83.8438C280.557 83.8438 282.004 84.3819 283.176 85.4565C284.349 86.5319 284.935 87.8832 284.935 89.5082C284.935 91.1344 284.349 92.4858 283.176 93.5598C282.004 94.6358 280.557 95.173 278.838 95.173C277.117 95.173 275.697 94.61 274.577 93.4811C273.456 92.3541 272.896 91.0299 272.896 89.5082Z" fill="white"/>
<path fill-rule="evenodd" clip-rule="evenodd" d="M295.725 109.885H288.611V102.332H295.725V99.5083C295.725 97.2538 295.972 95.0903 296.468 93.0176C296.962 90.9463 297.797 89.1229 298.969 87.5494C300.142 85.9761 301.692 84.7307 303.621 83.8126C305.548 82.8955 307.971 82.4355 310.891 82.4355C311.933 82.4355 312.806 82.4749 313.51 82.5535C314.213 82.6322 314.929 82.7775 315.66 82.9863L315.034 91.0114C314.512 90.854 313.952 90.7238 313.354 90.6179C312.754 90.5135 312.115 90.4606 311.438 90.4606C310.082 90.4606 308.988 90.7238 308.155 91.2475C307.32 91.7721 306.682 92.4546 306.24 93.2931C305.796 94.1323 305.497 95.051 305.34 96.0467C305.184 97.0435 305.106 98.0135 305.106 98.9573V102.332H313.783V109.885H305.106V140.097H295.725V109.885Z" fill="white"/>
<path fill-rule="evenodd" clip-rule="evenodd" d="M353.028 140.096H344.116V134.038H343.96C343.126 135.927 341.679 137.592 339.621 139.034C337.562 140.476 335.126 141.198 332.312 141.198C329.862 141.198 327.764 140.765 326.019 139.9C324.272 139.034 322.839 137.893 321.719 136.477C320.598 135.061 319.777 133.436 319.257 131.6C318.735 129.764 318.475 127.876 318.475 125.935V102.332H327.856V123.26C327.856 124.361 327.934 125.516 328.091 126.722C328.247 127.929 328.585 129.017 329.107 129.986C329.627 130.958 330.344 131.756 331.256 132.386C332.168 133.016 333.38 133.33 334.892 133.33C336.35 133.33 337.64 133.029 338.761 132.425C339.881 131.823 340.794 131.049 341.497 130.104C342.201 129.161 342.735 128.073 343.1 126.84C343.464 125.608 343.647 124.361 343.647 123.102V102.332H353.028V140.096Z" fill="white"/>
<path fill-rule="evenodd" clip-rule="evenodd" d="M146.925 110.868C148.88 109.165 151.264 108.311 154.078 108.311C155.589 108.311 156.905 108.561 158.026 109.059C159.146 109.558 160.071 110.226 160.801 111.065C161.53 111.905 162.064 112.874 162.404 113.976C162.742 115.077 162.912 116.232 162.912 117.437H143.681C143.889 114.763 144.971 112.573 146.925 110.868ZM164.319 128.61C163.276 130.132 161.947 131.324 160.332 132.189C158.716 133.055 156.736 133.488 154.391 133.488C153.035 133.488 151.733 133.252 150.482 132.78C149.231 132.307 148.11 131.666 147.121 130.852C146.13 130.039 145.335 129.069 144.736 127.941C144.137 126.814 143.785 125.569 143.681 124.204H172.215C172.266 123.785 172.293 123.366 172.293 122.945V121.686C172.293 118.277 171.836 115.301 170.925 112.756C170.013 110.213 168.748 108.089 167.134 106.384C165.518 104.68 163.602 103.394 161.388 102.529C159.172 101.663 156.762 101.23 154.156 101.23C151.342 101.23 148.723 101.716 146.3 102.686C143.877 103.657 141.778 105.021 140.007 106.777C138.234 108.535 136.841 110.659 135.825 113.15C134.808 115.642 134.3 118.409 134.3 121.45C134.3 124.546 134.808 127.311 135.825 129.75C136.841 132.189 138.248 134.248 140.046 135.927C141.844 137.606 143.967 138.904 146.417 139.821C148.867 140.738 151.55 141.198 154.469 141.198C160.769 141.198 165.73 139.178 169.356 135.141L164.319 128.61Z" fill="white"/>
<path fill-rule="evenodd" clip-rule="evenodd" d="M417.302 110.868C419.256 109.165 421.641 108.311 424.455 108.311C425.966 108.311 427.282 108.561 428.403 109.059C429.523 109.558 430.448 110.226 431.178 111.065C431.907 111.905 432.441 112.874 432.781 113.976C433.119 115.077 433.289 116.232 433.289 117.437H414.058C414.266 114.763 415.348 112.573 417.302 110.868ZM434.696 128.61C433.653 130.132 432.324 131.324 430.709 132.189C429.093 133.055 427.113 133.488 424.768 133.488C423.412 133.488 422.11 133.252 420.859 132.78C419.608 132.307 418.487 131.666 417.498 130.852C416.507 130.039 415.712 129.069 415.113 127.941C414.514 126.814 414.162 125.569 414.058 124.204H442.592C442.643 123.785 442.67 123.366 442.67 122.945V121.686C442.67 118.277 442.213 115.301 441.302 112.756C440.39 110.213 439.125 108.089 437.51 106.384C435.895 104.68 433.979 103.394 431.764 102.529C429.549 101.663 427.139 101.23 424.533 101.23C421.719 101.23 419.1 101.716 416.677 102.686C414.254 103.657 412.155 105.021 410.384 106.777C408.611 108.535 407.217 110.659 406.201 113.15C405.185 115.642 404.677 118.409 404.677 121.45C404.677 124.546 405.185 127.311 406.201 129.75C407.217 132.189 408.625 134.248 410.423 135.927C412.221 137.606 414.344 138.904 416.794 139.821C419.243 140.738 421.927 141.198 424.846 141.198C431.146 141.198 436.107 139.178 439.733 135.141L434.696 128.61Z" fill="white"/>
<path fill-rule="evenodd" clip-rule="evenodd" d="M389.217 125.448C388.695 126.886 387.952 128.154 386.989 129.252C386.024 130.349 384.851 131.225 383.471 131.879C382.09 132.533 380.539 132.859 378.819 132.859C377.151 132.859 375.653 132.519 374.325 131.839C372.995 131.16 371.874 130.257 370.963 129.134C370.051 128.01 369.347 126.742 368.852 125.33C368.356 123.919 368.11 122.456 368.11 120.939C368.11 119.267 368.356 117.699 368.852 116.235C369.347 114.77 370.051 113.503 370.963 112.431C371.874 111.359 372.995 110.51 374.325 109.883C375.653 109.256 377.178 108.941 378.898 108.941C380.617 108.941 382.154 109.256 383.51 109.883C384.865 110.51 386.024 111.373 386.989 112.47C387.952 113.568 388.695 114.849 389.217 116.312C389.737 117.776 389.998 119.319 389.998 120.939C389.998 122.508 389.737 124.011 389.217 125.448ZM389.998 102.332V107.996H389.842C388.486 105.689 386.663 103.984 384.37 102.883C382.076 101.781 379.601 101.23 376.943 101.23C374.129 101.23 371.588 101.755 369.321 102.804C367.054 103.854 365.126 105.27 363.536 107.053C361.946 108.836 360.722 110.935 359.862 113.346C359.002 115.76 358.573 118.33 358.573 121.057C358.573 123.732 359.015 126.263 359.901 128.649C360.787 131.037 362.024 133.121 363.614 134.904C365.204 136.687 367.145 138.104 369.438 139.152C371.731 140.201 374.285 140.726 377.1 140.726C379.705 140.726 382.064 140.236 384.175 139.256C386.285 138.276 388.017 136.858 389.373 135.003H389.53V137.767C389.53 139.663 389.334 141.399 388.943 142.979C388.552 144.557 387.9 145.927 386.989 147.085C386.076 148.243 384.851 149.15 383.314 149.809C381.777 150.467 379.887 150.797 377.647 150.797C375.302 150.797 372.982 150.336 370.689 149.419C368.456 148.525 366.446 147.245 364.659 145.581L359.119 152.763C360.318 153.759 361.673 154.651 363.185 155.438C364.695 156.225 366.272 156.88 367.914 157.405C369.556 157.929 371.223 158.322 372.918 158.585C374.61 158.847 376.213 158.978 377.725 158.978C381.372 158.978 384.526 158.453 387.184 157.405C389.842 156.355 392.043 154.874 393.79 152.96C395.535 151.045 396.826 148.711 397.66 145.958C398.493 143.204 398.911 140.122 398.911 136.713V102.332H389.998Z" fill="white"/>
<path fill-rule="evenodd" clip-rule="evenodd" d="M101.488 10.4359C103.443 8.73242 105.827 7.87891 108.641 7.87891C110.153 7.87891 111.468 8.1286 112.589 8.62649C113.709 9.12574 114.634 9.79426 115.364 10.6326C116.093 11.4724 116.627 12.442 116.967 13.5437C117.305 14.645 117.475 15.7995 117.475 17.0053H98.2444C98.4519 14.3306 99.5341 12.1409 101.488 10.4359ZM118.882 28.1783C117.839 29.7 116.51 30.8926 114.896 31.7577C113.279 32.6234 111.299 33.056 108.954 33.056C107.598 33.056 106.296 32.82 105.046 32.3479C103.795 31.8758 102.673 31.234 101.684 30.4204C100.693 29.6078 99.8981 28.6376 99.2996 27.5093C98.7002 26.3819 98.3483 25.1369 98.2445 23.7725H126.778C126.829 23.3533 126.856 22.934 126.856 22.5135V21.2548C126.856 17.8458 126.399 14.8695 125.488 12.3247C124.576 9.78141 123.311 7.65718 121.697 5.95219C120.081 4.24855 118.165 2.96238 115.951 2.09721C113.735 1.23162 111.325 0.798828 108.72 0.798828C105.905 0.798828 103.286 1.28465 100.863 2.25467C98.4399 3.22564 96.3414 4.58912 94.57 6.34565C92.7977 8.10354 91.4038 10.2278 90.3879 12.7182C89.3713 15.2101 88.8635 17.9775 88.8635 21.0187C88.8635 24.1139 89.3713 26.8798 90.3879 29.3188C91.4038 31.7577 92.8112 33.8168 94.6091 35.4951C96.407 37.1743 98.5302 38.4722 100.98 39.3894C103.43 40.3065 106.113 40.7664 109.032 40.7664C115.332 40.7664 120.293 38.7462 123.919 34.7092L118.882 28.1783Z" fill="#555555"/>
<path fill-rule="evenodd" clip-rule="evenodd" d="M9.6537 108.362C7.95019 106.407 7.09668 104.023 7.09668 101.209C7.09668 99.6973 7.34637 98.3822 7.84427 97.2604C8.34352 96.1406 9.01203 95.2159 9.85036 94.4857C10.6902 93.7564 11.6598 93.2226 12.7615 92.8827C13.8628 92.5444 15.0173 92.3745 16.223 92.3745V111.605C13.5484 111.398 11.3587 110.316 9.6537 108.362ZM27.3956 90.9674C28.9173 92.0105 30.1099 93.3396 30.9749 94.9541C31.8407 96.5705 32.2733 98.5505 32.2733 100.896C32.2733 102.251 32.0373 103.554 31.5652 104.804C31.0931 106.055 30.4513 107.176 29.6376 108.166C28.8251 109.156 27.8549 109.952 26.7266 110.55C25.5991 111.15 24.3542 111.502 22.9898 111.605L22.9898 83.0716C22.5706 83.0204 22.1513 82.9935 21.7307 82.9935H20.4721C17.0631 82.9935 14.0868 83.4504 11.542 84.3617C8.99869 85.2739 6.87447 86.5385 5.16948 88.1531C3.46584 89.769 2.17967 91.6846 1.31449 93.8991C0.448906 96.1149 0.0161133 98.5249 0.0161133 101.13C0.0161133 103.945 0.501937 106.563 1.47196 108.986C2.44292 111.41 3.8064 113.508 5.56294 115.28C7.32082 117.052 9.44505 118.446 11.9355 119.462C14.4274 120.479 17.1948 120.986 20.236 120.986C23.3312 120.986 26.097 120.479 28.5361 119.462C30.9749 118.446 33.0341 117.039 34.7123 115.241C36.3916 113.443 37.6895 111.32 38.6067 108.87C39.5238 106.42 39.9837 103.737 39.9837 100.818C39.9837 94.5176 37.9635 89.5567 33.9265 85.9307L27.3956 90.9674Z" fill="#555555"/>
<path fill-rule="evenodd" clip-rule="evenodd" d="M453.591 108.362C451.888 106.407 451.034 104.023 451.034 101.209C451.034 99.6973 451.284 98.3822 451.782 97.2604C452.281 96.1406 452.95 95.2159 453.788 94.4857C454.628 93.7564 455.597 93.2226 456.699 92.8827C457.8 92.5444 458.955 92.3745 460.161 92.3745V111.605C457.486 111.398 455.296 110.316 453.591 108.362ZM471.333 90.9674C472.855 92.0105 474.047 93.3396 474.912 94.9541C475.778 96.5705 476.211 98.5505 476.211 100.896C476.211 102.251 475.975 103.554 475.503 104.804C475.031 106.055 474.389 107.176 473.575 108.166C472.763 109.156 471.792 109.952 470.664 110.55C469.537 111.15 468.292 111.502 466.927 111.605V83.0716C466.508 83.0204 466.089 82.9935 465.668 82.9935H464.41C461.001 82.9935 458.024 83.4504 455.48 84.3617C452.936 85.2739 450.812 86.5385 449.107 88.1531C447.403 89.769 446.117 91.6846 445.252 93.8991C444.386 96.1149 443.954 98.5249 443.954 101.13C443.954 103.945 444.439 106.563 445.409 108.986C446.38 111.41 447.744 113.508 449.5 115.28C451.258 117.052 453.383 118.446 455.873 119.462C458.365 120.479 461.132 120.986 464.173 120.986C467.269 120.986 470.035 120.479 472.474 119.462C474.912 118.446 476.972 117.039 478.65 115.241C480.329 113.443 481.627 111.32 482.544 108.87C483.461 106.42 483.921 103.737 483.921 100.818C483.921 94.5176 481.901 89.5567 477.864 85.9307L471.333 90.9674Z" fill="#555555"/>
<path fill-rule="evenodd" clip-rule="evenodd" d="M101.489 173.135C103.443 171.432 105.827 170.578 108.641 170.578C110.153 170.578 111.468 170.828 112.59 171.326C113.709 171.825 114.634 172.493 115.364 173.332C116.094 174.172 116.628 175.141 116.967 176.243C117.306 177.344 117.476 178.499 117.476 179.704H98.2446C98.4522 177.03 99.5343 174.84 101.489 173.135ZM118.883 190.876C117.84 192.397 116.51 193.59 114.896 194.455C113.28 195.321 111.3 195.753 108.954 195.753C107.599 195.753 106.296 195.517 105.046 195.045C103.795 194.573 102.674 193.931 101.684 193.118C100.694 192.305 99.8983 191.335 99.2999 190.207C98.7004 189.079 98.3485 187.834 98.2448 186.47H126.778C126.83 186.051 126.857 185.631 126.857 185.211V183.952C126.857 180.543 126.4 177.567 125.488 175.022C124.576 172.479 123.312 170.354 121.697 168.649C120.081 166.946 118.166 165.66 115.951 164.794C113.735 163.929 111.325 163.496 108.72 163.496C105.906 163.496 103.287 163.982 100.864 164.952C98.4402 165.923 96.3416 167.286 94.5703 169.043C92.798 170.801 91.4041 172.925 90.3881 175.415C89.3716 177.907 88.8638 180.675 88.8638 183.716C88.8638 186.811 89.3716 189.577 90.3881 192.016C91.4041 194.455 92.8114 196.514 94.6093 198.192C96.4073 199.872 98.5305 201.17 100.98 202.087C103.43 203.004 106.114 203.464 109.033 203.464C115.332 203.464 120.293 201.443 123.919 197.406L118.883 190.876Z" fill="#555555"/>
<line x1="1.56738" y1="162.996" x2="482.788" y2="162.996" stroke="#F50A0A"/>
<line x1="1.56738" y1="41.4648" x2="482.788" y2="41.4648" stroke="#F50A0A"/>
<line x1="40.564" y1="2.04492" x2="40.564" y2="203.918" stroke="#D60909"/>
<line x1="443.262" y1="2.02148" x2="443.262" y2="203.894" stroke="#D60909"/>
</svg>
