<svg width="205" height="204" viewBox="0 0 205 204" fill="none" xmlns="http://www.w3.org/2000/svg">
<rect y="0.798828" width="204.772" height="203.072" fill="black"/>
<mask id="mask0_2471_7616" style="mask-type:alpha" maskUnits="userSpaceOnUse" x="41" y="42" width="123" height="100">
<path fill-rule="evenodd" clip-rule="evenodd" d="M41.2168 42.1016H163.678V141.388H41.2168V42.1016Z" fill="white"/>
</mask>
<g mask="url(#mask0_2471_7616)">
<path fill-rule="evenodd" clip-rule="evenodd" d="M55.5562 137.701C51.9172 129.86 49.8845 121.113 49.8845 111.888C49.8845 78.1637 77.0493 50.825 110.559 50.825C129.217 50.825 145.908 59.3018 157.038 72.637L163.678 67.0298C150.958 51.7894 131.883 42.1016 110.559 42.1016C72.2623 42.1016 41.2168 73.346 41.2168 111.888C41.2168 122.431 43.5397 132.428 47.6987 141.388L55.5562 137.701Z" fill="white"/>
</g>
<path fill-rule="evenodd" clip-rule="evenodd" d="M110.559 153.323C87.8203 153.323 69.3871 134.772 69.3871 111.888C69.3871 89.0033 87.8203 70.4518 110.559 70.4518C123.22 70.4518 134.544 76.2054 142.097 85.2543L148.738 79.6457C139.596 68.6917 125.886 61.7285 110.559 61.7285C83.0331 61.7285 60.7192 84.1854 60.7192 111.888C60.7192 139.59 83.0331 162.046 110.559 162.046V153.323Z" fill="white"/>
<path fill-rule="evenodd" clip-rule="evenodd" d="M125.498 124.502C121.92 128.789 116.556 131.514 110.559 131.514C99.788 131.514 91.0564 122.726 91.0564 111.886C91.0564 101.047 99.788 92.259 110.559 92.259C116.556 92.259 121.92 94.9845 125.498 99.2708L132.967 92.9629C127.601 86.5334 119.555 82.4453 110.559 82.4453C94.4025 82.4453 81.3052 95.6266 81.3052 111.886C81.3052 128.146 94.4025 141.328 110.559 141.328C118.803 141.328 126.248 137.893 131.566 132.37L125.498 124.502Z" fill="white"/>
<path fill-rule="evenodd" clip-rule="evenodd" d="M101.488 10.4359C103.442 8.73242 105.827 7.87891 108.641 7.87891C110.152 7.87891 111.467 8.1286 112.589 8.62649C113.709 9.12574 114.634 9.79426 115.364 10.6326C116.093 11.4724 116.627 12.442 116.967 13.5437C117.305 14.645 117.475 15.7995 117.475 17.0053H98.2441C98.4517 14.3306 99.5338 12.1409 101.488 10.4359ZM118.882 28.1783C117.839 29.7 116.51 30.8926 114.895 31.7577C113.279 32.6234 111.299 33.056 108.954 33.056C107.598 33.056 106.296 32.82 105.045 32.3479C103.794 31.8758 102.673 31.234 101.684 30.4204C100.693 29.6078 99.8979 28.6376 99.2994 27.5093C98.6999 26.3819 98.3481 25.1369 98.2443 23.7725H126.778C126.829 23.3533 126.856 22.934 126.856 22.5135V21.2548C126.856 17.8458 126.399 14.8695 125.488 12.3247C124.576 9.78141 123.311 7.65718 121.697 5.95219C120.081 4.24855 118.165 2.96238 115.951 2.09721C113.735 1.23162 111.325 0.798828 108.719 0.798828C105.905 0.798828 103.286 1.28465 100.863 2.25467C98.4397 3.22564 96.3411 4.58912 94.5698 6.34565C92.7975 8.10354 91.4036 10.2278 90.3876 12.7182C89.3711 15.2101 88.8633 17.9775 88.8633 21.0187C88.8633 24.1139 89.3711 26.8798 90.3876 29.3188C91.4036 31.7577 92.811 33.8168 94.6089 35.4951C96.4068 37.1743 98.53 38.4722 100.98 39.3894C103.43 40.3065 106.113 40.7664 109.032 40.7664C115.332 40.7664 120.293 38.7462 123.919 34.7092L118.882 28.1783Z" fill="#555555"/>
<path fill-rule="evenodd" clip-rule="evenodd" d="M9.6537 108.362C7.95019 106.407 7.09668 104.023 7.09668 101.209C7.09668 99.6973 7.34637 98.3822 7.84427 97.2604C8.34352 96.1406 9.01203 95.2159 9.85036 94.4857C10.6902 93.7564 11.6598 93.2226 12.7615 92.8827C13.8628 92.5444 15.0173 92.3745 16.223 92.3745V111.605C13.5484 111.398 11.3587 110.316 9.6537 108.362ZM27.3956 90.9674C28.9173 92.0105 30.1099 93.3396 30.9749 94.9541C31.8407 96.5705 32.2733 98.5505 32.2733 100.896C32.2733 102.251 32.0373 103.554 31.5652 104.804C31.0931 106.055 30.4513 107.176 29.6376 108.166C28.8251 109.156 27.8549 109.952 26.7266 110.55C25.5991 111.15 24.3542 111.502 22.9898 111.605L22.9898 83.0716C22.5706 83.0204 22.1513 82.9935 21.7307 82.9935H20.4721C17.0631 82.9935 14.0868 83.4504 11.542 84.3617C8.99869 85.2739 6.87447 86.5385 5.16948 88.1531C3.46584 89.769 2.17967 91.6846 1.31449 93.8991C0.448906 96.1149 0.0161133 98.5249 0.0161133 101.13C0.0161133 103.945 0.501937 106.563 1.47196 108.986C2.44292 111.41 3.8064 113.508 5.56294 115.28C7.32082 117.052 9.44505 118.446 11.9355 119.462C14.4274 120.479 17.1948 120.986 20.236 120.986C23.3312 120.986 26.097 120.479 28.5361 119.462C30.9749 118.446 33.0341 117.039 34.7123 115.241C36.3916 113.443 37.6895 111.32 38.6067 108.87C39.5238 106.42 39.9837 103.737 39.9837 100.818C39.9837 94.5176 37.9635 89.5567 33.9265 85.9307L27.3956 90.9674Z" fill="#555555"/>
<path fill-rule="evenodd" clip-rule="evenodd" d="M174.441 108.432C172.738 106.478 171.884 104.093 171.884 101.279C171.884 99.7679 172.134 98.4527 172.632 97.3309C173.131 96.2111 173.8 95.2864 174.638 94.5562C175.478 93.8269 176.448 93.2931 177.549 92.9532C178.651 92.6149 179.805 92.445 181.011 92.445V111.676C178.336 111.468 176.146 110.386 174.441 108.432ZM192.183 91.0377C193.705 92.0808 194.898 93.41 195.763 95.0244C196.628 96.6408 197.061 98.6208 197.061 100.966C197.061 102.322 196.825 103.624 196.353 104.875C195.881 106.126 195.239 107.247 194.425 108.236C193.613 109.227 192.643 110.022 191.514 110.621C190.387 111.22 189.142 111.572 187.777 111.676V83.1419C187.358 83.0907 186.939 83.0638 186.518 83.0638H185.26C181.851 83.0638 178.874 83.5208 176.33 84.432C173.786 85.3443 171.662 86.6088 169.957 88.2234C168.253 89.8394 166.967 91.7549 166.102 93.9694C165.237 96.1852 164.804 98.5952 164.804 101.2C164.804 104.015 165.29 106.634 166.26 109.057C167.231 111.48 168.594 113.579 170.351 115.35C172.108 117.122 174.233 118.516 176.723 119.532C179.215 120.549 181.982 121.057 185.024 121.057C188.119 121.057 190.885 120.549 193.324 119.532C195.763 118.516 197.822 117.109 199.5 115.311C201.179 113.513 202.477 111.39 203.394 108.94C204.311 106.49 204.771 103.807 204.771 100.888C204.771 94.5879 202.751 89.627 198.714 86.001L192.183 91.0377Z" fill="#555555"/>
<path fill-rule="evenodd" clip-rule="evenodd" d="M101.489 173.135C103.443 171.432 105.827 170.578 108.641 170.578C110.153 170.578 111.468 170.828 112.59 171.326C113.709 171.825 114.634 172.493 115.364 173.332C116.094 174.172 116.628 175.141 116.967 176.243C117.306 177.344 117.476 178.499 117.476 179.704H98.2446C98.4522 177.03 99.5343 174.84 101.489 173.135ZM118.883 190.876C117.84 192.397 116.51 193.59 114.896 194.455C113.28 195.321 111.3 195.753 108.954 195.753C107.599 195.753 106.296 195.517 105.046 195.045C103.795 194.573 102.674 193.931 101.684 193.118C100.694 192.305 99.8983 191.335 99.2999 190.207C98.7004 189.079 98.3485 187.834 98.2448 186.47H126.778C126.83 186.051 126.857 185.631 126.857 185.211V183.952C126.857 180.543 126.4 177.567 125.488 175.022C124.576 172.479 123.312 170.354 121.697 168.649C120.081 166.946 118.166 165.66 115.951 164.794C113.735 163.929 111.325 163.496 108.72 163.496C105.906 163.496 103.287 163.982 100.864 164.952C98.4402 165.923 96.3416 167.286 94.5703 169.043C92.798 170.801 91.4041 172.925 90.3881 175.415C89.3716 177.907 88.8638 180.675 88.8638 183.716C88.8638 186.811 89.3716 189.577 90.3881 192.016C91.4041 194.455 92.8114 196.514 94.6093 198.192C96.4073 199.872 98.5305 201.17 100.98 202.087C103.43 203.004 106.114 203.464 109.033 203.464C115.332 203.464 120.293 201.443 123.919 197.406L118.883 190.876Z" fill="#555555"/>
<line x1="1.56738" y1="162.996" x2="204.771" y2="162.996" stroke="#F50A0A"/>
<line x1="1.56738" y1="41.4648" x2="204.771" y2="41.4648" stroke="#F50A0A"/>
<line x1="40.564" y1="2.04492" x2="40.564" y2="203.918" stroke="#D60909"/>
<line x1="164.178" y1="2.02148" x2="164.178" y2="203.894" stroke="#D60909"/>
</svg>
