<svg width="1099" height="218" viewBox="0 0 1099 218" fill="none" xmlns="http://www.w3.org/2000/svg">
<path d="M472.808 0V26.1818H468.857V0H472.808Z" fill="black"/>
<path d="M482.076 14.5227V26.1818H478.254V6.54545H481.923V9.74148H482.166C482.617 8.7017 483.325 7.86648 484.288 7.2358C485.259 6.60511 486.482 6.28977 487.957 6.28977C489.295 6.28977 490.467 6.57102 491.473 7.13352C492.478 7.6875 493.258 8.51421 493.812 9.61364C494.366 10.7131 494.643 12.0724 494.643 13.6918V26.1818H490.821V14.152C490.821 12.7287 490.45 11.6165 489.708 10.8153C488.967 10.0057 487.948 9.60085 486.653 9.60085C485.767 9.60085 484.978 9.79261 484.288 10.1761C483.606 10.5597 483.065 11.1222 482.664 11.8636C482.272 12.5966 482.076 13.483 482.076 14.5227Z" fill="black"/>
<path d="M508.936 6.54545V9.61364H498.21V6.54545H508.936ZM501.086 1.84091H504.909V20.4162C504.909 21.1577 505.019 21.7159 505.241 22.0909C505.463 22.4574 505.748 22.7088 506.098 22.8452C506.455 22.973 506.843 23.0369 507.261 23.0369C507.568 23.0369 507.836 23.0156 508.066 22.973C508.296 22.9304 508.475 22.8963 508.603 22.8707L509.294 26.0284C509.072 26.1136 508.757 26.1989 508.348 26.2841C507.938 26.3778 507.427 26.429 506.813 26.4375C505.808 26.4545 504.87 26.2756 504.001 25.9006C503.132 25.5256 502.429 24.946 501.892 24.1619C501.355 23.3778 501.086 22.3935 501.086 21.2088V1.84091Z" fill="black"/>
<path d="M521.416 26.5781C519.481 26.5781 517.815 26.1648 516.417 25.3381C515.028 24.5028 513.954 23.331 513.196 21.8224C512.446 20.3054 512.071 18.5284 512.071 16.4915C512.071 14.4801 512.446 12.7074 513.196 11.1733C513.954 9.6392 515.011 8.44176 516.366 7.58097C517.73 6.72017 519.324 6.28977 521.148 6.28977C522.256 6.28977 523.329 6.47301 524.369 6.83949C525.409 7.20597 526.342 7.78125 527.169 8.56534C527.996 9.34943 528.648 10.3679 529.125 11.6207C529.602 12.8651 529.841 14.3778 529.841 16.1591V17.5142H514.231V14.6506H526.095C526.095 13.6449 525.891 12.7543 525.481 11.9787C525.072 11.1946 524.497 10.5767 523.756 10.125C523.023 9.6733 522.162 9.44744 521.173 9.44744C520.099 9.44744 519.162 9.71165 518.361 10.2401C517.568 10.7599 516.954 11.4418 516.52 12.2855C516.094 13.1207 515.881 14.0284 515.881 15.0085V17.2457C515.881 18.5582 516.111 19.6747 516.571 20.5952C517.04 21.5156 517.692 22.2188 518.527 22.7045C519.362 23.1818 520.338 23.4205 521.454 23.4205C522.179 23.4205 522.839 23.3182 523.436 23.1136C524.033 22.9006 524.548 22.5852 524.983 22.1676C525.418 21.75 525.75 21.2344 525.98 20.6207L529.598 21.2727C529.308 22.3381 528.788 23.2713 528.038 24.0724C527.297 24.8651 526.364 25.483 525.239 25.9261C524.122 26.3608 522.848 26.5781 521.416 26.5781Z" fill="black"/>
<path d="M534.082 26.1818V6.54545H537.777V9.66477H537.981C538.339 8.60795 538.97 7.77699 539.873 7.17188C540.785 6.55824 541.816 6.25142 542.967 6.25142C543.205 6.25142 543.487 6.25994 543.811 6.27699C544.143 6.29403 544.403 6.31534 544.59 6.34091V9.99716C544.437 9.95455 544.164 9.90767 543.772 9.85653C543.38 9.79687 542.988 9.76705 542.596 9.76705C541.693 9.76705 540.887 9.95881 540.18 10.3423C539.481 10.7173 538.927 11.2415 538.518 11.9148C538.109 12.5795 537.904 13.3381 537.904 14.1903V26.1818H534.082Z" fill="black"/>
<path d="M469.754 118.182H466.799L475.345 94.909H478.254L486.799 118.182H483.845L476.89 98.5908H476.708L469.754 118.182ZM470.845 109.091H482.754V111.591H470.845V109.091Z" fill="black"/>
<path d="M493.424 118.182V94.909H501.561C503.182 94.909 504.519 95.1893 505.572 95.7499C506.625 96.3029 507.409 97.0492 507.924 97.9885C508.439 98.9204 508.697 99.9545 508.697 101.091C508.697 102.091 508.519 102.917 508.163 103.568C507.814 104.22 507.352 104.735 506.777 105.114C506.208 105.492 505.591 105.773 504.924 105.954V106.182C505.636 106.227 506.352 106.477 507.072 106.932C507.792 107.386 508.394 108.038 508.879 108.886C509.364 109.735 509.606 110.773 509.606 112C509.606 113.167 509.341 114.216 508.811 115.148C508.28 116.079 507.443 116.818 506.299 117.364C505.155 117.909 503.667 118.182 501.833 118.182H493.424ZM496.242 115.682H501.833C503.674 115.682 504.981 115.326 505.754 114.614C506.534 113.894 506.924 113.023 506.924 112C506.924 111.212 506.724 110.485 506.322 109.818C505.92 109.144 505.348 108.606 504.606 108.204C503.864 107.795 502.985 107.591 501.97 107.591H496.242V115.682ZM496.242 105.136H501.47C502.318 105.136 503.083 104.97 503.765 104.636C504.455 104.303 505 103.833 505.402 103.227C505.811 102.621 506.015 101.909 506.015 101.091C506.015 100.068 505.659 99.2007 504.947 98.4885C504.235 97.7689 503.106 97.409 501.561 97.409H496.242V105.136Z" fill="black"/>
<path d="M535.964 102.182H533.146C532.979 101.371 532.688 100.659 532.271 100.045C531.862 99.4317 531.362 98.9166 530.771 98.4999C530.188 98.0757 529.54 97.7575 528.828 97.5454C528.116 97.3332 527.373 97.2272 526.6 97.2272C525.191 97.2272 523.915 97.5832 522.771 98.2954C521.634 99.0075 520.729 100.057 520.055 101.443C519.388 102.829 519.055 104.53 519.055 106.545C519.055 108.561 519.388 110.261 520.055 111.648C520.729 113.034 521.634 114.083 522.771 114.795C523.915 115.507 525.191 115.864 526.6 115.864C527.373 115.864 528.116 115.757 528.828 115.545C529.54 115.333 530.188 115.019 530.771 114.602C531.362 114.178 531.862 113.659 532.271 113.045C532.688 112.424 532.979 111.712 533.146 110.909H535.964C535.752 112.098 535.366 113.163 534.805 114.102C534.244 115.042 533.547 115.841 532.714 116.5C531.881 117.151 530.945 117.648 529.907 117.989C528.877 118.329 527.775 118.5 526.6 118.5C524.616 118.5 522.85 118.015 521.305 117.045C519.759 116.076 518.544 114.697 517.657 112.909C516.771 111.121 516.328 109 516.328 106.545C516.328 104.091 516.771 101.97 517.657 100.182C518.544 98.3939 519.759 97.0151 521.305 96.0454C522.85 95.0757 524.616 94.5908 526.6 94.5908C527.775 94.5908 528.877 94.7613 529.907 95.1022C530.945 95.4431 531.881 95.9431 532.714 96.6022C533.547 97.2537 534.244 98.0492 534.805 98.9885C535.366 99.9204 535.752 100.985 535.964 102.182Z" fill="black"/>
<path d="M550.7 118.182H543.518V94.909H551.018C553.276 94.909 555.207 95.3749 556.813 96.3067C558.42 97.231 559.651 98.5605 560.507 100.295C561.363 102.023 561.791 104.091 561.791 106.5C561.791 108.924 561.359 111.011 560.495 112.761C559.632 114.504 558.374 115.845 556.723 116.784C555.071 117.716 553.063 118.182 550.7 118.182ZM546.336 115.682H550.518C552.442 115.682 554.037 115.311 555.302 114.568C556.567 113.826 557.51 112.769 558.132 111.398C558.753 110.026 559.063 108.394 559.063 106.5C559.063 104.621 558.757 103.004 558.143 101.648C557.529 100.284 556.613 99.2385 555.393 98.5113C554.173 97.7764 552.654 97.409 550.836 97.409H546.336V115.682Z" fill="black"/>
<path d="M569.518 118.182V94.909H583.563V97.409H572.336V105.273H582.836V107.773H572.336V115.682H583.745V118.182H569.518Z" fill="black"/>
<path d="M591.643 118.182V94.909H605.598V97.409H594.461V105.273H604.552V107.773H594.461V118.182H591.643Z" fill="black"/>
<path d="M629.333 102.182C629.083 101.417 628.754 100.731 628.345 100.125C627.943 99.5113 627.462 98.9885 626.902 98.5567C626.349 98.1249 625.72 97.7954 625.015 97.5681C624.311 97.3408 623.538 97.2272 622.697 97.2272C621.318 97.2272 620.064 97.5832 618.936 98.2954C617.807 99.0075 616.909 100.057 616.242 101.443C615.576 102.829 615.242 104.53 615.242 106.545C615.242 108.561 615.58 110.261 616.254 111.648C616.928 113.034 617.841 114.083 618.992 114.795C620.144 115.507 621.439 115.864 622.879 115.864C624.212 115.864 625.386 115.579 626.402 115.011C627.424 114.436 628.22 113.625 628.788 112.579C629.364 111.526 629.652 110.288 629.652 108.864L630.515 109.045H623.515V106.545H632.379V109.045C632.379 110.962 631.97 112.629 631.152 114.045C630.341 115.462 629.22 116.561 627.788 117.341C626.364 118.114 624.727 118.5 622.879 118.5C620.818 118.5 619.008 118.015 617.447 117.045C615.894 116.076 614.682 114.697 613.811 112.909C612.947 111.121 612.515 109 612.515 106.545C612.515 104.704 612.761 103.049 613.254 101.579C613.754 100.102 614.458 98.8446 615.367 97.8067C616.277 96.7689 617.352 95.9734 618.595 95.4204C619.837 94.8673 621.205 94.5908 622.697 94.5908C623.924 94.5908 625.068 94.7764 626.129 95.1476C627.197 95.5113 628.148 96.0302 628.981 96.7045C629.822 97.3711 630.523 98.1704 631.083 99.1022C631.644 100.026 632.03 101.053 632.242 102.182H629.333Z" fill="black"/>
<path d="M640.206 118.182V94.909H643.024V105.273H655.433V94.909H658.251V118.182H655.433V107.773H643.024V118.182H640.206Z" fill="black"/>
<path d="M669.711 94.909V118.182H666.893V94.909H669.711Z" fill="black"/>
<path d="M687.271 94.909H690.089V111.545C690.089 113.03 689.816 114.292 689.271 115.329C688.725 116.367 687.956 117.155 686.964 117.693C685.972 118.231 684.801 118.5 683.453 118.5C682.18 118.5 681.047 118.269 680.055 117.807C679.063 117.337 678.282 116.67 677.714 115.807C677.146 114.943 676.862 113.917 676.862 112.727H679.634C679.634 113.386 679.797 113.962 680.123 114.454C680.456 114.939 680.911 115.318 681.487 115.591C682.063 115.864 682.718 116 683.453 116C684.263 116 684.953 115.829 685.521 115.489C686.089 115.148 686.521 114.648 686.816 113.989C687.119 113.322 687.271 112.507 687.271 111.545V94.909Z" fill="black"/>
<path d="M698.737 118.182V94.909H701.555V106.454H701.828L712.282 94.909H715.964L706.191 105.409L715.964 118.182H712.555L704.464 107.364L701.555 110.636V118.182H698.737Z" fill="black"/>
<path d="M722.612 118.182V94.909H725.43V115.682H736.248V118.182H722.612Z" fill="black"/>
<path d="M743.612 94.909H746.975L754.884 114.227H755.157L763.066 94.909H766.43V118.182H763.794V100.5H763.566L756.294 118.182H753.748L746.475 100.5H746.248V118.182H743.612V94.909Z" fill="black"/>
<path d="M793.535 94.909V118.182H790.808L778.126 99.909H777.899V118.182H775.081V94.909H777.808L790.535 113.227H790.762V94.909H793.535Z" fill="black"/>
<path d="M821.811 106.545C821.811 109 821.367 111.121 820.481 112.909C819.595 114.697 818.379 116.076 816.833 117.045C815.288 118.015 813.523 118.5 811.538 118.5C809.553 118.5 807.788 118.015 806.242 117.045C804.697 116.076 803.481 114.697 802.595 112.909C801.708 111.121 801.265 109 801.265 106.545C801.265 104.091 801.708 101.97 802.595 100.182C803.481 98.3939 804.697 97.0151 806.242 96.0454C807.788 95.0757 809.553 94.5908 811.538 94.5908C813.523 94.5908 815.288 95.0757 816.833 96.0454C818.379 97.0151 819.595 98.3939 820.481 100.182C821.367 101.97 821.811 104.091 821.811 106.545ZM819.083 106.545C819.083 104.53 818.746 102.829 818.072 101.443C817.405 100.057 816.5 99.0075 815.356 98.2954C814.22 97.5832 812.947 97.2272 811.538 97.2272C810.129 97.2272 808.852 97.5832 807.708 98.2954C806.572 99.0075 805.667 100.057 804.992 101.443C804.326 102.829 803.992 104.53 803.992 106.545C803.992 108.561 804.326 110.261 804.992 111.648C805.667 113.034 806.572 114.083 807.708 114.795C808.852 115.507 810.129 115.864 811.538 115.864C812.947 115.864 814.22 115.507 815.356 114.795C816.5 114.083 817.405 113.034 818.072 111.648C818.746 110.261 819.083 108.561 819.083 106.545Z" fill="black"/>
<path d="M829.549 118.182V94.909H837.413C839.239 94.909 840.731 95.2385 841.89 95.8976C843.057 96.5492 843.92 97.4317 844.481 98.5454C845.042 99.659 845.322 100.901 845.322 102.273C845.322 103.644 845.042 104.89 844.481 106.011C843.928 107.132 843.072 108.026 841.913 108.693C840.754 109.352 839.269 109.682 837.458 109.682H831.822V107.182H837.367C838.617 107.182 839.621 106.966 840.379 106.534C841.136 106.102 841.686 105.519 842.027 104.784C842.375 104.042 842.549 103.204 842.549 102.273C842.549 101.341 842.375 100.507 842.027 99.7726C841.686 99.0378 841.133 98.462 840.367 98.0454C839.602 97.6211 838.587 97.409 837.322 97.409H832.367V118.182H829.549Z" fill="black"/>
<path d="M861.316 110.909H864.407L866.998 114.318L867.68 115.227L871.544 120.364H868.453L865.907 116.954L865.271 116.091L861.316 110.909ZM872.498 106.545C872.498 109 872.055 111.121 871.169 112.909C870.282 114.697 869.066 116.076 867.521 117.045C865.975 118.015 864.21 118.5 862.225 118.5C860.241 118.5 858.475 118.015 856.93 117.045C855.384 116.076 854.169 114.697 853.282 112.909C852.396 111.121 851.953 109 851.953 106.545C851.953 104.091 852.396 101.97 853.282 100.182C854.169 98.3939 855.384 97.0151 856.93 96.0454C858.475 95.0757 860.241 94.5908 862.225 94.5908C864.21 94.5908 865.975 95.0757 867.521 96.0454C869.066 97.0151 870.282 98.3939 871.169 100.182C872.055 101.97 872.498 104.091 872.498 106.545ZM869.771 106.545C869.771 104.53 869.434 102.829 868.759 101.443C868.093 100.057 867.188 99.0075 866.044 98.2954C864.907 97.5832 863.634 97.2272 862.225 97.2272C860.816 97.2272 859.54 97.5832 858.396 98.2954C857.259 99.0075 856.354 100.057 855.68 101.443C855.013 102.829 854.68 104.53 854.68 106.545C854.68 108.561 855.013 110.261 855.68 111.648C856.354 113.034 857.259 114.083 858.396 114.795C859.54 115.507 860.816 115.864 862.225 115.864C863.634 115.864 864.907 115.507 866.044 114.795C867.188 114.083 868.093 113.034 868.759 111.648C869.434 110.261 869.771 108.561 869.771 106.545Z" fill="black"/>
<path d="M880.237 118.182V94.909H888.1C889.919 94.909 891.411 95.2196 892.578 95.8408C893.744 96.4545 894.608 97.2992 895.169 98.3749C895.729 99.4507 896.009 100.674 896.009 102.045C896.009 103.417 895.729 104.632 895.169 105.693C894.608 106.754 893.748 107.587 892.589 108.193C891.43 108.792 889.949 109.091 888.146 109.091H881.782V106.545H888.055C889.297 106.545 890.297 106.364 891.055 106C891.82 105.636 892.373 105.121 892.714 104.454C893.063 103.78 893.237 102.977 893.237 102.045C893.237 101.114 893.063 100.299 892.714 99.6022C892.366 98.9052 891.809 98.3673 891.044 97.9885C890.278 97.6022 889.267 97.409 888.009 97.409H883.055V118.182H880.237ZM891.191 107.727L896.919 118.182H893.646L888.009 107.727H891.191Z" fill="black"/>
<path d="M916.433 100.727C916.296 99.5757 915.743 98.6817 914.774 98.0454C913.804 97.409 912.615 97.0908 911.206 97.0908C910.175 97.0908 909.274 97.2575 908.501 97.5908C907.736 97.9242 907.137 98.3825 906.706 98.9658C906.281 99.5492 906.069 100.212 906.069 100.954C906.069 101.576 906.217 102.11 906.512 102.557C906.815 102.996 907.202 103.364 907.671 103.659C908.141 103.947 908.634 104.186 909.149 104.375C909.664 104.557 910.137 104.704 910.569 104.818L912.933 105.454C913.539 105.614 914.213 105.833 914.956 106.114C915.706 106.394 916.421 106.776 917.103 107.261C917.793 107.739 918.361 108.352 918.808 109.102C919.255 109.852 919.478 110.773 919.478 111.864C919.478 113.121 919.149 114.257 918.49 115.273C917.838 116.288 916.884 117.095 915.626 117.693C914.376 118.292 912.857 118.591 911.069 118.591C909.402 118.591 907.959 118.322 906.74 117.784C905.527 117.246 904.573 116.496 903.876 115.534C903.187 114.572 902.796 113.454 902.706 112.182H905.615C905.69 113.061 905.986 113.788 906.501 114.364C907.024 114.932 907.683 115.356 908.478 115.636C909.281 115.909 910.145 116.045 911.069 116.045C912.145 116.045 913.111 115.871 913.967 115.523C914.823 115.167 915.501 114.674 916.001 114.045C916.501 113.409 916.751 112.667 916.751 111.818C916.751 111.045 916.535 110.417 916.103 109.932C915.671 109.447 915.103 109.053 914.399 108.75C913.694 108.447 912.933 108.182 912.115 107.954L909.251 107.136C907.433 106.614 905.993 105.867 904.933 104.898C903.872 103.928 903.342 102.659 903.342 101.091C903.342 99.7878 903.694 98.6514 904.399 97.6817C905.111 96.7045 906.065 95.9469 907.262 95.409C908.467 94.8635 909.812 94.5908 911.296 94.5908C912.796 94.5908 914.13 94.8598 915.296 95.3976C916.463 95.9279 917.387 96.6552 918.069 97.5795C918.759 98.5037 919.122 99.5529 919.16 100.727H916.433Z" fill="black"/>
<path d="M925.839 97.409V94.909H943.294V97.409H935.975V118.182H933.157V97.409H925.839Z" fill="black"/>
<path d="M965.916 94.909H968.734V110.318C968.734 111.909 968.359 113.329 967.609 114.579C966.866 115.822 965.817 116.803 964.461 117.523C963.105 118.235 961.514 118.591 959.688 118.591C957.863 118.591 956.272 118.235 954.916 117.523C953.56 116.803 952.507 115.822 951.757 114.579C951.014 113.329 950.643 111.909 950.643 110.318V94.909H953.461V110.091C953.461 111.227 953.711 112.239 954.211 113.125C954.711 114.004 955.423 114.697 956.348 115.204C957.279 115.704 958.393 115.954 959.688 115.954C960.984 115.954 962.098 115.704 963.029 115.204C963.961 114.697 964.673 114.004 965.166 113.125C965.666 112.239 965.916 111.227 965.916 110.091V94.909Z" fill="black"/>
<path d="M978.316 94.909L985.225 114.5H985.498L992.407 94.909H995.362L986.816 118.182H983.907L975.362 94.909H978.316Z" fill="black"/>
<path d="M1006.21 118.182L999.85 94.909H1002.71L1007.58 113.864H1007.8L1012.76 94.909H1015.94L1020.9 113.864H1021.12L1025.99 94.909H1028.85L1022.49 118.182H1019.58L1014.44 99.6363H1014.26L1009.12 118.182H1006.21Z" fill="black"/>
<path d="M1036.73 94.909L1042.73 104.591H1042.91L1048.91 94.909H1052.23L1044.91 106.545L1052.23 118.182H1048.91L1042.91 108.682H1042.73L1036.73 118.182H1033.41L1040.91 106.545L1033.41 94.909H1036.73Z" fill="black"/>
<path d="M1056.89 94.909H1060.12L1066.57 105.773H1066.85L1073.3 94.909H1076.53L1068.12 108.591V118.182H1065.3V108.591L1056.89 94.909Z" fill="black"/>
<path d="M1082.4 118.182V116.136L1094.95 97.409H1082.27V94.909H1098.31V96.9545L1085.77 115.682H1098.45V118.182H1082.4Z" fill="black"/>
<path d="M473.572 166.591C472.466 166.591 471.462 166.382 470.561 165.966C469.659 165.542 468.943 164.932 468.413 164.136C467.883 163.333 467.617 162.364 467.617 161.227C467.617 160.227 467.814 159.417 468.208 158.795C468.602 158.167 469.129 157.674 469.788 157.318C470.447 156.962 471.174 156.697 471.97 156.523C472.773 156.341 473.58 156.197 474.39 156.091C475.451 155.954 476.311 155.852 476.97 155.784C477.636 155.708 478.121 155.583 478.424 155.409C478.735 155.235 478.89 154.932 478.89 154.5V154.409C478.89 153.288 478.583 152.417 477.97 151.795C477.364 151.174 476.443 150.864 475.208 150.864C473.928 150.864 472.924 151.144 472.197 151.704C471.47 152.265 470.958 152.864 470.663 153.5L468.117 152.591C468.572 151.53 469.178 150.704 469.936 150.114C470.701 149.515 471.534 149.098 472.436 148.864C473.345 148.621 474.239 148.5 475.117 148.5C475.678 148.5 476.322 148.568 477.049 148.704C477.784 148.833 478.492 149.102 479.174 149.511C479.864 149.92 480.436 150.538 480.89 151.364C481.345 152.189 481.572 153.295 481.572 154.682V166.182H478.89V163.818H478.754C478.572 164.197 478.269 164.602 477.845 165.034C477.42 165.466 476.856 165.833 476.152 166.136C475.447 166.439 474.587 166.591 473.572 166.591ZM473.981 164.182C475.042 164.182 475.936 163.973 476.663 163.557C477.398 163.14 477.951 162.602 478.322 161.943C478.701 161.284 478.89 160.591 478.89 159.864V157.409C478.777 157.545 478.527 157.67 478.14 157.784C477.761 157.89 477.322 157.985 476.822 158.068C476.33 158.144 475.848 158.212 475.379 158.273C474.917 158.326 474.542 158.371 474.254 158.409C473.557 158.5 472.905 158.648 472.299 158.852C471.701 159.049 471.216 159.348 470.845 159.75C470.481 160.144 470.299 160.682 470.299 161.364C470.299 162.295 470.644 163 471.333 163.477C472.03 163.947 472.913 164.182 473.981 164.182Z" fill="black"/>
<path d="M489.831 166.182V142.909H492.512V151.5H492.74C492.937 151.197 493.209 150.811 493.558 150.341C493.914 149.864 494.421 149.439 495.081 149.068C495.747 148.689 496.649 148.5 497.785 148.5C499.255 148.5 500.55 148.867 501.671 149.602C502.793 150.337 503.668 151.379 504.296 152.727C504.925 154.076 505.24 155.667 505.24 157.5C505.24 159.348 504.925 160.951 504.296 162.307C503.668 163.655 502.796 164.701 501.683 165.443C500.569 166.178 499.285 166.545 497.831 166.545C496.709 166.545 495.812 166.36 495.137 165.989C494.463 165.61 493.944 165.182 493.581 164.704C493.217 164.22 492.937 163.818 492.74 163.5H492.421V166.182H489.831ZM492.467 157.454C492.467 158.773 492.66 159.936 493.046 160.943C493.433 161.943 493.997 162.727 494.74 163.295C495.482 163.856 496.391 164.136 497.467 164.136C498.588 164.136 499.524 163.841 500.274 163.25C501.031 162.651 501.599 161.848 501.978 160.841C502.365 159.826 502.558 158.697 502.558 157.454C502.558 156.227 502.368 155.121 501.99 154.136C501.618 153.144 501.054 152.36 500.296 151.784C499.546 151.201 498.603 150.909 497.467 150.909C496.376 150.909 495.459 151.186 494.717 151.739C493.974 152.284 493.414 153.049 493.035 154.034C492.656 155.011 492.467 156.151 492.467 157.454Z" fill="black"/>
<path d="M519.433 166.545C517.796 166.545 516.387 166.159 515.206 165.386C514.024 164.614 513.115 163.549 512.478 162.193C511.842 160.837 511.524 159.288 511.524 157.545C511.524 155.773 511.849 154.208 512.501 152.852C513.16 151.489 514.077 150.424 515.251 149.659C516.433 148.886 517.812 148.5 519.387 148.5C520.615 148.5 521.721 148.727 522.706 149.182C523.69 149.636 524.497 150.273 525.126 151.091C525.755 151.909 526.145 152.864 526.296 153.954H523.615C523.41 153.159 522.956 152.454 522.251 151.841C521.554 151.22 520.615 150.909 519.433 150.909C518.387 150.909 517.471 151.182 516.683 151.727C515.902 152.265 515.293 153.026 514.853 154.011C514.421 154.989 514.206 156.136 514.206 157.454C514.206 158.803 514.418 159.977 514.842 160.977C515.274 161.977 515.88 162.754 516.66 163.307C517.448 163.86 518.372 164.136 519.433 164.136C520.13 164.136 520.762 164.015 521.331 163.773C521.899 163.53 522.38 163.182 522.774 162.727C523.168 162.273 523.448 161.727 523.615 161.091H526.296C526.145 162.121 525.77 163.049 525.171 163.875C524.581 164.693 523.796 165.345 522.819 165.829C521.849 166.307 520.721 166.545 519.433 166.545Z" fill="black"/>
<path d="M539.808 166.545C538.353 166.545 537.069 166.178 535.956 165.443C534.842 164.701 533.971 163.655 533.342 162.307C532.713 160.951 532.399 159.348 532.399 157.5C532.399 155.667 532.713 154.076 533.342 152.727C533.971 151.379 534.846 150.337 535.967 149.602C537.088 148.867 538.384 148.5 539.853 148.5C540.99 148.5 541.887 148.689 542.546 149.068C543.213 149.439 543.721 149.864 544.069 150.341C544.425 150.811 544.702 151.197 544.899 151.5H545.126V142.909H547.808V166.182H545.217V163.5H544.899C544.702 163.818 544.421 164.22 544.058 164.704C543.694 165.182 543.175 165.61 542.501 165.989C541.827 166.36 540.929 166.545 539.808 166.545ZM540.171 164.136C541.247 164.136 542.156 163.856 542.899 163.295C543.641 162.727 544.206 161.943 544.592 160.943C544.978 159.936 545.171 158.773 545.171 157.454C545.171 156.151 544.982 155.011 544.603 154.034C544.224 153.049 543.664 152.284 542.921 151.739C542.179 151.186 541.262 150.909 540.171 150.909C539.035 150.909 538.088 151.201 537.331 151.784C536.581 152.36 536.016 153.144 535.637 154.136C535.266 155.121 535.081 156.227 535.081 157.454C535.081 158.697 535.27 159.826 535.649 160.841C536.035 161.848 536.603 162.651 537.353 163.25C538.111 163.841 539.05 164.136 540.171 164.136Z" fill="black"/>
<path d="M563.41 166.545C561.728 166.545 560.277 166.174 559.058 165.432C557.846 164.682 556.91 163.636 556.251 162.295C555.599 160.947 555.274 159.379 555.274 157.591C555.274 155.803 555.599 154.227 556.251 152.864C556.91 151.492 557.827 150.424 559.001 149.659C560.183 148.886 561.562 148.5 563.137 148.5C564.046 148.5 564.944 148.651 565.831 148.954C566.717 149.257 567.524 149.75 568.251 150.432C568.978 151.106 569.558 152 569.99 153.114C570.421 154.227 570.637 155.598 570.637 157.227V158.364H557.183V156.045H567.91C567.91 155.061 567.713 154.182 567.319 153.409C566.933 152.636 566.38 152.026 565.66 151.579C564.948 151.132 564.107 150.909 563.137 150.909C562.069 150.909 561.145 151.174 560.365 151.704C559.592 152.227 558.997 152.909 558.581 153.75C558.164 154.591 557.956 155.492 557.956 156.454V158C557.956 159.318 558.183 160.436 558.637 161.352C559.099 162.261 559.74 162.954 560.558 163.432C561.376 163.901 562.327 164.136 563.41 164.136C564.115 164.136 564.751 164.038 565.319 163.841C565.895 163.636 566.391 163.333 566.808 162.932C567.224 162.523 567.546 162.015 567.774 161.409L570.365 162.136C570.092 163.015 569.634 163.788 568.99 164.454C568.346 165.114 567.55 165.629 566.603 166C565.656 166.364 564.592 166.545 563.41 166.545Z" fill="black"/>
<path d="M585.49 148.727V151H576.081V148.727H585.49ZM578.899 166.182V146.318C578.899 145.318 579.134 144.485 579.603 143.818C580.073 143.151 580.683 142.651 581.433 142.318C582.183 141.985 582.974 141.818 583.808 141.818C584.467 141.818 585.005 141.871 585.421 141.977C585.838 142.083 586.149 142.182 586.353 142.273L585.581 144.591C585.444 144.545 585.255 144.489 585.012 144.42C584.777 144.352 584.467 144.318 584.081 144.318C583.194 144.318 582.554 144.542 582.16 144.989C581.774 145.436 581.581 146.091 581.581 146.954V166.182H578.899Z" fill="black"/>
<path d="M598.575 173.091C597.279 173.091 596.166 172.924 595.234 172.591C594.302 172.265 593.526 171.833 592.904 171.295C592.291 170.765 591.802 170.197 591.438 169.591L593.575 168.091C593.817 168.409 594.124 168.773 594.495 169.182C594.866 169.598 595.374 169.958 596.018 170.261C596.67 170.572 597.522 170.727 598.575 170.727C599.984 170.727 601.147 170.386 602.063 169.704C602.98 169.023 603.438 167.954 603.438 166.5V162.954H603.211C603.014 163.273 602.734 163.667 602.37 164.136C602.014 164.598 601.499 165.011 600.825 165.375C600.158 165.731 599.257 165.909 598.12 165.909C596.711 165.909 595.446 165.576 594.325 164.909C593.211 164.242 592.329 163.273 591.677 162C591.033 160.727 590.711 159.182 590.711 157.364C590.711 155.576 591.026 154.019 591.654 152.693C592.283 151.36 593.158 150.329 594.279 149.602C595.401 148.867 596.696 148.5 598.166 148.5C599.302 148.5 600.204 148.689 600.87 149.068C601.545 149.439 602.06 149.864 602.416 150.341C602.779 150.811 603.06 151.197 603.257 151.5H603.529V148.727H606.12V166.682C606.12 168.182 605.779 169.401 605.098 170.341C604.423 171.288 603.514 171.981 602.37 172.42C601.234 172.867 599.969 173.091 598.575 173.091ZM598.484 163.5C599.56 163.5 600.469 163.254 601.211 162.761C601.954 162.269 602.518 161.561 602.904 160.636C603.291 159.712 603.484 158.606 603.484 157.318C603.484 156.061 603.295 154.951 602.916 153.989C602.537 153.026 601.976 152.273 601.234 151.727C600.491 151.182 599.575 150.909 598.484 150.909C597.348 150.909 596.401 151.197 595.643 151.773C594.893 152.348 594.329 153.121 593.95 154.091C593.579 155.061 593.393 156.136 593.393 157.318C593.393 158.53 593.582 159.602 593.961 160.534C594.348 161.458 594.916 162.186 595.666 162.716C596.423 163.239 597.363 163.5 598.484 163.5Z" fill="black"/>
<path d="M616.711 155.682V166.182H614.029V142.909H616.711V151.454H616.938C617.348 150.553 617.961 149.837 618.779 149.307C619.605 148.769 620.704 148.5 622.075 148.5C623.264 148.5 624.306 148.739 625.2 149.216C626.094 149.686 626.787 150.409 627.279 151.386C627.779 152.356 628.029 153.591 628.029 155.091V166.182H625.348V155.273C625.348 153.886 624.988 152.814 624.268 152.057C623.556 151.292 622.567 150.909 621.302 150.909C620.423 150.909 619.635 151.095 618.938 151.466C618.249 151.837 617.704 152.379 617.302 153.091C616.908 153.803 616.711 154.667 616.711 155.682Z" fill="black"/>
<path d="M635.936 166.182V148.727H638.617V166.182H635.936ZM637.299 145.818C636.777 145.818 636.326 145.64 635.947 145.284C635.576 144.928 635.39 144.5 635.39 144C635.39 143.5 635.576 143.072 635.947 142.716C636.326 142.36 636.777 142.182 637.299 142.182C637.822 142.182 638.269 142.36 638.64 142.716C639.019 143.072 639.208 143.5 639.208 144C639.208 144.5 639.019 144.928 638.64 145.284C638.269 145.64 637.822 145.818 637.299 145.818Z" fill="black"/>
<path d="M646.529 148.727H649.211V167.454C649.211 168.53 649.026 169.462 648.654 170.25C648.291 171.038 647.738 171.648 646.995 172.079C646.26 172.511 645.332 172.727 644.211 172.727C644.12 172.727 644.029 172.727 643.938 172.727C643.848 172.727 643.757 172.727 643.666 172.727V170.227C643.757 170.227 643.84 170.227 643.916 170.227C643.991 170.227 644.075 170.227 644.166 170.227C644.984 170.227 645.582 169.985 645.961 169.5C646.34 169.023 646.529 168.341 646.529 167.454V148.727ZM647.848 145.818C647.325 145.818 646.874 145.64 646.495 145.284C646.124 144.928 645.938 144.5 645.938 144C645.938 143.5 646.124 143.072 646.495 142.716C646.874 142.36 647.325 142.182 647.848 142.182C648.37 142.182 648.817 142.36 649.188 142.716C649.567 143.072 649.757 143.5 649.757 144C649.757 144.5 649.567 144.928 649.188 145.284C648.817 145.64 648.37 145.818 647.848 145.818Z" fill="black"/>
<path d="M659.623 159.818L659.578 156.5H660.123L667.759 148.727H671.078L662.941 156.954H662.714L659.623 159.818ZM657.123 166.182V142.909H659.805V166.182H657.123ZM668.214 166.182L661.396 157.545L663.305 155.682L671.623 166.182H668.214Z" fill="black"/>
<path d="M680.211 142.909V166.182H677.529V142.909H680.211Z" fill="black"/>
<path d="M688.123 166.182V148.727H690.714V151.454H690.941C691.305 150.523 691.892 149.799 692.703 149.284C693.513 148.761 694.487 148.5 695.623 148.5C696.775 148.5 697.733 148.761 698.498 149.284C699.271 149.799 699.873 150.523 700.305 151.454H700.487C700.934 150.553 701.604 149.837 702.498 149.307C703.392 148.769 704.464 148.5 705.714 148.5C707.275 148.5 708.551 148.989 709.544 149.966C710.536 150.936 711.032 152.447 711.032 154.5V166.182H708.35V154.5C708.35 153.212 707.998 152.292 707.294 151.739C706.589 151.186 705.759 150.909 704.805 150.909C703.578 150.909 702.627 151.28 701.953 152.023C701.278 152.757 700.941 153.689 700.941 154.818V166.182H698.214V154.227C698.214 153.235 697.892 152.436 697.248 151.829C696.604 151.216 695.775 150.909 694.759 150.909C694.063 150.909 693.411 151.095 692.805 151.466C692.206 151.837 691.722 152.352 691.35 153.011C690.987 153.663 690.805 154.417 690.805 155.273V166.182H688.123Z" fill="black"/>
<path d="M721.617 155.682V166.182H718.936V148.727H721.527V151.454H721.754C722.163 150.568 722.784 149.856 723.617 149.318C724.451 148.773 725.527 148.5 726.845 148.5C728.027 148.5 729.061 148.742 729.947 149.227C730.833 149.704 731.523 150.432 732.015 151.409C732.508 152.379 732.754 153.606 732.754 155.091V166.182H730.072V155.273C730.072 153.901 729.716 152.833 729.004 152.068C728.292 151.295 727.314 150.909 726.072 150.909C725.216 150.909 724.451 151.095 723.777 151.466C723.11 151.837 722.583 152.379 722.197 153.091C721.811 153.803 721.617 154.667 721.617 155.682Z" fill="black"/>
<path d="M747.745 166.545C746.17 166.545 744.787 166.17 743.598 165.42C742.416 164.67 741.491 163.621 740.825 162.273C740.166 160.924 739.836 159.348 739.836 157.545C739.836 155.727 740.166 154.14 740.825 152.784C741.491 151.428 742.416 150.375 743.598 149.625C744.787 148.875 746.17 148.5 747.745 148.5C749.321 148.5 750.7 148.875 751.882 149.625C753.071 150.375 753.995 151.428 754.654 152.784C755.321 154.14 755.654 155.727 755.654 157.545C755.654 159.348 755.321 160.924 754.654 162.273C753.995 163.621 753.071 164.67 751.882 165.42C750.7 166.17 749.321 166.545 747.745 166.545ZM747.745 164.136C748.942 164.136 749.927 163.829 750.7 163.216C751.473 162.602 752.045 161.795 752.416 160.795C752.787 159.795 752.973 158.712 752.973 157.545C752.973 156.379 752.787 155.292 752.416 154.284C752.045 153.276 751.473 152.462 750.7 151.841C749.927 151.22 748.942 150.909 747.745 150.909C746.548 150.909 745.563 151.22 744.791 151.841C744.018 152.462 743.446 153.276 743.075 154.284C742.704 155.292 742.518 156.379 742.518 157.545C742.518 158.712 742.704 159.795 743.075 160.795C743.446 161.795 744.018 162.602 744.791 163.216C745.563 163.829 746.548 164.136 747.745 164.136Z" fill="black"/>
<path d="M762.748 172.727V148.727H765.339V151.5H765.657C765.854 151.197 766.127 150.811 766.475 150.341C766.831 149.864 767.339 149.439 767.998 149.068C768.665 148.689 769.566 148.5 770.703 148.5C772.172 148.5 773.468 148.867 774.589 149.602C775.71 150.337 776.585 151.379 777.214 152.727C777.843 154.076 778.157 155.667 778.157 157.5C778.157 159.348 777.843 160.951 777.214 162.307C776.585 163.655 775.714 164.701 774.6 165.443C773.487 166.178 772.203 166.545 770.748 166.545C769.627 166.545 768.729 166.36 768.055 165.989C767.381 165.61 766.862 165.182 766.498 164.704C766.135 164.22 765.854 163.818 765.657 163.5H765.43V172.727H762.748ZM765.384 157.454C765.384 158.773 765.578 159.936 765.964 160.943C766.35 161.943 766.915 162.727 767.657 163.295C768.4 163.856 769.309 164.136 770.384 164.136C771.506 164.136 772.441 163.841 773.191 163.25C773.949 162.651 774.517 161.848 774.896 160.841C775.282 159.826 775.475 158.697 775.475 157.454C775.475 156.227 775.286 155.121 774.907 154.136C774.536 153.144 773.972 152.36 773.214 151.784C772.464 151.201 771.521 150.909 770.384 150.909C769.294 150.909 768.377 151.186 767.634 151.739C766.892 152.284 766.331 153.049 765.953 154.034C765.574 155.011 765.384 156.151 765.384 157.454Z" fill="black"/>
<path d="M797.157 172.727V163.5H796.93C796.733 163.818 796.453 164.22 796.089 164.704C795.725 165.182 795.206 165.61 794.532 165.989C793.858 166.36 792.96 166.545 791.839 166.545C790.384 166.545 789.1 166.178 787.987 165.443C786.873 164.701 786.002 163.655 785.373 162.307C784.744 160.951 784.43 159.348 784.43 157.5C784.43 155.667 784.744 154.076 785.373 152.727C786.002 151.379 786.877 150.337 787.998 149.602C789.119 148.867 790.415 148.5 791.884 148.5C793.021 148.5 793.919 148.689 794.578 149.068C795.244 149.439 795.752 149.864 796.1 150.341C796.456 150.811 796.733 151.197 796.93 151.5H797.248V148.727H799.839V172.727H797.157ZM792.203 164.136C793.278 164.136 794.188 163.856 794.93 163.295C795.672 162.727 796.237 161.943 796.623 160.943C797.01 159.936 797.203 158.773 797.203 157.454C797.203 156.151 797.013 155.011 796.634 154.034C796.256 153.049 795.695 152.284 794.953 151.739C794.21 151.186 793.294 150.909 792.203 150.909C791.066 150.909 790.119 151.201 789.362 151.784C788.612 152.36 788.047 153.144 787.669 154.136C787.297 155.121 787.112 156.227 787.112 157.454C787.112 158.697 787.301 159.826 787.68 160.841C788.066 161.848 788.634 162.651 789.384 163.25C790.142 163.841 791.081 164.136 792.203 164.136Z" fill="black"/>
<path d="M807.748 166.182V148.727H810.339V151.364H810.521C810.839 150.5 811.415 149.799 812.248 149.261C813.081 148.723 814.021 148.454 815.066 148.454C815.263 148.454 815.509 148.458 815.805 148.466C816.1 148.473 816.324 148.485 816.475 148.5V151.227C816.384 151.204 816.176 151.17 815.85 151.125C815.532 151.072 815.195 151.045 814.839 151.045C813.991 151.045 813.233 151.223 812.566 151.579C811.907 151.928 811.385 152.413 810.998 153.034C810.619 153.648 810.43 154.348 810.43 155.136V166.182H807.748Z" fill="black"/>
<path d="M835.018 152.636L832.609 153.318C832.457 152.917 832.234 152.526 831.938 152.148C831.651 151.761 831.257 151.443 830.757 151.193C830.257 150.943 829.616 150.818 828.836 150.818C827.768 150.818 826.878 151.064 826.166 151.557C825.461 152.042 825.109 152.659 825.109 153.409C825.109 154.076 825.351 154.602 825.836 154.989C826.321 155.375 827.079 155.697 828.109 155.954L830.7 156.591C832.26 156.97 833.423 157.549 834.188 158.329C834.954 159.102 835.336 160.098 835.336 161.318C835.336 162.318 835.048 163.212 834.473 164C833.904 164.788 833.109 165.409 832.086 165.864C831.063 166.318 829.874 166.545 828.518 166.545C826.738 166.545 825.264 166.159 824.098 165.386C822.931 164.614 822.192 163.485 821.882 162L824.427 161.364C824.67 162.303 825.128 163.007 825.802 163.477C826.484 163.947 827.374 164.182 828.473 164.182C829.723 164.182 830.715 163.917 831.45 163.386C832.192 162.848 832.563 162.204 832.563 161.454C832.563 160.848 832.351 160.341 831.927 159.932C831.503 159.515 830.851 159.204 829.973 159L827.063 158.318C825.465 157.939 824.291 157.352 823.541 156.557C822.798 155.754 822.427 154.75 822.427 153.545C822.427 152.561 822.704 151.689 823.257 150.932C823.817 150.174 824.579 149.579 825.541 149.148C826.51 148.716 827.609 148.5 828.836 148.5C830.563 148.5 831.92 148.879 832.904 149.636C833.897 150.394 834.601 151.394 835.018 152.636Z" fill="black"/>
<path d="M849.964 148.727V151H840.919V148.727H849.964ZM843.555 144.545H846.237V161.182C846.237 161.939 846.347 162.507 846.566 162.886C846.794 163.257 847.081 163.507 847.43 163.636C847.786 163.757 848.161 163.818 848.555 163.818C848.85 163.818 849.093 163.803 849.282 163.773C849.472 163.735 849.623 163.704 849.737 163.682L850.282 166.091C850.1 166.159 849.847 166.227 849.521 166.295C849.195 166.371 848.782 166.409 848.282 166.409C847.525 166.409 846.782 166.246 846.055 165.92C845.335 165.595 844.737 165.098 844.259 164.432C843.79 163.765 843.555 162.924 843.555 161.909V144.545Z" fill="black"/>
<path d="M867.998 159.045V148.727H870.68V166.182H867.998V163.227H867.816C867.407 164.114 866.771 164.867 865.907 165.489C865.044 166.102 863.953 166.409 862.634 166.409C861.544 166.409 860.574 166.17 859.725 165.693C858.877 165.208 858.21 164.481 857.725 163.511C857.241 162.534 856.998 161.303 856.998 159.818V148.727H859.68V159.636C859.68 160.909 860.036 161.924 860.748 162.682C861.468 163.439 862.385 163.818 863.498 163.818C864.165 163.818 864.843 163.648 865.532 163.307C866.229 162.966 866.813 162.443 867.282 161.739C867.759 161.034 867.998 160.136 867.998 159.045Z" fill="black"/>
<path d="M892.865 148.727L886.41 166.182H883.683L877.228 148.727H880.137L884.956 162.636H885.137L889.956 148.727H892.865Z" fill="black"/>
<path d="M903.359 166.182L898.041 148.727H900.859L904.632 162.091H904.813L908.541 148.727H911.404L915.086 162.045H915.268L919.041 148.727H921.859L916.541 166.182H913.904L910.086 152.773H909.813L905.995 166.182H903.359Z" fill="black"/>
<path d="M930.404 148.727L934.586 155.864L938.768 148.727H941.859L936.223 157.454L941.859 166.182H938.768L934.586 159.409L930.404 166.182H927.313L932.859 157.454L927.313 148.727H930.404Z" fill="black"/>
<path d="M950.413 172.727C949.958 172.727 949.553 172.689 949.197 172.614C948.841 172.545 948.595 172.477 948.458 172.409L949.14 170.045C949.792 170.212 950.367 170.273 950.867 170.227C951.367 170.182 951.811 169.958 952.197 169.557C952.591 169.163 952.951 168.523 953.277 167.636L953.777 166.273L947.322 148.727H950.231L955.049 162.636H955.231L960.049 148.727H962.958L955.549 168.727C955.216 169.629 954.803 170.375 954.311 170.966C953.818 171.564 953.246 172.007 952.595 172.295C951.951 172.583 951.224 172.727 950.413 172.727Z" fill="black"/>
<path d="M968.998 166.182V164.136L978.907 151.409V151.227H969.316V148.727H982.362V150.864L972.725 163.5V163.682H982.68V166.182H968.998Z" fill="black"/>
<path d="M476.572 190.909V214.182H473.754V193.864H473.617L467.936 197.636V194.773L473.754 190.909H476.572Z" fill="black"/>
<path d="M486.265 214.182V212.136L493.947 203.727C494.848 202.742 495.591 201.886 496.174 201.159C496.758 200.424 497.189 199.735 497.47 199.091C497.758 198.439 497.902 197.757 497.902 197.045C497.902 196.227 497.705 195.519 497.311 194.92C496.924 194.322 496.394 193.86 495.72 193.534C495.045 193.208 494.288 193.045 493.447 193.045C492.553 193.045 491.773 193.231 491.106 193.602C490.447 193.966 489.936 194.477 489.572 195.136C489.216 195.795 489.038 196.568 489.038 197.454H486.356C486.356 196.091 486.67 194.894 487.299 193.864C487.928 192.833 488.784 192.03 489.867 191.454C490.958 190.879 492.182 190.591 493.538 190.591C494.902 190.591 496.11 190.879 497.163 191.454C498.216 192.03 499.042 192.807 499.64 193.784C500.239 194.761 500.538 195.848 500.538 197.045C500.538 197.901 500.383 198.739 500.072 199.557C499.769 200.367 499.239 201.273 498.481 202.273C497.731 203.265 496.689 204.477 495.356 205.909L490.129 211.5V211.682H500.947V214.182H486.265Z" fill="black"/>
<path d="M516.504 214.5C515.004 214.5 513.667 214.242 512.492 213.727C511.326 213.212 510.398 212.496 509.708 211.579C509.027 210.655 508.655 209.583 508.595 208.364H511.458C511.519 209.114 511.777 209.761 512.231 210.307C512.686 210.845 513.28 211.261 514.015 211.557C514.75 211.852 515.564 212 516.458 212C517.458 212 518.345 211.826 519.117 211.477C519.89 211.129 520.496 210.644 520.936 210.023C521.375 209.401 521.595 208.682 521.595 207.864C521.595 207.007 521.383 206.254 520.958 205.602C520.534 204.943 519.913 204.428 519.095 204.057C518.277 203.686 517.277 203.5 516.095 203.5H514.231V201H516.095C517.019 201 517.83 200.833 518.527 200.5C519.231 200.167 519.78 199.697 520.174 199.091C520.576 198.485 520.777 197.773 520.777 196.954C520.777 196.167 520.602 195.481 520.254 194.898C519.905 194.314 519.413 193.86 518.777 193.534C518.148 193.208 517.405 193.045 516.549 193.045C515.746 193.045 514.989 193.193 514.277 193.489C513.572 193.776 512.996 194.197 512.549 194.75C512.102 195.295 511.86 195.954 511.822 196.727H509.095C509.14 195.507 509.508 194.439 510.197 193.523C510.886 192.598 511.788 191.879 512.902 191.364C514.023 190.848 515.254 190.591 516.595 190.591C518.034 190.591 519.269 190.882 520.299 191.466C521.33 192.042 522.121 192.803 522.674 193.75C523.227 194.697 523.504 195.72 523.504 196.818C523.504 198.129 523.159 199.246 522.47 200.17C521.788 201.095 520.86 201.735 519.686 202.091V202.273C521.155 202.515 522.303 203.14 523.129 204.148C523.955 205.148 524.367 206.386 524.367 207.864C524.367 209.129 524.023 210.265 523.333 211.273C522.652 212.273 521.72 213.061 520.538 213.636C519.356 214.212 518.011 214.5 516.504 214.5Z" fill="black"/>
<path d="M531.47 209.409V207.091L541.697 190.909H543.379V194.5H542.242L534.515 206.727V206.909H548.288V209.409H531.47ZM542.424 214.182V208.704V207.625V190.909H545.106V214.182H542.424Z" fill="black"/>
<path d="M562.819 214.5C561.486 214.5 560.285 214.235 559.217 213.704C558.149 213.174 557.293 212.447 556.649 211.523C556.005 210.598 555.652 209.545 555.592 208.364H558.319C558.425 209.417 558.902 210.288 559.751 210.977C560.607 211.659 561.63 212 562.819 212C563.774 212 564.622 211.776 565.365 211.329C566.115 210.882 566.702 210.269 567.126 209.489C567.558 208.701 567.774 207.811 567.774 206.818C567.774 205.803 567.55 204.898 567.103 204.102C566.664 203.299 566.058 202.667 565.285 202.204C564.512 201.742 563.63 201.507 562.637 201.5C561.925 201.492 561.194 201.602 560.444 201.829C559.694 202.049 559.077 202.333 558.592 202.682L555.956 202.364L557.365 190.909H569.456V193.409H559.728L558.91 200.273H559.046C559.524 199.894 560.122 199.579 560.842 199.329C561.562 199.079 562.312 198.954 563.092 198.954C564.516 198.954 565.785 199.295 566.899 199.977C568.02 200.651 568.899 201.576 569.535 202.75C570.179 203.924 570.501 205.265 570.501 206.773C570.501 208.257 570.168 209.583 569.501 210.75C568.842 211.909 567.933 212.826 566.774 213.5C565.615 214.167 564.296 214.5 562.819 214.5Z" fill="black"/>
<path d="M585.742 214.5C584.788 214.485 583.833 214.303 582.879 213.954C581.924 213.606 581.053 213.019 580.265 212.193C579.477 211.36 578.845 210.235 578.367 208.818C577.89 207.394 577.652 205.606 577.652 203.454C577.652 201.394 577.845 199.568 578.231 197.977C578.617 196.379 579.178 195.034 579.913 193.943C580.648 192.845 581.534 192.011 582.572 191.443C583.617 190.875 584.795 190.591 586.106 190.591C587.409 190.591 588.568 190.852 589.583 191.375C590.606 191.89 591.439 192.61 592.083 193.534C592.727 194.458 593.144 195.523 593.333 196.727H590.561C590.303 195.682 589.803 194.814 589.061 194.125C588.318 193.436 587.333 193.091 586.106 193.091C584.303 193.091 582.883 193.875 581.845 195.443C580.814 197.011 580.295 199.212 580.288 202.045H580.47C580.894 201.401 581.398 200.852 581.981 200.398C582.572 199.936 583.223 199.579 583.936 199.329C584.648 199.079 585.402 198.954 586.197 198.954C587.53 198.954 588.75 199.288 589.856 199.954C590.962 200.614 591.848 201.526 592.515 202.693C593.182 203.852 593.515 205.182 593.515 206.682C593.515 208.121 593.193 209.439 592.549 210.636C591.905 211.826 591 212.773 589.833 213.477C588.674 214.174 587.311 214.515 585.742 214.5ZM585.742 212C586.697 212 587.553 211.761 588.311 211.284C589.076 210.807 589.678 210.167 590.117 209.364C590.564 208.561 590.788 207.667 590.788 206.682C590.788 205.72 590.572 204.845 590.14 204.057C589.716 203.261 589.129 202.629 588.379 202.159C587.636 201.689 586.788 201.454 585.833 201.454C585.114 201.454 584.443 201.598 583.822 201.886C583.201 202.167 582.655 202.553 582.186 203.045C581.723 203.538 581.36 204.102 581.095 204.739C580.83 205.367 580.697 206.03 580.697 206.727C580.697 207.651 580.913 208.515 581.345 209.318C581.784 210.121 582.383 210.769 583.14 211.261C583.905 211.754 584.773 212 585.742 212Z" fill="black"/>
<path d="M601.711 214.182L612.12 193.591V193.409H600.12V190.909H615.029V193.545L604.666 214.182H601.711Z" fill="black"/>
<path d="M629.251 214.5C627.69 214.5 626.312 214.223 625.115 213.67C623.925 213.11 622.997 212.341 622.331 211.364C621.664 210.379 621.334 209.257 621.342 208C621.334 207.015 621.527 206.106 621.921 205.273C622.315 204.432 622.853 203.731 623.535 203.17C624.224 202.602 624.993 202.242 625.842 202.091V201.954C624.728 201.667 623.842 201.042 623.183 200.079C622.524 199.11 622.198 198.007 622.206 196.773C622.198 195.591 622.497 194.534 623.103 193.602C623.709 192.67 624.543 191.936 625.603 191.398C626.671 190.86 627.887 190.591 629.251 190.591C630.599 190.591 631.804 190.86 632.865 191.398C633.925 191.936 634.759 192.67 635.365 193.602C635.978 194.534 636.289 195.591 636.296 196.773C636.289 198.007 635.952 199.11 635.285 200.079C634.626 201.042 633.751 201.667 632.66 201.954V202.091C633.501 202.242 634.259 202.602 634.933 203.17C635.607 203.731 636.145 204.432 636.546 205.273C636.948 206.106 637.152 207.015 637.16 208C637.152 209.257 636.812 210.379 636.137 211.364C635.471 212.341 634.543 213.11 633.353 213.67C632.171 214.223 630.804 214.5 629.251 214.5ZM629.251 212C630.304 212 631.213 211.829 631.978 211.489C632.743 211.148 633.334 210.667 633.751 210.045C634.168 209.424 634.38 208.697 634.387 207.864C634.38 206.985 634.152 206.208 633.706 205.534C633.259 204.86 632.649 204.329 631.876 203.943C631.111 203.557 630.236 203.364 629.251 203.364C628.259 203.364 627.372 203.557 626.592 203.943C625.819 204.329 625.209 204.86 624.762 205.534C624.323 206.208 624.107 206.985 624.115 207.864C624.107 208.697 624.308 209.424 624.717 210.045C625.134 210.667 625.728 211.148 626.501 211.489C627.274 211.829 628.19 212 629.251 212ZM629.251 200.954C630.084 200.954 630.823 200.788 631.467 200.454C632.118 200.121 632.63 199.655 633.001 199.057C633.372 198.458 633.562 197.757 633.569 196.954C633.562 196.167 633.376 195.481 633.012 194.898C632.649 194.307 632.145 193.852 631.501 193.534C630.857 193.208 630.107 193.045 629.251 193.045C628.38 193.045 627.618 193.208 626.967 193.534C626.315 193.852 625.812 194.307 625.456 194.898C625.099 195.481 624.925 196.167 624.933 196.954C624.925 197.757 625.103 198.458 625.467 199.057C625.838 199.655 626.349 200.121 627.001 200.454C627.652 200.788 628.402 200.954 629.251 200.954Z" fill="black"/>
<path d="M651.924 190.591C652.879 190.598 653.833 190.78 654.788 191.136C655.742 191.492 656.614 192.083 657.402 192.909C658.189 193.727 658.822 194.845 659.299 196.261C659.777 197.678 660.015 199.454 660.015 201.591C660.015 203.659 659.818 205.496 659.424 207.102C659.038 208.701 658.477 210.049 657.742 211.148C657.015 212.246 656.129 213.079 655.083 213.648C654.045 214.216 652.871 214.5 651.561 214.5C650.258 214.5 649.095 214.242 648.072 213.727C647.057 213.204 646.224 212.481 645.572 211.557C644.928 210.625 644.515 209.545 644.333 208.318H647.106C647.356 209.386 647.852 210.269 648.595 210.966C649.345 211.655 650.333 212 651.561 212C653.356 212 654.773 211.216 655.811 209.648C656.856 208.079 657.379 205.864 657.379 203H657.197C656.773 203.636 656.269 204.186 655.686 204.648C655.102 205.11 654.455 205.466 653.742 205.716C653.03 205.966 652.273 206.091 651.47 206.091C650.136 206.091 648.913 205.761 647.799 205.102C646.693 204.436 645.807 203.523 645.14 202.364C644.481 201.197 644.152 199.864 644.152 198.364C644.152 196.939 644.47 195.636 645.106 194.454C645.75 193.265 646.652 192.318 647.811 191.614C648.977 190.909 650.348 190.568 651.924 190.591ZM651.924 193.091C650.97 193.091 650.11 193.329 649.345 193.807C648.587 194.276 647.985 194.913 647.538 195.716C647.099 196.511 646.879 197.394 646.879 198.364C646.879 199.333 647.091 200.216 647.515 201.011C647.947 201.799 648.534 202.428 649.277 202.898C650.027 203.36 650.879 203.591 651.833 203.591C652.553 203.591 653.223 203.451 653.845 203.17C654.466 202.882 655.008 202.492 655.47 202C655.939 201.5 656.307 200.936 656.572 200.307C656.837 199.67 656.97 199.007 656.97 198.318C656.97 197.409 656.75 196.557 656.311 195.761C655.879 194.966 655.28 194.322 654.515 193.829C653.758 193.337 652.894 193.091 651.924 193.091Z" fill="black"/>
<path d="M675.075 214.5C673.363 214.5 671.904 214.034 670.7 213.102C669.495 212.163 668.575 210.803 667.938 209.023C667.302 207.235 666.984 205.076 666.984 202.545C666.984 200.03 667.302 197.882 667.938 196.102C668.582 194.314 669.507 192.951 670.711 192.011C671.923 191.064 673.378 190.591 675.075 190.591C676.772 190.591 678.223 191.064 679.427 192.011C680.639 192.951 681.563 194.314 682.2 196.102C682.844 197.882 683.166 200.03 683.166 202.545C683.166 205.076 682.848 207.235 682.211 209.023C681.575 210.803 680.654 212.163 679.45 213.102C678.245 214.034 676.787 214.5 675.075 214.5ZM675.075 212C676.772 212 678.09 211.182 679.029 209.545C679.969 207.909 680.438 205.576 680.438 202.545C680.438 200.53 680.223 198.814 679.791 197.398C679.366 195.981 678.753 194.901 677.95 194.159C677.154 193.417 676.196 193.045 675.075 193.045C673.393 193.045 672.079 193.875 671.132 195.534C670.185 197.186 669.711 199.523 669.711 202.545C669.711 204.561 669.923 206.273 670.348 207.682C670.772 209.091 671.382 210.163 672.177 210.898C672.98 211.632 673.946 212 675.075 212Z" fill="black"/>
<path d="M33.3005 214.182H0L74.8246 6.25635H111.069L185.894 214.182H152.594L93.81 44.024H92.1856L33.3005 214.182ZM38.8845 132.758H146.908V159.154H38.8845V132.758Z" fill="black"/>
<path d="M266.389 217.633C256.508 217.633 247.573 215.806 239.587 212.151C231.6 208.428 225.271 203.048 220.601 196.008C215.999 188.969 213.697 180.34 213.697 170.119C213.697 161.32 215.39 154.078 218.774 148.393C222.158 142.707 226.727 138.206 232.48 134.89C238.233 131.573 244.663 129.069 251.77 127.377C258.877 125.685 266.119 124.399 273.496 123.519C282.837 122.436 290.417 121.556 296.238 120.879C302.059 120.135 306.289 118.95 308.929 117.326C311.569 115.701 312.888 113.062 312.888 109.407V108.696C312.888 99.8295 310.384 92.9595 305.375 88.0863C300.435 83.213 293.057 80.7764 283.243 80.7764C273.023 80.7764 264.968 83.0438 259.08 87.5787C253.259 92.0458 249.232 97.0206 246.998 102.503L218.469 96.0053C221.853 86.5296 226.794 78.8813 233.292 73.0604C239.857 67.1719 247.404 62.9078 255.932 60.2682C264.46 57.5608 273.429 56.2071 282.837 56.2071C289.064 56.2071 295.663 56.9517 302.634 58.4407C309.673 59.8621 316.239 62.5017 322.33 66.3597C328.49 70.2177 333.532 75.734 337.458 82.9085C341.383 90.0153 343.346 99.2541 343.346 110.625V214.182H313.701V192.861H312.482C310.519 196.787 307.575 200.645 303.65 204.435C299.724 208.225 294.681 211.373 288.522 213.877C282.363 216.381 274.985 217.633 266.389 217.633ZM272.989 193.267C281.381 193.267 288.556 191.609 294.512 188.292C300.536 184.976 305.105 180.644 308.218 175.297C311.399 169.882 312.99 164.095 312.99 157.936V137.834C311.907 138.917 309.809 139.932 306.695 140.88C303.65 141.76 300.164 142.538 296.238 143.215C292.312 143.824 288.488 144.399 284.766 144.941C281.043 145.415 277.93 145.821 275.425 146.159C269.537 146.904 264.156 148.156 259.283 149.916C254.477 151.675 250.619 154.214 247.709 157.53C244.866 160.779 243.445 165.111 243.445 170.525C243.445 178.038 246.22 183.724 251.77 187.582C257.32 191.372 264.393 193.267 272.989 193.267Z" fill="black"/>
</svg>
