<svg width="114" height="16" viewBox="0 0 114 16" fill="none" xmlns="http://www.w3.org/2000/svg">
<g clip-path="url(#clip0_3066_8803)">
<path opacity="0.6" fill-rule="evenodd" clip-rule="evenodd" d="M72.5396 1.10948C72.5396 1.88613 72.5685 1.90464 73.6507 1.82643C74.6448 1.75473 74.7702 1.67104 74.8442 1.02944C74.924 0.339874 74.8816 0.3125 73.7337 0.3125C72.5763 0.3125 72.5396 0.337006 72.5396 1.10948ZM76.0332 0.703561C75.6897 1.59596 76.1297 1.87674 77.8734 1.87674C79.3307 1.87674 79.5861 1.80531 79.7283 1.35767C79.9991 0.506466 79.6549 0.3125 77.8753 0.3125C76.6123 0.3125 76.1452 0.411569 76.0332 0.703561ZM80.9533 1.02944L81.0363 1.74639L91.3937 1.81444C100.334 1.87335 101.795 1.82929 102.076 1.49194C102.255 1.27712 102.333 0.923859 102.249 0.70695C102.117 0.363859 100.717 0.3125 91.4844 0.3125H80.8709L80.9533 1.02944ZM85.7119 4.07763C85.3876 4.91998 85.8116 5.30009 86.9813 5.21588C87.9734 5.14444 88.095 5.06441 88.095 4.48382C88.095 3.90322 87.9734 3.82318 86.9813 3.75175C86.1616 3.69257 85.8264 3.77861 85.7119 4.07763ZM89.3677 4.08806C89.284 4.30575 89.284 4.66188 89.3677 4.87957C89.4989 5.2211 90.3894 5.26568 95.866 5.20545L102.212 5.13558V4.48382V3.83204L95.866 3.76218C90.3894 3.70195 89.4989 3.74653 89.3677 4.08806ZM1.49671 7.24808C1.25567 7.35652 1.16992 8.451 1.16992 11.4142V15.4335H3.79597C6.23588 15.4335 6.46776 15.3881 7.06382 14.7935C7.80679 14.0528 7.9208 12.7274 7.31581 11.866C6.9833 11.3926 6.97729 11.1895 7.27534 10.4824C7.72025 9.42736 7.55767 8.59149 6.76265 7.84669C6.23378 7.35133 5.79223 7.24545 3.97871 7.17951C2.79339 7.1365 1.67657 7.16752 1.49671 7.24808ZM12.9995 7.26346C12.758 7.36069 12.6727 8.44293 12.6727 11.4142V15.4335H15.2871H17.9013V14.7818C17.9013 14.1485 17.849 14.13 16.0713 14.13H14.2414V10.7687C14.2414 7.94417 14.1752 7.3821 13.8278 7.24911C13.6003 7.16207 13.3946 7.10029 13.3703 7.11151C13.3462 7.12272 13.1794 7.19123 12.9995 7.26346ZM24.2302 7.52572C21.0333 9.09704 21.2194 14.1735 24.5194 15.4168C26.9258 16.3236 29.8086 14.9171 30.4608 12.5183C31.4091 9.0316 27.5148 5.91119 24.2302 7.52572ZM37.2608 7.67044C35.9503 8.3707 34.8942 10.0251 34.8942 11.3782C34.8942 14.6983 39.1852 16.8773 41.9114 14.9415C43.4784 13.8286 42.6225 12.8765 40.9153 13.8333C39.717 14.5049 39.3044 14.5226 38.104 13.9548C36.3663 13.1323 36.0086 10.7434 37.4133 9.34238C38.3902 8.36832 39.6273 8.20515 40.8011 8.89605C41.7653 9.46332 42.737 9.42345 42.737 8.81702C42.737 8.17176 41.0918 7.25776 39.741 7.15239C38.7167 7.07235 38.1646 7.1879 37.2608 7.67044ZM47.6171 7.26481C47.5211 7.36018 47.4427 9.23727 47.4427 11.4361V15.4335H48.0962C48.7041 15.4335 48.7498 15.3446 48.7498 14.1618C48.7498 13.3669 48.8926 12.7722 49.1302 12.5754C49.514 12.2579 50.0468 12.7209 51.6779 14.7888C52.042 15.2505 52.4407 15.4335 53.0825 15.4335C53.5753 15.4335 53.9784 15.3183 53.9784 15.1778C53.9784 15.037 53.2006 14.0998 52.2498 13.0947L50.5213 11.2674L52.1581 9.42627C53.3256 8.11312 53.7141 7.50515 53.5136 7.30519C52.9669 6.76003 51.9994 7.35133 50.4491 9.1776L48.8806 11.0252L48.8019 9.26072C48.7208 7.44023 48.2447 6.63856 47.6171 7.26481ZM58.0313 7.60994C57.777 8.40877 58.0885 8.65513 59.3531 8.65513H60.5141V12.0443V15.4335H61.2984H62.0827V12.0587V8.68378L63.3221 8.60431C64.2912 8.54201 64.5819 8.41787 64.6549 8.03467C64.8041 7.25225 64.2277 7.0992 61.1198 7.09478C58.4287 7.09112 58.1834 7.13208 58.0313 7.60994ZM70.7883 7.63314C67.9335 9.04256 67.9193 13.8872 70.7664 15.1759C72.934 16.157 75.2251 15.6353 76.3903 13.8959C77.2499 12.6132 77.2287 10.1777 76.3466 8.88323C75.1479 7.12426 72.8613 6.60989 70.7883 7.63314ZM81.2415 7.3C81.0041 7.45067 81.2184 8.47965 82.0908 11.3798C82.7329 13.5131 83.2586 15.3053 83.2586 15.3624C83.2586 15.4197 83.6331 15.4298 84.0905 15.3848C84.9044 15.305 84.9385 15.2489 85.589 12.8916C85.9551 11.5652 86.3328 10.4801 86.4273 10.4801C86.5226 10.4801 86.6789 10.8026 86.7741 11.197C86.87 11.5914 87.182 12.7057 87.4671 13.6738C87.949 15.3084 88.039 15.4335 88.7236 15.4335C89.5382 15.4335 89.6295 15.2578 90.953 11.146C92.1053 7.56591 92.0905 6.82521 90.8758 7.20976C90.5187 7.32294 90.2073 8.06646 89.6681 10.0942C89.2686 11.597 88.8658 12.8264 88.7725 12.8264C88.6792 12.8264 88.2546 11.5962 87.828 10.0927C86.7008 6.11767 86.1018 6.13122 84.9623 10.1574C84.5673 11.5537 84.2147 12.7294 84.178 12.7704C84.1413 12.8114 83.7778 11.6382 83.3693 10.1633C82.5328 7.14329 82.1989 6.69331 81.2415 7.3ZM96.5885 7.61776C96.4328 7.90745 96.3768 8.25937 96.4637 8.39992C96.5512 8.54015 97.8541 8.65513 99.3596 8.65513C101.563 8.65513 102.127 8.57796 102.249 8.26065C102.587 7.38286 101.854 7.09087 99.3133 7.09087C97.1303 7.09087 96.8414 7.14669 96.5885 7.61776ZM106.55 7.45221C106.346 7.69729 106.273 9.01936 106.322 11.5584L106.395 15.3031L107.114 15.3856C107.822 15.4669 107.833 15.4463 107.833 14.0168C107.833 12.5941 107.847 12.5658 108.58 12.5658C109.196 12.5658 109.495 12.8181 110.282 13.9997C111.085 15.2057 111.361 15.4335 112.018 15.4335C113.025 15.4335 113.003 15.1253 111.885 13.5744C111.382 12.8762 111.071 12.305 111.194 12.305C111.316 12.305 111.728 12.0172 112.108 11.6658C112.653 11.1621 112.8 10.7844 112.8 9.88619C112.8 8.63296 112.222 7.87354 110.887 7.36909C109.799 6.95794 106.916 7.01319 106.55 7.45221ZM27.4613 8.77607C29.2088 9.50427 29.6107 12.0282 28.2024 13.4323C27.2673 14.3648 26.2181 14.5377 25.0291 13.9553C23.0627 12.9923 22.9158 10.0366 24.7779 8.90438C25.7795 8.29533 26.2531 8.2727 27.4613 8.77607ZM73.9615 8.69525C74.9182 9.13011 75.4593 10.1039 75.4593 11.3926C75.4593 12.7951 74.8475 13.7577 73.7209 14.1284C71.8762 14.7356 70.1867 13.435 70.1867 11.4077C70.1867 9.2331 72.1079 7.85291 73.9615 8.69525ZM5.86647 9.15933C6.21653 9.81165 6.21235 9.84632 5.72636 10.3312C5.46388 10.5927 4.84978 10.7408 4.02707 10.7408H2.73849V9.69795V8.65513H4.1672C5.31199 8.65513 5.6495 8.75524 5.86647 9.15933ZM110.918 8.96796C111.416 9.46569 111.282 10.4149 110.65 10.8563C110.33 11.0794 109.566 11.2622 108.951 11.2622H107.833V9.95867V8.65513H109.218C109.98 8.65513 110.745 8.79594 110.918 8.96796ZM95.404 11.2948C95.1344 12.1431 95.6595 12.2967 98.8468 12.3011C101.873 12.3053 102.603 12.055 102.249 11.1353C102.125 10.8122 101.507 10.7408 98.8391 10.7408C95.7463 10.7408 95.5713 10.769 95.404 11.2948ZM5.82334 12.3571C6.27143 12.804 6.21078 13.7853 5.72348 13.9717C5.49603 14.0588 4.73136 14.13 4.02419 14.13H2.73849V13.0871V12.0443H4.12406C4.88612 12.0443 5.6508 12.1851 5.82334 12.3571ZM94.3997 14.5357C94.0651 15.4054 94.2536 15.4468 98.2253 15.3751C102.014 15.3068 102.212 15.2774 102.212 14.7818C102.212 14.2874 102.014 14.2567 98.3862 14.1884C95.0701 14.126 94.5393 14.1722 94.3997 14.5357Z" fill="white"/>
</g>
<defs>
<clipPath id="clip0_3066_8803">
<rect width="112.595" height="15.3818" fill="white" transform="translate(0.759766 0.3125)"/>
</clipPath>
</defs>
</svg>
