<svg width="743" height="226" viewBox="0 0 743 226" fill="none" xmlns="http://www.w3.org/2000/svg">
    <line x1="220" y1="113.5" x2="663" y2="113.5" stroke="#D4D5D8"/>
    <path d="M83.4324 49.7402C85.1847 49.7788 86.6401 48.3763 86.6785 46.6028C86.7169 44.8293 85.3235 43.364 83.5712 43.3254C81.8188 43.2868 80.3634 44.6893 80.325 46.4628C80.2867 48.2363 81.68 49.7016 83.4324 49.7402Z" stroke="#828282" stroke-width="0.5"/>
    <path d="M89.6304 55.4585C91.0323 55.4893 92.1966 54.3673 92.2273 52.9485C92.258 51.5297 91.1433 50.3575 89.7414 50.3266C88.3395 50.2957 87.1752 51.4178 87.1445 52.8366C87.1138 54.2554 88.2285 55.4276 89.6304 55.4585Z" stroke="#BDBDBD" stroke-width="0.4"/>
    <path d="M94.4582 59.7637C95.5097 59.7869 96.3829 58.9454 96.4059 57.8813C96.4289 56.8172 95.5929 55.938 94.5415 55.9149C93.4901 55.8917 92.6169 56.7332 92.5938 57.7973C92.5708 58.8614 93.4068 59.7406 94.4582 59.7637Z" stroke="#BDBDBD" stroke-width="0.3"/>
    <path d="M97.9145 62.6532C98.6155 62.6687 99.1976 62.1077 99.213 61.3983C99.2283 60.6889 98.671 60.1028 97.9701 60.0873C97.2691 60.0719 96.687 60.6329 96.6716 61.3423C96.6563 62.0517 97.2136 62.6378 97.9145 62.6532Z" stroke="#E0E0E0" stroke-width="0.2"/>
    <path d="M101.33 64.9358C101.657 64.943 101.929 64.6814 101.936 64.3504C101.943 64.0194 101.683 63.746 101.356 63.7388C101.029 63.7316 100.757 63.9933 100.75 64.3243C100.743 64.6552 101.003 64.9286 101.33 64.9358Z" stroke="#E0E0E0" stroke-width="0.1"/>
    <g clip-path="url(#clip0)">
        <path d="M244.279 54.7134H266.377V18.6711H244.279V54.7134Z" stroke="#D4D5D8" stroke-miterlimit="10"/>
        <path d="M245.693 53.2572H267.792V17.2149H245.693V53.2572Z" stroke="black" stroke-width="0.75" stroke-miterlimit="10"/>
        <path d="M264.204 21.8567H247.409" stroke="#D4D5D8" stroke-width="0.75" stroke-miterlimit="10"/>
        <path opacity="0.95" d="M264.204 23.4999H247.409" stroke="#D4D5D8" stroke-width="0.75" stroke-miterlimit="10"/>
        <path opacity="0.9" d="M264.204 25.1428H247.409" stroke="#D4D5D8" stroke-width="0.75" stroke-miterlimit="10"/>
        <path opacity="0.85" d="M264.204 26.7859H247.409" stroke="#D4D5D8" stroke-width="0.75" stroke-miterlimit="10"/>
        <path opacity="0.8" d="M264.204 28.4287H247.409" stroke="#D4D5D8" stroke-width="0.75" stroke-miterlimit="10"/>
        <path opacity="0.75" d="M264.204 30.0719H247.409" stroke="#D4D5D8" stroke-width="0.75" stroke-miterlimit="10"/>
        <path opacity="0.7" d="M264.204 31.7148H247.409" stroke="#D4D5D8" stroke-width="0.75" stroke-miterlimit="10"/>
        <path opacity="0.6" d="M264.204 33.3583H247.409" stroke="#D4D5D8" stroke-width="0.75" stroke-miterlimit="10"/>
        <path opacity="0.5" d="M264.187 35.4485H247.393" stroke="#D4D5D8" stroke-width="0.75" stroke-miterlimit="10"/>
        <path opacity="0.4" d="M264.187 37.0916H247.393" stroke="#D4D5D8" stroke-width="0.75" stroke-miterlimit="10"/>
        <path opacity="0.3" d="M264.187 38.7345H247.393" stroke="#D4D5D8" stroke-width="0.75" stroke-miterlimit="10"/>
        <path opacity="0.2" d="M264.187 40.3777H247.393" stroke="#D4D5D8" stroke-width="0.75" stroke-miterlimit="10"/>
        <path opacity="0.1" d="M264.187 42.0205H247.393" stroke="#D4D5D8" stroke-width="0.75" stroke-miterlimit="10"/>
        <path opacity="0.1" d="M264.187 43.6637H247.393" stroke="#D4D5D8" stroke-width="0.75" stroke-miterlimit="10"/>
        <path opacity="0.1" d="M264.187 45.3066H247.393" stroke="#D4D5D8" stroke-width="0.75" stroke-miterlimit="10"/>
        <path opacity="0.1" d="M264.187 46.9501H247.393" stroke="#D4D5D8" stroke-width="0.75" stroke-miterlimit="10"/>
    </g>
    <path d="M52.0835 21.0499L47.6172 21.0499L47.6172 23.2835L52.0835 23.2835L52.0835 21.0499Z" fill="black"/>
    <path d="M64.6695 17.7102L60.8414 15.6219C55.2799 12.5935 49.049 11.0046 42.7169 11L64.6695 17.7102ZM64.6695 17.7102C69.1505 17.7606 73.5452 18.9525 77.4382 21.1716L64.6695 17.7102ZM64.2123 32.0434L64.2123 32.0435C64.7339 34.5955 67.2255 36.2418 69.7776 35.7202C72.3301 35.1987 73.9763 32.707 73.4548 30.1545L73.4548 30.1544C72.9328 27.6024 70.4412 25.9562 67.8891 26.4777C67.8891 26.4777 67.8891 26.4777 67.8891 26.4777L67.9391 26.7227C65.8595 27.1475 64.3664 28.9773 64.3669 31.1001L64.2123 32.0434ZM64.2123 32.0434C64.149 31.7331 64.1169 31.4169 64.1169 31.1002L64.2123 32.0434ZM14.9833 21.2999L15.2333 21.2999L18.3334 21.2998L18.3334 23.0335L15.2333 23.0335L14.9833 23.0335L14.9833 23.2835L14.9833 27.861L14.9833 27.8618L15.2333 27.8618L14.9833 21.2999ZM14.9833 21.2999L14.9833 21.0499L14.9833 19.7844L14.9833 19.5676L15.1979 19.5369L22.0563 18.5578C22.0563 18.5578 22.0564 18.5578 22.0565 18.5578C22.176 18.5405 22.2902 18.4985 22.3927 18.4346L22.3929 18.4344C23.5436 17.7179 24.7337 17.0669 25.9576 16.4844L26.117 16.4085L26.2418 16.5334L29.1375 19.4291L29.1377 19.4293C29.2998 19.5917 29.5201 19.683 29.75 19.683L42.0331 19.683L42.2831 19.683L42.2831 19.933L42.2831 31.0988L42.2831 31.3488L42.0331 31.3488L33.0965 31.3488L32.8467 31.3488L32.8465 31.099C32.843 27.5378 29.9572 24.6521 26.396 24.6486C26.1706 24.6486 25.9559 24.6604 25.74 24.6819L25.7384 24.682C25.7071 24.685 25.6745 24.69 25.6348 24.6968C25.6289 24.6978 25.6227 24.6989 25.6162 24.7C25.5831 24.7057 25.5443 24.7123 25.5053 24.7175C25.4607 24.724 25.4185 24.7298 25.378 24.7353C25.2811 24.7485 25.1933 24.7604 25.1034 24.7789C25.069 24.786 25.0339 24.7952 24.9928 24.8065L24.9762 24.811C24.9411 24.8207 24.9008 24.8318 24.8599 24.8415M14.9833 21.2999L25.0532 24.534C25.0043 24.5441 24.9568 24.5571 24.9094 24.5702C24.8735 24.58 24.8376 24.5899 24.801 24.5985M22.9503 25.3623C23.0467 25.2996 23.1248 25.2505 23.2152 25.2028C23.2795 25.1686 23.355 25.1332 23.4302 25.098C23.4608 25.0836 23.4913 25.0693 23.521 25.0551C23.556 25.0384 23.5883 25.0224 23.6196 25.0069C23.6801 24.9768 23.7365 24.9488 23.7991 24.9225C23.868 24.8931 23.9545 24.8629 24.0393 24.8332C24.0715 24.8219 24.1034 24.8108 24.134 24.7998C24.1754 24.7848 24.2115 24.7711 24.2453 24.7582C24.3027 24.7363 24.3536 24.7169 24.4134 24.698M22.9503 25.3623L23.0872 25.5715C23.0871 25.5716 23.0871 25.5716 23.087 25.5716M22.9503 25.3623C22.9026 25.3935 22.8537 25.4222 22.8055 25.4504C22.7571 25.4788 22.7094 25.5067 22.6645 25.5363L23.087 25.5716M22.9503 25.3623L23.0867 25.5718C23.0868 25.5718 23.0869 25.5717 23.087 25.5716M23.087 25.5716C23.1817 25.51 23.252 25.4661 23.3319 25.4239L23.3328 25.4235C23.3911 25.3924 23.4573 25.3614 23.5296 25.3275C23.5615 25.3126 23.5946 25.297 23.6288 25.2807C23.672 25.2601 23.7076 25.2424 23.7398 25.2264C23.795 25.1989 23.8402 25.1764 23.8961 25.1529L23.897 25.1525C23.9578 25.1266 24.032 25.1007 24.1133 25.0722C24.1473 25.0603 24.1825 25.048 24.2185 25.0351L24.219 25.0349C24.2705 25.0163 24.3095 25.0013 24.3436 24.9883C24.3944 24.9688 24.4342 24.9536 24.4878 24.9367M24.4878 24.9367C24.4875 24.9368 24.4871 24.9369 24.4868 24.937L24.4134 24.698M24.4878 24.9367C24.4881 24.9366 24.4884 24.9365 24.4887 24.9364L24.4134 24.698M24.4878 24.9367C24.573 24.9106 24.6569 24.8905 24.7493 24.8683C24.7847 24.8598 24.8214 24.851 24.8599 24.8415M24.4134 24.698C24.507 24.6693 24.6023 24.6464 24.6978 24.6235C24.7322 24.6153 24.7666 24.607 24.801 24.5985M24.801 24.5985L24.8582 24.8419C24.8588 24.8417 24.8593 24.8416 24.8599 24.8415M24.801 24.5985L24.8612 24.8411C24.8608 24.8412 24.8603 24.8414 24.8599 24.8415M21.6745 16.8409L21.6303 16.8681L21.5789 16.8754L13.9939 17.9586C13.5671 18.02 13.25 18.3858 13.25 18.8166L13.25 27.8618L13.25 27.8627C13.2445 29.4969 14.2401 30.9683 15.7601 31.5701L15.7612 31.5706L19.3775 33.0216C19.48 33.0625 19.5894 33.0834 19.7002 33.0834L20.101 33.0834L20.2782 33.0834L20.3369 33.2507C20.9829 35.0937 22.4323 36.5431 24.2753 37.1891C27.6241 38.3629 31.2905 36.5995 32.4643 33.2507L32.523 33.0834L32.7003 33.0834L62.5344 33.0834L62.7117 33.0834L62.7703 33.2507C63.4163 35.0937 64.8652 36.5431 66.7087 37.189L66.7087 37.1891C70.0575 38.3629 73.7239 36.5995 74.8977 33.2507L74.9564 33.0834L75.1337 33.0834L78.8832 33.0834C79.3621 33.0834 79.75 32.6955 79.75 32.2165L79.75 25.586C79.7473 23.8522 78.8184 22.2514 77.314 21.3886C73.4579 19.1906 69.105 18.0101 64.6667 17.9602L64.6044 17.9595L64.5497 17.9297L60.7218 15.8415C55.1969 12.833 49.0071 11.2545 42.7167 11.25L41.3992 11.25L41.3989 11.25C36.0689 11.2442 30.7998 12.3789 25.9451 14.5779L25.9447 14.578C24.4745 15.2411 23.0485 15.9968 21.6745 16.8409ZM44.2668 31.3501L44.0168 31.3501L44.0168 31.1001L44.0168 19.9335L44.0168 19.6835L44.2668 19.6835L64.3669 19.6834L64.3669 19.6834C68.6061 19.6848 72.7717 20.7912 76.4535 22.8933L76.4537 22.8934C77.4194 23.4459 78.0153 24.4733 78.0168 25.5855L78.0168 25.5858L78.0168 31.1001L78.0168 31.3501L77.7668 31.3501L75.5335 31.3501L75.2835 31.3501L75.2835 31.1001C75.2835 27.5378 72.3957 24.6499 68.8333 24.6499C65.271 24.6499 62.3836 27.5377 62.3836 31.1001L62.3836 31.3501L62.1336 31.3501L44.2668 31.3501ZM44.2668 17.9502L44.0168 17.9502L44.0168 17.7002L44.0168 13.2823L44.0168 13.0213L44.2776 13.0326C49.7435 13.2691 55.0836 14.7502 59.8912 17.3629L59.8917 17.3631L60.107 17.4808L59.9872 17.9502L44.2668 17.9502ZM42.0335 12.9833L42.2835 12.9833L41.4015 13.2333L41.4015 12.9833L41.4017 12.9833C41.4017 12.9833 41.4017 12.9833 41.4018 12.9833L42.0335 12.9833ZM21.7789 32.0435L21.7789 32.0434C21.7156 31.7331 21.6834 31.4169 21.6834 31.1002C21.683 28.8586 23.2596 26.9264 25.4557 26.4778C28.0077 25.9562 30.4998 27.6024 31.0214 30.1545C31.5429 32.707 29.8967 35.1987 27.3446 35.7202L27.2946 35.4753L27.3446 35.7202C24.7921 36.2418 22.3005 34.5956 21.7789 32.0435ZM16.4055 29.96C16.4054 29.9599 16.4052 29.9599 16.4051 29.9598L19.8079 29.9301C19.8026 29.9655 19.7973 30.0012 19.7915 30.0369L20.0384 30.0762C20.0384 30.0765 20.0383 30.0767 20.0383 30.077C20.0321 30.1156 20.026 30.1512 20.0203 30.1851C20.0074 30.26 19.9961 30.3263 19.9889 30.3967C19.9826 30.4623 19.9798 30.5225 19.9769 30.5865C19.9749 30.6294 19.9729 30.674 19.9696 30.7232C19.9666 30.7687 19.9632 30.8074 19.9601 30.8427C19.9547 30.9039 19.9502 30.955 19.9502 31.0138L19.9502 31.3836L19.607 31.2458L16.4055 29.96Z" stroke="black" stroke-width="0.5"/>
    <g clip-path="url(#clip1)">
        <path d="M87.2925 112.109C87.483 106.617 89.9314 102.229 93.4295 101.164C96.0456 100.367 99.8978 101.231 100.443 102.939C100.745 103.882 99.9534 104.779 100.443 105.305C100.982 105.884 102.741 105.665 103.366 104.716C104.418 103.113 101.312 100.817 102.197 98.2082C102.726 96.6484 103.944 97.0083 105.703 94.6585C107.223 92.6262 106.588 91.9918 108.041 89.9259C109.481 87.8783 110.054 88.5787 112.717 85.7847C114.724 83.6793 115.302 82.3345 116.808 82.2349C117.68 82.176 118.196 82.5801 119.146 82.2349C119.861 81.9751 120.854 81.2806 120.9 80.46C120.992 78.8153 117.18 77.8168 117.393 76.9103C117.638 75.8682 121.776 77.1936 123.822 75.1354C126.268 72.6778 124.825 66.3123 122.653 65.6696C121.534 65.338 120.761 66.6869 119.146 66.2587C117.675 65.8705 117.377 64.5026 116.224 64.4838C115.2 64.4673 114.425 65.5288 113.886 66.2587C108.598 73.4201 107.398 73.8335 106.872 73.9496C105.106 74.339 102.696 73.1838 102.197 71.5833C100.839 67.2342 113.326 58.8128 115.055 60.3426C115.455 60.696 115.047 61.3806 115.64 62.1175C116.594 63.3062 119.263 63.526 120.9 62.1175C122.344 60.8769 122.485 58.8187 122.069 57.3843C121.781 56.4681 121.246 55.6508 120.523 55.0239C119.801 54.3971 118.919 53.9854 117.977 53.8351" stroke="#D4D5D8" stroke-miterlimit="10"/>
        <path d="M106.288 125.422C106.799 126.251 106.431 127.356 106.288 127.789C105.735 129.45 104.561 129.919 103.95 130.747C102.189 133.132 104.445 139.376 108.626 143.17C112.483 146.674 115.151 145.518 117.977 148.495C120.13 150.763 119.548 152.969 120.9 160.327C121.83 165.393 120.976 168.624 123.237 170.385C123.544 170.624 123.366 170.42 126.452 171.864C129.969 173.509 130.845 174.074 131.712 173.639C132.285 173.352 132.581 172.56 133.173 170.976C133.977 168.829 133.689 168.476 134.342 166.835C134.605 166.176 134.781 165.893 136.68 162.694C137.843 160.737 138.424 159.759 138.434 159.736C139.9 156.294 137.801 154.522 139.018 152.045C140.286 149.465 142.934 150.64 144.279 147.904C145.035 146.368 144.975 144.428 144.863 140.804C144.786 140.017 144.786 139.225 144.863 138.438C145.214 135.923 146.456 135.45 146.616 133.705C146.792 131.809 145.553 129.927 144.279 128.972C143.42 128.328 142.792 128.289 139.018 127.789C133.425 127.046 133.049 126.897 132.589 126.605C130.12 125.038 130.818 122.885 128.498 121.873C126.493 120.997 125.365 122.34 123.237 121.283C121.586 120.459 121.898 119.471 120.315 118.325C117.131 116.021 112.346 117.475 111.548 117.736C109.733 118.379 107.974 119.17 106.288 120.102C104.583 121.032 104.103 121.466 103.365 121.286C101.631 120.861 102.1 117.928 99.8584 116.553C98.0728 115.459 96.2487 116.386 95.7671 115.369C95.3387 114.464 96.6964 113.543 96.3516 111.82C96.3311 111.718 96.0184 110.235 95.1826 110.045C93.9967 109.776 93.3877 112.481 91.0913 113.003C89.6097 113.34 88.8931 112.434 88.1689 113.003C87.142 113.809 87.3542 116.596 88.7534 117.736C89.2648 118.153 89.6722 118.135 91.6758 118.325C96.5234 118.789 97.1394 119.175 97.5205 119.509C98.6532 120.499 97.9928 121.271 99.2739 122.466C100.197 123.329 101.316 123.651 103.365 124.241C105.153 124.753 105.863 124.733 106.288 125.422Z" stroke="#D4D5D8" stroke-miterlimit="10"/>
        <path d="M199.22 142.578C199.726 144.316 199.726 146.164 199.22 147.902C198.582 149.972 197.399 151.206 195.128 153.227C192.122 155.903 190.714 157.351 188.699 157.368C185.418 157.401 183.066 154.122 182.854 153.818C180.692 150.719 182.355 148.629 179.932 143.761C178.894 141.675 178.348 141.575 178.178 140.211C177.811 137.257 180.186 136.212 179.932 133.112C179.827 131.834 179.436 132.157 178.178 128.379C177.685 127.03 177.294 125.646 177.01 124.238C176.343 120.602 177.263 119.872 176.425 118.322C174.954 115.598 170.777 115.371 170.58 115.363C167.88 115.252 167.163 116.64 164.151 117.138C163.839 117.19 159.725 117.821 156.553 115.955C151.462 112.96 149.703 104.068 152.462 98.7985C154.051 95.7612 156.187 95.7482 157.722 91.699C158.832 88.7754 158.397 86.9863 160.06 85.7828C161.139 85.0011 161.638 85.5266 165.32 84.5994C167.201 84.1282 167.285 83.9349 169.411 83.416C171.854 82.8198 173.094 82.5282 174.087 82.8269C175.309 83.1921 175.304 83.8101 177.594 85.7852C179.722 87.6202 180.786 88.538 182.27 88.7429C184.211 89.0116 184.432 87.7634 186.946 87.5601C189.544 87.3498 190.026 88.6204 193.375 88.7429C195.148 88.8066 197.174 88.8797 198.051 87.5601C198.421 86.9018 198.565 86.1381 198.459 85.3887C198.354 84.6393 198.004 83.9464 197.466 83.4183C196.087 82.2614 194.544 83.9055 192.206 82.8293C190.368 81.9816 190.07 80.3875 188.699 80.4629C187.478 80.5301 187.1 81.829 186.361 81.6458C185.021 81.3142 185.69 76.9061 184.023 76.3218C183.706 76.2413 183.372 76.254 183.061 76.3584C182.751 76.4628 182.476 76.6544 182.27 76.9109C181.315 78.1326 183.044 80.2756 182.27 81.052C181.744 81.5822 180.269 81.2646 179.347 80.4629C177.785 79.0992 178.816 77.2083 177.594 75.7298C176.016 73.8206 171.628 73.7446 169.411 75.7298C167.541 77.4069 168.522 79.382 166.489 81.0544C165.01 82.2696 162.364 82.9683 160.644 81.6434C159.003 80.3816 158.624 77.6036 159.475 76.9109C160.45 76.1186 162.524 78.4719 164.736 77.4999C165.504 77.1281 166.123 76.5016 166.489 75.725C167.478 73.6633 165.764 72.2195 166.489 70.4004C166.853 69.4897 168.295 68.7952 171.165 67.4427C174.134 66.0436 175.225 65.8728 176.425 64.4843C176.63 64.2487 178.105 62.5404 177.594 61.5266C177.203 60.7508 176.035 61.1402 174.672 60.3432C174.04 59.9698 173.501 59.4559 173.095 58.8407C172.69 58.2256 172.43 57.5254 172.334 56.7934C172.184 53.94 176.885 50.948 181.101 50.8773C183.439 50.8384 185.095 51.7386 188.407 53.5394C191.588 55.3296 194.534 57.5161 197.174 60.0474C199.019 61.7276 200.775 63.505 202.434 65.3721C204.768 67.9773 206.916 70.7449 208.863 73.6544C212.021 78.4432 214.574 83.6104 216.462 89.0363C219.063 96.127 219.01 98.9917 217.923 101.165C217.388 102.324 216.586 103.338 215.585 104.122C213.592 105.633 212.342 104.974 209.74 106.489C207.882 107.571 206.603 109.091 206.818 109.447C207.121 109.948 210.11 107.675 212.663 108.858C213.453 109.198 214.082 109.834 214.416 110.633C214.779 111.711 214.227 112.695 212.078 115.958C209.288 120.195 207.87 122.328 206.818 123.057C205.33 124.084 204.319 124.243 203.895 125.423C203.552 126.378 203.954 126.998 204.48 129.565C204.895 131.593 205.103 132.607 205.064 133.706C205 135.614 204.391 137.462 203.311 139.03C202.648 139.928 201.861 140.725 200.973 141.397C200.419 141.835 199.833 142.23 199.22 142.578V142.578Z" stroke="#D4D5D8" stroke-miterlimit="10"/>
        <path d="M153.63 177.779C190.268 177.779 219.968 147.716 219.968 110.631C219.968 73.5456 190.268 43.4822 153.63 43.4822C116.993 43.4822 87.2925 73.5456 87.2925 110.631C87.2925 147.716 116.993 177.779 153.63 177.779Z" stroke="black" stroke-width="0.75" stroke-miterlimit="10"/>
    </g>
    <path d="M410 115C410 127.703 420.521 138 433.5 138C446.479 138 457 127.703 457 115C457 102.297 446.479 92 433.5 92C420.521 92 410 102.297 410 115Z" fill="black"/>
    <path d="M429.126 110.282V116.603L423.71 110.282H422.044V119.863H424.029V113.714L429.453 119.863H431.119V116.141H435.865V114.384H431.119V112.039H439.904V119.863H441.897V112.039H445.153V110.282H429.126Z" fill="white"/>
    <g clip-path="url(#clip2)">
        <path d="M742.922 111.43C742.769 108.711 742.359 106.012 741.699 103.372C739.05 93.2374 732.677 84.514 723.888 78.9902C715.084 73.6158 704.616 71.7733 694.54 73.8245C690.773 74.605 687.136 75.927 683.738 77.7504C673.694 83.1684 668.52 91.6743 668.657 91.801C668.774 91.9091 672.49 85.6378 680.477 81.2401C687.644 77.2936 694.514 76.9138 697.393 76.901C701.924 76.8701 706.419 77.7115 710.64 79.3805C722.998 84.3895 728.355 95.1996 729.186 96.9437C731.078 100.911 734.133 109.217 732.04 119.053C731.135 123.285 729.403 127.29 726.945 130.83C722.203 137.628 716.214 140.555 714.92 141.162C712.101 142.482 704.394 145.542 695.151 143.021C694.239 142.773 680.362 138.744 675.994 125.665C674.662 121.675 674.381 117.401 675.179 113.267C677.063 104.112 684.02 99.2949 685.98 97.9769C687.69 96.8278 694.907 91.976 704.119 93.8443C706.296 94.2859 712.137 95.5657 716.347 101.076C717.289 102.309 720.79 107.21 720.219 114.094C720.144 114.999 719.234 124.103 711.252 128.558C710.24 129.122 702.969 133.021 695.967 129.177C690.604 126.234 686.48 119.34 688.426 113.061C689.506 109.572 692.493 106.263 696.578 105.209C697.006 105.099 701.888 103.94 705.953 107.068C706.681 107.629 709.019 109.428 709.621 112.647C709.758 113.379 710.116 115.457 709.01 117.606C708.405 118.778 707.498 119.762 706.385 120.453C705.273 121.144 703.997 121.517 702.692 121.532C701.461 121.531 700.251 121.207 699.179 120.591C698.108 119.976 697.212 119.09 696.578 118.02C695.001 115.332 695.809 112.567 695.967 112.027C696.473 110.294 697.445 109.379 697.393 109.341C697.29 109.266 693.327 112.686 693.317 116.78C693.31 119.908 695.102 122.039 695.559 122.565C698.907 126.425 704.234 125.763 704.934 125.665C711.25 124.782 714.123 118.451 714.309 118.02C716.41 113.14 715.123 107.871 712.678 104.589C710.961 102.283 708.783 101.105 707.583 100.456C705.383 99.2385 702.943 98.5325 700.44 98.3895C697.937 98.2466 695.435 98.6703 693.113 99.6299C690.141 100.758 687.483 102.602 685.369 105.002C684.545 105.971 680.481 110.955 680.885 118.226C681.293 125.548 685.936 130.087 687.407 131.45C693.319 136.933 702.407 138.942 710.437 135.996C718.189 133.151 721.817 126.725 723.072 124.425C728.101 115.213 725.933 106.198 725.518 104.589C722.875 94.3452 715.177 89.3192 713.086 88.0588C704.448 82.8555 695.834 84.3226 692.094 84.9594C683.44 86.4331 677.765 90.8677 675.586 92.6046C673.575 94.2078 669.792 97.2803 666.823 102.729C665.106 105.879 663.934 109.303 663.358 112.854C663.104 114.426 661.95 122.338 665.804 131.267C668.002 136.36 670.885 139.569 672.529 141.391C680.823 150.583 691.007 153.351 692.706 153.789C695.328 154.465 707.533 157.322 720.423 150.896C726.01 148.045 730.888 143.948 734.689 138.912C738.008 134.553 740.434 129.565 741.822 124.241C742.821 120.051 743.191 115.733 742.922 111.43Z" fill="#2762FF"/>
    </g>
    <path d="M86.7402 176.568C86.7788 174.816 85.3763 173.36 83.6028 173.322C81.8293 173.283 80.364 174.677 80.3254 176.429C80.2868 178.181 81.6893 179.637 83.4628 179.675C85.2363 179.714 86.7016 178.32 86.7402 176.568Z" stroke="#828282" stroke-width="0.5"/>
    <path d="M92.4586 170.369C92.4895 168.967 91.3674 167.803 89.9486 167.772C88.5298 167.742 87.3576 168.856 87.3267 170.258C87.2959 171.66 88.4179 172.825 89.8367 172.855C91.2555 172.886 92.4277 171.771 92.4586 170.369Z" stroke="#BDBDBD" stroke-width="0.4"/>
    <path d="M96.7639 165.542C96.787 164.491 95.9455 163.617 94.8814 163.594C93.8173 163.571 92.9381 164.407 92.915 165.459C92.8918 166.51 93.7333 167.383 94.7974 167.406C95.8615 167.429 96.7407 166.593 96.7639 165.542Z" stroke="#BDBDBD" stroke-width="0.3"/>
    <path d="M99.6531 162.085C99.6686 161.385 99.1076 160.802 98.3981 160.787C97.6887 160.772 97.1026 161.329 97.0872 162.03C97.0718 162.731 97.6328 163.313 98.3422 163.328C99.0516 163.344 99.6377 162.786 99.6531 162.085Z" stroke="#E0E0E0" stroke-width="0.2"/>
    <path d="M101.936 158.67C101.943 158.343 101.681 158.071 101.351 158.064C101.02 158.057 100.746 158.317 100.739 158.644C100.732 158.971 100.993 159.242 101.324 159.25C101.655 159.257 101.929 158.997 101.936 158.67Z" stroke="#E0E0E0" stroke-width="0.1"/>
    <path d="M222.568 173.26C220.815 173.221 219.36 174.624 219.322 176.397C219.283 178.171 220.676 179.636 222.429 179.675C224.181 179.713 225.637 178.311 225.675 176.537C225.713 174.764 224.32 173.298 222.568 173.26Z" stroke="#828282" stroke-width="0.5"/>
    <path d="M216.37 167.542C214.968 167.511 213.803 168.633 213.773 170.051C213.742 171.47 214.857 172.643 216.259 172.673C217.66 172.704 218.825 171.582 218.855 170.163C218.886 168.745 217.772 167.572 216.37 167.542Z" stroke="#BDBDBD" stroke-width="0.4"/>
    <path d="M211.542 163.236C210.49 163.213 209.617 164.055 209.594 165.119C209.571 166.183 210.407 167.062 211.458 167.085C212.51 167.108 213.383 166.267 213.406 165.203C213.429 164.139 212.593 163.259 211.542 163.236Z" stroke="#BDBDBD" stroke-width="0.3"/>
    <path d="M208.085 160.347C207.385 160.331 206.802 160.892 206.787 161.602C206.772 162.311 207.329 162.897 208.03 162.913C208.731 162.928 209.313 162.367 209.328 161.658C209.344 160.948 208.786 160.362 208.085 160.347Z" stroke="#E0E0E0" stroke-width="0.2"/>
    <path d="M204.67 158.064C204.343 158.057 204.071 158.319 204.064 158.65C204.057 158.981 204.317 159.254 204.644 159.261C204.971 159.268 205.243 159.007 205.25 158.676C205.257 158.345 204.997 158.071 204.67 158.064Z" stroke="#E0E0E0" stroke-width="0.1"/>
    <path d="M219.26 46.4321C219.221 48.1845 220.624 49.6399 222.397 49.6782C224.171 49.7166 225.636 48.3233 225.675 46.5709C225.713 44.8186 224.311 43.3632 222.537 43.3248C220.764 43.2864 219.298 44.6798 219.26 46.4321Z" stroke="#828282" stroke-width="0.5"/>
    <path d="M213.541 52.6306C213.511 54.0325 214.633 55.1968 216.051 55.2275C217.47 55.2582 218.642 54.1435 218.673 52.7416C218.704 51.3398 217.582 50.1754 216.163 50.1447C214.745 50.114 213.572 51.2287 213.541 52.6306Z" stroke="#BDBDBD" stroke-width="0.4"/>
    <path d="M209.236 57.4581C209.213 58.5095 210.054 59.3828 211.119 59.4058C212.183 59.4288 213.062 58.5928 213.085 57.5414C213.108 56.49 212.267 55.6168 211.203 55.5937C210.138 55.5707 209.259 56.4067 209.236 57.4581Z" stroke="#BDBDBD" stroke-width="0.3"/>
    <path d="M206.347 60.9145C206.331 61.6155 206.892 62.1976 207.602 62.213C208.311 62.2283 208.897 61.671 208.913 60.9701C208.928 60.2691 208.367 59.687 207.658 59.6716C206.948 59.6563 206.362 60.2136 206.347 60.9145Z" stroke="#E0E0E0" stroke-width="0.2"/>
    <path d="M204.064 64.3304C204.057 64.6573 204.319 64.9289 204.649 64.9361C204.98 64.9432 205.254 64.6832 205.261 64.3563C205.268 64.0293 205.007 63.7577 204.676 63.7506C204.345 63.7434 204.071 64.0034 204.064 64.3304Z" stroke="#E0E0E0" stroke-width="0.1"/>
    <g clip-path="url(#clip3)">
        <path d="M226.279 37.7134H248.377V1.67111H226.279V37.7134Z" stroke="#D4D5D8" stroke-miterlimit="10"/>
        <path d="M227.693 36.2572H249.792V0.214935H227.693V36.2572Z" stroke="black" stroke-width="0.75" stroke-miterlimit="10"/>
        <path d="M246.204 4.85669H229.409" stroke="#D4D5D8" stroke-width="0.75" stroke-miterlimit="10"/>
        <path opacity="0.95" d="M246.204 6.49988H229.409" stroke="#D4D5D8" stroke-width="0.75" stroke-miterlimit="10"/>
        <path opacity="0.9" d="M246.204 8.14282H229.409" stroke="#D4D5D8" stroke-width="0.75" stroke-miterlimit="10"/>
        <path opacity="0.85" d="M246.204 9.78589H229.409" stroke="#D4D5D8" stroke-width="0.75" stroke-miterlimit="10"/>
        <path opacity="0.8" d="M246.204 11.4287H229.409" stroke="#D4D5D8" stroke-width="0.75" stroke-miterlimit="10"/>
        <path opacity="0.75" d="M246.204 13.0719H229.409" stroke="#D4D5D8" stroke-width="0.75" stroke-miterlimit="10"/>
        <path opacity="0.7" d="M246.204 14.7148H229.409" stroke="#D4D5D8" stroke-width="0.75" stroke-miterlimit="10"/>
        <path opacity="0.6" d="M246.204 16.3583H229.409" stroke="#D4D5D8" stroke-width="0.75" stroke-miterlimit="10"/>
        <path opacity="0.5" d="M246.187 18.4485H229.393" stroke="#D4D5D8" stroke-width="0.75" stroke-miterlimit="10"/>
        <path opacity="0.4" d="M246.187 20.0916H229.393" stroke="#D4D5D8" stroke-width="0.75" stroke-miterlimit="10"/>
        <path opacity="0.3" d="M246.187 21.7345H229.393" stroke="#D4D5D8" stroke-width="0.75" stroke-miterlimit="10"/>
        <path opacity="0.2" d="M246.187 23.3777H229.393" stroke="#D4D5D8" stroke-width="0.75" stroke-miterlimit="10"/>
        <path opacity="0.1" d="M246.187 25.0205H229.393" stroke="#D4D5D8" stroke-width="0.75" stroke-miterlimit="10"/>
        <path opacity="0.1" d="M246.187 26.6637H229.393" stroke="#D4D5D8" stroke-width="0.75" stroke-miterlimit="10"/>
        <path opacity="0.1" d="M246.187 28.3066H229.393" stroke="#D4D5D8" stroke-width="0.75" stroke-miterlimit="10"/>
        <path opacity="0.1" d="M246.187 29.9501H229.393" stroke="#D4D5D8" stroke-width="0.75" stroke-miterlimit="10"/>
    </g>
    <g clip-path="url(#clip4)">
        <path d="M238.775 223.217H226V224.999H238.775V223.217Z" fill="black"/>
        <path d="M238.775 219.653H226V221.435H238.775V219.653Z" fill="#4F4F4F"/>
        <path d="M238.775 216.088H226V217.869H238.775V216.088Z" fill="#4F4F4F"/>
        <path d="M238.775 212.522H226V214.304H238.775V212.522Z" fill="#828282"/>
        <path d="M238.775 208.957H226V210.739H238.775V208.957Z" fill="#828282"/>
        <path d="M238.775 205.392H226V207.174H238.775V205.392Z" fill="#828282"/>
        <path d="M238.775 201.826H226V203.608H238.775V201.826Z" fill="#BDBDBD"/>
        <path d="M238.775 198.261H226V200.043H238.775V198.261Z" fill="#BDBDBD"/>
        <path d="M238.775 194.696H226V196.478H238.775V194.696Z" fill="#BDBDBD"/>
        <path d="M238.775 191.131H226V192.913H238.775V191.131Z" fill="#F2F2F2"/>
        <path d="M238.775 187.565H226V189.347H238.775V187.565Z" fill="#F2F2F2"/>
        <path d="M238.775 184H226V185.782H238.775V184Z" fill="#F2F2F2"/>
        <path d="M247.447 224.092H240.939V225H247.447V224.092Z" fill="black"/>
        <path d="M247.447 222.276H240.939V223.184H247.447V222.276Z" fill="#4F4F4F"/>
        <path d="M247.447 220.459H240.939V221.367H247.447V220.459Z" fill="#4F4F4F"/>
        <path d="M247.447 218.642H240.939V219.551H247.447V218.642Z" fill="#828282"/>
        <path d="M247.447 216.826H240.939V217.735H247.447V216.826Z" fill="#828282"/>
        <path d="M247.447 215.009H240.939V215.918H247.447V215.009Z" fill="#828282"/>
        <path d="M247.447 213.194H240.939V214.102H247.447V213.194Z" fill="#E0E0E0"/>
        <path d="M247.447 211.377H240.939V212.285H247.447V211.377Z" fill="#E0E0E0"/>
        <path d="M247.447 209.561H240.939V210.47H247.447V209.561Z" fill="#E0E0E0"/>
        <path d="M247.447 207.744H240.939V208.653H247.447V207.744Z" fill="#F2F2F2"/>
        <path d="M247.447 205.927H240.939V206.836H247.447V205.927Z" fill="#F2F2F2"/>
        <path d="M247.447 204.112H240.939V205.02H247.447V204.112Z" fill="#F2F2F2"/>
        <path d="M262.387 223.62H249.613V225H262.387V223.62Z" fill="black"/>
        <path d="M262.387 220.86H249.613V222.24H262.387V220.86Z" fill="#4F4F4F"/>
        <path d="M262.387 218.099H249.613V219.479H262.387V218.099Z" fill="#4F4F4F"/>
        <path d="M262.387 215.338H249.613V216.718H262.387V215.338Z" fill="#4F4F4F"/>
        <path d="M262.387 212.578H249.613V213.958H262.387V212.578Z" fill="#828282"/>
        <path d="M262.387 209.817H249.613V211.197H262.387V209.817Z" fill="#828282"/>
        <path d="M262.387 207.057H249.613V208.436H262.387V207.057Z" fill="#E0E0E0"/>
        <path d="M262.387 204.296H249.613V205.676H262.387V204.296Z" fill="#E0E0E0"/>
        <path d="M262.387 201.535H249.613V202.915H262.387V201.535Z" fill="#E0E0E0"/>
        <path d="M262.387 198.775H249.613V200.154H262.387V198.775Z" fill="#F2F2F2"/>
        <path d="M262.387 196.014H249.613V197.394H262.387V196.014Z" fill="#F2F2F2"/>
        <path d="M262.387 193.253H249.613V194.633H262.387V193.253Z" fill="#F2F2F2"/>
        <path d="M271.06 224.092H264.552V225H271.06V224.092Z" fill="black"/>
        <path d="M271.06 222.276H264.552V223.184H271.06V222.276Z" fill="#4F4F4F"/>
        <path d="M271.06 220.459H264.552V221.367H271.06V220.459Z" fill="#4F4F4F"/>
        <path d="M271.06 218.642H264.552V219.551H271.06V218.642Z" fill="#828282"/>
        <path d="M271.06 216.826H264.552V217.735H271.06V216.826Z" fill="#828282"/>
        <path d="M271.06 215.009H264.552V215.918H271.06V215.009Z" fill="#828282"/>
        <path d="M271.06 213.194H264.552V214.102H271.06V213.194Z" fill="#E0E0E0"/>
        <path d="M271.06 211.377H264.552V212.285H271.06V211.377Z" fill="#E0E0E0"/>
        <path d="M271.06 209.561H264.552V210.47H271.06V209.561Z" fill="#E0E0E0"/>
        <path d="M271.06 207.744H264.552V208.653H271.06V207.744Z" fill="#F2F2F2"/>
        <path d="M271.06 205.927H264.552V206.836H271.06V205.927Z" fill="#F2F2F2"/>
        <path d="M271.06 204.112H264.552V205.02H271.06V204.112Z" fill="#F2F2F2"/>
        <path d="M285.999 223.217H273.224V224.999H285.999V223.217Z" fill="black"/>
        <path d="M285.999 219.653H273.224V221.435H285.999V219.653Z" fill="#4F4F4F"/>
        <path d="M285.999 216.088H273.224V217.869H285.999V216.088Z" fill="#4F4F4F"/>
        <path d="M285.999 212.522H273.224V214.304H285.999V212.522Z" fill="#828282"/>
        <path d="M285.999 208.957H273.224V210.739H285.999V208.957Z" fill="#828282"/>
        <path d="M285.999 205.392H273.224V207.174H285.999V205.392Z" fill="#828282"/>
        <path d="M285.999 201.826H273.224V203.608H285.999V201.826Z" fill="#E0E0E0"/>
        <path d="M285.999 198.261H273.224V200.043H285.999V198.261Z" fill="#E0E0E0"/>
        <path d="M285.999 194.696H273.224V196.478H285.999V194.696Z" fill="#E0E0E0"/>
        <path d="M285.999 191.131H273.224V192.913H285.999V191.131Z" fill="#F2F2F2"/>
        <path d="M285.999 187.565H273.224V189.347H285.999V187.565Z" fill="#F2F2F2"/>
        <path d="M285.999 184H273.224V185.782H285.999V184Z" fill="#F2F2F2"/>
    </g>
    <g clip-path="url(#clip5)">
        <path d="M293.383 205.456V189.645L283.23 192.253V206.069" stroke="black" stroke-miterlimit="10"/>
        <path d="M291.48 207.337C292.765 207.337 293.807 206.447 293.807 205.349C293.807 204.251 292.765 203.361 291.48 203.361C290.195 203.361 289.153 204.251 289.153 205.349C289.153 206.447 290.195 207.337 291.48 207.337Z" fill="#010101"/>
        <path d="M281.327 207.76C282.612 207.76 283.654 206.87 283.654 205.772C283.654 204.674 282.612 203.784 281.327 203.784C280.042 203.784 279 204.674 279 205.772C279 206.87 280.042 207.76 281.327 207.76Z" fill="#010101"/>
        <path d="M293.384 192.193L283.184 194.604V192.235L293.384 189.654V192.193Z" fill="black"/>
    </g>
    <path d="M53.3315 207.094V220.025L56.1795 224.999H79.8324" stroke="black" stroke-width="0.2" stroke-miterlimit="10"/>
    <path d="M53.4986 207.094H22.9723L1 202.324L56.35 202.408L53.4986 207.094Z" fill="#080808"/>
    <path d="M20.2887 202.576H12.5732V225H20.2887V202.576Z" stroke="black" stroke-width="0.2" stroke-miterlimit="10"/>
    <path d="M79.6845 201.321H1.0835V202.439H79.6845V201.321Z" stroke="black" stroke-width="0.2" stroke-miterlimit="10"/>
    <path d="M20.2886 224.999L23.1366 220.025V207.094" stroke="black" stroke-width="0.2" stroke-miterlimit="10"/>
    <path d="M56.1816 202.408V225" stroke="black" stroke-width="0.2" stroke-miterlimit="10"/>
    <path d="M23.1396 219.98H53.3305" stroke="black" stroke-width="0.2" stroke-miterlimit="10"/>
    <path d="M20.2886 224.999H56.1822" stroke="black" stroke-width="0.2" stroke-miterlimit="10"/>
    <path d="M72.326 210.273H65.7847V225H72.326V210.273Z" stroke="black" stroke-width="0.5" stroke-miterlimit="10"/>
    <path d="M20.2892 190.024H12.5737V201.237H20.2892V190.024Z" stroke="black" stroke-width="0.2" stroke-miterlimit="10"/>
    <path d="M79.9995 184L20.2886 201.237H79.8317" stroke="black" stroke-width="0.2" stroke-miterlimit="10"/>
    <path d="M79.8325 184V225" stroke="black" stroke-width="0.2" stroke-miterlimit="10"/>
    <path d="M76.2673 193.204H61.8428V197.22H76.2673V193.204Z" stroke="black" stroke-width="0.5" stroke-miterlimit="10"/>
    <defs>
        <clipPath id="clip0">
            <rect width="24" height="38" fill="white" transform="translate(244 17)"/>
        </clipPath>
        <clipPath id="clip1">
            <rect width="144" height="153" fill="white" transform="translate(87 25)"/>
        </clipPath>
        <clipPath id="clip2">
            <rect width="80" height="82" fill="white" transform="translate(663 73)"/>
        </clipPath>
        <clipPath id="clip3">
            <rect width="24" height="38" fill="white" transform="translate(226)"/>
        </clipPath>
        <clipPath id="clip4">
            <rect width="60" height="41" fill="white" transform="translate(226 184)"/>
        </clipPath>
        <clipPath id="clip5">
            <rect width="14.883" height="18.761" fill="white" transform="translate(279 189)"/>
        </clipPath>
    </defs>
</svg>
