<svg width="602" height="445" viewBox="0 0 602 445" fill="none" xmlns="http://www.w3.org/2000/svg">
    <line x1="136.416" y1="317" x2="136.416" y2="136.471" stroke="#BDBDBD"/>
    <path d="M141 137.388L131 137.388L136 131L141 137.388Z" fill="black"/>
    <line x1="473.584" y1="131" x2="473.584" y2="311.529" stroke="#BDBDBD"/>
    <path d="M469 310.612L479 310.612L474 317L469 310.612Z" fill="black"/>
    <g clip-path="url(#clip0)">
        <path d="M291.614 262.061C291.319 257.905 290.037 248.494 282.932 240.224C280.743 237.681 278.2 235.464 275.381 233.639" stroke="#D4D5D8" stroke-width="0.75" stroke-miterlimit="10"/>
        <path d="M316.144 262.061C316.573 257.591 318.12 248.508 324.934 240.223C327.11 237.582 329.631 235.243 332.43 233.269" stroke="#D4D5D8" stroke-width="0.75" stroke-miterlimit="10"/>
        <path d="M308.897 262.431C308.033 254.477 308.948 246.432 311.575 238.872C312.367 236.633 313.313 234.452 314.407 232.343" stroke="#D4D5D8" stroke-width="0.75" stroke-miterlimit="10"/>
        <path d="M299.79 262.246C300.55 254.458 299.647 246.599 297.141 239.183C296.358 236.904 295.421 234.681 294.336 232.528" stroke="#D4D5D8" stroke-width="0.75" stroke-miterlimit="10"/>
        <path d="M327.666 261.875C328.181 258.767 330.112 249.65 338.152 242.364C341.893 238.993 346.356 236.516 351.202 235.119" stroke="#D4D5D8" stroke-width="0.75" stroke-miterlimit="10"/>
        <path d="M282.694 261.691C281.961 258.244 279.688 249.915 272.235 242.914C268.749 239.652 264.635 237.126 260.143 235.488" stroke="#D4D5D8" stroke-width="0.75" stroke-miterlimit="10"/>
        <path d="M271.925 260.009C265.154 254.355 257.162 250.337 248.575 248.268C239.987 246.198 231.035 246.133 222.418 248.077" stroke="#D4D5D8" stroke-width="0.75" stroke-miterlimit="10"/>
        <path d="M306.224 270.233C345.403 270.233 377.164 262.567 377.164 253.111C377.164 243.654 345.403 235.988 306.224 235.988C267.045 235.988 235.284 243.654 235.284 253.111C235.284 262.567 267.045 270.233 306.224 270.233Z" stroke="#D4D5D8" stroke-miterlimit="10"/>
        <path d="M271.925 259.973C260.449 258.466 248.788 260.587 238.587 266.035" stroke="#D4D5D8" stroke-width="0.75" stroke-miterlimit="10"/>
        <path d="M340.872 259.973C346.214 258.946 351.708 259.003 357.027 260.14C362.346 261.277 367.38 263.471 371.829 266.59" stroke="#D4D5D8" stroke-width="0.75" stroke-miterlimit="10"/>
        <path d="M306.32 274.011C353.993 274.011 392.64 264.683 392.64 253.176C392.64 241.669 353.993 232.341 306.32 232.341C258.647 232.341 220 241.669 220 253.176C220 264.683 258.647 274.011 306.32 274.011Z" stroke="#D4D5D8" stroke-miterlimit="10"/>
        <path d="M340.872 260.009C347.644 254.355 355.635 250.337 364.223 248.268C372.81 246.198 381.762 246.133 390.379 248.077" stroke="#D4D5D8" stroke-width="0.75" stroke-miterlimit="10"/>
        <path d="M282.738 261.624C277.302 262.938 272.029 264.852 267.018 267.329C264.722 268.466 262.617 269.655 260.7 270.848" stroke="#D4D5D8" stroke-width="0.75" stroke-miterlimit="10"/>
        <path d="M327.67 261.818C333.106 263.132 338.379 265.046 343.39 267.523C345.686 268.66 347.791 269.849 349.708 271.042" stroke="#D4D5D8" stroke-width="0.75" stroke-miterlimit="10"/>
        <path d="M291.673 262.083C290.724 264.565 289.998 267.127 289.504 269.737C289.247 271.101 289.068 272.401 288.947 273.624" stroke="#D4D5D8" stroke-width="0.75" stroke-miterlimit="10"/>
        <path d="M316.219 262.085C317.168 264.567 317.894 267.128 318.387 269.738C318.645 271.103 318.824 272.403 318.945 273.626" stroke="#D4D5D8" stroke-width="0.75" stroke-miterlimit="10"/>
        <path d="M308.983 262.371C308.999 263.833 309.01 265.301 309.017 266.775C309.029 269.26 309.029 271.729 309.017 274.18" stroke="#D4D5D8" stroke-width="0.75" stroke-miterlimit="10"/>
        <path d="M299.847 262.274C299.862 263.726 299.873 265.185 299.881 266.65C299.892 269.121 299.892 271.574 299.881 274.01" stroke="#D4D5D8" stroke-width="0.75" stroke-miterlimit="10"/>
        <path opacity="0.5" d="M306.32 272.172C349.785 272.172 385.02 263.667 385.02 253.176C385.02 242.685 349.785 234.18 306.32 234.18C262.855 234.18 227.619 242.685 227.619 253.176C227.619 263.667 262.855 272.172 306.32 272.172Z" stroke="#D4D5D8" stroke-miterlimit="10"/>
        <path d="M304.437 267.666C337.741 267.666 364.74 261.149 364.74 253.111C364.74 245.072 337.741 238.555 304.437 238.555C271.132 238.555 244.133 245.072 244.133 253.111C244.133 261.149 271.132 267.666 304.437 267.666Z" stroke="#D4D5D8" stroke-width="0.75" stroke-miterlimit="10"/>
        <path d="M306.224 262.552C334.378 262.552 357.201 258.515 357.201 253.535C357.201 248.555 334.378 244.517 306.224 244.517C278.07 244.517 255.247 248.555 255.247 253.535C255.247 258.515 278.07 262.552 306.224 262.552Z" stroke="black" stroke-miterlimit="10"/>
    </g>
    <path d="M356.163 336.124C356.163 342.186 351.258 347.098 345.21 347.098C339.161 347.098 334.256 342.186 334.256 336.124C334.256 330.062 339.161 325.15 345.21 325.15C351.258 325.15 356.163 330.062 356.163 336.124Z" stroke="black"/>
    <path d="M320.87 374.85C320.87 374.85 326.597 357.877 330.654 354.053C334.71 350.228 356.902 350.706 360.004 354.053C363.106 357.4 369.549 374.85 369.549 374.85" stroke="black"/>
    <path d="M290.311 415.254V395.354H330.142V374.69H369.207" stroke="black"/>
    <path d="M241.896 415.254H291.207" stroke="black"/>
    <path d="M316.715 356.856C316.715 362.918 311.81 367.83 305.761 367.83C299.713 367.83 294.808 362.918 294.808 356.856C294.808 350.794 299.713 345.882 305.761 345.882C311.81 345.882 316.715 350.794 316.715 356.856Z" stroke="black"/>
    <path d="M281.422 395.582C281.422 395.582 287.149 378.61 291.205 374.785C295.262 370.96 317.454 371.438 320.556 374.785C323.658 378.132 330.1 395.582 330.1 395.582" stroke="black"/>
    <path d="M277.267 376.886C277.267 383.019 272.357 387.98 266.313 387.98C260.269 387.98 255.359 383.019 255.359 376.886C255.359 370.754 260.269 365.793 266.313 365.793C272.357 365.793 277.267 370.754 277.267 376.886Z" stroke="black"/>
    <path d="M241.974 416.016C241.974 416.016 247.701 398.867 251.757 395.002C255.814 391.137 278.005 391.62 281.107 395.002C284.209 398.384 290.652 416.016 290.652 416.016" stroke="black"/>
    <path d="M373.242 379.197C375.47 379.197 377.276 377.381 377.276 375.141C377.276 372.901 375.47 371.085 373.242 371.085C371.013 371.085 369.207 372.901 369.207 375.141C369.207 377.381 371.013 379.197 373.242 379.197Z" fill="black"/>
    <g clip-path="url(#clip1)">
        <path d="M328.954 187.495C328.864 185.903 328.624 184.324 328.236 182.778C326.679 176.846 322.935 171.739 317.772 168.506C312.599 165.36 306.449 164.281 300.53 165.482C298.317 165.939 296.18 166.713 294.184 167.78C288.283 170.952 285.243 175.931 285.323 176.005C285.392 176.068 287.576 172.397 292.268 169.823C296.479 167.513 300.514 167.29 302.206 167.283C304.868 167.265 307.509 167.757 309.989 168.734C317.249 171.666 320.396 177.994 320.885 179.015C321.996 181.338 323.791 186.2 322.561 191.957C322.03 194.434 321.012 196.779 319.568 198.851C316.782 202.831 313.264 204.544 312.503 204.899C310.847 205.672 306.319 207.463 300.889 205.988C300.353 205.842 292.2 203.484 289.634 195.828C288.852 193.492 288.686 190.99 289.155 188.57C290.262 183.211 294.349 180.392 295.501 179.62C296.505 178.947 300.745 176.107 306.157 177.201C307.436 177.459 310.868 178.209 313.341 181.434C313.895 182.156 315.952 185.025 315.616 189.054C315.572 189.584 315.038 194.914 310.348 197.521C309.753 197.851 305.482 200.133 301.368 197.884C298.218 196.161 295.795 192.125 296.938 188.45C297.572 186.407 299.327 184.47 301.727 183.853C301.979 183.789 304.847 183.111 307.235 184.942C307.663 185.27 309.036 186.323 309.39 188.208C309.471 188.636 309.681 189.853 309.031 191.11C308.675 191.796 308.142 192.372 307.489 192.777C306.835 193.181 306.086 193.4 305.319 193.409C304.596 193.408 303.885 193.218 303.255 192.858C302.626 192.497 302.1 191.979 301.727 191.352C300.801 189.779 301.275 188.161 301.368 187.845C301.665 186.83 302.236 186.294 302.206 186.272C302.146 186.229 299.817 188.23 299.811 190.627C299.807 192.458 300.86 193.705 301.128 194.013C303.095 196.272 306.225 195.885 306.636 195.828C310.347 195.311 312.035 191.605 312.144 191.352C313.378 188.496 312.622 185.412 311.186 183.49C310.177 182.141 308.898 181.451 308.193 181.071C306.9 180.359 305.467 179.945 303.996 179.862C302.526 179.778 301.055 180.026 299.692 180.588C297.945 181.248 296.384 182.327 295.142 183.732C294.658 184.299 292.27 187.217 292.508 191.473C292.747 195.759 295.475 198.416 296.339 199.214C299.812 202.423 305.152 203.6 309.869 201.875C314.424 200.21 316.555 196.448 317.293 195.102C320.247 189.71 318.973 184.432 318.729 183.49C317.177 177.494 312.654 174.552 311.426 173.814C306.351 170.769 301.29 171.627 299.093 172C294.009 172.863 290.675 175.459 289.394 176.475C288.213 177.414 285.991 179.212 284.246 182.402C283.237 184.246 282.549 186.25 282.21 188.329C282.061 189.249 281.383 193.88 283.647 199.107C284.939 202.088 286.632 203.967 287.598 205.033C292.471 210.414 298.454 212.034 299.452 212.29C300.993 212.686 308.163 214.359 315.736 210.597C319.019 208.928 321.884 206.53 324.117 203.582C326.068 201.031 327.492 198.111 328.308 194.994C328.895 192.542 329.113 190.014 328.954 187.495Z" fill="#2762FF"/>
    </g>
    <path d="M297.536 120.214H272.306V121H297.536V120.214Z" fill="#BDBDBD"/>
    <path d="M297.536 113.929H272.306V114.714H297.536V113.929Z" fill="#BDBDBD"/>
    <path d="M297.536 107.643H272.306V108.429H297.536V107.643Z" fill="#BDBDBD"/>
    <path d="M297.536 101.357H272.306V102.143H297.536V101.357Z" fill="#BDBDBD"/>
    <path d="M297.536 95.0714H272.306V95.8571H297.536V95.0714Z" fill="#BDBDBD"/>
    <path d="M297.536 88.7857H272.306V89.5714H297.536V88.7857Z" fill="#BDBDBD"/>
    <path d="M297.536 82.4999H272.306V83.2857H297.536V82.4999Z" fill="#BDBDBD"/>
    <path d="M297.536 117.071H272.306V117.857H297.536V117.071Z" fill="#BDBDBD"/>
    <path d="M297.536 110.786H272.306V111.571H297.536V110.786Z" fill="#BDBDBD"/>
    <path d="M297.536 104.5H272.306V105.286H297.536V104.5Z" fill="#BDBDBD"/>
    <path d="M297.536 98.2142H272.306V98.9999H297.536V98.2142Z" fill="#BDBDBD"/>
    <path d="M297.536 91.9285H272.306V92.7142H297.536V91.9285Z" fill="#BDBDBD"/>
    <path d="M297.536 85.6428H272.306V86.4285H297.536V85.6428Z" fill="#BDBDBD"/>
    <path d="M297.536 79.3571H272.306V80.1428H297.536V79.3571Z" fill="#BDBDBD"/>
    <path d="M297.536 76.2142H272.306V76.9999H297.536V76.2142Z" fill="#BDBDBD"/>
    <path d="M297.536 69.9285H272.306V70.7142H297.536V69.9285Z" fill="#BDBDBD"/>
    <path d="M297.536 63.6428H272.306V64.4285H297.536V63.6428Z" fill="#BDBDBD"/>
    <path d="M297.536 57.3571H272.306V58.1428H297.536V57.3571Z" fill="#BDBDBD"/>
    <path d="M297.536 51.0714H272.306V51.8571H297.536V51.0714Z" fill="#BDBDBD"/>
    <path d="M297.536 44.7857H272.306V45.5714H297.536V44.7857Z" fill="#BDBDBD"/>
    <path d="M297.536 73.0714H272.306V73.8571H297.536V73.0714Z" fill="#BDBDBD"/>
    <path d="M297.536 66.7857H272.306V67.5714H297.536V66.7857Z" fill="#BDBDBD"/>
    <path d="M297.536 60.4999H272.306V61.2857H297.536V60.4999Z" fill="#BDBDBD"/>
    <path d="M297.536 54.2142H272.306V54.9999H297.536V54.2142Z" fill="#BDBDBD"/>
    <path d="M297.536 47.9285H272.306V48.7142H297.536V47.9285Z" fill="#BDBDBD"/>
    <path d="M322.767 41.6428H272.306V42.4285H322.767V41.6428Z" fill="#BDBDBD"/>
    <path d="M322.767 35.3571H272.306V36.1428H322.767V35.3571Z" fill="#BDBDBD"/>
    <path d="M322.767 29.0714H272.306V29.8571H322.767V29.0714Z" fill="#BDBDBD"/>
    <path d="M322.767 22.7857H272.306V23.5714H322.767V22.7857Z" fill="#BDBDBD"/>
    <path d="M322.767 38.4999H272.306V39.2857H322.767V38.4999Z" fill="#BDBDBD"/>
    <path d="M322.767 32.2142H272.306V32.9999H322.767V32.2142Z" fill="#BDBDBD"/>
    <path d="M322.767 25.9285H272.306V26.7142H322.767V25.9285Z" fill="#BDBDBD"/>
    <path d="M322.767 19.6428H272.306V20.4285H322.767V19.6428Z" fill="#BDBDBD"/>
    <path d="M348.392 121H297.142V44.7857H348.392V121ZM297.931 120.214H347.604V45.5714H297.931V120.214Z" fill="#333333"/>
    <path d="M304.238 51.4643H303.45V120.607H304.238V51.4643Z" fill="#333333"/>
    <path d="M310.546 51.4643H309.758V120.607H310.546V51.4643Z" fill="#333333"/>
    <path d="M316.854 51.4643H316.065V120.607H316.854V51.4643Z" fill="#333333"/>
    <path d="M323.162 51.4643H322.373V120.607H323.162V51.4643Z" fill="#333333"/>
    <path d="M329.469 51.4643H328.681V120.607H329.469V51.4643Z" fill="#333333"/>
    <path d="M335.777 51.4643H334.988V120.607H335.777V51.4643Z" fill="#333333"/>
    <path d="M342.084 51.4643H341.296V120.607H342.084V51.4643Z" fill="#333333"/>
    <path d="M265.052 121C261.346 121 258.429 119.979 256.379 118.014C249.125 110.786 255.275 91.6929 271.991 69.3L272.621 69.7714C256.142 91.85 249.992 110.55 256.931 117.464C258.823 119.35 261.662 120.293 265.052 120.293C279.087 120.293 304.16 105.364 327.735 81.95C357.066 52.7214 373.071 21.0572 363.452 11.3929C357.381 5.34287 341.927 9.35001 323.004 21.8429L322.531 21.2143C342.085 8.32858 357.539 4.47858 363.925 10.8429C368.814 15.7143 367.789 25.9286 360.929 39.5214C354.148 52.9571 342.558 68.2786 328.208 82.5786C313.858 96.8786 298.562 108.429 285 115.186C277.116 118.957 270.335 121 265.052 121Z" fill="url(#paint0_linear)"/>
    <path d="M340.113 25.1429C347.081 25.1429 352.729 19.5144 352.729 12.5714C352.729 5.62842 347.081 0 340.113 0C333.146 0 327.498 5.62842 327.498 12.5714C327.498 19.5144 333.146 25.1429 340.113 25.1429Z" fill="#FCBA59"/>
    <path d="M340.113 22.8643L334.988 12.5714L340.192 2.27856L345.396 12.5714L340.113 22.8643ZM335.856 12.5714L340.113 21.1357L344.371 12.5714L340.113 4.00714L335.856 12.5714Z" fill="white"/>
    <path d="M340.114 15.3999L335.225 12.8857L335.54 12.2571L340.114 14.4571L344.687 12.2571L345.002 12.8857L340.114 15.3999Z" fill="white"/>
    <path d="M340.508 3.14288H339.719V22H340.508V3.14288Z" fill="white"/>
    <path d="M343.267 78.3357C350.235 78.3357 355.883 72.7072 355.883 65.7642C355.883 58.8212 350.235 53.1928 343.267 53.1928C336.3 53.1928 330.652 58.8212 330.652 65.7642C330.652 72.7072 336.3 78.3357 343.267 78.3357Z" fill="#FCBA59"/>
    <path d="M341.611 70.0071H340.823V72.1286H341.611V70.0071Z" fill="white"/>
    <path d="M345.79 70.0071H345.002V72.1286H345.79V70.0071Z" fill="white"/>
    <path d="M341.611 59.4785H340.823V61.5999H341.611V59.4785Z" fill="white"/>
    <path d="M345.79 59.4785H345.002V61.5999H345.79V59.4785Z" fill="white"/>
    <path d="M347.525 70.3999H336.644V61.207H347.525C348.865 61.207 350.048 62.307 350.048 63.7213C350.048 64.5856 349.575 65.3713 348.865 65.8427C349.575 66.3142 350.048 67.0213 350.048 67.9642C349.969 69.2999 348.865 70.3999 347.525 70.3999ZM337.354 69.6142H347.446C348.392 69.6142 349.181 68.8285 349.181 67.8856C349.181 66.9427 348.392 66.157 347.446 66.157H337.354V69.6142ZM337.354 65.3713H347.446C348.392 65.3713 349.181 64.5856 349.181 63.6427C349.181 62.6999 348.392 61.9142 347.446 61.9142H337.354V65.3713Z" fill="white"/>
    <path d="M256.615 109.607C263.583 109.607 269.231 103.979 269.231 97.0357C269.231 90.0927 263.583 84.4643 256.615 84.4643C249.648 84.4643 244 90.0927 244 97.0357C244 103.979 249.648 109.607 256.615 109.607Z" fill="#FCBA59"/>
    <path d="M255.275 103.714H252.752V90.3572H255.275C258.981 90.3572 261.977 93.3429 261.977 97.0358C261.977 100.729 258.981 103.714 255.275 103.714ZM253.619 102.929H255.354C258.587 102.929 261.267 100.257 261.267 97.0358C261.267 93.8143 258.587 91.1429 255.354 91.1429H253.619V102.929Z" fill="white"/>
    <path d="M263.712 95.5428H251.096V96.3286H263.712V95.5428Z" fill="white"/>
    <path d="M263.712 97.6644H251.096V98.4501H263.712V97.6644Z" fill="white"/>
    <path d="M575.125 162.924C581.58 162.924 587.647 165.394 592.214 169.873C596.781 174.352 599.291 180.314 599.291 186.652C599.291 192.99 596.776 198.947 592.214 203.432C587.647 207.911 581.58 210.381 575.125 210.381C568.671 210.381 562.604 207.911 558.037 203.432C553.475 198.947 550.959 192.99 550.959 186.652C550.959 180.314 553.475 174.357 558.037 169.873C562.604 165.394 568.671 162.924 575.125 162.924ZM575.125 161C560.695 161 549 172.483 549 186.652C549 200.821 560.695 212.305 575.125 212.305C589.556 212.305 601.251 200.821 601.251 186.652C601.251 172.483 589.556 161 575.125 161Z" fill="black"/>
    <path d="M575.125 196.914C569.099 196.914 565.333 190.511 568.349 185.385L575.125 173.862L581.902 185.39C584.917 190.511 581.152 196.914 575.125 196.914Z" fill="black"/>
    <path d="M26.1254 194.924C32.5802 194.924 38.6472 197.394 43.2141 201.873C47.7809 206.352 50.2914 212.314 50.2914 218.652C50.2914 224.99 47.7758 230.947 43.2141 235.432C38.6472 239.911 32.5802 242.381 26.1254 242.381C19.6706 242.381 13.6036 239.911 9.03674 235.432C4.475 230.947 1.95941 224.99 1.95941 218.652C1.95941 212.314 4.475 206.357 9.03674 201.873C13.6036 197.394 19.6706 194.924 26.1254 194.924ZM26.1254 193C11.6952 193 0 204.483 0 218.652C0 232.821 11.6952 244.305 26.1254 244.305C40.5556 244.305 52.2508 232.821 52.2508 218.652C52.2508 204.483 40.5556 193 26.1254 193Z" fill="black"/>
    <path d="M26.1254 228.914C20.0992 228.914 16.3335 222.511 19.3491 217.385L26.1254 205.862L32.9016 217.39C35.9173 222.511 32.1516 228.914 26.1254 228.914Z" fill="black"/>
    <path d="M574.86 240.463C579.766 240.463 584.378 242.34 587.85 245.745C591.321 249.15 593.23 253.682 593.23 258.5C593.23 263.318 591.317 267.846 587.85 271.255C584.378 274.66 579.766 276.537 574.86 276.537C569.953 276.537 565.341 274.66 561.869 271.255C558.402 267.846 556.489 263.318 556.489 258.5C556.489 253.682 558.402 249.154 561.869 245.745C565.341 242.34 569.953 240.463 574.86 240.463ZM574.86 239C563.89 239 555 247.729 555 258.5C555 269.271 563.89 278 574.86 278C585.829 278 594.719 269.271 594.719 258.5C594.719 247.729 585.829 239 574.86 239Z" fill="black"/>
    <path d="M574.86 266.3C570.279 266.3 567.416 261.433 569.709 257.537L574.86 248.777L580.011 257.54C582.303 261.433 579.441 266.3 574.86 266.3Z" fill="black"/>
    <path d="M326.993 116.578C326.834 116.48 326.667 116.395 326.494 116.327C326.136 116.165 326.069 116.169 325.995 116.076C325.922 115.963 325.884 115.832 325.884 115.698C325.884 115.565 325.922 115.434 325.995 115.321C326.247 114.93 326.888 114.965 327.242 115.07C327.302 115.087 328.141 115.348 328.24 116.076C328.33 116.737 327.791 117.379 327.492 117.333C327.298 117.302 327.38 116.869 326.993 116.578Z" fill="#1D1D1B"/>
    <path d="M327.492 116.83C327.485 116.47 326.208 115.589 325.995 115.824C325.961 115.862 325.982 115.897 325.995 116.076C326.035 116.654 325.862 117.006 325.995 117.081C326.075 117.127 326.182 117.022 326.244 117.081C326.287 117.123 326.265 117.2 326.244 117.333C326.201 117.611 326.178 117.762 326.244 117.836C326.251 117.843 326.258 117.849 326.267 117.854C326.344 117.883 326.425 117.896 326.507 117.893C326.589 117.89 326.669 117.87 326.743 117.836C326.921 117.778 327.089 117.693 327.242 117.584C327.531 117.385 327.776 117.132 327.741 117.081C327.716 117.044 327.562 117.145 327.492 117.081C327.442 117.036 327.459 116.932 327.492 116.83Z" stroke="#1D1D1B" stroke-width="0.25" stroke-miterlimit="10"/>
    <path d="M327.242 124.373C326.752 124.71 326.329 125.137 325.994 125.631C325.723 126.036 325.445 126.593 324.996 128.899C324.614 130.861 324.599 131.567 323.998 131.917C323.606 132.145 323.003 132.198 323 132.42C322.999 132.536 323.164 132.625 323.25 132.671C323.713 132.92 324.14 132.721 324.996 132.671C325.246 132.657 325.496 132.657 325.745 132.671" fill="#1D1D1B"/>
    <path d="M328.49 127.642C329.672 130.269 330.464 131.013 330.985 131.162C331.102 131.196 331.569 131.304 331.734 131.665C331.817 131.91 331.817 132.175 331.734 132.42C331.626 132.741 331.439 132.837 331.484 132.922C331.559 133.063 332.189 133.032 332.482 132.671C332.686 132.42 332.532 132.251 332.732 131.665C332.886 131.213 333.058 131.079 332.981 130.911C332.886 130.699 332.537 130.741 332.233 130.659C331.609 130.493 331.318 129.85 330.736 128.648C330.48 128.12 330.064 127.27 329.488 126.133" fill="#1D1D1B"/>
    <path d="M326.494 118.087C325.788 118.528 326.166 120.323 326.244 122.865C326.292 123.702 326.292 124.542 326.244 125.379C326.117 126.988 325.812 127.702 326.244 128.145C326.429 128.335 326.952 128.358 327.991 128.396C329.809 128.464 330.078 128.294 330.237 128.145C330.399 127.98 330.528 127.784 330.613 127.568C330.699 127.352 330.741 127.12 330.736 126.888C330.717 126.414 330.396 126.329 329.987 125.631C329.656 125.044 329.435 124.402 329.335 123.735C329.266 123.196 329.234 122.653 329.238 122.11C329.074 120.193 329.681 119.868 329.238 118.59C328.876 117.544 328.253 117.137 327.991 117.081C327.909 117.064 327.823 117.064 327.741 117.081C327.492 117.146 327.394 117.389 327.242 117.584C327.042 117.816 326.783 117.99 326.494 118.087Z" fill="#1D1D1B"/>
    <defs>
        <linearGradient id="paint0_linear" x1="310.169" y1="7.83215" x2="310.169" y2="121" gradientUnits="userSpaceOnUse">
            <stop offset="0.541667" stop-color="#2762FF"/>
            <stop offset="1" stop-color="#2762FF" stop-opacity="0"/>
        </linearGradient>
        <clipPath id="clip0">
            <rect width="173" height="47" fill="white" transform="translate(220 227)"/>
        </clipPath>
        <clipPath id="clip1">
            <rect width="47" height="48" fill="white" transform="translate(282 165)"/>
        </clipPath>
    </defs>
</svg>
