<svg width="160" height="161" viewBox="0 0 160 161" fill="none" xmlns="http://www.w3.org/2000/svg">
<path d="M80 160.027C124.183 160.027 160 124.21 160 80.0273C160 35.8446 124.183 0.0273438 80 0.0273438C35.8172 0.0273438 0 35.8446 0 80.0273C0 124.21 35.8172 160.027 80 160.027Z" fill="white"/>
<path d="M159.504 80.0273C159.504 123.936 123.909 159.532 80 159.532C36.091 159.532 0.495729 123.936 0.495729 80.0273C0.495729 36.1183 36.091 0.523073 80 0.523073C123.909 0.523073 159.504 36.1183 159.504 80.0273Z" stroke="black" stroke-opacity="0.3" stroke-width="0.991458"/>
<mask id="path-3-inside-1_10_709" fill="white">
<path fill-rule="evenodd" clip-rule="evenodd" d="M144.578 75.8189H91.082V18.125C120.837 19.2457 144.615 43.7213 144.615 73.7506C144.615 74.4431 144.603 75.1325 144.578 75.8189Z"/>
</mask>
<path fill-rule="evenodd" clip-rule="evenodd" d="M144.578 75.8189H91.082V18.125C120.837 19.2457 144.615 43.7213 144.615 73.7506C144.615 74.4431 144.603 75.1325 144.578 75.8189Z" fill="url(#paint0_linear_10_709)"/>
<path d="M144.578 75.8189V76.8003H145.524L145.558 75.8547L144.578 75.8189ZM91.082 75.8189H90.1006V76.8003H91.082V75.8189ZM91.082 18.125L91.119 17.1443L90.1006 17.1059V18.125H91.082ZM144.578 74.8374H91.082V76.8003H144.578V74.8374ZM92.0634 75.8189V18.125H90.1006V75.8189H92.0634ZM91.0451 19.1057C120.275 20.2066 143.634 44.2509 143.634 73.7506H145.597C145.597 43.1916 121.399 18.2847 91.119 17.1443L91.0451 19.1057ZM143.634 73.7506C143.634 74.4311 143.622 75.1087 143.597 75.783L145.558 75.8547C145.584 75.1564 145.597 74.455 145.597 73.7506H143.634Z" fill="black" mask="url(#path-3-inside-1_10_709)"/>
<mask id="path-5-inside-2_10_709" fill="white">
<path fill-rule="evenodd" clip-rule="evenodd" d="M80.2271 20.0735C79.4333 20.0436 78.6356 20.0285 77.8344 20.0285C43.3439 20.0285 15.3838 47.9886 15.3838 82.4791C15.3838 116.97 43.3439 144.93 77.8344 144.93C111.548 144.93 139.022 118.215 140.243 84.7995H80.2271V20.0735Z"/>
</mask>
<path fill-rule="evenodd" clip-rule="evenodd" d="M80.2271 20.0735C79.4333 20.0436 78.6356 20.0285 77.8344 20.0285C43.3439 20.0285 15.3838 47.9886 15.3838 82.4791C15.3838 116.97 43.3439 144.93 77.8344 144.93C111.548 144.93 139.022 118.215 140.243 84.7995H80.2271V20.0735Z" fill="white"/>
<path d="M80.2271 20.0735H81.2085V19.1284L80.2641 19.0928L80.2271 20.0735ZM140.243 84.7995L141.224 84.8353L141.261 83.8181H140.243V84.7995ZM80.2271 84.7995H79.2457V85.7809H80.2271V84.7995ZM77.8344 21.0099C78.6233 21.0099 79.4086 21.0248 80.1902 21.0542L80.2641 19.0928C79.4579 19.0624 78.6479 19.0471 77.8344 19.0471V21.0099ZM16.3652 82.4791C16.3652 48.5306 43.8859 21.0099 77.8344 21.0099V19.0471C42.8019 19.0471 14.4024 47.4466 14.4024 82.4791H16.3652ZM77.8344 143.948C43.8859 143.948 16.3652 116.428 16.3652 82.4791H14.4024C14.4024 117.512 42.8019 145.911 77.8344 145.911V143.948ZM139.262 84.7637C138.061 117.653 111.018 143.948 77.8344 143.948V145.911C112.078 145.911 139.984 118.777 141.224 84.8353L139.262 84.7637ZM140.243 83.8181H80.2271V85.7809H140.243V83.8181ZM81.2085 84.7995V20.0735H79.2457V84.7995H81.2085Z" fill="black" mask="url(#path-5-inside-2_10_709)"/>
<path d="M98.7253 66.4019V57.9187H101.907C102.558 57.9187 103.105 58.0319 103.547 58.2583C103.991 58.4848 104.327 58.8023 104.553 59.211C104.783 59.617 104.897 60.0906 104.897 60.6318C104.897 61.1758 104.781 61.648 104.549 62.0484C104.32 62.4461 103.982 62.754 103.534 62.9721C103.087 63.1875 102.538 63.2952 101.886 63.2952H99.62V62.0194H101.679C102.06 62.0194 102.372 61.967 102.615 61.862C102.858 61.7543 103.037 61.5983 103.153 61.394C103.272 61.1869 103.331 60.9328 103.331 60.6318C103.331 60.3308 103.272 60.074 103.153 59.8614C103.035 59.646 102.854 59.483 102.611 59.3726C102.368 59.2594 102.054 59.2027 101.67 59.2027H100.262V66.4019H98.7253ZM103.108 62.5579L105.208 66.4019H103.493L101.43 62.5579H103.108ZM108.622 66.4019L106.228 57.9187H107.88L109.409 64.1527H109.488L111.12 57.9187H112.623L114.259 64.1568H114.334L115.862 57.9187H117.515L115.121 66.4019H113.605L111.907 60.4495H111.84L110.138 66.4019H108.622ZM119.398 66.4019H117.757L120.744 57.9187H122.641L125.632 66.4019H123.991L121.726 59.6584H121.659L119.398 66.4019ZM119.452 63.0757H123.925V64.3101H119.452V63.0757ZM132.134 61.7212L130.767 61.8703C130.728 61.7322 130.66 61.6025 130.564 61.4809C130.47 61.3594 130.343 61.2614 130.183 61.1869C130.023 61.1123 129.827 61.075 129.595 61.075C129.283 61.075 129.02 61.1427 128.808 61.278C128.598 61.4133 128.494 61.5886 128.497 61.804C128.494 61.9891 128.562 62.1396 128.7 62.2555C128.841 62.3715 129.073 62.4668 129.396 62.5413L130.481 62.7733C131.083 62.9031 131.53 63.1088 131.823 63.3905C132.119 63.6722 132.268 64.0408 132.27 64.4965C132.268 64.8969 132.15 65.2503 131.918 65.5569C131.689 65.8606 131.37 66.0981 130.961 66.2693C130.553 66.4405 130.083 66.5261 129.553 66.5261C128.774 66.5261 128.148 66.3632 127.673 66.0373C127.198 65.7087 126.915 65.2517 126.823 64.6663L128.286 64.5254C128.352 64.8126 128.493 65.0294 128.708 65.1758C128.924 65.3221 129.204 65.3953 129.549 65.3953C129.905 65.3953 130.191 65.3221 130.406 65.1758C130.625 65.0294 130.734 64.8485 130.734 64.6331C130.734 64.4509 130.663 64.3004 130.522 64.1816C130.384 64.0629 130.169 63.9718 129.876 63.9083L128.791 63.6804C128.181 63.5534 127.729 63.3394 127.436 63.0384C127.144 62.7346 126.999 62.3508 127.002 61.8869C126.999 61.4948 127.105 61.1551 127.32 60.8679C127.539 60.578 127.841 60.3543 128.228 60.1969C128.617 60.0367 129.066 59.9566 129.574 59.9566C130.319 59.9566 130.906 60.1154 131.334 60.433C131.765 60.7505 132.032 61.1799 132.134 61.7212Z" fill="black"/>
<path d="M39.2361 96.8416H37.8867C37.8483 96.6203 37.7773 96.4243 37.6739 96.2535C37.5705 96.0804 37.4418 95.9336 37.2878 95.8134C37.1339 95.6931 36.9583 95.6029 36.7611 95.5428C36.5663 95.4803 36.3558 95.449 36.1297 95.449C35.728 95.449 35.372 95.55 35.0618 95.752C34.7515 95.9517 34.5085 96.2451 34.333 96.6324C34.1574 97.0172 34.0696 97.4874 34.0696 98.0431C34.0696 98.6083 34.1574 99.0845 34.333 99.4718C34.511 99.8566 34.7539 100.148 35.0618 100.345C35.372 100.54 35.7268 100.637 36.1261 100.637C36.3474 100.637 36.5542 100.608 36.7466 100.551C36.9415 100.49 37.1159 100.403 37.2698 100.287C37.4261 100.172 37.5572 100.03 37.6631 99.8614C37.7713 99.6931 37.8459 99.5007 37.8867 99.2842L39.2361 99.2914C39.1856 99.6426 39.0761 99.9721 38.9078 100.28C38.7418 100.588 38.5241 100.86 38.2547 101.095C37.9854 101.329 37.6703 101.511 37.3095 101.644C36.9487 101.774 36.5482 101.839 36.1081 101.839C35.4586 101.839 34.879 101.688 34.369 101.388C33.8591 101.087 33.4574 100.653 33.164 100.085C32.8706 99.5175 32.7238 98.8368 32.7238 98.0431C32.7238 97.2469 32.8718 96.5662 33.1676 96.001C33.4635 95.4334 33.8663 94.9992 34.3763 94.6985C34.8862 94.3979 35.4634 94.2476 36.1081 94.2476C36.5194 94.2476 36.9018 94.3053 37.2554 94.4207C37.6089 94.5362 37.924 94.7058 38.2006 94.9294C38.4772 95.1507 38.7045 95.4225 38.8825 95.7448C39.0629 96.0647 39.1808 96.4303 39.2361 96.8416ZM40.9191 101.738V94.3486H43.6899C44.2576 94.3486 44.7338 94.4472 45.1187 94.6444C45.5059 94.8417 45.7981 95.1183 45.9954 95.4742C46.195 95.8278 46.2948 96.2403 46.2948 96.7117C46.2948 97.1856 46.1938 97.5969 45.9918 97.9457C45.7921 98.292 45.4975 98.5602 45.1078 98.7502C44.7182 98.9378 44.2395 99.0316 43.6719 99.0316H41.6984V97.9204H43.4915C43.8234 97.9204 44.0952 97.8747 44.3069 97.7833C44.5185 97.6895 44.6749 97.5536 44.7759 97.3756C44.8793 97.1952 44.9311 96.9739 44.9311 96.7117C44.9311 96.4496 44.8793 96.2259 44.7759 96.0407C44.6725 95.8531 44.5149 95.7112 44.3033 95.6149C44.0916 95.5163 43.8186 95.467 43.4843 95.467H42.2576V101.738H40.9191ZM44.7362 98.3894L46.5654 101.738H45.0718L43.275 98.3894H44.7362ZM47.1913 94.3486H48.703L50.5106 97.6173H50.5827L52.3903 94.3486H53.902L51.2141 98.9811V101.738H49.8792V98.9811L47.1913 94.3486ZM55.3071 101.738V94.3486H58.078C58.6456 94.3486 59.1219 94.4544 59.5067 94.6661C59.894 94.8777 60.1862 95.1688 60.3835 95.5392C60.5831 95.9072 60.6829 96.3257 60.6829 96.7947C60.6829 97.2686 60.5831 97.6895 60.3835 98.0575C60.1838 98.4255 59.8892 98.7153 59.4995 98.927C59.1099 99.1363 58.63 99.2409 58.06 99.2409H56.2235V98.1405H57.8796C58.2115 98.1405 58.4833 98.0828 58.695 97.9673C58.9066 97.8518 59.063 97.6931 59.164 97.4911C59.2674 97.289 59.3191 97.0569 59.3191 96.7947C59.3191 96.5326 59.2674 96.3017 59.164 96.102C59.063 95.9024 58.9054 95.7472 58.6913 95.6366C58.4797 95.5235 58.2067 95.467 57.8724 95.467H56.6457V101.738H55.3071ZM61.978 95.4706V94.3486H67.8733V95.4706H65.5895V101.738H64.2618V95.4706H61.978ZM75.742 98.0431C75.742 98.8392 75.5929 99.5211 75.2947 100.089C74.9988 100.654 74.5947 101.087 74.0824 101.388C73.5725 101.688 72.994 101.839 72.347 101.839C71.7 101.839 71.1203 101.688 70.608 101.388C70.0981 101.085 69.694 100.65 69.3958 100.085C69.0999 99.5175 68.952 98.8368 68.952 98.0431C68.952 97.2469 69.0999 96.5662 69.3958 96.001C69.694 95.4334 70.0981 94.9992 70.608 94.6985C71.1203 94.3979 71.7 94.2476 72.347 94.2476C72.994 94.2476 73.5725 94.3979 74.0824 94.6985C74.5947 94.9992 74.9988 95.4334 75.2947 96.001C75.5929 96.5662 75.742 97.2469 75.742 98.0431ZM74.3963 98.0431C74.3963 97.4826 74.3085 97.01 74.1329 96.6252C73.9597 96.2379 73.7192 95.9457 73.4113 95.7484C73.1035 95.5488 72.7487 95.449 72.347 95.449C71.9453 95.449 71.5906 95.5488 71.2827 95.7484C70.9748 95.9457 70.7331 96.2379 70.5575 96.6252C70.3843 97.01 70.2977 97.4826 70.2977 98.0431C70.2977 98.6035 70.3843 99.0773 70.5575 99.4646C70.7331 99.8494 70.9748 100.142 71.2827 100.341C71.5906 100.539 71.9453 100.637 72.347 100.637C72.7487 100.637 73.1035 100.539 73.4113 100.341C73.7192 100.142 73.9597 99.8494 74.1329 99.4646C74.3085 99.0773 74.3963 98.6035 74.3963 98.0431ZM34.8128 112.738H33.3841L35.9854 105.349H37.6378L40.2427 112.738H38.814L36.8405 106.864H36.7827L34.8128 112.738ZM34.8597 109.84H38.7562V110.916H34.8597V109.84ZM45.5697 107.38C45.536 107.065 45.3941 106.819 45.1439 106.644C44.8962 106.468 44.5739 106.38 44.177 106.38C43.898 106.38 43.6587 106.423 43.459 106.507C43.2594 106.591 43.1067 106.705 43.0008 106.849C42.895 106.994 42.8409 107.159 42.8385 107.344C42.8385 107.498 42.8733 107.631 42.9431 107.744C43.0153 107.857 43.1127 107.953 43.2353 108.033C43.358 108.11 43.4939 108.175 43.643 108.228C43.7922 108.281 43.9425 108.325 44.094 108.361L44.7867 108.534C45.0657 108.599 45.3339 108.687 45.5913 108.798C45.8511 108.908 46.0832 109.048 46.2876 109.216C46.4945 109.385 46.658 109.588 46.7783 109.826C46.8986 110.064 46.9587 110.343 46.9587 110.663C46.9587 111.096 46.848 111.477 46.6268 111.807C46.4055 112.134 46.0856 112.39 45.6671 112.575C45.251 112.758 44.747 112.849 44.1554 112.849C43.5805 112.849 43.0814 112.76 42.6581 112.582C42.2372 112.404 41.9076 112.145 41.6695 111.803C41.4338 111.462 41.3063 111.045 41.2871 110.555H42.604C42.6232 110.812 42.7026 111.026 42.8421 111.197C42.9816 111.368 43.1632 111.495 43.3869 111.579C43.613 111.664 43.8655 111.706 44.1445 111.706C44.4356 111.706 44.6905 111.662 44.9094 111.576C45.1307 111.487 45.3039 111.364 45.4289 111.208C45.554 111.049 45.6178 110.864 45.6202 110.652C45.6178 110.46 45.5612 110.301 45.4506 110.176C45.3399 110.048 45.1848 109.943 44.9852 109.858C44.7879 109.772 44.557 109.695 44.2925 109.628L43.4518 109.411C42.8433 109.255 42.3622 109.018 42.0087 108.7C41.6575 108.38 41.4819 107.956 41.4819 107.427C41.4819 106.991 41.5998 106.61 41.8355 106.283C42.0736 105.956 42.3971 105.702 42.806 105.522C43.2149 105.339 43.6779 105.248 44.195 105.248C44.7194 105.248 45.1788 105.339 45.5733 105.522C45.9701 105.702 46.2816 105.954 46.5077 106.276C46.7338 106.596 46.8505 106.964 46.8577 107.38H45.5697ZM52.6248 107.38C52.5911 107.065 52.4492 106.819 52.199 106.644C51.9513 106.468 51.629 106.38 51.2321 106.38C50.9531 106.38 50.7138 106.423 50.5142 106.507C50.3145 106.591 50.1618 106.705 50.056 106.849C49.9501 106.994 49.896 107.159 49.8936 107.344C49.8936 107.498 49.9285 107.631 49.9982 107.744C50.0704 107.857 50.1678 107.953 50.2905 108.033C50.4131 108.11 50.549 108.175 50.6982 108.228C50.8473 108.281 50.9976 108.325 51.1492 108.361L51.8419 108.534C52.1209 108.599 52.3891 108.687 52.6464 108.798C52.9062 108.908 53.1383 109.048 53.3428 109.216C53.5496 109.385 53.7132 109.588 53.8334 109.826C53.9537 110.064 54.0138 110.343 54.0138 110.663C54.0138 111.096 53.9032 111.477 53.6819 111.807C53.4606 112.134 53.1407 112.39 52.7222 112.575C52.3061 112.758 51.8022 112.849 51.2105 112.849C50.6356 112.849 50.1365 112.76 49.7132 112.582C49.2923 112.404 48.9628 112.145 48.7246 111.803C48.4889 111.462 48.3615 111.045 48.3422 110.555H49.6591C49.6783 110.812 49.7577 111.026 49.8972 111.197C50.0367 111.368 50.2183 111.495 50.442 111.579C50.6681 111.664 50.9207 111.706 51.1997 111.706C51.4907 111.706 51.7457 111.662 51.9645 111.576C52.1858 111.487 52.359 111.364 52.4841 111.208C52.6091 111.049 52.6729 110.864 52.6753 110.652C52.6729 110.46 52.6164 110.301 52.5057 110.176C52.3951 110.048 52.2399 109.943 52.0403 109.858C51.8431 109.772 51.6122 109.695 51.3476 109.628L50.5069 109.411C49.8984 109.255 49.4174 109.018 49.0638 108.7C48.7126 108.38 48.537 107.956 48.537 107.427C48.537 106.991 48.6549 106.61 48.8906 106.283C49.1287 105.956 49.4522 105.702 49.8611 105.522C50.27 105.339 50.733 105.248 51.2502 105.248C51.7745 105.248 52.2339 105.339 52.6284 105.522C53.0253 105.702 53.3367 105.954 53.5628 106.276C53.7889 106.596 53.9056 106.964 53.9128 107.38H52.6248ZM55.6643 112.738V105.349H60.47V106.471H57.0029V108.477H60.2211V109.599H57.0029V111.615H60.4989V112.738H55.6643ZM61.9681 106.471V105.349H67.8634V106.471H65.5796V112.738H64.2519V106.471H61.9681ZM73.4727 107.38C73.439 107.065 73.2971 106.819 73.047 106.644C72.7992 106.468 72.4769 106.38 72.08 106.38C71.801 106.38 71.5617 106.423 71.3621 106.507C71.1624 106.591 71.0097 106.705 70.9039 106.849C70.798 106.994 70.7439 107.159 70.7415 107.344C70.7415 107.498 70.7764 107.631 70.8461 107.744C70.9183 107.857 71.0157 107.953 71.1384 108.033C71.261 108.11 71.3969 108.175 71.5461 108.228C71.6952 108.281 71.8455 108.325 71.9971 108.361L72.6898 108.534C72.9688 108.599 73.237 108.687 73.4943 108.798C73.7541 108.908 73.9862 109.048 74.1907 109.216C74.3975 109.385 74.5611 109.588 74.6813 109.826C74.8016 110.064 74.8617 110.343 74.8617 110.663C74.8617 111.096 74.7511 111.477 74.5298 111.807C74.3085 112.134 73.9886 112.39 73.5701 112.575C73.154 112.758 72.6501 112.849 72.0584 112.849C71.4835 112.849 70.9844 112.76 70.5611 112.582C70.1402 112.404 69.8107 112.145 69.5725 111.803C69.3368 111.462 69.2094 111.045 69.1901 110.555H70.507C70.5262 110.812 70.6056 111.026 70.7451 111.197C70.8846 111.368 71.0662 111.495 71.2899 111.579C71.516 111.664 71.7686 111.706 72.0476 111.706C72.3386 111.706 72.5936 111.662 72.8124 111.576C73.0337 111.487 73.2069 111.364 73.332 111.208C73.4571 111.049 73.5208 110.864 73.5232 110.652C73.5208 110.46 73.4643 110.301 73.3536 110.176C73.243 110.048 73.0878 109.943 72.8882 109.858C72.691 109.772 72.4601 109.695 72.1955 109.628L71.3549 109.411C70.7463 109.255 70.2653 109.018 69.9117 108.7C69.5605 108.38 69.3849 107.956 69.3849 107.427C69.3849 106.991 69.5028 106.61 69.7385 106.283C69.9766 105.956 70.3001 105.702 70.709 105.522C71.1179 105.339 71.5809 105.248 72.0981 105.248C72.6224 105.248 73.0818 105.339 73.4763 105.522C73.8732 105.702 74.1846 105.954 74.4107 106.276C74.6368 106.596 74.7535 106.964 74.7607 107.38H73.4727Z" fill="black"/>
<defs>
<linearGradient id="paint0_linear_10_709" x1="117.849" y1="18.125" x2="110.59" y2="158.043" gradientUnits="userSpaceOnUse">
<stop stop-color="#FCBF18"/>
<stop offset="1" stop-color="white"/>
</linearGradient>
</defs>
</svg>
