<svg width="168" height="168" viewBox="0 0 168 168" fill="none" xmlns="http://www.w3.org/2000/svg">
<path d="M167.528 84.0267C167.528 130.29 130.026 167.792 83.763 167.792C37.5001 167.792 0 130.29 0 84.0267C0 82.4745 0.0421402 80.9293 0.128762 79.3983C2.52841 35.2892 39.0546 0.263672 83.763 0.263672C128.471 0.263672 165 35.2892 167.4 79.3983C167.486 80.9293 167.528 82.4745 167.528 84.0267V84.0267Z" fill="white"/>
<path d="M0.627965 79.4265L0.628023 79.4254C3.01332 35.5801 39.3216 0.763672 83.763 0.763672C128.204 0.763672 164.515 35.5801 166.9 79.4254L166.9 79.4265C166.986 80.9478 167.028 82.4835 167.028 84.0267C167.028 130.013 129.75 167.292 83.763 167.292C37.7762 167.292 0.5 130.013 0.5 84.0267C0.5 82.4835 0.541896 80.9478 0.627965 79.4265Z" stroke="black" stroke-opacity="0.3"/>
<path d="M83.7921 79.8646C62.2436 79.842 44.7681 86.5138 44.7595 94.7665C44.7508 103.019 62.2123 109.728 83.7608 109.75C105.309 109.773 122.785 103.101 122.793 94.8482C122.802 86.5955 105.341 79.8871 83.7921 79.8646Z" stroke="black" stroke-miterlimit="10"/>
<path d="M83.768 102.417C62.2195 102.395 44.744 109.066 44.7353 117.319C44.7267 125.572 62.1882 132.28 83.7367 132.303C105.285 132.325 122.761 125.654 122.769 117.401C122.778 109.148 105.316 102.44 83.768 102.417Z" stroke="black" stroke-miterlimit="10"/>
<path d="M121.705 46.4661L121.692 59.1786C121.683 67.3051 104.474 73.8754 83.2554 73.8528C62.0351 73.8302 44.8402 67.2241 44.8488 59.0976L44.862 46.3852C44.8565 51.8072 52.5105 56.5536 63.9089 59.1171C69.5925 60.3961 76.2079 61.1326 83.2687 61.1403C90.3286 61.1481 96.9457 60.4257 102.632 59.1583C114.035 56.619 121.699 51.8882 121.705 46.4661Z" fill="url(#paint0_linear_10_707)" stroke="black" stroke-miterlimit="10"/>
<path d="M121.705 46.4662C121.7 51.8882 114.035 56.619 102.632 59.1584C96.945 60.4257 90.3287 61.1481 83.2688 61.1403C76.2072 61.1326 69.5926 60.3969 63.9089 59.1171C52.5106 56.5536 44.8566 51.8072 44.8621 46.3852C44.8706 38.2587 62.0795 31.6892 83.2999 31.7118C104.519 31.7343 121.714 38.3397 121.706 46.4662H121.705Z" fill="url(#paint1_linear_10_707)" stroke="black" stroke-miterlimit="10"/>
<defs>
<linearGradient id="paint0_linear_10_707" x1="44.8488" y1="60.119" x2="121.705" y2="60.119" gradientUnits="userSpaceOnUse">
<stop offset="0.583333" stop-color="#FFC012"/>
<stop offset="1" stop-color="white"/>
</linearGradient>
<linearGradient id="paint1_linear_10_707" x1="44.8621" y1="46.4261" x2="121.706" y2="46.4261" gradientUnits="userSpaceOnUse">
<stop offset="0.583333" stop-color="#FFC012"/>
<stop offset="1" stop-color="white"/>
</linearGradient>
</defs>
</svg>
