<svg width="160" height="161" viewBox="0 0 160 161" fill="none" xmlns="http://www.w3.org/2000/svg">
<path d="M80 160.027C124.183 160.027 160 124.21 160 80.0273C160 35.8446 124.183 0.0273438 80 0.0273438C35.8172 0.0273438 0 35.8446 0 80.0273C0 124.21 35.8172 160.027 80 160.027Z" fill="white"/>
<path d="M159.504 80.0273C159.504 123.936 123.909 159.532 80 159.532C36.091 159.532 0.495729 123.936 0.495729 80.0273C0.495729 36.1183 36.091 0.523073 80 0.523073C123.909 0.523073 159.504 36.1183 159.504 80.0273Z" stroke="black" stroke-opacity="0.3" stroke-width="0.991458"/>
<rect x="50.7936" y="37.3961" width="57.4109" height="82.3592" rx="0.495729" fill="url(#paint0_linear_10_705)" stroke="black" stroke-width="0.991458"/>
<path d="M51.6568 36.9123L91.9035 29.4004C94.0566 28.9986 96.0457 30.6507 96.0457 32.841V124.35C96.0457 126.529 94.0767 128.178 91.9318 127.796L51.6842 120.625C50.0143 120.328 48.798 118.876 48.798 117.18L48.7989 40.3528C48.799 38.6675 50.0001 37.2215 51.6568 36.9123Z" fill="url(#paint1_linear_10_705)" stroke="black"/>
<path fill-rule="evenodd" clip-rule="evenodd" d="M87.4395 76.3074V72.8971C87.4395 72.6832 87.6128 72.5098 87.8267 72.5098H90.8119C91.0258 72.5098 91.1992 72.6832 91.1992 72.8971V84.8535C91.1992 85.0673 91.0258 85.2407 90.8119 85.2407H87.8267C87.6128 85.2407 87.4395 85.0673 87.4395 84.8535V78.3114H82.7027C82.4902 78.3114 82.3174 78.1386 82.3174 77.9261V76.6907C82.3174 76.4782 82.4902 76.3054 82.7027 76.3054V76.3074H87.4395Z" fill="black"/>
<defs>
<linearGradient id="paint0_linear_10_705" x1="79.499" y1="36.9004" x2="79.499" y2="120.251" gradientUnits="userSpaceOnUse">
<stop stop-color="white"/>
<stop offset="1" stop-color="white" stop-opacity="0"/>
</linearGradient>
<linearGradient id="paint1_linear_10_705" x1="72.4217" y1="28.0254" x2="72.4219" y2="195.435" gradientUnits="userSpaceOnUse">
<stop stop-color="#FFC012"/>
<stop offset="1" stop-color="white"/>
</linearGradient>
</defs>
</svg>
