<svg width="162" height="163" viewBox="0 0 162 163" fill="none" xmlns="http://www.w3.org/2000/svg">
<path d="M80.6892 162.029C125.253 162.029 161.378 125.903 161.378 81.3396C161.378 36.7762 125.253 0.650391 80.6892 0.650391C36.1258 0.650391 0 36.7762 0 81.3396C0 125.903 36.1258 162.029 80.6892 162.029Z" fill="white"/>
<path d="M160.878 81.3396C160.878 125.627 124.976 161.529 80.6892 161.529C36.4019 161.529 0.5 125.627 0.5 81.3396C0.5 37.0523 36.4019 1.15039 80.6892 1.15039C124.976 1.15039 160.878 37.0523 160.878 81.3396Z" stroke="black" stroke-opacity="0.3"/>
<line x1="21.5947" y1="81.4927" x2="139.054" y2="81.4927" stroke="#2762FF" stroke-opacity="0.76" stroke-width="2"/>
<path d="M64.5302 51C72.5302 48.5 81.0302 44 81.0302 44C81.0302 44 89.5302 48.5 97.5302 51C105.53 53.5 115.03 55 115.03 55C115.03 55 116.03 85 106.53 101C96.7334 117.5 81.0302 126.5 81.0302 126.5C81.0302 126.5 65.3271 117.5 55.5302 101C46.0302 85 47.0302 55 47.0302 55C47.0302 55 56.5302 53.5 64.5302 51Z" fill="white" stroke="black"/>
<path d="M80.5103 62C75.8245 62 72.0214 65.804 72.0214 70.4889V78.9777H89V70.4889C89 65.8031 85.196 62 80.5111 62H80.5103Z" stroke="black" stroke-width="2.00885" stroke-miterlimit="10"/>
<ellipse rx="6.97552" ry="9.80654" transform="matrix(-1 0 0 1 80.0245 88.7843)" fill="black"/>
<path fill-rule="evenodd" clip-rule="evenodd" d="M90.4375 76.4692H70.0566C68.9208 76.4692 68 77.39 68 78.5258V98.9067C68 100.042 68.9208 100.963 70.0566 100.963H90.4375C91.5733 100.963 92.494 100.042 92.494 98.9067V78.5258C92.494 77.39 91.5733 76.4692 90.4375 76.4692ZM76.7857 84.5704C76.7857 86.0099 77.6374 87.2505 78.8643 87.8158L78.4182 95.4211C78.3891 95.9092 78.7776 96.3214 79.2665 96.3214H79.2674H81.4469C81.9358 96.3214 82.3243 95.91 82.2952 95.4211L81.8491 87.8162C83.0765 87.2511 83.9285 86.0102 83.9285 84.5704C83.9285 82.598 82.3295 80.9991 80.3571 80.9991C78.3847 80.9991 76.7857 82.598 76.7857 84.5704Z" fill="#FFC012"/>
<path d="M78.8643 87.8158L79.0735 87.3617L79.3834 87.5045L79.3634 87.8451L78.8643 87.8158ZM78.4182 95.4211L78.9173 95.4504L78.9173 95.4508L78.4182 95.4211ZM82.2952 95.4211L81.7961 95.4508L81.7961 95.4504L82.2952 95.4211ZM81.8491 87.8162L81.35 87.8455L81.33 87.5048L81.64 87.362L81.8491 87.8162ZM70.0566 75.9692H90.4375V76.9692H70.0566V75.9692ZM67.5 78.5258C67.5 77.1138 68.6446 75.9692 70.0566 75.9692V76.9692C69.1969 76.9692 68.5 77.6661 68.5 78.5258H67.5ZM67.5 98.9067V78.5258H68.5V98.9067H67.5ZM70.0566 101.463C68.6446 101.463 67.5 100.319 67.5 98.9067H68.5C68.5 99.7663 69.1969 100.463 70.0566 100.463V101.463ZM90.4375 101.463H70.0566V100.463H90.4375V101.463ZM92.994 98.9067C92.994 100.319 91.8494 101.463 90.4375 101.463V100.463C91.2971 100.463 91.994 99.7663 91.994 98.9067H92.994ZM92.994 78.5258V98.9067H91.994V78.5258H92.994ZM90.4375 75.9692C91.8494 75.9692 92.994 77.1138 92.994 78.5258H91.994C91.994 77.6661 91.2971 76.9692 90.4375 76.9692V75.9692ZM78.6551 88.2699C77.2575 87.626 76.2857 86.2122 76.2857 84.5704H77.2857C77.2857 85.8076 78.0173 86.875 79.0735 87.3617L78.6551 88.2699ZM77.919 95.3918L78.3652 87.7865L79.3634 87.8451L78.9173 95.4504L77.919 95.3918ZM79.2665 96.8214C78.4898 96.8214 77.8729 96.1668 77.919 95.3914L78.9173 95.4508C78.9053 95.6515 79.0654 95.8214 79.2665 95.8214V96.8214ZM79.2674 96.8214H79.2665V95.8214H79.2674V96.8214ZM81.4469 96.8214H79.2674V95.8214H81.4469V96.8214ZM82.7943 95.3914C82.8405 96.168 82.2233 96.8214 81.4469 96.8214V95.8214C81.6483 95.8214 81.8081 95.6521 81.7961 95.4508L82.7943 95.3914ZM82.3482 87.7869L82.7944 95.3918L81.7961 95.4504L81.35 87.8455L82.3482 87.7869ZM84.4285 84.5704C84.4285 86.2126 83.4563 87.6266 82.0582 88.2704L81.64 87.362C82.6966 86.8755 83.4285 85.8079 83.4285 84.5704H84.4285ZM80.3571 80.4991C82.6057 80.4991 84.4285 82.3219 84.4285 84.5704H83.4285C83.4285 82.8742 82.0534 81.4991 80.3571 81.4991V80.4991ZM76.2857 84.5704C76.2857 82.3219 78.1086 80.4991 80.3571 80.4991V81.4991C78.6608 81.4991 77.2857 82.8742 77.2857 84.5704H76.2857Z" fill="black"/>
<path d="M133.172 75.6517L143.023 69.9641L152.874 75.6517V87.0268L143.023 92.7144L133.172 87.0268V75.6517Z" fill="url(#paint0_linear_11_25)" stroke="black"/>
<rect x="12.6855" y="72.4297" width="17.8174" height="17.8174" fill="url(#paint1_linear_11_25)" stroke="black"/>
<defs>
<linearGradient id="paint0_linear_11_25" x1="143.023" y1="69.3867" x2="143.023" y2="116.736" gradientUnits="userSpaceOnUse">
<stop stop-color="#FFC012"/>
<stop offset="1" stop-color="white"/>
</linearGradient>
<linearGradient id="paint1_linear_11_25" x1="21.5942" y1="71.9297" x2="21.5941" y2="118.299" gradientUnits="userSpaceOnUse">
<stop stop-color="#FFC012"/>
<stop offset="1" stop-color="white"/>
</linearGradient>
</defs>
</svg>
