<svg width="161" height="161" viewBox="0 0 161 161" fill="none" xmlns="http://www.w3.org/2000/svg">
<path d="M80.6895 160.027C124.872 160.027 160.689 124.21 160.689 80.0273C160.689 35.8446 124.872 0.0273438 80.6895 0.0273438C36.5067 0.0273438 0.689453 35.8446 0.689453 80.0273C0.689453 124.21 36.5067 160.027 80.6895 160.027Z" fill="white"/>
<path d="M160.189 80.0273C160.189 123.934 124.596 159.527 80.6895 159.527C36.7828 159.527 1.18945 123.934 1.18945 80.0273C1.18945 36.1207 36.7828 0.527344 80.6895 0.527344C124.596 0.527344 160.189 36.1207 160.189 80.0273Z" stroke="black" stroke-opacity="0.3"/>
<path fill-rule="evenodd" clip-rule="evenodd" d="M46.6143 103.349C59.7213 103.349 70.3467 92.4975 70.3467 79.1111C70.3467 65.7248 59.7214 54.8731 46.6143 54.873L46.6143 103.349Z" fill="black"/>
<path fill-rule="evenodd" clip-rule="evenodd" d="M46.6143 103.349C59.7213 103.349 70.3467 92.4975 70.3467 79.1111C70.3467 65.7248 59.7214 54.8731 46.6143 54.873L46.6143 103.349Z" fill="black"/>
<path fill-rule="evenodd" clip-rule="evenodd" d="M46.6143 103.349C59.7213 103.349 70.3467 92.4975 70.3467 79.1111C70.3467 65.7248 59.7214 54.8731 46.6143 54.873L46.6143 103.349Z" fill="#FFC012"/>
<path fill-rule="evenodd" clip-rule="evenodd" d="M46.6143 54.8734C33.5072 54.8735 22.8818 65.7252 22.8818 79.1115C22.8818 92.4978 33.5072 103.35 46.6143 103.35L46.6143 54.8734Z" fill="black"/>
<path fill-rule="evenodd" clip-rule="evenodd" d="M46.6143 54.8734C33.5072 54.8735 22.8818 65.7252 22.8818 79.1115C22.8818 92.4978 33.5072 103.35 46.6143 103.35L46.6143 54.8734Z" fill="black"/>
<path fill-rule="evenodd" clip-rule="evenodd" d="M46.6143 54.8734C33.5072 54.8735 22.8818 65.7252 22.8818 79.1115C22.8818 92.4978 33.5072 103.35 46.6143 103.35L46.6143 54.8734Z" fill="#FFC012"/>
<path d="M108.601 38.1113H66.7115C55.6121 38.1113 46.6143 47.3009 46.6143 58.6368V101.418C46.6143 112.754 55.6121 121.944 66.7115 121.944H108.601C119.7 121.944 128.698 112.754 128.698 101.418V58.6368C128.698 47.3009 119.7 38.1113 108.601 38.1113Z" fill="url(#paint0_linear_10_704)" fill-opacity="0.5" style="mix-blend-mode:multiply"/>
<path d="M108.601 38.1113H66.7115C55.6121 38.1113 46.6143 47.3009 46.6143 58.6368V101.418C46.6143 112.754 55.6121 121.944 66.7115 121.944H108.601C119.7 121.944 128.698 112.754 128.698 101.418V58.6368C128.698 47.3009 119.7 38.1113 108.601 38.1113Z" stroke="black" stroke-miterlimit="10"/>
<defs>
<linearGradient id="paint0_linear_10_704" x1="154.976" y1="13.6419" x2="39.12" y2="145.887" gradientUnits="userSpaceOnUse">
<stop stop-color="#2762FF" stop-opacity="0.41"/>
<stop offset="1" stop-color="#D9D9D9" stop-opacity="0"/>
</linearGradient>
</defs>
</svg>
