<svg width="1181" height="445" viewBox="0 0 1181 445" fill="none" xmlns="http://www.w3.org/2000/svg">
    <mask id="mask0" mask-type="alpha" maskUnits="userSpaceOnUse" x="325" y="0" width="452" height="364">
        <path fill-rule="evenodd" clip-rule="evenodd" d="M325 0H776.362V363.614H325V0Z" fill="white"/>
    </mask>
    <g mask="url(#mask0)">
        <path fill-rule="evenodd" clip-rule="evenodd" d="M377.851 350.109C364.439 321.396 356.947 289.361 356.947 255.577C356.947 132.069 457.069 31.9474 580.577 31.9474C649.348 31.9474 710.866 62.9918 751.889 111.829L776.362 91.2939C729.479 35.4795 659.172 0 580.577 0C439.426 0 325 114.426 325 255.577C325 294.187 333.562 330.798 348.891 363.614L377.851 350.109Z" fill="url(#paint0_linear)"/>
    </g>
    <path fill-rule="evenodd" clip-rule="evenodd" d="M580.577 407.326C496.768 407.326 428.828 339.386 428.828 255.577C428.828 171.769 496.768 103.828 580.577 103.828C627.243 103.828 668.981 124.899 696.818 158.039L721.297 137.499C687.6 97.3822 637.067 71.8811 580.577 71.8811C479.124 71.8811 396.881 154.124 396.881 255.577C396.881 357.029 479.124 439.273 580.577 439.273V407.326Z" fill="url(#paint1_linear)"/>
    <path fill-rule="evenodd" clip-rule="evenodd" d="M635.639 301.779C622.453 317.477 602.682 327.458 580.577 327.458C540.878 327.458 508.696 295.276 508.696 255.577C508.696 215.878 540.878 183.696 580.577 183.696C602.682 183.696 622.453 193.677 635.639 209.375L663.169 186.274C643.391 162.727 613.735 147.755 580.577 147.755C521.029 147.755 472.755 196.028 472.755 255.577C472.755 315.125 521.029 363.399 580.577 363.399C610.964 363.399 638.405 350.818 658.002 330.593L635.639 301.779Z" fill="url(#paint2_linear)"/>
    <path d="M5.39384 329.648H0.185844V327.008H13.6258V329.648H8.41784V344H5.39384V329.648ZM12.4896 338.192C12.4896 337.28 12.6496 336.456 12.9696 335.72C13.3056 334.968 13.7536 334.328 14.3136 333.8C14.8736 333.272 15.5376 332.864 16.3056 332.576C17.0736 332.288 17.8896 332.144 18.7536 332.144C19.6176 332.144 20.4336 332.288 21.2016 332.576C21.9696 332.864 22.6336 333.272 23.1936 333.8C23.7536 334.328 24.1936 334.968 24.5136 335.72C24.8496 336.456 25.0176 337.28 25.0176 338.192C25.0176 339.104 24.8496 339.936 24.5136 340.688C24.1936 341.44 23.7536 342.088 23.1936 342.632C22.6336 343.16 21.9696 343.576 21.2016 343.88C20.4336 344.184 19.6176 344.336 18.7536 344.336C17.8896 344.336 17.0736 344.184 16.3056 343.88C15.5376 343.576 14.8736 343.16 14.3136 342.632C13.7536 342.088 13.3056 341.44 12.9696 340.688C12.6496 339.936 12.4896 339.104 12.4896 338.192ZM15.4176 338.192C15.4176 338.64 15.4816 339.088 15.6096 339.536C15.7536 339.984 15.9616 340.384 16.2336 340.736C16.5056 341.088 16.8496 341.376 17.2656 341.6C17.6816 341.824 18.1776 341.936 18.7536 341.936C19.3296 341.936 19.8256 341.824 20.2416 341.6C20.6576 341.376 21.0016 341.088 21.2736 340.736C21.5456 340.384 21.7456 339.984 21.8736 339.536C22.0176 339.088 22.0896 338.64 22.0896 338.192C22.0896 337.744 22.0176 337.304 21.8736 336.872C21.7456 336.424 21.5456 336.024 21.2736 335.672C21.0016 335.32 20.6576 335.04 20.2416 334.832C19.8256 334.608 19.3296 334.496 18.7536 334.496C18.1776 334.496 17.6816 334.608 17.2656 334.832C16.8496 335.04 16.5056 335.32 16.2336 335.672C15.9616 336.024 15.7536 336.424 15.6096 336.872C15.4816 337.304 15.4176 337.744 15.4176 338.192ZM26.154 334.784V332.48H28.17V329.144H31.002V332.48H33.882V334.784H31.002V340.136C31.002 340.648 31.09 341.072 31.266 341.408C31.458 341.744 31.874 341.912 32.514 341.912C32.706 341.912 32.914 341.896 33.138 341.864C33.362 341.816 33.562 341.752 33.738 341.672L33.834 343.928C33.578 344.024 33.274 344.096 32.922 344.144C32.57 344.208 32.234 344.24 31.914 344.24C31.146 344.24 30.522 344.136 30.042 343.928C29.562 343.704 29.178 343.408 28.89 343.04C28.618 342.656 28.426 342.224 28.314 341.744C28.218 341.248 28.17 340.72 28.17 340.16V334.784H26.154ZM43.1183 342.536H43.0463C42.7583 343.048 42.2943 343.472 41.6543 343.808C41.0143 344.128 40.2863 344.288 39.4703 344.288C39.0063 344.288 38.5183 344.224 38.0063 344.096C37.5103 343.984 37.0463 343.792 36.6143 343.52C36.1983 343.232 35.8463 342.864 35.5583 342.416C35.2863 341.952 35.1503 341.384 35.1503 340.712C35.1503 339.848 35.3903 339.16 35.8703 338.648C36.3663 338.136 36.9983 337.744 37.7663 337.472C38.5343 337.2 39.3823 337.024 40.3103 336.944C41.2543 336.848 42.1743 336.8 43.0703 336.8V336.512C43.0703 335.792 42.8063 335.264 42.2783 334.928C41.7663 334.576 41.1503 334.4 40.4303 334.4C39.8223 334.4 39.2383 334.528 38.6783 334.784C38.1183 335.04 37.6543 335.352 37.2863 335.72L35.7983 333.968C36.4543 333.36 37.2063 332.904 38.0543 332.6C38.9183 332.296 39.7903 332.144 40.6703 332.144C41.6943 332.144 42.5343 332.288 43.1903 332.576C43.8623 332.864 44.3903 333.24 44.7743 333.704C45.1583 334.168 45.4223 334.688 45.5663 335.264C45.7263 335.84 45.8063 336.416 45.8063 336.992V344H43.1183V342.536ZM43.0703 338.744H42.4223C41.9583 338.744 41.4703 338.768 40.9583 338.816C40.4463 338.848 39.9743 338.936 39.5423 339.08C39.1103 339.208 38.7503 339.4 38.4623 339.656C38.1743 339.896 38.0303 340.232 38.0303 340.664C38.0303 340.936 38.0863 341.168 38.1983 341.36C38.3263 341.536 38.4863 341.68 38.6783 341.792C38.8703 341.904 39.0863 341.984 39.3263 342.032C39.5663 342.08 39.8063 342.104 40.0463 342.104C41.0383 342.104 41.7903 341.84 42.3023 341.312C42.8143 340.784 43.0703 340.064 43.0703 339.152V338.744ZM49.2096 325.856H52.0896V344H49.2096V325.856ZM66.6336 327.008H69.2496L76.5696 344H73.1136L71.5296 340.112H64.1616L62.6256 344H59.2416L66.6336 327.008ZM70.4736 337.52L67.8576 330.608L65.1936 337.52H70.4736ZM84.4189 335.552C84.1629 335.216 83.8109 334.928 83.3629 334.688C82.9149 334.432 82.4269 334.304 81.8989 334.304C81.4349 334.304 81.0109 334.4 80.6269 334.592C80.2429 334.784 80.0509 335.104 80.0509 335.552C80.0509 336 80.2589 336.32 80.6749 336.512C81.1069 336.688 81.7309 336.872 82.5469 337.064C82.9789 337.16 83.4109 337.288 83.8429 337.448C84.2909 337.608 84.6909 337.824 85.0429 338.096C85.4109 338.352 85.7069 338.68 85.9309 339.08C86.1549 339.464 86.2669 339.936 86.2669 340.496C86.2669 341.2 86.1309 341.8 85.8589 342.296C85.6029 342.776 85.2509 343.168 84.8029 343.472C84.3709 343.776 83.8589 343.992 83.2669 344.12C82.6909 344.264 82.0909 344.336 81.4669 344.336C80.5709 344.336 79.6989 344.176 78.8509 343.856C78.0029 343.52 77.2989 343.048 76.7389 342.44L78.6349 340.664C78.9549 341.08 79.3709 341.424 79.8829 341.696C80.3949 341.968 80.9629 342.104 81.5869 342.104C81.7949 342.104 82.0029 342.08 82.2109 342.032C82.4349 341.984 82.6349 341.912 82.8109 341.816C83.0029 341.704 83.1549 341.56 83.2669 341.384C83.3789 341.208 83.4349 340.992 83.4349 340.736C83.4349 340.256 83.2109 339.912 82.7629 339.704C82.3309 339.496 81.6749 339.288 80.7949 339.08C80.3629 338.984 79.9389 338.864 79.5229 338.72C79.1229 338.56 78.7629 338.36 78.4429 338.12C78.1229 337.864 77.8669 337.552 77.6749 337.184C77.4829 336.816 77.3869 336.36 77.3869 335.816C77.3869 335.176 77.5149 334.624 77.7709 334.16C78.0429 333.696 78.3949 333.32 78.8269 333.032C79.2589 332.728 79.7469 332.504 80.2909 332.36C80.8349 332.216 81.3949 332.144 81.9709 332.144C82.8029 332.144 83.6109 332.288 84.3949 332.576C85.1949 332.864 85.8269 333.304 86.2909 333.896L84.4189 335.552ZM95.083 335.552C94.827 335.216 94.475 334.928 94.027 334.688C93.579 334.432 93.091 334.304 92.563 334.304C92.099 334.304 91.675 334.4 91.291 334.592C90.907 334.784 90.715 335.104 90.715 335.552C90.715 336 90.923 336.32 91.339 336.512C91.771 336.688 92.395 336.872 93.211 337.064C93.643 337.16 94.075 337.288 94.507 337.448C94.955 337.608 95.355 337.824 95.707 338.096C96.075 338.352 96.371 338.68 96.595 339.08C96.819 339.464 96.931 339.936 96.931 340.496C96.931 341.2 96.795 341.8 96.523 342.296C96.267 342.776 95.915 343.168 95.467 343.472C95.035 343.776 94.523 343.992 93.931 344.12C93.355 344.264 92.755 344.336 92.131 344.336C91.235 344.336 90.363 344.176 89.515 343.856C88.667 343.52 87.963 343.048 87.403 342.44L89.299 340.664C89.619 341.08 90.035 341.424 90.547 341.696C91.059 341.968 91.627 342.104 92.251 342.104C92.459 342.104 92.667 342.08 92.875 342.032C93.099 341.984 93.299 341.912 93.475 341.816C93.667 341.704 93.819 341.56 93.931 341.384C94.043 341.208 94.099 340.992 94.099 340.736C94.099 340.256 93.875 339.912 93.427 339.704C92.995 339.496 92.339 339.288 91.459 339.08C91.027 338.984 90.603 338.864 90.187 338.72C89.787 338.56 89.427 338.36 89.107 338.12C88.787 337.864 88.531 337.552 88.339 337.184C88.147 336.816 88.051 336.36 88.051 335.816C88.051 335.176 88.179 334.624 88.435 334.16C88.707 333.696 89.059 333.32 89.491 333.032C89.923 332.728 90.411 332.504 90.955 332.36C91.499 332.216 92.059 332.144 92.635 332.144C93.467 332.144 94.275 332.288 95.059 332.576C95.859 332.864 96.491 333.304 96.955 333.896L95.083 335.552ZM107.547 337.088C107.547 336.72 107.491 336.368 107.379 336.032C107.283 335.696 107.123 335.4 106.899 335.144C106.675 334.888 106.387 334.688 106.035 334.544C105.699 334.384 105.299 334.304 104.835 334.304C103.971 334.304 103.235 334.568 102.627 335.096C102.035 335.608 101.707 336.272 101.643 337.088H107.547ZM110.427 338.384C110.427 338.512 110.427 338.64 110.427 338.768C110.427 338.896 110.419 339.024 110.403 339.152H101.643C101.675 339.568 101.779 339.952 101.955 340.304C102.147 340.64 102.395 340.936 102.699 341.192C103.003 341.432 103.347 341.624 103.731 341.768C104.115 341.912 104.515 341.984 104.931 341.984C105.651 341.984 106.259 341.856 106.755 341.6C107.251 341.328 107.659 340.96 107.979 340.496L109.899 342.032C108.763 343.568 107.115 344.336 104.955 344.336C104.059 344.336 103.235 344.2 102.483 343.928C101.731 343.64 101.075 343.24 100.515 342.728C99.971 342.216 99.539 341.592 99.219 340.856C98.915 340.104 98.763 339.256 98.763 338.312C98.763 337.384 98.915 336.544 99.219 335.792C99.539 335.024 99.971 334.376 100.515 333.848C101.059 333.304 101.699 332.888 102.435 332.6C103.187 332.296 103.995 332.144 104.859 332.144C105.659 332.144 106.395 332.28 107.067 332.552C107.755 332.808 108.347 333.2 108.843 333.728C109.339 334.24 109.723 334.888 109.995 335.672C110.283 336.44 110.427 337.344 110.427 338.384ZM111.56 334.784V332.48H113.576V329.144H116.408V332.48H119.288V334.784H116.408V340.136C116.408 340.648 116.496 341.072 116.672 341.408C116.864 341.744 117.28 341.912 117.92 341.912C118.112 341.912 118.32 341.896 118.544 341.864C118.768 341.816 118.968 341.752 119.144 341.672L119.24 343.928C118.984 344.024 118.68 344.096 118.328 344.144C117.976 344.208 117.64 344.24 117.32 344.24C116.552 344.24 115.928 344.136 115.448 343.928C114.968 343.704 114.584 343.408 114.296 343.04C114.024 342.656 113.832 342.224 113.72 341.744C113.624 341.248 113.576 340.72 113.576 340.16V334.784H111.56ZM127.685 335.552C127.429 335.216 127.077 334.928 126.629 334.688C126.181 334.432 125.693 334.304 125.165 334.304C124.701 334.304 124.277 334.4 123.893 334.592C123.509 334.784 123.317 335.104 123.317 335.552C123.317 336 123.525 336.32 123.941 336.512C124.373 336.688 124.997 336.872 125.813 337.064C126.245 337.16 126.677 337.288 127.109 337.448C127.557 337.608 127.957 337.824 128.309 338.096C128.677 338.352 128.973 338.68 129.197 339.08C129.421 339.464 129.533 339.936 129.533 340.496C129.533 341.2 129.397 341.8 129.125 342.296C128.869 342.776 128.517 343.168 128.069 343.472C127.637 343.776 127.125 343.992 126.533 344.12C125.957 344.264 125.357 344.336 124.733 344.336C123.837 344.336 122.965 344.176 122.117 343.856C121.269 343.52 120.565 343.048 120.005 342.44L121.901 340.664C122.221 341.08 122.637 341.424 123.149 341.696C123.661 341.968 124.229 342.104 124.853 342.104C125.061 342.104 125.269 342.08 125.477 342.032C125.701 341.984 125.901 341.912 126.077 341.816C126.269 341.704 126.421 341.56 126.533 341.384C126.645 341.208 126.701 340.992 126.701 340.736C126.701 340.256 126.477 339.912 126.029 339.704C125.597 339.496 124.941 339.288 124.061 339.08C123.629 338.984 123.205 338.864 122.789 338.72C122.389 338.56 122.029 338.36 121.709 338.12C121.389 337.864 121.133 337.552 120.941 337.184C120.749 336.816 120.653 336.36 120.653 335.816C120.653 335.176 120.781 334.624 121.037 334.16C121.309 333.696 121.661 333.32 122.093 333.032C122.525 332.728 123.013 332.504 123.557 332.36C124.101 332.216 124.661 332.144 125.237 332.144C126.069 332.144 126.877 332.288 127.661 332.576C128.461 332.864 129.093 333.304 129.557 333.896L127.685 335.552ZM138.181 327.008H149.149V329.648H141.205V334.304H148.693V336.848H141.205V344H138.181V327.008ZM151.421 332.48H154.301V344H151.421V332.48ZM151.013 328.568C151.013 328.104 151.181 327.704 151.517 327.368C151.869 327.016 152.309 326.84 152.837 326.84C153.365 326.84 153.805 327.008 154.157 327.344C154.525 327.664 154.709 328.072 154.709 328.568C154.709 329.064 154.525 329.48 154.157 329.816C153.805 330.136 153.365 330.296 152.837 330.296C152.309 330.296 151.869 330.128 151.517 329.792C151.181 329.44 151.013 329.032 151.013 328.568ZM157.794 332.48H160.53V334.328H160.578C160.834 333.752 161.274 333.248 161.898 332.816C162.538 332.368 163.29 332.144 164.154 332.144C164.906 332.144 165.546 332.28 166.074 332.552C166.618 332.808 167.058 333.152 167.394 333.584C167.746 334.016 168.002 334.512 168.162 335.072C168.322 335.632 168.402 336.208 168.402 336.8V344H165.522V337.616C165.522 337.28 165.498 336.928 165.45 336.56C165.402 336.192 165.298 335.864 165.138 335.576C164.978 335.272 164.754 335.024 164.466 334.832C164.194 334.64 163.826 334.544 163.362 334.544C162.898 334.544 162.498 334.64 162.162 334.832C161.826 335.008 161.546 335.24 161.322 335.528C161.114 335.816 160.954 336.152 160.842 336.536C160.73 336.904 160.674 337.28 160.674 337.664V344H157.794V332.48ZM178.915 342.536H178.843C178.555 343.048 178.091 343.472 177.451 343.808C176.811 344.128 176.083 344.288 175.267 344.288C174.803 344.288 174.315 344.224 173.803 344.096C173.307 343.984 172.843 343.792 172.411 343.52C171.995 343.232 171.643 342.864 171.355 342.416C171.083 341.952 170.947 341.384 170.947 340.712C170.947 339.848 171.187 339.16 171.667 338.648C172.163 338.136 172.795 337.744 173.563 337.472C174.331 337.2 175.179 337.024 176.107 336.944C177.051 336.848 177.971 336.8 178.867 336.8V336.512C178.867 335.792 178.603 335.264 178.075 334.928C177.563 334.576 176.947 334.4 176.227 334.4C175.619 334.4 175.035 334.528 174.475 334.784C173.915 335.04 173.451 335.352 173.083 335.72L171.595 333.968C172.251 333.36 173.003 332.904 173.851 332.6C174.715 332.296 175.587 332.144 176.467 332.144C177.491 332.144 178.331 332.288 178.987 332.576C179.659 332.864 180.187 333.24 180.571 333.704C180.955 334.168 181.219 334.688 181.363 335.264C181.523 335.84 181.603 336.416 181.603 336.992V344H178.915V342.536ZM178.867 338.744H178.219C177.755 338.744 177.267 338.768 176.755 338.816C176.243 338.848 175.771 338.936 175.339 339.08C174.907 339.208 174.547 339.4 174.259 339.656C173.971 339.896 173.827 340.232 173.827 340.664C173.827 340.936 173.883 341.168 173.995 341.36C174.123 341.536 174.283 341.68 174.475 341.792C174.667 341.904 174.883 341.984 175.123 342.032C175.363 342.08 175.603 342.104 175.843 342.104C176.835 342.104 177.587 341.84 178.099 341.312C178.611 340.784 178.867 340.064 178.867 339.152V338.744ZM184.958 332.48H187.694V334.328H187.742C187.998 333.752 188.438 333.248 189.062 332.816C189.702 332.368 190.454 332.144 191.318 332.144C192.07 332.144 192.71 332.28 193.238 332.552C193.782 332.808 194.222 333.152 194.558 333.584C194.91 334.016 195.166 334.512 195.326 335.072C195.486 335.632 195.566 336.208 195.566 336.8V344H192.686V337.616C192.686 337.28 192.662 336.928 192.614 336.56C192.566 336.192 192.462 335.864 192.302 335.576C192.142 335.272 191.918 335.024 191.63 334.832C191.358 334.64 190.99 334.544 190.526 334.544C190.062 334.544 189.662 334.64 189.326 334.832C188.99 335.008 188.71 335.24 188.486 335.528C188.278 335.816 188.118 336.152 188.006 336.536C187.894 336.904 187.838 337.28 187.838 337.664V344H184.958V332.48ZM206.799 335.672C206.575 335.352 206.239 335.088 205.791 334.88C205.343 334.656 204.887 334.544 204.423 334.544C203.895 334.544 203.431 334.656 203.031 334.88C202.631 335.088 202.295 335.368 202.023 335.72C201.767 336.072 201.575 336.472 201.447 336.92C201.319 337.352 201.255 337.792 201.255 338.24C201.255 338.688 201.319 339.136 201.447 339.584C201.591 340.016 201.799 340.408 202.071 340.76C202.343 341.112 202.679 341.4 203.079 341.624C203.495 341.832 203.975 341.936 204.519 341.936C204.967 341.936 205.415 341.848 205.863 341.672C206.311 341.496 206.671 341.24 206.943 340.904L208.743 342.728C208.263 343.24 207.647 343.64 206.895 343.928C206.159 344.2 205.359 344.336 204.495 344.336C203.647 344.336 202.839 344.2 202.071 343.928C201.319 343.656 200.655 343.256 200.079 342.728C199.519 342.2 199.071 341.56 198.735 340.808C198.415 340.056 198.255 339.2 198.255 338.24C198.255 337.312 198.415 336.472 198.735 335.72C199.071 334.968 199.519 334.328 200.079 333.8C200.639 333.272 201.287 332.864 202.023 332.576C202.775 332.288 203.575 332.144 204.423 332.144C205.271 332.144 206.087 332.304 206.871 332.624C207.671 332.944 208.303 333.384 208.767 333.944L206.799 335.672ZM218.758 337.088C218.758 336.72 218.702 336.368 218.59 336.032C218.494 335.696 218.334 335.4 218.11 335.144C217.886 334.888 217.598 334.688 217.246 334.544C216.91 334.384 216.51 334.304 216.046 334.304C215.182 334.304 214.446 334.568 213.838 335.096C213.246 335.608 212.918 336.272 212.854 337.088H218.758ZM221.638 338.384C221.638 338.512 221.638 338.64 221.638 338.768C221.638 338.896 221.63 339.024 221.614 339.152H212.854C212.886 339.568 212.99 339.952 213.166 340.304C213.358 340.64 213.606 340.936 213.91 341.192C214.214 341.432 214.558 341.624 214.942 341.768C215.326 341.912 215.726 341.984 216.142 341.984C216.862 341.984 217.47 341.856 217.966 341.6C218.462 341.328 218.87 340.96 219.19 340.496L221.11 342.032C219.974 343.568 218.326 344.336 216.166 344.336C215.27 344.336 214.446 344.2 213.694 343.928C212.942 343.64 212.286 343.24 211.726 342.728C211.182 342.216 210.75 341.592 210.43 340.856C210.126 340.104 209.974 339.256 209.974 338.312C209.974 337.384 210.126 336.544 210.43 335.792C210.75 335.024 211.182 334.376 211.726 333.848C212.27 333.304 212.91 332.888 213.646 332.6C214.398 332.296 215.206 332.144 216.07 332.144C216.87 332.144 217.606 332.28 218.278 332.552C218.966 332.808 219.558 333.2 220.054 333.728C220.55 334.24 220.934 334.888 221.206 335.672C221.494 336.44 221.638 337.344 221.638 338.384ZM236.139 344H233.403V342.272H233.355C232.955 342.944 232.395 343.456 231.675 343.808C230.971 344.16 230.211 344.336 229.395 344.336C228.515 344.336 227.723 344.176 227.019 343.856C226.331 343.52 225.739 343.08 225.243 342.536C224.763 341.976 224.387 341.328 224.115 340.592C223.859 339.84 223.731 339.04 223.731 338.192C223.731 337.344 223.867 336.552 224.139 335.816C224.411 335.08 224.795 334.44 225.291 333.896C225.787 333.352 226.379 332.928 227.067 332.624C227.755 332.304 228.507 332.144 229.323 332.144C229.851 332.144 230.323 332.208 230.739 332.336C231.155 332.448 231.515 332.592 231.819 332.768C232.139 332.944 232.411 333.136 232.635 333.344C232.859 333.552 233.043 333.752 233.187 333.944H233.259V325.856H236.139V344ZM226.659 338.192C226.659 338.64 226.723 339.088 226.851 339.536C226.995 339.984 227.203 340.384 227.475 340.736C227.747 341.088 228.091 341.376 228.507 341.6C228.923 341.824 229.411 341.936 229.971 341.936C230.499 341.936 230.971 341.832 231.387 341.624C231.803 341.4 232.155 341.112 232.443 340.76C232.747 340.408 232.971 340.016 233.115 339.584C233.275 339.136 233.355 338.688 233.355 338.24C233.355 337.792 233.275 337.344 233.115 336.896C232.971 336.448 232.747 336.048 232.443 335.696C232.155 335.344 231.803 335.056 231.387 334.832C230.971 334.608 230.499 334.496 229.971 334.496C229.411 334.496 228.923 334.608 228.507 334.832C228.091 335.04 227.747 335.32 227.475 335.672C227.203 336.024 226.995 336.424 226.851 336.872C226.723 337.304 226.659 337.744 226.659 338.192Z" fill="#555555"/>
    <path d="M37.1747 210.653C41.2155 210.726 45.2931 211.424 49.4074 212.747C53.5217 213.996 57.085 215.906 60.0972 218.477L51.1707 227.734C49.4809 225.824 47.3502 224.392 44.7788 223.436C42.2808 222.408 39.7461 221.894 37.1747 221.894V244.155C39.9665 245.037 42.7584 246.065 45.5502 247.241C48.3421 248.416 50.8401 249.922 53.0441 251.759C55.3217 253.522 57.1584 255.69 58.5544 258.261C59.9503 260.833 60.6483 263.992 60.6483 267.739C60.6483 271.559 59.987 274.939 58.6646 277.877C57.4156 280.743 55.6891 283.167 53.485 285.151C51.3543 287.061 48.8564 288.531 45.9911 289.559C43.1992 290.588 40.2604 291.139 37.1747 291.212V299.147H31.2236V291.212C26.3746 291.065 21.7093 290.184 17.2277 288.567C12.8195 286.878 8.85211 284.343 5.32556 280.963L15.0236 271.706C17.0072 274.057 19.5052 276.004 22.5175 277.547C25.5297 279.016 28.4318 279.788 31.2236 279.861V255.396C27.991 254.514 24.9787 253.522 22.1869 252.42C19.395 251.245 16.9338 249.775 14.8032 248.012C12.746 246.249 11.1297 244.155 9.95415 241.73C8.77864 239.232 8.19088 236.22 8.19088 232.694C8.19088 229.387 8.81537 226.449 10.0644 223.877C11.3868 221.232 13.1134 218.992 15.244 217.155C17.4481 215.318 19.9093 213.885 22.6277 212.857C25.4195 211.755 28.2849 211.094 31.2236 210.873V203.379H37.1747V210.653ZM31.2236 221.894C28.6522 222.187 26.3746 223.143 24.391 224.759C22.4073 226.375 21.4154 228.8 21.4154 232.032C21.4154 235.118 22.3338 237.469 24.1705 239.085C26.0808 240.628 28.4318 241.804 31.2236 242.612V221.894ZM37.1747 279.861C40.2604 279.714 42.7216 278.612 44.5584 276.555C46.4686 274.498 47.4237 271.816 47.4237 268.51C47.4237 265.277 46.4319 262.853 44.4482 261.237C42.538 259.547 40.1135 258.188 37.1747 257.159V279.861ZM116.671 211.975L96.7239 240.849L96.8341 240.959C97.8627 240.518 99.1484 240.188 100.691 239.967C102.308 239.747 103.777 239.637 105.099 239.637C108.553 239.637 111.785 240.298 114.797 241.62C117.81 242.869 120.455 244.632 122.732 246.91C125.01 249.114 126.773 251.759 128.022 254.845C129.344 257.857 130.006 261.126 130.006 264.653C130.006 268.767 129.271 272.514 127.802 275.894C126.332 279.273 124.312 282.175 121.74 284.6C119.242 286.951 116.23 288.751 112.704 290C109.25 291.322 105.54 291.984 101.573 291.984C97.4586 291.984 93.6749 291.322 90.2218 290C86.7688 288.604 83.7565 286.694 81.1851 284.269C78.6136 281.845 76.5932 279.016 75.1238 275.784C73.7279 272.477 73.0299 268.951 73.0299 265.204C73.0299 263 73.2136 260.943 73.5809 259.033C73.9483 257.049 74.4626 255.175 75.1238 253.412C75.8585 251.575 76.7034 249.739 77.6585 247.902C78.6871 246.065 79.8259 244.155 81.0748 242.171L100.581 211.975H116.671ZM86.4749 265.535C86.4749 267.592 86.8055 269.539 87.4667 271.375C88.2014 273.212 89.23 274.829 90.5524 276.224C91.8749 277.62 93.4545 278.722 95.2912 279.531C97.128 280.339 99.1851 280.743 101.463 280.743C105.944 280.743 109.544 279.347 112.263 276.555C115.055 273.69 116.451 269.943 116.451 265.314C116.451 263.11 116.083 261.09 115.348 259.253C114.687 257.343 113.695 255.726 112.373 254.404C111.05 253.081 109.471 252.053 107.634 251.318C105.871 250.51 103.887 250.106 101.683 250.106C99.479 250.106 97.4219 250.473 95.5116 251.208C93.6749 251.943 92.0586 253.008 90.6626 254.404C89.3402 255.726 88.3116 257.343 87.5769 259.253C86.8422 261.163 86.4749 263.257 86.4749 265.535ZM206.416 235.559C209.869 235.559 212.808 236.183 215.233 237.432C217.731 238.608 219.751 240.188 221.294 242.171C222.91 244.155 224.086 246.432 224.82 249.004C225.555 251.575 225.922 254.22 225.922 256.939V290H212.698V260.686C212.698 259.143 212.588 257.526 212.367 255.837C212.147 254.147 211.669 252.641 210.935 251.318C210.2 249.922 209.171 248.783 207.849 247.902C206.6 247.02 204.91 246.579 202.779 246.579C200.722 246.579 198.959 247.02 197.49 247.902C196.02 248.783 194.808 249.922 193.853 251.318C192.898 252.714 192.2 254.294 191.759 256.057C191.318 257.747 191.098 259.437 191.098 261.126V290H177.873V258.041C177.873 254.735 177.065 252.016 175.449 249.886C173.906 247.681 171.445 246.579 168.065 246.579C166.081 246.579 164.355 247.02 162.885 247.902C161.416 248.71 160.204 249.775 159.249 251.098C158.367 252.42 157.669 253.963 157.155 255.726C156.714 257.416 156.494 259.143 156.494 260.906V290H143.269V237.102H155.832V245.588H156.053C156.64 244.265 157.412 243.016 158.367 241.841C159.396 240.665 160.571 239.6 161.894 238.645C163.289 237.69 164.869 236.955 166.632 236.441C168.396 235.853 170.343 235.559 172.473 235.559C176.587 235.559 180.004 236.477 182.722 238.314C185.441 240.151 187.534 242.575 189.004 245.588C190.767 242.355 193.118 239.894 196.057 238.204C198.996 236.441 202.449 235.559 206.416 235.559Z" fill="#2762FF"/>
    <path d="M980.71 329.648H975.502V327.008H988.942V329.648H983.734V344H980.71V329.648ZM987.806 338.192C987.806 337.28 987.966 336.456 988.286 335.72C988.622 334.968 989.07 334.328 989.63 333.8C990.19 333.272 990.854 332.864 991.622 332.576C992.39 332.288 993.206 332.144 994.07 332.144C994.934 332.144 995.75 332.288 996.518 332.576C997.286 332.864 997.95 333.272 998.51 333.8C999.07 334.328 999.51 334.968 999.83 335.72C1000.17 336.456 1000.33 337.28 1000.33 338.192C1000.33 339.104 1000.17 339.936 999.83 340.688C999.51 341.44 999.07 342.088 998.51 342.632C997.95 343.16 997.286 343.576 996.518 343.88C995.75 344.184 994.934 344.336 994.07 344.336C993.206 344.336 992.39 344.184 991.622 343.88C990.854 343.576 990.19 343.16 989.63 342.632C989.07 342.088 988.622 341.44 988.286 340.688C987.966 339.936 987.806 339.104 987.806 338.192ZM990.734 338.192C990.734 338.64 990.798 339.088 990.926 339.536C991.07 339.984 991.278 340.384 991.55 340.736C991.822 341.088 992.166 341.376 992.582 341.6C992.998 341.824 993.494 341.936 994.07 341.936C994.646 341.936 995.142 341.824 995.558 341.6C995.974 341.376 996.318 341.088 996.59 340.736C996.862 340.384 997.062 339.984 997.19 339.536C997.334 339.088 997.406 338.64 997.406 338.192C997.406 337.744 997.334 337.304 997.19 336.872C997.062 336.424 996.862 336.024 996.59 335.672C996.318 335.32 995.974 335.04 995.558 334.832C995.142 334.608 994.646 334.496 994.07 334.496C993.494 334.496 992.998 334.608 992.582 334.832C992.166 335.04 991.822 335.32 991.55 335.672C991.278 336.024 991.07 336.424 990.926 336.872C990.798 337.304 990.734 337.744 990.734 338.192ZM1001.47 334.784V332.48H1003.49V329.144H1006.32V332.48H1009.2V334.784H1006.32V340.136C1006.32 340.648 1006.41 341.072 1006.58 341.408C1006.77 341.744 1007.19 341.912 1007.83 341.912C1008.02 341.912 1008.23 341.896 1008.45 341.864C1008.68 341.816 1008.88 341.752 1009.05 341.672L1009.15 343.928C1008.89 344.024 1008.59 344.096 1008.24 344.144C1007.89 344.208 1007.55 344.24 1007.23 344.24C1006.46 344.24 1005.84 344.136 1005.36 343.928C1004.88 343.704 1004.49 343.408 1004.21 343.04C1003.93 342.656 1003.74 342.224 1003.63 341.744C1003.53 341.248 1003.49 340.72 1003.49 340.16V334.784H1001.47ZM1018.43 342.536H1018.36C1018.07 343.048 1017.61 343.472 1016.97 343.808C1016.33 344.128 1015.6 344.288 1014.79 344.288C1014.32 344.288 1013.83 344.224 1013.32 344.096C1012.83 343.984 1012.36 343.792 1011.93 343.52C1011.51 343.232 1011.16 342.864 1010.87 342.416C1010.6 341.952 1010.47 341.384 1010.47 340.712C1010.47 339.848 1010.71 339.16 1011.19 338.648C1011.68 338.136 1012.31 337.744 1013.08 337.472C1013.85 337.2 1014.7 337.024 1015.63 336.944C1016.57 336.848 1017.49 336.8 1018.39 336.8V336.512C1018.39 335.792 1018.12 335.264 1017.59 334.928C1017.08 334.576 1016.47 334.4 1015.75 334.4C1015.14 334.4 1014.55 334.528 1013.99 334.784C1013.43 335.04 1012.97 335.352 1012.6 335.72L1011.11 333.968C1011.77 333.36 1012.52 332.904 1013.37 332.6C1014.23 332.296 1015.11 332.144 1015.99 332.144C1017.01 332.144 1017.85 332.288 1018.51 332.576C1019.18 332.864 1019.71 333.24 1020.09 333.704C1020.47 334.168 1020.74 334.688 1020.88 335.264C1021.04 335.84 1021.12 336.416 1021.12 336.992V344H1018.43V342.536ZM1018.39 338.744H1017.74C1017.27 338.744 1016.79 338.768 1016.27 338.816C1015.76 338.848 1015.29 338.936 1014.86 339.08C1014.43 339.208 1014.07 339.4 1013.78 339.656C1013.49 339.896 1013.35 340.232 1013.35 340.664C1013.35 340.936 1013.4 341.168 1013.51 341.36C1013.64 341.536 1013.8 341.68 1013.99 341.792C1014.19 341.904 1014.4 341.984 1014.64 342.032C1014.88 342.08 1015.12 342.104 1015.36 342.104C1016.35 342.104 1017.11 341.84 1017.62 341.312C1018.13 340.784 1018.39 340.064 1018.39 339.152V338.744ZM1024.53 325.856H1027.41V344H1024.53V325.856ZM1034.51 327.008H1037.89L1042.57 340.088H1042.67L1047.4 327.008H1050.66L1043.85 344H1041.23L1034.51 327.008ZM1058.3 342.536H1058.23C1057.94 343.048 1057.48 343.472 1056.84 343.808C1056.2 344.128 1055.47 344.288 1054.65 344.288C1054.19 344.288 1053.7 344.224 1053.19 344.096C1052.69 343.984 1052.23 343.792 1051.8 343.52C1051.38 343.232 1051.03 342.864 1050.74 342.416C1050.47 341.952 1050.33 341.384 1050.33 340.712C1050.33 339.848 1050.57 339.16 1051.05 338.648C1051.55 338.136 1052.18 337.744 1052.95 337.472C1053.72 337.2 1054.57 337.024 1055.49 336.944C1056.44 336.848 1057.36 336.8 1058.25 336.8V336.512C1058.25 335.792 1057.99 335.264 1057.46 334.928C1056.95 334.576 1056.33 334.4 1055.61 334.4C1055.01 334.4 1054.42 334.528 1053.86 334.784C1053.3 335.04 1052.84 335.352 1052.47 335.72L1050.98 333.968C1051.64 333.36 1052.39 332.904 1053.24 332.6C1054.1 332.296 1054.97 332.144 1055.85 332.144C1056.88 332.144 1057.72 332.288 1058.37 332.576C1059.05 332.864 1059.57 333.24 1059.96 333.704C1060.34 334.168 1060.61 334.688 1060.75 335.264C1060.91 335.84 1060.99 336.416 1060.99 336.992V344H1058.3V342.536ZM1058.25 338.744H1057.61C1057.14 338.744 1056.65 338.768 1056.14 338.816C1055.63 338.848 1055.16 338.936 1054.73 339.08C1054.29 339.208 1053.93 339.4 1053.65 339.656C1053.36 339.896 1053.21 340.232 1053.21 340.664C1053.21 340.936 1053.27 341.168 1053.38 341.36C1053.51 341.536 1053.67 341.68 1053.86 341.792C1054.05 341.904 1054.27 341.984 1054.51 342.032C1054.75 342.08 1054.99 342.104 1055.23 342.104C1056.22 342.104 1056.97 341.84 1057.49 341.312C1058 340.784 1058.25 340.064 1058.25 339.152V338.744ZM1064.39 325.856H1067.27V344H1064.39V325.856ZM1081.28 344H1078.54V342.152H1078.5C1078.24 342.728 1077.79 343.24 1077.15 343.688C1076.53 344.12 1075.78 344.336 1074.92 344.336C1074.17 344.336 1073.52 344.208 1072.98 343.952C1072.45 343.68 1072.01 343.328 1071.66 342.896C1071.32 342.464 1071.07 341.968 1070.91 341.408C1070.75 340.848 1070.67 340.272 1070.67 339.68V332.48H1073.55V338.864C1073.55 339.2 1073.58 339.552 1073.62 339.92C1073.67 340.288 1073.78 340.624 1073.94 340.928C1074.1 341.216 1074.31 341.456 1074.58 341.648C1074.87 341.84 1075.25 341.936 1075.71 341.936C1076.16 341.936 1076.55 341.848 1076.89 341.672C1077.24 341.48 1077.52 341.24 1077.73 340.952C1077.95 340.664 1078.12 340.336 1078.23 339.968C1078.34 339.584 1078.4 339.2 1078.4 338.816V332.48H1081.28V344ZM1092.85 337.088C1092.85 336.72 1092.79 336.368 1092.68 336.032C1092.58 335.696 1092.42 335.4 1092.2 335.144C1091.98 334.888 1091.69 334.688 1091.34 334.544C1091 334.384 1090.6 334.304 1090.14 334.304C1089.27 334.304 1088.54 334.568 1087.93 335.096C1087.34 335.608 1087.01 336.272 1086.94 337.088H1092.85ZM1095.73 338.384C1095.73 338.512 1095.73 338.64 1095.73 338.768C1095.73 338.896 1095.72 339.024 1095.7 339.152H1086.94C1086.98 339.568 1087.08 339.952 1087.26 340.304C1087.45 340.64 1087.7 340.936 1088 341.192C1088.3 341.432 1088.65 341.624 1089.03 341.768C1089.42 341.912 1089.82 341.984 1090.23 341.984C1090.95 341.984 1091.56 341.856 1092.06 341.6C1092.55 341.328 1092.96 340.96 1093.28 340.496L1095.2 342.032C1094.06 343.568 1092.42 344.336 1090.26 344.336C1089.36 344.336 1088.54 344.2 1087.78 343.928C1087.03 343.64 1086.38 343.24 1085.82 342.728C1085.27 342.216 1084.84 341.592 1084.52 340.856C1084.22 340.104 1084.06 339.256 1084.06 338.312C1084.06 337.384 1084.22 336.544 1084.52 335.792C1084.84 335.024 1085.27 334.376 1085.82 333.848C1086.36 333.304 1087 332.888 1087.74 332.6C1088.49 332.296 1089.3 332.144 1090.16 332.144C1090.96 332.144 1091.7 332.28 1092.37 332.552C1093.06 332.808 1093.65 333.2 1094.14 333.728C1094.64 334.24 1095.02 334.888 1095.3 335.672C1095.58 336.44 1095.73 337.344 1095.73 338.384ZM1104.66 327.008H1107.69V341.312H1114.91V344H1104.66V327.008ZM1115.68 338.192C1115.68 337.28 1115.84 336.456 1116.16 335.72C1116.5 334.968 1116.95 334.328 1117.51 333.8C1118.07 333.272 1118.73 332.864 1119.5 332.576C1120.27 332.288 1121.08 332.144 1121.95 332.144C1122.81 332.144 1123.63 332.288 1124.39 332.576C1125.16 332.864 1125.83 333.272 1126.39 333.8C1126.95 334.328 1127.39 334.968 1127.71 335.72C1128.04 336.456 1128.21 337.28 1128.21 338.192C1128.21 339.104 1128.04 339.936 1127.71 340.688C1127.39 341.44 1126.95 342.088 1126.39 342.632C1125.83 343.16 1125.16 343.576 1124.39 343.88C1123.63 344.184 1122.81 344.336 1121.95 344.336C1121.08 344.336 1120.27 344.184 1119.5 343.88C1118.73 343.576 1118.07 343.16 1117.51 342.632C1116.95 342.088 1116.5 341.44 1116.16 340.688C1115.84 339.936 1115.68 339.104 1115.68 338.192ZM1118.61 338.192C1118.61 338.64 1118.67 339.088 1118.8 339.536C1118.95 339.984 1119.15 340.384 1119.43 340.736C1119.7 341.088 1120.04 341.376 1120.46 341.6C1120.87 341.824 1121.37 341.936 1121.95 341.936C1122.52 341.936 1123.02 341.824 1123.43 341.6C1123.85 341.376 1124.19 341.088 1124.47 340.736C1124.74 340.384 1124.94 339.984 1125.07 339.536C1125.21 339.088 1125.28 338.64 1125.28 338.192C1125.28 337.744 1125.21 337.304 1125.07 336.872C1124.94 336.424 1124.74 336.024 1124.47 335.672C1124.19 335.32 1123.85 335.04 1123.43 334.832C1123.02 334.608 1122.52 334.496 1121.95 334.496C1121.37 334.496 1120.87 334.608 1120.46 334.832C1120.04 335.04 1119.7 335.32 1119.43 335.672C1119.15 336.024 1118.95 336.424 1118.8 336.872C1118.67 337.304 1118.61 337.744 1118.61 338.192ZM1138.87 335.672C1138.65 335.352 1138.31 335.088 1137.87 334.88C1137.42 334.656 1136.96 334.544 1136.5 334.544C1135.97 334.544 1135.51 334.656 1135.11 334.88C1134.71 335.088 1134.37 335.368 1134.1 335.72C1133.84 336.072 1133.65 336.472 1133.52 336.92C1133.39 337.352 1133.33 337.792 1133.33 338.24C1133.33 338.688 1133.39 339.136 1133.52 339.584C1133.67 340.016 1133.87 340.408 1134.15 340.76C1134.42 341.112 1134.75 341.4 1135.15 341.624C1135.57 341.832 1136.05 341.936 1136.59 341.936C1137.04 341.936 1137.49 341.848 1137.94 341.672C1138.39 341.496 1138.75 341.24 1139.02 340.904L1140.82 342.728C1140.34 343.24 1139.72 343.64 1138.97 343.928C1138.23 344.2 1137.43 344.336 1136.57 344.336C1135.72 344.336 1134.91 344.2 1134.15 343.928C1133.39 343.656 1132.73 343.256 1132.15 342.728C1131.59 342.2 1131.15 341.56 1130.81 340.808C1130.49 340.056 1130.33 339.2 1130.33 338.24C1130.33 337.312 1130.49 336.472 1130.81 335.72C1131.15 334.968 1131.59 334.328 1132.15 333.8C1132.71 333.272 1133.36 332.864 1134.1 332.576C1134.85 332.288 1135.65 332.144 1136.5 332.144C1137.35 332.144 1138.16 332.304 1138.95 332.624C1139.75 332.944 1140.38 333.384 1140.84 333.944L1138.87 335.672ZM1142.77 325.856H1145.65V337.328H1145.72L1150.09 332.48H1153.78L1148.79 337.688L1154.1 344H1150.28L1145.72 338.096H1145.65V344H1142.77V325.856ZM1163.44 337.088C1163.44 336.72 1163.39 336.368 1163.27 336.032C1163.18 335.696 1163.02 335.4 1162.79 335.144C1162.57 334.888 1162.28 334.688 1161.93 334.544C1161.59 334.384 1161.19 334.304 1160.73 334.304C1159.87 334.304 1159.13 334.568 1158.52 335.096C1157.93 335.608 1157.6 336.272 1157.54 337.088H1163.44ZM1166.32 338.384C1166.32 338.512 1166.32 338.64 1166.32 338.768C1166.32 338.896 1166.31 339.024 1166.3 339.152H1157.54C1157.57 339.568 1157.67 339.952 1157.85 340.304C1158.04 340.64 1158.29 340.936 1158.59 341.192C1158.9 341.432 1159.24 341.624 1159.63 341.768C1160.01 341.912 1160.41 341.984 1160.83 341.984C1161.55 341.984 1162.15 341.856 1162.65 341.6C1163.15 341.328 1163.55 340.96 1163.87 340.496L1165.79 342.032C1164.66 343.568 1163.01 344.336 1160.85 344.336C1159.95 344.336 1159.13 344.2 1158.38 343.928C1157.63 343.64 1156.97 343.24 1156.41 342.728C1155.87 342.216 1155.43 341.592 1155.11 340.856C1154.81 340.104 1154.66 339.256 1154.66 338.312C1154.66 337.384 1154.81 336.544 1155.11 335.792C1155.43 335.024 1155.87 334.376 1156.41 333.848C1156.95 333.304 1157.59 332.888 1158.33 332.6C1159.08 332.296 1159.89 332.144 1160.75 332.144C1161.55 332.144 1162.29 332.28 1162.96 332.552C1163.65 332.808 1164.24 333.2 1164.74 333.728C1165.23 334.24 1165.62 334.888 1165.89 335.672C1166.18 336.44 1166.32 337.344 1166.32 338.384ZM1180.82 344H1178.09V342.272H1178.04C1177.64 342.944 1177.08 343.456 1176.36 343.808C1175.65 344.16 1174.89 344.336 1174.08 344.336C1173.2 344.336 1172.41 344.176 1171.7 343.856C1171.01 343.52 1170.42 343.08 1169.93 342.536C1169.45 341.976 1169.07 341.328 1168.8 340.592C1168.54 339.84 1168.41 339.04 1168.41 338.192C1168.41 337.344 1168.55 336.552 1168.82 335.816C1169.09 335.08 1169.48 334.44 1169.97 333.896C1170.47 333.352 1171.06 332.928 1171.75 332.624C1172.44 332.304 1173.19 332.144 1174.01 332.144C1174.53 332.144 1175.01 332.208 1175.42 332.336C1175.84 332.448 1176.2 332.592 1176.5 332.768C1176.82 332.944 1177.09 333.136 1177.32 333.344C1177.54 333.552 1177.73 333.752 1177.87 333.944H1177.94V325.856H1180.82V344ZM1171.34 338.192C1171.34 338.64 1171.41 339.088 1171.53 339.536C1171.68 339.984 1171.89 340.384 1172.16 340.736C1172.43 341.088 1172.77 341.376 1173.19 341.6C1173.61 341.824 1174.09 341.936 1174.65 341.936C1175.18 341.936 1175.65 341.832 1176.07 341.624C1176.49 341.4 1176.84 341.112 1177.13 340.76C1177.43 340.408 1177.65 340.016 1177.8 339.584C1177.96 339.136 1178.04 338.688 1178.04 338.24C1178.04 337.792 1177.96 337.344 1177.8 336.896C1177.65 336.448 1177.43 336.048 1177.13 335.696C1176.84 335.344 1176.49 335.056 1176.07 334.832C1175.65 334.608 1175.18 334.496 1174.65 334.496C1174.09 334.496 1173.61 334.608 1173.19 334.832C1172.77 335.04 1172.43 335.32 1172.16 335.672C1171.89 336.024 1171.68 336.424 1171.53 336.872C1171.41 337.304 1171.34 337.744 1171.34 338.192Z" fill="#555555"/>
    <path d="M986.175 210.653C990.215 210.726 994.293 211.424 998.407 212.747C1002.52 213.996 1006.08 215.906 1009.1 218.477L1000.17 227.734C998.481 225.824 996.35 224.392 993.779 223.436C991.281 222.408 988.746 221.894 986.175 221.894V244.155C988.967 245.037 991.758 246.065 994.55 247.241C997.342 248.416 999.84 249.922 1002.04 251.759C1004.32 253.522 1006.16 255.69 1007.55 258.261C1008.95 260.833 1009.65 263.992 1009.65 267.739C1009.65 271.559 1008.99 274.939 1007.66 277.877C1006.42 280.743 1004.69 283.167 1002.48 285.151C1000.35 287.061 997.856 288.531 994.991 289.559C992.199 290.588 989.26 291.139 986.175 291.212V299.147H980.224V291.212C975.375 291.065 970.709 290.184 966.228 288.567C961.819 286.878 957.852 284.343 954.326 280.963L964.024 271.706C966.007 274.057 968.505 276.004 971.517 277.547C974.53 279.016 977.432 279.788 980.224 279.861V255.396C976.991 254.514 973.979 253.522 971.187 252.42C968.395 251.245 965.934 249.775 963.803 248.012C961.746 246.249 960.13 244.155 958.954 241.73C957.779 239.232 957.191 236.22 957.191 232.694C957.191 229.387 957.815 226.449 959.064 223.877C960.387 221.232 962.113 218.992 964.244 217.155C966.448 215.318 968.909 213.885 971.628 212.857C974.42 211.755 977.285 211.094 980.224 210.873V203.379H986.175V210.653ZM980.224 221.894C977.652 222.187 975.375 223.143 973.391 224.759C971.407 226.375 970.415 228.8 970.415 232.032C970.415 235.118 971.334 237.469 973.171 239.085C975.081 240.628 977.432 241.804 980.224 242.612V221.894ZM986.175 279.861C989.26 279.714 991.722 278.612 993.558 276.555C995.469 274.498 996.424 271.816 996.424 268.51C996.424 265.277 995.432 262.853 993.448 261.237C991.538 259.547 989.113 258.188 986.175 257.159V279.861ZM1072.72 223.877H1040.87L1040.1 240.739C1041.35 240.371 1042.82 240.114 1044.51 239.967C1046.27 239.82 1047.85 239.747 1049.25 239.747C1053.07 239.747 1056.6 240.298 1059.83 241.4C1063.14 242.502 1066 244.118 1068.43 246.249C1070.85 248.306 1072.72 250.877 1074.05 253.963C1075.44 256.975 1076.14 260.465 1076.14 264.433C1076.14 268.767 1075.37 272.661 1073.83 276.114C1072.36 279.494 1070.34 282.359 1067.76 284.71C1065.19 287.061 1062.18 288.861 1058.73 290.11C1055.27 291.359 1051.6 291.984 1047.71 291.984C1041.17 291.984 1035.66 290.478 1031.18 287.465C1026.7 284.38 1023.43 280.192 1021.37 274.902L1033.38 270.494C1034.48 273.58 1036.32 276.077 1038.89 277.988C1041.46 279.824 1044.51 280.743 1048.04 280.743C1050.02 280.743 1051.9 280.412 1053.66 279.751C1055.42 279.09 1056.96 278.135 1058.29 276.886C1059.61 275.637 1060.64 274.094 1061.37 272.257C1062.18 270.347 1062.59 268.216 1062.59 265.865C1062.59 262.853 1062.07 260.355 1061.04 258.371C1060.01 256.388 1058.65 254.808 1056.96 253.632C1055.35 252.384 1053.51 251.539 1051.45 251.098C1049.4 250.583 1047.3 250.326 1045.17 250.326C1043.7 250.326 1042.12 250.437 1040.43 250.657C1038.82 250.877 1037.2 251.208 1035.59 251.649C1034.04 252.016 1032.5 252.457 1030.96 252.971C1029.49 253.486 1028.16 254.037 1026.99 254.624L1028.31 211.975H1072.72V223.877ZM1155.42 235.559C1158.87 235.559 1161.81 236.183 1164.23 237.432C1166.73 238.608 1168.75 240.188 1170.29 242.171C1171.91 244.155 1173.09 246.432 1173.82 249.004C1174.56 251.575 1174.92 254.22 1174.92 256.939V290H1161.7V260.686C1161.7 259.143 1161.59 257.526 1161.37 255.837C1161.15 254.147 1160.67 252.641 1159.93 251.318C1159.2 249.922 1158.17 248.783 1156.85 247.902C1155.6 247.02 1153.91 246.579 1151.78 246.579C1149.72 246.579 1147.96 247.02 1146.49 247.902C1145.02 248.783 1143.81 249.922 1142.85 251.318C1141.9 252.714 1141.2 254.294 1140.76 256.057C1140.32 257.747 1140.1 259.437 1140.1 261.126V290H1126.87V258.041C1126.87 254.735 1126.07 252.016 1124.45 249.886C1122.91 247.681 1120.44 246.579 1117.06 246.579C1115.08 246.579 1113.35 247.02 1111.89 247.902C1110.42 248.71 1109.2 249.775 1108.25 251.098C1107.37 252.42 1106.67 253.963 1106.15 255.726C1105.71 257.416 1105.49 259.143 1105.49 260.906V290H1092.27V237.102H1104.83V245.588H1105.05C1105.64 244.265 1106.41 243.016 1107.37 241.841C1108.4 240.665 1109.57 239.6 1110.89 238.645C1112.29 237.69 1113.87 236.955 1115.63 236.441C1117.4 235.853 1119.34 235.559 1121.47 235.559C1125.59 235.559 1129 236.477 1131.72 238.314C1134.44 240.151 1136.53 242.575 1138 245.588C1139.77 242.355 1142.12 239.894 1145.06 238.204C1148 236.441 1151.45 235.559 1155.42 235.559Z" fill="#FCBA59"/>
    <line x1="685" y1="443" x2="1067" y2="443" stroke="#D4D5D8" stroke-width="2"/>
    <line x1="1068" y1="378" x2="1068" y2="444" stroke="#D4D5D8" stroke-width="2"/>
    <line x1="585" y1="100" x2="141" y2="100" stroke="#D4D5D8" stroke-width="2"/>
    <line x1="140" y1="165" x2="140" y2="99" stroke="#D4D5D8" stroke-width="2"/>
    <circle cx="683.5" cy="333.5" r="111.5" fill="#FCBA59"/>
    <path fill-rule="evenodd" clip-rule="evenodd" d="M727.061 220.758C719.018 151.643 660.273 98 589 98C512.232 98 450 160.232 450 237C450 307.754 502.865 366.161 571.25 374.877C565.294 360.774 562 345.272 562 329C562 263.83 614.83 211 680 211C696.728 211 712.644 214.481 727.061 220.758ZM727.977 234.454C713.571 227.129 697.268 223 680 223C621.458 223 574 270.458 574 329C574 345.855 577.934 361.792 584.934 375.942C586.285 375.98 587.64 376 589 376C665.768 376 728 313.768 728 237C728 236.149 727.992 235.301 727.977 234.454Z" fill="url(#paint3_linear)"/>
    <path fill-rule="evenodd" clip-rule="evenodd" d="M590.712 375.961C666.512 375.961 727.961 314.513 727.961 238.713C727.961 236.471 727.907 234.242 727.801 232.027C713.826 225.59 698.269 222 681.873 222C621.177 222 571.974 271.204 571.974 331.9C571.974 347.439 575.199 362.224 581.015 375.624C584.219 375.847 587.452 375.961 590.712 375.961Z" fill="black"/>
    <defs>
        <linearGradient id="paint0_linear" x1="550.681" y1="0" x2="550.681" y2="363.614" gradientUnits="userSpaceOnUse">
            <stop stop-color="#F2F2F2"/>
            <stop offset="0.973958" stop-color="white"/>
        </linearGradient>
        <linearGradient id="paint1_linear" x1="559.089" y1="71.8811" x2="559.089" y2="439.273" gradientUnits="userSpaceOnUse">
            <stop stop-color="#F2F2F2"/>
            <stop offset="0.973958" stop-color="white"/>
        </linearGradient>
        <linearGradient id="paint2_linear" x1="567.962" y1="147.755" x2="567.962" y2="363.399" gradientUnits="userSpaceOnUse">
            <stop stop-color="#F2F2F2"/>
            <stop offset="0.973958" stop-color="white"/>
        </linearGradient>
        <linearGradient id="paint3_linear" x1="450" y1="237" x2="728" y2="237" gradientUnits="userSpaceOnUse">
            <stop stop-color="#2768FF"/>
            <stop offset="1"/>
        </linearGradient>
    </defs>
</svg>
