<svg width="276" height="69" viewBox="0 0 276 69" fill="none" xmlns="http://www.w3.org/2000/svg">
<g clip-path="url(#clip0_3066_8713)">
<path d="M78.347 15.7831V15.6889C78.347 13.1454 80.1964 11.3555 82.6733 11.3555C84.7208 11.3555 86.306 12.3289 86.5041 14.3229H84.8199C84.6382 13.1925 83.9777 12.6115 82.6898 12.6115C81.1211 12.6115 80.0973 13.7734 80.0973 15.6732V15.7674C80.0973 17.6829 81.0551 18.7976 82.7063 18.7976C83.9447 18.7976 84.8199 18.201 84.985 17.0077H86.6032C86.339 19.0488 84.8199 20.0851 82.7063 20.0851C79.9157 20.0851 78.347 18.3894 78.347 15.7831Z" fill="black"/>
<path d="M88.2705 15.783V15.6888C88.2705 13.2081 90.1364 11.3711 92.7784 11.3711C95.4203 11.3711 97.2697 13.161 97.2697 15.6417V15.7359C97.2697 18.2166 95.4864 20.0693 92.7784 20.0693C90.0538 20.085 88.2705 18.2323 88.2705 15.783ZM95.5524 15.7673V15.6731C95.5524 13.9303 94.5287 12.6429 92.7784 12.6429C91.0281 12.6429 90.0043 13.8675 90.0043 15.6888V15.783C90.0043 17.6357 91.1932 18.829 92.8114 18.829C94.4956 18.8133 95.5524 17.6043 95.5524 15.7673Z" fill="black"/>
<path d="M99.3014 11.4971H101.283L105.031 17.6204V11.4971H106.534V19.9755H104.816L100.804 13.4754V19.9755H99.3014V11.4971Z" fill="black"/>
<path d="M108.664 17.3373H110.266C110.381 18.1851 110.744 18.9074 112.247 18.9074C113.238 18.9074 113.931 18.3893 113.931 17.6042C113.931 16.8192 113.519 16.5209 112.082 16.3011C109.952 16.0341 108.945 15.4061 108.945 13.8203C108.945 12.4387 110.183 11.3867 112.049 11.3867C113.964 11.3867 115.12 12.2189 115.285 13.836H113.766C113.601 12.9411 113.073 12.5643 112.049 12.5643C111.025 12.5643 110.513 13.0196 110.513 13.679C110.513 14.3699 110.811 14.7153 112.363 14.9194C114.46 15.1863 115.55 15.7672 115.55 17.4629C115.55 18.9388 114.245 20.0849 112.264 20.0849C109.803 20.0849 108.78 18.9388 108.664 17.3373Z" fill="black"/>
<path d="M117.679 11.4971H123.26V12.7374H119.347V15.0611H122.484V16.2544H119.347V18.7351H123.475V19.9755H117.696L117.679 11.4971Z" fill="black"/>
<path d="M125.589 11.4971H127.57L131.319 17.6204V11.4971H132.821V19.9755H131.104L127.092 13.4754V19.9755H125.589V11.4971Z" fill="black"/>
<path d="M134.952 17.3373H136.553C136.669 18.1851 137.032 18.9074 138.535 18.9074C139.525 18.9074 140.219 18.3893 140.219 17.6042C140.219 16.8192 139.806 16.5209 138.37 16.3011C136.239 16.0341 135.232 15.4061 135.232 13.8203C135.232 12.4387 136.471 11.3867 138.337 11.3867C140.252 11.3867 141.408 12.2189 141.573 13.836H140.054C139.889 12.9411 139.36 12.5643 138.337 12.5643C137.313 12.5643 136.801 13.0196 136.801 13.679C136.801 14.3699 137.098 14.7153 138.65 14.9194C140.747 15.1863 141.821 15.7672 141.821 17.4629C141.821 18.9388 140.516 20.0849 138.551 20.0849C136.091 20.0849 135.067 18.9388 134.952 17.3373Z" fill="black"/>
<path d="M145.684 16.3015L142.729 11.4971H144.561L146.576 14.9983L148.524 11.4971H150.143L147.352 16.3015V19.9598H145.684V16.3015Z" fill="black"/>
<path d="M151.067 17.3373H152.668C152.784 18.1851 153.147 18.9074 154.65 18.9074C155.641 18.9074 156.334 18.3893 156.334 17.6042C156.334 16.8192 155.921 16.5209 154.485 16.3011C152.355 16.0341 151.347 15.4061 151.347 13.8203C151.347 12.4387 152.586 11.3867 154.452 11.3867C156.367 11.3867 157.523 12.2189 157.688 13.836H156.169C156.004 12.9411 155.476 12.5643 154.452 12.5643C153.428 12.5643 152.916 13.0196 152.916 13.679C152.916 14.3699 153.213 14.7153 154.766 14.9194C156.863 15.1863 157.952 15.7672 157.952 17.4629C157.952 18.9388 156.648 20.0849 154.666 20.0849C152.223 20.0849 151.199 18.9388 151.067 17.3373Z" fill="black"/>
<path d="M79.024 26.8842C79.024 26.6173 79.2552 26.3975 79.5359 26.3975H90.1038C101.993 26.3975 107.854 32.5208 107.854 42.1453V42.5064C107.854 52.1467 101.943 58.584 90.0543 58.584H79.5359C79.2552 58.584 79.024 58.3642 79.024 58.0973V26.8842ZM89.8231 52.9003C96.6426 52.9003 99.8626 49.2578 99.8626 42.6006V42.2395C99.8626 35.6295 96.8738 32.0654 89.7405 32.0654H86.7023V52.9003H89.8231Z" fill="black"/>
<path d="M110.232 28.2808C110.232 26.2554 111.933 24.7324 114.112 24.7324C116.341 24.7324 118.042 26.2711 118.042 28.2808C118.042 30.2905 116.341 31.8292 114.112 31.8292C111.933 31.8449 110.232 30.3062 110.232 28.2808ZM111.256 35.0321H117.052C117.332 35.0321 117.563 35.2519 117.563 35.5188V58.0965C117.563 58.3634 117.332 58.5833 117.052 58.5833H111.256C110.975 58.5833 110.744 58.3634 110.744 58.0965V35.5188C110.744 35.2519 110.975 35.0321 111.256 35.0321Z" fill="black"/>
<path d="M122.897 24.3711H128.693C128.973 24.3711 129.204 24.5909 129.204 24.8578V58.0963C129.204 58.3632 128.973 58.5831 128.693 58.5831H122.897C122.616 58.5831 122.385 58.3632 122.385 58.0963V24.8578C122.385 24.5909 122.616 24.3711 122.897 24.3711Z" fill="black"/>
<path d="M133.465 28.2808C133.465 26.2554 135.165 24.7324 137.345 24.7324C139.574 24.7324 141.275 26.2711 141.275 28.2808C141.275 30.2905 139.574 31.8292 137.345 31.8292C135.165 31.8449 133.465 30.3062 133.465 28.2808ZM134.488 35.0321H140.284C140.565 35.0321 140.796 35.2519 140.796 35.5188V58.0965C140.796 58.3634 140.565 58.5833 140.284 58.5833H134.488C134.208 58.5833 133.976 58.3634 133.976 58.0965V35.5188C133.993 35.2519 134.208 35.0321 134.488 35.0321Z" fill="black"/>
<path d="M144.859 59.0697H150.671C150.902 59.0697 151.1 59.211 151.166 59.4309C151.695 61.2992 153.28 62.4925 156.566 62.4925C160.727 62.4925 162.808 60.42 162.808 56.7303V53.182C161.156 55.8668 158.135 57.5311 154.849 57.5468C148.838 57.5468 144.05 53.2762 144.05 46.2893V45.9753C144.05 39.224 148.789 34.498 154.931 34.498C158.96 34.498 161.371 36.1623 162.791 38.5488V35.5186C162.791 35.2517 163.022 35.0319 163.303 35.0319H169.099C169.38 35.0319 169.611 35.2517 169.611 35.5186V56.7303C169.561 63.7015 164.69 67.2655 156.549 67.2655C148.871 67.2655 145.206 64.1882 144.33 59.6507C144.281 59.3838 144.462 59.1325 144.743 59.0854C144.793 59.0697 144.826 59.0697 144.859 59.0697ZM163.006 46.1951V45.8811C163.006 41.8774 160.777 39.4438 157.045 39.4438C153.214 39.4438 151.084 42.0501 151.084 45.9282V46.2893C151.084 50.1988 153.495 52.6324 156.913 52.6324C160.496 52.6324 163.006 50.1988 163.006 46.1951Z" fill="black"/>
<path d="M172.054 47.1067V46.7456C172.054 39.3192 177.586 34.499 184.785 34.499C191.176 34.499 196.856 38.0474 196.856 46.4787V47.7976C196.856 48.0645 196.625 48.2843 196.344 48.2843H179.006C179.204 52.1938 181.417 54.4547 185.165 54.4547C188.137 54.4547 189.706 53.3085 190.234 51.5187C190.301 51.3145 190.499 51.1732 190.713 51.1732H196.195C196.476 51.1732 196.707 51.393 196.707 51.66C196.707 51.6914 196.707 51.7228 196.691 51.7542C195.667 56.4644 191.473 59.0864 184.967 59.0864C177.487 59.0707 172.054 54.6117 172.054 47.1067ZM190.168 44.2649C189.937 40.7165 188.038 39.0051 184.769 39.0051C181.698 39.0051 179.617 40.9363 179.089 44.2649H190.168Z" fill="black"/>
<path d="M199.861 35.0328H205.706C205.987 35.0328 206.218 35.2527 206.218 35.5196V38.7696C207.44 36.4302 210.148 34.499 214.259 34.499C219.131 34.499 222.598 37.2938 222.598 43.5898V58.0973C222.598 58.3642 222.367 58.584 222.086 58.584H216.241C215.96 58.584 215.729 58.3642 215.729 58.0973V44.5475C215.729 41.3446 214.408 39.8216 211.37 39.8216C208.431 39.8216 206.218 41.533 206.218 45.0028V58.113C206.218 58.3799 205.987 58.5997 205.706 58.5997H199.861C199.58 58.5997 199.349 58.3799 199.349 58.113V35.5196C199.349 35.2527 199.58 35.0328 199.861 35.0328Z" fill="black"/>
<path d="M224.778 47.1067V46.7456C224.778 39.1464 230.508 34.499 237.558 34.499C243.123 34.499 248.291 36.7599 249.15 43.0873C249.183 43.3543 248.985 43.6055 248.704 43.6369C248.688 43.6369 248.655 43.6369 248.638 43.6369H243.139C242.908 43.6369 242.694 43.4799 242.644 43.26C242.083 40.7793 240.365 39.6332 237.707 39.6332C234.157 39.6332 231.796 42.161 231.796 46.6514V47.0125C231.796 51.7385 234.025 54.1721 237.856 54.1721C240.481 54.1721 242.628 52.7747 243.106 50.0271C243.139 49.7916 243.354 49.6346 243.602 49.6346H248.803C249.084 49.6346 249.315 49.8544 249.315 50.1213C249.315 50.137 249.315 50.1527 249.315 50.1684C248.704 55.4595 244.493 59.0864 237.525 59.0864C230.276 59.0707 224.778 54.8001 224.778 47.1067Z" fill="black"/>
<path d="M251.049 47.1067V46.7456C251.049 39.3192 256.58 34.499 263.78 34.499C270.17 34.499 275.85 38.0474 275.85 46.4787V47.7976C275.85 48.0645 275.619 48.2843 275.338 48.2843H258C258.199 52.1938 260.411 54.4547 264.16 54.4547C267.132 54.4547 268.7 53.3085 269.229 51.5187C269.295 51.3145 269.493 51.1575 269.724 51.1732H275.206C275.487 51.1732 275.718 51.393 275.718 51.66C275.718 51.6914 275.718 51.7228 275.702 51.7542C274.678 56.4644 270.484 59.0864 263.978 59.0864C256.498 59.0707 251.049 54.6117 251.049 47.1067ZM269.179 44.2649C268.948 40.7165 267.049 39.0051 263.78 39.0051C260.709 39.0051 258.628 40.9363 258.1 44.2649H269.179Z" fill="black"/>
<path d="M36.1417 0.773438C16.4095 0.773438 0.392578 16.0032 0.392578 34.7656C0.392578 53.528 16.4095 68.7734 36.1417 68.7734C55.8739 68.7734 71.9073 53.5437 71.9073 34.7656C71.9073 15.9875 55.8904 0.773438 36.1417 0.773438ZM26.8453 53.3867C26.8453 53.5594 26.6966 53.7007 26.515 53.7007H19.5468C19.3652 53.7007 19.2166 53.5594 19.2166 53.3867V27.6845C19.2166 27.5118 19.3652 27.3705 19.5468 27.3705H26.515C26.6966 27.3705 26.8453 27.5118 26.8453 27.6845V53.3867ZM23.0144 23.7908C20.5871 23.7908 18.6717 22.0794 18.6717 19.8185C18.6717 17.5576 20.5871 15.8462 23.0144 15.8462C25.5078 15.8462 27.4067 17.5576 27.4067 19.8185C27.4067 22.0794 25.5078 23.7908 23.0144 23.7908ZM40.0551 53.371C40.0551 53.5437 39.9065 53.685 39.7248 53.685H32.7567C32.575 53.685 32.4264 53.5437 32.4264 53.371V16.1602C32.4264 15.9875 32.575 15.8462 32.7567 15.8462H39.7248C39.9065 15.8462 40.0551 15.9875 40.0551 16.1602V53.371ZM53.2484 53.3867C53.2484 53.5594 53.0998 53.7007 52.9182 53.7007H45.9665C45.7848 53.7007 45.6362 53.5594 45.6362 53.3867V27.6845C45.6362 27.5118 45.7848 27.3705 45.9665 27.3705H52.9347C53.1163 27.3705 53.2649 27.5118 53.2649 27.6845V53.3867H53.2484ZM53.6282 23.4924C53.6282 23.6651 53.4796 23.8065 53.2979 23.8065H45.6032C45.4216 23.8065 45.273 23.6651 45.273 23.4924V16.1602C45.273 15.9875 45.4216 15.8462 45.6032 15.8462H53.2979C53.4796 15.8462 53.6282 15.9875 53.6282 16.1602V23.4924Z" fill="black"/>
</g>
<defs>
<clipPath id="clip0_3066_8713">
<rect width="275.458" height="68" fill="white" transform="translate(0.392578 0.773438)"/>
</clipPath>
</defs>
</svg>
