<svg width="189" height="47" viewBox="0 0 189 47" fill="none" xmlns="http://www.w3.org/2000/svg">
<path d="M11.9608 36.3189C9.77894 36.3189 7.85281 35.7678 6.18235 34.6655C4.5119 33.5518 3.20508 31.9837 2.2619 29.9609C1.31871 27.9268 0.847124 25.5234 0.847124 22.7507C0.847124 20.0007 1.31871 17.6143 2.2619 15.5916C3.20508 13.5689 4.51758 12.0064 6.1994 10.9041C7.88121 9.80185 9.8244 9.25071 12.0289 9.25071C13.7335 9.25071 15.0801 9.5348 16.0687 10.103C17.0687 10.6598 17.8301 11.2962 18.3528 12.0121C18.8869 12.7166 19.3017 13.2962 19.5971 13.7507H19.938V0.864346H23.9608V35.7734H20.0744V31.7507H19.5971C19.3017 32.228 18.8812 32.8303 18.3358 33.5575C17.7903 34.2734 17.0119 34.9155 16.0005 35.4837C14.9892 36.0405 13.6426 36.3189 11.9608 36.3189ZM12.5062 32.7053C14.1199 32.7053 15.4835 32.2848 16.5971 31.4439C17.7108 30.5916 18.5574 29.4155 19.1369 27.9155C19.7164 26.4041 20.0062 24.6598 20.0062 22.6825C20.0062 20.728 19.7221 19.0178 19.1539 17.5518C18.5858 16.0746 17.7449 14.9268 16.6312 14.1087C15.5176 13.2791 14.1426 12.8643 12.5062 12.8643C10.8017 12.8643 9.38121 13.3018 8.24485 14.1768C7.11985 15.0405 6.27326 16.2166 5.70508 17.7053C5.14826 19.1825 4.86985 20.8416 4.86985 22.6825C4.86985 24.5462 5.15394 26.2393 5.72212 27.7621C6.30167 29.2734 7.15394 30.478 8.27894 31.3757C9.41531 32.2621 10.8244 32.7053 12.5062 32.7053ZM38.1514 36.3871C36.4924 36.3871 34.9867 36.0746 33.6344 35.4496C32.2821 34.8132 31.2083 33.8984 30.4128 32.7053C29.6174 31.5007 29.2196 30.0462 29.2196 28.3416C29.2196 26.8416 29.5151 25.6257 30.106 24.6939C30.6969 23.7507 31.4867 23.0121 32.4753 22.478C33.4639 21.9439 34.5549 21.5462 35.748 21.2848C36.9526 21.0121 38.1628 20.7962 39.3787 20.6371C40.9696 20.4325 42.2594 20.2791 43.248 20.1768C44.248 20.0632 44.9753 19.8757 45.4299 19.6143C45.8958 19.353 46.1287 18.8984 46.1287 18.2507V18.1143C46.1287 16.4325 45.6685 15.1257 44.748 14.1939C43.8389 13.2621 42.4583 12.7962 40.606 12.7962C38.6855 12.7962 37.1799 13.2166 36.0889 14.0575C34.998 14.8984 34.231 15.7962 33.7878 16.7507L29.9696 15.3871C30.6514 13.7962 31.5605 12.5575 32.6969 11.6712C33.8446 10.7734 35.0946 10.1484 36.4469 9.79616C37.8105 9.43253 39.1514 9.25071 40.4696 9.25071C41.3105 9.25071 42.2764 9.35298 43.3674 9.55753C44.4696 9.75071 45.5321 10.1541 46.5549 10.7678C47.5889 11.3814 48.4469 12.3075 49.1287 13.5462C49.8105 14.7848 50.1514 16.4439 50.1514 18.5234V35.7734H46.1287V32.228H45.9242C45.6514 32.7962 45.1969 33.4041 44.5605 34.0518C43.9242 34.6996 43.0776 35.2507 42.0208 35.7053C40.9639 36.1598 39.6742 36.3871 38.1514 36.3871ZM38.7651 32.7734C40.356 32.7734 41.6969 32.4609 42.7878 31.8359C43.8901 31.2109 44.7196 30.4041 45.2764 29.4155C45.8446 28.4268 46.1287 27.3871 46.1287 26.2962V22.6143C45.9583 22.8189 45.5833 23.0064 45.0037 23.1768C44.4355 23.3359 43.7764 23.478 43.0264 23.603C42.2878 23.7166 41.5662 23.8189 40.8617 23.9098C40.1685 23.9893 39.606 24.0575 39.1742 24.1143C38.1287 24.2507 37.1514 24.4723 36.2424 24.7791C35.3446 25.0746 34.6174 25.5234 34.0605 26.1257C33.5151 26.7166 33.2424 27.5234 33.2424 28.5462C33.2424 29.9439 33.7594 31.0007 34.7935 31.7166C35.8389 32.4212 37.1628 32.7734 38.7651 32.7734ZM56.0538 45.5916V9.59162H59.9401V13.7507H60.4174C60.7129 13.2962 61.122 12.7166 61.6447 12.0121C62.1788 11.2962 62.9401 10.6598 63.9288 10.103C64.9288 9.5348 66.281 9.25071 67.9856 9.25071C70.1901 9.25071 72.1333 9.80185 73.8151 10.9041C75.497 12.0064 76.8095 13.5689 77.7526 15.5916C78.6958 17.6143 79.1674 20.0007 79.1674 22.7507C79.1674 25.5234 78.6958 27.9268 77.7526 29.9609C76.8095 31.9837 75.5026 33.5518 73.8322 34.6655C72.1617 35.7678 70.2356 36.3189 68.0538 36.3189C66.372 36.3189 65.0254 36.0405 64.014 35.4837C63.0026 34.9155 62.2242 34.2734 61.6788 33.5575C61.1333 32.8303 60.7129 32.228 60.4174 31.7507H60.0765V45.5916H56.0538ZM60.0083 22.6825C60.0083 24.6598 60.2981 26.4041 60.8776 27.9155C61.4572 29.4155 62.3038 30.5916 63.4174 31.4439C64.531 32.2848 65.8947 32.7053 67.5083 32.7053C69.1901 32.7053 70.5935 32.2621 71.7185 31.3757C72.8549 30.478 73.7072 29.2734 74.2754 27.7621C74.8549 26.2393 75.1447 24.5462 75.1447 22.6825C75.1447 20.8416 74.8606 19.1825 74.2924 17.7053C73.7356 16.2166 72.889 15.0405 71.7526 14.1768C70.6276 13.3018 69.2129 12.8643 67.5083 12.8643C65.872 12.8643 64.497 13.2791 63.3833 14.1087C62.2697 14.9268 61.4288 16.0746 60.8606 17.5518C60.2924 19.0178 60.0083 20.728 60.0083 22.6825ZM83.8638 45.5916V9.59162H87.7501V13.7507H88.2274C88.5229 13.2962 88.932 12.7166 89.4547 12.0121C89.9888 11.2962 90.7501 10.6598 91.7388 10.103C92.7388 9.5348 94.091 9.25071 95.7956 9.25071C98.0001 9.25071 99.9433 9.80185 101.625 10.9041C103.307 12.0064 104.619 13.5689 105.563 15.5916C106.506 17.6143 106.977 20.0007 106.977 22.7507C106.977 25.5234 106.506 27.9268 105.563 29.9609C104.619 31.9837 103.313 33.5518 101.642 34.6655C99.9717 35.7678 98.0456 36.3189 95.8638 36.3189C94.182 36.3189 92.8354 36.0405 91.824 35.4837C90.8126 34.9155 90.0342 34.2734 89.4888 33.5575C88.9433 32.8303 88.5229 32.228 88.2274 31.7507H87.8865V45.5916H83.8638ZM87.8183 22.6825C87.8183 24.6598 88.1081 26.4041 88.6876 27.9155C89.2672 29.4155 90.1138 30.5916 91.2274 31.4439C92.341 32.2848 93.7047 32.7053 95.3183 32.7053C97.0001 32.7053 98.4035 32.2621 99.5285 31.3757C100.665 30.478 101.517 29.2734 102.085 27.7621C102.665 26.2393 102.955 24.5462 102.955 22.6825C102.955 20.8416 102.671 19.1825 102.102 17.7053C101.546 16.2166 100.699 15.0405 99.5626 14.1768C98.4376 13.3018 97.0229 12.8643 95.3183 12.8643C93.682 12.8643 92.307 13.2791 91.1933 14.1087C90.0797 14.9268 89.2388 16.0746 88.6706 17.5518C88.1024 19.0178 87.8183 20.728 87.8183 22.6825ZM114.606 36.0462C113.765 36.0462 113.043 35.745 112.441 35.1428C111.839 34.5405 111.537 33.8189 111.537 32.978C111.537 32.1371 111.839 31.4155 112.441 30.8132C113.043 30.2109 113.765 29.9098 114.606 29.9098C115.446 29.9098 116.168 30.2109 116.77 30.8132C117.373 31.4155 117.674 32.1371 117.674 32.978C117.674 33.5348 117.532 34.0462 117.248 34.5121C116.975 34.978 116.606 35.353 116.14 35.6371C115.685 35.9098 115.174 36.0462 114.606 36.0462ZM134.089 36.3189C131.725 36.3189 129.651 35.7564 127.867 34.6314C126.095 33.5064 124.708 31.9325 123.708 29.9098C122.72 27.8871 122.225 25.5234 122.225 22.8189C122.225 20.0916 122.72 17.7109 123.708 15.6768C124.708 13.6428 126.095 12.0632 127.867 10.9382C129.651 9.81321 131.725 9.25071 134.089 9.25071C136.453 9.25071 138.521 9.81321 140.293 10.9382C142.078 12.0632 143.464 13.6428 144.453 15.6768C145.453 17.7109 145.953 20.0916 145.953 22.8189C145.953 25.5234 145.453 27.8871 144.453 29.9098C143.464 31.9325 142.078 33.5064 140.293 34.6314C138.521 35.7564 136.453 36.3189 134.089 36.3189ZM134.089 32.7053C135.884 32.7053 137.362 32.245 138.521 31.3246C139.68 30.4041 140.538 29.1939 141.095 27.6939C141.651 26.1939 141.93 24.5689 141.93 22.8189C141.93 21.0689 141.651 19.4382 141.095 17.9268C140.538 16.4155 139.68 15.1939 138.521 14.2621C137.362 13.3303 135.884 12.8643 134.089 12.8643C132.293 12.8643 130.816 13.3303 129.657 14.2621C128.498 15.1939 127.64 16.4155 127.083 17.9268C126.526 19.4382 126.248 21.0689 126.248 22.8189C126.248 24.5689 126.526 26.1939 127.083 27.6939C127.64 29.1939 128.498 30.4041 129.657 31.3246C130.816 32.245 132.293 32.7053 134.089 32.7053ZM150.653 35.7734V9.59162H154.54V13.5462H154.812C155.29 12.2507 156.153 11.1996 157.403 10.3928C158.653 9.58594 160.062 9.18253 161.63 9.18253C161.926 9.18253 162.295 9.18821 162.738 9.19957C163.182 9.21094 163.517 9.22798 163.744 9.25071V13.3416C163.608 13.3075 163.295 13.2564 162.807 13.1882C162.329 13.1087 161.824 13.0689 161.29 13.0689C160.017 13.0689 158.88 13.3359 157.88 13.87C156.892 14.3928 156.108 15.12 155.528 16.0518C154.96 16.9723 154.676 18.0234 154.676 19.2053V35.7734H150.653ZM176.844 46.1371C174.901 46.1371 173.23 45.8871 171.832 45.3871C170.435 44.8984 169.27 44.2507 168.338 43.4439C167.418 42.6484 166.685 41.7962 166.139 40.8871L169.344 38.6371C169.707 39.1143 170.168 39.6598 170.725 40.2734C171.281 40.8984 172.043 41.4382 173.009 41.8928C173.986 42.3587 175.264 42.5916 176.844 42.5916C178.957 42.5916 180.702 42.0803 182.077 41.0575C183.452 40.0348 184.139 38.4325 184.139 36.2507V30.9325H183.798C183.503 31.4098 183.082 32.0007 182.537 32.7053C182.003 33.3984 181.23 34.0178 180.219 34.5632C179.219 35.0973 177.867 35.3643 176.162 35.3643C174.048 35.3643 172.151 34.8643 170.469 33.8643C168.798 32.8643 167.475 31.4098 166.497 29.5007C165.531 27.5916 165.048 25.2734 165.048 22.5462C165.048 19.8643 165.52 17.5291 166.463 15.5405C167.406 13.5405 168.719 11.995 170.401 10.9041C172.082 9.80185 174.026 9.25071 176.23 9.25071C177.935 9.25071 179.287 9.5348 180.287 10.103C181.298 10.6598 182.071 11.2962 182.605 12.0121C183.151 12.7166 183.571 13.2962 183.867 13.7507H184.276V9.59162H188.162V36.5234C188.162 38.7734 187.651 40.603 186.628 42.0121C185.617 43.4325 184.253 44.4723 182.537 45.1314C180.832 45.8018 178.935 46.1371 176.844 46.1371ZM176.707 31.7507C178.321 31.7507 179.685 31.3814 180.798 30.6428C181.912 29.9041 182.759 28.8416 183.338 27.4553C183.918 26.0689 184.207 24.4098 184.207 22.478C184.207 20.5916 183.923 18.9268 183.355 17.4837C182.787 16.0405 181.946 14.9098 180.832 14.0916C179.719 13.2734 178.344 12.8643 176.707 12.8643C175.003 12.8643 173.582 13.2962 172.446 14.1598C171.321 15.0234 170.475 16.1825 169.906 17.6371C169.35 19.0916 169.071 20.7053 169.071 22.478C169.071 24.2962 169.355 25.9041 169.923 27.3018C170.503 28.6882 171.355 29.7791 172.48 30.5746C173.617 31.3587 175.026 31.7507 176.707 31.7507Z" fill="black"/>
</svg>
