<svg width="595px" height="228px" viewBox="0 0 595 228" xmlns="http://www.w3.org/2000/svg">
	<path fill="#000000" d="M282.487,51.461c-6.165,0-13.054-2.509-16.707-5.857l-4.682,6.85
		c5.443,4.758,14.234,7.154,21.425,7.154c11.534,0,21.352-5.976,21.352-16.783c0-9.896-8.524-13.437-17.164-14.655l-3.692-0.496
		c-6.889-1.026-11.075-2.661-11.075-7.114c0-4.871,4.871-7.955,11.988-7.955c5.443,0,10.39,1.674,14.957,4.566l4.377-6.962
		c-5.366-3.541-11.495-5.75-19.257-5.75c-11.568,0-21.008,5.976-21.008,16.631c0,9.936,7.878,13.625,15.793,14.733l4.149,0.569
		c7.802,1.065,11.988,3.044,11.988,7.194C294.932,48.496,289.452,51.461,282.487,51.461z"/>
	<path fill="#000000" d="M347.6,40.388c0-11.376-7.077-19.145-17.239-19.145c-10.733,0-18.155,7.769-18.155,19.185
		c0,11.568,7.687,19.179,18.648,19.179c5.52,0,10.543-1.33,14.996-5.136l-3.957-5.671c-3.045,2.436-6.89,3.845-10.543,3.845
		c-5.139,0-9.82-2.74-10.849-9.285h26.947C347.561,42.446,347.6,41.415,347.6,40.388z M320.54,37.305
		c0.798-5.328,3.997-8.98,9.668-8.98c5.06,0,8.369,3.309,9.246,8.98H320.54z"/>
	<path fill="#000000" d="M373.781,28.74c3.501,0,6.164,1.331,8.752,3.766l5.1-5.44c-3.236-3.845-8.144-5.823-13.623-5.823
		c-11.571,0-19.185,8.259-19.185,19.184c0,10.923,7.613,19.182,19.185,19.182c5.479,0,10.274-1.979,13.623-5.823l-4.91-5.482
		c-2.32,2.17-5.44,3.808-8.941,3.808c-6.128,0-10.773-4.795-10.773-11.684C363.008,33.538,367.653,28.74,373.781,28.74z"/>
	<path fill="#000000" d="M396.153,22.194v21.008c0,11.607,8.335,16.405,16.898,16.405c8.526,0,16.898-4.798,16.898-16.405
		V22.194h-7.991v20.287c0,7.041-3.885,9.629-8.907,9.629c-5.023,0-8.907-2.588-8.907-9.629V22.194H396.153z"/>
	<path fill="#000000" d="M442.048,22.196v36.458H450V38.601c0-6.241,3.616-9.784,8.679-9.784c1.939,0,4.377,0.459,6.052,1.333
		l1.902-7.881c-1.826-0.722-3.692-1.026-6.128-1.026c-4.453,0-8.144,1.562-10.578,5.062v-4.109H442.048z"/>
	<rect x="474.734" y="22.195" fill="#000000" width="7.991" height="36.46"/>
	<path fill="#000000" d="M478.692,3.966c-3.196,0-5.554,2.472-5.554,5.629c0,3.202,2.357,5.558,5.554,5.558
		c3.159,0,5.635-2.356,5.635-5.558C484.327,6.438,481.852,3.966,478.692,3.966z"/>
	<path fill="#000000" d="M498.103,11.157v11.038h-7.27v7.233h7.27V45.45c0,9.705,4.831,14.159,13.09,14.159
		c4.604,0,8.26-1.638,11.19-3.614l-3.159-6.359c-2.168,1.37-4.871,2.475-7.343,2.475c-3.199,0-5.787-1.942-5.787-6.813v-15.87
		h13.967v-7.233h-13.967V11.157H498.103z"/>
	<polygon fill="#000000" points="536.842,74.108 565.612,22.195 556.86,22.195 545.558,43.127 533.834,22.195 524.891,22.195 
		541.064,51.158 528.011,74.108 					"/>
	<path fill="#000000" d="M304.79,101.247c0-10.007-6.545-15.413-18.877-15.413h-21.924v53.283h8.603v-22.418h7.416
		l16.072,22.418h10.655l-16.642-22.418C297.228,116.595,304.79,112.375,304.79,101.247z M285.685,108.897h-13.093V93.901h13.093
		c6.813,0,10.162,2.283,10.162,7.346C295.846,106.422,292.65,108.897,285.685,108.897z"/>
	<path fill="#000000" d="M329.905,140.068c5.517,0,10.539-1.336,14.993-5.142l-3.958-5.671
		c-3.044,2.436-6.889,3.845-10.542,3.845c-5.139,0-9.82-2.74-10.847-9.285h26.944c0.115-0.913,0.152-1.939,0.152-2.971
		c0-11.376-7.078-19.143-17.239-19.143c-10.734,0-18.153,7.766-18.153,19.182C311.256,132.452,318.943,140.068,329.905,140.068z
			M329.257,108.783c5.062,0,8.372,3.312,9.248,8.983h-18.916C320.389,112.439,323.585,108.783,329.257,108.783z"/>
	<path fill="#000000" d="M369.099,133.1c-5.899,0-9.437-1.711-12.024-3.727l-3.692,5.973c5.291,3.961,11.912,4.683,15.641,4.683
		c10.506,0,16.595-4.907,16.595-11.912c0-6.241-4.719-9.59-12.674-10.773l-3.769-0.569c-3.349-0.496-6.012-1.178-6.012-3.766
		s2.511-4.341,6.889-4.341c4.566,0,9.06,1.793,11.267,3.124l3.425-6.202c-3.806-2.441-9.021-3.845-14.768-3.845
		c-9.288,0-15.072,4.488-15.072,11.681c0,5.896,4.263,9.589,12.369,10.694l3.809,0.496c4.374,0.608,6.316,1.939,6.316,4.031
		C377.397,131.389,374.578,133.1,369.099,133.1z"/>
	<path fill="#000000" d="M410.998,140.068c5.52,0,10.542-1.336,14.996-5.142l-3.961-5.671
		c-3.044,2.436-6.886,3.845-10.542,3.845c-5.136,0-9.82-2.74-10.847-9.285h26.947c0.113-0.913,0.152-1.939,0.152-2.971
		c0-11.376-7.077-19.143-17.239-19.143c-10.733,0-18.155,7.766-18.155,19.182C392.35,132.452,400.036,140.068,410.998,140.068z
			M410.353,108.783c5.06,0,8.372,3.312,9.246,8.983h-18.914C401.485,112.439,404.682,108.783,410.353,108.783z"/>
	<path fill="#000000" d="M434.97,120.885c0,11.15,8.03,19.185,18.231,19.185c5.215,0,8.904-2.098,11.456-5.333v4.38h7.954
		v-36.46h-7.954v4.414c-2.552-3.236-6.241-5.367-11.456-5.367C443,101.703,434.97,109.733,434.97,120.885z M454.154,109.201
		c6.545,0,10.996,5.023,10.996,11.684c0,6.663-4.451,11.687-10.996,11.687c-6.853,0-11.002-5.294-11.002-11.687
		C443.152,114.491,447.302,109.201,454.154,109.201z"/>
	<path fill="#000000" d="M485.088,139.115h7.955v-20.059c0-6.241,3.616-9.781,8.679-9.781c1.939,0,4.375,0.457,6.049,1.336
		l1.903-7.881c-1.827-0.722-3.69-1.026-6.126-1.026c-4.453,0-8.146,1.562-10.581,5.062v-4.11h-7.879V139.115z"/>
	<path fill="#000000" d="M513.629,120.885c0,10.926,7.613,19.185,19.185,19.185c5.479,0,10.274-1.984,13.623-5.823l-4.91-5.485
		c-2.32,2.173-5.44,3.811-8.944,3.811c-6.125,0-10.771-4.797-10.771-11.687c0-6.892,4.646-11.684,10.771-11.684
		c3.504,0,6.168,1.331,8.756,3.766l5.099-5.44c-3.233-3.845-8.144-5.824-13.623-5.824
		C521.242,101.704,513.629,109.962,513.629,120.885z"/>
	<path fill="#000000" d="M574.443,101.704c-3.692,0-8.183,1.139-11.114,5.288v-22.68h-7.991v54.805h7.991v-20.211
		c0-6.243,4.302-9.631,9.44-9.631c5.367,0,8.487,3.428,8.487,9.555v20.287h7.991v-22.914
		C589.248,107.68,583.12,101.704,574.443,101.704z"/>
	<polygon fill="#000000" points="263.99,166.29 263.99,219.572 302.088,219.572 302.088,211.432 272.593,211.432 
		272.593,166.29 					"/>
	<path fill="#000000" d="M325.375,220.525c5.212,0,8.904-2.092,11.455-5.328v4.375h7.955v-36.46h-7.955v4.417
		c-2.551-3.233-6.243-5.364-11.455-5.364c-10.201,0-18.231,8.027-18.231,19.179
		C307.144,212.497,315.174,220.525,325.375,220.525z M326.324,189.657c6.546,0,10.999,5.025,10.999,11.687
		c0,6.66-4.453,11.684-10.999,11.684c-6.85,0-10.998-5.288-10.998-11.684C315.326,194.95,319.475,189.657,326.324,189.657z"/>
	<path fill="#000000" d="M376.633,182.166c-5.212,0-8.868,2.092-11.416,5.288v-21.6h-7.955v53.72h7.955v-4.339
		c2.548,3.197,6.204,5.288,11.416,5.288c10.201,0,18.231-8.027,18.231-19.179C394.864,190.194,386.834,182.166,376.633,182.166z
			M375.683,213.028c-6.545,0-10.999-5.025-10.999-11.684c0-6.663,4.454-11.687,10.999-11.687c6.85,0,10.999,5.294,10.999,11.687
		C386.682,207.738,382.532,213.028,375.683,213.028z"/>
	<path fill="#000000" d="M418.265,189.128c4.566,0,9.057,1.787,11.267,3.117l3.425-6.201c-3.808-2.436-9.02-3.845-14.77-3.845
		c-9.285,0-15.069,4.493-15.069,11.687c0,5.896,4.262,9.589,12.368,10.694l3.809,0.49c4.375,0.612,6.313,1.945,6.313,4.037
		c0,2.742-2.812,4.453-8.292,4.453c-5.902,0-9.44-1.711-12.028-3.729l-3.692,5.976c5.291,3.958,11.912,4.68,15.642,4.68
		c10.503,0,16.594-4.91,16.594-11.912c0-6.24-4.719-9.592-12.673-10.771l-3.769-0.569c-3.349-0.496-6.013-1.178-6.013-3.771
		C411.376,190.875,413.891,189.128,418.265,189.128z"/>
	<path fill="#000000" d="M35.455,113.955c-2.799-0.494-3.25,3.083-4.767,11.74l-12.777,72.845
		c-3.106,17.941,7.862,26.192,24.278,18.313c0,0,140.628-69.78,140.98-69.955c0.203-0.094,0.834-0.432,0.97-1.218
		c0.155-0.891-0.437-1.739-1.328-1.892c-0.226-0.045-0.448-0.037-0.66,0.017c0,0-71.988,29-99.434,37.839
		c-35.463,11.422-45.588-0.102-45.289-54.345C37.481,117.292,37.946,114.395,35.455,113.955z"/>
	<path fill="#000000" d="M198.977,95.453c0,0-131.912-85.056-132.239-85.27c-0.186-0.127-0.795-0.496-1.544-0.208
		c-0.849,0.321-1.269,1.266-0.947,2.105c0.082,0.217,0.206,0.403,0.355,0.561c0,0,61.75,46.98,83.384,66.029
		c27.959,24.613,23.247,39.2-23.497,66.706c-8.625,5.07-11.351,6.155-10.452,8.523c1.009,2.658,4.31,1.212,12.523-1.914
		l69.107-26.308C212.668,119.161,214.145,105.521,198.977,95.453z"/>
	<path fill="#000000" d="M15.736,22.961c0,0-9.801,156.703-9.829,157.086c-0.017,0.226-0.042,0.944,0.572,1.451
		c0.693,0.584,1.722,0.488,2.3-0.205c0.149-0.172,0.253-0.372,0.313-0.578c0,0,10.841-76.854,16.898-105.046
		c7.825-36.433,22.854-39.449,69.676-12.082c8.64,5.049,10.923,6.9,12.546,4.956c1.821-2.176-1.048-4.352-7.785-9.993
		L43.727,11.083C29.734-0.578,17.115,4.797,15.736,22.961z"/>
</svg>
