<svg width="71" height="15" viewBox="0 0 71 15" fill="none" xmlns="http://www.w3.org/2000/svg">
    <path d="M8.892 4.28L8.55 5.036C7.758 4.37 6.732 3.992 5.58 3.992C2.61 3.992 0.486 6.134 0.486 9.14C0.486 12.164 2.61 14.324 5.58 14.324C6.714 14.324 7.722 13.964 8.514 13.316L8.802 14H11.394V4.28H8.892ZM6.03 11.372C4.77 11.372 3.852 10.418 3.852 9.14C3.852 7.88 4.77 6.944 6.03 6.944C7.29 6.944 8.208 7.88 8.208 9.14C8.208 10.418 7.29 11.372 6.03 11.372ZM17.4092 14H20.7572V0.77H17.4092V14ZM31.7008 11.084C30.9988 11.084 30.5668 10.652 30.5668 9.968V6.872H32.9248V4.28H30.4948V1.454H29.7928L25.4368 6.08V6.872H27.2188V10.526C27.2188 12.686 28.5328 14 30.6748 14H32.9788V11.084H31.7008ZM46.2983 4.28L45.9563 5.036C45.1643 4.37 44.1383 3.992 42.9863 3.992C40.0163 3.992 37.8923 6.134 37.8923 9.14C37.8923 12.164 40.0163 14.324 42.9863 14.324C44.1203 14.324 45.1283 13.964 45.9203 13.316L46.2083 14H48.8003V4.28H46.2983ZM43.4363 11.372C42.1763 11.372 41.2583 10.418 41.2583 9.14C41.2583 7.88 42.1763 6.944 43.4363 6.944C44.6963 6.944 45.6143 7.88 45.6143 9.14C45.6143 10.418 44.6963 11.372 43.4363 11.372ZM54.8335 3.074H58.1455V0.229999H54.8335V3.074ZM54.8155 14H58.1635V4.28H54.8155V14ZM69.603 4.244C68.451 4.244 67.623 4.568 66.939 5.36L66.417 4.28H64.167V14H67.515V9.068C67.515 7.826 68.019 7.304 69.189 7.304H70.503V4.244H69.603Z" fill="black"/>
</svg>
