<svg width="174" height="152" viewBox="0 0 174 152" fill="none" xmlns="http://www.w3.org/2000/svg">
<path d="M128.975 44.9768C128.453 46.3567 98.5892 31.0596 79.974 44.2094C69.0459 53.2328 65.1266 68.0816 69.0459 81.1331C71.1644 88.1822 72.1919 91.0678 75.669 96.0351C78.2189 99.6778 81.7954 103.652 86.7627 106.466C87.8955 107.303 103.112 116.469 121.588 114.293C150.65 110.875 173.164 72.7182 173.164 72.7182C173.164 72.7182 167.921 84.0022 167.437 85.0328C153.402 114.904 130.081 122.865 130.081 122.865C109.352 129.942 88.6045 120.883 86.3145 119.73C71.3438 112.199 64.883 105.243 62.8711 101.465C59.5901 95.3019 51.3658 71.224 59.247 53.2328C65.0876 39.9004 77.7662 34.3198 79.2613 33.6928C103.387 23.571 129.449 43.7229 128.975 44.9768Z" fill="url(#paint0_linear)"/>
<path d="M128.975 44.9767C127.995 45.8899 120.952 37.3936 109.645 31.2577C106.412 29.504 94.0788 23.2003 79.0154 23.5239C54.0439 24.0579 37.4492 42.4701 34.49 45.8825C19.6994 62.937 12.7356 89.1981 21.0548 109.634C31.8665 136.19 69.2438 154.755 65.4257 151.664L62.1159 150.407C58.2979 148.893 11.4473 128.023 9.76895 85.7536C8.82269 61.9362 16.4418 42.6472 21.0548 37.3818C29.1151 28.1816 35.578 23.7524 41.0265 20.827C51.9745 14.9528 72.5642 9.91913 87.845 12.2315C104.991 14.8268 115.753 26.8573 121.001 32.7241C125.736 38.0152 129.767 44.2387 128.975 44.9767Z" fill="url(#paint1_linear)"/>
<path d="M79.2628 33.696C75.7863 35.5973 72.6851 38.1181 70.1114 41.1349C67.9727 43.6694 64.1557 49.0523 62.2685 61.2014C60.6509 71.6127 58.8671 83.0964 64.3134 95.538C73.1579 115.734 93.9927 122.382 98.9606 123.967C111.664 127.871 125.261 127.746 137.89 123.609C153.434 118.578 164.305 108.176 165.261 109.393C165.852 110.148 161.851 114.36 159.073 116.934C150.595 124.631 140.21 129.904 129.003 132.202C121.104 133.776 112.993 133.972 105.027 132.782C98.4832 131.821 79.0188 128.982 64.0694 112.382C59.8826 107.733 48.0756 94.6248 48.9985 76.076C49.6645 62.7148 56.5994 53.2733 58.9523 50.1568C64.3449 43.1533 71.3014 37.5154 79.2628 33.696V33.696Z" fill="url(#paint2_linear)"/>
<path d="M128.975 44.9768C130.134 44.4599 127.509 30.0242 117.282 17.9969C113.158 13.1368 108.193 9.06247 102.625 5.96968C79.6078 -6.56277 52.861 4.14438 46.7349 6.59875C40.4595 9.11187 26.9007 14.7501 15.6596 28.8397C2.98844 44.7237 1.1119 61.7644 0.390479 69.2237C-2.69233 101.075 13.4442 126.201 14.967 125.711C16.1327 125.338 8.17155 109.577 9.7689 85.7537C10.3774 76.685 11.687 60.3642 23.1348 44.4204C30.0695 35.0173 39.1488 27.4142 49.6141 22.2467C55.67 19.2412 76.2214 9.04019 97.9203 16.7333C104.531 19.1253 110.618 22.7763 115.846 27.4854C125.293 36.159 128.028 45.4009 128.975 44.9768Z" fill="url(#paint3_linear)"/>
<path d="M90.1992 132.661C89.6557 133.591 58.7328 125.274 44.6295 98.7486C42.5068 94.7584 31.3989 73.6998 37.8298 57.1408C40.5194 50.2145 45.8144 42.4605 47.9531 40.052C51.4078 36.1622 58.9842 35.2565 66.4264 32.0877C69.7703 30.6973 73.5154 30.3849 77.1039 29.9056C80.6613 29.4657 83.8128 29.5601 87.3806 29.9056C92.227 30.226 112.179 36.3506 105.473 35.2918C99.181 34.2983 85.0501 30.8509 77.1039 35.2918C76.3771 35.6977 75.5588 36.2146 75.1176 36.4933C68.6986 40.5293 63.1192 45.7718 58.687 51.9319C57.1451 54.1214 50.5756 63.705 50.0556 76.0826C49.4109 91.5693 57.8814 102.868 62.8802 109.538C75.5012 126.363 90.5924 131.996 90.1992 132.661Z" fill="url(#paint4_linear)"/>
<path d="M75.1727 22.8496C81.6855 21.9064 87.2597 21.5812 93.7174 22.8496C101.129 24.3448 105.227 25.886 110.275 28.4792C118.896 32.9084 129.807 44.2656 128.976 45.9702C127.496 49.0088 92.0217 22.5437 63.7746 34.6756C48.562 41.2088 38.2319 60.5042 36.7923 63.4211C33.3215 69.8535 33.1143 75.2277 32.7984 82.5337C32.5608 91.2084 34.9904 98.0673 37.2068 104.322C40.36 113.224 45.4354 122.719 45.3246 122.771C45.3193 122.771 45.3012 122.748 45.2959 122.741C28.7597 98.5352 26.9951 87.1188 26.9951 87.1188C26.2492 82.2977 23.0641 61.6993 36.7923 44.3104C49.3079 28.4585 70.3178 23.5598 75.1727 22.8496Z" fill="url(#paint5_linear)"/>
<defs>
<linearGradient id="paint0_linear" x1="114.548" y1="30.8592" x2="114.548" y2="125.543" gradientUnits="userSpaceOnUse">
<stop stop-color="#FAB961"/>
<stop offset="1"/>
</linearGradient>
<linearGradient id="paint1_linear" x1="69.3819" y1="11.6571" x2="69.3819" y2="152" gradientUnits="userSpaceOnUse">
<stop stop-color="#FAB961"/>
<stop offset="1"/>
</linearGradient>
<linearGradient id="paint2_linear" x1="107.133" y1="33.696" x2="107.133" y2="133.549" gradientUnits="userSpaceOnUse">
<stop stop-color="#FAB961"/>
<stop offset="1"/>
</linearGradient>
<linearGradient id="paint3_linear" x1="64.6145" y1="0" x2="64.6145" y2="125.718" gradientUnits="userSpaceOnUse">
<stop/>
<stop offset="0.414296" stop-color="#FAB961"/>
</linearGradient>
<linearGradient id="paint4_linear" x1="66.1198" y1="30.4959" x2="66.1198" y2="132.73" gradientUnits="userSpaceOnUse">
<stop/>
<stop offset="1" stop-color="#FAB961"/>
</linearGradient>
<linearGradient id="paint5_linear" x1="77.5812" y1="24.4773" x2="77.5812" y2="122.771" gradientUnits="userSpaceOnUse">
<stop/>
<stop offset="1" stop-color="#FAB961"/>
</linearGradient>
</defs>
</svg>