<svg width="416" height="240" viewBox="0 0 416 240" fill="none" xmlns="http://www.w3.org/2000/svg">
    <g clip-path="url(#clip0)">
        <path d="M184.465 86.8499L183.426 89.1466C181.02 87.1233 177.903 85.975 174.404 85.975C165.381 85.975 158.928 92.4823 158.928 101.614C158.928 110.801 165.381 117.363 174.404 117.363C177.849 117.363 180.911 116.27 183.317 114.301L184.192 116.379H192.066V86.8499H184.465ZM175.771 108.395C171.943 108.395 169.154 105.497 169.154 101.614C169.154 97.7866 171.943 94.943 175.771 94.943C179.599 94.943 182.387 97.7866 182.387 101.614C182.387 105.497 179.599 108.395 175.771 108.395ZM210.34 116.379H220.511V76.1867H210.34V116.379ZM253.758 107.52C251.625 107.52 250.313 106.208 250.313 104.13V94.7243H257.476V86.8499H250.094V78.2646H247.961L234.728 92.3182V94.7243H240.141V105.825C240.141 112.387 244.133 116.379 250.641 116.379H257.64V107.52H253.758ZM298.104 86.8499L297.065 89.1466C294.659 87.1233 291.542 85.975 288.042 85.975C279.02 85.975 272.567 92.4823 272.567 101.614C272.567 110.801 279.02 117.363 288.042 117.363C291.487 117.363 294.55 116.27 296.956 114.301L297.831 116.379H305.705V86.8499H298.104ZM289.409 108.395C285.582 108.395 282.793 105.497 282.793 101.614C282.793 97.7866 285.582 94.943 289.409 94.943C293.237 94.943 296.026 97.7866 296.026 101.614C296.026 105.497 293.237 108.395 289.409 108.395ZM324.034 83.1861H334.096V74.5462H324.034V83.1861ZM323.979 116.379H334.15V86.8499H323.979V116.379ZM368.903 86.7405C365.403 86.7405 362.888 87.7248 360.81 90.1309L359.224 86.8499H352.389V116.379H362.56V101.396C362.56 97.6225 364.091 96.0367 367.645 96.0367H371.637V86.7405H368.903Z" fill="white"/>
    </g>
    <path d="M203.645 71.0161C202.821 73.1949 155.667 49.0415 126.275 69.8044C109.02 84.0518 102.832 107.497 109.02 128.105C112.365 139.235 113.987 143.791 119.478 151.634C123.504 157.386 129.151 163.661 136.994 168.105C138.783 169.425 162.808 183.898 191.982 180.463C237.868 175.066 273.417 114.818 273.417 114.818C273.417 114.818 265.139 132.635 264.375 134.262C242.214 181.427 205.392 193.998 205.392 193.998C172.661 205.172 139.902 190.868 136.286 189.048C112.648 177.156 102.447 166.174 99.2705 160.207C94.0899 150.477 81.1041 112.459 93.5481 84.0518C102.77 63.0007 122.789 54.1892 125.15 53.1993C163.242 37.2174 204.394 69.0363 203.645 71.0161Z" fill="url(#paint0_linear)"/>
    <path d="M203.645 71.016C202.097 72.4578 190.977 59.0426 173.124 49.3543C168.019 46.5853 148.545 36.6321 124.761 37.1431C85.3324 37.9862 59.1302 67.058 54.4578 72.446C31.1041 99.3743 20.1087 140.839 33.2443 173.106C50.3154 215.037 109.332 244.35 103.304 239.469L98.0777 237.484C92.0491 235.095 18.0745 202.141 15.4245 135.401C13.9305 97.7941 25.9606 67.3378 33.2443 59.0239C45.9711 44.4973 56.1757 37.5039 64.7785 32.8849C82.0649 23.6097 114.575 15.6618 138.703 19.3129C165.775 23.4108 182.768 42.4063 191.055 51.6696C198.53 60.024 204.895 69.8507 203.645 71.016Z" fill="url(#paint1_linear)"/>
    <path d="M125.151 53.2041C119.662 56.206 114.766 60.1863 110.702 64.9497C107.325 68.9515 101.298 77.4509 98.3183 96.6335C95.7642 113.072 92.9476 131.205 101.547 150.849C115.512 182.737 148.409 193.235 156.253 195.738C176.311 201.901 197.779 201.704 217.721 195.173C242.265 187.228 259.428 170.804 260.937 172.725C261.871 173.918 255.553 180.568 251.167 184.633C237.781 196.786 221.384 205.112 203.689 208.74C191.217 211.225 178.41 211.535 165.832 209.655C155.499 208.138 124.766 203.655 101.162 177.445C94.5511 170.105 75.9085 149.407 77.3656 120.12C78.4172 99.0232 89.3672 84.1156 93.0822 79.1947C101.597 68.1366 112.581 59.2347 125.151 53.2041Z" fill="url(#paint2_linear)"/>
    <path d="M203.645 71.0161C205.474 70.1999 201.33 47.4066 185.183 28.4162C178.671 20.7423 170.831 14.3092 162.039 9.42582C125.697 -10.3623 83.4648 6.54376 73.7919 10.4191C63.8834 14.3872 42.4748 23.2896 24.7257 45.5364C4.7186 70.6164 1.75563 97.5228 0.616546 109.301C-4.25104 159.592 21.2277 199.264 23.632 198.492C25.4727 197.902 12.9024 173.016 15.4246 135.401C16.3853 121.081 18.4531 95.3119 36.5287 70.1375C47.4781 55.2904 61.8139 43.2857 78.3381 35.1264C87.9 30.3809 120.35 14.274 154.611 26.421C165.05 30.1978 174.661 35.9626 182.915 43.3979C197.83 57.0931 202.15 71.6856 203.645 71.0161Z" fill="url(#paint3_linear)"/>
    <path d="M142.42 209.465C141.562 210.932 92.7361 197.8 70.4677 155.919C67.1161 149.618 49.5773 116.368 59.7314 90.2221C63.9781 79.2859 72.3387 67.0427 75.7155 63.2399C81.1703 57.0981 93.133 55.6681 104.884 50.6646C110.164 48.4693 116.077 47.976 121.743 47.2192C127.36 46.5245 132.336 46.6736 137.97 47.2192C145.622 47.7251 177.124 57.3955 166.536 55.7237C156.602 54.1551 134.29 48.7117 121.743 55.7237C120.596 56.3645 119.303 57.1808 118.607 57.6209C108.472 63.9935 99.662 72.2711 92.6638 81.9976C90.2291 85.4547 79.8563 100.587 79.0352 120.13C78.0172 144.583 91.3918 162.423 99.2846 172.955C119.213 199.52 143.041 208.414 142.42 209.465Z" fill="url(#paint4_linear)"/>
    <path d="M118.693 36.0787C128.976 34.5895 137.778 34.076 147.974 36.0787C159.676 38.4396 166.148 40.873 174.118 44.9676C187.73 51.961 204.958 69.8935 203.646 72.585C201.309 77.3828 145.297 35.5956 100.696 54.7513C76.676 65.067 60.3654 95.5334 58.0923 100.139C52.6122 110.295 52.285 118.781 51.7862 130.317C51.411 144.014 55.2472 154.843 58.7468 164.719C63.7255 178.775 71.7394 193.767 71.5644 193.85C71.556 193.85 71.5274 193.813 71.519 193.803C45.4094 155.582 42.6231 137.556 42.6231 137.556C41.4453 129.944 36.4162 97.4203 58.0923 69.9642C77.8538 44.9349 111.027 37.2001 118.693 36.0787Z" fill="url(#paint5_linear)"/>
    <defs>
        <linearGradient id="paint0_linear" x1="180.866" y1="48.7251" x2="180.866" y2="198.225" gradientUnits="userSpaceOnUse">
            <stop stop-color="#FAB961"/>
            <stop offset="1"/>
        </linearGradient>
        <linearGradient id="paint1_linear" x1="109.55" y1="18.406" x2="109.55" y2="240" gradientUnits="userSpaceOnUse">
            <stop stop-color="#FAB961"/>
            <stop offset="1"/>
        </linearGradient>
        <linearGradient id="paint2_linear" x1="169.158" y1="53.2041" x2="169.158" y2="210.867" gradientUnits="userSpaceOnUse">
            <stop stop-color="#FAB961"/>
            <stop offset="1"/>
        </linearGradient>
        <linearGradient id="paint3_linear" x1="102.023" y1="0" x2="102.023" y2="198.503" gradientUnits="userSpaceOnUse">
            <stop/>
            <stop offset="0.414296" stop-color="#FAB961"/>
        </linearGradient>
        <linearGradient id="paint4_linear" x1="104.4" y1="48.1513" x2="104.4" y2="209.574" gradientUnits="userSpaceOnUse">
            <stop/>
            <stop offset="1" stop-color="#FAB961"/>
        </linearGradient>
        <linearGradient id="paint5_linear" x1="122.496" y1="38.6487" x2="122.496" y2="193.85" gradientUnits="userSpaceOnUse">
            <stop/>
            <stop offset="1" stop-color="#FAB961"/>
        </linearGradient>
        <clipPath id="clip0">
            <rect width="265.214" height="46.4808" fill="white" transform="translate(150.38 79.2905)"/>
        </clipPath>
    </defs>
</svg>
