<svg width="553" height="116" viewBox="0 0 553 116" fill="none" xmlns="http://www.w3.org/2000/svg">
    <path d="M-6.10352e-05 98.6638C-0.118225 98.2385 113.569 47.6284 258.603 44.1861C424.256 40.2545 544.008 99.9124 543.462 101.945C542.835 104.274 384.185 31.5173 178.528 55.3444C75.235 67.3113 0.0952759 99.0085 -6.10352e-05 98.6638Z" fill="url(#paint0_linear)"/>
    <rect x="542.312" y="87" width="2.375" height="28.5" fill="url(#paint1_linear)"/>
    <rect x="534" y="102.438" width="2.375" height="19" transform="rotate(-90 534 102.438)" fill="url(#paint2_linear)"/>
    <rect x="8.3125" y="87" width="2.375" height="28.5" fill="url(#paint3_linear)"/>
    <rect y="102.438" width="2.375" height="19" transform="rotate(-90 0 102.438)" fill="url(#paint4_linear)"/>
    <rect x="281.312" width="2.375" height="28.5" fill="url(#paint5_linear)"/>
    <rect x="273" y="15.4375" width="2.375" height="19" transform="rotate(-90 273 15.4375)" fill="url(#paint6_linear)"/>
    <defs>
        <linearGradient id="paint0_linear" x1="631.285" y1="73" x2="-0.000150291" y2="73" gradientUnits="userSpaceOnUse">
            <stop offset="0.328125" stop-color="#FAB961"/>
            <stop offset="1"/>
        </linearGradient>
        <linearGradient id="paint1_linear" x1="543.5" y1="87" x2="543.5" y2="115.5" gradientUnits="userSpaceOnUse">
            <stop stop-color="white" stop-opacity="0"/>
            <stop offset="0.520833" stop-color="white"/>
            <stop offset="1" stop-color="white" stop-opacity="0"/>
        </linearGradient>
        <linearGradient id="paint2_linear" x1="535.187" y1="102.438" x2="535.187" y2="121.438" gradientUnits="userSpaceOnUse">
            <stop stop-color="white" stop-opacity="0"/>
            <stop offset="0.520833" stop-color="white"/>
            <stop offset="1" stop-color="white" stop-opacity="0"/>
        </linearGradient>
        <linearGradient id="paint3_linear" x1="9.5" y1="87" x2="9.5" y2="115.5" gradientUnits="userSpaceOnUse">
            <stop stop-color="white" stop-opacity="0"/>
            <stop offset="0.520833" stop-color="white"/>
            <stop offset="1" stop-color="white" stop-opacity="0"/>
        </linearGradient>
        <linearGradient id="paint4_linear" x1="1.1875" y1="102.438" x2="1.1875" y2="121.438" gradientUnits="userSpaceOnUse">
            <stop stop-color="white" stop-opacity="0"/>
            <stop offset="0.520833" stop-color="white"/>
            <stop offset="1" stop-color="white" stop-opacity="0"/>
        </linearGradient>
        <linearGradient id="paint5_linear" x1="282.5" y1="0" x2="282.5" y2="28.5" gradientUnits="userSpaceOnUse">
            <stop stop-color="white" stop-opacity="0"/>
            <stop offset="0.520833" stop-color="white"/>
            <stop offset="1" stop-color="white" stop-opacity="0"/>
        </linearGradient>
        <linearGradient id="paint6_linear" x1="274.187" y1="15.4375" x2="274.187" y2="34.4375" gradientUnits="userSpaceOnUse">
            <stop stop-color="white" stop-opacity="0"/>
            <stop offset="0.520833" stop-color="white"/>
            <stop offset="1" stop-color="white" stop-opacity="0"/>
        </linearGradient>
    </defs>
</svg>
