<svg width="1440" height="225" viewBox="0 0 1440 225" fill="none" xmlns="http://www.w3.org/2000/svg">
<g opacity="0.8">
<path d="M59.7256 79.6362L61.4696 90.5971L60.6727 101.339C60.6727 101.339 59.8628 96.4763 59.7899 96.024C59.7169 95.5717 58.907 90.7089 58.907 90.7089L59.7256 79.6362Z" fill="url(#paint0_linear)"/>
<path d="M51.8608 90.8335L60.251 89.2017L68.4992 90.1074C68.4992 90.1074 64.7772 90.8675 64.431 90.9358C64.0848 91.0041 60.3629 91.7643 60.3629 91.7643L51.8608 90.8335Z" fill="url(#paint1_linear)"/>
</g>
<g opacity="0.8">
<path d="M394.194 96.7001L395.938 107.661L395.141 118.403C395.141 118.403 394.331 113.54 394.258 113.088C394.185 112.636 393.375 107.773 393.375 107.773L394.194 96.7001Z" fill="url(#paint2_linear)"/>
<path d="M386.329 107.897L394.719 106.266L402.967 107.171C402.967 107.171 399.245 107.931 398.899 108C398.553 108.068 394.831 108.828 394.831 108.828L386.329 107.897Z" fill="url(#paint3_linear)"/>
</g>
<g opacity="0.8">
<path d="M1185.52 59.7758L1186.58 66.4399L1186.09 72.9709C1186.09 72.9709 1185.6 70.0144 1185.56 69.7394C1185.51 69.4644 1185.02 66.5079 1185.02 66.5079L1185.52 59.7758Z" fill="url(#paint4_linear)"/>
<path d="M1180.74 66.5836L1185.84 65.5914L1190.85 66.1421C1190.85 66.1421 1188.59 66.6042 1188.38 66.6458C1188.17 66.6873 1185.91 67.1495 1185.91 67.1495L1180.74 66.5836Z" fill="url(#paint5_linear)"/>
</g>
<g opacity="0.8">
<path d="M42.6274 18.8603L43.6877 25.5244L43.2032 32.0554C43.2032 32.0554 42.7108 29.0989 42.6665 28.8239C42.6221 28.5489 42.1297 25.5924 42.1297 25.5924L42.6274 18.8603Z" fill="url(#paint6_linear)"/>
<path d="M37.8459 25.668L42.9471 24.6759L47.9619 25.2266C47.9619 25.2266 45.699 25.6887 45.4885 25.7302C45.278 25.7718 43.0151 26.2339 43.0151 26.2339L37.8459 25.668Z" fill="url(#paint7_linear)"/>
</g>
<g opacity="0.7">
<path d="M1414.48 25.802L1415.85 35.9664L1414.88 45.8727C1414.88 45.8727 1414.24 41.3626 1414.18 40.9431C1414.12 40.5237 1413.48 36.0135 1413.48 36.0135L1414.48 25.802Z" fill="url(#paint8_linear)"/>
<path d="M1406.97 35.9742L1414.76 34.6505L1422.36 35.668C1422.36 35.668 1418.9 36.2887 1418.58 36.3442C1418.26 36.3997 1414.8 37.0204 1414.8 37.0204L1406.97 35.9742Z" fill="url(#paint9_linear)"/>
<path d="M1117.12 167.293L1117.95 173.473L1117.36 179.496C1117.36 179.496 1116.97 176.754 1116.94 176.499C1116.9 176.244 1116.51 173.502 1116.51 173.502L1117.12 167.293Z" fill="url(#paint10_linear)"/>
<path d="M1112.55 173.478L1117.29 172.673L1121.91 173.292C1121.91 173.292 1119.81 173.669 1119.61 173.703C1119.41 173.736 1117.31 174.114 1117.31 174.114L1112.55 173.478Z" fill="url(#paint11_linear)"/>
<path d="M1227.01 84.079L1227.85 90.2588L1227.26 96.2817C1227.26 96.2817 1226.87 93.5396 1226.83 93.2846C1226.8 93.0296 1226.41 90.2874 1226.41 90.2874L1227.01 84.079Z" fill="url(#paint12_linear)"/>
<path d="M1222.45 90.2636L1227.18 89.4588L1231.8 90.0774C1231.8 90.0774 1229.7 90.4548 1229.51 90.4885C1229.31 90.5223 1227.21 90.8997 1227.21 90.8997L1222.45 90.2636Z" fill="url(#paint13_linear)"/>
<path d="M1398.42 24.236L1399.25 30.4158L1398.66 36.4387C1398.66 36.4387 1398.27 33.6966 1398.23 33.4416C1398.2 33.1866 1397.81 30.4444 1397.81 30.4444L1398.42 24.236Z" fill="url(#paint14_linear)"/>
<path d="M1393.85 30.4208L1398.58 29.616L1403.2 30.2347C1403.2 30.2347 1401.1 30.612 1400.91 30.6458C1400.71 30.6795 1398.61 31.0569 1398.61 31.0569L1393.85 30.4208Z" fill="url(#paint15_linear)"/>
<path d="M1071.87 211.718L1072.7 217.898L1072.11 223.921C1072.11 223.921 1071.72 221.179 1071.69 220.924C1071.65 220.669 1071.26 217.927 1071.26 217.927L1071.87 211.718Z" fill="url(#paint16_linear)"/>
<path d="M1067.3 217.903L1072.04 217.098L1076.66 217.717C1076.66 217.717 1074.56 218.094 1074.36 218.128C1074.17 218.162 1072.07 218.539 1072.07 218.539L1067.3 217.903Z" fill="url(#paint17_linear)"/>
<path d="M577.438 176.835L578.272 183.015L577.681 189.038C577.681 189.038 577.291 186.296 577.256 186.041C577.221 185.786 576.831 183.044 576.831 183.044L577.438 176.835Z" fill="url(#paint18_linear)"/>
<path d="M572.871 183.02L577.606 182.215L582.226 182.834C582.226 182.834 580.126 183.211 579.93 183.245C579.735 183.279 577.634 183.656 577.634 183.656L572.871 183.02Z" fill="url(#paint19_linear)"/>
<path d="M385.851 205.817L386.684 211.997L386.093 218.02C386.093 218.02 385.703 215.278 385.668 215.023C385.633 214.768 385.243 212.026 385.243 212.026L385.851 205.817Z" fill="url(#paint20_linear)"/>
<path d="M381.284 212.002L386.018 211.197L390.639 211.816C390.639 211.816 388.538 212.193 388.343 212.227C388.148 212.261 386.047 212.638 386.047 212.638L381.284 212.002Z" fill="url(#paint21_linear)"/>
<path d="M628.333 83.3749L629.167 89.5547L628.576 95.5776C628.576 95.5776 628.186 92.8355 628.151 92.5805C628.116 92.3255 627.726 89.5833 627.726 89.5833L628.333 83.3749Z" fill="url(#paint22_linear)"/>
<path d="M623.766 89.5595L628.501 88.7547L633.121 89.3733C633.121 89.3733 631.021 89.7507 630.825 89.7844C630.63 89.8182 628.529 90.1956 628.529 90.1956L623.766 89.5595Z" fill="url(#paint23_linear)"/>
<path d="M1301.7 162.098L1302.53 168.278L1301.94 174.301C1301.94 174.301 1301.55 171.559 1301.52 171.304C1301.48 171.049 1301.09 168.307 1301.09 168.307L1301.7 162.098Z" fill="url(#paint24_linear)"/>
<path d="M1297.13 168.283L1301.87 167.478L1306.49 168.097C1306.49 168.097 1304.39 168.474 1304.19 168.508C1304 168.542 1301.9 168.919 1301.9 168.919L1297.13 168.283Z" fill="url(#paint25_linear)"/>
<path d="M1331.66 17.4144L1332.49 23.5942L1331.9 29.6172C1331.9 29.6172 1331.51 26.8751 1331.48 26.62C1331.44 26.365 1331.05 23.6229 1331.05 23.6229L1331.66 17.4144Z" fill="url(#paint26_linear)"/>
<path d="M1327.09 23.5993L1331.83 22.7945L1336.45 23.4131C1336.45 23.4131 1334.35 23.7905 1334.15 23.8242C1333.96 23.858 1331.86 24.2354 1331.86 24.2354L1327.09 23.5993Z" fill="url(#paint27_linear)"/>
<path d="M1313.04 111.075L1313.87 117.255L1313.28 123.278C1313.28 123.278 1312.89 120.536 1312.85 120.281C1312.82 120.026 1312.43 117.284 1312.43 117.284L1313.04 111.075Z" fill="url(#paint28_linear)"/>
<path d="M1308.47 117.26L1313.2 116.455L1317.82 117.074C1317.82 117.074 1315.72 117.451 1315.53 117.485C1315.33 117.518 1313.23 117.896 1313.23 117.896L1308.47 117.26Z" fill="url(#paint29_linear)"/>
<path d="M1255.4 5.76793L1256.23 11.9477L1255.64 17.9707C1255.64 17.9707 1255.25 15.2286 1255.22 14.9736C1255.18 14.7185 1254.79 11.9764 1254.79 11.9764L1255.4 5.76793Z" fill="url(#paint30_linear)"/>
<path d="M1250.83 11.9528L1255.57 11.148L1260.19 11.7666C1260.19 11.7666 1258.09 12.144 1257.89 12.1778C1257.7 12.2115 1255.6 12.5889 1255.6 12.5889L1250.83 11.9528Z" fill="url(#paint31_linear)"/>
<path d="M1205.78 148.974L1206.61 155.154L1206.02 161.177C1206.02 161.177 1205.63 158.435 1205.59 158.18C1205.56 157.925 1205.17 155.183 1205.17 155.183L1205.78 148.974Z" fill="url(#paint32_linear)"/>
<path d="M1201.21 155.159L1205.94 154.354L1210.57 154.973C1210.57 154.973 1208.46 155.35 1208.27 155.384C1208.07 155.418 1205.97 155.795 1205.97 155.795L1201.21 155.159Z" fill="url(#paint33_linear)"/>
<path d="M983.345 129.68L984.179 135.86L983.588 141.883C983.588 141.883 983.198 139.14 983.163 138.885C983.128 138.63 982.738 135.888 982.738 135.888L983.345 129.68Z" fill="url(#paint34_linear)"/>
<path d="M978.778 135.865L983.513 135.06L988.134 135.679C988.134 135.679 986.033 136.056 985.838 136.09C985.642 136.123 983.542 136.501 983.542 136.501L978.778 135.865Z" fill="url(#paint35_linear)"/>
<path d="M1134.04 107.999L1134.87 114.178L1134.28 120.201C1134.28 120.201 1133.89 117.459 1133.86 117.204C1133.82 116.949 1133.43 114.207 1133.43 114.207L1134.04 107.999Z" fill="url(#paint36_linear)"/>
<path d="M1129.47 114.183L1134.21 113.379L1138.83 113.997C1138.83 113.997 1136.73 114.375 1136.53 114.408C1136.34 114.442 1134.24 114.82 1134.24 114.82L1129.47 114.183Z" fill="url(#paint37_linear)"/>
<path d="M1349.73 189.425L1350.57 195.605L1349.98 201.628C1349.98 201.628 1349.59 198.886 1349.55 198.631C1349.52 198.376 1349.13 195.633 1349.13 195.633L1349.73 189.425Z" fill="url(#paint38_linear)"/>
<path d="M1345.17 195.61L1349.9 194.805L1354.52 195.424C1354.52 195.424 1352.42 195.801 1352.23 195.835C1352.03 195.868 1349.93 196.246 1349.93 196.246L1345.17 195.61Z" fill="url(#paint39_linear)"/>
<path d="M1188.69 194.913L1189.52 201.093L1188.93 207.116C1188.93 207.116 1188.54 204.374 1188.51 204.119C1188.47 203.864 1188.08 201.122 1188.08 201.122L1188.69 194.913Z" fill="url(#paint40_linear)"/>
<path d="M1184.12 201.098L1188.86 200.293L1193.48 200.912C1193.48 200.912 1191.38 201.289 1191.18 201.323C1190.99 201.357 1188.89 201.734 1188.89 201.734L1184.12 201.098Z" fill="url(#paint41_linear)"/>
<path d="M1226.88 198.77L1227.71 204.95L1227.12 210.973C1227.12 210.973 1226.73 208.231 1226.7 207.976C1226.66 207.721 1226.27 204.979 1226.27 204.979L1226.88 198.77Z" fill="url(#paint42_linear)"/>
<path d="M1222.31 204.955L1227.05 204.15L1231.67 204.769C1231.67 204.769 1229.57 205.146 1229.37 205.18C1229.18 205.213 1227.07 205.591 1227.07 205.591L1222.31 204.955Z" fill="url(#paint43_linear)"/>
<path d="M1038.67 151.177L1039.51 157.357L1038.92 163.38C1038.92 163.38 1038.53 160.638 1038.49 160.382C1038.46 160.127 1038.07 157.385 1038.07 157.385L1038.67 151.177Z" fill="url(#paint44_linear)"/>
<path d="M1034.11 157.361L1038.84 156.557L1043.46 157.175C1043.46 157.175 1041.36 157.553 1041.17 157.586C1040.97 157.62 1038.87 157.998 1038.87 157.998L1034.11 157.361Z" fill="url(#paint45_linear)"/>
<path d="M1191.29 161.099L1192.12 167.278L1191.53 173.301C1191.53 173.301 1191.14 170.559 1191.1 170.304C1191.07 170.049 1190.68 167.307 1190.68 167.307L1191.29 161.099Z" fill="url(#paint46_linear)"/>
<path d="M1186.72 167.283L1191.45 166.478L1196.07 167.097C1196.07 167.097 1193.97 167.474 1193.78 167.508C1193.58 167.542 1191.48 167.919 1191.48 167.919L1186.72 167.283Z" fill="url(#paint47_linear)"/>
<path d="M37.1822 171.454L38.0157 177.634L37.425 183.657C37.425 183.657 37.0349 180.915 37 180.66C36.965 180.405 36.5749 177.662 36.5749 177.662L37.1822 171.454Z" fill="url(#paint48_linear)"/>
<path d="M32.6153 177.639L37.3498 176.834L41.9706 177.452C41.9706 177.452 39.8699 177.83 39.6745 177.864C39.4791 177.897 37.3784 178.275 37.3784 178.275L32.6153 177.639Z" fill="url(#paint49_linear)"/>
<path d="M103.37 124.299L104.204 130.479L103.613 136.502C103.613 136.502 103.223 133.76 103.188 133.505C103.153 133.25 102.763 130.508 102.763 130.508L103.37 124.299Z" fill="url(#paint50_linear)"/>
<path d="M98.8033 130.484L103.538 129.679L108.159 130.298C108.159 130.298 106.058 130.675 105.862 130.709C105.667 130.743 103.566 131.12 103.566 131.12L98.8033 130.484Z" fill="url(#paint51_linear)"/>
<path d="M281.173 167.97L282.007 174.15L281.416 180.173C281.416 180.173 281.026 177.43 280.991 177.175C280.956 176.92 280.566 174.178 280.566 174.178L281.173 167.97Z" fill="url(#paint52_linear)"/>
<path d="M305.648 191.228L310.382 190.423L315.003 191.042C315.003 191.042 312.903 191.419 312.707 191.453C312.512 191.487 310.411 191.864 310.411 191.864L305.648 191.228Z" fill="url(#paint53_linear)"/>
<path d="M248.365 130.484L253.1 129.679L257.721 130.298C257.721 130.298 255.62 130.675 255.424 130.709C255.229 130.743 253.128 131.12 253.128 131.12L248.365 130.484Z" fill="url(#paint54_linear)"/>
<path d="M357.812 97.7328L358.645 103.913L358.054 109.936C358.054 109.936 357.664 107.193 357.629 106.938C357.594 106.683 357.204 103.941 357.204 103.941L357.812 97.7328Z" fill="url(#paint55_linear)"/>
<path d="M353.245 103.917L357.979 103.113L362.6 103.731C362.6 103.731 360.499 104.109 360.304 104.142C360.109 104.176 358.008 104.553 358.008 104.553L353.245 103.917Z" fill="url(#paint56_linear)"/>
<path d="M431.88 116.456L432.714 122.636L432.123 128.659C432.123 128.659 431.733 125.917 431.698 125.662C431.663 125.407 431.273 122.665 431.273 122.665L431.88 116.456Z" fill="url(#paint57_linear)"/>
<path d="M427.313 122.641L432.048 121.836L436.668 122.455C436.668 122.455 434.568 122.832 434.372 122.866C434.177 122.9 432.076 123.277 432.076 123.277L427.313 122.641Z" fill="url(#paint58_linear)"/>
<path d="M367.302 50.1434L368.136 56.3232L367.545 62.3462C367.545 62.3462 367.155 59.6041 367.12 59.349C367.085 59.094 366.695 56.3519 366.695 56.3519L367.302 50.1434Z" fill="url(#paint59_linear)"/>
<path d="M362.735 56.328L367.47 55.5233L372.091 56.1419C372.091 56.1419 369.99 56.5192 369.795 56.553C369.599 56.5868 367.499 56.9641 367.499 56.9641L362.735 56.328Z" fill="url(#paint60_linear)"/>
<path d="M462.262 29.431L463.095 35.6108L462.505 41.6338C462.505 41.6338 462.114 38.8917 462.08 38.6366C462.045 38.3816 461.654 35.6395 461.654 35.6395L462.262 29.431Z" fill="url(#paint61_linear)"/>
<path d="M457.695 35.6156L462.429 34.8109L467.05 35.4295C467.05 35.4295 464.949 35.8068 464.754 35.8406C464.559 35.8744 462.458 36.2517 462.458 36.2517L457.695 35.6156Z" fill="url(#paint62_linear)"/>
<path d="M606.752 40.8729L607.585 47.0527L606.994 53.0757C606.994 53.0757 606.604 50.3336 606.569 50.0785C606.534 49.8235 606.144 47.0814 606.144 47.0814L606.752 40.8729Z" fill="url(#paint63_linear)"/>
<path d="M602.185 47.0575L606.919 46.2528L611.54 46.8714C611.54 46.8714 609.439 47.2487 609.244 47.2825C609.048 47.3163 606.948 47.6936 606.948 47.6936L602.185 47.0575Z" fill="url(#paint64_linear)"/>
<path d="M761.548 19.9808L762.382 26.1606L761.791 32.1836C761.791 32.1836 761.401 29.4415 761.366 29.1865C761.331 28.9314 760.941 26.1893 760.941 26.1893L761.548 19.9808Z" fill="url(#paint65_linear)"/>
<path d="M756.982 26.1654L761.716 25.3607L766.337 25.9793C766.337 25.9793 764.236 26.3566 764.041 26.3904C763.845 26.4242 761.745 26.8015 761.745 26.8015L756.982 26.1654Z" fill="url(#paint66_linear)"/>
<path d="M1004.17 26.9889L1005 33.1687L1004.41 39.1917C1004.41 39.1917 1004.02 36.4495 1003.99 36.1945C1003.95 35.9395 1003.56 33.1974 1003.56 33.1974L1004.17 26.9889Z" fill="url(#paint67_linear)"/>
<path d="M999.604 33.1735L1004.34 32.3687L1008.96 32.9873C1008.96 32.9873 1006.86 33.3647 1006.66 33.3985C1006.47 33.4322 1004.37 33.8096 1004.37 33.8096L999.604 33.1735Z" fill="url(#paint68_linear)"/>
<path d="M960.162 52.265L960.996 58.4448L960.405 64.4678C960.405 64.4678 960.015 61.7257 959.98 61.4706C959.945 61.2156 959.555 58.4735 959.555 58.4735L960.162 52.265Z" fill="url(#paint69_linear)"/>
<path d="M955.595 58.4496L960.33 57.6448L964.951 58.2635C964.951 58.2635 962.85 58.6408 962.654 58.6746C962.459 58.7083 960.358 59.0857 960.358 59.0857L955.595 58.4496Z" fill="url(#paint70_linear)"/>
<path d="M187.001 171.64L187.834 177.82L187.243 183.843C187.243 183.843 186.853 181.101 186.818 180.846C186.783 180.591 186.393 177.849 186.393 177.849L187.001 171.64Z" fill="url(#paint71_linear)"/>
<path d="M182.434 177.825L187.168 177.02L191.789 177.639C191.789 177.639 189.688 178.016 189.493 178.05C189.297 178.084 187.197 178.461 187.197 178.461L182.434 177.825Z" fill="url(#paint72_linear)"/>
<path d="M304.681 127.998L305.514 134.178L304.924 140.201C304.924 140.201 304.533 137.459 304.498 137.204C304.464 136.949 304.073 134.206 304.073 134.206L304.681 127.998Z" fill="url(#paint73_linear)"/>
<path d="M300.114 134.183L304.848 133.378L309.469 133.996C309.469 133.996 307.368 134.374 307.173 134.407C306.978 134.441 304.877 134.819 304.877 134.819L300.114 134.183Z" fill="url(#paint74_linear)"/>
<path d="M148.25 183.03L149.083 189.209L148.492 195.232C148.492 195.232 148.102 192.49 148.067 192.235C148.032 191.98 147.642 189.238 147.642 189.238L148.25 183.03Z" fill="url(#paint75_linear)"/>
<path d="M143.683 189.214L148.417 188.409L153.038 189.028C153.038 189.028 150.937 189.405 150.742 189.439C150.547 189.473 148.446 189.85 148.446 189.85L143.683 189.214Z" fill="url(#paint76_linear)"/>
<path d="M165.679 152.666L166.513 158.846L165.922 164.869C165.922 164.869 165.532 162.127 165.497 161.872C165.462 161.617 165.072 158.875 165.072 158.875L165.679 152.666Z" fill="url(#paint77_linear)"/>
<path d="M161.112 158.851L165.847 158.046L170.468 158.665C170.468 158.665 168.367 159.042 168.172 159.076C167.976 159.11 165.876 159.487 165.876 159.487L161.112 158.851Z" fill="url(#paint78_linear)"/>
<path d="M1392.78 52.6402L1393.62 58.8201L1393.03 64.843C1393.03 64.843 1392.64 62.1009 1392.6 61.8459C1392.57 61.5909 1392.18 58.8487 1392.18 58.8487L1392.78 52.6402Z" fill="url(#paint79_linear)"/>
<path d="M1388.22 58.8251L1392.95 58.0203L1397.57 58.639C1397.57 58.639 1395.47 59.0163 1395.28 59.0501C1395.08 59.0838 1392.98 59.4612 1392.98 59.4612L1388.22 58.8251Z" fill="url(#paint80_linear)"/>
<path d="M1360.96 135.875L1361.79 142.054L1361.2 148.077C1361.2 148.077 1360.81 145.335 1360.77 145.08C1360.74 144.825 1360.35 142.083 1360.35 142.083L1360.96 135.875Z" fill="url(#paint81_linear)"/>
<path d="M1356.39 142.059L1361.12 141.254L1365.74 141.873C1365.74 141.873 1363.64 142.25 1363.45 142.284C1363.25 142.318 1361.15 142.695 1361.15 142.695L1356.39 142.059Z" fill="url(#paint82_linear)"/>
<path d="M1351.46 56.6305L1352.3 62.8103L1351.71 68.8333C1351.71 68.8333 1351.32 66.0911 1351.28 65.8361C1351.25 65.5811 1350.86 62.839 1350.86 62.839L1351.46 56.6305Z" fill="url(#paint83_linear)"/>
<path d="M1346.9 62.8153L1351.63 62.0106L1356.25 62.6292C1356.25 62.6292 1354.15 63.0065 1353.96 63.0403C1353.76 63.0741 1351.66 63.4514 1351.66 63.4514L1346.9 62.8153Z" fill="url(#paint84_linear)"/>
<path d="M1084.5 59.087L1085.34 65.2668L1084.75 71.2898C1084.75 71.2898 1084.36 68.5477 1084.32 68.2927C1084.29 68.0376 1083.9 65.2955 1083.9 65.2955L1084.5 59.087Z" fill="url(#paint85_linear)"/>
<path d="M1079.94 65.2716L1084.67 64.4669L1089.29 65.0855C1089.29 65.0855 1087.19 65.4628 1087 65.4966C1086.8 65.5304 1084.7 65.9077 1084.7 65.9077L1079.94 65.2716Z" fill="url(#paint86_linear)"/>
<path d="M1078.17 173.301L1079 179.481L1078.41 185.504C1078.41 185.504 1078.02 182.762 1077.99 182.507C1077.95 182.252 1077.56 179.51 1077.56 179.51L1078.17 173.301Z" fill="url(#paint87_linear)"/>
<path d="M1073.6 179.486L1078.34 178.681L1082.96 179.3C1082.96 179.3 1080.86 179.677 1080.66 179.711C1080.47 179.744 1078.37 180.122 1078.37 180.122L1073.6 179.486Z" fill="url(#paint88_linear)"/>
<path d="M769.404 113.092L770.238 119.271L769.647 125.294C769.647 125.294 769.257 122.552 769.222 122.297C769.187 122.042 768.797 119.3 768.797 119.3L769.404 113.092Z" fill="url(#paint89_linear)"/>
<path d="M764.838 119.276L769.572 118.472L774.193 119.09C774.193 119.09 772.092 119.467 771.897 119.501C771.701 119.535 769.601 119.912 769.601 119.912L764.838 119.276Z" fill="url(#paint90_linear)"/>
<path d="M911.888 97.6544L912.721 103.834L912.131 109.857C912.131 109.857 911.74 107.115 911.706 106.86C911.671 106.605 911.28 103.863 911.28 103.863L911.888 97.6544Z" fill="url(#paint91_linear)"/>
<path d="M907.321 103.839L912.055 103.034L916.676 103.653C916.676 103.653 914.575 104.03 914.38 104.064C914.185 104.098 912.084 104.475 912.084 104.475L907.321 103.839Z" fill="url(#paint92_linear)"/>
<path d="M1231.95 26.9881L1232.78 33.168L1232.19 39.1909C1232.19 39.1909 1231.8 36.4488 1231.77 36.1938C1231.73 35.9388 1231.34 33.1966 1231.34 33.1966L1231.95 26.9881Z" fill="url(#paint93_linear)"/>
<path d="M1227.38 33.173L1232.12 32.3682L1236.74 32.9869C1236.74 32.9869 1234.64 33.3642 1234.44 33.398C1234.25 33.4317 1232.15 33.8091 1232.15 33.8091L1227.38 33.173Z" fill="url(#paint94_linear)"/>
<path d="M1364.1 8.88976L1364.93 15.0696L1364.34 21.0925C1364.34 21.0925 1363.95 18.3504 1363.91 18.0954C1363.88 17.8404 1363.49 15.0982 1363.49 15.0982L1364.1 8.88976Z" fill="url(#paint95_linear)"/>
<path d="M1359.53 15.0746L1364.26 14.2698L1368.88 14.8885C1368.88 14.8885 1366.78 15.2658 1366.59 15.2996C1366.39 15.3333 1364.29 15.7107 1364.29 15.7107L1359.53 15.0746Z" fill="url(#paint96_linear)"/>
<path d="M1297.99 74.8102L1298.82 80.99L1298.23 87.0129C1298.23 87.0129 1297.84 84.2708 1297.8 84.0158C1297.77 83.7608 1297.38 81.0186 1297.38 81.0186L1297.99 74.8102Z" fill="url(#paint97_linear)"/>
<path d="M1293.42 80.995L1298.15 80.1903L1302.77 80.8089C1302.77 80.8089 1300.67 81.1862 1300.48 81.22C1300.28 81.2538 1298.18 81.6311 1298.18 81.6311L1293.42 80.995Z" fill="url(#paint98_linear)"/>
<path d="M1156.42 127.998L1157.26 134.178L1156.67 140.201C1156.67 140.201 1156.28 137.459 1156.24 137.204C1156.21 136.949 1155.82 134.206 1155.82 134.206L1156.42 127.998Z" fill="url(#paint99_linear)"/>
<path d="M1151.86 134.183L1156.59 133.378L1161.21 133.996C1161.21 133.996 1159.11 134.374 1158.91 134.407C1158.72 134.441 1156.62 134.819 1156.62 134.819L1151.86 134.183Z" fill="url(#paint100_linear)"/>
<path d="M1149.94 186.646L1150.77 192.826L1150.18 198.849C1150.18 198.849 1149.79 196.107 1149.76 195.851C1149.72 195.596 1149.33 192.854 1149.33 192.854L1149.94 186.646Z" fill="url(#paint101_linear)"/>
<path d="M1145.37 192.83L1150.11 192.026L1154.73 192.644C1154.73 192.644 1152.63 193.022 1152.43 193.055C1152.24 193.089 1150.14 193.467 1150.14 193.467L1145.37 192.83Z" fill="url(#paint102_linear)"/>
<path d="M1268.44 50.3343L1269.28 56.5141L1268.69 62.5371C1268.69 62.5371 1268.3 59.795 1268.26 59.54C1268.23 59.2849 1267.84 56.5428 1267.84 56.5428L1268.44 50.3343Z" fill="url(#paint103_linear)"/>
<path d="M1263.88 56.5187L1268.61 55.7139L1273.23 56.3326C1273.23 56.3326 1271.13 56.7099 1270.94 56.7437C1270.74 56.7774 1268.64 57.1548 1268.64 57.1548L1263.88 56.5187Z" fill="url(#paint104_linear)"/>
<path d="M1013.66 183.417L1014.5 189.596L1013.9 195.619C1013.9 195.619 1013.51 192.877 1013.48 192.622C1013.44 192.367 1013.05 189.625 1013.05 189.625L1013.66 183.417Z" fill="url(#paint105_linear)"/>
<path d="M1009.09 189.601L1013.83 188.796L1018.45 189.415C1018.45 189.415 1016.35 189.792 1016.15 189.826C1015.96 189.86 1013.86 190.237 1013.86 190.237L1009.09 189.601Z" fill="url(#paint106_linear)"/>
<path d="M1399.65 98.765L1400.48 104.945L1399.89 110.968C1399.89 110.968 1399.5 108.226 1399.46 107.971C1399.43 107.716 1399.04 104.973 1399.04 104.973L1399.65 98.765Z" fill="url(#paint107_linear)"/>
<path d="M1395.08 104.95L1399.81 104.145L1404.43 104.764C1404.43 104.764 1402.33 105.141 1402.14 105.175C1401.94 105.209 1399.84 105.586 1399.84 105.586L1395.08 104.95Z" fill="url(#paint108_linear)"/>
<path d="M1249.91 140.133L1251.42 151.299L1250.35 162.182C1250.35 162.182 1249.65 157.227 1249.58 156.767C1249.52 156.306 1248.82 151.351 1248.82 151.351L1249.91 140.133Z" fill="url(#paint109_linear)"/>
<path d="M1241.66 151.308L1250.22 149.854L1258.57 150.972C1258.57 150.972 1254.77 151.653 1254.42 151.714C1254.06 151.775 1250.27 152.457 1250.27 152.457L1241.66 151.308Z" fill="url(#paint110_linear)"/>
<path d="M1396.87 145.543L1399.44 164.619L1397.62 183.21C1397.62 183.21 1396.41 174.746 1396.3 173.959C1396.2 173.172 1394.99 164.707 1394.99 164.707L1396.87 145.543Z" fill="url(#paint111_linear)"/>
<path d="M1382.77 164.633L1397.38 162.148L1411.65 164.058C1411.65 164.058 1405.16 165.223 1404.56 165.327C1403.96 165.431 1397.47 166.596 1397.47 166.596L1382.77 164.633Z" fill="url(#paint112_linear)"/>
</g>
<mask id="mask0" mask-type="alpha" maskUnits="userSpaceOnUse" x="1081" y="-154" width="452" height="497">
<path opacity="0.5" d="M1450.02 31.6649C1494.89 133.194 1466.79 243.514 1387.91 278.374C1309.04 313.235 1208.54 259.749 1163.67 158.22C1118.8 56.6908 1146.9 -53.6292 1225.77 -88.4894C1304.65 -123.35 1405.14 -69.8644 1450.02 31.6649Z" stroke="white" stroke-width="2"/>
<path opacity="0.6" d="M1439.73 33.4321C1476.16 115.867 1453.32 205.361 1389.37 233.625C1325.42 261.889 1243.86 218.536 1207.43 136.101C1171 53.6659 1193.84 -35.8279 1257.79 -64.092C1321.74 -92.3561 1403.29 -49.0028 1439.73 33.4321Z" stroke="white" stroke-width="2"/>
<path opacity="0.8" d="M1432.74 42.7314C1461.61 108.04 1443.48 178.854 1392.92 201.201C1342.35 223.549 1277.79 189.283 1248.92 123.975C1220.06 58.6668 1238.18 -12.147 1288.75 -34.4948C1339.31 -56.8425 1403.88 -22.577 1432.74 42.7314Z" stroke="white" stroke-width="2"/>
<path d="M1426.37 45.4292C1447.47 93.1707 1434.18 144.824 1397.35 161.104C1360.51 177.383 1313.37 152.439 1292.27 104.697C1271.17 56.9558 1284.46 5.30219 1321.29 -10.9772C1358.13 -27.2565 1405.27 -2.31228 1426.37 45.4292Z" stroke="white" stroke-width="2"/>
<path d="M1422.36 46.8122C1437.59 81.2666 1427.96 118.428 1401.51 130.117C1375.06 141.807 1341.1 123.913 1325.87 89.4586C1310.64 55.0042 1320.28 17.8427 1346.72 6.15326C1373.17 -5.53615 1407.14 12.3577 1422.36 46.8122Z" stroke="white" stroke-width="2"/>
</mask>
<g mask="url(#mask0)">
<rect x="1101.2" y="0.689453" width="338.794" height="223.354" fill="#C4C4C4"/>
</g>
<path d="M1213.4 82.065L785.496 170.103C774.847 172.294 766.579 175.836 767.027 178.014C767.475 180.192 776.47 180.181 787.119 177.991L1215.02 89.9523C1225.67 87.7615 1226.34 85.7851 1225.89 83.607C1225.44 81.429 1224.04 79.8742 1213.4 82.065Z" fill="url(#paint113_linear)"/>
<path d="M1224.63 61.6611L1227.8 82.5667L1226.13 103.019C1226.13 103.019 1224.65 93.744 1224.52 92.8813C1224.39 92.0186 1222.91 82.7434 1222.91 82.7434L1224.63 61.6611Z" fill="url(#paint114_linear)"/>
<path d="M1209.49 82.8809L1225.5 79.8912L1241.2 81.7335C1241.2 81.7335 1234.1 83.1288 1233.44 83.254C1232.77 83.3793 1225.67 84.7746 1225.67 84.7746L1209.49 82.8809Z" fill="url(#paint115_linear)"/>
<path d="M1136.63 140.715L1138.38 155.969L1136.63 170.766C1136.63 170.766 1135.8 163.997 1135.73 163.367C1135.66 162.738 1134.83 155.969 1134.83 155.969L1136.63 140.715Z" fill="url(#paint116_linear)"/>
<path d="M1125.08 155.716L1136.78 153.967L1148.12 155.716C1148.12 155.716 1142.93 156.542 1142.45 156.615C1141.97 156.689 1136.78 157.515 1136.78 157.515L1125.08 155.716Z" fill="url(#paint117_linear)"/>
<path d="M1025.36 66.2915L1026.69 77.8806L1025.36 89.1233C1025.36 89.1233 1024.73 83.9802 1024.68 83.5019C1024.62 83.0237 1023.99 77.8806 1023.99 77.8806L1025.36 66.2915Z" fill="url(#paint118_linear)"/>
<path d="M1016.59 77.6887L1025.47 76.3598L1034.09 77.6887C1034.09 77.6887 1030.15 78.3163 1029.78 78.3722C1029.42 78.4281 1025.47 79.0557 1025.47 79.0557L1016.59 77.6887Z" fill="url(#paint119_linear)"/>
<path d="M219.676 60.5642C219.325 61.4916 199.256 51.2113 186.746 60.0485C179.402 66.1125 176.768 76.0915 179.402 84.8626C180.825 89.5998 181.516 91.539 183.853 94.8772C185.566 97.3253 187.97 99.9958 191.308 101.888C192.069 102.45 202.295 108.609 214.712 107.147C234.242 104.85 249.373 79.2075 249.373 79.2075C249.373 79.2075 245.849 86.7907 245.524 87.4833C236.092 107.558 220.42 112.908 220.42 112.908C206.489 117.664 192.546 111.576 191.007 110.801C180.946 105.74 176.604 101.065 175.252 98.526C173.047 94.3845 167.52 78.2033 172.816 66.1125C176.742 57.1527 185.262 53.4023 186.267 52.981C202.48 46.1787 219.995 59.7216 219.676 60.5642Z" fill="url(#paint120_linear)"/>
<path d="M219.676 60.5639C219.018 61.1776 214.285 55.4678 206.686 51.3442C204.513 50.1656 196.225 45.9293 186.101 46.1468C169.32 46.5057 158.167 58.8793 156.179 61.1726C146.239 72.6338 141.559 90.2822 147.15 104.016C154.416 121.862 179.535 134.339 176.969 132.262L174.744 131.417C172.178 130.4 140.693 116.374 139.565 87.9674C138.929 71.9612 144.05 58.9984 147.15 55.4598C152.567 49.2769 156.91 46.3004 160.571 44.3344C167.929 40.3867 181.766 37.0039 192.035 38.5579C203.558 40.302 210.791 48.3869 214.318 52.3296C217.499 55.8854 220.208 60.0679 219.676 60.5639Z" fill="url(#paint121_linear)"/>
<path d="M186.267 52.9829C183.931 54.2606 181.847 55.9547 180.117 57.9821C178.68 59.6854 176.115 63.3029 174.846 71.4675C173.759 78.4643 172.561 86.1817 176.221 94.543C182.164 108.115 196.166 112.583 199.505 113.648C208.042 116.272 217.179 116.188 225.667 113.408C236.113 110.027 243.418 103.036 244.061 103.854C244.458 104.361 241.769 107.192 239.902 108.922C234.205 114.095 227.226 117.638 219.695 119.182C214.386 120.24 208.935 120.372 203.582 119.572C199.184 118.926 186.103 117.018 176.057 105.863C173.243 102.738 165.308 93.9292 165.928 81.4638C166.376 72.4846 171.037 66.1395 172.618 64.0451C176.242 59.3385 180.917 55.5497 186.267 52.9829V52.9829Z" fill="url(#paint122_linear)"/>
<path d="M219.676 60.564C220.455 60.2166 218.691 50.5152 211.818 42.4325C209.046 39.1663 205.709 36.4282 201.968 34.3497C186.499 25.9275 168.525 33.1231 164.408 34.7725C160.19 36.4614 151.078 40.2505 143.524 49.7192C135.008 60.3938 133.747 71.8458 133.262 76.8587C131.191 98.2639 142.035 115.149 143.058 114.821C143.842 114.569 138.492 103.977 139.565 87.9675C139.974 81.873 140.854 70.9048 148.547 60.19C153.208 53.8708 159.309 48.7613 166.342 45.2885C170.412 43.2687 184.224 36.4132 198.806 41.5833C203.249 43.1908 207.34 45.6444 210.853 48.8091C217.201 54.638 219.039 60.8489 219.676 60.564Z" fill="url(#paint123_linear)"/>
<path d="M193.617 119.491C193.252 120.116 172.471 114.526 162.993 96.7005C161.566 94.0189 154.101 79.8667 158.423 68.7385C160.231 64.0838 163.789 58.8728 165.226 57.2542C167.548 54.6401 172.64 54.0315 177.641 51.9019C179.888 50.9676 182.405 50.7576 184.817 50.4355C187.207 50.1398 189.325 50.2033 191.723 50.4355C194.98 50.6508 208.388 54.7667 203.882 54.0552C199.653 53.3876 190.157 51.0707 184.817 54.0552C184.328 54.3279 183.778 54.6753 183.482 54.8627C179.168 57.575 175.418 61.0981 172.44 65.238C171.404 66.7094 166.989 73.1499 166.639 81.4681C166.206 91.8757 171.898 99.469 175.258 103.951C183.74 115.258 193.881 119.044 193.617 119.491Z" fill="url(#paint124_linear)"/>
<path d="M183.519 45.6936C187.896 45.0598 191.642 44.8412 195.982 45.6936C200.962 46.6985 203.717 47.7342 207.109 49.4769C212.902 52.4535 220.235 60.086 219.677 61.2316C218.682 63.2736 194.842 45.488 175.859 53.6411C165.635 58.0317 158.693 70.9989 157.726 72.9591C155.393 77.282 155.254 80.8936 155.042 85.8035C154.882 91.6332 156.515 96.2427 158.004 100.446C160.123 106.428 163.534 112.809 163.46 112.845C163.456 112.845 163.444 112.829 163.441 112.825C152.328 96.5571 151.142 88.8849 151.142 88.8849C150.64 85.6449 148.5 71.802 157.726 60.1161C166.137 49.463 180.256 46.1709 183.519 45.6936Z" fill="url(#paint125_linear)"/>
<g clip-path="url(#clip0)">
<path d="M206.418 68.4152L205.976 69.3928C204.952 68.5316 203.626 68.0428 202.136 68.0428C198.296 68.0428 195.549 70.8125 195.549 74.6993C195.549 78.6094 198.296 81.4024 202.136 81.4024C203.602 81.4024 204.906 80.9369 205.93 80.099L206.302 80.9834H209.654V68.4152H206.418ZM202.718 77.5854C201.089 77.5854 199.902 76.3518 199.902 74.6993C199.902 73.0701 201.089 71.8598 202.718 71.8598C204.347 71.8598 205.534 73.0701 205.534 74.6993C205.534 76.3518 204.347 77.5854 202.718 77.5854Z" fill="white"/>
<path d="M217.432 80.9834H221.761V63.8767H217.432V80.9834Z" fill="white"/>
<path d="M235.911 77.213C235.003 77.213 234.445 76.6544 234.445 75.77V71.7667H237.494V68.4152H234.352V64.7611H233.444L227.811 70.7427V71.7667H230.116V76.4915C230.116 79.2844 231.815 80.9834 234.584 80.9834H237.563V77.213H235.911Z" fill="white"/>
<path d="M254.786 68.4152L254.344 69.3928C253.319 68.5316 251.993 68.0428 250.503 68.0428C246.663 68.0428 243.917 70.8125 243.917 74.6993C243.917 78.6094 246.663 81.4024 250.503 81.4024C251.97 81.4024 253.273 80.9369 254.297 80.099L254.669 80.9834H258.021V68.4152H254.786ZM251.085 77.5854C249.456 77.5854 248.269 76.3518 248.269 74.6993C248.269 73.0701 249.456 71.8598 251.085 71.8598C252.714 71.8598 253.901 73.0701 253.901 74.6993C253.901 76.3518 252.714 77.5854 251.085 77.5854Z" fill="white"/>
<path d="M265.822 66.8558H270.105V63.1785H265.822V66.8558ZM265.799 80.9834H270.128V68.4152H265.799V80.9834Z" fill="white"/>
<path d="M284.919 68.3687C283.43 68.3687 282.359 68.7876 281.475 69.8117L280.8 68.4152H277.891V80.9834H282.22V74.6062C282.22 73.0003 282.871 72.3253 284.384 72.3253H286.083V68.3687H284.919Z" fill="white"/>
</g>
<defs>
<linearGradient id="paint0_linear" x1="59.6171" y1="81.7061" x2="60.4701" y2="101.251" gradientUnits="userSpaceOnUse">
<stop stop-color="white" stop-opacity="0"/>
<stop offset="0.520833" stop-color="white"/>
<stop offset="1" stop-color="white" stop-opacity="0"/>
</linearGradient>
<linearGradient id="paint1_linear" x1="53.4497" y1="90.9629" x2="68.4338" y2="90.309" gradientUnits="userSpaceOnUse">
<stop stop-color="white" stop-opacity="0"/>
<stop offset="0.520833" stop-color="white"/>
<stop offset="1" stop-color="white" stop-opacity="0"/>
</linearGradient>
<linearGradient id="paint2_linear" x1="394.085" y1="98.77" x2="394.938" y2="118.315" gradientUnits="userSpaceOnUse">
<stop stop-color="white" stop-opacity="0"/>
<stop offset="0.520833" stop-color="white"/>
<stop offset="1" stop-color="white" stop-opacity="0"/>
</linearGradient>
<linearGradient id="paint3_linear" x1="387.918" y1="108.027" x2="402.902" y2="107.373" gradientUnits="userSpaceOnUse">
<stop stop-color="white" stop-opacity="0"/>
<stop offset="0.520833" stop-color="white"/>
<stop offset="1" stop-color="white" stop-opacity="0"/>
</linearGradient>
<linearGradient id="paint4_linear" x1="1185.45" y1="61.0343" x2="1185.97" y2="72.9175" gradientUnits="userSpaceOnUse">
<stop stop-color="white" stop-opacity="0"/>
<stop offset="0.520833" stop-color="white"/>
<stop offset="1" stop-color="white" stop-opacity="0"/>
</linearGradient>
<linearGradient id="paint5_linear" x1="1181.7" y1="66.6623" x2="1190.81" y2="66.2647" gradientUnits="userSpaceOnUse">
<stop stop-color="white" stop-opacity="0"/>
<stop offset="0.520833" stop-color="white"/>
<stop offset="1" stop-color="white" stop-opacity="0"/>
</linearGradient>
<linearGradient id="paint6_linear" x1="42.5614" y1="20.1188" x2="43.08" y2="32.0019" gradientUnits="userSpaceOnUse">
<stop stop-color="white" stop-opacity="0"/>
<stop offset="0.520833" stop-color="white"/>
<stop offset="1" stop-color="white" stop-opacity="0"/>
</linearGradient>
<linearGradient id="paint7_linear" x1="38.8119" y1="25.7467" x2="47.9221" y2="25.3492" gradientUnits="userSpaceOnUse">
<stop stop-color="white" stop-opacity="0"/>
<stop offset="0.520833" stop-color="white"/>
<stop offset="1" stop-color="white" stop-opacity="0"/>
</linearGradient>
<linearGradient id="paint8_linear" x1="1414.34" y1="27.7119" x2="1414.7" y2="45.787" gradientUnits="userSpaceOnUse">
<stop stop-color="white" stop-opacity="0"/>
<stop offset="0.520833" stop-color="white"/>
<stop offset="1" stop-color="white" stop-opacity="0"/>
</linearGradient>
<linearGradient id="paint9_linear" x1="1408.43" y1="36.1286" x2="1422.29" y2="35.8529" gradientUnits="userSpaceOnUse">
<stop stop-color="white" stop-opacity="0"/>
<stop offset="0.520833" stop-color="white"/>
<stop offset="1" stop-color="white" stop-opacity="0"/>
</linearGradient>
<linearGradient id="paint10_linear" x1="1117.03" y1="168.455" x2="1117.25" y2="179.444" gradientUnits="userSpaceOnUse">
<stop stop-color="white" stop-opacity="0"/>
<stop offset="0.520833" stop-color="white"/>
<stop offset="1" stop-color="white" stop-opacity="0"/>
</linearGradient>
<linearGradient id="paint11_linear" x1="1113.44" y1="173.572" x2="1121.87" y2="173.404" gradientUnits="userSpaceOnUse">
<stop stop-color="white" stop-opacity="0"/>
<stop offset="0.520833" stop-color="white"/>
<stop offset="1" stop-color="white" stop-opacity="0"/>
</linearGradient>
<linearGradient id="paint12_linear" x1="1226.93" y1="85.2401" x2="1227.14" y2="96.2297" gradientUnits="userSpaceOnUse">
<stop stop-color="white" stop-opacity="0"/>
<stop offset="0.520833" stop-color="white"/>
<stop offset="1" stop-color="white" stop-opacity="0"/>
</linearGradient>
<linearGradient id="paint13_linear" x1="1223.34" y1="90.3575" x2="1231.76" y2="90.1898" gradientUnits="userSpaceOnUse">
<stop stop-color="white" stop-opacity="0"/>
<stop offset="0.520833" stop-color="white"/>
<stop offset="1" stop-color="white" stop-opacity="0"/>
</linearGradient>
<linearGradient id="paint14_linear" x1="1398.33" y1="25.3971" x2="1398.55" y2="36.3866" gradientUnits="userSpaceOnUse">
<stop stop-color="white" stop-opacity="0"/>
<stop offset="0.520833" stop-color="white"/>
<stop offset="1" stop-color="white" stop-opacity="0"/>
</linearGradient>
<linearGradient id="paint15_linear" x1="1394.74" y1="30.5147" x2="1403.16" y2="30.3471" gradientUnits="userSpaceOnUse">
<stop stop-color="white" stop-opacity="0"/>
<stop offset="0.520833" stop-color="white"/>
<stop offset="1" stop-color="white" stop-opacity="0"/>
</linearGradient>
<linearGradient id="paint16_linear" x1="1071.78" y1="212.88" x2="1072" y2="223.869" gradientUnits="userSpaceOnUse">
<stop stop-color="white" stop-opacity="0"/>
<stop offset="0.520833" stop-color="white"/>
<stop offset="1" stop-color="white" stop-opacity="0"/>
</linearGradient>
<linearGradient id="paint17_linear" x1="1068.2" y1="217.997" x2="1076.62" y2="217.829" gradientUnits="userSpaceOnUse">
<stop stop-color="white" stop-opacity="0"/>
<stop offset="0.520833" stop-color="white"/>
<stop offset="1" stop-color="white" stop-opacity="0"/>
</linearGradient>
<linearGradient id="paint18_linear" x1="577.35" y1="177.996" x2="577.568" y2="188.986" gradientUnits="userSpaceOnUse">
<stop stop-color="white" stop-opacity="0"/>
<stop offset="0.520833" stop-color="white"/>
<stop offset="1" stop-color="white" stop-opacity="0"/>
</linearGradient>
<linearGradient id="paint19_linear" x1="573.762" y1="183.114" x2="582.187" y2="182.946" gradientUnits="userSpaceOnUse">
<stop stop-color="white" stop-opacity="0"/>
<stop offset="0.520833" stop-color="white"/>
<stop offset="1" stop-color="white" stop-opacity="0"/>
</linearGradient>
<linearGradient id="paint20_linear" x1="385.762" y1="206.978" x2="385.981" y2="217.968" gradientUnits="userSpaceOnUse">
<stop stop-color="white" stop-opacity="0"/>
<stop offset="0.520833" stop-color="white"/>
<stop offset="1" stop-color="white" stop-opacity="0"/>
</linearGradient>
<linearGradient id="paint21_linear" x1="382.175" y1="212.096" x2="390.6" y2="211.928" gradientUnits="userSpaceOnUse">
<stop stop-color="white" stop-opacity="0"/>
<stop offset="0.520833" stop-color="white"/>
<stop offset="1" stop-color="white" stop-opacity="0"/>
</linearGradient>
<linearGradient id="paint22_linear" x1="628.245" y1="84.536" x2="628.463" y2="95.5255" gradientUnits="userSpaceOnUse">
<stop stop-color="white" stop-opacity="0"/>
<stop offset="0.520833" stop-color="white"/>
<stop offset="1" stop-color="white" stop-opacity="0"/>
</linearGradient>
<linearGradient id="paint23_linear" x1="624.657" y1="89.6534" x2="633.082" y2="89.4857" gradientUnits="userSpaceOnUse">
<stop stop-color="white" stop-opacity="0"/>
<stop offset="0.520833" stop-color="white"/>
<stop offset="1" stop-color="white" stop-opacity="0"/>
</linearGradient>
<linearGradient id="paint24_linear" x1="1301.61" y1="163.259" x2="1301.83" y2="174.249" gradientUnits="userSpaceOnUse">
<stop stop-color="white" stop-opacity="0"/>
<stop offset="0.520833" stop-color="white"/>
<stop offset="1" stop-color="white" stop-opacity="0"/>
</linearGradient>
<linearGradient id="paint25_linear" x1="1298.02" y1="168.377" x2="1306.45" y2="168.209" gradientUnits="userSpaceOnUse">
<stop stop-color="white" stop-opacity="0"/>
<stop offset="0.520833" stop-color="white"/>
<stop offset="1" stop-color="white" stop-opacity="0"/>
</linearGradient>
<linearGradient id="paint26_linear" x1="1331.57" y1="18.5756" x2="1331.79" y2="29.5651" gradientUnits="userSpaceOnUse">
<stop stop-color="white" stop-opacity="0"/>
<stop offset="0.520833" stop-color="white"/>
<stop offset="1" stop-color="white" stop-opacity="0"/>
</linearGradient>
<linearGradient id="paint27_linear" x1="1327.98" y1="23.6931" x2="1336.41" y2="23.5255" gradientUnits="userSpaceOnUse">
<stop stop-color="white" stop-opacity="0"/>
<stop offset="0.520833" stop-color="white"/>
<stop offset="1" stop-color="white" stop-opacity="0"/>
</linearGradient>
<linearGradient id="paint28_linear" x1="1312.95" y1="112.236" x2="1313.17" y2="123.226" gradientUnits="userSpaceOnUse">
<stop stop-color="white" stop-opacity="0"/>
<stop offset="0.520833" stop-color="white"/>
<stop offset="1" stop-color="white" stop-opacity="0"/>
</linearGradient>
<linearGradient id="paint29_linear" x1="1309.36" y1="117.354" x2="1317.78" y2="117.186" gradientUnits="userSpaceOnUse">
<stop stop-color="white" stop-opacity="0"/>
<stop offset="0.520833" stop-color="white"/>
<stop offset="1" stop-color="white" stop-opacity="0"/>
</linearGradient>
<linearGradient id="paint30_linear" x1="1255.31" y1="6.92911" x2="1255.53" y2="17.9186" gradientUnits="userSpaceOnUse">
<stop stop-color="white" stop-opacity="0"/>
<stop offset="0.520833" stop-color="white"/>
<stop offset="1" stop-color="white" stop-opacity="0"/>
</linearGradient>
<linearGradient id="paint31_linear" x1="1251.72" y1="12.0467" x2="1260.15" y2="11.879" gradientUnits="userSpaceOnUse">
<stop stop-color="white" stop-opacity="0"/>
<stop offset="0.520833" stop-color="white"/>
<stop offset="1" stop-color="white" stop-opacity="0"/>
</linearGradient>
<linearGradient id="paint32_linear" x1="1205.69" y1="150.136" x2="1205.91" y2="161.125" gradientUnits="userSpaceOnUse">
<stop stop-color="white" stop-opacity="0"/>
<stop offset="0.520833" stop-color="white"/>
<stop offset="1" stop-color="white" stop-opacity="0"/>
</linearGradient>
<linearGradient id="paint33_linear" x1="1202.1" y1="155.253" x2="1210.53" y2="155.085" gradientUnits="userSpaceOnUse">
<stop stop-color="white" stop-opacity="0"/>
<stop offset="0.520833" stop-color="white"/>
<stop offset="1" stop-color="white" stop-opacity="0"/>
</linearGradient>
<linearGradient id="paint34_linear" x1="983.257" y1="130.841" x2="983.475" y2="141.83" gradientUnits="userSpaceOnUse">
<stop stop-color="white" stop-opacity="0"/>
<stop offset="0.520833" stop-color="white"/>
<stop offset="1" stop-color="white" stop-opacity="0"/>
</linearGradient>
<linearGradient id="paint35_linear" x1="979.669" y1="135.959" x2="988.094" y2="135.791" gradientUnits="userSpaceOnUse">
<stop stop-color="white" stop-opacity="0"/>
<stop offset="0.520833" stop-color="white"/>
<stop offset="1" stop-color="white" stop-opacity="0"/>
</linearGradient>
<linearGradient id="paint36_linear" x1="1133.95" y1="109.16" x2="1134.17" y2="120.149" gradientUnits="userSpaceOnUse">
<stop stop-color="white" stop-opacity="0"/>
<stop offset="0.520833" stop-color="white"/>
<stop offset="1" stop-color="white" stop-opacity="0"/>
</linearGradient>
<linearGradient id="paint37_linear" x1="1130.36" y1="114.277" x2="1138.79" y2="114.11" gradientUnits="userSpaceOnUse">
<stop stop-color="white" stop-opacity="0"/>
<stop offset="0.520833" stop-color="white"/>
<stop offset="1" stop-color="white" stop-opacity="0"/>
</linearGradient>
<linearGradient id="paint38_linear" x1="1349.65" y1="190.586" x2="1349.87" y2="201.576" gradientUnits="userSpaceOnUse">
<stop stop-color="white" stop-opacity="0"/>
<stop offset="0.520833" stop-color="white"/>
<stop offset="1" stop-color="white" stop-opacity="0"/>
</linearGradient>
<linearGradient id="paint39_linear" x1="1346.06" y1="195.704" x2="1354.48" y2="195.536" gradientUnits="userSpaceOnUse">
<stop stop-color="white" stop-opacity="0"/>
<stop offset="0.520833" stop-color="white"/>
<stop offset="1" stop-color="white" stop-opacity="0"/>
</linearGradient>
<linearGradient id="paint40_linear" x1="1188.6" y1="196.074" x2="1188.82" y2="207.064" gradientUnits="userSpaceOnUse">
<stop stop-color="white" stop-opacity="0"/>
<stop offset="0.520833" stop-color="white"/>
<stop offset="1" stop-color="white" stop-opacity="0"/>
</linearGradient>
<linearGradient id="paint41_linear" x1="1185.01" y1="201.192" x2="1193.44" y2="201.024" gradientUnits="userSpaceOnUse">
<stop stop-color="white" stop-opacity="0"/>
<stop offset="0.520833" stop-color="white"/>
<stop offset="1" stop-color="white" stop-opacity="0"/>
</linearGradient>
<linearGradient id="paint42_linear" x1="1226.79" y1="199.931" x2="1227.01" y2="210.921" gradientUnits="userSpaceOnUse">
<stop stop-color="white" stop-opacity="0"/>
<stop offset="0.520833" stop-color="white"/>
<stop offset="1" stop-color="white" stop-opacity="0"/>
</linearGradient>
<linearGradient id="paint43_linear" x1="1223.2" y1="205.049" x2="1231.63" y2="204.881" gradientUnits="userSpaceOnUse">
<stop stop-color="white" stop-opacity="0"/>
<stop offset="0.520833" stop-color="white"/>
<stop offset="1" stop-color="white" stop-opacity="0"/>
</linearGradient>
<linearGradient id="paint44_linear" x1="1038.59" y1="152.338" x2="1038.8" y2="163.328" gradientUnits="userSpaceOnUse">
<stop stop-color="white" stop-opacity="0"/>
<stop offset="0.520833" stop-color="white"/>
<stop offset="1" stop-color="white" stop-opacity="0"/>
</linearGradient>
<linearGradient id="paint45_linear" x1="1035" y1="157.455" x2="1043.42" y2="157.288" gradientUnits="userSpaceOnUse">
<stop stop-color="white" stop-opacity="0"/>
<stop offset="0.520833" stop-color="white"/>
<stop offset="1" stop-color="white" stop-opacity="0"/>
</linearGradient>
<linearGradient id="paint46_linear" x1="1191.2" y1="162.26" x2="1191.42" y2="173.249" gradientUnits="userSpaceOnUse">
<stop stop-color="white" stop-opacity="0"/>
<stop offset="0.520833" stop-color="white"/>
<stop offset="1" stop-color="white" stop-opacity="0"/>
</linearGradient>
<linearGradient id="paint47_linear" x1="1187.61" y1="167.377" x2="1196.03" y2="167.209" gradientUnits="userSpaceOnUse">
<stop stop-color="white" stop-opacity="0"/>
<stop offset="0.520833" stop-color="white"/>
<stop offset="1" stop-color="white" stop-opacity="0"/>
</linearGradient>
<linearGradient id="paint48_linear" x1="37.0937" y1="172.615" x2="37.3124" y2="183.605" gradientUnits="userSpaceOnUse">
<stop stop-color="white" stop-opacity="0"/>
<stop offset="0.520833" stop-color="white"/>
<stop offset="1" stop-color="white" stop-opacity="0"/>
</linearGradient>
<linearGradient id="paint49_linear" x1="33.5061" y1="177.732" x2="41.9311" y2="177.565" gradientUnits="userSpaceOnUse">
<stop stop-color="white" stop-opacity="0"/>
<stop offset="0.520833" stop-color="white"/>
<stop offset="1" stop-color="white" stop-opacity="0"/>
</linearGradient>
<linearGradient id="paint50_linear" x1="103.282" y1="125.46" x2="103.5" y2="136.45" gradientUnits="userSpaceOnUse">
<stop stop-color="white" stop-opacity="0"/>
<stop offset="0.520833" stop-color="white"/>
<stop offset="1" stop-color="white" stop-opacity="0"/>
</linearGradient>
<linearGradient id="paint51_linear" x1="99.6941" y1="130.578" x2="108.119" y2="130.41" gradientUnits="userSpaceOnUse">
<stop stop-color="white" stop-opacity="0"/>
<stop offset="0.520833" stop-color="white"/>
<stop offset="1" stop-color="white" stop-opacity="0"/>
</linearGradient>
<linearGradient id="paint52_linear" x1="281.085" y1="169.131" x2="281.304" y2="180.121" gradientUnits="userSpaceOnUse">
<stop stop-color="white" stop-opacity="0"/>
<stop offset="0.520833" stop-color="white"/>
<stop offset="1" stop-color="white" stop-opacity="0"/>
</linearGradient>
<linearGradient id="paint53_linear" x1="306.539" y1="191.322" x2="314.964" y2="191.154" gradientUnits="userSpaceOnUse">
<stop stop-color="white" stop-opacity="0"/>
<stop offset="0.520833" stop-color="white"/>
<stop offset="1" stop-color="white" stop-opacity="0"/>
</linearGradient>
<linearGradient id="paint54_linear" x1="249.256" y1="130.578" x2="257.681" y2="130.41" gradientUnits="userSpaceOnUse">
<stop stop-color="white" stop-opacity="0"/>
<stop offset="0.520833" stop-color="white"/>
<stop offset="1" stop-color="white" stop-opacity="0"/>
</linearGradient>
<linearGradient id="paint55_linear" x1="357.723" y1="98.894" x2="357.942" y2="109.883" gradientUnits="userSpaceOnUse">
<stop stop-color="white" stop-opacity="0"/>
<stop offset="0.520833" stop-color="white"/>
<stop offset="1" stop-color="white" stop-opacity="0"/>
</linearGradient>
<linearGradient id="paint56_linear" x1="354.135" y1="104.011" x2="362.561" y2="103.844" gradientUnits="userSpaceOnUse">
<stop stop-color="white" stop-opacity="0"/>
<stop offset="0.520833" stop-color="white"/>
<stop offset="1" stop-color="white" stop-opacity="0"/>
</linearGradient>
<linearGradient id="paint57_linear" x1="431.791" y1="117.618" x2="432.01" y2="128.607" gradientUnits="userSpaceOnUse">
<stop stop-color="white" stop-opacity="0"/>
<stop offset="0.520833" stop-color="white"/>
<stop offset="1" stop-color="white" stop-opacity="0"/>
</linearGradient>
<linearGradient id="paint58_linear" x1="428.204" y1="122.735" x2="436.629" y2="122.567" gradientUnits="userSpaceOnUse">
<stop stop-color="white" stop-opacity="0"/>
<stop offset="0.520833" stop-color="white"/>
<stop offset="1" stop-color="white" stop-opacity="0"/>
</linearGradient>
<linearGradient id="paint59_linear" x1="367.214" y1="51.3046" x2="367.432" y2="62.2941" gradientUnits="userSpaceOnUse">
<stop stop-color="white" stop-opacity="0"/>
<stop offset="0.520833" stop-color="white"/>
<stop offset="1" stop-color="white" stop-opacity="0"/>
</linearGradient>
<linearGradient id="paint60_linear" x1="363.626" y1="56.4219" x2="372.051" y2="56.2543" gradientUnits="userSpaceOnUse">
<stop stop-color="white" stop-opacity="0"/>
<stop offset="0.520833" stop-color="white"/>
<stop offset="1" stop-color="white" stop-opacity="0"/>
</linearGradient>
<linearGradient id="paint61_linear" x1="462.173" y1="30.5922" x2="462.392" y2="41.5817" gradientUnits="userSpaceOnUse">
<stop stop-color="white" stop-opacity="0"/>
<stop offset="0.520833" stop-color="white"/>
<stop offset="1" stop-color="white" stop-opacity="0"/>
</linearGradient>
<linearGradient id="paint62_linear" x1="458.586" y1="35.7095" x2="467.011" y2="35.5419" gradientUnits="userSpaceOnUse">
<stop stop-color="white" stop-opacity="0"/>
<stop offset="0.520833" stop-color="white"/>
<stop offset="1" stop-color="white" stop-opacity="0"/>
</linearGradient>
<linearGradient id="paint63_linear" x1="606.663" y1="42.0341" x2="606.882" y2="53.0236" gradientUnits="userSpaceOnUse">
<stop stop-color="white" stop-opacity="0"/>
<stop offset="0.520833" stop-color="white"/>
<stop offset="1" stop-color="white" stop-opacity="0"/>
</linearGradient>
<linearGradient id="paint64_linear" x1="603.075" y1="47.1514" x2="611.5" y2="46.9838" gradientUnits="userSpaceOnUse">
<stop stop-color="white" stop-opacity="0"/>
<stop offset="0.520833" stop-color="white"/>
<stop offset="1" stop-color="white" stop-opacity="0"/>
</linearGradient>
<linearGradient id="paint65_linear" x1="761.46" y1="21.142" x2="761.679" y2="32.1315" gradientUnits="userSpaceOnUse">
<stop stop-color="white" stop-opacity="0"/>
<stop offset="0.520833" stop-color="white"/>
<stop offset="1" stop-color="white" stop-opacity="0"/>
</linearGradient>
<linearGradient id="paint66_linear" x1="757.872" y1="26.2593" x2="766.297" y2="26.0917" gradientUnits="userSpaceOnUse">
<stop stop-color="white" stop-opacity="0"/>
<stop offset="0.520833" stop-color="white"/>
<stop offset="1" stop-color="white" stop-opacity="0"/>
</linearGradient>
<linearGradient id="paint67_linear" x1="1004.08" y1="28.1501" x2="1004.3" y2="39.1396" gradientUnits="userSpaceOnUse">
<stop stop-color="white" stop-opacity="0"/>
<stop offset="0.520833" stop-color="white"/>
<stop offset="1" stop-color="white" stop-opacity="0"/>
</linearGradient>
<linearGradient id="paint68_linear" x1="1000.49" y1="33.2674" x2="1008.92" y2="33.0997" gradientUnits="userSpaceOnUse">
<stop stop-color="white" stop-opacity="0"/>
<stop offset="0.520833" stop-color="white"/>
<stop offset="1" stop-color="white" stop-opacity="0"/>
</linearGradient>
<linearGradient id="paint69_linear" x1="960.074" y1="53.4262" x2="960.292" y2="64.4157" gradientUnits="userSpaceOnUse">
<stop stop-color="white" stop-opacity="0"/>
<stop offset="0.520833" stop-color="white"/>
<stop offset="1" stop-color="white" stop-opacity="0"/>
</linearGradient>
<linearGradient id="paint70_linear" x1="956.486" y1="58.5435" x2="964.911" y2="58.3759" gradientUnits="userSpaceOnUse">
<stop stop-color="white" stop-opacity="0"/>
<stop offset="0.520833" stop-color="white"/>
<stop offset="1" stop-color="white" stop-opacity="0"/>
</linearGradient>
<linearGradient id="paint71_linear" x1="186.912" y1="172.802" x2="187.131" y2="183.791" gradientUnits="userSpaceOnUse">
<stop stop-color="white" stop-opacity="0"/>
<stop offset="0.520833" stop-color="white"/>
<stop offset="1" stop-color="white" stop-opacity="0"/>
</linearGradient>
<linearGradient id="paint72_linear" x1="183.324" y1="177.919" x2="191.749" y2="177.751" gradientUnits="userSpaceOnUse">
<stop stop-color="white" stop-opacity="0"/>
<stop offset="0.520833" stop-color="white"/>
<stop offset="1" stop-color="white" stop-opacity="0"/>
</linearGradient>
<linearGradient id="paint73_linear" x1="304.592" y1="129.159" x2="304.811" y2="140.149" gradientUnits="userSpaceOnUse">
<stop stop-color="white" stop-opacity="0"/>
<stop offset="0.520833" stop-color="white"/>
<stop offset="1" stop-color="white" stop-opacity="0"/>
</linearGradient>
<linearGradient id="paint74_linear" x1="301.005" y1="134.276" x2="309.43" y2="134.109" gradientUnits="userSpaceOnUse">
<stop stop-color="white" stop-opacity="0"/>
<stop offset="0.520833" stop-color="white"/>
<stop offset="1" stop-color="white" stop-opacity="0"/>
</linearGradient>
<linearGradient id="paint75_linear" x1="148.161" y1="184.191" x2="148.38" y2="195.18" gradientUnits="userSpaceOnUse">
<stop stop-color="white" stop-opacity="0"/>
<stop offset="0.520833" stop-color="white"/>
<stop offset="1" stop-color="white" stop-opacity="0"/>
</linearGradient>
<linearGradient id="paint76_linear" x1="144.573" y1="189.308" x2="152.999" y2="189.141" gradientUnits="userSpaceOnUse">
<stop stop-color="white" stop-opacity="0"/>
<stop offset="0.520833" stop-color="white"/>
<stop offset="1" stop-color="white" stop-opacity="0"/>
</linearGradient>
<linearGradient id="paint77_linear" x1="165.591" y1="153.828" x2="165.809" y2="164.817" gradientUnits="userSpaceOnUse">
<stop stop-color="white" stop-opacity="0"/>
<stop offset="0.520833" stop-color="white"/>
<stop offset="1" stop-color="white" stop-opacity="0"/>
</linearGradient>
<linearGradient id="paint78_linear" x1="162.003" y1="158.945" x2="170.428" y2="158.777" gradientUnits="userSpaceOnUse">
<stop stop-color="white" stop-opacity="0"/>
<stop offset="0.520833" stop-color="white"/>
<stop offset="1" stop-color="white" stop-opacity="0"/>
</linearGradient>
<linearGradient id="paint79_linear" x1="1392.7" y1="53.8014" x2="1392.91" y2="64.7909" gradientUnits="userSpaceOnUse">
<stop stop-color="white" stop-opacity="0"/>
<stop offset="0.520833" stop-color="white"/>
<stop offset="1" stop-color="white" stop-opacity="0"/>
</linearGradient>
<linearGradient id="paint80_linear" x1="1389.11" y1="58.919" x2="1397.53" y2="58.7513" gradientUnits="userSpaceOnUse">
<stop stop-color="white" stop-opacity="0"/>
<stop offset="0.520833" stop-color="white"/>
<stop offset="1" stop-color="white" stop-opacity="0"/>
</linearGradient>
<linearGradient id="paint81_linear" x1="1360.87" y1="137.036" x2="1361.09" y2="148.025" gradientUnits="userSpaceOnUse">
<stop stop-color="white" stop-opacity="0"/>
<stop offset="0.520833" stop-color="white"/>
<stop offset="1" stop-color="white" stop-opacity="0"/>
</linearGradient>
<linearGradient id="paint82_linear" x1="1357.28" y1="142.153" x2="1365.71" y2="141.985" gradientUnits="userSpaceOnUse">
<stop stop-color="white" stop-opacity="0"/>
<stop offset="0.520833" stop-color="white"/>
<stop offset="1" stop-color="white" stop-opacity="0"/>
</linearGradient>
<linearGradient id="paint83_linear" x1="1351.38" y1="57.7917" x2="1351.6" y2="68.7812" gradientUnits="userSpaceOnUse">
<stop stop-color="white" stop-opacity="0"/>
<stop offset="0.520833" stop-color="white"/>
<stop offset="1" stop-color="white" stop-opacity="0"/>
</linearGradient>
<linearGradient id="paint84_linear" x1="1347.79" y1="62.9092" x2="1356.21" y2="62.7416" gradientUnits="userSpaceOnUse">
<stop stop-color="white" stop-opacity="0"/>
<stop offset="0.520833" stop-color="white"/>
<stop offset="1" stop-color="white" stop-opacity="0"/>
</linearGradient>
<linearGradient id="paint85_linear" x1="1084.42" y1="60.2482" x2="1084.63" y2="71.2377" gradientUnits="userSpaceOnUse">
<stop stop-color="white" stop-opacity="0"/>
<stop offset="0.520833" stop-color="white"/>
<stop offset="1" stop-color="white" stop-opacity="0"/>
</linearGradient>
<linearGradient id="paint86_linear" x1="1080.83" y1="65.3655" x2="1089.25" y2="65.1979" gradientUnits="userSpaceOnUse">
<stop stop-color="white" stop-opacity="0"/>
<stop offset="0.520833" stop-color="white"/>
<stop offset="1" stop-color="white" stop-opacity="0"/>
</linearGradient>
<linearGradient id="paint87_linear" x1="1078.08" y1="174.462" x2="1078.3" y2="185.452" gradientUnits="userSpaceOnUse">
<stop stop-color="white" stop-opacity="0"/>
<stop offset="0.520833" stop-color="white"/>
<stop offset="1" stop-color="white" stop-opacity="0"/>
</linearGradient>
<linearGradient id="paint88_linear" x1="1074.49" y1="179.58" x2="1082.92" y2="179.412" gradientUnits="userSpaceOnUse">
<stop stop-color="white" stop-opacity="0"/>
<stop offset="0.520833" stop-color="white"/>
<stop offset="1" stop-color="white" stop-opacity="0"/>
</linearGradient>
<linearGradient id="paint89_linear" x1="769.316" y1="114.253" x2="769.535" y2="125.242" gradientUnits="userSpaceOnUse">
<stop stop-color="white" stop-opacity="0"/>
<stop offset="0.520833" stop-color="white"/>
<stop offset="1" stop-color="white" stop-opacity="0"/>
</linearGradient>
<linearGradient id="paint90_linear" x1="765.728" y1="119.37" x2="774.153" y2="119.203" gradientUnits="userSpaceOnUse">
<stop stop-color="white" stop-opacity="0"/>
<stop offset="0.520833" stop-color="white"/>
<stop offset="1" stop-color="white" stop-opacity="0"/>
</linearGradient>
<linearGradient id="paint91_linear" x1="911.799" y1="98.8156" x2="912.018" y2="109.805" gradientUnits="userSpaceOnUse">
<stop stop-color="white" stop-opacity="0"/>
<stop offset="0.520833" stop-color="white"/>
<stop offset="1" stop-color="white" stop-opacity="0"/>
</linearGradient>
<linearGradient id="paint92_linear" x1="908.212" y1="103.933" x2="916.637" y2="103.765" gradientUnits="userSpaceOnUse">
<stop stop-color="white" stop-opacity="0"/>
<stop offset="0.520833" stop-color="white"/>
<stop offset="1" stop-color="white" stop-opacity="0"/>
</linearGradient>
<linearGradient id="paint93_linear" x1="1231.86" y1="28.1493" x2="1232.08" y2="39.1388" gradientUnits="userSpaceOnUse">
<stop stop-color="white" stop-opacity="0"/>
<stop offset="0.520833" stop-color="white"/>
<stop offset="1" stop-color="white" stop-opacity="0"/>
</linearGradient>
<linearGradient id="paint94_linear" x1="1228.27" y1="33.2669" x2="1236.7" y2="33.0992" gradientUnits="userSpaceOnUse">
<stop stop-color="white" stop-opacity="0"/>
<stop offset="0.520833" stop-color="white"/>
<stop offset="1" stop-color="white" stop-opacity="0"/>
</linearGradient>
<linearGradient id="paint95_linear" x1="1364.01" y1="10.0509" x2="1364.23" y2="21.0404" gradientUnits="userSpaceOnUse">
<stop stop-color="white" stop-opacity="0"/>
<stop offset="0.520833" stop-color="white"/>
<stop offset="1" stop-color="white" stop-opacity="0"/>
</linearGradient>
<linearGradient id="paint96_linear" x1="1360.42" y1="15.1685" x2="1368.84" y2="15.0009" gradientUnits="userSpaceOnUse">
<stop stop-color="white" stop-opacity="0"/>
<stop offset="0.520833" stop-color="white"/>
<stop offset="1" stop-color="white" stop-opacity="0"/>
</linearGradient>
<linearGradient id="paint97_linear" x1="1297.9" y1="75.9713" x2="1298.12" y2="86.9609" gradientUnits="userSpaceOnUse">
<stop stop-color="white" stop-opacity="0"/>
<stop offset="0.520833" stop-color="white"/>
<stop offset="1" stop-color="white" stop-opacity="0"/>
</linearGradient>
<linearGradient id="paint98_linear" x1="1294.31" y1="81.0889" x2="1302.73" y2="80.9213" gradientUnits="userSpaceOnUse">
<stop stop-color="white" stop-opacity="0"/>
<stop offset="0.520833" stop-color="white"/>
<stop offset="1" stop-color="white" stop-opacity="0"/>
</linearGradient>
<linearGradient id="paint99_linear" x1="1156.33" y1="129.159" x2="1156.55" y2="140.149" gradientUnits="userSpaceOnUse">
<stop stop-color="white" stop-opacity="0"/>
<stop offset="0.520833" stop-color="white"/>
<stop offset="1" stop-color="white" stop-opacity="0"/>
</linearGradient>
<linearGradient id="paint100_linear" x1="1152.75" y1="134.276" x2="1161.17" y2="134.109" gradientUnits="userSpaceOnUse">
<stop stop-color="white" stop-opacity="0"/>
<stop offset="0.520833" stop-color="white"/>
<stop offset="1" stop-color="white" stop-opacity="0"/>
</linearGradient>
<linearGradient id="paint101_linear" x1="1149.85" y1="187.807" x2="1150.07" y2="198.797" gradientUnits="userSpaceOnUse">
<stop stop-color="white" stop-opacity="0"/>
<stop offset="0.520833" stop-color="white"/>
<stop offset="1" stop-color="white" stop-opacity="0"/>
</linearGradient>
<linearGradient id="paint102_linear" x1="1146.26" y1="192.924" x2="1154.69" y2="192.757" gradientUnits="userSpaceOnUse">
<stop stop-color="white" stop-opacity="0"/>
<stop offset="0.520833" stop-color="white"/>
<stop offset="1" stop-color="white" stop-opacity="0"/>
</linearGradient>
<linearGradient id="paint103_linear" x1="1268.36" y1="51.4955" x2="1268.57" y2="62.485" gradientUnits="userSpaceOnUse">
<stop stop-color="white" stop-opacity="0"/>
<stop offset="0.520833" stop-color="white"/>
<stop offset="1" stop-color="white" stop-opacity="0"/>
</linearGradient>
<linearGradient id="paint104_linear" x1="1264.77" y1="56.6126" x2="1273.19" y2="56.445" gradientUnits="userSpaceOnUse">
<stop stop-color="white" stop-opacity="0"/>
<stop offset="0.520833" stop-color="white"/>
<stop offset="1" stop-color="white" stop-opacity="0"/>
</linearGradient>
<linearGradient id="paint105_linear" x1="1013.57" y1="184.578" x2="1013.79" y2="195.567" gradientUnits="userSpaceOnUse">
<stop stop-color="white" stop-opacity="0"/>
<stop offset="0.520833" stop-color="white"/>
<stop offset="1" stop-color="white" stop-opacity="0"/>
</linearGradient>
<linearGradient id="paint106_linear" x1="1009.99" y1="189.695" x2="1018.41" y2="189.527" gradientUnits="userSpaceOnUse">
<stop stop-color="white" stop-opacity="0"/>
<stop offset="0.520833" stop-color="white"/>
<stop offset="1" stop-color="white" stop-opacity="0"/>
</linearGradient>
<linearGradient id="paint107_linear" x1="1399.56" y1="99.9262" x2="1399.78" y2="110.916" gradientUnits="userSpaceOnUse">
<stop stop-color="white" stop-opacity="0"/>
<stop offset="0.520833" stop-color="white"/>
<stop offset="1" stop-color="white" stop-opacity="0"/>
</linearGradient>
<linearGradient id="paint108_linear" x1="1395.97" y1="105.044" x2="1404.39" y2="104.876" gradientUnits="userSpaceOnUse">
<stop stop-color="white" stop-opacity="0"/>
<stop offset="0.520833" stop-color="white"/>
<stop offset="1" stop-color="white" stop-opacity="0"/>
</linearGradient>
<linearGradient id="paint109_linear" x1="1249.75" y1="142.231" x2="1250.15" y2="162.088" gradientUnits="userSpaceOnUse">
<stop stop-color="white" stop-opacity="0"/>
<stop offset="0.520833" stop-color="white"/>
<stop offset="1" stop-color="white" stop-opacity="0"/>
</linearGradient>
<linearGradient id="paint110_linear" x1="1243.27" y1="151.478" x2="1258.5" y2="151.175" gradientUnits="userSpaceOnUse">
<stop stop-color="white" stop-opacity="0"/>
<stop offset="0.520833" stop-color="white"/>
<stop offset="1" stop-color="white" stop-opacity="0"/>
</linearGradient>
<linearGradient id="paint111_linear" x1="1396.59" y1="149.127" x2="1397.27" y2="183.05" gradientUnits="userSpaceOnUse">
<stop stop-color="white" stop-opacity="0"/>
<stop offset="0.520833" stop-color="white"/>
<stop offset="1" stop-color="white" stop-opacity="0"/>
</linearGradient>
<linearGradient id="paint112_linear" x1="1385.52" y1="164.922" x2="1411.53" y2="164.405" gradientUnits="userSpaceOnUse">
<stop stop-color="white" stop-opacity="0"/>
<stop offset="0.520833" stop-color="white"/>
<stop offset="1" stop-color="white" stop-opacity="0"/>
</linearGradient>
<linearGradient id="paint113_linear" x1="767.027" y1="178.014" x2="1233.49" y2="82.0418" gradientUnits="userSpaceOnUse">
<stop/>
<stop offset="0.762" stop-color="#777777"/>
</linearGradient>
<linearGradient id="paint114_linear" x1="1224.4" y1="65.6028" x2="1225.74" y2="102.849" gradientUnits="userSpaceOnUse">
<stop stop-color="white" stop-opacity="0"/>
<stop offset="0.520833" stop-color="white"/>
<stop offset="1" stop-color="white" stop-opacity="0"/>
</linearGradient>
<linearGradient id="paint115_linear" x1="1212.52" y1="83.15" x2="1241.07" y2="82.1167" gradientUnits="userSpaceOnUse">
<stop stop-color="white" stop-opacity="0"/>
<stop offset="0.520833" stop-color="white"/>
<stop offset="1" stop-color="white" stop-opacity="0"/>
</linearGradient>
<linearGradient id="paint116_linear" x1="1136.35" y1="143.569" x2="1136.35" y2="170.632" gradientUnits="userSpaceOnUse">
<stop stop-color="white" stop-opacity="0"/>
<stop offset="0.520833" stop-color="white"/>
<stop offset="1" stop-color="white" stop-opacity="0"/>
</linearGradient>
<linearGradient id="paint117_linear" x1="1127.27" y1="155.991" x2="1148.02" y2="155.991" gradientUnits="userSpaceOnUse">
<stop stop-color="white" stop-opacity="0"/>
<stop offset="0.520833" stop-color="white"/>
<stop offset="1" stop-color="white" stop-opacity="0"/>
</linearGradient>
<linearGradient id="paint118_linear" x1="1025.15" y1="68.46" x2="1025.15" y2="89.0217" gradientUnits="userSpaceOnUse">
<stop stop-color="white" stop-opacity="0"/>
<stop offset="0.520833" stop-color="white"/>
<stop offset="1" stop-color="white" stop-opacity="0"/>
</linearGradient>
<linearGradient id="paint119_linear" x1="1018.25" y1="77.8975" x2="1034.02" y2="77.8975" gradientUnits="userSpaceOnUse">
<stop stop-color="white" stop-opacity="0"/>
<stop offset="0.520833" stop-color="white"/>
<stop offset="1" stop-color="white" stop-opacity="0"/>
</linearGradient>
<linearGradient id="paint120_linear" x1="209.981" y1="51.0767" x2="209.981" y2="114.707" gradientUnits="userSpaceOnUse">
<stop stop-color="#FAB961"/>
<stop offset="1"/>
</linearGradient>
<linearGradient id="paint121_linear" x1="179.627" y1="38.1719" x2="179.627" y2="132.487" gradientUnits="userSpaceOnUse">
<stop stop-color="#FAB961"/>
<stop offset="1"/>
</linearGradient>
<linearGradient id="paint122_linear" x1="204.997" y1="52.9829" x2="204.997" y2="120.088" gradientUnits="userSpaceOnUse">
<stop stop-color="#FAB961"/>
<stop offset="1"/>
</linearGradient>
<linearGradient id="paint123_linear" x1="176.423" y1="30.3379" x2="176.423" y2="114.825" gradientUnits="userSpaceOnUse">
<stop/>
<stop offset="0.414296" stop-color="#FAB961"/>
</linearGradient>
<linearGradient id="paint124_linear" x1="177.435" y1="50.8322" x2="177.435" y2="119.537" gradientUnits="userSpaceOnUse">
<stop/>
<stop offset="1" stop-color="#FAB961"/>
</linearGradient>
<linearGradient id="paint125_linear" x1="185.137" y1="46.7875" x2="185.137" y2="112.845" gradientUnits="userSpaceOnUse">
<stop/>
<stop offset="1" stop-color="#FAB961"/>
</linearGradient>
<clipPath id="clip0">
<rect width="112.881" height="19.7833" fill="white" transform="translate(191.911 65.2688)"/>
</clipPath>
</defs>
</svg>
