<svg width="1440" height="225" viewBox="0 0 1440 225" fill="none" xmlns="http://www.w3.org/2000/svg">
<g opacity="0.8">
<path d="M59.7256 79.6362L61.4696 90.5971L60.6727 101.339C60.6727 101.339 59.8628 96.4763 59.7899 96.024C59.7169 95.5717 58.907 90.7089 58.907 90.7089L59.7256 79.6362Z" fill="url(#paint0_linear)"/>
<path d="M51.8608 90.8335L60.251 89.2017L68.4992 90.1074C68.4992 90.1074 64.7772 90.8675 64.431 90.9358C64.0848 91.0041 60.3629 91.7643 60.3629 91.7643L51.8608 90.8335Z" fill="url(#paint1_linear)"/>
</g>
<g opacity="0.8">
<path d="M394.194 96.7001L395.938 107.661L395.141 118.403C395.141 118.403 394.331 113.54 394.258 113.088C394.185 112.636 393.375 107.773 393.375 107.773L394.194 96.7001Z" fill="url(#paint2_linear)"/>
<path d="M386.329 107.897L394.719 106.266L402.967 107.171C402.967 107.171 399.245 107.931 398.899 108C398.553 108.068 394.831 108.828 394.831 108.828L386.329 107.897Z" fill="url(#paint3_linear)"/>
</g>
<g opacity="0.8">
<path d="M1185.52 59.7758L1186.58 66.4399L1186.09 72.9709C1186.09 72.9709 1185.6 70.0144 1185.56 69.7394C1185.51 69.4644 1185.02 66.5079 1185.02 66.5079L1185.52 59.7758Z" fill="url(#paint4_linear)"/>
<path d="M1180.74 66.5836L1185.84 65.5914L1190.85 66.1421C1190.85 66.1421 1188.59 66.6042 1188.38 66.6458C1188.17 66.6873 1185.91 67.1495 1185.91 67.1495L1180.74 66.5836Z" fill="url(#paint5_linear)"/>
</g>
<g opacity="0.8">
<path d="M42.6274 18.8603L43.6877 25.5244L43.2032 32.0554C43.2032 32.0554 42.7108 29.0989 42.6665 28.8239C42.6221 28.5489 42.1297 25.5924 42.1297 25.5924L42.6274 18.8603Z" fill="url(#paint6_linear)"/>
<path d="M37.8459 25.668L42.9471 24.6759L47.9619 25.2266C47.9619 25.2266 45.699 25.6887 45.4885 25.7302C45.278 25.7718 43.0151 26.2339 43.0151 26.2339L37.8459 25.668Z" fill="url(#paint7_linear)"/>
</g>
<g opacity="0.7">
<path d="M1413.99 25.802L1415.36 35.9664L1414.39 45.8727C1414.39 45.8727 1413.74 41.3626 1413.69 40.9431C1413.63 40.5237 1412.99 36.0135 1412.99 36.0135L1413.99 25.802Z" fill="url(#paint8_linear)"/>
<path d="M1406.48 35.9742L1414.26 34.6505L1421.86 35.668C1421.86 35.668 1418.41 36.2887 1418.09 36.3442C1417.76 36.3997 1414.31 37.0204 1414.31 37.0204L1406.48 35.9742Z" fill="url(#paint9_linear)"/>
<path d="M1116.62 167.293L1117.46 173.473L1116.87 179.496C1116.87 179.496 1116.48 176.754 1116.44 176.499C1116.41 176.244 1116.02 173.502 1116.02 173.502L1116.62 167.293Z" fill="url(#paint10_linear)"/>
<path d="M1112.06 173.478L1116.79 172.673L1121.41 173.292C1121.41 173.292 1119.31 173.669 1119.12 173.703C1118.92 173.736 1116.82 174.114 1116.82 174.114L1112.06 173.478Z" fill="url(#paint11_linear)"/>
<path d="M1226.52 84.079L1227.35 90.2588L1226.76 96.2817C1226.76 96.2817 1226.37 93.5396 1226.34 93.2846C1226.3 93.0296 1225.91 90.2874 1225.91 90.2874L1226.52 84.079Z" fill="url(#paint12_linear)"/>
<path d="M1221.95 90.2636L1226.69 89.4588L1231.31 90.0774C1231.31 90.0774 1229.21 90.4548 1229.01 90.4885C1228.82 90.5223 1226.72 90.8997 1226.72 90.8997L1221.95 90.2636Z" fill="url(#paint13_linear)"/>
<path d="M1397.92 24.236L1398.76 30.4158L1398.16 36.4387C1398.16 36.4387 1397.77 33.6966 1397.74 33.4416C1397.7 33.1866 1397.31 30.4444 1397.31 30.4444L1397.92 24.236Z" fill="url(#paint14_linear)"/>
<path d="M1393.35 30.4208L1398.09 29.616L1402.71 30.2347C1402.71 30.2347 1400.61 30.612 1400.41 30.6458C1400.22 30.6795 1398.12 31.0569 1398.12 31.0569L1393.35 30.4208Z" fill="url(#paint15_linear)"/>
<path d="M1071.38 211.718L1072.21 217.898L1071.62 223.921C1071.62 223.921 1071.23 221.179 1071.19 220.924C1071.16 220.669 1070.77 217.927 1070.77 217.927L1071.38 211.718Z" fill="url(#paint16_linear)"/>
<path d="M1066.81 217.903L1071.54 217.098L1076.17 217.717C1076.17 217.717 1074.06 218.094 1073.87 218.128C1073.67 218.162 1071.57 218.539 1071.57 218.539L1066.81 217.903Z" fill="url(#paint17_linear)"/>
<path d="M576.944 176.835L577.777 183.015L577.187 189.038C577.187 189.038 576.797 186.296 576.762 186.041C576.727 185.786 576.337 183.044 576.337 183.044L576.944 176.835Z" fill="url(#paint18_linear)"/>
<path d="M572.377 183.02L577.111 182.215L581.732 182.834C581.732 182.834 579.632 183.211 579.436 183.245C579.241 183.279 577.14 183.656 577.14 183.656L572.377 183.02Z" fill="url(#paint19_linear)"/>
<path d="M385.357 205.817L386.19 211.997L385.599 218.02C385.599 218.02 385.209 215.278 385.174 215.023C385.139 214.768 384.749 212.026 384.749 212.026L385.357 205.817Z" fill="url(#paint20_linear)"/>
<path d="M380.79 212.002L385.524 211.197L390.145 211.816C390.145 211.816 388.044 212.193 387.849 212.227C387.653 212.261 385.553 212.638 385.553 212.638L380.79 212.002Z" fill="url(#paint21_linear)"/>
<path d="M627.839 83.3749L628.672 89.5547L628.082 95.5776C628.082 95.5776 627.692 92.8355 627.657 92.5805C627.622 92.3255 627.232 89.5833 627.232 89.5833L627.839 83.3749Z" fill="url(#paint22_linear)"/>
<path d="M623.272 89.5595L628.007 88.7547L632.627 89.3733C632.627 89.3733 630.527 89.7507 630.331 89.7844C630.136 89.8182 628.035 90.1956 628.035 90.1956L623.272 89.5595Z" fill="url(#paint23_linear)"/>
<path d="M1301.21 162.098L1302.04 168.278L1301.45 174.301C1301.45 174.301 1301.06 171.559 1301.02 171.304C1300.99 171.049 1300.6 168.307 1300.6 168.307L1301.21 162.098Z" fill="url(#paint24_linear)"/>
<path d="M1296.64 168.283L1301.37 167.478L1305.99 168.097C1305.99 168.097 1303.89 168.474 1303.7 168.508C1303.5 168.542 1301.4 168.919 1301.4 168.919L1296.64 168.283Z" fill="url(#paint25_linear)"/>
<path d="M1331.17 17.4144L1332 23.5942L1331.41 29.6172C1331.41 29.6172 1331.02 26.8751 1330.98 26.62C1330.95 26.365 1330.56 23.6229 1330.56 23.6229L1331.17 17.4144Z" fill="url(#paint26_linear)"/>
<path d="M1326.6 23.5993L1331.33 22.7945L1335.95 23.4131C1335.95 23.4131 1333.85 23.7905 1333.66 23.8242C1333.46 23.858 1331.36 24.2354 1331.36 24.2354L1326.6 23.5993Z" fill="url(#paint27_linear)"/>
<path d="M1312.54 111.075L1313.38 117.255L1312.78 123.278C1312.78 123.278 1312.39 120.536 1312.36 120.281C1312.32 120.026 1311.93 117.284 1311.93 117.284L1312.54 111.075Z" fill="url(#paint28_linear)"/>
<path d="M1307.97 117.26L1312.71 116.455L1317.33 117.074C1317.33 117.074 1315.23 117.451 1315.03 117.485C1314.84 117.518 1312.74 117.896 1312.74 117.896L1307.97 117.26Z" fill="url(#paint29_linear)"/>
<path d="M1254.9 5.76793L1255.74 11.9477L1255.15 17.9707C1255.15 17.9707 1254.76 15.2286 1254.72 14.9736C1254.69 14.7185 1254.3 11.9764 1254.3 11.9764L1254.9 5.76793Z" fill="url(#paint30_linear)"/>
<path d="M1250.34 11.9528L1255.07 11.148L1259.69 11.7666C1259.69 11.7666 1257.59 12.144 1257.4 12.1778C1257.2 12.2115 1255.1 12.5889 1255.1 12.5889L1250.34 11.9528Z" fill="url(#paint31_linear)"/>
<path d="M1205.28 148.974L1206.12 155.154L1205.53 161.177C1205.53 161.177 1205.14 158.435 1205.1 158.18C1205.07 157.925 1204.68 155.183 1204.68 155.183L1205.28 148.974Z" fill="url(#paint32_linear)"/>
<path d="M1200.72 155.159L1205.45 154.354L1210.07 154.973C1210.07 154.973 1207.97 155.35 1207.78 155.384C1207.58 155.418 1205.48 155.795 1205.48 155.795L1200.72 155.159Z" fill="url(#paint33_linear)"/>
<path d="M982.851 129.68L983.685 135.86L983.094 141.883C983.094 141.883 982.704 139.14 982.669 138.885C982.634 138.63 982.244 135.888 982.244 135.888L982.851 129.68Z" fill="url(#paint34_linear)"/>
<path d="M978.284 135.865L983.019 135.06L987.639 135.679C987.639 135.679 985.539 136.056 985.343 136.09C985.148 136.123 983.047 136.501 983.047 136.501L978.284 135.865Z" fill="url(#paint35_linear)"/>
<path d="M1133.55 107.999L1134.38 114.178L1133.79 120.201C1133.79 120.201 1133.4 117.459 1133.36 117.204C1133.33 116.949 1132.94 114.207 1132.94 114.207L1133.55 107.999Z" fill="url(#paint36_linear)"/>
<path d="M1128.98 114.183L1133.71 113.379L1138.33 113.997C1138.33 113.997 1136.23 114.375 1136.04 114.408C1135.84 114.442 1133.74 114.82 1133.74 114.82L1128.98 114.183Z" fill="url(#paint37_linear)"/>
<path d="M1349.24 189.425L1350.07 195.605L1349.48 201.628C1349.48 201.628 1349.09 198.886 1349.06 198.631C1349.02 198.376 1348.63 195.633 1348.63 195.633L1349.24 189.425Z" fill="url(#paint38_linear)"/>
<path d="M1344.67 195.61L1349.41 194.805L1354.03 195.424C1354.03 195.424 1351.93 195.801 1351.73 195.835C1351.54 195.868 1349.44 196.246 1349.44 196.246L1344.67 195.61Z" fill="url(#paint39_linear)"/>
<path d="M1188.2 194.913L1189.03 201.093L1188.44 207.116C1188.44 207.116 1188.05 204.374 1188.01 204.119C1187.98 203.864 1187.59 201.122 1187.59 201.122L1188.2 194.913Z" fill="url(#paint40_linear)"/>
<path d="M1183.63 201.098L1188.36 200.293L1192.99 200.912C1192.99 200.912 1190.88 201.289 1190.69 201.323C1190.49 201.357 1188.39 201.734 1188.39 201.734L1183.63 201.098Z" fill="url(#paint41_linear)"/>
<path d="M1226.38 198.77L1227.22 204.95L1226.63 210.973C1226.63 210.973 1226.24 208.231 1226.2 207.976C1226.17 207.721 1225.78 204.979 1225.78 204.979L1226.38 198.77Z" fill="url(#paint42_linear)"/>
<path d="M1221.82 204.955L1226.55 204.15L1231.17 204.769C1231.17 204.769 1229.07 205.146 1228.88 205.18C1228.68 205.213 1226.58 205.591 1226.58 205.591L1221.82 204.955Z" fill="url(#paint43_linear)"/>
<path d="M1038.18 151.177L1039.01 157.357L1038.42 163.38C1038.42 163.38 1038.03 160.638 1038 160.382C1037.96 160.127 1037.57 157.385 1037.57 157.385L1038.18 151.177Z" fill="url(#paint44_linear)"/>
<path d="M1033.61 157.361L1038.35 156.557L1042.97 157.175C1042.97 157.175 1040.87 157.553 1040.67 157.586C1040.48 157.62 1038.38 157.998 1038.38 157.998L1033.61 157.361Z" fill="url(#paint45_linear)"/>
<path d="M1190.79 161.099L1191.62 167.278L1191.03 173.301C1191.03 173.301 1190.64 170.559 1190.61 170.304C1190.57 170.049 1190.18 167.307 1190.18 167.307L1190.79 161.099Z" fill="url(#paint46_linear)"/>
<path d="M1186.22 167.283L1190.96 166.478L1195.58 167.097C1195.58 167.097 1193.48 167.474 1193.28 167.508C1193.09 167.542 1190.99 167.919 1190.99 167.919L1186.22 167.283Z" fill="url(#paint47_linear)"/>
<path d="M36.6881 171.454L37.5216 177.634L36.9309 183.657C36.9309 183.657 36.5408 180.915 36.5058 180.66C36.4709 180.405 36.0808 177.662 36.0808 177.662L36.6881 171.454Z" fill="url(#paint48_linear)"/>
<path d="M32.1212 177.639L36.8556 176.834L41.4764 177.452C41.4764 177.452 39.3757 177.83 39.1804 177.864C38.985 177.897 36.8843 178.275 36.8843 178.275L32.1212 177.639Z" fill="url(#paint49_linear)"/>
<path d="M102.876 124.299L103.71 130.479L103.119 136.502C103.119 136.502 102.729 133.76 102.694 133.505C102.659 133.25 102.269 130.508 102.269 130.508L102.876 124.299Z" fill="url(#paint50_linear)"/>
<path d="M98.3092 130.484L103.044 129.679L107.664 130.298C107.664 130.298 105.564 130.675 105.368 130.709C105.173 130.743 103.072 131.12 103.072 131.12L98.3092 130.484Z" fill="url(#paint51_linear)"/>
<path d="M357.317 97.7328L358.151 103.913L357.56 109.936C357.56 109.936 357.17 107.193 357.135 106.938C357.1 106.683 356.71 103.941 356.71 103.941L357.317 97.7328Z" fill="url(#paint52_linear)"/>
<path d="M352.751 103.917L357.485 103.113L362.106 103.731C362.106 103.731 360.005 104.109 359.81 104.142C359.614 104.176 357.514 104.553 357.514 104.553L352.751 103.917Z" fill="url(#paint53_linear)"/>
<path d="M431.386 116.456L432.219 122.636L431.629 128.659C431.629 128.659 431.239 125.917 431.204 125.662C431.169 125.407 430.779 122.665 430.779 122.665L431.386 116.456Z" fill="url(#paint54_linear)"/>
<path d="M426.819 122.641L431.553 121.836L436.174 122.455C436.174 122.455 434.073 122.832 433.878 122.866C433.683 122.9 431.582 123.277 431.582 123.277L426.819 122.641Z" fill="url(#paint55_linear)"/>
<path d="M366.808 50.1434L367.642 56.3232L367.051 62.3462C367.051 62.3462 366.661 59.6041 366.626 59.349C366.591 59.094 366.201 56.3519 366.201 56.3519L366.808 50.1434Z" fill="url(#paint56_linear)"/>
<path d="M362.241 56.328L366.976 55.5233L371.597 56.1419C371.597 56.1419 369.496 56.5192 369.3 56.553C369.105 56.5868 367.004 56.9641 367.004 56.9641L362.241 56.328Z" fill="url(#paint57_linear)"/>
<path d="M461.768 29.431L462.601 35.6108L462.01 41.6338C462.01 41.6338 461.62 38.8917 461.585 38.6366C461.55 38.3816 461.16 35.6395 461.16 35.6395L461.768 29.431Z" fill="url(#paint58_linear)"/>
<path d="M457.201 35.6156L461.935 34.8109L466.556 35.4295C466.556 35.4295 464.455 35.8068 464.26 35.8406C464.065 35.8744 461.964 36.2517 461.964 36.2517L457.201 35.6156Z" fill="url(#paint59_linear)"/>
<path d="M606.257 40.8729L607.091 47.0527L606.5 53.0757C606.5 53.0757 606.11 50.3336 606.075 50.0785C606.04 49.8235 605.65 47.0814 605.65 47.0814L606.257 40.8729Z" fill="url(#paint60_linear)"/>
<path d="M601.691 47.0575L606.425 46.2528L611.046 46.8714C611.046 46.8714 608.945 47.2487 608.75 47.2825C608.554 47.3163 606.454 47.6936 606.454 47.6936L601.691 47.0575Z" fill="url(#paint61_linear)"/>
<path d="M761.054 19.9808L761.888 26.1606L761.297 32.1836C761.297 32.1836 760.907 29.4415 760.872 29.1865C760.837 28.9314 760.447 26.1893 760.447 26.1893L761.054 19.9808Z" fill="url(#paint62_linear)"/>
<path d="M756.487 26.1654L761.222 25.3607L765.843 25.9793C765.843 25.9793 763.742 26.3566 763.547 26.3904C763.351 26.4242 761.251 26.8015 761.251 26.8015L756.487 26.1654Z" fill="url(#paint63_linear)"/>
<path d="M1003.68 26.9889L1004.51 33.1687L1003.92 39.1917C1003.92 39.1917 1003.53 36.4495 1003.49 36.1945C1003.46 35.9395 1003.07 33.1974 1003.07 33.1974L1003.68 26.9889Z" fill="url(#paint64_linear)"/>
<path d="M999.109 33.1735L1003.84 32.3687L1008.46 32.9873C1008.46 32.9873 1006.36 33.3647 1006.17 33.3985C1005.97 33.4322 1003.87 33.8096 1003.87 33.8096L999.109 33.1735Z" fill="url(#paint65_linear)"/>
<path d="M959.668 52.265L960.502 58.4448L959.911 64.4678C959.911 64.4678 959.521 61.7257 959.486 61.4706C959.451 61.2156 959.061 58.4735 959.061 58.4735L959.668 52.265Z" fill="url(#paint66_linear)"/>
<path d="M955.101 58.4496L959.836 57.6448L964.456 58.2635C964.456 58.2635 962.356 58.6408 962.16 58.6746C961.965 58.7083 959.864 59.0857 959.864 59.0857L955.101 58.4496Z" fill="url(#paint67_linear)"/>
<path d="M186.506 171.64L187.34 177.82L186.749 183.843C186.749 183.843 186.359 181.101 186.324 180.846C186.289 180.591 185.899 177.849 185.899 177.849L186.506 171.64Z" fill="url(#paint68_linear)"/>
<path d="M181.94 177.825L186.674 177.02L191.295 177.639C191.295 177.639 189.194 178.016 188.999 178.05C188.803 178.084 186.703 178.461 186.703 178.461L181.94 177.825Z" fill="url(#paint69_linear)"/>
<path d="M304.187 127.998L305.02 134.178L304.429 140.201C304.429 140.201 304.039 137.459 304.004 137.204C303.969 136.949 303.579 134.206 303.579 134.206L304.187 127.998Z" fill="url(#paint70_linear)"/>
<path d="M299.62 134.183L304.354 133.378L308.975 133.996C308.975 133.996 306.874 134.374 306.679 134.407C306.484 134.441 304.383 134.819 304.383 134.819L299.62 134.183Z" fill="url(#paint71_linear)"/>
<path d="M281.173 166.259L282.007 172.439L281.416 178.462C281.416 178.462 281.026 175.72 280.991 175.465C280.956 175.21 280.566 172.468 280.566 172.468L281.173 166.259Z" fill="url(#paint72_linear)"/>
<path d="M276.607 172.444L281.341 171.639L285.962 172.258C285.962 172.258 283.861 172.635 283.666 172.669C283.47 172.702 281.37 173.08 281.37 173.08L276.607 172.444Z" fill="url(#paint73_linear)"/>
<path d="M195.439 179.898L196.272 186.078L195.681 192.101C195.681 192.101 195.291 189.359 195.256 189.104C195.221 188.849 194.831 186.107 194.831 186.107L195.439 179.898Z" fill="url(#paint74_linear)"/>
<path d="M190.872 186.083L195.606 185.278L200.227 185.897C200.227 185.897 198.126 186.274 197.931 186.308C197.735 186.342 195.635 186.719 195.635 186.719L190.872 186.083Z" fill="url(#paint75_linear)"/>
<path d="M1392.29 52.6402L1393.12 58.8201L1392.53 64.843C1392.53 64.843 1392.14 62.1009 1392.11 61.8459C1392.07 61.5909 1391.68 58.8487 1391.68 58.8487L1392.29 52.6402Z" fill="url(#paint76_linear)"/>
<path d="M1387.72 58.8251L1392.46 58.0203L1397.08 58.639C1397.08 58.639 1394.98 59.0163 1394.78 59.0501C1394.59 59.0838 1392.49 59.4612 1392.49 59.4612L1387.72 58.8251Z" fill="url(#paint77_linear)"/>
<path d="M1360.46 135.875L1361.3 142.054L1360.7 148.077C1360.7 148.077 1360.31 145.335 1360.28 145.08C1360.24 144.825 1359.85 142.083 1359.85 142.083L1360.46 135.875Z" fill="url(#paint78_linear)"/>
<path d="M1355.9 142.059L1360.63 141.254L1365.25 141.873C1365.25 141.873 1363.15 142.25 1362.95 142.284C1362.76 142.318 1360.66 142.695 1360.66 142.695L1355.9 142.059Z" fill="url(#paint79_linear)"/>
<path d="M1350.97 56.6305L1351.8 62.8103L1351.21 68.8333C1351.21 68.8333 1350.82 66.0911 1350.79 65.8361C1350.75 65.5811 1350.36 62.839 1350.36 62.839L1350.97 56.6305Z" fill="url(#paint80_linear)"/>
<path d="M1346.4 62.8153L1351.14 62.0106L1355.76 62.6292C1355.76 62.6292 1353.66 63.0065 1353.46 63.0403C1353.27 63.0741 1351.17 63.4514 1351.17 63.4514L1346.4 62.8153Z" fill="url(#paint81_linear)"/>
<path d="M1084.01 59.087L1084.84 65.2668L1084.25 71.2898C1084.25 71.2898 1083.86 68.5477 1083.83 68.2927C1083.79 68.0376 1083.4 65.2955 1083.4 65.2955L1084.01 59.087Z" fill="url(#paint82_linear)"/>
<path d="M1079.44 65.2716L1084.18 64.4669L1088.8 65.0855C1088.8 65.0855 1086.7 65.4628 1086.5 65.4966C1086.31 65.5304 1084.21 65.9077 1084.21 65.9077L1079.44 65.2716Z" fill="url(#paint83_linear)"/>
<path d="M1077.68 173.301L1078.51 179.481L1077.92 185.504C1077.92 185.504 1077.53 182.762 1077.49 182.507C1077.46 182.252 1077.07 179.51 1077.07 179.51L1077.68 173.301Z" fill="url(#paint84_linear)"/>
<path d="M1073.11 179.486L1077.84 178.681L1082.47 179.3C1082.47 179.3 1080.36 179.677 1080.17 179.711C1079.97 179.744 1077.87 180.122 1077.87 180.122L1073.11 179.486Z" fill="url(#paint85_linear)"/>
<path d="M768.91 113.092L769.744 119.271L769.153 125.294C769.153 125.294 768.763 122.552 768.728 122.297C768.693 122.042 768.303 119.3 768.303 119.3L768.91 113.092Z" fill="url(#paint86_linear)"/>
<path d="M764.343 119.276L769.078 118.472L773.699 119.09C773.699 119.09 771.598 119.467 771.403 119.501C771.207 119.535 769.106 119.912 769.106 119.912L764.343 119.276Z" fill="url(#paint87_linear)"/>
<path d="M911.394 97.6544L912.227 103.834L911.636 109.857C911.636 109.857 911.246 107.115 911.211 106.86C911.176 106.605 910.786 103.863 910.786 103.863L911.394 97.6544Z" fill="url(#paint88_linear)"/>
<path d="M906.827 103.839L911.561 103.034L916.182 103.653C916.182 103.653 914.081 104.03 913.886 104.064C913.691 104.098 911.59 104.475 911.59 104.475L906.827 103.839Z" fill="url(#paint89_linear)"/>
<path d="M1231.45 26.9881L1232.29 33.168L1231.7 39.1909C1231.7 39.1909 1231.31 36.4488 1231.27 36.1938C1231.24 35.9388 1230.85 33.1966 1230.85 33.1966L1231.45 26.9881Z" fill="url(#paint90_linear)"/>
<path d="M1226.89 33.173L1231.62 32.3682L1236.24 32.9869C1236.24 32.9869 1234.14 33.3642 1233.95 33.398C1233.75 33.4317 1231.65 33.8091 1231.65 33.8091L1226.89 33.173Z" fill="url(#paint91_linear)"/>
<path d="M1363.6 8.88976L1364.44 15.0696L1363.84 21.0925C1363.84 21.0925 1363.45 18.3504 1363.42 18.0954C1363.38 17.8404 1362.99 15.0982 1362.99 15.0982L1363.6 8.88976Z" fill="url(#paint92_linear)"/>
<path d="M1359.03 15.0746L1363.77 14.2698L1368.39 14.8885C1368.39 14.8885 1366.29 15.2658 1366.09 15.2996C1365.9 15.3333 1363.8 15.7107 1363.8 15.7107L1359.03 15.0746Z" fill="url(#paint93_linear)"/>
<path d="M1297.49 74.8102L1298.33 80.99L1297.73 87.0129C1297.73 87.0129 1297.34 84.2708 1297.31 84.0158C1297.27 83.7608 1296.88 81.0186 1296.88 81.0186L1297.49 74.8102Z" fill="url(#paint94_linear)"/>
<path d="M1292.92 80.995L1297.66 80.1903L1302.28 80.8089C1302.28 80.8089 1300.18 81.1862 1299.98 81.22C1299.79 81.2538 1297.69 81.6311 1297.69 81.6311L1292.92 80.995Z" fill="url(#paint95_linear)"/>
<path d="M1155.93 127.998L1156.76 134.178L1156.17 140.201C1156.17 140.201 1155.78 137.459 1155.75 137.204C1155.71 136.949 1155.32 134.206 1155.32 134.206L1155.93 127.998Z" fill="url(#paint96_linear)"/>
<path d="M1151.36 134.183L1156.1 133.378L1160.72 133.996C1160.72 133.996 1158.62 134.374 1158.42 134.407C1158.23 134.441 1156.12 134.819 1156.12 134.819L1151.36 134.183Z" fill="url(#paint97_linear)"/>
<path d="M1149.45 186.646L1150.28 192.826L1149.69 198.849C1149.69 198.849 1149.3 196.107 1149.26 195.851C1149.23 195.596 1148.84 192.854 1148.84 192.854L1149.45 186.646Z" fill="url(#paint98_linear)"/>
<path d="M1144.88 192.83L1149.61 192.026L1154.23 192.644C1154.23 192.644 1152.13 193.022 1151.94 193.055C1151.74 193.089 1149.64 193.467 1149.64 193.467L1144.88 192.83Z" fill="url(#paint99_linear)"/>
<path d="M1267.95 50.3343L1268.78 56.5141L1268.19 62.5371C1268.19 62.5371 1267.8 59.795 1267.77 59.54C1267.73 59.2849 1267.34 56.5428 1267.34 56.5428L1267.95 50.3343Z" fill="url(#paint100_linear)"/>
<path d="M1263.38 56.5187L1268.12 55.7139L1272.74 56.3326C1272.74 56.3326 1270.64 56.7099 1270.44 56.7437C1270.25 56.7774 1268.15 57.1548 1268.15 57.1548L1263.38 56.5187Z" fill="url(#paint101_linear)"/>
<path d="M1013.17 183.417L1014 189.596L1013.41 195.619C1013.41 195.619 1013.02 192.877 1012.99 192.622C1012.95 192.367 1012.56 189.625 1012.56 189.625L1013.17 183.417Z" fill="url(#paint102_linear)"/>
<path d="M1008.6 189.601L1013.34 188.796L1017.96 189.415C1017.96 189.415 1015.86 189.792 1015.66 189.826C1015.46 189.86 1013.36 190.237 1013.36 190.237L1008.6 189.601Z" fill="url(#paint103_linear)"/>
<path d="M1399.15 98.765L1399.98 104.945L1399.39 110.968C1399.39 110.968 1399 108.226 1398.97 107.971C1398.93 107.716 1398.54 104.973 1398.54 104.973L1399.15 98.765Z" fill="url(#paint104_linear)"/>
<path d="M1394.58 104.95L1399.32 104.145L1403.94 104.764C1403.94 104.764 1401.84 105.141 1401.64 105.175C1401.45 105.209 1399.35 105.586 1399.35 105.586L1394.58 104.95Z" fill="url(#paint105_linear)"/>
<path d="M1249.42 140.133L1250.93 151.299L1249.86 162.182C1249.86 162.182 1249.15 157.227 1249.09 156.767C1249.03 156.306 1248.32 151.351 1248.32 151.351L1249.42 140.133Z" fill="url(#paint106_linear)"/>
<path d="M1241.17 151.308L1249.72 149.854L1258.07 150.972C1258.07 150.972 1254.28 151.653 1253.92 151.714C1253.57 151.775 1249.77 152.457 1249.77 152.457L1241.17 151.308Z" fill="url(#paint107_linear)"/>
<path d="M1396.37 145.543L1398.95 164.619L1397.12 183.21C1397.12 183.21 1395.92 174.746 1395.81 173.959C1395.7 173.172 1394.5 164.707 1394.5 164.707L1396.37 145.543Z" fill="url(#paint108_linear)"/>
<path d="M1382.28 164.633L1396.89 162.148L1411.15 164.058C1411.15 164.058 1404.67 165.223 1404.07 165.327C1403.46 165.431 1396.98 166.596 1396.98 166.596L1382.28 164.633Z" fill="url(#paint109_linear)"/>
</g>
<mask id="mask0" mask-type="alpha" maskUnits="userSpaceOnUse" x="1141" y="-101" width="332" height="392">
<path opacity="0.5" d="M1450.02 31.6649C1494.89 133.194 1466.79 243.514 1387.91 278.374C1309.04 313.235 1208.54 259.749 1163.67 158.22C1118.8 56.6908 1146.9 -53.6292 1225.77 -88.4894C1304.65 -123.35 1405.14 -69.8644 1450.02 31.6649Z" stroke="white" stroke-width="2"/>
<path opacity="0.6" d="M1439.73 33.4321C1476.16 115.867 1453.32 205.361 1389.37 233.625C1325.42 261.889 1243.86 218.536 1207.43 136.101C1171 53.6659 1193.84 -35.8279 1257.79 -64.092C1321.74 -92.3561 1403.29 -49.0028 1439.73 33.4321Z" stroke="white" stroke-width="2"/>
<path opacity="0.8" d="M1432.74 42.7314C1461.61 108.04 1443.48 178.854 1392.92 201.201C1342.35 223.549 1277.79 189.283 1248.92 123.975C1220.06 58.6668 1238.18 -12.147 1288.75 -34.4948C1339.31 -56.8425 1403.88 -22.577 1432.74 42.7314Z" stroke="white" stroke-width="2"/>
<path d="M1426.37 45.4292C1447.47 93.1707 1434.18 144.824 1397.35 161.104C1360.51 177.383 1313.37 152.439 1292.27 104.697C1271.17 56.9558 1284.46 5.30219 1321.29 -10.9772C1358.13 -27.2565 1405.27 -2.31228 1426.37 45.4292Z" stroke="white" stroke-width="2"/>
<path d="M1422.36 46.8122C1437.59 81.2666 1427.96 118.428 1401.51 130.117C1375.06 141.807 1341.1 123.913 1325.87 89.4586C1310.64 55.0042 1320.28 17.8427 1346.72 6.15326C1373.17 -5.53615 1407.14 12.3577 1422.36 46.8122Z" stroke="white" stroke-width="2"/>
</mask>
<g mask="url(#mask0)">
<rect x="1101.2" y="0.689453" width="338.794" height="223.354" fill="#C4C4C4"/>
</g>
<path d="M1213.4 82.065L785.496 170.103C774.847 172.294 766.579 175.836 767.027 178.014C767.475 180.192 776.47 180.181 787.119 177.991L1215.02 89.9523C1225.67 87.7615 1226.34 85.7851 1225.89 83.607C1225.44 81.429 1224.04 79.8742 1213.4 82.065Z" fill="url(#paint110_linear)"/>
<path d="M1224.63 61.6611L1227.8 82.5667L1226.13 103.019C1226.13 103.019 1224.65 93.744 1224.52 92.8813C1224.39 92.0186 1222.91 82.7434 1222.91 82.7434L1224.63 61.6611Z" fill="url(#paint111_linear)"/>
<path d="M1209.49 82.8809L1225.5 79.8912L1241.2 81.7335C1241.2 81.7335 1234.1 83.1288 1233.44 83.254C1232.77 83.3793 1225.67 84.7746 1225.67 84.7746L1209.49 82.8809Z" fill="url(#paint112_linear)"/>
<path d="M1136.63 140.715L1138.38 155.969L1136.63 170.766C1136.63 170.766 1135.8 163.997 1135.73 163.367C1135.66 162.738 1134.83 155.969 1134.83 155.969L1136.63 140.715Z" fill="url(#paint113_linear)"/>
<path d="M1125.08 155.716L1136.78 153.967L1148.12 155.716C1148.12 155.716 1142.93 156.542 1142.45 156.615C1141.97 156.689 1136.78 157.515 1136.78 157.515L1125.08 155.716Z" fill="url(#paint114_linear)"/>
<path d="M1025.36 66.2915L1026.69 77.8806L1025.36 89.1233C1025.36 89.1233 1024.73 83.9802 1024.68 83.5019C1024.62 83.0237 1023.99 77.8806 1023.99 77.8806L1025.36 66.2915Z" fill="url(#paint115_linear)"/>
<path d="M1016.59 77.6887L1025.47 76.3598L1034.09 77.6887C1034.09 77.6887 1030.15 78.3163 1029.78 78.3722C1029.42 78.4281 1025.47 79.0557 1025.47 79.0557L1016.59 77.6887Z" fill="url(#paint116_linear)"/>
<path d="M219.676 60.5642C219.325 61.4916 199.256 51.2113 186.746 60.0485C179.402 66.1125 176.768 76.0915 179.402 84.8626C180.825 89.5998 181.516 91.539 183.853 94.8772C185.566 97.3253 187.97 99.9958 191.308 101.888C192.069 102.45 202.295 108.609 214.712 107.147C234.242 104.85 249.373 79.2075 249.373 79.2075C249.373 79.2075 245.849 86.7907 245.524 87.4833C236.092 107.558 220.42 112.908 220.42 112.908C206.489 117.664 192.546 111.576 191.007 110.801C180.946 105.74 176.604 101.065 175.252 98.526C173.047 94.3845 167.52 78.2033 172.816 66.1125C176.742 57.1527 185.262 53.4023 186.267 52.981C202.48 46.1787 219.995 59.7216 219.676 60.5642Z" fill="url(#paint117_linear)"/>
<path d="M219.676 60.5639C219.018 61.1776 214.285 55.4678 206.686 51.3442C204.513 50.1656 196.225 45.9293 186.101 46.1468C169.32 46.5057 158.167 58.8793 156.179 61.1726C146.239 72.6338 141.559 90.2822 147.15 104.016C154.416 121.862 179.535 134.339 176.969 132.262L174.744 131.417C172.178 130.4 140.693 116.374 139.565 87.9674C138.929 71.9612 144.05 58.9984 147.15 55.4598C152.567 49.2769 156.91 46.3004 160.571 44.3344C167.929 40.3867 181.766 37.0039 192.035 38.5579C203.558 40.302 210.791 48.3869 214.318 52.3296C217.499 55.8854 220.208 60.0679 219.676 60.5639Z" fill="url(#paint118_linear)"/>
<path d="M186.267 52.9829C183.931 54.2606 181.847 55.9547 180.117 57.9821C178.68 59.6854 176.115 63.3029 174.846 71.4675C173.759 78.4643 172.561 86.1817 176.221 94.543C182.164 108.115 196.166 112.583 199.505 113.648C208.042 116.272 217.179 116.188 225.667 113.408C236.113 110.027 243.418 103.036 244.061 103.854C244.458 104.361 241.769 107.192 239.902 108.922C234.205 114.095 227.226 117.638 219.695 119.182C214.386 120.24 208.935 120.372 203.582 119.572C199.184 118.926 186.103 117.018 176.057 105.863C173.243 102.738 165.308 93.9292 165.928 81.4638C166.376 72.4846 171.037 66.1395 172.618 64.0451C176.242 59.3385 180.917 55.5497 186.267 52.9829V52.9829Z" fill="url(#paint119_linear)"/>
<path d="M219.676 60.564C220.455 60.2166 218.691 50.5152 211.818 42.4325C209.046 39.1663 205.709 36.4282 201.968 34.3497C186.499 25.9275 168.525 33.1231 164.408 34.7725C160.19 36.4614 151.078 40.2505 143.524 49.7192C135.008 60.3938 133.747 71.8458 133.262 76.8587C131.191 98.2639 142.035 115.149 143.058 114.821C143.842 114.569 138.492 103.977 139.565 87.9675C139.974 81.873 140.854 70.9048 148.547 60.19C153.208 53.8708 159.309 48.7613 166.342 45.2885C170.412 43.2687 184.224 36.4132 198.806 41.5833C203.249 43.1908 207.34 45.6444 210.853 48.8091C217.201 54.638 219.039 60.8489 219.676 60.564Z" fill="url(#paint120_linear)"/>
<path d="M193.617 119.491C193.252 120.116 172.471 114.526 162.993 96.7005C161.566 94.0189 154.101 79.8667 158.423 68.7385C160.231 64.0838 163.789 58.8728 165.226 57.2542C167.548 54.6401 172.64 54.0315 177.641 51.9019C179.888 50.9676 182.405 50.7576 184.817 50.4355C187.207 50.1398 189.325 50.2033 191.723 50.4355C194.98 50.6508 208.388 54.7667 203.882 54.0552C199.653 53.3876 190.157 51.0707 184.817 54.0552C184.328 54.3279 183.778 54.6753 183.482 54.8627C179.168 57.575 175.418 61.0981 172.44 65.238C171.404 66.7094 166.989 73.1499 166.639 81.4681C166.206 91.8757 171.898 99.469 175.258 103.951C183.74 115.258 193.881 119.044 193.617 119.491Z" fill="url(#paint121_linear)"/>
<path d="M183.519 45.6936C187.896 45.0598 191.642 44.8412 195.982 45.6936C200.962 46.6985 203.717 47.7342 207.109 49.4769C212.902 52.4535 220.235 60.086 219.677 61.2316C218.682 63.2736 194.842 45.488 175.859 53.6411C165.635 58.0317 158.693 70.9989 157.726 72.9591C155.393 77.282 155.254 80.8936 155.042 85.8035C154.882 91.6332 156.515 96.2427 158.004 100.446C160.123 106.428 163.534 112.809 163.46 112.845C163.456 112.845 163.444 112.829 163.441 112.825C152.328 96.5571 151.142 88.8849 151.142 88.8849C150.64 85.6449 148.5 71.802 157.726 60.1161C166.137 49.463 180.256 46.1709 183.519 45.6936Z" fill="url(#paint122_linear)"/>
<g clip-path="url(#clip0)">
<path d="M206.418 68.4152L205.976 69.3928C204.952 68.5316 203.626 68.0428 202.136 68.0428C198.296 68.0428 195.549 70.8125 195.549 74.6993C195.549 78.6094 198.296 81.4024 202.136 81.4024C203.602 81.4024 204.906 80.9369 205.93 80.099L206.302 80.9834H209.654V68.4152H206.418ZM202.718 77.5854C201.089 77.5854 199.902 76.3518 199.902 74.6993C199.902 73.0701 201.089 71.8598 202.718 71.8598C204.347 71.8598 205.534 73.0701 205.534 74.6993C205.534 76.3518 204.347 77.5854 202.718 77.5854Z" fill="white"/>
<path d="M217.432 80.9834H221.761V63.8767H217.432V80.9834Z" fill="white"/>
<path d="M235.911 77.213C235.003 77.213 234.445 76.6544 234.445 75.77V71.7667H237.494V68.4152H234.352V64.7611H233.444L227.811 70.7427V71.7667H230.116V76.4915C230.116 79.2844 231.815 80.9834 234.584 80.9834H237.563V77.213H235.911Z" fill="white"/>
<path d="M254.786 68.4152L254.344 69.3928C253.319 68.5316 251.993 68.0428 250.503 68.0428C246.663 68.0428 243.917 70.8125 243.917 74.6993C243.917 78.6094 246.663 81.4024 250.503 81.4024C251.97 81.4024 253.273 80.9369 254.297 80.099L254.669 80.9834H258.021V68.4152H254.786ZM251.085 77.5854C249.456 77.5854 248.269 76.3518 248.269 74.6993C248.269 73.0701 249.456 71.8598 251.085 71.8598C252.714 71.8598 253.901 73.0701 253.901 74.6993C253.901 76.3518 252.714 77.5854 251.085 77.5854Z" fill="white"/>
<path d="M265.822 66.8558H270.105V63.1785H265.822V66.8558ZM265.799 80.9834H270.128V68.4152H265.799V80.9834Z" fill="white"/>
<path d="M284.919 68.3687C283.43 68.3687 282.359 68.7876 281.475 69.8117L280.8 68.4152H277.891V80.9834H282.22V74.6062C282.22 73.0003 282.871 72.3253 284.384 72.3253H286.083V68.3687H284.919Z" fill="white"/>
</g>
<defs>
<linearGradient id="paint0_linear" x1="59.6171" y1="81.7061" x2="60.4701" y2="101.251" gradientUnits="userSpaceOnUse">
<stop stop-color="white" stop-opacity="0"/>
<stop offset="0.520833" stop-color="white"/>
<stop offset="1" stop-color="white" stop-opacity="0"/>
</linearGradient>
<linearGradient id="paint1_linear" x1="53.4497" y1="90.9629" x2="68.4338" y2="90.309" gradientUnits="userSpaceOnUse">
<stop stop-color="white" stop-opacity="0"/>
<stop offset="0.520833" stop-color="white"/>
<stop offset="1" stop-color="white" stop-opacity="0"/>
</linearGradient>
<linearGradient id="paint2_linear" x1="394.085" y1="98.77" x2="394.938" y2="118.315" gradientUnits="userSpaceOnUse">
<stop stop-color="white" stop-opacity="0"/>
<stop offset="0.520833" stop-color="white"/>
<stop offset="1" stop-color="white" stop-opacity="0"/>
</linearGradient>
<linearGradient id="paint3_linear" x1="387.918" y1="108.027" x2="402.902" y2="107.373" gradientUnits="userSpaceOnUse">
<stop stop-color="white" stop-opacity="0"/>
<stop offset="0.520833" stop-color="white"/>
<stop offset="1" stop-color="white" stop-opacity="0"/>
</linearGradient>
<linearGradient id="paint4_linear" x1="1185.45" y1="61.0343" x2="1185.97" y2="72.9175" gradientUnits="userSpaceOnUse">
<stop stop-color="white" stop-opacity="0"/>
<stop offset="0.520833" stop-color="white"/>
<stop offset="1" stop-color="white" stop-opacity="0"/>
</linearGradient>
<linearGradient id="paint5_linear" x1="1181.7" y1="66.6623" x2="1190.81" y2="66.2647" gradientUnits="userSpaceOnUse">
<stop stop-color="white" stop-opacity="0"/>
<stop offset="0.520833" stop-color="white"/>
<stop offset="1" stop-color="white" stop-opacity="0"/>
</linearGradient>
<linearGradient id="paint6_linear" x1="42.5614" y1="20.1188" x2="43.08" y2="32.0019" gradientUnits="userSpaceOnUse">
<stop stop-color="white" stop-opacity="0"/>
<stop offset="0.520833" stop-color="white"/>
<stop offset="1" stop-color="white" stop-opacity="0"/>
</linearGradient>
<linearGradient id="paint7_linear" x1="38.8119" y1="25.7467" x2="47.9221" y2="25.3492" gradientUnits="userSpaceOnUse">
<stop stop-color="white" stop-opacity="0"/>
<stop offset="0.520833" stop-color="white"/>
<stop offset="1" stop-color="white" stop-opacity="0"/>
</linearGradient>
<linearGradient id="paint8_linear" x1="1413.84" y1="27.7119" x2="1414.2" y2="45.787" gradientUnits="userSpaceOnUse">
<stop stop-color="white" stop-opacity="0"/>
<stop offset="0.520833" stop-color="white"/>
<stop offset="1" stop-color="white" stop-opacity="0"/>
</linearGradient>
<linearGradient id="paint9_linear" x1="1407.94" y1="36.1286" x2="1421.8" y2="35.8529" gradientUnits="userSpaceOnUse">
<stop stop-color="white" stop-opacity="0"/>
<stop offset="0.520833" stop-color="white"/>
<stop offset="1" stop-color="white" stop-opacity="0"/>
</linearGradient>
<linearGradient id="paint10_linear" x1="1116.53" y1="168.455" x2="1116.75" y2="179.444" gradientUnits="userSpaceOnUse">
<stop stop-color="white" stop-opacity="0"/>
<stop offset="0.520833" stop-color="white"/>
<stop offset="1" stop-color="white" stop-opacity="0"/>
</linearGradient>
<linearGradient id="paint11_linear" x1="1112.95" y1="173.572" x2="1121.37" y2="173.404" gradientUnits="userSpaceOnUse">
<stop stop-color="white" stop-opacity="0"/>
<stop offset="0.520833" stop-color="white"/>
<stop offset="1" stop-color="white" stop-opacity="0"/>
</linearGradient>
<linearGradient id="paint12_linear" x1="1226.43" y1="85.2401" x2="1226.65" y2="96.2297" gradientUnits="userSpaceOnUse">
<stop stop-color="white" stop-opacity="0"/>
<stop offset="0.520833" stop-color="white"/>
<stop offset="1" stop-color="white" stop-opacity="0"/>
</linearGradient>
<linearGradient id="paint13_linear" x1="1222.84" y1="90.3575" x2="1231.27" y2="90.1898" gradientUnits="userSpaceOnUse">
<stop stop-color="white" stop-opacity="0"/>
<stop offset="0.520833" stop-color="white"/>
<stop offset="1" stop-color="white" stop-opacity="0"/>
</linearGradient>
<linearGradient id="paint14_linear" x1="1397.83" y1="25.3971" x2="1398.05" y2="36.3866" gradientUnits="userSpaceOnUse">
<stop stop-color="white" stop-opacity="0"/>
<stop offset="0.520833" stop-color="white"/>
<stop offset="1" stop-color="white" stop-opacity="0"/>
</linearGradient>
<linearGradient id="paint15_linear" x1="1394.25" y1="30.5147" x2="1402.67" y2="30.3471" gradientUnits="userSpaceOnUse">
<stop stop-color="white" stop-opacity="0"/>
<stop offset="0.520833" stop-color="white"/>
<stop offset="1" stop-color="white" stop-opacity="0"/>
</linearGradient>
<linearGradient id="paint16_linear" x1="1071.29" y1="212.88" x2="1071.51" y2="223.869" gradientUnits="userSpaceOnUse">
<stop stop-color="white" stop-opacity="0"/>
<stop offset="0.520833" stop-color="white"/>
<stop offset="1" stop-color="white" stop-opacity="0"/>
</linearGradient>
<linearGradient id="paint17_linear" x1="1067.7" y1="217.997" x2="1076.13" y2="217.829" gradientUnits="userSpaceOnUse">
<stop stop-color="white" stop-opacity="0"/>
<stop offset="0.520833" stop-color="white"/>
<stop offset="1" stop-color="white" stop-opacity="0"/>
</linearGradient>
<linearGradient id="paint18_linear" x1="576.855" y1="177.996" x2="577.074" y2="188.986" gradientUnits="userSpaceOnUse">
<stop stop-color="white" stop-opacity="0"/>
<stop offset="0.520833" stop-color="white"/>
<stop offset="1" stop-color="white" stop-opacity="0"/>
</linearGradient>
<linearGradient id="paint19_linear" x1="573.268" y1="183.114" x2="581.693" y2="182.946" gradientUnits="userSpaceOnUse">
<stop stop-color="white" stop-opacity="0"/>
<stop offset="0.520833" stop-color="white"/>
<stop offset="1" stop-color="white" stop-opacity="0"/>
</linearGradient>
<linearGradient id="paint20_linear" x1="385.268" y1="206.978" x2="385.487" y2="217.968" gradientUnits="userSpaceOnUse">
<stop stop-color="white" stop-opacity="0"/>
<stop offset="0.520833" stop-color="white"/>
<stop offset="1" stop-color="white" stop-opacity="0"/>
</linearGradient>
<linearGradient id="paint21_linear" x1="381.68" y1="212.096" x2="390.105" y2="211.928" gradientUnits="userSpaceOnUse">
<stop stop-color="white" stop-opacity="0"/>
<stop offset="0.520833" stop-color="white"/>
<stop offset="1" stop-color="white" stop-opacity="0"/>
</linearGradient>
<linearGradient id="paint22_linear" x1="627.75" y1="84.536" x2="627.969" y2="95.5255" gradientUnits="userSpaceOnUse">
<stop stop-color="white" stop-opacity="0"/>
<stop offset="0.520833" stop-color="white"/>
<stop offset="1" stop-color="white" stop-opacity="0"/>
</linearGradient>
<linearGradient id="paint23_linear" x1="624.163" y1="89.6534" x2="632.588" y2="89.4857" gradientUnits="userSpaceOnUse">
<stop stop-color="white" stop-opacity="0"/>
<stop offset="0.520833" stop-color="white"/>
<stop offset="1" stop-color="white" stop-opacity="0"/>
</linearGradient>
<linearGradient id="paint24_linear" x1="1301.12" y1="163.259" x2="1301.34" y2="174.249" gradientUnits="userSpaceOnUse">
<stop stop-color="white" stop-opacity="0"/>
<stop offset="0.520833" stop-color="white"/>
<stop offset="1" stop-color="white" stop-opacity="0"/>
</linearGradient>
<linearGradient id="paint25_linear" x1="1297.53" y1="168.377" x2="1305.96" y2="168.209" gradientUnits="userSpaceOnUse">
<stop stop-color="white" stop-opacity="0"/>
<stop offset="0.520833" stop-color="white"/>
<stop offset="1" stop-color="white" stop-opacity="0"/>
</linearGradient>
<linearGradient id="paint26_linear" x1="1331.08" y1="18.5756" x2="1331.3" y2="29.5651" gradientUnits="userSpaceOnUse">
<stop stop-color="white" stop-opacity="0"/>
<stop offset="0.520833" stop-color="white"/>
<stop offset="1" stop-color="white" stop-opacity="0"/>
</linearGradient>
<linearGradient id="paint27_linear" x1="1327.49" y1="23.6931" x2="1335.92" y2="23.5255" gradientUnits="userSpaceOnUse">
<stop stop-color="white" stop-opacity="0"/>
<stop offset="0.520833" stop-color="white"/>
<stop offset="1" stop-color="white" stop-opacity="0"/>
</linearGradient>
<linearGradient id="paint28_linear" x1="1312.45" y1="112.236" x2="1312.67" y2="123.226" gradientUnits="userSpaceOnUse">
<stop stop-color="white" stop-opacity="0"/>
<stop offset="0.520833" stop-color="white"/>
<stop offset="1" stop-color="white" stop-opacity="0"/>
</linearGradient>
<linearGradient id="paint29_linear" x1="1308.87" y1="117.354" x2="1317.29" y2="117.186" gradientUnits="userSpaceOnUse">
<stop stop-color="white" stop-opacity="0"/>
<stop offset="0.520833" stop-color="white"/>
<stop offset="1" stop-color="white" stop-opacity="0"/>
</linearGradient>
<linearGradient id="paint30_linear" x1="1254.82" y1="6.92911" x2="1255.04" y2="17.9186" gradientUnits="userSpaceOnUse">
<stop stop-color="white" stop-opacity="0"/>
<stop offset="0.520833" stop-color="white"/>
<stop offset="1" stop-color="white" stop-opacity="0"/>
</linearGradient>
<linearGradient id="paint31_linear" x1="1251.23" y1="12.0467" x2="1259.65" y2="11.879" gradientUnits="userSpaceOnUse">
<stop stop-color="white" stop-opacity="0"/>
<stop offset="0.520833" stop-color="white"/>
<stop offset="1" stop-color="white" stop-opacity="0"/>
</linearGradient>
<linearGradient id="paint32_linear" x1="1205.19" y1="150.136" x2="1205.41" y2="161.125" gradientUnits="userSpaceOnUse">
<stop stop-color="white" stop-opacity="0"/>
<stop offset="0.520833" stop-color="white"/>
<stop offset="1" stop-color="white" stop-opacity="0"/>
</linearGradient>
<linearGradient id="paint33_linear" x1="1201.61" y1="155.253" x2="1210.03" y2="155.085" gradientUnits="userSpaceOnUse">
<stop stop-color="white" stop-opacity="0"/>
<stop offset="0.520833" stop-color="white"/>
<stop offset="1" stop-color="white" stop-opacity="0"/>
</linearGradient>
<linearGradient id="paint34_linear" x1="982.763" y1="130.841" x2="982.981" y2="141.83" gradientUnits="userSpaceOnUse">
<stop stop-color="white" stop-opacity="0"/>
<stop offset="0.520833" stop-color="white"/>
<stop offset="1" stop-color="white" stop-opacity="0"/>
</linearGradient>
<linearGradient id="paint35_linear" x1="979.175" y1="135.959" x2="987.6" y2="135.791" gradientUnits="userSpaceOnUse">
<stop stop-color="white" stop-opacity="0"/>
<stop offset="0.520833" stop-color="white"/>
<stop offset="1" stop-color="white" stop-opacity="0"/>
</linearGradient>
<linearGradient id="paint36_linear" x1="1133.46" y1="109.16" x2="1133.68" y2="120.149" gradientUnits="userSpaceOnUse">
<stop stop-color="white" stop-opacity="0"/>
<stop offset="0.520833" stop-color="white"/>
<stop offset="1" stop-color="white" stop-opacity="0"/>
</linearGradient>
<linearGradient id="paint37_linear" x1="1129.87" y1="114.277" x2="1138.29" y2="114.11" gradientUnits="userSpaceOnUse">
<stop stop-color="white" stop-opacity="0"/>
<stop offset="0.520833" stop-color="white"/>
<stop offset="1" stop-color="white" stop-opacity="0"/>
</linearGradient>
<linearGradient id="paint38_linear" x1="1349.15" y1="190.586" x2="1349.37" y2="201.576" gradientUnits="userSpaceOnUse">
<stop stop-color="white" stop-opacity="0"/>
<stop offset="0.520833" stop-color="white"/>
<stop offset="1" stop-color="white" stop-opacity="0"/>
</linearGradient>
<linearGradient id="paint39_linear" x1="1345.56" y1="195.704" x2="1353.99" y2="195.536" gradientUnits="userSpaceOnUse">
<stop stop-color="white" stop-opacity="0"/>
<stop offset="0.520833" stop-color="white"/>
<stop offset="1" stop-color="white" stop-opacity="0"/>
</linearGradient>
<linearGradient id="paint40_linear" x1="1188.11" y1="196.074" x2="1188.33" y2="207.064" gradientUnits="userSpaceOnUse">
<stop stop-color="white" stop-opacity="0"/>
<stop offset="0.520833" stop-color="white"/>
<stop offset="1" stop-color="white" stop-opacity="0"/>
</linearGradient>
<linearGradient id="paint41_linear" x1="1184.52" y1="201.192" x2="1192.95" y2="201.024" gradientUnits="userSpaceOnUse">
<stop stop-color="white" stop-opacity="0"/>
<stop offset="0.520833" stop-color="white"/>
<stop offset="1" stop-color="white" stop-opacity="0"/>
</linearGradient>
<linearGradient id="paint42_linear" x1="1226.3" y1="199.931" x2="1226.51" y2="210.921" gradientUnits="userSpaceOnUse">
<stop stop-color="white" stop-opacity="0"/>
<stop offset="0.520833" stop-color="white"/>
<stop offset="1" stop-color="white" stop-opacity="0"/>
</linearGradient>
<linearGradient id="paint43_linear" x1="1222.71" y1="205.049" x2="1231.13" y2="204.881" gradientUnits="userSpaceOnUse">
<stop stop-color="white" stop-opacity="0"/>
<stop offset="0.520833" stop-color="white"/>
<stop offset="1" stop-color="white" stop-opacity="0"/>
</linearGradient>
<linearGradient id="paint44_linear" x1="1038.09" y1="152.338" x2="1038.31" y2="163.328" gradientUnits="userSpaceOnUse">
<stop stop-color="white" stop-opacity="0"/>
<stop offset="0.520833" stop-color="white"/>
<stop offset="1" stop-color="white" stop-opacity="0"/>
</linearGradient>
<linearGradient id="paint45_linear" x1="1034.5" y1="157.455" x2="1042.93" y2="157.288" gradientUnits="userSpaceOnUse">
<stop stop-color="white" stop-opacity="0"/>
<stop offset="0.520833" stop-color="white"/>
<stop offset="1" stop-color="white" stop-opacity="0"/>
</linearGradient>
<linearGradient id="paint46_linear" x1="1190.7" y1="162.26" x2="1190.92" y2="173.249" gradientUnits="userSpaceOnUse">
<stop stop-color="white" stop-opacity="0"/>
<stop offset="0.520833" stop-color="white"/>
<stop offset="1" stop-color="white" stop-opacity="0"/>
</linearGradient>
<linearGradient id="paint47_linear" x1="1187.11" y1="167.377" x2="1195.54" y2="167.209" gradientUnits="userSpaceOnUse">
<stop stop-color="white" stop-opacity="0"/>
<stop offset="0.520833" stop-color="white"/>
<stop offset="1" stop-color="white" stop-opacity="0"/>
</linearGradient>
<linearGradient id="paint48_linear" x1="36.5996" y1="172.615" x2="36.8182" y2="183.605" gradientUnits="userSpaceOnUse">
<stop stop-color="white" stop-opacity="0"/>
<stop offset="0.520833" stop-color="white"/>
<stop offset="1" stop-color="white" stop-opacity="0"/>
</linearGradient>
<linearGradient id="paint49_linear" x1="33.0119" y1="177.732" x2="41.437" y2="177.565" gradientUnits="userSpaceOnUse">
<stop stop-color="white" stop-opacity="0"/>
<stop offset="0.520833" stop-color="white"/>
<stop offset="1" stop-color="white" stop-opacity="0"/>
</linearGradient>
<linearGradient id="paint50_linear" x1="102.788" y1="125.46" x2="103.006" y2="136.45" gradientUnits="userSpaceOnUse">
<stop stop-color="white" stop-opacity="0"/>
<stop offset="0.520833" stop-color="white"/>
<stop offset="1" stop-color="white" stop-opacity="0"/>
</linearGradient>
<linearGradient id="paint51_linear" x1="99.1999" y1="130.578" x2="107.625" y2="130.41" gradientUnits="userSpaceOnUse">
<stop stop-color="white" stop-opacity="0"/>
<stop offset="0.520833" stop-color="white"/>
<stop offset="1" stop-color="white" stop-opacity="0"/>
</linearGradient>
<linearGradient id="paint52_linear" x1="357.229" y1="98.894" x2="357.448" y2="109.883" gradientUnits="userSpaceOnUse">
<stop stop-color="white" stop-opacity="0"/>
<stop offset="0.520833" stop-color="white"/>
<stop offset="1" stop-color="white" stop-opacity="0"/>
</linearGradient>
<linearGradient id="paint53_linear" x1="353.641" y1="104.011" x2="362.066" y2="103.844" gradientUnits="userSpaceOnUse">
<stop stop-color="white" stop-opacity="0"/>
<stop offset="0.520833" stop-color="white"/>
<stop offset="1" stop-color="white" stop-opacity="0"/>
</linearGradient>
<linearGradient id="paint54_linear" x1="431.297" y1="117.618" x2="431.516" y2="128.607" gradientUnits="userSpaceOnUse">
<stop stop-color="white" stop-opacity="0"/>
<stop offset="0.520833" stop-color="white"/>
<stop offset="1" stop-color="white" stop-opacity="0"/>
</linearGradient>
<linearGradient id="paint55_linear" x1="427.71" y1="122.735" x2="436.135" y2="122.567" gradientUnits="userSpaceOnUse">
<stop stop-color="white" stop-opacity="0"/>
<stop offset="0.520833" stop-color="white"/>
<stop offset="1" stop-color="white" stop-opacity="0"/>
</linearGradient>
<linearGradient id="paint56_linear" x1="366.72" y1="51.3046" x2="366.938" y2="62.2941" gradientUnits="userSpaceOnUse">
<stop stop-color="white" stop-opacity="0"/>
<stop offset="0.520833" stop-color="white"/>
<stop offset="1" stop-color="white" stop-opacity="0"/>
</linearGradient>
<linearGradient id="paint57_linear" x1="363.132" y1="56.4219" x2="371.557" y2="56.2543" gradientUnits="userSpaceOnUse">
<stop stop-color="white" stop-opacity="0"/>
<stop offset="0.520833" stop-color="white"/>
<stop offset="1" stop-color="white" stop-opacity="0"/>
</linearGradient>
<linearGradient id="paint58_linear" x1="461.679" y1="30.5922" x2="461.898" y2="41.5817" gradientUnits="userSpaceOnUse">
<stop stop-color="white" stop-opacity="0"/>
<stop offset="0.520833" stop-color="white"/>
<stop offset="1" stop-color="white" stop-opacity="0"/>
</linearGradient>
<linearGradient id="paint59_linear" x1="458.092" y1="35.7095" x2="466.517" y2="35.5419" gradientUnits="userSpaceOnUse">
<stop stop-color="white" stop-opacity="0"/>
<stop offset="0.520833" stop-color="white"/>
<stop offset="1" stop-color="white" stop-opacity="0"/>
</linearGradient>
<linearGradient id="paint60_linear" x1="606.169" y1="42.0341" x2="606.388" y2="53.0236" gradientUnits="userSpaceOnUse">
<stop stop-color="white" stop-opacity="0"/>
<stop offset="0.520833" stop-color="white"/>
<stop offset="1" stop-color="white" stop-opacity="0"/>
</linearGradient>
<linearGradient id="paint61_linear" x1="602.581" y1="47.1514" x2="611.006" y2="46.9838" gradientUnits="userSpaceOnUse">
<stop stop-color="white" stop-opacity="0"/>
<stop offset="0.520833" stop-color="white"/>
<stop offset="1" stop-color="white" stop-opacity="0"/>
</linearGradient>
<linearGradient id="paint62_linear" x1="760.966" y1="21.142" x2="761.184" y2="32.1315" gradientUnits="userSpaceOnUse">
<stop stop-color="white" stop-opacity="0"/>
<stop offset="0.520833" stop-color="white"/>
<stop offset="1" stop-color="white" stop-opacity="0"/>
</linearGradient>
<linearGradient id="paint63_linear" x1="757.378" y1="26.2593" x2="765.803" y2="26.0917" gradientUnits="userSpaceOnUse">
<stop stop-color="white" stop-opacity="0"/>
<stop offset="0.520833" stop-color="white"/>
<stop offset="1" stop-color="white" stop-opacity="0"/>
</linearGradient>
<linearGradient id="paint64_linear" x1="1003.59" y1="28.1501" x2="1003.81" y2="39.1396" gradientUnits="userSpaceOnUse">
<stop stop-color="white" stop-opacity="0"/>
<stop offset="0.520833" stop-color="white"/>
<stop offset="1" stop-color="white" stop-opacity="0"/>
</linearGradient>
<linearGradient id="paint65_linear" x1="1000" y1="33.2674" x2="1008.43" y2="33.0997" gradientUnits="userSpaceOnUse">
<stop stop-color="white" stop-opacity="0"/>
<stop offset="0.520833" stop-color="white"/>
<stop offset="1" stop-color="white" stop-opacity="0"/>
</linearGradient>
<linearGradient id="paint66_linear" x1="959.58" y1="53.4262" x2="959.798" y2="64.4157" gradientUnits="userSpaceOnUse">
<stop stop-color="white" stop-opacity="0"/>
<stop offset="0.520833" stop-color="white"/>
<stop offset="1" stop-color="white" stop-opacity="0"/>
</linearGradient>
<linearGradient id="paint67_linear" x1="955.992" y1="58.5435" x2="964.417" y2="58.3759" gradientUnits="userSpaceOnUse">
<stop stop-color="white" stop-opacity="0"/>
<stop offset="0.520833" stop-color="white"/>
<stop offset="1" stop-color="white" stop-opacity="0"/>
</linearGradient>
<linearGradient id="paint68_linear" x1="186.418" y1="172.802" x2="186.637" y2="183.791" gradientUnits="userSpaceOnUse">
<stop stop-color="white" stop-opacity="0"/>
<stop offset="0.520833" stop-color="white"/>
<stop offset="1" stop-color="white" stop-opacity="0"/>
</linearGradient>
<linearGradient id="paint69_linear" x1="182.83" y1="177.919" x2="191.255" y2="177.751" gradientUnits="userSpaceOnUse">
<stop stop-color="white" stop-opacity="0"/>
<stop offset="0.520833" stop-color="white"/>
<stop offset="1" stop-color="white" stop-opacity="0"/>
</linearGradient>
<linearGradient id="paint70_linear" x1="304.098" y1="129.159" x2="304.317" y2="140.149" gradientUnits="userSpaceOnUse">
<stop stop-color="white" stop-opacity="0"/>
<stop offset="0.520833" stop-color="white"/>
<stop offset="1" stop-color="white" stop-opacity="0"/>
</linearGradient>
<linearGradient id="paint71_linear" x1="300.51" y1="134.276" x2="308.936" y2="134.109" gradientUnits="userSpaceOnUse">
<stop stop-color="white" stop-opacity="0"/>
<stop offset="0.520833" stop-color="white"/>
<stop offset="1" stop-color="white" stop-opacity="0"/>
</linearGradient>
<linearGradient id="paint72_linear" x1="281.085" y1="167.42" x2="281.304" y2="178.41" gradientUnits="userSpaceOnUse">
<stop stop-color="white" stop-opacity="0"/>
<stop offset="0.520833" stop-color="white"/>
<stop offset="1" stop-color="white" stop-opacity="0"/>
</linearGradient>
<linearGradient id="paint73_linear" x1="277.497" y1="172.538" x2="285.922" y2="172.37" gradientUnits="userSpaceOnUse">
<stop stop-color="white" stop-opacity="0"/>
<stop offset="0.520833" stop-color="white"/>
<stop offset="1" stop-color="white" stop-opacity="0"/>
</linearGradient>
<linearGradient id="paint74_linear" x1="195.35" y1="181.059" x2="195.569" y2="192.049" gradientUnits="userSpaceOnUse">
<stop stop-color="white" stop-opacity="0"/>
<stop offset="0.520833" stop-color="white"/>
<stop offset="1" stop-color="white" stop-opacity="0"/>
</linearGradient>
<linearGradient id="paint75_linear" x1="191.762" y1="186.177" x2="200.187" y2="186.009" gradientUnits="userSpaceOnUse">
<stop stop-color="white" stop-opacity="0"/>
<stop offset="0.520833" stop-color="white"/>
<stop offset="1" stop-color="white" stop-opacity="0"/>
</linearGradient>
<linearGradient id="paint76_linear" x1="1392.2" y1="53.8014" x2="1392.42" y2="64.7909" gradientUnits="userSpaceOnUse">
<stop stop-color="white" stop-opacity="0"/>
<stop offset="0.520833" stop-color="white"/>
<stop offset="1" stop-color="white" stop-opacity="0"/>
</linearGradient>
<linearGradient id="paint77_linear" x1="1388.61" y1="58.919" x2="1397.04" y2="58.7513" gradientUnits="userSpaceOnUse">
<stop stop-color="white" stop-opacity="0"/>
<stop offset="0.520833" stop-color="white"/>
<stop offset="1" stop-color="white" stop-opacity="0"/>
</linearGradient>
<linearGradient id="paint78_linear" x1="1360.37" y1="137.036" x2="1360.59" y2="148.025" gradientUnits="userSpaceOnUse">
<stop stop-color="white" stop-opacity="0"/>
<stop offset="0.520833" stop-color="white"/>
<stop offset="1" stop-color="white" stop-opacity="0"/>
</linearGradient>
<linearGradient id="paint79_linear" x1="1356.79" y1="142.153" x2="1365.21" y2="141.985" gradientUnits="userSpaceOnUse">
<stop stop-color="white" stop-opacity="0"/>
<stop offset="0.520833" stop-color="white"/>
<stop offset="1" stop-color="white" stop-opacity="0"/>
</linearGradient>
<linearGradient id="paint80_linear" x1="1350.88" y1="57.7917" x2="1351.1" y2="68.7812" gradientUnits="userSpaceOnUse">
<stop stop-color="white" stop-opacity="0"/>
<stop offset="0.520833" stop-color="white"/>
<stop offset="1" stop-color="white" stop-opacity="0"/>
</linearGradient>
<linearGradient id="paint81_linear" x1="1347.29" y1="62.9092" x2="1355.72" y2="62.7416" gradientUnits="userSpaceOnUse">
<stop stop-color="white" stop-opacity="0"/>
<stop offset="0.520833" stop-color="white"/>
<stop offset="1" stop-color="white" stop-opacity="0"/>
</linearGradient>
<linearGradient id="paint82_linear" x1="1083.92" y1="60.2482" x2="1084.14" y2="71.2377" gradientUnits="userSpaceOnUse">
<stop stop-color="white" stop-opacity="0"/>
<stop offset="0.520833" stop-color="white"/>
<stop offset="1" stop-color="white" stop-opacity="0"/>
</linearGradient>
<linearGradient id="paint83_linear" x1="1080.33" y1="65.3655" x2="1088.76" y2="65.1979" gradientUnits="userSpaceOnUse">
<stop stop-color="white" stop-opacity="0"/>
<stop offset="0.520833" stop-color="white"/>
<stop offset="1" stop-color="white" stop-opacity="0"/>
</linearGradient>
<linearGradient id="paint84_linear" x1="1077.59" y1="174.462" x2="1077.81" y2="185.452" gradientUnits="userSpaceOnUse">
<stop stop-color="white" stop-opacity="0"/>
<stop offset="0.520833" stop-color="white"/>
<stop offset="1" stop-color="white" stop-opacity="0"/>
</linearGradient>
<linearGradient id="paint85_linear" x1="1074" y1="179.58" x2="1082.43" y2="179.412" gradientUnits="userSpaceOnUse">
<stop stop-color="white" stop-opacity="0"/>
<stop offset="0.520833" stop-color="white"/>
<stop offset="1" stop-color="white" stop-opacity="0"/>
</linearGradient>
<linearGradient id="paint86_linear" x1="768.822" y1="114.253" x2="769.04" y2="125.242" gradientUnits="userSpaceOnUse">
<stop stop-color="white" stop-opacity="0"/>
<stop offset="0.520833" stop-color="white"/>
<stop offset="1" stop-color="white" stop-opacity="0"/>
</linearGradient>
<linearGradient id="paint87_linear" x1="765.234" y1="119.37" x2="773.659" y2="119.203" gradientUnits="userSpaceOnUse">
<stop stop-color="white" stop-opacity="0"/>
<stop offset="0.520833" stop-color="white"/>
<stop offset="1" stop-color="white" stop-opacity="0"/>
</linearGradient>
<linearGradient id="paint88_linear" x1="911.305" y1="98.8156" x2="911.524" y2="109.805" gradientUnits="userSpaceOnUse">
<stop stop-color="white" stop-opacity="0"/>
<stop offset="0.520833" stop-color="white"/>
<stop offset="1" stop-color="white" stop-opacity="0"/>
</linearGradient>
<linearGradient id="paint89_linear" x1="907.718" y1="103.933" x2="916.143" y2="103.765" gradientUnits="userSpaceOnUse">
<stop stop-color="white" stop-opacity="0"/>
<stop offset="0.520833" stop-color="white"/>
<stop offset="1" stop-color="white" stop-opacity="0"/>
</linearGradient>
<linearGradient id="paint90_linear" x1="1231.37" y1="28.1493" x2="1231.58" y2="39.1388" gradientUnits="userSpaceOnUse">
<stop stop-color="white" stop-opacity="0"/>
<stop offset="0.520833" stop-color="white"/>
<stop offset="1" stop-color="white" stop-opacity="0"/>
</linearGradient>
<linearGradient id="paint91_linear" x1="1227.78" y1="33.2669" x2="1236.2" y2="33.0992" gradientUnits="userSpaceOnUse">
<stop stop-color="white" stop-opacity="0"/>
<stop offset="0.520833" stop-color="white"/>
<stop offset="1" stop-color="white" stop-opacity="0"/>
</linearGradient>
<linearGradient id="paint92_linear" x1="1363.51" y1="10.0509" x2="1363.73" y2="21.0404" gradientUnits="userSpaceOnUse">
<stop stop-color="white" stop-opacity="0"/>
<stop offset="0.520833" stop-color="white"/>
<stop offset="1" stop-color="white" stop-opacity="0"/>
</linearGradient>
<linearGradient id="paint93_linear" x1="1359.93" y1="15.1685" x2="1368.35" y2="15.0009" gradientUnits="userSpaceOnUse">
<stop stop-color="white" stop-opacity="0"/>
<stop offset="0.520833" stop-color="white"/>
<stop offset="1" stop-color="white" stop-opacity="0"/>
</linearGradient>
<linearGradient id="paint94_linear" x1="1297.4" y1="75.9713" x2="1297.62" y2="86.9609" gradientUnits="userSpaceOnUse">
<stop stop-color="white" stop-opacity="0"/>
<stop offset="0.520833" stop-color="white"/>
<stop offset="1" stop-color="white" stop-opacity="0"/>
</linearGradient>
<linearGradient id="paint95_linear" x1="1293.82" y1="81.0889" x2="1302.24" y2="80.9213" gradientUnits="userSpaceOnUse">
<stop stop-color="white" stop-opacity="0"/>
<stop offset="0.520833" stop-color="white"/>
<stop offset="1" stop-color="white" stop-opacity="0"/>
</linearGradient>
<linearGradient id="paint96_linear" x1="1155.84" y1="129.159" x2="1156.06" y2="140.149" gradientUnits="userSpaceOnUse">
<stop stop-color="white" stop-opacity="0"/>
<stop offset="0.520833" stop-color="white"/>
<stop offset="1" stop-color="white" stop-opacity="0"/>
</linearGradient>
<linearGradient id="paint97_linear" x1="1152.25" y1="134.276" x2="1160.68" y2="134.109" gradientUnits="userSpaceOnUse">
<stop stop-color="white" stop-opacity="0"/>
<stop offset="0.520833" stop-color="white"/>
<stop offset="1" stop-color="white" stop-opacity="0"/>
</linearGradient>
<linearGradient id="paint98_linear" x1="1149.36" y1="187.807" x2="1149.58" y2="198.797" gradientUnits="userSpaceOnUse">
<stop stop-color="white" stop-opacity="0"/>
<stop offset="0.520833" stop-color="white"/>
<stop offset="1" stop-color="white" stop-opacity="0"/>
</linearGradient>
<linearGradient id="paint99_linear" x1="1145.77" y1="192.924" x2="1154.19" y2="192.757" gradientUnits="userSpaceOnUse">
<stop stop-color="white" stop-opacity="0"/>
<stop offset="0.520833" stop-color="white"/>
<stop offset="1" stop-color="white" stop-opacity="0"/>
</linearGradient>
<linearGradient id="paint100_linear" x1="1267.86" y1="51.4955" x2="1268.08" y2="62.485" gradientUnits="userSpaceOnUse">
<stop stop-color="white" stop-opacity="0"/>
<stop offset="0.520833" stop-color="white"/>
<stop offset="1" stop-color="white" stop-opacity="0"/>
</linearGradient>
<linearGradient id="paint101_linear" x1="1264.27" y1="56.6126" x2="1272.7" y2="56.445" gradientUnits="userSpaceOnUse">
<stop stop-color="white" stop-opacity="0"/>
<stop offset="0.520833" stop-color="white"/>
<stop offset="1" stop-color="white" stop-opacity="0"/>
</linearGradient>
<linearGradient id="paint102_linear" x1="1013.08" y1="184.578" x2="1013.3" y2="195.567" gradientUnits="userSpaceOnUse">
<stop stop-color="white" stop-opacity="0"/>
<stop offset="0.520833" stop-color="white"/>
<stop offset="1" stop-color="white" stop-opacity="0"/>
</linearGradient>
<linearGradient id="paint103_linear" x1="1009.49" y1="189.695" x2="1017.92" y2="189.527" gradientUnits="userSpaceOnUse">
<stop stop-color="white" stop-opacity="0"/>
<stop offset="0.520833" stop-color="white"/>
<stop offset="1" stop-color="white" stop-opacity="0"/>
</linearGradient>
<linearGradient id="paint104_linear" x1="1399.06" y1="99.9262" x2="1399.28" y2="110.916" gradientUnits="userSpaceOnUse">
<stop stop-color="white" stop-opacity="0"/>
<stop offset="0.520833" stop-color="white"/>
<stop offset="1" stop-color="white" stop-opacity="0"/>
</linearGradient>
<linearGradient id="paint105_linear" x1="1395.47" y1="105.044" x2="1403.9" y2="104.876" gradientUnits="userSpaceOnUse">
<stop stop-color="white" stop-opacity="0"/>
<stop offset="0.520833" stop-color="white"/>
<stop offset="1" stop-color="white" stop-opacity="0"/>
</linearGradient>
<linearGradient id="paint106_linear" x1="1249.26" y1="142.231" x2="1249.66" y2="162.088" gradientUnits="userSpaceOnUse">
<stop stop-color="white" stop-opacity="0"/>
<stop offset="0.520833" stop-color="white"/>
<stop offset="1" stop-color="white" stop-opacity="0"/>
</linearGradient>
<linearGradient id="paint107_linear" x1="1242.78" y1="151.478" x2="1258" y2="151.175" gradientUnits="userSpaceOnUse">
<stop stop-color="white" stop-opacity="0"/>
<stop offset="0.520833" stop-color="white"/>
<stop offset="1" stop-color="white" stop-opacity="0"/>
</linearGradient>
<linearGradient id="paint108_linear" x1="1396.1" y1="149.127" x2="1396.77" y2="183.05" gradientUnits="userSpaceOnUse">
<stop stop-color="white" stop-opacity="0"/>
<stop offset="0.520833" stop-color="white"/>
<stop offset="1" stop-color="white" stop-opacity="0"/>
</linearGradient>
<linearGradient id="paint109_linear" x1="1385.03" y1="164.922" x2="1411.03" y2="164.405" gradientUnits="userSpaceOnUse">
<stop stop-color="white" stop-opacity="0"/>
<stop offset="0.520833" stop-color="white"/>
<stop offset="1" stop-color="white" stop-opacity="0"/>
</linearGradient>
<linearGradient id="paint110_linear" x1="767.027" y1="178.014" x2="1233.49" y2="82.0418" gradientUnits="userSpaceOnUse">
<stop/>
<stop offset="0.762" stop-color="#777777"/>
</linearGradient>
<linearGradient id="paint111_linear" x1="1224.4" y1="65.6028" x2="1225.74" y2="102.849" gradientUnits="userSpaceOnUse">
<stop stop-color="white" stop-opacity="0"/>
<stop offset="0.520833" stop-color="white"/>
<stop offset="1" stop-color="white" stop-opacity="0"/>
</linearGradient>
<linearGradient id="paint112_linear" x1="1212.52" y1="83.15" x2="1241.07" y2="82.1167" gradientUnits="userSpaceOnUse">
<stop stop-color="white" stop-opacity="0"/>
<stop offset="0.520833" stop-color="white"/>
<stop offset="1" stop-color="white" stop-opacity="0"/>
</linearGradient>
<linearGradient id="paint113_linear" x1="1136.35" y1="143.569" x2="1136.35" y2="170.632" gradientUnits="userSpaceOnUse">
<stop stop-color="white" stop-opacity="0"/>
<stop offset="0.520833" stop-color="white"/>
<stop offset="1" stop-color="white" stop-opacity="0"/>
</linearGradient>
<linearGradient id="paint114_linear" x1="1127.27" y1="155.991" x2="1148.02" y2="155.991" gradientUnits="userSpaceOnUse">
<stop stop-color="white" stop-opacity="0"/>
<stop offset="0.520833" stop-color="white"/>
<stop offset="1" stop-color="white" stop-opacity="0"/>
</linearGradient>
<linearGradient id="paint115_linear" x1="1025.15" y1="68.46" x2="1025.15" y2="89.0217" gradientUnits="userSpaceOnUse">
<stop stop-color="white" stop-opacity="0"/>
<stop offset="0.520833" stop-color="white"/>
<stop offset="1" stop-color="white" stop-opacity="0"/>
</linearGradient>
<linearGradient id="paint116_linear" x1="1018.25" y1="77.8975" x2="1034.02" y2="77.8975" gradientUnits="userSpaceOnUse">
<stop stop-color="white" stop-opacity="0"/>
<stop offset="0.520833" stop-color="white"/>
<stop offset="1" stop-color="white" stop-opacity="0"/>
</linearGradient>
<linearGradient id="paint117_linear" x1="209.981" y1="51.0767" x2="209.981" y2="114.707" gradientUnits="userSpaceOnUse">
<stop stop-color="#FAB961"/>
<stop offset="1"/>
</linearGradient>
<linearGradient id="paint118_linear" x1="179.627" y1="38.1719" x2="179.627" y2="132.487" gradientUnits="userSpaceOnUse">
<stop stop-color="#FAB961"/>
<stop offset="1"/>
</linearGradient>
<linearGradient id="paint119_linear" x1="204.997" y1="52.9829" x2="204.997" y2="120.088" gradientUnits="userSpaceOnUse">
<stop stop-color="#FAB961"/>
<stop offset="1"/>
</linearGradient>
<linearGradient id="paint120_linear" x1="176.423" y1="30.3379" x2="176.423" y2="114.825" gradientUnits="userSpaceOnUse">
<stop/>
<stop offset="0.414296" stop-color="#FAB961"/>
</linearGradient>
<linearGradient id="paint121_linear" x1="177.435" y1="50.8322" x2="177.435" y2="119.537" gradientUnits="userSpaceOnUse">
<stop/>
<stop offset="1" stop-color="#FAB961"/>
</linearGradient>
<linearGradient id="paint122_linear" x1="185.137" y1="46.7875" x2="185.137" y2="112.845" gradientUnits="userSpaceOnUse">
<stop/>
<stop offset="1" stop-color="#FAB961"/>
</linearGradient>
<clipPath id="clip0">
<rect width="112.881" height="19.7833" fill="white" transform="translate(191.911 65.2688)"/>
</clipPath>
</defs>
</svg>
