<svg width="271" height="199" viewBox="0 0 271 199" fill="none" xmlns="http://www.w3.org/2000/svg">
<rect x="0.913086" y="0.897461" width="269" height="196.642" rx="8" stroke="#BBBBBB"/>
<g opacity="0.8">
<path d="M127.941 11.1588L128.774 17.3386L128.183 23.3616C128.183 23.3616 127.793 20.6195 127.758 20.3644C127.723 20.1094 127.333 17.3673 127.333 17.3673L127.941 11.1588Z" fill="url(#paint0_linear)"/>
<path d="M123.374 17.3436L128.109 16.5389L132.729 17.1575C132.729 17.1575 130.629 17.5349 130.433 17.5686C130.238 17.6024 128.137 17.9797 128.137 17.9797L123.374 17.3436Z" fill="url(#paint1_linear)"/>
</g>
<path d="M257.926 42.7794L258.759 48.9592L258.169 54.9822C258.169 54.9822 257.779 52.2401 257.744 51.985C257.709 51.73 257.319 48.9879 257.319 48.9879L257.926 42.7794Z" fill="url(#paint2_linear)"/>
<path d="M253.359 48.9643L258.094 48.1595L262.715 48.7781C262.715 48.7781 260.614 49.1555 260.419 49.1892C260.223 49.223 258.123 49.6003 258.123 49.6003L253.359 48.9643Z" fill="url(#paint3_linear)"/>
<g opacity="0.8">
<path d="M193.391 19.0963L194.224 25.2761L193.634 31.2991C193.634 31.2991 193.243 28.557 193.208 28.3019C193.174 28.0469 192.783 25.3048 192.783 25.3048L193.391 19.0963Z" fill="url(#paint4_linear)"/>
<path d="M188.824 25.2807L193.559 24.4759L198.18 25.0945C198.18 25.0945 196.079 25.4719 195.883 25.5056C195.688 25.5394 193.587 25.9168 193.587 25.9168L188.824 25.2807Z" fill="url(#paint5_linear)"/>
</g>
<path d="M251.563 67.8512L252.396 74.031L251.805 80.054C251.805 80.054 251.415 77.3118 251.38 77.0568C251.345 76.8018 250.955 74.0597 250.955 74.0597L251.563 67.8512Z" fill="url(#paint6_linear)"/>
<path d="M246.996 74.036L251.731 73.2313L256.351 73.8499C256.351 73.8499 254.251 74.2272 254.055 74.261C253.86 74.2948 251.759 74.6721 251.759 74.6721L246.996 74.036Z" fill="url(#paint7_linear)"/>
<path d="M239.617 103.417L240.302 108.496L239.817 113.447C239.817 113.447 239.496 111.193 239.467 110.983C239.439 110.774 239.118 108.52 239.118 108.52L239.617 103.417Z" fill="url(#paint8_linear)"/>
<path d="M235.863 108.5L239.755 107.839L243.553 108.347C243.553 108.347 241.826 108.657 241.665 108.685C241.505 108.713 239.778 109.023 239.778 109.023L235.863 108.5Z" fill="url(#paint9_linear)"/>
<path d="M228.833 62.6564L229.667 68.8362L229.076 74.8591C229.076 74.8591 228.686 72.117 228.651 71.862C228.616 71.607 228.226 68.8648 228.226 68.8648L228.833 62.6564Z" fill="url(#paint10_linear)"/>
<path d="M224.267 68.8407L229.001 68.036L233.622 68.6546C233.622 68.6546 231.521 69.0319 231.326 69.0657C231.13 69.0995 229.03 69.4768 229.03 69.4768L224.267 68.8407Z" fill="url(#paint11_linear)"/>
<circle cx="231.043" cy="37.8651" r="21.6952" fill="white"/>
<circle cx="231.043" cy="37.8651" r="21.6952" fill="url(#paint12_linear)"/>
<path d="M243.522 8.27881L244.984 21.0211L243.522 33.3826C243.522 33.3826 242.832 27.7277 242.771 27.2019C242.71 26.676 242.02 21.0211 242.02 21.0211L243.522 8.27881Z" fill="url(#paint13_linear)"/>
<path d="M233.879 20.8096L243.648 19.3484L253.125 20.8096C253.125 20.8096 248.789 21.4996 248.386 21.561C247.983 21.6225 243.648 22.3125 243.648 22.3125L233.879 20.8096Z" fill="url(#paint14_linear)"/>
<defs>
<linearGradient id="paint0_linear" x1="127.852" y1="12.32" x2="128.071" y2="23.3095" gradientUnits="userSpaceOnUse">
<stop stop-color="white" stop-opacity="0"/>
<stop offset="0.520833" stop-color="white"/>
<stop offset="1" stop-color="white" stop-opacity="0"/>
</linearGradient>
<linearGradient id="paint1_linear" x1="124.265" y1="17.4375" x2="132.69" y2="17.2699" gradientUnits="userSpaceOnUse">
<stop stop-color="white" stop-opacity="0"/>
<stop offset="0.520833" stop-color="white"/>
<stop offset="1" stop-color="white" stop-opacity="0"/>
</linearGradient>
<linearGradient id="paint2_linear" x1="257.837" y1="43.9406" x2="258.056" y2="54.9301" gradientUnits="userSpaceOnUse">
<stop stop-color="white" stop-opacity="0"/>
<stop offset="0.520833" stop-color="white"/>
<stop offset="1" stop-color="white" stop-opacity="0"/>
</linearGradient>
<linearGradient id="paint3_linear" x1="254.25" y1="49.0581" x2="262.675" y2="48.8905" gradientUnits="userSpaceOnUse">
<stop stop-color="white" stop-opacity="0"/>
<stop offset="0.520833" stop-color="white"/>
<stop offset="1" stop-color="white" stop-opacity="0"/>
</linearGradient>
<linearGradient id="paint4_linear" x1="193.302" y1="20.2575" x2="193.521" y2="31.247" gradientUnits="userSpaceOnUse">
<stop stop-color="white" stop-opacity="0"/>
<stop offset="0.520833" stop-color="white"/>
<stop offset="1" stop-color="white" stop-opacity="0"/>
</linearGradient>
<linearGradient id="paint5_linear" x1="189.715" y1="25.3745" x2="198.14" y2="25.2069" gradientUnits="userSpaceOnUse">
<stop stop-color="white" stop-opacity="0"/>
<stop offset="0.520833" stop-color="white"/>
<stop offset="1" stop-color="white" stop-opacity="0"/>
</linearGradient>
<linearGradient id="paint6_linear" x1="251.474" y1="69.0124" x2="251.693" y2="80.0019" gradientUnits="userSpaceOnUse">
<stop stop-color="white" stop-opacity="0"/>
<stop offset="0.520833" stop-color="white"/>
<stop offset="1" stop-color="white" stop-opacity="0"/>
</linearGradient>
<linearGradient id="paint7_linear" x1="247.887" y1="74.1299" x2="256.312" y2="73.9623" gradientUnits="userSpaceOnUse">
<stop stop-color="white" stop-opacity="0"/>
<stop offset="0.520833" stop-color="white"/>
<stop offset="1" stop-color="white" stop-opacity="0"/>
</linearGradient>
<linearGradient id="paint8_linear" x1="239.544" y1="104.371" x2="239.724" y2="113.404" gradientUnits="userSpaceOnUse">
<stop stop-color="white" stop-opacity="0"/>
<stop offset="0.520833" stop-color="white"/>
<stop offset="1" stop-color="white" stop-opacity="0"/>
</linearGradient>
<linearGradient id="paint9_linear" x1="236.595" y1="108.577" x2="243.52" y2="108.439" gradientUnits="userSpaceOnUse">
<stop stop-color="white" stop-opacity="0"/>
<stop offset="0.520833" stop-color="white"/>
<stop offset="1" stop-color="white" stop-opacity="0"/>
</linearGradient>
<linearGradient id="paint10_linear" x1="228.745" y1="63.8175" x2="228.963" y2="74.807" gradientUnits="userSpaceOnUse">
<stop stop-color="white" stop-opacity="0"/>
<stop offset="0.520833" stop-color="white"/>
<stop offset="1" stop-color="white" stop-opacity="0"/>
</linearGradient>
<linearGradient id="paint11_linear" x1="225.157" y1="68.9346" x2="233.582" y2="68.767" gradientUnits="userSpaceOnUse">
<stop stop-color="white" stop-opacity="0"/>
<stop offset="0.520833" stop-color="white"/>
<stop offset="1" stop-color="white" stop-opacity="0"/>
</linearGradient>
<linearGradient id="paint12_linear" x1="194.668" y1="37.8651" x2="258.586" y2="54.6275" gradientUnits="userSpaceOnUse">
<stop offset="0.229199" stop-color="white" stop-opacity="0.54"/>
<stop offset="0.812198" stop-color="#FF021F"/>
</linearGradient>
<linearGradient id="paint13_linear" x1="243.293" y1="10.663" x2="243.293" y2="33.2709" gradientUnits="userSpaceOnUse">
<stop stop-color="white" stop-opacity="0"/>
<stop offset="0.520833" stop-color="white"/>
<stop offset="1" stop-color="white" stop-opacity="0"/>
</linearGradient>
<linearGradient id="paint14_linear" x1="235.707" y1="21.0391" x2="253.039" y2="21.0391" gradientUnits="userSpaceOnUse">
<stop stop-color="white" stop-opacity="0"/>
<stop offset="0.520833" stop-color="white"/>
<stop offset="1" stop-color="white" stop-opacity="0"/>
</linearGradient>
</defs>
</svg>
