<svg width="689" height="707" viewBox="0 0 689 707" fill="none" xmlns="http://www.w3.org/2000/svg">
<rect x="287.792" y="118" width="1.08333" height="13" fill="url(#paint0_linear)"/>
<rect x="284" y="125.042" width="1.08333" height="8.66667" transform="rotate(-90 284 125.042)" fill="url(#paint1_linear)"/>
<rect x="645.792" y="300" width="1.08333" height="13" fill="url(#paint2_linear)"/>
<rect x="642" y="307.042" width="1.08333" height="8.66667" transform="rotate(-90 642 307.042)" fill="url(#paint3_linear)"/>
<rect x="494.792" y="474" width="1.08333" height="13" fill="url(#paint4_linear)"/>
<rect x="491" y="481.042" width="1.08333" height="8.66667" transform="rotate(-90 491 481.042)" fill="url(#paint5_linear)"/>
<rect x="8.75024" y="225" width="2.5" height="30" fill="url(#paint6_linear)"/>
<rect y="241.25" width="2.5" height="20" transform="rotate(-90 0 241.25)" fill="url(#paint7_linear)"/>
<path opacity="0.5" d="M469.409 237.181C469.509 236.822 373.464 194.065 250.934 191.157C110.986 187.836 9.81616 238.236 10.2782 239.954C10.8075 241.922 144.839 180.454 318.584 200.584C405.849 210.694 469.329 237.473 469.409 237.181Z" fill="url(#paint8_linear)"/>
<ellipse opacity="0.5" cx="349.222" cy="273" rx="66.2222" ry="16" fill="url(#paint9_radial)"/>
<g clip-path="url(#clip0)">
<circle cx="559.662" cy="32.6619" r="188.662" fill="url(#paint10_radial)"/>
<path d="M559.5 175.198C638.31 175.198 702.199 111.31 702.199 32.4993C702.199 -46.3112 638.31 -110.2 559.5 -110.2C480.689 -110.2 416.801 -46.3112 416.801 32.4993C416.801 111.31 480.689 175.198 559.5 175.198Z" stroke="url(#paint11_radial)" stroke-width="1.06891" stroke-miterlimit="10"/>
<path d="M559.501 220.467C663.311 220.467 747.467 136.311 747.467 32.5005C747.467 -71.3103 663.311 -155.466 559.501 -155.466C455.69 -155.466 371.534 -71.3103 371.534 32.5005C371.534 136.311 455.69 220.467 559.501 220.467Z" stroke="url(#paint12_linear)" stroke-width="1.06891" stroke-miterlimit="10"/>
<ellipse cx="560.196" cy="32.1274" rx="53.4453" ry="53.4453" transform="rotate(-180 560.196 32.1274)" fill="url(#paint13_radial)"/>
<circle cx="442.425" cy="115.311" r="7.42588" transform="rotate(46.5649 442.425 115.311)" fill="url(#paint14_linear)"/>
<rect x="610.769" y="149.708" width="2.53865" height="30.4638" fill="url(#paint15_linear)"/>
<rect x="601.884" y="166.209" width="2.53865" height="20.3092" transform="rotate(-90 601.884 166.209)" fill="url(#paint16_linear)"/>
</g>
<g clip-path="url(#clip1)">
<path d="M773.983 461.09C736.925 423.649 676.532 423.337 639.09 460.394C601.648 497.452 601.336 557.846 638.394 595.287C675.451 632.729 735.845 633.041 773.287 595.983C810.729 558.926 811.04 498.532 773.983 461.09Z" stroke="url(#paint17_radial)" stroke-width="0.714494" stroke-miterlimit="10"/>
<path d="M795.489 439.805C746.676 390.485 667.124 390.075 617.805 438.888C568.486 487.701 568.075 567.252 616.888 616.572C665.701 665.891 745.253 666.301 794.572 617.488C843.891 568.676 844.302 489.124 795.489 439.805Z" stroke="url(#paint18_linear)" stroke-width="0.714494" stroke-miterlimit="10"/>
<ellipse cx="705.684" cy="528.033" rx="35.7247" ry="35.7247" transform="rotate(45.2957 705.684 528.033)" fill="url(#paint19_linear)"/>
<circle cx="638.646" cy="595.369" r="5.71711" transform="rotate(27.9964 638.646 595.369)" fill="url(#paint20_linear)"/>
</g>
<ellipse cx="580.357" cy="533.943" rx="5.35871" ry="5.35871" transform="rotate(96.1695 580.357 533.943)" fill="url(#paint21_linear)"/>
<path opacity="0.5" d="M619.107 445.348C618.992 442.626 619.006 434.339 624.864 427.828C626.207 426.341 627.753 425.05 629.456 423.995" stroke="white" stroke-width="0.261512" stroke-miterlimit="10"/>
<path opacity="0.5" d="M604.765 445.011C604.983 442.058 605.154 434.071 599.835 427.242C598.576 425.63 597.106 424.195 595.464 422.977" stroke="white" stroke-width="0.261512" stroke-miterlimit="10"/>
<path opacity="0.5" d="M608.397 444.792C609.381 440.528 610.181 433.87 607.814 426.62C607.373 425.27 606.84 423.952 606.219 422.675" stroke="white" stroke-width="0.261512" stroke-miterlimit="10"/>
<path opacity="0.5" d="M614.977 445.134C614.214 440.775 613.783 434.131 616.411 427.009C616.91 425.657 617.499 424.34 618.175 423.067" stroke="white" stroke-width="0.261512" stroke-miterlimit="10"/>
<path opacity="0.5" d="M598.238 444.526C598.281 442.845 598.324 434.433 591.929 428.338C589.743 426.274 587.12 424.73 584.254 423.822" stroke="white" stroke-width="0.261512" stroke-miterlimit="10"/>
<path opacity="0.5" d="M623.918 445.407C624.044 443.312 624.771 435.363 631.199 429.588C633.326 427.69 635.812 426.237 638.509 425.315" stroke="white" stroke-width="0.261512" stroke-miterlimit="10"/>
<path d="M611.805 440.686C618.101 440.774 622.867 440.553 625.38 440.407C628.525 440.227 631.208 439.992 633.264 439.785C631.567 444.284 628.538 448.159 624.581 450.893C623.665 451.52 618.057 455.166 610.739 454.994C605.826 454.879 601.073 453.231 597.144 450.28C593.215 447.329 590.307 443.224 588.827 438.538C589.087 438.602 589.42 438.682 589.808 438.766C589.808 438.766 590.69 438.958 591.616 439.111C600.126 440.522 611.805 440.686 611.805 440.686Z" fill="url(#paint22_linear)"/>
<path opacity="0.5" d="M631.145 439.818C635.259 436.531 640.077 434.239 645.224 433.121C650.37 432.003 655.705 432.089 660.812 433.372" stroke="white" stroke-width="0.261512" stroke-miterlimit="10"/>
<path d="M610.56 445.479C587.208 444.942 568.382 439.919 568.512 434.261C568.642 428.603 587.679 424.451 611.031 424.988C634.384 425.525 653.21 430.548 653.08 436.206C652.949 441.864 633.913 446.016 610.56 445.479Z" stroke="white" stroke-width="0.69755" stroke-miterlimit="10"/>
<path d="M610.668 440.84C593.887 440.454 580.339 437.726 580.407 434.746C580.476 431.766 594.135 429.663 610.916 430.049C627.697 430.435 641.245 433.164 641.176 436.144C641.108 439.123 627.449 441.226 610.668 440.84Z" stroke="white" stroke-width="0.69755" stroke-miterlimit="10"/>
<path opacity="0.5" d="M631.145 439.795C638.004 439.054 644.924 440.486 650.926 443.888" stroke="white" stroke-width="0.261512" stroke-miterlimit="10"/>
<path opacity="0.5" d="M590.061 438.832C586.893 438.144 583.618 438.101 580.432 438.707C577.247 439.313 574.216 440.555 571.522 442.359" stroke="white" stroke-width="0.261512" stroke-miterlimit="10"/>
<path opacity="0.48" d="M610.451 447.703C582.035 447.05 559.128 440.939 559.287 434.054C559.445 427.169 582.609 422.117 611.024 422.77C639.439 423.424 662.346 429.535 662.188 436.42C662.03 443.305 638.866 448.357 610.451 447.703Z" fill="url(#paint23_linear)"/>
<path opacity="0.5" d="M590.061 438.855C586.105 435.379 581.4 432.863 576.312 431.505C571.223 430.147 565.89 429.983 560.728 431.026" stroke="white" stroke-width="0.261512" stroke-miterlimit="10"/>
<path opacity="0.1" d="M624.679 440.633C627.9 441.495 631.015 442.714 633.966 444.266C635.318 444.978 636.556 445.718 637.681 446.458" stroke="white" stroke-width="0.261512" stroke-miterlimit="10"/>
<path d="M585.82 410.22H585.785C585.687 410.218 585.59 410.213 585.492 410.209C585.602 410.213 585.711 410.217 585.82 410.22Z" fill="url(#paint24_linear)"/>
<path opacity="0.1" d="M597.902 440.121C594.644 440.831 591.476 441.902 588.455 443.314C587.07 443.962 585.799 444.644 584.641 445.33" stroke="white" stroke-width="0.261512" stroke-miterlimit="10"/>
<path opacity="0.1" d="M619.348 440.782C619.879 442.28 620.276 443.823 620.534 445.391C620.668 446.21 620.757 446.991 620.813 447.724" stroke="white" stroke-width="0.261512" stroke-miterlimit="10"/>
<path opacity="0.1" d="M604.721 440.441C604.121 441.912 603.653 443.434 603.322 444.989C603.148 445.801 603.024 446.576 602.935 447.306" stroke="white" stroke-width="0.261512" stroke-miterlimit="10"/>
<path opacity="0.1" d="M609.029 440.712C609 441.587 608.973 442.465 608.947 443.347C608.906 444.834 608.871 446.31 608.843 447.775" stroke="white" stroke-width="0.261512" stroke-miterlimit="10"/>
<path opacity="0.1" d="M614.474 440.782C614.445 441.651 614.418 442.524 614.393 443.4C614.351 444.878 614.316 446.345 614.288 447.802" stroke="white" stroke-width="0.261512" stroke-miterlimit="10"/>
<path opacity="0.1" d="M610.478 446.556C584.571 445.961 563.686 440.389 563.83 434.111C563.974 427.834 585.094 423.228 611.001 423.824C636.908 424.42 657.793 429.991 657.649 436.269C657.504 442.546 636.385 447.152 610.478 446.556Z" stroke="white" stroke-width="0.69755" stroke-miterlimit="10"/>
<path d="M611.866 408.006C615.631 408.097 619.32 409.088 622.623 410.898C625.926 412.708 628.747 415.283 630.849 418.408C632.952 421.532 634.275 425.116 634.707 428.857C635.139 432.599 634.668 436.389 633.333 439.911C626.218 440.682 619.059 440.973 611.904 440.783C604.203 440.633 596.523 439.916 588.926 438.637C588.039 436.192 587.647 433.594 587.772 430.996C588.318 420.956 597.345 407.666 611.866 408.006Z" fill="url(#paint25_linear)"/>
<defs>
<linearGradient id="paint0_linear" x1="288.333" y1="118" x2="288.333" y2="131" gradientUnits="userSpaceOnUse">
<stop stop-color="white" stop-opacity="0"/>
<stop offset="0.520833" stop-color="white"/>
<stop offset="1" stop-color="white" stop-opacity="0"/>
</linearGradient>
<linearGradient id="paint1_linear" x1="284.542" y1="125.042" x2="284.542" y2="133.708" gradientUnits="userSpaceOnUse">
<stop stop-color="white" stop-opacity="0"/>
<stop offset="0.520833" stop-color="white"/>
<stop offset="1" stop-color="white" stop-opacity="0"/>
</linearGradient>
<linearGradient id="paint2_linear" x1="646.333" y1="300" x2="646.333" y2="313" gradientUnits="userSpaceOnUse">
<stop stop-color="white" stop-opacity="0"/>
<stop offset="0.520833" stop-color="white"/>
<stop offset="1" stop-color="white" stop-opacity="0"/>
</linearGradient>
<linearGradient id="paint3_linear" x1="642.542" y1="307.042" x2="642.542" y2="315.708" gradientUnits="userSpaceOnUse">
<stop stop-color="white" stop-opacity="0"/>
<stop offset="0.520833" stop-color="white"/>
<stop offset="1" stop-color="white" stop-opacity="0"/>
</linearGradient>
<linearGradient id="paint4_linear" x1="495.333" y1="474" x2="495.333" y2="487" gradientUnits="userSpaceOnUse">
<stop stop-color="white" stop-opacity="0"/>
<stop offset="0.520833" stop-color="white"/>
<stop offset="1" stop-color="white" stop-opacity="0"/>
</linearGradient>
<linearGradient id="paint5_linear" x1="491.542" y1="481.042" x2="491.542" y2="489.708" gradientUnits="userSpaceOnUse">
<stop stop-color="white" stop-opacity="0"/>
<stop offset="0.520833" stop-color="white"/>
<stop offset="1" stop-color="white" stop-opacity="0"/>
</linearGradient>
<linearGradient id="paint6_linear" x1="10.0002" y1="225" x2="10.0002" y2="255" gradientUnits="userSpaceOnUse">
<stop stop-color="white" stop-opacity="0"/>
<stop offset="0.520833" stop-color="white"/>
<stop offset="1" stop-color="white" stop-opacity="0"/>
</linearGradient>
<linearGradient id="paint7_linear" x1="1.25" y1="241.25" x2="1.25" y2="261.25" gradientUnits="userSpaceOnUse">
<stop stop-color="white" stop-opacity="0"/>
<stop offset="0.520833" stop-color="white"/>
<stop offset="1" stop-color="white" stop-opacity="0"/>
</linearGradient>
<linearGradient id="paint8_linear" x1="-63.9179" y1="215.5" x2="469.41" y2="215.5" gradientUnits="userSpaceOnUse">
<stop offset="0.0992221" stop-color="white"/>
<stop offset="0.699229"/>
</linearGradient>
<radialGradient id="paint9_radial" cx="0" cy="0" r="1" gradientUnits="userSpaceOnUse" gradientTransform="translate(349.222 273) rotate(90) scale(16 66.2222)">
<stop stop-color="white"/>
<stop offset="1" stop-color="#C4C4C4" stop-opacity="0"/>
</radialGradient>
<radialGradient id="paint10_radial" cx="0" cy="0" r="1" gradientUnits="userSpaceOnUse" gradientTransform="translate(559.662 32.6619) rotate(-36.1533) scale(196.587)">
<stop offset="0.182292" stop-color="#F2F2F2"/>
<stop offset="0.444663"/>
</radialGradient>
<radialGradient id="paint11_radial" cx="0" cy="0" r="1" gradientUnits="userSpaceOnUse" gradientTransform="translate(416.963 32.4993) rotate(-0.0687593) scale(309.983)">
<stop stop-color="white"/>
<stop offset="1" stop-color="#F2F2F2" stop-opacity="0"/>
</radialGradient>
<linearGradient id="paint12_linear" x1="372.069" y1="-155.466" x2="875.524" y2="-155.466" gradientUnits="userSpaceOnUse">
<stop stop-color="white"/>
<stop offset="1" stop-color="#F2F2F2" stop-opacity="0.1"/>
</linearGradient>
<radialGradient id="paint13_radial" cx="0" cy="0" r="1" gradientUnits="userSpaceOnUse" gradientTransform="translate(515.302 32.1274) rotate(-9.09072) scale(69.334)">
<stop stop-color="#797979"/>
<stop offset="0.904256"/>
</radialGradient>
<linearGradient id="paint14_linear" x1="442.425" y1="107.885" x2="442.425" y2="122.737" gradientUnits="userSpaceOnUse">
<stop stop-color="#FAB961"/>
<stop offset="1"/>
</linearGradient>
<linearGradient id="paint15_linear" x1="612.038" y1="149.708" x2="612.038" y2="180.171" gradientUnits="userSpaceOnUse">
<stop stop-color="white" stop-opacity="0"/>
<stop offset="0.520833" stop-color="white"/>
<stop offset="1" stop-color="white" stop-opacity="0"/>
</linearGradient>
<linearGradient id="paint16_linear" x1="603.153" y1="166.209" x2="603.153" y2="186.518" gradientUnits="userSpaceOnUse">
<stop stop-color="white" stop-opacity="0"/>
<stop offset="0.520833" stop-color="white"/>
<stop offset="1" stop-color="white" stop-opacity="0"/>
</linearGradient>
<radialGradient id="paint17_radial" cx="0" cy="0" r="1" gradientUnits="userSpaceOnUse" gradientTransform="translate(773.21 595.906) rotate(-134.773) scale(207.204)">
<stop stop-color="white"/>
<stop offset="1" stop-color="#F2F2F2" stop-opacity="0"/>
</radialGradient>
<linearGradient id="paint18_linear" x1="705.02" y1="705.618" x2="468.291" y2="466.433" gradientUnits="userSpaceOnUse">
<stop stop-color="white"/>
<stop offset="1" stop-color="#F2F2F2" stop-opacity="0.1"/>
</linearGradient>
<linearGradient id="paint19_linear" x1="678.164" y1="500.351" x2="722.89" y2="534.769" gradientUnits="userSpaceOnUse">
<stop offset="0.210989"/>
<stop offset="0.904256" stop-color="#FAB961"/>
</linearGradient>
<linearGradient id="paint20_linear" x1="638.646" y1="589.651" x2="638.646" y2="601.086" gradientUnits="userSpaceOnUse">
<stop stop-color="#1436D4"/>
<stop offset="1"/>
</linearGradient>
<linearGradient id="paint21_linear" x1="580.357" y1="528.585" x2="580.216" y2="537.085" gradientUnits="userSpaceOnUse">
<stop stop-color="#F2F2F2"/>
<stop offset="1"/>
</linearGradient>
<linearGradient id="paint22_linear" x1="593.199" y1="446.633" x2="616.411" y2="424.753" gradientUnits="userSpaceOnUse">
<stop offset="0.0355779" stop-color="#C4C4C4"/>
<stop offset="0.759667"/>
</linearGradient>
<linearGradient id="paint23_linear" x1="662.475" y1="435.197" x2="576.055" y2="435.197" gradientUnits="userSpaceOnUse">
<stop stop-color="#F2F2F2" stop-opacity="0.5"/>
<stop offset="1" stop-opacity="0.8"/>
</linearGradient>
<linearGradient id="paint24_linear" x1="625.661" y1="612.149" x2="625.661" y2="612.015" gradientUnits="userSpaceOnUse">
<stop offset="0.002" stop-color="#1436D4"/>
<stop offset="0.717"/>
</linearGradient>
<linearGradient id="paint25_linear" x1="621.755" y1="432.432" x2="589.828" y2="440.59" gradientUnits="userSpaceOnUse">
<stop/>
<stop offset="1" stop-color="#C4C4C4"/>
</linearGradient>
<clipPath id="clip0">
<rect width="377" height="377" fill="white" transform="translate(371 -156)"/>
</clipPath>
<clipPath id="clip1">
<rect width="252" height="252" fill="white" transform="translate(705.269 706.377) rotate(-134.704)"/>
</clipPath>
</defs>
</svg>
