<svg width="16" height="16" viewBox="0 0 16 16" fill="none" xmlns="http://www.w3.org/2000/svg">
<g clip-path="url(#clip0)">
<path d="M8 16C12.4183 16 16 12.4183 16 8C16 3.58172 12.4183 0 8 0C3.58172 0 0 3.58172 0 8C0 12.4183 3.58172 16 8 16Z" fill="#070A0D"/>
<path d="M8 15.8095C12.3131 15.8095 15.8095 12.3131 15.8095 8C15.8095 3.68693 12.3131 0.190491 8 0.190491C3.68693 0.190491 0.190491 3.68693 0.190491 8C0.190491 12.3131 3.68693 15.8095 8 15.8095Z" stroke="white" stroke-opacity="0.15" stroke-width="0.809524"/>
<path d="M12.6876 4.87812C12.5214 4.75134 12.3232 4.5782 11.962 4.53491C11.6232 4.49162 11.2779 4.71116 11.0446 4.85647C10.8112 5.00184 10.3701 5.42857 10.1879 5.5584C10.0056 5.68829 9.53896 5.8089 8.78772 6.2449C8.03652 6.6809 5.08922 8.51144 5.08922 8.51144L5.85642 8.52076L2.43598 10.2245H2.77803L2.28574 10.5863C2.28574 10.5863 2.72049 10.6977 3.08491 10.475V10.577C3.08491 10.577 7.15746 9.02476 7.94381 9.42673L7.46433 9.56278C7.50588 9.56278 8.27948 9.61229 8.27948 9.61229C8.27948 9.61229 8.30503 10.0792 8.77176 10.3792C9.23844 10.676 9.24804 10.8399 9.24804 10.8399C9.24804 10.8399 9.00508 10.9357 9.00508 11.0563C9.00508 11.0563 9.3631 10.9512 9.69557 10.9605C10.028 10.9697 10.3189 11.0563 10.3189 11.0563C10.3189 11.0563 10.2934 10.9265 9.97049 10.8399C9.64442 10.7502 9.32795 10.4131 9.17134 10.2276C9.01468 10.0421 8.90602 9.71125 9.04028 9.38038C9.15214 9.09897 9.54212 8.94438 10.3477 8.5424C11.2971 8.06617 11.5145 7.7137 11.6488 7.43845C11.783 7.16325 11.9812 6.61596 12.0931 6.3593C12.2337 6.02843 12.4064 5.85219 12.5502 5.74706C12.6908 5.64193 13.3334 5.40998 13.3334 5.40998C13.3334 5.40998 12.8443 4.99873 12.6876 4.87812Z" fill="white"/>
</g>
<defs>
<clipPath id="clip0">
<rect width="16" height="16" fill="white"/>
</clipPath>
</defs>
</svg>