<svg width="365" height="206" viewBox="0 0 365 206" fill="none" xmlns="http://www.w3.org/2000/svg">
<g clip-path="url(#clip0)">
<path d="M0.306641 10.4839C0.306641 4.96104 4.78379 0.483887 10.3066 0.483887H354.307C359.829 0.483887 364.307 4.96104 364.307 10.4839V205.696H0.306641V10.4839Z" fill="black"/>
<path d="M261.85 189.477L262.396 194.24L261.85 198.86C261.85 198.86 261.592 196.746 261.569 196.55C261.546 196.353 261.288 194.24 261.288 194.24L261.85 189.477Z" fill="url(#paint0_linear)"/>
<path d="M258.245 194.161L261.896 193.615L265.438 194.161C265.438 194.161 263.818 194.419 263.667 194.442C263.517 194.465 261.896 194.723 261.896 194.723L258.245 194.161Z" fill="url(#paint1_linear)"/>
<path d="M309.901 184.199L310.235 187.111L309.901 189.936C309.901 189.936 309.743 188.644 309.729 188.524C309.715 188.404 309.557 187.111 309.557 187.111L309.901 184.199Z" fill="url(#paint2_linear)"/>
<path d="M307.697 187.063L309.929 186.729L312.095 187.063C312.095 187.063 311.104 187.22 311.012 187.235C310.92 187.249 309.929 187.406 309.929 187.406L307.697 187.063Z" fill="url(#paint3_linear)"/>
<path d="M164.467 72.9941L165.015 77.7668L164.467 82.3969C164.467 82.3969 164.209 80.2788 164.186 80.0819C164.163 79.8849 163.904 77.7668 163.904 77.7668L164.467 72.9941Z" fill="url(#paint4_linear)"/>
<path d="M160.855 77.688L164.514 77.1407L168.064 77.688C168.064 77.688 166.44 77.9465 166.289 77.9695C166.138 77.9925 164.514 78.251 164.514 78.251L160.855 77.688Z" fill="url(#paint5_linear)"/>
<path d="M352.841 23.5962L353.502 29.3613L352.841 34.9541C352.841 34.9541 352.529 32.3956 352.501 32.1577C352.473 31.9198 352.161 29.3613 352.161 29.3613L352.841 23.5962Z" fill="url(#paint6_linear)"/>
<path d="M348.478 29.2658L352.898 28.6047L357.186 29.2658C357.186 29.2658 355.224 29.578 355.042 29.6058C354.859 29.6336 352.898 29.9458 352.898 29.9458L348.478 29.2658Z" fill="url(#paint7_linear)"/>
<path d="M123.355 157.73L123.689 160.643L123.355 163.468C123.355 163.468 123.197 162.175 123.183 162.055C123.169 161.935 123.011 160.643 123.011 160.643L123.355 157.73Z" fill="url(#paint8_linear)"/>
<path d="M121.151 160.594L123.383 160.26L125.549 160.594C125.549 160.594 124.558 160.752 124.466 160.766C124.374 160.78 123.383 160.938 123.383 160.938L121.151 160.594Z" fill="url(#paint9_linear)"/>
<path d="M127.753 112.553L128.087 115.465L127.753 118.29C127.753 118.29 127.595 116.998 127.581 116.877C127.567 116.757 127.41 115.465 127.41 115.465L127.753 112.553Z" fill="url(#paint10_linear)"/>
<path d="M125.549 115.416L127.782 115.082L129.948 115.416C129.948 115.416 128.957 115.574 128.865 115.588C128.773 115.602 127.782 115.76 127.782 115.76L125.549 115.416Z" fill="url(#paint11_linear)"/>
<path d="M318.149 21.0659L318.483 23.978L318.149 26.8031C318.149 26.8031 317.991 25.5107 317.977 25.3906C317.963 25.2704 317.806 23.978 317.806 23.978L318.149 21.0659Z" fill="url(#paint12_linear)"/>
<path d="M315.945 23.9295L318.178 23.5955L320.344 23.9295C320.344 23.9295 319.353 24.0872 319.261 24.1012C319.169 24.1152 318.178 24.2729 318.178 24.2729L315.945 23.9295Z" fill="url(#paint13_linear)"/>
<g opacity="0.8">
<path d="M333.993 157.017L334.278 158.806L334.148 160.559C334.148 160.559 334.016 159.765 334.004 159.691C333.992 159.617 333.86 158.824 333.86 158.824L333.993 157.017Z" fill="url(#paint14_linear)"/>
<path d="M332.709 158.845L334.079 158.578L335.425 158.726C335.425 158.726 334.818 158.85 334.761 158.861C334.705 158.872 334.097 158.996 334.097 158.996L332.709 158.845Z" fill="url(#paint15_linear)"/>
</g>
<g opacity="0.8">
<path d="M306.162 192.652L306.406 194.184L306.295 195.686C306.295 195.686 306.181 195.006 306.171 194.943C306.161 194.879 306.048 194.2 306.048 194.2L306.162 192.652Z" fill="url(#paint16_linear)"/>
<path d="M305.062 194.217L306.235 193.989L307.388 194.116C307.388 194.116 306.868 194.222 306.82 194.232C306.771 194.241 306.251 194.347 306.251 194.347L305.062 194.217Z" fill="url(#paint17_linear)"/>
</g>
<g opacity="0.8">
<path d="M323.704 81.7753L323.948 83.3075L323.836 84.8092C323.836 84.8092 323.723 84.1294 323.713 84.0662C323.703 84.0029 323.59 83.3232 323.59 83.3232L323.704 81.7753Z" fill="url(#paint18_linear)"/>
<path d="M322.604 83.3408L323.777 83.1127L324.93 83.2393C324.93 83.2393 324.41 83.3456 324.362 83.3551C324.313 83.3647 323.793 83.4709 323.793 83.4709L322.604 83.3408Z" fill="url(#paint19_linear)"/>
</g>
<g opacity="0.8">
<path d="M305.917 54.6083L306.161 56.1405L306.049 57.6422C306.049 57.6422 305.936 56.9624 305.926 56.8992C305.916 56.8359 305.803 56.1562 305.803 56.1562L305.917 54.6083Z" fill="url(#paint20_linear)"/>
<path d="M304.817 56.1738L305.99 55.9457L307.143 56.0723C307.143 56.0723 306.623 56.1786 306.574 56.1881C306.526 56.1977 306.006 56.3039 306.006 56.3039L304.817 56.1738Z" fill="url(#paint21_linear)"/>
</g>
<g opacity="0.8">
<path d="M81.3252 92.0502L81.569 93.5824L81.4576 95.0841C81.4576 95.0841 81.3444 94.4043 81.3342 94.3411C81.324 94.2778 81.2108 93.5981 81.2108 93.5981L81.3252 92.0502Z" fill="url(#paint22_linear)"/>
<path d="M80.2255 93.6157L81.3984 93.3876L82.5514 93.5142C82.5514 93.5142 82.0311 93.6205 81.9827 93.63C81.9343 93.6396 81.414 93.7458 81.414 93.7458L80.2255 93.6157Z" fill="url(#paint23_linear)"/>
</g>
<g opacity="0.8">
<path d="M272.587 48.4532L272.779 49.6601L272.692 50.8428C272.692 50.8428 272.603 50.3074 272.594 50.2576C272.586 50.2078 272.497 49.6724 272.497 49.6724L272.587 48.4532Z" fill="url(#paint24_linear)"/>
<path d="M271.721 49.686L272.645 49.5064L273.553 49.6061C273.553 49.6061 273.143 49.6898 273.105 49.6973C273.067 49.7048 272.657 49.7885 272.657 49.7885L271.721 49.686Z" fill="url(#paint25_linear)"/>
</g>
<g opacity="0.8">
<path d="M254.088 74.4796L254.28 75.6865L254.193 76.8692C254.193 76.8692 254.103 76.3338 254.095 76.284C254.087 76.2342 253.998 75.6988 253.998 75.6988L254.088 74.4796Z" fill="url(#paint26_linear)"/>
<path d="M253.222 75.7124L254.146 75.5327L255.054 75.6325C255.054 75.6325 254.644 75.7161 254.606 75.7237C254.568 75.7312 254.158 75.8149 254.158 75.8149L253.222 75.7124Z" fill="url(#paint27_linear)"/>
</g>
<g opacity="0.8">
<path d="M72.2944 147.779L72.4865 148.986L72.3987 150.169C72.3987 150.169 72.3095 149.634 72.3015 149.584C72.2935 149.534 72.2043 148.999 72.2043 148.999L72.2944 147.779Z" fill="url(#paint28_linear)"/>
<path d="M71.4278 149.012L72.3517 148.833L73.2598 148.932C73.2598 148.932 72.85 149.016 72.8119 149.023C72.7738 149.031 72.364 149.115 72.364 149.115L71.4278 149.012Z" fill="url(#paint29_linear)"/>
</g>
<g opacity="0.8">
<path d="M37.1328 116.936L37.3248 118.143L37.2371 119.325C37.2371 119.325 37.1479 118.79 37.1399 118.74C37.1319 118.69 37.0427 118.155 37.0427 118.155L37.1328 116.936Z" fill="url(#paint30_linear)"/>
<path d="M36.2662 118.168L37.19 117.989L38.0982 118.089C38.0982 118.089 37.6884 118.172 37.6503 118.18C37.6122 118.187 37.2024 118.271 37.2024 118.271L36.2662 118.168Z" fill="url(#paint31_linear)"/>
</g>
<g opacity="0.8">
<path d="M94.769 184.777L95.0232 186.375L94.907 187.941C94.907 187.941 94.789 187.232 94.7783 187.166C94.7677 187.1 94.6497 186.391 94.6497 186.391L94.769 184.777Z" fill="url(#paint32_linear)"/>
<path d="M93.6226 186.409L94.8455 186.171L96.0477 186.303C96.0477 186.303 95.5052 186.414 95.4548 186.424C95.4043 186.434 94.8618 186.545 94.8618 186.545L93.6226 186.409Z" fill="url(#paint33_linear)"/>
</g>
<g opacity="0.8">
<path d="M260.627 141.097L260.924 142.964L260.788 144.794C260.788 144.794 260.65 143.966 260.638 143.889C260.626 143.811 260.488 142.983 260.488 142.983L260.627 141.097Z" fill="url(#paint34_linear)"/>
<path d="M259.288 143.004L260.717 142.726L262.122 142.881C262.122 142.881 261.488 143.01 261.429 143.022C261.37 143.033 260.736 143.163 260.736 143.163L259.288 143.004Z" fill="url(#paint35_linear)"/>
</g>
<g opacity="0.8">
<path d="M210.033 87.941L210.287 89.5386L210.171 91.1042C210.171 91.1042 210.053 90.3955 210.042 90.3295C210.031 90.2636 209.913 89.5549 209.913 89.5549L210.033 87.941Z" fill="url(#paint36_linear)"/>
<path d="M208.886 89.5728L210.109 89.335L211.311 89.467C211.311 89.467 210.769 89.5778 210.718 89.5877C210.668 89.5977 210.125 89.7085 210.125 89.7085L208.886 89.5728Z" fill="url(#paint37_linear)"/>
</g>
<g opacity="0.8">
<path d="M351.622 63.3135L351.876 64.9111L351.76 66.4768C351.76 66.4768 351.642 65.768 351.631 65.7021C351.621 65.6362 351.503 64.9274 351.503 64.9274L351.622 63.3135Z" fill="url(#paint38_linear)"/>
<path d="M350.476 64.9454L351.699 64.7075L352.901 64.8395C352.901 64.8395 352.358 64.9503 352.308 64.9603C352.257 64.9703 351.715 65.081 351.715 65.081L350.476 64.9454Z" fill="url(#paint39_linear)"/>
</g>
<g opacity="0.8">
<path d="M358.151 5.54143L358.363 6.87696L358.266 8.18582C358.266 8.18582 358.167 7.59331 358.158 7.5382C358.149 7.48309 358.051 6.89059 358.051 6.89059L358.151 5.54143Z" fill="url(#paint40_linear)"/>
<path d="M357.192 6.90614L358.215 6.70731L359.22 6.81766C359.22 6.81766 358.766 6.91028 358.724 6.9186C358.682 6.92693 358.228 7.01955 358.228 7.01955L357.192 6.90614Z" fill="url(#paint41_linear)"/>
</g>
<path d="M329.907 106.054C329.907 106.704 329.404 107.391 328.312 108.095C327.23 108.792 325.621 109.471 323.532 110.123C319.357 111.424 313.305 112.599 305.815 113.586C290.838 115.56 270.143 116.782 247.278 116.782C224.414 116.782 203.718 115.56 188.742 113.586C181.252 112.599 175.2 111.424 171.025 110.123C168.936 109.471 167.327 108.792 166.245 108.095C165.153 107.391 164.649 106.704 164.649 106.054C164.649 105.403 165.153 104.716 166.245 104.012C167.327 103.315 168.936 102.636 171.025 101.985C175.2 100.683 181.252 99.5084 188.742 98.521C203.718 96.5466 224.414 95.3247 247.278 95.3247C270.143 95.3247 290.838 96.5466 305.815 98.521C313.305 99.5084 319.357 100.683 323.532 101.985C325.621 102.636 327.23 103.315 328.312 104.012C329.404 104.716 329.907 105.403 329.907 106.054Z" stroke="white" stroke-width="0.378969"/>
<path d="M329.907 115.488C329.907 116.139 329.404 116.825 328.311 117.529C327.229 118.226 325.621 118.906 323.532 119.557C319.356 120.859 313.304 122.033 305.815 123.021C290.838 124.995 270.142 126.217 247.278 126.217C224.414 126.217 203.718 124.995 188.741 123.021C181.251 122.033 175.2 120.859 171.024 119.557C168.935 118.906 167.327 118.226 166.245 117.529C165.152 116.825 164.649 116.139 164.649 115.488C164.649 114.837 165.152 114.151 166.245 113.447C167.327 112.75 168.935 112.07 171.024 111.419C175.2 110.118 181.251 108.943 188.741 107.956C203.718 105.981 224.414 104.759 247.278 104.759C270.142 104.759 290.838 105.981 305.815 107.956C313.304 108.943 319.356 110.118 323.532 111.419C325.621 112.07 327.229 112.75 328.311 113.447C329.404 114.151 329.907 114.837 329.907 115.488Z" stroke="white" stroke-width="0.378969"/>
<path d="M329.907 124.923C329.907 125.573 329.404 126.26 328.311 126.964C327.229 127.661 325.621 128.34 323.532 128.992C319.356 130.293 313.304 131.468 305.815 132.455C290.838 134.43 270.142 135.651 247.278 135.651C224.414 135.651 203.718 134.43 188.741 132.455C181.251 131.468 175.2 130.293 171.024 128.992C168.935 128.34 167.327 127.661 166.245 126.964C165.152 126.26 164.649 125.573 164.649 124.923C164.649 124.272 165.152 123.585 166.245 122.882C167.327 122.184 168.935 121.505 171.024 120.854C175.2 119.552 181.251 118.378 188.741 117.39C203.718 115.416 224.414 114.194 247.278 114.194C270.142 114.194 290.838 115.416 305.815 117.39C313.304 118.378 319.356 119.552 323.532 120.854C325.621 121.505 327.229 122.184 328.311 122.882C329.404 123.585 329.907 124.272 329.907 124.923Z" stroke="white" stroke-width="0.378969"/>
<path d="M329.907 143.792C329.907 144.443 329.404 145.129 328.311 145.833C327.229 146.53 325.621 147.21 323.532 147.861C319.356 149.162 313.304 150.337 305.815 151.324C290.838 153.299 270.142 154.521 247.278 154.521C224.414 154.521 203.718 153.299 188.741 151.324C181.251 150.337 175.2 149.162 171.024 147.861C168.935 147.21 167.327 146.53 166.245 145.833C165.152 145.129 164.649 144.443 164.649 143.792C164.649 143.141 165.152 142.454 166.245 141.751C167.327 141.054 168.935 140.374 171.024 139.723C175.2 138.421 181.251 137.247 188.741 136.259C203.718 134.285 224.414 133.063 247.278 133.063C270.142 133.063 290.838 134.285 305.815 136.259C313.304 137.247 319.356 138.421 323.532 139.723C325.621 140.374 327.229 141.054 328.311 141.751C329.404 142.454 329.907 143.141 329.907 143.792Z" stroke="white" stroke-width="0.378969"/>
<path d="M329.907 134.357C329.907 135.008 329.404 135.695 328.311 136.398C327.229 137.096 325.621 137.775 323.532 138.426C319.356 139.728 313.304 140.902 305.815 141.89C290.838 143.864 270.142 145.086 247.278 145.086C224.414 145.086 203.718 143.864 188.741 141.89C181.251 140.902 175.2 139.728 171.024 138.426C168.935 137.775 167.327 137.096 166.245 136.398C165.152 135.695 164.649 135.008 164.649 134.357C164.649 133.706 165.152 133.02 166.245 132.316C167.327 131.619 168.935 130.939 171.024 130.288C175.2 128.987 181.251 127.812 188.741 126.825C203.718 124.85 224.414 123.628 247.278 123.628C270.142 123.628 290.838 124.85 305.815 126.825C313.304 127.812 319.356 128.987 323.532 130.288C325.621 130.939 327.229 131.619 328.311 132.316C329.404 133.02 329.907 133.706 329.907 134.357Z" stroke="white" stroke-width="0.378969"/>
<path d="M329.907 153.226C329.907 153.877 329.404 154.564 328.311 155.267C327.229 155.965 325.621 156.644 323.532 157.295C319.356 158.597 313.304 159.771 305.815 160.759C290.838 162.733 270.142 163.955 247.278 163.955C224.414 163.955 203.718 162.733 188.741 160.759C181.251 159.771 175.2 158.597 171.024 157.295C168.935 156.644 167.327 155.965 166.245 155.267C165.152 154.564 164.649 153.877 164.649 153.226C164.649 152.576 165.152 151.889 166.245 151.185C167.327 150.488 168.935 149.809 171.024 149.157C175.2 147.856 181.251 146.681 188.741 145.694C203.718 143.719 224.414 142.498 247.278 142.498C270.142 142.498 290.838 143.719 305.815 145.694C313.304 146.681 319.356 147.856 323.532 149.157C325.621 149.809 327.229 150.488 328.311 151.185C329.404 151.889 329.907 152.576 329.907 153.226Z" stroke="white" stroke-width="0.378969"/>
<circle cx="180.847" cy="99.5105" r="2.15065" fill="#FCBA59"/>
<circle cx="229.762" cy="73.7044" r="2.15065" fill="#FCBA59"/>
<circle cx="284.74" cy="171.222" r="2.15065" fill="#FCBA59"/>
<g filter="url(#filter0_d)">
<circle cx="247.278" cy="129.474" r="27.0399" transform="rotate(-88.5886 247.278 129.474)" fill="white"/>
<circle cx="247.278" cy="129.474" r="27.0399" transform="rotate(-88.5886 247.278 129.474)" fill="url(#paint42_linear)" fill-opacity="0.8"/>
</g>
<path d="M329.907 106.054C329.907 106.704 329.404 107.391 328.312 108.095C327.23 108.792 325.621 109.471 323.532 110.123C319.357 111.424 313.305 112.599 305.815 113.586C290.838 115.56 270.143 116.782 247.278 116.782C224.414 116.782 203.718 115.56 188.742 113.586C181.252 112.599 175.2 111.424 171.025 110.123C168.936 109.471 167.327 108.792 166.245 108.095C165.153 107.391 164.649 106.704 164.649 106.054C164.649 105.403 165.153 104.716 166.245 104.012C167.327 103.315 168.936 102.636 171.025 101.985C175.2 100.683 181.252 99.5084 188.742 98.521C203.718 96.5466 224.414 95.3247 247.278 95.3247C270.143 95.3247 290.838 96.5466 305.815 98.521C313.305 99.5084 319.357 100.683 323.532 101.985C325.621 102.636 327.23 103.315 328.312 104.012C329.404 104.716 329.907 105.403 329.907 106.054Z" stroke="white" stroke-width="0.378969"/>
<path d="M330.096 115.422C330.096 121.452 293.017 126.34 247.278 126.34C201.539 126.34 164.459 121.452 164.459 115.422" stroke="white" stroke-width="0.378969"/>
<path d="M330.096 124.79C330.096 130.82 293.017 135.708 247.278 135.708C201.539 135.708 164.459 130.82 164.459 124.79" stroke="white" stroke-width="0.378969"/>
<path d="M330.096 143.525C330.096 149.555 293.017 154.444 247.278 154.444C201.539 154.444 164.459 149.555 164.459 143.525" stroke="white" stroke-width="0.378969"/>
<path d="M330.096 134.158C330.096 140.188 293.017 145.076 247.278 145.076C201.539 145.076 164.459 140.188 164.459 134.158" stroke="white" stroke-width="0.378969"/>
<path d="M330.096 152.894C330.096 158.924 293.017 163.812 247.278 163.812C201.539 163.812 164.459 158.924 164.459 152.894" stroke="white" stroke-width="0.378969"/>
<rect x="193.19" y="150.208" width="3.93292" height="3.93292" fill="#FCBA59"/>
<rect x="305.735" y="97.0142" width="3.93292" height="3.93292" fill="#FCBA59"/>
<rect x="182.998" y="192.401" width="3.07435" height="3.07435" fill="#FCBA59"/>
<rect x="214.107" y="179.958" width="5.59315" height="1.5373" transform="rotate(-34.7175 214.107 179.958)" fill="#FCBA59"/>
<mask id="mask0" style="mask-type:alpha" maskUnits="userSpaceOnUse" x="16" y="178" width="11" height="9">
<path fill-rule="evenodd" clip-rule="evenodd" d="M16.5308 178.332H26.4213V186.299H16.5308V178.332Z" fill="white"/>
</mask>
<g mask="url(#mask0)">
<path fill-rule="evenodd" clip-rule="evenodd" d="M17.6889 186.003C17.395 185.374 17.2308 184.672 17.2308 183.932C17.2308 181.226 19.4248 179.032 22.1312 179.032C23.6381 179.032 24.9861 179.712 25.8851 180.782L26.4213 180.332C25.394 179.109 23.8534 178.332 22.1312 178.332C19.0381 178.332 16.5308 180.839 16.5308 183.932C16.5308 184.778 16.7184 185.58 17.0543 186.299L17.6889 186.003Z" fill="white"/>
</g>
<path fill-rule="evenodd" clip-rule="evenodd" d="M22.1312 187.258C20.2948 187.258 18.806 185.769 18.806 183.933C18.806 182.096 20.2948 180.607 22.1312 180.607C23.1538 180.607 24.0684 181.069 24.6784 181.795L25.2148 181.345C24.4764 180.466 23.3691 179.907 22.1312 179.907C19.9081 179.907 18.106 181.709 18.106 183.933C18.106 186.156 19.9081 187.958 22.1312 187.958V187.258Z" fill="white"/>
<path fill-rule="evenodd" clip-rule="evenodd" d="M23.3373 184.945C23.0484 185.289 22.6151 185.508 22.1307 185.508C21.2608 185.508 20.5556 184.802 20.5556 183.932C20.5556 183.063 21.2608 182.357 22.1307 182.357C22.6151 182.357 23.0484 182.576 23.3373 182.92L23.9406 182.414C23.5072 181.898 22.8573 181.57 22.1307 181.57C20.8259 181.57 19.7681 182.628 19.7681 183.932C19.7681 185.237 20.8259 186.295 22.1307 186.295C22.7966 186.295 23.3979 186.019 23.8273 185.576L23.3373 184.945Z" fill="white"/>
<path fill-rule="evenodd" clip-rule="evenodd" d="M27.5967 183.166H28.3164V183.652H28.3291C28.3964 183.5 28.5131 183.367 28.6795 183.251C28.8457 183.135 29.0425 183.077 29.2698 183.077C29.4676 183.077 29.637 183.112 29.7781 183.181C29.9191 183.251 30.0348 183.342 30.1253 183.456C30.2158 183.57 30.2821 183.7 30.3242 183.847C30.3662 183.995 30.3873 184.146 30.3873 184.302V186.196H29.6297V184.517C29.6297 184.428 29.6234 184.336 29.6108 184.239C29.5981 184.142 29.5707 184.055 29.5287 183.977C29.4866 183.899 29.4286 183.835 29.355 183.784C29.2814 183.734 29.1835 183.709 29.0615 183.709C28.9393 183.709 28.8342 183.733 28.7458 183.781C28.6574 183.83 28.5848 183.892 28.528 183.967C28.4711 184.043 28.4279 184.131 28.3985 184.229C28.369 184.328 28.3543 184.428 28.3543 184.529V186.196H27.5967V183.166Z" fill="white"/>
<path fill-rule="evenodd" clip-rule="evenodd" d="M30.709 183.772V183.166H31.2393V182.288H31.9844V183.166H32.742V183.772H31.9844V185.18C31.9844 185.315 32.0085 185.426 32.057 185.514C32.1053 185.603 32.2137 185.647 32.3821 185.647C32.4326 185.647 32.4873 185.642 32.5463 185.631C32.6052 185.621 32.6578 185.605 32.7042 185.584L32.7294 186.177C32.662 186.203 32.582 186.223 32.4895 186.237C32.3968 186.252 32.3084 186.259 32.2243 186.259C32.0222 186.259 31.8581 186.231 31.7318 186.174C31.6055 186.117 31.5055 186.04 31.4319 185.941C31.3582 185.842 31.3077 185.728 31.2804 185.6C31.2529 185.471 31.2393 185.333 31.2393 185.186V183.772H30.709Z" fill="white"/>
<path fill-rule="evenodd" clip-rule="evenodd" d="M33.1968 183.166H33.9228V183.671H33.9355C34.0196 183.494 34.1375 183.351 34.289 183.241C34.4406 183.132 34.6174 183.077 34.8194 183.077C34.8488 183.077 34.8804 183.078 34.9141 183.08C34.9478 183.082 34.9772 183.088 35.0025 183.096V183.791C34.952 183.778 34.9088 183.77 34.8731 183.765C34.8372 183.761 34.8025 183.759 34.7689 183.759C34.5963 183.759 34.4573 183.791 34.3522 183.854C34.2469 183.917 34.1648 183.993 34.106 184.081C34.0469 184.169 34.007 184.26 33.986 184.353C33.9649 184.445 33.9544 184.519 33.9544 184.574V186.196H33.1968V183.166Z" fill="white"/>
<path fill-rule="evenodd" clip-rule="evenodd" d="M35.3503 186.196H36.108V183.165H35.3503V186.196ZM35.2422 182.136C35.2422 182.014 35.2874 181.908 35.3779 181.817C35.4684 181.727 35.5831 181.682 35.7221 181.682C35.8609 181.682 35.9777 181.725 36.0725 181.811C36.1671 181.897 36.2145 182.006 36.2145 182.136C36.2145 182.267 36.1671 182.375 36.0725 182.461C35.9777 182.548 35.8609 182.591 35.7221 182.591C35.5831 182.591 35.4684 182.546 35.3779 182.455C35.2874 182.365 35.2422 182.258 35.2422 182.136V182.136Z" fill="white"/>
<path fill-rule="evenodd" clip-rule="evenodd" d="M37.0858 183.772H36.5112V183.166H37.0858V182.939C37.0858 182.758 37.1057 182.584 37.1458 182.418C37.1857 182.252 37.2531 182.106 37.3478 181.979C37.4425 181.853 37.5677 181.753 37.7235 181.679C37.8791 181.606 38.0749 181.569 38.3107 181.569C38.3948 181.569 38.4653 181.572 38.5222 181.578C38.579 181.585 38.6368 181.596 38.6958 181.613L38.6453 182.257C38.6031 182.244 38.5579 182.234 38.5096 182.225C38.4611 182.217 38.4095 182.213 38.3548 182.213C38.2453 182.213 38.157 182.234 38.0897 182.276C38.0223 182.318 37.9707 182.373 37.935 182.44C37.8992 182.508 37.875 182.581 37.8624 182.661C37.8497 182.741 37.8434 182.819 37.8434 182.895V183.166H38.5442V183.772H37.8434V186.196H37.0858V183.772Z" fill="white"/>
<path fill-rule="evenodd" clip-rule="evenodd" d="M41.7145 186.196H40.9947V185.71H40.9821C40.9147 185.862 40.7979 185.995 40.6317 186.111C40.4654 186.227 40.2687 186.285 40.0414 186.285C39.8435 186.285 39.6741 186.25 39.5331 186.18C39.392 186.111 39.2763 186.019 39.1858 185.906C39.0953 185.792 39.029 185.662 38.9869 185.514C38.9448 185.367 38.9238 185.215 38.9238 185.06V183.166H39.6815V184.845C39.6815 184.933 39.6878 185.026 39.7004 185.123C39.713 185.22 39.7404 185.307 39.7825 185.385C39.8245 185.463 39.8824 185.527 39.9561 185.577C40.0297 185.628 40.1276 185.653 40.2497 185.653C40.3675 185.653 40.4717 185.629 40.5622 185.581C40.6527 185.532 40.7264 185.47 40.7832 185.394C40.8401 185.319 40.8832 185.231 40.9126 185.132C40.9421 185.033 40.9569 184.933 40.9569 184.832V183.166H41.7145V186.196Z" fill="white"/>
<path fill-rule="evenodd" clip-rule="evenodd" d="M25.0687 183.851C25.2265 183.714 25.4191 183.646 25.6464 183.646C25.7684 183.646 25.8747 183.666 25.9653 183.706C26.0557 183.746 26.1304 183.799 26.1893 183.867C26.2483 183.934 26.2914 184.012 26.3188 184.1C26.3461 184.189 26.3599 184.281 26.3599 184.378H24.8067C24.8234 184.163 24.9108 183.988 25.0687 183.851V183.851ZM26.4733 185.274C26.3891 185.396 26.2817 185.492 26.1513 185.562C26.0208 185.631 25.8609 185.666 25.6714 185.666C25.562 185.666 25.4568 185.647 25.3558 185.609C25.2547 185.571 25.1642 185.52 25.0843 185.454C25.0043 185.389 24.94 185.311 24.8917 185.221C24.8433 185.13 24.8149 185.03 24.8065 184.921H27.111C27.1151 184.887 27.1173 184.854 27.1173 184.82V184.719C27.1173 184.445 27.0804 184.206 27.0068 184.002C26.9331 183.798 26.831 183.628 26.7006 183.491C26.5701 183.354 26.4154 183.251 26.2365 183.181C26.0576 183.112 25.8629 183.077 25.6525 183.077C25.4252 183.077 25.2137 183.116 25.018 183.194C24.8223 183.272 24.6528 183.381 24.5097 183.522C24.3666 183.663 24.254 183.834 24.1719 184.034C24.0898 184.234 24.0488 184.456 24.0488 184.7C24.0488 184.948 24.0898 185.17 24.1719 185.366C24.254 185.562 24.3677 185.727 24.5129 185.862C24.6581 185.996 24.8296 186.1 25.0274 186.174C25.2253 186.248 25.442 186.285 25.6778 186.285C26.1866 186.285 26.5872 186.122 26.8801 185.798L26.4733 185.274Z" fill="white"/>
<path fill-rule="evenodd" clip-rule="evenodd" d="M46.9051 183.851C47.0629 183.714 47.2555 183.646 47.4828 183.646C47.6049 183.646 47.7111 183.666 47.8017 183.706C47.8921 183.746 47.9668 183.799 48.0258 183.867C48.0847 183.934 48.1278 184.012 48.1553 184.1C48.1826 184.189 48.1963 184.281 48.1963 184.378H46.6431C46.6599 184.163 46.7473 183.988 46.9051 183.851V183.851ZM48.3102 185.274C48.226 185.396 48.1186 185.492 47.9882 185.562C47.8577 185.631 47.6978 185.666 47.5084 185.666C47.3989 185.666 47.2937 185.647 47.1927 185.609C47.0916 185.571 47.0011 185.52 46.9212 185.454C46.8412 185.389 46.7769 185.311 46.7286 185.221C46.6802 185.13 46.6518 185.03 46.6434 184.921H48.9479C48.952 184.887 48.9542 184.854 48.9542 184.82V184.719C48.9542 184.445 48.9173 184.206 48.8437 184.002C48.77 183.798 48.6679 183.628 48.5375 183.491C48.407 183.354 48.2523 183.251 48.0734 183.181C47.8945 183.112 47.6998 183.077 47.4894 183.077C47.2621 183.077 47.0506 183.116 46.8549 183.194C46.6592 183.272 46.4897 183.381 46.3466 183.522C46.2035 183.663 46.0909 183.834 46.0088 184.034C45.9267 184.234 45.8857 184.456 45.8857 184.7C45.8857 184.948 45.9267 185.17 46.0088 185.366C46.0909 185.562 46.2046 185.727 46.3498 185.862C46.495 185.996 46.6665 186.1 46.8643 186.174C47.0622 186.248 47.2789 186.285 47.5147 186.285C48.0235 186.285 48.4242 186.122 48.717 185.798L48.3102 185.274Z" fill="white"/>
<path fill-rule="evenodd" clip-rule="evenodd" d="M44.6366 185.021C44.5945 185.136 44.5345 185.238 44.4567 185.326C44.3787 185.414 44.284 185.484 44.1725 185.537C44.061 185.589 43.9358 185.615 43.7969 185.615C43.6621 185.615 43.5411 185.588 43.4338 185.533C43.3265 185.479 43.2359 185.406 43.1623 185.316C43.0886 185.226 43.0318 185.124 42.9919 185.011C42.9518 184.898 42.9319 184.78 42.9319 184.659C42.9319 184.524 42.9518 184.399 42.9919 184.281C43.0318 184.164 43.0886 184.062 43.1623 183.976C43.2359 183.89 43.3265 183.822 43.4338 183.771C43.5411 183.721 43.6643 183.696 43.8032 183.696C43.9421 183.696 44.0662 183.721 44.1757 183.771C44.2851 183.822 44.3787 183.891 44.4567 183.979C44.5345 184.067 44.5945 184.17 44.6366 184.287C44.6786 184.405 44.6997 184.529 44.6997 184.659C44.6997 184.785 44.6786 184.905 44.6366 185.021V185.021ZM44.7002 183.166V183.62H44.6876C44.5781 183.435 44.4308 183.298 44.2456 183.21C44.0604 183.121 43.8605 183.077 43.6458 183.077C43.4185 183.077 43.2133 183.119 43.0302 183.203C42.8471 183.288 42.6914 183.401 42.563 183.544C42.4346 183.688 42.3357 183.856 42.2663 184.049C42.1968 184.243 42.1621 184.449 42.1621 184.668C42.1621 184.883 42.1978 185.086 42.2694 185.278C42.341 185.469 42.4409 185.636 42.5693 185.779C42.6977 185.923 42.8544 186.036 43.0397 186.12C43.2249 186.205 43.4312 186.247 43.6585 186.247C43.8689 186.247 44.0594 186.207 44.2299 186.129C44.4003 186.05 44.5402 185.936 44.6497 185.787H44.6624V186.009C44.6624 186.161 44.6466 186.301 44.615 186.427C44.5834 186.554 44.5307 186.664 44.4572 186.757C44.3835 186.85 44.2845 186.923 44.1604 186.976C44.0362 187.028 43.8836 187.055 43.7027 187.055C43.5133 187.055 43.3259 187.018 43.1407 186.944C42.9603 186.873 42.798 186.77 42.6536 186.636L42.2063 187.213C42.3031 187.293 42.4125 187.364 42.5346 187.427C42.6566 187.49 42.784 187.543 42.9166 187.585C43.0492 187.627 43.1838 187.659 43.3207 187.68C43.4574 187.701 43.5868 187.711 43.709 187.711C44.0035 187.711 44.2583 187.669 44.4729 187.585C44.6876 187.501 44.8654 187.382 45.0065 187.228C45.1474 187.075 45.2516 186.887 45.319 186.667C45.3863 186.446 45.42 186.198 45.42 185.925V183.166H44.7002Z" fill="white"/>
<path d="M30.356 24.3152C30.356 25.2583 30.1811 26.0569 29.8312 26.711C29.4813 27.3499 29.0098 27.8671 28.4165 28.2626C27.8233 28.6581 27.1388 28.9471 26.363 29.1296C25.5872 29.3121 24.781 29.4034 23.9444 29.4034H22.0049V35.4956H18.1032V19.341H24.0356C24.9179 19.341 25.7393 19.4323 26.4999 19.6148C27.2757 19.7822 27.945 20.0636 28.5078 20.4591C29.0858 20.8394 29.5346 21.3489 29.854 21.9878C30.1887 22.6115 30.356 23.3873 30.356 24.3152ZM26.4542 24.338C26.4542 23.9577 26.3782 23.6459 26.2261 23.4025C26.074 23.1591 25.8686 22.969 25.61 22.8321C25.3514 22.6952 25.0548 22.6039 24.7201 22.5583C24.4007 22.5126 24.066 22.4898 23.7162 22.4898H22.0049V26.3003H23.6477C24.0128 26.3003 24.3627 26.2699 24.6973 26.209C25.032 26.1482 25.3286 26.0417 25.5872 25.8896C25.861 25.7375 26.074 25.5397 26.2261 25.2963C26.3782 25.0377 26.4542 24.7183 26.4542 24.338ZM38.1315 30.5443H37.6523C37.2416 30.5443 36.8233 30.5671 36.3974 30.6127C35.9867 30.6431 35.614 30.7116 35.2793 30.8181C34.9599 30.9246 34.6937 31.0843 34.4807 31.2972C34.2678 31.495 34.1613 31.7612 34.1613 32.0958C34.1613 32.3088 34.2069 32.4913 34.2982 32.6435C34.4047 32.7956 34.534 32.9173 34.6861 33.0085C34.8382 33.0998 35.0131 33.1683 35.2109 33.2139C35.4086 33.2443 35.5988 33.2595 35.7813 33.2595C36.5419 33.2595 37.1199 33.0542 37.5154 32.6435C37.9261 32.2175 38.1315 31.6471 38.1315 30.9322V30.5443ZM31.2635 25.6842C31.9328 25.0453 32.7086 24.5662 33.5909 24.2467C34.4883 23.9273 35.401 23.7676 36.3289 23.7676C37.2872 23.7676 38.0935 23.8893 38.7475 24.1326C39.4168 24.3608 39.9569 24.7259 40.3676 25.2279C40.7783 25.7146 41.0749 26.3383 41.2574 27.0989C41.4552 27.8442 41.5541 28.7341 41.5541 29.7685V35.4956H38.1315V34.2863H38.063C37.774 34.7578 37.3329 35.1229 36.7396 35.3815C36.1616 35.6401 35.5303 35.7694 34.8458 35.7694C34.3895 35.7694 33.9179 35.7086 33.4311 35.5869C32.9444 35.4652 32.4956 35.2674 32.0849 34.9936C31.6894 34.7198 31.3624 34.3547 31.1038 33.8984C30.8452 33.4421 30.7159 32.8792 30.7159 32.2099C30.7159 31.3885 30.9365 30.7268 31.3776 30.2248C31.8339 29.7229 32.412 29.335 33.1117 29.0612C33.8266 28.7874 34.6176 28.6048 35.4847 28.5135C36.3517 28.4223 37.196 28.3766 38.0174 28.3766V28.1941C38.0174 27.6313 37.8196 27.2206 37.4241 26.962C37.0286 26.6882 36.5419 26.5513 35.9638 26.5513C35.4314 26.5513 34.9143 26.6654 34.4123 26.8935C33.9255 27.1217 33.5072 27.3955 33.1573 27.7149L31.2635 25.6842ZM51.717 27.1901C51.5497 27.1445 51.3823 27.1141 51.215 27.0989C51.0629 27.0837 50.9108 27.0761 50.7587 27.0761C50.2567 27.0761 49.8308 27.1673 49.4809 27.3499C49.1462 27.5324 48.8724 27.753 48.6595 28.0116C48.4617 28.2702 48.3172 28.5516 48.2259 28.8558C48.1347 29.16 48.089 29.4262 48.089 29.6544V35.4956H44.347V24.1326H47.9521V25.7755H47.9978C48.2868 25.1974 48.6975 24.7259 49.2299 24.3608C49.7623 23.9957 50.3784 23.8132 51.0781 23.8132C51.2302 23.8132 51.3747 23.8208 51.5116 23.836C51.6637 23.8512 51.7854 23.874 51.8767 23.9045L51.717 27.1901ZM59.7454 30.5443H59.2663C58.8556 30.5443 58.4372 30.5671 58.0113 30.6127C57.6006 30.6431 57.2279 30.7116 56.8933 30.8181C56.5738 30.9246 56.3076 31.0843 56.0947 31.2972C55.8817 31.495 55.7752 31.7612 55.7752 32.0958C55.7752 32.3088 55.8209 32.4913 55.9121 32.6435C56.0186 32.7956 56.1479 32.9173 56.3 33.0085C56.4521 33.0998 56.6271 33.1683 56.8248 33.2139C57.0226 33.2443 57.2127 33.2595 57.3953 33.2595C58.1558 33.2595 58.7339 33.0542 59.1294 32.6435C59.5401 32.2175 59.7454 31.6471 59.7454 30.9322V30.5443ZM52.8774 25.6842C53.5468 25.0453 54.3225 24.5662 55.2048 24.2467C56.1023 23.9273 57.015 23.7676 57.9429 23.7676C58.9012 23.7676 59.7074 23.8893 60.3615 24.1326C61.0308 24.3608 61.5708 24.7259 61.9815 25.2279C62.3922 25.7146 62.6888 26.3383 62.8714 27.0989C63.0691 27.8442 63.168 28.7341 63.168 29.7685V35.4956H59.7454V34.2863H59.677C59.388 34.7578 58.9468 35.1229 58.3536 35.3815C57.7755 35.6401 57.1443 35.7694 56.4597 35.7694C56.0034 35.7694 55.5318 35.7086 55.0451 35.5869C54.5583 35.4652 54.1096 35.2674 53.6989 34.9936C53.3034 34.7198 52.9763 34.3547 52.7177 33.8984C52.4591 33.4421 52.3298 32.8792 52.3298 32.2099C52.3298 31.3885 52.5504 30.7268 52.9915 30.2248C53.4479 29.7229 54.0259 29.335 54.7256 29.0612C55.4406 28.7874 56.2316 28.6048 57.0986 28.5135C57.9657 28.4223 58.8099 28.3766 59.6313 28.3766V28.1941C59.6313 27.6313 59.4336 27.2206 59.0381 26.962C58.6426 26.6882 58.1558 26.5513 57.5778 26.5513C57.0454 26.5513 56.5282 26.6654 56.0262 26.8935C55.5395 27.1217 55.1211 27.3955 54.7713 27.7149L52.8774 25.6842ZM73.7873 27.8062C73.5743 27.5324 73.2853 27.3118 72.9202 27.1445C72.5551 26.9772 72.1825 26.8935 71.8022 26.8935C71.4067 26.8935 71.0492 26.9772 70.7298 27.1445C70.4103 27.2966 70.1365 27.5096 69.9083 27.7834C69.6802 28.042 69.4976 28.3462 69.3607 28.6961C69.239 29.0459 69.1782 29.4186 69.1782 29.8141C69.1782 30.2096 69.239 30.5823 69.3607 30.9322C69.4824 31.282 69.6574 31.5939 69.8855 31.8677C70.1289 32.1263 70.4103 32.3316 70.7298 32.4837C71.0644 32.6359 71.4371 32.7119 71.8478 32.7119C72.2281 32.7119 72.6008 32.6435 72.9658 32.5066C73.3461 32.3544 73.6504 32.1415 73.8785 31.8677L75.9549 34.4004C75.4833 34.8567 74.8749 35.2142 74.1295 35.4728C73.3842 35.7314 72.5932 35.8607 71.7565 35.8607C70.8591 35.8607 70.0224 35.7238 69.2466 35.45C68.4709 35.1762 67.7939 34.7807 67.2159 34.2635C66.6531 33.7311 66.2044 33.0922 65.8697 32.3468C65.5503 31.6015 65.3905 30.7572 65.3905 29.8141C65.3905 28.8862 65.5503 28.0496 65.8697 27.3042C66.2044 26.5589 66.6531 25.9276 67.2159 25.4104C67.7939 24.878 68.4709 24.4749 69.2466 24.2011C70.0224 23.9121 70.8515 23.7676 71.7337 23.7676C72.1444 23.7676 72.5475 23.8056 72.943 23.8817C73.3537 23.9577 73.7416 24.0642 74.1067 24.2011C74.487 24.3228 74.8293 24.4825 75.1335 24.6803C75.4529 24.8628 75.7267 25.0681 75.9549 25.2963L73.7873 27.8062ZM84.9205 35.4956V29.335C84.9205 29.0155 84.8976 28.7113 84.852 28.4223C84.8064 28.1333 84.7151 27.8823 84.5782 27.6693C84.4565 27.4411 84.2892 27.2662 84.0762 27.1445C83.8633 27.0076 83.5894 26.9392 83.2548 26.9392C82.6007 26.9392 82.0987 27.1749 81.7489 27.6465C81.399 28.1028 81.2241 28.6733 81.2241 29.3578V35.4956H77.482V18.2458H81.2241V25.5701H81.2697C81.5283 25.1138 81.939 24.7107 82.5018 24.3608C83.0647 23.9957 83.7416 23.8132 84.5326 23.8132C85.3083 23.8132 85.9548 23.9501 86.472 24.2239C87.0044 24.4977 87.4303 24.8552 87.7498 25.2963C88.0844 25.7222 88.3202 26.2166 88.4571 26.7794C88.6092 27.3423 88.6853 27.9051 88.6853 28.4679V35.4956H84.9205ZM98.2271 30.5443H97.748C97.3373 30.5443 96.919 30.5671 96.493 30.6127C96.0823 30.6431 95.7097 30.7116 95.375 30.8181C95.0556 30.9246 94.7894 31.0843 94.5764 31.2972C94.3634 31.495 94.257 31.7612 94.257 32.0958C94.257 32.3088 94.3026 32.4913 94.3939 32.6435C94.5003 32.7956 94.6296 32.9173 94.7818 33.0085C94.9339 33.0998 95.1088 33.1683 95.3065 33.2139C95.5043 33.2443 95.6944 33.2595 95.877 33.2595C96.6376 33.2595 97.2156 33.0542 97.6111 32.6435C98.0218 32.2175 98.2271 31.6471 98.2271 30.9322V30.5443ZM91.3592 25.6842C92.0285 25.0453 92.8043 24.5662 93.6865 24.2467C94.584 23.9273 95.4967 23.7676 96.4246 23.7676C97.3829 23.7676 98.1891 23.8893 98.8432 24.1326C99.5125 24.3608 100.053 24.7259 100.463 25.2279C100.874 25.7146 101.171 26.3383 101.353 27.0989C101.551 27.8442 101.65 28.7341 101.65 29.7685V35.4956H98.2271V34.2863H98.1587C97.8697 34.7578 97.4285 35.1229 96.8353 35.3815C96.2573 35.6401 95.626 35.7694 94.9415 35.7694C94.4851 35.7694 94.0136 35.7086 93.5268 35.5869C93.04 35.4652 92.5913 35.2674 92.1806 34.9936C91.7851 34.7198 91.458 34.3547 91.1995 33.8984C90.9409 33.4421 90.8116 32.8792 90.8116 32.2099C90.8116 31.3885 91.0321 30.7268 91.4733 30.2248C91.9296 29.7229 92.5076 29.335 93.2074 29.0612C93.9223 28.7874 94.7133 28.6048 95.5804 28.5135C96.4474 28.4223 97.2916 28.3766 98.1131 28.3766V28.1941C98.1131 27.6313 97.9153 27.2206 97.5198 26.962C97.1243 26.6882 96.6376 26.5513 96.0595 26.5513C95.5271 26.5513 95.0099 26.6654 94.5079 26.8935C94.0212 27.1217 93.6029 27.3955 93.253 27.7149L91.3592 25.6842ZM108.504 20.5047C108.504 20.7937 108.443 21.0675 108.322 21.3261C108.215 21.5695 108.063 21.7825 107.865 21.965C107.683 22.1475 107.455 22.2921 107.181 22.3985C106.922 22.505 106.648 22.5583 106.359 22.5583C105.751 22.5583 105.241 22.3605 104.831 21.965C104.42 21.5543 104.215 21.0675 104.215 20.5047C104.215 20.2309 104.268 19.9723 104.374 19.7289C104.481 19.4703 104.633 19.2498 104.831 19.0672C105.028 18.8847 105.257 18.7402 105.515 18.6337C105.774 18.512 106.055 18.4512 106.359 18.4512C106.648 18.4512 106.922 18.5044 107.181 18.6109C107.455 18.7174 107.683 18.8619 107.865 19.0444C108.063 19.2269 108.215 19.4475 108.322 19.7061C108.443 19.9495 108.504 20.2157 108.504 20.5047ZM104.488 35.4956V24.1326H108.23V35.4956H104.488ZM118.655 35.4956V29.2893C118.655 28.9699 118.625 28.6657 118.564 28.3766C118.519 28.0876 118.435 27.8366 118.313 27.6237C118.192 27.3955 118.017 27.2206 117.788 27.0989C117.575 26.962 117.302 26.8935 116.967 26.8935C116.632 26.8935 116.336 26.962 116.077 27.0989C115.834 27.2206 115.628 27.3955 115.461 27.6237C115.294 27.8518 115.164 28.118 115.073 28.4223C114.997 28.7113 114.959 29.0155 114.959 29.335V35.4956H111.194V24.1326H114.822V25.707H114.868C115.005 25.4636 115.18 25.2279 115.393 24.9997C115.621 24.7563 115.879 24.551 116.168 24.3836C116.473 24.2163 116.8 24.0794 117.15 23.9729C117.499 23.8664 117.872 23.8132 118.268 23.8132C119.028 23.8132 119.675 23.9501 120.207 24.2239C120.739 24.4977 121.165 24.8552 121.485 25.2963C121.819 25.7222 122.055 26.2166 122.192 26.7794C122.344 27.3423 122.42 27.9051 122.42 28.4679V35.4956H118.655ZM131.94 27.4868C131.636 27.1978 131.278 26.9544 130.868 26.7566C130.457 26.5589 130.023 26.46 129.567 26.46C129.217 26.46 128.89 26.5284 128.586 26.6654C128.297 26.8023 128.152 27.038 128.152 27.3727C128.152 27.6921 128.312 27.9203 128.631 28.0572C128.966 28.1941 129.498 28.3462 130.229 28.5135C130.655 28.6048 131.08 28.7341 131.506 28.9014C131.948 29.0688 132.343 29.2893 132.693 29.5631C133.043 29.8369 133.324 30.1716 133.537 30.5671C133.75 30.9626 133.857 31.4341 133.857 31.9818C133.857 32.6967 133.712 33.3052 133.423 33.8071C133.134 34.2939 132.754 34.6894 132.282 34.9936C131.826 35.2979 131.309 35.5184 130.731 35.6553C130.153 35.7922 129.575 35.8607 128.996 35.8607C128.069 35.8607 127.156 35.7162 126.258 35.4272C125.376 35.1229 124.638 34.6818 124.045 34.1038L126.144 31.8905C126.479 32.2556 126.89 32.5598 127.376 32.8032C127.863 33.0466 128.38 33.1683 128.928 33.1683C129.232 33.1683 129.529 33.0998 129.818 32.9629C130.122 32.8108 130.274 32.5522 130.274 32.1871C130.274 31.8372 130.092 31.5787 129.727 31.4113C129.362 31.244 128.791 31.0691 128.015 30.8865C127.62 30.7953 127.224 30.6736 126.829 30.5215C126.433 30.3693 126.076 30.164 125.756 29.9054C125.452 29.6468 125.201 29.3274 125.003 28.9471C124.806 28.5668 124.707 28.1104 124.707 27.578C124.707 26.8935 124.851 26.3155 125.14 25.8439C125.429 25.3572 125.802 24.9617 126.258 24.6574C126.715 24.3532 127.217 24.1326 127.764 23.9957C128.327 23.8436 128.882 23.7676 129.43 23.7676C130.282 23.7676 131.111 23.9045 131.917 24.1783C132.739 24.4369 133.431 24.8324 133.993 25.3648L131.94 27.4868ZM140.58 26.1406C140.58 26.4448 140.519 26.7338 140.398 27.0076C140.276 27.2662 140.116 27.4944 139.919 27.6921C139.721 27.8899 139.485 28.0496 139.211 28.1713C138.937 28.2778 138.656 28.331 138.367 28.331C138.063 28.331 137.774 28.2778 137.5 28.1713C137.226 28.0648 136.983 27.9127 136.77 27.7149C136.572 27.5172 136.412 27.289 136.291 27.0304C136.169 26.7718 136.108 26.4904 136.108 26.1862C136.108 25.882 136.169 25.6005 136.291 25.342C136.412 25.0681 136.572 24.8324 136.77 24.6346C136.983 24.4369 137.226 24.2848 137.5 24.1783C137.774 24.0566 138.063 23.9957 138.367 23.9957C138.656 23.9957 138.937 24.0566 139.211 24.1783C139.485 24.2848 139.721 24.4369 139.919 24.6346C140.116 24.8172 140.276 25.0453 140.398 25.3191C140.519 25.5777 140.58 25.8515 140.58 26.1406ZM140.58 33.4649C140.58 33.7691 140.519 34.0581 140.398 34.3319C140.276 34.5905 140.116 34.8187 139.919 35.0164C139.721 35.199 139.485 35.3511 139.211 35.4728C138.937 35.5793 138.656 35.6325 138.367 35.6325C138.063 35.6325 137.774 35.5793 137.5 35.4728C137.226 35.3663 136.983 35.2142 136.77 35.0164C136.572 34.8187 136.412 34.5905 136.291 34.3319C136.169 34.0733 136.108 33.7919 136.108 33.4877C136.108 33.1835 136.169 32.9021 136.291 32.6435C136.412 32.3697 136.572 32.1339 136.77 31.9361C136.983 31.7384 137.226 31.5863 137.5 31.4798C137.774 31.3581 138.063 31.2972 138.367 31.2972C138.656 31.2972 138.937 31.3581 139.211 31.4798C139.485 31.5863 139.721 31.7384 139.919 31.9361C140.116 32.1187 140.276 32.3468 140.398 32.6206C140.519 32.8792 140.58 33.1606 140.58 33.4649ZM153.359 26.9392V31.2744C153.359 31.8068 153.458 32.2099 153.655 32.4837C153.868 32.7423 154.241 32.8716 154.773 32.8716C154.956 32.8716 155.146 32.8564 155.344 32.826C155.557 32.7956 155.732 32.7499 155.869 32.6891L155.914 35.4272C155.656 35.5184 155.329 35.5945 154.933 35.6553C154.538 35.7314 154.142 35.7694 153.747 35.7694C152.986 35.7694 152.347 35.6781 151.83 35.4956C151.313 35.2979 150.894 35.0241 150.575 34.6742C150.271 34.3091 150.05 33.8832 149.913 33.3964C149.776 32.8944 149.708 32.3392 149.708 31.7308V26.9392H147.883V24.1326H149.685V21.1436H153.359V24.1326H156.028V26.9392H153.359ZM165.271 35.4956V29.335C165.271 29.0155 165.248 28.7113 165.202 28.4223C165.157 28.1333 165.065 27.8823 164.929 27.6693C164.807 27.4411 164.64 27.2662 164.427 27.1445C164.214 27.0076 163.94 26.9392 163.605 26.9392C162.951 26.9392 162.449 27.1749 162.099 27.6465C161.749 28.1028 161.574 28.6733 161.574 29.3578V35.4956H157.832V18.2458H161.574V25.5701H161.62C161.879 25.1138 162.289 24.7107 162.852 24.3608C163.415 23.9957 164.092 23.8132 164.883 23.8132C165.659 23.8132 166.305 23.9501 166.822 24.2239C167.355 24.4977 167.781 24.8552 168.1 25.2963C168.435 25.7222 168.671 26.2166 168.807 26.7794C168.96 27.3423 169.036 27.9051 169.036 28.4679V35.4956H165.271ZM179.696 28.5135C179.696 27.9203 179.505 27.4107 179.125 26.9848C178.76 26.5589 178.205 26.3459 177.459 26.3459C177.094 26.3459 176.76 26.4068 176.456 26.5284C176.151 26.6349 175.885 26.787 175.657 26.9848C175.429 27.1825 175.246 27.4183 175.109 27.6921C174.972 27.9507 174.896 28.2245 174.881 28.5135H179.696ZM183.141 29.951C183.141 30.1031 183.141 30.2553 183.141 30.4074C183.141 30.5595 183.133 30.704 183.118 30.8409H174.881C174.912 31.1603 175.003 31.4494 175.155 31.708C175.322 31.9665 175.528 32.1947 175.771 32.3925C176.03 32.575 176.311 32.7195 176.615 32.826C176.935 32.9325 177.262 32.9857 177.596 32.9857C178.19 32.9857 178.692 32.8792 179.102 32.6663C179.513 32.4381 179.848 32.1491 180.106 31.7992L182.707 33.4421C182.175 34.2178 181.468 34.8187 180.585 35.2446C179.718 35.6553 178.707 35.8607 177.551 35.8607C176.699 35.8607 175.893 35.7314 175.132 35.4728C174.372 35.199 173.702 34.8111 173.124 34.3091C172.561 33.7919 172.113 33.1606 171.778 32.4153C171.459 31.6699 171.299 30.8181 171.299 29.8598C171.299 28.9319 171.459 28.0952 171.778 27.3499C172.097 26.5893 172.531 25.9504 173.079 25.4332C173.626 24.9008 174.273 24.4901 175.018 24.2011C175.763 23.9121 176.57 23.7676 177.437 23.7676C178.273 23.7676 179.041 23.9121 179.741 24.2011C180.441 24.4749 181.042 24.878 181.544 25.4104C182.046 25.9428 182.434 26.5893 182.707 27.3499C182.996 28.1104 183.141 28.9775 183.141 29.951ZM198.627 35.4956V29.2893C198.627 28.9699 198.597 28.6657 198.536 28.3766C198.49 28.0876 198.407 27.8366 198.285 27.6237C198.163 27.3955 197.988 27.2206 197.76 27.0989C197.547 26.962 197.273 26.8935 196.939 26.8935C196.604 26.8935 196.307 26.962 196.049 27.0989C195.805 27.2206 195.6 27.3955 195.433 27.6237C195.265 27.8518 195.136 28.118 195.045 28.4223C194.969 28.7113 194.931 29.0155 194.931 29.335V35.4956H191.166V24.1326H194.794V25.707H194.839C194.976 25.4636 195.151 25.2279 195.364 24.9997C195.592 24.7563 195.851 24.551 196.14 24.3836C196.444 24.2163 196.771 24.0794 197.121 23.9729C197.471 23.8664 197.844 23.8132 198.239 23.8132C199 23.8132 199.646 23.9501 200.179 24.2239C200.711 24.4977 201.137 24.8552 201.456 25.2963C201.791 25.7222 202.027 26.2166 202.164 26.7794C202.316 27.3423 202.392 27.9051 202.392 28.4679V35.4956H198.627ZM213.052 28.5135C213.052 27.9203 212.862 27.4107 212.482 26.9848C212.117 26.5589 211.562 26.3459 210.816 26.3459C210.451 26.3459 210.117 26.4068 209.812 26.5284C209.508 26.6349 209.242 26.787 209.014 26.9848C208.786 27.1825 208.603 27.4183 208.466 27.6921C208.329 27.9507 208.253 28.2245 208.238 28.5135H213.052ZM216.498 29.951C216.498 30.1031 216.498 30.2553 216.498 30.4074C216.498 30.5595 216.49 30.704 216.475 30.8409H208.238C208.268 31.1603 208.36 31.4494 208.512 31.708C208.679 31.9665 208.884 32.1947 209.128 32.3925C209.386 32.575 209.668 32.7195 209.972 32.826C210.291 32.9325 210.619 32.9857 210.953 32.9857C211.546 32.9857 212.048 32.8792 212.459 32.6663C212.87 32.4381 213.204 32.1491 213.463 31.7992L216.064 33.4421C215.532 34.2178 214.824 34.8187 213.942 35.2446C213.075 35.6553 212.064 35.8607 210.908 35.8607C210.056 35.8607 209.249 35.7314 208.489 35.4728C207.728 35.199 207.059 34.8111 206.481 34.3091C205.918 33.7919 205.469 33.1606 205.135 32.4153C204.815 31.6699 204.656 30.8181 204.656 29.8598C204.656 28.9319 204.815 28.0952 205.135 27.3499C205.454 26.5893 205.888 25.9504 206.435 25.4332C206.983 24.9008 207.629 24.4901 208.375 24.2011C209.12 23.9121 209.926 23.7676 210.793 23.7676C211.63 23.7676 212.398 23.9121 213.098 24.2011C213.798 24.4749 214.399 24.878 214.901 25.4104C215.403 25.9428 215.79 26.5893 216.064 27.3499C216.353 28.1104 216.498 28.9775 216.498 29.951ZM226.064 35.4956L223.622 32.0046L221.112 35.4956H216.777L221.318 29.5403L217.211 24.1326H221.569L223.691 27.1673L225.836 24.1326H230.057L225.972 29.5403L230.467 35.4956H226.064ZM235.915 26.9392V31.2744C235.915 31.8068 236.014 32.2099 236.212 32.4837C236.425 32.7423 236.797 32.8716 237.33 32.8716C237.512 32.8716 237.702 32.8564 237.9 32.826C238.113 32.7956 238.288 32.7499 238.425 32.6891L238.471 35.4272C238.212 35.5184 237.885 35.5945 237.489 35.6553C237.094 35.7314 236.698 35.7694 236.303 35.7694C235.542 35.7694 234.903 35.6781 234.386 35.4956C233.869 35.2979 233.451 35.0241 233.131 34.6742C232.827 34.3091 232.607 33.8832 232.47 33.3964C232.333 32.8944 232.264 32.3392 232.264 31.7308V26.9392H230.439V24.1326H232.241V21.1436H235.915V24.1326H238.585V26.9392H235.915ZM252.733 27.4868C252.429 27.1978 252.071 26.9544 251.66 26.7566C251.25 26.5589 250.816 26.46 250.36 26.46C250.01 26.46 249.683 26.5284 249.379 26.6654C249.09 26.8023 248.945 27.038 248.945 27.3727C248.945 27.6921 249.105 27.9203 249.424 28.0572C249.759 28.1941 250.291 28.3462 251.022 28.5135C251.448 28.6048 251.873 28.7341 252.299 28.9014C252.74 29.0688 253.136 29.2893 253.486 29.5631C253.836 29.8369 254.117 30.1716 254.33 30.5671C254.543 30.9626 254.65 31.4341 254.65 31.9818C254.65 32.6967 254.505 33.3052 254.216 33.8071C253.927 34.2939 253.547 34.6894 253.075 34.9936C252.619 35.2979 252.102 35.5184 251.524 35.6553C250.946 35.7922 250.367 35.8607 249.789 35.8607C248.862 35.8607 247.949 35.7162 247.051 35.4272C246.169 35.1229 245.431 34.6818 244.838 34.1038L246.937 31.8905C247.272 32.2556 247.683 32.5598 248.169 32.8032C248.656 33.0466 249.173 33.1683 249.721 33.1683C250.025 33.1683 250.322 33.0998 250.611 32.9629C250.915 32.8108 251.067 32.5522 251.067 32.1871C251.067 31.8372 250.885 31.5787 250.52 31.4113C250.155 31.244 249.584 31.0691 248.808 30.8865C248.413 30.7953 248.017 30.6736 247.622 30.5215C247.226 30.3693 246.869 30.164 246.549 29.9054C246.245 29.6468 245.994 29.3274 245.796 28.9471C245.599 28.5668 245.5 28.1104 245.5 27.578C245.5 26.8935 245.644 26.3155 245.933 25.8439C246.222 25.3572 246.595 24.9617 247.051 24.6574C247.508 24.3532 248.01 24.1326 248.557 23.9957C249.12 23.8436 249.675 23.7676 250.223 23.7676C251.075 23.7676 251.904 23.9045 252.71 24.1783C253.531 24.4369 254.224 24.8324 254.786 25.3648L252.733 27.4868ZM260.871 26.9392V31.2744C260.871 31.8068 260.97 32.2099 261.168 32.4837C261.381 32.7423 261.754 32.8716 262.286 32.8716C262.469 32.8716 262.659 32.8564 262.856 32.826C263.069 32.7956 263.244 32.7499 263.381 32.6891L263.427 35.4272C263.168 35.5184 262.841 35.5945 262.446 35.6553C262.05 35.7314 261.655 35.7694 261.259 35.7694C260.499 35.7694 259.86 35.6781 259.343 35.4956C258.825 35.2979 258.407 35.0241 258.088 34.6742C257.783 34.3091 257.563 33.8832 257.426 33.3964C257.289 32.8944 257.221 32.3392 257.221 31.7308V26.9392H255.395V24.1326H257.198V21.1436H260.871V24.1326H263.541V26.9392H260.871ZM273.126 28.5135C273.126 27.9203 272.936 27.4107 272.555 26.9848C272.19 26.5589 271.635 26.3459 270.89 26.3459C270.525 26.3459 270.19 26.4068 269.886 26.5284C269.581 26.6349 269.315 26.787 269.087 26.9848C268.859 27.1825 268.676 27.4183 268.539 27.6921C268.403 27.9507 268.327 28.2245 268.311 28.5135H273.126ZM276.571 29.951C276.571 30.1031 276.571 30.2553 276.571 30.4074C276.571 30.5595 276.564 30.704 276.548 30.8409H268.311C268.342 31.1603 268.433 31.4494 268.585 31.708C268.752 31.9665 268.958 32.1947 269.201 32.3925C269.46 32.575 269.741 32.7195 270.045 32.826C270.365 32.9325 270.692 32.9857 271.027 32.9857C271.62 32.9857 272.122 32.8792 272.532 32.6663C272.943 32.4381 273.278 32.1491 273.536 31.7992L276.138 33.4421C275.605 34.2178 274.898 34.8187 274.016 35.2446C273.149 35.6553 272.137 35.8607 270.981 35.8607C270.129 35.8607 269.323 35.7314 268.562 35.4728C267.802 35.199 267.132 34.8111 266.554 34.3091C265.992 33.7919 265.543 33.1606 265.208 32.4153C264.889 31.6699 264.729 30.8181 264.729 29.8598C264.729 28.9319 264.889 28.0952 265.208 27.3499C265.528 26.5893 265.961 25.9504 266.509 25.4332C267.056 24.9008 267.703 24.4901 268.448 24.2011C269.194 23.9121 270 23.7676 270.867 23.7676C271.703 23.7676 272.472 23.9121 273.171 24.2011C273.871 24.4749 274.472 24.878 274.974 25.4104C275.476 25.9428 275.864 26.5893 276.138 27.3499C276.427 28.1104 276.571 28.9775 276.571 29.951ZM291.532 29.7685C291.532 30.5595 291.411 31.3201 291.167 32.0502C290.924 32.7804 290.567 33.4268 290.095 33.9897C289.639 34.5373 289.076 34.9784 288.406 35.3131C287.737 35.6477 286.977 35.815 286.125 35.815C285.425 35.815 284.763 35.6781 284.14 35.4043C283.516 35.1153 283.029 34.7274 282.679 34.2407H282.634V40.9717H278.892V24.1326H282.451V25.5245H282.52C282.87 25.0681 283.349 24.6727 283.957 24.338C284.581 23.9881 285.311 23.8132 286.148 23.8132C286.969 23.8132 287.714 23.9729 288.384 24.2924C289.053 24.6118 289.616 25.0453 290.072 25.5929C290.544 26.1406 290.901 26.7794 291.145 27.5096C291.403 28.2245 291.532 28.9775 291.532 29.7685ZM287.905 29.7685C287.905 29.4034 287.844 29.0459 287.722 28.6961C287.616 28.3462 287.448 28.042 287.22 27.7834C287.007 27.5096 286.733 27.289 286.399 27.1217C286.064 26.9544 285.676 26.8707 285.235 26.8707C284.809 26.8707 284.429 26.9544 284.094 27.1217C283.759 27.289 283.47 27.5096 283.227 27.7834C282.999 28.0572 282.816 28.369 282.679 28.7189C282.558 29.0688 282.497 29.4262 282.497 29.7913C282.497 30.1564 282.558 30.5139 282.679 30.8637C282.816 31.2136 282.999 31.5254 283.227 31.7992C283.47 32.073 283.759 32.2936 284.094 32.4609C284.429 32.6282 284.809 32.7119 285.235 32.7119C285.676 32.7119 286.064 32.6282 286.399 32.4609C286.733 32.2936 287.007 32.073 287.22 31.7992C287.448 31.5254 287.616 31.2136 287.722 30.8637C287.844 30.4986 287.905 30.1336 287.905 29.7685ZM306.643 21.0067C306.506 20.9611 306.346 20.923 306.163 20.8926C305.981 20.8622 305.798 20.847 305.616 20.847C305.266 20.847 304.985 20.9078 304.772 21.0295C304.559 21.1512 304.391 21.3185 304.27 21.5315C304.148 21.7292 304.064 21.9574 304.019 22.216C303.973 22.4746 303.95 22.7332 303.95 22.9918V24.1326H306.483V26.9392H303.95V35.4956H300.208V26.9392H298.132V24.1326H300.208V23.0374C300.208 22.3377 300.284 21.676 300.436 21.0523C300.588 20.4134 300.847 19.8582 301.212 19.3867C301.592 18.8999 302.094 18.5196 302.718 18.2458C303.357 17.9568 304.148 17.8123 305.091 17.8123C305.41 17.8123 305.722 17.8351 306.027 17.8807C306.346 17.9112 306.635 17.9644 306.894 18.0405L306.643 21.0067ZM319.951 29.7685C319.951 30.6964 319.784 31.5406 319.449 32.3012C319.114 33.0466 318.658 33.6854 318.08 34.2178C317.502 34.735 316.833 35.1381 316.072 35.4272C315.311 35.7162 314.498 35.8607 313.631 35.8607C312.779 35.8607 311.965 35.7162 311.189 35.4272C310.429 35.1381 309.759 34.735 309.181 34.2178C308.618 33.6854 308.17 33.0466 307.835 32.3012C307.5 31.5406 307.333 30.6964 307.333 29.7685C307.333 28.8406 307.5 28.004 307.835 27.2586C308.17 26.5132 308.618 25.882 309.181 25.3648C309.759 24.8476 310.429 24.4521 311.189 24.1783C311.965 23.9045 312.779 23.7676 313.631 23.7676C314.498 23.7676 315.311 23.9045 316.072 24.1783C316.833 24.4521 317.502 24.8476 318.08 25.3648C318.658 25.882 319.114 26.5132 319.449 27.2586C319.784 28.004 319.951 28.8406 319.951 29.7685ZM316.346 29.7685C316.346 29.4034 316.285 29.0459 316.163 28.6961C316.042 28.3462 315.867 28.042 315.638 27.7834C315.41 27.5096 315.129 27.289 314.794 27.1217C314.46 26.9544 314.072 26.8707 313.631 26.8707C313.189 26.8707 312.802 26.9544 312.467 27.1217C312.132 27.289 311.851 27.5096 311.623 27.7834C311.41 28.042 311.242 28.3462 311.121 28.6961C311.014 29.0459 310.961 29.4034 310.961 29.7685C310.961 30.1336 311.014 30.491 311.121 30.8409C311.242 31.1908 311.417 31.5102 311.645 31.7992C311.874 32.073 312.155 32.2936 312.49 32.4609C312.824 32.6282 313.212 32.7119 313.653 32.7119C314.094 32.7119 314.482 32.6282 314.817 32.4609C315.152 32.2936 315.433 32.073 315.661 31.7992C315.889 31.5102 316.057 31.1908 316.163 30.8409C316.285 30.491 316.346 30.1336 316.346 29.7685ZM329.69 27.1901C329.523 27.1445 329.355 27.1141 329.188 27.0989C329.036 27.0837 328.884 27.0761 328.732 27.0761C328.23 27.0761 327.804 27.1673 327.454 27.3499C327.119 27.5324 326.846 27.753 326.633 28.0116C326.435 28.2702 326.29 28.5516 326.199 28.8558C326.108 29.16 326.062 29.4262 326.062 29.6544V35.4956H322.32V24.1326H325.925V25.7755H325.971C326.26 25.1974 326.671 24.7259 327.203 24.3608C327.735 23.9957 328.351 23.8132 329.051 23.8132C329.203 23.8132 329.348 23.8208 329.485 23.836C329.637 23.8512 329.759 23.874 329.85 23.9045L329.69 27.1901ZM30.5613 53.7685C30.5613 54.5595 30.4397 55.3201 30.1963 56.0502C29.9529 56.7804 29.5954 57.4268 29.1239 57.9897C28.6675 58.5373 28.1047 58.9784 27.4354 59.3131C26.7661 59.6477 26.0055 59.815 25.1537 59.815C24.3931 59.815 23.6706 59.6629 22.986 59.3587C22.3167 59.0393 21.7995 58.5905 21.4345 58.0125H21.3888V59.4956H17.9434V42.2458H21.6855V49.342H21.7311C22.0505 48.9617 22.4993 48.6118 23.0773 48.2924C23.6553 47.9729 24.3627 47.8132 25.1993 47.8132C26.0207 47.8132 26.7585 47.9729 27.4126 48.2924C28.0819 48.6118 28.6447 49.0453 29.101 49.5929C29.5726 50.1406 29.9301 50.7794 30.1735 51.5096C30.432 52.2245 30.5613 52.9775 30.5613 53.7685ZM26.9562 53.7685C26.9562 53.4034 26.8954 53.0459 26.7737 52.6961C26.6672 52.3462 26.4999 52.042 26.2717 51.7834C26.0435 51.5096 25.7621 51.289 25.4275 51.1217C25.0928 50.9544 24.7049 50.8707 24.2638 50.8707C23.8379 50.8707 23.4576 50.9544 23.1229 51.1217C22.7883 51.289 22.4993 51.5096 22.2559 51.7834C22.0277 52.0572 21.8452 52.369 21.7083 52.7189C21.5866 53.0688 21.5257 53.4262 21.5257 53.7913C21.5257 54.1564 21.5866 54.5139 21.7083 54.8637C21.8452 55.2136 22.0277 55.5254 22.2559 55.7992C22.4993 56.073 22.7883 56.2936 23.1229 56.4609C23.4576 56.6282 23.8379 56.7119 24.2638 56.7119C24.7049 56.7119 25.0928 56.6282 25.4275 56.4609C25.7621 56.2936 26.0435 56.073 26.2717 55.7992C26.4999 55.5254 26.6672 55.2136 26.7737 54.8637C26.8954 54.4986 26.9562 54.1336 26.9562 53.7685ZM32.9841 59.4956V42.2458H36.7717V59.4956H32.9841ZM51.782 53.7685C51.782 54.6964 51.6147 55.5406 51.2801 56.3012C50.9454 57.0466 50.4891 57.6854 49.911 58.2178C49.333 58.735 48.6637 59.1381 47.9031 59.4272C47.1425 59.7162 46.3287 59.8607 45.4617 59.8607C44.6098 59.8607 43.796 59.7162 43.0202 59.4272C42.2597 59.1381 41.5904 58.735 41.0123 58.2178C40.4495 57.6854 40.0008 57.0466 39.6661 56.3012C39.3315 55.5406 39.1641 54.6964 39.1641 53.7685C39.1641 52.8406 39.3315 52.004 39.6661 51.2586C40.0008 50.5132 40.4495 49.882 41.0123 49.3648C41.5904 48.8476 42.2597 48.4521 43.0202 48.1783C43.796 47.9045 44.6098 47.7676 45.4617 47.7676C46.3287 47.7676 47.1425 47.9045 47.9031 48.1783C48.6637 48.4521 49.333 48.8476 49.911 49.3648C50.4891 49.882 50.9454 50.5132 51.2801 51.2586C51.6147 52.004 51.782 52.8406 51.782 53.7685ZM48.1769 53.7685C48.1769 53.4034 48.1161 53.0459 47.9944 52.6961C47.8727 52.3462 47.6978 52.042 47.4696 51.7834C47.2414 51.5096 46.96 51.289 46.6254 51.1217C46.2907 50.9544 45.9028 50.8707 45.4617 50.8707C45.0205 50.8707 44.6327 50.9544 44.298 51.1217C43.9634 51.289 43.6819 51.5096 43.4538 51.7834C43.2408 52.042 43.0735 52.3462 42.9518 52.6961C42.8453 53.0459 42.7921 53.4034 42.7921 53.7685C42.7921 54.1336 42.8453 54.491 42.9518 54.8409C43.0735 55.1908 43.2484 55.5102 43.4766 55.7992C43.7048 56.073 43.9862 56.2936 44.3208 56.4609C44.6555 56.6282 45.0434 56.7119 45.4845 56.7119C45.9256 56.7119 46.3135 56.6282 46.6482 56.4609C46.9828 56.2936 47.2642 56.073 47.4924 55.7992C47.7206 55.5102 47.8879 55.1908 47.9944 54.8409C48.1161 54.491 48.1769 54.1336 48.1769 53.7685ZM61.9776 51.8062C61.7646 51.5324 61.4756 51.3118 61.1105 51.1445C60.7455 50.9772 60.3728 50.8935 59.9925 50.8935C59.597 50.8935 59.2395 50.9772 58.9201 51.1445C58.6006 51.2966 58.3268 51.5096 58.0987 51.7834C57.8705 52.042 57.688 52.3462 57.551 52.6961C57.4294 53.0459 57.3685 53.4186 57.3685 53.8141C57.3685 54.2096 57.4294 54.5823 57.551 54.9322C57.6727 55.282 57.8477 55.5939 58.0758 55.8677C58.3192 56.1263 58.6006 56.3316 58.9201 56.4837C59.2547 56.6359 59.6274 56.7119 60.0381 56.7119C60.4184 56.7119 60.7911 56.6435 61.1562 56.5066C61.5365 56.3544 61.8407 56.1415 62.0689 55.8677L64.1452 58.4004C63.6737 58.8567 63.0652 59.2142 62.3198 59.4728C61.5745 59.7314 60.7835 59.8607 59.9469 59.8607C59.0494 59.8607 58.2127 59.7238 57.437 59.45C56.6612 59.1762 55.9843 58.7807 55.4062 58.2635C54.8434 57.7311 54.3947 57.0922 54.06 56.3468C53.7406 55.6015 53.5809 54.7572 53.5809 53.8141C53.5809 52.8862 53.7406 52.0496 54.06 51.3042C54.3947 50.5589 54.8434 49.9276 55.4062 49.4104C55.9843 48.878 56.6612 48.4749 57.437 48.2011C58.2127 47.9121 59.0418 47.7676 59.924 47.7676C60.3347 47.7676 60.7378 47.8056 61.1333 47.8817C61.5441 47.9577 61.9319 48.0642 62.297 48.2011C62.6773 48.3228 63.0196 48.4825 63.3238 48.6803C63.6432 48.8628 63.917 49.0681 64.1452 49.2963L61.9776 51.8062ZM77.8339 59.4956H73.202L69.4828 54.0423H69.4144V59.4956H65.6495V42.2458H69.4144V52.7417H69.4828L73.1108 48.1326H77.6514L73.2705 53.2665L77.8339 59.4956ZM87.023 51.8062C86.8101 51.5324 86.521 51.3118 86.156 51.1445C85.7909 50.9772 85.4182 50.8935 85.0379 50.8935C84.6424 50.8935 84.285 50.9772 83.9655 51.1445C83.6461 51.2966 83.3723 51.5096 83.1441 51.7834C82.9159 52.042 82.7334 52.3462 82.5965 52.6961C82.4748 53.0459 82.4139 53.4186 82.4139 53.8141C82.4139 54.2096 82.4748 54.5823 82.5965 54.9322C82.7182 55.282 82.8931 55.5939 83.1213 55.8677C83.3647 56.1263 83.6461 56.3316 83.9655 56.4837C84.3002 56.6359 84.6728 56.7119 85.0836 56.7119C85.4638 56.7119 85.8365 56.6435 86.2016 56.5066C86.5819 56.3544 86.8861 56.1415 87.1143 55.8677L89.1907 58.4004C88.7191 58.8567 88.1106 59.2142 87.3653 59.4728C86.6199 59.7314 85.8289 59.8607 84.9923 59.8607C84.0948 59.8607 83.2582 59.7238 82.4824 59.45C81.7066 59.1762 81.0297 58.7807 80.4517 58.2635C79.8888 57.7311 79.4401 57.0922 79.1055 56.3468C78.786 55.6015 78.6263 54.7572 78.6263 53.8141C78.6263 52.8862 78.786 52.0496 79.1055 51.3042C79.4401 50.5589 79.8888 49.9276 80.4517 49.4104C81.0297 48.878 81.7066 48.4749 82.4824 48.2011C83.2582 47.9121 84.0872 47.7676 84.9695 47.7676C85.3802 47.7676 85.7833 47.8056 86.1788 47.8817C86.5895 47.9577 86.9774 48.0642 87.3425 48.2011C87.7227 48.3228 88.065 48.4825 88.3692 48.6803C88.6887 48.8628 88.9625 49.0681 89.1907 49.2963L87.023 51.8062ZM98.1562 59.4956V53.335C98.1562 53.0155 98.1334 52.7113 98.0877 52.4223C98.0421 52.1333 97.9508 51.8823 97.8139 51.6693C97.6923 51.4411 97.5249 51.2662 97.312 51.1445C97.099 51.0076 96.8252 50.9392 96.4905 50.9392C95.8365 50.9392 95.3345 51.1749 94.9846 51.6465C94.6347 52.1028 94.4598 52.6733 94.4598 53.3578V59.4956H90.7178V42.2458H94.4598V49.5701H94.5054C94.764 49.1138 95.1748 48.7107 95.7376 48.3608C96.3004 47.9957 96.9773 47.8132 97.7683 47.8132C98.5441 47.8132 99.1906 47.9501 99.7078 48.2239C100.24 48.4977 100.666 48.8552 100.986 49.2963C101.32 49.7222 101.556 50.2166 101.693 50.7794C101.845 51.3423 101.921 51.9051 101.921 52.4679V59.4956H98.1562ZM111.463 54.5443H110.984C110.573 54.5443 110.155 54.5671 109.729 54.6127C109.318 54.6431 108.945 54.7116 108.611 54.8181C108.291 54.9246 108.025 55.0843 107.812 55.2972C107.599 55.495 107.493 55.7612 107.493 56.0958C107.493 56.3088 107.538 56.4913 107.63 56.6435C107.736 56.7956 107.865 56.9173 108.018 57.0085C108.17 57.0998 108.345 57.1683 108.542 57.2139C108.74 57.2443 108.93 57.2595 109.113 57.2595C109.873 57.2595 110.451 57.0542 110.847 56.6435C111.258 56.2175 111.463 55.6471 111.463 54.9322V54.5443ZM104.595 49.6842C105.264 49.0453 106.04 48.5662 106.922 48.2467C107.82 47.9273 108.732 47.7676 109.66 47.7676C110.619 47.7676 111.425 47.8893 112.079 48.1326C112.748 48.3608 113.288 48.7259 113.699 49.2279C114.11 49.7146 114.406 50.3383 114.589 51.0989C114.787 51.8442 114.885 52.7341 114.885 53.7685V59.4956H111.463V58.2863H111.394C111.105 58.7578 110.664 59.1229 110.071 59.3815C109.493 59.6401 108.862 59.7694 108.177 59.7694C107.721 59.7694 107.249 59.7086 106.763 59.5869C106.276 59.4652 105.827 59.2674 105.416 58.9936C105.021 58.7198 104.694 58.3547 104.435 57.8984C104.177 57.4421 104.047 56.8792 104.047 56.2099C104.047 55.3885 104.268 54.7268 104.709 54.2248C105.165 53.7229 105.743 53.335 106.443 53.0612C107.158 52.7874 107.949 52.6048 108.816 52.5135C109.683 52.4223 110.527 52.3766 111.349 52.3766V52.1941C111.349 51.6313 111.151 51.2206 110.756 50.962C110.36 50.6882 109.873 50.5513 109.295 50.5513C108.763 50.5513 108.246 50.6654 107.744 50.8935C107.257 51.1217 106.839 51.3955 106.489 51.7149L104.595 49.6842ZM121.74 44.5047C121.74 44.7937 121.679 45.0675 121.557 45.3261C121.451 45.5695 121.299 45.7825 121.101 45.965C120.918 46.1475 120.69 46.2921 120.417 46.3985C120.158 46.505 119.884 46.5583 119.595 46.5583C118.987 46.5583 118.477 46.3605 118.066 45.965C117.656 45.5543 117.45 45.0675 117.45 44.5047C117.45 44.2309 117.504 43.9723 117.61 43.7289C117.716 43.4703 117.869 43.2498 118.066 43.0672C118.264 42.8847 118.492 42.7402 118.751 42.6337C119.009 42.512 119.291 42.4512 119.595 42.4512C119.884 42.4512 120.158 42.5044 120.417 42.6109C120.69 42.7174 120.918 42.8619 121.101 43.0444C121.299 43.2269 121.451 43.4475 121.557 43.7061C121.679 43.9495 121.74 44.2157 121.74 44.5047ZM117.724 59.4956V48.1326H121.466V59.4956H117.724ZM131.891 59.4956V53.2893C131.891 52.9699 131.861 52.6657 131.8 52.3766C131.754 52.0876 131.671 51.8366 131.549 51.6237C131.427 51.3955 131.252 51.2206 131.024 51.0989C130.811 50.962 130.537 50.8935 130.203 50.8935C129.868 50.8935 129.571 50.962 129.313 51.0989C129.07 51.2206 128.864 51.3955 128.697 51.6237C128.53 51.8518 128.4 52.118 128.309 52.4223C128.233 52.7113 128.195 53.0155 128.195 53.335V59.4956H124.43V48.1326H128.058V49.707H128.104C128.24 49.4636 128.415 49.2279 128.628 48.9997C128.857 48.7563 129.115 48.551 129.404 48.3836C129.708 48.2163 130.035 48.0794 130.385 47.9729C130.735 47.8664 131.108 47.8132 131.503 47.8132C132.264 47.8132 132.91 47.9501 133.443 48.2239C133.975 48.4977 134.401 48.8552 134.721 49.2963C135.055 49.7222 135.291 50.2166 135.428 50.7794C135.58 51.3423 135.656 51.9051 135.656 52.4679V59.4956H131.891Z" fill="white"/>
</g>
<defs>
<filter id="filter0_d" x="202.616" y="87.6538" width="89.3242" height="89.3242" filterUnits="userSpaceOnUse" color-interpolation-filters="sRGB">
<feFlood flood-opacity="0" result="BackgroundImageFix"/>
<feColorMatrix in="SourceAlpha" type="matrix" values="0 0 0 0 0 0 0 0 0 0 0 0 0 0 0 0 0 0 127 0" result="hardAlpha"/>
<feOffset dy="2.84227"/>
<feGaussianBlur stdDeviation="8.81104"/>
<feComposite in2="hardAlpha" operator="out"/>
<feColorMatrix type="matrix" values="0 0 0 0 0.875 0 0 0 0 0.777729 0 0 0 0 0.663542 0 0 0 0.48 0"/>
<feBlend mode="normal" in2="BackgroundImageFix" result="effect1_dropShadow"/>
<feBlend mode="normal" in="SourceGraphic" in2="effect1_dropShadow" result="shape"/>
</filter>
<linearGradient id="paint0_linear" x1="261.764" y1="190.368" x2="261.764" y2="198.818" gradientUnits="userSpaceOnUse">
<stop stop-color="white" stop-opacity="0"/>
<stop offset="0.520833" stop-color="white"/>
<stop offset="1" stop-color="white" stop-opacity="0"/>
</linearGradient>
<linearGradient id="paint1_linear" x1="258.928" y1="194.247" x2="265.406" y2="194.247" gradientUnits="userSpaceOnUse">
<stop stop-color="white" stop-opacity="0"/>
<stop offset="0.520833" stop-color="white"/>
<stop offset="1" stop-color="white" stop-opacity="0"/>
</linearGradient>
<linearGradient id="paint2_linear" x1="309.848" y1="184.744" x2="309.848" y2="189.911" gradientUnits="userSpaceOnUse">
<stop stop-color="white" stop-opacity="0"/>
<stop offset="0.520833" stop-color="white"/>
<stop offset="1" stop-color="white" stop-opacity="0"/>
</linearGradient>
<linearGradient id="paint3_linear" x1="308.115" y1="187.115" x2="312.076" y2="187.115" gradientUnits="userSpaceOnUse">
<stop stop-color="white" stop-opacity="0"/>
<stop offset="0.520833" stop-color="white"/>
<stop offset="1" stop-color="white" stop-opacity="0"/>
</linearGradient>
<linearGradient id="paint4_linear" x1="164.381" y1="73.8872" x2="164.381" y2="82.3551" gradientUnits="userSpaceOnUse">
<stop stop-color="white" stop-opacity="0"/>
<stop offset="0.520833" stop-color="white"/>
<stop offset="1" stop-color="white" stop-opacity="0"/>
</linearGradient>
<linearGradient id="paint5_linear" x1="161.54" y1="77.774" x2="168.031" y2="77.774" gradientUnits="userSpaceOnUse">
<stop stop-color="white" stop-opacity="0"/>
<stop offset="0.520833" stop-color="white"/>
<stop offset="1" stop-color="white" stop-opacity="0"/>
</linearGradient>
<linearGradient id="paint6_linear" x1="352.737" y1="24.6749" x2="352.737" y2="34.9036" gradientUnits="userSpaceOnUse">
<stop stop-color="white" stop-opacity="0"/>
<stop offset="0.520833" stop-color="white"/>
<stop offset="1" stop-color="white" stop-opacity="0"/>
</linearGradient>
<linearGradient id="paint7_linear" x1="349.305" y1="29.3696" x2="357.147" y2="29.3696" gradientUnits="userSpaceOnUse">
<stop stop-color="white" stop-opacity="0"/>
<stop offset="0.520833" stop-color="white"/>
<stop offset="1" stop-color="white" stop-opacity="0"/>
</linearGradient>
<linearGradient id="paint8_linear" x1="123.302" y1="158.275" x2="123.302" y2="163.442" gradientUnits="userSpaceOnUse">
<stop stop-color="white" stop-opacity="0"/>
<stop offset="0.520833" stop-color="white"/>
<stop offset="1" stop-color="white" stop-opacity="0"/>
</linearGradient>
<linearGradient id="paint9_linear" x1="121.569" y1="160.646" x2="125.53" y2="160.646" gradientUnits="userSpaceOnUse">
<stop stop-color="white" stop-opacity="0"/>
<stop offset="0.520833" stop-color="white"/>
<stop offset="1" stop-color="white" stop-opacity="0"/>
</linearGradient>
<linearGradient id="paint10_linear" x1="127.701" y1="113.098" x2="127.701" y2="118.264" gradientUnits="userSpaceOnUse">
<stop stop-color="white" stop-opacity="0"/>
<stop offset="0.520833" stop-color="white"/>
<stop offset="1" stop-color="white" stop-opacity="0"/>
</linearGradient>
<linearGradient id="paint11_linear" x1="125.967" y1="115.469" x2="129.928" y2="115.469" gradientUnits="userSpaceOnUse">
<stop stop-color="white" stop-opacity="0"/>
<stop offset="0.520833" stop-color="white"/>
<stop offset="1" stop-color="white" stop-opacity="0"/>
</linearGradient>
<linearGradient id="paint12_linear" x1="318.097" y1="21.6108" x2="318.097" y2="26.7776" gradientUnits="userSpaceOnUse">
<stop stop-color="white" stop-opacity="0"/>
<stop offset="0.520833" stop-color="white"/>
<stop offset="1" stop-color="white" stop-opacity="0"/>
</linearGradient>
<linearGradient id="paint13_linear" x1="316.363" y1="23.9819" x2="320.324" y2="23.9819" gradientUnits="userSpaceOnUse">
<stop stop-color="white" stop-opacity="0"/>
<stop offset="0.520833" stop-color="white"/>
<stop offset="1" stop-color="white" stop-opacity="0"/>
</linearGradient>
<linearGradient id="paint14_linear" x1="333.976" y1="157.354" x2="334.115" y2="160.544" gradientUnits="userSpaceOnUse">
<stop stop-color="white" stop-opacity="0"/>
<stop offset="0.520833" stop-color="white"/>
<stop offset="1" stop-color="white" stop-opacity="0"/>
</linearGradient>
<linearGradient id="paint15_linear" x1="332.969" y1="158.866" x2="335.414" y2="158.759" gradientUnits="userSpaceOnUse">
<stop stop-color="white" stop-opacity="0"/>
<stop offset="0.520833" stop-color="white"/>
<stop offset="1" stop-color="white" stop-opacity="0"/>
</linearGradient>
<linearGradient id="paint16_linear" x1="306.147" y1="192.941" x2="306.266" y2="195.673" gradientUnits="userSpaceOnUse">
<stop stop-color="white" stop-opacity="0"/>
<stop offset="0.520833" stop-color="white"/>
<stop offset="1" stop-color="white" stop-opacity="0"/>
</linearGradient>
<linearGradient id="paint17_linear" x1="305.285" y1="194.235" x2="307.379" y2="194.144" gradientUnits="userSpaceOnUse">
<stop stop-color="white" stop-opacity="0"/>
<stop offset="0.520833" stop-color="white"/>
<stop offset="1" stop-color="white" stop-opacity="0"/>
</linearGradient>
<linearGradient id="paint18_linear" x1="323.689" y1="82.0646" x2="323.808" y2="84.7969" gradientUnits="userSpaceOnUse">
<stop stop-color="white" stop-opacity="0"/>
<stop offset="0.520833" stop-color="white"/>
<stop offset="1" stop-color="white" stop-opacity="0"/>
</linearGradient>
<linearGradient id="paint19_linear" x1="322.826" y1="83.3589" x2="324.921" y2="83.2675" gradientUnits="userSpaceOnUse">
<stop stop-color="white" stop-opacity="0"/>
<stop offset="0.520833" stop-color="white"/>
<stop offset="1" stop-color="white" stop-opacity="0"/>
</linearGradient>
<linearGradient id="paint20_linear" x1="305.902" y1="54.8976" x2="306.021" y2="57.6299" gradientUnits="userSpaceOnUse">
<stop stop-color="white" stop-opacity="0"/>
<stop offset="0.520833" stop-color="white"/>
<stop offset="1" stop-color="white" stop-opacity="0"/>
</linearGradient>
<linearGradient id="paint21_linear" x1="305.039" y1="56.1919" x2="307.134" y2="56.1005" gradientUnits="userSpaceOnUse">
<stop stop-color="white" stop-opacity="0"/>
<stop offset="0.520833" stop-color="white"/>
<stop offset="1" stop-color="white" stop-opacity="0"/>
</linearGradient>
<linearGradient id="paint22_linear" x1="81.31" y1="92.3395" x2="81.4293" y2="95.0718" gradientUnits="userSpaceOnUse">
<stop stop-color="white" stop-opacity="0"/>
<stop offset="0.520833" stop-color="white"/>
<stop offset="1" stop-color="white" stop-opacity="0"/>
</linearGradient>
<linearGradient id="paint23_linear" x1="80.4476" y1="93.6338" x2="82.5423" y2="93.5424" gradientUnits="userSpaceOnUse">
<stop stop-color="white" stop-opacity="0"/>
<stop offset="0.520833" stop-color="white"/>
<stop offset="1" stop-color="white" stop-opacity="0"/>
</linearGradient>
<linearGradient id="paint24_linear" x1="272.575" y1="48.6811" x2="272.669" y2="50.8332" gradientUnits="userSpaceOnUse">
<stop stop-color="white" stop-opacity="0"/>
<stop offset="0.520833" stop-color="white"/>
<stop offset="1" stop-color="white" stop-opacity="0"/>
</linearGradient>
<linearGradient id="paint25_linear" x1="271.896" y1="49.7003" x2="273.546" y2="49.6283" gradientUnits="userSpaceOnUse">
<stop stop-color="white" stop-opacity="0"/>
<stop offset="0.520833" stop-color="white"/>
<stop offset="1" stop-color="white" stop-opacity="0"/>
</linearGradient>
<linearGradient id="paint26_linear" x1="254.076" y1="74.7075" x2="254.17" y2="76.8595" gradientUnits="userSpaceOnUse">
<stop stop-color="white" stop-opacity="0"/>
<stop offset="0.520833" stop-color="white"/>
<stop offset="1" stop-color="white" stop-opacity="0"/>
</linearGradient>
<linearGradient id="paint27_linear" x1="253.397" y1="75.7267" x2="255.047" y2="75.6547" gradientUnits="userSpaceOnUse">
<stop stop-color="white" stop-opacity="0"/>
<stop offset="0.520833" stop-color="white"/>
<stop offset="1" stop-color="white" stop-opacity="0"/>
</linearGradient>
<linearGradient id="paint28_linear" x1="72.2825" y1="148.007" x2="72.3764" y2="150.159" gradientUnits="userSpaceOnUse">
<stop stop-color="white" stop-opacity="0"/>
<stop offset="0.520833" stop-color="white"/>
<stop offset="1" stop-color="white" stop-opacity="0"/>
</linearGradient>
<linearGradient id="paint29_linear" x1="71.6028" y1="149.026" x2="73.2526" y2="148.954" gradientUnits="userSpaceOnUse">
<stop stop-color="white" stop-opacity="0"/>
<stop offset="0.520833" stop-color="white"/>
<stop offset="1" stop-color="white" stop-opacity="0"/>
</linearGradient>
<linearGradient id="paint30_linear" x1="37.1209" y1="117.164" x2="37.2148" y2="119.316" gradientUnits="userSpaceOnUse">
<stop stop-color="white" stop-opacity="0"/>
<stop offset="0.520833" stop-color="white"/>
<stop offset="1" stop-color="white" stop-opacity="0"/>
</linearGradient>
<linearGradient id="paint31_linear" x1="36.4412" y1="118.183" x2="38.091" y2="118.111" gradientUnits="userSpaceOnUse">
<stop stop-color="white" stop-opacity="0"/>
<stop offset="0.520833" stop-color="white"/>
<stop offset="1" stop-color="white" stop-opacity="0"/>
</linearGradient>
<linearGradient id="paint32_linear" x1="94.7532" y1="185.079" x2="94.8775" y2="187.928" gradientUnits="userSpaceOnUse">
<stop stop-color="white" stop-opacity="0"/>
<stop offset="0.520833" stop-color="white"/>
<stop offset="1" stop-color="white" stop-opacity="0"/>
</linearGradient>
<linearGradient id="paint33_linear" x1="93.8542" y1="186.428" x2="96.0382" y2="186.333" gradientUnits="userSpaceOnUse">
<stop stop-color="white" stop-opacity="0"/>
<stop offset="0.520833" stop-color="white"/>
<stop offset="1" stop-color="white" stop-opacity="0"/>
</linearGradient>
<linearGradient id="paint34_linear" x1="260.609" y1="141.449" x2="260.754" y2="144.779" gradientUnits="userSpaceOnUse">
<stop stop-color="white" stop-opacity="0"/>
<stop offset="0.520833" stop-color="white"/>
<stop offset="1" stop-color="white" stop-opacity="0"/>
</linearGradient>
<linearGradient id="paint35_linear" x1="259.558" y1="143.026" x2="262.111" y2="142.915" gradientUnits="userSpaceOnUse">
<stop stop-color="white" stop-opacity="0"/>
<stop offset="0.520833" stop-color="white"/>
<stop offset="1" stop-color="white" stop-opacity="0"/>
</linearGradient>
<linearGradient id="paint36_linear" x1="210.017" y1="88.2426" x2="210.141" y2="91.0914" gradientUnits="userSpaceOnUse">
<stop stop-color="white" stop-opacity="0"/>
<stop offset="0.520833" stop-color="white"/>
<stop offset="1" stop-color="white" stop-opacity="0"/>
</linearGradient>
<linearGradient id="paint37_linear" x1="209.118" y1="89.5917" x2="211.302" y2="89.4964" gradientUnits="userSpaceOnUse">
<stop stop-color="white" stop-opacity="0"/>
<stop offset="0.520833" stop-color="white"/>
<stop offset="1" stop-color="white" stop-opacity="0"/>
</linearGradient>
<linearGradient id="paint38_linear" x1="351.606" y1="63.6152" x2="351.731" y2="66.464" gradientUnits="userSpaceOnUse">
<stop stop-color="white" stop-opacity="0"/>
<stop offset="0.520833" stop-color="white"/>
<stop offset="1" stop-color="white" stop-opacity="0"/>
</linearGradient>
<linearGradient id="paint39_linear" x1="350.707" y1="64.9643" x2="352.891" y2="64.8689" gradientUnits="userSpaceOnUse">
<stop stop-color="white" stop-opacity="0"/>
<stop offset="0.520833" stop-color="white"/>
<stop offset="1" stop-color="white" stop-opacity="0"/>
</linearGradient>
<linearGradient id="paint40_linear" x1="358.137" y1="5.79364" x2="358.241" y2="8.1751" gradientUnits="userSpaceOnUse">
<stop stop-color="white" stop-opacity="0"/>
<stop offset="0.520833" stop-color="white"/>
<stop offset="1" stop-color="white" stop-opacity="0"/>
</linearGradient>
<linearGradient id="paint41_linear" x1="357.386" y1="6.92191" x2="359.212" y2="6.84223" gradientUnits="userSpaceOnUse">
<stop stop-color="white" stop-opacity="0"/>
<stop offset="0.520833" stop-color="white"/>
<stop offset="1" stop-color="white" stop-opacity="0"/>
</linearGradient>
<linearGradient id="paint42_linear" x1="242.334" y1="77.4217" x2="242.542" y2="166.167" gradientUnits="userSpaceOnUse">
<stop offset="0.229199" stop-color="white" stop-opacity="0.54"/>
<stop offset="0.812198" stop-color="#FF021F"/>
</linearGradient>
<clipPath id="clip0">
<path d="M0.306641 10.4839C0.306641 4.96104 4.78379 0.483887 10.3066 0.483887H354.307C359.829 0.483887 364.307 4.96104 364.307 10.4839V205.696H0.306641V10.4839Z" fill="white"/>
</clipPath>
</defs>
</svg>
