<svg width="270" height="185" viewBox="0 0 270 185" fill="none" xmlns="http://www.w3.org/2000/svg">
<rect x="0.685547" y="1.26953" width="268" height="182.78" rx="7.5" stroke="#BBBBBB"/>
<g opacity="0.45">
<path d="M61.569 104.041L62.4025 110.221L61.8117 116.244C61.8117 116.244 61.4216 113.502 61.3867 113.247C61.3517 112.992 60.9616 110.25 60.9616 110.25L61.569 104.041Z" fill="url(#paint0_linear)"/>
<path d="M57.0021 110.226L61.7365 109.421L66.3573 110.04C66.3573 110.04 64.2566 110.417 64.0612 110.451C63.8658 110.485 61.7652 110.862 61.7652 110.862L57.0021 110.226Z" fill="url(#paint1_linear)"/>
</g>
<g opacity="0.45">
<path d="M34.6964 7.83361L35.5299 14.0134L34.9392 20.0364C34.9392 20.0364 34.5491 17.2943 34.5141 17.0392C34.4792 16.7842 34.0891 14.0421 34.0891 14.0421L34.6964 7.83361Z" fill="url(#paint2_linear)"/>
<path d="M30.1295 14.0185L34.8639 13.2137L39.4847 13.8323C39.4847 13.8323 37.384 14.2097 37.1887 14.2434C36.9933 14.2772 34.8926 14.6545 34.8926 14.6545L30.1295 14.0185Z" fill="url(#paint3_linear)"/>
</g>
<g opacity="0.45">
<path d="M253.782 86.5575L254.615 92.7373L254.024 98.7603C254.024 98.7603 253.634 96.0181 253.599 95.7631C253.564 95.5081 253.174 92.766 253.174 92.766L253.782 86.5575Z" fill="url(#paint4_linear)"/>
<path d="M249.215 92.7418L253.949 91.9371L258.57 92.5557C258.57 92.5557 256.469 92.9331 256.274 92.9668C256.078 93.0006 253.978 93.3779 253.978 93.3779L249.215 92.7418Z" fill="url(#paint5_linear)"/>
</g>
<g opacity="0.45">
<path d="M123.09 115.492L123.924 121.672L123.333 127.695C123.333 127.695 122.943 124.953 122.908 124.698C122.873 124.443 122.483 121.701 122.483 121.701L123.09 115.492Z" fill="url(#paint6_linear)"/>
<path d="M118.524 121.676L123.258 120.872L127.879 121.49C127.879 121.49 125.778 121.868 125.583 121.901C125.387 121.935 123.287 122.313 123.287 122.313L118.524 121.676Z" fill="url(#paint7_linear)"/>
</g>
<g opacity="0.45">
<path d="M164.261 7.02062L165.094 13.2004L164.504 19.2234C164.504 19.2234 164.114 16.4813 164.079 16.2262C164.044 15.9712 163.654 13.2291 163.654 13.2291L164.261 7.02062Z" fill="url(#paint8_linear)"/>
<path d="M159.694 13.2055L164.428 12.4007L169.049 13.0193C169.049 13.0193 166.948 13.3967 166.753 13.4304C166.558 13.4642 164.457 13.8416 164.457 13.8416L159.694 13.2055Z" fill="url(#paint9_linear)"/>
</g>
<g opacity="0.8">
<path d="M194.452 77.0573L194.912 78.2301L195.085 79.4405C195.085 79.4405 194.877 78.921 194.858 78.8727C194.839 78.8243 194.631 78.3049 194.631 78.3049L194.452 77.0573Z" fill="white"/>
<path d="M194.452 77.0573L194.912 78.2301L195.085 79.4405C195.085 79.4405 194.877 78.921 194.858 78.8727C194.839 78.8243 194.631 78.3049 194.631 78.3049L194.452 77.0573Z" fill="url(#paint10_linear)" fill-opacity="0.8"/>
<path d="M193.853 78.4901L194.744 78.1051L195.68 78.0049C195.68 78.0049 195.286 78.1797 195.249 78.1957C195.213 78.2117 194.818 78.3865 194.818 78.3865L193.853 78.4901Z" fill="white"/>
<path d="M193.853 78.4901L194.744 78.1051L195.68 78.0049C195.68 78.0049 195.286 78.1797 195.249 78.1957C195.213 78.2117 194.818 78.3865 194.818 78.3865L193.853 78.4901Z" fill="url(#paint11_linear)" fill-opacity="0.8"/>
</g>
<ellipse cx="218.232" cy="72.3543" rx="29.5221" ry="29.5221" transform="rotate(131.667 218.232 72.3543)" fill="white"/>
<ellipse cx="218.232" cy="72.3543" rx="29.5221" ry="29.5221" transform="rotate(131.667 218.232 72.3543)" fill="url(#paint12_linear)" fill-opacity="0.8"/>
<path d="M183.977 87.9579C181.753 84.9674 184.533 79.5527 186.803 77.3951C180.076 82.4712 182.187 87.9653 183.563 89.5608C191.488 98.7522 222.924 92.3052 238.455 86.0053C193.278 100.147 185.784 90.3889 183.977 87.9579Z" fill="white"/>
<path d="M183.977 87.9579C181.753 84.9674 184.533 79.5527 186.803 77.3951C180.076 82.4712 182.187 87.9653 183.563 89.5608C191.488 98.7522 222.924 92.3052 238.455 86.0053C193.278 100.147 185.784 90.3889 183.977 87.9579Z" fill="url(#paint13_linear)" fill-opacity="0.8"/>
<path d="M254.324 60.2516C254.123 58.4608 250.489 58.6606 248.615 58.9905C253.14 58.7809 253.693 59.7575 253.826 60.3609C254.415 63.0465 247.365 70.6889 242.827 74.3683C252.014 67.1759 254.582 62.5438 254.324 60.2516Z" fill="white"/>
<path d="M254.324 60.2516C254.123 58.4608 250.489 58.6606 248.615 58.9905C253.14 58.7809 253.693 59.7575 253.826 60.3609C254.415 63.0465 247.365 70.6889 242.827 74.3683C252.014 67.1759 254.582 62.5438 254.324 60.2516Z" fill="url(#paint14_linear)" fill-opacity="0.8"/>
<path d="M165.986 37.7188L166.358 40.9639L165.986 44.1121C165.986 44.1121 165.811 42.6719 165.795 42.538C165.779 42.4041 165.604 40.9639 165.604 40.9639L165.986 37.7188Z" fill="white"/>
<path d="M165.986 37.7188L166.358 40.9639L165.986 44.1121C165.986 44.1121 165.811 42.6719 165.795 42.538C165.779 42.4041 165.604 40.9639 165.604 40.9639L165.986 37.7188Z" fill="url(#paint15_linear)" fill-opacity="0.8"/>
<path d="M163.53 40.9102L166.018 40.5381L168.431 40.9102C168.431 40.9102 167.327 41.0859 167.225 41.1016C167.122 41.1172 166.018 41.293 166.018 41.293L163.53 40.9102Z" fill="white"/>
<path d="M163.53 40.9102L166.018 40.5381L168.431 40.9102C168.431 40.9102 167.327 41.0859 167.225 41.1016C167.122 41.1172 166.018 41.293 166.018 41.293L163.53 40.9102Z" fill="url(#paint16_linear)" fill-opacity="0.8"/>
<path d="M108.766 89.4961C55.8489 95.6561 27.7074 111.102 1.18555 124.155V128.069C31.7477 109.582 76.533 94.4694 109.452 93.0464C113.522 92.7333 112.552 89.0552 108.766 89.4961Z" fill="white"/>
<path d="M108.766 89.4961C55.8489 95.6561 27.7074 111.102 1.18555 124.155V128.069C31.7477 109.582 76.533 94.4694 109.452 93.0464C113.522 92.7333 112.552 89.0552 108.766 89.4961Z" fill="url(#paint17_linear)" fill-opacity="0.85"/>
<g opacity="0.8">
<path d="M110.652 75.6059L112.782 91.4016L111.272 106.796C111.272 106.796 110.275 99.7875 110.186 99.1356C110.097 98.4838 109.099 91.4749 109.099 91.4749L110.652 75.6059Z" fill="url(#paint18_linear)"/>
<path d="M98.9787 91.4132L111.08 89.3562L122.891 90.9374C122.891 90.9374 117.521 91.9019 117.022 91.9882C116.523 92.0745 111.153 93.039 111.153 93.039L98.9787 91.4132Z" fill="url(#paint19_linear)"/>
</g>
<defs>
<linearGradient id="paint0_linear" x1="61.4804" y1="105.203" x2="61.6991" y2="116.192" gradientUnits="userSpaceOnUse">
<stop stop-color="white" stop-opacity="0"/>
<stop offset="0.520833" stop-color="white"/>
<stop offset="1" stop-color="white" stop-opacity="0"/>
</linearGradient>
<linearGradient id="paint1_linear" x1="57.8928" y1="110.32" x2="66.3178" y2="110.152" gradientUnits="userSpaceOnUse">
<stop stop-color="white" stop-opacity="0"/>
<stop offset="0.520833" stop-color="white"/>
<stop offset="1" stop-color="white" stop-opacity="0"/>
</linearGradient>
<linearGradient id="paint2_linear" x1="34.6079" y1="8.99479" x2="34.8265" y2="19.9843" gradientUnits="userSpaceOnUse">
<stop stop-color="white" stop-opacity="0"/>
<stop offset="0.520833" stop-color="white"/>
<stop offset="1" stop-color="white" stop-opacity="0"/>
</linearGradient>
<linearGradient id="paint3_linear" x1="31.0202" y1="14.1123" x2="39.4453" y2="13.9447" gradientUnits="userSpaceOnUse">
<stop stop-color="white" stop-opacity="0"/>
<stop offset="0.520833" stop-color="white"/>
<stop offset="1" stop-color="white" stop-opacity="0"/>
</linearGradient>
<linearGradient id="paint4_linear" x1="253.693" y1="87.7187" x2="253.912" y2="98.7082" gradientUnits="userSpaceOnUse">
<stop stop-color="white" stop-opacity="0"/>
<stop offset="0.520833" stop-color="white"/>
<stop offset="1" stop-color="white" stop-opacity="0"/>
</linearGradient>
<linearGradient id="paint5_linear" x1="250.105" y1="92.8357" x2="258.53" y2="92.6681" gradientUnits="userSpaceOnUse">
<stop stop-color="white" stop-opacity="0"/>
<stop offset="0.520833" stop-color="white"/>
<stop offset="1" stop-color="white" stop-opacity="0"/>
</linearGradient>
<linearGradient id="paint6_linear" x1="123.002" y1="116.653" x2="123.221" y2="127.643" gradientUnits="userSpaceOnUse">
<stop stop-color="white" stop-opacity="0"/>
<stop offset="0.520833" stop-color="white"/>
<stop offset="1" stop-color="white" stop-opacity="0"/>
</linearGradient>
<linearGradient id="paint7_linear" x1="119.414" y1="121.77" x2="127.839" y2="121.603" gradientUnits="userSpaceOnUse">
<stop stop-color="white" stop-opacity="0"/>
<stop offset="0.520833" stop-color="white"/>
<stop offset="1" stop-color="white" stop-opacity="0"/>
</linearGradient>
<linearGradient id="paint8_linear" x1="164.172" y1="8.1818" x2="164.391" y2="19.1713" gradientUnits="userSpaceOnUse">
<stop stop-color="white" stop-opacity="0"/>
<stop offset="0.520833" stop-color="white"/>
<stop offset="1" stop-color="white" stop-opacity="0"/>
</linearGradient>
<linearGradient id="paint9_linear" x1="160.585" y1="13.2993" x2="169.01" y2="13.1317" gradientUnits="userSpaceOnUse">
<stop stop-color="white" stop-opacity="0"/>
<stop offset="0.520833" stop-color="white"/>
<stop offset="1" stop-color="white" stop-opacity="0"/>
</linearGradient>
<linearGradient id="paint10_linear" x1="194.531" y1="78.3121" x2="194.977" y2="78.2082" gradientUnits="userSpaceOnUse">
<stop offset="0.229199" stop-color="white" stop-opacity="0.54"/>
<stop offset="0.812198" stop-color="#2762FF"/>
</linearGradient>
<linearGradient id="paint11_linear" x1="194.83" y1="78.4854" x2="194.73" y2="78.0384" gradientUnits="userSpaceOnUse">
<stop offset="0.229199" stop-color="white" stop-opacity="0.54"/>
<stop offset="0.812198" stop-color="#2762FF"/>
</linearGradient>
<linearGradient id="paint12_linear" x1="168.735" y1="72.3543" x2="255.713" y2="95.1639" gradientUnits="userSpaceOnUse">
<stop offset="0.229199" stop-color="white" stop-opacity="0.54"/>
<stop offset="0.812198" stop-color="#FA9500"/>
</linearGradient>
<linearGradient id="paint13_linear" x1="164.591" y1="92.997" x2="230.672" y2="119.93" gradientUnits="userSpaceOnUse">
<stop offset="0.229199" stop-color="white" stop-opacity="0.54"/>
<stop offset="0.812198" stop-color="#2762FF"/>
</linearGradient>
<linearGradient id="paint14_linear" x1="236.637" y1="68.6722" x2="258.282" y2="69.7353" gradientUnits="userSpaceOnUse">
<stop offset="0.229199" stop-color="white" stop-opacity="0.54"/>
<stop offset="0.812198" stop-color="#2762FF"/>
</linearGradient>
<linearGradient id="paint15_linear" x1="165.348" y1="40.9154" x2="166.536" y2="40.9522" gradientUnits="userSpaceOnUse">
<stop offset="0.229199" stop-color="white" stop-opacity="0.54"/>
<stop offset="0.812198" stop-color="#2F2C2C"/>
</linearGradient>
<linearGradient id="paint16_linear" x1="165.981" y1="41.5484" x2="166.029" y2="40.3618" gradientUnits="userSpaceOnUse">
<stop offset="0.229199" stop-color="white" stop-opacity="0.54"/>
<stop offset="0.812198" stop-color="#2F2C2C"/>
</linearGradient>
<linearGradient id="paint17_linear" x1="41.7615" y1="71.6666" x2="41.8632" y2="128.596" gradientUnits="userSpaceOnUse">
<stop offset="0.0671355" stop-color="#6A6A6A" stop-opacity="0.54"/>
<stop offset="0.765625" stop-color="#030303"/>
</linearGradient>
<linearGradient id="paint18_linear" x1="110.426" y1="78.5739" x2="110.984" y2="106.663" gradientUnits="userSpaceOnUse">
<stop stop-color="white" stop-opacity="0"/>
<stop offset="0.520833" stop-color="white"/>
<stop offset="1" stop-color="white" stop-opacity="0"/>
</linearGradient>
<linearGradient id="paint19_linear" x1="101.255" y1="91.6531" x2="122.79" y2="91.2247" gradientUnits="userSpaceOnUse">
<stop stop-color="white" stop-opacity="0"/>
<stop offset="0.520833" stop-color="white"/>
<stop offset="1" stop-color="white" stop-opacity="0"/>
</linearGradient>
</defs>
</svg>
