<svg width="312" height="191" viewBox="0 0 312 191" fill="none" xmlns="http://www.w3.org/2000/svg">
<g clip-path="url(#clip0)">
<path d="M143.455 7.4425L144.289 13.6223L143.698 19.6453C143.698 19.6453 143.308 16.9031 143.273 16.6481C143.238 16.3931 142.848 13.651 142.848 13.651L143.455 7.4425Z" fill="url(#paint0_linear)"/>
<path d="M138.888 13.6273L143.623 12.8226L148.244 13.4412C148.244 13.4412 146.143 13.8186 145.947 13.8523C145.752 13.8861 143.651 14.2634 143.651 14.2634L138.888 13.6273Z" fill="url(#paint1_linear)"/>
<path d="M268.563 115.637L269.397 121.817L268.806 127.84C268.806 127.84 268.416 125.097 268.381 124.842C268.346 124.587 267.956 121.845 267.956 121.845L268.563 115.637Z" fill="url(#paint2_linear)"/>
<path d="M263.996 121.821L268.731 121.016L273.351 121.635C273.351 121.635 271.251 122.012 271.055 122.046C270.86 122.08 268.759 122.457 268.759 122.457L263.996 121.821Z" fill="url(#paint3_linear)"/>
<path d="M70.6181 108.639L72.1241 119.805L71.0568 130.688C71.0568 130.688 70.3519 125.733 70.2887 125.272C70.2256 124.811 69.5207 119.857 69.5207 119.857L70.6181 108.639Z" fill="url(#paint4_linear)"/>
<path d="M62.3665 119.813L70.921 118.359L79.2702 119.476C79.2702 119.476 75.4745 120.158 75.1215 120.219C74.7685 120.28 70.9728 120.962 70.9728 120.962L62.3665 119.813Z" fill="url(#paint5_linear)"/>
<path d="M176.226 144.095L178.799 163.171L176.976 181.763C176.976 181.763 175.772 173.298 175.664 172.511C175.556 171.724 174.352 163.259 174.352 163.259L176.226 144.095Z" fill="url(#paint6_linear)"/>
<path d="M162.13 163.185L176.745 160.701L191.008 162.61C191.008 162.61 184.524 163.775 183.921 163.879C183.318 163.983 176.833 165.148 176.833 165.148L162.13 163.185Z" fill="url(#paint7_linear)"/>
<path d="M283.365 68.7832L284.76 77.5528L284.123 86.1472C284.123 86.1472 283.475 82.2567 283.416 81.8948C283.358 81.5329 282.71 77.6423 282.71 77.6423L283.365 68.7832Z" fill="url(#paint8_linear)"/>
<path d="M277.072 77.7417L283.785 76.4361L290.384 77.1607C290.384 77.1607 287.406 77.7689 287.13 77.8236C286.853 77.8782 283.875 78.4864 283.875 78.4864L277.072 77.7417Z" fill="url(#paint9_linear)"/>
<path d="M277.325 32.595L278.174 37.9268L277.786 43.1521C277.786 43.1521 277.392 40.7867 277.357 40.5666C277.321 40.3466 276.927 37.9812 276.927 37.9812L277.325 32.595Z" fill="url(#paint10_linear)"/>
<path d="M273.5 38.0413L277.581 37.2475L281.593 37.6881C281.593 37.6881 279.783 38.0578 279.614 38.0911C279.446 38.1243 277.636 38.4941 277.636 38.4941L273.5 38.0413Z" fill="url(#paint11_linear)"/>
<path d="M186.147 140.585L186.995 145.917L186.607 151.142C186.607 151.142 186.213 148.776 186.178 148.556C186.142 148.336 185.748 145.971 185.748 145.971L186.147 140.585Z" fill="url(#paint12_linear)"/>
<path d="M220.9 5.19947L221.748 10.5313L221.361 15.7566C221.361 15.7566 220.967 13.3912 220.931 13.1711C220.896 12.9511 220.502 10.5857 220.502 10.5857L220.9 5.19947Z" fill="url(#paint13_linear)"/>
<path d="M217.074 10.6458L221.156 9.85201L225.168 10.2926C225.168 10.2926 223.358 10.6623 223.189 10.6956C223.021 10.7288 221.21 11.0985 221.21 11.0985L217.074 10.6458Z" fill="url(#paint14_linear)"/>
<path d="M302.247 99.2332L303.095 104.565L302.708 109.79C302.708 109.79 302.314 107.425 302.278 107.205C302.243 106.985 301.849 104.619 301.849 104.619L302.247 99.2332Z" fill="url(#paint15_linear)"/>
<path d="M298.421 104.679L302.503 103.886L306.515 104.326C306.515 104.326 304.704 104.696 304.536 104.729C304.367 104.762 302.557 105.132 302.557 105.132L298.421 104.679Z" fill="url(#paint16_linear)"/>
<path d="M247.48 156.668L248.328 162L247.94 167.225C247.94 167.225 247.546 164.859 247.511 164.639C247.475 164.419 247.082 162.054 247.082 162.054L247.48 156.668Z" fill="url(#paint17_linear)"/>
<path d="M243.654 162.114L247.735 161.32L251.748 161.761C251.748 161.761 249.937 162.131 249.769 162.164C249.6 162.197 247.79 162.567 247.79 162.567L243.654 162.114Z" fill="url(#paint18_linear)"/>
<path d="M148.077 143.105L152.158 142.311L156.17 142.752C156.17 142.752 154.36 143.122 154.192 143.155C154.023 143.188 152.213 143.558 152.213 143.558L148.077 143.105Z" fill="url(#paint19_linear)"/>
<path d="M257.247 5.99927L258.096 11.3311L257.708 16.5564C257.708 16.5564 257.314 14.191 257.279 13.9709C257.243 13.7509 256.849 11.3855 256.849 11.3855L257.247 5.99927Z" fill="url(#paint20_linear)"/>
<path d="M253.422 11.4456L257.503 10.6518L261.515 11.0924C261.515 11.0924 259.705 11.4621 259.536 11.4954C259.368 11.5286 257.557 11.8984 257.557 11.8984L253.422 11.4456Z" fill="url(#paint21_linear)"/>
<path d="M189.571 116.888L190.419 122.22L190.032 127.446C190.032 127.446 189.638 125.08 189.602 124.86C189.567 124.64 189.173 122.275 189.173 122.275L189.571 116.888Z" fill="url(#paint22_linear)"/>
<path d="M185.745 122.335L189.827 121.541L193.839 121.982C193.839 121.982 192.028 122.351 191.86 122.385C191.692 122.418 189.881 122.788 189.881 122.788L185.745 122.335Z" fill="url(#paint23_linear)"/>
<path d="M292.188 112.972L293.855 126.927L292.316 140.48C292.316 140.48 291.531 134.287 291.461 133.711C291.391 133.135 290.607 126.942 290.607 126.942L292.188 112.972Z" fill="url(#paint24_linear)"/>
<path d="M281.685 126.753L292.382 125.102L302.774 126.654C302.774 126.654 298.027 127.433 297.586 127.502C297.144 127.571 292.397 128.35 292.397 128.35L281.685 126.753Z" fill="url(#paint25_linear)"/>
<g filter="url(#filter0_f)">
<path d="M311.506 49.635C311.506 96.0685 325.486 141.004 236.916 171.586C204.355 178.814 178.302 185.606 157.909 191.76L-53.2251 191.974C-34.3163 185.495 -13.1545 178.656 10.5034 171.404C200.728 113.087 202.056 103.396 178.942 105.84C108.648 119.517 89.902 102.227 82.1359 87.4674C61.598 48.4347 124.696 11.4611 161.322 -0.110826L305.883 4.20022C305.883 4.20022 294.695 1.86515 308.011 4.19998C311.506 42.645 311.506 35.1278 311.506 49.635Z" fill="url(#paint26_radial)"/>
<path d="M311.506 49.635C311.506 96.0685 325.486 141.004 236.916 171.586C204.355 178.814 178.302 185.606 157.909 191.76L-53.2251 191.974C-34.3163 185.495 -13.1545 178.656 10.5034 171.404C200.728 113.087 202.056 103.396 178.942 105.84C108.648 119.517 89.902 102.227 82.1359 87.4674C61.598 48.4347 124.696 11.4611 161.322 -0.110826L305.883 4.20022C305.883 4.20022 294.695 1.86515 308.011 4.19998C311.506 42.645 311.506 35.1278 311.506 49.635Z" fill="url(#paint27_radial)"/>
</g>
<path opacity="0.8" d="M64.3159 191.391C111.731 174.972 160.648 159.595 189.279 148.787C254.752 124.072 347.518 62.1317 267.997 56.7649C182.26 50.9786 172.584 38.5593 269.534 -0.160563" stroke="url(#paint28_linear)" stroke-opacity="0.73"/>
<path opacity="0.8" d="M111.378 191.84C126.87 186.443 144.469 180.572 164.419 174.192C221.304 158.207 274.854 135.989 312.076 113.882M300.339 0.13193C248.995 23.5431 278.201 32.4276 305.229 33.9049C307.59 34.1129 309.872 34.3428 312.076 34.594" stroke="url(#paint29_linear)" stroke-opacity="0.73"/>
<path opacity="0.8" d="M6.89926 191.18C25.7516 184.358 46.4437 177.6 68.657 171.358C177.765 140.698 249.392 107.773 243.203 90.6498C239.202 81.3103 230.014 68.2375 147.664 70.0609C118.849 71.1357 103.513 48.024 210.083 6.64905C215.996 4.52053 222.364 2.23525 229.044 -0.15997" stroke="url(#paint30_linear)" stroke-opacity="0.73"/>
<circle cx="202.698" cy="70.7367" r="43.2338" fill="white"/>
<circle cx="202.698" cy="70.7367" r="43.2338" fill="url(#paint31_linear)" fill-opacity="0.8"/>
<path d="M225.025 39.5327L226.396 49.6971L225.425 59.6034C225.425 59.6034 224.783 55.0933 224.726 54.6738C224.668 54.2544 224.026 49.7442 224.026 49.7442L225.025 39.5327Z" fill="white"/>
<path d="M225.025 39.5327L226.396 49.6971L225.425 59.6034C225.425 59.6034 224.783 55.0933 224.726 54.6738C224.668 54.2544 224.026 49.7442 224.026 49.7442L225.025 39.5327Z" fill="url(#paint32_linear)" fill-opacity="0.8"/>
<path d="M217.514 49.7046L225.301 48.381L232.901 49.3985C232.901 49.3985 229.446 50.0191 229.124 50.0747C228.803 50.1302 225.348 50.7509 225.348 50.7509L217.514 49.7046Z" fill="white"/>
<path d="M217.514 49.7046L225.301 48.381L232.901 49.3985C232.901 49.3985 229.446 50.0191 229.124 50.0747C228.803 50.1302 225.348 50.7509 225.348 50.7509L217.514 49.7046Z" fill="url(#paint33_linear)" fill-opacity="0.8"/>
<path d="M208.96 37.9669L209.794 44.1467L209.203 50.1697C209.203 50.1697 208.813 47.4276 208.778 47.1725C208.743 46.9175 208.353 44.1754 208.353 44.1754L208.96 37.9669Z" fill="white"/>
<path d="M208.96 37.9669L209.794 44.1467L209.203 50.1697C209.203 50.1697 208.813 47.4276 208.778 47.1725C208.743 46.9175 208.353 44.1754 208.353 44.1754L208.96 37.9669Z" fill="url(#paint34_linear)" fill-opacity="0.8"/>
<path d="M204.393 44.1518L209.128 43.347L213.748 43.9656C213.748 43.9656 211.648 44.343 211.452 44.3767C211.257 44.4105 209.156 44.7878 209.156 44.7878L204.393 44.1518Z" fill="white"/>
<path d="M204.393 44.1518L209.128 43.347L213.748 43.9656C213.748 43.9656 211.648 44.343 211.452 44.3767C211.257 44.4105 209.156 44.7878 209.156 44.7878L204.393 44.1518Z" fill="url(#paint35_linear)" fill-opacity="0.8"/>
<path d="M155.269 95.1032C152.097 90.8357 156.063 83.1088 159.302 80.0298C149.703 87.2735 152.716 95.1137 154.679 97.3905C165.988 110.507 210.847 101.307 233.01 92.3168C168.542 112.497 157.849 98.5722 155.269 95.1032Z" fill="white"/>
<path d="M253.142 58.6362C252.855 56.0807 247.669 56.3659 244.996 56.8367C251.452 56.5375 252.242 57.9312 252.431 58.7923C253.272 62.6247 243.212 73.5304 236.735 78.7809C249.845 68.5173 253.51 61.9072 253.142 58.6362Z" fill="white"/>
</g>
<defs>
<filter id="filter0_f" x="-131.55" y="-82" width="521.953" height="374.644" filterUnits="userSpaceOnUse" color-interpolation-filters="sRGB">
<feFlood flood-opacity="0" result="BackgroundImageFix"/>
<feBlend mode="normal" in="SourceGraphic" in2="BackgroundImageFix" result="shape"/>
<feGaussianBlur stdDeviation="22" result="effect1_foregroundBlur"/>
</filter>
<linearGradient id="paint0_linear" x1="143.367" y1="8.60367" x2="143.585" y2="19.5932" gradientUnits="userSpaceOnUse">
<stop stop-color="white" stop-opacity="0"/>
<stop offset="0.520833" stop-color="white"/>
<stop offset="1" stop-color="white" stop-opacity="0"/>
</linearGradient>
<linearGradient id="paint1_linear" x1="139.779" y1="13.7212" x2="148.204" y2="13.5536" gradientUnits="userSpaceOnUse">
<stop stop-color="white" stop-opacity="0"/>
<stop offset="0.520833" stop-color="white"/>
<stop offset="1" stop-color="white" stop-opacity="0"/>
</linearGradient>
<linearGradient id="paint2_linear" x1="268.475" y1="116.798" x2="268.693" y2="127.788" gradientUnits="userSpaceOnUse">
<stop stop-color="white" stop-opacity="0"/>
<stop offset="0.520833" stop-color="white"/>
<stop offset="1" stop-color="white" stop-opacity="0"/>
</linearGradient>
<linearGradient id="paint3_linear" x1="264.887" y1="121.915" x2="273.312" y2="121.747" gradientUnits="userSpaceOnUse">
<stop stop-color="white" stop-opacity="0"/>
<stop offset="0.520833" stop-color="white"/>
<stop offset="1" stop-color="white" stop-opacity="0"/>
</linearGradient>
<linearGradient id="paint4_linear" x1="70.4582" y1="110.737" x2="70.8532" y2="130.594" gradientUnits="userSpaceOnUse">
<stop stop-color="white" stop-opacity="0"/>
<stop offset="0.520833" stop-color="white"/>
<stop offset="1" stop-color="white" stop-opacity="0"/>
</linearGradient>
<linearGradient id="paint5_linear" x1="63.9759" y1="119.982" x2="79.199" y2="119.68" gradientUnits="userSpaceOnUse">
<stop stop-color="white" stop-opacity="0"/>
<stop offset="0.520833" stop-color="white"/>
<stop offset="1" stop-color="white" stop-opacity="0"/>
</linearGradient>
<linearGradient id="paint6_linear" x1="175.953" y1="147.679" x2="176.628" y2="181.602" gradientUnits="userSpaceOnUse">
<stop stop-color="white" stop-opacity="0"/>
<stop offset="0.520833" stop-color="white"/>
<stop offset="1" stop-color="white" stop-opacity="0"/>
</linearGradient>
<linearGradient id="paint7_linear" x1="164.88" y1="163.475" x2="190.887" y2="162.957" gradientUnits="userSpaceOnUse">
<stop stop-color="white" stop-opacity="0"/>
<stop offset="0.520833" stop-color="white"/>
<stop offset="1" stop-color="white" stop-opacity="0"/>
</linearGradient>
<linearGradient id="paint8_linear" x1="283.278" y1="70.4393" x2="283.96" y2="86.0769" gradientUnits="userSpaceOnUse">
<stop stop-color="white" stop-opacity="0"/>
<stop offset="0.520833" stop-color="white"/>
<stop offset="1" stop-color="white" stop-opacity="0"/>
</linearGradient>
<linearGradient id="paint9_linear" x1="278.344" y1="77.8453" x2="290.332" y2="77.3221" gradientUnits="userSpaceOnUse">
<stop stop-color="white" stop-opacity="0"/>
<stop offset="0.520833" stop-color="white"/>
<stop offset="1" stop-color="white" stop-opacity="0"/>
</linearGradient>
<linearGradient id="paint10_linear" x1="277.273" y1="33.6018" x2="277.688" y2="43.1093" gradientUnits="userSpaceOnUse">
<stop stop-color="white" stop-opacity="0"/>
<stop offset="0.520833" stop-color="white"/>
<stop offset="1" stop-color="white" stop-opacity="0"/>
</linearGradient>
<linearGradient id="paint11_linear" x1="274.273" y1="38.1043" x2="281.562" y2="37.7862" gradientUnits="userSpaceOnUse">
<stop stop-color="white" stop-opacity="0"/>
<stop offset="0.520833" stop-color="white"/>
<stop offset="1" stop-color="white" stop-opacity="0"/>
</linearGradient>
<linearGradient id="paint12_linear" x1="186.094" y1="141.592" x2="186.509" y2="151.099" gradientUnits="userSpaceOnUse">
<stop stop-color="white" stop-opacity="0"/>
<stop offset="0.520833" stop-color="white"/>
<stop offset="1" stop-color="white" stop-opacity="0"/>
</linearGradient>
<linearGradient id="paint13_linear" x1="220.847" y1="6.20634" x2="221.262" y2="15.7138" gradientUnits="userSpaceOnUse">
<stop stop-color="white" stop-opacity="0"/>
<stop offset="0.520833" stop-color="white"/>
<stop offset="1" stop-color="white" stop-opacity="0"/>
</linearGradient>
<linearGradient id="paint14_linear" x1="217.847" y1="10.7088" x2="225.136" y2="10.3907" gradientUnits="userSpaceOnUse">
<stop stop-color="white" stop-opacity="0"/>
<stop offset="0.520833" stop-color="white"/>
<stop offset="1" stop-color="white" stop-opacity="0"/>
</linearGradient>
<linearGradient id="paint15_linear" x1="302.194" y1="100.24" x2="302.609" y2="109.748" gradientUnits="userSpaceOnUse">
<stop stop-color="white" stop-opacity="0"/>
<stop offset="0.520833" stop-color="white"/>
<stop offset="1" stop-color="white" stop-opacity="0"/>
</linearGradient>
<linearGradient id="paint16_linear" x1="299.194" y1="104.742" x2="306.483" y2="104.424" gradientUnits="userSpaceOnUse">
<stop stop-color="white" stop-opacity="0"/>
<stop offset="0.520833" stop-color="white"/>
<stop offset="1" stop-color="white" stop-opacity="0"/>
</linearGradient>
<linearGradient id="paint17_linear" x1="247.427" y1="157.675" x2="247.842" y2="167.182" gradientUnits="userSpaceOnUse">
<stop stop-color="white" stop-opacity="0"/>
<stop offset="0.520833" stop-color="white"/>
<stop offset="1" stop-color="white" stop-opacity="0"/>
</linearGradient>
<linearGradient id="paint18_linear" x1="244.427" y1="162.177" x2="251.716" y2="161.859" gradientUnits="userSpaceOnUse">
<stop stop-color="white" stop-opacity="0"/>
<stop offset="0.520833" stop-color="white"/>
<stop offset="1" stop-color="white" stop-opacity="0"/>
</linearGradient>
<linearGradient id="paint19_linear" x1="148.85" y1="143.168" x2="156.139" y2="142.85" gradientUnits="userSpaceOnUse">
<stop stop-color="white" stop-opacity="0"/>
<stop offset="0.520833" stop-color="white"/>
<stop offset="1" stop-color="white" stop-opacity="0"/>
</linearGradient>
<linearGradient id="paint20_linear" x1="257.195" y1="7.00615" x2="257.609" y2="16.5136" gradientUnits="userSpaceOnUse">
<stop stop-color="white" stop-opacity="0"/>
<stop offset="0.520833" stop-color="white"/>
<stop offset="1" stop-color="white" stop-opacity="0"/>
</linearGradient>
<linearGradient id="paint21_linear" x1="254.195" y1="11.5086" x2="261.483" y2="11.1905" gradientUnits="userSpaceOnUse">
<stop stop-color="white" stop-opacity="0"/>
<stop offset="0.520833" stop-color="white"/>
<stop offset="1" stop-color="white" stop-opacity="0"/>
</linearGradient>
<linearGradient id="paint22_linear" x1="189.518" y1="117.895" x2="189.933" y2="127.403" gradientUnits="userSpaceOnUse">
<stop stop-color="white" stop-opacity="0"/>
<stop offset="0.520833" stop-color="white"/>
<stop offset="1" stop-color="white" stop-opacity="0"/>
</linearGradient>
<linearGradient id="paint23_linear" x1="186.518" y1="122.398" x2="193.807" y2="122.08" gradientUnits="userSpaceOnUse">
<stop stop-color="white" stop-opacity="0"/>
<stop offset="0.520833" stop-color="white"/>
<stop offset="1" stop-color="white" stop-opacity="0"/>
</linearGradient>
<linearGradient id="paint24_linear" x1="291.949" y1="115.586" x2="292.064" y2="140.358" gradientUnits="userSpaceOnUse">
<stop stop-color="white" stop-opacity="0"/>
<stop offset="0.520833" stop-color="white"/>
<stop offset="1" stop-color="white" stop-opacity="0"/>
</linearGradient>
<linearGradient id="paint25_linear" x1="283.689" y1="126.995" x2="302.681" y2="126.906" gradientUnits="userSpaceOnUse">
<stop stop-color="white" stop-opacity="0"/>
<stop offset="0.520833" stop-color="white"/>
<stop offset="1" stop-color="white" stop-opacity="0"/>
</linearGradient>
<radialGradient id="paint26_radial" cx="0" cy="0" r="1" gradientUnits="userSpaceOnUse" gradientTransform="translate(-368.857 538.993) rotate(-32.3773) scale(612.817 277.567)">
<stop stop-color="#DFDFDF"/>
<stop offset="1" stop-opacity="0"/>
</radialGradient>
<radialGradient id="paint27_radial" cx="0" cy="0" r="1" gradientUnits="userSpaceOnUse" gradientTransform="translate(-11.222 321.524) rotate(-36.4215) scale(507.238 253.453)">
<stop stop-color="#CFCFCF"/>
<stop offset="0.0001" stop-color="#C5C5C5" stop-opacity="0.61"/>
<stop offset="1" stop-color="#4A4A4A" stop-opacity="0.11"/>
</radialGradient>
<linearGradient id="paint28_linear" x1="-318.278" y1="511.926" x2="375.378" y2="24.2637" gradientUnits="userSpaceOnUse">
<stop stop-color="#FFFCFC" stop-opacity="0.95"/>
<stop offset="1" stop-color="#1F1D1D"/>
</linearGradient>
<linearGradient id="paint29_linear" x1="-306.309" y1="559.404" x2="408.445" y2="81.4796" gradientUnits="userSpaceOnUse">
<stop stop-color="#FFFCFC" stop-opacity="0.95"/>
<stop offset="1" stop-color="#1C1C1C"/>
</linearGradient>
<linearGradient id="paint30_linear" x1="-334.543" y1="472.592" x2="332.787" y2="-30.9768" gradientUnits="userSpaceOnUse">
<stop stop-color="#FFFCFC" stop-opacity="0.95"/>
<stop offset="1" stop-color="#1F1D1D"/>
</linearGradient>
<linearGradient id="paint31_linear" x1="130.211" y1="70.7367" x2="257.586" y2="104.14" gradientUnits="userSpaceOnUse">
<stop offset="0.229199" stop-color="white" stop-opacity="0.54"/>
<stop offset="0.812198" stop-color="#FA9500"/>
</linearGradient>
<linearGradient id="paint32_linear" x1="223.222" y1="49.6079" x2="226.951" y2="49.6492" gradientUnits="userSpaceOnUse">
<stop offset="0.229199" stop-color="white" stop-opacity="0.54"/>
<stop offset="0.812198" stop-color="#DFDFDF"/>
</linearGradient>
<linearGradient id="paint33_linear" x1="225.247" y1="51.5549" x2="225.323" y2="47.8269" gradientUnits="userSpaceOnUse">
<stop offset="0.229199" stop-color="white" stop-opacity="0.54"/>
<stop offset="0.812198" stop-color="#DFDFDF"/>
</linearGradient>
<linearGradient id="paint34_linear" x1="207.863" y1="44.0925" x2="210.131" y2="44.1176" gradientUnits="userSpaceOnUse">
<stop offset="0.229199" stop-color="white" stop-opacity="0.54"/>
<stop offset="0.812198" stop-color="#E1E1E1"/>
</linearGradient>
<linearGradient id="paint35_linear" x1="209.095" y1="45.2767" x2="209.141" y2="43.0101" gradientUnits="userSpaceOnUse">
<stop offset="0.229199" stop-color="white" stop-opacity="0.54"/>
<stop offset="0.812198" stop-color="#E1E1E1"/>
</linearGradient>
<clipPath id="clip0">
<rect width="312" height="191" fill="white"/>
</clipPath>
</defs>
</svg>
