<svg width="502" height="421" viewBox="0 0 502 421" fill="none" xmlns="http://www.w3.org/2000/svg">
    <g clip-path="url(#clip0)">
        <circle cx="227.5" cy="244.5" r="176.5" fill="url(#paint0_radial)"/>
        <path d="M227.348 377.848C301.078 377.848 360.848 318.078 360.848 244.348C360.848 170.618 301.078 110.848 227.348 110.848C153.618 110.848 93.848 170.618 93.848 244.348C93.848 318.078 153.618 377.848 227.348 377.848Z" stroke="url(#paint1_radial)" stroke-miterlimit="10"/>
        <path d="M227.349 420.198C324.468 420.198 403.198 341.468 403.198 244.349C403.198 147.23 324.468 68.5 227.349 68.5C130.23 68.5 51.5 147.23 51.5 244.349C51.5 341.468 130.23 420.198 227.349 420.198Z" stroke="url(#paint2_linear)" stroke-miterlimit="10"/>
        <ellipse cx="228" cy="244" rx="50" ry="50" transform="rotate(-180 228 244)" fill="url(#paint3_radial)"/>
        <circle cx="117.821" cy="321.821" r="6.94718" transform="rotate(46.5649 117.821 321.821)" fill="url(#paint4_linear)"/>
        <circle cx="227.019" cy="111.019" r="8.00161" transform="rotate(162.701 227.019 111.019)" fill="url(#paint5_linear)"/>
        <rect x="275.312" y="354" width="2.375" height="28.5" fill="url(#paint6_linear)"/>
        <rect x="267" y="369.438" width="2.375" height="19" transform="rotate(-90 267 369.438)" fill="url(#paint7_linear)"/>
        <mask id="mask0" mask-type="alpha" maskUnits="userSpaceOnUse" x="195" y="213" width="64" height="52">
            <path fill-rule="evenodd" clip-rule="evenodd" d="M195 213H258.769V264.265H195V213Z" fill="white"/>
        </mask>
        <g mask="url(#mask0)">
            <path fill-rule="evenodd" clip-rule="evenodd" d="M202.467 262.361C200.572 258.313 199.513 253.796 199.513 249.033C199.513 231.62 213.659 217.504 231.108 217.504C240.824 217.504 249.515 221.881 255.311 228.767L258.769 225.871C252.145 218.002 242.212 213 231.108 213C211.166 213 195 229.133 195 249.033C195 254.477 196.21 259.639 198.375 264.265L202.467 262.361Z" fill="#F2F2F2"/>
        </g>
        <path fill-rule="evenodd" clip-rule="evenodd" d="M231.108 270.428C219.268 270.428 209.669 260.849 209.669 249.033C209.669 237.217 219.268 227.638 231.108 227.638C237.701 227.638 243.598 230.609 247.531 235.282L250.989 232.386C246.228 226.73 239.089 223.134 231.108 223.134C216.775 223.134 205.155 234.73 205.155 249.033C205.155 263.337 216.775 274.932 231.108 274.932V270.428Z" fill="#F2F2F2"/>
        <path fill-rule="evenodd" clip-rule="evenodd" d="M238.887 255.547C237.024 257.76 234.231 259.168 231.108 259.168C225.499 259.168 220.953 254.63 220.953 249.033C220.953 243.436 225.499 238.899 231.108 238.899C234.231 238.899 237.024 240.306 238.887 242.519L242.777 239.262C239.982 235.943 235.792 233.832 231.108 233.832C222.695 233.832 215.875 240.638 215.875 249.033C215.875 257.429 222.695 264.235 231.108 264.235C235.401 264.235 239.278 262.461 242.047 259.61L238.887 255.547Z" fill="#F2F2F2"/>
    </g>
    <ellipse cx="345.511" cy="113.511" rx="7.5" ry="7.5" transform="rotate(-129.126 345.511 113.511)" fill="url(#paint8_linear)"/>
    <path opacity="0.5" d="M43.368 260.347C43.4824 257.626 43.4688 249.339 37.6106 242.828C36.268 241.341 34.7222 240.05 33.0188 238.995" stroke="white" stroke-width="0.261512" stroke-miterlimit="10"/>
    <path opacity="0.5" d="M57.7096 260.011C57.492 257.058 57.3208 249.071 62.6396 242.242C63.8981 240.63 65.3683 239.195 67.0103 237.977" stroke="white" stroke-width="0.261512" stroke-miterlimit="10"/>
    <path opacity="0.5" d="M54.0776 259.792C53.0933 255.528 52.2934 248.87 54.6606 241.62C55.1015 240.27 55.6344 238.952 56.2558 237.675" stroke="white" stroke-width="0.261512" stroke-miterlimit="10"/>
    <path opacity="0.5" d="M47.4973 260.134C48.2602 255.775 48.6915 249.131 46.0635 242.009C45.5645 240.657 44.9752 239.34 44.2992 238.067" stroke="white" stroke-width="0.261512" stroke-miterlimit="10"/>
    <path opacity="0.5" d="M64.2363 259.526C64.1934 257.845 64.1501 249.433 70.5457 243.338C72.7312 241.274 75.3546 239.73 78.2202 238.822" stroke="white" stroke-width="0.261512" stroke-miterlimit="10"/>
    <path opacity="0.5" d="M38.5563 260.407C38.4304 258.312 37.7035 250.363 31.2751 244.588C29.1483 242.69 26.6628 241.237 23.9653 240.315" stroke="white" stroke-width="0.261512" stroke-miterlimit="10"/>
    <path d="M50.6691 255.686C44.3733 255.774 39.6075 255.553 37.0942 255.407C33.9495 255.227 31.2663 254.992 29.2108 254.785C30.9078 259.284 33.9366 263.159 37.8931 265.892C38.809 266.52 44.4176 270.166 51.7357 269.994C56.648 269.879 61.4013 268.23 65.3303 265.28C69.2592 262.329 72.1673 258.224 73.6473 253.538C73.3879 253.602 73.0546 253.682 72.6661 253.766C72.6661 253.766 71.7846 253.958 70.8582 254.111C62.3486 255.522 50.6691 255.686 50.6691 255.686Z" fill="url(#paint9_linear)"/>
    <path opacity="0.5" d="M31.3301 254.818C27.2156 251.531 22.3972 249.239 17.251 248.121C12.1048 247.003 6.76997 247.089 1.66248 248.372" stroke="white" stroke-width="0.261512" stroke-miterlimit="10"/>
    <path d="M51.9145 260.479C75.2671 259.942 94.0926 254.919 93.9625 249.261C93.8324 243.603 74.7958 239.451 51.4432 239.988C28.0906 240.525 9.26505 245.548 9.39519 251.206C9.52533 256.864 28.5619 261.016 51.9145 260.479Z" stroke="white" stroke-width="0.697549" stroke-miterlimit="10"/>
    <path d="M51.8065 255.84C68.5875 255.454 82.1355 252.726 82.067 249.746C81.9984 246.766 68.3393 244.663 51.5584 245.049C34.7774 245.435 21.2294 248.164 21.2979 251.144C21.3665 254.123 35.0256 256.226 51.8065 255.84Z" stroke="white" stroke-width="0.697549" stroke-miterlimit="10"/>
    <path opacity="0.5" d="M31.3299 254.795C24.4702 254.054 17.551 255.485 11.5485 258.888" stroke="white" stroke-width="0.261512" stroke-miterlimit="10"/>
    <path opacity="0.5" d="M72.4133 253.832C75.5819 253.144 78.8568 253.101 82.0422 253.707C85.2276 254.313 88.2582 255.555 90.9527 257.359" stroke="white" stroke-width="0.261512" stroke-miterlimit="10"/>
    <path opacity="0.48" d="M52.024 262.703C80.4393 262.05 103.346 255.939 103.188 249.054C103.029 242.168 79.8659 237.117 51.4505 237.77C23.0352 238.424 0.128373 244.535 0.286728 251.42C0.445084 258.305 23.6086 263.357 52.024 262.703Z" fill="url(#paint10_linear)"/>
    <path opacity="0.5" d="M72.4133 253.855C76.3693 250.378 81.0749 247.863 86.163 246.505C91.2512 245.147 96.5843 244.983 101.746 246.026" stroke="white" stroke-width="0.261512" stroke-miterlimit="10"/>
    <path opacity="0.1" d="M37.7961 255.633C34.5751 256.495 31.4602 257.714 28.5089 259.265C27.1564 259.977 25.9189 260.718 24.7933 261.458" stroke="white" stroke-width="0.261512" stroke-miterlimit="10"/>
    <path d="M76.6543 225.22H76.6891C76.7871 225.218 76.8847 225.213 76.9824 225.209C76.8722 225.213 76.7634 225.217 76.6543 225.22Z" fill="url(#paint11_linear)"/>
    <path opacity="0.1" d="M64.5724 255.121C67.8303 255.831 70.9989 256.902 74.0196 258.314C75.4042 258.962 76.6751 259.644 77.8338 260.33" stroke="white" stroke-width="0.261512" stroke-miterlimit="10"/>
    <path opacity="0.1" d="M43.1264 255.782C42.5954 257.28 42.1986 258.823 41.9408 260.391C41.8066 261.21 41.718 261.991 41.6619 262.724" stroke="white" stroke-width="0.261512" stroke-miterlimit="10"/>
    <path opacity="0.1" d="M57.7531 255.441C58.3534 256.912 58.8216 258.434 59.1523 259.989C59.3266 260.801 59.45 261.576 59.5393 262.306" stroke="white" stroke-width="0.261512" stroke-miterlimit="10"/>
    <path opacity="0.1" d="M53.4451 255.712C53.4746 256.587 53.5019 257.465 53.527 258.347C53.5688 259.834 53.6037 261.31 53.6316 262.775" stroke="white" stroke-width="0.261512" stroke-miterlimit="10"/>
    <path opacity="0.1" d="M48 255.782C48.0293 256.651 48.0564 257.524 48.0813 258.4C48.1231 259.877 48.158 261.345 48.1859 262.801" stroke="white" stroke-width="0.261512" stroke-miterlimit="10"/>
    <path opacity="0.1" d="M51.9968 261.556C77.9041 260.96 98.7891 255.388 98.6447 249.111C98.5003 242.834 77.3813 238.228 51.474 238.824C25.5667 239.419 4.68174 244.991 4.82612 251.269C4.9705 257.546 26.0896 262.152 51.9968 261.556Z" stroke="white" stroke-width="0.697549" stroke-miterlimit="10"/>
    <path d="M50.6087 223.006C46.8435 223.097 43.1548 224.088 39.8518 225.898C36.5488 227.708 33.7278 230.283 31.6253 233.408C29.5227 236.532 28.1999 240.116 27.7676 243.857C27.3354 247.599 27.8063 251.389 29.141 254.911C36.2563 255.682 43.4155 255.973 50.57 255.783C58.2717 255.633 65.9519 254.916 73.5481 253.637C74.4354 251.192 74.8279 248.594 74.7026 245.996C74.1566 235.956 65.1296 222.666 50.6087 223.006Z" fill="url(#paint12_linear)"/>
    <g clip-path="url(#clip1)">
        <path d="M388.125 266.722C396.179 268.632 405.646 269.587 413.312 264.867C418.89 261.435 423 257.643 423 242.462C423 227.28 408.4 224 401.688 224C389.177 224 384.596 233.134 374.562 236.912C364.529 240.69 361 244.897 361 249.838C361 259.692 377.358 264.162 388.125 266.722Z" fill="#0828BE"/>
        <path d="M374.632 252.177V259.442H372.819V252.177H369.857V250.544H377.593V252.177H374.632Z" fill="#EEEEEE"/>
        <path d="M380.084 250.101C380.292 250.308 380.389 250.558 380.389 250.834C380.389 251.125 380.292 251.374 380.084 251.568C379.877 251.762 379.628 251.858 379.323 251.858C379.019 251.858 378.756 251.762 378.562 251.568C378.368 251.374 378.258 251.125 378.258 250.834C378.258 250.558 378.354 250.308 378.562 250.101C378.77 249.893 379.019 249.783 379.323 249.783C379.628 249.783 379.877 249.893 380.084 250.101ZM378.451 259.442V252.813H380.209V259.442H378.451Z" fill="#EEEEEE"/>
        <path d="M387.378 253.395C387.862 253.907 388.111 254.585 388.111 255.401V259.442H386.354V255.775C386.354 255.304 386.229 254.931 385.994 254.64C385.745 254.363 385.426 254.211 385.011 254.211C383.918 254.211 383.364 254.972 383.364 256.495V259.429H381.607V252.8H383.364V253.395C383.89 252.869 384.596 252.592 385.454 252.592C386.257 252.62 386.893 252.869 387.378 253.395Z" fill="#EEEEEE"/>
        <path d="M389.467 259.442V249.879H391.225V259.442H389.467Z" fill="#EEEEEE"/>
        <path d="M399.432 259.442H397.674V258.93C397.079 259.415 396.346 259.65 395.488 259.65C394.616 259.65 393.855 259.318 393.204 258.654C392.554 257.989 392.235 257.159 392.235 256.149C392.235 255.138 392.567 254.294 393.218 253.63C393.868 252.966 394.63 252.633 395.501 252.633C396.373 252.633 397.107 252.883 397.688 253.367V252.841H399.446V259.442H399.432ZM397.107 257.56C397.494 257.187 397.674 256.716 397.674 256.135C397.674 255.554 397.48 255.069 397.107 254.696C396.733 254.322 396.29 254.142 395.792 254.142C395.252 254.142 394.809 254.322 394.463 254.682C394.117 255.042 393.938 255.526 393.938 256.135C393.938 256.744 394.117 257.214 394.463 257.574C394.809 257.934 395.252 258.114 395.792 258.114C396.29 258.114 396.719 257.934 397.107 257.56Z" fill="#EEEEEE"/>
        <path d="M405.466 259.442L402.864 256.854H402.559V259.442H400.802V249.879H402.559V255.125H402.878L405.258 252.813H407.458L404.262 255.983L407.804 259.442H405.466Z" fill="#EEEEEE"/>
        <path d="M414.143 256.605H409.091C409.174 257.076 409.382 257.45 409.686 257.726C409.991 258.003 410.351 258.141 410.752 258.141C411.499 258.141 412.053 257.851 412.399 257.27L413.963 257.602C413.686 258.28 413.257 258.778 412.703 259.124C412.15 259.47 411.499 259.636 410.752 259.636C409.797 259.636 408.995 259.304 408.33 258.654C407.68 258.003 407.348 257.159 407.348 256.135C407.348 255.111 407.68 254.266 408.344 253.602C409.008 252.938 409.811 252.606 410.78 252.606C411.679 252.606 412.454 252.924 413.105 253.561C413.755 254.197 414.101 255 414.129 255.996V256.605H414.143ZM409.77 254.46C409.451 254.668 409.244 254.972 409.147 255.36H412.344C412.233 254.958 412.039 254.64 411.762 254.446C411.486 254.239 411.153 254.142 410.78 254.142C410.42 254.142 410.074 254.253 409.77 254.46Z" fill="#EEEEEE"/>
    </g>
    <g clip-path="url(#clip2)">
        <circle cx="438.055" cy="64.055" r="64.055" fill="url(#paint13_radial)"/>
        <path d="M438 112.449C464.758 112.449 486.449 90.7577 486.449 63.9998C486.449 37.2419 464.758 15.5503 438 15.5503C411.242 15.5503 389.55 37.2419 389.55 63.9998C389.55 90.7577 411.242 112.449 438 112.449Z" stroke="url(#paint14_radial)" stroke-width="0.362918" stroke-miterlimit="10"/>
        <path d="M438 127.819C473.246 127.819 501.819 99.2462 501.819 64.0001C501.819 28.754 473.246 0.181396 438 0.181396C402.754 0.181396 374.182 28.754 374.182 64.0001C374.182 99.2462 402.754 127.819 438 127.819Z" stroke="url(#paint15_linear)" stroke-width="0.362918" stroke-miterlimit="10"/>
        <rect x="455.407" y="103.795" width="0.86193" height="10.3432" fill="url(#paint16_linear)"/>
        <rect x="452.39" y="109.397" width="0.861929" height="6.89544" transform="rotate(-90 452.39 109.397)" fill="url(#paint17_linear)"/>
    </g>
    <path d="M453.179 53.1037C452.992 53.5977 442.299 48.1207 435.634 52.8289C431.721 56.0596 430.318 61.3762 431.721 66.0492C432.48 68.573 432.848 69.6062 434.093 71.3847C435.006 72.6889 436.286 74.1117 438.065 75.1196C438.47 75.419 443.918 78.7008 450.534 77.9218C460.939 76.6981 469 63.0363 469 63.0363C469 63.0363 467.123 67.0764 466.95 67.4454C461.924 78.1405 453.575 80.991 453.575 80.991C446.153 83.5248 438.724 80.2812 437.904 79.8686C432.544 77.1719 430.231 74.6816 429.51 73.3287C428.336 71.1222 425.391 62.5013 428.213 56.0596C430.304 51.2861 434.844 49.288 435.379 49.0635C444.017 45.4395 453.348 52.6547 453.179 53.1037Z" fill="url(#paint18_linear)"/>
    <path d="M453.179 53.1035C452.827 53.4305 450.306 50.3885 446.257 48.1916C445.1 47.5636 440.684 45.3067 435.291 45.4225C426.35 45.6137 420.408 52.206 419.349 53.4278C414.053 59.5341 411.56 68.9367 414.538 76.2536C418.409 85.7617 431.792 92.4087 430.425 91.302L429.24 90.852C427.873 90.3101 411.098 82.8375 410.498 67.7034C410.159 59.1757 412.887 52.2695 414.538 50.3842C417.424 47.0902 419.738 45.5043 421.689 44.4569C425.609 42.3537 432.981 40.5514 438.452 41.3793C444.591 42.3086 448.444 46.616 450.323 48.7166C452.019 50.611 453.462 52.8393 453.179 53.1035Z" fill="url(#paint19_linear)"/>
    <path d="M435.379 49.0646C434.134 49.7453 433.024 50.6479 432.103 51.728C431.337 52.6355 429.97 54.5628 429.294 58.9126C428.715 62.6403 428.077 66.752 430.027 71.2066C433.193 78.4375 440.653 80.818 442.432 81.3855C446.98 82.7831 451.848 82.7384 456.37 81.2574C461.936 79.4559 465.828 75.7316 466.17 76.1672C466.382 76.4376 464.949 77.9457 463.954 78.8673C460.919 81.6232 457.201 83.5112 453.188 84.3338C450.36 84.8975 447.456 84.9678 444.604 84.5415C442.261 84.1973 435.292 83.1809 429.939 77.2375C428.44 75.5729 424.213 70.8796 424.543 64.2384C424.782 59.4545 427.265 56.0741 428.107 54.9582C430.038 52.4507 432.529 50.4321 435.379 49.0646Z" fill="url(#paint20_linear)"/>
    <path d="M453.179 53.1036C453.593 52.9185 452.654 47.7499 448.992 43.4437C447.515 41.7035 445.738 40.2447 443.744 39.1374C435.503 34.6503 425.926 38.4839 423.733 39.3626C421.486 40.2624 416.632 42.2811 412.607 47.3258C408.07 53.013 407.398 59.1143 407.14 61.785C406.036 73.1891 411.814 82.1852 412.359 82.01C412.776 81.8762 409.926 76.233 410.498 67.7035C410.716 64.4564 411.184 58.6129 415.283 52.9044C417.766 49.5377 421.017 46.8155 424.764 44.9653C426.932 43.8892 434.29 40.2368 442.06 42.9912C444.427 43.8476 446.606 45.1549 448.478 46.8409C451.86 49.9464 452.839 53.2554 453.179 53.1036Z" fill="url(#paint21_linear)"/>
    <path d="M439.295 84.4983C439.101 84.831 428.029 81.8532 422.979 72.3561C422.219 70.9275 418.242 63.3876 420.545 57.4587C421.508 54.9788 423.404 52.2026 424.169 51.3403C425.406 49.9475 428.119 49.6233 430.783 48.4887C431.981 47.9909 433.322 47.879 434.606 47.7074C435.88 47.5499 437.009 47.5837 438.286 47.7074C440.021 47.8221 447.165 50.015 444.764 49.6359C442.511 49.2802 437.452 48.0458 434.606 49.6359C434.346 49.7812 434.053 49.9663 433.895 50.0661C431.597 51.5111 429.599 53.3882 428.012 55.5938C427.46 56.3777 425.108 59.809 424.922 64.2407C424.691 69.7856 427.724 73.8311 429.514 76.2192C434.033 82.2432 439.436 84.2601 439.295 84.4983Z" fill="url(#paint22_linear)"/>
    <path d="M433.915 45.1812C436.247 44.8435 438.243 44.7271 440.555 45.1812C443.208 45.7166 444.676 46.2684 446.483 47.1969C449.57 48.7827 453.476 52.8491 453.179 53.4594C452.649 54.5473 439.948 45.0717 429.834 49.4154C424.387 51.7546 420.689 58.6632 420.173 59.7075C418.93 62.0106 418.856 63.9348 418.743 66.5507C418.658 69.6566 419.528 72.1123 420.322 74.3517C421.45 77.539 423.268 80.9387 423.228 80.9574C423.226 80.9574 423.22 80.949 423.218 80.9467C417.297 72.2799 416.665 68.1923 416.665 68.1923C416.398 66.4661 415.258 59.091 420.173 52.8651C424.654 47.1894 432.177 45.4355 433.915 45.1812Z" fill="url(#paint23_linear)"/>
    <defs>
        <radialGradient id="paint0_radial" cx="0" cy="0" r="1" gradientUnits="userSpaceOnUse" gradientTransform="translate(227.5 244.5) rotate(-36.1533) scale(183.914)">
            <stop offset="0.182292" stop-color="#FAB961"/>
            <stop offset="0.444663"/>
        </radialGradient>
        <radialGradient id="paint1_radial" cx="0" cy="0" r="1" gradientUnits="userSpaceOnUse" gradientTransform="translate(94 244.348) rotate(-0.0687593) scale(290)">
            <stop stop-color="white"/>
            <stop offset="1" stop-color="#F2F2F2" stop-opacity="0"/>
        </radialGradient>
        <linearGradient id="paint2_linear" x1="52" y1="68.5" x2="523" y2="68.5" gradientUnits="userSpaceOnUse">
            <stop stop-color="white"/>
            <stop offset="1" stop-color="#F2F2F2" stop-opacity="0.1"/>
        </linearGradient>
        <radialGradient id="paint3_radial" cx="0" cy="0" r="1" gradientUnits="userSpaceOnUse" gradientTransform="translate(186 244) rotate(-9.09072) scale(64.8644)">
            <stop stop-color="#797979"/>
            <stop offset="0.904256"/>
        </radialGradient>
        <linearGradient id="paint4_linear" x1="117.821" y1="314.874" x2="117.821" y2="328.768" gradientUnits="userSpaceOnUse">
            <stop stop-color="#FAB961"/>
            <stop offset="1"/>
        </linearGradient>
        <linearGradient id="paint5_linear" x1="227.019" y1="103.017" x2="227.019" y2="119.021" gradientUnits="userSpaceOnUse">
            <stop stop-color="#1436D4"/>
            <stop offset="1"/>
        </linearGradient>
        <linearGradient id="paint6_linear" x1="276.5" y1="354" x2="276.5" y2="382.5" gradientUnits="userSpaceOnUse">
            <stop stop-color="white" stop-opacity="0"/>
            <stop offset="0.520833" stop-color="white"/>
            <stop offset="1" stop-color="white" stop-opacity="0"/>
        </linearGradient>
        <linearGradient id="paint7_linear" x1="268.187" y1="369.438" x2="268.187" y2="388.438" gradientUnits="userSpaceOnUse">
            <stop stop-color="white" stop-opacity="0"/>
            <stop offset="0.520833" stop-color="white"/>
            <stop offset="1" stop-color="white" stop-opacity="0"/>
        </linearGradient>
        <linearGradient id="paint8_linear" x1="345.511" y1="106.011" x2="345.313" y2="117.908" gradientUnits="userSpaceOnUse">
            <stop stop-color="#F2F2F2"/>
            <stop offset="1"/>
        </linearGradient>
        <linearGradient id="paint9_linear" x1="69.2751" y1="261.633" x2="46.0631" y2="239.753" gradientUnits="userSpaceOnUse">
            <stop offset="0.0355779" stop-color="#1436D4"/>
            <stop offset="0.759667"/>
        </linearGradient>
        <linearGradient id="paint10_linear" x1="8.80374e-07" y1="250.197" x2="86.4194" y2="250.197" gradientUnits="userSpaceOnUse">
            <stop stop-color="#F2F2F2" stop-opacity="0.5"/>
            <stop offset="1" stop-opacity="0.8"/>
        </linearGradient>
        <linearGradient id="paint11_linear" x1="36.8134" y1="427.149" x2="36.8133" y2="427.015" gradientUnits="userSpaceOnUse">
            <stop offset="0.002" stop-color="#1436D4"/>
            <stop offset="0.717"/>
        </linearGradient>
        <linearGradient id="paint12_linear" x1="40.719" y1="247.431" x2="72.6465" y2="255.59" gradientUnits="userSpaceOnUse">
            <stop/>
            <stop offset="1" stop-color="#2762FF"/>
        </linearGradient>
        <radialGradient id="paint13_radial" cx="0" cy="0" r="1" gradientUnits="userSpaceOnUse" gradientTransform="translate(438.055 64.055) rotate(-36.1533) scale(66.7458)">
            <stop offset="0.895833"/>
            <stop offset="1" stop-color="#F2F2F2"/>
        </radialGradient>
        <radialGradient id="paint14_radial" cx="0" cy="0" r="1" gradientUnits="userSpaceOnUse" gradientTransform="translate(389.605 63.9998) rotate(-0.0687593) scale(105.246)">
            <stop stop-color="white"/>
            <stop offset="1" stop-color="#F2F2F2" stop-opacity="0"/>
        </radialGradient>
        <linearGradient id="paint15_linear" x1="374.363" y1="0.181396" x2="545.297" y2="0.181396" gradientUnits="userSpaceOnUse">
            <stop stop-color="white"/>
            <stop offset="1" stop-color="#F2F2F2" stop-opacity="0.1"/>
        </linearGradient>
        <linearGradient id="paint16_linear" x1="455.838" y1="103.795" x2="455.838" y2="114.138" gradientUnits="userSpaceOnUse">
            <stop stop-color="white" stop-opacity="0"/>
            <stop offset="0.520833" stop-color="white"/>
            <stop offset="1" stop-color="white" stop-opacity="0"/>
        </linearGradient>
        <linearGradient id="paint17_linear" x1="452.821" y1="109.397" x2="452.821" y2="116.293" gradientUnits="userSpaceOnUse">
            <stop stop-color="white" stop-opacity="0"/>
            <stop offset="0.520833" stop-color="white"/>
            <stop offset="1" stop-color="white" stop-opacity="0"/>
        </linearGradient>
        <linearGradient id="paint18_linear" x1="448.013" y1="48.049" x2="448.013" y2="81.9497" gradientUnits="userSpaceOnUse">
            <stop stop-color="#FAB961"/>
            <stop offset="1"/>
        </linearGradient>
        <linearGradient id="paint19_linear" x1="431.842" y1="41.1737" x2="431.842" y2="91.4224" gradientUnits="userSpaceOnUse">
            <stop stop-color="#FAB961"/>
            <stop offset="1"/>
        </linearGradient>
        <linearGradient id="paint20_linear" x1="445.358" y1="49.0646" x2="445.358" y2="84.8162" gradientUnits="userSpaceOnUse">
            <stop stop-color="#FAB961"/>
            <stop offset="1"/>
        </linearGradient>
        <linearGradient id="paint21_linear" x1="430.135" y1="37" x2="430.135" y2="82.0125" gradientUnits="userSpaceOnUse">
            <stop/>
            <stop offset="0.414296" stop-color="#FAB961"/>
        </linearGradient>
        <linearGradient id="paint22_linear" x1="430.674" y1="47.9188" x2="430.674" y2="84.523" gradientUnits="userSpaceOnUse">
            <stop/>
            <stop offset="1" stop-color="#FAB961"/>
        </linearGradient>
        <linearGradient id="paint23_linear" x1="434.777" y1="45.764" x2="434.777" y2="80.9574" gradientUnits="userSpaceOnUse">
            <stop/>
            <stop offset="1" stop-color="#FAB961"/>
        </linearGradient>
        <clipPath id="clip0">
            <rect width="352.697" height="352.697" fill="white" transform="translate(51 68)"/>
        </clipPath>
        <clipPath id="clip1">
            <rect width="62" height="44.2857" fill="white" transform="translate(361 224)"/>
        </clipPath>
        <clipPath id="clip2">
            <rect width="128" height="128" fill="white" transform="translate(374)"/>
        </clipPath>
    </defs>
</svg>
