<svg width="271" height="199" viewBox="0 0 271 199" fill="none" xmlns="http://www.w3.org/2000/svg">
<rect x="1.06348" y="1.25684" width="269" height="196.642" rx="8" stroke="#BBBBBB"/>
<g opacity="0.8">
<path d="M210.235 20.5279L211.069 26.7078L210.478 32.7307C210.478 32.7307 210.088 29.9886 210.053 29.7336C210.018 29.4785 209.628 26.7364 209.628 26.7364L210.235 20.5279Z" fill="url(#paint0_linear)"/>
<path d="M205.669 26.7128L210.403 25.908L215.024 26.5267C215.024 26.5267 212.924 26.904 212.728 26.9378C212.533 26.9715 210.432 27.3489 210.432 27.3489L205.669 26.7128Z" fill="url(#paint1_linear)"/>
</g>
<path d="M247.875 52.318L248.709 58.4978L248.118 64.5208C248.118 64.5208 247.728 61.7786 247.693 61.5236C247.658 61.2686 247.268 58.5265 247.268 58.5265L247.875 52.318Z" fill="url(#paint2_linear)"/>
<path d="M243.309 58.5028L248.043 57.6981L252.664 58.3167C252.664 58.3167 250.563 58.694 250.368 58.7278C250.172 58.7616 248.072 59.1389 248.072 59.1389L243.309 58.5028Z" fill="url(#paint3_linear)"/>
<g opacity="0.8">
<path d="M89.9708 120.876L90.8043 127.055L90.2136 133.078C90.2136 133.078 89.8235 130.336 89.7885 130.081C89.7536 129.826 89.3635 127.084 89.3635 127.084L89.9708 120.876Z" fill="url(#paint4_linear)"/>
<path d="M85.4044 127.06L90.1388 126.255L94.7596 126.874C94.7596 126.874 92.6589 127.251 92.4636 127.285C92.2682 127.319 90.1675 127.696 90.1675 127.696L85.4044 127.06Z" fill="url(#paint5_linear)"/>
</g>
<g opacity="0.8">
<path d="M57.7804 119.876L58.6139 126.056L58.0232 132.079C58.0232 132.079 57.6331 129.337 57.5981 129.082C57.5632 128.827 57.173 126.085 57.173 126.085L57.7804 119.876Z" fill="url(#paint6_linear)"/>
<path d="M53.214 126.06L57.9484 125.256L62.5692 125.874C62.5692 125.874 60.4685 126.252 60.2731 126.285C60.0778 126.319 57.9771 126.697 57.9771 126.697L53.214 126.06Z" fill="url(#paint7_linear)"/>
</g>
<g opacity="0.8">
<path d="M67.0284 111.045L67.8619 117.225L67.2712 123.248C67.2712 123.248 66.8811 120.506 66.8462 120.251C66.8112 119.996 66.4211 117.254 66.4211 117.254L67.0284 111.045Z" fill="url(#paint8_linear)"/>
<path d="M62.462 117.229L67.1965 116.425L71.8172 117.043C71.8172 117.043 69.7165 117.421 69.5212 117.454C69.3258 117.488 67.2251 117.865 67.2251 117.865L62.462 117.229Z" fill="url(#paint9_linear)"/>
</g>
<g opacity="0.8">
<path d="M38.0655 110.966L38.899 117.146L38.3083 123.169C38.3083 123.169 37.9182 120.427 37.8833 120.172C37.8483 119.917 37.4582 117.175 37.4582 117.175L38.0655 110.966Z" fill="url(#paint10_linear)"/>
<path d="M33.4991 117.151L38.2336 116.346L42.8543 116.965C42.8543 116.965 40.7537 117.342 40.5583 117.376C40.3629 117.41 38.2622 117.787 38.2622 117.787L33.4991 117.151Z" fill="url(#paint11_linear)"/>
</g>
<path d="M256.423 46.8024L257.256 52.9822L256.666 59.0051C256.666 59.0051 256.276 56.263 256.241 56.008C256.206 55.753 255.816 53.0108 255.816 53.0108L256.423 46.8024Z" fill="url(#paint12_linear)"/>
<path d="M251.857 52.9872L256.591 52.1824L261.212 52.8011C261.212 52.8011 259.111 53.1784 258.916 53.2122C258.72 53.2459 256.62 53.6233 256.62 53.6233L251.857 52.9872Z" fill="url(#paint13_linear)"/>
<path d="M219.273 119.872L219.878 124.356L219.449 128.725C219.449 128.725 219.166 126.736 219.141 126.551C219.116 126.366 218.833 124.376 218.833 124.376L219.273 119.872Z" fill="url(#paint14_linear)"/>
<path d="M215.96 124.359L219.395 123.775L222.747 124.224C222.747 124.224 221.223 124.498 221.082 124.522C220.94 124.547 219.416 124.821 219.416 124.821L215.96 124.359Z" fill="url(#paint15_linear)"/>
<path d="M206.954 110.095L207.559 114.579L207.13 118.948C207.13 118.948 206.847 116.959 206.822 116.774C206.796 116.589 206.513 114.6 206.513 114.6L206.954 110.095Z" fill="url(#paint16_linear)"/>
<path d="M203.641 114.582L207.076 113.998L210.428 114.447C210.428 114.447 208.904 114.721 208.762 114.746C208.62 114.77 207.096 115.044 207.096 115.044L203.641 114.582Z" fill="url(#paint17_linear)"/>
<path d="M196.6 118.788L197.433 124.968L196.843 130.99C196.843 130.99 196.452 128.248 196.417 127.993C196.382 127.738 195.992 124.996 195.992 124.996L196.6 118.788Z" fill="url(#paint18_linear)"/>
<path d="M192.033 124.972L196.768 124.167L201.389 124.786C201.389 124.786 199.288 125.163 199.092 125.197C198.897 125.231 196.796 125.608 196.796 125.608L192.033 124.972Z" fill="url(#paint19_linear)"/>
<path d="M231.189 8.61181L235.782 42.66L232.527 75.844C232.527 75.844 230.378 60.736 230.185 59.3309C229.992 57.9259 227.843 42.8179 227.843 42.8179L231.189 8.61181Z" fill="#2762FF"/>
<path d="M231.189 8.61181L235.782 42.66L232.527 75.844C232.527 75.844 230.378 60.736 230.185 59.3309C229.992 57.9259 227.843 42.8179 227.843 42.8179L231.189 8.61181Z" fill="url(#paint20_linear)"/>
<path d="M206.028 42.6843L232.113 38.2505L257.572 41.6588C257.572 41.6588 245.998 43.7379 244.921 43.9239C243.845 44.1099 232.271 46.1889 232.271 46.1889L206.028 42.6843Z" fill="#2762FF"/>
<path d="M206.028 42.6843L232.113 38.2505L257.572 41.6588C257.572 41.6588 245.998 43.7379 244.921 43.9239C243.845 44.1099 232.271 46.1889 232.271 46.1889L206.028 42.6843Z" fill="url(#paint21_linear)"/>
<path d="M196.709 37.3295L199.553 54.8415L198.333 72.0164C198.333 72.0164 197.014 64.2475 196.895 63.5249C196.776 62.8022 195.457 55.0333 195.457 55.0333L196.709 37.3295Z" fill="#2762FF"/>
<path d="M196.709 37.3295L199.553 54.8415L198.333 72.0164C198.333 72.0164 197.014 64.2475 196.895 63.5249C196.776 62.8022 195.457 55.0333 195.457 55.0333L196.709 37.3295Z" fill="url(#paint22_linear)"/>
<path d="M184.195 55.2676L197.598 52.6166L210.787 54.0225C210.787 54.0225 204.842 55.2564 204.289 55.3674C203.736 55.4784 197.79 56.7123 197.79 56.7123L184.195 55.2676Z" fill="#2762FF"/>
<path d="M184.195 55.2676L197.598 52.6166L210.787 54.0225C210.787 54.0225 204.842 55.2564 204.289 55.3674C203.736 55.4784 197.79 56.7123 197.79 56.7123L184.195 55.2676Z" fill="url(#paint23_linear)"/>
<path d="M237.681 106.656L238.951 116.071L238.051 125.248C238.051 125.248 237.457 121.07 237.404 120.682C237.351 120.293 236.756 116.115 236.756 116.115L237.681 106.656Z" fill="url(#paint24_linear)"/>
<path d="M230.724 116.079L237.937 114.853L244.978 115.795C244.978 115.795 241.777 116.37 241.479 116.422C241.182 116.473 237.981 117.048 237.981 117.048L230.724 116.079Z" fill="url(#paint25_linear)"/>
<g opacity="0.8">
<path d="M221.405 96.5948L222.239 102.775L221.648 108.798C221.648 108.798 221.258 106.055 221.223 105.8C221.188 105.545 220.798 102.803 220.798 102.803L221.405 96.5948Z" fill="url(#paint26_linear)"/>
<path d="M216.839 102.779L221.573 101.974L226.194 102.593C226.194 102.593 224.094 102.97 223.898 103.004C223.703 103.038 221.602 103.415 221.602 103.415L216.839 102.779Z" fill="url(#paint27_linear)"/>
</g>
<g opacity="0.8">
<path d="M245.894 74.3805L246.727 80.5603L246.136 86.5833C246.136 86.5833 245.746 83.8411 245.711 83.5861C245.676 83.3311 245.286 80.589 245.286 80.589L245.894 74.3805Z" fill="url(#paint28_linear)"/>
<path d="M241.327 80.5648L246.062 79.7601L250.682 80.3787C250.682 80.3787 248.582 80.7561 248.386 80.7898C248.191 80.8236 246.09 81.2009 246.09 81.2009L241.327 80.5648Z" fill="url(#paint29_linear)"/>
</g>
<g opacity="0.8">
<path d="M231.9 89.3722L232.734 95.552L232.143 101.575C232.143 101.575 231.753 98.8328 231.718 98.5778C231.683 98.3228 231.293 95.5807 231.293 95.5807L231.9 89.3722Z" fill="url(#paint30_linear)"/>
<path d="M227.334 95.5565L232.069 94.7518L236.689 95.3704C236.689 95.3704 234.589 95.7478 234.393 95.7815C234.198 95.8153 232.097 96.1926 232.097 96.1926L227.334 95.5565Z" fill="url(#paint31_linear)"/>
</g>
<g opacity="0.8">
<path d="M249.798 89.3722L250.631 95.552L250.041 101.575C250.041 101.575 249.651 98.8328 249.616 98.5778C249.581 98.3228 249.191 95.5807 249.191 95.5807L249.798 89.3722Z" fill="url(#paint32_linear)"/>
<path d="M245.232 95.5565L249.966 94.7518L254.587 95.3704C254.587 95.3704 252.486 95.7478 252.291 95.7815C252.095 95.8153 249.995 96.1926 249.995 96.1926L245.232 95.5565Z" fill="url(#paint33_linear)"/>
</g>
<g opacity="0.8">
<path d="M187.001 122.634L187.835 128.814L187.244 134.837C187.244 134.837 186.854 132.095 186.819 131.84C186.784 131.585 186.394 128.843 186.394 128.843L187.001 122.634Z" fill="url(#paint34_linear)"/>
<path d="M182.435 128.819L187.169 128.014L191.79 128.633C191.79 128.633 189.689 129.01 189.494 129.044C189.298 129.077 187.198 129.455 187.198 129.455L182.435 128.819Z" fill="url(#paint35_linear)"/>
</g>
<g opacity="0.8">
<path d="M162.66 121.821L163.494 128.001L162.903 134.024C162.903 134.024 162.513 131.282 162.478 131.027C162.443 130.772 162.053 128.029 162.053 128.029L162.66 121.821Z" fill="url(#paint36_linear)"/>
<path d="M158.094 128.005L162.828 127.201L167.449 127.819C167.449 127.819 165.348 128.196 165.153 128.23C164.958 128.264 162.857 128.641 162.857 128.641L158.094 128.005Z" fill="url(#paint37_linear)"/>
</g>
<g opacity="0.8">
<path d="M174.343 112.593L175.176 118.773L174.586 124.796C174.586 124.796 174.196 122.054 174.161 121.799C174.126 121.544 173.736 118.802 173.736 118.802L174.343 112.593Z" fill="url(#paint38_linear)"/>
<path d="M169.776 118.778L174.511 117.973L179.132 118.592C179.132 118.592 177.031 118.969 176.836 119.003C176.64 119.036 174.54 119.414 174.54 119.414L169.776 118.778Z" fill="url(#paint39_linear)"/>
</g>
<g opacity="0.8">
<path d="M125.974 113.593L126.807 119.773L126.217 125.796C126.217 125.796 125.826 123.054 125.791 122.799C125.757 122.543 125.366 119.801 125.366 119.801L125.974 113.593Z" fill="url(#paint40_linear)"/>
<path d="M121.407 119.777L126.142 118.972L130.763 119.591C130.763 119.591 128.662 119.968 128.466 120.002C128.271 120.036 126.17 120.413 126.17 120.413L121.407 119.777Z" fill="url(#paint41_linear)"/>
</g>
<g opacity="0.8">
<path d="M259.288 102.603L260.122 108.783L259.531 114.806C259.531 114.806 259.141 112.064 259.106 111.809C259.071 111.554 258.681 108.812 258.681 108.812L259.288 102.603Z" fill="url(#paint42_linear)"/>
<path d="M254.722 108.787L259.456 107.983L264.077 108.601C264.077 108.601 261.976 108.979 261.781 109.012C261.586 109.046 259.485 109.424 259.485 109.424L254.722 108.787Z" fill="url(#paint43_linear)"/>
</g>
<defs>
<linearGradient id="paint0_linear" x1="210.147" y1="21.6891" x2="210.366" y2="32.6786" gradientUnits="userSpaceOnUse">
<stop stop-color="white" stop-opacity="0"/>
<stop offset="0.520833" stop-color="white"/>
<stop offset="1" stop-color="white" stop-opacity="0"/>
</linearGradient>
<linearGradient id="paint1_linear" x1="206.56" y1="26.8067" x2="214.985" y2="26.639" gradientUnits="userSpaceOnUse">
<stop stop-color="white" stop-opacity="0"/>
<stop offset="0.520833" stop-color="white"/>
<stop offset="1" stop-color="white" stop-opacity="0"/>
</linearGradient>
<linearGradient id="paint2_linear" x1="247.787" y1="53.4792" x2="248.005" y2="64.4687" gradientUnits="userSpaceOnUse">
<stop stop-color="white" stop-opacity="0"/>
<stop offset="0.520833" stop-color="white"/>
<stop offset="1" stop-color="white" stop-opacity="0"/>
</linearGradient>
<linearGradient id="paint3_linear" x1="244.199" y1="58.5967" x2="252.624" y2="58.4291" gradientUnits="userSpaceOnUse">
<stop stop-color="white" stop-opacity="0"/>
<stop offset="0.520833" stop-color="white"/>
<stop offset="1" stop-color="white" stop-opacity="0"/>
</linearGradient>
<linearGradient id="paint4_linear" x1="89.8823" y1="122.037" x2="90.101" y2="133.026" gradientUnits="userSpaceOnUse">
<stop stop-color="white" stop-opacity="0"/>
<stop offset="0.520833" stop-color="white"/>
<stop offset="1" stop-color="white" stop-opacity="0"/>
</linearGradient>
<linearGradient id="paint5_linear" x1="86.2951" y1="127.154" x2="94.7202" y2="126.986" gradientUnits="userSpaceOnUse">
<stop stop-color="white" stop-opacity="0"/>
<stop offset="0.520833" stop-color="white"/>
<stop offset="1" stop-color="white" stop-opacity="0"/>
</linearGradient>
<linearGradient id="paint6_linear" x1="57.6919" y1="121.037" x2="57.9105" y2="132.027" gradientUnits="userSpaceOnUse">
<stop stop-color="white" stop-opacity="0"/>
<stop offset="0.520833" stop-color="white"/>
<stop offset="1" stop-color="white" stop-opacity="0"/>
</linearGradient>
<linearGradient id="paint7_linear" x1="54.1047" y1="126.154" x2="62.5298" y2="125.987" gradientUnits="userSpaceOnUse">
<stop stop-color="white" stop-opacity="0"/>
<stop offset="0.520833" stop-color="white"/>
<stop offset="1" stop-color="white" stop-opacity="0"/>
</linearGradient>
<linearGradient id="paint8_linear" x1="66.9399" y1="112.206" x2="67.1586" y2="123.196" gradientUnits="userSpaceOnUse">
<stop stop-color="white" stop-opacity="0"/>
<stop offset="0.520833" stop-color="white"/>
<stop offset="1" stop-color="white" stop-opacity="0"/>
</linearGradient>
<linearGradient id="paint9_linear" x1="63.3528" y1="117.323" x2="71.7778" y2="117.156" gradientUnits="userSpaceOnUse">
<stop stop-color="white" stop-opacity="0"/>
<stop offset="0.520833" stop-color="white"/>
<stop offset="1" stop-color="white" stop-opacity="0"/>
</linearGradient>
<linearGradient id="paint10_linear" x1="37.977" y1="112.128" x2="38.1957" y2="123.117" gradientUnits="userSpaceOnUse">
<stop stop-color="white" stop-opacity="0"/>
<stop offset="0.520833" stop-color="white"/>
<stop offset="1" stop-color="white" stop-opacity="0"/>
</linearGradient>
<linearGradient id="paint11_linear" x1="34.3899" y1="117.245" x2="42.8149" y2="117.077" gradientUnits="userSpaceOnUse">
<stop stop-color="white" stop-opacity="0"/>
<stop offset="0.520833" stop-color="white"/>
<stop offset="1" stop-color="white" stop-opacity="0"/>
</linearGradient>
<linearGradient id="paint12_linear" x1="256.334" y1="47.9635" x2="256.553" y2="58.953" gradientUnits="userSpaceOnUse">
<stop stop-color="white" stop-opacity="0"/>
<stop offset="0.520833" stop-color="white"/>
<stop offset="1" stop-color="white" stop-opacity="0"/>
</linearGradient>
<linearGradient id="paint13_linear" x1="252.747" y1="53.0811" x2="261.172" y2="52.9135" gradientUnits="userSpaceOnUse">
<stop stop-color="white" stop-opacity="0"/>
<stop offset="0.520833" stop-color="white"/>
<stop offset="1" stop-color="white" stop-opacity="0"/>
</linearGradient>
<linearGradient id="paint14_linear" x1="219.209" y1="120.715" x2="219.368" y2="128.688" gradientUnits="userSpaceOnUse">
<stop stop-color="white" stop-opacity="0"/>
<stop offset="0.520833" stop-color="white"/>
<stop offset="1" stop-color="white" stop-opacity="0"/>
</linearGradient>
<linearGradient id="paint15_linear" x1="216.606" y1="124.427" x2="222.719" y2="124.306" gradientUnits="userSpaceOnUse">
<stop stop-color="white" stop-opacity="0"/>
<stop offset="0.520833" stop-color="white"/>
<stop offset="1" stop-color="white" stop-opacity="0"/>
</linearGradient>
<linearGradient id="paint16_linear" x1="206.89" y1="110.938" x2="207.048" y2="118.911" gradientUnits="userSpaceOnUse">
<stop stop-color="white" stop-opacity="0"/>
<stop offset="0.520833" stop-color="white"/>
<stop offset="1" stop-color="white" stop-opacity="0"/>
</linearGradient>
<linearGradient id="paint17_linear" x1="204.287" y1="114.65" x2="210.399" y2="114.529" gradientUnits="userSpaceOnUse">
<stop stop-color="white" stop-opacity="0"/>
<stop offset="0.520833" stop-color="white"/>
<stop offset="1" stop-color="white" stop-opacity="0"/>
</linearGradient>
<linearGradient id="paint18_linear" x1="196.511" y1="119.949" x2="196.73" y2="130.938" gradientUnits="userSpaceOnUse">
<stop stop-color="white" stop-opacity="0"/>
<stop offset="0.520833" stop-color="white"/>
<stop offset="1" stop-color="white" stop-opacity="0"/>
</linearGradient>
<linearGradient id="paint19_linear" x1="192.924" y1="125.066" x2="201.349" y2="124.898" gradientUnits="userSpaceOnUse">
<stop stop-color="white" stop-opacity="0"/>
<stop offset="0.520833" stop-color="white"/>
<stop offset="1" stop-color="white" stop-opacity="0"/>
</linearGradient>
<linearGradient id="paint20_linear" x1="230.702" y1="15.0094" x2="231.906" y2="75.5569" gradientUnits="userSpaceOnUse">
<stop stop-color="white" stop-opacity="0"/>
<stop offset="0.520833" stop-color="white"/>
<stop offset="1" stop-color="white" stop-opacity="0"/>
</linearGradient>
<linearGradient id="paint21_linear" x1="210.936" y1="43.2016" x2="257.354" y2="42.278" gradientUnits="userSpaceOnUse">
<stop stop-color="white" stop-opacity="0"/>
<stop offset="0.520833" stop-color="white"/>
<stop offset="1" stop-color="white" stop-opacity="0"/>
</linearGradient>
<linearGradient id="paint22_linear" x1="196.547" y1="40.6388" x2="198.009" y2="71.8769" gradientUnits="userSpaceOnUse">
<stop stop-color="white" stop-opacity="0"/>
<stop offset="0.520833" stop-color="white"/>
<stop offset="1" stop-color="white" stop-opacity="0"/>
</linearGradient>
<linearGradient id="paint23_linear" x1="186.735" y1="55.4664" x2="210.684" y2="54.3452" gradientUnits="userSpaceOnUse">
<stop stop-color="white" stop-opacity="0"/>
<stop offset="0.520833" stop-color="white"/>
<stop offset="1" stop-color="white" stop-opacity="0"/>
</linearGradient>
<linearGradient id="paint24_linear" x1="237.547" y1="108.425" x2="237.88" y2="125.169" gradientUnits="userSpaceOnUse">
<stop stop-color="white" stop-opacity="0"/>
<stop offset="0.520833" stop-color="white"/>
<stop offset="1" stop-color="white" stop-opacity="0"/>
</linearGradient>
<linearGradient id="paint25_linear" x1="232.081" y1="116.222" x2="244.918" y2="115.966" gradientUnits="userSpaceOnUse">
<stop stop-color="white" stop-opacity="0"/>
<stop offset="0.520833" stop-color="white"/>
<stop offset="1" stop-color="white" stop-opacity="0"/>
</linearGradient>
<linearGradient id="paint26_linear" x1="221.317" y1="97.756" x2="221.536" y2="108.746" gradientUnits="userSpaceOnUse">
<stop stop-color="white" stop-opacity="0"/>
<stop offset="0.520833" stop-color="white"/>
<stop offset="1" stop-color="white" stop-opacity="0"/>
</linearGradient>
<linearGradient id="paint27_linear" x1="217.73" y1="102.873" x2="226.155" y2="102.705" gradientUnits="userSpaceOnUse">
<stop stop-color="white" stop-opacity="0"/>
<stop offset="0.520833" stop-color="white"/>
<stop offset="1" stop-color="white" stop-opacity="0"/>
</linearGradient>
<linearGradient id="paint28_linear" x1="245.805" y1="75.5417" x2="246.024" y2="86.5312" gradientUnits="userSpaceOnUse">
<stop stop-color="white" stop-opacity="0"/>
<stop offset="0.520833" stop-color="white"/>
<stop offset="1" stop-color="white" stop-opacity="0"/>
</linearGradient>
<linearGradient id="paint29_linear" x1="242.218" y1="80.6587" x2="250.643" y2="80.4911" gradientUnits="userSpaceOnUse">
<stop stop-color="white" stop-opacity="0"/>
<stop offset="0.520833" stop-color="white"/>
<stop offset="1" stop-color="white" stop-opacity="0"/>
</linearGradient>
<linearGradient id="paint30_linear" x1="231.812" y1="90.5334" x2="232.031" y2="101.523" gradientUnits="userSpaceOnUse">
<stop stop-color="white" stop-opacity="0"/>
<stop offset="0.520833" stop-color="white"/>
<stop offset="1" stop-color="white" stop-opacity="0"/>
</linearGradient>
<linearGradient id="paint31_linear" x1="228.225" y1="95.6504" x2="236.65" y2="95.4828" gradientUnits="userSpaceOnUse">
<stop stop-color="white" stop-opacity="0"/>
<stop offset="0.520833" stop-color="white"/>
<stop offset="1" stop-color="white" stop-opacity="0"/>
</linearGradient>
<linearGradient id="paint32_linear" x1="249.709" y1="90.5334" x2="249.928" y2="101.523" gradientUnits="userSpaceOnUse">
<stop stop-color="white" stop-opacity="0"/>
<stop offset="0.520833" stop-color="white"/>
<stop offset="1" stop-color="white" stop-opacity="0"/>
</linearGradient>
<linearGradient id="paint33_linear" x1="246.122" y1="95.6504" x2="254.547" y2="95.4828" gradientUnits="userSpaceOnUse">
<stop stop-color="white" stop-opacity="0"/>
<stop offset="0.520833" stop-color="white"/>
<stop offset="1" stop-color="white" stop-opacity="0"/>
</linearGradient>
<linearGradient id="paint34_linear" x1="186.913" y1="123.796" x2="187.131" y2="134.785" gradientUnits="userSpaceOnUse">
<stop stop-color="white" stop-opacity="0"/>
<stop offset="0.520833" stop-color="white"/>
<stop offset="1" stop-color="white" stop-opacity="0"/>
</linearGradient>
<linearGradient id="paint35_linear" x1="183.325" y1="128.913" x2="191.75" y2="128.745" gradientUnits="userSpaceOnUse">
<stop stop-color="white" stop-opacity="0"/>
<stop offset="0.520833" stop-color="white"/>
<stop offset="1" stop-color="white" stop-opacity="0"/>
</linearGradient>
<linearGradient id="paint36_linear" x1="162.572" y1="122.982" x2="162.79" y2="133.972" gradientUnits="userSpaceOnUse">
<stop stop-color="white" stop-opacity="0"/>
<stop offset="0.520833" stop-color="white"/>
<stop offset="1" stop-color="white" stop-opacity="0"/>
</linearGradient>
<linearGradient id="paint37_linear" x1="158.985" y1="128.099" x2="167.41" y2="127.932" gradientUnits="userSpaceOnUse">
<stop stop-color="white" stop-opacity="0"/>
<stop offset="0.520833" stop-color="white"/>
<stop offset="1" stop-color="white" stop-opacity="0"/>
</linearGradient>
<linearGradient id="paint38_linear" x1="174.254" y1="113.755" x2="174.473" y2="124.744" gradientUnits="userSpaceOnUse">
<stop stop-color="white" stop-opacity="0"/>
<stop offset="0.520833" stop-color="white"/>
<stop offset="1" stop-color="white" stop-opacity="0"/>
</linearGradient>
<linearGradient id="paint39_linear" x1="170.667" y1="118.872" x2="179.092" y2="118.704" gradientUnits="userSpaceOnUse">
<stop stop-color="white" stop-opacity="0"/>
<stop offset="0.520833" stop-color="white"/>
<stop offset="1" stop-color="white" stop-opacity="0"/>
</linearGradient>
<linearGradient id="paint40_linear" x1="125.885" y1="114.754" x2="126.104" y2="125.744" gradientUnits="userSpaceOnUse">
<stop stop-color="white" stop-opacity="0"/>
<stop offset="0.520833" stop-color="white"/>
<stop offset="1" stop-color="white" stop-opacity="0"/>
</linearGradient>
<linearGradient id="paint41_linear" x1="122.298" y1="119.871" x2="130.723" y2="119.703" gradientUnits="userSpaceOnUse">
<stop stop-color="white" stop-opacity="0"/>
<stop offset="0.520833" stop-color="white"/>
<stop offset="1" stop-color="white" stop-opacity="0"/>
</linearGradient>
<linearGradient id="paint42_linear" x1="259.2" y1="103.764" x2="259.418" y2="114.754" gradientUnits="userSpaceOnUse">
<stop stop-color="white" stop-opacity="0"/>
<stop offset="0.520833" stop-color="white"/>
<stop offset="1" stop-color="white" stop-opacity="0"/>
</linearGradient>
<linearGradient id="paint43_linear" x1="255.613" y1="108.881" x2="264.038" y2="108.714" gradientUnits="userSpaceOnUse">
<stop stop-color="white" stop-opacity="0"/>
<stop offset="0.520833" stop-color="white"/>
<stop offset="1" stop-color="white" stop-opacity="0"/>
</linearGradient>
</defs>
</svg>
