<svg width="1197" height="313" viewBox="0 0 1197 313" fill="none" xmlns="http://www.w3.org/2000/svg">
    <g clip-path="url(#clip0)">
        <path d="M583.144 312.761L583.144 237.431C569.601 236.794 556.354 233.243 544.309 227.019L507.342 291.964C530.159 305.867 556.425 313.075 583.142 312.764L583.144 312.761Z" fill="white"/>
        <path d="M437.544 205.629L509.614 184.585C506.275 172.54 505.318 159.96 506.798 147.549L431.309 136.765C428.326 159.899 430.454 183.407 437.544 205.629Z" fill="white"/>
        <path d="M569.857 3.7271C572.233 30.0091 574.609 56.291 576.986 82.573C618.862 81.725 654.035 111.291 659.678 148.818C664.36 179.946 648.06 212.139 618.632 228.85C629.591 251.812 640.551 274.777 651.511 297.744C665.378 291.034 699.839 272.027 721.529 231.602C746.65 184.782 745.592 126.091 717.722 79.356C687.479 28.639 630.044 -0.648916 569.857 3.7271Z" fill="black"/>
        <g clip-path="url(#clip1)">
            <path d="M651.512 297.743L618.633 228.848C607.659 234.502 595.49 237.444 583.145 237.429L583.145 312.759C606.783 313.052 630.173 307.914 651.512 297.743Z" fill="black"/>
            <path d="M583.538 310.772L583.792 237.272C570.249 236.635 556.748 232.551 544.703 226.327L507.292 291.772C530.109 305.675 556.821 313.083 583.538 312.772L583.538 310.772Z" fill="black"/>
            <path d="M507.343 291.962C519.976 270.2 532.61 248.439 545.243 226.678C528.701 217.376 516.055 202.435 509.614 184.583L437.544 205.627C448.689 242.392 473.729 273.364 507.344 291.962L507.343 291.962Z" fill="#DB8C0A"/>
            <path d="M718.943 212.65C695.529 203.431 678.355 197.067 654.943 187.848C648.232 205.6 634.473 219.221 617.792 228.272L651.588 297.488C686.261 280.944 715.108 252.179 728.443 216.15L718.943 212.65Z" fill="black"/>
            <path d="M437.545 205.627L509.615 184.583C506.276 172.539 505.319 159.959 506.799 147.548L431.31 136.763C428.327 159.898 430.455 183.405 437.545 205.627Z" fill="#F5A623"/>
            <path d="M430.649 136.905L506.799 147.548C509.637 128.513 519.612 111.271 534.699 99.3225L487.281 37.6406C471.478 49.3596 458.284 64.2346 448.535 81.3225C438.785 98.4103 432.694 117.338 430.646 136.905L430.649 136.905Z" fill="#F5A623"/>
            <path d="M487.284 37.6406L534.702 99.3225C540.299 93.8822 546.916 89.6017 554.173 86.727C561.429 83.8523 569.183 82.4401 576.987 82.5715C574.61 56.2895 572.234 30.0075 569.858 3.72554C539.243 5.15967 510.068 17.1426 487.284 37.6406Z" fill="#F5A623"/>
            <circle cx="583.792" cy="158.772" r="80" transform="rotate(180 583.792 158.772)" fill="white"/>
            <path d="M602.02 146.141C601.81 146.697 589.764 140.527 582.256 145.831C577.849 149.471 576.268 155.46 577.849 160.724C578.703 163.567 579.118 164.731 580.52 166.734C581.548 168.203 582.991 169.806 584.994 170.942C585.451 171.279 591.589 174.976 599.041 174.098C610.762 172.72 619.843 157.33 619.843 157.33C619.843 157.33 617.728 161.881 617.533 162.297C611.872 174.345 602.466 177.556 602.466 177.556C594.105 180.41 585.737 176.756 584.814 176.291C578.775 173.254 576.17 170.448 575.358 168.924C574.035 166.439 570.718 156.727 573.896 149.471C576.252 144.093 581.366 141.842 581.969 141.589C591.699 137.507 602.211 145.635 602.02 146.141Z" fill="url(#paint0_linear)"/>
            <path d="M602.02 146.141C601.625 146.509 598.784 143.082 594.224 140.607C592.92 139.9 587.945 137.358 581.87 137.488C571.798 137.703 565.105 145.13 563.911 146.506C557.945 153.385 555.137 163.977 558.492 172.219C562.853 182.93 577.928 190.418 576.388 189.171L575.053 188.664C573.514 188.054 554.617 179.636 553.94 162.587C553.559 152.981 556.632 145.201 558.492 143.077C561.743 139.367 564.35 137.58 566.547 136.4C570.963 134.031 579.268 132.001 585.431 132.933C592.346 133.98 596.687 138.833 598.804 141.199C600.714 143.333 602.34 145.843 602.02 146.141Z" fill="url(#paint1_linear)"/>
            <path d="M581.969 141.591C580.567 142.358 579.316 143.374 578.278 144.591C577.416 145.613 575.876 147.784 575.115 152.685C574.462 156.884 573.743 161.516 575.94 166.534C579.507 174.679 587.91 177.361 589.914 178C595.038 179.575 600.522 179.524 605.616 177.856C611.885 175.826 616.27 171.631 616.655 172.122C616.894 172.426 615.28 174.125 614.159 175.163C610.74 178.268 606.551 180.395 602.031 181.322C598.845 181.956 595.574 182.036 592.361 181.555C589.721 181.168 581.871 180.023 575.841 173.328C574.153 171.452 569.39 166.165 569.763 158.684C570.031 153.295 572.828 149.487 573.777 148.23C575.952 145.405 578.758 143.131 581.969 141.591Z" fill="url(#paint2_linear)"/>
            <path d="M602.02 146.141C602.487 145.932 601.429 140.11 597.304 135.259C595.641 133.299 593.638 131.655 591.392 130.408C582.109 125.353 571.321 129.672 568.85 130.662C566.319 131.675 560.85 133.949 556.316 139.632C551.205 146.039 550.448 152.912 550.157 155.92C548.914 168.767 555.423 178.901 556.037 178.704C556.507 178.553 553.296 172.196 553.94 162.587C554.186 158.93 554.714 152.347 559.331 145.916C562.128 142.124 565.79 139.057 570.011 136.973C572.454 135.761 580.743 131.646 589.495 134.749C592.161 135.714 594.616 137.187 596.725 139.086C600.535 142.584 601.638 146.312 602.02 146.141Z" fill="url(#paint3_linear)"/>
            <path d="M586.38 181.507C586.161 181.882 573.689 178.527 568 167.829C567.144 166.219 562.664 157.726 565.258 151.047C566.343 148.253 568.478 145.126 569.341 144.154C570.734 142.585 573.79 142.22 576.792 140.942C578.141 140.381 579.651 140.255 581.098 140.062C582.533 139.885 583.804 139.923 585.243 140.062C587.198 140.191 595.245 142.661 592.541 142.234C590.003 141.834 584.303 140.443 581.098 142.234C580.805 142.398 580.475 142.607 580.297 142.719C577.708 144.347 575.458 146.461 573.67 148.946C573.048 149.829 570.399 153.694 570.189 158.687C569.929 164.933 573.345 169.49 575.362 172.18C580.452 178.967 586.539 181.238 586.38 181.507Z" fill="url(#paint4_linear)"/>
            <path d="M580.32 137.216C582.946 136.836 585.195 136.704 587.799 137.216C590.789 137.819 592.442 138.441 594.478 139.487C597.955 141.273 602.356 145.854 602.02 146.541C601.423 147.767 587.115 137.093 575.722 141.986C569.587 144.621 565.42 152.403 564.839 153.58C563.44 156.174 563.356 158.342 563.229 161.289C563.133 164.787 564.113 167.554 565.007 170.077C566.278 173.667 568.326 177.497 568.281 177.518C568.279 177.518 568.271 177.508 568.269 177.506C561.6 167.743 560.888 163.138 560.888 163.138C560.587 161.193 559.302 152.885 564.839 145.872C569.887 139.478 578.361 137.503 580.32 137.216Z" fill="url(#paint5_linear)"/>
        </g>
    </g>
    <rect width="510" height="1" transform="matrix(1 0 0 -1 0 27)" fill="#4F4F4F"/>
    <path d="M3.7 14.24H11.1V16H1.72V1.84H10.8V3.58H3.7V7.82H10.38V9.52H3.7V14.24ZM20.2717 8.92C20.0717 8.61333 19.7717 8.36 19.3717 8.16C18.9717 7.94667 18.5451 7.84 18.0917 7.84C17.5984 7.84 17.1584 7.93333 16.7717 8.12C16.3984 8.30667 16.0784 8.56 15.8117 8.88C15.5451 9.18667 15.3384 9.54667 15.1917 9.96C15.0584 10.3733 14.9917 10.8067 14.9917 11.26C14.9917 11.7133 15.0584 12.1467 15.1917 12.56C15.3384 12.9733 15.5451 13.34 15.8117 13.66C16.0784 13.9667 16.4051 14.2133 16.7917 14.4C17.1784 14.5867 17.6184 14.68 18.1117 14.68C18.5917 14.68 19.0251 14.5867 19.4117 14.4C19.8117 14.2133 20.1384 13.96 20.3917 13.64L21.6517 14.78C21.2517 15.2467 20.7517 15.6133 20.1517 15.88C19.5517 16.1333 18.8717 16.26 18.1117 16.26C17.3784 16.26 16.6984 16.14 16.0717 15.9C15.4584 15.66 14.9251 15.3267 14.4717 14.9C14.0184 14.46 13.6584 13.9333 13.3917 13.32C13.1384 12.7067 13.0117 12.02 13.0117 11.26C13.0117 10.5133 13.1384 9.83333 13.3917 9.22C13.6451 8.60667 13.9984 8.08 14.4517 7.64C14.9051 7.2 15.4384 6.86 16.0517 6.62C16.6784 6.38 17.3517 6.26 18.0717 6.26C18.7384 6.26 19.3984 6.39333 20.0517 6.66C20.7184 6.92667 21.2451 7.31333 21.6317 7.82L20.2717 8.92ZM33.1145 11.24C33.1145 11.9733 32.9812 12.6467 32.7145 13.26C32.4612 13.8733 32.1012 14.4067 31.6345 14.86C31.1812 15.3 30.6412 15.6467 30.0145 15.9C29.3879 16.14 28.7145 16.26 27.9945 16.26C27.2745 16.26 26.6012 16.14 25.9745 15.9C25.3479 15.6467 24.8079 15.3 24.3545 14.86C23.9012 14.4067 23.5412 13.8733 23.2745 13.26C23.0212 12.6467 22.8945 11.9733 22.8945 11.24C22.8945 10.5067 23.0212 9.84 23.2745 9.24C23.5412 8.62667 23.9012 8.1 24.3545 7.66C24.8079 7.22 25.3479 6.88 25.9745 6.64C26.6012 6.38667 27.2745 6.26 27.9945 6.26C28.7145 6.26 29.3879 6.38667 30.0145 6.64C30.6412 6.88 31.1812 7.22 31.6345 7.66C32.1012 8.1 32.4612 8.62667 32.7145 9.24C32.9812 9.84 33.1145 10.5067 33.1145 11.24ZM31.1545 11.24C31.1545 10.7867 31.0812 10.3533 30.9345 9.94C30.8012 9.52667 30.6012 9.16667 30.3345 8.86C30.0679 8.54 29.7345 8.28667 29.3345 8.1C28.9479 7.91333 28.5012 7.82 27.9945 7.82C27.4879 7.82 27.0345 7.91333 26.6345 8.1C26.2479 8.28667 25.9212 8.54 25.6545 8.86C25.3879 9.16667 25.1812 9.52667 25.0345 9.94C24.9012 10.3533 24.8345 10.7867 24.8345 11.24C24.8345 11.6933 24.9012 12.1267 25.0345 12.54C25.1812 12.9533 25.3879 13.32 25.6545 13.64C25.9212 13.96 26.2479 14.2133 26.6345 14.4C27.0345 14.5867 27.4879 14.68 27.9945 14.68C28.5012 14.68 28.9479 14.5867 29.3345 14.4C29.7345 14.2133 30.0679 13.96 30.3345 13.64C30.6012 13.32 30.8012 12.9533 30.9345 12.54C31.0812 12.1267 31.1545 11.6933 31.1545 11.24ZM40.8416 8.92C40.6282 8.57333 40.3282 8.29333 39.9416 8.08C39.5549 7.85333 39.1216 7.74 38.6416 7.74C38.4282 7.74 38.2149 7.76667 38.0016 7.82C37.7882 7.86 37.5949 7.93333 37.4216 8.04C37.2616 8.13333 37.1282 8.26 37.0216 8.42C36.9282 8.56667 36.8816 8.75333 36.8816 8.98C36.8816 9.38 37.0616 9.68 37.4216 9.88C37.7816 10.0667 38.3216 10.24 39.0416 10.4C39.4949 10.5067 39.9149 10.6333 40.3016 10.78C40.6882 10.9267 41.0216 11.1133 41.3016 11.34C41.5949 11.5533 41.8216 11.8133 41.9816 12.12C42.1416 12.4267 42.2216 12.7867 42.2216 13.2C42.2216 13.76 42.1149 14.2333 41.9016 14.62C41.6882 15.0067 41.4016 15.3267 41.0416 15.58C40.6949 15.82 40.2949 15.9933 39.8416 16.1C39.3882 16.2067 38.9216 16.26 38.4416 16.26C37.7216 16.26 37.0149 16.12 36.3216 15.84C35.6416 15.56 35.0749 15.1333 34.6216 14.56L35.9616 13.42C36.2149 13.7933 36.5616 14.1067 37.0016 14.36C37.4549 14.6133 37.9482 14.74 38.4816 14.74C38.7216 14.74 38.9482 14.72 39.1616 14.68C39.3882 14.6267 39.5882 14.5467 39.7616 14.44C39.9482 14.3333 40.0949 14.1933 40.2016 14.02C40.3082 13.8467 40.3616 13.6267 40.3616 13.36C40.3616 12.92 40.1482 12.5933 39.7216 12.38C39.3082 12.1667 38.6949 11.9667 37.8816 11.78C37.5616 11.7 37.2349 11.6067 36.9016 11.5C36.5816 11.38 36.2882 11.22 36.0216 11.02C35.7549 10.82 35.5349 10.5733 35.3616 10.28C35.2016 9.97333 35.1216 9.6 35.1216 9.16C35.1216 8.65333 35.2216 8.22 35.4216 7.86C35.6349 7.48667 35.9082 7.18667 36.2416 6.96C36.5749 6.72 36.9549 6.54667 37.3816 6.44C37.8082 6.32 38.2482 6.26 38.7016 6.26C39.3816 6.26 40.0349 6.39333 40.6616 6.66C41.3016 6.92667 41.7949 7.31333 42.1416 7.82L40.8416 8.92ZM48.2083 13.96H48.2483L50.8683 6.52H52.8683L48.2683 18.24C48.1083 18.64 47.9349 18.9933 47.7483 19.3C47.5616 19.62 47.3416 19.8867 47.0883 20.1C46.8349 20.3267 46.5349 20.5 46.1883 20.62C45.8549 20.74 45.4549 20.8 44.9883 20.8C44.7883 20.8 44.5816 20.7867 44.3683 20.76C44.1683 20.7467 43.9616 20.7133 43.7483 20.66L43.9283 19C44.2483 19.1067 44.5616 19.16 44.8683 19.16C45.3616 19.16 45.7283 19.02 45.9683 18.74C46.2083 18.4733 46.4283 18.0867 46.6283 17.58L47.2283 16L43.1683 6.52H45.2683L48.2083 13.96ZM59.8064 8.92C59.5931 8.57333 59.2931 8.29333 58.9064 8.08C58.5197 7.85333 58.0864 7.74 57.6064 7.74C57.3931 7.74 57.1797 7.76667 56.9664 7.82C56.7531 7.86 56.5597 7.93333 56.3864 8.04C56.2264 8.13333 56.0931 8.26 55.9864 8.42C55.8931 8.56667 55.8464 8.75333 55.8464 8.98C55.8464 9.38 56.0264 9.68 56.3864 9.88C56.7464 10.0667 57.2864 10.24 58.0064 10.4C58.4597 10.5067 58.8797 10.6333 59.2664 10.78C59.6531 10.9267 59.9864 11.1133 60.2664 11.34C60.5597 11.5533 60.7864 11.8133 60.9464 12.12C61.1064 12.4267 61.1864 12.7867 61.1864 13.2C61.1864 13.76 61.0797 14.2333 60.8664 14.62C60.6531 15.0067 60.3664 15.3267 60.0064 15.58C59.6597 15.82 59.2597 15.9933 58.8064 16.1C58.3531 16.2067 57.8864 16.26 57.4064 16.26C56.6864 16.26 55.9797 16.12 55.2864 15.84C54.6064 15.56 54.0397 15.1333 53.5864 14.56L54.9264 13.42C55.1797 13.7933 55.5264 14.1067 55.9664 14.36C56.4197 14.6133 56.9131 14.74 57.4464 14.74C57.6864 14.74 57.9131 14.72 58.1264 14.68C58.3531 14.6267 58.5531 14.5467 58.7264 14.44C58.9131 14.3333 59.0597 14.1933 59.1664 14.02C59.2731 13.8467 59.3264 13.6267 59.3264 13.36C59.3264 12.92 59.1131 12.5933 58.6864 12.38C58.2731 12.1667 57.6597 11.9667 56.8464 11.78C56.5264 11.7 56.1997 11.6067 55.8664 11.5C55.5464 11.38 55.2531 11.22 54.9864 11.02C54.7197 10.82 54.4997 10.5733 54.3264 10.28C54.1664 9.97333 54.0864 9.6 54.0864 9.16C54.0864 8.65333 54.1864 8.22 54.3864 7.86C54.5997 7.48667 54.8731 7.18667 55.2064 6.96C55.5397 6.72 55.9197 6.54667 56.3464 6.44C56.7731 6.32 57.2131 6.26 57.6664 6.26C58.3464 6.26 58.9997 6.39333 59.6264 6.66C60.2664 6.92667 60.7597 7.31333 61.1064 7.82L59.8064 8.92ZM68.2131 8.06H65.6931V13C65.6931 13.5733 65.7998 13.9867 66.0131 14.24C66.2265 14.48 66.5665 14.6 67.0331 14.6C67.2065 14.6 67.3931 14.58 67.5931 14.54C67.7931 14.5 67.9731 14.44 68.1331 14.36L68.1931 15.9C67.9665 15.98 67.7131 16.04 67.4331 16.08C67.1665 16.1333 66.8865 16.16 66.5931 16.16C65.6998 16.16 65.0131 15.9133 64.5331 15.42C64.0665 14.9267 63.8331 14.1867 63.8331 13.2V8.06H62.0131V6.52H63.8331V3.8H65.6931V6.52H68.2131V8.06ZM77.0952 10.42C77.0818 10.0467 77.0152 9.7 76.8952 9.38C76.7885 9.04667 76.6218 8.76 76.3952 8.52C76.1818 8.28 75.9085 8.09333 75.5752 7.96C75.2552 7.81333 74.8752 7.74 74.4352 7.74C74.0352 7.74 73.6552 7.81333 73.2952 7.96C72.9485 8.09333 72.6418 8.28 72.3752 8.52C72.1218 8.76 71.9085 9.04667 71.7352 9.38C71.5752 9.7 71.4818 10.0467 71.4552 10.42H77.0952ZM78.9952 11.18C78.9952 11.2867 78.9952 11.3933 78.9952 11.5C78.9952 11.6067 78.9885 11.7133 78.9752 11.82H71.4552C71.4685 12.22 71.5552 12.6 71.7152 12.96C71.8885 13.3067 72.1152 13.6133 72.3952 13.88C72.6752 14.1333 72.9952 14.3333 73.3552 14.48C73.7285 14.6267 74.1218 14.7 74.5352 14.7C75.1752 14.7 75.7285 14.56 76.1952 14.28C76.6618 14 77.0285 13.66 77.2952 13.26L78.6152 14.32C78.1085 14.9867 77.5085 15.48 76.8152 15.8C76.1352 16.1067 75.3752 16.26 74.5352 16.26C73.8152 16.26 73.1485 16.14 72.5352 15.9C71.9218 15.66 71.3952 15.3267 70.9552 14.9C70.5152 14.46 70.1685 13.9333 69.9152 13.32C69.6618 12.7067 69.5352 12.0267 69.5352 11.28C69.5352 10.5467 69.6552 9.87333 69.8952 9.26C70.1485 8.63333 70.4952 8.1 70.9352 7.66C71.3752 7.22 71.8952 6.88 72.4952 6.64C73.0952 6.38667 73.7418 6.26 74.4352 6.26C75.1285 6.26 75.7552 6.37333 76.3152 6.6C76.8885 6.82667 77.3685 7.15333 77.7552 7.58C78.1552 8.00667 78.4618 8.52667 78.6752 9.14C78.8885 9.74 78.9952 10.42 78.9952 11.18ZM83.46 8.08C83.7 7.57333 84.08 7.14667 84.6 6.8C85.1333 6.44 85.76 6.26 86.48 6.26C87.12 6.26 87.6933 6.40667 88.2 6.7C88.72 6.99333 89.1267 7.48 89.42 8.16C89.74 7.54667 90.1867 7.08 90.76 6.76C91.3333 6.42667 91.96 6.26 92.64 6.26C93.2533 6.26 93.78 6.36667 94.22 6.58C94.66 6.78 95.0267 7.05333 95.32 7.4C95.6133 7.74667 95.8267 8.15333 95.96 8.62C96.1067 9.08667 96.18 9.58667 96.18 10.12V16H94.3V10.74C94.3 10.3533 94.2667 9.98667 94.2 9.64C94.1333 9.29333 94.02 8.98667 93.86 8.72C93.7 8.45333 93.4867 8.24 93.22 8.08C92.9533 7.92 92.6133 7.84 92.2 7.84C91.7733 7.84 91.4067 7.93333 91.1 8.12C90.7933 8.29333 90.54 8.52667 90.34 8.82C90.1533 9.1 90.0133 9.42 89.92 9.78C89.84 10.14 89.8 10.5067 89.8 10.88V16H87.92V10.36C87.92 9.98667 87.8867 9.64667 87.82 9.34C87.7533 9.03333 87.64 8.77333 87.48 8.56C87.32 8.33333 87.1133 8.16 86.86 8.04C86.6067 7.90667 86.2933 7.84 85.92 7.84C85.2267 7.84 84.6467 8.12667 84.18 8.7C83.7267 9.26 83.5 10.0133 83.5 10.96V16H81.62V8.56C81.62 8.30667 81.6133 7.98 81.6 7.58C81.5867 7.18 81.5667 6.82667 81.54 6.52H83.32C83.3467 6.76 83.3667 7.03333 83.38 7.34C83.3933 7.63333 83.4 7.88 83.4 8.08H83.46ZM104.454 1.84H109.314C110.221 1.84 111.128 1.97333 112.034 2.24C112.941 2.50667 113.761 2.92667 114.494 3.5C115.228 4.07333 115.821 4.80667 116.274 5.7C116.728 6.59333 116.954 7.66667 116.954 8.92C116.954 10.1333 116.728 11.1867 116.274 12.08C115.821 12.96 115.228 13.6933 114.494 14.28C113.761 14.8533 112.941 15.2867 112.034 15.58C111.128 15.86 110.221 16 109.314 16H104.454V1.84ZM106.434 14.26H108.914C109.768 14.26 110.554 14.14 111.274 13.9C112.008 13.66 112.634 13.3133 113.154 12.86C113.688 12.4067 114.101 11.8467 114.394 11.18C114.688 10.5133 114.834 9.76 114.834 8.92C114.834 8.04 114.688 7.26667 114.394 6.6C114.101 5.93333 113.688 5.38 113.154 4.94C112.634 4.48667 112.008 4.14667 111.274 3.92C110.554 3.68 109.768 3.56 108.914 3.56H106.434V14.26ZM126.509 10.42C126.496 10.0467 126.429 9.7 126.309 9.38C126.203 9.04667 126.036 8.76 125.809 8.52C125.596 8.28 125.323 8.09333 124.989 7.96C124.669 7.81333 124.289 7.74 123.849 7.74C123.449 7.74 123.069 7.81333 122.709 7.96C122.363 8.09333 122.056 8.28 121.789 8.52C121.536 8.76 121.323 9.04667 121.149 9.38C120.989 9.7 120.896 10.0467 120.869 10.42H126.509ZM128.409 11.18C128.409 11.2867 128.409 11.3933 128.409 11.5C128.409 11.6067 128.403 11.7133 128.389 11.82H120.869C120.883 12.22 120.969 12.6 121.129 12.96C121.303 13.3067 121.529 13.6133 121.809 13.88C122.089 14.1333 122.409 14.3333 122.769 14.48C123.143 14.6267 123.536 14.7 123.949 14.7C124.589 14.7 125.143 14.56 125.609 14.28C126.076 14 126.443 13.66 126.709 13.26L128.029 14.32C127.523 14.9867 126.923 15.48 126.229 15.8C125.549 16.1067 124.789 16.26 123.949 16.26C123.229 16.26 122.563 16.14 121.949 15.9C121.336 15.66 120.809 15.3267 120.369 14.9C119.929 14.46 119.583 13.9333 119.329 13.32C119.076 12.7067 118.949 12.0267 118.949 11.28C118.949 10.5467 119.069 9.87333 119.309 9.26C119.563 8.63333 119.909 8.1 120.349 7.66C120.789 7.22 121.309 6.88 121.909 6.64C122.509 6.38667 123.156 6.26 123.849 6.26C124.543 6.26 125.169 6.37333 125.729 6.6C126.303 6.82667 126.783 7.15333 127.169 7.58C127.569 8.00667 127.876 8.52667 128.089 9.14C128.303 9.74 128.409 10.42 128.409 11.18ZM135.494 16H133.454L129.594 6.52H131.674L134.454 13.98H134.494L137.294 6.52H139.294L135.494 16ZM148.052 10.42C148.039 10.0467 147.972 9.7 147.852 9.38C147.746 9.04667 147.579 8.76 147.352 8.52C147.139 8.28 146.866 8.09333 146.532 7.96C146.212 7.81333 145.832 7.74 145.392 7.74C144.992 7.74 144.612 7.81333 144.252 7.96C143.906 8.09333 143.599 8.28 143.332 8.52C143.079 8.76 142.866 9.04667 142.692 9.38C142.532 9.7 142.439 10.0467 142.412 10.42H148.052ZM149.952 11.18C149.952 11.2867 149.952 11.3933 149.952 11.5C149.952 11.6067 149.946 11.7133 149.932 11.82H142.412C142.426 12.22 142.512 12.6 142.672 12.96C142.846 13.3067 143.072 13.6133 143.352 13.88C143.632 14.1333 143.952 14.3333 144.312 14.48C144.686 14.6267 145.079 14.7 145.492 14.7C146.132 14.7 146.686 14.56 147.152 14.28C147.619 14 147.986 13.66 148.252 13.26L149.572 14.32C149.066 14.9867 148.466 15.48 147.772 15.8C147.092 16.1067 146.332 16.26 145.492 16.26C144.772 16.26 144.106 16.14 143.492 15.9C142.879 15.66 142.352 15.3267 141.912 14.9C141.472 14.46 141.126 13.9333 140.872 13.32C140.619 12.7067 140.492 12.0267 140.492 11.28C140.492 10.5467 140.612 9.87333 140.852 9.26C141.106 8.63333 141.452 8.1 141.892 7.66C142.332 7.22 142.852 6.88 143.452 6.64C144.052 6.38667 144.699 6.26 145.392 6.26C146.086 6.26 146.712 6.37333 147.272 6.6C147.846 6.82667 148.326 7.15333 148.712 7.58C149.112 8.00667 149.419 8.52667 149.632 9.14C149.846 9.74 149.952 10.42 149.952 11.18ZM154.497 16H152.617V0.879999H154.497V16ZM167.372 11.24C167.372 11.9733 167.239 12.6467 166.972 13.26C166.719 13.8733 166.359 14.4067 165.892 14.86C165.439 15.3 164.899 15.6467 164.272 15.9C163.646 16.14 162.972 16.26 162.252 16.26C161.532 16.26 160.859 16.14 160.232 15.9C159.606 15.6467 159.066 15.3 158.612 14.86C158.159 14.4067 157.799 13.8733 157.532 13.26C157.279 12.6467 157.152 11.9733 157.152 11.24C157.152 10.5067 157.279 9.84 157.532 9.24C157.799 8.62667 158.159 8.1 158.612 7.66C159.066 7.22 159.606 6.88 160.232 6.64C160.859 6.38667 161.532 6.26 162.252 6.26C162.972 6.26 163.646 6.38667 164.272 6.64C164.899 6.88 165.439 7.22 165.892 7.66C166.359 8.1 166.719 8.62667 166.972 9.24C167.239 9.84 167.372 10.5067 167.372 11.24ZM165.412 11.24C165.412 10.7867 165.339 10.3533 165.192 9.94C165.059 9.52667 164.859 9.16667 164.592 8.86C164.326 8.54 163.992 8.28667 163.592 8.1C163.206 7.91333 162.759 7.82 162.252 7.82C161.746 7.82 161.292 7.91333 160.892 8.1C160.506 8.28667 160.179 8.54 159.912 8.86C159.646 9.16667 159.439 9.52667 159.292 9.94C159.159 10.3533 159.092 10.7867 159.092 11.24C159.092 11.6933 159.159 12.1267 159.292 12.54C159.439 12.9533 159.646 13.32 159.912 13.64C160.179 13.96 160.506 14.2133 160.892 14.4C161.292 14.5867 161.746 14.68 162.252 14.68C162.759 14.68 163.206 14.5867 163.592 14.4C163.992 14.2133 164.326 13.96 164.592 13.64C164.859 13.32 165.059 12.9533 165.192 12.54C165.339 12.1267 165.412 11.6933 165.412 11.24ZM171.859 20.8H169.979V6.52H171.819V8H171.879C172.186 7.49333 172.633 7.08 173.219 6.76C173.819 6.42667 174.513 6.26 175.299 6.26C176.006 6.26 176.646 6.38667 177.219 6.64C177.806 6.89333 178.306 7.24667 178.719 7.7C179.146 8.15333 179.473 8.68667 179.699 9.3C179.926 9.9 180.039 10.5467 180.039 11.24C180.039 11.9333 179.926 12.5867 179.699 13.2C179.473 13.8133 179.153 14.3467 178.739 14.8C178.326 15.2533 177.826 15.6133 177.239 15.88C176.653 16.1333 175.993 16.26 175.259 16.26C174.579 16.26 173.939 16.1133 173.339 15.82C172.739 15.5267 172.266 15.1133 171.919 14.58H171.859V20.8ZM178.099 11.24C178.099 10.8 178.033 10.3733 177.899 9.96C177.766 9.54667 177.566 9.18 177.299 8.86C177.033 8.54 176.699 8.28667 176.299 8.1C175.913 7.91333 175.459 7.82 174.939 7.82C174.459 7.82 174.019 7.91333 173.619 8.1C173.233 8.28667 172.899 8.54 172.619 8.86C172.339 9.18 172.119 9.54667 171.959 9.96C171.813 10.3733 171.739 10.8067 171.739 11.26C171.739 11.7133 171.813 12.1467 171.959 12.56C172.119 12.9733 172.339 13.34 172.619 13.66C172.899 13.9667 173.233 14.2133 173.619 14.4C174.019 14.5867 174.459 14.68 174.939 14.68C175.459 14.68 175.913 14.5867 176.299 14.4C176.699 14.2 177.033 13.94 177.299 13.62C177.566 13.3 177.766 12.9333 177.899 12.52C178.033 12.1067 178.099 11.68 178.099 11.24ZM184.495 8.08C184.735 7.57333 185.115 7.14667 185.635 6.8C186.168 6.44 186.795 6.26 187.515 6.26C188.155 6.26 188.728 6.40667 189.235 6.7C189.755 6.99333 190.162 7.48 190.455 8.16C190.775 7.54667 191.222 7.08 191.795 6.76C192.368 6.42667 192.995 6.26 193.675 6.26C194.288 6.26 194.815 6.36667 195.255 6.58C195.695 6.78 196.062 7.05333 196.355 7.4C196.648 7.74667 196.862 8.15333 196.995 8.62C197.142 9.08667 197.215 9.58667 197.215 10.12V16H195.335V10.74C195.335 10.3533 195.302 9.98667 195.235 9.64C195.168 9.29333 195.055 8.98667 194.895 8.72C194.735 8.45333 194.522 8.24 194.255 8.08C193.988 7.92 193.648 7.84 193.235 7.84C192.808 7.84 192.442 7.93333 192.135 8.12C191.828 8.29333 191.575 8.52667 191.375 8.82C191.188 9.1 191.048 9.42 190.955 9.78C190.875 10.14 190.835 10.5067 190.835 10.88V16H188.955V10.36C188.955 9.98667 188.922 9.64667 188.855 9.34C188.788 9.03333 188.675 8.77333 188.515 8.56C188.355 8.33333 188.148 8.16 187.895 8.04C187.642 7.90667 187.328 7.84 186.955 7.84C186.262 7.84 185.682 8.12667 185.215 8.7C184.762 9.26 184.535 10.0133 184.535 10.96V16H182.655V8.56C182.655 8.30667 182.648 7.98 182.635 7.58C182.622 7.18 182.602 6.82667 182.575 6.52H184.355C184.382 6.76 184.402 7.03333 184.415 7.34C184.428 7.63333 184.435 7.88 184.435 8.08H184.495ZM207.33 10.42C207.316 10.0467 207.25 9.7 207.13 9.38C207.023 9.04667 206.856 8.76 206.63 8.52C206.416 8.28 206.143 8.09333 205.81 7.96C205.49 7.81333 205.11 7.74 204.67 7.74C204.27 7.74 203.89 7.81333 203.53 7.96C203.183 8.09333 202.876 8.28 202.61 8.52C202.356 8.76 202.143 9.04667 201.97 9.38C201.81 9.7 201.716 10.0467 201.69 10.42H207.33ZM209.23 11.18C209.23 11.2867 209.23 11.3933 209.23 11.5C209.23 11.6067 209.223 11.7133 209.21 11.82H201.69C201.703 12.22 201.79 12.6 201.95 12.96C202.123 13.3067 202.35 13.6133 202.63 13.88C202.91 14.1333 203.23 14.3333 203.59 14.48C203.963 14.6267 204.356 14.7 204.77 14.7C205.41 14.7 205.963 14.56 206.43 14.28C206.896 14 207.263 13.66 207.53 13.26L208.85 14.32C208.343 14.9867 207.743 15.48 207.05 15.8C206.37 16.1067 205.61 16.26 204.77 16.26C204.05 16.26 203.383 16.14 202.77 15.9C202.156 15.66 201.63 15.3267 201.19 14.9C200.75 14.46 200.403 13.9333 200.15 13.32C199.896 12.7067 199.77 12.0267 199.77 11.28C199.77 10.5467 199.89 9.87333 200.13 9.26C200.383 8.63333 200.73 8.1 201.17 7.66C201.61 7.22 202.13 6.88 202.73 6.64C203.33 6.38667 203.976 6.26 204.67 6.26C205.363 6.26 205.99 6.37333 206.55 6.6C207.123 6.82667 207.603 7.15333 207.99 7.58C208.39 8.00667 208.696 8.52667 208.91 9.14C209.123 9.74 209.23 10.42 209.23 11.18ZM213.554 6.52C213.581 6.76 213.601 7.03333 213.614 7.34C213.628 7.63333 213.634 7.88 213.634 8.08H213.694C213.814 7.82667 213.974 7.59333 214.174 7.38C214.388 7.15333 214.628 6.96 214.894 6.8C215.161 6.62667 215.454 6.49333 215.774 6.4C216.094 6.30667 216.428 6.26 216.774 6.26C217.388 6.26 217.914 6.36667 218.354 6.58C218.794 6.78 219.161 7.05333 219.454 7.4C219.748 7.74667 219.961 8.15333 220.094 8.62C220.241 9.08667 220.314 9.58667 220.314 10.12V16H218.434V10.74C218.434 10.3533 218.401 9.98667 218.334 9.64C218.281 9.29333 218.174 8.98667 218.014 8.72C217.854 8.45333 217.634 8.24 217.354 8.08C217.074 7.92 216.714 7.84 216.274 7.84C215.528 7.84 214.914 8.12667 214.434 8.7C213.968 9.26 213.734 10.0133 213.734 10.96V16H211.854V8.56C211.854 8.30667 211.848 7.98 211.834 7.58C211.821 7.18 211.801 6.82667 211.774 6.52H213.554ZM228.135 8.06H225.615V13C225.615 13.5733 225.722 13.9867 225.935 14.24C226.148 14.48 226.488 14.6 226.955 14.6C227.128 14.6 227.315 14.58 227.515 14.54C227.715 14.5 227.895 14.44 228.055 14.36L228.115 15.9C227.888 15.98 227.635 16.04 227.355 16.08C227.088 16.1333 226.808 16.16 226.515 16.16C225.622 16.16 224.935 15.9133 224.455 15.42C223.988 14.9267 223.755 14.1867 223.755 13.2V8.06H221.935V6.52H223.755V3.8H225.615V6.52H228.135V8.06Z" fill="#4F4F4F"/>
    <path d="M9.072 46H0.918V44.65L6.138 39.376C6.33 39.184 6.516 38.98 6.696 38.764C6.888 38.536 7.056 38.302 7.2 38.062C7.344 37.822 7.458 37.57 7.542 37.306C7.626 37.03 7.668 36.748 7.668 36.46C7.668 36.088 7.602 35.752 7.47 35.452C7.338 35.152 7.152 34.9 6.912 34.696C6.684 34.48 6.414 34.318 6.102 34.21C5.802 34.09 5.484 34.03 5.148 34.03C4.464 34.03 3.888 34.246 3.42 34.678C2.952 35.098 2.652 35.638 2.52 36.298L1.242 36.046C1.326 35.602 1.482 35.188 1.71 34.804C1.95 34.42 2.238 34.09 2.574 33.814C2.922 33.538 3.312 33.322 3.744 33.166C4.176 33.01 4.644 32.932 5.148 32.932C5.664 32.932 6.15 33.01 6.606 33.166C7.074 33.31 7.482 33.532 7.83 33.832C8.178 34.12 8.454 34.486 8.658 34.93C8.874 35.362 8.982 35.866 8.982 36.442C8.982 36.85 8.922 37.228 8.802 37.576C8.694 37.924 8.544 38.254 8.352 38.566C8.172 38.878 7.956 39.178 7.704 39.466C7.452 39.742 7.188 40.018 6.912 40.294L2.322 44.848H9.072V46ZM19.4054 34.444L14.2754 46H12.8174L18.0914 34.408H11.8454V33.256H19.4054V34.444ZM24.1948 45.136C24.1948 45.388 24.1048 45.616 23.9248 45.82C23.7448 46.012 23.5108 46.108 23.2228 46.108C22.9348 46.108 22.7008 46.012 22.5208 45.82C22.3408 45.616 22.2508 45.388 22.2508 45.136C22.2508 44.884 22.3408 44.662 22.5208 44.47C22.7008 44.266 22.9348 44.164 23.2228 44.164C23.5108 44.164 23.7448 44.266 23.9248 44.47C24.1048 44.662 24.1948 44.884 24.1948 45.136ZM34.6306 46H26.4766V44.65L31.6966 39.376C31.8886 39.184 32.0746 38.98 32.2546 38.764C32.4466 38.536 32.6146 38.302 32.7586 38.062C32.9026 37.822 33.0166 37.57 33.1006 37.306C33.1846 37.03 33.2266 36.748 33.2266 36.46C33.2266 36.088 33.1606 35.752 33.0286 35.452C32.8966 35.152 32.7106 34.9 32.4706 34.696C32.2426 34.48 31.9726 34.318 31.6606 34.21C31.3606 34.09 31.0426 34.03 30.7066 34.03C30.0226 34.03 29.4466 34.246 28.9786 34.678C28.5106 35.098 28.2106 35.638 28.0786 36.298L26.8006 36.046C26.8846 35.602 27.0406 35.188 27.2686 34.804C27.5086 34.42 27.7966 34.09 28.1326 33.814C28.4806 33.538 28.8706 33.322 29.3026 33.166C29.7346 33.01 30.2026 32.932 30.7066 32.932C31.2226 32.932 31.7086 33.01 32.1646 33.166C32.6326 33.31 33.0406 33.532 33.3886 33.832C33.7366 34.12 34.0126 34.486 34.2166 34.93C34.4326 35.362 34.5406 35.866 34.5406 36.442C34.5406 36.85 34.4806 37.228 34.3606 37.576C34.2526 37.924 34.1026 38.254 33.9106 38.566C33.7306 38.878 33.5146 39.178 33.2626 39.466C33.0106 39.742 32.7466 40.018 32.4706 40.294L27.8806 44.848H34.6306V46ZM43.02 36.19C43.02 36.634 42.936 37.048 42.768 37.432C42.612 37.816 42.39 38.152 42.102 38.44C41.814 38.716 41.478 38.938 41.094 39.106C40.71 39.262 40.296 39.34 39.852 39.34C39.408 39.34 38.994 39.262 38.61 39.106C38.226 38.938 37.89 38.716 37.602 38.44C37.314 38.152 37.086 37.816 36.918 37.432C36.762 37.048 36.684 36.634 36.684 36.19C36.684 35.746 36.762 35.332 36.918 34.948C37.086 34.564 37.314 34.234 37.602 33.958C37.89 33.67 38.226 33.448 38.61 33.292C38.994 33.124 39.408 33.04 39.852 33.04C40.296 33.04 40.71 33.124 41.094 33.292C41.478 33.448 41.814 33.67 42.102 33.958C42.39 34.234 42.612 34.564 42.768 34.948C42.936 35.332 43.02 35.746 43.02 36.19ZM41.94 36.19C41.94 35.89 41.88 35.614 41.76 35.362C41.652 35.11 41.502 34.894 41.31 34.714C41.13 34.522 40.914 34.378 40.662 34.282C40.41 34.174 40.14 34.12 39.852 34.12C39.564 34.12 39.294 34.174 39.042 34.282C38.79 34.378 38.568 34.522 38.376 34.714C38.196 34.894 38.046 35.11 37.926 35.362C37.818 35.614 37.764 35.89 37.764 36.19C37.764 36.49 37.818 36.766 37.926 37.018C38.046 37.27 38.196 37.492 38.376 37.684C38.568 37.864 38.79 38.008 39.042 38.116C39.294 38.212 39.564 38.26 39.852 38.26C40.14 38.26 40.41 38.212 40.662 38.116C40.914 38.008 41.13 37.864 41.31 37.684C41.502 37.492 41.652 37.27 41.76 37.018C41.88 36.766 41.94 36.49 41.94 36.19ZM50.31 43.066C50.31 43.51 50.226 43.924 50.058 44.308C49.902 44.692 49.68 45.028 49.392 45.316C49.104 45.592 48.768 45.814 48.384 45.982C48 46.138 47.586 46.216 47.142 46.216C46.698 46.216 46.284 46.138 45.9 45.982C45.516 45.814 45.18 45.592 44.892 45.316C44.604 45.028 44.376 44.692 44.208 44.308C44.052 43.924 43.974 43.51 43.974 43.066C43.974 42.622 44.052 42.208 44.208 41.824C44.376 41.44 44.604 41.11 44.892 40.834C45.18 40.546 45.516 40.324 45.9 40.168C46.284 40 46.698 39.916 47.142 39.916C47.586 39.916 48 40 48.384 40.168C48.768 40.324 49.104 40.546 49.392 40.834C49.68 41.11 49.902 41.44 50.058 41.824C50.226 42.208 50.31 42.622 50.31 43.066ZM49.23 43.066C49.23 42.766 49.17 42.49 49.05 42.238C48.942 41.986 48.792 41.77 48.6 41.59C48.42 41.398 48.204 41.254 47.952 41.158C47.7 41.05 47.43 40.996 47.142 40.996C46.854 40.996 46.584 41.05 46.332 41.158C46.08 41.254 45.858 41.398 45.666 41.59C45.486 41.77 45.336 41.986 45.216 42.238C45.108 42.49 45.054 42.766 45.054 43.066C45.054 43.366 45.108 43.642 45.216 43.894C45.336 44.146 45.486 44.368 45.666 44.56C45.858 44.74 46.08 44.884 46.332 44.992C46.584 45.088 46.854 45.136 47.142 45.136C47.43 45.136 47.7 45.088 47.952 44.992C48.204 44.884 48.42 44.74 48.6 44.56C48.792 44.368 48.942 44.146 49.05 43.894C49.17 43.642 49.23 43.366 49.23 43.066ZM39.906 46.558L38.97 46.072L47.088 32.698L48.006 33.184L39.906 46.558Z" fill="#4F4F4F"/>
    <rect width="510" height="1" transform="matrix(1 0 0 -1 0 267)" fill="#4F4F4F"/>
    <path d="M13.86 253.8C13.3 254.56 12.5733 255.18 11.68 255.66C10.7867 256.127 9.71333 256.36 8.46 256.36C7.38 256.36 6.38 256.18 5.46 255.82C4.55333 255.447 3.76667 254.933 3.1 254.28C2.44667 253.613 1.93333 252.827 1.56 251.92C1.18667 251 1 249.993 1 248.9C1 247.793 1.18667 246.787 1.56 245.88C1.94667 244.96 2.47333 244.18 3.14 243.54C3.82 242.887 4.62 242.38 5.54 242.02C6.46 241.66 7.46 241.48 8.54 241.48C9.02 241.48 9.50667 241.527 10 241.62C10.4933 241.713 10.9667 241.853 11.42 242.04C11.8733 242.227 12.2867 242.46 12.66 242.74C13.0333 243.007 13.3533 243.32 13.62 243.68L12.06 244.88C11.7133 244.4 11.22 244.007 10.58 243.7C9.95333 243.38 9.27333 243.22 8.54 243.22C7.71333 243.22 6.96667 243.373 6.3 243.68C5.64667 243.973 5.08667 244.38 4.62 244.9C4.15333 245.42 3.79333 246.027 3.54 246.72C3.28667 247.4 3.16 248.127 3.16 248.9C3.16 249.7 3.28 250.447 3.52 251.14C3.77333 251.833 4.12667 252.44 4.58 252.96C5.04667 253.467 5.60667 253.867 6.26 254.16C6.92667 254.453 7.66667 254.6 8.48 254.6C9.28 254.6 10.0067 254.44 10.66 254.12C11.3133 253.8 11.8533 253.333 12.28 252.72L13.86 253.8ZM25.1458 251.24C25.1458 251.973 25.0124 252.647 24.7458 253.26C24.4924 253.873 24.1324 254.407 23.6658 254.86C23.2124 255.3 22.6724 255.647 22.0458 255.9C21.4191 256.14 20.7458 256.26 20.0258 256.26C19.3058 256.26 18.6324 256.14 18.0058 255.9C17.3791 255.647 16.8391 255.3 16.3858 254.86C15.9324 254.407 15.5724 253.873 15.3058 253.26C15.0524 252.647 14.9258 251.973 14.9258 251.24C14.9258 250.507 15.0524 249.84 15.3058 249.24C15.5724 248.627 15.9324 248.1 16.3858 247.66C16.8391 247.22 17.3791 246.88 18.0058 246.64C18.6324 246.387 19.3058 246.26 20.0258 246.26C20.7458 246.26 21.4191 246.387 22.0458 246.64C22.6724 246.88 23.2124 247.22 23.6658 247.66C24.1324 248.1 24.4924 248.627 24.7458 249.24C25.0124 249.84 25.1458 250.507 25.1458 251.24ZM23.1858 251.24C23.1858 250.787 23.1124 250.353 22.9658 249.94C22.8324 249.527 22.6324 249.167 22.3658 248.86C22.0991 248.54 21.7658 248.287 21.3658 248.1C20.9791 247.913 20.5324 247.82 20.0258 247.82C19.5191 247.82 19.0658 247.913 18.6658 248.1C18.2791 248.287 17.9524 248.54 17.6858 248.86C17.4191 249.167 17.2124 249.527 17.0658 249.94C16.9324 250.353 16.8658 250.787 16.8658 251.24C16.8658 251.693 16.9324 252.127 17.0658 252.54C17.2124 252.953 17.4191 253.32 17.6858 253.64C17.9524 253.96 18.2791 254.213 18.6658 254.4C19.0658 254.587 19.5191 254.68 20.0258 254.68C20.5324 254.68 20.9791 254.587 21.3658 254.4C21.7658 254.213 22.0991 253.96 22.3658 253.64C22.6324 253.32 22.8324 252.953 22.9658 252.54C23.1124 252.127 23.1858 251.693 23.1858 251.24ZM29.5928 248.08C29.8328 247.573 30.2128 247.147 30.7328 246.8C31.2661 246.44 31.8928 246.26 32.6128 246.26C33.2528 246.26 33.8261 246.407 34.3328 246.7C34.8528 246.993 35.2595 247.48 35.5528 248.16C35.8728 247.547 36.3195 247.08 36.8928 246.76C37.4661 246.427 38.0928 246.26 38.7728 246.26C39.3861 246.26 39.9128 246.367 40.3528 246.58C40.7928 246.78 41.1595 247.053 41.4528 247.4C41.7461 247.747 41.9595 248.153 42.0928 248.62C42.2395 249.087 42.3128 249.587 42.3128 250.12V256H40.4328V250.74C40.4328 250.353 40.3995 249.987 40.3328 249.64C40.2661 249.293 40.1528 248.987 39.9928 248.72C39.8328 248.453 39.6195 248.24 39.3528 248.08C39.0861 247.92 38.7461 247.84 38.3328 247.84C37.9061 247.84 37.5395 247.933 37.2328 248.12C36.9261 248.293 36.6728 248.527 36.4728 248.82C36.2861 249.1 36.1461 249.42 36.0528 249.78C35.9728 250.14 35.9328 250.507 35.9328 250.88V256H34.0528V250.36C34.0528 249.987 34.0195 249.647 33.9528 249.34C33.8861 249.033 33.7728 248.773 33.6128 248.56C33.4528 248.333 33.2461 248.16 32.9928 248.04C32.7395 247.907 32.4261 247.84 32.0528 247.84C31.3595 247.84 30.7795 248.127 30.3128 248.7C29.8595 249.26 29.6328 250.013 29.6328 250.96V256H27.7528V248.56C27.7528 248.307 27.7461 247.98 27.7328 247.58C27.7195 247.18 27.6995 246.827 27.6728 246.52H29.4528C29.4795 246.76 29.4995 247.033 29.5128 247.34C29.5261 247.633 29.5328 247.88 29.5328 248.08H29.5928ZM47.3272 248.08C47.5672 247.573 47.9472 247.147 48.4672 246.8C49.0005 246.44 49.6272 246.26 50.3472 246.26C50.9872 246.26 51.5605 246.407 52.0672 246.7C52.5872 246.993 52.9939 247.48 53.2872 248.16C53.6072 247.547 54.0539 247.08 54.6272 246.76C55.2005 246.427 55.8272 246.26 56.5072 246.26C57.1205 246.26 57.6472 246.367 58.0872 246.58C58.5272 246.78 58.8939 247.053 59.1872 247.4C59.4805 247.747 59.6939 248.153 59.8272 248.62C59.9739 249.087 60.0472 249.587 60.0472 250.12V256H58.1672V250.74C58.1672 250.353 58.1339 249.987 58.0672 249.64C58.0005 249.293 57.8872 248.987 57.7272 248.72C57.5672 248.453 57.3539 248.24 57.0872 248.08C56.8205 247.92 56.4805 247.84 56.0672 247.84C55.6405 247.84 55.2739 247.933 54.9672 248.12C54.6605 248.293 54.4072 248.527 54.2072 248.82C54.0205 249.1 53.8805 249.42 53.7872 249.78C53.7072 250.14 53.6672 250.507 53.6672 250.88V256H51.7872V250.36C51.7872 249.987 51.7539 249.647 51.6872 249.34C51.6205 249.033 51.5072 248.773 51.3472 248.56C51.1872 248.333 50.9805 248.16 50.7272 248.04C50.4739 247.907 50.1605 247.84 49.7872 247.84C49.0939 247.84 48.5139 248.127 48.0472 248.7C47.5939 249.26 47.3672 250.013 47.3672 250.96V256H45.4872V248.56C45.4872 248.307 45.4805 247.98 45.4672 247.58C45.4539 247.18 45.4339 246.827 45.4072 246.52H47.1872C47.2139 246.76 47.2339 247.033 47.2472 247.34C47.2605 247.633 47.2672 247.88 47.2672 248.08H47.3272ZM69.9016 256C69.8749 255.76 69.8549 255.493 69.8416 255.2C69.8282 254.893 69.8216 254.64 69.8216 254.44H69.7816C69.5416 254.947 69.1349 255.38 68.5616 255.74C68.0016 256.087 67.3749 256.26 66.6816 256.26C66.0682 256.26 65.5349 256.16 65.0816 255.96C64.6416 255.76 64.2749 255.487 63.9816 255.14C63.7016 254.78 63.4882 254.367 63.3416 253.9C63.2082 253.433 63.1416 252.933 63.1416 252.4V246.52H65.0216V251.76C65.0216 252.147 65.0482 252.52 65.1016 252.88C65.1682 253.227 65.2816 253.533 65.4416 253.8C65.6016 254.067 65.8216 254.28 66.1016 254.44C66.3816 254.6 66.7416 254.68 67.1816 254.68C67.9416 254.68 68.5549 254.4 69.0216 253.84C69.4882 253.267 69.7216 252.507 69.7216 251.56V246.52H71.6016V253.96C71.6016 254.213 71.6082 254.54 71.6216 254.94C71.6349 255.34 71.6549 255.693 71.6816 256H69.9016ZM76.5622 246.52C76.5889 246.76 76.6089 247.033 76.6222 247.34C76.6355 247.633 76.6422 247.88 76.6422 248.08H76.7022C76.8222 247.827 76.9822 247.593 77.1822 247.38C77.3955 247.153 77.6355 246.96 77.9022 246.8C78.1689 246.627 78.4622 246.493 78.7822 246.4C79.1022 246.307 79.4355 246.26 79.7822 246.26C80.3955 246.26 80.9222 246.367 81.3622 246.58C81.8022 246.78 82.1689 247.053 82.4622 247.4C82.7555 247.747 82.9689 248.153 83.1022 248.62C83.2489 249.087 83.3222 249.587 83.3222 250.12V256H81.4422V250.74C81.4422 250.353 81.4089 249.987 81.3422 249.64C81.2889 249.293 81.1822 248.987 81.0222 248.72C80.8622 248.453 80.6422 248.24 80.3622 248.08C80.0822 247.92 79.7222 247.84 79.2822 247.84C78.5355 247.84 77.9222 248.127 77.4422 248.7C76.9755 249.26 76.7422 250.013 76.7422 250.96V256H74.8622V248.56C74.8622 248.307 74.8555 247.98 74.8422 247.58C74.8289 247.18 74.8089 246.827 74.7822 246.52H76.5622ZM88.4028 256H86.5228V246.52H88.4028V256ZM88.7228 243.1C88.7228 243.447 88.5961 243.733 88.3428 243.96C88.1028 244.187 87.8095 244.3 87.4628 244.3C87.1161 244.3 86.8228 244.187 86.5828 243.96C86.3428 243.72 86.2228 243.433 86.2228 243.1C86.2228 242.753 86.3428 242.467 86.5828 242.24C86.8228 242 87.1161 241.88 87.4628 241.88C87.8095 241.88 88.1028 242 88.3428 242.24C88.5961 242.467 88.7228 242.753 88.7228 243.1ZM96.3186 248.06H93.7986V253C93.7986 253.573 93.9053 253.987 94.1186 254.24C94.3319 254.48 94.6719 254.6 95.1386 254.6C95.3119 254.6 95.4986 254.58 95.6986 254.54C95.8986 254.5 96.0786 254.44 96.2386 254.36L96.2986 255.9C96.0719 255.98 95.8186 256.04 95.5386 256.08C95.2719 256.133 94.9919 256.16 94.6986 256.16C93.8053 256.16 93.1186 255.913 92.6386 255.42C92.1719 254.927 91.9386 254.187 91.9386 253.2V248.06H90.1186V246.52H91.9386V243.8H93.7986V246.52H96.3186V248.06ZM101.861 253.96H101.901L104.521 246.52H106.521L101.921 258.24C101.761 258.64 101.587 258.993 101.401 259.3C101.214 259.62 100.994 259.887 100.741 260.1C100.487 260.327 100.187 260.5 99.8406 260.62C99.5073 260.74 99.1073 260.8 98.6406 260.8C98.4406 260.8 98.234 260.787 98.0206 260.76C97.8206 260.747 97.614 260.713 97.4006 260.66L97.5806 259C97.9006 259.107 98.214 259.16 98.5206 259.16C99.014 259.16 99.3806 259.02 99.6206 258.74C99.8606 258.473 100.081 258.087 100.281 257.58L100.881 256L96.8206 246.52H98.9206L101.861 253.96ZM115.419 256H113.439V241.84H117.979C118.659 241.84 119.305 241.913 119.919 242.06C120.532 242.193 121.065 242.413 121.519 242.72C121.985 243.027 122.352 243.433 122.619 243.94C122.885 244.433 123.019 245.04 123.019 245.76C123.019 246.8 122.699 247.64 122.059 248.28C121.419 248.92 120.592 249.327 119.579 249.5L123.539 256H121.139L117.539 249.7H115.419V256ZM115.419 248.04H117.699C118.165 248.04 118.599 248 118.999 247.92C119.399 247.84 119.745 247.713 120.039 247.54C120.345 247.353 120.585 247.12 120.759 246.84C120.932 246.547 121.019 246.187 121.019 245.76C121.019 245.333 120.932 244.98 120.759 244.7C120.585 244.407 120.352 244.173 120.059 244C119.779 243.827 119.445 243.707 119.059 243.64C118.672 243.56 118.265 243.52 117.839 243.52H115.419V248.04ZM132.33 250.42C132.316 250.047 132.25 249.7 132.13 249.38C132.023 249.047 131.856 248.76 131.63 248.52C131.416 248.28 131.143 248.093 130.81 247.96C130.49 247.813 130.11 247.74 129.67 247.74C129.27 247.74 128.89 247.813 128.53 247.96C128.183 248.093 127.876 248.28 127.61 248.52C127.356 248.76 127.143 249.047 126.97 249.38C126.81 249.7 126.716 250.047 126.69 250.42H132.33ZM134.23 251.18C134.23 251.287 134.23 251.393 134.23 251.5C134.23 251.607 134.223 251.713 134.21 251.82H126.69C126.703 252.22 126.79 252.6 126.95 252.96C127.123 253.307 127.35 253.613 127.63 253.88C127.91 254.133 128.23 254.333 128.59 254.48C128.963 254.627 129.356 254.7 129.77 254.7C130.41 254.7 130.963 254.56 131.43 254.28C131.896 254 132.263 253.66 132.53 253.26L133.85 254.32C133.343 254.987 132.743 255.48 132.05 255.8C131.37 256.107 130.61 256.26 129.77 256.26C129.05 256.26 128.383 256.14 127.77 255.9C127.156 255.66 126.63 255.327 126.19 254.9C125.75 254.46 125.403 253.933 125.15 253.32C124.896 252.707 124.77 252.027 124.77 251.28C124.77 250.547 124.89 249.873 125.13 249.26C125.383 248.633 125.73 248.1 126.17 247.66C126.61 247.22 127.13 246.88 127.73 246.64C128.33 246.387 128.976 246.26 129.67 246.26C130.363 246.26 130.99 246.373 131.55 246.6C132.123 246.827 132.603 247.153 132.99 247.58C133.39 248.007 133.696 248.527 133.91 249.14C134.123 249.74 134.23 250.42 134.23 251.18ZM137.554 246.52L139.694 253.76H139.734L141.994 246.52H143.974L146.274 253.76H146.314L148.454 246.52H150.434L147.294 256H145.334L142.994 248.88H142.954L140.634 256H138.674L135.514 246.52H137.554ZM158.223 249.86C158.223 249.153 158.01 248.633 157.583 248.3C157.156 247.953 156.59 247.78 155.883 247.78C155.35 247.78 154.843 247.887 154.363 248.1C153.896 248.3 153.503 248.56 153.183 248.88L152.183 247.68C152.65 247.24 153.216 246.893 153.883 246.64C154.563 246.387 155.29 246.26 156.063 246.26C156.743 246.26 157.33 246.36 157.823 246.56C158.33 246.747 158.743 247.007 159.063 247.34C159.383 247.673 159.623 248.067 159.783 248.52C159.943 248.973 160.023 249.46 160.023 249.98V254.12C160.023 254.44 160.03 254.78 160.043 255.14C160.07 255.487 160.11 255.773 160.163 256H158.463C158.356 255.547 158.303 255.093 158.303 254.64H158.243C157.896 255.147 157.456 255.54 156.923 255.82C156.403 256.1 155.783 256.24 155.063 256.24C154.69 256.24 154.296 256.187 153.883 256.08C153.483 255.987 153.116 255.827 152.783 255.6C152.45 255.373 152.17 255.073 151.943 254.7C151.73 254.327 151.623 253.867 151.623 253.32C151.623 252.6 151.816 252.033 152.203 251.62C152.59 251.193 153.096 250.873 153.723 250.66C154.35 250.433 155.056 250.287 155.843 250.22C156.63 250.153 157.423 250.12 158.223 250.12V249.86ZM157.763 251.48C157.296 251.48 156.81 251.5 156.303 251.54C155.81 251.58 155.356 251.66 154.943 251.78C154.543 251.9 154.21 252.08 153.943 252.32C153.676 252.56 153.543 252.88 153.543 253.28C153.543 253.56 153.596 253.793 153.703 253.98C153.823 254.167 153.976 254.32 154.163 254.44C154.35 254.56 154.556 254.647 154.783 254.7C155.01 254.74 155.243 254.76 155.483 254.76C156.363 254.76 157.036 254.5 157.503 253.98C157.983 253.447 158.223 252.78 158.223 251.98V251.48H157.763ZM163.163 248.56C163.163 248.307 163.156 247.98 163.143 247.58C163.13 247.18 163.11 246.827 163.083 246.52H164.863C164.89 246.76 164.91 247.04 164.923 247.36C164.936 247.667 164.943 247.92 164.943 248.12H165.003C165.27 247.56 165.656 247.113 166.163 246.78C166.683 246.433 167.263 246.26 167.903 246.26C168.196 246.26 168.443 246.287 168.643 246.34L168.563 248.08C168.296 248.013 168.01 247.98 167.703 247.98C167.25 247.98 166.856 248.067 166.523 248.24C166.19 248.4 165.91 248.62 165.683 248.9C165.47 249.18 165.31 249.507 165.203 249.88C165.096 250.24 165.043 250.62 165.043 251.02V256H163.163V248.56ZM177.618 254.5C177.258 255.073 176.764 255.513 176.138 255.82C175.524 256.113 174.878 256.26 174.198 256.26C173.464 256.26 172.804 256.133 172.218 255.88C171.631 255.613 171.131 255.253 170.718 254.8C170.304 254.347 169.984 253.813 169.757 253.2C169.531 252.587 169.418 251.933 169.418 251.24C169.418 250.547 169.531 249.9 169.757 249.3C169.984 248.687 170.304 248.153 170.718 247.7C171.144 247.247 171.651 246.893 172.238 246.64C172.824 246.387 173.471 246.26 174.178 246.26C174.951 246.26 175.624 246.427 176.198 246.76C176.771 247.08 177.224 247.473 177.558 247.94H177.598V240.88H179.478V256H177.658V254.5H177.618ZM171.377 251.24C171.377 251.68 171.444 252.107 171.578 252.52C171.711 252.933 171.911 253.3 172.178 253.62C172.444 253.94 172.771 254.2 173.158 254.4C173.544 254.587 173.998 254.68 174.518 254.68C174.998 254.68 175.431 254.587 175.818 254.4C176.218 254.213 176.558 253.967 176.838 253.66C177.118 253.34 177.331 252.973 177.478 252.56C177.638 252.147 177.718 251.713 177.718 251.26C177.718 250.807 177.638 250.373 177.478 249.96C177.331 249.547 177.118 249.18 176.838 248.86C176.558 248.54 176.218 248.287 175.818 248.1C175.431 247.913 174.998 247.82 174.518 247.82C173.998 247.82 173.544 247.913 173.158 248.1C172.771 248.287 172.444 248.54 172.178 248.86C171.911 249.18 171.711 249.547 171.578 249.96C171.444 250.373 171.377 250.8 171.377 251.24ZM187.873 248.92C187.659 248.573 187.359 248.293 186.973 248.08C186.586 247.853 186.153 247.74 185.673 247.74C185.459 247.74 185.246 247.767 185.033 247.82C184.819 247.86 184.626 247.933 184.453 248.04C184.293 248.133 184.159 248.26 184.053 248.42C183.959 248.567 183.913 248.753 183.913 248.98C183.913 249.38 184.093 249.68 184.453 249.88C184.813 250.067 185.353 250.24 186.073 250.4C186.526 250.507 186.946 250.633 187.333 250.78C187.719 250.927 188.053 251.113 188.333 251.34C188.626 251.553 188.853 251.813 189.013 252.12C189.173 252.427 189.253 252.787 189.253 253.2C189.253 253.76 189.146 254.233 188.933 254.62C188.719 255.007 188.433 255.327 188.073 255.58C187.726 255.82 187.326 255.993 186.873 256.1C186.419 256.207 185.953 256.26 185.473 256.26C184.753 256.26 184.046 256.12 183.353 255.84C182.673 255.56 182.106 255.133 181.653 254.56L182.993 253.42C183.246 253.793 183.593 254.107 184.033 254.36C184.486 254.613 184.979 254.74 185.513 254.74C185.753 254.74 185.979 254.72 186.193 254.68C186.419 254.627 186.619 254.547 186.793 254.44C186.979 254.333 187.126 254.193 187.233 254.02C187.339 253.847 187.393 253.627 187.393 253.36C187.393 252.92 187.179 252.593 186.753 252.38C186.339 252.167 185.726 251.967 184.913 251.78C184.593 251.7 184.266 251.607 183.933 251.5C183.613 251.38 183.319 251.22 183.053 251.02C182.786 250.82 182.566 250.573 182.393 250.28C182.233 249.973 182.153 249.6 182.153 249.16C182.153 248.653 182.253 248.22 182.453 247.86C182.666 247.487 182.939 247.187 183.273 246.96C183.606 246.72 183.986 246.547 184.413 246.44C184.839 246.32 185.279 246.26 185.733 246.26C186.413 246.26 187.066 246.393 187.693 246.66C188.333 246.927 188.826 247.313 189.173 247.82L187.873 248.92ZM198.72 256H196.74V241.84H201.28C201.96 241.84 202.606 241.913 203.22 242.06C203.833 242.193 204.366 242.413 204.82 242.72C205.286 243.027 205.653 243.433 205.92 243.94C206.186 244.433 206.32 245.04 206.32 245.76C206.32 246.8 206 247.64 205.36 248.28C204.72 248.92 203.893 249.327 202.88 249.5L206.84 256H204.44L200.84 249.7H198.72V256ZM198.72 248.04H201C201.466 248.04 201.9 248 202.3 247.92C202.7 247.84 203.046 247.713 203.34 247.54C203.646 247.353 203.886 247.12 204.06 246.84C204.233 246.547 204.32 246.187 204.32 245.76C204.32 245.333 204.233 244.98 204.06 244.7C203.886 244.407 203.653 244.173 203.36 244C203.08 243.827 202.746 243.707 202.36 243.64C201.973 243.56 201.566 243.52 201.14 243.52H198.72V248.04ZM215.63 250.42C215.617 250.047 215.55 249.7 215.43 249.38C215.324 249.047 215.157 248.76 214.93 248.52C214.717 248.28 214.444 248.093 214.11 247.96C213.79 247.813 213.41 247.74 212.97 247.74C212.57 247.74 212.19 247.813 211.83 247.96C211.484 248.093 211.177 248.28 210.91 248.52C210.657 248.76 210.444 249.047 210.27 249.38C210.11 249.7 210.017 250.047 209.99 250.42H215.63ZM217.53 251.18C217.53 251.287 217.53 251.393 217.53 251.5C217.53 251.607 217.524 251.713 217.51 251.82H209.99C210.004 252.22 210.09 252.6 210.25 252.96C210.424 253.307 210.65 253.613 210.93 253.88C211.21 254.133 211.53 254.333 211.89 254.48C212.264 254.627 212.657 254.7 213.07 254.7C213.71 254.7 214.264 254.56 214.73 254.28C215.197 254 215.564 253.66 215.83 253.26L217.15 254.32C216.644 254.987 216.044 255.48 215.35 255.8C214.67 256.107 213.91 256.26 213.07 256.26C212.35 256.26 211.684 256.14 211.07 255.9C210.457 255.66 209.93 255.327 209.49 254.9C209.05 254.46 208.704 253.933 208.45 253.32C208.197 252.707 208.07 252.027 208.07 251.28C208.07 250.547 208.19 249.873 208.43 249.26C208.684 248.633 209.03 248.1 209.47 247.66C209.91 247.22 210.43 246.88 211.03 246.64C211.63 246.387 212.277 246.26 212.97 246.26C213.664 246.26 214.29 246.373 214.85 246.6C215.424 246.827 215.904 247.153 216.29 247.58C216.69 248.007 216.997 248.527 217.21 249.14C217.424 249.74 217.53 250.42 217.53 251.18ZM225.275 248.92C225.062 248.573 224.762 248.293 224.375 248.08C223.988 247.853 223.555 247.74 223.075 247.74C222.862 247.74 222.648 247.767 222.435 247.82C222.222 247.86 222.028 247.933 221.855 248.04C221.695 248.133 221.562 248.26 221.455 248.42C221.362 248.567 221.315 248.753 221.315 248.98C221.315 249.38 221.495 249.68 221.855 249.88C222.215 250.067 222.755 250.24 223.475 250.4C223.928 250.507 224.348 250.633 224.735 250.78C225.122 250.927 225.455 251.113 225.735 251.34C226.028 251.553 226.255 251.813 226.415 252.12C226.575 252.427 226.655 252.787 226.655 253.2C226.655 253.76 226.548 254.233 226.335 254.62C226.122 255.007 225.835 255.327 225.475 255.58C225.128 255.82 224.728 255.993 224.275 256.1C223.822 256.207 223.355 256.26 222.875 256.26C222.155 256.26 221.448 256.12 220.755 255.84C220.075 255.56 219.508 255.133 219.055 254.56L220.395 253.42C220.648 253.793 220.995 254.107 221.435 254.36C221.888 254.613 222.382 254.74 222.915 254.74C223.155 254.74 223.382 254.72 223.595 254.68C223.822 254.627 224.022 254.547 224.195 254.44C224.382 254.333 224.528 254.193 224.635 254.02C224.742 253.847 224.795 253.627 224.795 253.36C224.795 252.92 224.582 252.593 224.155 252.38C223.742 252.167 223.128 251.967 222.315 251.78C221.995 251.7 221.668 251.607 221.335 251.5C221.015 251.38 220.722 251.22 220.455 251.02C220.188 250.82 219.968 250.573 219.795 250.28C219.635 249.973 219.555 249.6 219.555 249.16C219.555 248.653 219.655 248.22 219.855 247.86C220.068 247.487 220.342 247.187 220.675 246.96C221.008 246.72 221.388 246.547 221.815 246.44C222.242 246.32 222.682 246.26 223.135 246.26C223.815 246.26 224.468 246.393 225.095 246.66C225.735 246.927 226.228 247.313 226.575 247.82L225.275 248.92ZM235.982 250.42C235.969 250.047 235.902 249.7 235.782 249.38C235.675 249.047 235.509 248.76 235.282 248.52C235.069 248.28 234.795 248.093 234.462 247.96C234.142 247.813 233.762 247.74 233.322 247.74C232.922 247.74 232.542 247.813 232.182 247.96C231.835 248.093 231.529 248.28 231.262 248.52C231.009 248.76 230.795 249.047 230.622 249.38C230.462 249.7 230.369 250.047 230.342 250.42H235.982ZM237.882 251.18C237.882 251.287 237.882 251.393 237.882 251.5C237.882 251.607 237.875 251.713 237.862 251.82H230.342C230.355 252.22 230.442 252.6 230.602 252.96C230.775 253.307 231.002 253.613 231.282 253.88C231.562 254.133 231.882 254.333 232.242 254.48C232.615 254.627 233.009 254.7 233.422 254.7C234.062 254.7 234.615 254.56 235.082 254.28C235.549 254 235.915 253.66 236.182 253.26L237.502 254.32C236.995 254.987 236.395 255.48 235.702 255.8C235.022 256.107 234.262 256.26 233.422 256.26C232.702 256.26 232.035 256.14 231.422 255.9C230.809 255.66 230.282 255.327 229.842 254.9C229.402 254.46 229.055 253.933 228.802 253.32C228.549 252.707 228.422 252.027 228.422 251.28C228.422 250.547 228.542 249.873 228.782 249.26C229.035 248.633 229.382 248.1 229.822 247.66C230.262 247.22 230.782 246.88 231.382 246.64C231.982 246.387 232.629 246.26 233.322 246.26C234.015 246.26 234.642 246.373 235.202 246.6C235.775 246.827 236.255 247.153 236.642 247.58C237.042 248.007 237.349 248.527 237.562 249.14C237.775 249.74 237.882 250.42 237.882 251.18ZM240.507 248.56C240.507 248.307 240.5 247.98 240.487 247.58C240.473 247.18 240.453 246.827 240.427 246.52H242.207C242.233 246.76 242.253 247.04 242.267 247.36C242.28 247.667 242.287 247.92 242.287 248.12H242.347C242.613 247.56 243 247.113 243.507 246.78C244.027 246.433 244.607 246.26 245.247 246.26C245.54 246.26 245.787 246.287 245.987 246.34L245.907 248.08C245.64 248.013 245.353 247.98 245.047 247.98C244.593 247.98 244.2 248.067 243.867 248.24C243.533 248.4 243.253 248.62 243.027 248.9C242.813 249.18 242.653 249.507 242.547 249.88C242.44 250.24 242.387 250.62 242.387 251.02V256H240.507V248.56ZM252.213 256H250.173L246.313 246.52H248.393L251.173 253.98H251.213L254.013 246.52H256.013L252.213 256ZM264.771 250.42C264.758 250.047 264.691 249.7 264.571 249.38C264.464 249.047 264.298 248.76 264.071 248.52C263.858 248.28 263.584 248.093 263.251 247.96C262.931 247.813 262.551 247.74 262.111 247.74C261.711 247.74 261.331 247.813 260.971 247.96C260.624 248.093 260.318 248.28 260.051 248.52C259.798 248.76 259.584 249.047 259.411 249.38C259.251 249.7 259.158 250.047 259.131 250.42H264.771ZM266.671 251.18C266.671 251.287 266.671 251.393 266.671 251.5C266.671 251.607 266.664 251.713 266.651 251.82H259.131C259.144 252.22 259.231 252.6 259.391 252.96C259.564 253.307 259.791 253.613 260.071 253.88C260.351 254.133 260.671 254.333 261.031 254.48C261.404 254.627 261.798 254.7 262.211 254.7C262.851 254.7 263.404 254.56 263.871 254.28C264.338 254 264.704 253.66 264.971 253.26L266.291 254.32C265.784 254.987 265.184 255.48 264.491 255.8C263.811 256.107 263.051 256.26 262.211 256.26C261.491 256.26 260.824 256.14 260.211 255.9C259.598 255.66 259.071 255.327 258.631 254.9C258.191 254.46 257.844 253.933 257.591 253.32C257.338 252.707 257.211 252.027 257.211 251.28C257.211 250.547 257.331 249.873 257.571 249.26C257.824 248.633 258.171 248.1 258.611 247.66C259.051 247.22 259.571 246.88 260.171 246.64C260.771 246.387 261.418 246.26 262.111 246.26C262.804 246.26 263.431 246.373 263.991 246.6C264.564 246.827 265.044 247.153 265.431 247.58C265.831 248.007 266.138 248.527 266.351 249.14C266.564 249.74 266.671 250.42 266.671 251.18Z" fill="#4F4F4F"/>
    <path d="M6.444 286H5.148V274.858L2.844 276.82L2.052 275.92L5.292 273.256H6.444V286ZM16.8854 286H15.5894V274.858L13.2854 276.82L12.4934 275.92L15.7334 273.256H16.8854V286ZM24.1948 285.136C24.1948 285.388 24.1048 285.616 23.9248 285.82C23.7448 286.012 23.5108 286.108 23.2228 286.108C22.9348 286.108 22.7008 286.012 22.5208 285.82C22.3408 285.616 22.2508 285.388 22.2508 285.136C22.2508 284.884 22.3408 284.662 22.5208 284.47C22.7008 284.266 22.9348 284.164 23.2228 284.164C23.5108 284.164 23.7448 284.266 23.9248 284.47C24.1048 284.662 24.1948 284.884 24.1948 285.136ZM32.4526 279.25C33.1486 279.454 33.7246 279.856 34.1806 280.456C34.6366 281.056 34.8646 281.788 34.8646 282.652C34.8646 283.216 34.7506 283.726 34.5226 284.182C34.3066 284.626 34.0126 285.01 33.6406 285.334C33.2686 285.646 32.8306 285.886 32.3266 286.054C31.8346 286.234 31.3186 286.324 30.7786 286.324C30.2386 286.324 29.7166 286.234 29.2126 286.054C28.7206 285.886 28.2886 285.646 27.9166 285.334C27.5446 285.01 27.2446 284.626 27.0166 284.182C26.8006 283.726 26.6926 283.216 26.6926 282.652C26.6926 282.22 26.7526 281.824 26.8726 281.464C26.9926 281.092 27.1606 280.762 27.3766 280.474C27.5926 280.174 27.8446 279.922 28.1326 279.718C28.4326 279.514 28.7566 279.358 29.1046 279.25V279.214C28.8166 279.118 28.5526 278.98 28.3126 278.8C28.0846 278.608 27.8866 278.386 27.7186 278.134C27.5506 277.87 27.4186 277.588 27.3226 277.288C27.2266 276.976 27.1786 276.658 27.1786 276.334C27.1786 275.818 27.2746 275.35 27.4666 274.93C27.6586 274.51 27.9166 274.156 28.2406 273.868C28.5766 273.568 28.9606 273.34 29.3926 273.184C29.8246 273.016 30.2866 272.932 30.7786 272.932C31.2586 272.932 31.7146 273.016 32.1466 273.184C32.5906 273.34 32.9746 273.568 33.2986 273.868C33.6346 274.156 33.8986 274.51 34.0906 274.93C34.2826 275.35 34.3786 275.818 34.3786 276.334C34.3786 276.658 34.3306 276.976 34.2346 277.288C34.1386 277.588 34.0066 277.87 33.8386 278.134C33.6706 278.386 33.4666 278.608 33.2266 278.8C32.9986 278.98 32.7406 279.118 32.4526 279.214V279.25ZM28.4386 276.406C28.4386 276.742 28.4986 277.048 28.6186 277.324C28.7386 277.6 28.9066 277.84 29.1226 278.044C29.3386 278.248 29.5846 278.41 29.8606 278.53C30.1486 278.638 30.4546 278.692 30.7786 278.692C31.1026 278.692 31.4026 278.638 31.6786 278.53C31.9666 278.41 32.2186 278.248 32.4346 278.044C32.6506 277.84 32.8186 277.6 32.9386 277.324C33.0586 277.048 33.1186 276.742 33.1186 276.406C33.1186 276.07 33.0586 275.758 32.9386 275.47C32.8186 275.17 32.6506 274.918 32.4346 274.714C32.2306 274.498 31.9846 274.33 31.6966 274.21C31.4206 274.09 31.1146 274.03 30.7786 274.03C30.4426 274.03 30.1306 274.09 29.8426 274.21C29.5666 274.33 29.3206 274.498 29.1046 274.714C28.9006 274.918 28.7386 275.17 28.6186 275.47C28.4986 275.758 28.4386 276.07 28.4386 276.406ZM27.9886 282.508C27.9886 282.892 28.0546 283.252 28.1866 283.588C28.3186 283.924 28.5046 284.212 28.7446 284.452C28.9966 284.692 29.2906 284.884 29.6266 285.028C29.9746 285.16 30.3586 285.226 30.7786 285.226C31.1986 285.226 31.5766 285.16 31.9126 285.028C32.2606 284.884 32.5546 284.692 32.7946 284.452C33.0466 284.212 33.2386 283.924 33.3706 283.588C33.5026 283.252 33.5686 282.892 33.5686 282.508C33.5686 282.124 33.5026 281.77 33.3706 281.446C33.2386 281.122 33.0466 280.84 32.7946 280.6C32.5546 280.36 32.2606 280.174 31.9126 280.042C31.5766 279.91 31.1986 279.844 30.7786 279.844C30.3586 279.844 29.9746 279.91 29.6266 280.042C29.2906 280.174 28.9966 280.36 28.7446 280.6C28.5046 280.84 28.3186 281.122 28.1866 281.446C28.0546 281.77 27.9886 282.124 27.9886 282.508ZM43.02 276.19C43.02 276.634 42.936 277.048 42.768 277.432C42.612 277.816 42.39 278.152 42.102 278.44C41.814 278.716 41.478 278.938 41.094 279.106C40.71 279.262 40.296 279.34 39.852 279.34C39.408 279.34 38.994 279.262 38.61 279.106C38.226 278.938 37.89 278.716 37.602 278.44C37.314 278.152 37.086 277.816 36.918 277.432C36.762 277.048 36.684 276.634 36.684 276.19C36.684 275.746 36.762 275.332 36.918 274.948C37.086 274.564 37.314 274.234 37.602 273.958C37.89 273.67 38.226 273.448 38.61 273.292C38.994 273.124 39.408 273.04 39.852 273.04C40.296 273.04 40.71 273.124 41.094 273.292C41.478 273.448 41.814 273.67 42.102 273.958C42.39 274.234 42.612 274.564 42.768 274.948C42.936 275.332 43.02 275.746 43.02 276.19ZM41.94 276.19C41.94 275.89 41.88 275.614 41.76 275.362C41.652 275.11 41.502 274.894 41.31 274.714C41.13 274.522 40.914 274.378 40.662 274.282C40.41 274.174 40.14 274.12 39.852 274.12C39.564 274.12 39.294 274.174 39.042 274.282C38.79 274.378 38.568 274.522 38.376 274.714C38.196 274.894 38.046 275.11 37.926 275.362C37.818 275.614 37.764 275.89 37.764 276.19C37.764 276.49 37.818 276.766 37.926 277.018C38.046 277.27 38.196 277.492 38.376 277.684C38.568 277.864 38.79 278.008 39.042 278.116C39.294 278.212 39.564 278.26 39.852 278.26C40.14 278.26 40.41 278.212 40.662 278.116C40.914 278.008 41.13 277.864 41.31 277.684C41.502 277.492 41.652 277.27 41.76 277.018C41.88 276.766 41.94 276.49 41.94 276.19ZM50.31 283.066C50.31 283.51 50.226 283.924 50.058 284.308C49.902 284.692 49.68 285.028 49.392 285.316C49.104 285.592 48.768 285.814 48.384 285.982C48 286.138 47.586 286.216 47.142 286.216C46.698 286.216 46.284 286.138 45.9 285.982C45.516 285.814 45.18 285.592 44.892 285.316C44.604 285.028 44.376 284.692 44.208 284.308C44.052 283.924 43.974 283.51 43.974 283.066C43.974 282.622 44.052 282.208 44.208 281.824C44.376 281.44 44.604 281.11 44.892 280.834C45.18 280.546 45.516 280.324 45.9 280.168C46.284 280 46.698 279.916 47.142 279.916C47.586 279.916 48 280 48.384 280.168C48.768 280.324 49.104 280.546 49.392 280.834C49.68 281.11 49.902 281.44 50.058 281.824C50.226 282.208 50.31 282.622 50.31 283.066ZM49.23 283.066C49.23 282.766 49.17 282.49 49.05 282.238C48.942 281.986 48.792 281.77 48.6 281.59C48.42 281.398 48.204 281.254 47.952 281.158C47.7 281.05 47.43 280.996 47.142 280.996C46.854 280.996 46.584 281.05 46.332 281.158C46.08 281.254 45.858 281.398 45.666 281.59C45.486 281.77 45.336 281.986 45.216 282.238C45.108 282.49 45.054 282.766 45.054 283.066C45.054 283.366 45.108 283.642 45.216 283.894C45.336 284.146 45.486 284.368 45.666 284.56C45.858 284.74 46.08 284.884 46.332 284.992C46.584 285.088 46.854 285.136 47.142 285.136C47.43 285.136 47.7 285.088 47.952 284.992C48.204 284.884 48.42 284.74 48.6 284.56C48.792 284.368 48.942 284.146 49.05 283.894C49.17 283.642 49.23 283.366 49.23 283.066ZM39.906 286.558L38.97 286.072L47.088 272.698L48.006 273.184L39.906 286.558Z" fill="#4F4F4F"/>
    <rect width="482" height="1" transform="matrix(1 0 0 -1 715 147)" fill="#4F4F4F"/>
    <path d="M1019.86 134.8C1019.3 135.56 1018.57 136.18 1017.68 136.66C1016.79 137.127 1015.71 137.36 1014.46 137.36C1013.38 137.36 1012.38 137.18 1011.46 136.82C1010.55 136.447 1009.77 135.933 1009.1 135.28C1008.45 134.613 1007.93 133.827 1007.56 132.92C1007.19 132 1007 130.993 1007 129.9C1007 128.793 1007.19 127.787 1007.56 126.88C1007.95 125.96 1008.47 125.18 1009.14 124.54C1009.82 123.887 1010.62 123.38 1011.54 123.02C1012.46 122.66 1013.46 122.48 1014.54 122.48C1015.02 122.48 1015.51 122.527 1016 122.62C1016.49 122.713 1016.97 122.853 1017.42 123.04C1017.87 123.227 1018.29 123.46 1018.66 123.74C1019.03 124.007 1019.35 124.32 1019.62 124.68L1018.06 125.88C1017.71 125.4 1017.22 125.007 1016.58 124.7C1015.95 124.38 1015.27 124.22 1014.54 124.22C1013.71 124.22 1012.97 124.373 1012.3 124.68C1011.65 124.973 1011.09 125.38 1010.62 125.9C1010.15 126.42 1009.79 127.027 1009.54 127.72C1009.29 128.4 1009.16 129.127 1009.16 129.9C1009.16 130.7 1009.28 131.447 1009.52 132.14C1009.77 132.833 1010.13 133.44 1010.58 133.96C1011.05 134.467 1011.61 134.867 1012.26 135.16C1012.93 135.453 1013.67 135.6 1014.48 135.6C1015.28 135.6 1016.01 135.44 1016.66 135.12C1017.31 134.8 1017.85 134.333 1018.28 133.72L1019.86 134.8ZM1023.86 137H1021.88V122.84H1030.72V124.58H1023.86V128.98H1030.28V130.68H1023.86V137ZM1043.93 125.76C1043.5 125.293 1042.95 124.92 1042.29 124.64C1041.63 124.36 1040.9 124.22 1040.09 124.22C1039.26 124.22 1038.51 124.373 1037.85 124.68C1037.18 124.973 1036.61 125.38 1036.15 125.9C1035.68 126.42 1035.32 127.027 1035.07 127.72C1034.81 128.4 1034.69 129.127 1034.69 129.9C1034.69 130.687 1034.81 131.427 1035.07 132.12C1035.32 132.813 1035.68 133.42 1036.15 133.94C1036.61 134.447 1037.19 134.847 1037.87 135.14C1038.55 135.433 1039.31 135.58 1040.15 135.58C1040.81 135.58 1041.43 135.52 1041.99 135.4C1042.55 135.28 1043.03 135.107 1043.45 134.88V130.94H1040.31V129.26H1045.41V136.12C1044.66 136.52 1043.85 136.827 1042.97 137.04C1042.09 137.253 1041.13 137.36 1040.09 137.36C1038.98 137.36 1037.96 137.18 1037.03 136.82C1036.11 136.447 1035.31 135.933 1034.65 135.28C1033.98 134.613 1033.46 133.827 1033.09 132.92C1032.71 132 1032.53 130.993 1032.53 129.9C1032.53 128.793 1032.71 127.787 1033.09 126.88C1033.47 125.96 1034 125.18 1034.67 124.54C1035.35 123.887 1036.15 123.38 1037.07 123.02C1037.99 122.66 1038.99 122.48 1040.07 122.48C1041.2 122.48 1042.21 122.647 1043.09 122.98C1043.98 123.313 1044.72 123.76 1045.31 124.32L1043.93 125.76ZM1065.95 134.8C1065.39 135.56 1064.67 136.18 1063.77 136.66C1062.88 137.127 1061.81 137.36 1060.55 137.36C1059.47 137.36 1058.47 137.18 1057.55 136.82C1056.65 136.447 1055.86 135.933 1055.19 135.28C1054.54 134.613 1054.03 133.827 1053.65 132.92C1053.28 132 1053.09 130.993 1053.09 129.9C1053.09 128.793 1053.28 127.787 1053.65 126.88C1054.04 125.96 1054.57 125.18 1055.23 124.54C1055.91 123.887 1056.71 123.38 1057.63 123.02C1058.55 122.66 1059.55 122.48 1060.63 122.48C1061.11 122.48 1061.6 122.527 1062.09 122.62C1062.59 122.713 1063.06 122.853 1063.51 123.04C1063.97 123.227 1064.38 123.46 1064.75 123.74C1065.13 124.007 1065.45 124.32 1065.71 124.68L1064.15 125.88C1063.81 125.4 1063.31 125.007 1062.67 124.7C1062.05 124.38 1061.37 124.22 1060.63 124.22C1059.81 124.22 1059.06 124.373 1058.39 124.68C1057.74 124.973 1057.18 125.38 1056.71 125.9C1056.25 126.42 1055.89 127.027 1055.63 127.72C1055.38 128.4 1055.25 129.127 1055.25 129.9C1055.25 130.7 1055.37 131.447 1055.61 132.14C1055.87 132.833 1056.22 133.44 1056.67 133.96C1057.14 134.467 1057.7 134.867 1058.35 135.16C1059.02 135.453 1059.76 135.6 1060.57 135.6C1061.37 135.6 1062.1 135.44 1062.75 135.12C1063.41 134.8 1063.95 134.333 1064.37 133.72L1065.95 134.8ZM1069.83 128.96C1070.06 128.493 1070.45 128.093 1070.99 127.76C1071.54 127.427 1072.15 127.26 1072.83 127.26C1073.45 127.26 1073.97 127.367 1074.41 127.58C1074.85 127.78 1075.22 128.053 1075.51 128.4C1075.81 128.747 1076.02 129.153 1076.15 129.62C1076.3 130.087 1076.37 130.587 1076.37 131.12V137H1074.49V131.76C1074.49 131.373 1074.46 131.007 1074.39 130.66C1074.34 130.313 1074.23 130.007 1074.07 129.74C1073.91 129.473 1073.69 129.26 1073.41 129.1C1073.15 128.94 1072.79 128.86 1072.35 128.86C1071.61 128.86 1070.99 129.147 1070.51 129.72C1070.03 130.28 1069.79 131.033 1069.79 131.98V137H1067.91V121.88H1069.79V128.96H1069.83ZM1085.45 130.86C1085.45 130.153 1085.24 129.633 1084.81 129.3C1084.39 128.953 1083.82 128.78 1083.11 128.78C1082.58 128.78 1082.07 128.887 1081.59 129.1C1081.13 129.3 1080.73 129.56 1080.41 129.88L1079.41 128.68C1079.88 128.24 1080.45 127.893 1081.11 127.64C1081.79 127.387 1082.52 127.26 1083.29 127.26C1083.97 127.26 1084.56 127.36 1085.05 127.56C1085.56 127.747 1085.97 128.007 1086.29 128.34C1086.61 128.673 1086.85 129.067 1087.01 129.52C1087.17 129.973 1087.25 130.46 1087.25 130.98V135.12C1087.25 135.44 1087.26 135.78 1087.27 136.14C1087.3 136.487 1087.34 136.773 1087.39 137H1085.69C1085.59 136.547 1085.53 136.093 1085.53 135.64H1085.47C1085.13 136.147 1084.69 136.54 1084.15 136.82C1083.63 137.1 1083.01 137.24 1082.29 137.24C1081.92 137.24 1081.53 137.187 1081.11 137.08C1080.71 136.987 1080.35 136.827 1080.01 136.6C1079.68 136.373 1079.4 136.073 1079.17 135.7C1078.96 135.327 1078.85 134.867 1078.85 134.32C1078.85 133.6 1079.05 133.033 1079.43 132.62C1079.82 132.193 1080.33 131.873 1080.95 131.66C1081.58 131.433 1082.29 131.287 1083.07 131.22C1083.86 131.153 1084.65 131.12 1085.45 131.12V130.86ZM1084.99 132.48C1084.53 132.48 1084.04 132.5 1083.53 132.54C1083.04 132.58 1082.59 132.66 1082.17 132.78C1081.77 132.9 1081.44 133.08 1081.17 133.32C1080.91 133.56 1080.77 133.88 1080.77 134.28C1080.77 134.56 1080.83 134.793 1080.93 134.98C1081.05 135.167 1081.21 135.32 1081.39 135.44C1081.58 135.56 1081.79 135.647 1082.01 135.7C1082.24 135.74 1082.47 135.76 1082.71 135.76C1083.59 135.76 1084.27 135.5 1084.73 134.98C1085.21 134.447 1085.45 133.78 1085.45 132.98V132.48H1084.99ZM1092.29 137H1090.41V127.52H1092.29V137ZM1092.61 124.1C1092.61 124.447 1092.49 124.733 1092.23 124.96C1091.99 125.187 1091.7 125.3 1091.35 125.3C1091.01 125.3 1090.71 125.187 1090.47 124.96C1090.23 124.72 1090.11 124.433 1090.11 124.1C1090.11 123.753 1090.23 123.467 1090.47 123.24C1090.71 123 1091.01 122.88 1091.35 122.88C1091.7 122.88 1091.99 123 1092.23 123.24C1092.49 123.467 1092.61 123.753 1092.61 124.1ZM1097.27 127.52C1097.3 127.76 1097.32 128.033 1097.33 128.34C1097.34 128.633 1097.35 128.88 1097.35 129.08H1097.41C1097.53 128.827 1097.69 128.593 1097.89 128.38C1098.1 128.153 1098.34 127.96 1098.61 127.8C1098.88 127.627 1099.17 127.493 1099.49 127.4C1099.81 127.307 1100.14 127.26 1100.49 127.26C1101.1 127.26 1101.63 127.367 1102.07 127.58C1102.51 127.78 1102.88 128.053 1103.17 128.4C1103.46 128.747 1103.68 129.153 1103.81 129.62C1103.96 130.087 1104.03 130.587 1104.03 131.12V137H1102.15V131.74C1102.15 131.353 1102.12 130.987 1102.05 130.64C1102 130.293 1101.89 129.987 1101.73 129.72C1101.57 129.453 1101.35 129.24 1101.07 129.08C1100.79 128.92 1100.43 128.84 1099.99 128.84C1099.24 128.84 1098.63 129.127 1098.15 129.7C1097.68 130.26 1097.45 131.013 1097.45 131.96V137H1095.57V129.56C1095.57 129.307 1095.56 128.98 1095.55 128.58C1095.54 128.18 1095.52 127.827 1095.49 127.52H1097.27ZM1119.35 125.46C1119.07 125.073 1118.69 124.76 1118.21 124.52C1117.73 124.267 1117.19 124.14 1116.59 124.14C1116.27 124.14 1115.94 124.187 1115.61 124.28C1115.29 124.36 1115 124.5 1114.73 124.7C1114.46 124.887 1114.24 125.127 1114.07 125.42C1113.91 125.7 1113.83 126.04 1113.83 126.44C1113.83 126.827 1113.9 127.153 1114.05 127.42C1114.21 127.673 1114.42 127.893 1114.67 128.08C1114.94 128.253 1115.24 128.407 1115.59 128.54C1115.95 128.66 1116.33 128.787 1116.73 128.92C1117.21 129.067 1117.7 129.233 1118.19 129.42C1118.68 129.607 1119.13 129.853 1119.53 130.16C1119.93 130.467 1120.26 130.853 1120.51 131.32C1120.76 131.773 1120.89 132.353 1120.89 133.06C1120.89 133.793 1120.75 134.433 1120.47 134.98C1120.2 135.513 1119.84 135.96 1119.39 136.32C1118.94 136.667 1118.41 136.927 1117.81 137.1C1117.22 137.273 1116.62 137.36 1115.99 137.36C1115.1 137.36 1114.23 137.187 1113.39 136.84C1112.56 136.493 1111.88 135.98 1111.33 135.3L1112.87 134C1113.2 134.493 1113.65 134.893 1114.21 135.2C1114.77 135.507 1115.38 135.66 1116.03 135.66C1116.36 135.66 1116.7 135.613 1117.03 135.52C1117.36 135.427 1117.66 135.28 1117.93 135.08C1118.21 134.88 1118.44 134.633 1118.61 134.34C1118.78 134.033 1118.87 133.667 1118.87 133.24C1118.87 132.813 1118.78 132.46 1118.59 132.18C1118.42 131.887 1118.18 131.64 1117.87 131.44C1117.56 131.24 1117.2 131.073 1116.79 130.94C1116.39 130.793 1115.96 130.647 1115.51 130.5C1115.06 130.367 1114.61 130.207 1114.17 130.02C1113.73 129.82 1113.34 129.573 1112.99 129.28C1112.64 128.973 1112.36 128.6 1112.15 128.16C1111.94 127.72 1111.83 127.173 1111.83 126.52C1111.83 125.813 1111.97 125.207 1112.25 124.7C1112.54 124.193 1112.92 123.773 1113.37 123.44C1113.84 123.107 1114.36 122.867 1114.93 122.72C1115.52 122.56 1116.1 122.48 1116.69 122.48C1117.52 122.48 1118.29 122.627 1119.01 122.92C1119.73 123.213 1120.31 123.607 1120.75 124.1L1119.35 125.46ZM1125.3 127.52C1125.32 127.76 1125.34 128.033 1125.36 128.34C1125.37 128.633 1125.38 128.88 1125.38 129.08H1125.44C1125.56 128.827 1125.72 128.593 1125.92 128.38C1126.13 128.153 1126.37 127.96 1126.64 127.8C1126.9 127.627 1127.2 127.493 1127.52 127.4C1127.84 127.307 1128.17 127.26 1128.52 127.26C1129.13 127.26 1129.66 127.367 1130.1 127.58C1130.54 127.78 1130.9 128.053 1131.2 128.4C1131.49 128.747 1131.7 129.153 1131.84 129.62C1131.98 130.087 1132.06 130.587 1132.06 131.12V137H1130.18V131.74C1130.18 131.353 1130.14 130.987 1130.08 130.64C1130.02 130.293 1129.92 129.987 1129.76 129.72C1129.6 129.453 1129.38 129.24 1129.1 129.08C1128.82 128.92 1128.46 128.84 1128.02 128.84C1127.27 128.84 1126.66 129.127 1126.18 129.7C1125.71 130.26 1125.48 131.013 1125.48 131.96V137H1123.6V129.56C1123.6 129.307 1123.59 128.98 1123.58 128.58C1123.56 128.18 1123.54 127.827 1123.52 127.52H1125.3ZM1141.14 130.86C1141.14 130.153 1140.92 129.633 1140.5 129.3C1140.07 128.953 1139.5 128.78 1138.8 128.78C1138.26 128.78 1137.76 128.887 1137.28 129.1C1136.81 129.3 1136.42 129.56 1136.1 129.88L1135.1 128.68C1135.56 128.24 1136.13 127.893 1136.8 127.64C1137.48 127.387 1138.2 127.26 1138.98 127.26C1139.66 127.26 1140.24 127.36 1140.74 127.56C1141.24 127.747 1141.66 128.007 1141.98 128.34C1142.3 128.673 1142.54 129.067 1142.7 129.52C1142.86 129.973 1142.94 130.46 1142.94 130.98V135.12C1142.94 135.44 1142.94 135.78 1142.96 136.14C1142.98 136.487 1143.02 136.773 1143.08 137H1141.38C1141.27 136.547 1141.22 136.093 1141.22 135.64H1141.16C1140.81 136.147 1140.37 136.54 1139.84 136.82C1139.32 137.1 1138.7 137.24 1137.98 137.24C1137.6 137.24 1137.21 137.187 1136.8 137.08C1136.4 136.987 1136.03 136.827 1135.7 136.6C1135.36 136.373 1135.08 136.073 1134.86 135.7C1134.64 135.327 1134.54 134.867 1134.54 134.32C1134.54 133.6 1134.73 133.033 1135.12 132.62C1135.5 132.193 1136.01 131.873 1136.64 131.66C1137.26 131.433 1137.97 131.287 1138.76 131.22C1139.54 131.153 1140.34 131.12 1141.14 131.12V130.86ZM1140.68 132.48C1140.21 132.48 1139.72 132.5 1139.22 132.54C1138.72 132.58 1138.27 132.66 1137.86 132.78C1137.46 132.9 1137.12 133.08 1136.86 133.32C1136.59 133.56 1136.46 133.88 1136.46 134.28C1136.46 134.56 1136.51 134.793 1136.62 134.98C1136.74 135.167 1136.89 135.32 1137.08 135.44C1137.26 135.56 1137.47 135.647 1137.7 135.7C1137.92 135.74 1138.16 135.76 1138.4 135.76C1139.28 135.76 1139.95 135.5 1140.42 134.98C1140.9 134.447 1141.14 133.78 1141.14 132.98V132.48H1140.68ZM1147.96 141.8H1146.08V127.52H1147.92V129H1147.98C1148.28 128.493 1148.73 128.08 1149.32 127.76C1149.92 127.427 1150.61 127.26 1151.4 127.26C1152.1 127.26 1152.74 127.387 1153.32 127.64C1153.9 127.893 1154.4 128.247 1154.82 128.7C1155.24 129.153 1155.57 129.687 1155.8 130.3C1156.02 130.9 1156.14 131.547 1156.14 132.24C1156.14 132.933 1156.02 133.587 1155.8 134.2C1155.57 134.813 1155.25 135.347 1154.84 135.8C1154.42 136.253 1153.92 136.613 1153.34 136.88C1152.75 137.133 1152.09 137.26 1151.36 137.26C1150.68 137.26 1150.04 137.113 1149.44 136.82C1148.84 136.527 1148.36 136.113 1148.02 135.58H1147.96V141.8ZM1154.2 132.24C1154.2 131.8 1154.13 131.373 1154 130.96C1153.86 130.547 1153.66 130.18 1153.4 129.86C1153.13 129.54 1152.8 129.287 1152.4 129.1C1152.01 128.913 1151.56 128.82 1151.04 128.82C1150.56 128.82 1150.12 128.913 1149.72 129.1C1149.33 129.287 1149 129.54 1148.72 129.86C1148.44 130.18 1148.22 130.547 1148.06 130.96C1147.91 131.373 1147.84 131.807 1147.84 132.26C1147.84 132.713 1147.91 133.147 1148.06 133.56C1148.22 133.973 1148.44 134.34 1148.72 134.66C1149 134.967 1149.33 135.213 1149.72 135.4C1150.12 135.587 1150.56 135.68 1151.04 135.68C1151.56 135.68 1152.01 135.587 1152.4 135.4C1152.8 135.2 1153.13 134.94 1153.4 134.62C1153.66 134.3 1153.86 133.933 1154 133.52C1154.13 133.107 1154.2 132.68 1154.2 132.24ZM1163.87 129.92C1163.66 129.573 1163.36 129.293 1162.97 129.08C1162.59 128.853 1162.15 128.74 1161.67 128.74C1161.46 128.74 1161.25 128.767 1161.03 128.82C1160.82 128.86 1160.63 128.933 1160.45 129.04C1160.29 129.133 1160.16 129.26 1160.05 129.42C1159.96 129.567 1159.91 129.753 1159.91 129.98C1159.91 130.38 1160.09 130.68 1160.45 130.88C1160.81 131.067 1161.35 131.24 1162.07 131.4C1162.53 131.507 1162.95 131.633 1163.33 131.78C1163.72 131.927 1164.05 132.113 1164.33 132.34C1164.63 132.553 1164.85 132.813 1165.01 133.12C1165.17 133.427 1165.25 133.787 1165.25 134.2C1165.25 134.76 1165.15 135.233 1164.93 135.62C1164.72 136.007 1164.43 136.327 1164.07 136.58C1163.73 136.82 1163.33 136.993 1162.87 137.1C1162.42 137.207 1161.95 137.26 1161.47 137.26C1160.75 137.26 1160.05 137.12 1159.35 136.84C1158.67 136.56 1158.11 136.133 1157.65 135.56L1158.99 134.42C1159.25 134.793 1159.59 135.107 1160.03 135.36C1160.49 135.613 1160.98 135.74 1161.51 135.74C1161.75 135.74 1161.98 135.72 1162.19 135.68C1162.42 135.627 1162.62 135.547 1162.79 135.44C1162.98 135.333 1163.13 135.193 1163.23 135.02C1163.34 134.847 1163.39 134.627 1163.39 134.36C1163.39 133.92 1163.18 133.593 1162.75 133.38C1162.34 133.167 1161.73 132.967 1160.91 132.78C1160.59 132.7 1160.27 132.607 1159.93 132.5C1159.61 132.38 1159.32 132.22 1159.05 132.02C1158.79 131.82 1158.57 131.573 1158.39 131.28C1158.23 130.973 1158.15 130.6 1158.15 130.16C1158.15 129.653 1158.25 129.22 1158.45 128.86C1158.67 128.487 1158.94 128.187 1159.27 127.96C1159.61 127.72 1159.99 127.547 1160.41 127.44C1160.84 127.32 1161.28 127.26 1161.73 127.26C1162.41 127.26 1163.07 127.393 1163.69 127.66C1164.33 127.927 1164.83 128.313 1165.17 128.82L1163.87 129.92ZM1169.6 128.96C1169.83 128.493 1170.21 128.093 1170.76 127.76C1171.31 127.427 1171.92 127.26 1172.6 127.26C1173.21 127.26 1173.74 127.367 1174.18 127.58C1174.62 127.78 1174.99 128.053 1175.28 128.4C1175.57 128.747 1175.79 129.153 1175.92 129.62C1176.07 130.087 1176.14 130.587 1176.14 131.12V137H1174.26V131.76C1174.26 131.373 1174.23 131.007 1174.16 130.66C1174.11 130.313 1174 130.007 1173.84 129.74C1173.68 129.473 1173.46 129.26 1173.18 129.1C1172.91 128.94 1172.56 128.86 1172.12 128.86C1171.37 128.86 1170.76 129.147 1170.28 129.72C1169.8 130.28 1169.56 131.033 1169.56 131.98V137H1167.68V121.88H1169.56V128.96H1169.6ZM1188.92 132.24C1188.92 132.973 1188.79 133.647 1188.52 134.26C1188.27 134.873 1187.91 135.407 1187.44 135.86C1186.99 136.3 1186.45 136.647 1185.82 136.9C1185.19 137.14 1184.52 137.26 1183.8 137.26C1183.08 137.26 1182.41 137.14 1181.78 136.9C1181.15 136.647 1180.61 136.3 1180.16 135.86C1179.71 135.407 1179.35 134.873 1179.08 134.26C1178.83 133.647 1178.7 132.973 1178.7 132.24C1178.7 131.507 1178.83 130.84 1179.08 130.24C1179.35 129.627 1179.71 129.1 1180.16 128.66C1180.61 128.22 1181.15 127.88 1181.78 127.64C1182.41 127.387 1183.08 127.26 1183.8 127.26C1184.52 127.26 1185.19 127.387 1185.82 127.64C1186.45 127.88 1186.99 128.22 1187.44 128.66C1187.91 129.1 1188.27 129.627 1188.52 130.24C1188.79 130.84 1188.92 131.507 1188.92 132.24ZM1186.96 132.24C1186.96 131.787 1186.89 131.353 1186.74 130.94C1186.61 130.527 1186.41 130.167 1186.14 129.86C1185.87 129.54 1185.54 129.287 1185.14 129.1C1184.75 128.913 1184.31 128.82 1183.8 128.82C1183.29 128.82 1182.84 128.913 1182.44 129.1C1182.05 129.287 1181.73 129.54 1181.46 129.86C1181.19 130.167 1180.99 130.527 1180.84 130.94C1180.71 131.353 1180.64 131.787 1180.64 132.24C1180.64 132.693 1180.71 133.127 1180.84 133.54C1180.99 133.953 1181.19 134.32 1181.46 134.64C1181.73 134.96 1182.05 135.213 1182.44 135.4C1182.84 135.587 1183.29 135.68 1183.8 135.68C1184.31 135.68 1184.75 135.587 1185.14 135.4C1185.54 135.213 1185.87 134.96 1186.14 134.64C1186.41 134.32 1186.61 133.953 1186.74 133.54C1186.89 133.127 1186.96 132.693 1186.96 132.24ZM1196.17 129.06H1193.65V134C1193.65 134.573 1193.75 134.987 1193.97 135.24C1194.18 135.48 1194.52 135.6 1194.99 135.6C1195.16 135.6 1195.35 135.58 1195.55 135.54C1195.75 135.5 1195.93 135.44 1196.09 135.36L1196.15 136.9C1195.92 136.98 1195.67 137.04 1195.39 137.08C1195.12 137.133 1194.84 137.16 1194.55 137.16C1193.65 137.16 1192.97 136.913 1192.49 136.42C1192.02 135.927 1191.79 135.187 1191.79 134.2V129.06H1189.97V127.52H1191.79V124.8H1193.65V127.52H1196.17V129.06Z" fill="#4F4F4F"/>
    <path d="M1149.62 158.818L1149.65 158.854C1149.85 158.71 1150.12 158.596 1150.46 158.512C1150.81 158.428 1151.15 158.386 1151.47 158.386C1152.02 158.386 1152.53 158.482 1153 158.674C1153.48 158.866 1153.9 159.136 1154.24 159.484C1154.59 159.82 1154.86 160.234 1155.05 160.726C1155.26 161.206 1155.36 161.734 1155.36 162.31C1155.36 162.91 1155.26 163.456 1155.05 163.948C1154.85 164.44 1154.56 164.86 1154.19 165.208C1153.82 165.556 1153.38 165.826 1152.88 166.018C1152.37 166.222 1151.82 166.324 1151.22 166.324C1150.62 166.324 1150.07 166.222 1149.56 166.018C1149.06 165.826 1148.62 165.556 1148.25 165.208C1147.88 164.86 1147.59 164.44 1147.39 163.948C1147.18 163.456 1147.08 162.91 1147.08 162.31C1147.08 161.65 1147.19 161.038 1147.42 160.474C1147.65 159.91 1147.92 159.37 1148.23 158.854L1151.71 153.256H1153.2L1149.62 158.818ZM1148.38 162.31C1148.38 162.73 1148.44 163.12 1148.57 163.48C1148.72 163.828 1148.92 164.134 1149.17 164.398C1149.42 164.65 1149.72 164.854 1150.07 165.01C1150.42 165.154 1150.8 165.226 1151.22 165.226C1151.64 165.226 1152.02 165.154 1152.37 165.01C1152.72 164.854 1153.02 164.65 1153.27 164.398C1153.52 164.134 1153.72 163.828 1153.85 163.48C1153.99 163.12 1154.06 162.73 1154.06 162.31C1154.06 161.902 1154 161.524 1153.87 161.176C1153.73 160.816 1153.54 160.51 1153.29 160.258C1153.05 159.994 1152.75 159.79 1152.39 159.646C1152.04 159.502 1151.65 159.43 1151.22 159.43C1150.79 159.43 1150.39 159.502 1150.03 159.646C1149.68 159.79 1149.38 159.994 1149.13 160.258C1148.89 160.51 1148.71 160.816 1148.57 161.176C1148.44 161.524 1148.38 161.902 1148.38 162.31ZM1162.89 166H1161.59V154.858L1159.29 156.82L1158.49 155.92L1161.73 153.256H1162.89V166ZM1170.19 165.136C1170.19 165.388 1170.1 165.616 1169.92 165.82C1169.74 166.012 1169.51 166.108 1169.22 166.108C1168.93 166.108 1168.7 166.012 1168.52 165.82C1168.34 165.616 1168.25 165.388 1168.25 165.136C1168.25 164.884 1168.34 164.662 1168.52 164.47C1168.7 164.266 1168.93 164.164 1169.22 164.164C1169.51 164.164 1169.74 164.266 1169.92 164.47C1170.1 164.662 1170.19 164.884 1170.19 165.136ZM1176.78 152.932C1177.57 152.932 1178.23 153.13 1178.76 153.526C1179.3 153.91 1179.73 154.42 1180.05 155.056C1180.38 155.68 1180.61 156.394 1180.74 157.198C1180.88 158.002 1180.95 158.818 1180.95 159.646C1180.95 160.474 1180.88 161.29 1180.74 162.094C1180.61 162.886 1180.38 163.6 1180.05 164.236C1179.73 164.86 1179.3 165.364 1178.76 165.748C1178.23 166.132 1177.57 166.324 1176.78 166.324C1175.97 166.324 1175.3 166.132 1174.76 165.748C1174.23 165.364 1173.81 164.86 1173.48 164.236C1173.16 163.6 1172.93 162.886 1172.8 162.094C1172.67 161.29 1172.6 160.474 1172.6 159.646C1172.6 158.818 1172.67 158.002 1172.8 157.198C1172.93 156.394 1173.16 155.68 1173.48 155.056C1173.81 154.42 1174.23 153.91 1174.76 153.526C1175.3 153.13 1175.97 152.932 1176.78 152.932ZM1176.78 154.03C1176.21 154.03 1175.75 154.204 1175.37 154.552C1175 154.9 1174.71 155.344 1174.49 155.884C1174.28 156.424 1174.13 157.03 1174.04 157.702C1173.96 158.362 1173.92 159.01 1173.92 159.646C1173.92 160.282 1173.96 160.93 1174.04 161.59C1174.13 162.25 1174.28 162.85 1174.49 163.39C1174.71 163.918 1175 164.356 1175.37 164.704C1175.75 165.04 1176.21 165.208 1176.78 165.208C1177.33 165.208 1177.79 165.04 1178.16 164.704C1178.54 164.356 1178.83 163.918 1179.05 163.39C1179.26 162.85 1179.41 162.25 1179.5 161.59C1179.59 160.93 1179.64 160.282 1179.64 159.646C1179.64 159.01 1179.59 158.362 1179.5 157.702C1179.41 157.03 1179.26 156.424 1179.05 155.884C1178.83 155.344 1178.54 154.9 1178.16 154.552C1177.79 154.204 1177.33 154.03 1176.78 154.03ZM1189.02 156.19C1189.02 156.634 1188.94 157.048 1188.77 157.432C1188.61 157.816 1188.39 158.152 1188.1 158.44C1187.81 158.716 1187.48 158.938 1187.09 159.106C1186.71 159.262 1186.3 159.34 1185.85 159.34C1185.41 159.34 1184.99 159.262 1184.61 159.106C1184.23 158.938 1183.89 158.716 1183.6 158.44C1183.31 158.152 1183.09 157.816 1182.92 157.432C1182.76 157.048 1182.68 156.634 1182.68 156.19C1182.68 155.746 1182.76 155.332 1182.92 154.948C1183.09 154.564 1183.31 154.234 1183.6 153.958C1183.89 153.67 1184.23 153.448 1184.61 153.292C1184.99 153.124 1185.41 153.04 1185.85 153.04C1186.3 153.04 1186.71 153.124 1187.09 153.292C1187.48 153.448 1187.81 153.67 1188.1 153.958C1188.39 154.234 1188.61 154.564 1188.77 154.948C1188.94 155.332 1189.02 155.746 1189.02 156.19ZM1187.94 156.19C1187.94 155.89 1187.88 155.614 1187.76 155.362C1187.65 155.11 1187.5 154.894 1187.31 154.714C1187.13 154.522 1186.91 154.378 1186.66 154.282C1186.41 154.174 1186.14 154.12 1185.85 154.12C1185.56 154.12 1185.29 154.174 1185.04 154.282C1184.79 154.378 1184.57 154.522 1184.38 154.714C1184.2 154.894 1184.05 155.11 1183.93 155.362C1183.82 155.614 1183.76 155.89 1183.76 156.19C1183.76 156.49 1183.82 156.766 1183.93 157.018C1184.05 157.27 1184.2 157.492 1184.38 157.684C1184.57 157.864 1184.79 158.008 1185.04 158.116C1185.29 158.212 1185.56 158.26 1185.85 158.26C1186.14 158.26 1186.41 158.212 1186.66 158.116C1186.91 158.008 1187.13 157.864 1187.31 157.684C1187.5 157.492 1187.65 157.27 1187.76 157.018C1187.88 156.766 1187.94 156.49 1187.94 156.19ZM1196.31 163.066C1196.31 163.51 1196.23 163.924 1196.06 164.308C1195.9 164.692 1195.68 165.028 1195.39 165.316C1195.1 165.592 1194.77 165.814 1194.38 165.982C1194 166.138 1193.59 166.216 1193.14 166.216C1192.7 166.216 1192.28 166.138 1191.9 165.982C1191.52 165.814 1191.18 165.592 1190.89 165.316C1190.6 165.028 1190.38 164.692 1190.21 164.308C1190.05 163.924 1189.97 163.51 1189.97 163.066C1189.97 162.622 1190.05 162.208 1190.21 161.824C1190.38 161.44 1190.6 161.11 1190.89 160.834C1191.18 160.546 1191.52 160.324 1191.9 160.168C1192.28 160 1192.7 159.916 1193.14 159.916C1193.59 159.916 1194 160 1194.38 160.168C1194.77 160.324 1195.1 160.546 1195.39 160.834C1195.68 161.11 1195.9 161.44 1196.06 161.824C1196.23 162.208 1196.31 162.622 1196.31 163.066ZM1195.23 163.066C1195.23 162.766 1195.17 162.49 1195.05 162.238C1194.94 161.986 1194.79 161.77 1194.6 161.59C1194.42 161.398 1194.2 161.254 1193.95 161.158C1193.7 161.05 1193.43 160.996 1193.14 160.996C1192.85 160.996 1192.58 161.05 1192.33 161.158C1192.08 161.254 1191.86 161.398 1191.67 161.59C1191.49 161.77 1191.34 161.986 1191.22 162.238C1191.11 162.49 1191.05 162.766 1191.05 163.066C1191.05 163.366 1191.11 163.642 1191.22 163.894C1191.34 164.146 1191.49 164.368 1191.67 164.56C1191.86 164.74 1192.08 164.884 1192.33 164.992C1192.58 165.088 1192.85 165.136 1193.14 165.136C1193.43 165.136 1193.7 165.088 1193.95 164.992C1194.2 164.884 1194.42 164.74 1194.6 164.56C1194.79 164.368 1194.94 164.146 1195.05 163.894C1195.17 163.642 1195.23 163.366 1195.23 163.066ZM1185.91 166.558L1184.97 166.072L1193.09 152.698L1194.01 153.184L1185.91 166.558Z" fill="#4F4F4F"/>
    <defs>
        <linearGradient id="paint0_linear" x1="596.201" y1="140.447" x2="596.201" y2="178.636" gradientUnits="userSpaceOnUse">
            <stop stop-color="#FAB961"/>
            <stop offset="1"/>
        </linearGradient>
        <linearGradient id="paint1_linear" x1="577.984" y1="132.702" x2="577.984" y2="189.307" gradientUnits="userSpaceOnUse">
            <stop stop-color="#FAB961"/>
            <stop offset="1"/>
        </linearGradient>
        <linearGradient id="paint2_linear" x1="593.21" y1="141.591" x2="593.21" y2="181.865" gradientUnits="userSpaceOnUse">
            <stop stop-color="#FAB961"/>
            <stop offset="1"/>
        </linearGradient>
        <linearGradient id="paint3_linear" x1="576.061" y1="128" x2="576.061" y2="178.707" gradientUnits="userSpaceOnUse">
            <stop/>
            <stop offset="0.414296" stop-color="#FAB961"/>
        </linearGradient>
        <linearGradient id="paint4_linear" x1="576.668" y1="140.3" x2="576.668" y2="181.535" gradientUnits="userSpaceOnUse">
            <stop/>
            <stop offset="1" stop-color="#FAB961"/>
        </linearGradient>
        <linearGradient id="paint5_linear" x1="581.291" y1="137.873" x2="581.291" y2="177.518" gradientUnits="userSpaceOnUse">
            <stop/>
            <stop offset="1" stop-color="#FAB961"/>
        </linearGradient>
        <clipPath id="clip0">
            <rect width="309.792" height="309.772" fill="white" transform="translate(739.792 312.772) rotate(180)"/>
        </clipPath>
        <clipPath id="clip1">
            <rect width="309.792" height="309.772" fill="white" transform="translate(739.792 312.772) rotate(180)"/>
        </clipPath>
    </defs>
</svg>
