<svg width="180" height="180" viewBox="0 0 180 180" fill="none" xmlns="http://www.w3.org/2000/svg">
<path d="M180 89.9987C180 139.706 139.706 180 89.9987 180C40.2918 180 0 139.706 0 89.9987C0 88.331 0.0452773 86.6709 0.138347 85.0258C2.71664 37.633 41.962 0 89.9987 0C138.035 0 177.283 37.633 179.862 85.0258C179.955 86.6709 180 88.331 180 89.9987Z" fill="white"/>
<path d="M0.772335 85.0616L0.77241 85.0603C3.33248 38.0025 42.3011 0.635 89.9987 0.635C137.696 0.635 176.667 38.0025 179.228 85.0603L179.228 85.0617C179.32 86.6943 179.365 88.3425 179.365 89.9987C179.365 139.355 139.355 179.365 89.9987 179.365C40.6425 179.365 0.635 139.355 0.635 89.9987C0.635 88.3425 0.679967 86.6943 0.772335 85.0616Z" stroke="black" stroke-opacity="0.4" stroke-width="1.27"/>
<path d="M59.8871 50.2941C61.7443 49.2979 63.749 48.5415 65.8644 48.0742L67.7461 40.166C68.7976 40.0553 69.8676 40 70.9499 40C72.8193 40 74.6518 40.166 76.429 40.4858L77.7204 48.5108C79.7866 49.1319 81.7359 50.0358 83.5131 51.1734L90.4312 46.9181C92.688 48.7506 94.6866 50.8967 96.3469 53.2888L91.5873 59.8748C92.5835 61.732 93.3398 63.7367 93.8072 65.8521L101.715 67.7399C101.826 68.7915 101.881 69.8615 101.881 70.9438C101.881 72.8132 101.715 74.6457 101.396 76.4229L93.3644 77.7142C92.7434 79.7804 91.8394 81.7298 90.7079 83.507L94.9633 90.4312C93.1308 92.688 90.9846 94.6804 88.5925 96.3469L82.0065 91.5873C80.1494 92.5835 78.1447 93.3398 76.0293 93.8072L74.1414 101.715C73.0899 101.826 72.0199 101.881 70.9315 101.881C69.062 101.881 67.2295 101.715 65.4523 101.396L64.161 93.3644C62.0948 92.7434 60.1454 91.8394 58.3682 90.7018L51.4502 94.9571C49.1933 93.1246 47.2009 90.9785 45.5345 88.5864L50.2941 82.0004C49.2979 80.1432 48.5415 78.1385 48.0742 76.0232L40.166 74.1353C40.0553 73.0776 40 72.0137 40 70.9315C40 69.062 40.166 67.2295 40.4858 65.4523L48.5108 64.1548C49.1319 62.0886 50.0358 60.1393 51.1734 58.3621L46.9181 51.4379C48.7506 49.181 50.8967 47.1886 53.2888 45.5222L59.8748 50.2818L59.8871 50.2941Z" fill="url(#paint0_linear_5048_10968)" stroke="black" stroke-width="1.27" stroke-miterlimit="10"/>
<path d="M70.9561 83.9629C78.1492 83.9629 83.9805 78.1317 83.9805 70.9385C83.9805 63.7453 78.1492 57.9141 70.9561 57.9141C63.7629 57.9141 57.9316 63.7453 57.9316 70.9385C57.9316 78.1317 63.7629 83.9629 70.9561 83.9629Z" fill="white" stroke="black" stroke-width="1.27" stroke-miterlimit="10"/>
<path d="M114.924 126.583C120.589 126.583 125.181 121.99 125.181 116.326C125.181 110.661 120.589 106.068 114.924 106.068C109.259 106.068 104.667 110.661 104.667 116.326C104.667 121.99 109.259 126.583 114.924 126.583Z" stroke="black" stroke-width="1.27" stroke-miterlimit="10"/>
<path d="M106.211 100.074C107.675 99.2865 109.255 98.6962 110.916 98.3272L112.398 92.0979C113.228 92.0118 114.07 91.9688 114.925 91.9688C116.401 91.9688 117.84 92.0979 119.242 92.35L120.263 98.6716C121.892 99.1635 123.424 99.8707 124.826 100.769L130.274 97.4171C132.051 98.8622 133.619 100.553 134.935 102.435L131.19 107.619C131.977 109.083 132.568 110.663 132.937 112.323L139.166 113.805C139.252 114.635 139.295 115.478 139.295 116.327C139.295 117.802 139.166 119.241 138.914 120.643L132.592 121.664C132.1 123.294 131.393 124.825 130.502 126.227L133.853 131.675C132.408 133.453 130.717 135.021 128.835 136.337L123.651 132.592C122.188 133.379 120.607 133.969 118.947 134.338L117.465 140.567C116.635 140.654 115.792 140.697 114.937 140.697C113.468 140.697 112.023 140.567 110.621 140.315L109.6 133.994C107.97 133.502 106.439 132.795 105.037 131.897L99.5885 135.248C97.8114 133.803 96.2433 132.118 94.9273 130.23L98.6723 125.046C97.8852 123.583 97.2948 122.002 96.9259 120.342L90.6965 118.86C90.6104 118.03 90.5674 117.187 90.5674 116.339C90.5674 114.869 90.6965 113.424 90.9486 112.028L97.2702 111.007C97.7622 109.378 98.4694 107.846 99.3672 106.444L96.0157 100.996C97.4609 99.2189 99.1519 97.6508 101.034 96.341L106.218 100.086L106.211 100.074Z" stroke="black" stroke-width="1.27" stroke-miterlimit="10"/>
<path d="M87.1787 134.503C87.4423 134.272 87.4684 133.87 87.2371 133.607L83.4669 129.312C83.2356 129.048 82.8344 129.022 82.5708 129.253C82.3072 129.485 82.2811 129.886 82.5125 130.15L85.8637 133.967L82.0459 137.319C81.7823 137.55 81.7562 137.951 81.9876 138.215C82.2189 138.478 82.6201 138.504 82.8837 138.273L87.1787 134.503ZM86.8011 133.392C68.1798 132.18 52.7738 119.145 48.0287 101.716L46.8033 102.05C51.6882 119.992 67.5457 133.412 86.7186 134.659L86.8011 133.392Z" fill="black"/>
<path d="M104.399 48.6429C104.081 48.7908 103.943 49.1684 104.091 49.4865L106.501 54.6688C106.648 54.9868 107.026 55.1247 107.344 54.9769C107.662 54.829 107.8 54.4514 107.652 54.1334L105.511 49.5269L110.117 47.3852C110.435 47.2374 110.573 46.8597 110.425 46.5417C110.277 46.2237 109.9 46.0858 109.582 46.2336L104.399 48.6429ZM104.449 49.8152C120.328 55.6151 131.847 70.4818 132.732 88.1516L134 88.0881C133.09 69.8946 121.229 54.5923 104.885 48.6223L104.449 49.8152Z" fill="black"/>
<defs>
<linearGradient id="paint0_linear_5048_10968" x1="40" y1="64.5" x2="95" y2="82" gradientUnits="userSpaceOnUse">
<stop stop-color="#FDC222"/>
<stop offset="1" stop-color="#FED668"/>
</linearGradient>
</defs>
</svg>
