<svg width="180" height="180" viewBox="0 0 180 180" fill="none" xmlns="http://www.w3.org/2000/svg">
<path d="M180 89.9987C180 139.706 139.706 180 89.9987 180C40.2918 180 0 139.706 0 89.9987C0 88.331 0.0452773 86.6709 0.138347 85.0258C2.71664 37.633 41.962 0 89.9987 0C138.035 0 177.283 37.633 179.862 85.0258C179.955 86.6709 180 88.331 180 89.9987Z" fill="white"/>
<path d="M0.772335 85.0616L0.77241 85.0603C3.33248 38.0025 42.3011 0.635 89.9987 0.635C137.696 0.635 176.667 38.0025 179.228 85.0603L179.228 85.0617C179.32 86.6943 179.365 88.3425 179.365 89.9987C179.365 139.355 139.355 179.365 89.9987 179.365C40.6425 179.365 0.635 139.355 0.635 89.9987C0.635 88.3425 0.679967 86.6943 0.772335 85.0616Z" stroke="black" stroke-opacity="0.4" stroke-width="1.27"/>
<line x1="86.5324" y1="92.2068" x2="56.311" y2="61.9854" stroke="black" stroke-width="1.27"/>
<path d="M85.5537 91.9297L104.417 53.3988" stroke="black" stroke-width="1.27"/>
<path d="M88.4111 91.6094L133.67 68.5089" stroke="black" stroke-width="1.27"/>
<path d="M86.2324 92.0472L53.4667 114.617" stroke="black" stroke-width="1.27"/>
<path d="M88.5273 92.4219L88.5273 128.953" stroke="black" stroke-width="1.27"/>
<path d="M87.1602 90.2168L123.403 96.987" stroke="black" stroke-width="1.27"/>
<circle cx="86.9818" cy="91.7562" r="16.0255" fill="white" stroke="black" stroke-width="1.27"/>
<circle cx="104.03" cy="53.012" r="6.72662" fill="white" stroke="black" stroke-width="1.27"/>
<circle cx="134.639" cy="67.7347" r="6.72662" fill="url(#paint0_linear_5048_10969)" stroke="black" stroke-width="1.27"/>
<circle cx="53.6605" cy="114.229" r="6.72662" fill="white" stroke="black" stroke-width="1.27"/>
<circle cx="88.3616" cy="130.362" r="6.72662" fill="white" stroke="black" stroke-width="1.27"/>
<circle cx="123.79" cy="96.0186" r="10.2137" fill="white" stroke="black" stroke-width="1.27"/>
<circle cx="56.3727" cy="60.3727" r="18.7377" fill="url(#paint1_linear_5048_10969)" stroke="black" stroke-width="1.27"/>
<circle cx="134.5" cy="67.5" r="6.865" fill="url(#paint2_linear_5048_10969)" stroke="black" stroke-width="1.27"/>
<circle cx="88.5" cy="130.5" r="6.865" fill="url(#paint3_linear_5048_10969)" stroke="black" stroke-width="1.27"/>
<defs>
<linearGradient id="paint0_linear_5048_10969" x1="128" y1="68" x2="141.5" y2="67.5" gradientUnits="userSpaceOnUse">
<stop stop-color="#FECD49"/>
<stop offset="1" stop-color="white" stop-opacity="0"/>
<stop offset="1" stop-color="#FFE192"/>
</linearGradient>
<linearGradient id="paint1_linear_5048_10969" x1="39" y1="57" x2="76" y2="64" gradientUnits="userSpaceOnUse">
<stop stop-color="#FDC11F"/>
<stop offset="1" stop-color="#FED76A"/>
</linearGradient>
<linearGradient id="paint2_linear_5048_10969" x1="127.774" y1="66.1943" x2="142.099" y2="68.9043" gradientUnits="userSpaceOnUse">
<stop stop-color="#FDC427"/>
<stop offset="1" stop-color="#FED668"/>
</linearGradient>
<linearGradient id="paint3_linear_5048_10969" x1="81.7743" y1="129.194" x2="96.0986" y2="131.904" gradientUnits="userSpaceOnUse">
<stop stop-color="#FDC326"/>
<stop offset="1" stop-color="#FED566"/>
</linearGradient>
</defs>
</svg>
