<svg width="180" height="180" viewBox="0 0 180 180" fill="none" xmlns="http://www.w3.org/2000/svg">
<path d="M180 89.9987C180 139.706 139.706 180 89.9987 180C40.2918 180 0 139.706 0 89.9987C0 88.331 0.0452773 86.6709 0.138347 85.0258C2.71664 37.633 41.962 0 89.9987 0C138.035 0 177.283 37.633 179.862 85.0258C179.955 86.6709 180 88.331 180 89.9987Z" fill="white"/>
<path d="M0.772335 85.0616L0.77241 85.0603C3.33248 38.0025 42.3011 0.635 89.9987 0.635C137.696 0.635 176.667 38.0025 179.228 85.0603L179.228 85.0616C179.32 86.6943 179.365 88.3425 179.365 89.9987C179.365 139.355 139.355 179.365 89.9987 179.365C40.6425 179.365 0.635 139.355 0.635 89.9987C0.635 88.3425 0.679967 86.6943 0.772335 85.0616Z" stroke="black" stroke-opacity="0.4" stroke-width="1.27"/>
<path d="M88.9064 30C56.3137 30.3577 30 56.8848 30 89.5758C30 122.267 56.3137 148.794 88.9064 149.152V30Z" stroke="black" stroke-width="1.27" stroke-miterlimit="10"/>
<path d="M99.834 78.1563L138.631 55.7551C129.724 42.8617 115.885 33.6616 99.834 30.875V78.1563Z" stroke="black" stroke-width="1.27" stroke-miterlimit="10"/>
<path d="M99.834 90.7647V148.269C127.853 143.403 149.168 118.989 149.168 89.5751C149.168 80.9158 147.305 72.6973 143.987 65.2773L99.834 90.773V90.7647Z" fill="url(#paint0_linear_5048_10970)" stroke="black" stroke-width="1.27" stroke-miterlimit="10"/>
<defs>
<linearGradient id="paint0_linear_5048_10970" x1="124.501" y1="65.2773" x2="124.501" y2="148.269" gradientUnits="userSpaceOnUse">
<stop stop-color="#FDC221"/>
<stop offset="1" stop-color="#FED76B"/>
</linearGradient>
</defs>
</svg>
