<?xml version="1.0" encoding="utf-8"?>
<!-- Generator: Adobe Illustrator 18.0.0, SVG Export Plug-In . SVG Version: 6.00 Build 0)  -->
<!DOCTYPE svg PUBLIC "-//W3C//DTD SVG 1.1//EN" "http://www.w3.org/Graphics/SVG/1.1/DTD/svg11.dtd">
<svg version="1.1" id="Слой_1" xmlns="http://www.w3.org/2000/svg" xmlns:xlink="http://www.w3.org/1999/xlink" x="0px" y="0px"
	 viewBox="0 0 130 128" enable-background="new 0 0 130 128" xml:space="preserve">
<g>
	<circle fill="#FFFFFF" cx="65" cy="64" r="64"/>
	<path d="M130,99H9.1c-5,0-9.1-4.1-9.1-9.1v-17l130,16.2V99z M2,75.1v14.8C2,93.8,5.2,97,9.1,97H128v-6.1L2,75.1z"/>
	<g>
		<path fill="#FFFFFF" d="M1,81.9V62.3c0-2.3,2-4,4.2-3.6L24,61.8c14.4,2.4,28.3-6,33-19.8l0,0l49.2,16.4
			C119.8,62.9,129,75.6,129,90v0H9C4.6,90,1,86.4,1,81.9z"/>
		<path d="M130,91H9c-5,0-9-4-9-9V62.3c0-2.8,2.5-5.1,5.4-4.6l18.8,3.1c1.6,0.3,3.2,0.4,4.7,0.4c12.3,0,23.2-7.9,27.1-19.6l0.3-0.9
			l50.2,16.7c14,4.7,23.5,17.8,23.5,32.5V91z M4.6,59.6c-1.5,0-2.6,1.2-2.6,2.6v19.7c0,3.9,3.1,7,7,7h119
			c-0.4-13.5-9.2-25.3-22.1-29.6L57.6,43.2c-4.4,12-15.8,20-28.7,20c-1.7,0-3.4-0.1-5.1-0.4L5.1,59.6C4.9,59.6,4.8,59.6,4.6,59.6z"
			/>
	</g>
	<path d="M105,91C105,91,105,91,105,91c-0.6,0-1-0.5-1-1l1.2-31.6c0-0.6,0.5-1,1-1c0.6,0,1,0.5,1,1L106,90C106,90.5,105.5,91,105,91
		z"/>
	<g>
		<linearGradient id="SVGID_1_" gradientUnits="userSpaceOnUse" x1="50.9992" y1="51.9509" x2="67.0006" y2="51.9509">
			<stop  offset="0" style="stop-color:#FFFFFF"/>
			<stop  offset="1" style="stop-color:#FCBA59"/>
		</linearGradient>
		<path fill="url(#SVGID_1_)" d="M55,64c-0.6,0-1.2-0.1-1.8-0.4c-2-1-2.8-3.4-1.8-5.4l8-16c1-2,3.4-2.8,5.4-1.8c2,1,2.8,3.4,1.8,5.4
			l-8,16C57.9,63.1,56.5,64,55,64z"/>
		<linearGradient id="SVGID_2_" gradientUnits="userSpaceOnUse" x1="60.5993" y1="55.1506" x2="76.6007" y2="55.1506">
			<stop  offset="0" style="stop-color:#FFFFFF"/>
			<stop  offset="1" style="stop-color:#FCBA59"/>
		</linearGradient>
		<path fill="url(#SVGID_2_)" d="M64.6,67.2c-0.6,0-1.2-0.1-1.8-0.4c-2-1-2.8-3.4-1.8-5.4l8-16c1-2,3.4-2.8,5.4-1.8
			c2,1,2.8,3.4,1.8,5.4l-8,16C67.5,66.3,66.1,67.2,64.6,67.2z"/>
		<linearGradient id="SVGID_3_" gradientUnits="userSpaceOnUse" x1="70.1994" y1="58.3508" x2="86.2008" y2="58.3508">
			<stop  offset="0" style="stop-color:#FFFFFF"/>
			<stop  offset="1" style="stop-color:#FCBA59"/>
		</linearGradient>
		<path fill="url(#SVGID_3_)" d="M74.2,70.4c-0.6,0-1.2-0.1-1.8-0.4c-2-1-2.8-3.4-1.8-5.4l8-16c1-2,3.4-2.8,5.4-1.8
			c2,1,2.8,3.4,1.8,5.4l-8,16C77.1,69.5,75.7,70.4,74.2,70.4z"/>
		<linearGradient id="SVGID_4_" gradientUnits="userSpaceOnUse" x1="79.7995" y1="61.551" x2="95.8009" y2="61.551">
			<stop  offset="0" style="stop-color:#FFFFFF"/>
			<stop  offset="1" style="stop-color:#FCBA59"/>
		</linearGradient>
		<path fill="url(#SVGID_4_)" d="M83.8,73.6c-0.6,0-1.2-0.1-1.8-0.4c-2-1-2.8-3.4-1.8-5.4l8-16c1-2,3.4-2.8,5.4-1.8
			c2,1,2.8,3.4,1.8,5.4l-8,16C86.7,72.7,85.3,73.6,83.8,73.6z"/>
		<linearGradient id="SVGID_5_" gradientUnits="userSpaceOnUse" x1="89.3991" y1="64.7504" x2="105.4005" y2="64.7504">
			<stop  offset="0" style="stop-color:#FFFFFF"/>
			<stop  offset="1" style="stop-color:#FCBA59"/>
		</linearGradient>
		<path fill="url(#SVGID_5_)" d="M93.4,76.8c-0.6,0-1.2-0.1-1.8-0.4c-2-1-2.8-3.4-1.8-5.4l8-16c1-2,3.4-2.8,5.4-1.8
			c2,1,2.8,3.4,1.8,5.4l-8,16C96.3,75.9,94.9,76.8,93.4,76.8z"/>
	</g>
	<g>
		<path fill="#FFFFFF" d="M1,74h11.8c6.6,0,11.8-5.6,11.2-12.2l0,0"/>
		<path d="M12.8,75H1c-0.6,0-1-0.4-1-1s0.4-1,1-1h11.8c2.9,0,5.6-1.2,7.5-3.3c2-2.1,2.9-4.9,2.7-7.8c0-0.6,0.4-1,0.9-1.1
			c0.5,0,1,0.4,1.1,0.9c0.3,3.4-0.9,6.8-3.2,9.3S16.2,75,12.8,75z"/>
	</g>
	<path d="M41,59c-0.6,0-1-0.4-1-1v-8c0-3.8,1.9-7.3,5.2-9.3s7.2-2.2,10.6-0.5l1.7,0.8c0.5,0.2,0.7,0.8,0.4,1.3
		c-0.2,0.5-0.8,0.7-1.3,0.4L54.9,42c-2.8-1.4-6-1.2-8.6,0.4C43.6,44,42,46.8,42,50v8C42,58.5,41.6,59,41,59z"/>
</g>
</svg>
