<?xml version="1.0" encoding="utf-8"?>
<!-- Generator: Adobe Illustrator 18.0.0, SVG Export Plug-In . SVG Version: 6.00 Build 0)  -->
<!DOCTYPE svg PUBLIC "-//W3C//DTD SVG 1.1//EN" "http://www.w3.org/Graphics/SVG/1.1/DTD/svg11.dtd">
<svg version="1.1" id="Слой_1" xmlns="http://www.w3.org/2000/svg" xmlns:xlink="http://www.w3.org/1999/xlink" x="0px" y="0px"
	 viewBox="0 0 193.2 130" enable-background="new 0 0 193.2 130" xml:space="preserve">
<g>
	<polygon points="193,130 0,130 0,0 98,0 98,57 96,57 96,2 2,2 2,128 193,128 	"/>
	<rect x="17" y="16" width="64" height="2"/>
	<rect x="17" y="32" width="64" height="2"/>
	<rect x="17" y="48" width="64" height="2"/>
	<rect x="17" y="64" width="32" height="2"/>
	<polygon points="192.8,66 129,50 65.2,66 64.8,64 129,48 193.2,64 	"/>
	<g>
		<line fill="#FFFFFF" x1="81" y1="73" x2="81" y2="121"/>
		<rect x="80" y="73" width="2" height="48"/>
	</g>
	<g>
		<line fill="#FFFFFF" x1="97" y1="73" x2="97" y2="121"/>
		<rect x="96" y="73" width="2" height="48"/>
	</g>
	<g>
		<line fill="#FFFFFF" x1="113" y1="73" x2="113" y2="121"/>
		<rect x="112" y="73" width="2" height="48"/>
	</g>
	<g>
		<line fill="#FFFFFF" x1="129" y1="73" x2="129" y2="121"/>
		<rect x="128" y="73" width="2" height="48"/>
	</g>
	<g>
		<line fill="#FFFFFF" x1="145" y1="73" x2="145" y2="121"/>
		<rect x="144" y="73" width="2" height="48"/>
	</g>
	<g>
		<line fill="#FFFFFF" x1="161" y1="73" x2="161" y2="121"/>
		<rect x="160" y="73" width="2" height="48"/>
	</g>
	<g>
		<line fill="#FFFFFF" x1="177" y1="73" x2="177" y2="121"/>
		<rect x="176" y="73" width="2" height="48"/>
	</g>
	<path d="M49,106c-5,0-9-4-9-9s4-9,9-9s9,4,9,9S54,106,49,106z M49,90c-3.9,0-7,3.1-7,7s3.1,7,7,7s7-3.1,7-7S52.9,90,49,90z"/>
</g>
</svg>
