<?xml version="1.0" encoding="utf-8"?>
<!-- Generator: Adobe Illustrator 18.0.0, SVG Export Plug-In . SVG Version: 6.00 Build 0)  -->
<!DOCTYPE svg PUBLIC "-//W3C//DTD SVG 1.1//EN" "http://www.w3.org/Graphics/SVG/1.1/DTD/svg11.dtd">
<svg version="1.1" xmlns="http://www.w3.org/2000/svg" xmlns:xlink="http://www.w3.org/1999/xlink" x="0px" y="0px"
	 viewBox="0 0 642 1219.9" enable-background="new 0 0 642 1219.9" xml:space="preserve">
<g id="Слой_1">
	<g>
		<g>
			<g>
				<path fill="#FFFFFF" d="M258,1117.3c0-35.3,28.7-61,64-61s64,25.7,64,61c0,35.3-28.7,64-64,64S258,1152.7,258,1117.3z"/>
				<path d="M387,1152.3H266.1c-5,0-9.1-4.1-9.1-9.1v-17l130,16.2V1152.3z M259,1128.4v14.8c0,3.9,3.2,7.1,7.1,7.1H385v-6.1
					L259,1128.4z"/>
				<g>
					<path fill="#FFFFFF" d="M258,1135.2v-19.7c0-2.3,2-4,4.2-3.6l18.8,3.1c14.4,2.4,28.3-6,33-19.8l0,0l49.2,16.4
						c13.6,4.5,22.8,17.3,22.8,31.6l0,0H266C261.6,1143.3,258,1139.7,258,1135.2z"/>
					<path d="M386,1144.3H266c-5,0-9-4-9-9v-19.7c0-2.8,2.5-5.1,5.4-4.6l18.8,3.1c1.6,0.3,3.1,0.4,4.7,0.4
						c12.3,0,23.2-7.9,27.1-19.6l0.3-0.9l50.2,16.7c14,4.7,23.5,17.8,23.5,32.5v1L386,1144.3z M261.6,1112.9c-1.5,0-2.6,1.2-2.6,2.6
						v19.7c0,3.9,3.1,7,7,7h119c-0.4-13.5-9.2-25.3-22.1-29.6l-48.3-16.1c-4.4,12-15.8,20-28.7,20c-1.7,0-3.4-0.1-5.1-0.4l-18.8-3.1
						C261.9,1112.9,261.8,1112.9,261.6,1112.9z"/>
				</g>
				<path d="M362,1144.3C362,1144.3,362,1144.3,362,1144.3c-0.6,0-1-0.5-1-1l1.2-31.6c0-0.6,0.5-1,1-1c0.6,0,1,0.5,1,1l-1.2,31.6
					C363,1143.8,362.5,1144.3,362,1144.3z"/>
				<g>
					<linearGradient id="SVGID_1_" gradientUnits="userSpaceOnUse" x1="307.9993" y1="1105.2614" x2="324.0007" y2="1105.2614">
						<stop  offset="0" style="stop-color:#FFFFFF"/>
						<stop  offset="1" style="stop-color:#FCBA59"/>
					</linearGradient>
					<path fill="url(#SVGID_1_)" d="M312,1117.3c-0.6,0-1.2-0.1-1.8-0.4c-2-1-2.8-3.4-1.8-5.4l8-16c1-2,3.4-2.8,5.4-1.8
						c2,1,2.8,3.4,1.8,5.4l-8,16C314.9,1116.5,313.5,1117.3,312,1117.3z"/>
					<linearGradient id="SVGID_2_" gradientUnits="userSpaceOnUse" x1="317.5989" y1="1108.4613" x2="333.6003" y2="1108.4613">
						<stop  offset="0" style="stop-color:#FFFFFF"/>
						<stop  offset="1" style="stop-color:#FCBA59"/>
					</linearGradient>
					<path fill="url(#SVGID_2_)" d="M321.6,1120.5c-0.6,0-1.2-0.1-1.8-0.4c-2-1-2.8-3.4-1.8-5.4l8-16c1-2,3.4-2.8,5.4-1.8
						c2,1,2.8,3.4,1.8,5.4l-8,16C324.5,1119.7,323.1,1120.5,321.6,1120.5z"/>
					<linearGradient id="SVGID_3_" gradientUnits="userSpaceOnUse" x1="327.199" y1="1111.6615" x2="343.2004" y2="1111.6615">
						<stop  offset="0" style="stop-color:#FFFFFF"/>
						<stop  offset="1" style="stop-color:#FCBA59"/>
					</linearGradient>
					<path fill="url(#SVGID_3_)" d="M331.2,1123.7c-0.6,0-1.2-0.1-1.8-0.4c-2-1-2.8-3.4-1.8-5.4l8-16c1-2,3.4-2.8,5.4-1.8
						c2,1,2.8,3.4,1.8,5.4l-8,16C334.1,1122.9,332.7,1123.7,331.2,1123.7z"/>
					<linearGradient id="SVGID_4_" gradientUnits="userSpaceOnUse" x1="336.7991" y1="1114.8612" x2="352.8005" y2="1114.8612">
						<stop  offset="0" style="stop-color:#FFFFFF"/>
						<stop  offset="1" style="stop-color:#FCBA59"/>
					</linearGradient>
					<path fill="url(#SVGID_4_)" d="M340.8,1126.9c-0.6,0-1.2-0.1-1.8-0.4c-2-1-2.8-3.4-1.8-5.4l8-16c1-2,3.4-2.8,5.4-1.8
						c2,1,2.8,3.4,1.8,5.4l-8,16C343.7,1126.1,342.3,1126.9,340.8,1126.9z"/>
					<linearGradient id="SVGID_5_" gradientUnits="userSpaceOnUse" x1="346.3992" y1="1118.0614" x2="362.4006" y2="1118.0614">
						<stop  offset="0" style="stop-color:#FFFFFF"/>
						<stop  offset="1" style="stop-color:#FCBA59"/>
					</linearGradient>
					<path fill="url(#SVGID_5_)" d="M350.4,1130.1c-0.6,0-1.2-0.1-1.8-0.4c-2-1-2.8-3.4-1.8-5.4l8-16c1-2,3.4-2.8,5.4-1.8
						c2,1,2.8,3.4,1.8,5.4l-8,16C353.3,1129.3,351.9,1130.1,350.4,1130.1z"/>
				</g>
				<g>
					<path fill="#FFFFFF" d="M258,1127.3h11.8c6.6,0,11.8-5.6,11.2-12.2v0"/>
					<path d="M269.8,1128.3H258c-0.6,0-1-0.4-1-1s0.4-1,1-1h11.8c2.9,0,5.6-1.2,7.5-3.3s2.9-4.9,2.7-7.8c0-0.6,0.4-1,0.9-1.1
						c0.6,0,1,0.4,1.1,0.9c0.3,3.4-0.9,6.8-3.2,9.3C276.5,1126.8,273.2,1128.3,269.8,1128.3z"/>
				</g>
				<path d="M298,1112.3c-0.6,0-1-0.4-1-1v-8c0-3.8,1.9-7.3,5.2-9.3c3.2-2,7.2-2.2,10.6-0.5l1.7,0.8c0.5,0.2,0.7,0.8,0.4,1.3
					c-0.2,0.5-0.8,0.7-1.3,0.4l-1.7-0.8c-2.8-1.4-6-1.2-8.6,0.4c-2.6,1.6-4.2,4.5-4.2,7.6v8C299,1111.8,298.6,1112.3,298,1112.3z"/>
			</g>
			<g>
				<g>
					<path fill="#2762FF" d="M281.3,1218.3c-1.1,1.1-2.8,1.6-4.4,1.6c-1.9,0-3.4-0.5-4.5-1.5c-1-0.9-1.6-2.3-1.6-3.8h2.1
						c0,0.9,0.4,1.9,1.1,2.5c0.7,0.7,1.8,1,3,1c1.2,0,2.2-0.2,2.9-0.9c0.5-0.4,0.8-1,0.8-1.8c0-1.2-0.7-2.2-2.6-2.5
						c-0.9-0.1-1.6-0.2-2.4-0.4c-2.4-0.4-4.2-1.7-4.2-4.2c0-1.2,0.5-2.3,1.3-3.1c1.1-1,2.4-1.6,4.1-1.6c1.5,0,3,0.5,4,1.5
						c1,0.9,1.4,2.1,1.5,3.4h-2.1c0-0.8-0.3-1.4-0.8-1.9c-0.6-0.7-1.5-1.1-2.7-1.1c-1.1,0-2,0.3-2.7,1.1c-0.4,0.5-0.6,1-0.6,1.7
						c0,1.4,1.1,2.1,2.3,2.2c0.9,0.1,1.7,0.3,2.6,0.4c2.6,0.4,4.3,2,4.3,4.5C282.6,1216.5,282.1,1217.5,281.3,1218.3z"/>
					<path fill="#2762FF" d="M294.6,1219.6l-6.3-12.7v12.7h-1.9v-15.7h2.5l6.3,12.7v-12.7h1.9v15.7H294.6z"/>
					<path fill="#2762FF" d="M301.9,1219.6v-15.7h10.4v1.8h-8.4v4.8h6.4v1.9h-6.4v5.4h8.4v1.8H301.9z"/>
					<path fill="#2762FF" d="M325.8,1219.6l-1.3-4.1h-6.1l-1.3,4.1h-2l5.2-15.7h2.4l5.2,15.7H325.8z M321.4,1205.8l-2.4,7.8h5
						L321.4,1205.8z"/>
					<path fill="#2762FF" d="M340.5,1219.6l-4.6-7.9l-2.7,3v4.9h-2v-15.7h2v8.1l7.1-8.1h2.4l-5.5,6.2l5.5,9.5H340.5z"/>
					<path fill="#2762FF" d="M346.5,1219.6v-15.7h10.4v1.8h-8.4v4.8h6.4v1.9h-6.4v5.4h8.4v1.8H346.5z"/>
					<path fill="#2762FF" d="M369.7,1219.6l-3-6.5h-3.6v6.5h-2v-15.7h5.4c1.8,0,3.1,0.5,4,1.4c0.8,0.8,1.2,1.8,1.2,3.2
						c0,1.4-0.4,2.3-1.2,3.1c-0.5,0.5-1.1,0.9-1.9,1.1l3.2,6.9H369.7z M366.6,1205.6h-3.4v5.5h3.4c1.9,0,3.2-0.8,3.2-2.8
						S368.4,1205.6,366.6,1205.6z"/>
				</g>
			</g>
		</g>
		<g>
			<g>
				<circle fill="#FFFFFF" cx="321" cy="416.3" r="64"/>
				<g>
					
						<linearGradient id="SVGID_6_" gradientUnits="userSpaceOnUse" x1="697" y1="-489.9871" x2="625" y2="-489.9871" gradientTransform="matrix(-1 0 0 -1 1018 -71.3791)">
						<stop  offset="0" style="stop-color:#FFFFFF"/>
						<stop  offset="1" style="stop-color:#FCBA59"/>
					</linearGradient>
					<path fill="url(#SVGID_6_)" d="M369,466.6c13.3,0,24-10.7,24-24v-72h-48v72c0,13.3-10.7,24-24,24H369z"/>
					<g>
						<path fill="#FFFFFF" d="M321,458.6h48c8.8,0,16-7.2,16-16v0c0-8.8-7.2-16-16-16h-48c-8.8,0-16,7.2-16,16v0
							C305,451.4,312.2,458.6,321,458.6z"/>
						<path d="M369,459.6h-48c-9.4,0-17-7.6-17-17s7.6-17,17-17h48c9.4,0,17,7.6,17,17S378.4,459.6,369,459.6z M321,427.6
							c-8.3,0-15,6.7-15,15s6.7,15,15,15h48c8.3,0,15-6.7,15-15s-6.7-15-15-15H321z"/>
					</g>
					
						<linearGradient id="SVGID_7_" gradientUnits="userSpaceOnUse" x1="297" y1="-633.9871" x2="369" y2="-633.9871" gradientTransform="matrix(1 0 0 -1 0 -215.3791)">
						<stop  offset="0" style="stop-color:#FFFFFF"/>
						<stop  offset="1" style="stop-color:#FCBA59"/>
					</linearGradient>
					<path fill="url(#SVGID_7_)" d="M321,466.6c-13.3,0-24-10.7-24-24v-48c0-13.3,10.7-24,24-24h0c13.3,0,24,10.7,24,24v48
						c0,13.3,10.7,24,24,24H321z"/>
					<g>
						<path fill="#FFFFFF" d="M273,410.6h48c8.8,0,16-7.2,16-16v0c0-8.8-7.2-16-16-16h-48c-8.8,0-16,7.2-16,16v0
							C257,403.4,264.2,410.6,273,410.6z"/>
						<path d="M321,411.6h-48c-9.4,0-17-7.6-17-17s7.6-17,17-17h48c9.4,0,17,7.6,17,17S330.4,411.6,321,411.6z M273,379.6
							c-8.3,0-15,6.7-15,15s6.7,15,15,15h48c8.3,0,15-6.7,15-15s-6.7-15-15-15H273z"/>
					</g>
					<linearGradient id="SVGID_8_" gradientUnits="userSpaceOnUse" x1="249" y1="418.608" x2="321" y2="418.608">
						<stop  offset="0" style="stop-color:#FFFFFF"/>
						<stop  offset="1" style="stop-color:#FCBA59"/>
					</linearGradient>
					<path fill="url(#SVGID_8_)" d="M273,370.6c-13.3,0-24,10.7-24,24v72h48v-72c0-13.3,10.7-24,24-24H273z"/>
					<circle cx="321" cy="394.6" r="16"/>
					<circle cx="369" cy="442.6" r="16"/>
					<g>
						<path fill="#FFFFFF" d="M321,402.6L321,402.6c-4.4,0-8-3.6-8-8v0c0-4.4,3.6-8,8-8l0,0c4.4,0,8,3.6,8,8v0
							C329,399,325.4,402.6,321,402.6z"/>
						<path d="M321,403.1c-4.7,0-8.5-3.8-8.5-8.5s3.8-8.5,8.5-8.5s8.5,3.8,8.5,8.5S325.7,403.1,321,403.1z M321,387.1
							c-4.1,0-7.5,3.4-7.5,7.5s3.4,7.5,7.5,7.5s7.5-3.4,7.5-7.5S325.1,387.1,321,387.1z"/>
					</g>
					<g>
						<path fill="#FFFFFF" d="M369,450.6L369,450.6c-4.4,0-8-3.6-8-8v0c0-4.4,3.6-8,8-8l0,0c4.4,0,8,3.6,8,8v0
							C377,447,373.4,450.6,369,450.6z"/>
						<path d="M369,451.1c-4.7,0-8.5-3.8-8.5-8.5s3.8-8.5,8.5-8.5s8.5,3.8,8.5,8.5S373.7,451.1,369,451.1z M369,435.1
							c-4.1,0-7.5,3.4-7.5,7.5s3.4,7.5,7.5,7.5s7.5-3.4,7.5-7.5S373.1,435.1,369,435.1z"/>
					</g>
				</g>
			</g>
			<g>
				<g>
					<path fill="#2762FF" d="M280.8,499.3v5.1h6.8v1.9h-6.8v6.9h-2v-15.7h10.5v1.8H280.8z"/>
					<path fill="#2762FF" d="M302.5,513.2l-1.3-4.1h-6.1l-1.3,4.1h-2l5.2-15.7h2.4l5.2,15.7H302.5z M298.1,499.5l-2.4,7.8h5
						L298.1,499.5z"/>
					<path fill="#2762FF" d="M317.7,511.8c-0.9,1-2.4,1.4-4,1.4h-5.3v-15.7h5.3c1.5,0,2.9,0.4,3.8,1.4c0.6,0.6,1,1.6,1,2.7
						c0,1.5-0.8,3-2.3,3.5c1.6,0.5,2.6,2.1,2.6,3.8C318.8,510.1,318.4,511.1,317.7,511.8z M313.6,499.2h-3.2v5h3.3
						c1.6,0,2.8-0.7,2.8-2.5C316.4,500,315.1,499.2,313.6,499.2z M313.7,505.9h-3.3v5.5h3.4c1.7,0,3.1-0.7,3.1-2.7
						C316.8,506.9,315.5,505.9,313.7,505.9z"/>
					<path fill="#2762FF" d="M331.5,513.2l-3-6.5H325v6.5h-2v-15.7h5.4c1.8,0,3.1,0.5,4,1.4c0.8,0.8,1.2,1.8,1.2,3.2
						c0,1.4-0.4,2.3-1.2,3.1c-0.5,0.5-1.1,0.9-1.9,1.1l3.2,6.9H331.5z M328.4,499.3H325v5.5h3.4c1.9,0,3.2-0.8,3.2-2.8
						S330.3,499.3,328.4,499.3z"/>
					<path fill="#2762FF" d="M338.3,513.2v-1.6h3.5v-12.5h-3.5v-1.6h9v1.6h-3.5v12.5h3.5v1.6H338.3z"/>
					<path fill="#2762FF" d="M357.9,513.5c-1.6,0-3-0.6-4.1-1.7c-1.8-1.7-1.9-4.2-1.9-6.5s0.2-4.8,1.9-6.5c1.1-1.1,2.5-1.7,4.1-1.7
						c3,0,5.5,2.1,5.6,5.2h-2.1c0-0.9-0.4-1.7-0.9-2.2c-0.6-0.7-1.6-1.1-2.7-1.1c-1.1,0-1.9,0.4-2.7,1.2c-1.3,1.3-1.3,3.4-1.3,5.1
						s0,3.8,1.3,5.1c0.7,0.8,1.6,1.2,2.7,1.2c2,0,3.6-1.4,3.6-3.5h2C363.4,511.2,361,513.5,357.9,513.5z"/>
				</g>
			</g>
		</g>
		<g>
			<g>
				<g>
					<path fill="#2762FF" d="M286.8,864v-15.7h2v13.9h8.1v1.8H286.8z"/>
					<path fill="#2762FF" d="M309.9,864l-1.3-4.1h-6.1l-1.3,4.1h-2l5.2-15.7h2.4L312,864H309.9z M305.5,850.3l-2.4,7.8h5
						L305.5,850.3z"/>
					<path fill="#2762FF" d="M320.7,864.3c-1.6,0-3-0.6-4.1-1.7c-1.8-1.7-1.9-4.2-1.9-6.5s0.2-4.8,1.9-6.5c1.1-1.1,2.5-1.7,4.1-1.7
						c3,0,5.5,2.1,5.6,5.2h-2.1c0-0.9-0.4-1.7-0.9-2.2c-0.6-0.7-1.6-1.1-2.7-1.1c-1.1,0-1.9,0.4-2.7,1.2c-1.3,1.3-1.3,3.4-1.3,5.1
						s0,3.8,1.3,5.1c0.7,0.8,1.6,1.2,2.7,1.2c2,0,3.6-1.4,3.6-3.5h2C326.3,862,323.8,864.3,320.7,864.3z"/>
					<path fill="#2762FF" d="M330.7,864v-15.7h10.4v1.8h-8.4v4.8h6.4v1.9h-6.4v5.4h8.4v1.8H330.7z"/>
					<path fill="#2762FF" d="M354.7,862.7c-1.1,1.1-2.8,1.6-4.4,1.6c-1.9,0-3.4-0.5-4.5-1.5c-1-0.9-1.6-2.3-1.6-3.8h2.1
						c0,0.9,0.4,1.9,1.1,2.5c0.7,0.7,1.8,1,3,1c1.2,0,2.2-0.2,2.9-0.9c0.5-0.4,0.8-1,0.8-1.8c0-1.2-0.7-2.2-2.6-2.5
						c-0.9-0.1-1.6-0.2-2.4-0.4c-2.4-0.4-4.2-1.7-4.2-4.2c0-1.2,0.5-2.3,1.3-3.1c1.1-1,2.4-1.6,4.1-1.6c1.5,0,3,0.5,4,1.5
						c1,0.9,1.4,2.1,1.5,3.4h-2.1c0-0.8-0.3-1.4-0.8-1.9c-0.6-0.7-1.5-1.1-2.7-1.1c-1.1,0-2,0.3-2.7,1.1c-0.4,0.5-0.6,1-0.6,1.7
						c0,1.4,1.1,2.1,2.3,2.2c0.9,0.1,1.7,0.3,2.6,0.4c2.6,0.4,4.3,2,4.3,4.5C356,861,355.5,862,354.7,862.7z"/>
				</g>
			</g>
			<g>
				<circle fill="#FFFFFF" cx="321" cy="767.1" r="64"/>
				<path fill="#FCBA59" d="M281,723.4h-16c-1.1,0-2-0.9-2-2s0.9-2,2-2h16c1.1,0,2,0.9,2,2S282.1,723.4,281,723.4z"/>
				<linearGradient id="SVGID_9_" gradientUnits="userSpaceOnUse" x1="265.2018" y1="816.226" x2="376.7982" y2="722.5856">
					<stop  offset="0" style="stop-color:#FFFFFF"/>
					<stop  offset="1" style="stop-color:#FCBA59"/>
				</linearGradient>
				<path fill="url(#SVGID_9_)" d="M361,821.4h-84c-8.8,0-16-7.2-16-16s7.2-16,16-16h88c4.4,0,8-3.6,8-8s-3.6-8-8-8h-88
					c-8.8,0-16-7.2-16-16s7.2-16,16-16h88c4.4,0,8-3.6,8-8s-3.6-8-8-8h-84c-2.2,0-4-1.8-4-4s1.8-4,4-4h84c8.8,0,16,7.2,16,16
					s-7.2,16-16,16h-88c-4.4,0-8,3.6-8,8s3.6,8,8,8h88c8.8,0,16,7.2,16,16s-7.2,16-16,16h-88c-4.4,0-8,3.6-8,8s3.6,8,8,8h84
					c2.2,0,4,1.8,4,4S363.2,821.4,361,821.4z"/>
				<path fill="#FCBA59" d="M377,819.4h-16c-1.1,0-2-0.9-2-2s0.9-2,2-2h16c1.1,0,2,0.9,2,2S378.1,819.4,377,819.4z"/>
			</g>
		</g>
		<g>
			<g>
				<circle fill="#FFFFFF" cx="321" cy="64" r="64"/>
				<rect x="288" y="24" width="2" height="80"/>
				<linearGradient id="SVGID_10_" gradientUnits="userSpaceOnUse" x1="257" y1="40" x2="289" y2="40">
					<stop  offset="0" style="stop-color:#FCBA59"/>
					<stop  offset="1" style="stop-color:#FFFFFF"/>
				</linearGradient>
				<circle fill="url(#SVGID_10_)" cx="273" cy="40" r="16"/>
				<linearGradient id="SVGID_11_" gradientUnits="userSpaceOnUse" x1="273" y1="24" x2="305" y2="24">
					<stop  offset="0" style="stop-color:#FCBA59"/>
					<stop  offset="1" style="stop-color:#FFFFFF"/>
				</linearGradient>
				<circle fill="url(#SVGID_11_)" cx="289" cy="24" r="16"/>
				<linearGradient id="SVGID_12_" gradientUnits="userSpaceOnUse" x1="289" y1="40" x2="321" y2="40">
					<stop  offset="0" style="stop-color:#FCBA59"/>
					<stop  offset="1" style="stop-color:#FFFFFF"/>
				</linearGradient>
				<circle fill="url(#SVGID_12_)" cx="305" cy="40" r="16"/>
				<path d="M289,81h-1v-1c0-9.4,7.6-17,17-17h1v1C306,73.4,298.4,81,289,81z M304,65c-7.4,0.5-13.4,6.5-13.9,13.9
					C297.5,78.5,303.5,72.5,304,65z"/>
				<rect x="352" y="40" width="2" height="80"/>
				<linearGradient id="SVGID_13_" gradientUnits="userSpaceOnUse" x1="321" y1="55.9999" x2="353" y2="55.9999">
					<stop  offset="0" style="stop-color:#FCBA59"/>
					<stop  offset="1" style="stop-color:#FFFFFF"/>
				</linearGradient>
				<circle fill="url(#SVGID_13_)" cx="337" cy="56" r="16"/>
				<linearGradient id="SVGID_14_" gradientUnits="userSpaceOnUse" x1="337" y1="40" x2="369" y2="40">
					<stop  offset="0" style="stop-color:#FCBA59"/>
					<stop  offset="1" style="stop-color:#FFFFFF"/>
				</linearGradient>
				<circle fill="url(#SVGID_14_)" cx="353" cy="40" r="16"/>
				<linearGradient id="SVGID_15_" gradientUnits="userSpaceOnUse" x1="353" y1="55.9999" x2="385" y2="55.9999">
					<stop  offset="0" style="stop-color:#FCBA59"/>
					<stop  offset="1" style="stop-color:#FFFFFF"/>
				</linearGradient>
				<circle fill="url(#SVGID_15_)" cx="369" cy="56" r="16"/>
				<path d="M353,97h-1v-1c0-9.4,7.6-17,17-17h1v1C370,89.4,362.4,97,353,97z M368,81c-7.4,0.5-13.4,6.5-13.9,13.9
					C361.5,94.5,367.5,88.5,368,81z"/>
			</g>
			<g>
				<g>
					<path fill="#2762FF" d="M284.1,160.3c-1.6,0-3-0.6-4.1-1.7c-1.8-1.7-1.9-4.2-1.9-6.5s0.2-4.8,1.9-6.5c1.1-1.1,2.5-1.7,4.1-1.7
						c3,0,5.5,2.1,5.6,5.2h-2.1c0-0.9-0.4-1.7-0.9-2.2c-0.6-0.7-1.6-1.1-2.7-1.1c-1.1,0-1.9,0.4-2.7,1.2c-1.3,1.3-1.3,3.4-1.3,5.1
						s0,3.8,1.3,5.1c0.7,0.8,1.6,1.2,2.7,1.2c2,0,3.6-1.4,3.6-3.5h2C289.6,158,287.2,160.3,284.1,160.3z"/>
					<path fill="#2762FF" d="M302.8,158.6c-1.1,1.1-2.5,1.7-4.1,1.7s-3-0.6-4.1-1.7c-1.7-1.7-1.9-4-1.9-6.5s0.2-4.8,1.9-6.5
						c1.1-1.1,2.5-1.7,4.1-1.7s3,0.6,4.1,1.7c1.7,1.7,1.9,4,1.9,6.5S304.5,156.9,302.8,158.6z M301.4,147.1
						c-0.8-0.8-1.7-1.2-2.7-1.2c-1.1,0-2,0.4-2.7,1.2c-1.3,1.3-1.2,3.4-1.2,5.1s0,3.8,1.2,5.1c0.8,0.8,1.7,1.2,2.7,1.2
						c1.1,0,2-0.4,2.7-1.2c1.3-1.3,1.2-3.4,1.2-5.1S302.7,148.4,301.4,147.1z"/>
					<path fill="#2762FF" d="M314.6,146.1V160h-2v-13.9h-5.4v-1.8h12.7v1.8H314.6z"/>
					<path fill="#2762FF" d="M329.5,146.1V160h-2v-13.9h-5.3v-1.8h12.7v1.8H329.5z"/>
					<path fill="#2762FF" d="M347.4,158.6c-1.1,1.1-2.5,1.7-4.1,1.7c-1.6,0-3-0.6-4.1-1.7c-1.7-1.7-1.9-4-1.9-6.5s0.2-4.8,1.9-6.5
						c1.1-1.1,2.5-1.7,4.1-1.7c1.6,0,3,0.6,4.1,1.7c1.7,1.7,1.9,4,1.9,6.5S349.1,156.9,347.4,158.6z M346,147.1
						c-0.8-0.8-1.7-1.2-2.7-1.2c-1.1,0-2,0.4-2.7,1.2c-1.3,1.3-1.2,3.4-1.2,5.1s0,3.8,1.2,5.1c0.8,0.8,1.7,1.2,2.7,1.2
						c1.1,0,2-0.4,2.7-1.2c1.3-1.3,1.2-3.4,1.2-5.1S347.3,148.4,346,147.1z"/>
					<path fill="#2762FF" d="M361.1,160l-6.3-12.7V160h-1.9v-15.7h2.5l6.3,12.7v-12.7h1.9V160H361.1z"/>
				</g>
			</g>
		</g>
		<g>
			<path d="M213.1,1153.3H33c-18.2,0-33-14.8-33-33V96.3c0-18.2,14.8-33,33-33h192v2H33c-17.1,0-31,13.9-31,31v1024
				c0,17.1,13.9,31,31,31h180.1V1153.3z"/>
			<g>
				<polygon points="207.4,1144.9 210.6,1152.3 207.4,1159.7 225,1152.3 				"/>
			</g>
		</g>
		<g>
			<path d="M609,1153.3H417v-2h192c17.1,0,31-13.9,31-31V96.3c0-17.1-13.9-31-31-31H428.9v-2H609c18.2,0,33,14.8,33,33v1024
				C642,1138.5,627.2,1153.3,609,1153.3z"/>
			<g>
				<polygon points="434.6,71.7 431.4,64.3 434.6,56.9 417,64.3 				"/>
			</g>
		</g>
		<g>
			<rect x="320" y="195.3" fill="#2762FF" width="2" height="121"/>
			<g>
				<polygon fill="#2762FF" points="313.6,201.4 321,198.2 328.4,201.4 321,183.8 				"/>
			</g>
			<g>
				<polygon fill="#2762FF" points="313.6,310.3 321,313.4 328.4,310.3 321,327.8 				"/>
			</g>
		</g>
		<g>
			<rect x="320" y="548.3" fill="#2762FF" width="2" height="121"/>
			<g>
				<polygon fill="#2762FF" points="313.6,554.4 321,551.2 328.4,554.4 321,536.8 				"/>
			</g>
			<g>
				<polygon fill="#2762FF" points="313.6,663.3 321,666.4 328.4,663.3 321,680.8 				"/>
			</g>
		</g>
		<g>
			<rect x="320" y="900.3" fill="#2762FF" width="2" height="121"/>
			<g>
				<polygon fill="#2762FF" points="313.6,906.4 321,903.2 328.4,906.4 321,888.8 				"/>
			</g>
			<g>
				<polygon fill="#2762FF" points="313.6,1015.3 321,1018.4 328.4,1015.3 321,1032.8 				"/>
			</g>
		</g>
	</g>
</g>
<g id="Слой_2">
</g>
</svg>
