<?xml version="1.0" encoding="utf-8"?>
<!-- Generator: Adobe Illustrator 18.0.0, SVG Export Plug-In . SVG Version: 6.00 Build 0)  -->
<!DOCTYPE svg PUBLIC "-//W3C//DTD SVG 1.1//EN" "http://www.w3.org/Graphics/SVG/1.1/DTD/svg11.dtd">
<svg version="1.1" id="Слой_1" xmlns="http://www.w3.org/2000/svg" xmlns:xlink="http://www.w3.org/1999/xlink" x="0px" y="0px"
	 viewBox="0 0 1920 1056" enable-background="new 0 0 1920 1056" xml:space="preserve">
<path fill="#CCCCCC" d="M1856,992.5H928c-17.9,0-32.5-14.6-32.5-32.5V128c0-17.9,14.6-32.5,32.5-32.5h768v1H928
	c-17.4,0-31.5,14.1-31.5,31.5v832c0,17.4,14.1,31.5,31.5,31.5h928c17.4,0,31.5-14.1,31.5-31.5V128c0-17.4-14.1-31.5-31.5-31.5v-1
	c17.9,0,32.5,14.6,32.5,32.5v832C1888.5,977.9,1873.9,992.5,1856,992.5z"/>
<rect x="1216" y="287.5" fill="#999999" width="320" height="1"/>
<rect x="832" y="415.5" fill="#999999" width="256" height="1"/>
<rect x="832" y="159.5" fill="#999999" width="256" height="1"/>
<rect x="832" y="927.5" fill="#999999" width="256" height="1"/>
<rect x="464" y="127.5" fill="#999999" width="112" height="1"/>
<rect x="464" y="63.5" fill="#999999" width="112" height="1"/>
<rect x="464" y="255.5" fill="#999999" width="112" height="1"/>
<rect x="464" y="191.5" fill="#999999" width="112" height="1"/>
<rect x="464" y="383.5" fill="#999999" width="112" height="1"/>
<rect x="464" y="319.5" fill="#999999" width="112" height="1"/>
<rect x="464" y="511.5" fill="#999999" width="112" height="1"/>
<rect x="464" y="447.5" fill="#999999" width="112" height="1"/>
<rect x="464" y="639.5" fill="#999999" width="112" height="1"/>
<rect x="464" y="575.5" fill="#999999" width="112" height="1"/>
<rect x="464" y="703.5" fill="#999999" width="112" height="1"/>
<rect x="464" y="895.5" fill="#999999" width="112" height="1"/>
<rect x="464" y="831.5" fill="#999999" width="112" height="1"/>
<rect x="464" y="1023.5" fill="#999999" width="112" height="1"/>
<rect x="464" y="959.5" fill="#999999" width="112" height="1"/>
<rect x="608" y="991.5" fill="#999999" width="160" height="1"/>
<rect x="608" y="863.5" fill="#999999" width="160" height="1"/>
<rect x="608" y="607.5" fill="#999999" width="160" height="1"/>
<rect x="608" y="479.5" fill="#999999" width="160" height="1"/>
<rect x="608" y="351.5" fill="#999999" width="160" height="1"/>
<rect x="608" y="223.5" fill="#999999" width="160" height="1"/>
<rect x="608" y="95.5" fill="#999999" width="160" height="1"/>
<path fill="#999999" d="M1088,416.5c-70.9,0-128.5-57.6-128.5-128.5s57.6-128.5,128.5-128.5s128.5,57.6,128.5,128.5
	S1158.9,416.5,1088,416.5z M1088,160.5c-70.3,0-127.5,57.2-127.5,127.5s57.2,127.5,127.5,127.5s127.5-57.2,127.5-127.5
	S1158.3,160.5,1088,160.5z"/>
<path fill="#999999" d="M768,224.5c-35.6,0-64.5-28.9-64.5-64.5s28.9-64.5,64.5-64.5s64.5,28.9,64.5,64.5S803.6,224.5,768,224.5z
	 M768,96.5c-35,0-63.5,28.5-63.5,63.5s28.5,63.5,63.5,63.5s63.5-28.5,63.5-63.5S803,96.5,768,96.5z"/>
<path fill="#999999" d="M768,480.5c-35.6,0-64.5-28.9-64.5-64.5s28.9-64.5,64.5-64.5s64.5,28.9,64.5,64.5S803.6,480.5,768,480.5z
	 M768,352.5c-35,0-63.5,28.5-63.5,63.5s28.5,63.5,63.5,63.5s63.5-28.5,63.5-63.5S803,352.5,768,352.5z"/>
<path fill="#999999" d="M768,992.5c-35.6,0-64.5-28.9-64.5-64.5s28.9-64.5,64.5-64.5s64.5,28.9,64.5,64.5S803.6,992.5,768,992.5z
	 M768,864.5c-35,0-63.5,28.5-63.5,63.5s28.5,63.5,63.5,63.5s63.5-28.5,63.5-63.5S803,864.5,768,864.5z"/>
<g>
	<circle fill="#FFFFFF" cx="576" cy="96" r="32"/>
	<path fill="#999999" d="M576,128.5c-17.9,0-32.5-14.6-32.5-32.5s14.6-32.5,32.5-32.5s32.5,14.6,32.5,32.5S593.9,128.5,576,128.5z
		 M576,64.5c-17.4,0-31.5,14.1-31.5,31.5s14.1,31.5,31.5,31.5s31.5-14.1,31.5-31.5S593.4,64.5,576,64.5z"/>
</g>
<g>
	<circle fill="#FFFFFF" cx="576" cy="224" r="32"/>
	<path fill="#999999" d="M576,256.5c-17.9,0-32.5-14.6-32.5-32.5s14.6-32.5,32.5-32.5s32.5,14.6,32.5,32.5S593.9,256.5,576,256.5z
		 M576,192.5c-17.4,0-31.5,14.1-31.5,31.5s14.1,31.5,31.5,31.5s31.5-14.1,31.5-31.5S593.4,192.5,576,192.5z"/>
</g>
<g>
	<circle fill="#FFFFFF" cx="576" cy="352" r="32"/>
	<path fill="#999999" d="M576,384.5c-17.9,0-32.5-14.6-32.5-32.5s14.6-32.5,32.5-32.5s32.5,14.6,32.5,32.5S593.9,384.5,576,384.5z
		 M576,320.5c-17.4,0-31.5,14.1-31.5,31.5s14.1,31.5,31.5,31.5s31.5-14.1,31.5-31.5S593.4,320.5,576,320.5z"/>
</g>
<g>
	<circle fill="#FFFFFF" cx="576" cy="480" r="32"/>
	<path fill="#999999" d="M576,512.5c-17.9,0-32.5-14.6-32.5-32.5s14.6-32.5,32.5-32.5s32.5,14.6,32.5,32.5S593.9,512.5,576,512.5z
		 M576,448.5c-17.4,0-31.5,14.1-31.5,31.5s14.1,31.5,31.5,31.5s31.5-14.1,31.5-31.5S593.4,448.5,576,448.5z"/>
</g>
<g>
	<circle fill="#FFFFFF" cx="576" cy="608" r="32"/>
	<path fill="#999999" d="M576,640.5c-17.9,0-32.5-14.6-32.5-32.5s14.6-32.5,32.5-32.5s32.5,14.6,32.5,32.5S593.9,640.5,576,640.5z
		 M576,576.5c-17.4,0-31.5,14.1-31.5,31.5s14.1,31.5,31.5,31.5s31.5-14.1,31.5-31.5S593.4,576.5,576,576.5z"/>
</g>
<g>
	<circle fill="#FFFFFF" cx="576" cy="864" r="32"/>
	<path fill="#999999" d="M576,896.5c-17.9,0-32.5-14.6-32.5-32.5s14.6-32.5,32.5-32.5s32.5,14.6,32.5,32.5S593.9,896.5,576,896.5z
		 M576,832.5c-17.4,0-31.5,14.1-31.5,31.5s14.1,31.5,31.5,31.5s31.5-14.1,31.5-31.5S593.4,832.5,576,832.5z"/>
</g>
<g>
	<circle fill="#FFFFFF" cx="576" cy="992" r="32"/>
	<path fill="#999999" d="M576,1024.5c-17.9,0-32.5-14.6-32.5-32.5s14.6-32.5,32.5-32.5s32.5,14.6,32.5,32.5S593.9,1024.5,576,1024.5
		z M576,960.5c-17.4,0-31.5,14.1-31.5,31.5s14.1,31.5,31.5,31.5s31.5-14.1,31.5-31.5S593.4,960.5,576,960.5z"/>
</g>
<path fill="#999999" d="M448,80.5c-9.1,0-16.5-7.4-16.5-16.5s7.4-16.5,16.5-16.5s16.5,7.4,16.5,16.5S457.1,80.5,448,80.5z M448,48.5
	c-8.5,0-15.5,7-15.5,15.5s7,15.5,15.5,15.5s15.5-7,15.5-15.5S456.5,48.5,448,48.5z"/>
<path fill="#999999" d="M448,144.5c-9.1,0-16.5-7.4-16.5-16.5s7.4-16.5,16.5-16.5s16.5,7.4,16.5,16.5S457.1,144.5,448,144.5z
	 M448,112.5c-8.5,0-15.5,7-15.5,15.5s7,15.5,15.5,15.5s15.5-7,15.5-15.5S456.5,112.5,448,112.5z"/>
<path fill="#999999" d="M448,208.5c-9.1,0-16.5-7.4-16.5-16.5s7.4-16.5,16.5-16.5s16.5,7.4,16.5,16.5S457.1,208.5,448,208.5z
	 M448,176.5c-8.5,0-15.5,7-15.5,15.5s7,15.5,15.5,15.5s15.5-7,15.5-15.5S456.5,176.5,448,176.5z"/>
<path fill="#999999" d="M448,272.5c-9.1,0-16.5-7.4-16.5-16.5s7.4-16.5,16.5-16.5s16.5,7.4,16.5,16.5S457.1,272.5,448,272.5z
	 M448,240.5c-8.5,0-15.5,7-15.5,15.5s7,15.5,15.5,15.5s15.5-7,15.5-15.5S456.5,240.5,448,240.5z"/>
<path fill="#999999" d="M448,336.5c-9.1,0-16.5-7.4-16.5-16.5s7.4-16.5,16.5-16.5s16.5,7.4,16.5,16.5S457.1,336.5,448,336.5z
	 M448,304.5c-8.5,0-15.5,7-15.5,15.5s7,15.5,15.5,15.5s15.5-7,15.5-15.5S456.5,304.5,448,304.5z"/>
<path fill="#999999" d="M448,400.5c-9.1,0-16.5-7.4-16.5-16.5s7.4-16.5,16.5-16.5s16.5,7.4,16.5,16.5S457.1,400.5,448,400.5z
	 M448,368.5c-8.5,0-15.5,7-15.5,15.5s7,15.5,15.5,15.5s15.5-7,15.5-15.5S456.5,368.5,448,368.5z"/>
<path fill="#999999" d="M448,464.5c-9.1,0-16.5-7.4-16.5-16.5s7.4-16.5,16.5-16.5s16.5,7.4,16.5,16.5S457.1,464.5,448,464.5z
	 M448,432.5c-8.5,0-15.5,7-15.5,15.5s7,15.5,15.5,15.5s15.5-7,15.5-15.5S456.5,432.5,448,432.5z"/>
<path fill="#999999" d="M448,528.5c-9.1,0-16.5-7.4-16.5-16.5s7.4-16.5,16.5-16.5s16.5,7.4,16.5,16.5S457.1,528.5,448,528.5z
	 M448,496.5c-8.5,0-15.5,7-15.5,15.5s7,15.5,15.5,15.5s15.5-7,15.5-15.5S456.5,496.5,448,496.5z"/>
<path fill="#999999" d="M448,592.5c-9.1,0-16.5-7.4-16.5-16.5s7.4-16.5,16.5-16.5s16.5,7.4,16.5,16.5S457.1,592.5,448,592.5z
	 M448,560.5c-8.5,0-15.5,7-15.5,15.5s7,15.5,15.5,15.5s15.5-7,15.5-15.5S456.5,560.5,448,560.5z"/>
<path fill="#999999" d="M448,656.5c-9.1,0-16.5-7.4-16.5-16.5s7.4-16.5,16.5-16.5s16.5,7.4,16.5,16.5S457.1,656.5,448,656.5z
	 M448,624.5c-8.5,0-15.5,7-15.5,15.5s7,15.5,15.5,15.5s15.5-7,15.5-15.5S456.5,624.5,448,624.5z"/>
<path fill="#999999" d="M448,720.5c-9.1,0-16.5-7.4-16.5-16.5s7.4-16.5,16.5-16.5s16.5,7.4,16.5,16.5S457.1,720.5,448,720.5z
	 M448,688.5c-8.5,0-15.5,7-15.5,15.5s7,15.5,15.5,15.5s15.5-7,15.5-15.5S456.5,688.5,448,688.5z"/>
<path fill="#999999" d="M448,848.5c-9.1,0-16.5-7.4-16.5-16.5s7.4-16.5,16.5-16.5s16.5,7.4,16.5,16.5S457.1,848.5,448,848.5z
	 M448,816.5c-8.5,0-15.5,7-15.5,15.5s7,15.5,15.5,15.5s15.5-7,15.5-15.5S456.5,816.5,448,816.5z"/>
<path fill="#999999" d="M448,912.5c-9.1,0-16.5-7.4-16.5-16.5s7.4-16.5,16.5-16.5s16.5,7.4,16.5,16.5S457.1,912.5,448,912.5z
	 M448,880.5c-8.5,0-15.5,7-15.5,15.5s7,15.5,15.5,15.5s15.5-7,15.5-15.5S456.5,880.5,448,880.5z"/>
<path fill="#999999" d="M448,976.5c-9.1,0-16.5-7.4-16.5-16.5s7.4-16.5,16.5-16.5s16.5,7.4,16.5,16.5S457.1,976.5,448,976.5z
	 M448,944.5c-8.5,0-15.5,7-15.5,15.5s7,15.5,15.5,15.5s15.5-7,15.5-15.5S456.5,944.5,448,944.5z"/>
<path fill="#999999" d="M448,1040.5c-9.1,0-16.5-7.4-16.5-16.5s7.4-16.5,16.5-16.5s16.5,7.4,16.5,16.5S457.1,1040.5,448,1040.5z
	 M448,1008.5c-8.5,0-15.5,7-15.5,15.5s7,15.5,15.5,15.5s15.5-7,15.5-15.5S456.5,1008.5,448,1008.5z"/>
<g>
	<path fill="#999999" d="M448,896.5L448,896.5c-1.3,0-2.5-0.6-3.4-1.5c-0.9-1-1.3-2.3-1.1-3.6c0.3-2,1.9-3.6,3.9-3.9
		c1.5-0.2,3,0.4,4,1.5c0.9,1,1.2,2.3,1.1,3.6c-0.3,2-1.9,3.6-3.9,3.9C448.4,896.5,448.2,896.5,448,896.5z M448,888.5
		c-0.2,0-0.3,0-0.5,0c-1.6,0.2-2.8,1.5-3,3c-0.1,1,0.2,2,0.8,2.8c0.7,0.8,1.6,1.2,2.6,1.2l0,0c0.2,0,0.3,0,0.5,0
		c1.6-0.2,2.8-1.5,3-3c0.1-1-0.2-2-0.8-2.8C450,888.9,449,888.5,448,888.5z"/>
	<path fill="#999999" d="M456.5,904h-1v-2c0-1.9-1.6-3.5-3.5-3.5h-8c-1.9,0-3.5,1.6-3.5,3.5v2h-1v-2c0-2.5,2-4.5,4.5-4.5h8
		c2.5,0,4.5,2,4.5,4.5V904z"/>
</g>
<g>
	<path fill="#999999" d="M448,1024.5L448,1024.5c-1.3,0-2.5-0.6-3.4-1.5c-0.9-1-1.3-2.3-1.1-3.6c0.3-2,1.9-3.6,3.9-3.9
		c1.5-0.2,3,0.4,4,1.5c0.9,1,1.2,2.3,1.1,3.6c-0.3,2-1.9,3.6-3.9,3.9C448.4,1024.5,448.2,1024.5,448,1024.5z M448,1016.5
		c-0.2,0-0.3,0-0.5,0c-1.6,0.2-2.8,1.5-3,3c-0.1,1,0.2,2,0.8,2.8c0.7,0.8,1.6,1.2,2.6,1.2l0,0c0.2,0,0.3,0,0.5,0
		c1.6-0.2,2.8-1.5,3-3c0.1-1-0.2-2-0.8-2.8C450,1016.9,449,1016.5,448,1016.5z"/>
	<path fill="#999999" d="M456.5,1032h-1v-2c0-1.9-1.6-3.5-3.5-3.5h-8c-1.9,0-3.5,1.6-3.5,3.5v2h-1v-2c0-2.5,2-4.5,4.5-4.5h8
		c2.5,0,4.5,2,4.5,4.5V1032z"/>
</g>
<g>
	<path fill="#999999" d="M448,960.5L448,960.5c-1.3,0-2.5-0.6-3.4-1.5c-0.9-1-1.3-2.3-1.1-3.6c0.3-2,1.9-3.6,3.9-3.9
		c1.5-0.2,3,0.4,4,1.5c0.9,1,1.2,2.3,1.1,3.6c-0.3,2-1.9,3.6-3.9,3.9C448.4,960.5,448.2,960.5,448,960.5z M448,952.5
		c-0.2,0-0.3,0-0.5,0c-1.6,0.2-2.8,1.5-3,3c-0.1,1,0.2,2,0.8,2.8c0.7,0.8,1.6,1.2,2.6,1.2l0,0c0.2,0,0.3,0,0.5,0
		c1.6-0.2,2.8-1.5,3-3c0.1-1-0.2-2-0.8-2.8C450,952.9,449,952.5,448,952.5z"/>
	<path fill="#999999" d="M456.5,968h-1v-2c0-1.9-1.6-3.5-3.5-3.5h-8c-1.9,0-3.5,1.6-3.5,3.5v2h-1v-2c0-2.5,2-4.5,4.5-4.5h8
		c2.5,0,4.5,2,4.5,4.5V968z"/>
</g>
<g>
	<path fill="#999999" d="M448,832.5L448,832.5c-1.3,0-2.5-0.6-3.4-1.5c-0.9-1-1.3-2.3-1.1-3.6c0.3-2,1.9-3.6,3.9-3.9
		c1.5-0.2,3,0.4,4,1.5c0.9,1,1.2,2.3,1.1,3.6c-0.3,2-1.9,3.6-3.9,3.9C448.4,832.5,448.2,832.5,448,832.5z M448,824.5
		c-0.2,0-0.3,0-0.5,0c-1.6,0.2-2.8,1.5-3,3c-0.1,1,0.2,2,0.8,2.8c0.7,0.8,1.6,1.2,2.6,1.2l0,0c0.2,0,0.3,0,0.5,0
		c1.6-0.2,2.8-1.5,3-3c0.1-1-0.2-2-0.8-2.8C450,824.9,449,824.5,448,824.5z"/>
	<path fill="#999999" d="M456.5,840h-1v-2c0-1.9-1.6-3.5-3.5-3.5h-8c-1.9,0-3.5,1.6-3.5,3.5v2h-1v-2c0-2.5,2-4.5,4.5-4.5h8
		c2.5,0,4.5,2,4.5,4.5V840z"/>
</g>
<g>
	<path fill="#999999" d="M448,704.5L448,704.5c-1.3,0-2.5-0.6-3.4-1.5c-0.9-1-1.3-2.3-1.1-3.6c0.3-2,1.9-3.6,3.9-3.9
		c1.5-0.2,3,0.4,4,1.5c0.9,1,1.2,2.3,1.1,3.6c-0.3,2-1.9,3.6-3.9,3.9C448.4,704.5,448.2,704.5,448,704.5z M448,696.5
		c-0.2,0-0.3,0-0.5,0c-1.6,0.2-2.8,1.5-3,3c-0.1,1,0.2,2,0.8,2.8c0.7,0.8,1.6,1.2,2.6,1.2l0,0c0.2,0,0.3,0,0.5,0
		c1.6-0.2,2.8-1.5,3-3c0.1-1-0.2-2-0.8-2.8C450,696.9,449,696.5,448,696.5z"/>
	<path fill="#999999" d="M456.5,712h-1v-2c0-1.9-1.6-3.5-3.5-3.5h-8c-1.9,0-3.5,1.6-3.5,3.5v2h-1v-2c0-2.5,2-4.5,4.5-4.5h8
		c2.5,0,4.5,2,4.5,4.5V712z"/>
</g>
<g>
	<path fill="#999999" d="M448,576.5L448,576.5c-1.3,0-2.5-0.6-3.4-1.5c-0.9-1-1.3-2.3-1.1-3.6c0.3-2,1.9-3.6,3.9-3.9
		c1.5-0.2,3,0.4,4,1.5c0.9,1,1.2,2.3,1.1,3.6c-0.3,2-1.9,3.6-3.9,3.9C448.4,576.5,448.2,576.5,448,576.5z M448,568.5
		c-0.2,0-0.3,0-0.5,0c-1.6,0.2-2.8,1.5-3,3c-0.1,1,0.2,2,0.8,2.8c0.7,0.8,1.6,1.2,2.6,1.2l0,0c0.2,0,0.3,0,0.5,0
		c1.6-0.2,2.8-1.5,3-3c0.1-1-0.2-2-0.8-2.8C450,568.9,449,568.5,448,568.5z"/>
	<path fill="#999999" d="M456.5,584h-1v-2c0-1.9-1.6-3.5-3.5-3.5h-8c-1.9,0-3.5,1.6-3.5,3.5v2h-1v-2c0-2.5,2-4.5,4.5-4.5h8
		c2.5,0,4.5,2,4.5,4.5V584z"/>
</g>
<g>
	<path fill="#999999" d="M448,512.9L448,512.9c-1.3,0-2.5-0.6-3.4-1.5c-0.9-1-1.2-2.3-1.1-3.6c0.3-2,1.9-3.6,3.9-3.9
		c1.5-0.2,3,0.4,4,1.5c0.9,1,1.2,2.3,1.1,3.6c-0.3,2-1.9,3.6-3.9,3.9C448.4,512.9,448.2,512.9,448,512.9z M448,504.9
		c-0.2,0-0.3,0-0.5,0c-1.6,0.2-2.8,1.5-3,3c-0.1,1,0.2,2,0.8,2.8c0.7,0.8,1.6,1.2,2.6,1.2l0,0c0.2,0,0.3,0,0.5,0
		c1.6-0.2,2.8-1.5,3-3c0.1-1-0.2-2-0.8-2.8C450,505.4,449,504.9,448,504.9z"/>
	<path fill="#999999" d="M456.5,520.4h-1v-2c0-1.9-1.6-3.5-3.5-3.5h-8c-1.9,0-3.5,1.6-3.5,3.5v2h-1v-2c0-2.5,2-4.5,4.5-4.5h8
		c2.5,0,4.5,2,4.5,4.5V520.4z"/>
</g>
<g>
	<path fill="#999999" d="M448,448.5c-1.3,0-2.5-0.6-3.4-1.5c-0.9-1-1.3-2.3-1.1-3.6c0.3-2,1.9-3.6,3.9-3.9c1.5-0.2,3,0.4,4,1.5
		c0.9,1,1.2,2.3,1.1,3.6c-0.3,2-1.9,3.6-3.9,3.9C448.4,448.5,448.2,448.5,448,448.5z M448,440.5c-0.2,0-0.3,0-0.5,0
		c-1.6,0.2-2.8,1.5-3,3c-0.1,1,0.2,2,0.8,2.8c0.8,0.9,1.9,1.3,3.1,1.2c1.6-0.2,2.8-1.5,3-3c0.1-1-0.2-2-0.8-2.8
		C450,440.9,449,440.5,448,440.5z"/>
	<path fill="#999999" d="M456.5,456h-1v-2c0-1.9-1.6-3.5-3.5-3.5h-8c-1.9,0-3.5,1.6-3.5,3.5v2h-1v-2c0-2.5,2-4.5,4.5-4.5h8
		c2.5,0,4.5,2,4.5,4.5V456z"/>
</g>
<g>
	<path fill="#999999" d="M448,384.5c-1.3,0-2.5-0.6-3.4-1.5c-0.9-1-1.3-2.3-1.1-3.6c0.3-2,1.9-3.6,3.9-3.9c1.5-0.2,3,0.4,4,1.5
		c0.9,1,1.2,2.3,1.1,3.6c-0.3,2-1.9,3.6-3.9,3.9C448.4,384.5,448.2,384.5,448,384.5z M448,376.5c-0.2,0-0.3,0-0.5,0
		c-1.6,0.2-2.8,1.5-3,3c-0.1,1,0.2,2,0.8,2.8c0.8,0.9,1.9,1.3,3.1,1.2c1.6-0.2,2.8-1.5,3-3c0.1-1-0.2-2-0.8-2.8
		C450,376.9,449,376.5,448,376.5z"/>
	<path fill="#999999" d="M456.5,392h-1v-2c0-1.9-1.6-3.5-3.5-3.5h-8c-1.9,0-3.5,1.6-3.5,3.5v2h-1v-2c0-2.5,2-4.5,4.5-4.5h8
		c2.5,0,4.5,2,4.5,4.5V392z"/>
</g>
<g>
	<path fill="#999999" d="M448,320.5c-1.3,0-2.5-0.6-3.4-1.5c-0.9-1-1.3-2.3-1.1-3.6c0.3-2,1.9-3.6,3.9-3.9c1.5-0.2,3,0.4,4,1.5
		c0.9,1,1.2,2.3,1.1,3.6c-0.3,2-1.9,3.6-3.9,3.9C448.4,320.5,448.2,320.5,448,320.5z M448,312.5c-0.2,0-0.3,0-0.5,0
		c-1.6,0.2-2.8,1.5-3,3c-0.1,1,0.2,2,0.8,2.8c0.8,0.9,1.9,1.3,3.1,1.2c1.6-0.2,2.8-1.5,3-3c0.1-1-0.2-2-0.8-2.8
		C450,312.9,449,312.5,448,312.5z"/>
	<path fill="#999999" d="M456.5,328h-1v-2c0-1.9-1.6-3.5-3.5-3.5h-8c-1.9,0-3.5,1.6-3.5,3.5v2h-1v-2c0-2.5,2-4.5,4.5-4.5h8
		c2.5,0,4.5,2,4.5,4.5V328z"/>
</g>
<g>
	<path fill="#999999" d="M448,256.5c-1.3,0-2.5-0.6-3.4-1.5c-0.9-1-1.3-2.3-1.1-3.6c0.3-2,1.9-3.6,3.9-3.9c1.5-0.2,3,0.4,4,1.5
		c0.9,1,1.2,2.3,1.1,3.6c-0.3,2-1.9,3.6-3.9,3.9C448.4,256.5,448.2,256.5,448,256.5z M448,248.5c-0.2,0-0.3,0-0.5,0
		c-1.6,0.2-2.8,1.5-3,3c-0.1,1,0.2,2,0.8,2.8c0.8,0.9,1.9,1.3,3.1,1.2c1.6-0.2,2.8-1.5,3-3c0.1-1-0.2-2-0.8-2.8
		C450,248.9,449,248.5,448,248.5z"/>
	<path fill="#999999" d="M456.5,264h-1v-2c0-1.9-1.6-3.5-3.5-3.5h-8c-1.9,0-3.5,1.6-3.5,3.5v2h-1v-2c0-2.5,2-4.5,4.5-4.5h8
		c2.5,0,4.5,2,4.5,4.5V264z"/>
</g>
<g>
	<path fill="#999999" d="M448,192.5L448,192.5c-1.3,0-2.5-0.6-3.4-1.5c-0.9-1-1.2-2.3-1.1-3.6c0.3-2,1.9-3.6,3.9-3.9
		c1.5-0.2,3,0.4,4,1.5c0.9,1,1.2,2.3,1.1,3.6c-0.3,2-1.9,3.6-3.9,3.9C448.4,192.5,448.2,192.5,448,192.5z M448,184.5
		c-0.2,0-0.3,0-0.5,0c-1.6,0.2-2.8,1.5-3,3c-0.1,1,0.2,2,0.8,2.8c0.7,0.8,1.6,1.2,2.6,1.2l0,0c0.2,0,0.3,0,0.5,0
		c1.6-0.2,2.8-1.5,3-3c0.1-1-0.2-2-0.8-2.8C450,184.9,449,184.5,448,184.5z"/>
	<path fill="#999999" d="M456.5,200h-1v-2c0-1.9-1.6-3.5-3.5-3.5h-8c-1.9,0-3.5,1.6-3.5,3.5v2h-1v-2c0-2.5,2-4.5,4.5-4.5h8
		c2.5,0,4.5,2,4.5,4.5V200z"/>
</g>
<g>
	<path fill="#999999" d="M448,128.5c-1.3,0-2.5-0.6-3.4-1.5c-0.9-1-1.3-2.3-1.1-3.6c0.3-2,1.9-3.6,3.9-3.9c1.5-0.2,3,0.4,4,1.5
		c0.9,1,1.2,2.3,1.1,3.6c-0.3,2-1.9,3.6-3.9,3.9C448.4,128.5,448.2,128.5,448,128.5z M448,120.5c-0.2,0-0.3,0-0.5,0
		c-1.6,0.2-2.8,1.5-3,3c-0.1,1,0.2,2,0.8,2.8c0.8,0.9,1.9,1.3,3.1,1.2c1.6-0.2,2.8-1.5,3-3c0.1-1-0.2-2-0.8-2.8
		C450,120.9,449,120.5,448,120.5z"/>
	<path fill="#999999" d="M456.5,136h-1v-2c0-1.9-1.6-3.5-3.5-3.5h-8c-1.9,0-3.5,1.6-3.5,3.5v2h-1v-2c0-2.5,2-4.5,4.5-4.5h8
		c2.5,0,4.5,2,4.5,4.5V136z"/>
</g>
<g>
	<path fill="#999999" d="M448,64.5c-1.3,0-2.5-0.6-3.4-1.5c-0.9-1-1.3-2.3-1.1-3.6c0.3-2,1.9-3.6,3.9-3.9c1.5-0.2,3,0.4,4,1.5
		c0.9,1,1.2,2.3,1.1,3.6c-0.3,2-1.9,3.6-3.9,3.9C448.4,64.5,448.2,64.5,448,64.5z M448,56.5c-0.2,0-0.3,0-0.5,0
		c-1.6,0.2-2.8,1.5-3,3c-0.1,1,0.2,2,0.8,2.8c0.8,0.9,1.9,1.3,3.1,1.2c1.6-0.2,2.8-1.5,3-3c0.1-1-0.2-2-0.8-2.8
		C450,56.9,449,56.5,448,56.5z"/>
	<path fill="#999999" d="M456.5,72h-1v-2c0-1.9-1.6-3.5-3.5-3.5h-8c-1.9,0-3.5,1.6-3.5,3.5v2h-1v-2c0-2.5,2-4.5,4.5-4.5h8
		c2.5,0,4.5,2,4.5,4.5V72z"/>
</g>
<g>
	<path fill="#999999" d="M448,640.5L448,640.5c-1.3,0-2.5-0.6-3.4-1.5c-0.9-1-1.3-2.3-1.1-3.6c0.3-2,1.9-3.6,3.9-3.9
		c1.5-0.2,3,0.4,4,1.5c0.9,1,1.2,2.3,1.1,3.6c-0.3,2-1.9,3.6-3.9,3.9C448.4,640.5,448.2,640.5,448,640.5z M448,632.5
		c-0.2,0-0.3,0-0.5,0c-1.6,0.2-2.8,1.5-3,3c-0.1,1,0.2,2,0.8,2.8c0.7,0.8,1.6,1.2,2.6,1.2l0,0c0.2,0,0.3,0,0.5,0
		c1.6-0.2,2.8-1.5,3-3c0.1-1-0.2-2-0.8-2.8C450,632.9,449,632.5,448,632.5z"/>
	<path fill="#999999" d="M456.5,648h-1v-2c0-1.9-1.6-3.5-3.5-3.5h-8c-1.9,0-3.5,1.6-3.5,3.5v2h-1v-2c0-2.5,2-4.5,4.5-4.5h8
		c2.5,0,4.5,2,4.5,4.5V648z"/>
</g>
<g>
	<g>
		<polygon fill="#FFFFFF" points="1147.1,346.7 1137.2,218.7 1127.4,218.7 1117.5,346.7 		"/>
		<path fill="#999999" d="M1147.6,347.2H1117l0-0.5l9.9-128.5h10.8l0,0.5L1147.6,347.2z M1118.1,346.2h28.5l-9.8-127h-8.9
			L1118.1,346.2z"/>
	</g>
	<g>
		<polygon fill="#FFFFFF" points="1176.6,346.7 1166.8,218.7 1156.9,218.7 1147.1,346.7 		"/>
		<path fill="#999999" d="M1177.2,347.2h-30.6l0-0.5l9.9-128.5h10.8l0,0.5L1177.2,347.2z M1147.6,346.2h28.5l-9.8-127h-8.9
			L1147.6,346.2z"/>
	</g>
	<g>
		<path fill="#FFFFFF" d="M1117.5,287.6h-59.1l-59.1,29.5v29.5h128C1127.4,346.7,1117.5,284.6,1117.5,287.6z"/>
		<path fill="#999999" d="M1128,347.2H998.9v-30.3l59.5-29.7h58.9c0.1-0.1,0.3-0.1,0.3-0.1c0.2,0,0.3,0,0.5,0.6l0,0
			c0.5,1.6,1.5,7.5,5.1,29.4c2.4,14.8,4.7,29.6,4.7,29.6L1128,347.2z M999.9,346.2h126.9c-2.5-15.6-8.6-53.7-9.6-58.1h-58.6
			l-58.7,29.3V346.2z"/>
	</g>
	<g>
		<path fill="#FFFFFF" d="M1176.6,317.1l-59.1-29.5l-59.1,29.5v29.5h118.2C1176.6,346.7,1176.6,314.1,1176.6,317.1z"/>
		<path fill="#999999" d="M1177.1,347.2H1058v-30.3l59.6-29.8l59.6,29.8V347.2z M1059,346.2h117.2v-28.7l-58.6-29.3l-58.6,29.3
			V346.2z"/>
	</g>
	<g>
		<rect x="1009.2" y="327" fill="#FFFFFF" width="9.8" height="9.8"/>
		<path fill="#999999" d="M1019.6,337.3h-10.8v-10.8h10.8V337.3z M1009.7,336.3h8.8v-8.8h-8.8V336.3z"/>
	</g>
	<g>
		<rect x="1038.8" y="327" fill="#FFFFFF" width="9.8" height="9.8"/>
		<path fill="#999999" d="M1049.1,337.3h-10.8v-10.8h10.8V337.3z M1039.3,336.3h8.8v-8.8h-8.8V336.3z"/>
	</g>
</g>
<path fill="#999999" d="M768,193.2l-0.5-1c0-0.1-4.6-9.6-11.9-9.6c-3.7,0-7.1,1.1-10.2,3.3l-0.4,0.3l-6.6-7.7l0.4-0.3
	c5.2-4,11.4-10.9,11.4-20.6c0-11.1-7.1-17.3-11.3-20l-0.4-0.3l4.7-8.3l0.4,0.3c2.4,1.4,5.9,3.1,9.5,3.1c5.7,0,6.9-4.4,6.9-4.5
	l0.2-0.8l0.6,0.6c0,0,2.5,2.3,7,2.3s7-2.3,7-2.3l0.6-0.6l0.2,0.8c0,0.2,1.2,4.5,6.9,4.5c3.6,0,7.2-1.7,9.5-3.1l0.4-0.3l4.7,8.3
	l-0.4,0.3c-4.2,2.7-11.3,8.9-11.3,20c0,9.7,6.2,16.5,11.4,20.6l0.4,0.3l-6.6,7.7l-0.4-0.3c-3.1-2.2-6.5-3.3-10.2-3.3
	c-7.3,0-11.8,9.5-11.9,9.6L768,193.2z M755.7,181.7c6.6,0,10.9,6.8,12.3,9.3c1.4-2.5,5.7-9.3,12.3-9.3c3.7,0,7.2,1.1,10.4,3.2
	l5.4-6.3c-5.3-4.2-11.4-11.2-11.4-21c0-11.3,6.9-17.7,11.4-20.6l-3.7-6.5c-2.5,1.4-6,3-9.6,3c-5.1,0-7-3.2-7.6-4.6
	c-1,0.7-3.5,2.1-7.1,2.1s-6.1-1.4-7.2-2.1c-0.6,1.4-2.6,4.6-7.6,4.6c-3.6,0-7.1-1.6-9.6-3l-3.7,6.5c4.4,2.9,11.4,9.3,11.4,20.6
	c0,9.8-6.1,16.8-11.4,21l5.4,6.3C748.5,182.7,752,181.7,755.7,181.7z"/>
<path fill="#999999" d="M768,449l-19.8-33l19.8-33l19.8,33L768,449z M749.4,416l18.6,31l18.6-31L768,385L749.4,416z"/>
<path fill="#999999" d="M576,110l-12.9-22.5h25.7L576,110z M564.9,88.5L576,108l11.1-19.5H564.9z"/>
<path fill="#999999" d="M589.2,236.5h-26.4l12.5-12.5l-12.5-12.5h26.4L576.7,224L589.2,236.5z M565.2,235.5h21.6L576,224.7
	L565.2,235.5z M576,223.3l10.8-10.8h-21.6L576,223.3z"/>
<path fill="#999999" d="M583.2,364.5h-14.4l-7.2-12.5l7.2-12.5h14.4l7.2,12.5L583.2,364.5z M569.4,363.5h13.3l6.6-11.5l-6.6-11.5
	h-13.3l-6.6,11.5L569.4,363.5z"/>
<g>
	<path fill="#FFFFFF" d="M571.8,475.8c1.1-1.1,2.6-1.8,4.2-1.8c1.7,0,3.2,0.7,4.2,1.8l7.8-7.8v24l-7.8-7.8c-1.1,1.1-2.6,1.8-4.2,1.8
		c-1.7,0-3.2-0.7-4.2-1.8L564,492v-24L571.8,475.8z"/>
	<path fill="#999999" d="M563.5,493.2v-26.4l8.3,8.3c1.2-1,2.7-1.6,4.2-1.6s3.1,0.6,4.2,1.6l8.3-8.3v26.4l-8.3-8.3
		c-1.2,1-2.7,1.6-4.2,1.6c-1.6,0-3.1-0.6-4.2-1.6L563.5,493.2z M580.2,483.5l7.3,7.3v-21.6l-7.3,7.3l-0.4-0.4c-1-1-2.4-1.6-3.9-1.6
		c-1.5,0-2.9,0.6-3.9,1.6l-0.4,0.4l-7.3-7.3v21.6l7.3-7.3l0.4,0.4c1,1,2.4,1.6,3.9,1.6s2.8-0.6,3.9-1.6L580.2,483.5z"/>
</g>
<g>
	<g>
		<circle fill="#FFFFFF" cx="576" cy="864" r="12"/>
		<path fill="#999999" d="M576,876.5c-3.3,0-6.5-1.3-8.8-3.7c-4.9-4.9-4.9-12.8,0-17.7c2.4-2.4,5.5-3.7,8.8-3.7
			c3.3,0,6.5,1.3,8.8,3.7c4.9,4.9,4.9,12.8,0,17.7C582.5,875.2,579.3,876.5,576,876.5z M576,852.5c-3.1,0-6,1.2-8.1,3.4
			c-4.5,4.5-4.5,11.8,0,16.3c2.2,2.2,5.1,3.4,8.1,3.4c3.1,0,6-1.2,8.1-3.4c4.5-4.5,4.5-11.8,0-16.3C582,853.7,579.1,852.5,576,852.5
			z"/>
	</g>
	<g>
		<line fill="#FFFFFF" x1="584.5" y1="855.5" x2="567.5" y2="872.5"/>
		
			<rect x="575.5" y="852" transform="matrix(0.7071 0.7071 -0.7071 0.7071 779.6469 -154.2341)" fill="#999999" width="1" height="24"/>
	</g>
	<g>
		<line fill="#FFFFFF" x1="584.5" y1="872.5" x2="567.5" y2="855.5"/>
		
			<rect x="564" y="863.5" transform="matrix(0.7071 0.7071 -0.7071 0.7071 779.6469 -154.2341)" fill="#999999" width="24" height="1"/>
	</g>
</g>
<g>
	<rect x="564" y="596" fill="#FFFFFF" width="24" height="24"/>
	<path fill="#999999" d="M588.5,620.5h-25v-25h25V620.5z M564.5,619.5h23v-23h-23V619.5z"/>
</g>
<g>
	<line fill="#FFFFFF" x1="576" y1="620" x2="576" y2="596"/>
	<rect x="575.5" y="596" fill="#999999" width="1" height="24"/>
</g>
<g>
	<g>
		<rect x="580" y="996" fill="#FFFFFF" width="8" height="8"/>
		<path fill="#999999" d="M588.5,1004.5h-9v-9h9V1004.5z M580.5,1003.5h7v-7h-7V1003.5z"/>
	</g>
	<g>
		<rect x="572" y="988" fill="#FFFFFF" width="8" height="8"/>
		<path fill="#999999" d="M580.5,996.5h-9v-9h9V996.5z M572.5,995.5h7v-7h-7V995.5z"/>
	</g>
	<g>
		<rect x="580" y="980" fill="#FFFFFF" width="8" height="8"/>
		<path fill="#999999" d="M588.5,988.5h-9v-9h9V988.5z M580.5,987.5h7v-7h-7V987.5z"/>
	</g>
	<g>
		<rect x="564" y="980" fill="#FFFFFF" width="8" height="8"/>
		<path fill="#999999" d="M572.5,988.5h-9v-9h9V988.5z M564.5,987.5h7v-7h-7V987.5z"/>
	</g>
	<g>
		<rect x="564" y="996" fill="#FFFFFF" width="8" height="8"/>
		<path fill="#999999" d="M572.5,1004.5h-9v-9h9V1004.5z M564.5,1003.5h7v-7h-7V1003.5z"/>
	</g>
</g>
<path fill="#2762FF" d="M1216,828h318.1c75.8,0,148.8-29.5,202.5-83c53.8-53.7,83.4-125.1,83.4-201V384.6c0-15.3-12-28.2-27.2-28.6
	c-15.8-0.4-28.8,12.3-28.8,28v160c0,60.9-23.7,118.2-66.8,161.2c-43.1,43.1-100.3,66.8-161.2,66.8h-272.7c-12.2,0-23-7.9-26.7-19.5
	C1216.5,689.6,1157.5,644,1088,644H832c-15.5,0-28,12.5-28,28v0c0,19.9-16.1,36-36,36H608c-15.5,0-28,12.5-28,28v0c0,2.2-1.8,4-4,4
	H416.6c-15.3,0-28.2,12-28.6,27.2c-0.4,15.8,12.3,28.8,28,28.8h160c18.7,0,35.4-8.6,46.4-22c5.3-6.4,13.3-10,21.6-10h124
	c35.2,0,65.8-19.9,81.3-49c4.9-9.2,14.4-15,24.8-15H1088c55.2,0,100,44.8,100,100v0C1188,815.5,1200.5,828,1216,828z"/>
<g>
	<circle fill="#FFFFFF" cx="1536" cy="544" r="256"/>
	<path fill="#215CFF" d="M1536,800.5c-68.5,0-132.9-26.7-181.4-75.1s-75.1-112.9-75.1-181.4s26.7-132.9,75.1-181.4
		c48.4-48.4,112.9-75.1,181.4-75.1s132.9,26.7,181.4,75.1c48.4,48.4,75.1,112.9,75.1,181.4s-26.7,132.9-75.1,181.4
		S1604.5,800.5,1536,800.5z M1536,288.5c-68.2,0-132.4,26.6-180.7,74.8c-48.3,48.3-74.8,112.4-74.8,180.7
		c0,68.2,26.6,132.4,74.8,180.7c48.3,48.3,112.4,74.8,180.7,74.8s132.4-26.6,180.7-74.8c48.3-48.3,74.8-112.4,74.8-180.7
		c0-68.2-26.6-132.4-74.8-180.7C1668.4,315.1,1604.2,288.5,1536,288.5z"/>
</g>
<g>
	<circle fill="none" cx="1536" cy="544" r="192"/>
	<g>
		<path fill="#FFFFFF" d="M1728,616v24h-359.7c-13.4,0-24.3-10.9-24.3-24.3V568L1728,616z"/>
		<path d="M1731,643h-362.7c-15,0-27.3-12.2-27.3-27.3v-51.1l390,48.8V643z M1347,571.4v44.3c0,11.7,9.5,21.3,21.3,21.3H1725v-18.4
			L1347,571.4z"/>
	</g>
	<g>
		<path fill="#FFFFFF" d="M1344,592v-59.1c0-6.8,6.1-11.9,12.7-10.8l56.4,9.4c43.1,7.2,85-18.1,98.9-59.5v0l147.7,49.2
			c40.8,13.6,68.3,51.8,68.3,94.8v0h-360C1354.8,616,1344,605.2,1344,592z"/>
		<path d="M1731,619h-363c-14.9,0-27-12.1-27-27v-59.1c0-7.7,6.2-13.9,13.9-13.9c0.8,0,1.5,0.1,2.3,0.2l56.4,9.4
			c4.7,0.8,9.4,1.2,14.2,1.2c37,0,69.7-23.6,81.4-58.7l0.9-2.8l150.5,50.2c42.1,14,70.4,53.3,70.4,97.6V619z M1354.9,525
			c-4.4,0-7.9,3.6-7.9,7.9V592c0,11.6,9.4,21,21,21H1725c-1.2-40.5-27.5-76-66.2-88.9l-144.9-48.3c-13.3,36-47.5,60-86.1,60
			c-5,0-10.1-0.4-15.2-1.3l-56.4-9.4C1355.8,525,1355.4,525,1354.9,525z"/>
	</g>
	<path d="M1656,619c0,0-0.1,0-0.1,0c-1.7-0.1-2.9-1.5-2.9-3.1l3.7-94.8c0.1-1.7,1.5-2.9,3.1-2.9c1.7,0.1,2.9,1.5,2.9,3.1l-3.7,94.8
		C1658.9,617.7,1657.6,619,1656,619z"/>
	<g>
		
			<linearGradient id="SVGID_1_" gradientUnits="userSpaceOnUse" x1="341.9977" y1="501.9997" x2="390.0033" y2="501.9997" gradientTransform="matrix(1 0 0 1 1152 0)">
			<stop  offset="0" style="stop-color:#FFFFFF"/>
			<stop  offset="1" style="stop-color:#FCBA59"/>
		</linearGradient>
		<path fill="url(#SVGID_1_)" d="M1506,538c-1.8,0-3.6-0.4-5.4-1.3c-5.9-3-8.3-10.2-5.4-16.1l24-48c3-5.9,10.2-8.3,16.1-5.4
			c5.9,3,8.3,10.2,5.4,16.1l-24,48C1514.6,535.6,1510.4,538,1506,538z"/>
		
			<linearGradient id="SVGID_2_" gradientUnits="userSpaceOnUse" x1="370.7975" y1="511.5996" x2="418.8031" y2="511.5996" gradientTransform="matrix(1 0 0 1 1152 0)">
			<stop  offset="0" style="stop-color:#FFFFFF"/>
			<stop  offset="1" style="stop-color:#FCBA59"/>
		</linearGradient>
		<path fill="url(#SVGID_2_)" d="M1534.8,547.6c-1.8,0-3.6-0.4-5.4-1.3c-5.9-3-8.3-10.2-5.4-16.1l24-48c3-5.9,10.2-8.3,16.1-5.4
			c5.9,3,8.3,10.2,5.4,16.1l-24,48C1543.4,545.2,1539.2,547.6,1534.8,547.6z"/>
		
			<linearGradient id="SVGID_3_" gradientUnits="userSpaceOnUse" x1="399.5973" y1="521.1999" x2="447.6029" y2="521.1999" gradientTransform="matrix(1 0 0 1 1152 0)">
			<stop  offset="0" style="stop-color:#FFFFFF"/>
			<stop  offset="1" style="stop-color:#FCBA59"/>
		</linearGradient>
		<path fill="url(#SVGID_3_)" d="M1563.6,557.2c-1.8,0-3.6-0.4-5.4-1.3c-5.9-3-8.3-10.2-5.4-16.1l24-48c3-5.9,10.2-8.3,16.1-5.4
			c5.9,3,8.3,10.2,5.4,16.1l-24,48C1572.2,554.8,1568,557.2,1563.6,557.2z"/>
		
			<linearGradient id="SVGID_4_" gradientUnits="userSpaceOnUse" x1="428.3971" y1="530.7996" x2="476.4027" y2="530.7996" gradientTransform="matrix(1 0 0 1 1152 0)">
			<stop  offset="0" style="stop-color:#FFFFFF"/>
			<stop  offset="1" style="stop-color:#FCBA59"/>
		</linearGradient>
		<path fill="url(#SVGID_4_)" d="M1592.4,566.8c-1.8,0-3.6-0.4-5.4-1.3c-5.9-3-8.3-10.2-5.4-16.1l24-48c3-5.9,10.2-8.3,16.1-5.4
			c5.9,3,8.3,10.2,5.4,16.1l-24,48C1601,564.4,1596.8,566.8,1592.4,566.8z"/>
		
			<linearGradient id="SVGID_5_" gradientUnits="userSpaceOnUse" x1="457.1969" y1="540.4002" x2="505.2025" y2="540.4002" gradientTransform="matrix(1 0 0 1 1152 0)">
			<stop  offset="0" style="stop-color:#FFFFFF"/>
			<stop  offset="1" style="stop-color:#FCBA59"/>
		</linearGradient>
		<path fill="url(#SVGID_5_)" d="M1621.2,576.4c-1.8,0-3.6-0.4-5.4-1.3c-5.9-3-8.3-10.2-5.4-16.1l24-48c3-5.9,10.2-8.3,16.1-5.4
			c5.9,3,8.3,10.2,5.4,16.1l-24,48C1629.8,574,1625.6,576.4,1621.2,576.4z"/>
	</g>
	<g>
		<path fill="#FFFFFF" d="M1344,568h35.4c19.7,0,35.3-16.8,33.7-36.5v0"/>
		<path d="M1379.4,571H1344c-1.7,0-3-1.3-3-3s1.3-3,3-3h35.4c8.7,0,16.7-3.5,22.6-9.9c5.9-6.4,8.8-14.7,8.1-23.3
			c-0.1-1.7,1.1-3.1,2.8-3.2c1.7-0.1,3.1,1.1,3.2,2.8c0.8,10.2-2.7,20.4-9.7,27.9C1399.5,566.7,1389.6,571,1379.4,571z"/>
	</g>
	<path d="M1464,523c-1.7,0-3-1.3-3-3v-24c0-11.4,5.8-21.8,15.5-27.8c9.7-6,21.6-6.5,31.8-1.4l5.1,2.5c1.5,0.7,2.1,2.5,1.3,4
		c-0.7,1.5-2.5,2.1-4,1.3l-5.1-2.5c-8.3-4.2-18-3.7-25.9,1.2c-7.9,4.9-12.6,13.4-12.6,22.7v24C1467,521.7,1465.7,523,1464,523z"/>
</g>
<path fill="none" stroke="#000000" stroke-miterlimit="10" d="M576,768"/>
<g>
	<circle fill="#FFFFFF" cx="1088" cy="800" r="128"/>
	<path fill="#2762FF" d="M1088,928.5c-70.9,0-128.5-57.6-128.5-128.5s57.6-128.5,128.5-128.5s128.5,57.6,128.5,128.5
		S1158.9,928.5,1088,928.5z M1088,672.5c-70.3,0-127.5,57.2-127.5,127.5s57.2,127.5,127.5,127.5s127.5-57.2,127.5-127.5
		S1158.3,672.5,1088,672.5z"/>
</g>
<g>
	<g>
		<circle fill="#FFFFFF" cx="1088" cy="799.7" r="128"/>
		<path fill="#215CFF" d="M1088,928.2c-70.9,0-128.5-57.6-128.5-128.5s57.6-128.5,128.5-128.5s128.5,57.6,128.5,128.5
			S1158.9,928.2,1088,928.2z M1088,672.2c-70.3,0-127.5,57.2-127.5,127.5s57.2,127.5,127.5,127.5s127.5-57.2,127.5-127.5
			S1158.3,672.2,1088,672.2z"/>
	</g>
	<path fill="#FCBA59" d="M1008,712.3h-32c-2.2,0-4-1.8-4-4s1.8-4,4-4h32c2.2,0,4,1.8,4,4S1010.2,712.3,1008,712.3z"/>
	<linearGradient id="SVGID_6_" gradientUnits="userSpaceOnUse" x1="976.4037" y1="897.9697" x2="1199.5963" y2="710.6888">
		<stop  offset="0" style="stop-color:#FFFFFF"/>
		<stop  offset="2.577698e-02" style="stop-color:#FFFCF7"/>
		<stop  offset="0.1983" style="stop-color:#FEE8C7"/>
		<stop  offset="0.37" style="stop-color:#FDD7A0"/>
		<stop  offset="0.5381" style="stop-color:#FDCB81"/>
		<stop  offset="0.7015" style="stop-color:#FCC16B"/>
		<stop  offset="0.8579" style="stop-color:#FCBC5D"/>
		<stop  offset="1" style="stop-color:#FCBA59"/>
	</linearGradient>
	<path fill="url(#SVGID_6_)" d="M1168,908.3h-168c-17.6,0-32-14.4-32-32s14.4-32,32-32h176c8.8,0,16-7.2,16-16s-7.2-16-16-16h-176
		c-17.6,0-32-14.4-32-32s14.4-32,32-32h176c8.8,0,16-7.2,16-16s-7.2-16-16-16h-168c-4.4,0-8-3.6-8-8s3.6-8,8-8h168
		c17.6,0,32,14.4,32,32s-14.4,32-32,32h-176c-8.8,0-16,7.2-16,16s7.2,16,16,16h176c17.6,0,32,14.4,32,32s-14.4,32-32,32h-176
		c-8.8,0-16,7.2-16,16s7.2,16,16,16h168c4.4,0,8,3.6,8,8S1172.4,908.3,1168,908.3z"/>
	<path fill="#FCBA59" d="M1200,904.6h-32c-2.3,0-4.3-1.9-4.3-4.3s1.9-4.3,4.3-4.3h32c2.3,0,4.3,1.9,4.3,4.3S1202.3,904.6,1200,904.6
		z"/>
	<g>
		<line fill="#FFFFFF" x1="1200.1" y1="900.3" x2="1199.9" y2="900.3"/>
		<path fill="#FFFFFF" d="M1200.1,903.9h-0.1c-2,0-3.5-1.6-3.5-3.5s1.6-3.5,3.5-3.5h0.1c2,0,3.5,1.6,3.5,3.5
			S1202,903.9,1200.1,903.9z"/>
	</g>
</g>
<g>
	<circle fill="#FFFFFF" cx="768" cy="672" r="64"/>
	<path fill="#215CFF" d="M768,736.5c-35.6,0-64.5-28.9-64.5-64.5s28.9-64.5,64.5-64.5s64.5,28.9,64.5,64.5S803.6,736.5,768,736.5z
		 M768,608.5c-35,0-63.5,28.5-63.5,63.5s28.5,63.5,63.5,63.5s63.5-28.5,63.5-63.5S803,608.5,768,608.5z"/>
</g>
<g>
	<circle fill="#FFFFFF" cx="576" cy="736" r="32"/>
	<path fill="#2762FF" d="M576,768.5c-17.9,0-32.5-14.6-32.5-32.5s14.6-32.5,32.5-32.5s32.5,14.6,32.5,32.5S593.9,768.5,576,768.5z
		 M576,704.5c-17.4,0-31.5,14.1-31.5,31.5s14.1,31.5,31.5,31.5s31.5-14.1,31.5-31.5S593.4,704.5,576,704.5z"/>
</g>
<g>
	<circle fill="#FFFFFF" cx="448" cy="768" r="16"/>
	<path fill="#215CFF" d="M448,784.5c-9.1,0-16.5-7.4-16.5-16.5s7.4-16.5,16.5-16.5s16.5,7.4,16.5,16.5S457.1,784.5,448,784.5z
		 M448,752.5c-8.5,0-15.5,7-15.5,15.5s7,15.5,15.5,15.5s15.5-7,15.5-15.5S456.5,752.5,448,752.5z"/>
</g>
<rect x="295.5" y="660.7" transform="matrix(0.2051 0.9787 -0.9787 0.2051 1033.9321 358.9122)" fill="#215CFF" width="1" height="310.7"/>
<rect x="140.7" y="719.5" transform="matrix(0.9785 0.206 -0.206 0.9785 154.6768 -45.535)" fill="#215CFF" width="310.7" height="1"/>
<g>
	<circle fill="#FFFFFF" cx="144" cy="768" r="80"/>
	<path fill="#215CFF" d="M144,848.5c-44.4,0-80.5-36.1-80.5-80.5s36.1-80.5,80.5-80.5s80.5,36.1,80.5,80.5S188.4,848.5,144,848.5z
		 M144,688.5c-43.8,0-79.5,35.7-79.5,79.5s35.7,79.5,79.5,79.5s79.5-35.7,79.5-79.5S187.8,688.5,144,688.5z"/>
</g>
<g>
	<path fill="#FFFFFF" d="M1776,232v128c0,4.4,7.2,8,16,8s16-3.6,16-8V232"/>
	<path fill="#2762FF" d="M1792,368.5c-9.3,0-16.5-3.7-16.5-8.5V232h1v128c0,4.1,7,7.5,15.5,7.5s15.5-3.4,15.5-7.5V232h1v128
		C1808.5,364.8,1801.3,368.5,1792,368.5z"/>
</g>
<ellipse fill="#2762FF" cx="1792" cy="232" rx="16" ry="8"/>
<g>
	<path fill="#FFFFFF" d="M264,784h128c4.4,0,8-7.2,8-16c0-8.8-3.6-16-8-16H264"/>
	<path fill="#2762FF" d="M392,784.5H264v-1h128c4.1,0,7.5-7,7.5-15.5s-3.4-15.5-7.5-15.5H264v-1h128c4.8,0,8.5,7.2,8.5,16.5
		S396.8,784.5,392,784.5z"/>
</g>
<ellipse fill="#2762FF" cx="264" cy="768" rx="8" ry="16"/>
<g>
	<g>
		<path fill="#FFFFFF" d="M112,736c0-17.7,14.3-32,32-32s32,14.3,32,32"/>
		<path d="M176,737c-0.6,0-1-0.4-1-1c0-17.1-13.9-31-31-31s-31,13.9-31,31c0,0.6-0.4,1-1,1s-1-0.4-1-1c0-18.2,14.8-33,33-33
			s33,14.8,33,33C177,736.6,176.6,737,176,737z"/>
	</g>
	<g>
		<ellipse fill="#FFFFFF" cx="144" cy="736" rx="56" ry="16"/>
		<path d="M144,753c-28,0-57-6.4-57-17s29-17,57-17s57,6.4,57,17S172,753,144,753z M144,721c-32.9,0-55,7.8-55,15s22.1,15,55,15
			s55-7.8,55-15S176.9,721,144,721z"/>
	</g>
	<g>
		<path fill="#FFFFFF" d="M144,728c-13.9,0-25.8,2.2-30.2,5.3c-1.2,3.3-1.8,6.9-1.8,10.7c0,17.7,14.3,32,32,32s32-14.3,32-32
			c0-3.7-0.6-7.3-1.8-10.7C169.8,730.2,157.9,728,144,728z"/>
		<path d="M144,777c-18.2,0-33-14.8-33-33c0-3.8,0.6-7.5,1.9-11l0.1-0.3l0.3-0.2c4.7-3.4,16.8-5.5,30.7-5.5s26,2.2,30.7,5.5l0.3,0.2
			l0.1,0.3c1.3,3.5,1.9,7.2,1.9,11C177,762.2,162.2,777,144,777z M114.7,734c-1.1,3.2-1.7,6.6-1.7,10c0,17.1,13.9,31,31,31
			s31-13.9,31-31c0-3.4-0.6-6.8-1.7-10c-4.6-3-16.2-5-29.3-5S119.2,731,114.7,734z"/>
	</g>
	<path d="M145,753h-5c-0.6,0-1-0.4-1-1s0.4-1,1-1h3v-15c0-0.6,0.4-1,1-1s1,0.4,1,1V753z"/>
	<path d="M132,741c-0.6,0-1-0.4-1-1c0-1.7-1.3-3-3-3s-3,1.3-3,3c0,0.6-0.4,1-1,1s-1-0.4-1-1c0-2.8,2.2-5,5-5s5,2.2,5,5
		C133,740.6,132.6,741,132,741z"/>
	<path d="M160,745c-2.8,0-5-2.2-5-5s2.2-5,5-5s5,2.2,5,5S162.8,745,160,745z M160,737c-1.7,0-3,1.3-3,3s1.3,3,3,3s3-1.3,3-3
		S161.7,737,160,737z"/>
	<path d="M144,769c-5,0-9-4-9-9c0-0.6,0.4-1,1-1s1,0.4,1,1c0,3.9,3.1,7,7,7c0.6,0,1,0.4,1,1S144.6,769,144,769z"/>
	
		<linearGradient id="SVGID_7_" gradientUnits="userSpaceOnUse" x1="1755.4647" y1="832.3293" x2="1796.5647" y2="775.76" gradientTransform="matrix(1 0 0 1 -1632 0)">
		<stop  offset="0" style="stop-color:#FFFFFF"/>
		<stop  offset="1" style="stop-color:#FCBA59"/>
	</linearGradient>
	<polyline fill="url(#SVGID_7_)" points="112,824 112.1,784 120,784 120,808 168,808 168,784 175.9,784 176,824 	"/>
	<path d="M192,825c-0.6,0-1-0.4-1-1v-23.9c0-8.3-6.8-15.1-15.1-15.1h-63.8c-8.3,0-15.1,6.8-15.1,15.1V824c0,0.6-0.4,1-1,1
		s-1-0.4-1-1v-23.9c0-9.4,7.7-17.1,17.1-17.1h63.8c9.4,0,17.1,7.7,17.1,17.1V824C193,824.6,192.6,825,192,825z"/>
</g>
<g>
	<path fill="#FCBA59" d="M444,763.7c-0.3,2.6,1.9,4.8,4.5,4.5c1.8-0.2,3.2-1.7,3.4-3.4c0.3-2.6-1.9-4.8-4.5-4.5
		C445.7,760.5,444.3,761.9,444,763.7z"/>
	<path fill="#FCBA59" d="M456,776.2v-2l0,0c0-2.2-1.8-4-4-4h-8c-2.2,0-4,1.8-4,4l0,0v2"/>
</g>
<g>
	<circle fill="none" cx="576" cy="736" r="32"/>
	<rect x="559.5" y="716" width="1" height="40"/>
	
		<linearGradient id="SVGID_8_" gradientUnits="userSpaceOnUse" x1="1312.0001" y1="723.9999" x2="1328.0001" y2="723.9999" gradientTransform="matrix(1 0 0 1 -768 0)">
		<stop  offset="0" style="stop-color:#FCBA59"/>
		<stop  offset="1" style="stop-color:#FFFFFF"/>
	</linearGradient>
	<circle fill="url(#SVGID_8_)" cx="552" cy="724" r="8"/>
	
		<linearGradient id="SVGID_9_" gradientUnits="userSpaceOnUse" x1="1320.0001" y1="715.9999" x2="1336.0001" y2="715.9999" gradientTransform="matrix(1 0 0 1 -768 0)">
		<stop  offset="0" style="stop-color:#FCBA59"/>
		<stop  offset="1" style="stop-color:#FFFFFF"/>
	</linearGradient>
	<circle fill="url(#SVGID_9_)" cx="560" cy="716" r="8"/>
	
		<linearGradient id="SVGID_10_" gradientUnits="userSpaceOnUse" x1="1328.0001" y1="723.9999" x2="1344.0001" y2="723.9999" gradientTransform="matrix(1 0 0 1 -768 0)">
		<stop  offset="0" style="stop-color:#FCBA59"/>
		<stop  offset="1" style="stop-color:#FFFFFF"/>
	</linearGradient>
	<circle fill="url(#SVGID_10_)" cx="568" cy="724" r="8"/>
	<path d="M560,744.5h-0.5V744c0-4.7,3.8-8.5,8.5-8.5h0.5v0.5C568.5,740.7,564.7,744.5,560,744.5z M567.5,736.5c-3.7,0.3-6.7,3.2-7,7
		C564.2,743.2,567.2,740.2,567.5,736.5z"/>
	<rect x="591.5" y="724" width="1" height="40"/>
	
		<linearGradient id="SVGID_11_" gradientUnits="userSpaceOnUse" x1="1344.0001" y1="731.9999" x2="1360.0001" y2="731.9999" gradientTransform="matrix(1 0 0 1 -768 0)">
		<stop  offset="0" style="stop-color:#FCBA59"/>
		<stop  offset="1" style="stop-color:#FFFFFF"/>
	</linearGradient>
	<circle fill="url(#SVGID_11_)" cx="584" cy="732" r="8"/>
	
		<linearGradient id="SVGID_12_" gradientUnits="userSpaceOnUse" x1="1352.0001" y1="723.9999" x2="1368.0001" y2="723.9999" gradientTransform="matrix(1 0 0 1 -768 0)">
		<stop  offset="0" style="stop-color:#FCBA59"/>
		<stop  offset="1" style="stop-color:#FFFFFF"/>
	</linearGradient>
	<circle fill="url(#SVGID_12_)" cx="592" cy="724" r="8"/>
	
		<linearGradient id="SVGID_13_" gradientUnits="userSpaceOnUse" x1="1360.0001" y1="731.9999" x2="1376.0001" y2="731.9999" gradientTransform="matrix(1 0 0 1 -768 0)">
		<stop  offset="0" style="stop-color:#FCBA59"/>
		<stop  offset="1" style="stop-color:#FFFFFF"/>
	</linearGradient>
	<circle fill="url(#SVGID_13_)" cx="600" cy="732" r="8"/>
	<path d="M592,752.5h-0.5V752c0-4.7,3.8-8.5,8.5-8.5h0.5v0.5C600.5,748.7,596.7,752.5,592,752.5z M599.5,744.5c-3.7,0.3-6.7,3.2-7,7
		C596.2,751.2,599.2,748.2,599.5,744.5z"/>
</g>
<g>
	
		<linearGradient id="SVGID_14_" gradientUnits="userSpaceOnUse" x1="1151.0001" y1="2176" x2="1079.0001" y2="2176" gradientTransform="matrix(1 0 0 -1 -376 2848)">
		<stop  offset="0" style="stop-color:#FCBA59"/>
		<stop  offset="1" style="stop-color:#FFFFFF"/>
	</linearGradient>
	<path fill="url(#SVGID_14_)" d="M727,720c-13.3,0-24-10.7-24-24v-72h48v72c0,13.3,10.7,24,24,24H727z"/>
	<g>
		<path fill="#FFFFFF" d="M775,712h-48c-8.8,0-16-7.2-16-16l0,0c0-8.8,7.2-16,16-16h48c8.8,0,16,7.2,16,16l0,0
			C791,704.8,783.8,712,775,712z"/>
		<path d="M775,713h-48c-9.4,0-17-7.6-17-17s7.6-17,17-17h48c9.4,0,17,7.6,17,17S784.4,713,775,713z M727,681c-8.3,0-15,6.7-15,15
			s6.7,15,15,15h48c8.3,0,15-6.7,15-15s-6.7-15-15-15H727z"/>
	</g>
	
		<linearGradient id="SVGID_15_" gradientUnits="userSpaceOnUse" x1="-7949.8662" y1="2032.0001" x2="-7877.8662" y2="2032.0001" gradientTransform="matrix(-1 0 0 -1 -7150.8662 2704)">
		<stop  offset="0" style="stop-color:#FCBA59"/>
		<stop  offset="1" style="stop-color:#FFFFFF"/>
	</linearGradient>
	<path fill="url(#SVGID_15_)" d="M775,720c13.3,0,24-10.7,24-24v-48c0-13.3-10.7-24-24-24h0c-13.3,0-24,10.7-24,24v48
		c0,13.3-10.7,24-24,24H775z"/>
	<g>
		<path fill="#FFFFFF" d="M823,664h-48c-8.8,0-16-7.2-16-16l0,0c0-8.8,7.2-16,16-16h48c8.8,0,16,7.2,16,16v0
			C839,656.8,831.8,664,823,664z"/>
		<path d="M823,665h-48c-9.4,0-17-7.6-17-17s7.6-17,17-17h48c9.4,0,17,7.6,17,17S832.4,665,823,665z M775,633c-8.3,0-15,6.7-15,15
			s6.7,15,15,15h48c8.3,0,15-6.7,15-15s-6.7-15-15-15H775z"/>
	</g>
	
		<linearGradient id="SVGID_16_" gradientUnits="userSpaceOnUse" x1="-7997.8662" y1="671.9999" x2="-7925.8662" y2="671.9999" gradientTransform="matrix(-1 0 0 1 -7150.8662 0)">
		<stop  offset="0" style="stop-color:#FCBA59"/>
		<stop  offset="1" style="stop-color:#FFFFFF"/>
	</linearGradient>
	<path fill="url(#SVGID_16_)" d="M823,624c13.3,0,24,10.7,24,24v72h-48v-72c0-13.3-10.7-24-24-24H823z"/>
	<circle cx="775" cy="648" r="16"/>
	<circle cx="727" cy="696" r="16"/>
	<g>
		<path fill="#FFFFFF" d="M775,656L775,656c4.4,0,8-3.6,8-8l0,0c0-4.4-3.6-8-8-8l0,0c-4.4,0-8,3.6-8,8l0,0
			C767,652.4,770.6,656,775,656z"/>
		<path d="M775,656.5c-4.7,0-8.5-3.8-8.5-8.5s3.8-8.5,8.5-8.5s8.5,3.8,8.5,8.5S779.7,656.5,775,656.5z M775,640.5
			c-4.1,0-7.5,3.4-7.5,7.5s3.4,7.5,7.5,7.5s7.5-3.4,7.5-7.5S779.1,640.5,775,640.5z"/>
	</g>
	<g>
		<path fill="#FFFFFF" d="M727,704L727,704c4.4,0,8-3.6,8-8l0,0c0-4.4-3.6-8-8-8l0,0c-4.4,0-8,3.6-8,8l0,0
			C719,700.4,722.6,704,727,704z"/>
		<path d="M727,704.5c-4.7,0-8.5-3.8-8.5-8.5s3.8-8.5,8.5-8.5s8.5,3.8,8.5,8.5S731.7,704.5,727,704.5z M727,688.5
			c-4.1,0-7.5,3.4-7.5,7.5s3.4,7.5,7.5,7.5s7.5-3.4,7.5-7.5S731.1,688.5,727,688.5z"/>
	</g>
</g>
<g>
	<circle fill="#FFFFFF" cx="1792" cy="128" r="64"/>
	<path fill="#2762FF" d="M1792,192.5c-35.6,0-64.5-28.9-64.5-64.5s28.9-64.5,64.5-64.5s64.5,28.9,64.5,64.5S1827.6,192.5,1792,192.5
		z M1792,64.5c-35,0-63.5,28.5-63.5,63.5s28.5,63.5,63.5,63.5s63.5-28.5,63.5-63.5S1827,64.5,1792,64.5z"/>
</g>
<g>
	
		<linearGradient id="SVGID_17_" gradientUnits="userSpaceOnUse" x1="64.0001" y1="109.2024" x2="162.0001" y2="109.2024" gradientTransform="matrix(1 0 0 1 1651.1111 0)">
		<stop  offset="0" style="stop-color:#FFFFFF"/>
		<stop  offset="1" style="stop-color:#2762FF"/>
	</linearGradient>
	<path fill="url(#SVGID_17_)" d="M1722.9,77.7h82.4c4.3,0,7.8,3.5,7.8,7.8v47.4c0,4.3-3.5,7.8-7.8,7.8h-82.4c-4.3,0-7.8-3.5-7.8-7.8
		V85.5C1715.1,81.2,1718.6,77.7,1722.9,77.7z"/>
	<rect x="1715.1" y="91.7" width="98" height="14"/>
	<g>
		<path d="M1826.7,153.7h-61.5l-6.5-25.8l80.7-12.4L1826.7,153.7z M1766.8,151.7h58.5l11.3-33.8l-75.3,11.6L1766.8,151.7z"/>
		<path d="M1820.7,171.7H1772c-0.6,0-1-0.4-1-1s0.4-1,1-1h47.3l17.9-53.8l18.5-6.2c0.5-0.2,1.1,0.1,1.3,0.6c0.2,0.5-0.1,1.1-0.6,1.3
			l-17.5,5.8L1820.7,171.7z"/>
		<path d="M1772,189.7c-3.9,0-7-3.1-7-7s3.1-7,7-7s7,3.1,7,7S1775.9,189.7,1772,189.7z M1772,177.7c-2.8,0-5,2.2-5,5s2.2,5,5,5
			s5-2.2,5-5S1774.8,177.7,1772,177.7z"/>
		<path d="M1820,189.7c-3.9,0-7-3.1-7-7s3.1-7,7-7s7,3.1,7,7S1823.9,189.7,1820,189.7z M1820,177.7c-2.8,0-5,2.2-5,5s2.2,5,5,5
			s5-2.2,5-5S1822.8,177.7,1820,177.7z"/>
	</g>
</g>
<g>
	<g>
		<path fill="#2762FF" d="M728.4,778.1v5.1h6.8v1.9h-6.8v6.9h-2v-15.7h10.5v1.8H728.4z"/>
		<path fill="#2762FF" d="M750,792l-1.3-4.1h-6.1l-1.3,4.1h-2l5.2-15.7h2.4l5.2,15.7H750z M745.6,778.3l-2.4,7.8h5L745.6,778.3z"/>
		<path fill="#2762FF" d="M765.2,790.6c-0.9,1-2.4,1.4-4,1.4H756v-15.7h5.3c1.5,0,2.9,0.4,3.8,1.4c0.6,0.6,1,1.6,1,2.7
			c0,1.5-0.8,3-2.3,3.5c1.6,0.5,2.6,2.1,2.6,3.8C766.4,788.9,765.9,789.9,765.2,790.6z M761.2,778h-3.2v5h3.3c1.6,0,2.8-0.7,2.8-2.5
			C764,778.8,762.7,778,761.2,778z M761.3,784.7h-3.3v5.5h3.4c1.7,0,3.1-0.7,3.1-2.7C764.4,785.7,763,784.7,761.3,784.7z"/>
		<path fill="#2762FF" d="M779.1,792l-3-6.5h-3.6v6.5h-2v-15.7h5.4c1.8,0,3.1,0.5,4,1.4c0.8,0.8,1.2,1.8,1.2,3.2
			c0,1.4-0.4,2.3-1.2,3.1c-0.5,0.5-1.1,0.9-1.9,1.1l3.2,6.9H779.1z M775.9,778.1h-3.4v5.5h3.4c1.9,0,3.2-0.8,3.2-2.8
			S777.8,778.1,775.9,778.1z"/>
		<path fill="#2762FF" d="M785.8,792v-1.6h3.5v-12.5h-3.5v-1.6h9v1.6h-3.5v12.5h3.5v1.6H785.8z"/>
		<path fill="#2762FF" d="M805.5,792.3c-1.6,0-3-0.6-4.1-1.7c-1.8-1.7-1.9-4.2-1.9-6.5s0.2-4.8,1.9-6.5c1.1-1.1,2.5-1.7,4.1-1.7
			c3,0,5.5,2.1,5.6,5.2H809c0-0.9-0.4-1.7-0.9-2.2c-0.6-0.7-1.6-1.1-2.7-1.1c-1.1,0-1.9,0.4-2.7,1.2c-1.3,1.3-1.3,3.4-1.3,5.1
			s0,3.8,1.3,5.1c0.7,0.8,1.6,1.2,2.7,1.2c2,0,3.6-1.4,3.6-3.5h2C811,790,808.5,792.3,805.5,792.3z"/>
	</g>
</g>
<g>
	<g>
		<path fill="#2762FF" d="M1054.3,960v-15.7h2v13.9h8.1v1.8H1054.3z"/>
		<path fill="#2762FF" d="M1077.5,960l-1.3-4.1h-6.1l-1.3,4.1h-2l5.2-15.7h2.4l5.2,15.7H1077.5z M1073.1,946.3l-2.4,7.8h5
			L1073.1,946.3z"/>
		<path fill="#2762FF" d="M1088.3,960.3c-1.6,0-3-0.6-4.1-1.7c-1.8-1.7-1.9-4.2-1.9-6.5s0.2-4.8,1.9-6.5c1.1-1.1,2.5-1.7,4.1-1.7
			c3,0,5.5,2.1,5.6,5.2h-2.1c0-0.9-0.4-1.7-0.9-2.2c-0.6-0.7-1.6-1.1-2.7-1.1c-1.1,0-1.9,0.4-2.7,1.2c-1.3,1.3-1.3,3.4-1.3,5.1
			s0,3.8,1.3,5.1c0.7,0.8,1.6,1.2,2.7,1.2c2,0,3.6-1.4,3.6-3.5h2C1093.8,958,1091.4,960.3,1088.3,960.3z"/>
		<path fill="#2762FF" d="M1098.2,960v-15.7h10.4v1.8h-8.4v4.8h6.4v1.9h-6.4v5.4h8.4v1.8H1098.2z"/>
		<path fill="#2762FF" d="M1122.2,958.7c-1.1,1.1-2.8,1.6-4.4,1.6c-1.9,0-3.4-0.5-4.5-1.5c-1-0.9-1.6-2.3-1.6-3.8h2.1
			c0,0.9,0.4,1.9,1.1,2.5c0.7,0.7,1.8,1,3,1c1.2,0,2.2-0.2,2.9-0.9c0.5-0.4,0.8-1,0.8-1.8c0-1.2-0.7-2.2-2.6-2.5
			c-0.9-0.1-1.6-0.2-2.4-0.4c-2.4-0.4-4.2-1.7-4.2-4.2c0-1.2,0.5-2.3,1.3-3.1c1.1-1,2.4-1.6,4.1-1.6c1.5,0,3,0.5,4,1.5
			c1,0.9,1.4,2.1,1.5,3.4h-2.1c0-0.8-0.3-1.4-0.8-1.9c-0.6-0.7-1.5-1.1-2.7-1.1c-1.1,0-2,0.3-2.7,1.1c-0.4,0.5-0.6,1-0.6,1.7
			c0,1.4,1.1,2.1,2.3,2.2c0.9,0.1,1.7,0.3,2.6,0.4c2.6,0.4,4.3,2,4.3,4.5C1123.5,957,1123,958,1122.2,958.7z"/>
	</g>
</g>
<g>
	<g>
		<path fill="#2762FF" d="M1495.9,862.7c-1.1,1.1-2.8,1.6-4.4,1.6c-1.9,0-3.4-0.5-4.5-1.5c-1-0.9-1.6-2.3-1.6-3.8h2.1
			c0,0.9,0.4,1.9,1.1,2.5c0.7,0.7,1.8,1,3,1c1.2,0,2.2-0.2,2.9-0.9c0.5-0.4,0.8-1,0.8-1.8c0-1.2-0.7-2.2-2.6-2.5
			c-0.9-0.1-1.6-0.2-2.4-0.4c-2.4-0.4-4.2-1.7-4.2-4.2c0-1.2,0.5-2.3,1.3-3.1c1.1-1,2.4-1.6,4.1-1.6c1.5,0,3,0.5,4,1.5
			c1,0.9,1.4,2.1,1.5,3.4h-2.1c0-0.8-0.3-1.4-0.8-1.9c-0.6-0.7-1.5-1.1-2.7-1.1c-1.1,0-2,0.3-2.7,1.1c-0.4,0.5-0.6,1-0.6,1.7
			c0,1.4,1.1,2.1,2.3,2.2c0.9,0.1,1.7,0.3,2.6,0.4c2.6,0.4,4.3,2,4.3,4.5C1497.2,861,1496.6,862,1495.9,862.7z"/>
		<path fill="#2762FF" d="M1509.2,864l-6.3-12.7V864h-1.9v-15.7h2.5l6.3,12.7v-12.7h1.9V864H1509.2z"/>
		<path fill="#2762FF" d="M1516.5,864v-15.7h10.4v1.8h-8.4v4.8h6.4v1.9h-6.4v5.4h8.4v1.8H1516.5z"/>
		<path fill="#2762FF" d="M1540.4,864l-1.3-4.1h-6.1l-1.3,4.1h-2l5.2-15.7h2.4l5.2,15.7H1540.4z M1536,850.3l-2.4,7.8h5L1536,850.3z
			"/>
		<path fill="#2762FF" d="M1555.1,864l-4.6-7.9l-2.7,3v4.9h-2v-15.7h2v8.1l7.1-8.1h2.4l-5.5,6.2l5.5,9.5H1555.1z"/>
		<path fill="#2762FF" d="M1561.1,864v-15.7h10.4v1.8h-8.4v4.8h6.4v1.9h-6.4v5.4h8.4v1.8H1561.1z"/>
		<path fill="#2762FF" d="M1584.3,864l-3-6.5h-3.6v6.5h-2v-15.7h5.4c1.8,0,3.1,0.5,4,1.4c0.8,0.8,1.2,1.8,1.2,3.2
			c0,1.4-0.4,2.3-1.2,3.1c-0.5,0.5-1.1,0.9-1.9,1.1l3.2,6.9H1584.3z M1581.1,850.1h-3.4v5.5h3.4c1.9,0,3.2-0.8,3.2-2.8
			S1583,850.1,1581.1,850.1z"/>
	</g>
</g>
<g>
	<g>
		<path fill="#2762FF" d="M1740.2,48.3c-1.6,0-3-0.6-4.1-1.7c-1.8-1.7-1.9-4.2-1.9-6.5s0.2-4.8,1.9-6.5c1.1-1.1,2.5-1.7,4.1-1.7
			c3,0,5.5,2.1,5.6,5.2h-2.1c0-0.9-0.4-1.7-0.9-2.2c-0.6-0.7-1.6-1.1-2.7-1.1c-1.1,0-1.9,0.4-2.7,1.2c-1.3,1.3-1.3,3.4-1.3,5.1
			s0,3.8,1.3,5.1c0.7,0.8,1.6,1.2,2.7,1.2c2,0,3.6-1.4,3.6-3.5h2C1745.8,46,1743.3,48.3,1740.2,48.3z"/>
		<path fill="#2762FF" d="M1754.8,48.3c-3.7,0-5.5-2.5-5.5-6v-10h2v10c0,2.4,1,4.1,3.6,4.1c2.6,0,3.5-1.8,3.5-4.1v-10h2v10
			C1760.3,45.8,1758.5,48.3,1754.8,48.3z"/>
		<path fill="#2762FF" d="M1774.2,46.7c-1.1,1.1-2.8,1.6-4.4,1.6c-1.9,0-3.4-0.5-4.5-1.5c-1-0.9-1.6-2.3-1.6-3.8h2.1
			c0,0.9,0.4,1.9,1.1,2.5c0.7,0.7,1.8,1,3,1c1.2,0,2.2-0.2,2.9-0.9c0.5-0.4,0.8-1,0.8-1.8c0-1.2-0.7-2.2-2.6-2.5
			c-0.9-0.1-1.6-0.2-2.4-0.4c-2.4-0.4-4.2-1.7-4.2-4.2c0-1.2,0.5-2.3,1.3-3.1c1.1-1,2.4-1.6,4.1-1.6c1.5,0,3,0.5,4,1.5
			c1,0.9,1.4,2.1,1.5,3.4h-2.1c0-0.8-0.3-1.4-0.8-1.9c-0.6-0.7-1.5-1.1-2.7-1.1c-1.1,0-2,0.3-2.7,1.1c-0.4,0.5-0.6,1-0.6,1.7
			c0,1.4,1.1,2.1,2.3,2.2c0.9,0.1,1.7,0.3,2.6,0.4c2.6,0.4,4.3,2,4.3,4.5C1775.5,45,1775,46,1774.2,46.7z"/>
		<path fill="#2762FF" d="M1785.6,34.1V48h-2V34.1h-5.4v-1.8h12.7v1.8H1785.6z"/>
		<path fill="#2762FF" d="M1803.5,46.6c-1.1,1.1-2.5,1.7-4.1,1.7s-3-0.6-4.1-1.7c-1.7-1.7-1.9-4-1.9-6.5s0.2-4.8,1.9-6.5
			c1.1-1.1,2.5-1.7,4.1-1.7s3,0.6,4.1,1.7c1.7,1.7,1.9,4,1.9,6.5S1805.3,44.9,1803.5,46.6z M1802.2,35.1c-0.8-0.8-1.7-1.2-2.7-1.2
			c-1.1,0-2,0.4-2.7,1.2c-1.3,1.3-1.2,3.4-1.2,5.1s0,3.8,1.2,5.1c0.8,0.8,1.7,1.2,2.7,1.2c1.1,0,2-0.4,2.7-1.2
			c1.3-1.3,1.2-3.4,1.2-5.1S1803.5,36.4,1802.2,35.1z"/>
		<path fill="#2762FF" d="M1817.9,48V35.6l-2.7,7.6h-1.8l-2.7-7.6V48h-1.9V32.3h2.4l3.1,8.8l3.1-8.8h2.4V48H1817.9z"/>
		<path fill="#2762FF" d="M1824.5,48V32.3h10.4v1.8h-8.4v4.8h6.4v1.9h-6.4v5.4h8.4V48H1824.5z"/>
		<path fill="#2762FF" d="M1847.7,48l-3-6.5h-3.6V48h-2V32.3h5.4c1.8,0,3.1,0.5,4,1.4c0.8,0.8,1.2,1.8,1.2,3.2
			c0,1.4-0.4,2.3-1.2,3.1c-0.5,0.5-1.1,0.9-1.9,1.1l3.2,6.9H1847.7z M1844.6,34.1h-3.4v5.5h3.4c1.9,0,3.2-0.8,3.2-2.8
			S1846.4,34.1,1844.6,34.1z"/>
	</g>
</g>
<g>
	<g>
		<path fill="#2762FF" d="M539.1,688.3c-1.6,0-3-0.6-4.1-1.7c-1.8-1.7-1.9-4.2-1.9-6.5s0.2-4.8,1.9-6.5c1.1-1.1,2.5-1.7,4.1-1.7
			c3,0,5.5,2.1,5.6,5.2h-2.1c0-0.9-0.4-1.7-0.9-2.2c-0.6-0.7-1.6-1.1-2.7-1.1c-1.1,0-1.9,0.4-2.7,1.2c-1.3,1.3-1.3,3.4-1.3,5.1
			s0,3.8,1.3,5.1c0.7,0.8,1.6,1.2,2.7,1.2c2,0,3.6-1.4,3.6-3.5h2C544.6,686,542.2,688.3,539.1,688.3z"/>
		<path fill="#2762FF" d="M557.8,686.6c-1.1,1.1-2.5,1.7-4.1,1.7s-3-0.6-4.1-1.7c-1.7-1.7-1.9-4-1.9-6.5s0.2-4.8,1.9-6.5
			c1.1-1.1,2.5-1.7,4.1-1.7s3,0.6,4.1,1.7c1.7,1.7,1.9,4,1.9,6.5S559.5,684.9,557.8,686.6z M556.4,675.1c-0.8-0.8-1.7-1.2-2.7-1.2
			c-1.1,0-2,0.4-2.7,1.2c-1.3,1.3-1.2,3.4-1.2,5.1s0,3.8,1.2,5.1c0.8,0.8,1.7,1.2,2.7,1.2c1.1,0,2-0.4,2.7-1.2
			c1.3-1.3,1.2-3.4,1.2-5.1S557.7,676.4,556.4,675.1z"/>
		<path fill="#2762FF" d="M569.6,674.1V688h-2v-13.9h-5.4v-1.8h12.7v1.8H569.6z"/>
		<path fill="#2762FF" d="M584.5,674.1V688h-2v-13.9h-5.3v-1.8h12.7v1.8H584.5z"/>
		<path fill="#2762FF" d="M602.4,686.6c-1.1,1.1-2.5,1.7-4.1,1.7c-1.6,0-3-0.6-4.1-1.7c-1.7-1.7-1.9-4-1.9-6.5s0.2-4.8,1.9-6.5
			c1.1-1.1,2.5-1.7,4.1-1.7c1.6,0,3,0.6,4.1,1.7c1.7,1.7,1.9,4,1.9,6.5S604.1,684.9,602.4,686.6z M601,675.1
			c-0.8-0.8-1.7-1.2-2.7-1.2c-1.1,0-2,0.4-2.7,1.2c-1.3,1.3-1.2,3.4-1.2,5.1s0,3.8,1.2,5.1c0.8,0.8,1.7,1.2,2.7,1.2
			c1.1,0,2-0.4,2.7-1.2c1.3-1.3,1.2-3.4,1.2-5.1S602.3,676.4,601,675.1z"/>
		<path fill="#2762FF" d="M616.1,688l-6.3-12.7V688h-1.9v-15.7h2.5l6.3,12.7v-12.7h1.9V688H616.1z"/>
	</g>
</g>
<g>
	<g>
		<path fill="#2762FF" d="M74.1,878.7c-1.1,1.1-2.8,1.6-4.4,1.6c-1.9,0-3.4-0.5-4.5-1.5c-1-0.9-1.6-2.3-1.6-3.8h2.1
			c0,0.9,0.4,1.9,1.1,2.5c0.7,0.7,1.8,1,3,1c1.2,0,2.2-0.2,2.9-0.9c0.5-0.4,0.8-1,0.8-1.8c0-1.2-0.7-2.2-2.6-2.5
			c-0.9-0.1-1.6-0.2-2.4-0.4c-2.4-0.4-4.2-1.7-4.2-4.2c0-1.2,0.5-2.3,1.3-3.1c1.1-1,2.4-1.6,4.1-1.6c1.5,0,3,0.5,4,1.5
			c1,0.9,1.4,2.1,1.5,3.4H73c0-0.8-0.3-1.4-0.8-1.9c-0.6-0.7-1.5-1.1-2.7-1.1c-1.1,0-2,0.3-2.7,1.1c-0.4,0.5-0.6,1-0.6,1.7
			c0,1.4,1.1,2.1,2.3,2.2c0.9,0.1,1.7,0.3,2.6,0.4c2.6,0.4,4.3,2,4.3,4.5C75.4,877,74.9,878,74.1,878.7z"/>
		<path fill="#2762FF" d="M88.1,880v-12.4l-2.7,7.6h-1.8l-2.7-7.6V880H79v-15.7h2.4l3.1,8.8l3.1-8.8H90V880H88.1z"/>
		<path fill="#2762FF" d="M103.7,880l-1.3-4.1h-6.1L95,880h-2l5.2-15.7h2.4l5.2,15.7H103.7z M99.3,866.3l-2.4,7.8h5L99.3,866.3z"/>
		<path fill="#2762FF" d="M110.3,880v-15.7h2v13.9h8.1v1.8H110.3z"/>
		<path fill="#2762FF" d="M125.2,880v-15.7h2v13.9h8.1v1.8H125.2z"/>
		<path fill="#2762FF" d="M147.3,880v-7.3h-6.7v7.3h-2v-15.7h2v6.6h6.7v-6.6h2V880H147.3z"/>
		<path fill="#2762FF" d="M163,878.6c-1.1,1.1-2.5,1.7-4.1,1.7c-1.6,0-3-0.6-4.1-1.7c-1.7-1.7-1.9-4-1.9-6.5s0.2-4.8,1.9-6.5
			c1.1-1.1,2.5-1.7,4.1-1.7c1.6,0,3,0.6,4.1,1.7c1.7,1.7,1.9,4,1.9,6.5S164.7,876.9,163,878.6z M161.6,867.1
			c-0.8-0.8-1.7-1.2-2.7-1.2c-1.1,0-2,0.4-2.7,1.2c-1.3,1.3-1.2,3.4-1.2,5.1s0,3.8,1.2,5.1c0.8,0.8,1.7,1.2,2.7,1.2
			c1.1,0,2-0.4,2.7-1.2c1.3-1.3,1.2-3.4,1.2-5.1S162.9,868.4,161.6,867.1z"/>
		<path fill="#2762FF" d="M169.8,880v-15.7h2v13.9h8.1v1.8H169.8z"/>
		<path fill="#2762FF" d="M193.4,877.6c-0.9,1.4-2.6,2.4-5,2.4h-4.7v-15.7h4.7c2.5,0,4.2,1,5,2.4c0.9,1.4,1.1,3.3,1.1,5.4
			C194.4,874.2,194.2,876.2,193.4,877.6z M191.2,867.1c-0.6-0.6-1.6-1-2.9-1h-2.7v12.1h2.7c1.4,0,2.4-0.5,3-1.1c1-1.1,1.1-3,1.1-5
			C192.4,870.1,192.3,868.2,191.2,867.1z"/>
		<path fill="#2762FF" d="M198.8,880v-15.7h10.4v1.8h-8.4v4.8h6.4v1.9h-6.4v5.4h8.4v1.8H198.8z"/>
		<path fill="#2762FF" d="M222,880l-3-6.5h-3.6v6.5h-2v-15.7h5.4c1.8,0,3.1,0.5,4,1.4c0.8,0.8,1.2,1.8,1.2,3.2
			c0,1.4-0.4,2.3-1.2,3.1c-0.5,0.5-1.1,0.9-1.9,1.1l3.2,6.9H222z M218.9,866.1h-3.4v5.5h3.4c1.9,0,3.2-0.8,3.2-2.8
			S220.7,866.1,218.9,866.1z"/>
	</g>
</g>
<g>
	<g>
		<g>
			<path fill="#999999" d="M751,921l-0.9-0.5l12.7-22c1.1-1.9,3-3,5.2-3c2.2,0,4.1,1.1,5.2,3l9.1,15.8l-0.9,0.5l-9.1-15.8
				c-0.9-1.6-2.5-2.5-4.3-2.5c-1.8,0-3.4,0.9-4.3,2.5L751,921z"/>
			<g>
				<polygon fill="#999999" points="753,919.8 750.7,920.5 750.1,918.1 749.4,919.4 750,921.7 752.3,921.1 				"/>
			</g>
		</g>
		<g>
			<path fill="#999999" d="M794.5,953.4h-18.2v-1h18.2c1.8,0,3.4-0.9,4.3-2.5s0.9-3.4,0-5l-12.7-22l0.9-0.5l12.7,22
				c1.1,1.9,1.1,4.1,0,6C798.6,952.3,796.7,953.4,794.5,953.4z"/>
			<g>
				<polygon fill="#999999" points="786.1,925.3 786.7,922.9 789,923.6 788.3,922.3 786,921.7 785.4,924 				"/>
			</g>
		</g>
		<g>
			<path fill="#999999" d="M766.9,953.4h-25.4c-2.2,0-4.1-1.1-5.2-3c-1.1-1.9-1.1-4.1,0-6l9.1-15.8l0.9,0.5l-9.1,15.8
				c-0.9,1.6-0.9,3.4,0,5c0.9,1.6,2.5,2.5,4.3,2.5h25.4V953.4z"/>
			<g>
				<polygon fill="#999999" points="764.9,951.2 766.6,952.9 764.9,954.6 766.3,954.6 768,952.9 766.3,951.2 				"/>
			</g>
		</g>
	</g>
</g>
<rect x="1256" y="88" fill="#FFFFFF" width="305" height="16"/>
<g>
	<path fill="#CCCCCC" d="M1309.4,85.5c-1.3,1.7-3.4,2.9-6.2,2.9c-5,0-8.6-3.6-8.6-8.6c0-5.1,3.7-8.5,8.7-8.5c2.2,0,4.6,0.9,5.8,2.5
		l-1.8,1.4c-0.8-1.1-2.4-1.9-4-1.9c-3.8,0-6.2,3-6.2,6.5c0,3.7,2.4,6.6,6.1,6.6c1.8,0,3.4-0.8,4.4-2.2L1309.4,85.5z"/>
	<path fill="#CCCCCC" d="M1319.3,88c0-0.6-0.1-1.3-0.1-1.8h0c-0.6,1.2-2,2.1-3.6,2.1c-2.8,0-4.1-2-4.1-4.4v-6.8h2.2v6
		c0,1.8,0.5,3.4,2.5,3.4c1.7,0,2.9-1.4,2.9-3.6v-5.8h2.2v8.6c0,0.6,0,1.6,0.1,2.3H1319.3z"/>
	<path fill="#CCCCCC" d="M1324.9,77.1h2c0,0.6,0.1,1.4,0.1,1.8h0.1c0.6-1.3,1.9-2.1,3.3-2.1c0.3,0,0.6,0,0.9,0.1l-0.1,2
		c-0.3-0.1-0.6-0.1-1-0.1c-2.1,0-3.1,1.7-3.1,3.5V88h-2.2v-8.6C1325,78.9,1324.9,77.8,1324.9,77.1z"/>
	<path fill="#CCCCCC" d="M1333.2,77.1h2c0,0.6,0.1,1.4,0.1,1.8h0.1c0.6-1.3,1.9-2.1,3.3-2.1c0.3,0,0.6,0,0.9,0.1l-0.1,2
		c-0.3-0.1-0.6-0.1-1-0.1c-2.1,0-3.1,1.7-3.1,3.5V88h-2.2v-8.6C1333.3,78.9,1333.3,77.8,1333.2,77.1z"/>
	<path fill="#CCCCCC" d="M1351.8,83.2h-8.6c0.1,1.9,1.6,3.3,3.5,3.3c1.5,0,2.6-0.7,3.2-1.7l1.5,1.2c-1.2,1.5-2.8,2.2-4.7,2.2
		c-3.3,0-5.7-2.3-5.7-5.7c0-3.4,2.4-5.8,5.6-5.8c3.2,0,5.2,2.2,5.2,5.7C1351.8,82.7,1351.8,82.9,1351.8,83.2z M1349.6,81.6
		c0-1.7-1.1-3.1-3.1-3.1c-1.9,0-3.3,1.4-3.4,3.1H1349.6z"/>
	<path fill="#CCCCCC" d="M1356.7,77.1c0,0.6,0.1,1.3,0.1,1.8h0.1c0.5-1.2,2-2.1,3.5-2.1c2.8,0,4.1,2,4.1,4.4V88h-2.2v-6
		c0-1.8-0.5-3.3-2.5-3.3c-1.7,0-2.9,1.4-2.9,3.6V88h-2.2v-8.6c0-0.6,0-1.6-0.1-2.3H1356.7z"/>
	<path fill="#CCCCCC" d="M1373.5,78.9h-2.9v5.7c0,1.3,0.5,1.8,1.5,1.8c0.4,0,0.9-0.1,1.3-0.3l0.1,1.8c-0.5,0.2-1.2,0.3-1.8,0.3
		c-2,0-3.2-1.1-3.2-3.4v-5.9h-2.1v-1.8h2.1V74h2.1v3.1h2.9V78.9z"/>
	<path fill="#CCCCCC" d="M1389.7,74.7c-0.6-0.9-1.8-1.5-3.2-1.5c-1.5,0-3.2,0.8-3.2,2.6c0,1.8,1.5,2.3,3.3,2.9
		c2.2,0.7,4.8,1.5,4.8,4.8c0,3.4-2.7,4.9-5.6,4.9c-2,0-4.1-0.8-5.4-2.4l1.8-1.5c0.8,1.1,2.1,1.9,3.6,1.9c1.5,0,3.3-0.9,3.3-2.8
		c0-2-1.8-2.5-3.9-3.2c-2.1-0.6-4.2-1.6-4.2-4.6c0-3.2,2.9-4.6,5.6-4.6c1.9,0,3.7,0.7,4.7,1.9L1389.7,74.7z"/>
	<path fill="#CCCCCC" d="M1408.7,85.5c-1.3,1.7-3.4,2.9-6.2,2.9c-5,0-8.6-3.6-8.6-8.6c0-5.1,3.7-8.5,8.7-8.5c2.2,0,4.6,0.9,5.8,2.5
		l-1.8,1.4c-0.8-1.1-2.4-1.9-4-1.9c-3.8,0-6.2,3-6.2,6.5c0,3.7,2.4,6.6,6.1,6.6c1.8,0,3.4-0.8,4.4-2.2L1408.7,85.5z"/>
	<path fill="#CCCCCC" d="M1413.3,88h-2.3V71.7h10.2v2h-7.9v5.1h7.4v2h-7.4V88z"/>
	<path fill="#CCCCCC" d="M1435.6,79.9c-0.5-0.8-1.4-1.4-2.5-1.4c-1,0-2,0.4-2,1.4c0,0.9,0.8,1.3,2.5,1.6c2.1,0.5,3.7,1.3,3.7,3.2
		c0,2.6-2.1,3.5-4.3,3.5c-1.7,0-3.4-0.6-4.4-2l1.5-1.3c0.6,0.9,1.7,1.5,2.9,1.5c1.1,0,2.2-0.4,2.2-1.6c0-1-1-1.4-2.9-1.8
		c-1.4-0.3-3.2-1-3.2-3c0-2.3,2-3.3,4.1-3.3c1.5,0,3.2,0.6,4,1.8L1435.6,79.9z"/>
	<path fill="#CCCCCC" d="M1445,88.3c-3.3,0-5.9-2.4-5.9-5.8s2.5-5.7,5.9-5.7s5.9,2.4,5.9,5.7S1448.4,88.3,1445,88.3z M1445,78.6
		c-2.3,0-3.6,1.9-3.6,3.9s1.3,4,3.6,4c2.3,0,3.6-1.9,3.6-4S1447.4,78.6,1445,78.6z"/>
	<path fill="#CCCCCC" d="M1456.1,88h-2.2V70.6h2.2V88z"/>
	<path fill="#CCCCCC" d="M1467.6,88c0-0.6-0.1-1.3-0.1-1.8h0c-0.6,1.2-2,2.1-3.6,2.1c-2.8,0-4.1-2-4.1-4.4v-6.8h2.2v6
		c0,1.8,0.5,3.4,2.5,3.4c1.7,0,2.9-1.4,2.9-3.6v-5.8h2.2v8.6c0,0.6,0,1.6,0.1,2.3H1467.6z"/>
	<path fill="#CCCCCC" d="M1478.6,78.9h-2.9v5.7c0,1.3,0.5,1.8,1.5,1.8c0.4,0,0.9-0.1,1.3-0.3l0.1,1.8c-0.5,0.2-1.2,0.3-1.8,0.3
		c-2,0-3.2-1.1-3.2-3.4v-5.9h-2.1v-1.8h2.1V74h2.1v3.1h2.9V78.9z"/>
	<path fill="#CCCCCC" d="M1482,74.5c-0.8,0-1.4-0.6-1.4-1.4c0-0.8,0.6-1.4,1.4-1.4s1.4,0.6,1.4,1.4
		C1483.4,73.9,1482.7,74.5,1482,74.5z M1483,88h-2.2V77.1h2.2V88z"/>
	<path fill="#CCCCCC" d="M1492,88.3c-3.3,0-5.9-2.4-5.9-5.8s2.5-5.7,5.9-5.7c3.3,0,5.9,2.4,5.9,5.7S1495.3,88.3,1492,88.3z
		 M1492,78.6c-2.3,0-3.6,1.9-3.6,3.9s1.3,4,3.6,4c2.3,0,3.6-1.9,3.6-4S1494.3,78.6,1492,78.6z"/>
	<path fill="#CCCCCC" d="M1502.8,77.1c0,0.6,0.1,1.3,0.1,1.8h0.1c0.5-1.2,2-2.1,3.5-2.1c2.8,0,4.1,2,4.1,4.4V88h-2.2v-6
		c0-1.8-0.5-3.3-2.5-3.3c-1.7,0-2.9,1.4-2.9,3.6V88h-2.2v-8.6c0-0.6,0-1.6-0.1-2.3H1502.8z"/>
	<path fill="#CCCCCC" d="M1520.1,79.9c-0.5-0.8-1.4-1.4-2.5-1.4c-1,0-2,0.4-2,1.4c0,0.9,0.8,1.3,2.5,1.6c2.1,0.5,3.7,1.3,3.7,3.2
		c0,2.6-2.1,3.5-4.3,3.5c-1.7,0-3.4-0.6-4.4-2l1.5-1.3c0.6,0.9,1.7,1.5,2.9,1.5c1.1,0,2.2-0.4,2.2-1.6c0-1-1-1.4-2.9-1.8
		c-1.4-0.3-3.2-1-3.2-3c0-2.3,2-3.3,4.1-3.3c1.5,0,3.2,0.6,4,1.8L1520.1,79.9z"/>
	<path fill="#CCCCCC" d="M1276.5,115.9c-3.3,0-5.9-2.4-5.9-5.8s2.5-5.7,5.9-5.7s5.9,2.4,5.9,5.7S1279.8,115.9,1276.5,115.9z
		 M1276.5,106.2c-2.3,0-3.6,1.9-3.6,3.9s1.3,4,3.6,4c2.3,0,3.6-1.9,3.6-4S1278.8,106.2,1276.5,106.2z"/>
	<path fill="#CCCCCC" d="M1287.3,104.7c0,0.6,0.1,1.3,0.1,1.8h0.1c0.5-1.2,2-2.1,3.5-2.1c2.8,0,4.1,2,4.1,4.4v6.8h-2.2v-6
		c0-1.8-0.5-3.3-2.5-3.3c-1.7,0-2.9,1.4-2.9,3.6v5.8h-2.2V107c0-0.6,0-1.6-0.1-2.3H1287.3z"/>
	<path fill="#CCCCCC" d="M1300.9,115.6h-2.2V98.2h2.2V115.6z"/>
	<path fill="#CCCCCC" d="M1308.8,113.3L1308.8,113.3l3.1-8.6h2.3l-5.3,13.5c-0.7,1.8-1.6,2.9-3.8,2.9c-0.5,0-0.9,0-1.4-0.2l0.2-1.9
		c0.3,0.1,0.7,0.2,1.1,0.2c1.1,0,1.6-0.6,2-1.8l0.7-1.8l-4.7-10.9h2.4L1308.8,113.3z"/>
	<path fill="#CCCCCC" d="M1329.7,107.5c-0.5-0.7-1.5-1.2-2.5-1.2c-2.3,0-3.6,1.8-3.6,3.9c0,2.1,1.3,3.9,3.6,3.9c1.1,0,2-0.5,2.6-1.2
		l1.4,1.3c-0.9,1.1-2.3,1.7-4.1,1.7c-3.4,0-5.9-2.3-5.9-5.7c0-3.4,2.5-5.7,5.8-5.7c1.5,0,3.2,0.6,4.1,1.8L1329.7,107.5z"/>
	<path fill="#CCCCCC" d="M1338.6,115.9c-3.3,0-5.9-2.4-5.9-5.8s2.5-5.7,5.9-5.7s5.9,2.4,5.9,5.7S1341.9,115.9,1338.6,115.9z
		 M1338.6,106.2c-2.3,0-3.6,1.9-3.6,3.9s1.3,4,3.6,4c2.3,0,3.6-1.9,3.6-4S1340.9,106.2,1338.6,106.2z"/>
	<path fill="#CCCCCC" d="M1352.6,115.6h-2.3l-4.4-10.9h2.4l3.2,8.6h0l3.2-8.6h2.3L1352.6,115.6z"/>
	<path fill="#CCCCCC" d="M1369.2,110.8h-8.6c0.1,1.9,1.6,3.3,3.5,3.3c1.5,0,2.6-0.7,3.2-1.7l1.5,1.2c-1.2,1.5-2.8,2.2-4.7,2.2
		c-3.3,0-5.7-2.3-5.7-5.7c0-3.4,2.4-5.8,5.6-5.8c3.2,0,5.2,2.2,5.2,5.7C1369.2,110.3,1369.2,110.5,1369.2,110.8z M1367,109.2
		c0-1.7-1.1-3.1-3.1-3.1c-1.9,0-3.3,1.4-3.4,3.1H1367z"/>
	<path fill="#CCCCCC" d="M1372.1,104.7h2c0,0.6,0.1,1.4,0.1,1.8h0.1c0.6-1.3,1.9-2.1,3.3-2.1c0.3,0,0.6,0,0.8,0.1l-0.1,2
		c-0.3-0.1-0.6-0.1-1-0.1c-2.1,0-3.1,1.7-3.1,3.5v5.7h-2.2V107C1372.2,106.5,1372.2,105.4,1372.1,104.7z"/>
	<path fill="#CCCCCC" d="M1392.1,115.6h-2.3v-14.3h-5.2v-2h12.7v2h-5.2V115.6z"/>
	<path fill="#CCCCCC" d="M1400.5,102.1c-0.8,0-1.4-0.6-1.4-1.4c0-0.8,0.6-1.4,1.4-1.4c0.8,0,1.4,0.6,1.4,1.4
		C1401.9,101.5,1401.2,102.1,1400.5,102.1z M1401.5,115.6h-2.2v-10.9h2.2V115.6z"/>
	<path fill="#CCCCCC" d="M1415.5,110.8h-8.6c0.1,1.9,1.6,3.3,3.5,3.3c1.5,0,2.6-0.7,3.2-1.7l1.5,1.2c-1.2,1.5-2.8,2.2-4.7,2.2
		c-3.3,0-5.7-2.3-5.7-5.7c0-3.4,2.4-5.8,5.6-5.8c3.2,0,5.2,2.2,5.2,5.7C1415.5,110.3,1415.5,110.5,1415.5,110.8z M1413.3,109.2
		c0-1.7-1.1-3.1-3.1-3.1c-1.9,0-3.3,1.4-3.4,3.1H1413.3z"/>
	<path fill="#CCCCCC" d="M1418.4,104.7h2c0,0.6,0.1,1.4,0.1,1.8h0.1c0.6-1.3,1.9-2.1,3.3-2.1c0.3,0,0.6,0,0.9,0.1l-0.1,2
		c-0.3-0.1-0.6-0.1-1-0.1c-2.1,0-3.1,1.7-3.1,3.5v5.7h-2.2V107C1418.5,106.5,1418.5,105.4,1418.4,104.7z"/>
	<path fill="#CCCCCC" d="M1439.4,115.6h-2.2V102l-3.1,2.6l-1.3-1.5l4.6-3.7h2V115.6z"/>
	<path fill="#CCCCCC" d="M1457.9,107.5c-0.5-0.8-1.4-1.4-2.5-1.4c-1,0-2,0.4-2,1.4c0,0.9,0.8,1.3,2.5,1.6c2.1,0.5,3.7,1.3,3.7,3.2
		c0,2.6-2.1,3.5-4.3,3.5c-1.7,0-3.4-0.6-4.4-2l1.5-1.3c0.6,0.9,1.7,1.5,2.9,1.5c1.1,0,2.2-0.4,2.2-1.6c0-1-1-1.4-2.9-1.8
		c-1.4-0.3-3.2-1-3.2-3c0-2.3,2-3.3,4.1-3.3c1.5,0,3.2,0.6,4,1.8L1457.9,107.5z"/>
	<path fill="#CCCCCC" d="M1469.9,115.6c0-0.6-0.1-1.3-0.1-1.8h0c-0.6,1.2-2,2.1-3.6,2.1c-2.8,0-4.1-2-4.1-4.4v-6.8h2.2v6
		c0,1.8,0.5,3.4,2.5,3.4c1.7,0,2.9-1.4,2.9-3.6v-5.8h2.2v8.6c0,0.6,0,1.6,0.1,2.3H1469.9z"/>
	<path fill="#CCCCCC" d="M1477.8,121.1h-2.2v-16.4h2.1v1.7h0.1c0.7-1.1,2.1-2,3.9-2c3.2,0,5.5,2.5,5.5,5.7c0,3.2-2.1,5.8-5.5,5.8
		c-1.5,0-3-0.7-3.8-1.9h-0.1V121.1z M1481.3,106.2c-2.2,0-3.7,1.9-3.7,4c0,2.1,1.5,3.9,3.7,3.9c2.4,0,3.6-1.9,3.6-4
		S1483.7,106.2,1481.3,106.2z"/>
	<path fill="#CCCCCC" d="M1492.4,121.1h-2.2v-16.4h2.1v1.7h0.1c0.7-1.1,2.1-2,3.9-2c3.2,0,5.4,2.5,5.4,5.7c0,3.2-2.1,5.8-5.5,5.8
		c-1.5,0-3-0.7-3.8-1.9h-0.1V121.1z M1495.9,106.2c-2.2,0-3.7,1.9-3.7,4c0,2.1,1.5,3.9,3.7,3.9c2.4,0,3.6-1.9,3.6-4
		S1498.3,106.2,1495.9,106.2z"/>
	<path fill="#CCCCCC" d="M1507,115.6h-2.2V98.2h2.2V115.6z"/>
	<path fill="#CCCCCC" d="M1511.9,102.1c-0.8,0-1.4-0.6-1.4-1.4c0-0.8,0.6-1.4,1.4-1.4s1.4,0.6,1.4,1.4
		C1513.3,101.5,1512.6,102.1,1511.9,102.1z M1512.9,115.6h-2.2v-10.9h2.2V115.6z"/>
	<path fill="#CCCCCC" d="M1526.8,110.8h-8.6c0.1,1.9,1.6,3.3,3.5,3.3c1.5,0,2.6-0.7,3.2-1.7l1.5,1.2c-1.2,1.5-2.8,2.2-4.7,2.2
		c-3.3,0-5.7-2.3-5.7-5.7c0-3.4,2.4-5.8,5.6-5.8c3.2,0,5.2,2.2,5.2,5.7C1526.9,110.3,1526.9,110.5,1526.8,110.8z M1524.7,109.2
		c0-1.7-1.1-3.1-3.1-3.1c-1.9,0-3.3,1.4-3.4,3.1H1524.7z"/>
	<path fill="#CCCCCC" d="M1529.8,104.7h2c0,0.6,0.1,1.4,0.1,1.8h0.1c0.6-1.3,1.9-2.1,3.3-2.1c0.3,0,0.6,0,0.9,0.1l-0.1,2
		c-0.3-0.1-0.6-0.1-1-0.1c-2.1,0-3.1,1.7-3.1,3.5v5.7h-2.2V107C1529.9,106.5,1529.9,105.4,1529.8,104.7z"/>
	<path fill="#CCCCCC" d="M1544.1,107.5c-0.5-0.8-1.4-1.4-2.5-1.4c-1,0-2,0.4-2,1.4c0,0.9,0.8,1.3,2.5,1.6c2.1,0.5,3.7,1.3,3.7,3.2
		c0,2.6-2.1,3.5-4.3,3.5c-1.7,0-3.4-0.6-4.4-2l1.5-1.3c0.6,0.9,1.7,1.5,2.9,1.5c1.1,0,2.2-0.4,2.2-1.6c0-1-1-1.4-2.9-1.8
		c-1.4-0.3-3.2-1-3.2-3c0-2.3,2-3.3,4.1-3.3c1.5,0,3.2,0.6,4,1.8L1544.1,107.5z"/>
</g>
</svg>
