<?xml version="1.0" encoding="utf-8"?>
<!-- Generator: Adobe Illustrator 18.0.0, SVG Export Plug-In . SVG Version: 6.00 Build 0)  -->
<!DOCTYPE svg PUBLIC "-//W3C//DTD SVG 1.1//EN" "http://www.w3.org/Graphics/SVG/1.1/DTD/svg11.dtd">
<svg version="1.1" xmlns="http://www.w3.org/2000/svg" xmlns:xlink="http://www.w3.org/1999/xlink" x="0px" y="0px"
	 viewBox="0 0 1280 304" enable-background="new 0 0 1280 304" xml:space="preserve">
<g id="Слой_1">
	<g>
		<g>
			<g>
				<circle fill="#FFFFFF" cx="1215" cy="129.5" r="64"/>
				<path d="M1280,164.4h-120.9c-5,0-9.1-4.1-9.1-9.1v-17l130,16.2V164.4z M1152,140.5v14.8c0,3.9,3.2,7.1,7.1,7.1H1278v-6.1
					L1152,140.5z"/>
				<g>
					<path fill="#FFFFFF" d="M1151,147.4v-19.7c0-2.3,2-4,4.2-3.6l18.8,3.1c14.4,2.4,28.3-6,33-19.8v0l49.2,16.4
						c13.6,4.5,22.8,17.3,22.8,31.6v0h-120C1154.6,155.4,1151,151.8,1151,147.4z"/>
					<path d="M1279,156.4h-120c-5,0-9-4-9-9v-19.7c0-2.8,2.5-5.1,5.4-4.6l18.8,3.1c1.6,0.3,3.1,0.4,4.7,0.4
						c12.3,0,23.2-7.9,27.1-19.6l0.3-0.9l50.2,16.7c14,4.7,23.5,17.8,23.5,32.5v1L1279,156.4z M1154.6,125.1c-1.5,0-2.6,1.2-2.6,2.6
						v19.7c0,3.9,3.1,7,7,7h119c-0.4-13.5-9.2-25.3-22.1-29.6l-48.3-16.1c-4.4,12-15.8,20-28.7,20c-1.7,0-3.4-0.1-5.1-0.4l-18.8-3.1
						C1154.9,125.1,1154.8,125.1,1154.6,125.1z"/>
				</g>
				<path d="M1255,156.4C1255,156.4,1255,156.4,1255,156.4c-0.6,0-1-0.5-1-1l1.2-31.6c0-0.6,0.5-1,1-1c0.6,0,1,0.5,1,1l-1.2,31.6
					C1256,156,1255.5,156.4,1255,156.4z"/>
				<g>
					<linearGradient id="SVGID_1_" gradientUnits="userSpaceOnUse" x1="1200.9993" y1="117.4028" x2="1217.0007" y2="117.4028">
						<stop  offset="0" style="stop-color:#FFFFFF"/>
						<stop  offset="1" style="stop-color:#FCBA59"/>
					</linearGradient>
					<path fill="url(#SVGID_1_)" d="M1205,129.4c-0.6,0-1.2-0.1-1.8-0.4c-2-1-2.8-3.4-1.8-5.4l8-16c1-2,3.4-2.8,5.4-1.8
						c2,1,2.8,3.4,1.8,5.4l-8,16C1207.9,128.6,1206.5,129.4,1205,129.4z"/>
					<linearGradient id="SVGID_2_" gradientUnits="userSpaceOnUse" x1="1210.5989" y1="120.6027" x2="1226.6003" y2="120.6027">
						<stop  offset="0" style="stop-color:#FFFFFF"/>
						<stop  offset="1" style="stop-color:#FCBA59"/>
					</linearGradient>
					<path fill="url(#SVGID_2_)" d="M1214.6,132.6c-0.6,0-1.2-0.1-1.8-0.4c-2-1-2.8-3.4-1.8-5.4l8-16c1-2,3.4-2.8,5.4-1.8
						c2,1,2.8,3.4,1.8,5.4l-8,16C1217.5,131.8,1216.1,132.6,1214.6,132.6z"/>
					<linearGradient id="SVGID_3_" gradientUnits="userSpaceOnUse" x1="1220.199" y1="123.803" x2="1236.2004" y2="123.803">
						<stop  offset="0" style="stop-color:#FFFFFF"/>
						<stop  offset="1" style="stop-color:#FCBA59"/>
					</linearGradient>
					<path fill="url(#SVGID_3_)" d="M1224.2,135.8c-0.6,0-1.2-0.1-1.8-0.4c-2-1-2.8-3.4-1.8-5.4l8-16c1-2,3.4-2.8,5.4-1.8
						c2,1,2.8,3.4,1.8,5.4l-8,16C1227.1,135,1225.7,135.8,1224.2,135.8z"/>
					<linearGradient id="SVGID_4_" gradientUnits="userSpaceOnUse" x1="1229.7991" y1="127.0027" x2="1245.8005" y2="127.0027">
						<stop  offset="0" style="stop-color:#FFFFFF"/>
						<stop  offset="1" style="stop-color:#FCBA59"/>
					</linearGradient>
					<path fill="url(#SVGID_4_)" d="M1233.8,139c-0.6,0-1.2-0.1-1.8-0.4c-2-1-2.8-3.4-1.8-5.4l8-16c1-2,3.4-2.8,5.4-1.8
						c2,1,2.8,3.4,1.8,5.4l-8,16C1236.7,138.2,1235.3,139,1233.8,139z"/>
					<linearGradient id="SVGID_5_" gradientUnits="userSpaceOnUse" x1="1239.3992" y1="130.2029" x2="1255.4006" y2="130.2029">
						<stop  offset="0" style="stop-color:#FFFFFF"/>
						<stop  offset="1" style="stop-color:#FCBA59"/>
					</linearGradient>
					<path fill="url(#SVGID_5_)" d="M1243.4,142.2c-0.6,0-1.2-0.1-1.8-0.4c-2-1-2.8-3.4-1.8-5.4l8-16c1-2,3.4-2.8,5.4-1.8
						c2,1,2.8,3.4,1.8,5.4l-8,16C1246.3,141.4,1244.9,142.2,1243.4,142.2z"/>
				</g>
				<g>
					<path fill="#FFFFFF" d="M1151,139.4h11.8c6.6,0,11.8-5.6,11.2-12.2v0"/>
					<path d="M1162.8,140.4H1151c-0.6,0-1-0.4-1-1s0.4-1,1-1h11.8c2.9,0,5.6-1.2,7.5-3.3s2.9-4.9,2.7-7.8c0-0.6,0.4-1,0.9-1.1
						c0.6,0,1,0.4,1.1,0.9c0.3,3.4-0.9,6.8-3.2,9.3C1169.5,139,1166.2,140.4,1162.8,140.4z"/>
				</g>
				<path d="M1191,124.4c-0.6,0-1-0.4-1-1v-8c0-3.8,1.9-7.3,5.2-9.3c3.2-2,7.2-2.2,10.6-0.5l1.7,0.8c0.5,0.2,0.7,0.8,0.4,1.3
					c-0.2,0.5-0.8,0.7-1.3,0.4l-1.7-0.8c-2.8-1.4-6-1.2-8.6,0.4c-2.6,1.6-4.2,4.5-4.2,7.6v8C1192,124,1191.6,124.4,1191,124.4z"/>
			</g>
			<g>
				<g>
					<path fill="#2762FF" d="M1174.3,230.4c-1.1,1.1-2.8,1.6-4.4,1.6c-1.9,0-3.4-0.5-4.5-1.5c-1-0.9-1.6-2.3-1.6-3.8h2.1
						c0,0.9,0.4,1.9,1.1,2.5c0.7,0.7,1.8,1,3,1c1.2,0,2.2-0.2,2.9-0.9c0.5-0.4,0.8-1,0.8-1.8c0-1.2-0.7-2.2-2.6-2.5
						c-0.9-0.1-1.6-0.2-2.4-0.4c-2.4-0.4-4.2-1.7-4.2-4.2c0-1.2,0.5-2.3,1.3-3.1c1.1-1,2.4-1.6,4.1-1.6c1.5,0,3,0.5,4,1.5
						c1,0.9,1.4,2.1,1.5,3.4h-2.1c0-0.8-0.3-1.4-0.8-1.9c-0.6-0.7-1.5-1.1-2.7-1.1c-1.1,0-2,0.3-2.7,1.1c-0.4,0.5-0.6,1-0.6,1.7
						c0,1.4,1.1,2.1,2.3,2.2c0.9,0.1,1.7,0.3,2.6,0.4c2.6,0.4,4.3,2,4.3,4.5C1175.6,228.7,1175.1,229.7,1174.3,230.4z"/>
					<path fill="#2762FF" d="M1187.6,231.7l-6.3-12.7v12.7h-1.9V216h2.5l6.3,12.7V216h1.9v15.7H1187.6z"/>
					<path fill="#2762FF" d="M1194.9,231.7V216h10.4v1.8h-8.4v4.8h6.4v1.9h-6.4v5.4h8.4v1.8H1194.9z"/>
					<path fill="#2762FF" d="M1218.8,231.7l-1.3-4.1h-6.1l-1.3,4.1h-2l5.2-15.7h2.4l5.2,15.7H1218.8z M1214.4,218l-2.4,7.8h5
						L1214.4,218z"/>
					<path fill="#2762FF" d="M1233.5,231.7l-4.6-7.9l-2.7,3v4.9h-2V216h2v8.1l7.1-8.1h2.4l-5.5,6.2l5.5,9.5H1233.5z"/>
					<path fill="#2762FF" d="M1239.5,231.7V216h10.4v1.8h-8.4v4.8h6.4v1.9h-6.4v5.4h8.4v1.8H1239.5z"/>
					<path fill="#2762FF" d="M1262.7,231.7l-3-6.5h-3.6v6.5h-2V216h5.4c1.8,0,3.1,0.5,4,1.4c0.8,0.8,1.2,1.8,1.2,3.2
						c0,1.4-0.4,2.3-1.2,3.1c-0.5,0.5-1.1,0.9-1.9,1.1l3.2,6.9H1262.7z M1259.6,217.8h-3.4v5.5h3.4c1.9,0,3.2-0.8,3.2-2.8
						S1261.4,217.8,1259.6,217.8z"/>
				</g>
			</g>
		</g>
		<g>
			<g>
				<circle fill="#FFFFFF" cx="444" cy="136" r="64"/>
				<g>
					
						<linearGradient id="SVGID_6_" gradientUnits="userSpaceOnUse" x1="-3396" y1="2045.7025" x2="-3468" y2="2045.7025" gradientTransform="matrix(-1 0 0 -1 -2952 2184)">
						<stop  offset="0" style="stop-color:#FFFFFF"/>
						<stop  offset="1" style="stop-color:#FCBA59"/>
					</linearGradient>
					<path fill="url(#SVGID_6_)" d="M492,186.3c13.3,0,24-10.7,24-24v-72h-48v72c0,13.3-10.7,24-24,24H492z"/>
					<g>
						<path fill="#FFFFFF" d="M444,178.3h48c8.8,0,16-7.2,16-16v0c0-8.8-7.2-16-16-16h-48c-8.8,0-16,7.2-16,16v0
							C428,171.1,435.2,178.3,444,178.3z"/>
						<path d="M492,179.3h-48c-9.4,0-17-7.6-17-17s7.6-17,17-17h48c9.4,0,17,7.6,17,17S501.4,179.3,492,179.3z M444,147.3
							c-8.3,0-15,6.7-15,15s6.7,15,15,15h48c8.3,0,15-6.7,15-15s-6.7-15-15-15H444z"/>
					</g>
					
						<linearGradient id="SVGID_7_" gradientUnits="userSpaceOnUse" x1="420" y1="1901.7025" x2="492" y2="1901.7025" gradientTransform="matrix(1 0 0 -1 0 2040)">
						<stop  offset="0" style="stop-color:#FFFFFF"/>
						<stop  offset="1" style="stop-color:#FCBA59"/>
					</linearGradient>
					<path fill="url(#SVGID_7_)" d="M444,186.3c-13.3,0-24-10.7-24-24v-48c0-13.3,10.7-24,24-24h0c13.3,0,24,10.7,24,24v48
						c0,13.3,10.7,24,24,24H444z"/>
					<g>
						<path fill="#FFFFFF" d="M396,130.3h48c8.8,0,16-7.2,16-16v0c0-8.8-7.2-16-16-16h-48c-8.8,0-16,7.2-16,16v0
							C380,123.1,387.2,130.3,396,130.3z"/>
						<path d="M444,131.3h-48c-9.4,0-17-7.6-17-17s7.6-17,17-17h48c9.4,0,17,7.6,17,17S453.4,131.3,444,131.3z M396,99.3
							c-8.3,0-15,6.7-15,15s6.7,15,15,15h48c8.3,0,15-6.7,15-15s-6.7-15-15-15H396z"/>
					</g>
					<linearGradient id="SVGID_8_" gradientUnits="userSpaceOnUse" x1="372" y1="138.2975" x2="444" y2="138.2975">
						<stop  offset="0" style="stop-color:#FFFFFF"/>
						<stop  offset="1" style="stop-color:#FCBA59"/>
					</linearGradient>
					<path fill="url(#SVGID_8_)" d="M396,90.3c-13.3,0-24,10.7-24,24v72h48v-72c0-13.3,10.7-24,24-24H396z"/>
					<circle cx="444" cy="114.3" r="16"/>
					<circle cx="492" cy="162.3" r="16"/>
					<g>
						<path fill="#FFFFFF" d="M444,122.3L444,122.3c-4.4,0-8-3.6-8-8v0c0-4.4,3.6-8,8-8l0,0c4.4,0,8,3.6,8,8v0
							C452,118.7,448.4,122.3,444,122.3z"/>
						<path d="M444,122.8c-4.7,0-8.5-3.8-8.5-8.5s3.8-8.5,8.5-8.5s8.5,3.8,8.5,8.5S448.7,122.8,444,122.8z M444,106.8
							c-4.1,0-7.5,3.4-7.5,7.5s3.4,7.5,7.5,7.5s7.5-3.4,7.5-7.5S448.1,106.8,444,106.8z"/>
					</g>
					<g>
						<path fill="#FFFFFF" d="M492,170.3L492,170.3c-4.4,0-8-3.6-8-8v0c0-4.4,3.6-8,8-8l0,0c4.4,0,8,3.6,8,8v0
							C500,166.7,496.4,170.3,492,170.3z"/>
						<path d="M492,170.8c-4.7,0-8.5-3.8-8.5-8.5s3.8-8.5,8.5-8.5s8.5,3.8,8.5,8.5S496.7,170.8,492,170.8z M492,154.8
							c-4.1,0-7.5,3.4-7.5,7.5s3.4,7.5,7.5,7.5s7.5-3.4,7.5-7.5S496.1,154.8,492,154.8z"/>
					</g>
				</g>
			</g>
			<g>
				<g>
					<path fill="#2762FF" d="M403.8,219v5.1h6.8v1.9h-6.8v6.9h-2v-15.7h10.5v1.8H403.8z"/>
					<path fill="#2762FF" d="M425.5,232.9l-1.3-4.1h-6.1l-1.3,4.1h-2l5.2-15.7h2.4l5.2,15.7H425.5z M421.1,219.2l-2.4,7.8h5
						L421.1,219.2z"/>
					<path fill="#2762FF" d="M440.7,231.5c-0.9,1-2.4,1.4-4,1.4h-5.3v-15.7h5.3c1.5,0,2.9,0.4,3.8,1.4c0.6,0.6,1,1.6,1,2.7
						c0,1.5-0.8,3-2.3,3.5c1.6,0.5,2.6,2.1,2.6,3.8C441.8,229.8,441.4,230.8,440.7,231.5z M436.6,218.9h-3.2v5h3.3
						c1.6,0,2.8-0.7,2.8-2.5C439.4,219.7,438.1,218.9,436.6,218.9z M436.7,225.6h-3.3v5.5h3.4c1.7,0,3.1-0.7,3.1-2.7
						C439.8,226.6,438.5,225.6,436.7,225.6z"/>
					<path fill="#2762FF" d="M454.5,232.9l-3-6.5H448v6.5h-2v-15.7h5.4c1.8,0,3.1,0.5,4,1.4c0.8,0.8,1.2,1.8,1.2,3.2
						c0,1.4-0.4,2.3-1.2,3.1c-0.5,0.5-1.1,0.9-1.9,1.1l3.2,6.9H454.5z M451.4,219H448v5.5h3.4c1.9,0,3.2-0.8,3.2-2.8
						S453.3,219,451.4,219z"/>
					<path fill="#2762FF" d="M461.3,232.9v-1.6h3.5v-12.5h-3.5v-1.6h9v1.6h-3.5v12.5h3.5v1.6H461.3z"/>
					<path fill="#2762FF" d="M480.9,233.2c-1.6,0-3-0.6-4.1-1.7c-1.8-1.7-1.9-4.2-1.9-6.5s0.2-4.8,1.9-6.5c1.1-1.1,2.5-1.7,4.1-1.7
						c3,0,5.5,2.1,5.6,5.2h-2.1c0-0.9-0.4-1.7-0.9-2.2c-0.6-0.7-1.6-1.1-2.7-1.1c-1.1,0-1.9,0.4-2.7,1.2c-1.3,1.3-1.3,3.4-1.3,5.1
						s0,3.8,1.3,5.1c0.7,0.8,1.6,1.2,2.7,1.2c2,0,3.6-1.4,3.6-3.5h2C486.4,230.9,484,233.2,480.9,233.2z"/>
				</g>
			</g>
		</g>
		<g>
			<g>
				<g>
					<path fill="#2762FF" d="M797.8,231.7v-15.7h2v13.9h8.1v1.8H797.8z"/>
					<path fill="#2762FF" d="M820.9,231.7l-1.3-4.1h-6.1l-1.3,4.1h-2l5.2-15.7h2.4l5.2,15.7H820.9z M816.5,218l-2.4,7.8h5L816.5,218
						z"/>
					<path fill="#2762FF" d="M831.7,232c-1.6,0-3-0.6-4.1-1.7c-1.8-1.7-1.9-4.2-1.9-6.5s0.2-4.8,1.9-6.5c1.1-1.1,2.5-1.7,4.1-1.7
						c3,0,5.5,2.1,5.6,5.2h-2.1c0-0.9-0.4-1.7-0.9-2.2c-0.6-0.7-1.6-1.1-2.7-1.1c-1.1,0-1.9,0.4-2.7,1.2c-1.3,1.3-1.3,3.4-1.3,5.1
						s0,3.8,1.3,5.1c0.7,0.8,1.6,1.2,2.7,1.2c2,0,3.6-1.4,3.6-3.5h2C837.3,229.7,834.8,232,831.7,232z"/>
					<path fill="#2762FF" d="M841.7,231.7v-15.7h10.4v1.8h-8.4v4.8h6.4v1.9h-6.4v5.4h8.4v1.8H841.7z"/>
					<path fill="#2762FF" d="M865.7,230.4c-1.1,1.1-2.8,1.6-4.4,1.6c-1.9,0-3.4-0.5-4.5-1.5c-1-0.9-1.6-2.3-1.6-3.8h2.1
						c0,0.9,0.4,1.9,1.1,2.5c0.7,0.7,1.8,1,3,1c1.2,0,2.2-0.2,2.9-0.9c0.5-0.4,0.8-1,0.8-1.8c0-1.2-0.7-2.2-2.6-2.5
						c-0.9-0.1-1.6-0.2-2.4-0.4c-2.4-0.4-4.2-1.7-4.2-4.2c0-1.2,0.5-2.3,1.3-3.1c1.1-1,2.4-1.6,4.1-1.6c1.5,0,3,0.5,4,1.5
						c1,0.9,1.4,2.1,1.5,3.4h-2.1c0-0.8-0.3-1.4-0.8-1.9c-0.6-0.7-1.5-1.1-2.7-1.1c-1.1,0-2,0.3-2.7,1.1c-0.4,0.5-0.6,1-0.6,1.7
						c0,1.4,1.1,2.1,2.3,2.2c0.9,0.1,1.7,0.3,2.6,0.4c2.6,0.4,4.3,2,4.3,4.5C867,228.7,866.5,229.7,865.7,230.4z"/>
				</g>
			</g>
			<g>
				<circle fill="#FFFFFF" cx="832" cy="134.8" r="64"/>
				<path fill="#FCBA59" d="M792,91.1h-16c-1.1,0-2-0.9-2-2s0.9-2,2-2h16c1.1,0,2,0.9,2,2S793.1,91.1,792,91.1z"/>
				<linearGradient id="SVGID_9_" gradientUnits="userSpaceOnUse" x1="776.2018" y1="183.9155" x2="887.7982" y2="90.2751">
					<stop  offset="0" style="stop-color:#FFFFFF"/>
					<stop  offset="1" style="stop-color:#FCBA59"/>
				</linearGradient>
				<path fill="url(#SVGID_9_)" d="M872,189.1h-84c-8.8,0-16-7.2-16-16s7.2-16,16-16h88c4.4,0,8-3.6,8-8s-3.6-8-8-8h-88
					c-8.8,0-16-7.2-16-16s7.2-16,16-16h88c4.4,0,8-3.6,8-8s-3.6-8-8-8h-84c-2.2,0-4-1.8-4-4s1.8-4,4-4h84c8.8,0,16,7.2,16,16
					s-7.2,16-16,16h-88c-4.4,0-8,3.6-8,8s3.6,8,8,8h88c8.8,0,16,7.2,16,16s-7.2,16-16,16h-88c-4.4,0-8,3.6-8,8s3.6,8,8,8h84
					c2.2,0,4,1.8,4,4S874.2,189.1,872,189.1z"/>
				<path fill="#FCBA59" d="M888,187.1h-16c-1.1,0-2-0.9-2-2s0.9-2,2-2h16c1.1,0,2,0.9,2,2S889.1,187.1,888,187.1z"/>
			</g>
		</g>
		<g>
			<g>
				<circle fill="#FFFFFF" cx="64" cy="136" r="64"/>
				<rect x="31" y="96" width="2" height="80"/>
				<linearGradient id="SVGID_10_" gradientUnits="userSpaceOnUse" x1="4.202993e-07" y1="112" x2="32" y2="112">
					<stop  offset="0" style="stop-color:#FCBA59"/>
					<stop  offset="1" style="stop-color:#FFFFFF"/>
				</linearGradient>
				<circle fill="url(#SVGID_10_)" cx="16" cy="112" r="16"/>
				<linearGradient id="SVGID_11_" gradientUnits="userSpaceOnUse" x1="16" y1="96" x2="48" y2="96">
					<stop  offset="0" style="stop-color:#FCBA59"/>
					<stop  offset="1" style="stop-color:#FFFFFF"/>
				</linearGradient>
				<circle fill="url(#SVGID_11_)" cx="32" cy="96" r="16"/>
				<linearGradient id="SVGID_12_" gradientUnits="userSpaceOnUse" x1="32" y1="112" x2="64" y2="112">
					<stop  offset="0" style="stop-color:#FCBA59"/>
					<stop  offset="1" style="stop-color:#FFFFFF"/>
				</linearGradient>
				<circle fill="url(#SVGID_12_)" cx="48" cy="112" r="16"/>
				<path d="M32,153h-1v-1c0-9.4,7.6-17,17-17h1v1C49,145.4,41.4,153,32,153z M47,137c-7.4,0.5-13.4,6.5-13.9,13.9
					C40.5,150.5,46.5,144.5,47,137z"/>
				<rect x="95" y="112" width="2" height="80"/>
				<linearGradient id="SVGID_13_" gradientUnits="userSpaceOnUse" x1="64" y1="128" x2="96" y2="128">
					<stop  offset="0" style="stop-color:#FCBA59"/>
					<stop  offset="1" style="stop-color:#FFFFFF"/>
				</linearGradient>
				<circle fill="url(#SVGID_13_)" cx="80" cy="128" r="16"/>
				<linearGradient id="SVGID_14_" gradientUnits="userSpaceOnUse" x1="80" y1="112" x2="112" y2="112">
					<stop  offset="0" style="stop-color:#FCBA59"/>
					<stop  offset="1" style="stop-color:#FFFFFF"/>
				</linearGradient>
				<circle fill="url(#SVGID_14_)" cx="96" cy="112" r="16"/>
				<linearGradient id="SVGID_15_" gradientUnits="userSpaceOnUse" x1="96" y1="128" x2="128" y2="128">
					<stop  offset="0" style="stop-color:#FCBA59"/>
					<stop  offset="1" style="stop-color:#FFFFFF"/>
				</linearGradient>
				<circle fill="url(#SVGID_15_)" cx="112" cy="128" r="16"/>
				<path d="M96,169h-1v-1c0-9.4,7.6-17,17-17h1v1C113,161.4,105.4,169,96,169z M111,153c-7.4,0.5-13.4,6.5-13.9,13.9
					C104.5,166.5,110.5,160.5,111,153z"/>
			</g>
			<g>
				<g>
					<path fill="#2762FF" d="M27.1,232.3c-1.6,0-3-0.6-4.1-1.7c-1.8-1.7-1.9-4.2-1.9-6.5s0.2-4.8,1.9-6.5c1.1-1.1,2.5-1.7,4.1-1.7
						c3,0,5.5,2.1,5.6,5.2h-2.1c0-0.9-0.4-1.7-0.9-2.2c-0.6-0.7-1.6-1.1-2.7-1.1c-1.1,0-1.9,0.4-2.7,1.2c-1.3,1.3-1.3,3.4-1.3,5.1
						s0,3.8,1.3,5.1c0.7,0.8,1.6,1.2,2.7,1.2c2,0,3.6-1.4,3.6-3.5h2C32.6,230,30.2,232.3,27.1,232.3z"/>
					<path fill="#2762FF" d="M45.8,230.6c-1.1,1.1-2.5,1.7-4.1,1.7s-3-0.6-4.1-1.7c-1.7-1.7-1.9-4-1.9-6.5s0.2-4.8,1.9-6.5
						c1.1-1.1,2.5-1.7,4.1-1.7s3,0.6,4.1,1.7c1.7,1.7,1.9,4,1.9,6.5S47.5,228.9,45.8,230.6z M44.4,219.1c-0.8-0.8-1.7-1.2-2.7-1.2
						c-1.1,0-2,0.4-2.7,1.2c-1.3,1.3-1.2,3.4-1.2,5.1s0,3.8,1.2,5.1c0.8,0.8,1.7,1.2,2.7,1.2c1.1,0,2-0.4,2.7-1.2
						c1.3-1.3,1.2-3.4,1.2-5.1S45.7,220.4,44.4,219.1z"/>
					<path fill="#2762FF" d="M57.6,218.1V232h-2v-13.9h-5.4v-1.8h12.7v1.8H57.6z"/>
					<path fill="#2762FF" d="M72.5,218.1V232h-2v-13.9h-5.3v-1.8h12.7v1.8H72.5z"/>
					<path fill="#2762FF" d="M90.4,230.6c-1.1,1.1-2.5,1.7-4.1,1.7c-1.6,0-3-0.6-4.1-1.7c-1.7-1.7-1.9-4-1.9-6.5s0.2-4.8,1.9-6.5
						c1.1-1.1,2.5-1.7,4.1-1.7c1.6,0,3,0.6,4.1,1.7c1.7,1.7,1.9,4,1.9,6.5S92.1,228.9,90.4,230.6z M89,219.1
						c-0.8-0.8-1.7-1.2-2.7-1.2c-1.1,0-2,0.4-2.7,1.2c-1.3,1.3-1.2,3.4-1.2,5.1s0,3.8,1.2,5.1c0.8,0.8,1.7,1.2,2.7,1.2
						c1.1,0,2-0.4,2.7-1.2c1.3-1.3,1.2-3.4,1.2-5.1S90.3,220.4,89,219.1z"/>
					<path fill="#2762FF" d="M104.1,232l-6.3-12.7V232h-1.9v-15.7h2.5l6.3,12.7v-12.7h1.9V232H104.1z"/>
				</g>
			</g>
		</g>
		<g>
			<path fill="#2762FF" d="M65,40h-2C63,21.8,77.8,7,96,7h1088c13.6,0,25.7,8.2,30.7,20.9l-1.9,0.7c-4.7-11.9-16-19.6-28.8-19.6H96
				C78.9,9,65,22.9,65,40z"/>
			<g>
				<polygon fill="#2762FF" points="1219.4,21.3 1212.9,25.9 1205,24.5 1216,40 				"/>
			</g>
		</g>
		<g>
			<path fill="#2762FF" d="M1184,297H96c-13.6,0-25.7-8.2-30.7-20.9l1.9-0.7c4.7,11.9,16,19.6,28.8,19.6h1088c17.1,0,31-13.9,31-31
				h2C1217,282.2,1202.2,297,1184,297z"/>
			<g>
				<polygon fill="#2762FF" points="60.6,282.7 67.1,278.1 75,279.5 64,264 				"/>
			</g>
		</g>
		<circle fill="#2762FF" cx="64" cy="40" r="8"/>
		<circle fill="#2762FF" cx="448" cy="8" r="8"/>
		<circle fill="#2762FF" cx="832" cy="8" r="8"/>
		<circle fill="#2762FF" cx="832" cy="296" r="8"/>
		<circle fill="#2762FF" cx="448" cy="296" r="8"/>
		<circle fill="#2762FF" cx="1216" cy="264" r="8"/>
	</g>
</g>
<g id="Слой_2">
</g>
</svg>
