<?xml version="1.0" encoding="utf-8"?>
<!-- Generator: Adobe Illustrator 18.0.0, SVG Export Plug-In . SVG Version: 6.00 Build 0)  -->
<!DOCTYPE svg PUBLIC "-//W3C//DTD SVG 1.1//EN" "http://www.w3.org/Graphics/SVG/1.1/DTD/svg11.dtd">
<svg version="1.1" id="Слой_1" xmlns="http://www.w3.org/2000/svg" xmlns:xlink="http://www.w3.org/1999/xlink" x="0px" y="0px"
	 viewBox="0 0 912 928" enable-background="new 0 0 912 928" xml:space="preserve">
<g>
	<path fill="#39B54A" d="M87.5,721.5c-53-75.7-81-164.8-81-257.5c0-47.5,7.4-94.2,21.9-138.9l2.9,0.9C16.8,370.4,9.5,416.8,9.5,464
		c0,92.1,27.8,180.6,80.5,255.8L87.5,721.5z"/>
	<g>
		<polygon fill="#39B54A" points="92.9,707.3 86.7,717.6 74.9,720.3 99.3,735.1 		"/>
	</g>
</g>
<g>
	<path fill="#39B54A" d="M813.9,736l-2.4-1.8c29-38,51.5-80.1,66.9-125.1c16-46.6,24.1-95.4,24.1-145.1c0-41.1-5.6-81.8-16.6-121
		l2.9-0.8c11.1,39.5,16.7,80.4,16.7,121.8c0,50-8.2,99.2-24.3,146C865.7,655.3,843,697.7,813.9,736z"/>
	<g>
		<polygon fill="#39B54A" points="879,353.9 888.3,346.2 900.3,347.6 882.2,325.5 		"/>
	</g>
</g>
<g>
	<g>
		<path fill="none" d="M280,464c0,97.3,78.7,176,176,176s176-78.7,176-176s-78.7-176-176-176S280,366.7,280,464z"/>
	</g>
	<g>
		<line fill="none" x1="456" y1="464" x2="456" y2="288"/>
		<path d="M455.7,465l-3.8-1.2l0.6-1.9l3.8,1.2L455.7,465z M444.3,461.2l-3.8-1.2l0.6-1.9l3.8,1.2L444.3,461.2z M432.9,457.5
			l-3.8-1.2l0.6-1.9l3.8,1.2L432.9,457.5z M421.5,453.8l-3.8-1.2l0.6-1.9l3.8,1.2L421.5,453.8z M410,450.1l-3.8-1.2l0.6-1.9l3.8,1.2
			L410,450.1z M398.6,446.4l-3.8-1.2l0.6-1.9l3.8,1.2L398.6,446.4z M387.2,442.7l-3.8-1.2l0.6-1.9l3.8,1.2L387.2,442.7z M375.8,439
			l-3.8-1.2l0.6-1.9l3.8,1.2L375.8,439z M364.4,435.3l-3.8-1.2l0.6-1.9l3.8,1.2L364.4,435.3z M353,431.6l-3.8-1.2l0.6-1.9l3.8,1.2
			L353,431.6z M341.6,427.9l-3.8-1.2l0.6-1.9l3.8,1.2L341.6,427.9z M330.2,424.2l-3.8-1.2l0.6-1.9l3.8,1.2L330.2,424.2z
			 M318.7,420.5l-3.8-1.2l0.6-1.9l3.8,1.2L318.7,420.5z M307.3,416.7l-3.8-1.2l0.6-1.9l3.8,1.2L307.3,416.7z M295.9,413l-3.8-1.2
			l0.6-1.9l3.8,1.2L295.9,413z"/>
		<path d="M355.7,603.7l-1.6-1.2l2.4-3.2l1.6,1.2L355.7,603.7z M362.8,594l-1.6-1.2l2.4-3.2l1.6,1.2L362.8,594z M369.8,584.3
			l-1.6-1.2l2.4-3.2l1.6,1.2L369.8,584.3z M376.9,574.6l-1.6-1.2l2.4-3.2l1.6,1.2L376.9,574.6z M383.9,564.9l-1.6-1.2l2.4-3.2
			l1.6,1.2L383.9,564.9z M391,555.2l-1.6-1.2l2.4-3.2l1.6,1.2L391,555.2z M398,545.5l-1.6-1.2l2.4-3.2l1.6,1.2L398,545.5z
			 M405.1,535.8l-1.6-1.2l2.4-3.2l1.6,1.2L405.1,535.8z M412.1,526.1l-1.6-1.2l2.4-3.2l1.6,1.2L412.1,526.1z M419.2,516.4l-1.6-1.2
			l2.4-3.2l1.6,1.2L419.2,516.4z M426.2,506.7l-1.6-1.2l2.4-3.2l1.6,1.2L426.2,506.7z M433.3,496.9l-1.6-1.2l2.4-3.2l1.6,1.2
			L433.3,496.9z M440.4,487.2l-1.6-1.2l2.4-3.2l1.6,1.2L440.4,487.2z M447.4,477.5l-1.6-1.2l2.4-3.2l1.6,1.2L447.4,477.5z
			 M454.5,467.8l-1.6-1.2l2.4-3.2l1.6,1.2L454.5,467.8z"/>
		<path d="M556.3,603.7l-2.4-3.2l1.6-1.2l2.4,3.2L556.3,603.7z M549.2,594l-2.4-3.2l1.6-1.2l2.4,3.2L549.2,594z M542.2,584.3
			l-2.4-3.2l1.6-1.2l2.4,3.2L542.2,584.3z M535.1,574.6l-2.4-3.2l1.6-1.2l2.4,3.2L535.1,574.6z M528.1,564.9l-2.4-3.2l1.6-1.2
			l2.4,3.2L528.1,564.9z M521,555.2l-2.4-3.2l1.6-1.2l2.4,3.2L521,555.2z M514,545.5l-2.4-3.2l1.6-1.2l2.4,3.2L514,545.5z
			 M506.9,535.8l-2.4-3.2l1.6-1.2l2.4,3.2L506.9,535.8z M499.9,526.1l-2.4-3.2l1.6-1.2l2.4,3.2L499.9,526.1z M492.8,516.4l-2.4-3.2
			l1.6-1.2l2.4,3.2L492.8,516.4z M485.8,506.7l-2.4-3.2l1.6-1.2l2.4,3.2L485.8,506.7z M478.7,496.9l-2.4-3.2l1.6-1.2l2.4,3.2
			L478.7,496.9z M471.6,487.2l-2.4-3.2l1.6-1.2l2.4,3.2L471.6,487.2z M464.6,477.5l-2.4-3.2l1.6-1.2l2.4,3.2L464.6,477.5z
			 M457.5,467.8l-2.4-3.2l1.6-1.2l2.4,3.2L457.5,467.8z"/>
		<path d="M456.3,465l-0.6-1.9l3.8-1.2l0.6,1.9L456.3,465z M467.7,461.2l-0.6-1.9l3.8-1.2l0.6,1.9L467.7,461.2z M479.1,457.5
			l-0.6-1.9l3.8-1.2l0.6,1.9L479.1,457.5z M490.5,453.8l-0.6-1.9l3.8-1.2l0.6,1.9L490.5,453.8z M502,450.1l-0.6-1.9l3.8-1.2l0.6,1.9
			L502,450.1z M513.4,446.4l-0.6-1.9l3.8-1.2l0.6,1.9L513.4,446.4z M524.8,442.7l-0.6-1.9l3.8-1.2l0.6,1.9L524.8,442.7z M536.2,439
			l-0.6-1.9l3.8-1.2l0.6,1.9L536.2,439z M547.6,435.3l-0.6-1.9l3.8-1.2l0.6,1.9L547.6,435.3z M559,431.6l-0.6-1.9l3.8-1.2l0.6,1.9
			L559,431.6z M570.4,427.9l-0.6-1.9l3.8-1.2l0.6,1.9L570.4,427.9z M581.8,424.2l-0.6-1.9l3.8-1.2l0.6,1.9L581.8,424.2z
			 M593.3,420.5l-0.6-1.9l3.8-1.2l0.6,1.9L593.3,420.5z M604.7,416.7l-0.6-1.9l3.8-1.2l0.6,1.9L604.7,416.7z M616.1,413l-0.6-1.9
			l3.8-1.2l0.6,1.9L616.1,413z"/>
	</g>
</g>
<g>
	<g>
		<path d="M765.7,706l-1.3-1l2.1-2.8l-9.9-7.6l-2.1,2.8l-1.3-1l5.4-7.1l1.3,1l-2.1,2.8l9.9,7.6l2.1-2.8l1.3,1L765.7,706z"/>
		<path d="M779.9,686.7l-14-2.1l10.4,7.3l-1.1,1.6l-12.9-9l1.4-2l14,2.1l-10.4-7.3l1.1-1.6l12.9,9L779.9,686.7z"/>
		<path d="M788.1,674.2l-1.3,2l-15.9-4.4l1.1-1.8l13.5,3.9l-9.2-10.6l1.1-1.8L788.1,674.2z"/>
		<path d="M797,656.7c0.4,1.5,0.2,3-0.6,4.4c-0.8,1.4-2,2.3-3.5,2.7c-2.3,0.6-4.4-0.3-6.5-1.6c-2.2-1.3-4-2.6-4.6-4.9
			c-0.4-1.5-0.2-3,0.6-4.4c0.8-1.4,2-2.3,3.5-2.7c2.3-0.6,4.4,0.3,6.5,1.6C794.5,653.1,796.4,654.4,797,656.7z M786.3,652.1
			c-1.1,0.3-1.9,0.8-2.4,1.8c-0.5,0.9-0.6,1.9-0.3,3c0.5,1.8,2.4,2.8,3.8,3.6c1.4,0.8,3.2,1.9,5,1.5c1-0.3,1.9-0.8,2.4-1.8
			s0.6-1.9,0.3-3c-0.5-1.8-2.4-2.8-3.8-3.6S788.1,651.7,786.3,652.1z"/>
		<path d="M802.2,650.3l-1.5-0.8l1.6-3.1l-11-5.8l-1.6,3.1l-1.4-0.8l4.2-7.9l1.4,0.8l-1.6,3.1l11,5.8l1.6-3.1l1.5,0.8L802.2,650.3z"
			/>
		<path d="M812.1,631.2c-0.7,1.4-1.8,2.4-3.3,3c-2.3,0.9-4.6,0-6.7-1c-2.1-1-4.2-2.2-5-4.5c-0.5-1.5-0.5-3,0.2-4.4
			c1.3-2.8,4.3-4.1,7.1-2.9l-0.9,1.9c-0.8-0.3-1.7-0.3-2.4-0.1c-0.9,0.3-1.7,0.9-2.2,1.9c-0.5,1-0.4,1.9-0.1,2.9
			c0.7,1.7,2.5,2.6,4.1,3.3s3.4,1.6,5.2,1c1-0.3,1.8-0.9,2.2-1.9c0.9-1.8,0.2-3.8-1.6-4.8l0.9-1.8
			C812.4,625.2,813.4,628.4,812.1,631.2z"/>
		<path d="M816.7,620.3l-14.5-6.1l4-9.6l1.7,0.7l-3.3,7.8l4.4,1.9l2.5-5.9l1.7,0.7l-2.5,5.9l5,2.1l3.3-7.8l1.7,0.7L816.7,620.3z"/>
		<path d="M825,595.8c0.6,1.4,0.5,3.1-0.1,4.7c-0.7,1.8-1.7,3-2.9,3.7c-1.2,0.6-2.7,0.7-4.1,0.2l0.7-1.9c0.9,0.3,1.9,0.2,2.7-0.2
			c0.9-0.4,1.5-1.4,1.9-2.4c0.4-1.1,0.5-2.1,0.1-3c-0.2-0.6-0.7-1.1-1.5-1.4c-1.1-0.4-2.4-0.1-3.3,1.6c-0.4,0.8-0.8,1.4-1.2,2.1
			c-1.1,2.1-3,3.3-5.4,2.4c-1.1-0.4-2-1.3-2.5-2.3c-0.6-1.4-0.6-2.8,0-4.3c0.5-1.4,1.5-2.6,2.8-3.3c1.2-0.6,2.4-0.6,3.7-0.2
			l-0.7,1.9c-0.7-0.2-1.4-0.2-2.1,0c-0.9,0.3-1.6,1-2,2.2c-0.4,1.1-0.4,2,0.1,2.9c0.3,0.5,0.7,0.9,1.4,1.1c1.3,0.5,2.3-0.3,2.9-1.4
			c0.4-0.8,0.8-1.5,1.3-2.3c1.3-2.3,3.4-3.4,5.7-2.5C823.9,594,824.6,594.8,825,595.8z"/>
	</g>
</g>
<g>
	<circle fill="#FFFFFF" cx="456" cy="464" r="88"/>
	<path fill="#FFFFFF" d="M456,553c-49.1,0-89-39.9-89-89c0-49.1,39.9-89,89-89c49.1,0,89,39.9,89,89C545,513.1,505.1,553,456,553z
		 M456,377c-48,0-87,39-87,87c0,48,39,87,87,87c48,0,87-39,87-87C543,416,504,377,456,377z"/>
</g>
<rect x="392" y="400" fill="#FFFFFF" width="128" height="128"/>
<path d="M405.2,487.7c-3.4-7.2-5.2-15.2-5.2-23.7c0-30.9,25.1-56,56-56c17.2,0,32.6,7.8,42.9,20l6.1-5.1c-11.7-14-29.3-22.9-49-22.9
	c-35.3,0-64,28.7-64,64c0,9.7,2.1,18.8,6,27.1L405.2,487.7z"/>
<path d="M456,502c-21,0-38-17-38-38s17-38,38-38c11.7,0,22.1,5.3,29.1,13.6l6.1-5.1c-8.4-10-21.1-16.4-35.2-16.4
	c-25.4,0-46,20.6-46,46s20.6,46,46,46V502z"/>
<path d="M469.8,475.6c-3.3,3.9-8.3,6.4-13.8,6.4c-9.9,0-18-8.1-18-18s8.1-18,18-18c5.5,0,10.5,2.5,13.8,6.4l6.9-5.8
	c-5-5.9-12.4-9.6-20.7-9.6c-14.9,0-27,12.1-27,27s12.1,27,27,27c7.6,0,14.5-3.2,19.4-8.2L469.8,475.6z"/>
<g>
	<g>
		<path fill="#2762FF" d="M416.4,170v5.1h6.8v1.9h-6.8v6.9h-2v-15.7h10.5v1.8H416.4z"/>
		<path fill="#2762FF" d="M433.7,184.2c-3.7,0-5.5-2.5-5.5-6v-10h2v10c0,2.4,1,4.1,3.6,4.1c2.6,0,3.5-1.8,3.5-4.1v-10h2v10
			C439.2,181.8,437.4,184.2,433.7,184.2z"/>
		<path fill="#2762FF" d="M451.5,184l-6.3-12.7V184h-1.9v-15.7h2.5l6.3,12.7v-12.7h1.9V184H451.5z"/>
		<path fill="#2762FF" d="M468.2,181.6c-0.9,1.4-2.6,2.4-5,2.4h-4.7v-15.7h4.7c2.5,0,4.2,1,5,2.4c0.9,1.4,1.1,3.3,1.1,5.4
			C469.3,178.2,469.1,180.2,468.2,181.6z M466.1,171.1c-0.6-0.6-1.6-1-2.9-1h-2.7v12.1h2.7c1.4,0,2.4-0.5,3-1.1c1-1.1,1.1-3,1.1-5
			C467.2,174,467.1,172.2,466.1,171.1z"/>
		<path fill="#2762FF" d="M473.6,184v-15.7h10.4v1.8h-8.4v4.8h6.4v1.9h-6.4v5.4h8.4v1.8H473.6z"/>
		<path fill="#2762FF" d="M496.8,184l-3-6.5h-3.6v6.5h-2v-15.7h5.4c1.8,0,3.1,0.5,4,1.4c0.8,0.8,1.2,1.8,1.2,3.2
			c0,1.4-0.4,2.3-1.2,3.1c-0.5,0.5-1.1,0.9-1.9,1.1l3.2,6.9H496.8z M493.7,170h-3.4v5.5h3.4c1.9,0,3.2-0.8,3.2-2.8
			S495.6,170,493.7,170z"/>
	</g>
</g>
<g>
	<g>
		<path d="M91.9,591.1c-1.1-0.5-2-1.8-2.6-3.4l-1.2-3.5l-5.8,1.9l-0.6-1.9l14.9-5l1.8,5.4c0.6,1.7,0.5,3.4-0.1,4.5
			c-0.5,1-1.4,1.8-2.7,2.2C94.2,591.7,93,591.6,91.9,591.1z M96.7,585.1l-1.2-3.5l-5.7,1.9l1.2,3.5c0.7,2,2,2.9,4,2.2
			C96.9,588.7,97.3,587,96.7,585.1z"/>
		<path d="M90.3,608.2l5-5.1l-1.3-3.4l-6.1,2.3l-0.7-1.8l14.7-5.6l1.9,5c0.7,1.7,0.6,3.1,0.1,4.2c-0.5,1-1.3,1.8-2.5,2.3
			c-1.3,0.5-2.3,0.4-3.3,0c-0.6-0.3-1.2-0.7-1.7-1.4l-5.3,5.4L90.3,608.2z M102.1,600.2l-1.2-3.2l-5.2,2l1.2,3.2
			c0.7,1.7,1.8,2.7,3.7,2C102.6,603.5,102.8,602,102.1,600.2z"/>
		<path d="M98.2,623.5c-1.5-0.6-2.6-1.6-3.2-3.1c-0.6-1.4-0.6-3-0.1-4.4c0.8-2.2,2.9-3.3,5.2-4.3s4.5-1.7,6.7-0.8
			c1.5,0.6,2.6,1.6,3.2,3.1c0.6,1.4,0.6,3,0.1,4.4c-0.8,2.2-2.9,3.3-5.2,4.3S100.4,624.4,98.2,623.5z M108.2,617.6c0.4-1,0.4-2,0-3
			c-0.4-1-1.2-1.6-2.2-2c-1.7-0.7-3.7,0.2-5.2,0.9c-1.5,0.7-3.5,1.5-4.2,3.2c-0.4,1-0.4,2,0,3c0.4,1,1.2,1.6,2.2,2
			c1.7,0.7,3.7-0.2,5.2-0.9C105.6,620.1,107.5,619.3,108.2,617.6z"/>
		<path d="M106.5,638.7c-1.7-0.2-3.3-1.3-4.3-3.5l-2-4.2l14.2-6.9l2,4.2c1.1,2.2,0.9,4.2,0,5.6c-0.9,1.4-2.5,2.4-4.4,3.3
			S108.2,638.9,106.5,638.7z M115,632.2c0.3-0.8,0.3-1.9-0.3-3.1l-1.2-2.4l-10.9,5.3l1.2,2.4c0.6,1.3,1.5,1.9,2.3,2.2
			c1.5,0.4,3.2-0.3,5-1.2C112.9,634.6,114.5,633.7,115,632.2z"/>
		<path d="M109.7,650.6c-1.8-3.2-0.4-6,2.7-7.7l8.8-4.8l0.9,1.7l-8.8,4.8c-2.1,1.1-3.2,2.8-1.9,5.1c1.2,2.3,3.2,2.3,5.3,1.1l8.8-4.8
			l0.9,1.7l-8.8,4.8C114.5,654.3,111.5,653.8,109.7,650.6z"/>
		<path d="M118.2,665.6c-0.8-1.4-1-2.8-0.6-4.4c0.6-2.4,2.6-3.8,4.6-5c2-1.2,4.2-2.3,6.6-1.7c1.5,0.4,2.7,1.3,3.5,2.6
			c1.6,2.6,1,5.8-1.6,7.5l-1.1-1.8c0.7-0.5,1.3-1.2,1.4-1.9c0.3-0.9,0.2-1.9-0.4-2.9c-0.5-0.9-1.4-1.4-2.4-1.7
			c-1.8-0.4-3.6,0.6-5,1.5c-1.5,0.9-3.2,1.9-3.7,3.7c-0.3,1-0.2,2,0.3,2.9c1,1.7,3.1,2.3,4.8,1.3l1,1.8
			C123,669.2,119.8,668.2,118.2,665.6z"/>
		<path d="M139.3,672.5l-11.6,7.6l-1.1-1.7l11.6-7.6l-2.9-4.5l1.5-1l7,10.6l-1.5,1L139.3,672.5z"/>
		<path d="M140.2,695.9c-1.5-0.3-2.9-1.3-3.9-2.7c-1.1-1.6-1.6-3.1-1.4-4.5c0.2-1.4,0.9-2.7,2.1-3.5l1.2,1.7
			c-0.8,0.5-1.3,1.4-1.4,2.3c-0.1,1,0.3,2.1,0.9,3c0.7,1,1.5,1.6,2.4,1.8c0.6,0.1,1.3,0.1,2-0.4c1-0.7,1.4-1.9,0.5-3.6
			c-0.4-0.8-0.7-1.4-1.1-2.2c-1.1-2.1-1.1-4.3,1-5.8c1-0.7,2.2-0.9,3.3-0.7c1.5,0.3,2.7,1.1,3.6,2.4c0.9,1.2,1.4,2.7,1.2,4.1
			c-0.2,1.3-0.8,2.4-1.9,3.2l-1.2-1.7c0.6-0.5,1-1.1,1.1-1.7c0.2-0.9,0-1.9-0.7-2.9c-0.7-0.9-1.5-1.5-2.5-1.6
			c-0.6-0.1-1.1,0.1-1.7,0.5c-1.2,0.8-1,2.1-0.5,3.2c0.4,0.8,0.8,1.5,1.2,2.3c1.2,2.3,0.9,4.7-1.1,6.1
			C142.4,696,141.3,696.1,140.2,695.9z"/>
	</g>
</g>
<g>
	<circle fill="#FFFFFF" cx="606.5" cy="671.1" r="64"/>
	<g>
		
			<linearGradient id="SVGID_1_" gradientUnits="userSpaceOnUse" x1="-1558.473" y1="2046.5941" x2="-1630.473" y2="2046.5941" gradientTransform="matrix(-1 0 0 -1 -952 2720)">
			<stop  offset="0" style="stop-color:#FFFFFF"/>
			<stop  offset="1" style="stop-color:#FCBA59"/>
		</linearGradient>
		<path fill="url(#SVGID_1_)" d="M654.5,721.4c13.3,0,24-10.7,24-24v-72h-48v72c0,13.3-10.7,24-24,24H654.5z"/>
		<g>
			<path fill="#FFFFFF" d="M606.5,713.4h48c8.8,0,16-7.2,16-16v0c0-8.8-7.2-16-16-16h-48c-8.8,0-16,7.2-16,16v0
				C590.5,706.2,597.7,713.4,606.5,713.4z"/>
			<path d="M654.5,714.4h-48c-9.4,0-17-7.6-17-17s7.6-17,17-17h48c9.4,0,17,7.6,17,17S663.8,714.4,654.5,714.4z M606.5,682.4
				c-8.3,0-15,6.7-15,15s6.7,15,15,15h48c8.3,0,15-6.7,15-15s-6.7-15-15-15H606.5z"/>
		</g>
		
			<linearGradient id="SVGID_2_" gradientUnits="userSpaceOnUse" x1="582.473" y1="1902.5941" x2="654.473" y2="1902.5941" gradientTransform="matrix(1 0 0 -1 0 2576)">
			<stop  offset="0" style="stop-color:#FFFFFF"/>
			<stop  offset="1" style="stop-color:#FCBA59"/>
		</linearGradient>
		<path fill="url(#SVGID_2_)" d="M606.5,721.4c-13.3,0-24-10.7-24-24v-48c0-13.3,10.7-24,24-24l0,0c13.3,0,24,10.7,24,24v48
			c0,13.3,10.7,24,24,24H606.5z"/>
		<g>
			<path fill="#FFFFFF" d="M558.5,665.4h48c8.8,0,16-7.2,16-16v0c0-8.8-7.2-16-16-16h-48c-8.8,0-16,7.2-16,16v0
				C542.5,658.2,549.7,665.4,558.5,665.4z"/>
			<path d="M606.5,666.4h-48c-9.4,0-17-7.6-17-17s7.6-17,17-17h48c9.4,0,17,7.6,17,17S615.8,666.4,606.5,666.4z M558.5,634.4
				c-8.3,0-15,6.7-15,15s6.7,15,15,15h48c8.3,0,15-6.7,15-15s-6.7-15-15-15H558.5z"/>
		</g>
		<linearGradient id="SVGID_3_" gradientUnits="userSpaceOnUse" x1="534.473" y1="673.4059" x2="606.473" y2="673.4059">
			<stop  offset="0" style="stop-color:#FFFFFF"/>
			<stop  offset="1" style="stop-color:#FCBA59"/>
		</linearGradient>
		<path fill="url(#SVGID_3_)" d="M558.5,625.4c-13.3,0-24,10.7-24,24v72h48v-72c0-13.3,10.7-24,24-24H558.5z"/>
		<circle cx="606.5" cy="649.4" r="16"/>
		<circle cx="654.5" cy="697.4" r="16"/>
		<g>
			<path fill="#FFFFFF" d="M606.5,657.4L606.5,657.4c-4.4,0-8-3.6-8-8v0c0-4.4,3.6-8,8-8l0,0c4.4,0,8,3.6,8,8v0
				C614.5,653.8,610.9,657.4,606.5,657.4z"/>
			<path d="M606.5,657.9c-4.7,0-8.5-3.8-8.5-8.5s3.8-8.5,8.5-8.5s8.5,3.8,8.5,8.5S611.2,657.9,606.5,657.9z M606.5,641.9
				c-4.1,0-7.5,3.4-7.5,7.5s3.4,7.5,7.5,7.5s7.5-3.4,7.5-7.5S610.6,641.9,606.5,641.9z"/>
		</g>
		<g>
			<path fill="#FFFFFF" d="M654.5,705.4L654.5,705.4c-4.4,0-8-3.6-8-8v0c0-4.4,3.6-8,8-8l0,0c4.4,0,8,3.6,8,8v0
				C662.5,701.8,658.9,705.4,654.5,705.4z"/>
			<path d="M654.5,705.9c-4.7,0-8.5-3.8-8.5-8.5s3.8-8.5,8.5-8.5s8.5,3.8,8.5,8.5S659.2,705.9,654.5,705.9z M654.5,689.9
				c-4.1,0-7.5,3.4-7.5,7.5s3.4,7.5,7.5,7.5s7.5-3.4,7.5-7.5S658.6,689.9,654.5,689.9z"/>
		</g>
	</g>
</g>
<g>
	<circle fill="#FFFFFF" cx="212.9" cy="385.7" r="64"/>
	<path d="M277.9,420.7H157c-5,0-9.1-4.1-9.1-9.1v-17l130,16.2V420.7z M149.9,396.8v14.8c0,3.9,3.2,7.1,7.1,7.1h118.9v-6.1
		L149.9,396.8z"/>
	<g>
		<path fill="#FFFFFF" d="M148.9,403.7V384c0-2.3,2-4,4.2-3.6l18.8,3.1c14.4,2.4,28.3-6,33-19.8l0,0l49.2,16.4
			c13.6,4.5,22.8,17.3,22.8,31.6v0h-120C152.5,411.7,148.9,408.1,148.9,403.7z"/>
		<path d="M276.9,412.7h-120c-5,0-9-4-9-9V384c0-2.8,2.5-5.1,5.4-4.6l18.8,3.1c1.6,0.3,3.1,0.4,4.7,0.4c12.3,0,23.2-7.9,27.1-19.6
			l0.3-0.9l50.2,16.7c14,4.7,23.5,17.8,23.5,32.5v1L276.9,412.7z M152.6,381.3c-1.5,0-2.6,1.2-2.6,2.6v19.7c0,3.9,3.1,7,7,7h119
			c-0.4-13.5-9.2-25.3-22.1-29.6L205.5,365c-4.4,12-15.8,20-28.7,20c-1.7,0-3.4-0.1-5.1-0.4l-18.8-3.1
			C152.9,381.4,152.7,381.3,152.6,381.3z"/>
	</g>
	<path d="M252.9,412.7C252.9,412.7,252.9,412.7,252.9,412.7c-0.6,0-1-0.5-1-1l1.2-31.6c0-0.6,0.5-1,1-1c0.6,0,1,0.5,1,1l-1.2,31.6
		C253.9,412.3,253.5,412.7,252.9,412.7z"/>
	<g>
		<linearGradient id="SVGID_4_" gradientUnits="userSpaceOnUse" x1="198.929" y1="373.6919" x2="214.9304" y2="373.6919">
			<stop  offset="0" style="stop-color:#FFFFFF"/>
			<stop  offset="1" style="stop-color:#FCBA59"/>
		</linearGradient>
		<path fill="url(#SVGID_4_)" d="M202.9,385.7c-0.6,0-1.2-0.1-1.8-0.4c-2-1-2.8-3.4-1.8-5.4l8-16c1-2,3.4-2.8,5.4-1.8
			c2,1,2.8,3.4,1.8,5.4l-8,16C205.8,384.9,204.4,385.7,202.9,385.7z"/>
		<linearGradient id="SVGID_5_" gradientUnits="userSpaceOnUse" x1="208.5286" y1="376.8918" x2="224.53" y2="376.8918">
			<stop  offset="0" style="stop-color:#FFFFFF"/>
			<stop  offset="1" style="stop-color:#FCBA59"/>
		</linearGradient>
		<path fill="url(#SVGID_5_)" d="M212.5,388.9c-0.6,0-1.2-0.1-1.8-0.4c-2-1-2.8-3.4-1.8-5.4l8-16c1-2,3.4-2.8,5.4-1.8
			c2,1,2.8,3.4,1.8,5.4l-8,16C215.4,388.1,214,388.9,212.5,388.9z"/>
		<linearGradient id="SVGID_6_" gradientUnits="userSpaceOnUse" x1="218.1287" y1="380.0921" x2="234.1301" y2="380.0921">
			<stop  offset="0" style="stop-color:#FFFFFF"/>
			<stop  offset="1" style="stop-color:#FCBA59"/>
		</linearGradient>
		<path fill="url(#SVGID_6_)" d="M222.1,392.1c-0.6,0-1.2-0.1-1.8-0.4c-2-1-2.8-3.4-1.8-5.4l8-16c1-2,3.4-2.8,5.4-1.8
			c2,1,2.8,3.4,1.8,5.4l-8,16C225,391.3,223.6,392.1,222.1,392.1z"/>
		<linearGradient id="SVGID_7_" gradientUnits="userSpaceOnUse" x1="227.7288" y1="383.2917" x2="243.7302" y2="383.2917">
			<stop  offset="0" style="stop-color:#FFFFFF"/>
			<stop  offset="1" style="stop-color:#FCBA59"/>
		</linearGradient>
		<path fill="url(#SVGID_7_)" d="M231.7,395.3c-0.6,0-1.2-0.1-1.8-0.4c-2-1-2.8-3.4-1.8-5.4l8-16c1-2,3.4-2.8,5.4-1.8
			c2,1,2.8,3.4,1.8,5.4l-8,16C234.6,394.5,233.2,395.3,231.7,395.3z"/>
		<linearGradient id="SVGID_8_" gradientUnits="userSpaceOnUse" x1="237.3289" y1="386.492" x2="253.3303" y2="386.492">
			<stop  offset="0" style="stop-color:#FFFFFF"/>
			<stop  offset="1" style="stop-color:#FCBA59"/>
		</linearGradient>
		<path fill="url(#SVGID_8_)" d="M241.3,398.5c-0.6,0-1.2-0.1-1.8-0.4c-2-1-2.8-3.4-1.8-5.4l8-16c1-2,3.4-2.8,5.4-1.8
			c2,1,2.8,3.4,1.8,5.4l-8,16C244.2,397.7,242.8,398.5,241.3,398.5z"/>
	</g>
	<g>
		<path fill="#FFFFFF" d="M148.9,395.7h11.8c6.6,0,11.8-5.6,11.2-12.2l0,0"/>
		<path d="M160.7,396.7h-11.8c-0.6,0-1-0.4-1-1s0.4-1,1-1h11.8c2.9,0,5.6-1.2,7.5-3.3s2.9-4.9,2.7-7.8c0-0.6,0.4-1,0.9-1.1
			c0.6,0,1,0.4,1.1,0.9c0.3,3.4-0.9,6.8-3.2,9.3C167.4,395.3,164.1,396.7,160.7,396.7z"/>
	</g>
	<path d="M188.9,380.7c-0.6,0-1-0.4-1-1v-8c0-3.8,1.9-7.3,5.2-9.3c3.2-2,7.2-2.2,10.6-0.5l1.7,0.8c0.5,0.2,0.7,0.8,0.4,1.3
		c-0.2,0.5-0.8,0.7-1.3,0.4l-1.7-0.8c-2.8-1.4-6-1.2-8.6,0.4c-2.6,1.6-4.2,4.5-4.2,7.6v8C189.9,380.2,189.5,380.7,188.9,380.7z"/>
</g>
<g>
	<rect x="455" y="208" width="2" height="156.1"/>
	<g>
		<polygon points="448.6,358.4 456,361.6 463.4,358.4 456,376 		"/>
	</g>
</g>
<g>
	<g>
		<path fill="#2762FF" d="M172.2,486.7c-1.1,1.1-2.8,1.6-4.4,1.6c-1.9,0-3.4-0.5-4.5-1.5c-1-0.9-1.6-2.3-1.6-3.8h2.1
			c0,0.9,0.4,1.9,1.1,2.5c0.7,0.7,1.8,1,3,1c1.2,0,2.2-0.2,2.9-0.9c0.5-0.4,0.8-1,0.8-1.8c0-1.2-0.7-2.2-2.6-2.5
			c-0.9-0.1-1.6-0.2-2.4-0.4c-2.4-0.4-4.2-1.7-4.2-4.2c0-1.2,0.5-2.3,1.3-3.1c1.1-1,2.4-1.6,4.1-1.6c1.5,0,3,0.5,4,1.5
			c1,0.9,1.4,2.1,1.5,3.4h-2.1c0-0.8-0.3-1.4-0.8-1.9c-0.6-0.7-1.5-1.1-2.7-1.1c-1.1,0-2,0.3-2.7,1.1c-0.4,0.5-0.6,1-0.6,1.7
			c0,1.4,1.1,2.1,2.3,2.2c0.9,0.1,1.7,0.3,2.6,0.4c2.6,0.4,4.3,2,4.3,4.5C173.5,485,173,486,172.2,486.7z"/>
		<path fill="#2762FF" d="M185.5,488l-6.3-12.7V488h-1.9v-15.7h2.5L186,485v-12.7h1.9V488H185.5z"/>
		<path fill="#2762FF" d="M192.8,488v-15.7h10.4v1.8h-8.4v4.8h6.4v1.9h-6.4v5.4h8.4v1.8H192.8z"/>
		<path fill="#2762FF" d="M216.7,488l-1.3-4.1h-6.1L208,488h-2l5.2-15.7h2.4l5.2,15.7H216.7z M212.3,474.3l-2.4,7.8h5L212.3,474.3z"
			/>
		<path fill="#2762FF" d="M231.4,488l-4.6-7.9l-2.7,3v4.9h-2v-15.7h2v8.1l7.1-8.1h2.4l-5.5,6.2l5.5,9.5H231.4z"/>
		<path fill="#2762FF" d="M237.5,488v-15.7h10.4v1.8h-8.4v4.8h6.4v1.9h-6.4v5.4h8.4v1.8H237.5z"/>
		<path fill="#2762FF" d="M260.7,488l-3-6.5h-3.6v6.5h-2v-15.7h5.4c1.8,0,3.1,0.5,4,1.4c0.8,0.8,1.2,1.8,1.2,3.2
			c0,1.4-0.4,2.3-1.2,3.1c-0.5,0.5-1.1,0.9-1.9,1.1l3.2,6.9H260.7z M257.5,474.1h-3.4v5.5h3.4c1.9,0,3.2-0.8,3.2-2.8
			S259.4,474.1,257.5,474.1z"/>
	</g>
</g>
<g>
	<g>
		<path fill="#2762FF" d="M271.3,768v-15.7h2v13.9h8.1v1.8H271.3z"/>
		<path fill="#2762FF" d="M294.4,768l-1.3-4.1H287l-1.3,4.1h-2l5.2-15.7h2.4l5.2,15.7H294.4z M290.1,754.3l-2.4,7.8h5L290.1,754.3z"
			/>
		<path fill="#2762FF" d="M305.3,768.3c-1.6,0-3-0.6-4.1-1.7c-1.8-1.7-1.9-4.2-1.9-6.5s0.2-4.8,1.9-6.5c1.1-1.1,2.5-1.7,4.1-1.7
			c3,0,5.5,2.1,5.6,5.2h-2.1c0-0.9-0.4-1.7-0.9-2.2c-0.6-0.7-1.6-1.1-2.7-1.1c-1.1,0-1.9,0.4-2.7,1.2c-1.3,1.3-1.3,3.4-1.3,5.1
			s0,3.8,1.3,5.1c0.7,0.8,1.6,1.2,2.7,1.2c2,0,3.6-1.4,3.6-3.5h2C310.8,766,308.3,768.3,305.3,768.3z"/>
		<path fill="#2762FF" d="M315.2,768v-15.7h10.4v1.8h-8.4v4.8h6.4v1.9h-6.4v5.4h8.4v1.8H315.2z"/>
		<path fill="#2762FF" d="M339.2,766.7c-1.1,1.1-2.8,1.6-4.4,1.6c-1.9,0-3.4-0.5-4.5-1.5c-1-0.9-1.6-2.3-1.6-3.8h2.1
			c0,0.9,0.4,1.9,1.1,2.5c0.7,0.7,1.8,1,3,1c1.2,0,2.2-0.2,2.9-0.9c0.5-0.4,0.8-1,0.8-1.8c0-1.2-0.7-2.2-2.6-2.5
			c-0.9-0.1-1.6-0.2-2.4-0.4c-2.4-0.4-4.2-1.7-4.2-4.2c0-1.2,0.5-2.3,1.3-3.1c1.1-1,2.4-1.6,4.1-1.6c1.5,0,3,0.5,4,1.5
			c1,0.9,1.4,2.1,1.5,3.4h-2.1c0-0.8-0.3-1.4-0.8-1.9c-0.6-0.7-1.5-1.1-2.7-1.1c-1.1,0-2,0.3-2.7,1.1c-0.4,0.5-0.6,1-0.6,1.7
			c0,1.4,1.1,2.1,2.3,2.2c0.9,0.1,1.7,0.3,2.6,0.4c2.6,0.4,4.3,2,4.3,4.5C340.5,765,340,766,339.2,766.7z"/>
	</g>
</g>
<g>
	<g>
		<path fill="#2762FF" d="M566.3,754.1v5.1h6.8v1.9h-6.8v6.9h-2v-15.7h10.5v1.8H566.3z"/>
		<path fill="#2762FF" d="M588,768l-1.3-4.1h-6.1l-1.3,4.1h-2l5.2-15.7h2.4L590,768H588z M583.6,754.3l-2.4,7.8h5L583.6,754.3z"/>
		<path fill="#2762FF" d="M603.1,766.6c-0.9,1-2.4,1.4-4,1.4h-5.3v-15.7h5.3c1.5,0,2.9,0.4,3.8,1.4c0.6,0.6,1,1.6,1,2.7
			c0,1.5-0.8,3-2.3,3.5c1.6,0.5,2.6,2.1,2.6,3.8C604.3,764.9,603.8,765.9,603.1,766.6z M599.1,754h-3.2v5h3.3c1.6,0,2.8-0.7,2.8-2.5
			C601.9,754.8,600.6,754,599.1,754z M599.2,760.7h-3.3v5.5h3.4c1.7,0,3.1-0.7,3.1-2.7C602.3,761.7,600.9,760.7,599.2,760.7z"/>
		<path fill="#2762FF" d="M617,768l-3-6.5h-3.6v6.5h-2v-15.7h5.4c1.8,0,3.1,0.5,4,1.4c0.8,0.8,1.2,1.8,1.2,3.2
			c0,1.4-0.4,2.3-1.2,3.1c-0.5,0.5-1.1,0.9-1.9,1.1l3.2,6.9H617z M613.9,754.1h-3.4v5.5h3.4c1.9,0,3.2-0.8,3.2-2.8
			S615.7,754.1,613.9,754.1z"/>
		<path fill="#2762FF" d="M623.7,768v-1.6h3.5v-12.5h-3.5v-1.6h9v1.6h-3.5v12.5h3.5v1.6H623.7z"/>
		<path fill="#2762FF" d="M643.4,768.3c-1.6,0-3-0.6-4.1-1.7c-1.8-1.7-1.9-4.2-1.9-6.5s0.2-4.8,1.9-6.5c1.1-1.1,2.5-1.7,4.1-1.7
			c3,0,5.5,2.1,5.6,5.2H647c0-0.9-0.4-1.7-0.9-2.2c-0.6-0.7-1.6-1.1-2.7-1.1c-1.1,0-1.9,0.4-2.7,1.2c-1.3,1.3-1.3,3.4-1.3,5.1
			s0,3.8,1.3,5.1c0.7,0.8,1.6,1.2,2.7,1.2c2,0,3.6-1.4,3.6-3.5h2C648.9,766,646.5,768.3,643.4,768.3z"/>
	</g>
</g>
<g>
	<circle fill="#FFFFFF" cx="305.5" cy="671.1" r="64"/>
	<path fill="#FCBA59" d="M265.5,627.4h-16c-1.1,0-2-0.9-2-2s0.9-2,2-2h16c1.1,0,2,0.9,2,2S266.6,627.4,265.5,627.4z"/>
	<linearGradient id="SVGID_9_" gradientUnits="userSpaceOnUse" x1="249.7288" y1="720.2261" x2="361.3251" y2="626.5856">
		<stop  offset="0" style="stop-color:#FFFFFF"/>
		<stop  offset="1" style="stop-color:#FCBA59"/>
	</linearGradient>
	<path fill="url(#SVGID_9_)" d="M345.5,725.4h-84c-8.8,0-16-7.2-16-16s7.2-16,16-16h88c4.4,0,8-3.6,8-8s-3.6-8-8-8h-88
		c-8.8,0-16-7.2-16-16s7.2-16,16-16h88c4.4,0,8-3.6,8-8s-3.6-8-8-8h-84c-2.2,0-4-1.8-4-4s1.8-4,4-4h84c8.8,0,16,7.2,16,16
		s-7.2,16-16,16h-88c-4.4,0-8,3.6-8,8s3.6,8,8,8h88c8.8,0,16,7.2,16,16s-7.2,16-16,16h-88c-4.4,0-8,3.6-8,8s3.6,8,8,8h84
		c2.2,0,4,1.8,4,4S347.7,725.4,345.5,725.4z"/>
	<path fill="#FCBA59" d="M361.5,723.4h-16c-1.1,0-2-0.9-2-2s0.9-2,2-2h16c1.1,0,2,0.9,2,2S362.6,723.4,361.5,723.4z"/>
</g>
<g>
	<g>
		<circle fill="#FFFFFF" cx="699.5" cy="384.9" r="64"/>
		<rect x="666.5" y="344.9" width="2" height="80"/>
		<linearGradient id="SVGID_10_" gradientUnits="userSpaceOnUse" x1="635.4705" y1="360.8916" x2="667.4705" y2="360.8916">
			<stop  offset="0" style="stop-color:#FCBA59"/>
			<stop  offset="1" style="stop-color:#FFFFFF"/>
		</linearGradient>
		<circle fill="url(#SVGID_10_)" cx="651.5" cy="360.9" r="16"/>
		<linearGradient id="SVGID_11_" gradientUnits="userSpaceOnUse" x1="651.4705" y1="344.8916" x2="683.4705" y2="344.8916">
			<stop  offset="0" style="stop-color:#FCBA59"/>
			<stop  offset="1" style="stop-color:#FFFFFF"/>
		</linearGradient>
		<circle fill="url(#SVGID_11_)" cx="667.5" cy="344.9" r="16"/>
		<linearGradient id="SVGID_12_" gradientUnits="userSpaceOnUse" x1="667.4705" y1="360.8916" x2="699.4705" y2="360.8916">
			<stop  offset="0" style="stop-color:#FCBA59"/>
			<stop  offset="1" style="stop-color:#FFFFFF"/>
		</linearGradient>
		<circle fill="url(#SVGID_12_)" cx="683.5" cy="360.9" r="16"/>
		<path d="M667.5,401.9h-1v-1c0-9.4,7.6-17,17-17h1v1C684.5,394.3,676.8,401.9,667.5,401.9z M682.4,385.9
			c-7.4,0.5-13.4,6.5-13.9,13.9C676,399.3,681.9,393.4,682.4,385.9z"/>
		<rect x="730.5" y="360.9" width="2" height="80"/>
		<linearGradient id="SVGID_13_" gradientUnits="userSpaceOnUse" x1="699.4705" y1="376.8916" x2="731.4705" y2="376.8916">
			<stop  offset="0" style="stop-color:#FCBA59"/>
			<stop  offset="1" style="stop-color:#FFFFFF"/>
		</linearGradient>
		<circle fill="url(#SVGID_13_)" cx="715.5" cy="376.9" r="16"/>
		<linearGradient id="SVGID_14_" gradientUnits="userSpaceOnUse" x1="715.4705" y1="360.8916" x2="747.4705" y2="360.8916">
			<stop  offset="0" style="stop-color:#FCBA59"/>
			<stop  offset="1" style="stop-color:#FFFFFF"/>
		</linearGradient>
		<circle fill="url(#SVGID_14_)" cx="731.5" cy="360.9" r="16"/>
		<linearGradient id="SVGID_15_" gradientUnits="userSpaceOnUse" x1="731.4705" y1="376.8916" x2="763.4705" y2="376.8916">
			<stop  offset="0" style="stop-color:#FCBA59"/>
			<stop  offset="1" style="stop-color:#FFFFFF"/>
		</linearGradient>
		<circle fill="url(#SVGID_15_)" cx="747.5" cy="376.9" r="16"/>
		<path d="M731.5,417.9h-1v-1c0-9.4,7.6-17,17-17h1v1C748.5,410.3,740.8,417.9,731.5,417.9z M746.4,401.9
			c-7.4,0.5-13.4,6.5-13.9,13.9C740,415.3,745.9,409.4,746.4,401.9z"/>
	</g>
	<g>
		<g>
			<path fill="#2762FF" d="M662.6,481.2c-1.6,0-3-0.6-4.1-1.7c-1.8-1.7-1.9-4.2-1.9-6.5s0.2-4.8,1.9-6.5c1.1-1.1,2.5-1.7,4.1-1.7
				c3,0,5.5,2.1,5.6,5.2h-2.1c0-0.9-0.4-1.7-0.9-2.2c-0.6-0.7-1.6-1.1-2.7-1.1c-1.1,0-1.9,0.4-2.7,1.2c-1.3,1.3-1.3,3.4-1.3,5.1
				s0,3.8,1.3,5.1c0.7,0.8,1.6,1.2,2.7,1.2c2,0,3.6-1.4,3.6-3.5h2C668.1,478.9,665.6,481.2,662.6,481.2z"/>
			<path fill="#2762FF" d="M681.3,479.5c-1.1,1.1-2.5,1.7-4.1,1.7s-3-0.6-4.1-1.7c-1.7-1.7-1.9-4-1.9-6.5s0.2-4.8,1.9-6.5
				c1.1-1.1,2.5-1.7,4.1-1.7s3,0.6,4.1,1.7c1.7,1.7,1.9,4,1.9,6.5S683,477.8,681.3,479.5z M679.9,467.9c-0.8-0.8-1.7-1.2-2.7-1.2
				c-1.1,0-2,0.4-2.7,1.2c-1.3,1.3-1.2,3.4-1.2,5.1s0,3.8,1.2,5.1c0.8,0.8,1.7,1.2,2.7,1.2c1.1,0,2-0.4,2.7-1.2
				c1.3-1.3,1.2-3.4,1.2-5.1S681.2,469.3,679.9,467.9z"/>
			<path fill="#2762FF" d="M693.1,467v13.9h-2V467h-5.4v-1.8h12.7v1.8H693.1z"/>
			<path fill="#2762FF" d="M707.9,467v13.9h-2V467h-5.4v-1.8h12.7v1.8H707.9z"/>
			<path fill="#2762FF" d="M725.9,479.5c-1.1,1.1-2.5,1.7-4.1,1.7s-3-0.6-4.1-1.7c-1.7-1.7-1.9-4-1.9-6.5s0.2-4.8,1.9-6.5
				c1.1-1.1,2.5-1.7,4.1-1.7s3,0.6,4.1,1.7c1.7,1.7,1.9,4,1.9,6.5S727.6,477.8,725.9,479.5z M724.5,467.9c-0.8-0.8-1.7-1.2-2.7-1.2
				c-1.1,0-2,0.4-2.7,1.2c-1.3,1.3-1.2,3.4-1.2,5.1s0,3.8,1.2,5.1c0.8,0.8,1.7,1.2,2.7,1.2c1.1,0,2-0.4,2.7-1.2
				c1.3-1.3,1.2-3.4,1.2-5.1S725.8,469.3,724.5,467.9z"/>
			<path fill="#2762FF" d="M739.6,480.9l-6.3-12.7v12.7h-1.9v-15.7h2.5l6.3,12.7v-12.7h1.9v15.7H739.6z"/>
		</g>
	</g>
</g>
<g>
	<polygon points="552,145 359,145 359,15 457,15 457,72 455,72 455,17 361,17 361,143 552,143 	"/>
	<rect x="376" y="31" width="64" height="2"/>
	<rect x="376" y="47" width="64" height="2"/>
	<rect x="376" y="63" width="64" height="2"/>
	<rect x="376" y="79" width="32" height="2"/>
	<polygon points="551.8,81 488,65 424.2,81 423.8,79 488,63 552.2,79 	"/>
	<g>
		<line fill="#FFFFFF" x1="440" y1="88" x2="440" y2="136"/>
		<rect x="439" y="88" width="2" height="48"/>
	</g>
	<g>
		<line fill="#FFFFFF" x1="456" y1="88" x2="456" y2="136"/>
		<rect x="455" y="88" width="2" height="48"/>
	</g>
	<g>
		<line fill="#FFFFFF" x1="472" y1="88" x2="472" y2="136"/>
		<rect x="471" y="88" width="2" height="48"/>
	</g>
	<g>
		<line fill="#FFFFFF" x1="488" y1="88" x2="488" y2="136"/>
		<rect x="487" y="88" width="2" height="48"/>
	</g>
	<g>
		<line fill="#FFFFFF" x1="504" y1="88" x2="504" y2="136"/>
		<rect x="503" y="88" width="2" height="48"/>
	</g>
	<g>
		<line fill="#FFFFFF" x1="520" y1="88" x2="520" y2="136"/>
		<rect x="519" y="88" width="2" height="48"/>
	</g>
	<g>
		<line fill="#FFFFFF" x1="536" y1="88" x2="536" y2="136"/>
		<rect x="535" y="88" width="2" height="48"/>
	</g>
	<path d="M408,121c-5,0-9-4-9-9s4-9,9-9s9,4,9,9S413,121,408,121z M408,105c-3.9,0-7,3.1-7,7s3.1,7,7,7s7-3.1,7-7S411.9,105,408,105
		z"/>
</g>
<g>
	<path d="M82.3,557C74.8,526.7,71,495.5,71,464c0-37,5.3-73.7,15.6-108.9l1.9,0.6C78.2,390.7,73,427.1,73,464
		c0,31.3,3.8,62.4,11.2,92.5L82.3,557z"/>
	<g>
		<polygon points="93,363 86.9,357.8 78.9,358.6 91.1,344 		"/>
	</g>
</g>
<g>
	<path d="M456,849c-112.5,0-219.1-49-292.4-134.5l1.5-1.3C238.1,798.2,344.1,847,456,847c56.2,0,110.3-11.9,160.9-35.3
		c48.9-22.7,91.7-54.8,127.3-95.5l1.5,1.3c-35.8,40.9-78.9,73.2-128,96C566.9,837,512.5,849,456,849z"/>
	<g>
		<polygon points="173.7,713.3 166,715.7 162.4,722.9 156.7,704.6 		"/>
	</g>
</g>
<g>
	<path d="M828.3,562.3l-1.9-0.5C834.8,530,839,497.1,839,464c0-40.9-6.4-81.2-19.1-119.7l1.9-0.6C834.5,382.4,841,422.9,841,464
		C841,497.3,836.7,530.4,828.3,562.3z"/>
	<g>
		<polygon points="821.7,554.6 828,559.6 836,558.6 824.2,573.5 		"/>
	</g>
</g>
<g>
	<g>
		<g>
			<path fill="#39B54A" d="M119.9,780.6l3.2-5.5l-6.1-6.8l-5.8,2.7l-2-2.2l22.7-10.1l2.4,2.7l-12.3,21.6L119.9,780.6z M130.7,761.9
				l-11.1,5.1l5,5.5L130.7,761.9z"/>
			<path fill="#39B54A" d="M131.5,793.3c-1.7-1.7-2.5-3.8-2.5-6.1c0-3.7,2.4-6.5,4.8-8.9c2.5-2.5,5.2-4.9,8.9-4.8
				c2.3,0,4.4,0.8,6.1,2.5c3.2,3.2,3.6,8.1,0.4,11.5l-2.2-2.2c0.9-1,1.4-2.3,1.4-3.3c0.1-1.4-0.5-2.9-1.6-4
				c-1.1-1.1-2.5-1.6-4.1-1.6c-2.8,0-4.9,2.2-6.8,4c-1.8,1.8-4,4-4,6.8c0,1.6,0.4,3,1.6,4.1c2.1,2.1,5.3,2.3,7.5,0.2l2.2,2.2
				C139.7,796.7,134.7,796.5,131.5,793.3z"/>
			<path fill="#39B54A" d="M148.4,809.3c-1.8-1.6-2.7-3.6-2.8-6c-0.2-3.7,2-6.6,4.4-9.2c2.3-2.6,5-5.1,8.7-5.3
				c2.3-0.1,4.5,0.6,6.2,2.2c3.4,3.1,4,7.9,1,11.5l-2.3-2.1c0.8-1,1.2-2.3,1.2-3.4c0-1.4-0.6-2.8-1.8-3.9c-1.2-1.1-2.6-1.4-4.2-1.3
				c-2.8,0.2-4.8,2.5-6.6,4.4c-1.7,1.9-3.8,4.2-3.7,7c0.1,1.6,0.6,2.9,1.8,4c2.2,2,5.4,2,7.5-0.2l2.3,2.1
				C156.8,812.3,151.8,812.4,148.4,809.3z"/>
			<path fill="#39B54A" d="M160.6,819.4l14.9-18.3l12.1,9.9l-1.7,2.1l-9.8-8l-4.5,5.6l7.4,6l-1.8,2.2l-7.4-6l-5.2,6.3l9.8,8
				l-1.7,2.1L160.6,819.4z"/>
			<path fill="#39B54A" d="M179.6,834.5l14-19l2.4,1.8l-12.4,16.8l9.8,7.2l-1.6,2.2L179.6,834.5z"/>
			<path fill="#39B54A" d="M197.6,847.5l13-19.7l13,8.6l-1.5,2.3l-10.6-7l-4,6l8,5.3l-1.5,2.3l-8-5.3l-4.5,6.8l10.6,7l-1.5,2.3
				L197.6,847.5z"/>
			<path fill="#39B54A" d="M227.9,866.4l1.1-10.7l-4.6-2.7l-5,8.5l-2.6-1.5l12-20.3l7,4.1c2.4,1.4,3.7,3,4.1,4.9
				c0.4,1.6,0.2,3.3-0.8,5.1c-1,1.8-2.3,2.6-3.9,3.1c-1,0.3-2.1,0.3-3.3,0l-1.2,11.4L227.9,866.4z M234.4,846l-4.4-2.6l-4.2,7.1
				l4.4,2.6c2.4,1.4,4.7,1.5,6.2-1.1C238,849.5,236.8,847.5,234.4,846z"/>
			<path fill="#39B54A" d="M249.3,878l1.1-6.3l-8.1-4.2l-4.5,4.5l-2.7-1.4l17.8-17.3l3.2,1.7l-4,24.5L249.3,878z M253,856.7
				l-8.7,8.7l6.6,3.4L253,856.7z"/>
			<path fill="#39B54A" d="M274.4,866.9l-8.7,18.9l-2.8-1.3l8.7-18.9l-7.3-3.4l1.2-2.5l17.3,8l-1.2,2.5L274.4,866.9z"/>
			<path fill="#39B54A" d="M279.2,891.8l8.8-21.9l14.5,5.8l-1,2.5l-11.7-4.7l-2.7,6.7l8.9,3.5l-1,2.6l-8.9-3.5l-3,7.6l11.7,4.7
				l-1,2.5L279.2,891.8z"/>
			<path fill="#39B54A" d="M315.4,901.4c-2,1.6-4.8,2.1-8.3,0.9l-6.6-2.3l7.6-22.3l6.6,2.3c3.5,1.2,5.4,3.4,6,5.9
				c0.6,2.4-0.1,5.1-1.1,8.2C318.6,897.1,317.3,899.8,315.4,901.4z M317.5,885.4c-0.5-1.2-1.7-2.2-3.6-2.9l-3.8-1.3l-5.9,17.2
				l3.8,1.3c2,0.7,3.6,0.5,4.8-0.1c2-1.1,3-3.7,4-6.5C317.7,890.2,318.5,887.5,317.5,885.4z"/>
			<path fill="#39B54A" d="M362,906c-1.5,0.9-3.9,1.2-6.4,0.6l-5.4-1.3l-2.1,8.9l-2.9-0.7l5.3-23l8.3,1.9c2.7,0.6,4.7,2,5.6,3.6
				c0.8,1.5,1.1,3.2,0.7,5.2C364.6,903.5,363.5,905,362,906z M358.2,895.1l-5.3-1.2l-2,8.8l5.4,1.2c3.1,0.7,5.3-0.3,6-3.4
				C362.8,897.7,361,895.8,358.2,895.1z"/>
			<path fill="#39B54A" d="M381.4,921l-0.9-6.3l-9-1.6l-3,5.7l-3-0.5l11.8-21.9l3.5,0.6l3.5,24.6L381.4,921z M378.5,899.6l-5.7,10.9
				l7.3,1.3L378.5,899.6z"/>
			<path fill="#39B54A" d="M400.7,914l-1.2,9.5l-3-0.4l1.2-9.5l-6.3-14.9l3.3,0.4l4.9,12l7.7-10.4l3.1,0.4L400.7,914z"/>
			<path fill="#39B54A" d="M426.5,926.1l1.4-18.6l-4.9,11.1l-2.7-0.2l-3.2-11.7l-1.4,18.5l-2.9-0.2l1.8-23.5l3.7,0.3l3.7,13.5
				l5.6-12.8l3.6,0.3l-1.8,23.5L426.5,926.1z"/>
			<path fill="#39B54A" d="M437.3,926.7l0.6-23.6l15.6,0.4l-0.1,2.7l-12.7-0.3l-0.2,7.2l9.6,0.2l-0.1,2.8l-9.6-0.2l-0.2,8.2
				l12.7,0.3l-0.1,2.7L437.3,926.7z"/>
			<path fill="#39B54A" d="M471.8,926.8l-9.9-18.7l0.5,19l-2.9,0.1l-0.6-23.6l3.7-0.1l9.9,18.8l-0.5-19.1l2.9-0.1l0.6,23.6
				L471.8,926.8z"/>
			<path fill="#39B54A" d="M490.6,904.8l1.5,20.8l-3,0.2l-1.5-20.8l-8,0.6l-0.2-2.8l19-1.4l0.2,2.8L490.6,904.8z"/>
			<path fill="#39B54A" d="M520.2,920.7c-1.4,1.8-3.8,2.8-6.3,3.1c-2.8,0.4-5.1-0.1-6.9-1.4c-1.7-1.2-2.9-3.1-3.2-5.3l3.1-0.4
				c0.2,1.4,1,2.7,2.1,3.5c1.2,0.9,2.9,1.1,4.6,0.9c1.8-0.2,3.2-0.8,4.1-1.9c0.6-0.8,1-1.6,0.8-2.9c-0.2-1.8-1.5-3.2-4.3-3.3
				c-1.3,0-2.4-0.1-3.7-0.1c-3.6-0.1-6.5-1.7-7-5.4c-0.2-1.8,0.3-3.5,1.4-4.9c1.4-1.7,3.3-2.8,5.8-3.1c2.3-0.3,4.5,0.1,6.3,1.4
				c1.6,1.2,2.5,2.8,2.8,4.8l-3.1,0.4c-0.2-1.1-0.7-2.1-1.5-2.7c-1-0.9-2.5-1.4-4.3-1.1c-1.7,0.2-3,0.9-3.9,2.2
				c-0.5,0.8-0.7,1.6-0.6,2.6c0.3,2.1,2.1,2.9,3.8,2.9c1.3,0,2.6,0.1,3.9,0.1c4,0.1,6.8,2.1,7.3,5.8
				C521.8,917.8,521.2,919.4,520.2,920.7z"/>
			<path fill="#39B54A" d="M565.9,913.8l-3.3-5.5l-8.9,2.1l-0.5,6.4l-3,0.7l2.3-24.8l3.5-0.8l12.9,21.3L565.9,913.8z M554.9,895.2
				l-0.9,12.2l7.2-1.7L554.9,895.2z"/>
			<path fill="#39B54A" d="M577.8,889l5.7,20l-2.9,0.8l-5.7-20l-7.7,2.2l-0.8-2.7l18.3-5.2l0.8,2.7L577.8,889z"/>
			<path fill="#39B54A" d="M620.6,896.6l-8.8-21.9l2.8-1.1l7.7,19.4l11.3-4.5l1,2.6L620.6,896.6z"/>
			<path fill="#39B54A" d="M652.2,880.8c-0.8,2.2-2.4,3.9-4.5,4.9s-4.4,1-6.7,0.2c-3.4-1.2-5.1-4.2-6.6-7.6c-1.6-3.4-2.7-6.7-1.4-10
				c0.8-2.2,2.4-3.9,4.5-4.9c2.1-1,4.4-1,6.7-0.2c3.4,1.2,5.1,4.2,6.6,7.6C652.3,874.2,653.4,877.5,652.2,880.8z M643.1,865.9
				c-1.5-0.6-3-0.6-4.5,0.1c-1.5,0.7-2.4,1.8-3,3.3c-0.9,2.6,0.5,5.5,1.5,7.7c1,2.2,2.3,5.1,4.9,6.2c1.5,0.6,3,0.6,4.5-0.1
				c1.5-0.7,2.4-1.8,3-3.3c0.9-2.6-0.5-5.5-1.5-7.7C646.9,869.9,645.6,867,643.1,865.9z"/>
			<path fill="#39B54A" d="M675,871.6l-3.2,1.7l-9.5-9.7l2.6,13.3l-3.2,1.7l-12.4-20.2l2.5-1.3l10,16.5l-2.5-12.8l2.4-1.3l9.1,9.3
				l-7.9-17.6l2.5-1.3L675,871.6z"/>
			<path fill="#39B54A" d="M682.6,867.3l-12-20.3l13.5-7.9l1.4,2.4l-10.9,6.4l3.7,6.2l8.2-4.9l1.4,2.4l-8.2,4.9l4.1,7l10.9-6.4
				l1.4,2.4L682.6,867.3z"/>
			<path fill="#39B54A" d="M713,848.4l-9.1-5.7l-4.5,3l5.4,8.2l-2.5,1.6l-13-19.7l6.8-4.5c2.3-1.5,4.3-1.9,6.2-1.5
				c1.6,0.4,3.1,1.3,4.2,3s1.3,3.3,1.1,4.9c-0.2,1-0.7,2-1.4,2.9l9.7,6.1L713,848.4z M697.5,833.6l-4.3,2.8l4.6,6.9l4.3-2.8
				c2.3-1.5,3.4-3.6,1.7-6.1C702.2,831.9,699.9,832.1,697.5,833.6z"/>
			<path fill="#39B54A" d="M746.5,824c-1.8,1.5-4,2.1-6.3,1.9c-3.7-0.3-6.2-3-8.4-5.7c-2.2-2.7-4.3-5.7-3.9-9.4
				c0.3-2.3,1.3-4.3,3.1-5.8c3.5-2.9,8.4-2.7,11.5,0.7l-2.4,2c-0.9-1-2.1-1.6-3.2-1.7c-1.4-0.2-2.9,0.2-4.2,1.2
				c-1.2,1-1.8,2.3-2,3.9c-0.2,2.8,1.7,5.1,3.3,7.2s3.6,4.4,6.3,4.7c1.6,0.2,3-0.1,4.2-1.1c2.3-1.9,2.8-5.1,0.9-7.5l2.4-1.9
				C750.7,816.2,750,821.1,746.5,824z"/>
			<path fill="#39B54A" d="M766.6,803.1c-0.1,2.4-1.1,4.4-2.9,6c-1.8,1.6-3.9,2.3-6.3,2.2c-3.6-0.1-6.1-2.5-8.6-5.3
				c-2.5-2.8-4.6-5.5-4.4-9.1c0.1-2.4,1.1-4.4,2.9-6c1.8-1.6,3.9-2.3,6.3-2.2c3.6,0.1,6.1,2.5,8.6,5.3S766.9,799.5,766.6,803.1z
				 M753.5,791.6c-1.6-0.1-3.1,0.3-4.2,1.4c-1.2,1.1-1.8,2.5-1.8,4.1c-0.1,2.8,2.1,5.1,3.7,6.9s3.7,4.2,6.5,4.4
				c1.6,0.1,3.1-0.3,4.2-1.4c1.2-1.1,1.8-2.5,1.8-4.1c0.1-2.8-2.1-5.1-3.7-6.9S756.3,791.8,753.5,791.6z"/>
			<path fill="#39B54A" d="M783.7,786.7c0,2.3-1.3,4.6-3.1,6.4c-2,2-4.1,3.1-6.3,3.2c-2,0.1-4.2-0.7-5.7-2.3l2.2-2.2
				c1,1,2.4,1.5,3.8,1.5c1.5,0,3-0.9,4.1-2.1c1.3-1.3,2.1-2.6,2.1-4c0-1-0.2-1.9-1.1-2.8c-1.3-1.3-3.2-1.6-5.4,0.1
				c-1.1,0.8-1.9,1.4-3,2.2c-2.9,2.1-6.2,2.6-8.8,0c-1.2-1.2-1.9-3-1.9-4.7c0.1-2.2,0.9-4.2,2.7-6c1.6-1.6,3.7-2.7,5.8-2.7
				c2,0,3.7,0.7,5.2,2l-2.2,2.2c-0.9-0.8-1.8-1.2-2.8-1.2c-1.4-0.1-2.8,0.4-4.1,1.7c-1.2,1.2-1.8,2.5-1.7,4.1
				c0.1,0.9,0.4,1.7,1.2,2.4c1.5,1.5,3.4,1,4.8-0.1c1.1-0.8,2.1-1.5,3.1-2.3c3.2-2.4,6.7-2.5,9.3,0.1
				C783.3,783.5,783.8,785.1,783.7,786.7z"/>
			<path fill="#39B54A" d="M781.9,760.9l15.5,14l-2,2.2l-15.5-14l-5.4,6l-2-1.9l12.8-14.1l2,1.9L781.9,760.9z"/>
		</g>
	</g>
</g>
<g>
	<g>
		<circle fill="#FFFFFF" cx="198" cy="302" r="18"/>
		<g>
			<path d="M198,302"/>
			<path d="M186.8,307.2c-0.7-1.6-1.2-3.3-1.2-5.2c0-6.8,5.5-12.3,12.3-12.3c3.8,0,7.2,1.7,9.4,4.4l1.3-1.1c-2.6-3.1-6.5-5-10.8-5
				c-7.8,0-14.1,6.3-14.1,14.1c0,2.1,0.5,4.1,1.3,5.9L186.8,307.2z"/>
			<path d="M198,310.4c-4.6,0-8.4-3.7-8.4-8.4s3.7-8.4,8.4-8.4c2.6,0,4.9,1.2,6.4,3l1.3-1.1c-1.9-2.2-4.6-3.6-7.7-3.6
				c-5.6,0-10.1,4.5-10.1,10.1s4.5,10.1,10.1,10.1V310.4z"/>
			<path d="M201,304.5c-0.7,0.9-1.8,1.4-3,1.4c-2.2,0-4-1.8-4-4s1.8-4,4-4c1.2,0,2.3,0.5,3,1.4l1.5-1.3c-1.1-1.3-2.7-2.1-4.5-2.1
				c-3.3,0-5.9,2.7-5.9,5.9s2.7,5.9,5.9,5.9c1.7,0,3.2-0.7,4.3-1.8L201,304.5z"/>
		</g>
	</g>
	<g>
		<rect x="208" y="304" fill="#2762FF" width="24" height="6.5"/>
		<path fill="#FFFFFF" d="M222.2,308.4h-10.9c-0.6,0-1.1-0.5-1.1-1.1l0,0c0-0.6,0.5-1.1,1.1-1.1h10.9c0.6,0,1.1,0.5,1.1,1.1l0,0
			C223.3,307.9,222.8,308.4,222.2,308.4z"/>
		<rect x="227.6" y="306.2" fill="#FFFFFF" width="2.2" height="2.2"/>
		<rect x="208" y="312.7" fill="#2762FF" width="24" height="6.5"/>
		<path fill="#FFFFFF" d="M222.2,317.1h-10.9c-0.6,0-1.1-0.5-1.1-1.1l0,0c0-0.6,0.5-1.1,1.1-1.1h10.9c0.6,0,1.1,0.5,1.1,1.1l0,0
			C223.3,316.6,222.8,317.1,222.2,317.1z"/>
		<rect x="227.6" y="314.9" fill="#FFFFFF" width="2.2" height="2.2"/>
		<rect x="208" y="321.5" fill="#2762FF" width="24" height="6.5"/>
		<path fill="#FFFFFF" d="M222.2,325.8h-10.9c-0.6,0-1.1-0.5-1.1-1.1l0,0c0-0.6,0.5-1.1,1.1-1.1h10.9c0.6,0,1.1,0.5,1.1,1.1l0,0
			C223.3,325.3,222.8,325.8,222.2,325.8z"/>
		<rect x="227.6" y="323.6" fill="#FFFFFF" width="2.2" height="2.2"/>
	</g>
</g>
<g>
	<g>
		<circle fill="#FFFFFF" cx="510" cy="30" r="18"/>
		<g>
			<path d="M510,30"/>
			<path d="M498.8,35.2c-0.7-1.6-1.2-3.3-1.2-5.2c0-6.8,5.5-12.3,12.3-12.3c3.8,0,7.2,1.7,9.4,4.4l1.3-1.1c-2.6-3.1-6.5-5-10.8-5
				c-7.8,0-14.1,6.3-14.1,14.1c0,2.1,0.5,4.1,1.3,5.9L498.8,35.2z"/>
			<path d="M510,38.4c-4.6,0-8.4-3.7-8.4-8.4s3.7-8.4,8.4-8.4c2.6,0,4.9,1.2,6.4,3l1.3-1.1c-1.9-2.2-4.6-3.6-7.7-3.6
				c-5.6,0-10.1,4.5-10.1,10.1s4.5,10.1,10.1,10.1V38.4z"/>
			<path d="M513,32.5c-0.7,0.9-1.8,1.4-3,1.4c-2.2,0-4-1.8-4-4s1.8-4,4-4c1.2,0,2.3,0.5,3,1.4l1.5-1.3c-1.1-1.3-2.7-2.1-4.5-2.1
				c-3.3,0-5.9,2.7-5.9,5.9s2.7,5.9,5.9,5.9c1.7,0,3.2-0.7,4.3-1.8L513,32.5z"/>
		</g>
	</g>
	<g>
		<rect x="520" y="32" fill="#2762FF" width="24" height="6.5"/>
		<path fill="#FFFFFF" d="M534.2,36.4h-10.9c-0.6,0-1.1-0.5-1.1-1.1l0,0c0-0.6,0.5-1.1,1.1-1.1h10.9c0.6,0,1.1,0.5,1.1,1.1l0,0
			C535.3,35.9,534.8,36.4,534.2,36.4z"/>
		<rect x="539.6" y="34.2" fill="#FFFFFF" width="2.2" height="2.2"/>
		<rect x="520" y="40.7" fill="#2762FF" width="24" height="6.5"/>
		<path fill="#FFFFFF" d="M534.2,45.1h-10.9c-0.6,0-1.1-0.5-1.1-1.1l0,0c0-0.6,0.5-1.1,1.1-1.1h10.9c0.6,0,1.1,0.5,1.1,1.1l0,0
			C535.3,44.6,534.8,45.1,534.2,45.1z"/>
		<rect x="539.6" y="42.9" fill="#FFFFFF" width="2.2" height="2.2"/>
		<rect x="520" y="49.5" fill="#2762FF" width="24" height="6.5"/>
		<path fill="#FFFFFF" d="M534.2,53.8h-10.9c-0.6,0-1.1-0.5-1.1-1.1l0,0c0-0.6,0.5-1.1,1.1-1.1h10.9c0.6,0,1.1,0.5,1.1,1.1l0,0
			C535.3,53.3,534.8,53.8,534.2,53.8z"/>
		<rect x="539.6" y="51.6" fill="#FFFFFF" width="2.2" height="2.2"/>
	</g>
</g>
<g>
	<g>
		<circle fill="#FFFFFF" cx="286" cy="582" r="18"/>
		<g>
			<path d="M286,582"/>
			<path d="M274.8,587.2c-0.7-1.6-1.2-3.3-1.2-5.2c0-6.8,5.5-12.3,12.3-12.3c3.8,0,7.2,1.7,9.4,4.4l1.3-1.1c-2.6-3.1-6.5-5-10.8-5
				c-7.8,0-14.1,6.3-14.1,14.1c0,2.1,0.5,4.1,1.3,5.9L274.8,587.2z"/>
			<path d="M286,590.4c-4.6,0-8.4-3.7-8.4-8.4s3.7-8.4,8.4-8.4c2.6,0,4.9,1.2,6.4,3l1.3-1.1c-1.9-2.2-4.6-3.6-7.7-3.6
				c-5.6,0-10.1,4.5-10.1,10.1s4.5,10.1,10.1,10.1V590.4z"/>
			<path d="M289,584.5c-0.7,0.9-1.8,1.4-3,1.4c-2.2,0-4-1.8-4-4s1.8-4,4-4c1.2,0,2.3,0.5,3,1.4l1.5-1.3c-1.1-1.3-2.7-2.1-4.5-2.1
				c-3.3,0-5.9,2.7-5.9,5.9s2.7,5.9,5.9,5.9c1.7,0,3.2-0.7,4.3-1.8L289,584.5z"/>
		</g>
	</g>
	<g>
		<rect x="296" y="584" fill="#2762FF" width="24" height="6.5"/>
		<path fill="#FFFFFF" d="M310.2,588.4h-10.9c-0.6,0-1.1-0.5-1.1-1.1l0,0c0-0.6,0.5-1.1,1.1-1.1h10.9c0.6,0,1.1,0.5,1.1,1.1l0,0
			C311.3,587.9,310.8,588.4,310.2,588.4z"/>
		<rect x="315.6" y="586.2" fill="#FFFFFF" width="2.2" height="2.2"/>
		<rect x="296" y="592.7" fill="#2762FF" width="24" height="6.5"/>
		<path fill="#FFFFFF" d="M310.2,597.1h-10.9c-0.6,0-1.1-0.5-1.1-1.1l0,0c0-0.6,0.5-1.1,1.1-1.1h10.9c0.6,0,1.1,0.5,1.1,1.1l0,0
			C311.3,596.6,310.8,597.1,310.2,597.1z"/>
		<rect x="315.6" y="594.9" fill="#FFFFFF" width="2.2" height="2.2"/>
		<rect x="296" y="601.5" fill="#2762FF" width="24" height="6.5"/>
		<path fill="#FFFFFF" d="M310.2,605.8h-10.9c-0.6,0-1.1-0.5-1.1-1.1l0,0c0-0.6,0.5-1.1,1.1-1.1h10.9c0.6,0,1.1,0.5,1.1,1.1l0,0
			C311.3,605.3,310.8,605.8,310.2,605.8z"/>
		<rect x="315.6" y="603.6" fill="#FFFFFF" width="2.2" height="2.2"/>
	</g>
</g>
<g>
	<g>
		<circle fill="#FFFFFF" cx="590" cy="582" r="18"/>
		<g>
			<path d="M590,582"/>
			<path d="M578.8,587.2c-0.7-1.6-1.2-3.3-1.2-5.2c0-6.8,5.5-12.3,12.3-12.3c3.8,0,7.2,1.7,9.4,4.4l1.3-1.1c-2.6-3.1-6.5-5-10.8-5
				c-7.8,0-14.1,6.3-14.1,14.1c0,2.1,0.5,4.1,1.3,5.9L578.8,587.2z"/>
			<path d="M590,590.4c-4.6,0-8.4-3.7-8.4-8.4s3.7-8.4,8.4-8.4c2.6,0,4.9,1.2,6.4,3l1.3-1.1c-1.9-2.2-4.6-3.6-7.7-3.6
				c-5.6,0-10.1,4.5-10.1,10.1s4.5,10.1,10.1,10.1V590.4z"/>
			<path d="M593,584.5c-0.7,0.9-1.8,1.4-3,1.4c-2.2,0-4-1.8-4-4s1.8-4,4-4c1.2,0,2.3,0.5,3,1.4l1.5-1.3c-1.1-1.3-2.7-2.1-4.5-2.1
				c-3.3,0-5.9,2.7-5.9,5.9s2.7,5.9,5.9,5.9c1.7,0,3.2-0.7,4.3-1.8L593,584.5z"/>
		</g>
	</g>
	<g>
		<rect x="600" y="584" fill="#2762FF" width="24" height="6.5"/>
		<path fill="#FFFFFF" d="M614.2,588.4h-10.9c-0.6,0-1.1-0.5-1.1-1.1l0,0c0-0.6,0.5-1.1,1.1-1.1h10.9c0.6,0,1.1,0.5,1.1,1.1l0,0
			C615.3,587.9,614.8,588.4,614.2,588.4z"/>
		<rect x="619.6" y="586.2" fill="#FFFFFF" width="2.2" height="2.2"/>
		<rect x="600" y="592.7" fill="#2762FF" width="24" height="6.5"/>
		<path fill="#FFFFFF" d="M614.2,597.1h-10.9c-0.6,0-1.1-0.5-1.1-1.1l0,0c0-0.6,0.5-1.1,1.1-1.1h10.9c0.6,0,1.1,0.5,1.1,1.1l0,0
			C615.3,596.6,614.8,597.1,614.2,597.1z"/>
		<rect x="619.6" y="594.9" fill="#FFFFFF" width="2.2" height="2.2"/>
		<rect x="600" y="601.5" fill="#2762FF" width="24" height="6.5"/>
		<path fill="#FFFFFF" d="M614.2,605.8h-10.9c-0.6,0-1.1-0.5-1.1-1.1l0,0c0-0.6,0.5-1.1,1.1-1.1h10.9c0.6,0,1.1,0.5,1.1,1.1l0,0
			C615.3,605.3,614.8,605.8,614.2,605.8z"/>
		<rect x="619.6" y="603.6" fill="#FFFFFF" width="2.2" height="2.2"/>
	</g>
</g>
<g>
	<g>
		<circle fill="#FFFFFF" cx="686.7" cy="294" r="18"/>
		<g>
			<path d="M686.7,294"/>
			<path d="M675.6,299.2c-0.7-1.6-1.2-3.3-1.2-5.2c0-6.8,5.5-12.3,12.3-12.3c3.8,0,7.2,1.7,9.4,4.4l1.3-1.1c-2.6-3.1-6.5-5-10.8-5
				c-7.8,0-14.1,6.3-14.1,14.1c0,2.1,0.5,4.1,1.3,5.9L675.6,299.2z"/>
			<path d="M686.7,302.4c-4.6,0-8.4-3.7-8.4-8.4s3.7-8.4,8.4-8.4c2.6,0,4.9,1.2,6.4,3l1.3-1.1c-1.9-2.2-4.6-3.6-7.7-3.6
				c-5.6,0-10.1,4.5-10.1,10.1s4.5,10.1,10.1,10.1V302.4z"/>
			<path d="M689.8,296.5c-0.7,0.9-1.8,1.4-3,1.4c-2.2,0-4-1.8-4-4s1.8-4,4-4c1.2,0,2.3,0.5,3,1.4l1.5-1.3c-1.1-1.3-2.7-2.1-4.5-2.1
				c-3.3,0-5.9,2.7-5.9,5.9s2.7,5.9,5.9,5.9c1.7,0,3.2-0.7,4.3-1.8L689.8,296.5z"/>
		</g>
	</g>
	<g>
		<rect x="696.7" y="296" fill="#2762FF" width="24" height="6.5"/>
		<path fill="#FFFFFF" d="M710.9,300.4H700c-0.6,0-1.1-0.5-1.1-1.1l0,0c0-0.6,0.5-1.1,1.1-1.1h10.9c0.6,0,1.1,0.5,1.1,1.1l0,0
			C712,299.9,711.5,300.4,710.9,300.4z"/>
		<rect x="716.4" y="298.2" fill="#FFFFFF" width="2.2" height="2.2"/>
		<rect x="696.7" y="304.7" fill="#2762FF" width="24" height="6.5"/>
		<path fill="#FFFFFF" d="M710.9,309.1H700c-0.6,0-1.1-0.5-1.1-1.1l0,0c0-0.6,0.5-1.1,1.1-1.1h10.9c0.6,0,1.1,0.5,1.1,1.1l0,0
			C712,308.6,711.5,309.1,710.9,309.1z"/>
		<rect x="716.4" y="306.9" fill="#FFFFFF" width="2.2" height="2.2"/>
		<rect x="696.7" y="313.5" fill="#2762FF" width="24" height="6.5"/>
		<path fill="#FFFFFF" d="M710.9,317.8H700c-0.6,0-1.1-0.5-1.1-1.1l0,0c0-0.6,0.5-1.1,1.1-1.1h10.9c0.6,0,1.1,0.5,1.1,1.1l0,0
			C712,317.3,711.5,317.8,710.9,317.8z"/>
		<rect x="716.4" y="315.6" fill="#FFFFFF" width="2.2" height="2.2"/>
	</g>
</g>
</svg>
