<?xml version="1.0" encoding="utf-8"?>
<!-- Generator: Adobe Illustrator 18.0.0, SVG Export Plug-In . SVG Version: 6.00 Build 0)  -->
<!DOCTYPE svg PUBLIC "-//W3C//DTD SVG 1.1//EN" "http://www.w3.org/Graphics/SVG/1.1/DTD/svg11.dtd">
<svg version="1.1" xmlns="http://www.w3.org/2000/svg" xmlns:xlink="http://www.w3.org/1999/xlink" x="0px" y="0px"
	 viewBox="0 0 304 1118.5" enable-background="new 0 0 304 1118.5" xml:space="preserve">
<g id="Слой_1">
	<g>
		<g>
			<g>
				<circle fill="#FFFFFF" cx="153" cy="1016" r="64"/>
				<path d="M218,1051H97.1c-5,0-9.1-4.1-9.1-9.1v-17l130,16.2V1051z M90,1027.1v14.8c0,3.9,3.2,7.1,7.1,7.1H216v-6.1L90,1027.1z"/>
				<g>
					<path fill="#FFFFFF" d="M89,1033.9v-19.7c0-2.3,2-4,4.2-3.6l18.8,3.1c14.4,2.4,28.3-6,33-19.8h0l49.2,16.4
						c13.6,4.5,22.8,17.3,22.8,31.6l0,0H97C92.6,1042,89,1038.4,89,1033.9z"/>
					<path d="M217,1043H97c-5,0-9-4-9-9v-19.7c0-2.8,2.5-5.1,5.4-4.6l18.8,3.1c1.6,0.3,3.1,0.4,4.7,0.4c12.3,0,23.2-7.9,27.1-19.6
						l0.3-0.9l50.2,16.7c14,4.7,23.5,17.8,23.5,32.5v1L217,1043z M92.6,1011.6c-1.5,0-2.6,1.2-2.6,2.6v19.7c0,3.9,3.1,7,7,7h119
						c-0.4-13.5-9.2-25.3-22.1-29.6l-48.3-16.1c-4.4,12-15.8,20-28.7,20c-1.7,0-3.4-0.1-5.1-0.4l-18.8-3.1
						C92.9,1011.6,92.8,1011.6,92.6,1011.6z"/>
				</g>
				<path d="M193,1043C193,1043,193,1043,193,1043c-0.6,0-1-0.5-1-1l1.2-31.6c0-0.6,0.5-1,1-1c0.6,0,1,0.5,1,1L194,1042
					C194,1042.5,193.5,1043,193,1043z"/>
				<g>
					<linearGradient id="SVGID_1_" gradientUnits="userSpaceOnUse" x1="138.9993" y1="1003.9509" x2="155.0007" y2="1003.9509">
						<stop  offset="0" style="stop-color:#FFFFFF"/>
						<stop  offset="1" style="stop-color:#FCBA59"/>
					</linearGradient>
					<path fill="url(#SVGID_1_)" d="M143,1016c-0.6,0-1.2-0.1-1.8-0.4c-2-1-2.8-3.4-1.8-5.4l8-16c1-2,3.4-2.8,5.4-1.8
						c2,1,2.8,3.4,1.8,5.4l-8,16C145.9,1015.1,144.5,1016,143,1016z"/>
					<linearGradient id="SVGID_2_" gradientUnits="userSpaceOnUse" x1="148.5989" y1="1007.1508" x2="164.6003" y2="1007.1508">
						<stop  offset="0" style="stop-color:#FFFFFF"/>
						<stop  offset="1" style="stop-color:#FCBA59"/>
					</linearGradient>
					<path fill="url(#SVGID_2_)" d="M152.6,1019.2c-0.6,0-1.2-0.1-1.8-0.4c-2-1-2.8-3.4-1.8-5.4l8-16c1-2,3.4-2.8,5.4-1.8
						c2,1,2.8,3.4,1.8,5.4l-8,16C155.5,1018.3,154.1,1019.2,152.6,1019.2z"/>
					<linearGradient id="SVGID_3_" gradientUnits="userSpaceOnUse" x1="158.199" y1="1010.3511" x2="174.2004" y2="1010.3511">
						<stop  offset="0" style="stop-color:#FFFFFF"/>
						<stop  offset="1" style="stop-color:#FCBA59"/>
					</linearGradient>
					<path fill="url(#SVGID_3_)" d="M162.2,1022.4c-0.6,0-1.2-0.1-1.8-0.4c-2-1-2.8-3.4-1.8-5.4l8-16c1-2,3.4-2.8,5.4-1.8
						c2,1,2.8,3.4,1.8,5.4l-8,16C165.1,1021.5,163.7,1022.4,162.2,1022.4z"/>
					<linearGradient id="SVGID_4_" gradientUnits="userSpaceOnUse" x1="167.7991" y1="1013.5508" x2="183.8005" y2="1013.5508">
						<stop  offset="0" style="stop-color:#FFFFFF"/>
						<stop  offset="1" style="stop-color:#FCBA59"/>
					</linearGradient>
					<path fill="url(#SVGID_4_)" d="M171.8,1025.6c-0.6,0-1.2-0.1-1.8-0.4c-2-1-2.8-3.4-1.8-5.4l8-16c1-2,3.4-2.8,5.4-1.8
						c2,1,2.8,3.4,1.8,5.4l-8,16C174.7,1024.7,173.3,1025.6,171.8,1025.6z"/>
					<linearGradient id="SVGID_5_" gradientUnits="userSpaceOnUse" x1="177.3992" y1="1016.751" x2="193.4006" y2="1016.751">
						<stop  offset="0" style="stop-color:#FFFFFF"/>
						<stop  offset="1" style="stop-color:#FCBA59"/>
					</linearGradient>
					<path fill="url(#SVGID_5_)" d="M181.4,1028.8c-0.6,0-1.2-0.1-1.8-0.4c-2-1-2.8-3.4-1.8-5.4l8-16c1-2,3.4-2.8,5.4-1.8
						c2,1,2.8,3.4,1.8,5.4l-8,16C184.3,1027.9,182.9,1028.8,181.4,1028.8z"/>
				</g>
				<g>
					<path fill="#FFFFFF" d="M89,1026h11.8c6.6,0,11.8-5.6,11.2-12.2l0,0"/>
					<path d="M100.8,1027H89c-0.6,0-1-0.4-1-1s0.4-1,1-1h11.8c2.9,0,5.6-1.2,7.5-3.3s2.9-4.9,2.7-7.8c0-0.6,0.4-1,0.9-1.1
						c0.6,0,1,0.4,1.1,0.9c0.3,3.4-0.9,6.8-3.2,9.3C107.5,1025.5,104.2,1027,100.8,1027z"/>
				</g>
				<path d="M129,1011c-0.6,0-1-0.4-1-1v-8c0-3.8,1.9-7.3,5.2-9.3c3.2-2,7.2-2.2,10.6-0.5l1.7,0.8c0.5,0.2,0.7,0.8,0.4,1.3
					c-0.2,0.5-0.8,0.7-1.3,0.4l-1.7-0.8c-2.8-1.4-6-1.2-8.6,0.4c-2.6,1.6-4.2,4.5-4.2,7.6v8C130,1010.5,129.6,1011,129,1011z"/>
			</g>
			<g>
				<g>
					<path fill="#2762FF" d="M112.3,1117c-1.1,1.1-2.8,1.6-4.4,1.6c-1.9,0-3.4-0.5-4.5-1.5c-1-0.9-1.6-2.3-1.6-3.8h2.1
						c0,0.9,0.4,1.9,1.1,2.5c0.7,0.7,1.8,1,3,1c1.2,0,2.2-0.2,2.9-0.9c0.5-0.4,0.8-1,0.8-1.8c0-1.2-0.7-2.2-2.6-2.5
						c-0.9-0.1-1.6-0.2-2.4-0.4c-2.4-0.4-4.2-1.7-4.2-4.2c0-1.2,0.5-2.3,1.3-3.1c1.1-1,2.4-1.6,4.1-1.6c1.5,0,3,0.5,4,1.5
						c1,0.9,1.4,2.1,1.5,3.4h-2.1c0-0.8-0.3-1.4-0.8-1.9c-0.6-0.7-1.5-1.1-2.7-1.1c-1.1,0-2,0.3-2.7,1.1c-0.4,0.5-0.6,1-0.6,1.7
						c0,1.4,1.1,2.1,2.3,2.2c0.9,0.1,1.7,0.3,2.6,0.4c2.6,0.4,4.3,2,4.3,4.5C113.6,1115.2,113.1,1116.2,112.3,1117z"/>
					<path fill="#2762FF" d="M125.6,1118.3l-6.3-12.7v12.7h-1.9v-15.7h2.5l6.3,12.7v-12.7h1.9v15.7H125.6z"/>
					<path fill="#2762FF" d="M132.9,1118.3v-15.7h10.4v1.8h-8.4v4.8h6.4v1.9h-6.4v5.4h8.4v1.8H132.9z"/>
					<path fill="#2762FF" d="M156.8,1118.3l-1.3-4.1h-6.1l-1.3,4.1h-2l5.2-15.7h2.4l5.2,15.7H156.8z M152.4,1104.5l-2.4,7.8h5
						L152.4,1104.5z"/>
					<path fill="#2762FF" d="M171.5,1118.3l-4.6-7.9l-2.7,3v4.9h-2v-15.7h2v8.1l7.1-8.1h2.4l-5.5,6.2l5.5,9.5H171.5z"/>
					<path fill="#2762FF" d="M177.5,1118.3v-15.7h10.4v1.8h-8.4v4.8h6.4v1.9h-6.4v5.4h8.4v1.8H177.5z"/>
					<path fill="#2762FF" d="M200.7,1118.3l-3-6.5h-3.6v6.5h-2v-15.7h5.4c1.8,0,3.1,0.5,4,1.4c0.8,0.8,1.2,1.8,1.2,3.2
						c0,1.4-0.4,2.3-1.2,3.1c-0.5,0.5-1.1,0.9-1.9,1.1l3.2,6.9H200.7z M197.6,1104.3h-3.4v5.5h3.4c1.9,0,3.2-0.8,3.2-2.8
						S199.4,1104.3,197.6,1104.3z"/>
				</g>
			</g>
		</g>
		<g>
			<g>
				<circle fill="#FFFFFF" cx="152" cy="384" r="64"/>
				<g>
					
						<linearGradient id="SVGID_6_" gradientUnits="userSpaceOnUse" x1="-3952" y1="-586.2975" x2="-4024" y2="-586.2975" gradientTransform="matrix(-1 0 0 -1 -3800 -200)">
						<stop  offset="0" style="stop-color:#FFFFFF"/>
						<stop  offset="1" style="stop-color:#FCBA59"/>
					</linearGradient>
					<path fill="url(#SVGID_6_)" d="M200,434.3c13.3,0,24-10.7,24-24v-72h-48v72c0,13.3-10.7,24-24,24H200z"/>
					<g>
						<path fill="#FFFFFF" d="M152,426.3h48c8.8,0,16-7.2,16-16v0c0-8.8-7.2-16-16-16h-48c-8.8,0-16,7.2-16,16v0
							C136,419.1,143.2,426.3,152,426.3z"/>
						<path d="M200,427.3h-48c-9.4,0-17-7.6-17-17s7.6-17,17-17h48c9.4,0,17,7.6,17,17S209.4,427.3,200,427.3z M152,395.3
							c-8.3,0-15,6.7-15,15s6.7,15,15,15h48c8.3,0,15-6.7,15-15s-6.7-15-15-15H152z"/>
					</g>
					
						<linearGradient id="SVGID_7_" gradientUnits="userSpaceOnUse" x1="128" y1="-730.2975" x2="200" y2="-730.2975" gradientTransform="matrix(1 0 0 -1 0 -343.9999)">
						<stop  offset="0" style="stop-color:#FFFFFF"/>
						<stop  offset="1" style="stop-color:#FCBA59"/>
					</linearGradient>
					<path fill="url(#SVGID_7_)" d="M152,434.3c-13.3,0-24-10.7-24-24v-48c0-13.3,10.7-24,24-24h0c13.3,0,24,10.7,24,24v48
						c0,13.3,10.7,24,24,24H152z"/>
					<g>
						<path fill="#FFFFFF" d="M104,378.3h48c8.8,0,16-7.2,16-16v0c0-8.8-7.2-16-16-16h-48c-8.8,0-16,7.2-16,16v0
							C88,371.1,95.2,378.3,104,378.3z"/>
						<path d="M152,379.3h-48c-9.4,0-17-7.6-17-17s7.6-17,17-17h48c9.4,0,17,7.6,17,17S161.4,379.3,152,379.3z M104,347.3
							c-8.3,0-15,6.7-15,15s6.7,15,15,15h48c8.3,0,15-6.7,15-15s-6.7-15-15-15H104z"/>
					</g>
					<linearGradient id="SVGID_8_" gradientUnits="userSpaceOnUse" x1="80" y1="386.2975" x2="152" y2="386.2975">
						<stop  offset="0" style="stop-color:#FFFFFF"/>
						<stop  offset="1" style="stop-color:#FCBA59"/>
					</linearGradient>
					<path fill="url(#SVGID_8_)" d="M104,338.3c-13.3,0-24,10.7-24,24v72h48v-72c0-13.3,10.7-24,24-24H104z"/>
					<circle cx="152" cy="362.3" r="16"/>
					<circle cx="200" cy="410.3" r="16"/>
					<g>
						<path fill="#FFFFFF" d="M152,370.3L152,370.3c-4.4,0-8-3.6-8-8v0c0-4.4,3.6-8,8-8h0c4.4,0,8,3.6,8,8v0
							C160,366.7,156.4,370.3,152,370.3z"/>
						<path d="M152,370.8c-4.7,0-8.5-3.8-8.5-8.5s3.8-8.5,8.5-8.5s8.5,3.8,8.5,8.5S156.7,370.8,152,370.8z M152,354.8
							c-4.1,0-7.5,3.4-7.5,7.5s3.4,7.5,7.5,7.5s7.5-3.4,7.5-7.5S156.1,354.8,152,354.8z"/>
					</g>
					<g>
						<path fill="#FFFFFF" d="M200,418.3L200,418.3c-4.4,0-8-3.6-8-8v0c0-4.4,3.6-8,8-8h0c4.4,0,8,3.6,8,8v0
							C208,414.7,204.4,418.3,200,418.3z"/>
						<path d="M200,418.8c-4.7,0-8.5-3.8-8.5-8.5s3.8-8.5,8.5-8.5s8.5,3.8,8.5,8.5S204.7,418.8,200,418.8z M200,402.8
							c-4.1,0-7.5,3.4-7.5,7.5s3.4,7.5,7.5,7.5s7.5-3.4,7.5-7.5S204.1,402.8,200,402.8z"/>
					</g>
				</g>
			</g>
			<g>
				<g>
					<path fill="#2762FF" d="M111.8,467v5.1h6.8v1.9h-6.8v6.9h-2v-15.7h10.5v1.8H111.8z"/>
					<path fill="#2762FF" d="M133.5,480.9l-1.3-4.1h-6.1l-1.3,4.1h-2l5.2-15.7h2.4l5.2,15.7H133.5z M129.1,467.2l-2.4,7.8h5
						L129.1,467.2z"/>
					<path fill="#2762FF" d="M148.7,479.5c-0.9,1-2.4,1.4-4,1.4h-5.3v-15.7h5.3c1.5,0,2.9,0.4,3.8,1.4c0.6,0.6,1,1.6,1,2.7
						c0,1.5-0.8,3-2.3,3.5c1.6,0.5,2.6,2.1,2.6,3.8C149.8,477.8,149.4,478.8,148.7,479.5z M144.6,466.9h-3.2v5h3.3
						c1.6,0,2.8-0.7,2.8-2.5C147.4,467.7,146.1,466.9,144.6,466.9z M144.7,473.6h-3.3v5.5h3.4c1.7,0,3.1-0.7,3.1-2.7
						C147.8,474.6,146.5,473.6,144.7,473.6z"/>
					<path fill="#2762FF" d="M162.5,480.9l-3-6.5H156v6.5h-2v-15.7h5.4c1.8,0,3.1,0.5,4,1.4c0.8,0.8,1.2,1.8,1.2,3.2
						c0,1.4-0.4,2.3-1.2,3.1c-0.5,0.5-1.1,0.9-1.9,1.1l3.2,6.9H162.5z M159.4,467H156v5.5h3.4c1.9,0,3.2-0.8,3.2-2.8
						S161.3,467,159.4,467z"/>
					<path fill="#2762FF" d="M169.3,480.9v-1.6h3.5v-12.5h-3.5v-1.6h9v1.6h-3.5v12.5h3.5v1.6H169.3z"/>
					<path fill="#2762FF" d="M188.9,481.2c-1.6,0-3-0.6-4.1-1.7c-1.8-1.7-1.9-4.2-1.9-6.5s0.2-4.8,1.9-6.5c1.1-1.1,2.5-1.7,4.1-1.7
						c3,0,5.5,2.1,5.6,5.2h-2.1c0-0.9-0.4-1.7-0.9-2.2c-0.6-0.7-1.6-1.1-2.7-1.1c-1.1,0-1.9,0.4-2.7,1.2c-1.3,1.3-1.3,3.4-1.3,5.1
						s0,3.8,1.3,5.1c0.7,0.8,1.6,1.2,2.7,1.2c2,0,3.6-1.4,3.6-3.5h2C194.4,478.9,192,481.2,188.9,481.2z"/>
				</g>
			</g>
		</g>
		<g>
			<g>
				<g>
					<path fill="#2762FF" d="M117.8,800.9v-15.7h2V799h8.1v1.8H117.8z"/>
					<path fill="#2762FF" d="M140.9,800.9l-1.3-4.1h-6.1l-1.3,4.1h-2l5.2-15.7h2.4l5.2,15.7H140.9z M136.5,787.2l-2.4,7.8h5
						L136.5,787.2z"/>
					<path fill="#2762FF" d="M151.7,801.2c-1.6,0-3-0.6-4.1-1.7c-1.8-1.7-1.9-4.2-1.9-6.5s0.2-4.8,1.9-6.5c1.1-1.1,2.5-1.7,4.1-1.7
						c3,0,5.5,2.1,5.6,5.2h-2.1c0-0.9-0.4-1.7-0.9-2.2c-0.6-0.7-1.6-1.1-2.7-1.1c-1.1,0-1.9,0.4-2.7,1.2c-1.3,1.3-1.3,3.4-1.3,5.1
						s0,3.8,1.3,5.1c0.7,0.8,1.6,1.2,2.7,1.2c2,0,3.6-1.4,3.6-3.5h2C157.3,798.9,154.8,801.2,151.7,801.2z"/>
					<path fill="#2762FF" d="M161.7,800.9v-15.7h10.4v1.8h-8.4v4.8h6.4v1.9h-6.4v5.4h8.4v1.8H161.7z"/>
					<path fill="#2762FF" d="M185.7,799.6c-1.1,1.1-2.8,1.6-4.4,1.6c-1.9,0-3.4-0.5-4.5-1.5c-1-0.9-1.6-2.3-1.6-3.8h2.1
						c0,0.9,0.4,1.9,1.1,2.5c0.7,0.7,1.8,1,3,1c1.2,0,2.2-0.2,2.9-0.9c0.5-0.4,0.8-1,0.8-1.8c0-1.2-0.7-2.2-2.6-2.5
						c-0.9-0.1-1.6-0.2-2.4-0.4c-2.4-0.4-4.2-1.7-4.2-4.2c0-1.2,0.5-2.3,1.3-3.1c1.1-1,2.4-1.6,4.1-1.6c1.5,0,3,0.5,4,1.5
						c1,0.9,1.4,2.1,1.5,3.4h-2.1c0-0.8-0.3-1.4-0.8-1.9c-0.6-0.7-1.5-1.1-2.7-1.1c-1.1,0-2,0.3-2.7,1.1c-0.4,0.5-0.6,1-0.6,1.7
						c0,1.4,1.1,2.1,2.3,2.2c0.9,0.1,1.7,0.3,2.6,0.4c2.6,0.4,4.3,2,4.3,4.5C187,797.9,186.5,798.9,185.7,799.6z"/>
				</g>
			</g>
			<g>
				<circle fill="#FFFFFF" cx="152" cy="704" r="64"/>
				<path fill="#FCBA59" d="M112,660.3H96c-1.1,0-2-0.9-2-2s0.9-2,2-2h16c1.1,0,2,0.9,2,2S113.1,660.3,112,660.3z"/>
				<linearGradient id="SVGID_9_" gradientUnits="userSpaceOnUse" x1="96.2019" y1="753.1177" x2="207.7981" y2="659.4774">
					<stop  offset="0" style="stop-color:#FFFFFF"/>
					<stop  offset="1" style="stop-color:#FCBA59"/>
				</linearGradient>
				<path fill="url(#SVGID_9_)" d="M192,758.3h-84c-8.8,0-16-7.2-16-16s7.2-16,16-16h88c4.4,0,8-3.6,8-8s-3.6-8-8-8h-88
					c-8.8,0-16-7.2-16-16s7.2-16,16-16h88c4.4,0,8-3.6,8-8s-3.6-8-8-8h-84c-2.2,0-4-1.8-4-4s1.8-4,4-4h84c8.8,0,16,7.2,16,16
					s-7.2,16-16,16h-88c-4.4,0-8,3.6-8,8s3.6,8,8,8h88c8.8,0,16,7.2,16,16s-7.2,16-16,16h-88c-4.4,0-8,3.6-8,8s3.6,8,8,8h84
					c2.2,0,4,1.8,4,4S194.2,758.3,192,758.3z"/>
				<path fill="#FCBA59" d="M208,756.3h-16c-1.1,0-2-0.9-2-2s0.9-2,2-2h16c1.1,0,2,0.9,2,2S209.1,756.3,208,756.3z"/>
			</g>
		</g>
		<g>
			<g>
				<circle fill="#FFFFFF" cx="152" cy="64" r="64"/>
				<rect x="119" y="24" width="2" height="80"/>
				<linearGradient id="SVGID_10_" gradientUnits="userSpaceOnUse" x1="88" y1="40" x2="120" y2="40">
					<stop  offset="0" style="stop-color:#FCBA59"/>
					<stop  offset="1" style="stop-color:#FFFFFF"/>
				</linearGradient>
				<circle fill="url(#SVGID_10_)" cx="104" cy="40" r="16"/>
				<linearGradient id="SVGID_11_" gradientUnits="userSpaceOnUse" x1="104" y1="24" x2="136" y2="24">
					<stop  offset="0" style="stop-color:#FCBA59"/>
					<stop  offset="1" style="stop-color:#FFFFFF"/>
				</linearGradient>
				<circle fill="url(#SVGID_11_)" cx="120" cy="24" r="16"/>
				<linearGradient id="SVGID_12_" gradientUnits="userSpaceOnUse" x1="120" y1="40" x2="152" y2="40">
					<stop  offset="0" style="stop-color:#FCBA59"/>
					<stop  offset="1" style="stop-color:#FFFFFF"/>
				</linearGradient>
				<circle fill="url(#SVGID_12_)" cx="136" cy="40" r="16"/>
				<path d="M120,81h-1v-1c0-9.4,7.6-17,17-17h1v1C137,73.4,129.4,81,120,81z M135,65c-7.4,0.5-13.4,6.5-13.9,13.9
					C128.5,78.5,134.5,72.5,135,65z"/>
				<rect x="183" y="40" width="2" height="80"/>
				<linearGradient id="SVGID_13_" gradientUnits="userSpaceOnUse" x1="152" y1="56" x2="184" y2="56">
					<stop  offset="0" style="stop-color:#FCBA59"/>
					<stop  offset="1" style="stop-color:#FFFFFF"/>
				</linearGradient>
				<circle fill="url(#SVGID_13_)" cx="168" cy="56" r="16"/>
				<linearGradient id="SVGID_14_" gradientUnits="userSpaceOnUse" x1="168" y1="40" x2="200" y2="40">
					<stop  offset="0" style="stop-color:#FCBA59"/>
					<stop  offset="1" style="stop-color:#FFFFFF"/>
				</linearGradient>
				<circle fill="url(#SVGID_14_)" cx="184" cy="40" r="16"/>
				<linearGradient id="SVGID_15_" gradientUnits="userSpaceOnUse" x1="184" y1="56" x2="216" y2="56">
					<stop  offset="0" style="stop-color:#FCBA59"/>
					<stop  offset="1" style="stop-color:#FFFFFF"/>
				</linearGradient>
				<circle fill="url(#SVGID_15_)" cx="200" cy="56" r="16"/>
				<path d="M184,97h-1v-1c0-9.4,7.6-17,17-17h1v1C201,89.4,193.4,97,184,97z M199,81c-7.4,0.5-13.4,6.5-13.9,13.9
					C192.5,94.5,198.5,88.5,199,81z"/>
			</g>
			<g>
				<g>
					<path fill="#2762FF" d="M115.1,160.3c-1.6,0-3-0.6-4.1-1.7c-1.8-1.7-1.9-4.2-1.9-6.5s0.2-4.8,1.9-6.5c1.1-1.1,2.5-1.7,4.1-1.7
						c3,0,5.5,2.1,5.6,5.2h-2.1c0-0.9-0.4-1.7-0.9-2.2c-0.6-0.7-1.6-1.1-2.7-1.1c-1.1,0-1.9,0.4-2.7,1.2c-1.3,1.3-1.3,3.4-1.3,5.1
						s0,3.8,1.3,5.1c0.7,0.8,1.6,1.2,2.7,1.2c2,0,3.6-1.4,3.6-3.5h2C120.6,158,118.2,160.3,115.1,160.3z"/>
					<path fill="#2762FF" d="M133.8,158.6c-1.1,1.1-2.5,1.7-4.1,1.7s-3-0.6-4.1-1.7c-1.7-1.7-1.9-4-1.9-6.5s0.2-4.8,1.9-6.5
						c1.1-1.1,2.5-1.7,4.1-1.7s3,0.6,4.1,1.7c1.7,1.7,1.9,4,1.9,6.5S135.5,156.9,133.8,158.6z M132.4,147.1
						c-0.8-0.8-1.7-1.2-2.7-1.2c-1.1,0-2,0.4-2.7,1.2c-1.3,1.3-1.2,3.4-1.2,5.1s0,3.8,1.2,5.1c0.8,0.8,1.7,1.2,2.7,1.2
						c1.1,0,2-0.4,2.7-1.2c1.3-1.3,1.2-3.4,1.2-5.1S133.7,148.4,132.4,147.1z"/>
					<path fill="#2762FF" d="M145.6,146.1V160h-2v-13.9h-5.4v-1.8h12.7v1.8H145.6z"/>
					<path fill="#2762FF" d="M160.5,146.1V160h-2v-13.9h-5.3v-1.8h12.7v1.8H160.5z"/>
					<path fill="#2762FF" d="M178.4,158.6c-1.1,1.1-2.5,1.7-4.1,1.7c-1.6,0-3-0.6-4.1-1.7c-1.7-1.7-1.9-4-1.9-6.5s0.2-4.8,1.9-6.5
						c1.1-1.1,2.5-1.7,4.1-1.7c1.6,0,3,0.6,4.1,1.7c1.7,1.7,1.9,4,1.9,6.5S180.1,156.9,178.4,158.6z M177,147.1
						c-0.8-0.8-1.7-1.2-2.7-1.2c-1.1,0-2,0.4-2.7,1.2c-1.3,1.3-1.2,3.4-1.2,5.1s0,3.8,1.2,5.1c0.8,0.8,1.7,1.2,2.7,1.2
						c1.1,0,2-0.4,2.7-1.2c1.3-1.3,1.2-3.4,1.2-5.1S178.3,148.4,177,147.1z"/>
					<path fill="#2762FF" d="M192.1,160l-6.3-12.7V160h-1.9v-15.7h2.5l6.3,12.7v-12.7h1.9V160H192.1z"/>
				</g>
			</g>
		</g>
		<g>
			<path fill="#2762FF" d="M27.9,1038.7c-12.7-5-20.9-17.1-20.9-30.7V112c0-18.2,14.8-33,33-33v2C22.9,81,9,94.9,9,112v896
				c0,12.8,7.7,24.1,19.6,28.8L27.9,1038.7z"/>
			<g>
				<polygon fill="#2762FF" points="24.5,1029 25.9,1036.9 21.3,1043.4 40,1040 				"/>
			</g>
		</g>
		<g>
			<path fill="#2762FF" d="M264,1041v-2c17.1,0,31-13.9,31-31V112c0-12.8-7.7-24.1-19.6-28.8l0.7-1.9c12.7,5,20.9,17.1,20.9,30.7
				v896C297,1026.2,282.2,1041,264,1041z"/>
			<g>
				<polygon fill="#2762FF" points="279.5,91 278.1,83.1 282.7,76.6 264,80 				"/>
			</g>
		</g>
		<circle fill="#2762FF" cx="40" cy="80" r="8"/>
		<circle fill="#2762FF" cx="8" cy="400" r="8"/>
		<circle fill="#2762FF" cx="8" cy="720" r="8"/>
		<circle fill="#2762FF" cx="296" cy="720" r="8"/>
		<circle fill="#2762FF" cx="296" cy="400" r="8"/>
		<circle fill="#2762FF" cx="264" cy="1040" r="8"/>
	</g>
</g>
<g id="Слой_2">
</g>
</svg>
