<?xml version="1.0" encoding="utf-8"?>
<!-- Generator: Adobe Illustrator 18.0.0, SVG Export Plug-In . SVG Version: 6.00 Build 0)  -->
<!DOCTYPE svg PUBLIC "-//W3C//DTD SVG 1.1//EN" "http://www.w3.org/Graphics/SVG/1.1/DTD/svg11.dtd">
<svg version="1.1" id="Слой_1" xmlns="http://www.w3.org/2000/svg" xmlns:xlink="http://www.w3.org/1999/xlink" x="0px" y="0px"
	 viewBox="0 0 144 128" enable-background="new 0 0 144 128" xml:space="preserve">
<g>
	<circle fill="#FFFFFF" cx="72" cy="64" r="64"/>
	<g>
		
			<linearGradient id="SVGID_1_" gradientUnits="userSpaceOnUse" x1="-2094.9456" y1="1261.4857" x2="-2166.9456" y2="1261.4857" gradientTransform="matrix(-1 0 0 -1 -2022.9456 1327.7832)">
			<stop  offset="0" style="stop-color:#FFFFFF"/>
			<stop  offset="1" style="stop-color:#FCBA59"/>
		</linearGradient>
		<path fill="url(#SVGID_1_)" d="M120,114.3c13.3,0,24-10.7,24-24v-72H96v72c0,13.3-10.7,24-24,24H120z"/>
		<g>
			<path fill="#FFFFFF" d="M72,106.3h48c8.8,0,16-7.2,16-16v0c0-8.8-7.2-16-16-16H72c-8.8,0-16,7.2-16,16v0
				C56,99.1,63.2,106.3,72,106.3z"/>
			<path d="M120,107.3H72c-9.4,0-17-7.6-17-17s7.6-17,17-17h48c9.4,0,17,7.6,17,17S129.4,107.3,120,107.3z M72,75.3
				c-8.3,0-15,6.7-15,15s6.7,15,15,15h48c8.3,0,15-6.7,15-15s-6.7-15-15-15H72z"/>
		</g>
		
			<linearGradient id="SVGID_2_" gradientUnits="userSpaceOnUse" x1="48" y1="1117.4857" x2="120" y2="1117.4857" gradientTransform="matrix(1 0 0 -1 0 1183.7832)">
			<stop  offset="0" style="stop-color:#FFFFFF"/>
			<stop  offset="1" style="stop-color:#FCBA59"/>
		</linearGradient>
		<path fill="url(#SVGID_2_)" d="M72,114.3c-13.3,0-24-10.7-24-24v-48c0-13.3,10.7-24,24-24h0c13.3,0,24,10.7,24,24v48
			c0,13.3,10.7,24,24,24H72z"/>
		<g>
			<path fill="#FFFFFF" d="M24,58.3h48c8.8,0,16-7.2,16-16v0c0-8.8-7.2-16-16-16H24c-8.8,0-16,7.2-16,16v0C8,51.1,15.2,58.3,24,58.3
				z"/>
			<path d="M72,59.3H24c-9.4,0-17-7.6-17-17s7.6-17,17-17h48c9.4,0,17,7.6,17,17S81.4,59.3,72,59.3z M24,27.3c-8.3,0-15,6.7-15,15
				s6.7,15,15,15h48c8.3,0,15-6.7,15-15s-6.7-15-15-15H24z"/>
		</g>
		<linearGradient id="SVGID_3_" gradientUnits="userSpaceOnUse" x1="-1.987155e-05" y1="66.2975" x2="72" y2="66.2975">
			<stop  offset="0" style="stop-color:#FFFFFF"/>
			<stop  offset="1" style="stop-color:#FCBA59"/>
		</linearGradient>
		<path fill="url(#SVGID_3_)" d="M24,18.3c-13.3,0-24,10.7-24,24v72h48v-72c0-13.3,10.7-24,24-24H24z"/>
		<circle cx="72" cy="42.3" r="16"/>
		<circle cx="120" cy="90.3" r="16"/>
		<g>
			<path fill="#FFFFFF" d="M72,50.3L72,50.3c-4.4,0-8-3.6-8-8v0c0-4.4,3.6-8,8-8h0c4.4,0,8,3.6,8,8v0C80,46.7,76.4,50.3,72,50.3z"/>
			<path d="M72,50.8c-4.7,0-8.5-3.8-8.5-8.5s3.8-8.5,8.5-8.5s8.5,3.8,8.5,8.5S76.7,50.8,72,50.8z M72,34.8c-4.1,0-7.5,3.4-7.5,7.5
				s3.4,7.5,7.5,7.5s7.5-3.4,7.5-7.5S76.1,34.8,72,34.8z"/>
		</g>
		<g>
			<path fill="#FFFFFF" d="M120,98.3L120,98.3c-4.4,0-8-3.6-8-8v0c0-4.4,3.6-8,8-8h0c4.4,0,8,3.6,8,8v0
				C128,94.7,124.4,98.3,120,98.3z"/>
			<path d="M120,98.8c-4.7,0-8.5-3.8-8.5-8.5s3.8-8.5,8.5-8.5s8.5,3.8,8.5,8.5S124.7,98.8,120,98.8z M120,82.8
				c-4.1,0-7.5,3.4-7.5,7.5s3.4,7.5,7.5,7.5s7.5-3.4,7.5-7.5S124.1,82.8,120,82.8z"/>
		</g>
	</g>
</g>
</svg>
