<?xml version="1.0" encoding="utf-8"?>
<!-- Generator: Adobe Illustrator 18.0.0, SVG Export Plug-In . SVG Version: 6.00 Build 0)  -->
<!DOCTYPE svg PUBLIC "-//W3C//DTD SVG 1.1//EN" "http://www.w3.org/Graphics/SVG/1.1/DTD/svg11.dtd">
<svg version="1.1" id="Слой_1" xmlns="http://www.w3.org/2000/svg" xmlns:xlink="http://www.w3.org/1999/xlink" x="0px" y="0px"
	 viewBox="0 0 128 128" enable-background="new 0 0 128 128" xml:space="preserve">
<g>
	<circle fill="#FFFFFF" cx="64" cy="64" r="64"/>
	<path fill="#FCBA59" d="M24,20.3H8c-1.1,0-2-0.9-2-2s0.9-2,2-2h16c1.1,0,2,0.9,2,2S25.1,20.3,24,20.3z"/>
	<linearGradient id="SVGID_1_" gradientUnits="userSpaceOnUse" x1="8.2018" y1="113.1177" x2="119.7981" y2="19.4773">
		<stop  offset="0" style="stop-color:#FFFFFF"/>
		<stop  offset="1" style="stop-color:#FCBA59"/>
	</linearGradient>
	<path fill="url(#SVGID_1_)" d="M104,118.3H20c-8.8,0-16-7.2-16-16s7.2-16,16-16h88c4.4,0,8-3.6,8-8s-3.6-8-8-8H20
		c-8.8,0-16-7.2-16-16s7.2-16,16-16h88c4.4,0,8-3.6,8-8s-3.6-8-8-8H24c-2.2,0-4-1.8-4-4s1.8-4,4-4h84c8.8,0,16,7.2,16,16
		s-7.2,16-16,16H20c-4.4,0-8,3.6-8,8s3.6,8,8,8h88c8.8,0,16,7.2,16,16s-7.2,16-16,16H20c-4.4,0-8,3.6-8,8s3.6,8,8,8h84
		c2.2,0,4,1.8,4,4S106.2,118.3,104,118.3z"/>
	<path fill="#FCBA59" d="M120,116.3h-16c-1.1,0-2-0.9-2-2s0.9-2,2-2h16c1.1,0,2,0.9,2,2S121.1,116.3,120,116.3z"/>
</g>
</svg>
