<svg width="52" height="38" viewBox="0 0 52 38" fill="none" xmlns="http://www.w3.org/2000/svg">
<g filter="url(#filter0_d)">
<rect x="2" y="7" width="48" height="24" fill="#FCBA59"/>
</g>
<circle cx="26" cy="19" r="8" fill="white"/>
<circle cx="40" cy="19" r="2" fill="white"/>
<circle cx="12" cy="19" r="2" fill="white"/>
<path d="M30.9593 21.3385C28.4934 25.6095 25.6936 29.1247 23.1747 31.3584C21.9132 32.477 20.7437 33.2549 19.7406 33.6553C18.7309 34.0583 17.974 34.0487 17.4462 33.7439C16.9183 33.4391 16.5315 32.7884 16.3757 31.7125C16.2209 30.6437 16.3098 29.2419 16.6478 27.5901C17.3228 24.2918 18.9671 20.1095 21.433 15.8385C23.8989 11.5674 26.6987 8.05222 29.2176 5.81853C30.4791 4.69987 31.6486 3.92201 32.6517 3.52166C33.6614 3.11865 34.4183 3.12823 34.9462 3.43301C35.474 3.73779 35.8608 4.3885 36.0166 5.46442C36.1714 6.53325 36.0825 7.93498 35.7445 9.58683C35.0695 12.8851 33.4252 17.0674 30.9593 21.3385Z" stroke="url(#paint0_angular)"/>
<defs>
<filter id="filter0_d" x="0" y="5" width="52" height="28" filterUnits="userSpaceOnUse" color-interpolation-filters="sRGB">
<feFlood flood-opacity="0" result="BackgroundImageFix"/>
<feColorMatrix in="SourceAlpha" type="matrix" values="0 0 0 0 0 0 0 0 0 0 0 0 0 0 0 0 0 0 127 0"/>
<feOffset/>
<feGaussianBlur stdDeviation="1"/>
<feColorMatrix type="matrix" values="0 0 0 0 0 0 0 0 0 0 0 0 0 0 0 0 0 0 0.5 0"/>
<feBlend mode="normal" in2="BackgroundImageFix" result="effect1_dropShadow"/>
<feBlend mode="normal" in="SourceGraphic" in2="effect1_dropShadow" result="shape"/>
</filter>
<radialGradient id="paint0_angular" cx="0" cy="0" r="1" gradientUnits="userSpaceOnUse" gradientTransform="translate(26.1962 18.5885) rotate(120) scale(18 6)">
<stop offset="0.0340767" stop-color="#2762FF" stop-opacity="0"/>
<stop offset="0.384525" stop-color="#2762FF" stop-opacity="0"/>
<stop offset="0.460595" stop-color="#2762FF"/>
<stop offset="0.798611" stop-color="#2762FF"/>
</radialGradient>
</defs>
</svg>
