<svg width="87" height="20" viewBox="0 0 87 20" fill="none" xmlns="http://www.w3.org/2000/svg">
<path fill-rule="evenodd" clip-rule="evenodd" d="M6.44345 0.326172C9.97805 0.326172 12.84 3.18814 12.84 6.72275V14.9789H0.046875V6.72275C0.046875 3.18814 2.90885 0.326172 6.44345 0.326172ZM3.88482 5.0082C3.14625 5.0082 2.55275 5.6017 2.55275 6.34027C2.55275 7.07885 3.14625 7.67234 3.88482 7.67234C4.62339 7.67234 5.21689 7.07885 5.21689 6.34027C5.21689 5.6017 4.62339 5.0082 3.88482 5.0082ZM8.60641 5.0082C7.86784 5.0082 7.27435 5.6017 7.27435 6.34027C7.27435 7.07885 7.86784 7.67234 8.60641 7.67234C9.34499 7.67234 9.93849 7.07885 9.93849 6.34027C9.93849 5.6017 9.34499 5.0082 8.60641 5.0082Z" fill="url(#paint0_linear_3066_8744)"/>
<path fill-rule="evenodd" clip-rule="evenodd" d="M6.44345 1.18359C9.97805 1.18359 12.84 3.38613 12.84 8.93862V15.4539H0.046875V6.6042C0.046875 3.22786 2.90885 1.18359 6.44345 1.18359ZM3.88482 5.00835C3.14625 5.00835 2.55275 5.60185 2.55275 6.34042C2.55275 7.079 3.14625 7.67249 3.88482 7.67249C4.62339 7.67249 5.21689 7.079 5.21689 6.34042C5.21689 5.60185 4.62339 5.00835 3.88482 5.00835ZM8.60641 5.00835C7.86784 5.00835 7.27435 5.60185 7.27435 6.34042C7.27435 7.079 7.86784 7.67249 8.60641 7.67249C9.34499 7.67249 9.93849 7.079 9.93849 6.34042C9.93849 5.60185 9.34499 5.00835 8.60641 5.00835Z" fill="url(#paint1_linear_3066_8744)"/>
<path fill-rule="evenodd" clip-rule="evenodd" d="M6.44219 1.80469C9.9768 1.80469 12.8388 3.92809 12.8388 9.28275V18.3171C12.8388 18.7259 12.509 19.0425 12.1134 19.0425C11.7045 19.0425 11.388 18.7127 11.388 18.3171V16.286C11.388 15.9167 11.0715 15.6266 10.6758 15.6134H10.6626C10.267 15.6134 9.93723 15.9035 9.93723 16.2728V17.1828C9.93723 17.5653 9.63389 17.8687 9.25141 17.8687C8.86894 17.8687 8.56559 17.5653 8.56559 17.1828V16.286C8.56559 15.9167 8.24906 15.6266 7.8534 15.6134H7.84021C7.44454 15.6134 7.11482 15.9035 7.11482 16.2728V16.4575C7.11482 16.8399 6.81148 17.1433 6.42901 17.1433C6.04653 17.1433 5.74319 16.8399 5.74319 16.4575V16.286C5.74319 15.9167 5.42666 15.6266 5.03099 15.6134H5.0178C4.62214 15.6134 4.29242 15.9035 4.29242 16.2728V17.1828C4.29242 17.5653 3.98908 17.8687 3.6066 17.8687C3.22412 17.8687 2.92078 17.5653 2.92078 17.1828V16.286C2.92078 15.9167 2.60425 15.6266 2.20858 15.6134H2.1954C1.79973 15.6134 1.47001 15.9035 1.47001 16.2728V16.286V18.3567C1.47001 18.7391 1.16667 19.0425 0.784193 19.0425C0.401717 19.0425 0.0983741 18.7391 0.0983741 18.3567V7.04065C0.0456188 3.78301 2.90759 1.80469 6.44219 1.80469ZM3.88356 5.00957C3.14499 5.00957 2.55149 5.60307 2.55149 6.34164C2.55149 7.08021 3.14499 7.67371 3.88356 7.67371C4.62214 7.67371 5.21563 7.08021 5.21563 6.34164C5.21563 5.60307 4.62214 5.00957 3.88356 5.00957ZM8.60516 5.00957C7.86659 5.00957 7.27309 5.60307 7.27309 6.34164C7.27309 7.08021 7.86659 7.67371 8.60516 7.67371C9.34373 7.67371 9.93723 7.08021 9.93723 6.34164C9.93723 5.60307 9.34373 5.00957 8.60516 5.00957Z" fill="url(#paint2_linear_3066_8744)"/>
<path opacity="0.2563" fill-rule="evenodd" clip-rule="evenodd" d="M0.733534 8.19922C0.918177 8.19922 1.07644 8.35749 1.07644 8.54213V10.0852C1.07644 10.2699 0.918177 10.4281 0.733534 10.4281C0.548891 10.4281 0.390625 10.2699 0.390625 10.0852V8.54213C0.390625 8.35749 0.535702 8.19922 0.733534 8.19922Z" fill="white"/>
<path opacity="0.2563" fill-rule="evenodd" clip-rule="evenodd" d="M12.4035 10.4277C12.5881 10.4277 12.7464 10.586 12.7464 10.7706V13.659C12.7464 13.8436 12.5881 14.0019 12.4035 14.0019C12.2188 14.0019 12.0605 13.8436 12.0605 13.659V10.7706C12.0605 10.586 12.2188 10.4277 12.4035 10.4277Z" fill="white"/>
<path opacity="0.2563" fill-rule="evenodd" clip-rule="evenodd" d="M12.4035 8.93945C12.5881 8.93945 12.7464 9.09772 12.7464 9.28236V9.59889C12.7464 9.78354 12.5881 9.9418 12.4035 9.9418C12.2188 9.9418 12.0605 9.78354 12.0605 9.59889V9.28236C12.0605 9.08453 12.2188 8.93945 12.4035 8.93945Z" fill="white"/>
<path fill-rule="evenodd" clip-rule="evenodd" d="M6.46939 9.75531C7.0497 9.75531 7.48493 9.28051 7.48493 8.95079C7.48493 8.81891 7.4058 8.70021 7.2871 8.68702C7.10246 8.66064 6.82549 8.76615 6.46939 8.76615C6.13967 8.76615 5.92865 8.67383 5.67807 8.67383C5.41429 8.67383 5.42748 8.97717 5.46704 9.09587C5.55937 9.42559 5.8759 9.75531 6.46939 9.75531Z" fill="#6C709F"/>
<path fill-rule="evenodd" clip-rule="evenodd" d="M6.48258 9.47891C7.07608 9.47891 7.51131 9.04368 7.51131 8.72715C7.51131 8.60845 7.43218 8.50294 7.31348 8.48975C7.12883 8.46337 6.83868 8.56889 6.48258 8.56889C6.13967 8.56889 5.94184 8.47656 5.67807 8.47656C5.41429 8.47656 5.42748 8.76672 5.46704 8.87223C5.55937 9.17557 5.88909 9.47891 6.48258 9.47891Z" fill="white"/>
<path fill-rule="evenodd" clip-rule="evenodd" d="M4.08203 4.7832C4.75466 4.7832 5.30859 5.45583 5.30859 6.28673C5.30859 7.11762 4.75466 7.79025 4.08203 7.79025C3.4094 7.79025 2.85547 7.11762 2.85547 6.28673C2.85547 5.45583 3.39621 4.7832 4.08203 4.7832ZM4.08203 4.94147C3.47534 4.94147 2.98736 5.54815 2.98736 6.28673C2.98736 7.0253 3.47534 7.63199 4.08203 7.63199C4.68871 7.63199 5.1767 7.0253 5.1767 6.28673C5.1767 5.54815 4.67553 4.94147 4.08203 4.94147Z" fill="#D8D8D8"/>
<path fill-rule="evenodd" clip-rule="evenodd" d="M8.8164 4.7832C9.48903 4.7832 10.043 5.45583 10.043 6.28673C10.043 7.11762 9.48903 7.79025 8.8164 7.79025C8.14377 7.79025 7.58984 7.11762 7.58984 6.28673C7.58984 5.45583 8.14377 4.7832 8.8164 4.7832ZM8.8164 4.94147C8.20972 4.94147 7.72173 5.54815 7.72173 6.28673C7.72173 7.0253 8.20972 7.63199 8.8164 7.63199C9.42309 7.63199 9.91108 7.0253 9.91108 6.28673C9.91108 5.54815 9.42309 4.94147 8.8164 4.94147Z" fill="#D8D8D8"/>
<path fill-rule="evenodd" clip-rule="evenodd" d="M4.081 4.94141C4.68769 4.94141 5.17567 5.54809 5.17567 6.28666C5.17567 6.31304 5.17567 6.33942 5.17567 6.3658V6.44493C5.17567 5.69317 4.70087 5.07329 4.10738 5.07329C3.51388 5.07329 3.03908 5.67998 3.03908 6.44493C3.03908 6.59001 3.05227 6.73508 3.09184 6.86697C3.02589 6.69552 2.98633 6.49769 2.98633 6.29985C2.98633 5.54809 3.47431 4.94141 4.081 4.94141Z" fill="#B4B4B6"/>
<path fill-rule="evenodd" clip-rule="evenodd" d="M8.81538 4.94141C9.42206 4.94141 9.91005 5.54809 9.91005 6.28666C9.91005 6.31304 9.91005 6.33942 9.91005 6.3658V6.44493C9.91005 5.69317 9.43525 5.07329 8.84175 5.07329C8.24826 5.07329 7.77346 5.67998 7.77346 6.44493C7.77346 6.59001 7.78665 6.73508 7.82621 6.86697C7.76027 6.69552 7.7207 6.49769 7.7207 6.29985C7.7207 5.54809 8.20869 4.94141 8.81538 4.94141Z" fill="#B4B4B6"/>
<path fill-rule="evenodd" clip-rule="evenodd" d="M47.7207 0.325688C48.4329 0.338876 49.0528 0.787297 49.3034 1.43355L49.3429 1.53906L55.8714 17.3656C55.9242 17.4843 55.9505 17.603 55.9505 17.7217V17.8141C55.9637 18.1306 55.8582 18.4471 55.634 18.6977C55.4098 18.9351 55.0933 19.0538 54.7635 19.0406C54.5261 19.0406 54.2887 18.9615 54.0909 18.8164C53.9195 18.6845 53.7876 18.5262 53.6821 18.3416L53.6293 18.2229L47.4174 2.73924L45.1225 8.42362H46.2304C46.8371 8.42362 47.3382 8.89842 47.391 9.5051V9.59742V9.6238C47.391 10.2305 46.9162 10.7317 46.3227 10.7976H46.2304H44.1729L41.1791 18.2229C41.0867 18.4603 40.9153 18.6581 40.7175 18.8164C40.5196 18.9615 40.2822 19.0406 40.0448 19.0406C39.7151 19.0538 39.3986 18.9351 39.1744 18.6977C38.9633 18.4603 38.8446 18.1438 38.8578 17.8141C38.8578 17.6954 38.871 17.5898 38.9106 17.4711L38.9501 17.3656L41.6539 10.7844H40.4932C39.8866 10.7844 39.3854 10.3096 39.3326 9.70293V9.59742C39.3326 8.99074 39.8074 8.48956 40.4009 8.42362H40.4932H42.6694L45.505 1.52587C45.716 0.853241 46.3227 0.378444 47.0217 0.3125H47.1404H47.7207V0.325688ZM28.2145 0.325688C28.9267 0.338876 29.5597 0.774108 29.8103 1.43355L29.8499 1.53906L36.3783 17.3656C36.4179 17.4711 36.4443 17.5898 36.4575 17.6954V17.9196C36.4443 18.2097 36.3388 18.4735 36.1409 18.6977C35.9167 18.9351 35.6002 19.0538 35.2705 19.0406C35.0331 19.0406 34.7957 18.9615 34.5978 18.8164C34.4264 18.6845 34.2945 18.5262 34.189 18.3416L34.1362 18.2229L27.9243 2.73924L25.6558 8.42362H26.7637C27.3836 8.42362 27.8847 8.89842 27.9375 9.5051V9.59742V9.6238C27.9375 10.2437 27.4627 10.7449 26.856 10.7976H26.7637H24.693L21.6992 18.2229C21.6069 18.4603 21.4354 18.6581 21.2376 18.8164C21.0397 18.9615 20.8023 19.0406 20.5649 19.0406C20.2352 19.0538 19.9187 18.9351 19.6945 18.6977C19.4835 18.4603 19.3648 18.1438 19.3779 17.8141C19.3779 17.6954 19.3911 17.5898 19.4307 17.4711L19.4703 17.3656L22.174 10.7844H21.0134C20.4067 10.7844 19.9055 10.3096 19.8527 9.70293V9.59742C19.8527 8.99074 20.3275 8.48956 20.921 8.42362H21.0134H23.1631L25.9987 1.52587C26.2098 0.853241 26.8164 0.378444 27.5154 0.3125H27.6341H28.2145V0.325688ZM55.5021 0.325688C55.7395 0.325688 55.9769 0.40482 56.1747 0.549897C56.3726 0.708163 56.544 0.905995 56.6364 1.14339L62.8483 16.6271L69.0602 1.14339C69.1657 0.905995 69.324 0.708163 69.5218 0.549897C69.7197 0.40482 69.9571 0.325688 70.1945 0.325688C70.511 0.312499 70.8275 0.431199 71.0517 0.668598C71.2759 0.905996 71.3815 1.22253 71.3815 1.55225C71.3815 1.71051 71.3551 1.85559 71.3023 2.00067L64.7739 17.8272C64.5496 18.5394 63.8902 19.0274 63.1384 19.0406H62.5581C61.8064 19.0274 61.1469 18.5394 60.9227 17.8272L54.3943 2.00067C54.3415 1.85559 54.3151 1.71051 54.3151 1.55225C54.3019 1.22253 54.4206 0.919185 54.6317 0.668598C54.8691 0.431199 55.1856 0.29931 55.5021 0.325688ZM85.6122 0.444388C85.9155 0.431199 86.2057 0.563086 86.4167 0.787296C86.6409 0.998317 86.7596 1.28847 86.7596 1.59181C86.7728 1.89516 86.6409 2.17212 86.4167 2.38314C86.2057 2.59416 85.9155 2.71286 85.6122 2.71286H76.2349V8.55551H84.6626C84.9659 8.54232 85.2561 8.67421 85.4671 8.89842C85.6781 9.10944 85.81 9.39959 85.81 9.70293C85.8232 10.0063 85.6913 10.2832 85.4671 10.4943C85.2561 10.7053 84.9659 10.824 84.6626 10.824H76.2349V16.693H85.6122C85.9155 16.6798 86.2057 16.8117 86.4167 17.0359C86.6409 17.2469 86.7596 17.5371 86.7596 17.8404C86.7728 18.1438 86.6409 18.4207 86.4167 18.6318C86.2057 18.8428 85.9155 18.9615 85.6122 18.9483H75.0084C74.6918 18.9747 74.3753 18.8428 74.1643 18.6054C73.9401 18.3812 73.8214 18.0778 73.8214 17.7613V1.67095C73.8082 1.34123 73.9401 1.03788 74.1643 0.800486C74.3885 0.563087 74.6918 0.444387 75.0084 0.457576H85.6122V0.444388Z" fill="url(#paint3_linear_3066_8744)"/>
<defs>
<linearGradient id="paint0_linear_3066_8744" x1="10.3539" y1="3.24078" x2="3.0349" y2="12.8571" gradientUnits="userSpaceOnUse">
<stop stop-color="#B67AB3"/>
<stop offset="1" stop-color="#3BB2C5"/>
</linearGradient>
<linearGradient id="paint1_linear_3066_8744" x1="11.0085" y1="3.81898" x2="2.84221" y2="12.9647" gradientUnits="userSpaceOnUse">
<stop stop-color="#A669A9"/>
<stop offset="1" stop-color="#3BB2C5"/>
</linearGradient>
<linearGradient id="paint2_linear_3066_8744" x1="9.82911" y1="7.51435" x2="2.61117" y2="12.7419" gradientUnits="userSpaceOnUse">
<stop stop-color="#9E60A4"/>
<stop offset="1" stop-color="#3BB2C5"/>
</linearGradient>
<linearGradient id="paint3_linear_3066_8744" x1="84.5977" y1="9.68384" x2="17.949" y2="9.68384" gradientUnits="userSpaceOnUse">
<stop stop-color="#AD579D"/>
<stop offset="1" stop-color="#36B3C2"/>
</linearGradient>
</defs>
</svg>
