<svg width="75" height="29" viewBox="0 0 75 29" fill="none" xmlns="http://www.w3.org/2000/svg">
<path fill-rule="evenodd" clip-rule="evenodd" d="M14.5416 28.6886C22.3775 28.6886 28.7297 22.3364 28.7297 14.5006C28.7297 6.6647 22.3775 0.3125 14.5416 0.3125C6.70572 0.3125 0.353516 6.6647 0.353516 14.5006C0.353516 22.3364 6.70572 28.6886 14.5416 28.6886ZM14.5995 27.3567C21.6997 27.3567 27.4556 21.6008 27.4556 14.5006C27.4556 7.40034 21.6997 1.64444 14.5995 1.64444C7.49927 1.64444 1.74337 7.40034 1.74337 14.5006C1.74337 21.6008 7.49927 27.3567 14.5995 27.3567ZM14.5416 26.3722C21.0981 26.3722 26.4132 21.0571 26.4132 14.5006C26.4132 7.94406 21.0981 2.62892 14.5416 2.62892C7.98508 2.62892 2.66994 7.94406 2.66994 14.5006C2.66994 21.0571 7.98508 26.3722 14.5416 26.3722ZM14.5705 24.9245C20.3435 24.9245 25.0234 20.2445 25.0234 14.4716C25.0234 8.69869 20.3435 4.01877 14.5705 4.01877C8.79762 4.01877 4.1177 8.69869 4.1177 14.4716C4.1177 20.2445 8.79762 24.9245 14.5705 24.9245ZM13.9806 6.02618L21.5481 19.1543L22.3595 17.7465L15.6036 6.02618H13.9806ZM6.72367 17.7228L13.2005 6.48663L13.2139 6.50979L13.2266 6.48767L20.9021 19.8031H19.2791L17.3401 16.4392C16.4589 16.1607 15.5209 16.0105 14.5476 16.0105C14.0459 16.0105 13.5564 16.0455 13.0804 16.1154L14.0151 14.4965C14.1915 14.4878 14.3691 14.4835 14.5476 14.4835C15.1422 14.4835 15.7255 14.5316 16.2938 14.6242L13.2133 9.28L7.53517 19.1305L6.72367 17.7228ZM11.1269 17.552L14.0372 12.503L13.2258 11.0953L8.20635 19.8031H9.8293L9.8447 19.7763C11.2367 18.9383 12.834 18.5146 14.5781 18.5146C15.6919 18.5146 16.7596 18.7114 17.7486 19.072L16.6613 17.1888C15.975 17.0547 15.2774 16.9874 14.5781 16.9877C13.3712 16.9877 12.2105 17.1861 11.1269 17.552Z" fill="url(#paint0_linear_3066_8788)"/>
<path fill-rule="evenodd" clip-rule="evenodd" d="M35.5235 15.9191H38.1802L36.8452 12.0631L35.5235 15.9191ZM39.2616 19.086L38.6609 17.3501H35.0296L34.4287 19.086H32.4396L35.7371 9.81055H37.9667L41.2508 19.086H39.2616Z" fill="url(#paint1_linear_3066_8788)"/>
<path fill-rule="evenodd" clip-rule="evenodd" d="M43.9014 18.1579C43.225 17.4689 42.8868 16.5545 42.8868 15.415C42.8868 14.2755 43.225 13.3612 43.9014 12.6722C44.5778 11.9831 45.4545 11.6387 46.5315 11.6387C47.4304 11.6387 48.1824 11.8551 48.7877 12.2878C49.3929 12.7208 49.7977 13.3348 50.0027 14.1297H47.9733C47.733 13.5202 47.2524 13.2154 46.5315 13.2154C45.9885 13.2154 45.5636 13.4121 45.2565 13.8051C44.9495 14.1983 44.796 14.7349 44.796 15.415C44.796 16.0953 44.9495 16.632 45.2565 17.0249C45.5636 17.4181 45.9885 17.6146 46.5315 17.6146C47.2435 17.6146 47.724 17.3054 47.9733 16.6871H50.0027C49.7891 17.4556 49.3772 18.0651 48.7678 18.5157C48.158 18.9661 47.4127 19.1914 46.5315 19.1914C45.4545 19.1914 44.5778 18.847 43.9014 18.1579Z" fill="url(#paint2_linear_3066_8788)"/>
<path fill-rule="evenodd" clip-rule="evenodd" d="M57.2923 16.9986C57.6838 16.6143 57.8796 16.0866 57.8796 15.4152C57.8796 14.7439 57.6838 14.216 57.2923 13.8317C56.9005 13.4474 56.4421 13.2553 55.9172 13.2553C55.3919 13.2553 54.9359 13.4454 54.5488 13.8251C54.1616 14.205 53.968 14.7307 53.968 15.4019C53.968 16.0733 54.1637 16.6033 54.5554 16.992C54.947 17.3808 55.4032 17.575 55.9238 17.575C56.4445 17.575 56.9005 17.3829 57.2923 16.9986ZM53.0533 18.1248C52.3902 17.4139 52.0587 16.5062 52.0587 15.4019C52.0587 14.2977 52.3879 13.3943 53.0467 12.6921C53.7052 11.9898 54.5419 11.6387 55.5566 11.6387C56.5712 11.6387 57.3454 12.054 57.8795 12.8843V11.7446H59.7486V19.0855H57.8795V17.8532C57.3188 18.7455 56.5399 19.1915 55.5431 19.1915C54.5463 19.1915 53.7163 18.836 53.0533 18.1248Z" fill="url(#paint3_linear_3066_8788)"/>
<path fill-rule="evenodd" clip-rule="evenodd" d="M62.5488 9.92383H64.4309V19.1853H62.5488V9.92383Z" fill="url(#paint4_linear_3066_8788)"/>
<path fill-rule="evenodd" clip-rule="evenodd" d="M71.8352 16.9692C72.2267 16.585 72.4224 16.0572 72.4224 15.3858C72.4224 14.7146 72.2267 14.1867 71.8352 13.8024C71.4437 13.4182 70.9851 13.226 70.4604 13.226C69.9351 13.226 69.4788 13.4161 69.092 13.7958C68.7045 14.1757 68.5111 14.7013 68.5111 15.3726C68.5111 16.044 68.7069 16.574 69.0983 16.9627C69.4898 17.3514 69.9461 17.5456 70.4668 17.5456C70.9874 17.5456 71.4437 17.3536 71.8352 16.9692ZM67.5967 18.0955C66.9336 17.3845 66.6018 16.4769 66.6018 15.3726C66.6018 14.2685 66.9307 13.365 67.5898 12.6628C68.2482 11.9605 69.085 11.6094 70.0996 11.6094C71.1142 11.6094 71.8885 12.0247 72.4224 12.855V11.7154H74.2917V19.0561H72.4224V17.8239C71.8618 18.7162 71.0829 19.1622 70.0863 19.1622C69.0896 19.1622 68.2592 18.8067 67.5967 18.0955Z" fill="url(#paint5_linear_3066_8788)"/>
<defs>
<linearGradient id="paint0_linear_3066_8788" x1="27.1371" y1="28.6886" x2="6.20248" y2="2.83161" gradientUnits="userSpaceOnUse">
<stop stop-color="#5A81FF"/>
<stop offset="0.52" stop-color="#E40C5B"/>
<stop offset="1" stop-color="#FF4C3B"/>
</linearGradient>
<linearGradient id="paint1_linear_3066_8788" x1="74.7959" y1="20.7084" x2="71.4921" y2="3.83731" gradientUnits="userSpaceOnUse">
<stop stop-color="#645AFF"/>
<stop offset="0.02" stop-color="#645AFF"/>
<stop offset="0.48" stop-color="#E40C5B"/>
<stop offset="1" stop-color="#FF4C3B"/>
</linearGradient>
<linearGradient id="paint2_linear_3066_8788" x1="74.7965" y1="20.7078" x2="71.4927" y2="3.83674" gradientUnits="userSpaceOnUse">
<stop stop-color="#645AFF"/>
<stop offset="0.02" stop-color="#645AFF"/>
<stop offset="0.48" stop-color="#E40C5B"/>
<stop offset="1" stop-color="#FF4C3B"/>
</linearGradient>
<linearGradient id="paint3_linear_3066_8788" x1="74.7937" y1="20.7078" x2="71.49" y2="3.83674" gradientUnits="userSpaceOnUse">
<stop stop-color="#645AFF"/>
<stop offset="0.02" stop-color="#645AFF"/>
<stop offset="0.48" stop-color="#E40C5B"/>
<stop offset="1" stop-color="#FF4C3B"/>
</linearGradient>
<linearGradient id="paint4_linear_3066_8788" x1="74.7957" y1="20.7076" x2="71.4919" y2="3.83657" gradientUnits="userSpaceOnUse">
<stop stop-color="#645AFF"/>
<stop offset="0.02" stop-color="#645AFF"/>
<stop offset="0.48" stop-color="#E40C5B"/>
<stop offset="1" stop-color="#FF4C3B"/>
</linearGradient>
<linearGradient id="paint5_linear_3066_8788" x1="74.7956" y1="20.7077" x2="71.4918" y2="3.83663" gradientUnits="userSpaceOnUse">
<stop stop-color="#645AFF"/>
<stop offset="0.02" stop-color="#645AFF"/>
<stop offset="0.48" stop-color="#E40C5B"/>
<stop offset="1" stop-color="#FF4C3B"/>
</linearGradient>
</defs>
</svg>
