<svg version="1.1" id="Layer_1" xmlns="http://www.w3.org/2000/svg" xmlns:xlink="http://www.w3.org/1999/xlink" x="0px" y="0px"
	 width="100%" viewBox="0 0 934 240" enable-background="new 0 0 934 240" xml:space="preserve">
<path fill="#000000" opacity="1.000000" stroke="none" 
	d="
M935.000000,183.000000 
	C935.000000,202.323456 935.000000,221.646896 935.000000,241.000000 
	C670.311890,241.000000 405.623810,241.000000 140.177109,240.668243 
	C141.611954,239.502197 143.805389,238.667923 146.406784,237.907364 
	C153.892105,235.691391 160.969467,233.401688 168.414948,231.058304 
	C174.204620,228.039642 179.626175,225.074661 185.370834,221.968536 
	C190.146439,218.595581 194.598953,215.363770 199.365555,212.005249 
	C203.833710,207.604584 207.987762,203.330658 212.449615,198.905060 
	C215.877060,194.183243 218.996689,189.613068 222.437805,184.903229 
	C225.542511,179.191971 228.325760,173.620361 231.435547,167.880768 
	C234.214401,158.822464 236.666718,149.932144 239.475281,140.824707 
	C239.900925,138.782379 239.807602,136.933884 240.065186,135.135666 
	C242.277832,119.689133 241.044815,104.513763 237.143372,89.425308 
	C233.716110,76.170815 227.855789,64.070717 220.867783,52.420513 
	C218.348373,48.220272 213.988327,47.613300 210.400406,51.118961 
	C207.188675,54.257065 204.039764,57.459557 200.869736,60.640221 
	C196.184448,65.341225 195.991196,66.630051 199.463379,71.962616 
	C205.994568,81.993202 210.056915,92.971748 211.968781,104.740387 
	C212.792755,109.812500 213.251938,114.943878 213.918945,120.468262 
	C212.624100,129.551865 211.287140,138.215546 209.608551,147.057343 
	C206.806519,153.475616 204.346085,159.715744 201.564362,166.093933 
	C198.145309,170.781952 195.047562,175.331940 191.635162,180.017715 
	C187.508423,184.086899 183.696320,188.020279 179.568436,192.088181 
	C175.155502,195.108429 171.058334,197.994156 166.630737,201.028473 
	C160.200134,203.839661 154.099976,206.502258 147.614395,209.220306 
	C139.819214,210.572266 132.409439,211.868774 124.536957,213.091736 
	C114.382683,212.067413 104.691139,211.116638 94.654488,209.998779 
	C88.861832,207.651825 83.414276,205.471939 77.624641,203.155167 
	C80.149139,200.398483 82.143257,198.220963 84.443192,195.917816 
	C87.896149,192.629745 91.171608,189.582397 94.146355,186.265350 
	C96.210388,183.963806 98.303772,183.345581 101.405319,184.917252 
	C103.956673,185.559998 106.073364,186.369690 108.256485,186.637177 
	C116.537399,187.651779 124.842384,188.604752 133.469971,186.068954 
	C141.086319,184.535004 148.400528,183.327682 154.469681,178.021423 
	C159.921844,173.679840 165.015015,169.364075 170.419373,164.919540 
	C174.769348,158.523590 178.808151,152.256409 182.920731,145.604004 
	C184.608200,138.145798 186.221878,131.072815 187.908691,123.554398 
	C187.814590,112.536102 186.194977,102.232521 181.812439,92.535759 
	C179.331253,87.045883 174.614532,86.223213 170.118240,90.401260 
	C167.595993,92.744980 165.336578,95.371590 162.632629,98.011734 
	C158.581100,101.066154 157.433121,104.824097 158.105118,109.477043 
	C158.893356,114.934975 159.294388,120.448822 159.516357,126.129929 
	C158.912521,133.922226 154.441132,139.745026 150.578384,146.081024 
	C145.180420,149.860367 140.090790,153.513367 134.618759,157.218445 
	C126.404442,160.832596 118.292679,160.365997 109.938828,158.607330 
	C107.198502,157.367950 104.312424,156.949127 102.122681,155.487259 
	C89.540771,147.087585 89.329384,151.554092 81.425377,159.070602 
	C80.840721,159.626602 80.382866,160.315933 79.560120,161.071320 
	C74.487175,166.084747 69.720177,170.970139 64.642731,175.991821 
	C59.539326,181.048828 54.746361,185.969543 49.642532,191.022156 
	C46.048740,194.429855 42.690475,197.634399 39.504776,201.002167 
	C36.518574,204.159073 36.794239,209.071472 40.038330,211.485245 
	C50.767422,219.468216 61.645557,227.286377 74.302818,231.963196 
	C80.715805,234.332779 87.424469,235.902145 94.396545,237.914795 
	C96.364700,238.335342 97.993095,238.522385 99.480461,239.083359 
	C100.134857,239.330154 100.502281,240.337814 101.000000,241.000000 
	C67.740204,241.000000 34.480408,241.000000 1.000000,241.000000 
	C1.000000,208.645569 1.000000,176.290634 1.350283,143.173447 
	C2.259968,144.212891 2.937001,145.987427 3.360185,147.820572 
	C6.774797,162.611908 13.519087,175.974762 20.982550,189.027603 
	C23.530121,193.483047 27.782873,194.323456 31.559881,190.889648 
	C35.373447,187.422653 38.949390,183.688141 42.541073,179.985123 
	C45.445450,176.990707 45.117470,173.808090 42.984184,170.446289 
	C40.912903,167.182236 38.835075,163.882507 37.187603,160.396423 
	C31.152941,147.626923 29.107788,133.895157 27.908266,119.577072 
	C29.991962,109.234169 31.486694,99.173302 34.196411,89.451065 
	C35.887360,83.384087 39.412075,77.828209 42.432045,71.909073 
	C47.495457,66.021477 51.997429,60.041443 57.068413,54.590782 
	C60.663681,50.726334 65.027679,47.577061 69.375732,43.965439 
	C78.819427,39.600960 87.935944,35.379597 97.468613,31.088711 
	C106.589828,29.957329 115.294891,28.895475 124.444366,27.907543 
	C138.663773,28.345690 151.631348,31.910843 164.216431,37.918037 
	C164.432083,37.988720 164.883026,38.040470 164.838013,38.370049 
	C158.513306,45.096081 152.233627,51.492535 145.585922,57.783489 
	C128.296799,51.933937 111.557144,52.364178 94.647598,59.176254 
	C90.935684,61.113449 87.433388,62.812382 84.253830,64.983856 
	C75.845695,70.726181 68.580872,77.600197 63.631195,87.044861 
	C58.843719,95.896507 55.848392,104.833023 54.686588,114.769394 
	C53.264706,126.930084 55.963249,137.928787 60.435154,148.772995 
	C62.636921,154.112183 67.706947,154.754379 71.812500,150.711136 
	C74.779709,147.788956 77.473953,144.535828 80.705940,141.950348 
	C84.449471,138.955643 84.824921,135.211533 83.608498,131.309128 
	C81.013489,122.984146 81.825081,114.972305 84.911819,106.637924 
	C88.431831,101.591660 91.711311,96.778786 95.355331,92.259865 
	C100.127434,86.342018 107.329865,84.507240 114.423462,81.908310 
	C118.010948,81.888618 121.171730,81.749672 124.333794,81.708565 
	C132.575943,81.601425 139.276581,86.127007 146.556580,88.982109 
	C148.536713,89.758682 151.730850,90.004837 153.240326,88.922287 
	C157.324860,85.992958 160.803467,82.218712 164.664307,78.685028 
	C164.806213,78.590446 164.924225,78.270454 165.210480,78.155029 
	C165.717484,77.709328 165.938248,77.379059 166.458344,76.910156 
	C173.231506,70.203789 179.705353,63.636066 186.484161,56.941025 
	C191.365387,52.212128 195.938583,47.607456 200.518707,43.009708 
	C206.972534,36.531059 206.830307,33.880077 199.778534,28.249306 
	C198.498322,27.227072 197.434174,25.912472 196.092224,24.992628 
	C180.784088,14.499746 164.701355,5.748229 146.013000,2.868860 
	C145.589401,2.803597 145.333908,1.647350 145.000000,1.000001 
	C408.333344,1.000000 671.666687,1.000000 935.000000,1.000000 
	C935.000000,19.750128 935.000000,38.407211 934.666138,57.827766 
	C931.946655,57.727489 929.567444,56.134411 927.174500,56.113636 
	C905.015503,55.921242 882.854126,55.983517 860.693481,56.011318 
	C854.976501,56.018490 853.002686,58.014305 853.002075,63.578587 
	C852.998169,101.568291 852.997253,139.557999 853.002930,177.547699 
	C853.003784,183.366608 854.697205,184.996979 860.701660,184.998337 
	C880.362976,185.002808 900.025879,185.134277 919.684631,184.908463 
	C924.796387,184.849762 929.895203,183.666656 935.000000,183.000000 
M572.529114,148.020645 
	C569.914734,143.267410 567.300293,138.514175 564.507629,133.436829 
	C566.504395,132.399887 568.104614,131.673965 569.601013,130.775208 
	C581.992065,123.332733 589.467651,112.396034 589.842224,97.981888 
	C590.468994,73.861000 573.033630,57.351223 550.006409,56.158909 
	C534.053894,55.332912 518.023926,55.956303 502.028931,56.025795 
	C497.004730,56.047623 495.004517,58.225121 495.003632,63.243271 
	C494.996948,101.398666 494.997253,139.554062 495.003357,177.709457 
	C495.004181,182.759369 496.980621,184.820984 501.981842,184.989975 
	C503.812561,185.051834 505.647095,185.000000 507.479889,184.999985 
	C516.775208,184.999924 517.998413,183.794571 517.999634,174.617950 
	C518.001282,161.845581 518.000000,149.073212 518.000000,136.000015 
	C524.780457,136.000015 531.093201,136.250488 537.371582,135.894287 
	C540.507629,135.716354 541.811340,137.207565 542.957764,139.530243 
	C548.299805,150.353073 553.499451,161.249542 559.035522,171.972305 
	C566.839172,187.087021 562.187134,184.590393 580.080200,185.096176 
	C588.548767,185.335571 589.898743,180.705063 586.578430,174.132690 
	C582.237000,165.538971 577.521912,157.134033 572.529114,148.020645 
M386.888794,153.009720 
	C376.584442,161.910919 364.383545,166.293381 351.190247,163.754379 
	C328.654022,159.417343 315.862457,141.916183 315.155975,120.575302 
	C314.661194,105.630470 321.618866,93.295357 333.336823,84.513985 
	C341.908325,78.090569 351.891266,74.818405 363.297424,76.812325 
	C372.357941,78.396210 379.841614,82.451859 387.220764,87.483017 
	C388.975067,88.679131 392.688141,88.704041 394.562012,87.630280 
	C397.481079,85.957611 399.760498,83.022568 402.011719,80.368629 
	C404.647522,77.261299 405.374084,73.831497 401.535706,71.068733 
	C396.440063,67.401001 391.543671,63.144009 385.902222,60.605896 
	C369.216919,53.099102 351.976410,52.538544 334.680756,58.755211 
	C316.838867,65.168205 304.190887,77.094055 296.737274,94.604630 
	C291.998474,105.737411 290.151978,117.001686 291.848083,129.192810 
	C294.384216,147.421997 302.891998,161.857468 317.203766,172.977859 
	C330.601257,183.387924 345.820984,187.260605 362.834442,186.169876 
	C377.750549,185.213623 390.146576,179.325729 401.357117,170.111710 
	C404.934113,167.171753 404.908783,163.422913 401.560547,160.032227 
	C399.690216,158.138123 397.712494,156.341766 395.941467,154.359924 
	C393.522827,151.653351 390.824219,151.145523 386.888794,153.009720 
M697.529541,160.044846 
	C693.774475,161.361511 690.103699,163.451202 686.250916,163.870911 
	C658.799133,166.861145 638.081543,147.279114 637.206848,120.645485 
	C636.722107,105.886795 643.607178,93.471344 655.261780,84.473747 
	C663.223938,78.326767 672.875977,75.088043 682.995056,76.203583 
	C692.847900,77.289772 701.771484,81.382950 709.628662,87.797707 
	C711.047302,88.955948 714.805237,88.731979 716.566711,87.651665 
	C719.458435,85.878197 721.762573,83.019302 724.015442,80.364372 
	C726.656006,77.252556 727.055054,74.187241 723.590698,70.987869 
	C707.872314,56.471676 688.832703,52.448944 668.621460,55.441559 
	C651.311829,58.004539 636.740051,66.769058 626.204529,81.301453 
	C617.271545,93.623169 612.763977,107.597542 613.220520,122.604965 
	C613.573059,134.191742 616.537964,145.483810 623.094910,155.517242 
	C632.360901,169.696091 645.075989,179.214340 661.259705,183.942917 
	C669.522461,186.357178 677.983887,186.802750 686.668091,186.125397 
	C701.009949,185.006775 713.040771,179.120682 723.579712,169.831284 
	C727.264099,166.583740 726.879395,163.404678 723.292175,159.795593 
	C721.531799,158.024490 719.638672,156.365173 718.038086,154.459976 
	C714.925476,150.755280 711.473022,151.437042 707.987427,153.556686 
	C704.682678,155.566315 701.528564,157.823715 697.529541,160.044846 
M778.000000,91.500000 
	C778.000000,84.673439 777.898743,77.845070 778.020691,71.020683 
	C778.289673,55.965240 778.933533,55.796181 762.772278,56.000259 
	C757.131348,56.071491 755.015625,58.069633 755.012207,63.608189 
	C754.988953,101.570724 754.987549,139.533295 755.014099,177.495819 
	C755.017883,182.841888 757.103394,184.971451 762.376892,184.982681 
	C782.523560,185.025558 802.670593,184.956436 822.817017,185.038116 
	C826.667358,185.053711 829.211243,183.507462 829.652222,179.737381 
	C830.052979,176.310928 830.098022,172.758926 829.669434,169.341354 
	C829.169189,165.352997 826.413513,163.907074 822.398132,163.948318 
	C809.079346,164.085129 795.758301,164.007156 782.438110,163.989609 
	C781.008484,163.987732 779.578979,163.841980 778.000000,163.754700 
	C778.000000,139.754547 778.000000,116.127274 778.000000,91.500000 
M433.000000,127.500000 
	C433.000000,141.977539 433.149872,156.457092 432.956390,170.932053 
	C432.775696,184.448822 432.300140,185.240387 447.168182,185.016632 
	C454.325500,184.908920 455.998718,183.283295 455.999146,175.962769 
	C456.001129,140.684189 456.000000,105.405602 456.000000,70.127014 
	C456.000000,55.974895 456.000000,55.974892 441.773987,56.000000 
	C434.818878,56.012272 433.004669,57.776939 433.002441,64.596069 
	C432.995728,85.230713 433.000000,105.865356 433.000000,127.500000 
z"/>
<path fill="#FFFFFF" opacity="1.000000" stroke="none" 
	d="
M935.000000,182.532379 
	C929.895203,183.666656 924.796387,184.849762 919.684631,184.908463 
	C900.025879,185.134277 880.362976,185.002808 860.701660,184.998337 
	C854.697205,184.996979 853.003784,183.366608 853.002930,177.547699 
	C852.997253,139.557999 852.998169,101.568291 853.002075,63.578587 
	C853.002686,58.014305 854.976501,56.018490 860.693481,56.011318 
	C882.854126,55.983517 905.015503,55.921242 927.174500,56.113636 
	C929.567444,56.134411 931.946655,57.727489 934.666138,58.295616 
	C935.000000,63.688042 935.000000,69.376083 934.646423,75.214165 
	C931.952881,75.909477 929.616821,76.906380 927.272217,76.927078 
	C911.441895,77.066895 895.609619,76.993011 879.778015,77.013489 
	C878.526672,77.015106 877.275574,77.207512 876.193726,77.297211 
	C876.193726,88.023621 876.193726,98.310867 876.193726,108.999702 
	C877.169739,108.999702 877.956360,108.999702 878.742920,108.999702 
	C892.241455,108.999802 905.740417,109.055214 919.238403,108.967712 
	C923.520325,108.939957 926.127380,110.347099 926.014221,115.070190 
	C925.938416,118.234703 925.887695,121.407478 926.027954,124.567581 
	C926.209900,128.666473 924.301575,130.103607 920.328247,130.049530 
	C909.664673,129.904388 898.997925,130.000000 888.332397,130.000000 
	C884.248840,130.000000 880.165222,130.000000 876.350891,130.000000 
	C876.350891,141.771866 876.350891,152.846451 876.350891,164.000000 
	C891.028748,164.000000 905.359070,163.828247 919.681274,164.091751 
	C924.797485,164.185867 929.894348,165.333328 935.000000,166.000000 
	C935.000000,171.354935 935.000000,176.709854 935.000000,182.532379 
z"/>
<path fill="#000000" opacity="1.000000" stroke="none" 
	d="
M935.000000,165.531342 
	C929.894348,165.333328 924.797485,164.185867 919.681274,164.091751 
	C905.359070,163.828247 891.028748,164.000000 876.350891,164.000000 
	C876.350891,152.846451 876.350891,141.771866 876.350891,130.000000 
	C880.165222,130.000000 884.248840,130.000000 888.332397,130.000000 
	C898.997925,130.000000 909.664673,129.904388 920.328247,130.049530 
	C924.301575,130.103607 926.209900,128.666473 926.027954,124.567581 
	C925.887695,121.407478 925.938416,118.234703 926.014221,115.070190 
	C926.127380,110.347099 923.520325,108.939957 919.238403,108.967712 
	C905.740417,109.055214 892.241455,108.999802 878.742920,108.999702 
	C877.956360,108.999702 877.169739,108.999702 876.193726,108.999702 
	C876.193726,98.310867 876.193726,88.023621 876.193726,77.297211 
	C877.275574,77.207512 878.526672,77.015106 879.778015,77.013489 
	C895.609619,76.993011 911.441895,77.066895 927.272217,76.927078 
	C929.616821,76.906380 931.952881,75.909477 934.646423,75.682098 
	C935.000000,105.687561 935.000000,135.375122 935.000000,165.531342 
z"/>
<path fill="#000000" opacity="1.000000" stroke="none" 
	d="
M1.000000,99.000000 
	C1.000000,66.406776 1.000000,33.813553 1.000000,1.000000 
	C33.020557,1.000000 65.041618,1.000000 97.823853,1.343789 
	C97.778084,2.123527 97.014580,2.690801 96.157242,2.974340 
	C90.101616,4.977068 84.026711,6.921527 77.573959,8.936289 
	C68.107880,13.932969 59.025803,18.877941 49.636982,23.985641 
	C46.406864,26.466940 43.107471,28.444490 40.634384,31.171429 
	C34.518887,37.914650 28.781780,45.001038 22.574074,52.085846 
	C17.839582,60.227299 12.786315,67.959656 9.206933,76.322830 
	C6.281109,83.158981 5.113888,90.747795 2.994201,98.342163 
	C2.214267,98.787598 1.607134,98.893799 1.000000,99.000000 
z"/>
<path fill="#6BDBF0" opacity="1.000000" stroke="none" 
	d="
M1.000000,99.468658 
	C1.607134,98.893799 2.214267,98.787598 3.327553,98.382950 
	C10.130585,104.221329 16.383169,110.404793 22.757418,116.460175 
	C24.236259,117.865036 26.129999,118.833145 27.832825,120.002220 
	C29.107788,133.895157 31.152941,147.626923 37.187603,160.396423 
	C38.835075,163.882507 40.912903,167.182236 42.984184,170.446289 
	C45.117470,173.808090 45.445450,176.990707 42.541073,179.985123 
	C38.949390,183.688141 35.373447,187.422653 31.559881,190.889648 
	C27.782873,194.323456 23.530121,193.483047 20.982550,189.027603 
	C13.519087,175.974762 6.774797,162.611908 3.360185,147.820572 
	C2.937001,145.987427 2.259968,144.212891 1.350283,142.705597 
	C1.000000,128.645767 1.000000,114.291542 1.000000,99.468658 
z"/>
<path fill="#79EBC5" opacity="1.000000" stroke="none" 
	d="
M144.536819,1.000001 
	C145.333908,1.647350 145.589401,2.803597 146.013000,2.868860 
	C164.701355,5.748229 180.784088,14.499746 196.092224,24.992628 
	C197.434174,25.912472 198.498322,27.227072 199.778534,28.249306 
	C206.830307,33.880077 206.972534,36.531059 200.518707,43.009708 
	C195.938583,47.607456 191.365387,52.212128 186.127045,56.895020 
	C183.653244,55.336803 181.828140,53.711754 180.032272,52.055004 
	C174.976089,47.390476 169.931931,42.712898 164.883026,38.040470 
	C164.883026,38.040470 164.432083,37.988720 164.211166,37.562569 
	C163.048767,35.646255 162.329712,33.940063 161.127914,32.702747 
	C155.454971,26.862125 149.486710,21.301588 143.944901,15.342533 
	C139.714203,10.793306 135.963959,5.797273 132.000000,1.000001 
	C136.024551,1.000000 140.049088,1.000000 144.536819,1.000001 
z"/>
<path fill="#9E9BF7" opacity="1.000000" stroke="none" 
	d="
M101.468536,241.000000 
	C100.502281,240.337814 100.134857,239.330154 99.480461,239.083359 
	C97.993095,238.522385 96.364700,238.335342 94.355042,237.581497 
	C86.253746,228.962280 78.641914,220.709564 70.913147,212.567856 
	C63.993492,205.278458 56.945030,198.111313 49.953396,190.890244 
	C54.746361,185.969543 59.539326,181.048828 64.683594,176.345825 
	C65.318405,177.149948 65.481041,177.848038 65.903877,178.305786 
	C70.828362,183.636978 75.750877,188.971603 80.785622,194.197708 
	C81.630836,195.075043 83.006699,195.441132 84.137367,196.043442 
	C82.143257,198.220963 80.149139,200.398483 77.624641,203.155167 
	C83.414276,205.471939 88.861832,207.651825 94.696465,210.339828 
	C96.387115,212.730011 97.460243,214.836151 99.034416,216.455093 
	C105.632736,223.241058 112.418777,229.844269 119.040382,236.608078 
	C120.255013,237.848770 121.024857,239.524872 122.000000,241.000000 
	C115.312355,241.000000 108.624710,241.000000 101.468536,241.000000 
z"/>
<path fill="#77E9CB" opacity="1.000000" stroke="none" 
	d="
M131.531342,1.000001 
	C135.963959,5.797273 139.714203,10.793306 143.944901,15.342533 
	C149.486710,21.301588 155.454971,26.862125 161.127914,32.702747 
	C162.329712,33.940063 163.048767,35.646255 163.995514,37.491890 
	C151.631348,31.910843 138.663773,28.345690 124.439133,27.552942 
	C123.521896,26.115475 123.281525,24.885998 122.550476,24.132725 
	C117.064751,18.480291 111.356873,13.037779 106.010353,7.259546 
	C104.507393,5.635222 103.976677,3.111292 103.000000,0.999999 
	C112.354225,1.000000 121.708458,1.000000 131.531342,1.000001 
z"/>
<path fill="#979FF8" opacity="1.000000" stroke="none" 
	d="
M122.467941,241.000000 
	C121.024857,239.524872 120.255013,237.848770 119.040382,236.608078 
	C112.418777,229.844269 105.632736,223.241058 99.034416,216.455093 
	C97.460243,214.836151 96.387115,212.730011 95.041565,210.506897 
	C104.691139,211.116638 114.382683,212.067413 124.578896,213.432831 
	C127.779633,217.122238 130.393661,220.469040 133.190979,223.654892 
	C137.392838,228.440353 141.723145,233.113007 145.998825,237.833633 
	C143.805389,238.667923 141.611954,239.502197 139.709259,240.668243 
	C134.311951,241.000000 128.623917,241.000000 122.467941,241.000000 
z"/>
<path fill="#76E7CF" opacity="1.000000" stroke="none" 
	d="
M102.583344,0.999999 
	C103.976677,3.111292 104.507393,5.635222 106.010353,7.259546 
	C111.356873,13.037779 117.064751,18.480291 122.550476,24.132725 
	C123.281525,24.885998 123.521896,26.115475 123.994728,27.479023 
	C115.294891,28.895475 106.589828,29.957329 97.423965,30.733585 
	C94.429008,27.693460 91.839767,24.987202 89.373367,22.173277 
	C85.524475,17.782064 81.758865,13.317858 77.957962,8.884581 
	C84.026711,6.921527 90.101616,4.977068 96.157242,2.974340 
	C97.014580,2.690801 97.778084,2.123527 98.292511,1.343789 
	C99.388893,1.000000 100.777779,1.000000 102.583344,0.999999 
z"/>
<path fill="#FFFFFF" opacity="1.000000" stroke="none" 
	d="
M572.748291,148.334259 
	C577.521912,157.134033 582.237000,165.538971 586.578430,174.132690 
	C589.898743,180.705063 588.548767,185.335571 580.080200,185.096176 
	C562.187134,184.590393 566.839172,187.087021 559.035522,171.972305 
	C553.499451,161.249542 548.299805,150.353073 542.957764,139.530243 
	C541.811340,137.207565 540.507629,135.716354 537.371582,135.894287 
	C531.093201,136.250488 524.780457,136.000015 518.000000,136.000015 
	C518.000000,149.073212 518.001282,161.845581 517.999634,174.617950 
	C517.998413,183.794571 516.775208,184.999924 507.479889,184.999985 
	C505.647095,185.000000 503.812561,185.051834 501.981842,184.989975 
	C496.980621,184.820984 495.004181,182.759369 495.003357,177.709457 
	C494.997253,139.554062 494.996948,101.398666 495.003632,63.243271 
	C495.004517,58.225121 497.004730,56.047623 502.028931,56.025795 
	C518.023926,55.956303 534.053894,55.332912 550.006409,56.158909 
	C573.033630,57.351223 590.468994,73.861000 589.842224,97.981888 
	C589.467651,112.396034 581.992065,123.332733 569.601013,130.775208 
	C568.104614,131.673965 566.504395,132.399887 564.507629,133.436829 
	C567.300293,138.514175 569.914734,143.267410 572.748291,148.334259 
M518.731995,116.942284 
	C527.378113,116.961525 536.024536,117.037148 544.670166,116.982498 
	C551.823059,116.937286 558.126221,114.778709 562.624695,108.873459 
	C566.908691,103.249802 568.688965,96.869690 565.880432,90.230339 
	C563.168884,83.820335 557.975830,78.800201 551.075562,78.237343 
	C540.226746,77.352432 529.252747,78.002281 518.056274,78.002281 
	C518.056274,91.053864 518.056274,103.652893 518.731995,116.942284 
z"/>
<path fill="#FFFFFF" opacity="1.000000" stroke="none" 
	d="
M387.275604,152.932343 
	C390.824219,151.145523 393.522827,151.653351 395.941467,154.359924 
	C397.712494,156.341766 399.690216,158.138123 401.560547,160.032227 
	C404.908783,163.422913 404.934113,167.171753 401.357117,170.111710 
	C390.146576,179.325729 377.750549,185.213623 362.834442,186.169876 
	C345.820984,187.260605 330.601257,183.387924 317.203766,172.977859 
	C302.891998,161.857468 294.384216,147.421997 291.848083,129.192810 
	C290.151978,117.001686 291.998474,105.737411 296.737274,94.604630 
	C304.190887,77.094055 316.838867,65.168205 334.680756,58.755211 
	C351.976410,52.538544 369.216919,53.099102 385.902222,60.605896 
	C391.543671,63.144009 396.440063,67.401001 401.535706,71.068733 
	C405.374084,73.831497 404.647522,77.261299 402.011719,80.368629 
	C399.760498,83.022568 397.481079,85.957611 394.562012,87.630280 
	C392.688141,88.704041 388.975067,88.679131 387.220764,87.483017 
	C379.841614,82.451859 372.357941,78.396210 363.297424,76.812325 
	C351.891266,74.818405 341.908325,78.090569 333.336823,84.513985 
	C321.618866,93.295357 314.661194,105.630470 315.155975,120.575302 
	C315.862457,141.916183 328.654022,159.417343 351.190247,163.754379 
	C364.383545,166.293381 376.584442,161.910919 387.275604,152.932343 
z"/>
<path fill="#FFFFFF" opacity="1.000000" stroke="none" 
	d="
M697.918884,160.008514 
	C701.528564,157.823715 704.682678,155.566315 707.987427,153.556686 
	C711.473022,151.437042 714.925476,150.755280 718.038086,154.459976 
	C719.638672,156.365173 721.531799,158.024490 723.292175,159.795593 
	C726.879395,163.404678 727.264099,166.583740 723.579712,169.831284 
	C713.040771,179.120682 701.009949,185.006775 686.668091,186.125397 
	C677.983887,186.802750 669.522461,186.357178 661.259705,183.942917 
	C645.075989,179.214340 632.360901,169.696091 623.094910,155.517242 
	C616.537964,145.483810 613.573059,134.191742 613.220520,122.604965 
	C612.763977,107.597542 617.271545,93.623169 626.204529,81.301453 
	C636.740051,66.769058 651.311829,58.004539 668.621460,55.441559 
	C688.832703,52.448944 707.872314,56.471676 723.590698,70.987869 
	C727.055054,74.187241 726.656006,77.252556 724.015442,80.364372 
	C721.762573,83.019302 719.458435,85.878197 716.566711,87.651665 
	C714.805237,88.731979 711.047302,88.955948 709.628662,87.797707 
	C701.771484,81.382950 692.847900,77.289772 682.995056,76.203583 
	C672.875977,75.088043 663.223938,78.326767 655.261780,84.473747 
	C643.607178,93.471344 636.722107,105.886795 637.206848,120.645485 
	C638.081543,147.279114 658.799133,166.861145 686.250916,163.870911 
	C690.103699,163.451202 693.774475,161.361511 697.918884,160.008514 
z"/>
<path fill="#FFFFFF" opacity="1.000000" stroke="none" 
	d="
M778.000000,92.000000 
	C778.000000,116.127274 778.000000,139.754547 778.000000,163.754700 
	C779.578979,163.841980 781.008484,163.987732 782.438110,163.989609 
	C795.758301,164.007156 809.079346,164.085129 822.398132,163.948318 
	C826.413513,163.907074 829.169189,165.352997 829.669434,169.341354 
	C830.098022,172.758926 830.052979,176.310928 829.652222,179.737381 
	C829.211243,183.507462 826.667358,185.053711 822.817017,185.038116 
	C802.670593,184.956436 782.523560,185.025558 762.376892,184.982681 
	C757.103394,184.971451 755.017883,182.841888 755.014099,177.495819 
	C754.987549,139.533295 754.988953,101.570724 755.012207,63.608189 
	C755.015625,58.069633 757.131348,56.071491 762.772278,56.000259 
	C778.933533,55.796181 778.289673,55.965240 778.020691,71.020683 
	C777.898743,77.845070 778.000000,84.673439 778.000000,92.000000 
z"/>
<path fill="#FFFFFF" opacity="1.000000" stroke="none" 
	d="
M433.000000,127.000000 
	C433.000000,105.865356 432.995728,85.230713 433.002441,64.596069 
	C433.004669,57.776939 434.818878,56.012272 441.773987,56.000000 
	C456.000000,55.974892 456.000000,55.974895 456.000000,70.127014 
	C456.000000,105.405602 456.001129,140.684189 455.999146,175.962769 
	C455.998718,183.283295 454.325500,184.908920 447.168182,185.016632 
	C432.300140,185.240387 432.775696,184.448822 432.956390,170.932053 
	C433.149872,156.457092 433.000000,141.977539 433.000000,127.000000 
z"/>
<path fill="#60BFFF" opacity="1.000000" stroke="none" 
	d="
M213.876846,120.048340 
	C213.251938,114.943878 212.792755,109.812500 211.968781,104.740387 
	C210.056915,92.971748 205.994568,81.993202 199.463379,71.962616 
	C195.991196,66.630051 196.184448,65.341225 200.869736,60.640221 
	C204.039764,57.459557 207.188675,54.257065 210.400406,51.118961 
	C213.988327,47.613300 218.348373,48.220272 220.867783,52.420513 
	C227.855789,64.070717 233.716110,76.170815 237.143372,89.425308 
	C241.044815,104.513763 242.277832,119.689133 240.065186,135.135666 
	C239.807602,136.933884 239.900925,138.782379 239.102356,140.810104 
	C237.463028,140.704163 236.298431,140.653839 235.682526,140.046799 
	C230.182632,134.626160 224.847336,129.037369 219.303894,123.662811 
	C217.769272,122.174957 215.700516,121.238037 213.876846,120.048340 
z"/>
<path fill="#75E6D2" opacity="1.000000" stroke="none" 
	d="
M164.522415,78.779602 
	C160.803467,82.218712 157.324860,85.992958 153.240326,88.922287 
	C151.730850,90.004837 148.536713,89.758682 146.556580,88.982109 
	C139.276581,86.127007 132.575943,81.601425 124.333794,81.708565 
	C121.171730,81.749672 118.010948,81.888618 114.382629,81.574921 
	C111.366547,78.367325 108.741211,75.632790 106.285919,72.753258 
	C102.464676,68.271736 98.758987,63.691689 95.004333,59.153397 
	C111.557144,52.364178 128.296799,51.933937 145.720703,58.102242 
	C147.642776,60.344746 148.942749,62.273350 150.503708,63.960491 
	C155.121323,68.951347 159.842026,73.846825 164.522415,78.779602 
z"/>
<path fill="#6FDFE5" opacity="1.000000" stroke="none" 
	d="
M84.833450,107.002083 
	C81.825081,114.972305 81.013489,122.984146 83.608498,131.309128 
	C84.824921,135.211533 84.449471,138.955643 80.705940,141.950348 
	C77.473953,144.535828 74.779709,147.788956 71.812500,150.711136 
	C67.706947,154.754379 62.636921,154.112183 60.435154,148.772995 
	C55.963249,137.928787 53.264706,126.930084 54.686588,114.769394 
	C55.848392,104.833023 58.843719,95.896507 63.672173,87.396896 
	C70.027176,93.852013 75.985191,100.146385 82.054413,106.331650 
	C82.620529,106.908600 83.890358,106.795036 84.833450,107.002083 
z"/>
<path fill="#6FDFE6" opacity="1.000000" stroke="none" 
	d="
M27.908264,119.577072 
	C26.129999,118.833145 24.236259,117.865036 22.757418,116.460175 
	C16.383169,110.404793 10.130585,104.221329 3.500352,98.043716 
	C5.113888,90.747795 6.281109,83.158981 9.206933,76.322830 
	C12.786315,67.959656 17.839582,60.227299 22.858271,52.271519 
	C29.678627,58.894897 35.896252,65.468933 42.113876,72.042969 
	C39.412075,77.828209 35.887360,83.384087 34.196411,89.451065 
	C31.486694,99.173302 29.991962,109.234169 27.908264,119.577072 
z"/>
<path fill="#72E3DB" opacity="1.000000" stroke="none" 
	d="
M84.911819,106.637924 
	C83.890358,106.795036 82.620529,106.908600 82.054413,106.331650 
	C75.985191,100.146385 70.027176,93.852013 63.997696,87.235519 
	C68.580872,77.600197 75.845695,70.726181 84.253830,64.983856 
	C87.433388,62.812382 90.935684,61.113449 94.647598,59.176254 
	C98.758987,63.691689 102.464676,68.271736 106.285919,72.753258 
	C108.741211,75.632790 111.366547,78.367325 113.956505,81.500237 
	C107.329865,84.507240 100.127434,86.342018 95.355331,92.259865 
	C91.711311,96.778786 88.431831,101.591660 84.911819,106.637924 
z"/>
<path fill="#72E2DC" opacity="1.000000" stroke="none" 
	d="
M42.432045,71.909073 
	C35.896252,65.468933 29.678627,58.894897 23.176807,52.135193 
	C28.781780,45.001038 34.518887,37.914650 40.634384,31.171429 
	C43.107471,28.444490 46.406864,26.466940 49.678818,24.341858 
	C56.367783,31.059752 62.708160,37.584156 69.048538,44.108562 
	C65.027679,47.577061 60.663681,50.726334 57.068413,54.590782 
	C51.997429,60.041443 47.495457,66.021477 42.432045,71.909073 
z"/>
<path fill="#8EA4FA" opacity="1.000000" stroke="none" 
	d="
M133.060593,186.123322 
	C124.842384,188.604752 116.537399,187.651779 108.256485,186.637177 
	C106.073364,186.369690 103.956673,185.559998 101.399689,184.561844 
	C93.948631,176.397354 86.907341,168.670319 79.866058,160.943268 
	C80.382866,160.315933 80.840721,159.626602 81.425377,159.070602 
	C89.329384,151.554092 89.540771,147.087585 102.122681,155.487259 
	C104.312424,156.949127 107.198502,157.367950 109.678162,158.787704 
	C110.433487,160.742508 111.052780,162.379776 112.149673,163.580902 
	C119.060944,171.148956 126.078293,178.620132 133.060593,186.123322 
z"/>
<path fill="#A497F7" opacity="1.000000" stroke="none" 
	d="
M49.642532,191.022156 
	C56.945030,198.111313 63.993492,205.278458 70.913147,212.567856 
	C78.641914,220.709564 86.253746,228.962280 93.957962,237.499985 
	C87.424469,235.902145 80.715805,234.332779 74.302818,231.963196 
	C61.645557,227.286377 50.767422,219.468216 40.038330,211.485245 
	C36.794239,209.071472 36.518574,204.159073 39.504776,201.002167 
	C42.690475,197.634399 46.048740,194.429855 49.642532,191.022156 
z"/>
<path fill="#74E5D5" opacity="1.000000" stroke="none" 
	d="
M69.375732,43.965439 
	C62.708160,37.584156 56.367783,31.059752 49.985565,24.179129 
	C59.025803,18.877941 68.107880,13.932969 77.573959,8.936289 
	C81.758865,13.317858 85.524475,17.782064 89.373367,22.173277 
	C91.839767,24.987202 94.429008,27.693460 97.007812,30.803112 
	C87.935944,35.379597 78.819427,39.600960 69.375732,43.965439 
z"/>
<path fill="#77E9CB" opacity="1.000000" stroke="none" 
	d="
M164.664307,78.685028 
	C159.842026,73.846825 155.121323,68.951347 150.503708,63.960491 
	C148.942749,62.273350 147.642776,60.344746 146.088745,58.207741 
	C152.233627,51.492535 158.513306,45.096081 164.838013,38.370049 
	C169.931931,42.712898 174.976089,47.390476 180.032272,52.055004 
	C181.828140,53.711754 183.653244,55.336803 185.822098,57.022331 
	C179.705353,63.636066 173.231506,70.203789 166.180481,77.028488 
	C165.376923,77.613792 165.150574,77.942123 164.924225,78.270454 
	C164.924225,78.270454 164.806213,78.590446 164.664307,78.685028 
z"/>
<path fill="#69B9FE" opacity="1.000000" stroke="none" 
	d="
M213.918945,120.468262 
	C215.700516,121.238037 217.769272,122.174957 219.303894,123.662811 
	C224.847336,129.037369 230.182632,134.626160 235.682526,140.046799 
	C236.298431,140.653839 237.463028,140.704163 238.746094,141.027252 
	C236.666718,149.932144 234.214401,158.822464 231.126801,167.737671 
	C223.644394,160.801468 216.797287,153.840347 209.950180,146.879227 
	C211.287140,138.215546 212.624100,129.551865 213.918945,120.468262 
z"/>
<path fill="#71B5FD" opacity="1.000000" stroke="none" 
	d="
M187.835541,123.999847 
	C186.221878,131.072815 184.608200,138.145798 182.565323,145.601883 
	C180.533173,144.932404 178.737061,144.085297 177.360779,142.791565 
	C171.460922,137.245544 165.684677,131.568008 159.863373,125.938416 
	C159.294388,120.448822 158.893356,114.934975 158.105118,109.477043 
	C157.433121,104.824097 158.581100,101.066154 162.647461,98.385315 
	C163.871109,100.124023 164.500305,101.875374 165.679672,103.094528 
	C171.300385,108.904892 177.026947,114.615448 182.817825,120.256844 
	C184.299606,121.700371 186.152924,122.762497 187.835541,123.999847 
z"/>
<path fill="#87A8FA" opacity="1.000000" stroke="none" 
	d="
M133.469971,186.068954 
	C126.078293,178.620132 119.060944,171.148956 112.149673,163.580902 
	C111.052780,162.379776 110.433487,160.742508 109.854034,159.126495 
	C118.292679,160.365997 126.404442,160.832596 134.660172,157.552307 
	C141.426224,164.571793 147.768448,171.309509 154.110687,178.047226 
	C148.400528,183.327682 141.086319,184.535004 133.469971,186.068954 
z"/>
<path fill="#95A0F9" opacity="1.000000" stroke="none" 
	d="
M79.560112,161.071320 
	C86.907341,168.670319 93.948631,176.397354 100.995544,184.479813 
	C98.303772,183.345581 96.210388,183.963806 94.146355,186.265350 
	C91.171608,189.582397 87.896149,192.629745 84.443192,195.917816 
	C83.006699,195.441132 81.630836,195.075043 80.785622,194.197708 
	C75.750877,188.971603 70.828362,183.636978 65.903877,178.305786 
	C65.481041,177.848038 65.318405,177.149948 64.994034,176.209503 
	C69.720177,170.970139 74.487175,166.084747 79.560112,161.071320 
z"/>
<path fill="#90A3F9" opacity="1.000000" stroke="none" 
	d="
M146.406784,237.907364 
	C141.723145,233.113007 137.392838,228.440353 133.190979,223.654892 
	C130.393661,220.469040 127.779633,217.122238 125.041618,213.506378 
	C132.409439,211.868774 139.819214,210.572266 147.656006,209.553711 
	C149.339859,211.338928 150.515808,212.923340 151.867706,214.339813 
	C157.230881,219.959061 162.649048,225.525787 168.046829,231.111984 
	C160.969467,233.401688 153.892105,235.691391 146.406784,237.907364 
z"/>
<path fill="#78B1FC" opacity="1.000000" stroke="none" 
	d="
M159.516357,126.129929 
	C165.684677,131.568008 171.460922,137.245544 177.360779,142.791565 
	C178.737061,144.085297 180.533173,144.932404 182.491531,145.987122 
	C178.808151,152.256409 174.769348,158.523590 170.110657,164.776489 
	C163.289429,158.493042 157.088074,152.223862 150.886719,145.954681 
	C154.441132,139.745026 158.912521,133.922226 159.516357,126.129929 
z"/>
<path fill="#80ACFB" opacity="1.000000" stroke="none" 
	d="
M150.578384,146.081024 
	C157.088074,152.223862 163.289429,158.493042 169.799500,164.905258 
	C165.015015,169.364075 159.921844,173.679840 154.469681,178.021423 
	C147.768448,171.309509 141.426224,164.571793 135.042572,157.500214 
	C140.090790,153.513367 145.180420,149.860367 150.578384,146.081024 
z"/>
<path fill="#71B5FD" opacity="1.000000" stroke="none" 
	d="
M209.608551,147.057343 
	C216.797287,153.840347 223.644394,160.801468 230.800262,167.905670 
	C228.325760,173.620361 225.542511,179.191971 222.085754,184.862396 
	C220.012650,183.878601 218.474777,182.933548 217.237610,181.689423 
	C212.071106,176.493820 206.994949,171.208389 201.885666,165.955887 
	C204.346085,159.715744 206.806519,153.475616 209.608551,147.057343 
z"/>
<path fill="#89A7FA" opacity="1.000000" stroke="none" 
	d="
M168.414948,231.058304 
	C162.649048,225.525787 157.230881,219.959061 151.867706,214.339813 
	C150.515808,212.923340 149.339859,211.338928 148.041443,209.498276 
	C154.099976,206.502258 160.200134,203.839661 166.671417,201.384827 
	C167.435501,202.295685 167.712433,203.103821 168.239288,203.685623 
	C173.819229,209.847687 179.438965,215.973724 185.047729,222.109680 
	C179.626175,225.074661 174.204620,228.039642 168.414948,231.058304 
z"/>
<path fill="#77B2FC" opacity="1.000000" stroke="none" 
	d="
M201.564362,166.093933 
	C206.994949,171.208389 212.071106,176.493820 217.237610,181.689423 
	C218.474777,182.933548 220.012650,183.878601 221.764282,185.002045 
	C218.996689,189.613068 215.877060,194.183243 212.096191,198.861084 
	C204.939896,192.606461 198.444855,186.244186 191.949814,179.881912 
	C195.047562,175.331940 198.145309,170.781952 201.564362,166.093933 
z"/>
<path fill="#6AB9FE" opacity="1.000000" stroke="none" 
	d="
M187.908691,123.554398 
	C186.152924,122.762497 184.299606,121.700371 182.817825,120.256844 
	C177.026947,114.615448 171.300385,108.904892 165.679672,103.094528 
	C164.500305,101.875374 163.871109,100.124023 162.973572,98.244324 
	C165.336578,95.371590 167.595993,92.744980 170.118240,90.401260 
	C174.614532,86.223213 179.331253,87.045883 181.812439,92.535759 
	C186.194977,102.232521 187.814590,112.536102 187.908691,123.554398 
z"/>
<path fill="#7DAEFB" opacity="1.000000" stroke="none" 
	d="
M191.635162,180.017715 
	C198.444855,186.244186 204.939896,192.606461 211.788376,199.012726 
	C207.987762,203.330658 203.833710,207.604584 199.224152,211.694153 
	C192.473831,204.991089 186.179016,198.472366 179.884216,191.953644 
	C183.696320,188.020279 187.508423,184.086899 191.635162,180.017715 
z"/>
<path fill="#83AAFB" opacity="1.000000" stroke="none" 
	d="
M179.568420,192.088165 
	C186.179016,198.472366 192.473831,204.991089 198.910065,211.820892 
	C194.598953,215.363770 190.146439,218.595581 185.370850,221.968536 
	C179.438965,215.973724 173.819229,209.847687 168.239288,203.685623 
	C167.712433,203.103821 167.435501,202.295685 167.001862,201.236237 
	C171.058334,197.994156 175.155502,195.108429 179.568420,192.088165 
z"/>
<path fill="#75E6D2" opacity="1.000000" stroke="none" 
	d="
M165.210480,78.155029 
	C165.150574,77.942123 165.376923,77.613792 165.881149,77.167130 
	C165.938248,77.379059 165.717484,77.709328 165.210480,78.155029 
z"/>
<path fill="#000000" opacity="1.000000" stroke="none" 
	d="
M518.394165,116.597107 
	C518.056274,103.652893 518.056274,91.053864 518.056274,78.002281 
	C529.252747,78.002281 540.226746,77.352432 551.075562,78.237343 
	C557.975830,78.800201 563.168884,83.820335 565.880432,90.230339 
	C568.688965,96.869690 566.908691,103.249802 562.624695,108.873459 
	C558.126221,114.778709 551.823059,116.937286 544.670166,116.982498 
	C536.024536,117.037148 527.378113,116.961525 518.394165,116.597107 
z"/>
</svg>