<svg width="111" height="28" viewBox="0 0 111 28" fill="none" xmlns="http://www.w3.org/2000/svg">
<path d="M31.9472 16.1719C31.9472 16.3655 31.7842 16.5284 31.5805 16.5284H24.8278C25.0009 18.1988 26.2537 19.7265 28.0259 19.7265C29.2379 19.7265 30.1342 19.2682 30.8064 18.3006C30.8777 18.1988 30.9796 18.1275 31.1018 18.1275C31.2953 18.1275 31.4379 18.2701 31.4379 18.4636C31.4379 18.5349 31.4176 18.5858 31.387 18.6367C30.7046 19.8182 29.35 20.3988 28.0259 20.3988C25.7546 20.3988 24.125 18.3617 24.125 16.1923C24.125 14.0127 25.7444 11.9858 28.0259 11.9858C30.2972 11.9858 31.937 14.0025 31.9472 16.1719ZM31.224 15.8562C31.0814 14.1858 29.7981 12.6581 28.0259 12.6581C26.2537 12.6581 25.0009 14.1858 24.8278 15.8562H31.224ZM40.1462 12.1488C40.3397 12.1488 40.4823 12.322 40.4823 12.4849C40.4823 12.6784 40.3397 12.821 40.1462 12.821H38.3333V19.9404C38.3333 20.1136 38.1907 20.2765 37.9972 20.2765C37.8036 20.2765 37.661 20.1034 37.661 19.9404V12.821H35.9194C35.7259 12.821 35.5833 12.6784 35.5833 12.4849C35.5833 12.3118 35.7259 12.1488 35.9194 12.1488H37.661V9.5516C37.661 9.37845 37.7934 9.21549 37.9666 9.19512C38.1805 9.17475 38.3434 9.32753 38.3434 9.53123V12.1488H40.1462ZM51.2073 15.5914V19.8997C51.2073 20.0932 51.0341 20.2358 50.8712 20.2358C50.6776 20.2358 50.5351 20.0932 50.5351 19.8997V15.5914C50.5351 14.1349 49.7101 12.6886 48.0906 12.6886C46.0129 12.6886 45.1166 14.5016 45.2388 16.3655C45.2388 16.4164 45.2592 16.6303 45.2592 16.6608V19.8895C45.2592 20.0627 45.1267 20.2256 44.9536 20.246C44.7397 20.2664 44.5767 20.1136 44.5767 19.9099V5.74236C44.5767 5.56921 44.7193 5.40625 44.9129 5.40625C45.1064 5.40625 45.249 5.5794 45.249 5.74236V13.7479C45.8295 12.709 46.8684 12.0062 48.0804 12.0062C50.0767 12.0062 51.2073 13.7479 51.2073 15.5914ZM63.3378 16.1719C63.3378 16.3655 63.1748 16.5284 62.9711 16.5284H56.2184C56.3915 18.1988 57.6443 19.7265 59.4165 19.7265C60.6285 19.7265 61.5248 19.2682 62.197 18.3006C62.2683 18.1988 62.3702 18.1275 62.4924 18.1275C62.6859 18.1275 62.8285 18.2701 62.8285 18.4636C62.8285 18.5349 62.8081 18.5858 62.7776 18.6367C62.0952 19.8182 60.7406 20.3988 59.4165 20.3988C57.1452 20.3988 55.5156 18.3617 55.5156 16.1923C55.5156 14.0127 57.135 11.9858 59.4165 11.9858C61.6776 11.9858 63.3174 14.0025 63.3378 16.1719ZM62.6044 15.8562C62.4618 14.1858 61.1785 12.6581 59.4063 12.6581C57.6443 12.6581 56.3813 14.1858 56.2082 15.8562H62.6044ZM71.6285 12.4645C71.6285 12.6784 71.5062 12.8007 71.3127 12.8312C69.3266 13.1266 68.4303 14.746 68.4303 16.6303V19.859C68.4303 20.0321 68.2979 20.1951 68.1248 20.2154C67.9109 20.2358 67.7479 20.083 67.7479 19.8793V12.5155C67.7479 12.3423 67.8803 12.1794 68.0535 12.159C68.2674 12.1386 68.4303 12.2914 68.4303 12.4951V13.9923C68.9905 13.0451 70.1007 12.1488 71.2618 12.1488C71.4349 12.1488 71.6285 12.271 71.6285 12.4645ZM82.7404 16.1719C82.7404 16.3655 82.5775 16.5284 82.3738 16.5284H75.621C75.7942 18.1988 77.047 19.7265 78.8192 19.7265C80.0312 19.7265 80.9275 19.2682 81.5997 18.3006C81.671 18.1988 81.7728 18.1275 81.8951 18.1275C82.0886 18.1275 82.2312 18.2701 82.2312 18.4636C82.2312 18.5349 82.2108 18.5858 82.1803 18.6367C81.4979 19.8182 80.1432 20.3988 78.8192 20.3988C76.5479 20.3988 74.9183 18.3617 74.9183 16.1923C74.9183 14.0127 76.5377 11.9858 78.8192 11.9858C81.0904 11.9858 82.7303 14.0025 82.7404 16.1719ZM82.0173 15.8562C81.8747 14.1858 80.5914 12.6581 78.8192 12.6581C77.047 12.6581 75.7942 14.1858 75.621 15.8562H82.0173ZM93.6589 12.546V19.9404C93.6589 20.134 93.4858 20.2765 93.3228 20.2765C93.1293 20.2765 92.9867 20.134 92.9867 19.9404V18.5349C92.4265 19.6451 91.4385 20.4497 90.1756 20.4497C88.1691 20.4497 87.0589 18.708 87.0589 16.8645V12.5358C87.0589 12.3627 87.2015 12.1997 87.395 12.1997C87.5886 12.1997 87.7312 12.3729 87.7312 12.5358V16.8645C87.7312 18.321 88.5562 19.7673 90.1756 19.7673C92.4469 19.7673 92.9867 17.6386 92.9867 15.2858V12.5257C92.9867 12.322 93.2006 12.1183 93.445 12.2099C93.5672 12.271 93.6589 12.4034 93.6589 12.546ZM110.76 15.5608V19.8895C110.76 20.083 110.587 20.2256 110.424 20.2256C110.23 20.2256 110.088 20.083 110.088 19.8895V15.5608C110.088 14.1044 109.263 12.6784 107.643 12.6784C105.606 12.6784 104.832 14.8581 104.832 16.5488V19.8895C104.832 20.083 104.659 20.2256 104.496 20.2256C104.302 20.2256 104.16 20.083 104.16 19.8895V15.5608C104.16 14.1044 103.335 12.6784 101.715 12.6784C99.658 12.6784 98.8126 14.2979 98.8839 16.4571C98.8839 16.508 98.9042 16.5997 98.8839 16.6303V19.8793C98.8839 20.0525 98.7515 20.2154 98.5783 20.2358C98.3644 20.2562 98.2015 20.1034 98.2015 19.8997V12.5155C98.2015 12.3423 98.3339 12.1794 98.507 12.159C98.7209 12.1386 98.8839 12.2914 98.8839 12.4951V13.7275C99.4644 12.6886 100.503 12.0062 101.715 12.0062C103.09 12.0062 104.16 12.8821 104.598 14.1553C105.158 12.8923 106.248 12.0062 107.643 12.0062C109.629 12.0062 110.76 13.7275 110.76 15.5608Z" fill="white"/>
<path opacity="0.6" d="M9.21343 19.3485L17.6773 14.3476L9.21343 10.5078L0.759766 14.3476L9.21343 19.3485Z" fill="white"/>
<path opacity="0.45" d="M9.21343 10.5078V0.3125L0.759766 14.3476L9.21343 19.3485V10.5078Z" fill="white"/>
<path opacity="0.8" d="M9.21484 19.3485L17.6787 14.3476L9.21484 0.3125V10.5078V19.3485Z" fill="white"/>
<path opacity="0.45" d="M9.21343 20.9477L0.759766 15.957L9.21343 27.8736V20.9477Z" fill="white"/>
<path opacity="0.8" d="M17.6787 15.957L9.21484 20.9477V27.8736L17.6787 15.957Z" fill="white"/>
</svg>
