<svg width="518" height="95" viewBox="0 0 518 95" fill="none" xmlns="http://www.w3.org/2000/svg">
<path fill-rule="evenodd" clip-rule="evenodd" d="M417.039 39.8666C413.932 36.3137 409.76 34.4641 404.667 34.4641C399.44 34.4641 395.34 36.6075 392.442 40.8193V20.8594H386.802V73.5101H392.171V67.595C395.069 72.1757 399.236 74.3942 404.677 74.3942C409.76 74.3942 413.932 72.621 417.039 68.9243C420.146 65.2265 421.631 60.4956 421.631 54.4292C421.631 48.3627 420.074 43.5632 417.039 39.8666V39.8666ZM412.436 65.0764C410.289 67.7337 407.502 69.0744 403.971 69.0744H403.959C400.356 69.0744 397.53 67.8151 395.411 65.1514C393.292 62.6391 392.232 59.0162 392.232 54.4292C392.232 49.8421 393.292 46.2205 395.411 43.6332C397.53 41.0445 400.378 39.7915 403.959 39.7915C407.54 39.7915 410.388 41.1196 412.508 43.6332C414.627 46.1455 415.687 49.6984 415.687 54.1353C415.687 58.7224 414.584 62.419 412.436 65.0764V65.0764Z" fill="white"/>
<path fill-rule="evenodd" clip-rule="evenodd" d="M123.9 21.438H157.167V27.0704H129.833V43.2458H154.342V48.8668H129.833V73.4937H123.9V21.438Z" fill="white"/>
<path fill-rule="evenodd" clip-rule="evenodd" d="M177.747 66.856V73.5111H172.668C172.157 73.513 171.65 73.4094 171.176 73.2062C170.703 73.003 170.272 72.7042 169.909 72.3268L164.39 66.5498C164.025 66.1603 163.739 65.6974 163.549 65.1891C163.36 64.6808 163.27 64.1375 163.287 63.592V21.4207H169.144V65.2096C169.147 65.4284 169.192 65.6441 169.276 65.8446C169.359 66.0452 169.48 66.2263 169.631 66.3777C169.782 66.5292 169.96 66.6479 170.155 66.727C170.349 66.8061 170.557 66.844 170.766 66.8387L177.747 66.856V66.856Z" fill="white"/>
<path fill-rule="evenodd" clip-rule="evenodd" d="M211.994 39.9355C210.354 38.1559 208.379 36.7502 206.195 35.8089C204.01 34.8676 201.663 34.4096 199.301 34.4643C194.147 34.4643 189.92 36.3139 186.609 39.9355C183.297 43.5583 181.641 48.3693 181.641 54.4294C181.641 60.4895 183.263 65.3768 186.609 68.9246C189.92 72.6212 194.168 74.3945 199.301 74.3945C204.434 74.3945 208.605 72.6212 211.994 68.9246C215.244 65.3768 216.961 60.4959 216.961 54.4294C216.961 48.3629 215.267 43.5634 211.994 39.9355ZM207.828 65.1516C205.709 67.8153 202.811 69.0747 199.278 69.0747C195.746 69.0747 192.856 67.8153 190.73 65.1516C188.611 62.6393 187.551 59.0165 187.551 54.4294C187.551 49.8423 188.611 46.2208 190.73 43.6334C192.849 41.0447 195.697 39.7917 199.278 39.7917C200.886 39.7358 202.485 40.05 203.962 40.714C205.44 41.378 206.759 42.3753 207.828 43.6334C209.946 46.2208 211.005 49.8487 211.005 54.4294C211.005 59.0101 209.946 62.6393 207.828 65.1516Z" fill="white"/>
<path fill-rule="evenodd" clip-rule="evenodd" d="M309.965 70.6225C307.139 73.1412 303.607 74.3948 299.506 74.3948C294.424 74.3948 290.396 72.6213 287.288 68.924C284.182 65.2268 282.625 60.4956 282.625 54.4298C282.625 48.3639 284.182 43.4884 287.288 39.8661C290.252 36.3134 294.352 34.4648 299.506 34.4648C303.817 34.4648 307.349 35.7242 310.175 38.1621C313 40.5999 314.622 44.0025 315.191 48.2947H309.324C309.019 45.818 307.804 43.5635 305.937 42.0094C304.101 40.5241 301.837 39.7375 299.518 39.7795C297.994 39.7256 296.479 40.0446 295.094 40.7116C293.708 41.3785 292.491 42.3749 291.538 43.6212C289.556 46.14 288.569 49.762 288.569 54.4182C288.569 59.0743 289.556 62.7024 291.538 65.2153C293.519 67.7282 296.201 69.0627 299.518 69.0627C301.877 69.1152 304.179 68.2972 306.019 66.752C307.899 65.1796 309.115 62.8981 309.407 60.3974H315.202C314.556 64.7069 312.79 68.0864 309.965 70.6225V70.6225Z" fill="white"/>
<path fill-rule="evenodd" clip-rule="evenodd" d="M351.575 67.8655C351.323 67.8668 351.083 67.7625 350.903 67.578C350.725 67.3923 350.624 67.1417 350.62 66.8784L350.968 45.5841C350.968 38.1908 346.376 34.4929 337.266 34.4929C327.803 34.4929 322.857 38.7085 322.431 47.1385H328.081C328.225 44.3311 328.999 42.4077 330.411 41.2985C331.824 40.1892 334.087 39.5939 337.266 39.5939C340.235 39.5939 342.281 40.1142 343.551 41.0034C344.82 41.8938 345.46 43.517 345.46 45.5841C345.46 48.693 343.551 50.3912 339.737 50.8364L334.512 51.4139C325.466 52.4532 321.018 56.3699 321.018 63.2441C321.018 66.797 322.15 69.5994 324.406 71.5291C326.664 73.4588 329.848 74.4167 333.877 74.4167C339.23 74.4167 343.181 72.4297 345.72 68.3108C345.814 68.7509 346.029 69.1529 346.338 69.4671L349.649 72.8571C350.096 73.3036 350.687 73.5542 351.304 73.5567H354.731V67.8655H351.575V67.8655ZM345.46 58.4204C345.46 61.9733 344.329 64.637 342.066 66.5082C339.831 68.4011 337.033 69.4136 334.158 69.3678C331.758 69.3678 329.919 68.8488 328.716 67.7396C327.514 66.6304 326.879 65.0759 326.879 63.0826C326.835 62.2048 326.984 61.3271 327.316 60.5194C327.646 59.7116 328.15 58.9929 328.789 58.4204C330.058 57.3888 332.247 56.6497 335.355 56.202L340.653 55.538C342.772 55.3192 344.401 54.7989 345.46 53.9148V58.4204V58.4204Z" fill="white"/>
<path fill-rule="evenodd" clip-rule="evenodd" d="M367.251 42.0901C369.652 37.2085 373.609 34.7649 378.979 34.7649H380.905V40.513H379.493C375.679 40.513 372.781 41.547 370.662 43.4708C368.543 45.3944 367.556 48.202 367.556 51.749V73.4933H361.882V35.3541H367.251V42.0901Z" fill="white"/>
<path fill-rule="evenodd" clip-rule="evenodd" d="M472.542 41.0501C475.301 36.6886 479.115 34.4702 483.987 34.4702C488.01 34.4702 491.161 35.6545 493.452 37.9363C495.742 40.2183 496.84 43.5573 496.84 47.6936V73.5048H491.189V48.2944C491.189 42.6734 488.364 39.7908 482.856 39.7908C481.549 39.781 480.256 40.0511 479.054 40.5848C477.85 41.1183 476.765 41.9038 475.863 42.8929C473.816 44.9669 472.823 47.9998 472.823 51.9165V73.5106H467.171V35.354H472.542V41.0501V41.0501Z" fill="white"/>
<path fill-rule="evenodd" clip-rule="evenodd" d="M456.365 39.8547C454.725 38.0738 452.749 36.6694 450.565 35.7281C448.381 34.7855 446.034 34.3288 443.672 34.3835C438.539 34.3835 434.291 36.2319 430.979 39.8547C427.667 43.4763 426.012 48.2885 426.012 54.3486C426.012 60.4087 427.667 65.2896 430.979 68.8374C434.291 72.534 438.605 74.3137 443.672 74.3137C448.739 74.3137 452.976 72.534 456.365 68.8374C459.638 65.2896 461.332 60.4087 461.332 54.3486C461.332 48.2541 459.638 43.447 456.365 39.8547ZM452.22 65.0708C450.101 67.7282 447.248 68.9875 443.672 68.9875C440.096 68.9875 437.248 67.7282 435.129 65.0708C433.01 62.5521 431.95 58.9293 431.95 54.3486C431.95 49.7272 433.01 46.0636 435.129 43.5513C437.248 41.039 440.073 39.7033 443.672 39.7033C445.279 39.6486 446.878 39.9654 448.356 40.6307C449.833 41.2947 451.153 42.292 452.22 43.5513C454.34 46.14 455.399 49.7666 455.399 54.3486C455.399 58.9306 454.34 62.5521 452.22 65.0708V65.0708Z" fill="white"/>
<path d="M246.351 43.2249L246.367 43.2236Z" fill="white"/>
<path d="M276.535 35.3379V62.826C276.535 69.4344 271.167 74.3916 264.542 74.3916C257.917 74.3916 252.54 69.4687 252.54 62.826L252.525 42.015C252.502 41.3968 252.241 40.8116 251.795 40.3817C251.349 39.953 250.755 39.7126 250.137 39.7126C249.556 39.7126 248.997 39.9237 248.565 40.3028C248.536 40.3283 248.508 40.355 248.48 40.3817C248.452 40.4084 248.425 40.4364 248.398 40.4644C248.347 40.5178 248.3 40.5738 248.256 40.631C248.233 40.659 248.211 40.6883 248.191 40.7188C247.921 41.0966 247.767 41.5456 247.749 42.015L247.766 64.3563C247.783 64.8766 247.693 65.3956 247.503 65.8802C247.311 66.3661 247.023 66.8075 246.655 67.1803L241.242 72.6832C240.508 73.4108 239.514 73.8166 238.481 73.8141H232.847C231.814 73.8154 230.822 73.4083 230.087 72.6832L224.583 67.1803C224.216 66.8075 223.929 66.3661 223.737 65.8802C223.546 65.3956 223.456 64.8766 223.473 64.3563V35.4003H229.341V67.455C229.344 67.6649 229.39 67.8723 229.472 68.0644C229.556 68.2564 229.677 68.4282 229.829 68.5732C229.979 68.7182 230.157 68.8327 230.353 68.9077C230.547 68.9828 230.755 69.0184 230.963 69.0133H240.263C240.472 69.0184 240.679 68.9828 240.873 68.9077C241.069 68.8301 241.247 68.7169 241.398 68.5732C241.549 68.4282 241.67 68.2564 241.754 68.0644C241.837 67.8723 241.881 67.6649 241.885 67.455V42.6956C241.885 38.1937 245.542 34.8164 250.056 34.8164C254.569 34.8164 258.521 38.1708 258.521 42.6956V43.5453L258.523 63.1224C258.582 64.7392 259.012 66.2707 260.178 67.394C261.343 68.5172 262.898 69.1443 264.517 69.1443C266.135 69.1443 267.69 68.5172 268.856 67.394C270.021 66.2707 270.578 64.7392 270.638 63.1224V35.3379H276.535V35.3379Z" fill="white"/>
<circle cx="46.1068" cy="18.3307" r="4.49013" fill="white"/>
<circle cx="46.1068" cy="33.6498" r="4.49013" fill="white"/>
<circle cx="46.1068" cy="61.6469" r="4.49013" fill="white"/>
<circle cx="46.1068" cy="90.1725" r="4.49013" fill="white"/>
<ellipse cx="45.9156" cy="47.912" rx="3.43363" ry="3.43319" fill="white"/>
<circle cx="45.9156" cy="4.06766" r="3.43363" fill="white"/>
<circle cx="59.6162" cy="54.7796" r="3.43363" fill="white"/>
<circle cx="45.9156" cy="75.91" r="3.43363" fill="white"/>
<ellipse cx="59.6162" cy="10.1107" rx="3.43363" ry="3.43319" fill="white"/>
<ellipse cx="73.4864" cy="61.7208" rx="3.43363" ry="3.43319" fill="white"/>
<circle cx="73.4864" cy="16.1543" r="3.43363" fill="white"/>
<circle cx="59.4975" cy="25.1977" r="4.49013" fill="white"/>
<circle cx="59.4975" cy="40.517" r="4.49013" fill="white"/>
<circle cx="73.3676" cy="31.0087" r="4.49013" fill="white"/>
<circle cx="73.3676" cy="46.8556" r="4.49013" fill="white"/>
<circle cx="86.8539" cy="36.8192" r="4.49013" fill="white"/>
<circle cx="86.8539" cy="52.6666" r="4.49013" fill="white"/>
<circle r="3.43363" transform="matrix(-1 0 0 1 31.6796 54.7796)" fill="white"/>
<ellipse rx="3.43363" ry="3.43319" transform="matrix(-1 0 0 1 31.6796 10.1107)" fill="white"/>
<circle r="3.43319" transform="matrix(-1 0 0 1 17.81 61.7208)" fill="white"/>
<circle r="3.43363" transform="matrix(-1 0 0 1 17.8095 16.1543)" fill="white"/>
<circle r="4.49013" transform="matrix(-1 0 0 1 31.9244 25.1977)" fill="white"/>
<circle r="4.49013" transform="matrix(-1 0 0 1 31.9244 40.517)" fill="white"/>
<circle r="4.49013" transform="matrix(-1 0 0 1 18.0528 31.0087)" fill="white"/>
<circle r="4.49013" transform="matrix(-1 0 0 1 18.0528 46.8556)" fill="white"/>
<circle r="4.49013" transform="matrix(-1 0 0 1 4.49034 36.8192)" fill="white"/>
<circle r="4.49013" transform="matrix(-1 0 0 1 4.49034 52.6666)" fill="white"/>
<path d="M509.944 39V31H512.189L513.93 37.0979H513.958L515.726 31H518V39H516.54V32.8741H516.484C516.26 33.7133 516.044 34.4685 515.839 35.1399L514.688 39H513.2L512.049 35.1399L511.432 32.8741H511.375V39H509.944ZM502 32.3147V31H508.625V32.3147H506.098V39H504.526V32.3147H502Z" fill="white"/>
</svg>
