<svg width="120" height="18" viewBox="0 0 120 18" fill="none" xmlns="http://www.w3.org/2000/svg">
<g clip-path="url(#clip0_3066_8805)">
<path d="M2.57879 3.90636V16.9828H0.046875V1.79214C0.046875 0.573946 1.43857 -0.120467 2.41192 0.612018L14.4385 9.66255C14.8093 9.94156 15.0274 10.3786 15.0274 10.8427V16.9828H12.4955V11.3691L2.57879 3.90636Z" fill="#1AAB9B"/>
<path d="M43.4126 2.63477C42.4189 2.63477 41.6133 3.44036 41.6133 4.43413V15.8105H43.9498V5.95419L47.0999 11.0947C47.4586 11.6799 48.0956 12.0367 48.7822 12.0367C49.4669 12.0367 50.1028 11.6816 50.4619 11.0984L53.63 5.95419V15.8105H55.9665V4.35056C55.9665 3.40295 55.1985 2.63477 54.2507 2.63477C53.6422 2.63477 53.0791 2.95712 52.771 3.48197L48.8269 10.2008L44.9702 3.53319C44.6486 2.97716 44.0549 2.63477 43.4126 2.63477Z" fill="#1AAB9B"/>
<path fill-rule="evenodd" clip-rule="evenodd" d="M66.757 2.63477C65.985 2.63477 65.2913 3.10617 65.0068 3.82396L60.2578 15.8105H62.5201L63.9945 12.3612H69.3723L70.8465 15.8105H73.248L68.5078 3.82502C68.2236 3.10667 67.5297 2.63477 66.757 2.63477ZM66.6834 5.33296L68.5564 10.2194H64.8011L66.6834 5.33296Z" fill="#1AAB9B"/>
<path d="M79.5699 8.67093L85.2686 2.94564C85.4667 2.74663 85.736 2.63477 86.0168 2.63477C86.9582 2.63477 87.4288 3.77404 86.7616 4.43831L82.2402 8.93982L88.9068 15.8105H85.8748L79.5699 9.43125V15.8105H77.2332V3.80305C77.2332 3.15782 77.7562 2.63477 78.4014 2.63477C79.0469 2.63477 79.5699 3.15782 79.5699 3.80305V8.67093Z" fill="#1AAB9B"/>
<path d="M93.042 13.7006C93.042 14.8658 93.9866 15.8105 95.1519 15.8105H101.211C101.805 15.8105 102.286 15.3289 102.286 14.7349C102.286 14.1409 101.805 13.6593 101.211 13.6593H95.3878V10.0988H100.701C101.295 10.0988 101.776 9.61728 101.776 9.02327C101.776 8.42924 101.295 7.94769 100.701 7.94769H95.3878V4.7859H101.211C101.805 4.7859 102.286 4.30435 102.286 3.71032C102.286 3.11631 101.805 2.63477 101.211 2.63477H95.1519C93.9866 2.63477 93.042 3.5794 93.042 4.74469V13.7006Z" fill="#1AAB9B"/>
<path fill-rule="evenodd" clip-rule="evenodd" d="M117.815 6.40852C117.815 6.82886 117.762 7.23065 117.657 7.6139C117.559 7.99097 117.398 8.35567 117.175 8.70801C116.959 9.06036 116.659 9.37561 116.276 9.65378C115.899 9.93193 115.451 10.1483 114.931 10.3028L118.909 15.8105H115.868L112.178 10.7015H109.943V15.8105H107.606V4.74469C107.606 3.5794 108.551 2.63477 109.716 2.63477H113.216C113.494 2.63477 113.748 2.64403 113.976 2.66257C114.211 2.67494 114.492 2.71203 114.82 2.77383C115.154 2.82947 115.448 2.90674 115.701 3.00565C115.96 3.10454 116.226 3.24981 116.498 3.44143C116.777 3.63306 117.005 3.85867 117.184 4.1183C117.37 4.37174 117.521 4.69627 117.639 5.09188C117.756 5.48131 117.815 5.9202 117.815 6.40852ZM109.943 4.77662V8.55039H112.094C112.465 8.55039 112.793 8.53803 113.077 8.5133C113.361 8.48857 113.655 8.43912 113.958 8.36495C114.261 8.28459 114.508 8.17641 114.7 8.04042C114.897 7.90444 115.058 7.7159 115.182 7.47482C115.311 7.23374 115.376 6.9494 115.376 6.62179C115.376 5.39168 114.428 4.77662 112.53 4.77662H109.943Z" fill="#1AAB9B"/>
<path d="M29.3746 16.9828V3.90636L19.4579 11.3691V16.9828H16.926V10.8427C16.926 10.3786 17.1441 9.94156 17.5149 9.66255L29.5415 0.612018C30.5148 -0.120467 31.9065 0.573946 31.9065 1.79214V16.9828H29.3746Z" fill="#1AAB9B"/>
</g>
<defs>
<clipPath id="clip0_3066_8805">
<rect width="119" height="16.8794" fill="white" transform="translate(0.046875 0.3125)"/>
</clipPath>
</defs>
</svg>
