<svg width="74" height="18" viewBox="0 0 74 18" fill="none" xmlns="http://www.w3.org/2000/svg">
<path d="M18.7715 8.63855C18.7715 7.22016 18.9757 6.2234 19.5232 5.57894C20.0661 4.94002 20.9721 4.61914 22.4534 4.61914C23.9345 4.61914 24.8483 4.94 25.3984 5.5795C25.9529 6.22407 26.1643 7.22082 26.1643 8.63855C26.1643 10.3326 25.9521 11.4745 25.3945 12.1947C24.8442 12.9054 23.9337 13.2329 22.4534 13.2329C20.9729 13.2329 20.0701 12.9054 19.5271 12.1953C18.9764 11.4751 18.7715 10.3332 18.7715 8.63855ZM22.4534 5.74497C21.3142 5.74497 20.6685 5.96379 20.3275 6.47614C20.1605 6.72718 20.0756 7.03681 20.0309 7.39628C19.9863 7.75557 19.981 8.17585 19.981 8.65298C19.981 9.28093 19.9864 9.8096 20.0306 10.247C20.0748 10.6837 20.1587 11.0419 20.324 11.3235C20.6644 11.9033 21.316 12.1071 22.4534 12.1071C23.5908 12.1071 24.2487 11.9033 24.5966 11.3246C24.7657 11.0431 24.8535 10.6848 24.9005 10.2477C24.9475 9.81003 24.9547 9.28114 24.9547 8.65298C24.9547 8.17549 24.9475 7.75507 24.9001 7.39538C24.8527 7.03551 24.7638 6.72591 24.5929 6.47506C24.2447 5.96388 23.5927 5.74497 22.4534 5.74497Z" fill="white"/>
<path d="M4.63965 13.0468V4.80664H6.30655L10.3584 11.7901V4.80664H11.568V13.0468H9.78494L5.8492 6.26453V13.0468H4.63965Z" fill="white"/>
<path d="M33.2947 13.0468V4.80664H35.1311L36.8024 10.1508L38.4736 4.80664H40.3536V13.0468H39.1586V6.49777L39.0403 6.48011L37.6238 11.2646H36.0909L34.6227 6.48072L34.5042 6.49777V13.0468H33.2947Z" fill="white"/>
<path d="M62.0519 13.0468V4.80664H65.4579C66.7861 4.80664 67.6795 5.16663 68.2442 5.80927C68.8118 6.45529 69.0673 7.40923 69.0673 8.63921C69.0673 10.3641 68.7804 11.4588 68.2038 12.1238C67.6319 12.7833 66.7507 13.0468 65.487 13.0468H62.0519ZM65.5305 5.8606H63.2614V11.9928H65.5305C66.3334 11.9928 66.9317 11.797 67.3196 11.2639C67.699 10.7425 67.8576 9.92202 67.8576 8.7255C67.8576 7.80382 67.701 7.08519 67.323 6.59569C66.9394 6.09902 66.3462 5.8606 65.5305 5.8606Z" fill="white"/>
<path d="M49.9058 4.80664L47.5928 13.0324H48.8375L50.9276 5.8606H51.4436L53.5336 13.0324H54.7784L52.4654 4.80664H49.9058Z" fill="white"/>
</svg>
