<svg width="100" height="22" viewBox="0 0 100 22" fill="none" xmlns="http://www.w3.org/2000/svg">
<path d="M31.5274 3.4375C30.3808 3.4375 29.2757 3.58157 28.8257 3.70336C28.1707 3.88753 28.0073 4.17419 27.884 4.7683L25.2848 16.7618C25.2432 17.0069 25.2031 17.2118 25.2031 17.4168C25.2031 18.0109 25.5923 18.3986 26.2265 18.3986C26.9231 18.3986 27.2097 17.9485 27.3523 17.2519L28.089 13.8343C28.5999 13.8952 29.2757 13.9576 30.2382 13.9576C34.4741 13.9576 37.1149 11.6659 37.1149 8.20668C37.1149 5.17674 35.0059 3.4375 31.5274 3.4375ZM30.1357 11.9926C29.4807 11.9926 28.9683 11.9718 28.4989 11.9109L29.8698 5.54509C30.2991 5.48419 30.9348 5.40102 31.5898 5.40102C33.8414 5.40102 34.988 6.46595 34.988 8.22599C34.9866 10.4776 33.3483 11.9926 30.1357 11.9926Z" fill="white"/>
<path d="M98.2073 14.4479C97.8597 14.4479 97.634 14.6529 97.2047 15.1237C96.4473 15.902 95.9764 16.3313 95.3838 16.3313C94.8521 16.3313 94.5654 15.902 94.5654 15.2054C94.5654 14.8163 94.6471 14.3455 94.7496 13.8345L95.5071 10.2729H97.7795C98.4954 10.2729 98.9262 9.86293 98.9262 9.12624C98.9262 8.71631 98.6603 8.41034 98.0469 8.41034H95.9155L96.2839 6.75279C96.3255 6.50772 96.3656 6.28196 96.3656 6.07699C96.3656 5.50368 95.9764 5.09375 95.3422 5.09375C94.6664 5.09375 94.3605 5.54378 94.2164 6.24037L93.7456 8.41034H92.7831C92.0464 8.41034 91.6172 8.82028 91.6172 9.55697C91.6172 9.9669 91.9038 10.2729 92.5173 10.2729H93.3564L92.5989 13.7929C92.5173 14.1821 92.4148 14.8163 92.4148 15.4713C92.4148 17.1288 93.2747 18.3364 95.1165 18.3364C96.1814 18.3364 97.1216 17.8046 97.839 17.1689C98.5355 16.5555 99.0465 15.798 99.0465 15.3064C99.0465 14.8371 98.6781 14.4479 98.2073 14.4479Z" fill="white"/>
<path d="M51.1348 4.64535C51.1348 4.05125 50.7248 3.66211 50.0906 3.66211C49.4148 3.66211 49.1089 4.11214 48.9648 4.80873L46.4072 16.6997C46.3463 16.9448 46.3047 17.1498 46.3047 17.3548C46.3047 17.9489 46.7146 18.3365 47.328 18.3365C48.0246 18.3365 48.3306 17.8865 48.4747 17.1899L51.0323 5.30035C51.0739 5.0538 51.1348 4.85032 51.1348 4.64535Z" fill="white"/>
<path d="M87.6698 8.20459C84.3948 8.20459 82.1639 11.4588 82.1639 14.5496C82.1639 14.6076 82.1654 14.6655 82.1669 14.7219C81.653 15.5017 80.9965 16.3097 80.5464 16.3097C80.2197 16.3097 80.0964 16.0022 80.0964 15.5314C80.0964 14.9581 80.2598 13.9956 80.444 13.1565L82.1431 5.29645C82.1847 5.05138 82.2248 4.84641 82.2248 4.64145C82.2248 4.04734 81.8356 3.6582 81.2014 3.6582C80.5048 3.6582 80.2197 4.10824 80.0756 4.80483L79.1547 9.06159C78.6631 8.55066 77.9457 8.20162 76.8615 8.20162C74.6871 8.20162 72.4993 9.87552 71.6467 12.4435C70.708 14.8705 69.8689 16.3067 69.2064 16.3067C68.9614 16.3067 68.8173 16.1017 68.8173 15.7542C68.8173 14.7308 69.3906 12.2341 69.6357 11.0266C69.7174 10.5766 69.759 10.3924 69.759 10.1265C69.759 9.22646 68.2648 8.16152 66.3206 8.16152C64.0719 8.16152 62.0356 9.58589 61.0152 11.7009C59.4988 14.3803 58.1071 16.3067 57.4179 16.3067C57.1105 16.3067 57.008 15.9176 56.9263 15.5492L56.4168 12.7287L59.5478 10.1711C59.8344 9.92601 60.2028 9.57698 60.2028 9.12694C60.2028 8.57442 59.8344 8.20608 59.2819 8.20608C58.872 8.20608 58.5244 8.45115 58.1769 8.7378L53.4701 12.6262L55.046 5.29942C55.0875 5.05435 55.1484 4.84938 55.1484 4.64442C55.1484 4.05031 54.7385 3.66117 54.1043 3.66117C53.4285 3.66117 53.1225 4.11121 52.9785 4.8078L50.4208 16.6988C50.3599 16.9439 50.3184 17.1489 50.3184 17.3538C50.3184 17.9479 50.7283 18.3356 51.3417 18.3356C52.0383 18.3356 52.3443 17.8855 52.4883 17.189L52.8166 15.6547L54.74 14.0996L55.2108 16.4731C55.395 17.4147 55.8866 18.3356 57.155 18.3356C58.4175 18.3356 59.4111 17.183 60.4063 15.625C60.7078 17.2573 61.8692 18.3356 63.4793 18.3356C65.0967 18.3356 66.2018 17.3731 66.9177 16.0839V16.1255C66.9177 17.4563 67.5935 18.3356 68.7802 18.3356C69.854 18.3356 70.7452 17.688 71.5413 16.3126C71.9928 17.5113 73.0028 18.3356 74.4078 18.3356C76.0654 18.3356 77.2521 17.333 78.0096 15.9413V16.0646C78.0096 17.538 78.7463 18.3371 79.9538 18.3371C81.0202 18.3371 81.9262 17.7177 82.7001 16.7107C83.2882 17.7177 84.3428 18.3371 85.7671 18.3371C89.0421 18.3371 91.273 15.0828 91.273 11.9712C91.273 9.78046 89.9422 8.20459 87.6698 8.20459ZM67.2652 12.3604C66.6711 14.918 65.4027 16.3721 63.9694 16.3721C63.007 16.3721 62.4752 15.6354 62.4752 14.5303C62.4752 12.3604 64.0511 10.027 66.1587 10.027C66.7929 10.027 67.2845 10.2112 67.7138 10.477L67.2652 12.3604ZM78.6646 11.2761C78.0096 14.2853 76.5154 16.3721 74.8787 16.3721C73.9786 16.3721 73.4454 15.6755 73.4454 14.5303C73.4454 12.3411 74.9604 10.0686 76.9863 10.0686C77.7645 10.0686 78.3572 10.3345 78.7879 10.682L78.6646 11.2761ZM86.0122 16.3721C84.8255 16.3721 84.3339 15.5121 84.3339 14.4278C84.3339 12.4421 85.7048 10.1711 87.4247 10.1711C88.6114 10.1711 89.103 11.0311 89.103 12.1153C89.103 14.1204 87.7321 16.3721 86.0122 16.3721Z" fill="white"/>
<path d="M42.211 8.20508C38.9359 8.20508 36.7051 11.4593 36.7051 14.5501C36.7051 16.7602 38.0359 18.3361 40.3068 18.3361C43.5818 18.3361 45.8127 15.0818 45.8127 11.9702C45.8127 9.78094 44.4819 8.20508 42.211 8.20508ZM40.5534 16.3725C39.3667 16.3725 38.875 15.5126 38.875 14.4283C38.875 12.4425 40.2459 10.1716 41.9659 10.1716C43.1526 10.1716 43.6442 11.0315 43.6442 12.1158C43.6427 14.1209 42.2718 16.3725 40.5534 16.3725Z" fill="white"/>
<path d="M10.9606 4.70591C13.0466 4.70591 14.7376 3.72241 14.7376 2.5092C14.7376 1.296 13.0466 0.3125 10.9606 0.3125C8.87462 0.3125 7.18359 1.296 7.18359 2.5092C7.18359 3.72241 8.87462 4.70591 10.9606 4.70591Z" fill="#E6007A"/>
<path d="M10.9606 21.2567C13.0466 21.2567 14.7376 20.2732 14.7376 19.06C14.7376 17.8468 13.0466 16.8633 10.9606 16.8633C8.87462 16.8633 7.18359 17.8468 7.18359 19.06C7.18359 20.2732 8.87462 21.2567 10.9606 21.2567Z" fill="#E6007A"/>
<path d="M5.69578 7.74565C6.73877 5.93918 6.732 3.98266 5.68066 3.37565C4.62931 2.76864 2.93151 3.74099 1.88851 5.54746C0.845516 7.35393 0.852285 9.31044 1.90363 9.91745C2.95498 10.5245 4.65278 9.55212 5.69578 7.74565Z" fill="#E6007A"/>
<path d="M20.0272 16.0215C21.0702 14.215 21.064 12.2589 20.0134 11.6522C18.9627 11.0456 17.2655 12.0183 16.2225 13.8248C15.1795 15.6313 15.1857 17.5875 16.2363 18.1941C17.287 18.8007 18.9842 17.828 20.0272 16.0215Z" fill="#E6007A"/>
<path d="M5.68066 18.1927C6.732 17.5857 6.73877 15.6292 5.69578 13.8227C4.65278 12.0162 2.95498 11.0439 1.90363 11.6509C0.852285 12.2579 0.845515 14.2144 1.88851 16.0209C2.93151 17.8274 4.62931 18.7997 5.68066 18.1927Z" fill="#E6007A"/>
<path d="M20.0134 9.91806C21.064 9.31146 21.0702 7.35528 20.0272 5.54881C18.9842 3.74234 17.287 2.76965 16.2363 3.37626C15.1857 3.98286 15.1795 5.93904 16.2225 7.74551C17.2655 9.55198 18.9627 10.5247 20.0134 9.91806Z" fill="#E6007A"/>
</svg>
