<svg width="378" height="107" viewBox="0 0 378 107" fill="none" xmlns="http://www.w3.org/2000/svg">
<path d="M44.4342 98.8507C68.6978 98.8507 88.3673 79.1812 88.3673 54.9176C88.3673 30.6539 68.6978 10.9844 44.4342 10.9844C20.1705 10.9844 0.500977 30.6539 0.500977 54.9176C0.500977 79.1812 20.1705 98.8507 44.4342 98.8507Z" fill="url(#paint0_linear_2105_13543)"/>
<path d="M44.4344 45.3331C48.2598 45.3331 51.3629 42.3511 51.3629 38.6734C51.3629 34.9957 48.2619 32.0117 44.4344 32.0117C40.6069 32.0117 37.5059 34.9937 37.5059 38.6734C37.5059 42.3532 40.6069 45.3331 44.4344 45.3331Z" fill="black"/>
<path d="M53.7476 51.3892V64.9507C53.7476 66.7362 52.469 68.2467 50.7472 68.6776V77.9027C50.7472 80.0206 48.9453 81.7527 46.7411 81.7527H42.6427C40.4386 81.7527 38.6367 80.0206 38.6367 77.9027V68.6776C36.9148 68.2467 35.6362 66.7341 35.6362 64.9507V51.3892C35.6362 49.2713 37.4381 47.5371 39.6423 47.5371H49.7416C51.9457 47.5371 53.7476 49.2713 53.7476 51.3892Z" fill="url(#paint1_linear_2105_13543)"/>
<path d="M333.309 97.8703C357.573 97.8703 377.242 78.2007 377.242 53.9371C377.242 29.6735 357.573 10.0039 333.309 10.0039C309.046 10.0039 289.376 29.6735 289.376 53.9371C289.376 78.2007 309.046 97.8703 333.309 97.8703Z" fill="url(#paint2_linear_2105_13543)"/>
<path d="M333.568 42.3858C329.742 42.3858 326.639 39.4038 326.639 35.7262C326.639 32.0485 329.74 29.0645 333.568 29.0645C337.393 29.0645 340.496 32.0464 340.496 35.7262C340.496 39.4038 337.395 42.3858 333.568 42.3858Z" fill="black"/>
<path d="M324.255 48.442V62.0034C324.255 63.7889 325.533 65.2994 327.255 65.7304V74.9554C327.255 77.0733 329.057 78.8055 331.261 78.8055H335.36C337.564 78.8055 339.366 77.0733 339.366 74.9554V65.7304C341.088 65.2994 342.366 63.7869 342.366 62.0034V48.442C342.366 46.324 340.564 44.5898 338.36 44.5898H328.261C326.057 44.5898 324.255 46.324 324.255 48.442Z" fill="url(#paint3_linear_2105_13543)"/>
<path d="M153.407 4.53711C169.689 25.4232 176.08 53.5456 168.197 80.9764C165.642 89.8689 161.78 98.0247 156.873 105.298" stroke="#B4B4B6" stroke-width="4.10456" stroke-miterlimit="10"/>
<path d="M136.508 17.7266C148.717 33.3957 153.511 54.4829 147.599 75.057C145.682 81.7249 142.786 87.8427 139.106 93.2977" stroke="#B4B4B6" stroke-width="4.10456" stroke-miterlimit="10"/>
<path d="M119.605 30.918C127.745 41.3641 130.94 55.4222 127 69.1376C125.721 73.5828 123.79 77.6607 121.338 81.2994" stroke="#B4B4B6" stroke-width="4.10456" stroke-miterlimit="10"/>
<path d="M102.699 44.1094C106.77 49.3263 108.369 56.3594 106.397 63.2182C105.759 65.4408 104.792 67.4807 103.565 69.2991" stroke="#B4B4B6" stroke-width="4.10456" stroke-miterlimit="10"/>
<path d="M224.723 1.44141C208.441 22.3275 202.05 50.4499 209.933 77.8807C212.488 86.7732 216.35 94.929 221.257 102.202" stroke="#B4B4B6" stroke-width="4.10456" stroke-miterlimit="10"/>
<path d="M241.624 14.6289C229.415 30.2981 224.621 51.3853 230.533 71.9594C232.45 78.6272 235.346 84.7451 239.026 90.2" stroke="#B4B4B6" stroke-width="4.10456" stroke-miterlimit="10"/>
<path d="M258.526 27.8223C250.387 38.2684 247.192 52.3265 251.132 66.0419C252.411 70.4871 254.342 74.565 256.794 78.2037" stroke="#B4B4B6" stroke-width="4.10456" stroke-miterlimit="10"/>
<path d="M275.431 41.0137C271.359 46.2306 269.761 53.2637 271.733 60.1225C272.371 62.3451 273.338 64.385 274.565 66.2034" stroke="#B4B4B6" stroke-width="4.10456" stroke-miterlimit="10"/>
<defs>
<linearGradient id="paint0_linear_2105_13543" x1="44.4342" y1="10.9844" x2="38.7302" y2="222.775" gradientUnits="userSpaceOnUse">
<stop stop-color="#FFC012"/>
<stop offset="1" stop-color="#FFC012" stop-opacity="0"/>
</linearGradient>
<linearGradient id="paint1_linear_2105_13543" x1="44.6919" y1="47.5371" x2="44.6919" y2="81.7527" gradientUnits="userSpaceOnUse">
<stop/>
<stop offset="1" stop-opacity="0.79"/>
</linearGradient>
<linearGradient id="paint2_linear_2105_13543" x1="333.309" y1="10.0039" x2="333.309" y2="194.581" gradientUnits="userSpaceOnUse">
<stop stop-color="#FFC012"/>
<stop offset="1" stop-color="#FFC012" stop-opacity="0"/>
</linearGradient>
<linearGradient id="paint3_linear_2105_13543" x1="333.311" y1="44.5898" x2="333.311" y2="78.8055" gradientUnits="userSpaceOnUse">
<stop/>
<stop offset="1" stop-opacity="0.84"/>
</linearGradient>
</defs>
</svg>
