<svg width="294" height="104" viewBox="0 0 294 104" fill="none" xmlns="http://www.w3.org/2000/svg">
<path fill-rule="evenodd" clip-rule="evenodd" d="M271.409 89.2187H249.327C249.587 86.717 251.701 84.7676 254.272 84.7676H266.462C269.033 84.7676 271.147 86.717 271.407 89.2187H271.409Z" fill="black"/>
<path fill-rule="evenodd" clip-rule="evenodd" d="M249.301 96.5059H271.431C271.375 99.2025 269.172 101.371 266.46 101.371H254.27C251.558 101.371 249.356 99.2025 249.299 96.5059H249.301Z" fill="black"/>
<path fill-rule="evenodd" clip-rule="evenodd" d="M281.986 58.1308H281.983C280.528 59.7596 280.047 60.8772 278.767 64.1522C277.147 68.2936 276.969 72.6927 276.969 74.432V75.2052C276.969 79.1235 273.735 82.301 269.746 82.301H250.988C246.999 82.301 243.765 79.1235 243.765 75.2052C243.765 75.2052 243.797 74.5792 243.765 73.5482C243.7 71.4602 243.373 67.7131 241.98 64.1522C240.711 60.9076 240.228 59.7813 238.802 58.1784C238.566 57.9098 238.146 57.6499 237.849 57.3445L238.077 57.5481C231.373 51.5808 227.162 42.9602 227.162 33.3736C227.162 15.3591 242.03 0.753906 260.367 0.753906C278.704 0.753906 293.571 15.357 293.571 33.3736C293.571 42.9516 289.369 51.5635 282.679 57.5308L281.986 58.1308Z" fill="url(#paint0_linear_3066_9994)"/>
<path d="M271.438 91.1152H249.299V94.6068H271.438V91.1152Z" fill="black"/>
<path fill-rule="evenodd" clip-rule="evenodd" d="M44.3735 91.1894H22.2935C22.5534 88.6877 24.6674 86.7383 27.2384 86.7383H39.4285C41.9996 86.7383 44.1136 88.6877 44.3735 91.1894Z" fill="#535455"/>
<path fill-rule="evenodd" clip-rule="evenodd" d="M22.2673 98.4766H44.3971C44.3408 101.173 42.138 103.341 39.4262 103.341H27.2361C24.5243 103.341 22.3215 101.173 22.2651 98.4766H22.2673Z" fill="#535455"/>
<path fill-rule="evenodd" clip-rule="evenodd" d="M55.3811 59.7311C55.0648 60.0603 54.7486 60.3874 54.4324 60.7144C53.358 62.0552 52.8512 63.2703 51.7357 66.1229C50.1156 70.2643 49.938 74.6634 49.938 76.4026V77.1759C49.938 81.0942 46.7041 84.2717 42.7144 84.2717H23.9548C19.9651 84.2717 16.7313 81.0942 16.7313 77.1759C16.7313 77.1759 16.7638 76.5499 16.7313 75.5189C16.6663 73.4309 16.3392 69.6838 14.9465 66.1229C13.6772 62.8783 13.361 61.687 11.769 60.1491C11.5113 59.9 11.1127 59.6206 10.816 59.3152L11.0434 59.5188C4.3397 53.5537 0.129028 44.9309 0.129028 35.3443C0.129028 17.3298 14.9963 2.72461 33.3335 2.72461C51.6707 2.72461 66.538 17.3277 66.538 35.3443C66.538 44.9223 62.336 53.5342 55.6453 59.5015L55.3811 59.7289V59.7311Z" fill="#535455"/>
<path d="M44.4036 93.0879H22.2651V96.5795H44.4036V93.0879Z" fill="#535455"/>
<path d="M168.996 46.1721C160.124 37.3046 151.254 28.4349 142.417 19.602C145.939 16.0758 149.445 12.5669 152.904 9.10352C167.796 23.999 182.732 38.9399 197.638 53.8505C182.767 68.707 167.817 83.6415 152.907 98.5369C149.484 95.1038 145.975 91.5841 142.441 88.0362C151.239 79.2402 160.108 70.3705 168.978 61.503C168.959 61.4575 168.939 61.4142 168.922 61.3687H96.7687V46.3519H168.913C168.941 46.2913 168.967 46.2306 168.996 46.1721Z" fill="#B4B4B6"/>
<defs>
<linearGradient id="paint0_linear_3066_9994" x1="299.377" y1="-12.9356" x2="247.592" y2="76.2498" gradientUnits="userSpaceOnUse">
<stop offset="0.0208333" stop-color="white"/>
<stop offset="0.614583" stop-color="#FCBF18"/>
</linearGradient>
</defs>
</svg>
