<svg width="144" height="113" viewBox="0 0 144 113" fill="none" xmlns="http://www.w3.org/2000/svg">
<path d="M11.0006 20.6836H133C138.878 20.6836 143.652 25.456 143.652 31.3362V102.347C143.652 108.087 138.992 112.745 133.254 112.745H10.7477C5.00782 112.745 0.349854 108.085 0.349854 102.347V31.3362C0.349854 25.4579 5.12229 20.6836 11.0024 20.6836H11.0006Z" fill="url(#paint0_linear_2105_13543)" fill-opacity="0.8"/>
<path d="M98.3095 37.2119C98.3095 38.1202 97.9421 38.9418 97.3476 39.5363C96.7531 40.1326 95.9297 40.5 95.0232 40.5H48.9918C47.1752 40.5 45.7037 39.0286 45.7037 37.2119C45.7037 36.3036 46.0711 35.482 46.6656 34.8875C47.2619 34.2912 48.0835 33.9238 48.9918 33.9238H95.0232C96.838 33.9238 98.3095 35.3953 98.3095 37.2119Z" fill="black"/>
<path d="M93.3728 21.8385C93.3728 26.19 92.0713 30.2368 89.8373 33.6135C88.0687 36.2887 85.7148 38.5429 82.9565 40.1897H61.0458C58.2876 38.5429 55.9337 36.2887 54.165 33.6135C51.9311 30.2368 50.6295 26.19 50.6295 21.8385C50.6295 10.0357 60.1984 0.466797 72.0012 0.466797C83.804 0.466797 93.3728 10.0357 93.3728 21.8385Z" fill="black"/>
<path d="M83.0322 40.4662H60.9682L60.9018 40.4275C58.1288 38.7714 55.7176 36.4692 53.9323 33.7664C51.5895 30.2253 50.3507 26.1009 50.3507 21.838C50.3526 9.90049 60.0636 0.189453 72.0011 0.189453C83.9387 0.189453 93.6497 9.90049 93.6497 21.838C93.6497 26.0991 92.4109 30.2235 90.0681 33.7664C88.281 36.4674 85.8717 38.7714 83.0987 40.4275L83.0322 40.4662ZM61.1215 39.9124H82.879C85.5541 38.3025 87.8785 36.0723 89.6047 33.4599C91.8884 30.0093 93.094 25.9902 93.094 21.838C93.094 10.207 83.6304 0.743314 71.9993 0.743314C60.3682 0.743314 50.9046 10.207 50.9046 21.838C50.9046 25.9902 52.112 30.0093 54.3939 33.4599C56.1201 36.0723 58.4463 38.3006 61.1196 39.9124H61.1215Z" fill="black"/>
<path fill-rule="evenodd" clip-rule="evenodd" d="M57.562 28.5514C56.5964 26.4855 56.0573 24.1814 56.0573 21.7518C56.0573 12.8679 63.2594 5.66582 72.1433 5.66582C77.0911 5.66582 81.5165 7.89972 84.4667 11.413L86.228 9.93609C82.855 5.92059 77.7982 3.36914 72.1433 3.36914C61.9892 3.36914 53.7588 11.5995 53.7588 21.7536C53.7588 24.5303 54.3754 27.1649 55.4776 29.5262L57.5601 28.555L57.562 28.5514Z" fill="white"/>
<path fill-rule="evenodd" clip-rule="evenodd" d="M72.1452 32.6669C66.1155 32.6669 61.2286 27.78 61.2286 21.7503C61.2286 15.7206 66.1155 10.8337 72.1452 10.8337C75.5016 10.8337 78.5053 12.3494 80.5066 14.7329L82.2679 13.2559C79.8438 10.3703 76.2087 8.53516 72.1452 8.53516C64.8471 8.53516 58.9301 14.4522 58.9301 21.7503C58.9301 29.0483 64.8471 34.9636 72.1452 34.9636V32.665V32.6669Z" fill="white"/>
<path fill-rule="evenodd" clip-rule="evenodd" d="M76.1071 25.0732C75.1582 26.2031 73.7366 26.9213 72.147 26.9213C69.2909 26.9213 66.9758 24.6061 66.9758 21.75C66.9758 18.894 69.2909 16.5788 72.147 16.5788C73.7366 16.5788 75.16 17.297 76.1071 18.4269L78.0881 16.7653C76.6647 15.0723 74.5323 13.9941 72.147 13.9941C67.8638 13.9941 64.3911 17.4669 64.3911 21.75C64.3911 26.0332 67.8638 29.5059 72.147 29.5059C74.3329 29.5059 76.3065 28.6013 77.717 27.1465L76.109 25.0732H76.1071Z" fill="white"/>
<path d="M93.742 39.5469H59.2346V40.47H93.742V39.5469Z" fill="black"/>
<path d="M43.4422 70.2701L48.8967 85.6536H49.0501L54.5047 70.2701H56.1751L49.8257 87.7246H48.1212L41.7717 70.2701H43.4422ZM72.656 78.9973C72.656 80.8155 72.3321 82.3979 71.6844 83.7445C71.0366 85.0854 70.1446 86.1252 69.0082 86.8638C67.8775 87.5968 66.5764 87.9632 65.1048 87.9632C63.6332 87.9632 62.3293 87.5968 61.1929 86.8638C60.0622 86.1252 59.173 85.0854 58.5253 83.7445C57.8832 82.3979 57.5622 80.8155 57.5622 78.9973C57.5622 77.1792 57.8832 75.5996 58.5253 74.2587C59.173 72.9121 60.065 71.8723 61.2014 71.1394C62.3378 70.4007 63.6389 70.0314 65.1048 70.0314C66.5764 70.0314 67.8775 70.4007 69.0082 71.1394C70.1446 71.8723 71.0366 72.9121 71.6844 74.2587C72.3321 75.5996 72.656 77.1792 72.656 78.9973ZM71.1048 78.9973C71.1048 77.4348 70.8435 76.0968 70.3207 74.9831C69.798 73.8638 69.0849 73.0087 68.1815 72.4178C67.2781 71.8269 66.2525 71.5314 65.1048 71.5314C63.9628 71.5314 62.94 71.8269 62.0366 72.4178C61.1332 73.0087 60.4173 73.861 59.8889 74.9746C59.3662 76.0882 59.1048 77.4292 59.1048 78.9973C59.1048 80.5598 59.3662 81.8979 59.8889 83.0115C60.4116 84.1252 61.1247 84.9803 62.0281 85.5769C62.9315 86.1678 63.9571 86.4632 65.1048 86.4632C66.2525 86.4632 67.2781 86.1678 68.1815 85.5769C69.0906 84.986 69.8065 84.1337 70.3293 83.0201C70.852 81.9007 71.1105 80.5598 71.1048 78.9973ZM74.727 71.7019V70.2701H87.3832V71.7019H81.852V87.7246H80.2582V71.7019H74.727ZM90.9713 87.7246V70.2701H101.096V71.7019H92.565V78.2729H100.559V79.7047H92.565V86.2928H101.267V87.7246H90.9713Z" fill="black"/>
<line x1="0.99707" y1="56.1465" x2="143.652" y2="56.1465" stroke="black"/>
<defs>
<linearGradient id="paint0_linear_2105_13543" x1="120.604" y1="105.419" x2="226.077" y2="-2.14267" gradientUnits="userSpaceOnUse">
<stop stop-color="#FCBF18"/>
<stop offset="1" stop-color="#FCBF18" stop-opacity="0"/>
</linearGradient>
</defs>
</svg>
