<?xml version="1.0" encoding="utf-8"?>
<!-- Generator: Adobe Illustrator 18.0.0, SVG Export Plug-In . SVG Version: 6.00 Build 0)  -->
<!DOCTYPE svg PUBLIC "-//W3C//DTD SVG 1.1//EN" "http://www.w3.org/Graphics/SVG/1.1/DTD/svg11.dtd">
<svg version="1.1" id="Слой_1" xmlns="http://www.w3.org/2000/svg" xmlns:xlink="http://www.w3.org/1999/xlink" x="0px" y="0px"
	 viewBox="0 0 400.9 260.2" enable-background="new 0 0 400.9 260.2" xml:space="preserve">
<g>
	<polygon fill="#FFFFFF" points="8.5,258.2 8.5,98.2 200.5,2.2 392.5,98.2 392.5,258.2 	"/>
	<g>
		<polygon fill="none" stroke="#2762FF" stroke-width="4" stroke-miterlimit="10" points="8.5,98.2 200.5,2.2 392.5,98.2 		"/>
		<linearGradient id="SVGID_1_" gradientUnits="userSpaceOnUse" x1="20.4721" y1="162.2361" x2="44.4721" y2="162.2361">
			<stop  offset="0" style="stop-color:#2762FF"/>
			<stop  offset="1" style="stop-color:#2762FF;stop-opacity:0"/>
		</linearGradient>
		<rect x="20.5" y="98.2" fill="url(#SVGID_1_)" width="24" height="128"/>
		<linearGradient id="SVGID_2_" gradientUnits="userSpaceOnUse" x1="68.4721" y1="162.2361" x2="92.4721" y2="162.2361">
			<stop  offset="0" style="stop-color:#2762FF"/>
			<stop  offset="1" style="stop-color:#2762FF;stop-opacity:0"/>
		</linearGradient>
		<rect x="68.5" y="98.2" fill="url(#SVGID_2_)" width="24" height="128"/>
		<linearGradient id="SVGID_3_" gradientUnits="userSpaceOnUse" x1="116.4721" y1="162.2361" x2="140.4721" y2="162.2361">
			<stop  offset="0" style="stop-color:#2762FF"/>
			<stop  offset="1" style="stop-color:#2762FF;stop-opacity:0"/>
		</linearGradient>
		<rect x="116.5" y="98.2" fill="url(#SVGID_3_)" width="24" height="128"/>
		<linearGradient id="SVGID_4_" gradientUnits="userSpaceOnUse" x1="164.4721" y1="162.2361" x2="188.4721" y2="162.2361">
			<stop  offset="0" style="stop-color:#2762FF"/>
			<stop  offset="1" style="stop-color:#2762FF;stop-opacity:0"/>
		</linearGradient>
		<rect x="164.5" y="98.2" fill="url(#SVGID_4_)" width="24" height="128"/>
		<linearGradient id="SVGID_5_" gradientUnits="userSpaceOnUse" x1="212.4721" y1="162.2361" x2="236.4721" y2="162.2361">
			<stop  offset="0" style="stop-color:#2762FF"/>
			<stop  offset="1" style="stop-color:#2762FF;stop-opacity:0"/>
		</linearGradient>
		<rect x="212.5" y="98.2" fill="url(#SVGID_5_)" width="24" height="128"/>
		<linearGradient id="SVGID_6_" gradientUnits="userSpaceOnUse" x1="260.4721" y1="162.2361" x2="284.4721" y2="162.2361">
			<stop  offset="0" style="stop-color:#2762FF"/>
			<stop  offset="1" style="stop-color:#2762FF;stop-opacity:0"/>
		</linearGradient>
		<rect x="260.5" y="98.2" fill="url(#SVGID_6_)" width="24" height="128"/>
		<linearGradient id="SVGID_7_" gradientUnits="userSpaceOnUse" x1="308.4721" y1="162.2361" x2="332.4721" y2="162.2361">
			<stop  offset="0" style="stop-color:#2762FF"/>
			<stop  offset="1" style="stop-color:#2762FF;stop-opacity:0"/>
		</linearGradient>
		<rect x="308.5" y="98.2" fill="url(#SVGID_7_)" width="24" height="128"/>
		<linearGradient id="SVGID_8_" gradientUnits="userSpaceOnUse" x1="356.4721" y1="162.2361" x2="380.4721" y2="162.2361">
			<stop  offset="0" style="stop-color:#2762FF"/>
			<stop  offset="1" style="stop-color:#2762FF;stop-opacity:0"/>
		</linearGradient>
		<rect x="356.5" y="98.2" fill="url(#SVGID_8_)" width="24" height="128"/>
		<line fill="#FFFFFF" stroke="#2762FF" stroke-width="4" stroke-miterlimit="10" x1="8.5" y1="234.2" x2="392.5" y2="234.2"/>
		<line fill="#FFFFFF" stroke="#2762FF" stroke-width="4" stroke-miterlimit="10" x1="8.5" y1="226.2" x2="392.5" y2="226.2"/>
		<line fill="#FFFFFF" stroke="#2762FF" stroke-width="4" stroke-miterlimit="10" x1="8.5" y1="242.2" x2="392.5" y2="242.2"/>
		<line fill="#FFFFFF" stroke="#2762FF" stroke-width="4" stroke-miterlimit="10" x1="8.5" y1="250.2" x2="392.5" y2="250.2"/>
		<line fill="#FFFFFF" stroke="#2762FF" stroke-width="4" stroke-miterlimit="10" x1="8.5" y1="258.2" x2="392.5" y2="258.2"/>
		<g>
			<path fill="none" stroke="#2762FF" stroke-width="4" stroke-miterlimit="10" d="M210.1,48.6L210.1,48.6c0-5.3-4.3-9.6-9.6-9.6h0
				c-5.3,0-9.6,4.3-9.6,9.6v0c0,5.3,4.3,9.6,9.6,9.6h0c5.3,0,9.6,4.3,9.6,9.6v0c0,5.3-4.3,9.6-9.6,9.6h0c-5.3,0-9.6-4.3-9.6-9.6v0"
				/>
			<line fill="none" stroke="#2762FF" stroke-width="4" stroke-miterlimit="10" x1="200.5" y1="34.2" x2="200.5" y2="82.2"/>
		</g>
	</g>
</g>
</svg>
