<?xml version="1.0" encoding="utf-8"?>
<!-- Generator: Adobe Illustrator 18.0.0, SVG Export Plug-In . SVG Version: 6.00 Build 0)  -->
<!DOCTYPE svg PUBLIC "-//W3C//DTD SVG 1.1//EN" "http://www.w3.org/Graphics/SVG/1.1/DTD/svg11.dtd">
<svg version="1.1" id="Слой_1" xmlns="http://www.w3.org/2000/svg" xmlns:xlink="http://www.w3.org/1999/xlink" x="0px" y="0px"
	 viewBox="0 0 200 92" enable-background="new 0 0 200 92" xml:space="preserve">
<g>
	
		<linearGradient id="SVGID_1_" gradientUnits="userSpaceOnUse" x1="496" y1="60" x2="368" y2="60" gradientTransform="matrix(-1 0 0 1 536 0)">
		<stop  offset="0" style="stop-color:#FFFFFF"/>
		<stop  offset="1" style="stop-color:#FCBA59"/>
	</linearGradient>
	<rect x="40" y="28" fill="url(#SVGID_1_)" width="128" height="64"/>
	<path fill="#FCBA59" d="M200,36c0,4.4-3.6,8-8,8s-8-3.6-8-8c0,4.4-3.6,8-8,8s-8-3.6-8-8c0,4.4-3.6,8-8,8s-8-3.6-8-8
		c0,4.4-3.6,8-8,8s-8-3.6-8-8c0,4.4-3.6,8-8,8c-4.4,0-8-3.6-8-8c0,4.4-3.6,8-8,8s-8-3.6-8-8c0,4.4-3.6,8-8,8s-8-3.6-8-8
		c0,4.4-3.6,8-8,8s-8-3.6-8-8l-32-8h128L200,36z"/>
	<rect x="0" y="28" fill="#FCBA59" width="39.7" height="64"/>
	<rect x="128" y="52" fill="#FFFFFF" width="16" height="40"/>
	<rect x="40" y="8" width="112" height="4"/>
	<rect x="40" y="0" width="112" height="4"/>
	<rect x="40" y="16" width="112" height="4"/>
</g>
</svg>
