<?xml version="1.0" encoding="utf-8"?>
<!-- Generator: Adobe Illustrator 18.0.0, SVG Export Plug-In . SVG Version: 6.00 Build 0)  -->
<!DOCTYPE svg PUBLIC "-//W3C//DTD SVG 1.1//EN" "http://www.w3.org/Graphics/SVG/1.1/DTD/svg11.dtd">
<svg version="1.1" id="Слой_1" xmlns="http://www.w3.org/2000/svg" xmlns:xlink="http://www.w3.org/1999/xlink" x="0px" y="0px"
	 viewBox="0 0 156 154" enable-background="new 0 0 156 154" xml:space="preserve">
<g>
	<g>
		<rect x="35.9" y="153" fill="#FCBA59" width="32" height="1"/>
		<rect x="35.9" y="145" fill="#FCBA59" width="32" height="1"/>
		<rect x="35.9" y="137" fill="#FCBA59" width="32" height="1"/>
		<rect x="35.9" y="129" fill="#FCBA59" width="32" height="1"/>
		<rect x="35.9" y="121" fill="#FCBA59" width="32" height="1"/>
		<rect x="35.9" y="113" fill="#FCBA59" width="32" height="1"/>
		<rect x="35.9" y="105" fill="#FCBA59" width="32" height="1"/>
		<rect x="35.9" y="149" fill="#FCBA59" width="32" height="1"/>
		<rect x="35.9" y="141" fill="#FCBA59" width="32" height="1"/>
		<rect x="35.9" y="133" fill="#FCBA59" width="32" height="1"/>
		<rect x="35.9" y="125" fill="#FCBA59" width="32" height="1"/>
		<rect x="35.9" y="117" fill="#FCBA59" width="32" height="1"/>
		<rect x="35.9" y="109" fill="#FCBA59" width="32" height="1"/>
		<rect x="35.9" y="101" fill="#FCBA59" width="32" height="1"/>
		<rect x="35.9" y="97" fill="#FCBA59" width="32" height="1"/>
		<rect x="35.9" y="89" fill="#FCBA59" width="32" height="1"/>
		<rect x="35.9" y="81" fill="#FCBA59" width="32" height="1"/>
		<rect x="35.9" y="73" fill="#FCBA59" width="32" height="1"/>
		<rect x="35.9" y="65" fill="#FCBA59" width="32" height="1"/>
		<rect x="35.9" y="57" fill="#FCBA59" width="32" height="1"/>
		<rect x="35.9" y="93" fill="#FCBA59" width="32" height="1"/>
		<rect x="35.9" y="85" fill="#FCBA59" width="32" height="1"/>
		<rect x="35.9" y="77" fill="#FCBA59" width="32" height="1"/>
		<rect x="35.9" y="69" fill="#FCBA59" width="32" height="1"/>
		<rect x="35.9" y="61" fill="#FCBA59" width="32" height="1"/>
		<rect x="35.9" y="53" fill="#FCBA59" width="64" height="1"/>
		<rect x="35.9" y="45" fill="#FCBA59" width="64" height="1"/>
		<rect x="35.9" y="37" fill="#FCBA59" width="64" height="1"/>
		<rect x="35.9" y="29" fill="#FCBA59" width="64" height="1"/>
		<rect x="35.9" y="49" fill="#FCBA59" width="64" height="1"/>
		<rect x="35.9" y="41" fill="#FCBA59" width="64" height="1"/>
		<rect x="35.9" y="33" fill="#FCBA59" width="64" height="1"/>
		<rect x="35.9" y="25" fill="#FCBA59" width="64" height="1"/>
	</g>
	<path fill="#333333" d="M132.4,154h-65V57h65V154z M68.4,153h63V58h-63V153z"/>
	<rect x="75.4" y="65.5" fill="#333333" width="1" height="88"/>
	<rect x="83.4" y="65.5" fill="#333333" width="1" height="88"/>
	<rect x="91.4" y="65.5" fill="#333333" width="1" height="88"/>
	<rect x="99.4" y="65.5" fill="#333333" width="1" height="88"/>
	<rect x="107.4" y="65.5" fill="#333333" width="1" height="88"/>
	<rect x="115.4" y="65.5" fill="#333333" width="1" height="88"/>
	<rect x="123.4" y="65.5" fill="#333333" width="1" height="88"/>
	<path fill="#FCBA59" d="M26.7,154c-4.7,0-8.4-1.3-11-3.8c-9.2-9.2-1.4-33.5,19.8-62l0.8,0.6c-20.9,28.1-28.7,51.9-19.9,60.7
		c2.4,2.4,6,3.6,10.3,3.6c17.8,0,49.6-19,79.5-48.8c37.2-37.2,57.5-77.5,45.3-89.8c-7.7-7.7-27.3-2.6-51.3,13.3l-0.6-0.8
		c24.8-16.4,44.4-21.3,52.5-13.2c6.2,6.2,4.9,19.2-3.8,36.5c-8.6,17.1-23.3,36.6-41.5,54.8s-37.6,32.9-54.8,41.5
		C42,151.4,33.4,154,26.7,154z"/>
	<g>
		<circle fill="#FCBA59" cx="121.9" cy="16" r="16"/>
		<g>
			<path fill="#FFFFFF" d="M121.9,29.1L115.4,16l6.6-13.1l6.6,13.1L121.9,29.1z M116.5,16l5.4,10.9l5.4-10.9l-5.4-10.9L116.5,16z"/>
			<polygon fill="#FFFFFF" points="121.9,19.6 115.7,16.4 116.1,15.6 121.9,18.4 127.7,15.6 128.1,16.4 			"/>
		</g>
		<rect x="121.4" y="4" fill="#FFFFFF" width="1" height="24"/>
	</g>
	<g>
		<circle fill="#FCBA59" cx="125.9" cy="83.7" r="16"/>
		<g>
			<rect x="122.8" y="89.1" fill="#FFFFFF" width="1" height="2.7"/>
			<rect x="128.1" y="89.1" fill="#FFFFFF" width="1" height="2.7"/>
			<rect x="122.8" y="75.7" fill="#FFFFFF" width="1" height="2.7"/>
			<rect x="128.1" y="75.7" fill="#FFFFFF" width="1" height="2.7"/>
			<path fill="#FFFFFF" d="M131.3,89.6h-13.8V77.9h13.8c1.7,0,3.2,1.4,3.2,3.2c0,1.1-0.6,2.1-1.5,2.7c0.9,0.6,1.5,1.5,1.5,2.7
				C134.4,88.2,133,89.6,131.3,89.6z M118.4,88.6h12.8c1.2,0,2.2-1,2.2-2.2c0-1.2-1-2.2-2.2-2.2h-12.8V88.6z M118.4,83.2h12.8
				c1.2,0,2.2-1,2.2-2.2c0-1.2-1-2.2-2.2-2.2h-12.8V83.2z"/>
		</g>
	</g>
	<g>
		<circle fill="#FCBA59" cx="16" cy="123.5" r="16"/>
		<g>
			<path fill="#FFFFFF" d="M14.3,132h-3.2v-17h3.2c4.7,0,8.5,3.8,8.5,8.5S19,132,14.3,132z M12.2,131h2.2c4.1,0,7.5-3.4,7.5-7.5
				s-3.4-7.5-7.5-7.5h-2.2V131z"/>
			<rect x="9" y="121.6" fill="#FFFFFF" width="16" height="1"/>
			<rect x="9" y="124.3" fill="#FFFFFF" width="16" height="1"/>
		</g>
	</g>
</g>
</svg>
