<?xml version="1.0" encoding="utf-8"?>
<!-- Generator: Adobe Illustrator 18.0.0, SVG Export Plug-In . SVG Version: 6.00 Build 0)  -->
<!DOCTYPE svg PUBLIC "-//W3C//DTD SVG 1.1//EN" "http://www.w3.org/Graphics/SVG/1.1/DTD/svg11.dtd">
<svg version="1.1" id="Слой_1" xmlns="http://www.w3.org/2000/svg" xmlns:xlink="http://www.w3.org/1999/xlink" x="0px" y="0px"
	 viewBox="0 0 236.1 1212.6" enable-background="new 0 0 236.1 1212.6" xml:space="preserve">
<g>
	<g>
		<path fill="#FFFFFF" d="M55.4,353.8c-6.9-17-7.4-36.6,0-54.9s6.9-37.9,0-54.9H127c6.9,17,7.4,36.6,0,54.9
			c-7.4,18.3-6.9,37.9,0,54.9H55.4z"/>
		<path fill="#2762FF" d="M128.5,354.8H54.8l-0.3-0.6c-7.3-17.9-7.3-37.7,0-55.6c7.1-17.5,7.1-36.7,0-54.1l-0.6-1.4h73.8l0.3,0.6
			c7.3,17.9,7.3,37.7,0,55.6c-7.1,17.5-7.1,36.7,0,54.1L128.5,354.8z M56.1,352.8h69.5c-6.7-17.6-6.5-36.8,0.5-54.3
			c7-17.2,7.1-36.2,0.2-53.5H56.9c6.7,17.6,6.5,36.8-0.5,54.3C49.4,316.5,49.3,335.5,56.1,352.8z"/>
	</g>
	<g>
		<path fill="#FFFFFF" d="M73.1,345.8c-6.9-17-7.4-36.6,0-54.9c7.4-18.3,6.9-37.9,0-54.9h71.6c6.9,17,7.4,36.6,0,54.9
			s-6.9,37.9,0,54.9H73.1z"/>
		<path fill="#2762FF" d="M146.2,346.8H72.5l-0.3-0.6c-7.3-17.9-7.3-37.7,0-55.6c7.1-17.5,7.1-36.7,0-54.1l-0.6-1.4h73.8l0.3,0.6
			c7.3,17.9,7.3,37.7,0,55.6c-7.1,17.5-7.1,36.7,0,54.1L146.2,346.8z M73.8,344.8h69.5c-6.7-17.6-6.5-36.8,0.5-54.3
			c7-17.2,7.1-36.2,0.2-53.5H74.6c6.7,17.6,6.5,36.8-0.5,54.3C67.1,308.5,67,327.5,73.8,344.8z"/>
	</g>
	<g>
		<path fill="#FFFFFF" d="M91.1,337.8c-6.9-17-7.4-36.6,0-54.9c7.4-18.3,6.9-37.9,0-54.9h71.6c6.9,17,7.4,36.6,0,54.9
			c-7.4,18.3-6.9,37.9,0,54.9H91.1z"/>
		<path fill="#2762FF" d="M164.2,338.8H90.4l-0.3-0.6c-7.3-17.9-7.3-37.7,0-55.6c7.1-17.5,7.1-36.7,0-54.1l-0.6-1.4h73.8l0.3,0.6
			c7.3,17.9,7.3,37.7,0,55.6c-7.1,17.5-7.1,36.7,0,54.1L164.2,338.8z M91.8,336.8h69.5c-6.7-17.6-6.5-36.8,0.5-54.3
			c7-17.2,7.1-36.2,0.2-53.5H92.6c6.7,17.6,6.5,36.8-0.5,54.3C85,300.5,85,319.5,91.8,336.8z"/>
	</g>
	<g>
		<path fill="#FFFFFF" d="M109.1,329.8c-6.9-17-7.4-36.6,0-54.9c7.4-18.3,6.9-37.9,0-54.9h71.6c6.9,17,7.4,36.6,0,54.9
			c-7.4,18.3-6.9,37.9,0,54.9H109.1z"/>
		<path fill="#2762FF" d="M182.2,330.8h-73.8l-0.3-0.6c-7.3-17.9-7.3-37.7,0-55.6c7.1-17.5,7.1-36.7,0-54.1l-0.6-1.4h73.8l0.3,0.6
			c7.3,17.9,7.3,37.7,0,55.6c-7.1,17.5-7.1,36.7,0,54.1L182.2,330.8z M109.8,328.8h69.5c-6.7-17.6-6.5-36.8,0.5-54.3
			c7-17.2,7.1-36.2,0.2-53.5h-69.5c6.7,17.6,6.5,36.8-0.5,54.3C103,292.5,102.9,311.5,109.8,328.8z"/>
	</g>
	<g>
		<g>
			<g>
				<rect x="90.3" y="1211.5" fill="#FCBA59" width="32" height="1"/>
				<rect x="90.3" y="1203.5" fill="#FCBA59" width="32" height="1"/>
				<rect x="90.3" y="1195.5" fill="#FCBA59" width="32" height="1"/>
				<rect x="90.3" y="1187.5" fill="#FCBA59" width="32" height="1"/>
				<rect x="90.3" y="1179.5" fill="#FCBA59" width="32" height="1"/>
				<rect x="90.3" y="1171.5" fill="#FCBA59" width="32" height="1"/>
				<rect x="90.3" y="1163.5" fill="#FCBA59" width="32" height="1"/>
				<rect x="90.3" y="1207.5" fill="#FCBA59" width="32" height="1"/>
				<rect x="90.3" y="1199.5" fill="#FCBA59" width="32" height="1"/>
				<rect x="90.3" y="1191.5" fill="#FCBA59" width="32" height="1"/>
				<rect x="90.3" y="1183.5" fill="#FCBA59" width="32" height="1"/>
				<rect x="90.3" y="1175.5" fill="#FCBA59" width="32" height="1"/>
				<rect x="90.3" y="1167.5" fill="#FCBA59" width="32" height="1"/>
				<rect x="90.3" y="1159.5" fill="#FCBA59" width="32" height="1"/>
				<rect x="90.3" y="1155.5" fill="#FCBA59" width="32" height="1"/>
				<rect x="90.3" y="1147.5" fill="#FCBA59" width="32" height="1"/>
				<rect x="90.3" y="1139.5" fill="#FCBA59" width="32" height="1"/>
				<rect x="90.3" y="1131.5" fill="#FCBA59" width="32" height="1"/>
				<rect x="90.3" y="1123.5" fill="#FCBA59" width="32" height="1"/>
				<rect x="90.3" y="1115.5" fill="#FCBA59" width="32" height="1"/>
				<rect x="90.3" y="1151.5" fill="#FCBA59" width="32" height="1"/>
				<rect x="90.3" y="1143.5" fill="#FCBA59" width="32" height="1"/>
				<rect x="90.3" y="1135.5" fill="#FCBA59" width="32" height="1"/>
				<rect x="90.3" y="1127.5" fill="#FCBA59" width="32" height="1"/>
				<rect x="90.3" y="1119.5" fill="#FCBA59" width="32" height="1"/>
				<rect x="90.3" y="1111.5" fill="#FCBA59" width="64" height="1"/>
				<rect x="90.3" y="1103.5" fill="#FCBA59" width="64" height="1"/>
				<rect x="90.3" y="1095.5" fill="#FCBA59" width="64" height="1"/>
				<rect x="90.3" y="1087.5" fill="#FCBA59" width="64" height="1"/>
				<rect x="90.3" y="1107.5" fill="#FCBA59" width="64" height="1"/>
				<rect x="90.3" y="1099.5" fill="#FCBA59" width="64" height="1"/>
				<rect x="90.3" y="1091.5" fill="#FCBA59" width="64" height="1"/>
				<rect x="90.3" y="1083.5" fill="#FCBA59" width="64" height="1"/>
			</g>
			<path fill="#333333" d="M186.8,1212.5h-65v-97h65V1212.5z M122.8,1211.5h63v-95h-63V1211.5z"/>
			<rect x="129.8" y="1124" fill="#333333" width="1" height="88"/>
			<rect x="137.8" y="1124" fill="#333333" width="1" height="88"/>
			<rect x="145.8" y="1124" fill="#333333" width="1" height="88"/>
			<rect x="153.8" y="1124" fill="#333333" width="1" height="88"/>
			<rect x="161.8" y="1124" fill="#333333" width="1" height="88"/>
			<rect x="169.8" y="1124" fill="#333333" width="1" height="88"/>
			<rect x="177.8" y="1124" fill="#333333" width="1" height="88"/>
			<path fill="#FCBA59" d="M81,1212.5c-4.7,0-8.4-1.3-11-3.8c-9.2-9.2-1.4-33.5,19.8-62l0.8,0.6c-20.9,28.1-28.7,51.9-19.9,60.7
				c2.4,2.4,6,3.6,10.3,3.6c17.8,0,49.6-19,79.5-48.8c37.2-37.2,57.5-77.5,45.3-89.8c-7.7-7.7-27.3-2.6-51.3,13.3l-0.6-0.8
				c24.8-16.4,44.4-21.3,52.5-13.2c6.2,6.2,4.9,19.2-3.8,36.5c-8.6,17.1-23.3,36.6-41.5,54.8s-37.6,32.9-54.8,41.5
				C96.4,1209.9,87.7,1212.5,81,1212.5z"/>
			<g>
				<circle fill="#FCBA59" cx="176.3" cy="1074.5" r="16"/>
				<g>
					<path fill="#FFFFFF" d="M176.3,1087.7l-6.6-13.1l6.6-13.1l6.6,13.1L176.3,1087.7z M170.8,1074.5l5.4,10.9l5.4-10.9l-5.4-10.9
						L170.8,1074.5z"/>
					<polygon fill="#FFFFFF" points="176.3,1078.1 170.1,1075 170.5,1074.1 176.3,1077 182.1,1074.1 182.5,1075 					"/>
				</g>
				<rect x="175.8" y="1062.5" fill="#FFFFFF" width="1" height="24"/>
			</g>
			<g>
				<circle fill="#FCBA59" cx="180.3" cy="1142.3" r="16"/>
				<g>
					<rect x="177.1" y="1147.6" fill="#FFFFFF" width="1" height="2.7"/>
					<rect x="182.4" y="1147.6" fill="#FFFFFF" width="1" height="2.7"/>
					<rect x="177.1" y="1134.3" fill="#FFFFFF" width="1" height="2.7"/>
					<rect x="182.4" y="1134.3" fill="#FFFFFF" width="1" height="2.7"/>
					<path fill="#FFFFFF" d="M185.6,1148.1h-13.8v-11.7h13.8c1.7,0,3.2,1.4,3.2,3.2c0,1.1-0.6,2.1-1.5,2.7c0.9,0.6,1.5,1.5,1.5,2.7
						C188.8,1146.7,187.4,1148.1,185.6,1148.1z M172.8,1147.1h12.8c1.2,0,2.2-1,2.2-2.2s-1-2.2-2.2-2.2h-12.8V1147.1z M172.8,1141.8
						h12.8c1.2,0,2.2-1,2.2-2.2c0-1.2-1-2.2-2.2-2.2h-12.8V1141.8z"/>
				</g>
			</g>
			<g>
				<circle fill="#FCBA59" cx="70.4" cy="1182" r="16"/>
				<g>
					<path fill="#FFFFFF" d="M68.7,1190.5h-3.2v-17h3.2c4.7,0,8.5,3.8,8.5,8.5S73.4,1190.5,68.7,1190.5z M66.5,1189.5h2.2
						c4.1,0,7.5-3.4,7.5-7.5s-3.4-7.5-7.5-7.5h-2.2V1189.5z"/>
					<rect x="63.4" y="1180.2" fill="#FFFFFF" width="16" height="1"/>
					<rect x="63.4" y="1182.8" fill="#FFFFFF" width="16" height="1"/>
				</g>
			</g>
		</g>
		<g>
			<polygon fill="#FFFFFF" points="26.3,1212 26.3,1167 80.3,1140 134.3,1167 134.3,1212 			"/>
			<g>
				<path fill="#2762FF" d="M136.7,1167.6H23.9l56.4-28.2L136.7,1167.6z M28.7,1166.4h103.2l-51.6-25.8L28.7,1166.4z"/>
				<linearGradient id="SVGID_1_" gradientUnits="userSpaceOnUse" x1="29.6548" y1="1184.9998" x2="36.4048" y2="1184.9998">
					<stop  offset="0" style="stop-color:#2762FF"/>
					<stop  offset="1" style="stop-color:#2762FF;stop-opacity:0"/>
				</linearGradient>
				<rect x="29.7" y="1167" fill="url(#SVGID_1_)" width="6.8" height="36"/>
				<linearGradient id="SVGID_2_" gradientUnits="userSpaceOnUse" x1="43.1548" y1="1184.9998" x2="49.9048" y2="1184.9998">
					<stop  offset="0" style="stop-color:#2762FF"/>
					<stop  offset="1" style="stop-color:#2762FF;stop-opacity:0"/>
				</linearGradient>
				<rect x="43.2" y="1167" fill="url(#SVGID_2_)" width="6.8" height="36"/>
				<linearGradient id="SVGID_3_" gradientUnits="userSpaceOnUse" x1="56.6548" y1="1184.9998" x2="63.4048" y2="1184.9998">
					<stop  offset="0" style="stop-color:#2762FF"/>
					<stop  offset="1" style="stop-color:#2762FF;stop-opacity:0"/>
				</linearGradient>
				<rect x="56.7" y="1167" fill="url(#SVGID_3_)" width="6.8" height="36"/>
				<linearGradient id="SVGID_4_" gradientUnits="userSpaceOnUse" x1="70.1548" y1="1184.9998" x2="76.9048" y2="1184.9998">
					<stop  offset="0" style="stop-color:#2762FF"/>
					<stop  offset="1" style="stop-color:#2762FF;stop-opacity:0"/>
				</linearGradient>
				<rect x="70.2" y="1167" fill="url(#SVGID_4_)" width="6.8" height="36"/>
				<linearGradient id="SVGID_5_" gradientUnits="userSpaceOnUse" x1="83.6548" y1="1184.9998" x2="90.4048" y2="1184.9998">
					<stop  offset="0" style="stop-color:#2762FF"/>
					<stop  offset="1" style="stop-color:#2762FF;stop-opacity:0"/>
				</linearGradient>
				<rect x="83.7" y="1167" fill="url(#SVGID_5_)" width="6.8" height="36"/>
				<linearGradient id="SVGID_6_" gradientUnits="userSpaceOnUse" x1="97.1548" y1="1184.9998" x2="103.9048" y2="1184.9998">
					<stop  offset="0" style="stop-color:#2762FF"/>
					<stop  offset="1" style="stop-color:#2762FF;stop-opacity:0"/>
				</linearGradient>
				<rect x="97.2" y="1167" fill="url(#SVGID_6_)" width="6.8" height="36"/>
				<linearGradient id="SVGID_7_" gradientUnits="userSpaceOnUse" x1="110.6548" y1="1184.9998" x2="117.4048" y2="1184.9998">
					<stop  offset="0" style="stop-color:#2762FF"/>
					<stop  offset="1" style="stop-color:#2762FF;stop-opacity:0"/>
				</linearGradient>
				<rect x="110.7" y="1167" fill="url(#SVGID_7_)" width="6.8" height="36"/>
				<linearGradient id="SVGID_8_" gradientUnits="userSpaceOnUse" x1="124.1548" y1="1184.9998" x2="130.9048" y2="1184.9998">
					<stop  offset="0" style="stop-color:#2762FF"/>
					<stop  offset="1" style="stop-color:#2762FF;stop-opacity:0"/>
				</linearGradient>
				<rect x="124.2" y="1167" fill="url(#SVGID_8_)" width="6.8" height="36"/>
				<g>
					<line fill="#FFFFFF" x1="26.3" y1="1205.2" x2="134.3" y2="1205.2"/>
					<rect x="26.3" y="1204.7" fill="#2762FF" width="108" height="1.1"/>
				</g>
				<g>
					<line fill="#FFFFFF" x1="26.3" y1="1203" x2="134.3" y2="1203"/>
					<rect x="26.3" y="1202.4" fill="#2762FF" width="108" height="1.1"/>
				</g>
				<g>
					<line fill="#FFFFFF" x1="26.3" y1="1207.5" x2="134.3" y2="1207.5"/>
					<rect x="26.3" y="1206.9" fill="#2762FF" width="108" height="1.1"/>
				</g>
				<g>
					<line fill="#FFFFFF" x1="26.3" y1="1209.7" x2="134.3" y2="1209.7"/>
					<rect x="26.3" y="1209.2" fill="#2762FF" width="108" height="1.1"/>
				</g>
				<g>
					<line fill="#FFFFFF" x1="26.3" y1="1212" x2="134.3" y2="1212"/>
					<rect x="26.3" y="1211.4" fill="#2762FF" width="108" height="1.1"/>
				</g>
				<g>
					<path fill="#2762FF" d="M80.3,1161.7c-1.8,0-3.3-1.5-3.3-3.3h1.1c0,1.2,1,2.1,2.1,2.1s2.1-1,2.1-2.1c0-1.2-1-2.1-2.1-2.1
						c-1.8,0-3.3-1.5-3.3-3.3s1.5-3.3,3.3-3.3s3.3,1.5,3.3,3.3h-1.1c0-1.2-1-2.1-2.1-2.1s-2.1,1-2.1,2.1s1,2.1,2.1,2.1
						c1.8,0,3.3,1.5,3.3,3.3S82.1,1161.7,80.3,1161.7z"/>
					<rect x="79.7" y="1149" fill="#2762FF" width="1.1" height="13.5"/>
				</g>
			</g>
		</g>
	</g>
	<g>
		
			<linearGradient id="SVGID_9_" gradientUnits="userSpaceOnUse" x1="-541.5124" y1="60" x2="-669.5124" y2="60" gradientTransform="matrix(-1 0 0 1 -483.4458 0)">
			<stop  offset="0" style="stop-color:#FFFFFF"/>
			<stop  offset="1" style="stop-color:#FCBA59"/>
		</linearGradient>
		<rect x="58.1" y="28" fill="url(#SVGID_9_)" width="128" height="64"/>
		<path fill="#FCBA59" d="M218.1,36c0,4.4-3.6,8-8,8c-4.4,0-8-3.6-8-8c0,4.4-3.6,8-8,8c-4.4,0-8-3.6-8-8c0,4.4-3.6,8-8,8
			c-4.4,0-8-3.6-8-8c0,4.4-3.6,8-8,8c-4.4,0-8-3.6-8-8c0,4.4-3.6,8-8,8c-4.4,0-8-3.6-8-8c0,4.4-3.6,8-8,8c-4.4,0-8-3.6-8-8
			c0,4.4-3.6,8-8,8c-4.4,0-8-3.6-8-8c0,4.4-3.6,8-8,8c-4.4,0-8-3.6-8-8l-32-8h128L218.1,36z"/>
		<rect x="18.1" y="28" fill="#FCBA59" width="39.7" height="64"/>
		<rect x="146.1" y="52" fill="#FFFFFF" width="16" height="40"/>
		<rect x="58.1" y="8" width="112" height="4"/>
		<rect x="58.1" y="0" width="112" height="4"/>
		<rect x="58.1" y="16" width="112" height="4"/>
	</g>
	<g>
		<path fill="#0828BE" d="M105.8,963.6c25.6,6.1,55.6,9.1,80-5.9c17.7-10.9,30.8-22.9,30.8-71.1c0-48.2-46.3-58.6-67.7-58.6
			c-39.7,0-54.2,29-86.1,41s-43,25.3-43,41C19.7,941.3,71.6,955.5,105.8,963.6z"/>
		<g>
			<g>
				<path fill="#EEEEEE" d="M62.9,917.4v23.1h-5.7v-23.1h-9.4v-5.2h24.5v5.2H62.9z"/>
				<path fill="#EEEEEE" d="M80.2,910.8c0.6,0.7,1,1.4,1,2.3c0,0.9-0.3,1.7-1,2.3c-0.6,0.6-1.4,0.9-2.4,0.9c-1,0-1.8-0.3-2.4-0.9
					s-0.9-1.4-0.9-2.3c0-0.9,0.3-1.7,1-2.3c0.6-0.7,1.4-1,2.4-1C78.8,909.8,79.6,910.2,80.2,910.8z M75.1,940.5v-21h5.6v21H75.1z"/>
				<path fill="#EEEEEE" d="M103.4,921.3c1.5,1.6,2.3,3.8,2.3,6.4v12.8h-5.6v-11.6c0-1.5-0.4-2.7-1.2-3.6c-0.8-0.9-1.8-1.3-3.1-1.3
					c-3.5,0-5.2,2.4-5.2,7.3v9.3h-5.6v-21h5.6v1.9c1.7-1.7,3.9-2.5,6.6-2.5C99.8,918.8,101.9,919.7,103.4,921.3z"/>
				<path fill="#EEEEEE" d="M110,940.5v-30.4h5.6v30.4H110z"/>
				<path fill="#EEEEEE" d="M141.6,940.5h-5.6v-1.6c-1.9,1.5-4.2,2.3-7,2.3c-2.8,0-5.2-1.1-7.3-3.2c-2.1-2.1-3.1-4.8-3.1-8
					c0-3.2,1-5.9,3.1-8c2.1-2.1,4.5-3.2,7.2-3.2c2.8,0,5.1,0.8,7,2.3v-1.7h5.6V940.5z M134.3,934.5c1.2-1.2,1.8-2.7,1.8-4.5
					c0-1.9-0.6-3.4-1.8-4.6s-2.6-1.8-4.2-1.8c-1.7,0-3.1,0.6-4.2,1.7c-1.1,1.2-1.7,2.7-1.7,4.6c0,1.9,0.6,3.4,1.7,4.6
					c1.1,1.1,2.5,1.7,4.2,1.7C131.7,936.3,133.1,935.7,134.3,934.5z"/>
				<path fill="#EEEEEE" d="M160.8,940.5l-8.3-8.2h-1v8.2H146v-30.4h5.6v16.7h1l7.5-7.3h7L157,929.5l11.3,11H160.8z"/>
				<path fill="#EEEEEE" d="M188.4,931.5h-16c0.3,1.5,0.9,2.7,1.9,3.6c1,0.9,2.1,1.3,3.4,1.3c2.4,0,4.1-0.9,5.2-2.8l5,1.1
					c-0.9,2.1-2.2,3.8-4,4.8c-1.8,1.1-3.8,1.6-6.2,1.6c-3,0-5.6-1-7.7-3.1c-2.1-2.1-3.1-4.8-3.1-8c0-3.3,1-5.9,3.1-8
					c2.1-2.1,4.7-3.1,7.7-3.1c2.9,0,5.3,1,7.4,3c2.1,2,3.2,4.6,3.3,7.7V931.5z M174.5,924.7c-1,0.7-1.7,1.6-2,2.9h10.2
					c-0.3-1.3-1-2.3-1.9-2.9c-0.9-0.6-1.9-1-3.1-1C176.5,923.7,175.5,924,174.5,924.7z"/>
			</g>
		</g>
	</g>
	<g>
		<line fill="#FFFFFF" x1="118.1" y1="124" x2="118.1" y2="188"/>
		<g>
			<rect x="117.1" y="124" fill="#0828BE" width="2" height="52.1"/>
			<g>
				<polygon fill="#0828BE" points="110.7,170.4 118.1,173.6 125.5,170.4 118.1,188 				"/>
			</g>
		</g>
	</g>
	<g>
		<line fill="#FFFFFF" x1="118.1" y1="380" x2="118.1" y2="444"/>
		<g>
			<rect x="117.1" y="380" fill="#0828BE" width="2" height="52.1"/>
			<g>
				<polygon fill="#0828BE" points="110.7,426.4 118.1,429.6 125.5,426.4 118.1,444 				"/>
			</g>
		</g>
	</g>
	<g>
		<line fill="#FFFFFF" x1="118.1" y1="732" x2="118.1" y2="796"/>
		<g>
			<rect x="117.1" y="732" fill="#0828BE" width="2" height="52.1"/>
			<g>
				<polygon fill="#0828BE" points="110.7,778.4 118.1,781.6 125.5,778.4 118.1,796 				"/>
			</g>
		</g>
	</g>
	<g>
		<line fill="#FFFFFF" x1="118.1" y1="1052" x2="118.1" y2="988"/>
		<g>
			<rect x="117.1" y="999.9" fill="#0828BE" width="2" height="52.1"/>
			<g>
				<polygon fill="#0828BE" points="125.5,1005.6 118.1,1002.4 110.7,1005.6 118.1,988 				"/>
			</g>
		</g>
	</g>
</g>
<g>
	<g>
		<path fill="#FFFFFF" d="M74.2,628c-5.3-13-5.7-28,0-42c5.7-14,5.3-29,0-42H129c5.3,13,5.7,28,0,42c-5.7,14-5.3,29,0,42H74.2z"/>
		<path fill="#FCBA59" d="M130.4,629h-57l-0.3-0.6c-5.6-13.8-5.6-29,0-42.8c5.4-13.3,5.4-27.9,0-41.2l-0.6-1.4h57l0.3,0.6
			c5.6,13.8,5.6,29,0,42.8c-5.4,13.3-5.4,27.9,0,41.2L130.4,629z M74.8,627h52.7c-5-13.4-4.9-28,0.5-41.4
			c5.3-13.1,5.4-27.5,0.2-40.6H75.6c5,13.4,4.9,28-0.5,41.4C69.8,599.5,69.7,613.9,74.8,627z"/>
	</g>
	<g>
		<path fill="#FFFFFF" d="M81.7,622c-5.3-13-5.7-28,0-42c5.7-14,5.3-29,0-42h54.8c5.3,13,5.7,28,0,42c-5.7,14-5.3,29,0,42H81.7z"/>
		<path fill="#FCBA59" d="M137.9,623H81l-0.3-0.6c-5.6-13.8-5.6-29,0-42.8c5.4-13.3,5.4-27.9,0-41.2l-0.6-1.4h57l0.3,0.6
			c5.6,13.8,5.6,29,0,42.8c-5.4,13.3-5.4,27.9,0,41.2L137.9,623z M82.3,621H135c-5-13.4-4.9-28,0.5-41.4c5.3-13.1,5.4-27.5,0.2-40.6
			H83.1c5,13.4,4.9,28-0.5,41.4C77.3,593.5,77.2,607.9,82.3,621z"/>
	</g>
	<g>
		<path fill="#FFFFFF" d="M89.2,616c-5.3-13-5.7-28,0-42c5.7-14,5.3-29,0-42H144c5.3,13,5.7,28,0,42c-5.7,14-5.3,29,0,42H89.2z"/>
		<path fill="#FCBA59" d="M145.4,617h-57l-0.3-0.6c-5.6-13.8-5.6-29,0-42.8c5.4-13.3,5.4-27.9,0-41.2l-0.6-1.4h57l0.3,0.6
			c5.6,13.8,5.6,29,0,42.8c-5.4,13.3-5.4,27.9,0,41.2L145.4,617z M89.8,615h52.7c-5-13.4-4.9-28,0.5-41.4
			c5.3-13.1,5.4-27.5,0.2-40.6H90.6c5,13.4,4.9,28-0.5,41.4C84.8,587.5,84.7,601.9,89.8,615z"/>
	</g>
	<rect x="110.1" y="572" fill="#FFFFFF" width="72" height="72"/>
	<g id="Слой_1_2_">
		<path d="M164.7,640h-37.3c-7.3,0-13.3-6-13.3-13.3v-37.3c0-7.3,6-13.3,13.3-13.3h37.3c7.3,0,13.3,6,13.3,13.3v37.3
			C178.1,634,172.1,640,164.7,640z"/>
		<polygon fill="#FFFFFF" points="136.3,597.3 136.3,611.5 124.4,597.3 120.7,597.3 120.7,618.8 125.1,618.8 125.1,605 137,618.8 
			140.6,618.8 140.6,610.5 151,610.5 151,606.5 140.6,606.5 140.6,601.3 159.9,601.3 159.9,618.8 164.2,618.8 164.2,601.3 
			171.4,601.3 171.4,597.3 		"/>
	</g>
	<circle fill="#FFFFFF" cx="118.1" cy="684" r="28"/>
	<circle fill="#FFFFFF" cx="208.1" cy="528" r="28"/>
	<circle fill="#FFFFFF" cx="28" cy="528" r="28"/>
	<rect x="4.2" y="508" fill="#FFFFFF" width="47.7" height="40"/>
	<g>
		<g>
			<g>
				<path d="M18.1,522.1"/>
				<path d="M6.9,527.3c-0.7-1.6-1.2-3.3-1.2-5.2c0-6.8,5.5-12.3,12.3-12.3c3.8,0,7.2,1.7,9.4,4.4l1.3-1.1c-2.6-3.1-6.5-5-10.8-5
					C10.3,508,4,514.3,4,522.1c0,2.1,0.5,4.1,1.3,5.9L6.9,527.3z"/>
				<path d="M18.1,530.4c-4.6,0-8.4-3.7-8.4-8.4c0-4.6,3.7-8.4,8.4-8.4c2.6,0,4.9,1.2,6.4,3l1.3-1.1c-1.9-2.2-4.6-3.6-7.7-3.6
					C12.5,512,8,516.5,8,522.1c0,5.6,4.5,10.1,10.1,10.1V530.4z"/>
				<path d="M21.1,524.6c-0.7,0.9-1.8,1.4-3,1.4c-2.2,0-4-1.8-4-4s1.8-4,4-4c1.2,0,2.3,0.5,3,1.4l1.5-1.3c-1.1-1.3-2.7-2.1-4.5-2.1
					c-3.3,0-5.9,2.7-5.9,5.9s2.7,5.9,5.9,5.9c1.7,0,3.2-0.7,4.3-1.8L21.1,524.6z"/>
			</g>
		</g>
		<g>
			<rect x="28" y="524" fill="#2762FF" width="24" height="6.5"/>
			<path fill="#FFFFFF" d="M42.2,528.4H31.3c-0.6,0-1.1-0.5-1.1-1.1l0,0c0-0.6,0.5-1.1,1.1-1.1h10.9c0.6,0,1.1,0.5,1.1,1.1l0,0
				C43.3,527.9,42.8,528.4,42.2,528.4z"/>
			<rect x="47.6" y="526.2" fill="#FFFFFF" width="2.2" height="2.2"/>
			<rect x="28" y="532.7" fill="#2762FF" width="24" height="6.5"/>
			<path fill="#FFFFFF" d="M42.2,537.1H31.3c-0.6,0-1.1-0.5-1.1-1.1l0,0c0-0.6,0.5-1.1,1.1-1.1h10.9c0.6,0,1.1,0.5,1.1,1.1l0,0
				C43.3,536.6,42.8,537.1,42.2,537.1z"/>
			<rect x="47.6" y="534.9" fill="#FFFFFF" width="2.2" height="2.2"/>
			<rect x="28" y="541.5" fill="#2762FF" width="24" height="6.5"/>
			<path fill="#FFFFFF" d="M42.2,545.8H31.3c-0.6,0-1.1-0.5-1.1-1.1l0,0c0-0.6,0.5-1.1,1.1-1.1h10.9c0.6,0,1.1,0.5,1.1,1.1l0,0
				C43.3,545.3,42.8,545.8,42.2,545.8z"/>
			<rect x="47.6" y="543.6" fill="#FFFFFF" width="2.2" height="2.2"/>
		</g>
	</g>
	<g>
		<g>
			<g>
				<path d="M198.2,522.1"/>
				<path d="M187,527.3c-0.7-1.6-1.2-3.3-1.2-5.2c0-6.8,5.5-12.3,12.3-12.3c3.8,0,7.2,1.7,9.4,4.4l1.3-1.1c-2.6-3.1-6.5-5-10.8-5
					c-7.8,0-14.1,6.3-14.1,14.1c0,2.1,0.5,4.1,1.3,5.9L187,527.3z"/>
				<path d="M198.2,530.4c-4.6,0-8.4-3.7-8.4-8.4s3.7-8.4,8.4-8.4c2.6,0,4.9,1.2,6.4,3l1.3-1.1c-1.9-2.2-4.6-3.6-7.7-3.6
					c-5.6,0-10.1,4.5-10.1,10.1c0,5.6,4.5,10.1,10.1,10.1V530.4z"/>
				<path d="M201.2,524.6c-0.7,0.9-1.8,1.4-3,1.4c-2.2,0-4-1.8-4-4s1.8-4,4-4c1.2,0,2.3,0.5,3,1.4l1.5-1.3c-1.1-1.3-2.7-2.1-4.5-2.1
					c-3.3,0-5.9,2.7-5.9,5.9s2.7,5.9,5.9,5.9c1.7,0,3.2-0.7,4.3-1.8L201.2,524.6z"/>
			</g>
		</g>
		<g>
			<rect x="208.1" y="524" fill="#2762FF" width="24" height="6.5"/>
			<path fill="#FFFFFF" d="M222.3,528.4h-10.9c-0.6,0-1.1-0.5-1.1-1.1l0,0c0-0.6,0.5-1.1,1.1-1.1h10.9c0.6,0,1.1,0.5,1.1,1.1l0,0
				C223.4,527.9,222.9,528.4,222.3,528.4z"/>
			<rect x="227.8" y="526.2" fill="#FFFFFF" width="2.2" height="2.2"/>
			<rect x="208.1" y="532.7" fill="#2762FF" width="24" height="6.5"/>
			<path fill="#FFFFFF" d="M222.3,537.1h-10.9c-0.6,0-1.1-0.5-1.1-1.1l0,0c0-0.6,0.5-1.1,1.1-1.1h10.9c0.6,0,1.1,0.5,1.1,1.1l0,0
				C223.4,536.6,222.9,537.1,222.3,537.1z"/>
			<rect x="227.8" y="534.9" fill="#FFFFFF" width="2.2" height="2.2"/>
			<rect x="208.1" y="541.5" fill="#2762FF" width="24" height="6.5"/>
			<path fill="#FFFFFF" d="M222.3,545.8h-10.9c-0.6,0-1.1-0.5-1.1-1.1l0,0c0-0.6,0.5-1.1,1.1-1.1h10.9c0.6,0,1.1,0.5,1.1,1.1l0,0
				C223.4,545.3,222.9,545.8,222.3,545.8z"/>
			<rect x="227.8" y="543.6" fill="#FFFFFF" width="2.2" height="2.2"/>
		</g>
	</g>
	<g>
		<g>
			<g>
				<path d="M108.1,678.1"/>
				<path d="M97,683.3c-0.7-1.6-1.2-3.3-1.2-5.2c0-6.8,5.5-12.3,12.3-12.3c3.8,0,7.2,1.7,9.4,4.4l1.3-1.1c-2.6-3.1-6.5-5-10.8-5
					c-7.8,0-14.1,6.3-14.1,14.1c0,2.1,0.5,4.1,1.3,5.9L97,683.3z"/>
				<path d="M108.1,686.4c-4.6,0-8.4-3.7-8.4-8.4s3.7-8.4,8.4-8.4c2.6,0,4.9,1.2,6.4,3l1.3-1.1c-1.9-2.2-4.6-3.6-7.7-3.6
					c-5.6,0-10.1,4.5-10.1,10.1c0,5.6,4.5,10.1,10.1,10.1V686.4z"/>
				<path d="M111.2,680.6c-0.7,0.9-1.8,1.4-3,1.4c-2.2,0-4-1.8-4-4s1.8-4,4-4c1.2,0,2.3,0.5,3,1.4l1.5-1.3c-1.1-1.3-2.7-2.1-4.5-2.1
					c-3.3,0-5.9,2.7-5.9,5.9s2.7,5.9,5.9,5.9c1.7,0,3.2-0.7,4.3-1.8L111.2,680.6z"/>
			</g>
		</g>
		<g>
			<rect x="118.1" y="680" fill="#2762FF" width="24" height="6.5"/>
			<path fill="#FFFFFF" d="M132.2,684.4h-10.9c-0.6,0-1.1-0.5-1.1-1.1l0,0c0-0.6,0.5-1.1,1.1-1.1h10.9c0.6,0,1.1,0.5,1.1,1.1l0,0
				C133.3,683.9,132.9,684.4,132.2,684.4z"/>
			<rect x="137.7" y="682.2" fill="#FFFFFF" width="2.2" height="2.2"/>
			<rect x="118.1" y="688.7" fill="#2762FF" width="24" height="6.5"/>
			<path fill="#FFFFFF" d="M132.2,693.1h-10.9c-0.6,0-1.1-0.5-1.1-1.1l0,0c0-0.6,0.5-1.1,1.1-1.1h10.9c0.6,0,1.1,0.5,1.1,1.1l0,0
				C133.3,692.6,132.9,693.1,132.2,693.1z"/>
			<rect x="137.7" y="690.9" fill="#FFFFFF" width="2.2" height="2.2"/>
			<rect x="118.1" y="697.5" fill="#2762FF" width="24" height="6.5"/>
			<path fill="#FFFFFF" d="M132.2,701.8h-10.9c-0.6,0-1.1-0.5-1.1-1.1l0,0c0-0.6,0.5-1.1,1.1-1.1h10.9c0.6,0,1.1,0.5,1.1,1.1l0,0
				C133.3,701.3,132.9,701.8,132.2,701.8z"/>
			<rect x="137.7" y="699.6" fill="#FFFFFF" width="2.2" height="2.2"/>
		</g>
	</g>
	<linearGradient id="SVGID_10_" gradientUnits="userSpaceOnUse" x1="184.1562" y1="553.6987" x2="184.1562" y2="680.7529">
		<stop  offset="0" style="stop-color:#FFFFFF"/>
		<stop  offset="1" style="stop-color:#2762FF"/>
	</linearGradient>
	<path fill="url(#SVGID_10_)" d="M218.3,554.1c2.1,8.3,3.3,17,3.3,25.9c0,47.6-32.1,87.6-75.8,99.8c0.1,0.3,0.1,0.7,0.1,1
		c44.2-12.2,76.7-52.7,76.7-100.8c0-9.1-1.2-17.9-3.3-26.3C218.9,553.8,218.6,554,218.3,554.1z"/>
	<linearGradient id="SVGID_11_" gradientUnits="userSpaceOnUse" x1="51.977" y1="680.7529" x2="51.977" y2="553.6987">
		<stop  offset="0" style="stop-color:#FFFFFF"/>
		<stop  offset="1" style="stop-color:#2762FF"/>
	</linearGradient>
	<path fill="url(#SVGID_11_)" d="M14.6,580c0-8.9,1.1-17.6,3.3-25.9c-0.3-0.1-0.6-0.3-0.9-0.4c-2.2,8.4-3.3,17.2-3.3,26.3
		c0,48.1,32.5,88.6,76.7,100.8c0-0.3,0.1-0.7,0.1-1C46.7,667.6,14.6,627.6,14.6,580z"/>
	<linearGradient id="SVGID_12_" gradientUnits="userSpaceOnUse" x1="44.7329" y1="490.8369" x2="191.4004" y2="490.8369">
		<stop  offset="0" style="stop-color:#FFFFFF"/>
		<stop  offset="1" style="stop-color:#2762FF"/>
	</linearGradient>
	<path fill="url(#SVGID_12_)" d="M118.1,475.5c-28.6,0-54.5,11.5-73.3,30.1c0.3,0.2,0.5,0.4,0.8,0.6c18.7-18.4,44.3-29.7,72.5-29.7
		c28.3,0,53.9,11.3,72.5,29.7c0.3-0.2,0.5-0.4,0.8-0.6C172.5,487,146.6,475.5,118.1,475.5z"/>
</g>
</svg>
