<?xml version="1.0" encoding="utf-8"?>
<!-- Generator: Adobe Illustrator 18.0.0, SVG Export Plug-In . SVG Version: 6.00 Build 0)  -->
<!DOCTYPE svg PUBLIC "-//W3C//DTD SVG 1.1//EN" "http://www.w3.org/Graphics/SVG/1.1/DTD/svg11.dtd">
<svg version="1.1" id="Слой_1" xmlns="http://www.w3.org/2000/svg" xmlns:xlink="http://www.w3.org/1999/xlink" x="0px" y="0px"
	 viewBox="0 0 1536.5 248" enable-background="new 0 0 1536.5 248" xml:space="preserve">
<g>
	<g>
		<path fill="#FFFFFF" d="M357.4,181.7c-6.9-17-7.4-36.6,0-54.9s6.9-37.9,0-54.9H429c6.9,17,7.4,36.6,0,54.9s-6.9,37.9,0,54.9H357.4
			z"/>
		<path fill="#2762FF" d="M430.5,182.7h-73.8l-0.3-0.6c-7.3-17.9-7.3-37.7,0-55.6c7.1-17.5,7.1-36.7,0-54.1l-0.6-1.4h73.8l0.3,0.6
			c7.3,17.9,7.3,37.7,0,55.6c-7.1,17.5-7.1,36.7,0,54.1L430.5,182.7z M358,180.7h69.5c-6.7-17.6-6.5-36.8,0.5-54.3
			c7-17.2,7.1-36.2,0.2-53.5h-69.5c6.7,17.6,6.5,36.8-0.5,54.3C351.3,144.4,351.2,163.4,358,180.7z"/>
	</g>
	<g>
		<path fill="#FFFFFF" d="M375.1,174.2c-6.9-17-7.4-36.6,0-54.9s6.9-37.9,0-54.9h71.6c6.9,17,7.4,36.6,0,54.9
			c-7.4,18.3-6.9,37.9,0,54.9H375.1z"/>
		<path fill="#2762FF" d="M448.2,175.2h-73.8l-0.3-0.6c-7.3-17.9-7.3-37.7,0-55.6c7.1-17.5,7.1-36.7,0-54.1l-0.6-1.4h73.8l0.3,0.6
			c7.3,17.9,7.3,37.7,0,55.6c-7.1,17.5-7.1,36.7,0,54.1L448.2,175.2z M375.7,173.2h69.5c-6.7-17.6-6.5-36.8,0.5-54.3
			c7-17.2,7.1-36.2,0.2-53.5h-69.5c6.7,17.6,6.5,36.8-0.5,54.3C369,136.9,368.9,155.9,375.7,173.2z"/>
	</g>
	<g>
		<path fill="#FFFFFF" d="M393,166.7c-6.9-17-7.4-36.6,0-54.9s6.9-37.9,0-54.9h71.6c6.9,17,7.4,36.6,0,54.9
			c-7.4,18.3-6.9,37.9,0,54.9H393z"/>
		<path fill="#2762FF" d="M466.1,167.7h-73.8l-0.3-0.6c-7.3-17.9-7.3-37.7,0-55.6c7.1-17.5,7.1-36.7,0-54.1l-0.6-1.4h73.8l0.3,0.6
			c7.3,17.9,7.3,37.7,0,55.6c-7.1,17.5-7.1,36.7,0,54.1L466.1,167.7z M393.7,165.7h69.5c-6.7-17.6-6.5-36.8,0.5-54.3
			c7-17.2,7.1-36.2,0.2-53.5h-69.5c6.7,17.6,6.5,36.8-0.5,54.3C387,129.5,386.9,148.4,393.7,165.7z"/>
	</g>
	<g>
		<path fill="#FFFFFF" d="M411,159.2c-6.9-17-7.4-36.6,0-54.9c7.4-18.3,6.9-37.9,0-54.9h71.6c6.9,17,7.4,36.6,0,54.9
			c-7.4,18.3-6.9,37.9,0,54.9H411z"/>
		<path fill="#2762FF" d="M484.1,160.2h-73.8l-0.3-0.6c-7.3-17.9-7.3-37.7,0-55.6c7.1-17.5,7.1-36.7,0-54.1l-0.6-1.4h73.8l0.3,0.6
			c7.3,17.9,7.3,37.7,0,55.6c-7.1,17.5-7.1,36.7,0,54.1L484.1,160.2z M411.7,158.2h69.5c-6.7-17.6-6.5-36.8,0.5-54.3
			c7-17.2,7.1-36.2,0.2-53.5h-69.5c6.7,17.6,6.5,36.8-0.5,54.3C405,122,404.9,141,411.7,158.2z"/>
	</g>
</g>
<g>
	<g>
		<rect x="1416.4" y="153" fill="#FCBA59" width="32" height="1"/>
		<rect x="1416.4" y="145" fill="#FCBA59" width="32" height="1"/>
		<rect x="1416.4" y="137" fill="#FCBA59" width="32" height="1"/>
		<rect x="1416.4" y="129" fill="#FCBA59" width="32" height="1"/>
		<rect x="1416.4" y="121" fill="#FCBA59" width="32" height="1"/>
		<rect x="1416.4" y="113" fill="#FCBA59" width="32" height="1"/>
		<rect x="1416.4" y="105" fill="#FCBA59" width="32" height="1"/>
		<rect x="1416.4" y="149" fill="#FCBA59" width="32" height="1"/>
		<rect x="1416.4" y="141" fill="#FCBA59" width="32" height="1"/>
		<rect x="1416.4" y="133" fill="#FCBA59" width="32" height="1"/>
		<rect x="1416.4" y="125" fill="#FCBA59" width="32" height="1"/>
		<rect x="1416.4" y="117" fill="#FCBA59" width="32" height="1"/>
		<rect x="1416.4" y="109" fill="#FCBA59" width="32" height="1"/>
		<rect x="1416.4" y="101" fill="#FCBA59" width="32" height="1"/>
		<rect x="1416.4" y="97" fill="#FCBA59" width="32" height="1"/>
		<rect x="1416.4" y="89" fill="#FCBA59" width="32" height="1"/>
		<rect x="1416.4" y="81" fill="#FCBA59" width="32" height="1"/>
		<rect x="1416.4" y="73" fill="#FCBA59" width="32" height="1"/>
		<rect x="1416.4" y="65" fill="#FCBA59" width="32" height="1"/>
		<rect x="1416.4" y="57" fill="#FCBA59" width="32" height="1"/>
		<rect x="1416.4" y="93" fill="#FCBA59" width="32" height="1"/>
		<rect x="1416.4" y="85" fill="#FCBA59" width="32" height="1"/>
		<rect x="1416.4" y="77" fill="#FCBA59" width="32" height="1"/>
		<rect x="1416.4" y="69" fill="#FCBA59" width="32" height="1"/>
		<rect x="1416.4" y="61" fill="#FCBA59" width="32" height="1"/>
		<rect x="1416.4" y="53" fill="#FCBA59" width="64" height="1"/>
		<rect x="1416.4" y="45" fill="#FCBA59" width="64" height="1"/>
		<rect x="1416.4" y="37" fill="#FCBA59" width="64" height="1"/>
		<rect x="1416.4" y="29" fill="#FCBA59" width="64" height="1"/>
		<rect x="1416.4" y="49" fill="#FCBA59" width="64" height="1"/>
		<rect x="1416.4" y="41" fill="#FCBA59" width="64" height="1"/>
		<rect x="1416.4" y="33" fill="#FCBA59" width="64" height="1"/>
		<rect x="1416.4" y="25" fill="#FCBA59" width="64" height="1"/>
	</g>
	<path fill="#333333" d="M1512.9,154h-65V57h65V154z M1448.9,153h63V58h-63V153z"/>
	<rect x="1455.9" y="65.5" fill="#333333" width="1" height="88"/>
	<rect x="1463.9" y="65.5" fill="#333333" width="1" height="88"/>
	<rect x="1471.9" y="65.5" fill="#333333" width="1" height="88"/>
	<rect x="1479.9" y="65.5" fill="#333333" width="1" height="88"/>
	<rect x="1487.9" y="65.5" fill="#333333" width="1" height="88"/>
	<rect x="1495.9" y="65.5" fill="#333333" width="1" height="88"/>
	<rect x="1503.9" y="65.5" fill="#333333" width="1" height="88"/>
	<path fill="#FCBA59" d="M1407.2,154c-4.7,0-8.4-1.3-11-3.8c-9.2-9.2-1.4-33.5,19.8-62l0.8,0.6c-20.9,28.1-28.7,51.9-19.9,60.7
		c2.4,2.4,6,3.6,10.3,3.6c17.8,0,49.6-19,79.5-48.8c37.2-37.2,57.5-77.5,45.3-89.8c-7.7-7.7-27.3-2.6-51.3,13.3l-0.6-0.8
		c24.8-16.4,44.4-21.3,52.5-13.2c6.2,6.2,4.9,19.2-3.8,36.5c-8.6,17.1-23.3,36.6-41.5,54.8s-37.6,32.9-54.8,41.5
		C1422.5,151.4,1413.9,154,1407.2,154z"/>
	<g>
		<circle fill="#FCBA59" cx="1502.4" cy="16" r="16"/>
		<g>
			<path fill="#FFFFFF" d="M1502.4,29.1l-6.6-13.1l6.6-13.1L1509,16L1502.4,29.1z M1497,16l5.4,10.9l5.4-10.9l-5.4-10.9L1497,16z"/>
			<polygon fill="#FFFFFF" points="1502.4,19.6 1496.2,16.4 1496.7,15.6 1502.4,18.4 1508.2,15.6 1508.7,16.4 			"/>
		</g>
		<rect x="1501.9" y="4" fill="#FFFFFF" width="1" height="24"/>
	</g>
	<g>
		<circle fill="#FCBA59" cx="1506.4" cy="83.7" r="16"/>
		<g>
			<rect x="1503.3" y="89.1" fill="#FFFFFF" width="1" height="2.7"/>
			<rect x="1508.6" y="89.1" fill="#FFFFFF" width="1" height="2.7"/>
			<rect x="1503.3" y="75.7" fill="#FFFFFF" width="1" height="2.7"/>
			<rect x="1508.6" y="75.7" fill="#FFFFFF" width="1" height="2.7"/>
			<path fill="#FFFFFF" d="M1511.8,89.6h-13.8V77.9h13.8c1.7,0,3.2,1.4,3.2,3.2c0,1.1-0.6,2.1-1.5,2.7c0.9,0.6,1.5,1.5,1.5,2.7
				C1514.9,88.2,1513.5,89.6,1511.8,89.6z M1498.9,88.6h12.8c1.2,0,2.2-1,2.2-2.2s-1-2.2-2.2-2.2h-12.8V88.6z M1498.9,83.2h12.8
				c1.2,0,2.2-1,2.2-2.2c0-1.2-1-2.2-2.2-2.2h-12.8V83.2z"/>
		</g>
	</g>
	<g>
		<circle fill="#FCBA59" cx="1396.5" cy="123.5" r="16"/>
		<g>
			<path fill="#FFFFFF" d="M1394.8,132h-3.2v-17h3.2c4.7,0,8.5,3.8,8.5,8.5C1403.3,128.2,1399.5,132,1394.8,132z M1392.7,131h2.2
				c4.1,0,7.5-3.4,7.5-7.5s-3.4-7.5-7.5-7.5h-2.2V131z"/>
			<rect x="1389.5" y="121.6" fill="#FFFFFF" width="16" height="1"/>
			<rect x="1389.5" y="124.3" fill="#FFFFFF" width="16" height="1"/>
		</g>
	</g>
</g>
<g>
	<polygon fill="#FFFFFF" points="1352.4,153.5 1352.4,108.5 1406.4,81.5 1460.4,108.5 1460.4,153.5 	"/>
	<g>
		<path fill="#2762FF" d="M1462.8,109H1350l56.4-28.2L1462.8,109z M1354.8,107.9H1458l-51.6-25.8L1354.8,107.9z"/>
		<linearGradient id="SVGID_1_" gradientUnits="userSpaceOnUse" x1="1355.8014" y1="126.4638" x2="1362.5514" y2="126.4638">
			<stop  offset="0" style="stop-color:#2762FF"/>
			<stop  offset="1" style="stop-color:#2762FF;stop-opacity:0"/>
		</linearGradient>
		<rect x="1355.8" y="108.5" fill="url(#SVGID_1_)" width="6.8" height="36"/>
		<linearGradient id="SVGID_2_" gradientUnits="userSpaceOnUse" x1="1369.3014" y1="126.4638" x2="1376.0514" y2="126.4638">
			<stop  offset="0" style="stop-color:#2762FF"/>
			<stop  offset="1" style="stop-color:#2762FF;stop-opacity:0"/>
		</linearGradient>
		<rect x="1369.3" y="108.5" fill="url(#SVGID_2_)" width="6.8" height="36"/>
		<linearGradient id="SVGID_3_" gradientUnits="userSpaceOnUse" x1="1382.8014" y1="126.4638" x2="1389.5514" y2="126.4638">
			<stop  offset="0" style="stop-color:#2762FF"/>
			<stop  offset="1" style="stop-color:#2762FF;stop-opacity:0"/>
		</linearGradient>
		<rect x="1382.8" y="108.5" fill="url(#SVGID_3_)" width="6.8" height="36"/>
		<linearGradient id="SVGID_4_" gradientUnits="userSpaceOnUse" x1="1396.3014" y1="126.4638" x2="1403.0514" y2="126.4638">
			<stop  offset="0" style="stop-color:#2762FF"/>
			<stop  offset="1" style="stop-color:#2762FF;stop-opacity:0"/>
		</linearGradient>
		<rect x="1396.3" y="108.5" fill="url(#SVGID_4_)" width="6.8" height="36"/>
		<linearGradient id="SVGID_5_" gradientUnits="userSpaceOnUse" x1="1409.8014" y1="126.4638" x2="1416.5514" y2="126.4638">
			<stop  offset="0" style="stop-color:#2762FF"/>
			<stop  offset="1" style="stop-color:#2762FF;stop-opacity:0"/>
		</linearGradient>
		<rect x="1409.8" y="108.5" fill="url(#SVGID_5_)" width="6.8" height="36"/>
		<linearGradient id="SVGID_6_" gradientUnits="userSpaceOnUse" x1="1423.3014" y1="126.4638" x2="1430.0514" y2="126.4638">
			<stop  offset="0" style="stop-color:#2762FF"/>
			<stop  offset="1" style="stop-color:#2762FF;stop-opacity:0"/>
		</linearGradient>
		<rect x="1423.3" y="108.5" fill="url(#SVGID_6_)" width="6.8" height="36"/>
		<linearGradient id="SVGID_7_" gradientUnits="userSpaceOnUse" x1="1436.8014" y1="126.4638" x2="1443.5514" y2="126.4638">
			<stop  offset="0" style="stop-color:#2762FF"/>
			<stop  offset="1" style="stop-color:#2762FF;stop-opacity:0"/>
		</linearGradient>
		<rect x="1436.8" y="108.5" fill="url(#SVGID_7_)" width="6.8" height="36"/>
		<linearGradient id="SVGID_8_" gradientUnits="userSpaceOnUse" x1="1450.3014" y1="126.4638" x2="1457.0514" y2="126.4638">
			<stop  offset="0" style="stop-color:#2762FF"/>
			<stop  offset="1" style="stop-color:#2762FF;stop-opacity:0"/>
		</linearGradient>
		<rect x="1450.3" y="108.5" fill="url(#SVGID_8_)" width="6.8" height="36"/>
		<g>
			<line fill="#FFFFFF" x1="1352.4" y1="146.7" x2="1460.4" y2="146.7"/>
			<rect x="1352.4" y="146.2" fill="#2762FF" width="108" height="1.1"/>
		</g>
		<g>
			<line fill="#FFFFFF" x1="1352.4" y1="144.5" x2="1460.4" y2="144.5"/>
			<rect x="1352.4" y="143.9" fill="#2762FF" width="108" height="1.1"/>
		</g>
		<g>
			<line fill="#FFFFFF" x1="1352.4" y1="149" x2="1460.4" y2="149"/>
			<rect x="1352.4" y="148.4" fill="#2762FF" width="108" height="1.1"/>
		</g>
		<g>
			<line fill="#FFFFFF" x1="1352.4" y1="151.2" x2="1460.4" y2="151.2"/>
			<rect x="1352.4" y="150.7" fill="#2762FF" width="108" height="1.1"/>
		</g>
		<g>
			<line fill="#FFFFFF" x1="1352.4" y1="153.5" x2="1460.4" y2="153.5"/>
			<rect x="1352.4" y="152.9" fill="#2762FF" width="108" height="1.1"/>
		</g>
		<g>
			<path fill="#2762FF" d="M1406.4,103.2c-1.8,0-3.3-1.5-3.3-3.3h1.1c0,1.2,1,2.1,2.1,2.1c1.2,0,2.1-1,2.1-2.1c0-1.2-1-2.1-2.1-2.1
				c-1.8,0-3.3-1.5-3.3-3.3s1.5-3.3,3.3-3.3s3.3,1.5,3.3,3.3h-1.1c0-1.2-1-2.1-2.1-2.1c-1.2,0-2.1,1-2.1,2.1s1,2.1,2.1,2.1
				c1.8,0,3.3,1.5,3.3,3.3S1408.2,103.2,1406.4,103.2z"/>
			<rect x="1405.9" y="90.5" fill="#2762FF" width="1.1" height="13.5"/>
		</g>
	</g>
</g>
<g>
	
		<linearGradient id="SVGID_9_" gradientUnits="userSpaceOnUse" x1="4448" y1="121.4638" x2="4320" y2="121.4638" gradientTransform="matrix(-1 0 0 1 4488 0)">
		<stop  offset="0" style="stop-color:#FFFFFF"/>
		<stop  offset="1" style="stop-color:#FCBA59"/>
	</linearGradient>
	<rect x="40" y="89.5" fill="url(#SVGID_9_)" width="128" height="64"/>
	<path fill="#FCBA59" d="M200,97.5c0,4.4-3.6,8-8,8s-8-3.6-8-8c0,4.4-3.6,8-8,8s-8-3.6-8-8c0,4.4-3.6,8-8,8s-8-3.6-8-8
		c0,4.4-3.6,8-8,8s-8-3.6-8-8c0,4.4-3.6,8-8,8c-4.4,0-8-3.6-8-8c0,4.4-3.6,8-8,8s-8-3.6-8-8c0,4.4-3.6,8-8,8s-8-3.6-8-8
		c0,4.4-3.6,8-8,8s-8-3.6-8-8l-32-8h128L200,97.5z"/>
	<rect x="0" y="89.5" fill="#FCBA59" width="39.7" height="64"/>
	<rect x="128" y="113.5" fill="#FFFFFF" width="16" height="40"/>
	<rect x="40" y="69.5" width="112" height="4"/>
	<rect x="40" y="61.5" width="112" height="4"/>
	<rect x="40" y="77.5" width="112" height="4"/>
</g>
<g>
	<path fill="#0828BE" d="M1110.5,169.1c25.6,6.1,55.6,9.1,80-5.9c17.7-10.9,30.8-22.9,30.8-71.1s-46.3-58.6-67.7-58.6
		c-39.7,0-54.2,29-86.1,41s-43.1,25.3-43.1,41C1024.4,146.7,1076.3,160.9,1110.5,169.1z"/>
	<g>
		<g>
			<path fill="#EEEEEE" d="M1067.7,122.9V146h-5.7v-23.1h-9.4v-5.2h24.5v5.2H1067.7z"/>
			<path fill="#EEEEEE" d="M1085,116.3c0.6,0.7,1,1.4,1,2.3c0,0.9-0.3,1.7-1,2.3c-0.6,0.6-1.4,0.9-2.4,0.9c-1,0-1.8-0.3-2.4-0.9
				c-0.6-0.6-0.9-1.4-0.9-2.3c0-0.9,0.3-1.7,1-2.3c0.6-0.7,1.4-1,2.4-1C1083.6,115.3,1084.4,115.6,1085,116.3z M1079.8,146v-21h5.6
				v21H1079.8z"/>
			<path fill="#EEEEEE" d="M1108.2,126.8c1.5,1.6,2.3,3.8,2.3,6.4V146h-5.6v-11.6c0-1.5-0.4-2.7-1.2-3.6c-0.8-0.9-1.8-1.3-3.1-1.3
				c-3.5,0-5.2,2.4-5.2,7.3v9.3h-5.6v-21h5.6v1.9c1.7-1.7,3.9-2.5,6.6-2.5C1104.6,124.3,1106.6,125.1,1108.2,126.8z"/>
			<path fill="#EEEEEE" d="M1114.8,146v-30.4h5.6V146H1114.8z"/>
			<path fill="#EEEEEE" d="M1146.4,146h-5.6v-1.6c-1.9,1.5-4.2,2.3-7,2.3c-2.8,0-5.2-1.1-7.3-3.2c-2.1-2.1-3.1-4.8-3.1-8
				c0-3.2,1-5.9,3.1-8c2.1-2.1,4.5-3.2,7.2-3.2c2.8,0,5.1,0.8,7,2.3v-1.7h5.6V146z M1139,140c1.2-1.2,1.8-2.7,1.8-4.5
				c0-1.9-0.6-3.4-1.8-4.6c-1.2-1.2-2.6-1.8-4.2-1.8c-1.7,0-3.1,0.6-4.2,1.7c-1.1,1.2-1.7,2.7-1.7,4.6c0,1.9,0.6,3.4,1.7,4.6
				c1.1,1.1,2.5,1.7,4.2,1.7C1136.4,141.8,1137.8,141.2,1139,140z"/>
			<path fill="#EEEEEE" d="M1165.6,146l-8.3-8.2h-1v8.2h-5.6v-30.4h5.6v16.7h1l7.5-7.3h7l-10.2,10.1l11.3,11H1165.6z"/>
			<path fill="#EEEEEE" d="M1193.1,136.9h-16c0.3,1.5,0.9,2.7,1.9,3.6c1,0.9,2.1,1.3,3.4,1.3c2.4,0,4.1-0.9,5.2-2.8l5,1.1
				c-0.9,2.1-2.2,3.8-4,4.8c-1.8,1.1-3.8,1.6-6.2,1.6c-3,0-5.6-1-7.7-3.1c-2.1-2.1-3.1-4.8-3.1-8c0-3.3,1-5.9,3.1-8
				c2.1-2.1,4.7-3.1,7.7-3.1c2.9,0,5.3,1,7.4,3c2.1,2,3.2,4.6,3.3,7.7V136.9z M1179.2,130.2c-1,0.7-1.7,1.6-2,2.9h10.2
				c-0.3-1.3-1-2.3-1.9-2.9c-0.9-0.6-1.9-1-3.1-1C1181.3,129.1,1180.2,129.5,1179.2,130.2z"/>
		</g>
	</g>
</g>
<g>
	<line fill="#FFFFFF" x1="224" y1="121.5" x2="288" y2="121.5"/>
	<g>
		<rect x="224" y="120.5" fill="#0828BE" width="52.1" height="2"/>
		<g>
			<polygon fill="#0828BE" points="270.4,128.9 273.6,121.5 270.4,114.1 288,121.5 			"/>
		</g>
	</g>
</g>
<g>
	<g>
		<line fill="#FFFFFF" x1="544" y1="121.5" x2="608" y2="121.5"/>
		<g>
			<rect x="544" y="120.5" fill="#0828BE" width="52.1" height="2"/>
			<g>
				<polygon fill="#0828BE" points="590.4,128.9 593.6,121.5 590.4,114.1 608,121.5 				"/>
			</g>
		</g>
	</g>
	<g>
		<line fill="#FFFFFF" x1="928.4" y1="121.5" x2="992.4" y2="121.5"/>
		<g>
			<rect x="928.4" y="120.5" fill="#0828BE" width="52.1" height="2"/>
			<g>
				<polygon fill="#0828BE" points="974.9,128.9 978,121.5 974.9,114.1 992.4,121.5 				"/>
			</g>
		</g>
	</g>
</g>
<g>
	<line fill="#FFFFFF" x1="1312.4" y1="121.5" x2="1248.4" y2="121.5"/>
	<g>
		<rect x="1260.4" y="120.5" fill="#0828BE" width="52.1" height="2"/>
		<g>
			<polygon fill="#0828BE" points="1266,114.1 1262.8,121.5 1266,128.9 1248.4,121.5 			"/>
		</g>
	</g>
</g>
<g>
	<g>
		<path fill="#FFFFFF" d="M724.3,164c-5.3-13-5.7-28,0-42c5.7-14,5.3-29,0-42h54.8c5.3,13,5.7,28,0,42c-5.7,14-5.3,29,0,42H724.3z"
			/>
		<path fill="#FCBA59" d="M780.6,165h-57l-0.3-0.6c-5.6-13.8-5.6-29,0-42.8c5.4-13.3,5.4-27.9,0-41.2l-0.6-1.4h57l0.3,0.6
			c5.6,13.8,5.6,29,0,42.8c-5.4,13.3-5.4,27.9,0,41.2L780.6,165z M725,163h52.7c-5-13.4-4.9-28,0.5-41.4c5.3-13.1,5.4-27.5,0.2-40.6
			h-52.7c5,13.4,4.9,28-0.5,41.4C719.9,135.5,719.9,149.9,725,163z"/>
	</g>
	<g>
		<path fill="#FFFFFF" d="M731.8,158c-5.3-13-5.7-28,0-42c5.7-14,5.3-29,0-42h54.8c5.3,13,5.7,28,0,42c-5.7,14-5.3,29,0,42H731.8z"
			/>
		<path fill="#FCBA59" d="M788.1,159h-57l-0.3-0.6c-5.6-13.8-5.6-29,0-42.8c5.4-13.3,5.4-27.9,0-41.2l-0.6-1.4h57l0.3,0.6
			c5.6,13.8,5.6,29,0,42.8c-5.4,13.3-5.4,27.9,0,41.2L788.1,159z M732.5,157h52.7c-5-13.4-4.9-28,0.5-41.4
			c5.3-13.1,5.4-27.5,0.2-40.6h-52.7c5,13.4,4.9,28-0.5,41.4C727.4,129.5,727.4,143.9,732.5,157z"/>
	</g>
	<g>
		<path fill="#FFFFFF" d="M739.3,152c-5.3-13-5.7-28,0-42c5.7-14,5.3-29,0-42h54.8c5.3,13,5.7,28,0,42c-5.7,14-5.3,29,0,42H739.3z"
			/>
		<path fill="#FCBA59" d="M795.6,153h-57l-0.3-0.6c-5.6-13.8-5.6-29,0-42.8c5.4-13.3,5.4-27.9,0-41.2l-0.6-1.4h57l0.3,0.6
			c5.6,13.8,5.6,29,0,42.8c-5.4,13.3-5.4,27.9,0,41.2L795.6,153z M740,151h52.7c-5-13.4-4.9-28,0.5-41.4c5.3-13.1,5.4-27.5,0.2-40.6
			h-52.7c5,13.4,4.9,28-0.5,41.4C734.9,123.5,734.9,137.9,740,151z"/>
	</g>
	<rect x="760.2" y="108" fill="#FFFFFF" width="72" height="72"/>
	<g id="Слой_1_6_">
		<path d="M814.9,176h-37.3c-7.3,0-13.3-6-13.3-13.3v-37.3c0-7.3,6-13.3,13.3-13.3h37.3c7.3,0,13.3,6,13.3,13.3v37.3
			C828.2,170,822.2,176,814.9,176z"/>
		<polygon fill="#FFFFFF" points="786.4,133.3 786.4,147.5 774.5,133.3 770.9,133.3 770.9,154.8 775.2,154.8 775.2,141 787.1,154.8 
			790.8,154.8 790.8,146.5 801.2,146.5 801.2,142.5 790.8,142.5 790.8,137.3 810,137.3 810,154.8 814.4,154.8 814.4,137.3 
			821.5,137.3 821.5,133.3 		"/>
	</g>
	<circle fill="#FFFFFF" cx="768.2" cy="220" r="28"/>
	<circle fill="#FFFFFF" cx="858.3" cy="64" r="28"/>
	<circle fill="#FFFFFF" cx="678.1" cy="64" r="28"/>
	<rect x="654.3" y="44" fill="#FFFFFF" width="47.7" height="40"/>
	<g>
		<g>
			<g>
				<path d="M668.2,58.1"/>
				<path d="M657.1,63.3c-0.7-1.6-1.2-3.3-1.2-5.2c0-6.8,5.5-12.3,12.3-12.3c3.8,0,7.2,1.7,9.4,4.4L679,49c-2.6-3.1-6.5-5-10.8-5
					c-7.8,0-14.1,6.3-14.1,14.1c0,2.1,0.5,4.1,1.3,5.9L657.1,63.3z"/>
				<path d="M668.2,66.4c-4.6,0-8.4-3.7-8.4-8.4s3.7-8.4,8.4-8.4c2.6,0,4.9,1.2,6.4,3l1.3-1.1c-1.9-2.2-4.6-3.6-7.7-3.6
					c-5.6,0-10.1,4.5-10.1,10.1s4.5,10.1,10.1,10.1V66.4z"/>
				<path d="M671.2,60.6c-0.7,0.9-1.8,1.4-3,1.4c-2.2,0-4-1.8-4-4c0-2.2,1.8-4,4-4c1.2,0,2.3,0.5,3,1.4l1.5-1.3
					c-1.1-1.3-2.7-2.1-4.5-2.1c-3.3,0-5.9,2.7-5.9,5.9c0,3.3,2.7,5.9,5.9,5.9c1.7,0,3.2-0.7,4.3-1.8L671.2,60.6z"/>
			</g>
		</g>
		<g>
			<rect x="678.1" y="60" fill="#2762FF" width="24" height="6.5"/>
			<path fill="#FFFFFF" d="M692.3,64.4h-10.9c-0.6,0-1.1-0.5-1.1-1.1l0,0c0-0.6,0.5-1.1,1.1-1.1h10.9c0.6,0,1.1,0.5,1.1,1.1l0,0
				C693.4,63.9,692.9,64.4,692.3,64.4z"/>
			<rect x="697.8" y="62.2" fill="#FFFFFF" width="2.2" height="2.2"/>
			<rect x="678.1" y="68.7" fill="#2762FF" width="24" height="6.5"/>
			<path fill="#FFFFFF" d="M692.3,73.1h-10.9c-0.6,0-1.1-0.5-1.1-1.1v0c0-0.6,0.5-1.1,1.1-1.1h10.9c0.6,0,1.1,0.5,1.1,1.1v0
				C693.4,72.6,692.9,73.1,692.3,73.1z"/>
			<rect x="697.8" y="70.9" fill="#FFFFFF" width="2.2" height="2.2"/>
			<rect x="678.1" y="77.5" fill="#2762FF" width="24" height="6.5"/>
			<path fill="#FFFFFF" d="M692.3,81.8h-10.9c-0.6,0-1.1-0.5-1.1-1.1l0,0c0-0.6,0.5-1.1,1.1-1.1h10.9c0.6,0,1.1,0.5,1.1,1.1l0,0
				C693.4,81.3,692.9,81.8,692.3,81.8z"/>
			<rect x="697.8" y="79.6" fill="#FFFFFF" width="2.2" height="2.2"/>
		</g>
	</g>
	<g>
		<g>
			<g>
				<path d="M848.4,58.1"/>
				<path d="M837.2,63.3c-0.7-1.6-1.2-3.3-1.2-5.2c0-6.8,5.5-12.3,12.3-12.3c3.8,0,7.2,1.7,9.4,4.4l1.3-1.1c-2.6-3.1-6.5-5-10.8-5
					c-7.8,0-14.1,6.3-14.1,14.1c0,2.1,0.5,4.1,1.3,5.9L837.2,63.3z"/>
				<path d="M848.4,66.4c-4.6,0-8.4-3.7-8.4-8.4s3.7-8.4,8.4-8.4c2.6,0,4.9,1.2,6.4,3l1.3-1.1c-1.9-2.2-4.6-3.6-7.7-3.6
					c-5.6,0-10.1,4.5-10.1,10.1s4.5,10.1,10.1,10.1V66.4z"/>
				<path d="M851.4,60.6c-0.7,0.9-1.8,1.4-3,1.4c-2.2,0-4-1.8-4-4c0-2.2,1.8-4,4-4c1.2,0,2.3,0.5,3,1.4l1.5-1.3
					c-1.1-1.3-2.7-2.1-4.5-2.1c-3.3,0-5.9,2.7-5.9,5.9c0,3.3,2.7,5.9,5.9,5.9c1.7,0,3.2-0.7,4.3-1.8L851.4,60.6z"/>
			</g>
		</g>
		<g>
			<rect x="858.3" y="60" fill="#2762FF" width="24" height="6.5"/>
			<path fill="#FFFFFF" d="M872.5,64.4h-10.9c-0.6,0-1.1-0.5-1.1-1.1l0,0c0-0.6,0.5-1.1,1.1-1.1h10.9c0.6,0,1.1,0.5,1.1,1.1l0,0
				C873.6,63.9,873.1,64.4,872.5,64.4z"/>
			<rect x="877.9" y="62.2" fill="#FFFFFF" width="2.2" height="2.2"/>
			<rect x="858.3" y="68.7" fill="#2762FF" width="24" height="6.5"/>
			<path fill="#FFFFFF" d="M872.5,73.1h-10.9c-0.6,0-1.1-0.5-1.1-1.1l0,0c0-0.6,0.5-1.1,1.1-1.1h10.9c0.6,0,1.1,0.5,1.1,1.1l0,0
				C873.6,72.6,873.1,73.1,872.5,73.1z"/>
			<rect x="877.9" y="70.9" fill="#FFFFFF" width="2.2" height="2.2"/>
			<rect x="858.3" y="77.5" fill="#2762FF" width="24" height="6.5"/>
			<path fill="#FFFFFF" d="M872.5,81.8h-10.9c-0.6,0-1.1-0.5-1.1-1.1l0,0c0-0.6,0.5-1.1,1.1-1.1h10.9c0.6,0,1.1,0.5,1.1,1.1l0,0
				C873.6,81.3,873.1,81.8,872.5,81.8z"/>
			<rect x="877.9" y="79.6" fill="#FFFFFF" width="2.2" height="2.2"/>
		</g>
	</g>
	<g>
		<g>
			<g>
				<path d="M758.3,214.1"/>
				<path d="M747.1,219.3c-0.7-1.6-1.2-3.3-1.2-5.2c0-6.8,5.5-12.3,12.3-12.3c3.8,0,7.2,1.7,9.4,4.4l1.3-1.1c-2.6-3.1-6.5-5-10.8-5
					c-7.8,0-14.1,6.3-14.1,14.1c0,2.1,0.5,4.1,1.3,5.9L747.1,219.3z"/>
				<path d="M758.3,222.4c-4.6,0-8.4-3.7-8.4-8.4c0-4.6,3.7-8.4,8.4-8.4c2.6,0,4.9,1.2,6.4,3l1.3-1.1c-1.9-2.2-4.6-3.6-7.7-3.6
					c-5.6,0-10.1,4.5-10.1,10.1c0,5.6,4.5,10.1,10.1,10.1V222.4z"/>
				<path d="M761.3,216.6c-0.7,0.9-1.8,1.4-3,1.4c-2.2,0-4-1.8-4-4c0-2.2,1.8-4,4-4c1.2,0,2.3,0.5,3,1.4l1.5-1.3
					c-1.1-1.3-2.7-2.1-4.5-2.1c-3.3,0-5.9,2.7-5.9,5.9c0,3.3,2.7,5.9,5.9,5.9c1.7,0,3.2-0.7,4.3-1.8L761.3,216.6z"/>
			</g>
		</g>
		<g>
			<rect x="768.2" y="216" fill="#2762FF" width="24" height="6.5"/>
			<path fill="#FFFFFF" d="M782.4,220.4h-10.9c-0.6,0-1.1-0.5-1.1-1.1l0,0c0-0.6,0.5-1.1,1.1-1.1h10.9c0.6,0,1.1,0.5,1.1,1.1l0,0
				C783.5,219.9,783,220.4,782.4,220.4z"/>
			<rect x="787.8" y="218.2" fill="#FFFFFF" width="2.2" height="2.2"/>
			<rect x="768.2" y="224.7" fill="#2762FF" width="24" height="6.5"/>
			<path fill="#FFFFFF" d="M782.4,229.1h-10.9c-0.6,0-1.1-0.5-1.1-1.1v0c0-0.6,0.5-1.1,1.1-1.1h10.9c0.6,0,1.1,0.5,1.1,1.1v0
				C783.5,228.6,783,229.1,782.4,229.1z"/>
			<rect x="787.8" y="226.9" fill="#FFFFFF" width="2.2" height="2.2"/>
			<rect x="768.2" y="233.5" fill="#2762FF" width="24" height="6.5"/>
			<path fill="#FFFFFF" d="M782.4,237.8h-10.9c-0.6,0-1.1-0.5-1.1-1.1l0,0c0-0.6,0.5-1.1,1.1-1.1h10.9c0.6,0,1.1,0.5,1.1,1.1l0,0
				C783.5,237.3,783,237.8,782.4,237.8z"/>
			<rect x="787.8" y="235.6" fill="#FFFFFF" width="2.2" height="2.2"/>
		</g>
	</g>
	<linearGradient id="SVGID_10_" gradientUnits="userSpaceOnUse" x1="834.3025" y1="89.6987" x2="834.3025" y2="216.7529">
		<stop  offset="0" style="stop-color:#FFFFFF"/>
		<stop  offset="1" style="stop-color:#2762FF"/>
	</linearGradient>
	<path fill="url(#SVGID_10_)" d="M868.4,90.1c2.1,8.3,3.3,17,3.3,25.9c0,47.6-32.1,87.6-75.8,99.8c0.1,0.3,0.1,0.7,0.1,1
		c44.2-12.2,76.7-52.7,76.7-100.8c0-9.1-1.2-17.9-3.3-26.3C869.1,89.8,868.8,90,868.4,90.1z"/>
	<linearGradient id="SVGID_11_" gradientUnits="userSpaceOnUse" x1="702.1233" y1="216.7529" x2="702.1233" y2="89.6987">
		<stop  offset="0" style="stop-color:#FFFFFF"/>
		<stop  offset="1" style="stop-color:#2762FF"/>
	</linearGradient>
	<path fill="url(#SVGID_11_)" d="M664.7,116c0-8.9,1.1-17.6,3.3-25.9c-0.3-0.1-0.6-0.3-0.9-0.4c-2.2,8.4-3.3,17.2-3.3,26.3
		c0,48.1,32.5,88.6,76.7,100.8c0-0.3,0.1-0.7,0.1-1C696.8,203.6,664.7,163.6,664.7,116z"/>
	<linearGradient id="SVGID_12_" gradientUnits="userSpaceOnUse" x1="694.8792" y1="26.8369" x2="841.5466" y2="26.8369">
		<stop  offset="0" style="stop-color:#FFFFFF"/>
		<stop  offset="1" style="stop-color:#2762FF"/>
	</linearGradient>
	<path fill="url(#SVGID_12_)" d="M768.2,11.5c-28.6,0-54.5,11.5-73.3,30.1c0.3,0.2,0.5,0.4,0.8,0.6c18.7-18.4,44.3-29.7,72.5-29.7
		c28.3,0,53.9,11.3,72.5,29.7c0.3-0.2,0.5-0.4,0.8-0.6C822.7,23,796.8,11.5,768.2,11.5z"/>
</g>
</svg>
