<?xml version="1.0" encoding="utf-8"?>
<!-- Generator: Adobe Illustrator 18.0.0, SVG Export Plug-In . SVG Version: 6.00 Build 0)  -->
<!DOCTYPE svg PUBLIC "-//W3C//DTD SVG 1.1//EN" "http://www.w3.org/Graphics/SVG/1.1/DTD/svg11.dtd">
<svg version="1.1" id="Слой_1" xmlns="http://www.w3.org/2000/svg" xmlns:xlink="http://www.w3.org/1999/xlink" x="0px" y="0px"
	 viewBox="0 0 1536 182.7" enable-background="new 0 0 1536 182.7" xml:space="preserve">
<g>
	<g>
		<g>
			<path fill="#FFFFFF" d="M357.4,181.7c-6.9-17-7.4-36.6,0-54.9s6.9-37.9,0-54.9H429c6.9,17,7.4,36.6,0,54.9s-6.9,37.9,0,54.9
				H357.4z"/>
			<path fill="#2762FF" d="M430.5,182.7h-73.8l-0.3-0.6c-7.3-17.9-7.3-37.7,0-55.6c7.1-17.5,7.1-36.7,0-54.1l-0.6-1.4h73.8l0.3,0.6
				c7.3,17.9,7.3,37.7,0,55.6c-7.1,17.5-7.1,36.7,0,54.1L430.5,182.7z M358,180.7h69.5c-6.7-17.6-6.5-36.8,0.5-54.3
				c7-17.2,7.1-36.2,0.2-53.5h-69.5c6.7,17.6,6.5,36.8-0.5,54.3C351.3,144.4,351.2,163.4,358,180.7z"/>
		</g>
		<g>
			<path fill="#FFFFFF" d="M375.1,174.2c-6.9-17-7.4-36.6,0-54.9s6.9-37.9,0-54.9h71.6c6.9,17,7.4,36.6,0,54.9
				c-7.4,18.3-6.9,37.9,0,54.9H375.1z"/>
			<path fill="#2762FF" d="M448.2,175.2h-73.8l-0.3-0.6c-7.3-17.9-7.3-37.7,0-55.6c7.1-17.5,7.1-36.7,0-54.1l-0.6-1.4h73.8l0.3,0.6
				c7.3,17.9,7.3,37.7,0,55.6c-7.1,17.5-7.1,36.7,0,54.1L448.2,175.2z M375.7,173.2h69.5c-6.7-17.6-6.5-36.8,0.5-54.3
				c7-17.2,7.1-36.2,0.2-53.5h-69.5c6.7,17.6,6.5,36.8-0.5,54.3C369,136.9,368.9,155.9,375.7,173.2z"/>
		</g>
		<g>
			<path fill="#FFFFFF" d="M393,166.7c-6.9-17-7.4-36.6,0-54.9s6.9-37.9,0-54.9h71.6c6.9,17,7.4,36.6,0,54.9
				c-7.4,18.3-6.9,37.9,0,54.9H393z"/>
			<path fill="#2762FF" d="M466.1,167.7h-73.8l-0.3-0.6c-7.3-17.9-7.3-37.7,0-55.6c7.1-17.5,7.1-36.7,0-54.1l-0.6-1.4h73.8l0.3,0.6
				c7.3,17.9,7.3,37.7,0,55.6c-7.1,17.5-7.1,36.7,0,54.1L466.1,167.7z M393.7,165.7h69.5c-6.7-17.6-6.5-36.8,0.5-54.3
				c7-17.2,7.1-36.2,0.2-53.5h-69.5c6.7,17.6,6.5,36.8-0.5,54.3C387,129.5,386.9,148.4,393.7,165.7z"/>
		</g>
		<g>
			<path fill="#FFFFFF" d="M411,159.2c-6.9-17-7.4-36.6,0-54.9c7.4-18.3,6.9-37.9,0-54.9h71.6c6.9,17,7.4,36.6,0,54.9
				c-7.4,18.3-6.9,37.9,0,54.9H411z"/>
			<path fill="#2762FF" d="M484.1,160.2h-73.8l-0.3-0.6c-7.3-17.9-7.3-37.7,0-55.6c7.1-17.5,7.1-36.7,0-54.1l-0.6-1.4h73.8l0.3,0.6
				c7.3,17.9,7.3,37.7,0,55.6c-7.1,17.5-7.1,36.7,0,54.1L484.1,160.2z M411.7,158.2h69.5c-6.7-17.6-6.5-36.8,0.5-54.3
				c7-17.2,7.1-36.2,0.2-53.5h-69.5c6.7,17.6,6.5,36.8-0.5,54.3C405,122,404.9,141,411.7,158.2z"/>
		</g>
	</g>
	<g>
		<g>
			<rect x="1416" y="153" fill="#FCBA59" width="32" height="1"/>
			<rect x="1416" y="145" fill="#FCBA59" width="32" height="1"/>
			<rect x="1416" y="137" fill="#FCBA59" width="32" height="1"/>
			<rect x="1416" y="129" fill="#FCBA59" width="32" height="1"/>
			<rect x="1416" y="121" fill="#FCBA59" width="32" height="1"/>
			<rect x="1416" y="113" fill="#FCBA59" width="32" height="1"/>
			<rect x="1416" y="105" fill="#FCBA59" width="32" height="1"/>
			<rect x="1416" y="149" fill="#FCBA59" width="32" height="1"/>
			<rect x="1416" y="141" fill="#FCBA59" width="32" height="1"/>
			<rect x="1416" y="133" fill="#FCBA59" width="32" height="1"/>
			<rect x="1416" y="125" fill="#FCBA59" width="32" height="1"/>
			<rect x="1416" y="117" fill="#FCBA59" width="32" height="1"/>
			<rect x="1416" y="109" fill="#FCBA59" width="32" height="1"/>
			<rect x="1416" y="101" fill="#FCBA59" width="32" height="1"/>
			<rect x="1416" y="97" fill="#FCBA59" width="32" height="1"/>
			<rect x="1416" y="89" fill="#FCBA59" width="32" height="1"/>
			<rect x="1416" y="81" fill="#FCBA59" width="32" height="1"/>
			<rect x="1416" y="73" fill="#FCBA59" width="32" height="1"/>
			<rect x="1416" y="65" fill="#FCBA59" width="32" height="1"/>
			<rect x="1416" y="57" fill="#FCBA59" width="32" height="1"/>
			<rect x="1416" y="93" fill="#FCBA59" width="32" height="1"/>
			<rect x="1416" y="85" fill="#FCBA59" width="32" height="1"/>
			<rect x="1416" y="77" fill="#FCBA59" width="32" height="1"/>
			<rect x="1416" y="69" fill="#FCBA59" width="32" height="1"/>
			<rect x="1416" y="61" fill="#FCBA59" width="32" height="1"/>
			<rect x="1416" y="53" fill="#FCBA59" width="64" height="1"/>
			<rect x="1416" y="45" fill="#FCBA59" width="64" height="1"/>
			<rect x="1416" y="37" fill="#FCBA59" width="64" height="1"/>
			<rect x="1416" y="29" fill="#FCBA59" width="64" height="1"/>
			<rect x="1416" y="49" fill="#FCBA59" width="64" height="1"/>
			<rect x="1416" y="41" fill="#FCBA59" width="64" height="1"/>
			<rect x="1416" y="33" fill="#FCBA59" width="64" height="1"/>
			<rect x="1416" y="25" fill="#FCBA59" width="64" height="1"/>
		</g>
		<path fill="#333333" d="M1512.5,154h-65V57h65V154z M1448.5,153h63V58h-63V153z"/>
		<rect x="1455.5" y="65.5" fill="#333333" width="1" height="88"/>
		<rect x="1463.5" y="65.5" fill="#333333" width="1" height="88"/>
		<rect x="1471.5" y="65.5" fill="#333333" width="1" height="88"/>
		<rect x="1479.5" y="65.5" fill="#333333" width="1" height="88"/>
		<rect x="1487.5" y="65.5" fill="#333333" width="1" height="88"/>
		<rect x="1495.5" y="65.5" fill="#333333" width="1" height="88"/>
		<rect x="1503.5" y="65.5" fill="#333333" width="1" height="88"/>
		<path fill="#FCBA59" d="M1406.8,154c-4.7,0-8.4-1.3-11-3.8c-9.2-9.2-1.4-33.5,19.8-62l0.8,0.6c-20.9,28.1-28.7,51.9-19.9,60.7
			c5.9,5.9,18.4,4.5,35.3-4c17-8.5,36.4-23.2,54.5-41.3c37.2-37.2,57.5-77.5,45.3-89.8c-7.7-7.7-27.3-2.6-51.3,13.3l-0.6-0.8
			c24.7-16.4,44.4-21.3,52.5-13.2c12.7,12.7-7.6,53.6-45.3,91.2c-18.2,18.2-37.6,32.9-54.8,41.5C1422.1,151.4,1413.4,154,1406.8,154
			z"/>
		<g>
			<circle fill="#FCBA59" cx="1502" cy="16" r="16"/>
			<g>
				<path fill="#FFFFFF" d="M1502,29.1l-6.6-13.1l6.6-13.1l6.6,13.1L1502,29.1z M1496.6,16l5.4,10.9l5.4-10.9L1502,5.1L1496.6,16z"
					/>
				<polygon fill="#FFFFFF" points="1502,19.6 1495.8,16.4 1496.2,15.6 1502,18.4 1507.8,15.6 1508.2,16.4 				"/>
			</g>
			<rect x="1501.5" y="4" fill="#FFFFFF" width="1" height="24"/>
		</g>
		<g>
			<circle fill="#FCBA59" cx="1506" cy="83.7" r="16"/>
			<g>
				<rect x="1502.8" y="89.1" fill="#FFFFFF" width="1" height="2.7"/>
				<rect x="1508.2" y="89.1" fill="#FFFFFF" width="1" height="2.7"/>
				<rect x="1502.8" y="75.7" fill="#FFFFFF" width="1" height="2.7"/>
				<rect x="1508.2" y="75.7" fill="#FFFFFF" width="1" height="2.7"/>
				<path fill="#FFFFFF" d="M1511.3,89.6h-13.8V77.9h13.8c1.7,0,3.2,1.4,3.2,3.2c0,1.1-0.6,2.1-1.5,2.7c0.9,0.6,1.5,1.5,1.5,2.7
					C1514.5,88.2,1513.1,89.6,1511.3,89.6z M1498.5,88.6h12.8c1.2,0,2.2-1,2.2-2.2s-1-2.2-2.2-2.2h-12.8V88.6z M1498.5,83.2h12.8
					c1.2,0,2.2-1,2.2-2.2c0-1.2-1-2.2-2.2-2.2h-12.8V83.2z"/>
			</g>
		</g>
		<g>
			<circle fill="#FCBA59" cx="1396.1" cy="123.5" r="16"/>
			<g>
				<path fill="#FFFFFF" d="M1394.4,132h-3.2v-17h3.2c4.7,0,8.5,3.8,8.5,8.5S1399.1,132,1394.4,132z M1392.2,131h2.2
					c4.1,0,7.5-3.4,7.5-7.5s-3.4-7.5-7.5-7.5h-2.2V131z"/>
				<rect x="1389.1" y="121.6" fill="#FFFFFF" width="16" height="1"/>
				<rect x="1389.1" y="124.3" fill="#FFFFFF" width="16" height="1"/>
			</g>
		</g>
	</g>
	<g>
		<path d="M667.9,140.5c-2-4.2-3-8.9-3-13.8c0-18,14.6-32.6,32.6-32.6c10,0,19,4.5,25,11.6l3.6-3c-6.8-8.1-17.1-13.3-28.5-13.3
			c-20.6,0-37.2,16.7-37.2,37.2c0,5.6,1.2,11,3.5,15.7L667.9,140.5z"/>
		<path d="M697.4,148.8c-12.2,0-22.1-9.9-22.1-22.1s9.9-22.1,22.1-22.1c6.8,0,12.9,3.1,16.9,7.9l3.6-3c-4.9-5.8-12.3-9.6-20.5-9.6
			c-14.8,0-26.8,12-26.8,26.8s12,26.8,26.8,26.8V148.8z"/>
		<path d="M705.5,133.4c-1.9,2.3-4.8,3.7-8,3.7c-5.8,0-10.5-4.7-10.5-10.5c0-5.8,4.7-10.5,10.5-10.5c3.2,0,6.1,1.5,8,3.7l4-3.4
			c-2.9-3.4-7.2-5.6-12-5.6c-8.7,0-15.7,7-15.7,15.7s7,15.7,15.7,15.7c4.4,0,8.4-1.8,11.3-4.8L705.5,133.4z"/>
		<path d="M733.8,121.6h4.8v3.2h0.1c0.4-1,1.2-1.9,2.3-2.7c1.1-0.8,2.4-1.2,3.9-1.2c1.3,0,2.4,0.2,3.4,0.7c0.9,0.5,1.7,1.1,2.3,1.8
			c0.6,0.8,1,1.6,1.3,2.6c0.3,1,0.4,2,0.4,3v12.6h-5v-11.2c0-0.6,0-1.2-0.1-1.8c-0.1-0.6-0.3-1.2-0.5-1.7c-0.3-0.5-0.7-0.9-1.2-1.3
			c-0.5-0.3-1.1-0.5-2-0.5c-0.8,0-1.5,0.2-2.1,0.5c-0.6,0.3-1.1,0.7-1.4,1.2c-0.4,0.5-0.7,1.1-0.9,1.7c-0.2,0.7-0.3,1.3-0.3,2v11.1
			h-5V121.6z"/>
		<path d="M754.5,125.6v-4h3.5v-5.8h5v5.8h5v4h-5v9.4c0,0.9,0.2,1.6,0.5,2.2c0.3,0.6,1,0.9,2.2,0.9c0.3,0,0.7,0,1.1-0.1
			c0.4-0.1,0.7-0.2,1-0.3l0.2,3.9c-0.4,0.2-1,0.3-1.6,0.4c-0.6,0.1-1.2,0.1-1.8,0.1c-1.3,0-2.4-0.2-3.3-0.6c-0.8-0.4-1.5-0.9-2-1.6
			c-0.5-0.7-0.8-1.4-1-2.3c-0.2-0.9-0.3-1.8-0.3-2.7v-9.4H754.5z"/>
		<path d="M771,121.6h4.8v3.4h0.1c0.6-1.2,1.3-2.1,2.4-2.9c1-0.7,2.2-1.1,3.5-1.1c0.2,0,0.4,0,0.6,0c0.2,0,0.4,0,0.6,0.1v4.6
			c-0.3-0.1-0.6-0.1-0.9-0.2c-0.2,0-0.5,0-0.7,0c-1.1,0-2.1,0.2-2.8,0.6c-0.7,0.4-1.2,0.9-1.6,1.5c-0.4,0.6-0.7,1.2-0.8,1.8
			c-0.1,0.6-0.2,1.1-0.2,1.5v10.8h-5V121.6z"/>
		<path d="M784.6,114.8c0-0.8,0.3-1.5,0.9-2.1c0.6-0.6,1.4-0.9,2.3-0.9c0.9,0,1.7,0.3,2.3,0.9c0.6,0.6,0.9,1.3,0.9,2.2
			c0,0.9-0.3,1.6-0.9,2.2c-0.6,0.6-1.4,0.9-2.3,0.9c-0.9,0-1.7-0.3-2.3-0.9C784.9,116.3,784.6,115.6,784.6,114.8z M785.3,121.6h5
			v20.2h-5V121.6z"/>
		<path d="M796.9,125.6h-3.8v-4h3.8v-1.5c0-1.2,0.1-2.4,0.4-3.5c0.3-1.1,0.7-2.1,1.3-2.9c0.6-0.8,1.5-1.5,2.5-2
			c1-0.5,2.3-0.7,3.9-0.7c0.6,0,1,0,1.4,0.1c0.4,0,0.8,0.1,1.2,0.2l-0.3,4.3c-0.3-0.1-0.6-0.2-0.9-0.2c-0.3-0.1-0.7-0.1-1-0.1
			c-0.7,0-1.3,0.1-1.8,0.4c-0.4,0.3-0.8,0.6-1,1.1c-0.2,0.4-0.4,0.9-0.5,1.5c-0.1,0.5-0.1,1-0.1,1.6v1.8h4.7v4h-4.7v16.1h-5V125.6z"
			/>
		<path d="M827.7,141.8h-4.8v-3.2h-0.1c-0.4,1-1.2,1.9-2.3,2.7c-1.1,0.8-2.4,1.2-3.9,1.2c-1.3,0-2.4-0.2-3.4-0.7
			c-0.9-0.5-1.7-1.1-2.3-1.8c-0.6-0.8-1-1.6-1.3-2.6c-0.3-1-0.4-2-0.4-3v-12.6h5v11.2c0,0.6,0,1.2,0.1,1.8c0.1,0.6,0.3,1.2,0.5,1.7
			c0.3,0.5,0.7,0.9,1.2,1.3c0.5,0.3,1.1,0.5,2,0.5c0.8,0,1.5-0.2,2.1-0.5c0.6-0.3,1.1-0.7,1.5-1.2c0.4-0.5,0.7-1.1,0.9-1.7
			c0.2-0.7,0.3-1.3,0.3-2v-11.1h5V141.8z"/>
		<path d="M726.3,135.6c-0.6,0.8-1.3,1.4-2.1,1.9c-0.9,0.5-1.9,0.7-3.2,0.7c-0.7,0-1.4-0.1-2.1-0.4c-0.7-0.3-1.3-0.6-1.8-1
			c-0.5-0.4-1-1-1.3-1.6c-0.3-0.6-0.5-1.3-0.6-2h15.3c0-0.2,0-0.4,0-0.7c0-0.2,0-0.4,0-0.7c0-1.8-0.2-3.4-0.7-4.8
			c-0.5-1.4-1.2-2.5-2-3.4c-0.9-0.9-1.9-1.6-3.1-2.1c-1.2-0.5-2.5-0.7-3.9-0.7c-1.5,0-2.9,0.3-4.2,0.8c-1.3,0.5-2.4,1.2-3.4,2.2
			c-1,0.9-1.7,2.1-2.2,3.4c-0.5,1.3-0.8,2.8-0.8,4.4c0,1.7,0.3,3.1,0.8,4.4c0.5,1.3,1.3,2.4,2.3,3.3c1,0.9,2.1,1.6,3.4,2.1
			c1.3,0.5,2.8,0.7,4.3,0.7c3.4,0,6-1.1,8-3.2L726.3,135.6z M717,126.2c1-0.9,2.3-1.4,3.8-1.4c0.8,0,1.5,0.1,2.1,0.4
			c0.6,0.3,1.1,0.6,1.5,1.1c0.4,0.4,0.7,1,0.9,1.6c0.2,0.6,0.3,1.2,0.3,1.8h-10.3C715.3,128.2,715.9,127.1,717,126.2z"/>
		<path d="M871.5,135.6c-0.6,0.8-1.3,1.4-2.1,1.9c-0.9,0.5-1.9,0.7-3.2,0.7c-0.7,0-1.4-0.1-2.1-0.4c-0.7-0.3-1.3-0.6-1.8-1
			c-0.5-0.4-1-1-1.3-1.6c-0.3-0.6-0.5-1.3-0.6-2h15.3c0-0.2,0-0.4,0-0.7c0-0.2,0-0.4,0-0.7c0-1.8-0.2-3.4-0.7-4.8
			c-0.5-1.4-1.2-2.5-2-3.4c-0.9-0.9-1.9-1.6-3.1-2.1c-1.2-0.5-2.5-0.7-3.9-0.7c-1.5,0-2.9,0.3-4.2,0.8c-1.3,0.5-2.4,1.2-3.4,2.2
			c-1,0.9-1.7,2.1-2.2,3.4c-0.5,1.3-0.8,2.8-0.8,4.4c0,1.7,0.3,3.1,0.8,4.4c0.5,1.3,1.3,2.4,2.3,3.3c1,0.9,2.1,1.6,3.4,2.1
			c1.3,0.5,2.8,0.7,4.3,0.7c3.4,0,6-1.1,8-3.2L871.5,135.6z M862.2,126.2c1-0.9,2.3-1.4,3.8-1.4c0.8,0,1.5,0.1,2.1,0.4
			c0.6,0.3,1.1,0.6,1.5,1.1c0.4,0.4,0.7,1,0.9,1.6c0.2,0.6,0.3,1.2,0.3,1.8h-10.3C860.5,128.2,861.1,127.1,862.2,126.2z"/>
		<path d="M847.5,121.6v3h-0.1c-0.7-1.2-1.7-2.1-2.9-2.7c-1.2-0.6-2.6-0.9-4-0.9c-1.5,0-2.9,0.3-4.1,0.8c-1.2,0.6-2.3,1.3-3.1,2.3
			c-0.9,1-1.5,2.1-2,3.4c-0.5,1.3-0.7,2.7-0.7,4.1c0,1.4,0.2,2.8,0.7,4.1c0.5,1.3,1.1,2.4,2,3.3c0.9,1,1.9,1.7,3.1,2.3
			c1.2,0.6,2.6,0.8,4.1,0.8c1.4,0,2.7-0.3,3.8-0.8s2.1-1.3,2.8-2.3h0.1v1.5c0,1-0.1,1.9-0.3,2.8c-0.2,0.8-0.6,1.6-1,2.2
			c-0.5,0.6-1.1,1.1-2,1.5c-0.8,0.4-1.8,0.5-3,0.5c-1.3,0-2.5-0.2-3.7-0.7c-1.2-0.5-2.3-1.2-3.2-2l-3,3.8c0.6,0.5,1.4,1,2.2,1.4
			c0.8,0.4,1.7,0.8,2.5,1c0.9,0.3,1.8,0.5,2.7,0.6c0.9,0.1,1.8,0.2,2.6,0.2c2,0,3.7-0.3,5.1-0.8c1.4-0.6,2.6-1.4,3.5-2.4
			c0.9-1,1.6-2.3,2.1-3.7c0.4-1.5,0.7-3.1,0.7-4.9v-18.3H847.5z M847.1,133.9c-0.3,0.8-0.7,1.4-1.2,2c-0.5,0.6-1.1,1.1-1.9,1.4
			c-0.7,0.3-1.6,0.5-2.5,0.5c-0.9,0-1.7-0.2-2.4-0.5c-0.7-0.4-1.3-0.8-1.8-1.4c-0.5-0.6-0.9-1.3-1.1-2c-0.3-0.8-0.4-1.5-0.4-2.3
			c0-0.9,0.1-1.7,0.4-2.5c0.3-0.8,0.6-1.5,1.1-2c0.5-0.6,1.1-1,1.8-1.4c0.7-0.3,1.5-0.5,2.5-0.5s1.7,0.2,2.5,0.5
			c0.7,0.3,1.3,0.8,1.9,1.4c0.5,0.6,0.9,1.3,1.2,2c0.3,0.8,0.4,1.6,0.4,2.5C847.5,132.4,847.4,133.2,847.1,133.9z"/>
	</g>
	<g>
		<polygon fill="#FFFFFF" points="1352,153.5 1352,108.5 1406,81.5 1460,108.5 1460,153.5 		"/>
		<g>
			<path fill="#2762FF" d="M1462.4,109h-112.8l56.4-28.2L1462.4,109z M1354.4,107.9h103.2L1406,82.1L1354.4,107.9z"/>
			<linearGradient id="SVGID_1_" gradientUnits="userSpaceOnUse" x1="1355.375" y1="126.4637" x2="1362.125" y2="126.4637">
				<stop  offset="0" style="stop-color:#2762FF"/>
				<stop  offset="1" style="stop-color:#2762FF;stop-opacity:0"/>
			</linearGradient>
			<rect x="1355.4" y="108.5" fill="url(#SVGID_1_)" width="6.8" height="36"/>
			<linearGradient id="SVGID_2_" gradientUnits="userSpaceOnUse" x1="1368.875" y1="126.4637" x2="1375.625" y2="126.4637">
				<stop  offset="0" style="stop-color:#2762FF"/>
				<stop  offset="1" style="stop-color:#2762FF;stop-opacity:0"/>
			</linearGradient>
			<rect x="1368.9" y="108.5" fill="url(#SVGID_2_)" width="6.8" height="36"/>
			<linearGradient id="SVGID_3_" gradientUnits="userSpaceOnUse" x1="1382.375" y1="126.4637" x2="1389.125" y2="126.4637">
				<stop  offset="0" style="stop-color:#2762FF"/>
				<stop  offset="1" style="stop-color:#2762FF;stop-opacity:0"/>
			</linearGradient>
			<rect x="1382.4" y="108.5" fill="url(#SVGID_3_)" width="6.8" height="36"/>
			<linearGradient id="SVGID_4_" gradientUnits="userSpaceOnUse" x1="1395.875" y1="126.4637" x2="1402.625" y2="126.4637">
				<stop  offset="0" style="stop-color:#2762FF"/>
				<stop  offset="1" style="stop-color:#2762FF;stop-opacity:0"/>
			</linearGradient>
			<rect x="1395.9" y="108.5" fill="url(#SVGID_4_)" width="6.8" height="36"/>
			<linearGradient id="SVGID_5_" gradientUnits="userSpaceOnUse" x1="1409.375" y1="126.4637" x2="1416.125" y2="126.4637">
				<stop  offset="0" style="stop-color:#2762FF"/>
				<stop  offset="1" style="stop-color:#2762FF;stop-opacity:0"/>
			</linearGradient>
			<rect x="1409.4" y="108.5" fill="url(#SVGID_5_)" width="6.8" height="36"/>
			<linearGradient id="SVGID_6_" gradientUnits="userSpaceOnUse" x1="1422.875" y1="126.4637" x2="1429.625" y2="126.4637">
				<stop  offset="0" style="stop-color:#2762FF"/>
				<stop  offset="1" style="stop-color:#2762FF;stop-opacity:0"/>
			</linearGradient>
			<rect x="1422.9" y="108.5" fill="url(#SVGID_6_)" width="6.8" height="36"/>
			<linearGradient id="SVGID_7_" gradientUnits="userSpaceOnUse" x1="1436.375" y1="126.4637" x2="1443.125" y2="126.4637">
				<stop  offset="0" style="stop-color:#2762FF"/>
				<stop  offset="1" style="stop-color:#2762FF;stop-opacity:0"/>
			</linearGradient>
			<rect x="1436.4" y="108.5" fill="url(#SVGID_7_)" width="6.8" height="36"/>
			<linearGradient id="SVGID_8_" gradientUnits="userSpaceOnUse" x1="1449.875" y1="126.4637" x2="1456.625" y2="126.4637">
				<stop  offset="0" style="stop-color:#2762FF"/>
				<stop  offset="1" style="stop-color:#2762FF;stop-opacity:0"/>
			</linearGradient>
			<rect x="1449.9" y="108.5" fill="url(#SVGID_8_)" width="6.8" height="36"/>
			<g>
				<line fill="#FFFFFF" x1="1352" y1="146.7" x2="1460" y2="146.7"/>
				<rect x="1352" y="146.2" fill="#2762FF" width="108" height="1.1"/>
			</g>
			<g>
				<line fill="#FFFFFF" x1="1352" y1="144.5" x2="1460" y2="144.5"/>
				<rect x="1352" y="143.9" fill="#2762FF" width="108" height="1.1"/>
			</g>
			<g>
				<line fill="#FFFFFF" x1="1352" y1="149" x2="1460" y2="149"/>
				<rect x="1352" y="148.4" fill="#2762FF" width="108" height="1.1"/>
			</g>
			<g>
				<line fill="#FFFFFF" x1="1352" y1="151.2" x2="1460" y2="151.2"/>
				<rect x="1352" y="150.7" fill="#2762FF" width="108" height="1.1"/>
			</g>
			<g>
				<line fill="#FFFFFF" x1="1352" y1="153.5" x2="1460" y2="153.5"/>
				<rect x="1352" y="152.9" fill="#2762FF" width="108" height="1.1"/>
			</g>
			<g>
				<path fill="#2762FF" d="M1406,103.2c-1.8,0-3.3-1.5-3.3-3.3h1.1c0,1.2,1,2.1,2.1,2.1s2.1-1,2.1-2.1c0-1.2-1-2.1-2.1-2.1
					c-1.8,0-3.3-1.5-3.3-3.3s1.5-3.3,3.3-3.3s3.3,1.5,3.3,3.3h-1.1c0-1.2-1-2.1-2.1-2.1s-2.1,1-2.1,2.1s1,2.1,2.1,2.1
					c1.8,0,3.3,1.5,3.3,3.3S1407.8,103.2,1406,103.2z"/>
				<rect x="1405.4" y="90.5" fill="#2762FF" width="1.1" height="13.5"/>
			</g>
		</g>
	</g>
	<g>
		
			<linearGradient id="SVGID_9_" gradientUnits="userSpaceOnUse" x1="-32" y1="121.4637" x2="-160" y2="121.4637" gradientTransform="matrix(-1 0 0 1 8 0)">
			<stop  offset="0" style="stop-color:#FFFFFF"/>
			<stop  offset="1" style="stop-color:#FCBA59"/>
		</linearGradient>
		<rect x="40" y="89.5" fill="url(#SVGID_9_)" width="128" height="64"/>
		<path fill="#FCBA59" d="M200,97.5c0,4.4-3.6,8-8,8s-8-3.6-8-8c0,4.4-3.6,8-8,8s-8-3.6-8-8c0,4.4-3.6,8-8,8s-8-3.6-8-8
			c0,4.4-3.6,8-8,8s-8-3.6-8-8c0,4.4-3.6,8-8,8c-4.4,0-8-3.6-8-8c0,4.4-3.6,8-8,8s-8-3.6-8-8c0,4.4-3.6,8-8,8s-8-3.6-8-8
			c0,4.4-3.6,8-8,8s-8-3.6-8-8l-32-8h128L200,97.5z"/>
		<rect x="0" y="89.5" fill="#FCBA59" width="39.7" height="64"/>
		<rect x="128" y="113.5" fill="#FFFFFF" width="16" height="40"/>
		<rect x="40" y="69.5" width="112" height="4"/>
		<rect x="40" y="61.5" width="112" height="4"/>
		<rect x="40" y="77.5" width="112" height="4"/>
	</g>
	<g>
		<path fill="#0828BE" d="M1110.1,169.1c25.6,6.1,55.6,9.1,80-5.9c17.7-10.9,30.8-22.9,30.8-71.1s-46.3-58.6-67.7-58.6
			c-39.7,0-54.2,29-86.1,41s-43.1,25.3-43.1,41C1024,146.7,1075.9,160.9,1110.1,169.1z"/>
		<g>
			<g>
				<path fill="#EEEEEE" d="M1067.3,122.9V146h-5.7v-23.1h-9.4v-5.2h24.5v5.2H1067.3z"/>
				<path fill="#EEEEEE" d="M1084.6,116.3c0.6,0.7,1,1.4,1,2.3c0,0.9-0.3,1.7-1,2.3c-0.6,0.6-1.4,0.9-2.4,0.9c-1,0-1.8-0.3-2.4-0.9
					c-0.6-0.6-0.9-1.4-0.9-2.3c0-0.9,0.3-1.7,1-2.3c0.6-0.7,1.4-1,2.4-1C1083.1,115.3,1083.9,115.6,1084.6,116.3z M1079.4,146v-21
					h5.6v21H1079.4z"/>
				<path fill="#EEEEEE" d="M1107.7,126.8c1.5,1.6,2.3,3.8,2.3,6.4V146h-5.6v-11.6c0-1.5-0.4-2.7-1.2-3.6c-0.8-0.9-1.8-1.3-3.1-1.3
					c-3.5,0-5.2,2.4-5.2,7.3v9.3h-5.6v-21h5.6v1.9c1.7-1.7,3.9-2.5,6.6-2.5C1104.1,124.3,1106.2,125.1,1107.7,126.8z"/>
				<path fill="#EEEEEE" d="M1114.3,146v-30.4h5.6V146H1114.3z"/>
				<path fill="#EEEEEE" d="M1146,146h-5.6v-1.6c-1.9,1.5-4.2,2.3-7,2.3c-2.8,0-5.2-1.1-7.3-3.2c-2.1-2.1-3.1-4.8-3.1-8
					c0-3.2,1-5.9,3.1-8c2.1-2.1,4.5-3.2,7.2-3.2c2.8,0,5.1,0.8,7,2.3v-1.7h5.6V146z M1138.6,140c1.2-1.2,1.8-2.7,1.8-4.5
					c0-1.9-0.6-3.4-1.8-4.6s-2.6-1.8-4.2-1.8c-1.7,0-3.1,0.6-4.2,1.7c-1.1,1.2-1.7,2.7-1.7,4.6c0,1.9,0.6,3.4,1.7,4.6
					c1.1,1.1,2.5,1.7,4.2,1.7C1136,141.8,1137.4,141.2,1138.6,140z"/>
				<path fill="#EEEEEE" d="M1165.2,146l-8.3-8.2h-1v8.2h-5.6v-30.4h5.6v16.7h1l7.5-7.3h7l-10.2,10.1l11.3,11H1165.2z"/>
				<path fill="#EEEEEE" d="M1192.7,136.9h-16c0.3,1.5,0.9,2.7,1.9,3.6c1,0.9,2.1,1.3,3.4,1.3c2.4,0,4.1-0.9,5.2-2.8l5,1.1
					c-0.9,2.1-2.2,3.8-4,4.8c-1.8,1.1-3.8,1.6-6.2,1.6c-3,0-5.6-1-7.7-3.1c-2.1-2.1-3.1-4.8-3.1-8c0-3.3,1-5.9,3.1-8
					c2.1-2.1,4.7-3.1,7.7-3.1c2.9,0,5.3,1,7.4,3c2.1,2,3.2,4.6,3.3,7.7V136.9z M1178.8,130.2c-1,0.7-1.7,1.6-2,2.9h10.2
					c-0.3-1.3-1-2.3-1.9-2.9c-0.9-0.6-1.9-1-3.1-1C1180.9,129.1,1179.8,129.5,1178.8,130.2z"/>
			</g>
		</g>
	</g>
	<g>
		<line fill="#FFFFFF" x1="224" y1="121.5" x2="288" y2="121.5"/>
		<g>
			<rect x="224" y="120.5" fill="#0828BE" width="52.1" height="2"/>
			<g>
				<polygon fill="#0828BE" points="270.4,128.9 273.6,121.5 270.4,114.1 288,121.5 				"/>
			</g>
		</g>
	</g>
	<g>
		<line fill="#FFFFFF" x1="544" y1="121.5" x2="608" y2="121.5"/>
		<g>
			<rect x="544" y="120.5" fill="#0828BE" width="52.1" height="2"/>
			<g>
				<polygon fill="#0828BE" points="590.4,128.9 593.6,121.5 590.4,114.1 608,121.5 				"/>
			</g>
		</g>
	</g>
	<g>
		<line fill="#FFFFFF" x1="928" y1="121.5" x2="992" y2="121.5"/>
		<g>
			<rect x="928" y="120.5" fill="#0828BE" width="52.1" height="2"/>
			<g>
				<polygon fill="#0828BE" points="974.4,128.9 977.6,121.5 974.4,114.1 992,121.5 				"/>
			</g>
		</g>
	</g>
	<g>
		<line fill="#FFFFFF" x1="1312" y1="121.5" x2="1248" y2="121.5"/>
		<g>
			<rect x="1259.9" y="120.5" fill="#0828BE" width="52.1" height="2"/>
			<g>
				<polygon fill="#0828BE" points="1265.6,114.1 1262.4,121.5 1265.6,128.9 1248,121.5 				"/>
			</g>
		</g>
	</g>
</g>
</svg>
