<?xml version="1.0" encoding="utf-8"?>
<!-- Generator: Adobe Illustrator 18.0.0, SVG Export Plug-In . SVG Version: 6.00 Build 0)  -->
<!DOCTYPE svg PUBLIC "-//W3C//DTD SVG 1.1//EN" "http://www.w3.org/Graphics/SVG/1.1/DTD/svg11.dtd">
<svg version="1.1" id="Слой_1" xmlns="http://www.w3.org/2000/svg" xmlns:xlink="http://www.w3.org/1999/xlink" x="0px" y="0px"
	 viewBox="0 0 1024 1792" enable-background="new 0 0 1024 1792" xml:space="preserve">
<g>
	<path fill="#0828BE" d="M497,157.2c14.6,3.5,31.6,5.2,45.5-3.4c10.1-6.2,17.5-13.1,17.5-40.5S533.6,80,521.5,80
		c-22.6,0-30.9,16.5-49,23.3c-18.1,6.8-24.5,14.4-24.5,23.3C448,144.5,477.5,152.6,497,157.2z"/>
	<g>
		<g>
			<path fill="#EEEEEE" d="M472.6,130.9V144h-3.3v-13.1H464v-3h14v3H472.6z"/>
			<path fill="#EEEEEE" d="M482.5,127.1c0.4,0.4,0.6,0.8,0.6,1.3c0,0.5-0.2,1-0.6,1.3s-0.8,0.5-1.4,0.5c-0.6,0-1-0.2-1.4-0.5
				s-0.5-0.8-0.5-1.3c0-0.5,0.2-1,0.6-1.3c0.4-0.4,0.8-0.6,1.4-0.6C481.6,126.6,482.1,126.8,482.5,127.1z M479.5,144v-12h3.2v12
				H479.5z"/>
			<path fill="#EEEEEE" d="M495.7,133.1c0.9,0.9,1.3,2.1,1.3,3.6v7.3h-3.2v-6.6c0-0.8-0.2-1.5-0.7-2c-0.4-0.5-1-0.8-1.8-0.8
				c-2,0-3,1.4-3,4.1v5.3h-3.2v-12h3.2v1.1c1-1,2.2-1.4,3.8-1.4C493.6,131.7,494.8,132.2,495.7,133.1z"/>
			<path fill="#EEEEEE" d="M499.4,144v-17.3h3.2V144H499.4z"/>
			<path fill="#EEEEEE" d="M517.4,144h-3.2v-0.9c-1.1,0.9-2.4,1.3-4,1.3c-1.6,0-3-0.6-4.1-1.8c-1.2-1.2-1.8-2.7-1.8-4.5
				c0-1.8,0.6-3.3,1.8-4.5s2.5-1.8,4.1-1.8c1.6,0,2.9,0.4,4,1.3v-1h3.2V144z M513.2,140.6c0.7-0.7,1-1.5,1-2.6c0-1.1-0.3-1.9-1-2.6
				s-1.5-1-2.4-1c-1,0-1.8,0.3-2.4,1c-0.6,0.7-0.9,1.5-0.9,2.6c0,1.1,0.3,2,0.9,2.6c0.6,0.6,1.4,1,2.4,1
				C511.7,141.6,512.5,141.3,513.2,140.6z"/>
			<path fill="#EEEEEE" d="M528.3,144l-4.7-4.7h-0.6v4.7h-3.2v-17.3h3.2v9.5h0.6l4.3-4.2h4l-5.8,5.7l6.4,6.2H528.3z"/>
			<path fill="#EEEEEE" d="M544,138.9h-9.1c0.2,0.8,0.5,1.5,1.1,2c0.6,0.5,1.2,0.8,1.9,0.8c1.4,0,2.4-0.5,3-1.6l2.8,0.6
				c-0.5,1.2-1.3,2.1-2.3,2.8c-1,0.6-2.2,0.9-3.5,0.9c-1.7,0-3.2-0.6-4.4-1.8c-1.2-1.2-1.8-2.7-1.8-4.6c0-1.9,0.6-3.4,1.8-4.6
				s2.7-1.8,4.4-1.8c1.6,0,3,0.6,4.2,1.7c1.2,1.1,1.8,2.6,1.9,4.4V138.9z M536.1,135c-0.6,0.4-0.9,0.9-1.1,1.6h5.8
				c-0.2-0.7-0.5-1.3-1.1-1.7c-0.5-0.4-1.1-0.6-1.8-0.6C537.3,134.5,536.7,134.6,536.1,135z"/>
		</g>
	</g>
</g>
<g>
	<rect x="192" y="271" fill="#0828BE" width="307.9" height="2"/>
	<g>
		<path fill="#0828BE" d="M512,272c-5.7-2.1-12.7-5.7-17.1-9.5l3.4,9.5l-3.4,9.5C499.3,277.7,506.3,274.1,512,272z"/>
	</g>
</g>
<g>
	<rect x="192" y="911" fill="#0828BE" width="307.9" height="2"/>
	<g>
		<path fill="#0828BE" d="M512,912c-5.7-2.1-12.7-5.7-17.1-9.5l3.4,9.5l-3.4,9.5C499.3,917.7,506.3,914.1,512,912z"/>
	</g>
</g>
<g>
	<rect x="512" y="1167" fill="#0828BE" width="307.9" height="2"/>
	<g>
		<path fill="#0828BE" d="M832,1168c-5.7-2.1-12.7-5.7-17.1-9.5l3.4,9.5l-3.4,9.5C819.3,1173.7,826.3,1170.1,832,1168z"/>
	</g>
</g>
<g>
	<rect x="512" y="399" fill="#0828BE" width="307.9" height="2"/>
	<g>
		<path fill="#0828BE" d="M832,400c-5.7-2.1-12.7-5.7-17.1-9.5l3.4,9.5l-3.4,9.5C819.3,405.7,826.3,402.1,832,400z"/>
	</g>
</g>
<g>
	<rect x="524.1" y="527" fill="#0828BE" width="307.9" height="2"/>
	<g>
		<path fill="#0828BE" d="M512,528c5.7,2.1,12.7,5.7,17.1,9.5l-3.4-9.5l3.4-9.5C524.7,522.3,517.7,525.9,512,528z"/>
	</g>
</g>
<g>
	<rect x="204.1" y="1551" fill="#0828BE" width="307.9" height="2"/>
	<g>
		<path fill="#0828BE" d="M192,1552c5.7,2.1,12.7,5.7,17.1,9.5l-3.4-9.5l3.4-9.5C204.7,1546.3,197.7,1549.9,192,1552z"/>
	</g>
</g>
<g>
	<rect x="204.1" y="655" fill="#0828BE" width="307.9" height="2"/>
	<g>
		<path fill="#0828BE" d="M192,656c5.7,2.1,12.7,5.7,17.1,9.5l-3.4-9.5l3.4-9.5C204.7,650.3,197.7,653.9,192,656z"/>
	</g>
</g>
<g>
	<rect x="524.1" y="1423" fill="#0828BE" width="307.9" height="2"/>
	<g>
		<path fill="#0828BE" d="M512,1424c5.7,2.1,12.7,5.7,17.1,9.5l-3.4-9.5l3.4-9.5C524.7,1418.3,517.7,1421.9,512,1424z"/>
	</g>
</g>
<g>
	<g>
		<g>
			<g>
				<path d="M431.6,868.9c1.5,1.9,2.3,4.5,2.3,7.9c0,4.2-1,7.2-2.9,9.2c-1.6,1.6-3.5,2.4-5.8,2.4c-1.8,0-3.3-0.4-4.5-1.3
					s-2.1-2.1-2.5-3.6l3.3-0.6c0.5,1.7,1.8,2.5,3.9,2.5c1.4,0,2.5-0.5,3.5-1.5c1.3-1.5,2-3.5,1.9-6.2c-0.6,0.8-1.4,1.5-2.4,2
					c-1,0.5-2.1,0.7-3.2,0.7c-2.3,0-4.1-0.7-5.4-2c-1.3-1.3-2-3-2-5.1c0-2.1,0.7-3.9,2.1-5.2c1.4-1.4,3.3-2,5.6-2
					C428,866.1,430.1,867.1,431.6,868.9z M428.5,876.4c0.8-0.8,1.2-1.8,1.2-3s-0.4-2.2-1.3-3c-0.8-0.8-1.9-1.2-3.1-1.2
					c-1.2,0-2.2,0.4-3.1,1.2c-0.8,0.8-1.3,1.8-1.3,3c0,1.2,0.4,2.2,1.3,3c0.8,0.8,1.9,1.2,3.1,1.2
					C426.6,877.6,427.6,877.2,428.5,876.4z"/>
				<path d="M446.1,874.6c2.2,0,3.9,0.6,5.2,1.8c1.3,1.2,2,2.8,2,4.9c0,2.1-0.7,3.9-2.1,5.2c-1.4,1.3-3.3,2-5.6,2
					c-2.2,0-4.1-0.7-5.6-2c-1.5-1.3-2.2-3.1-2.2-5.4l3.3-0.6c0,1.6,0.4,2.8,1.3,3.7c0.9,0.8,2,1.3,3.3,1.3c1.3,0,2.4-0.4,3.2-1.1
					c0.8-0.7,1.2-1.7,1.2-2.9c0-1.1-0.4-2-1.1-2.7c-0.8-0.7-1.8-1-3-1h-6.9l0.4-11.1h13.1v3.1h-9.9l-0.2,4.9H446.1z"/>
			</g>
		</g>
	</g>
	<g>
		<path fill="#F9CC55" d="M392,864.8c8.4,0,15.2,6.8,15.2,15.2s-6.8,15.2-15.2,15.2s-15.2-6.8-15.2-15.2S383.6,864.8,392,864.8
			 M392,864c-8.8,0-16,7.2-16,16s7.2,16,16,16s16-7.2,16-16S400.8,864,392,864L392,864z"/>
		<polygon fill="#F9CC55" points="380,880 392,892 392,884 392,884 		"/>
		<polygon fill="#F6BC50" points="392,868 380,880 392,884 392,884 		"/>
		<polygon fill="#FFFFFF" points="384,879.2 389.6,879.2 392,876.8 392,876.8 392,874.4 392,870.4 		"/>
		<polygon fill="#EBBB51" points="404,880 392,892 392,884 392,884 		"/>
		<polygon fill="#EAB24E" points="392,868 404,880 392,884 392,884 		"/>
		<polygon fill="#EFD8AE" points="400,879.2 394.4,879.2 392,876.8 392,876.8 392,874.4 392,870.4 		"/>
	</g>
</g>
<g>
	<g>
		<path d="M274.8,888l-7.6-8.5h-3.1v8.5h-3.4v-21.4h10.1c2.2,0,4,0.6,5.3,1.8c1.4,1.2,2,2.7,2,4.7c0,1.8-0.6,3.3-1.8,4.5
			s-2.9,1.8-4.9,1.9l7.7,8.6H274.8z M270.7,876.4c1.2,0,2.1-0.3,2.8-0.9c0.7-0.6,1.1-1.4,1.1-2.4c0-1-0.4-1.8-1.1-2.4
			c-0.7-0.6-1.7-0.9-2.8-0.9h-6.7v6.7H270.7z"/>
		<path d="M297.4,880.9h-12.9c0.1,1.4,0.7,2.6,1.6,3.4c0.9,0.9,2,1.3,3.2,1.3c2.2,0,3.8-0.9,4.7-2.8l3,0.6c-0.6,1.6-1.6,2.9-3,3.7
			c-1.3,0.8-2.9,1.3-4.7,1.3c-2.2,0-4.1-0.8-5.7-2.3c-1.6-1.6-2.4-3.6-2.4-6c0-2.5,0.8-4.5,2.4-6.1c1.6-1.6,3.5-2.4,5.8-2.4
			c2.2,0,4,0.8,5.5,2.3c1.5,1.5,2.3,3.4,2.4,5.8V880.9z M286.4,875.6c-0.9,0.7-1.5,1.6-1.8,2.8h9.3c-0.3-1.3-0.8-2.2-1.6-2.9
			c-0.8-0.7-1.8-1-2.9-1C288.4,874.6,287.4,875,286.4,875.6z"/>
		<path d="M316.3,874c1.6,1.6,2.3,3.6,2.3,6c0,2.5-0.8,4.5-2.3,6c-1.5,1.6-3.4,2.4-5.6,2.4c-2.4,0-4.3-0.8-5.8-2.3v7.3h-3.3v-21.3
			h3.3v1.8c1.5-1.5,3.4-2.3,5.8-2.3C312.9,871.7,314.7,872.5,316.3,874z M313.9,884c1-1,1.5-2.3,1.5-4s-0.5-3-1.5-4
			c-1-1-2.2-1.5-3.7-1.5c-1.4,0-2.6,0.5-3.6,1.5c-1,1-1.6,2.3-1.6,3.9s0.5,2.9,1.6,3.9c1,1,2.3,1.5,3.6,1.5
			C311.7,885.5,312.9,885,313.9,884z"/>
		<path d="M338.7,888h-3.3v-1.8c-1.5,1.5-3.4,2.3-5.8,2.3c-2.2,0-4-0.8-5.6-2.4c-1.5-1.6-2.3-3.6-2.3-6c0-2.4,0.8-4.4,2.3-6
			c1.6-1.6,3.4-2.4,5.5-2.4c2.4,0,4.3,0.8,5.8,2.3v-1.8h3.3V888z M333.8,884c1-1,1.6-2.3,1.6-3.9s-0.5-2.9-1.6-3.9
			c-1-1-2.3-1.5-3.6-1.5c-1.5,0-2.7,0.5-3.7,1.5c-1,1-1.5,2.3-1.5,4s0.5,3,1.5,4c1,1,2.2,1.5,3.7,1.5
			C331.5,885.5,332.8,885,333.8,884z"/>
		<path d="M350.1,893.4h-3.7l2.6-5.8l-6.8-15.5h3.7l5,11.5l5.1-11.5h3.7L350.1,893.4z"/>
	</g>
</g>
<g>
	<g>
		<g>
			<g>
				<path d="M751.6,1124.9c1.5,1.9,2.3,4.5,2.3,7.9c0,4.2-1,7.2-2.9,9.2c-1.6,1.6-3.5,2.4-5.8,2.4c-1.8,0-3.3-0.4-4.5-1.3
					s-2.1-2.1-2.5-3.6l3.3-0.6c0.5,1.7,1.8,2.5,3.9,2.5c1.4,0,2.5-0.5,3.5-1.5c1.3-1.5,2-3.5,1.9-6.2c-0.6,0.8-1.4,1.5-2.4,2
					c-1,0.5-2.1,0.7-3.2,0.7c-2.3,0-4.1-0.7-5.4-2c-1.3-1.3-2-3-2-5.1c0-2.1,0.7-3.9,2.1-5.2s3.3-2,5.6-2
					C748,1122.1,750.1,1123.1,751.6,1124.9z M748.5,1132.4c0.8-0.8,1.2-1.8,1.2-3s-0.4-2.2-1.3-3c-0.8-0.8-1.9-1.2-3.1-1.2
					c-1.2,0-2.2,0.4-3.1,1.2c-0.8,0.8-1.3,1.8-1.3,3c0,1.2,0.4,2.2,1.3,3c0.8,0.8,1.9,1.2,3.1,1.2
					C746.6,1133.6,747.6,1133.2,748.5,1132.4z"/>
				<path d="M771.9,1144h-14.5v-2.2l7.4-7.2c0.7-0.6,1.1-1.1,1.4-1.3s0.6-0.7,1.1-1.2c0.4-0.5,0.7-1.1,0.9-1.6
					c0.2-0.5,0.2-1.1,0.2-1.7c0-1.1-0.4-2-1.1-2.7c-0.7-0.7-1.7-1-2.8-1c-1.3,0-2.3,0.4-3,1.2c-0.7,0.8-1.1,1.9-1.2,3.4l-3.1-0.6
					c0.1-2.1,0.8-3.8,2.1-5c1.3-1.2,3.1-1.9,5.2-1.9c2.1,0,3.9,0.6,5.2,1.8s2,2.8,2,4.8c0,1.5-0.4,2.8-1.1,3.9
					c-0.7,1.2-2,2.6-3.7,4.2l-4.2,4h9.2V1144z"/>
			</g>
		</g>
	</g>
	<g>
		<path fill="#F9CC55" d="M712,1120.8c8.4,0,15.2,6.8,15.2,15.2s-6.8,15.2-15.2,15.2s-15.2-6.8-15.2-15.2S703.6,1120.8,712,1120.8
			 M712,1120c-8.8,0-16,7.2-16,16s7.2,16,16,16s16-7.2,16-16S720.8,1120,712,1120L712,1120z"/>
		<polygon fill="#F9CC55" points="700,1136 712,1148 712,1140 712,1140 		"/>
		<polygon fill="#F6BC50" points="712,1124 700,1136 712,1140 712,1140 		"/>
		<polygon fill="#FFFFFF" points="704,1135.2 709.6,1135.2 712,1132.8 712,1132.8 712,1130.4 712,1126.4 		"/>
		<polygon fill="#EBBB51" points="724,1136 712,1148 712,1140 712,1140 		"/>
		<polygon fill="#EAB24E" points="712,1124 724,1136 712,1140 712,1140 		"/>
		<polygon fill="#EFD8AE" points="720,1135.2 714.4,1135.2 712,1132.8 712,1132.8 712,1130.4 712,1126.4 		"/>
	</g>
</g>
<g>
	<g>
		<path d="M594.8,1144l-7.6-8.5h-3.1v8.5h-3.4v-21.4h10.1c2.2,0,4,0.6,5.3,1.8c1.4,1.2,2,2.7,2,4.7c0,1.8-0.6,3.3-1.8,4.5
			s-2.9,1.8-4.9,1.9l7.7,8.6H594.8z M590.7,1132.4c1.2,0,2.1-0.3,2.8-0.9c0.7-0.6,1.1-1.4,1.1-2.4c0-1-0.4-1.8-1.1-2.4
			c-0.7-0.6-1.7-0.9-2.8-0.9h-6.7v6.7H590.7z"/>
		<path d="M617.4,1136.9h-12.9c0.1,1.4,0.7,2.6,1.6,3.4c0.9,0.9,2,1.3,3.2,1.3c2.2,0,3.8-0.9,4.7-2.8l3,0.6c-0.6,1.6-1.6,2.9-3,3.7
			c-1.3,0.8-2.9,1.3-4.7,1.3c-2.2,0-4.1-0.8-5.7-2.3c-1.6-1.6-2.4-3.6-2.4-6c0-2.5,0.8-4.5,2.4-6.1c1.6-1.6,3.5-2.4,5.8-2.4
			c2.2,0,4,0.8,5.5,2.3c1.5,1.5,2.3,3.4,2.4,5.8V1136.9z M606.4,1131.6c-0.9,0.7-1.5,1.6-1.8,2.8h9.3c-0.3-1.3-0.8-2.2-1.6-2.9
			c-0.8-0.7-1.8-1-2.9-1C608.4,1130.6,607.4,1131,606.4,1131.6z"/>
		<path d="M636.3,1130c1.6,1.6,2.3,3.6,2.3,6c0,2.5-0.8,4.5-2.3,6c-1.5,1.6-3.4,2.4-5.6,2.4c-2.4,0-4.3-0.8-5.8-2.3v7.3h-3.3v-21.3
			h3.3v1.8c1.5-1.5,3.4-2.3,5.8-2.3C632.9,1127.7,634.7,1128.5,636.3,1130z M633.9,1140c1-1,1.5-2.3,1.5-4s-0.5-3-1.5-4
			c-1-1-2.2-1.5-3.7-1.5c-1.4,0-2.6,0.5-3.6,1.5c-1,1-1.6,2.3-1.6,3.9s0.5,2.9,1.6,3.9c1,1,2.3,1.5,3.6,1.5
			C631.7,1141.5,632.9,1141,633.9,1140z"/>
		<path d="M658.7,1144h-3.3v-1.8c-1.5,1.5-3.4,2.3-5.8,2.3c-2.2,0-4-0.8-5.6-2.4c-1.5-1.6-2.3-3.6-2.3-6c0-2.4,0.8-4.4,2.3-6
			c1.6-1.6,3.4-2.4,5.5-2.4c2.4,0,4.3,0.8,5.8,2.3v-1.8h3.3V1144z M653.8,1140c1-1,1.6-2.3,1.6-3.9s-0.5-2.9-1.6-3.9
			c-1-1-2.3-1.5-3.6-1.5c-1.5,0-2.7,0.5-3.7,1.5c-1,1-1.5,2.3-1.5,4s0.5,3,1.5,4c1,1,2.2,1.5,3.7,1.5
			C651.5,1141.5,652.8,1141,653.8,1140z"/>
		<path d="M670.1,1149.4h-3.7l2.6-5.8l-6.8-15.5h3.7l5,11.5l5.1-11.5h3.7L670.1,1149.4z"/>
	</g>
</g>
<g>
	<g>
		<g>
			<g>
				<g>
					<path d="M609,1040.9c0.6,0.8,0.8,1.8,0.8,2.9c0,2-0.7,3.6-2.1,4.8c-1.4,1.2-3.2,1.8-5.4,1.8s-4-0.6-5.5-1.9
						c-1.4-1.3-2.2-2.9-2.4-5l3.2-0.6c0.1,1.4,0.6,2.5,1.4,3.3s1.9,1.2,3.2,1.2c1.3,0,2.3-0.3,3.1-1c0.8-0.7,1.2-1.6,1.2-2.6
						c0-1-0.4-1.8-1.1-2.4c-0.7-0.6-1.7-0.9-2.9-0.9h-2.3v-2.8h2.1c1.2,0,2.1-0.3,2.8-0.9c0.7-0.6,1-1.3,1-2.3c0-1-0.4-1.9-1.1-2.5
						c-0.7-0.6-1.7-0.9-2.9-0.9c-1.3,0-2.3,0.4-3.1,1.1c-0.8,0.8-1.2,1.9-1.3,3.3l-3.2-0.6c0.2-2,0.9-3.7,2.3-4.9s3.1-1.9,5.2-1.9
						s3.9,0.6,5.2,1.8c1.3,1.2,2,2.8,2,4.7c0,1.1-0.2,2-0.7,2.8c-0.5,0.8-1.2,1.4-2,1.7C607.7,1039.5,608.5,1040.1,609,1040.9z"/>
				</g>
			</g>
		</g>
		<g>
			<path fill="#F9CC55" d="M569,1024.8c8.4,0,15.2,6.8,15.2,15.2s-6.8,15.2-15.2,15.2s-15.2-6.8-15.2-15.2S560.6,1024.8,569,1024.8
				 M569,1024c-8.8,0-16,7.2-16,16s7.2,16,16,16s16-7.2,16-16S577.8,1024,569,1024L569,1024z"/>
			<polygon fill="#F9CC55" points="557,1040 569,1052 569,1044 569,1044 			"/>
			<polygon fill="#F6BC50" points="569,1028 557,1040 569,1044 569,1044 			"/>
			<polygon fill="#FFFFFF" points="561,1039.2 566.6,1039.2 569,1036.8 569,1036.8 569,1034.4 569,1030.4 			"/>
			<polygon fill="#EBBB51" points="581,1040 569,1052 569,1044 569,1044 			"/>
			<polygon fill="#EAB24E" points="569,1028 581,1040 569,1044 569,1044 			"/>
			<polygon fill="#EFD8AE" points="577,1039.2 571.4,1039.2 569,1036.8 569,1036.8 569,1034.4 569,1030.4 			"/>
		</g>
	</g>
	<g>
		<g>
			<path d="M414.1,1050v-21.4h3.4v21.4H414.1z"/>
			<path d="M436.6,1035.6c1.2,1.2,1.8,2.9,1.8,4.8v9.6H435v-8.9c0-1.3-0.3-2.3-1-3.1s-1.6-1.2-2.7-1.2c-1.5,0-2.6,0.5-3.5,1.5
				c-0.8,1-1.3,2.5-1.3,4.4v7.3h-3.3v-15.9h3.3v2c1.3-1.6,3.2-2.4,5.5-2.4C433.9,1033.7,435.4,1034.3,436.6,1035.6z"/>
			<path d="M454.1,1049.2c-1.4,0.8-2.7,1.2-3.9,1.2c-1.8,0-3.2-0.5-4.2-1.5c-1-1-1.5-2.4-1.5-4.4v-7.7H441v-2.8h3.4v-4.9h3.3v4.9
				h5.4v2.8h-5.4v7.5c0,1,0.2,1.7,0.7,2.2c0.5,0.5,1.1,0.8,1.9,0.8c0.9,0,1.8-0.3,2.7-0.9L454.1,1049.2z"/>
			<path d="M472,1042.9h-12.9c0.1,1.4,0.7,2.6,1.6,3.4c0.9,0.9,2,1.3,3.2,1.3c2.2,0,3.8-0.9,4.7-2.8l3,0.6c-0.6,1.6-1.6,2.9-3,3.7
				c-1.3,0.8-2.9,1.3-4.7,1.3c-2.2,0-4.1-0.8-5.7-2.3c-1.6-1.6-2.4-3.6-2.4-6c0-2.5,0.8-4.5,2.4-6.1c1.6-1.6,3.5-2.4,5.8-2.4
				c2.2,0,4,0.8,5.5,2.3c1.5,1.5,2.3,3.4,2.4,5.8V1042.9z M460.9,1037.6c-0.9,0.7-1.5,1.6-1.8,2.8h9.3c-0.3-1.3-0.8-2.2-1.6-2.9
				c-0.8-0.7-1.8-1-2.9-1C462.9,1036.6,461.9,1037,460.9,1037.6z"/>
			<path d="M486.7,1034.1l-0.2,3.2c-0.2,0-0.5,0-0.9,0c-2,0-3.5,0.6-4.5,1.9c-1,1.3-1.5,3-1.5,5.3v5.6h-3.3v-15.9h3.3v3.4
				c1.5-2.4,3.5-3.6,6-3.6C486,1033.9,486.4,1034,486.7,1034.1z"/>
			<path d="M504.8,1042.9H492c0.1,1.4,0.7,2.6,1.6,3.4c0.9,0.9,2,1.3,3.2,1.3c2.2,0,3.8-0.9,4.7-2.8l3,0.6c-0.6,1.6-1.6,2.9-3,3.7
				c-1.3,0.8-2.9,1.3-4.7,1.3c-2.2,0-4.1-0.8-5.7-2.3c-1.6-1.6-2.4-3.6-2.4-6c0-2.5,0.8-4.5,2.4-6.1c1.6-1.6,3.5-2.4,5.8-2.4
				c2.2,0,4,0.8,5.5,2.3c1.5,1.5,2.3,3.4,2.4,5.8V1042.9z M493.8,1037.6c-0.9,0.7-1.5,1.6-1.8,2.8h9.3c-0.3-1.3-0.8-2.2-1.6-2.9
				c-0.8-0.7-1.8-1-2.9-1C495.8,1036.6,494.8,1037,493.8,1037.6z"/>
			<path d="M511.1,1045c0.1,0.9,0.5,1.6,1.2,2c0.7,0.4,1.6,0.7,2.7,0.7c1,0,1.7-0.2,2.3-0.6c0.6-0.4,0.8-0.9,0.8-1.5
				c0-0.9-0.7-1.6-2.1-1.9l-3.5-0.7c-2.9-0.6-4.3-2.1-4.3-4.3c0-1.5,0.6-2.7,1.7-3.6c1.1-0.9,2.7-1.4,4.6-1.4c1.8,0,3.3,0.4,4.5,1.3
				c1.2,0.8,1.9,1.9,2.2,3.3l-3.2,0.7c-0.1-0.8-0.5-1.4-1.2-1.9c-0.6-0.5-1.5-0.7-2.5-0.7c-0.9,0-1.6,0.2-2.1,0.6
				c-0.5,0.4-0.7,0.9-0.7,1.5c0,0.9,0.6,1.5,1.9,1.8l3.8,0.8c1.3,0.3,2.3,0.8,3,1.5c0.7,0.7,1.1,1.7,1.1,2.8c0,1.6-0.6,2.9-1.8,3.8
				c-1.2,0.9-2.8,1.3-4.9,1.3c-1.9,0-3.5-0.4-4.8-1.2c-1.3-0.8-2-2-2.2-3.5L511.1,1045z"/>
			<path d="M536.8,1049.2c-1.4,0.8-2.7,1.2-3.9,1.2c-1.8,0-3.2-0.5-4.2-1.5c-1-1-1.5-2.4-1.5-4.4v-7.7h-3.4v-2.8h3.4v-4.9h3.3v4.9
				h5.4v2.8h-5.4v7.5c0,1,0.2,1.7,0.7,2.2c0.5,0.5,1.1,0.8,1.9,0.8c0.9,0,1.8-0.3,2.7-0.9L536.8,1049.2z"/>
		</g>
	</g>
</g>
<g>
	<line fill="#FFFFFF" x1="944" y1="1328" x2="904" y2="1328"/>
	<path fill="#0828BE" d="M944,1329h-8v-2h8V1329z M932,1329h-8v-2h8V1329z M920,1329h-8v-2h8V1329z M908,1329h-4v-2h4V1329z"/>
</g>
<g>
	<g>
		<g>
			<g>
				<g>
					<path d="M929.5,1306H915v-2.2l7.4-7.2c0.7-0.6,1.1-1.1,1.4-1.3s0.6-0.7,1.1-1.2s0.7-1.1,0.9-1.6c0.2-0.5,0.2-1.1,0.2-1.7
						c0-1.1-0.4-2-1.1-2.7s-1.7-1-2.8-1c-1.3,0-2.3,0.4-3,1.2c-0.7,0.8-1.1,1.9-1.2,3.4l-3.1-0.6c0.1-2.1,0.8-3.8,2.1-5
						c1.3-1.2,3.1-1.9,5.2-1.9c2.1,0,3.9,0.6,5.2,1.8c1.3,1.2,2,2.8,2,4.8c0,1.5-0.4,2.8-1.1,3.9c-0.7,1.2-2,2.6-3.7,4.2l-4.2,4h9.2
						V1306z"/>
				</g>
			</g>
		</g>
		<g>
			<path fill="#F9CC55" d="M889.9,1280.8c8.4,0,15.2,6.8,15.2,15.2s-6.8,15.2-15.2,15.2s-15.2-6.8-15.2-15.2
				S881.6,1280.8,889.9,1280.8 M889.9,1280c-8.8,0-16,7.2-16,16s7.2,16,16,16s16-7.2,16-16S898.8,1280,889.9,1280L889.9,1280z"/>
			<polygon fill="#F9CC55" points="877.9,1296 889.9,1308 889.9,1300 889.9,1300 			"/>
			<polygon fill="#F6BC50" points="889.9,1284 877.9,1296 889.9,1300 889.9,1300 			"/>
			<polygon fill="#FFFFFF" points="881.9,1295.2 887.5,1295.2 889.9,1292.8 889.9,1292.8 889.9,1290.4 889.9,1286.4 			"/>
			<polygon fill="#EBBB51" points="901.9,1296 889.9,1308 889.9,1300 889.9,1300 			"/>
			<polygon fill="#EAB24E" points="889.9,1284 901.9,1296 889.9,1300 889.9,1300 			"/>
			<polygon fill="#EFD8AE" points="897.9,1295.2 892.3,1295.2 889.9,1292.8 889.9,1292.8 889.9,1290.4 889.9,1286.4 			"/>
		</g>
	</g>
	<g>
		<g>
			<path d="M735,1306v-21.4h3.4v21.4H735z"/>
			<path d="M757.5,1291.6c1.2,1.2,1.8,2.9,1.8,4.8v9.6h-3.4v-8.9c0-1.3-0.3-2.3-1-3.1s-1.6-1.2-2.7-1.2c-1.5,0-2.6,0.5-3.5,1.5
				c-0.8,1-1.3,2.5-1.3,4.4v7.3h-3.3v-15.9h3.3v2c1.3-1.6,3.2-2.4,5.5-2.4C754.8,1289.7,756.4,1290.3,757.5,1291.6z"/>
			<path d="M775.1,1305.2c-1.4,0.8-2.7,1.2-3.9,1.2c-1.8,0-3.2-0.5-4.2-1.5c-1-1-1.5-2.4-1.5-4.4v-7.7H762v-2.8h3.4v-4.9h3.3v4.9
				h5.4v2.8h-5.4v7.5c0,1,0.2,1.7,0.7,2.2c0.5,0.5,1.1,0.8,1.9,0.8c0.9,0,1.8-0.3,2.7-0.9L775.1,1305.2z"/>
			<path d="M792.9,1298.9H780c0.1,1.4,0.7,2.6,1.6,3.4s2,1.3,3.2,1.3c2.2,0,3.8-0.9,4.7-2.8l3,0.6c-0.6,1.6-1.6,2.9-3,3.7
				c-1.3,0.8-2.9,1.3-4.7,1.3c-2.2,0-4.1-0.8-5.7-2.3c-1.6-1.6-2.4-3.6-2.4-6c0-2.5,0.8-4.5,2.4-6.1c1.6-1.6,3.5-2.4,5.8-2.4
				c2.2,0,4,0.8,5.5,2.3s2.3,3.4,2.4,5.8V1298.9z M781.9,1293.6c-0.9,0.7-1.5,1.6-1.8,2.8h9.3c-0.3-1.3-0.8-2.2-1.6-2.9
				c-0.8-0.7-1.8-1-2.9-1C783.9,1292.6,782.8,1293,781.9,1293.6z"/>
			<path d="M807.6,1290.1l-0.2,3.2c-0.2,0-0.5,0-0.9,0c-2,0-3.5,0.6-4.5,1.9s-1.5,3-1.5,5.3v5.6h-3.3v-15.9h3.3v3.4
				c1.4-2.4,3.5-3.6,6-3.6C807,1289.9,807.3,1290,807.6,1290.1z"/>
			<path d="M825.8,1298.9h-12.9c0.1,1.4,0.7,2.6,1.6,3.4s2,1.3,3.2,1.3c2.2,0,3.8-0.9,4.7-2.8l3,0.6c-0.6,1.6-1.6,2.9-3,3.7
				c-1.3,0.8-2.9,1.3-4.7,1.3c-2.2,0-4.1-0.8-5.7-2.3c-1.6-1.6-2.4-3.6-2.4-6c0-2.5,0.8-4.5,2.4-6.1c1.6-1.6,3.5-2.4,5.8-2.4
				c2.2,0,4,0.8,5.5,2.3s2.3,3.4,2.4,5.8V1298.9z M814.8,1293.6c-0.9,0.7-1.5,1.6-1.8,2.8h9.3c-0.3-1.3-0.8-2.2-1.6-2.9
				c-0.8-0.7-1.8-1-2.9-1C816.7,1292.6,815.7,1293,814.8,1293.6z"/>
			<path d="M832,1301c0.1,0.9,0.5,1.6,1.2,2c0.7,0.4,1.6,0.7,2.7,0.7c1,0,1.7-0.2,2.3-0.6c0.6-0.4,0.8-0.9,0.8-1.5
				c0-0.9-0.7-1.6-2.1-1.9l-3.5-0.7c-2.9-0.6-4.3-2.1-4.3-4.3c0-1.5,0.6-2.7,1.7-3.6c1.1-0.9,2.7-1.4,4.6-1.4c1.8,0,3.3,0.4,4.5,1.3
				c1.2,0.8,1.9,1.9,2.2,3.3l-3.2,0.7c-0.1-0.8-0.5-1.4-1.2-1.9c-0.6-0.5-1.5-0.7-2.5-0.7c-0.9,0-1.6,0.2-2.1,0.6
				c-0.5,0.4-0.7,0.9-0.7,1.5c0,0.9,0.6,1.5,1.9,1.8l3.8,0.8c1.3,0.3,2.3,0.8,3,1.5c0.7,0.7,1.1,1.7,1.1,2.8c0,1.6-0.6,2.9-1.8,3.8
				c-1.2,0.9-2.8,1.3-4.9,1.3c-1.9,0-3.5-0.4-4.8-1.2s-2-2-2.2-3.5L832,1301z"/>
			<path d="M857.8,1305.2c-1.4,0.8-2.7,1.2-3.9,1.2c-1.8,0-3.2-0.5-4.2-1.5c-1-1-1.5-2.4-1.5-4.4v-7.7h-3.4v-2.8h3.4v-4.9h3.3v4.9
				h5.4v2.8h-5.4v7.5c0,1,0.2,1.7,0.7,2.2c0.5,0.5,1.1,0.8,1.9,0.8c0.9,0,1.8-0.3,2.7-0.9L857.8,1305.2z"/>
		</g>
	</g>
</g>
<g>
	<g>
		<g>
			<g>
				<path d="M423.6,614.9c1.5,1.9,2.3,4.5,2.3,7.9c0,4.2-1,7.2-2.9,9.2c-1.6,1.6-3.5,2.4-5.8,2.4c-1.8,0-3.3-0.4-4.5-1.3
					c-1.2-0.9-2.1-2.1-2.5-3.6l3.3-0.6c0.5,1.7,1.8,2.5,3.9,2.5c1.4,0,2.5-0.5,3.5-1.5c1.3-1.5,2-3.5,1.9-6.2
					c-0.6,0.8-1.4,1.5-2.4,2c-1,0.5-2.1,0.7-3.2,0.7c-2.3,0-4.1-0.7-5.4-2c-1.3-1.3-2-3-2-5.1c0-2.1,0.7-3.8,2.1-5.2
					c1.4-1.4,3.3-2,5.6-2C420,612.1,422.1,613.1,423.6,614.9z M420.5,622.4c0.8-0.8,1.2-1.8,1.2-3s-0.4-2.2-1.3-3
					c-0.8-0.8-1.9-1.2-3.1-1.2c-1.2,0-2.2,0.4-3.1,1.2c-0.8,0.8-1.3,1.8-1.3,3s0.4,2.2,1.3,3c0.8,0.8,1.9,1.2,3.1,1.2
					C418.6,623.6,419.6,623.2,420.5,622.4z"/>
				<path d="M445.8,615.2c1.7,2.1,2.5,4.8,2.5,8.1c0,3.3-0.8,6-2.5,8.1s-3.9,3.1-6.6,3.1s-4.9-1-6.6-3.1s-2.5-4.8-2.5-8.1
					c0-3.3,0.8-6,2.5-8.1c1.7-2.1,3.9-3.1,6.6-3.1S444.1,613.1,445.8,615.2z M443.3,629.1c1-1.5,1.5-3.4,1.5-5.8
					c0-2.4-0.5-4.3-1.5-5.8c-1-1.5-2.4-2.2-4-2.2s-3,0.7-4,2.2c-1,1.5-1.5,3.4-1.5,5.8c0,2.4,0.5,4.3,1.5,5.8c1,1.5,2.4,2.2,4,2.2
					S442.3,630.5,443.3,629.1z"/>
			</g>
		</g>
	</g>
	<g>
		<path fill="#F9CC55" d="M384,608.8c8.4,0,15.2,6.8,15.2,15.2s-6.8,15.2-15.2,15.2s-15.2-6.8-15.2-15.2S375.6,608.8,384,608.8
			 M384,608c-8.8,0-16,7.2-16,16s7.2,16,16,16s16-7.2,16-16S392.8,608,384,608L384,608z"/>
		<polygon fill="#F9CC55" points="372,624 384,636 384,628 384,628 		"/>
		<polygon fill="#F6BC50" points="384,612 372,624 384,628 384,628 		"/>
		<polygon fill="#FFFFFF" points="376,623.2 381.6,623.2 384,620.8 384,620.8 384,618.4 384,614.4 		"/>
		<polygon fill="#EBBB51" points="396,624 384,636 384,628 384,628 		"/>
		<polygon fill="#EAB24E" points="384,612 396,624 384,628 384,628 		"/>
		<polygon fill="#EFD8AE" points="392,623.2 386.4,623.2 384,620.8 384,620.8 384,618.4 384,614.4 		"/>
	</g>
</g>
<g>
	<g>
		<path d="M290.3,634h-15.1v-21.4h3.4v18.3h11.7V634z"/>
		<path d="M309.1,626.9h-12.9c0.1,1.4,0.7,2.6,1.6,3.4c0.9,0.9,2,1.3,3.2,1.3c2.2,0,3.8-0.9,4.7-2.8l3,0.6c-0.6,1.6-1.6,2.9-3,3.7
			c-1.3,0.8-2.9,1.3-4.7,1.3c-2.2,0-4.1-0.8-5.7-2.3c-1.6-1.6-2.4-3.6-2.4-6c0-2.5,0.8-4.5,2.4-6.1c1.6-1.6,3.5-2.4,5.8-2.4
			c2.2,0,4,0.8,5.5,2.3c1.5,1.5,2.3,3.4,2.4,5.8V626.9z M298.1,621.6c-0.9,0.7-1.5,1.6-1.8,2.8h9.3c-0.3-1.3-0.8-2.2-1.6-2.9
			c-0.8-0.7-1.8-1-2.9-1C300.1,620.6,299.1,621,298.1,621.6z"/>
		<path d="M326.8,619.6c1.2,1.2,1.8,2.9,1.8,4.8v9.6h-3.4v-8.9c0-1.3-0.3-2.3-1-3.1s-1.6-1.2-2.7-1.2c-1.5,0-2.6,0.5-3.5,1.5
			c-0.8,1-1.3,2.5-1.3,4.4v7.3h-3.3v-15.9h3.3v2c1.3-1.6,3.2-2.4,5.5-2.4C324.1,617.7,325.6,618.3,326.8,619.6z"/>
		<path d="M349.5,634h-3.4v-1.8c-1.5,1.5-3.4,2.2-5.8,2.2c-2.1,0-4-0.8-5.5-2.4c-1.6-1.6-2.3-3.6-2.3-6s0.8-4.4,2.3-6
			c1.6-1.6,3.4-2.4,5.5-2.4c2.4,0,4.3,0.8,5.8,2.3v-9h3.4V634z M344.6,630c1-1,1.6-2.3,1.6-3.9c0-1.6-0.5-2.9-1.6-3.9
			c-1-1-2.3-1.5-3.6-1.5c-1.5,0-2.7,0.5-3.7,1.5c-1,1-1.5,2.3-1.5,3.9c0,1.6,0.5,3,1.5,4c1,1,2.2,1.5,3.7,1.5
			C342.3,631.5,343.5,631,344.6,630z"/>
	</g>
</g>
<g>
	<g>
		<g>
			<g>
				<path d="M735.6,484.9c1.5,1.9,2.3,4.5,2.3,7.9c0,4.2-1,7.2-2.9,9.2c-1.6,1.6-3.5,2.4-5.8,2.4c-1.8,0-3.3-0.4-4.5-1.3
					s-2.1-2.1-2.5-3.6l3.3-0.6c0.5,1.7,1.8,2.5,3.9,2.5c1.4,0,2.5-0.5,3.5-1.5c1.3-1.5,2-3.5,1.9-6.2c-0.6,0.8-1.4,1.5-2.4,2
					c-1,0.5-2.1,0.7-3.2,0.7c-2.3,0-4.1-0.7-5.4-2c-1.3-1.3-2-3-2-5.1c0-2.1,0.7-3.9,2.1-5.2s3.3-2,5.6-2
					C732,482.1,734.1,483.1,735.6,484.9z M732.5,492.4c0.8-0.8,1.2-1.8,1.2-3s-0.4-2.2-1.3-3c-0.8-0.8-1.9-1.2-3.1-1.2
					c-1.2,0-2.2,0.4-3.1,1.2c-0.8,0.8-1.3,1.8-1.3,3c0,1.2,0.4,2.2,1.3,3c0.8,0.8,1.9,1.2,3.1,1.2
					C730.6,493.6,731.6,493.2,732.5,492.4z"/>
				<path d="M757.8,485.2c1.7,2.1,2.5,4.8,2.5,8.1c0,3.3-0.8,6-2.5,8.1s-3.8,3.1-6.6,3.1s-4.9-1-6.6-3.1c-1.7-2.1-2.5-4.8-2.5-8.1
					c0-3.3,0.8-6,2.5-8.1s3.9-3.1,6.6-3.1S756.1,483.1,757.8,485.2z M755.3,499.1c1-1.5,1.5-3.4,1.5-5.8c0-2.4-0.5-4.3-1.5-5.8
					c-1-1.5-2.4-2.2-4-2.2s-3,0.7-4,2.2c-1,1.5-1.5,3.4-1.5,5.8c0,2.4,0.5,4.3,1.5,5.8c1,1.5,2.4,2.2,4,2.2S754.3,500.5,755.3,499.1
					z"/>
			</g>
		</g>
	</g>
	<g>
		<path fill="#F9CC55" d="M696,480.8c8.4,0,15.2,6.8,15.2,15.2s-6.8,15.2-15.2,15.2s-15.2-6.8-15.2-15.2S687.6,480.8,696,480.8
			 M696,480c-8.8,0-16,7.2-16,16s7.2,16,16,16s16-7.2,16-16S704.8,480,696,480L696,480z"/>
		<polygon fill="#F9CC55" points="684,496 696,508 696,500 696,500 		"/>
		<polygon fill="#F6BC50" points="696,484 684,496 696,500 696,500 		"/>
		<polygon fill="#FFFFFF" points="688,495.2 693.6,495.2 696,492.8 696,492.8 696,490.4 696,486.4 		"/>
		<polygon fill="#EBBB51" points="708,496 696,508 696,500 696,500 		"/>
		<polygon fill="#EAB24E" points="696,484 708,496 696,500 696,500 		"/>
		<polygon fill="#EFD8AE" points="704,495.2 698.4,495.2 696,492.8 696,492.8 696,490.4 696,486.4 		"/>
	</g>
</g>
<g>
	<g>
		<path d="M590.1,482.6c3.6,0,6.5,1,8.6,3c2.1,2,3.2,4.6,3.2,7.7s-1.1,5.7-3.2,7.7c-2.1,2-5,3-8.6,3h-7.5v-21.4H590.1z M590.1,500.9
			c2.6,0,4.6-0.7,6.1-2.1s2.3-3.2,2.3-5.5c0-2.3-0.8-4.1-2.3-5.5c-1.5-1.4-3.6-2.1-6.1-2.1H586v15.2H590.1z"/>
		<path d="M617.2,488.1l-0.2,3.2c-0.2,0-0.5,0-0.9,0c-2,0-3.5,0.6-4.5,1.9c-1,1.3-1.5,3-1.5,5.3v5.6h-3.3v-15.9h3.3v3.4
			c1.5-2.4,3.5-3.6,6-3.6C616.5,487.9,616.9,488,617.2,488.1z"/>
		<path d="M636.1,504h-3.3v-1.8c-1.5,1.5-3.4,2.3-5.8,2.3c-2.2,0-4-0.8-5.6-2.4c-1.5-1.6-2.3-3.6-2.3-6c0-2.4,0.8-4.4,2.3-6
			c1.6-1.6,3.4-2.4,5.5-2.4c2.4,0,4.3,0.8,5.8,2.3v-1.8h3.3V504z M631.3,500c1-1,1.6-2.3,1.6-3.9s-0.5-2.9-1.6-3.9
			c-1-1-2.3-1.5-3.6-1.5c-1.5,0-2.7,0.5-3.7,1.5c-1,1-1.5,2.3-1.5,4s0.5,3,1.5,4c1,1,2.2,1.5,3.7,1.5C629,501.5,630.2,501,631.3,500
			z"/>
		<path d="M658.2,504.1h-3l-3.6-10.7l-3.6,10.7h-3l-5.3-15.9h3.3l3.6,11l3.7-11h2.6l3.7,11l3.6-11h3.3L658.2,504.1z"/>
	</g>
</g>
<g>
	<g>
		<g>
			<path d="M729,376h-3.3v-17.4l-5.5,2.9v-3.1l6.7-3.9h2.1V376z"/>
			<path d="M749.7,357.2c1.7,2.1,2.5,4.8,2.5,8.1c0,3.3-0.8,6-2.5,8.1s-3.8,3.1-6.6,3.1s-4.9-1-6.6-3.1s-2.5-4.8-2.5-8.1
				c0-3.3,0.8-6,2.5-8.1c1.7-2.1,3.9-3.1,6.6-3.1S748.1,355.1,749.7,357.2z M747.2,371.1c1-1.5,1.5-3.4,1.5-5.8
				c0-2.4-0.5-4.3-1.5-5.8s-2.4-2.2-4-2.2s-3,0.7-4,2.2c-1,1.5-1.5,3.4-1.5,5.8c0,2.4,0.5,4.3,1.5,5.8c1,1.5,2.4,2.2,4,2.2
				S746.2,372.5,747.2,371.1z"/>
			<path d="M772,357.2c1.7,2.1,2.5,4.8,2.5,8.1c0,3.3-0.8,6-2.5,8.1s-3.9,3.1-6.6,3.1s-4.9-1-6.6-3.1s-2.5-4.8-2.5-8.1
				c0-3.3,0.8-6,2.5-8.1c1.7-2.1,3.8-3.1,6.6-3.1S770.4,355.1,772,357.2z M769.5,371.1c1-1.5,1.5-3.4,1.5-5.8c0-2.4-0.5-4.3-1.5-5.8
				c-1-1.5-2.4-2.2-4-2.2s-3,0.7-4,2.2s-1.5,3.4-1.5,5.8c0,2.4,0.5,4.3,1.5,5.8c1,1.5,2.4,2.2,4,2.2S768.5,372.5,769.5,371.1z"/>
		</g>
	</g>
</g>
<circle fill="#0828BE" cx="696" cy="368" r="16"/>
<g>
	<polygon fill="#5277FF" points="694.2,358.9 690.7,365 694.2,371 697.8,365 	"/>
	<polygon fill="#A6B9FF" points="704.8,371 697.8,371 694.2,365 701.3,365 	"/>
	<polygon fill="#5277FF" points="699.5,368 696,374.1 699.5,380.2 703,374.1 	"/>
	<polygon fill="#A6B9FF" points="699.5,380.2 692.5,380.2 689,374.1 696,374.1 	"/>
	<polygon fill="#FFFFFF" points="690.7,365 683.7,365 687.2,358.9 694.2,358.9 	"/>
	<polygon fill="#A6B9FF" points="694.2,371 687.2,371 683.7,365 690.7,365 	"/>
	<polygon fill="#FFFFFF" points="696,368 694.2,371 694.2,371 690.7,371 689,374.1 696,374.1 699.5,368 	"/>
	<polygon fill="#5277FF" points="704.8,358.9 701.3,365 704.8,371 708.3,365 	"/>
	<polygon fill="#FFFFFF" points="701.3,365 694.2,365 697.8,358.9 704.8,358.9 	"/>
</g>
<g>
	<g>
		<path d="M604.7,376h-15.1v-21.4h3.4v18.3h11.7V376z"/>
		<path d="M621.9,362.1c1.6,1.5,2.4,3.5,2.4,6c0,2.4-0.8,4.4-2.5,6c-1.6,1.6-3.6,2.3-6,2.3c-2.4,0-4.4-0.8-6.1-2.3
			c-1.7-1.6-2.5-3.6-2.5-6c0-2.4,0.8-4.4,2.5-6c1.7-1.5,3.7-2.3,6.1-2.3C618.3,359.8,620.3,360.6,621.9,362.1z M619.6,372
			c1-1,1.6-2.3,1.6-3.9c0-1.6-0.5-2.9-1.6-3.9c-1-1-2.3-1.5-3.7-1.5c-1.5,0-2.7,0.5-3.7,1.5c-1,1-1.6,2.3-1.6,3.9
			c0,1.6,0.5,2.9,1.6,3.9c1,1,2.3,1.5,3.7,1.5C617.3,373.5,618.5,373,619.6,372z"/>
		<path d="M640.5,370l3.1,0.8c-0.4,1.7-1.4,3-2.8,4.1c-1.4,1-3.1,1.5-4.9,1.5c-2.3,0-4.3-0.8-5.9-2.4c-1.6-1.6-2.4-3.6-2.4-6
			c0-2.4,0.8-4.4,2.4-6c1.6-1.6,3.6-2.4,5.9-2.4c1.8,0,3.4,0.5,4.9,1.5c1.4,1,2.4,2.4,2.9,4l-3.2,0.9c-0.3-1.1-0.9-2-1.7-2.6
			s-1.8-0.9-2.9-0.9c-1.5,0-2.7,0.5-3.7,1.5c-1,1-1.5,2.3-1.5,3.8c0,1.6,0.5,2.9,1.4,3.9s2.2,1.5,3.7,1.5
			C638.2,373.4,639.8,372.3,640.5,370z"/>
		<path d="M659.4,376l-7.3-6.6h-1v6.6h-3.3v-23h3.3v13.2h1l6.6-6h4.3l-8.3,7.7l9.2,8.2H659.4z"/>
	</g>
</g>
<g>
	<g>
		<g>
			<path d="M729,1403h-3.3v-17.4l-5.5,2.9v-3.1l6.7-3.9h2.1V1403z"/>
			<path d="M749.7,1384.2c1.7,2.1,2.5,4.8,2.5,8.1s-0.8,6-2.5,8.1s-3.8,3.1-6.6,3.1s-4.9-1-6.6-3.1c-1.7-2.1-2.5-4.8-2.5-8.1
				s0.8-6,2.5-8.1c1.7-2.1,3.9-3.1,6.6-3.1S748.1,1382.2,749.7,1384.2z M747.2,1398.1c1-1.5,1.5-3.4,1.5-5.8s-0.5-4.3-1.5-5.8
				c-1-1.5-2.4-2.2-4-2.2s-3,0.7-4,2.2c-1,1.5-1.5,3.4-1.5,5.8s0.5,4.3,1.5,5.8c1,1.5,2.4,2.2,4,2.2S746.2,1399.6,747.2,1398.1z"/>
			<path d="M772,1384.2c1.7,2.1,2.5,4.8,2.5,8.1s-0.8,6-2.5,8.1s-3.9,3.1-6.6,3.1s-4.9-1-6.6-3.1c-1.7-2.1-2.5-4.8-2.5-8.1
				s0.8-6,2.5-8.1c1.7-2.1,3.8-3.1,6.6-3.1S770.4,1382.2,772,1384.2z M769.5,1398.1c1-1.5,1.5-3.4,1.5-5.8s-0.5-4.3-1.5-5.8
				c-1-1.5-2.4-2.2-4-2.2s-3,0.7-4,2.2c-1,1.5-1.5,3.4-1.5,5.8s0.5,4.3,1.5,5.8c1,1.5,2.4,2.2,4,2.2S768.5,1399.6,769.5,1398.1z"/>
		</g>
	</g>
</g>
<circle fill="#0828BE" cx="696" cy="1395.1" r="16"/>
<g>
	<polygon fill="#5277FF" points="694.2,1385.9 690.7,1392 694.2,1398.1 697.8,1392 	"/>
	<polygon fill="#A6B9FF" points="704.8,1398.1 697.8,1398.1 694.2,1392 701.3,1392 	"/>
	<polygon fill="#5277FF" points="699.5,1395 696,1401.1 699.5,1407.2 703,1401.1 	"/>
	<polygon fill="#A6B9FF" points="699.5,1407.2 692.5,1407.2 689,1401.1 696,1401.1 	"/>
	<polygon fill="#FFFFFF" points="690.7,1392 683.7,1392 687.2,1385.9 694.2,1385.9 	"/>
	<polygon fill="#A6B9FF" points="694.2,1398.1 687.2,1398.1 683.7,1392 690.7,1392 	"/>
	<polygon fill="#FFFFFF" points="696,1395 694.2,1398.1 694.2,1398.1 690.7,1398.1 689,1401.1 696,1401.1 699.5,1395 	"/>
	<polygon fill="#5277FF" points="704.8,1385.9 701.3,1392 704.8,1398.1 708.3,1392 	"/>
	<polygon fill="#FFFFFF" points="701.3,1392 694.2,1392 697.8,1385.9 704.8,1385.9 	"/>
</g>
<g>
	<g>
		<path d="M572.2,1403l-7.6-8.5h-3.1v8.5H558v-21.4h10.1c2.2,0,4,0.6,5.3,1.8s2,2.7,2,4.7c0,1.8-0.6,3.3-1.8,4.5s-2.9,1.8-4.9,1.9
			l7.7,8.6H572.2z M568.1,1391.4c1.2,0,2.1-0.3,2.8-0.9c0.7-0.6,1.1-1.4,1.1-2.4c0-1-0.4-1.8-1.1-2.4c-0.7-0.6-1.7-0.9-2.8-0.9h-6.7
			v6.7H568.1z"/>
		<path d="M594.8,1395.9h-12.9c0.1,1.4,0.7,2.6,1.6,3.4c0.9,0.9,2,1.3,3.2,1.3c2.2,0,3.8-0.9,4.7-2.8l3,0.6c-0.6,1.6-1.6,2.9-3,3.7
			c-1.3,0.8-2.9,1.3-4.7,1.3c-2.2,0-4.1-0.8-5.7-2.3c-1.6-1.6-2.4-3.6-2.4-6c0-2.5,0.8-4.5,2.4-6.1c1.6-1.6,3.5-2.4,5.8-2.4
			c2.2,0,4,0.8,5.5,2.3c1.5,1.5,2.3,3.4,2.4,5.8V1395.9z M583.8,1390.7c-0.9,0.7-1.5,1.6-1.8,2.8h9.3c-0.3-1.3-0.8-2.2-1.6-2.9
			c-0.8-0.7-1.8-1-2.9-1C585.7,1389.7,584.7,1390,583.8,1390.7z"/>
		<path d="M609.7,1402.3c-1.4,0.8-2.7,1.2-3.9,1.2c-1.8,0-3.2-0.5-4.2-1.5c-1-1-1.5-2.4-1.5-4.4v-7.7h-3.4v-2.8h3.4v-4.9h3.3v4.9
			h5.4v2.8h-5.4v7.5c0,1,0.2,1.7,0.7,2.2c0.5,0.5,1.1,0.8,1.9,0.8c0.9,0,1.8-0.3,2.7-0.9L609.7,1402.3z"/>
		<path d="M627.5,1403h-3.3v-2c-1.3,1.6-3.2,2.4-5.5,2.4c-1.9,0-3.5-0.6-4.6-1.9c-1.2-1.2-1.7-2.9-1.7-4.9v-9.6h3.3v8.9
			c0,1.3,0.3,2.4,1,3.2s1.6,1.2,2.8,1.2c1.5,0,2.6-0.5,3.5-1.5c0.8-1,1.2-2.5,1.2-4.4v-7.3h3.3V1403z"/>
		<path d="M643.3,1387.1l-0.2,3.2c-0.2,0-0.5,0-0.9,0c-2,0-3.5,0.6-4.5,1.9c-1,1.3-1.5,3-1.5,5.3v5.6h-3.3v-15.9h3.3v3.4
			c1.5-2.4,3.5-3.6,6-3.6C642.7,1387,643,1387,643.3,1387.1z"/>
		<path d="M660.1,1388.6c1.2,1.2,1.8,2.9,1.8,4.8v9.6h-3.4v-8.9c0-1.3-0.3-2.3-1-3.1s-1.6-1.2-2.7-1.2c-1.5,0-2.6,0.5-3.5,1.5
			c-0.8,1-1.3,2.5-1.3,4.4v7.3h-3.3v-15.9h3.3v2c1.3-1.6,3.2-2.4,5.5-2.4C657.4,1386.7,659,1387.4,660.1,1388.6z"/>
	</g>
</g>
<g>
	<path d="M404.1,256h-18.7c-3.7,0-6.7-3-6.7-6.7v-18.7c0-3.7,3-6.7,6.7-6.7h18.7c3.7,0,6.7,3,6.7,6.7v18.7
		C410.8,253,407.8,256,404.1,256z"/>
	<polygon fill="#FFFFFF" points="389.9,234.7 389.9,241.7 384,234.7 382.2,234.7 382.2,245.4 384.3,245.4 384.3,238.5 390.3,245.4 
		392.1,245.4 392.1,241.2 397.3,241.2 397.3,239.3 392.1,239.3 392.1,236.6 401.7,236.6 401.7,245.4 403.9,245.4 403.9,236.6 
		407.5,236.6 407.5,234.7 	"/>
	<g>
		<g>
			<g>
				<path d="M427.8,248h-3.3v-17.4l-5.5,2.9v-3.1l6.7-3.9h2.1V248z"/>
				<path d="M448.5,229.2c1.7,2.1,2.5,4.8,2.5,8.1c0,3.3-0.8,6-2.5,8.1s-3.9,3.1-6.6,3.1s-4.9-1-6.6-3.1c-1.7-2.1-2.5-4.8-2.5-8.1
					c0-3.3,0.8-6,2.5-8.1s3.9-3.1,6.6-3.1S446.9,227.1,448.5,229.2z M446,243c1-1.5,1.5-3.4,1.5-5.8c0-2.4-0.5-4.3-1.5-5.8
					c-1-1.5-2.4-2.2-4-2.2s-3,0.7-4,2.2c-1,1.5-1.5,3.4-1.5,5.8c0,2.4,0.5,4.3,1.5,5.8c1,1.5,2.4,2.2,4,2.2S445,244.5,446,243z"/>
				<path d="M470.8,229.2c1.7,2.1,2.5,4.8,2.5,8.1c0,3.3-0.8,6-2.5,8.1s-3.9,3.1-6.6,3.1s-4.9-1-6.6-3.1c-1.7-2.1-2.5-4.8-2.5-8.1
					c0-3.3,0.8-6,2.5-8.1s3.9-3.1,6.6-3.1S469.2,227.1,470.8,229.2z M468.3,243c1-1.5,1.5-3.4,1.5-5.8c0-2.4-0.5-4.3-1.5-5.8
					c-1-1.5-2.4-2.2-4-2.2s-3,0.7-4,2.2c-1,1.5-1.5,3.4-1.5,5.8c0,2.4,0.5,4.3,1.5,5.8c1,1.5,2.4,2.2,4,2.2S467.3,244.5,468.3,243z"
					/>
			</g>
		</g>
	</g>
	<g>
		<g>
			<path d="M239.8,229.6V248h-3.5v-18.3h-7.5v-3.1h18.5v3.1H239.8z"/>
			<path d="M258.9,232l-0.2,3.2c-0.2,0-0.5,0-0.9,0c-2,0-3.5,0.6-4.5,1.9c-1,1.3-1.5,3-1.5,5.3v5.6h-3.3v-15.9h3.3v3.4
				c1.5-2.4,3.5-3.6,6-3.6C258.2,231.9,258.6,232,258.9,232z"/>
			<path d="M277.8,248h-3.3v-1.8c-1.5,1.5-3.4,2.3-5.8,2.3c-2.2,0-4-0.8-5.6-2.4c-1.5-1.6-2.3-3.6-2.3-6c0-2.4,0.8-4.4,2.3-6
				c1.6-1.6,3.4-2.4,5.5-2.4c2.4,0,4.3,0.8,5.8,2.3v-1.8h3.3V248z M273,244c1-1,1.6-2.3,1.6-3.9s-0.5-2.9-1.6-3.9
				c-1-1-2.3-1.5-3.6-1.5c-1.5,0-2.7,0.5-3.7,1.5c-1,1-1.5,2.3-1.5,4s0.5,3,1.5,4c1,1,2.2,1.5,3.7,1.5
				C270.7,245.5,271.9,245,273,244z"/>
			<path d="M296.6,233.5c1.2,1.2,1.8,2.9,1.8,4.8v9.6H295V239c0-1.3-0.3-2.3-1-3.1s-1.6-1.2-2.7-1.2c-1.5,0-2.6,0.5-3.5,1.5
				c-0.8,1-1.3,2.5-1.3,4.4v7.3h-3.3v-15.9h3.3v2c1.3-1.6,3.2-2.4,5.5-2.4C293.9,231.7,295.5,232.3,296.6,233.5z"/>
			<path d="M305.7,243c0.1,0.9,0.5,1.6,1.2,2c0.7,0.4,1.6,0.7,2.7,0.7c1,0,1.7-0.2,2.3-0.6c0.6-0.4,0.8-0.9,0.8-1.5
				c0-0.9-0.7-1.6-2.1-1.9l-3.5-0.7c-2.9-0.6-4.3-2.1-4.3-4.3c0-1.5,0.6-2.7,1.7-3.6c1.1-0.9,2.7-1.4,4.6-1.4c1.8,0,3.3,0.4,4.5,1.3
				c1.2,0.8,1.9,1.9,2.2,3.3l-3.2,0.7c-0.1-0.8-0.5-1.4-1.2-1.9c-0.6-0.5-1.5-0.7-2.5-0.7c-0.9,0-1.6,0.2-2.1,0.6
				c-0.5,0.4-0.7,0.9-0.7,1.5c0,0.9,0.6,1.5,1.9,1.8l3.8,0.8c1.3,0.3,2.3,0.8,3,1.5c0.7,0.7,1.1,1.7,1.1,2.8c0,1.6-0.6,2.9-1.8,3.8
				c-1.2,0.9-2.8,1.3-4.9,1.3c-1.9,0-3.5-0.4-4.8-1.2c-1.3-0.8-2-2-2.2-3.5L305.7,243z"/>
			<path d="M324.5,234.9V248h-3.3v-13.1h-2.6v-2.8h2.6v-1.9c0-1.8,0.5-3.2,1.6-4.2c1.1-1,2.5-1.6,4.3-1.6c0.9,0,1.8,0.2,2.7,0.6
				l-0.8,2.7c-0.6-0.2-1.1-0.3-1.7-0.3c-0.8,0-1.5,0.2-2,0.7c-0.5,0.5-0.8,1.2-0.8,2v1.9h5.3v2.8H324.5z"/>
			<path d="M347.7,240.8h-12.9c0.1,1.4,0.7,2.6,1.6,3.4c0.9,0.9,2,1.3,3.2,1.3c2.2,0,3.8-0.9,4.7-2.8l3,0.6c-0.6,1.6-1.6,2.9-3,3.7
				c-1.3,0.8-2.9,1.3-4.7,1.3c-2.2,0-4.1-0.8-5.7-2.3c-1.6-1.6-2.4-3.6-2.4-6c0-2.5,0.8-4.5,2.4-6.1c1.6-1.6,3.5-2.4,5.8-2.4
				c2.2,0,4,0.8,5.5,2.3c1.5,1.5,2.3,3.4,2.4,5.8V240.8z M336.7,235.6c-0.9,0.7-1.5,1.6-1.8,2.8h9.3c-0.3-1.3-0.8-2.2-1.6-2.9
				c-0.8-0.7-1.8-1-2.9-1C338.6,234.6,337.6,234.9,336.7,235.6z"/>
			<path d="M362.4,232l-0.2,3.2c-0.2,0-0.5,0-0.9,0c-2,0-3.5,0.6-4.5,1.9c-1,1.3-1.5,3-1.5,5.3v5.6h-3.3v-15.9h3.3v3.4
				c1.5-2.4,3.5-3.6,6-3.6C361.7,231.9,362.1,232,362.4,232z"/>
		</g>
	</g>
</g>
<g>
	<path d="M404.1,1536h-18.7c-3.7,0-6.7-3-6.7-6.7v-18.7c0-3.7,3-6.7,6.7-6.7h18.7c3.7,0,6.7,3,6.7,6.7v18.7
		C410.8,1533,407.8,1536,404.1,1536z"/>
	<polygon fill="#FFFFFF" points="389.9,1514.7 389.9,1521.7 384,1514.7 382.2,1514.7 382.2,1525.4 384.3,1525.4 384.3,1518.5 
		390.3,1525.4 392.1,1525.4 392.1,1521.2 397.3,1521.2 397.3,1519.3 392.1,1519.3 392.1,1516.6 401.7,1516.6 401.7,1525.4 
		403.9,1525.4 403.9,1516.6 407.5,1516.6 407.5,1514.7 	"/>
	<g>
		<g>
			<g>
				<path d="M427.8,1528h-3.3v-17.4l-5.5,2.9v-3.1l6.7-3.9h2.1V1528z"/>
				<path d="M448.5,1509.2c1.7,2.1,2.5,4.8,2.5,8.1s-0.8,6-2.5,8.1s-3.9,3.1-6.6,3.1s-4.9-1-6.6-3.1s-2.5-4.8-2.5-8.1s0.8-6,2.5-8.1
					s3.9-3.1,6.6-3.1S446.9,1507.1,448.5,1509.2z M446,1523c1-1.5,1.5-3.4,1.5-5.8s-0.5-4.3-1.5-5.8c-1-1.5-2.4-2.2-4-2.2
					s-3,0.7-4,2.2c-1,1.5-1.5,3.4-1.5,5.8s0.5,4.3,1.5,5.8c1,1.5,2.4,2.2,4,2.2S445,1524.5,446,1523z"/>
				<path d="M470.8,1509.2c1.7,2.1,2.5,4.8,2.5,8.1s-0.8,6-2.5,8.1s-3.9,3.1-6.6,3.1s-4.9-1-6.6-3.1s-2.5-4.8-2.5-8.1s0.8-6,2.5-8.1
					s3.9-3.1,6.6-3.1S469.2,1507.1,470.8,1509.2z M468.3,1523c1-1.5,1.5-3.4,1.5-5.8s-0.5-4.3-1.5-5.8c-1-1.5-2.4-2.2-4-2.2
					s-3,0.7-4,2.2c-1,1.5-1.5,3.4-1.5,5.8s0.5,4.3,1.5,5.8c1,1.5,2.4,2.2,4,2.2S467.3,1524.5,468.3,1523z"/>
			</g>
		</g>
	</g>
	<g>
		<g>
			<path d="M271,1528l-7.6-8.5h-3.1v8.5h-3.4v-21.4h10.1c2.2,0,4,0.6,5.3,1.8c1.4,1.2,2,2.7,2,4.7c0,1.8-0.6,3.3-1.8,4.5
				c-1.2,1.2-2.9,1.8-4.9,1.9l7.7,8.6H271z M266.9,1516.3c1.2,0,2.1-0.3,2.8-0.9c0.7-0.6,1.1-1.4,1.1-2.4s-0.4-1.8-1.1-2.4
				c-0.7-0.6-1.7-0.9-2.8-0.9h-6.7v6.7H266.9z"/>
			<path d="M293.6,1520.8h-12.9c0.1,1.4,0.7,2.6,1.6,3.4c0.9,0.9,2,1.3,3.2,1.3c2.2,0,3.8-0.9,4.7-2.8l3,0.6c-0.6,1.6-1.6,2.9-3,3.7
				c-1.3,0.8-2.9,1.3-4.7,1.3c-2.2,0-4.1-0.8-5.7-2.3c-1.6-1.6-2.4-3.6-2.4-6c0-2.5,0.8-4.5,2.4-6.1c1.6-1.6,3.5-2.4,5.8-2.4
				c2.2,0,4,0.8,5.5,2.3c1.5,1.5,2.3,3.4,2.4,5.8V1520.8z M282.6,1515.6c-0.9,0.7-1.5,1.6-1.8,2.8h9.3c-0.3-1.3-0.8-2.2-1.6-2.9
				s-1.8-1-2.9-1C284.5,1514.6,283.5,1514.9,282.6,1515.6z"/>
			<path d="M308.5,1527.2c-1.4,0.8-2.7,1.2-3.9,1.2c-1.8,0-3.2-0.5-4.2-1.5c-1-1-1.5-2.4-1.5-4.4v-7.7h-3.4v-2.8h3.4v-4.9h3.3v4.9
				h5.4v2.8h-5.4v7.5c0,1,0.2,1.7,0.7,2.2c0.5,0.5,1.1,0.8,1.9,0.8c0.9,0,1.8-0.3,2.7-0.9L308.5,1527.2z"/>
			<path d="M326.3,1528h-3.3v-2c-1.3,1.6-3.2,2.4-5.5,2.4c-1.9,0-3.5-0.6-4.6-1.9c-1.2-1.2-1.7-2.9-1.7-4.9v-9.6h3.3v8.9
				c0,1.3,0.3,2.4,1,3.2s1.6,1.2,2.8,1.2c1.5,0,2.6-0.5,3.5-1.5c0.8-1,1.2-2.5,1.2-4.4v-7.3h3.3V1528z"/>
			<path d="M342.1,1512l-0.2,3.2c-0.2,0-0.5,0-0.9,0c-2,0-3.5,0.6-4.5,1.9c-1,1.3-1.5,3-1.5,5.3v5.6h-3.3v-15.9h3.3v3.4
				c1.5-2.4,3.5-3.6,6-3.6C341.5,1511.9,341.8,1512,342.1,1512z"/>
			<path d="M358.9,1513.5c1.2,1.2,1.8,2.9,1.8,4.8v9.6h-3.4v-8.9c0-1.3-0.3-2.3-1-3.1c-0.7-0.8-1.6-1.2-2.7-1.2
				c-1.5,0-2.6,0.5-3.5,1.5c-0.8,1-1.3,2.5-1.3,4.4v7.3h-3.3v-15.9h3.3v2c1.3-1.6,3.2-2.4,5.5-2.4
				C356.2,1511.7,357.8,1512.3,358.9,1513.5z"/>
		</g>
	</g>
</g>
<g>
	<path fill="#848484" d="M191.7,1259.5c0.1-0.8,0.5-1.5,1.2-2.1c0.7-0.6,1.5-0.9,2.6-0.9c1.3,0,2.4,0.4,3.2,1.3
		c0.8,0.9,1.2,2.1,1.2,3.8v7.8h-16.1v-7.7c0-1.5,0.4-2.6,1.2-3.5s1.8-1.3,3.2-1.3c0.9,0,1.7,0.3,2.4,0.8
		C191.1,1258.3,191.5,1258.8,191.7,1259.5L191.7,1259.5z M190.8,1266.8v-4.8c0-0.8-0.2-1.4-0.7-1.9c-0.5-0.5-1.1-0.7-1.8-0.7
		c-0.7,0-1.2,0.2-1.6,0.7c-0.4,0.5-0.6,1.1-0.6,1.8v4.8H190.8z M197.7,1261.8c0-0.8-0.2-1.5-0.7-2c-0.4-0.5-1-0.7-1.8-0.7
		c-0.7,0-1.3,0.2-1.7,0.7c-0.4,0.5-0.7,1.1-0.7,1.9v5.1h4.8V1261.8z"/>
	<path fill="#848484" d="M189.5,1242.8c1.2-1.2,2.7-1.8,4.5-1.8s3.3,0.6,4.5,1.8s1.8,2.7,1.8,4.5c0,1.8-0.6,3.3-1.8,4.5
		c-1.2,1.2-2.7,1.9-4.5,1.9s-3.3-0.6-4.5-1.9c-1.2-1.2-1.7-2.8-1.7-4.5S188.3,1244,189.5,1242.8z M196.9,1244.6
		c-0.8-0.8-1.7-1.2-2.9-1.2s-2.2,0.4-2.9,1.2c-0.8,0.8-1.1,1.7-1.1,2.8c0,1.1,0.4,2,1.1,2.8c0.8,0.8,1.7,1.2,2.9,1.2
		s2.2-0.4,2.9-1.2c0.8-0.8,1.1-1.7,1.1-2.8C198,1246.3,197.6,1245.3,196.9,1244.6z"/>
	<path fill="#848484" d="M187.9,1229.8l2.4,0.2c0,0.1,0,0.4,0,0.7c0,1.5,0.5,2.6,1.4,3.4c1,0.8,2.3,1.2,3.9,1.2h4.2v2.5H188v-2.5
		h2.5c-1.8-1.1-2.7-2.6-2.7-4.5C187.8,1230.3,187.9,1230,187.9,1229.8z"/>
	<path fill="#848484" d="M187.9,1219.4l2.4,0.2c0,0.1,0,0.4,0,0.7c0,1.5,0.5,2.6,1.4,3.4c1,0.8,2.3,1.2,3.9,1.2h4.2v2.5H188v-2.5
		h2.5c-1.8-1.1-2.7-2.6-2.7-4.5C187.8,1219.9,187.9,1219.6,187.9,1219.4z"/>
	<path fill="#848484" d="M189.5,1206.9c1.2-1.2,2.7-1.8,4.5-1.8s3.3,0.6,4.5,1.8s1.8,2.7,1.8,4.5c0,1.8-0.6,3.3-1.8,4.5
		c-1.2,1.2-2.7,1.9-4.5,1.9s-3.3-0.6-4.5-1.9c-1.2-1.2-1.7-2.8-1.7-4.5S188.3,1208.1,189.5,1206.9z M196.9,1208.7
		c-0.8-0.8-1.7-1.2-2.9-1.2s-2.2,0.4-2.9,1.2c-0.8,0.8-1.1,1.7-1.1,2.8c0,1.1,0.4,2,1.1,2.8c0.8,0.8,1.7,1.2,2.9,1.2
		s2.2-0.4,2.9-1.2c0.8-0.8,1.1-1.7,1.1-2.8C198,1210.4,197.6,1209.5,196.9,1208.7z"/>
	<path fill="#848484" d="M199.9,1189.6v2.3l-8,2.7l8,2.7v2.3l-12,4v-2.5l8.3-2.7l-8.3-2.8v-2l8.3-2.8l-8.3-2.7v-2.5L199.9,1189.6z"
		/>
	<path fill="#848484" d="M194.5,1172.1v9.6c1.1-0.1,1.9-0.5,2.6-1.2c0.6-0.7,1-1.5,1-2.4c0-1.6-0.7-2.8-2.1-3.5l0.5-2.2
		c1.2,0.5,2.2,1.2,2.8,2.2s0.9,2.2,0.9,3.5c0,1.7-0.6,3.1-1.8,4.3c-1.2,1.2-2.7,1.8-4.5,1.8c-1.9,0-3.4-0.6-4.5-1.8
		c-1.2-1.2-1.8-2.7-1.8-4.4c0-1.6,0.6-3,1.7-4.1c1.1-1.1,2.6-1.7,4.3-1.8H194.5z M190.6,1180.4c0.5,0.7,1.2,1.1,2.1,1.3v-7
		c-0.9,0.2-1.7,0.6-2.2,1.2s-0.7,1.3-0.7,2.2C189.9,1178.9,190.1,1179.7,190.6,1180.4z"/>
	<path fill="#848484" d="M187.9,1161l2.4,0.2c0,0.1,0,0.4,0,0.7c0,1.5,0.5,2.6,1.4,3.4c1,0.8,2.3,1.2,3.9,1.2h4.2v2.5H188v-2.5h2.5
		c-1.8-1.1-2.7-2.6-2.7-4.5C187.8,1161.5,187.9,1161.2,187.9,1161z"/>
</g>
<g>
	<path fill="#848484" d="M191.7,507.5c0.1-0.8,0.5-1.5,1.2-2.1c0.7-0.6,1.5-0.9,2.6-0.9c1.3,0,2.4,0.4,3.2,1.3
		c0.8,0.9,1.2,2.1,1.2,3.8v7.8h-16.1v-7.7c0-1.5,0.4-2.6,1.2-3.5s1.8-1.3,3.2-1.3c0.9,0,1.7,0.3,2.4,0.8
		C191.1,506.3,191.5,506.8,191.7,507.5L191.7,507.5z M190.8,514.8V510c0-0.8-0.2-1.4-0.7-1.9c-0.5-0.5-1.1-0.7-1.8-0.7
		c-0.7,0-1.2,0.2-1.6,0.7c-0.4,0.5-0.6,1.1-0.6,1.8v4.8H190.8z M197.7,509.8c0-0.8-0.2-1.5-0.7-2c-0.4-0.5-1-0.7-1.8-0.7
		c-0.7,0-1.3,0.2-1.7,0.7c-0.4,0.5-0.7,1.1-0.7,1.9v5.1h4.8V509.8z"/>
	<path fill="#848484" d="M189.5,490.8c1.2-1.2,2.7-1.8,4.5-1.8s3.3,0.6,4.5,1.8s1.8,2.7,1.8,4.5c0,1.8-0.6,3.3-1.8,4.5
		c-1.2,1.2-2.7,1.9-4.5,1.9s-3.3-0.6-4.5-1.9c-1.2-1.2-1.7-2.8-1.7-4.5S188.3,492,189.5,490.8z M196.9,492.6
		c-0.8-0.8-1.7-1.2-2.9-1.2s-2.2,0.4-2.9,1.2c-0.8,0.8-1.1,1.7-1.1,2.8c0,1.1,0.4,2,1.1,2.8c0.8,0.8,1.7,1.2,2.9,1.2
		s2.2-0.4,2.9-1.2c0.8-0.8,1.1-1.7,1.1-2.8C198,494.3,197.6,493.3,196.9,492.6z"/>
	<path fill="#848484" d="M187.9,477.8l2.4,0.2c0,0.1,0,0.4,0,0.7c0,1.5,0.5,2.6,1.4,3.4c1,0.8,2.3,1.2,3.9,1.2h4.2v2.5H188v-2.5h2.5
		c-1.8-1.1-2.7-2.6-2.7-4.5C187.8,478.3,187.9,478,187.9,477.8z"/>
	<path fill="#848484" d="M187.9,467.4l2.4,0.2c0,0.1,0,0.4,0,0.7c0,1.5,0.5,2.6,1.4,3.4c1,0.8,2.3,1.2,3.9,1.2h4.2v2.5H188v-2.5h2.5
		c-1.8-1.1-2.7-2.6-2.7-4.5C187.8,467.9,187.9,467.6,187.9,467.4z"/>
	<path fill="#848484" d="M189.5,454.9c1.2-1.2,2.7-1.8,4.5-1.8s3.3,0.6,4.5,1.8s1.8,2.7,1.8,4.5c0,1.8-0.6,3.3-1.8,4.5
		c-1.2,1.2-2.7,1.9-4.5,1.9s-3.3-0.6-4.5-1.9c-1.2-1.2-1.7-2.8-1.7-4.5S188.3,456.1,189.5,454.9z M196.9,456.7
		c-0.8-0.8-1.7-1.2-2.9-1.2s-2.2,0.4-2.9,1.2c-0.8,0.8-1.1,1.7-1.1,2.8c0,1.1,0.4,2,1.1,2.8c0.8,0.8,1.7,1.2,2.9,1.2
		s2.2-0.4,2.9-1.2c0.8-0.8,1.1-1.7,1.1-2.8C198,458.4,197.6,457.5,196.9,456.7z"/>
	<path fill="#848484" d="M199.9,437.6v2.3l-8,2.7l8,2.7v2.3l-12,4v-2.5l8.3-2.7l-8.3-2.8v-2l8.3-2.8l-8.3-2.7v-2.5L199.9,437.6z"/>
	<path fill="#848484" d="M194.5,420.1v9.6c1.1-0.1,1.9-0.5,2.6-1.2c0.6-0.7,1-1.5,1-2.4c0-1.6-0.7-2.8-2.1-3.5l0.5-2.2
		c1.2,0.5,2.2,1.2,2.8,2.2s0.9,2.2,0.9,3.5c0,1.7-0.6,3.1-1.8,4.3c-1.2,1.2-2.7,1.8-4.5,1.8c-1.9,0-3.4-0.6-4.5-1.8
		c-1.2-1.2-1.8-2.7-1.8-4.4c0-1.6,0.6-3,1.7-4.1c1.1-1.1,2.6-1.7,4.3-1.8H194.5z M190.6,428.4c0.5,0.7,1.2,1.1,2.1,1.3v-7
		c-0.9,0.2-1.7,0.6-2.2,1.2s-0.7,1.3-0.7,2.2C189.9,426.9,190.1,427.7,190.6,428.4z"/>
	<path fill="#848484" d="M187.9,409l2.4,0.2c0,0.1,0,0.4,0,0.7c0,1.5,0.5,2.6,1.4,3.4c1,0.8,2.3,1.2,3.9,1.2h4.2v2.5H188v-2.5h2.5
		c-1.8-1.1-2.7-2.6-2.7-4.5C187.8,409.5,187.9,409.2,187.9,409z"/>
</g>
<g>
	<path fill="#848484" d="M505.8,819.1h13.8v2.6h-13.8v5.6h-2.3v-13.9h2.3V819.1z"/>
	<path fill="#848484" d="M502.9,807.9c0.3-0.3,0.7-0.5,1.1-0.5c0.4,0,0.8,0.1,1.1,0.4c0.3,0.3,0.4,0.7,0.4,1.1
		c0,0.5-0.1,0.8-0.4,1.2c-0.3,0.3-0.7,0.5-1.1,0.5c-0.4,0-0.8-0.2-1.1-0.5c-0.3-0.3-0.5-0.7-0.5-1.2
		C502.5,808.6,502.6,808.2,502.9,807.9z M519.5,810.3h-11.9v-2.5h11.9V810.3z"/>
	<path fill="#848484" d="M508.7,793.6c0.9-0.9,2.1-1.3,3.6-1.3h7.2v2.5h-6.7c-1,0-1.8,0.3-2.4,0.8c-0.6,0.5-0.9,1.2-0.9,2.1
		c0,1.1,0.4,2,1.1,2.6c0.8,0.6,1.9,0.9,3.3,0.9h5.5v2.5h-11.9v-2.5h1.5c-1.2-1-1.8-2.4-1.8-4.1C507.3,795.6,507.8,794.5,508.7,793.6
		z"/>
	<path fill="#848484" d="M519.5,788.4h-17.3v-2.5h17.3V788.4z"/>
	<path fill="#848484" d="M519.5,769.9v2.5h-1.4c1.1,1.1,1.7,2.5,1.7,4.3c0,1.6-0.6,3-1.8,4.2s-2.7,1.7-4.5,1.7
		c-1.8,0-3.3-0.6-4.5-1.8s-1.8-2.6-1.8-4.2c0-1.8,0.6-3.2,1.7-4.3h-1.4v-2.5H519.5z M516.5,773.6c-0.8-0.8-1.7-1.2-2.9-1.2
		c-1.2,0-2.2,0.4-2.9,1.2s-1.1,1.7-1.1,2.7c0,1.1,0.4,2,1.1,2.8c0.7,0.7,1.7,1.1,3,1.1c1.2,0,2.2-0.4,3-1.1c0.7-0.7,1.1-1.7,1.1-2.8
		C517.7,775.3,517.3,774.4,516.5,773.6z"/>
	<path fill="#848484" d="M519.5,757.1l-4.9,5.5v0.7h4.9v2.5h-17.3v-2.5h9.9v-0.7l-4.5-5v-3.2l5.8,6.2l6.1-6.9V757.1z"/>
	<path fill="#848484" d="M514.2,741v9.6c1.1-0.1,1.9-0.5,2.6-1.2c0.6-0.7,1-1.5,1-2.4c0-1.6-0.7-2.8-2.1-3.5l0.5-2.2
		c1.2,0.5,2.2,1.2,2.8,2.2c0.6,1,0.9,2.2,0.9,3.5c0,1.7-0.6,3.1-1.8,4.3s-2.7,1.8-4.5,1.8c-1.9,0-3.4-0.6-4.5-1.8s-1.8-2.7-1.8-4.4
		c0-1.6,0.6-3,1.7-4.1c1.1-1.1,2.6-1.7,4.3-1.8H514.2z M510.3,749.2c0.5,0.7,1.2,1.1,2.1,1.3v-7c-0.9,0.2-1.7,0.6-2.2,1.2
		s-0.7,1.3-0.7,2.2C509.5,747.7,509.8,748.5,510.3,749.2z"/>
</g>
<g>
	<path fill="#848484" d="M505.8,1331.1h13.8v2.6h-13.8v5.6h-2.3v-13.9h2.3V1331.1z"/>
	<path fill="#848484" d="M502.9,1319.9c0.3-0.3,0.7-0.5,1.1-0.5c0.4,0,0.8,0.1,1.1,0.4c0.3,0.3,0.4,0.7,0.4,1.1
		c0,0.5-0.1,0.8-0.4,1.2c-0.3,0.3-0.7,0.5-1.1,0.5c-0.4,0-0.8-0.2-1.1-0.5c-0.3-0.3-0.5-0.7-0.5-1.2
		C502.5,1320.6,502.6,1320.2,502.9,1319.9z M519.5,1322.3h-11.9v-2.5h11.9V1322.3z"/>
	<path fill="#848484" d="M508.7,1305.6c0.9-0.9,2.1-1.3,3.6-1.3h7.2v2.5h-6.7c-1,0-1.8,0.3-2.4,0.8c-0.6,0.5-0.9,1.2-0.9,2.1
		c0,1.1,0.4,2,1.1,2.6c0.8,0.6,1.9,0.9,3.3,0.9h5.5v2.5h-11.9v-2.5h1.5c-1.2-1-1.8-2.4-1.8-4.1
		C507.3,1307.6,507.8,1306.5,508.7,1305.6z"/>
	<path fill="#848484" d="M519.5,1300.4h-17.3v-2.5h17.3V1300.4z"/>
	<path fill="#848484" d="M519.5,1281.9v2.5h-1.4c1.1,1.1,1.7,2.5,1.7,4.3c0,1.6-0.6,3-1.8,4.2s-2.7,1.7-4.5,1.7
		c-1.8,0-3.3-0.6-4.5-1.8s-1.8-2.6-1.8-4.2c0-1.8,0.6-3.2,1.7-4.3h-1.4v-2.5H519.5z M516.5,1285.6c-0.8-0.8-1.7-1.2-2.9-1.2
		c-1.2,0-2.2,0.4-2.9,1.2s-1.1,1.7-1.1,2.7c0,1.1,0.4,2,1.1,2.8c0.7,0.7,1.7,1.1,3,1.1c1.2,0,2.2-0.4,3-1.1c0.7-0.7,1.1-1.7,1.1-2.8
		C517.7,1287.3,517.3,1286.4,516.5,1285.6z"/>
	<path fill="#848484" d="M519.5,1269.1l-4.9,5.5v0.7h4.9v2.5h-17.3v-2.5h9.9v-0.7l-4.5-5v-3.2l5.8,6.2l6.1-6.9V1269.1z"/>
	<path fill="#848484" d="M514.2,1253v9.6c1.1-0.1,1.9-0.5,2.6-1.2c0.6-0.7,1-1.5,1-2.4c0-1.6-0.7-2.8-2.1-3.5l0.5-2.2
		c1.2,0.5,2.2,1.2,2.8,2.2c0.6,1,0.9,2.2,0.9,3.5c0,1.7-0.6,3.1-1.8,4.3s-2.7,1.8-4.5,1.8c-1.9,0-3.4-0.6-4.5-1.8s-1.8-2.7-1.8-4.4
		c0-1.6,0.6-3,1.7-4.1c1.1-1.1,2.6-1.7,4.3-1.8H514.2z M510.3,1261.2c0.5,0.7,1.2,1.1,2.1,1.3v-7c-0.9,0.2-1.7,0.6-2.2,1.2
		s-0.7,1.3-0.7,2.2C509.5,1259.7,509.8,1260.5,510.3,1261.2z"/>
</g>
<g>
	<path fill="#848484" d="M823.5,966.3c0-2.7,0.7-4.9,2.2-6.5c1.5-1.6,3.4-2.4,5.8-2.4c2.4,0,4.3,0.8,5.8,2.4
		c1.5,1.6,2.2,3.8,2.2,6.5v5.6h-16.1V966.3z M837.2,966.3c0-1.9-0.5-3.4-1.6-4.6c-1.1-1.1-2.4-1.7-4.1-1.7c-1.7,0-3.1,0.6-4.1,1.7
		c-1.1,1.1-1.6,2.7-1.6,4.6v3h11.4V966.3z"/>
	<path fill="#848484" d="M834.2,942.6v9.6c1.1-0.1,1.9-0.5,2.6-1.2c0.6-0.7,1-1.5,1-2.4c0-1.6-0.7-2.8-2.1-3.5l0.5-2.2
		c1.2,0.5,2.2,1.2,2.8,2.2c0.6,1,0.9,2.2,0.9,3.5c0,1.7-0.6,3.1-1.8,4.3s-2.7,1.8-4.5,1.8c-1.9,0-3.4-0.6-4.5-1.8s-1.8-2.7-1.8-4.4
		c0-1.6,0.6-3,1.7-4.1c1.1-1.1,2.6-1.7,4.3-1.8H834.2z M830.3,950.9c0.5,0.7,1.2,1.1,2.1,1.3v-7c-0.9,0.2-1.7,0.6-2.2,1.2
		s-0.7,1.3-0.7,2.2C829.5,949.4,829.8,950.1,830.3,950.9z"/>
	<path fill="#848484" d="M830.6,936.6v-8.3h2.3v8.3h6.6v2.6h-16.1v-11.8h2.3v9.2H830.6z"/>
	<path fill="#848484" d="M822.9,921.8c0.3-0.3,0.7-0.5,1.1-0.5c0.4,0,0.8,0.1,1.1,0.4c0.3,0.3,0.4,0.7,0.4,1.1
		c0,0.5-0.1,0.8-0.4,1.2c-0.3,0.3-0.7,0.5-1.1,0.5c-0.4,0-0.8-0.2-1.1-0.5c-0.3-0.3-0.5-0.7-0.5-1.2
		C822.5,922.5,822.6,922.1,822.9,921.8z M839.5,924.2h-11.9v-2.5h11.9V924.2z"/>
	<path fill="#848484" d="M830.6,907.8v-8.3h2.3v8.3h6.6v2.6h-16.1v-11.8h2.3v9.2H830.6z"/>
	<path fill="#848484" d="M839.5,885v2.5h-1.5c1.2,1,1.8,2.4,1.8,4.1c0,1.4-0.5,2.6-1.4,3.5c-0.9,0.9-2.2,1.3-3.7,1.3h-7.2v-2.5h6.7
		c1,0,1.8-0.3,2.4-0.8c0.6-0.5,0.9-1.2,0.9-2.1c0-1.1-0.4-2-1.1-2.6s-1.9-0.9-3.3-0.9h-5.5V885H839.5z"/>
	<path fill="#848484" d="M828.7,870.8c0.9-0.9,2.1-1.3,3.6-1.3h7.2v2.5h-6.7c-1,0-1.8,0.3-2.4,0.8c-0.6,0.5-0.9,1.2-0.9,2.1
		c0,1.1,0.4,2,1.1,2.6c0.8,0.6,1.9,0.9,3.3,0.9h5.5v2.5h-11.9v-2.5h1.5c-1.2-1-1.8-2.4-1.8-4.1C827.3,872.9,827.8,871.7,828.7,870.8
		z"/>
	<path fill="#848484" d="M839.5,853.7v2.5h-1.3c1.1,1.1,1.7,2.6,1.7,4.3c0,1.6-0.6,3-1.8,4.2c-1.2,1.2-2.7,1.8-4.5,1.8
		s-3.3-0.6-4.5-1.8s-1.8-2.6-1.8-4.2c0-1.8,0.6-3.2,1.7-4.3h-6.7v-2.5H839.5z M836.5,857.4c-0.8-0.8-1.7-1.2-3-1.2
		c-1.2,0-2.2,0.4-2.9,1.2s-1.1,1.7-1.1,2.7c0,1.1,0.4,2,1.1,2.8c0.8,0.7,1.7,1.1,3,1.1c1.2,0,2.2-0.4,3-1.1c0.7-0.7,1.1-1.7,1.1-2.8
		C837.7,859.1,837.3,858.2,836.5,857.4z"/>
	<path fill="#848484" d="M822.9,847.2c0.3-0.3,0.7-0.5,1.1-0.5c0.4,0,0.8,0.1,1.1,0.4c0.3,0.3,0.4,0.7,0.4,1.1
		c0,0.5-0.1,0.8-0.4,1.2c-0.3,0.3-0.7,0.5-1.1,0.5c-0.4,0-0.8-0.2-1.1-0.5c-0.3-0.3-0.5-0.7-0.5-1.2
		C822.5,847.9,822.6,847.5,822.9,847.2z M839.5,849.6h-11.9v-2.5h11.9V849.6z"/>
	<path fill="#848484" d="M828.7,832.8c0.9-0.9,2.1-1.3,3.6-1.3h7.2v2.5h-6.7c-1,0-1.8,0.3-2.4,0.8c-0.6,0.5-0.9,1.2-0.9,2.1
		c0,1.1,0.4,2,1.1,2.6c0.8,0.6,1.9,0.9,3.3,0.9h5.5v2.5h-11.9v-2.5h1.5c-1.2-1-1.8-2.4-1.8-4.1C827.3,834.9,827.8,833.7,828.7,832.8
		z"/>
	<path fill="#848484" d="M838.5,816.2c1.8,0,3.1,0.6,4.1,1.7c1,1.1,1.5,2.6,1.5,4.5c0,2.8-1,4.8-2.9,5.8l-1.5-2
		c0.7-0.5,1.3-1,1.6-1.5c0.3-0.6,0.5-1.3,0.5-2.2c0-1.1-0.3-2-1-2.7c-0.7-0.7-1.6-1-2.7-1h-0.8c1,0.9,1.5,2.3,1.5,4.1
		c0,1.6-0.6,2.9-1.7,4.1s-2.5,1.8-4.1,1.8s-3-0.6-4.1-1.7c-1.1-1.2-1.7-2.5-1.7-4.1c0-1.8,0.5-3.2,1.5-4.1h-1.2v-2.4H838.5z
		 M835.7,819.7c-0.7-0.7-1.5-1.1-2.6-1.1c-1.1,0-1.9,0.4-2.6,1.1c-0.7,0.7-1,1.6-1,2.6c0,1.1,0.3,2,1,2.7c0.7,0.7,1.5,1.1,2.6,1.1
		c1.1,0,1.9-0.4,2.6-1.1c0.7-0.7,1-1.6,1-2.7C836.7,821.3,836.3,820.5,835.7,819.7z"/>
	<path fill="#848484" d="M824.3,795.4c0.8-1.1,1.9-1.8,3.3-2.1l0.5,2.6c-0.8,0.1-1.5,0.6-2.1,1.2s-0.8,1.5-0.8,2.4
		c0,0.9,0.2,1.7,0.7,2.3s1,0.9,1.8,0.9c0.6,0,1-0.2,1.3-0.5c0.3-0.3,0.6-0.8,0.7-1.5l0.7-3.5c0.6-2.8,2.1-4.1,4.4-4.1
		c1.5,0,2.7,0.6,3.6,1.7s1.3,2.6,1.3,4.5c0,1.8-0.4,3.3-1.3,4.5c-0.8,1.2-2,1.9-3.5,2.1l-0.6-2.7c1-0.2,1.8-0.7,2.3-1.4
		c0.5-0.7,0.8-1.7,0.8-2.8c0-1.1-0.2-1.9-0.7-2.5c-0.5-0.6-1.1-0.9-1.8-0.9c-0.6,0-1.1,0.2-1.4,0.5c-0.3,0.3-0.6,0.9-0.7,1.7
		l-0.7,3.5c-0.6,2.7-2.1,4.1-4.4,4.1c-1.4,0-2.6-0.5-3.4-1.6s-1.3-2.5-1.3-4.3C823.1,797.8,823.5,796.5,824.3,795.4z"/>
	<path fill="#848484" d="M829.1,779.3c1.2-1.2,2.7-1.8,4.5-1.8s3.3,0.6,4.5,1.8c1.2,1.2,1.8,2.7,1.8,4.5c0,1.8-0.6,3.3-1.8,4.5
		c-1.2,1.2-2.7,1.9-4.5,1.9s-3.3-0.6-4.5-1.9c-1.2-1.2-1.7-2.8-1.7-4.5S827.9,780.5,829.1,779.3z M836.5,781.1
		c-0.8-0.8-1.7-1.2-2.9-1.2c-1.2,0-2.2,0.4-2.9,1.2s-1.1,1.7-1.1,2.8c0,1.1,0.4,2,1.1,2.8s1.7,1.2,2.9,1.2c1.2,0,2.2-0.4,2.9-1.2
		c0.8-0.8,1.1-1.7,1.1-2.8C837.7,782.8,837.3,781.8,836.5,781.1z"/>
	<path fill="#848484" d="M839.5,763.1v2.5h-1.5c1.2,1,1.8,2.4,1.8,4.1c0,1.4-0.5,2.6-1.4,3.5c-0.9,0.9-2.2,1.3-3.7,1.3h-7.2V772h6.7
		c1,0,1.8-0.3,2.4-0.8c0.6-0.5,0.9-1.2,0.9-2.1c0-1.1-0.4-2-1.1-2.6s-1.9-0.9-3.3-0.9h-5.5v-2.5H839.5z"/>
	<path fill="#848484" d="M827.6,751.1l2.4,0.2c0,0.1,0,0.4,0,0.7c0,1.5,0.5,2.6,1.4,3.4c1,0.8,2.3,1.2,3.9,1.2h4.2v2.5h-11.9v-2.5
		h2.5c-1.8-1.1-2.7-2.6-2.7-4.5C827.5,751.6,827.5,751.3,827.6,751.1z"/>
	<path fill="#848484" d="M835.1,739.8l0.6-2.3c1.3,0.3,2.3,1,3,2.1c0.8,1.1,1.2,2.3,1.2,3.7c0,1.7-0.6,3.2-1.8,4.5
		c-1.2,1.2-2.7,1.8-4.5,1.8c-1.8,0-3.3-0.6-4.5-1.8c-1.2-1.2-1.8-2.7-1.8-4.5c0-1.4,0.4-2.6,1.1-3.6c0.8-1.1,1.8-1.8,3-2.2l0.7,2.4
		c-0.8,0.2-1.5,0.6-1.9,1.2c-0.4,0.6-0.6,1.3-0.6,2.2c0,1.1,0.4,2,1.1,2.7c0.7,0.7,1.7,1.1,2.9,1.1c1.2,0,2.2-0.4,2.9-1.1
		c0.7-0.7,1.1-1.6,1.1-2.8C837.6,741.5,836.7,740.3,835.1,739.8z"/>
	<path fill="#848484" d="M834.2,723.1v9.6c1.1-0.1,1.9-0.5,2.6-1.2c0.6-0.7,1-1.5,1-2.4c0-1.6-0.7-2.8-2.1-3.5l0.5-2.2
		c1.2,0.5,2.2,1.2,2.8,2.2c0.6,1,0.9,2.2,0.9,3.5c0,1.7-0.6,3.1-1.8,4.3s-2.7,1.8-4.5,1.8c-1.9,0-3.4-0.6-4.5-1.8s-1.8-2.7-1.8-4.4
		c0-1.6,0.6-3,1.7-4.1c1.1-1.1,2.6-1.7,4.3-1.8H834.2z M830.3,731.3c0.5,0.7,1.2,1.1,2.1,1.3v-7c-0.9,0.2-1.7,0.6-2.2,1.2
		s-0.7,1.3-0.7,2.2C829.5,729.8,829.8,730.6,830.3,731.3z"/>
</g>
<path fill="#848484" d="M352,320.5c-9.1,0-16.5-7.4-16.5-16.5s7.4-16.5,16.5-16.5s16.5,7.4,16.5,16.5S361.1,320.5,352,320.5z
	 M352,288.5c-8.5,0-15.5,7-15.5,15.5s7,15.5,15.5,15.5s15.5-7,15.5-15.5S360.5,288.5,352,288.5z"/>
<g>
	<g>
		<path fill="#848484" d="M354.4,312h-2.5v-13l-4.1,2.2v-2.3l5-2.9h1.6V312z"/>
	</g>
</g>
<path fill="#848484" d="M672,448.5c-9.1,0-16.5-7.4-16.5-16.5s7.4-16.5,16.5-16.5s16.5,7.4,16.5,16.5S681.1,448.5,672,448.5z
	 M672,416.5c-8.5,0-15.5,7-15.5,15.5s7,15.5,15.5,15.5s15.5-7,15.5-15.5S680.5,416.5,672,416.5z"/>
<g>
	<g>
		<path fill="#848484" d="M677.4,440h-10.9v-1.7l5.6-5.4c0.5-0.5,0.8-0.8,1.1-1c0.2-0.2,0.5-0.5,0.8-0.9s0.5-0.8,0.7-1.2
			c0.1-0.4,0.2-0.8,0.2-1.3c0-0.8-0.3-1.5-0.8-2c-0.5-0.5-1.2-0.8-2.1-0.8c-0.9,0-1.7,0.3-2.2,0.9s-0.9,1.4-0.9,2.5l-2.4-0.5
			c0.1-1.6,0.6-2.8,1.6-3.7c1-0.9,2.3-1.4,3.9-1.4c1.6,0,2.9,0.5,3.9,1.4c1,0.9,1.5,2.1,1.5,3.6c0,1.1-0.3,2.1-0.8,2.9
			c-0.6,0.9-1.5,1.9-2.8,3.2l-3.2,3h6.9V440z"/>
	</g>
</g>
<path fill="#848484" d="M672,576.5c-9.1,0-16.5-7.4-16.5-16.5s7.4-16.5,16.5-16.5s16.5,7.4,16.5,16.5S681.1,576.5,672,576.5z
	 M672,544.5c-8.5,0-15.5,7-15.5,15.5s7,15.5,15.5,15.5s15.5-7,15.5-15.5S680.5,544.5,672,544.5z"/>
<g>
	<g>
		<path fill="#848484" d="M677.1,561.1c0.4,0.6,0.6,1.3,0.6,2.2c0,1.5-0.5,2.7-1.5,3.6c-1,0.9-2.4,1.4-4,1.4s-3-0.5-4.1-1.4
			c-1.1-0.9-1.7-2.2-1.8-3.7l2.4-0.5c0.1,1.1,0.5,1.9,1.1,2.5c0.6,0.6,1.4,0.9,2.4,0.9c1,0,1.7-0.3,2.3-0.8c0.6-0.5,0.9-1.2,0.9-2
			c0-0.8-0.3-1.4-0.8-1.8s-1.3-0.7-2.2-0.7h-1.7v-2.1h1.6c0.9,0,1.6-0.2,2.1-0.6c0.5-0.4,0.8-1,0.8-1.7c0-0.8-0.3-1.4-0.8-1.9
			c-0.5-0.5-1.3-0.7-2.2-0.7c-0.9,0-1.7,0.3-2.3,0.9s-0.9,1.4-1,2.5l-2.4-0.5c0.1-1.5,0.7-2.8,1.7-3.7c1-0.9,2.3-1.4,3.9-1.4
			c1.6,0,2.9,0.4,3.9,1.3c1,0.9,1.5,2.1,1.5,3.5c0,0.8-0.2,1.5-0.6,2.1c-0.4,0.6-0.9,1-1.5,1.3C676.1,560.1,676.7,560.5,677.1,561.1
			z"/>
	</g>
</g>
<g>
	<path fill="#848484" d="M352,704.5c-9.1,0-16.5-7.4-16.5-16.5s7.4-16.5,16.5-16.5s16.5,7.4,16.5,16.5S361.1,704.5,352,704.5z
		 M352,672.5c-8.5,0-15.5,7-15.5,15.5s7,15.5,15.5,15.5s15.5-7,15.5-15.5S360.5,672.5,352,672.5z"/>
	<g>
		<g>
			<path fill="#848484" d="M356.5,692.4v3.6H354v-3.6h-8.7V690l7.9-10.1h3.4v10.4h2.3v2.1H356.5z M354,682.5l-5.9,7.8h5.9V682.5z"/>
		</g>
	</g>
</g>
<path fill="#848484" d="M672,1216.5c-9.1,0-16.5-7.4-16.5-16.5s7.4-16.5,16.5-16.5s16.5,7.4,16.5,16.5S681.1,1216.5,672,1216.5z
	 M672,1184.5c-8.5,0-15.5,7-15.5,15.5s7,15.5,15.5,15.5s15.5-7,15.5-15.5S680.5,1184.5,672,1184.5z"/>
<g>
	<g>
		<path fill="#848484" d="M676.6,1199.1c1,1,1.5,2.3,1.5,3.8c0,1.6-0.5,2.9-1.6,3.9c-1.1,1-2.5,1.5-4.2,1.5c-2,0-3.6-0.7-4.7-2.1
			s-1.7-3.4-1.7-5.9c0-3.1,0.7-5.4,2.2-6.9c1.2-1.2,2.6-1.8,4.4-1.8c1.3,0,2.4,0.3,3.4,1c0.9,0.6,1.6,1.5,1.9,2.7l-2.5,0.5
			c-0.4-1.3-1.4-1.9-2.9-1.9c-1,0-1.9,0.4-2.6,1.2c-1,1.1-1.5,2.6-1.4,4.6c0.5-0.6,1.1-1.1,1.8-1.5c0.8-0.4,1.6-0.6,2.4-0.6
			C674.3,1197.6,675.6,1198.1,676.6,1199.1z M674.6,1205.1c0.6-0.6,0.9-1.4,0.9-2.3s-0.3-1.7-0.9-2.3c-0.6-0.6-1.4-0.9-2.3-0.9
			s-1.7,0.3-2.3,0.9c-0.6,0.6-0.9,1.4-0.9,2.3c0,0.9,0.3,1.6,1,2.2c0.6,0.6,1.4,0.9,2.3,0.9C673.2,1206,674,1205.7,674.6,1205.1z"/>
	</g>
</g>
<path fill="#848484" d="M352,960.5c-9.1,0-16.5-7.4-16.5-16.5s7.4-16.5,16.5-16.5s16.5,7.4,16.5,16.5S361.1,960.5,352,960.5z
	 M352,928.5c-8.5,0-15.5,7-15.5,15.5s7,15.5,15.5,15.5s15.5-7,15.5-15.5S360.5,928.5,352,928.5z"/>
<g>
	<g>
		<path fill="#848484" d="M352.4,941.9c1.6,0,2.9,0.4,3.9,1.3c1,0.9,1.5,2.1,1.5,3.7c0,1.6-0.5,2.9-1.6,3.9s-2.5,1.5-4.2,1.5
			c-1.7,0-3.1-0.5-4.2-1.5c-1.1-1-1.7-2.3-1.7-4.1l2.5-0.5c0,1.2,0.3,2.1,1,2.7c0.6,0.6,1.5,0.9,2.5,0.9c1,0,1.8-0.3,2.4-0.8
			c0.6-0.6,0.9-1.3,0.9-2.2c0-0.8-0.3-1.5-0.9-2c-0.6-0.5-1.3-0.7-2.3-0.7H347l0.3-8.3h9.8v2.3h-7.4l-0.2,3.7H352.4z"/>
	</g>
</g>
<path fill="#848484" d="M672,1472.5c-9.1,0-16.5-7.4-16.5-16.5s7.4-16.5,16.5-16.5s16.5,7.4,16.5,16.5S681.1,1472.5,672,1472.5z
	 M672,1440.5c-8.5,0-15.5,7-15.5,15.5s7,15.5,15.5,15.5s15.5-7,15.5-15.5S680.5,1440.5,672,1440.5z"/>
<g>
	<g>
		<path fill="#848484" d="M677.5,1449.7l-5.9,14.3h-2.8l5.9-13.8h-8.3v-2.3h11.1V1449.7z"/>
	</g>
</g>
<path fill="#848484" d="M352,1600.5c-9.1,0-16.5-7.4-16.5-16.5s7.4-16.5,16.5-16.5s16.5,7.4,16.5,16.5S361.1,1600.5,352,1600.5z
	 M352,1568.5c-8.5,0-15.5,7-15.5,15.5s7,15.5,15.5,15.5s15.5-7,15.5-15.5S360.5,1568.5,352,1568.5z"/>
<g>
	<g>
		<path fill="#848484" d="M357.2,1585.4c0.6,0.7,0.8,1.5,0.8,2.4c0,1.4-0.6,2.5-1.7,3.3c-1.1,0.9-2.5,1.3-4.3,1.3
			c-1.8,0-3.2-0.4-4.4-1.3c-1.1-0.9-1.7-2-1.7-3.3c0-0.9,0.3-1.6,0.8-2.4c0.6-0.7,1.4-1.2,2.4-1.5c-0.9-0.3-1.6-0.8-2.1-1.5
			c-0.5-0.7-0.7-1.5-0.7-2.4c0-1.3,0.5-2.3,1.5-3.1c1-0.8,2.4-1.2,4-1.2c1.6,0,3,0.4,4,1.2s1.5,1.8,1.5,3.1c0,0.9-0.2,1.7-0.7,2.4
			c-0.5,0.7-1.1,1.2-2,1.5C355.8,1584.1,356.6,1584.6,357.2,1585.4z M354.3,1589.5c0.6-0.5,0.9-1.1,0.9-1.9c0-0.8-0.3-1.4-0.9-1.9
			s-1.4-0.7-2.3-0.7c-0.9,0-1.7,0.2-2.3,0.7s-0.9,1.1-0.9,1.9c0,0.8,0.3,1.4,0.9,1.9c0.6,0.5,1.3,0.7,2.2,0.7
			S353.7,1589.9,354.3,1589.5z M349.9,1578.3c-0.6,0.4-0.8,1-0.8,1.8c0,0.8,0.3,1.3,0.8,1.8c0.5,0.4,1.2,0.6,2.1,0.6
			c0.9,0,1.6-0.2,2.2-0.7c0.6-0.4,0.9-1,0.9-1.8c0-0.7-0.3-1.3-0.9-1.8c-0.6-0.4-1.3-0.7-2.1-0.7
			C351.1,1577.7,350.4,1577.9,349.9,1578.3z"/>
	</g>
</g>
<g>
	<g>
		<g>
			<g>
				<path d="M148.5,135.8c0.8,0.1,1.5,0.5,2.1,1.2c0.6,0.7,0.9,1.5,0.9,2.6c0,1.3-0.4,2.4-1.3,3.2s-2.1,1.2-3.8,1.2h-7.8v-16.1h7.7
					c1.5,0,2.6,0.4,3.5,1.2s1.3,1.8,1.3,3.2c0,0.9-0.3,1.7-0.8,2.4C149.7,135.2,149.2,135.6,148.5,135.8L148.5,135.8z M141.2,134.9
					h4.8c0.8,0,1.4-0.2,1.9-0.7s0.7-1.1,0.7-1.8c0-0.7-0.2-1.2-0.7-1.6s-1.1-0.6-1.8-0.6h-4.8V134.9z M146.2,141.8
					c0.8,0,1.5-0.2,2-0.7c0.5-0.4,0.7-1,0.7-1.8c0-0.7-0.2-1.3-0.7-1.7c-0.5-0.4-1.1-0.7-1.9-0.7h-5.1v4.8H146.2z"/>
				<path d="M165.2,133.6c1.2,1.2,1.8,2.7,1.8,4.5s-0.6,3.3-1.8,4.5c-1.2,1.2-2.7,1.8-4.5,1.8c-1.8,0-3.3-0.6-4.5-1.8
					c-1.2-1.2-1.9-2.7-1.9-4.5s0.6-3.3,1.9-4.5c1.2-1.2,2.8-1.7,4.5-1.7S164,132.4,165.2,133.6z M163.4,141c0.8-0.8,1.2-1.7,1.2-2.9
					s-0.4-2.2-1.2-2.9c-0.8-0.8-1.7-1.1-2.8-1.1c-1.1,0-2,0.4-2.8,1.1c-0.8,0.8-1.2,1.7-1.2,2.9s0.4,2.2,1.2,2.9s1.7,1.1,2.8,1.1
					C161.7,142.1,162.7,141.7,163.4,141z"/>
				<path d="M178.2,132l-0.2,2.4c-0.1,0-0.4,0-0.7,0c-1.5,0-2.6,0.5-3.4,1.4c-0.8,1-1.2,2.3-1.2,3.9v4.2h-2.5v-11.9h2.5v2.5
					c1.1-1.8,2.6-2.7,4.5-2.7C177.7,132,178,132,178.2,132z"/>
				<path d="M188.6,132l-0.2,2.4c-0.1,0-0.4,0-0.7,0c-1.5,0-2.6,0.5-3.4,1.4c-0.8,1-1.2,2.3-1.2,3.9v4.2h-2.5v-11.9h2.5v2.5
					c1.1-1.8,2.6-2.7,4.5-2.7C188.1,132,188.4,132,188.6,132z"/>
				<path d="M201.1,133.6c1.2,1.2,1.8,2.7,1.8,4.5s-0.6,3.3-1.8,4.5c-1.2,1.2-2.7,1.8-4.5,1.8c-1.8,0-3.3-0.6-4.5-1.8
					c-1.2-1.2-1.9-2.7-1.9-4.5s0.6-3.3,1.9-4.5c1.2-1.2,2.8-1.7,4.5-1.7S199.9,132.4,201.1,133.6z M199.3,141
					c0.8-0.8,1.2-1.7,1.2-2.9s-0.4-2.2-1.2-2.9c-0.8-0.8-1.7-1.1-2.8-1.1c-1.1,0-2,0.4-2.8,1.1c-0.8,0.8-1.2,1.7-1.2,2.9
					s0.4,2.2,1.2,2.9s1.7,1.1,2.8,1.1C197.6,142.1,198.5,141.7,199.3,141z"/>
				<path d="M218.4,144h-2.3l-2.7-8l-2.7,8h-2.3l-4-12h2.5l2.7,8.3l2.8-8.3h2l2.8,8.3l2.7-8.3h2.5L218.4,144z"/>
				<path d="M235.9,138.6h-9.6c0.1,1.1,0.5,1.9,1.2,2.6c0.7,0.6,1.5,1,2.4,1c1.6,0,2.8-0.7,3.5-2.1l2.2,0.5
					c-0.5,1.2-1.2,2.2-2.2,2.8s-2.2,0.9-3.5,0.9c-1.7,0-3.1-0.6-4.3-1.8c-1.2-1.2-1.8-2.7-1.8-4.5c0-1.9,0.6-3.4,1.8-4.5
					c1.2-1.2,2.7-1.8,4.4-1.8c1.6,0,3,0.6,4.1,1.7c1.1,1.1,1.7,2.6,1.8,4.3V138.6z M227.6,134.7c-0.7,0.5-1.1,1.2-1.3,2.1h7
					c-0.2-0.9-0.6-1.7-1.2-2.2s-1.3-0.7-2.2-0.7C229.1,134,228.3,134.2,227.6,134.7z"/>
				<path d="M247,132l-0.2,2.4c-0.1,0-0.4,0-0.7,0c-1.5,0-2.6,0.5-3.4,1.4c-0.8,1-1.2,2.3-1.2,3.9v4.2h-2.5v-11.9h2.5v2.5
					c1.1-1.8,2.6-2.7,4.5-2.7C246.5,132,246.8,132,247,132z"/>
			</g>
		</g>
	</g>
</g>
<g>
	<g>
		<g>
			<g>
				<path d="M802.9,144h-11.4v-16.1h2.6v13.8h8.8V144z"/>
				<path d="M817.1,138.6h-9.6c0.1,1.1,0.5,1.9,1.2,2.6c0.7,0.6,1.5,1,2.4,1c1.6,0,2.8-0.7,3.5-2.1l2.2,0.5
					c-0.5,1.2-1.2,2.2-2.2,2.8s-2.2,0.9-3.5,0.9c-1.7,0-3.1-0.6-4.3-1.8c-1.2-1.2-1.8-2.7-1.8-4.5c0-1.9,0.6-3.4,1.8-4.5
					c1.2-1.2,2.7-1.8,4.4-1.8c1.6,0,3,0.6,4.1,1.7c1.1,1.1,1.7,2.6,1.8,4.3V138.6z M808.9,134.7c-0.7,0.5-1.1,1.2-1.3,2.1h7
					c-0.2-0.9-0.6-1.7-1.2-2.2c-0.6-0.5-1.3-0.7-2.2-0.7C810.3,134,809.6,134.2,808.9,134.7z"/>
				<path d="M830.4,133.2c0.9,0.9,1.3,2.1,1.3,3.6v7.2h-2.5v-6.7c0-1-0.3-1.8-0.8-2.4c-0.5-0.6-1.2-0.9-2.1-0.9
					c-1.1,0-2,0.4-2.6,1.1c-0.6,0.8-0.9,1.9-0.9,3.3v5.5h-2.5v-11.9h2.5v1.5c1-1.2,2.4-1.8,4.1-1.8
					C828.4,131.8,829.6,132.2,830.4,133.2z"/>
				<path d="M847.5,144H845v-1.3c-1.1,1.1-2.6,1.7-4.3,1.7c-1.6,0-3-0.6-4.2-1.8c-1.2-1.2-1.8-2.7-1.8-4.5s0.6-3.3,1.8-4.5
					c1.2-1.2,2.6-1.8,4.2-1.8c1.8,0,3.2,0.6,4.3,1.7v-6.7h2.5V144z M843.8,141c0.8-0.8,1.2-1.7,1.2-3c0-1.2-0.4-2.2-1.2-2.9
					c-0.8-0.8-1.7-1.1-2.7-1.1c-1.1,0-2,0.4-2.8,1.1s-1.1,1.7-1.1,3c0,1.2,0.4,2.2,1.1,3s1.7,1.1,2.8,1.1
					C842.1,142.1,843,141.8,843.8,141z"/>
				<path d="M862.9,138.6h-9.6c0.1,1.1,0.5,1.9,1.2,2.6c0.7,0.6,1.5,1,2.4,1c1.6,0,2.8-0.7,3.5-2.1l2.2,0.5
					c-0.5,1.2-1.2,2.2-2.2,2.8s-2.2,0.9-3.5,0.9c-1.7,0-3.1-0.6-4.3-1.8c-1.2-1.2-1.8-2.7-1.8-4.5c0-1.9,0.6-3.4,1.8-4.5
					c1.2-1.2,2.7-1.8,4.4-1.8c1.6,0,3,0.6,4.1,1.7c1.1,1.1,1.7,2.6,1.8,4.3V138.6z M854.7,134.7c-0.7,0.5-1.1,1.2-1.3,2.1h7
					c-0.2-0.9-0.6-1.7-1.2-2.2c-0.6-0.5-1.3-0.7-2.2-0.7C856.1,134,855.4,134.2,854.7,134.7z"/>
				<path d="M874,132l-0.2,2.4c-0.1,0-0.4,0-0.7,0c-1.5,0-2.6,0.5-3.4,1.4c-0.8,1-1.2,2.3-1.2,3.9v4.2h-2.5v-11.9h2.5v2.5
					c1.1-1.8,2.6-2.7,4.5-2.7C873.5,132,873.8,132,874,132z"/>
			</g>
		</g>
	</g>
</g>
<g>
	<path fill="#0828BE" d="M497,1693.2c14.6,3.5,31.6,5.2,45.5-3.4c10.1-6.2,17.5-13.1,17.5-40.5c0-27.4-26.4-33.3-38.5-33.3
		c-22.6,0-30.9,16.5-49,23.3c-18.1,6.8-24.5,14.4-24.5,23.3C448,1680.5,477.5,1688.6,497,1693.2z"/>
	<g>
		<g>
			<path fill="#EEEEEE" d="M472.6,1666.9v13.1h-3.3v-13.1H464v-3h14v3H472.6z"/>
			<path fill="#EEEEEE" d="M482.5,1663.1c0.4,0.4,0.6,0.8,0.6,1.3c0,0.5-0.2,1-0.6,1.3c-0.4,0.4-0.8,0.5-1.4,0.5
				c-0.6,0-1-0.2-1.4-0.5c-0.4-0.4-0.5-0.8-0.5-1.3c0-0.5,0.2-1,0.6-1.3c0.4-0.4,0.8-0.6,1.4-0.6
				C481.6,1662.6,482.1,1662.8,482.5,1663.1z M479.5,1680v-12h3.2v12H479.5z"/>
			<path fill="#EEEEEE" d="M495.7,1669.1c0.9,0.9,1.3,2.1,1.3,3.6v7.3h-3.2v-6.6c0-0.8-0.2-1.5-0.7-2c-0.4-0.5-1-0.8-1.8-0.8
				c-2,0-3,1.4-3,4.1v5.3h-3.2v-12h3.2v1.1c1-1,2.2-1.4,3.8-1.4C493.6,1667.7,494.8,1668.2,495.7,1669.1z"/>
			<path fill="#EEEEEE" d="M499.4,1680v-17.3h3.2v17.3H499.4z"/>
			<path fill="#EEEEEE" d="M517.4,1680h-3.2v-0.9c-1.1,0.9-2.4,1.3-4,1.3c-1.6,0-3-0.6-4.1-1.8c-1.2-1.2-1.8-2.7-1.8-4.5
				s0.6-3.3,1.8-4.5c1.2-1.2,2.5-1.8,4.1-1.8c1.6,0,2.9,0.4,4,1.3v-1h3.2V1680z M513.2,1676.6c0.7-0.7,1-1.5,1-2.6s-0.3-1.9-1-2.6
				s-1.5-1-2.4-1c-1,0-1.8,0.3-2.4,1c-0.6,0.7-0.9,1.5-0.9,2.6s0.3,2,0.9,2.6c0.6,0.6,1.4,1,2.4,1
				C511.7,1677.6,512.5,1677.3,513.2,1676.6z"/>
			<path fill="#EEEEEE" d="M528.3,1680l-4.7-4.7h-0.6v4.7h-3.2v-17.3h3.2v9.5h0.6l4.3-4.2h4l-5.8,5.7l6.4,6.2H528.3z"/>
			<path fill="#EEEEEE" d="M544,1674.9h-9.1c0.2,0.8,0.5,1.5,1.1,2s1.2,0.8,1.9,0.8c1.4,0,2.4-0.5,3-1.6l2.8,0.6
				c-0.5,1.2-1.3,2.1-2.3,2.8c-1,0.6-2.2,0.9-3.5,0.9c-1.7,0-3.2-0.6-4.4-1.8c-1.2-1.2-1.8-2.7-1.8-4.6s0.6-3.4,1.8-4.6
				c1.2-1.2,2.7-1.8,4.4-1.8c1.6,0,3,0.6,4.2,1.7c1.2,1.1,1.8,2.6,1.9,4.4V1674.9z M536.1,1671c-0.6,0.4-0.9,0.9-1.1,1.6h5.8
				c-0.2-0.7-0.5-1.3-1.1-1.7c-0.5-0.4-1.1-0.6-1.8-0.6C537.3,1670.5,536.7,1670.6,536.1,1671z"/>
		</g>
	</g>
</g>
<g>
	<g>
		<g>
			<g>
				<path d="M148.5,1671.8c0.8,0.1,1.5,0.5,2.1,1.2c0.6,0.7,0.9,1.5,0.9,2.6c0,1.3-0.4,2.4-1.3,3.2s-2.1,1.2-3.8,1.2h-7.8v-16.1h7.7
					c1.5,0,2.6,0.4,3.5,1.2s1.3,1.8,1.3,3.2c0,0.9-0.3,1.7-0.8,2.4C149.7,1671.2,149.2,1671.6,148.5,1671.8L148.5,1671.8z
					 M141.2,1670.9h4.8c0.8,0,1.4-0.2,1.9-0.7s0.7-1.1,0.7-1.8c0-0.7-0.2-1.2-0.7-1.6s-1.1-0.6-1.8-0.6h-4.8V1670.9z M146.2,1677.8
					c0.8,0,1.5-0.2,2-0.7c0.5-0.4,0.7-1,0.7-1.8c0-0.7-0.2-1.3-0.7-1.7c-0.5-0.4-1.1-0.7-1.9-0.7h-5.1v4.8H146.2z"/>
				<path d="M165.2,1669.6c1.2,1.2,1.8,2.7,1.8,4.5s-0.6,3.3-1.8,4.5c-1.2,1.2-2.7,1.8-4.5,1.8c-1.8,0-3.3-0.6-4.5-1.8
					c-1.2-1.2-1.9-2.7-1.9-4.5s0.6-3.3,1.9-4.5c1.2-1.2,2.8-1.7,4.5-1.7S164,1668.4,165.2,1669.6z M163.4,1677
					c0.8-0.8,1.2-1.7,1.2-2.9s-0.4-2.2-1.2-2.9c-0.8-0.8-1.7-1.1-2.8-1.1c-1.1,0-2,0.4-2.8,1.1c-0.8,0.8-1.2,1.7-1.2,2.9
					s0.4,2.2,1.2,2.9s1.7,1.1,2.8,1.1C161.7,1678.1,162.7,1677.7,163.4,1677z"/>
				<path d="M178.2,1668l-0.2,2.4c-0.1,0-0.4,0-0.7,0c-1.5,0-2.6,0.5-3.4,1.4c-0.8,1-1.2,2.3-1.2,3.9v4.2h-2.5v-11.9h2.5v2.5
					c1.1-1.8,2.6-2.7,4.5-2.7C177.7,1668,178,1668,178.2,1668z"/>
				<path d="M188.6,1668l-0.2,2.4c-0.1,0-0.4,0-0.7,0c-1.5,0-2.6,0.5-3.4,1.4c-0.8,1-1.2,2.3-1.2,3.9v4.2h-2.5v-11.9h2.5v2.5
					c1.1-1.8,2.6-2.7,4.5-2.7C188.1,1668,188.4,1668,188.6,1668z"/>
				<path d="M201.1,1669.6c1.2,1.2,1.8,2.7,1.8,4.5s-0.6,3.3-1.8,4.5c-1.2,1.2-2.7,1.8-4.5,1.8c-1.8,0-3.3-0.6-4.5-1.8
					c-1.2-1.2-1.9-2.7-1.9-4.5s0.6-3.3,1.9-4.5c1.2-1.2,2.8-1.7,4.5-1.7S199.9,1668.4,201.1,1669.6z M199.3,1677
					c0.8-0.8,1.2-1.7,1.2-2.9s-0.4-2.2-1.2-2.9c-0.8-0.8-1.7-1.1-2.8-1.1c-1.1,0-2,0.4-2.8,1.1c-0.8,0.8-1.2,1.7-1.2,2.9
					s0.4,2.2,1.2,2.9s1.7,1.1,2.8,1.1C197.6,1678.1,198.5,1677.7,199.3,1677z"/>
				<path d="M218.4,1680h-2.3l-2.7-8l-2.7,8h-2.3l-4-12h2.5l2.7,8.3l2.8-8.3h2l2.8,8.3l2.7-8.3h2.5L218.4,1680z"/>
				<path d="M235.9,1674.6h-9.6c0.1,1.1,0.5,1.9,1.2,2.6c0.7,0.6,1.5,1,2.4,1c1.6,0,2.8-0.7,3.5-2.1l2.2,0.5
					c-0.5,1.2-1.2,2.2-2.2,2.8s-2.2,0.9-3.5,0.9c-1.7,0-3.1-0.6-4.3-1.8c-1.2-1.2-1.8-2.7-1.8-4.5c0-1.9,0.6-3.4,1.8-4.5
					c1.2-1.2,2.7-1.8,4.4-1.8c1.6,0,3,0.6,4.1,1.7c1.1,1.1,1.7,2.6,1.8,4.3V1674.6z M227.6,1670.7c-0.7,0.5-1.1,1.2-1.3,2.1h7
					c-0.2-0.9-0.6-1.7-1.2-2.2s-1.3-0.7-2.2-0.7C229.1,1670,228.3,1670.2,227.6,1670.7z"/>
				<path d="M247,1668l-0.2,2.4c-0.1,0-0.4,0-0.7,0c-1.5,0-2.6,0.5-3.4,1.4c-0.8,1-1.2,2.3-1.2,3.9v4.2h-2.5v-11.9h2.5v2.5
					c1.1-1.8,2.6-2.7,4.5-2.7C246.5,1668,246.8,1668,247,1668z"/>
			</g>
		</g>
	</g>
</g>
<g>
	<g>
		<g>
			<g>
				<path d="M802.9,1680h-11.4v-16.1h2.6v13.8h8.8V1680z"/>
				<path d="M817.1,1674.6h-9.6c0.1,1.1,0.5,1.9,1.2,2.6c0.7,0.6,1.5,1,2.4,1c1.6,0,2.8-0.7,3.5-2.1l2.2,0.5
					c-0.5,1.2-1.2,2.2-2.2,2.8s-2.2,0.9-3.5,0.9c-1.7,0-3.1-0.6-4.3-1.8c-1.2-1.2-1.8-2.7-1.8-4.5c0-1.9,0.6-3.4,1.8-4.5
					c1.2-1.2,2.7-1.8,4.4-1.8c1.6,0,3,0.6,4.1,1.7c1.1,1.1,1.7,2.6,1.8,4.3V1674.6z M808.9,1670.7c-0.7,0.5-1.1,1.2-1.3,2.1h7
					c-0.2-0.9-0.6-1.7-1.2-2.2c-0.6-0.5-1.3-0.7-2.2-0.7C810.3,1670,809.6,1670.2,808.9,1670.7z"/>
				<path d="M830.4,1669.2c0.9,0.9,1.3,2.1,1.3,3.6v7.2h-2.5v-6.7c0-1-0.3-1.8-0.8-2.4c-0.5-0.6-1.2-0.9-2.1-0.9
					c-1.1,0-2,0.4-2.6,1.1c-0.6,0.8-0.9,1.9-0.9,3.3v5.5h-2.5v-11.9h2.5v1.5c1-1.2,2.4-1.8,4.1-1.8
					C828.4,1667.8,829.6,1668.2,830.4,1669.2z"/>
				<path d="M847.5,1680H845v-1.3c-1.1,1.1-2.6,1.7-4.3,1.7c-1.6,0-3-0.6-4.2-1.8c-1.2-1.2-1.8-2.7-1.8-4.5s0.6-3.3,1.8-4.5
					c1.2-1.2,2.6-1.8,4.2-1.8c1.8,0,3.2,0.6,4.3,1.7v-6.7h2.5V1680z M843.8,1677c0.8-0.8,1.2-1.7,1.2-3c0-1.2-0.4-2.2-1.2-2.9
					c-0.8-0.8-1.7-1.1-2.7-1.1c-1.1,0-2,0.4-2.8,1.1s-1.1,1.7-1.1,3c0,1.2,0.4,2.2,1.1,3s1.7,1.1,2.8,1.1
					C842.1,1678.1,843,1677.8,843.8,1677z"/>
				<path d="M862.9,1674.6h-9.6c0.1,1.1,0.5,1.9,1.2,2.6c0.7,0.6,1.5,1,2.4,1c1.6,0,2.8-0.7,3.5-2.1l2.2,0.5
					c-0.5,1.2-1.2,2.2-2.2,2.8s-2.2,0.9-3.5,0.9c-1.7,0-3.1-0.6-4.3-1.8c-1.2-1.2-1.8-2.7-1.8-4.5c0-1.9,0.6-3.4,1.8-4.5
					c1.2-1.2,2.7-1.8,4.4-1.8c1.6,0,3,0.6,4.1,1.7c1.1,1.1,1.7,2.6,1.8,4.3V1674.6z M854.7,1670.7c-0.7,0.5-1.1,1.2-1.3,2.1h7
					c-0.2-0.9-0.6-1.7-1.2-2.2c-0.6-0.5-1.3-0.7-2.2-0.7C856.1,1670,855.4,1670.2,854.7,1670.7z"/>
				<path d="M874,1668l-0.2,2.4c-0.1,0-0.4,0-0.7,0c-1.5,0-2.6,0.5-3.4,1.4c-0.8,1-1.2,2.3-1.2,3.9v4.2h-2.5v-11.9h2.5v2.5
					c1.1-1.8,2.6-2.7,4.5-2.7C873.5,1668,873.8,1668,874,1668z"/>
			</g>
		</g>
	</g>
</g>
<g>
	<path fill="#FFFFFF" d="M949.5,1321.7l-5.9,14.3h-2.8l5.9-13.8h-8.3v-2.3h11.1V1321.7z"/>
</g>
<g>
	<g>
		<g>
			<g>
				<g>
					<path d="M282.8,780.6c2.2,0,3.9,0.6,5.2,1.8c1.3,1.2,2,2.8,2,4.9c0,2.1-0.7,3.9-2.1,5.2c-1.4,1.3-3.3,2-5.6,2
						c-2.2,0-4.1-0.7-5.6-2c-1.5-1.3-2.2-3.1-2.2-5.4l3.3-0.6c0,1.6,0.4,2.8,1.3,3.7c0.9,0.8,2,1.3,3.3,1.3c1.3,0,2.4-0.4,3.2-1.1
						c0.8-0.7,1.2-1.7,1.2-2.9c0-1.1-0.4-2-1.1-2.7c-0.8-0.7-1.8-1-3-1h-6.9l0.4-11.1H289v3.1h-9.9l-0.2,4.9H282.8z"/>
				</g>
			</g>
		</g>
		<g>
			<path fill="#F9CC55" d="M249.2,768.8c8.4,0,15.2,6.8,15.2,15.2s-6.8,15.2-15.2,15.2S234,792.4,234,784S240.8,768.8,249.2,768.8
				 M249.2,768c-8.8,0-16,7.2-16,16s7.2,16,16,16s16-7.2,16-16S258,768,249.2,768L249.2,768z"/>
			<polygon fill="#F9CC55" points="237.2,784 249.2,796 249.2,788 249.2,788 			"/>
			<polygon fill="#F6BC50" points="249.2,772 237.2,784 249.2,788 249.2,788 			"/>
			<polygon fill="#FFFFFF" points="241.2,783.2 246.8,783.2 249.2,780.8 249.2,780.8 249.2,778.4 249.2,774.4 			"/>
			<polygon fill="#EBBB51" points="261.2,784 249.2,796 249.2,788 249.2,788 			"/>
			<polygon fill="#EAB24E" points="249.2,772 261.2,784 249.2,788 249.2,788 			"/>
			<polygon fill="#EFD8AE" points="257.2,783.2 251.6,783.2 249.2,780.8 249.2,780.8 249.2,778.4 249.2,774.4 			"/>
		</g>
	</g>
	<g>
		<g>
			<path d="M94.2,794v-21.4h3.4V794H94.2z"/>
			<path d="M116.8,779.6c1.2,1.2,1.8,2.9,1.8,4.8v9.6h-3.4v-8.9c0-1.3-0.3-2.3-1-3.1s-1.6-1.2-2.7-1.2c-1.5,0-2.6,0.5-3.5,1.5
				c-0.8,1-1.3,2.5-1.3,4.4v7.3h-3.3v-15.9h3.3v2c1.3-1.6,3.2-2.4,5.5-2.4C114.1,777.7,115.6,778.3,116.8,779.6z"/>
			<path d="M134.3,793.2c-1.4,0.8-2.7,1.2-3.9,1.2c-1.8,0-3.2-0.5-4.2-1.5c-1-1-1.5-2.4-1.5-4.4v-7.7h-3.4v-2.8h3.4v-4.9h3.3v4.9
				h5.4v2.8H128v7.5c0,1,0.2,1.7,0.7,2.2c0.5,0.5,1.1,0.8,1.9,0.8c0.9,0,1.8-0.3,2.7-0.9L134.3,793.2z"/>
			<path d="M152.1,786.9h-12.9c0.1,1.4,0.7,2.6,1.6,3.4c0.9,0.9,2,1.3,3.2,1.3c2.2,0,3.8-0.9,4.7-2.8l3,0.6c-0.6,1.6-1.6,2.9-3,3.7
				c-1.3,0.8-2.9,1.3-4.7,1.3c-2.2,0-4.1-0.8-5.7-2.3c-1.6-1.6-2.4-3.6-2.4-6c0-2.5,0.8-4.5,2.4-6.1c1.6-1.6,3.5-2.4,5.8-2.4
				c2.2,0,4,0.8,5.5,2.3c1.5,1.5,2.3,3.4,2.4,5.8V786.9z M141.1,781.6c-0.9,0.7-1.5,1.6-1.8,2.8h9.3c-0.3-1.3-0.8-2.2-1.6-2.9
				c-0.8-0.7-1.8-1-2.9-1C143.1,780.6,142.1,781,141.1,781.6z"/>
			<path d="M166.8,778.1l-0.2,3.2c-0.2,0-0.5,0-0.9,0c-2,0-3.5,0.6-4.5,1.9c-1,1.3-1.5,3-1.5,5.3v5.6h-3.3v-15.9h3.3v3.4
				c1.5-2.4,3.5-3.6,6-3.6C166.2,777.9,166.6,778,166.8,778.1z"/>
			<path d="M185,786.9h-12.9c0.1,1.4,0.7,2.6,1.6,3.4c0.9,0.9,2,1.3,3.2,1.3c2.2,0,3.8-0.9,4.7-2.8l3,0.6c-0.6,1.6-1.6,2.9-3,3.7
				c-1.3,0.8-2.9,1.3-4.7,1.3c-2.2,0-4.1-0.8-5.7-2.3c-1.6-1.6-2.4-3.6-2.4-6c0-2.5,0.8-4.5,2.4-6.1c1.6-1.6,3.5-2.4,5.8-2.4
				c2.2,0,4,0.8,5.5,2.3c1.5,1.5,2.3,3.4,2.4,5.8V786.9z M174,781.6c-0.9,0.7-1.5,1.6-1.8,2.8h9.3c-0.3-1.3-0.8-2.2-1.6-2.9
				c-0.8-0.7-1.8-1-2.9-1C176,780.6,174.9,781,174,781.6z"/>
			<path d="M191.3,789c0.1,0.9,0.5,1.6,1.2,2c0.7,0.4,1.6,0.7,2.7,0.7c1,0,1.7-0.2,2.3-0.6c0.6-0.4,0.8-0.9,0.8-1.5
				c0-0.9-0.7-1.6-2.1-1.9l-3.5-0.7c-2.9-0.6-4.3-2.1-4.3-4.3c0-1.5,0.6-2.7,1.7-3.6c1.1-0.9,2.7-1.4,4.6-1.4c1.8,0,3.3,0.4,4.5,1.3
				c1.2,0.8,1.9,1.9,2.2,3.3l-3.2,0.7c-0.1-0.8-0.5-1.4-1.2-1.9c-0.6-0.5-1.5-0.7-2.5-0.7c-0.9,0-1.6,0.2-2.1,0.6
				c-0.5,0.4-0.7,0.9-0.7,1.5c0,0.9,0.6,1.5,1.9,1.8l3.8,0.8c1.3,0.3,2.3,0.8,3,1.5c0.7,0.7,1.1,1.7,1.1,2.8c0,1.6-0.6,2.9-1.8,3.8
				c-1.2,0.9-2.8,1.3-4.9,1.3c-1.9,0-3.5-0.4-4.8-1.2c-1.3-0.8-2-2-2.2-3.5L191.3,789z"/>
			<path d="M217,793.2c-1.4,0.8-2.7,1.2-3.9,1.2c-1.8,0-3.2-0.5-4.2-1.5c-1-1-1.5-2.4-1.5-4.4v-7.7h-3.4v-2.8h3.4v-4.9h3.3v4.9h5.4
				v2.8h-5.4v7.5c0,1,0.2,1.7,0.7,2.2c0.5,0.5,1.1,0.8,1.9,0.8c0.9,0,1.8-0.3,2.7-0.9L217,793.2z"/>
		</g>
	</g>
</g>
<path fill="#848484" d="M192.5,396h-1v-4h1V396z M192.5,388h-1v-4h1V388z M192.5,380h-1v-4h1V380z M192.5,372h-1v-4h1V372z
	 M192.5,364h-1v-4h1V364z M192.5,356h-1v-4h1V356z M192.5,348h-1v-4h1V348z M192.5,340h-1v-4h1V340z M192.5,332h-1v-4h1V332z
	 M192.5,324h-1v-4h1V324z M192.5,316h-1v-4h1V316z M192.5,308h-1v-4h1V308z M192.5,300h-1v-4h1V300z M192.5,292h-1v-4h1V292z
	 M192.5,284h-1v-4h1V284z M192.5,276h-1v-4h1V276z M192.5,268h-1v-4h1V268z M192.5,260h-1v-4h1V260z M192.5,252h-1v-4h1V252z
	 M192.5,244h-1v-4h1V244z M192.5,236h-1v-4h1V236z M192.5,228h-1v-4h1V228z M192.5,220h-1v-4h1V220z M192.5,212h-1v-4h1V212z
	 M192.5,204h-1v-4h1V204z M192.5,196h-1v-4h1V196z M192.5,188h-1v-4h1V188z M192.5,180h-1v-4h1V180z"/>
<path fill="#848484" d="M192.5,748h-1v-4h1V748z M192.5,740h-1v-4h1V740z M192.5,732h-1v-4h1V732z M192.5,724h-1v-4h1V724z
	 M192.5,716h-1v-4h1V716z M192.5,708h-1v-4h1V708z M192.5,700h-1v-4h1V700z M192.5,692h-1v-4h1V692z M192.5,684h-1v-4h1V684z
	 M192.5,676h-1v-4h1V676z M192.5,668h-1v-4h1V668z M192.5,660h-1v-4h1V660z M192.5,652h-1v-4h1V652z M192.5,644h-1v-4h1V644z
	 M192.5,636h-1v-4h1V636z M192.5,628h-1v-4h1V628z M192.5,620h-1v-4h1V620z M192.5,612h-1v-4h1V612z M192.5,604h-1v-4h1V604z
	 M192.5,596h-1v-4h1V596z M192.5,588h-1v-4h1V588z M192.5,580h-1v-4h1V580z M192.5,572h-1v-4h1V572z M192.5,564h-1v-4h1V564z
	 M192.5,556h-1v-4h1V556z M192.5,548h-1v-4h1V548z M192.5,540h-1v-4h1V540z M192.5,532h-1v-4h1V532z"/>
<path fill="#848484" d="M192.5,1148h-1v-4h1V1148z M192.5,1140h-1v-4h1V1140z M192.5,1132h-1v-4h1V1132z M192.5,1124h-1v-4h1V1124z
	 M192.5,1116h-1v-4h1V1116z M192.5,1108h-1v-4h1V1108z M192.5,1100h-1v-4h1V1100z M192.5,1092h-1v-4h1V1092z M192.5,1084h-1v-4h1
	V1084z M192.5,1076h-1v-4h1V1076z M192.5,1068h-1v-4h1V1068z M192.5,1060h-1v-4h1V1060z M192.5,1052h-1v-4h1V1052z M192.5,1044h-1
	v-4h1V1044z M192.5,1036h-1v-4h1V1036z M192.5,1028h-1v-4h1V1028z M192.5,1020h-1v-4h1V1020z M192.5,1012h-1v-4h1V1012z M192.5,1004
	h-1v-4h1V1004z M192.5,996h-1v-4h1V996z M192.5,988h-1v-4h1V988z M192.5,980h-1v-4h1V980z M192.5,972h-1v-4h1V972z M192.5,964h-1v-4
	h1V964z M192.5,956h-1v-4h1V956z M192.5,948h-1v-4h1V948z M192.5,940h-1v-4h1V940z M192.5,932h-1v-4h1V932z M192.5,924h-1v-4h1V924z
	 M192.5,916h-1v-4h1V916z M192.5,908h-1v-4h1V908z M192.5,900h-1v-4h1V900z M192.5,892h-1v-4h1V892z M192.5,884h-1v-4h1V884z
	 M192.5,876h-1v-4h1V876z M192.5,868h-1v-4h1V868z M192.5,860h-1v-4h1V860z M192.5,852h-1v-4h1V852z M192.5,844h-1v-4h1V844z
	 M192.5,836h-1v-4h1V836z M192.5,828h-1v-4h1V828z M192.5,820h-1v-4h1V820z"/>
<path fill="#848484" d="M192.5,1628h-1v-4h1V1628z M192.5,1620h-1v-4h1V1620z M192.5,1612h-1v-4h1V1612z M192.5,1604h-1v-4h1V1604z
	 M192.5,1596h-1v-4h1V1596z M192.5,1588h-1v-4h1V1588z M192.5,1580h-1v-4h1V1580z M192.5,1572h-1v-4h1V1572z M192.5,1564h-1v-4h1
	V1564z M192.5,1556h-1v-4h1V1556z M192.5,1548h-1v-4h1V1548z M192.5,1540h-1v-4h1V1540z M192.5,1532h-1v-4h1V1532z M192.5,1524h-1
	v-4h1V1524z M192.5,1516h-1v-4h1V1516z M192.5,1508h-1v-4h1V1508z M192.5,1500h-1v-4h1V1500z M192.5,1492h-1v-4h1V1492z M192.5,1484
	h-1v-4h1V1484z M192.5,1476h-1v-4h1V1476z M192.5,1468h-1v-4h1V1468z M192.5,1460h-1v-4h1V1460z M192.5,1452h-1v-4h1V1452z
	 M192.5,1444h-1v-4h1V1444z M192.5,1436h-1v-4h1V1436z M192.5,1428h-1v-4h1V1428z M192.5,1420h-1v-4h1V1420z M192.5,1412h-1v-4h1
	V1412z M192.5,1404h-1v-4h1V1404z M192.5,1396h-1v-4h1V1396z M192.5,1388h-1v-4h1V1388z M192.5,1380h-1v-4h1V1380z M192.5,1372h-1
	v-4h1V1372z M192.5,1364h-1v-4h1V1364z M192.5,1356h-1v-4h1V1356z M192.5,1348h-1v-4h1V1348z M192.5,1340h-1v-4h1V1340z M192.5,1332
	h-1v-4h1V1332z M192.5,1324h-1v-4h1V1324z M192.5,1316h-1v-4h1V1316z M192.5,1308h-1v-4h1V1308z M192.5,1300h-1v-4h1V1300z
	 M192.5,1292h-1v-4h1V1292z M192.5,1284h-1v-4h1V1284z"/>
<path fill="#848484" d="M512.5,732h-1v-4h1V732z M512.5,724h-1v-4h1V724z M512.5,716h-1v-4h1V716z M512.5,708h-1v-4h1V708z
	 M512.5,700h-1v-4h1V700z M512.5,692h-1v-4h1V692z M512.5,684h-1v-4h1V684z M512.5,676h-1v-4h1V676z M512.5,668h-1v-4h1V668z
	 M512.5,660h-1v-4h1V660z M512.5,652h-1v-4h1V652z M512.5,644h-1v-4h1V644z M512.5,636h-1v-4h1V636z M512.5,628h-1v-4h1V628z
	 M512.5,620h-1v-4h1V620z M512.5,612h-1v-4h1V612z M512.5,604h-1v-4h1V604z M512.5,596h-1v-4h1V596z M512.5,588h-1v-4h1V588z
	 M512.5,580h-1v-4h1V580z M512.5,572h-1v-4h1V572z M512.5,564h-1v-4h1V564z M512.5,556h-1v-4h1V556z M512.5,548h-1v-4h1V548z
	 M512.5,540h-1v-4h1V540z M512.5,532h-1v-4h1V532z M512.5,524h-1v-4h1V524z M512.5,516h-1v-4h1V516z M512.5,508h-1v-4h1V508z
	 M512.5,500h-1v-4h1V500z M512.5,492h-1v-4h1V492z M512.5,484h-1v-4h1V484z M512.5,476h-1v-4h1V476z M512.5,468h-1v-4h1V468z
	 M512.5,460h-1v-4h1V460z M512.5,452h-1v-4h1V452z M512.5,444h-1v-4h1V444z M512.5,436h-1v-4h1V436z M512.5,428h-1v-4h1V428z
	 M512.5,420h-1v-4h1V420z M512.5,412h-1v-4h1V412z M512.5,404h-1v-4h1V404z M512.5,396h-1v-4h1V396z M512.5,388h-1v-4h1V388z
	 M512.5,380h-1v-4h1V380z M512.5,372h-1v-4h1V372z M512.5,364h-1v-4h1V364z M512.5,356h-1v-4h1V356z M512.5,348h-1v-4h1V348z
	 M512.5,340h-1v-4h1V340z M512.5,332h-1v-4h1V332z M512.5,324h-1v-4h1V324z M512.5,316h-1v-4h1V316z M512.5,308h-1v-4h1V308z
	 M512.5,300h-1v-4h1V300z M512.5,292h-1v-4h1V292z M512.5,284h-1v-4h1V284z M512.5,276h-1v-4h1V276z M512.5,268h-1v-4h1V268z
	 M512.5,260h-1v-4h1V260z M512.5,252h-1v-4h1V252z M512.5,244h-1v-4h1V244z M512.5,236h-1v-4h1V236z M512.5,228h-1v-4h1V228z
	 M512.5,220h-1v-4h1V220z M512.5,212h-1v-4h1V212z M512.5,204h-1v-4h1V204z M512.5,196h-1v-4h1V196z"/>
<path fill="#848484" d="M512.5,1004h-1v-4h1V1004z M512.5,996h-1v-4h1V996z M512.5,988h-1v-4h1V988z M512.5,980h-1v-4h1V980z
	 M512.5,972h-1v-4h1V972z M512.5,964h-1v-4h1V964z M512.5,956h-1v-4h1V956z M512.5,948h-1v-4h1V948z M512.5,940h-1v-4h1V940z
	 M512.5,932h-1v-4h1V932z M512.5,924h-1v-4h1V924z M512.5,916h-1v-4h1V916z M512.5,908h-1v-4h1V908z M512.5,900h-1v-4h1V900z
	 M512.5,892h-1v-4h1V892z M512.5,884h-1v-4h1V884z M512.5,876h-1v-4h1V876z M512.5,868h-1v-4h1V868z M512.5,860h-1v-4h1V860z
	 M512.5,852h-1v-4h1V852z M512.5,844h-1v-4h1V844z M512.5,836h-1v-4h1V836z"/>
<path fill="#848484" d="M512.5,1244h-1v-4h1V1244z M512.5,1236h-1v-4h1V1236z M512.5,1228h-1v-4h1V1228z M512.5,1220h-1v-4h1V1220z
	 M512.5,1212h-1v-4h1V1212z M512.5,1204h-1v-4h1V1204z M512.5,1196h-1v-4h1V1196z M512.5,1188h-1v-4h1V1188z M512.5,1180h-1v-4h1
	V1180z M512.5,1172h-1v-4h1V1172z M512.5,1164h-1v-4h1V1164z M512.5,1156h-1v-4h1V1156z M512.5,1148h-1v-4h1V1148z M512.5,1140h-1
	v-4h1V1140z M512.5,1132h-1v-4h1V1132z M512.5,1124h-1v-4h1V1124z M512.5,1116h-1v-4h1V1116z M512.5,1108h-1v-4h1V1108z M512.5,1100
	h-1v-4h1V1100z M512.5,1092h-1v-4h1V1092z M512.5,1084h-1v-4h1V1084z M512.5,1076h-1v-4h1V1076z"/>
<path fill="#848484" d="M512.5,1584h-1v-4h1V1584z M512.5,1576h-1v-4h1V1576z M512.5,1568h-1v-4h1V1568z M512.5,1560h-1v-4h1V1560z
	 M512.5,1552h-1v-4h1V1552z M512.5,1544h-1v-4h1V1544z M512.5,1536h-1v-4h1V1536z M512.5,1528h-1v-4h1V1528z M512.5,1520h-1v-4h1
	V1520z M512.5,1512h-1v-4h1V1512z M512.5,1504h-1v-4h1V1504z M512.5,1496h-1v-4h1V1496z M512.5,1488h-1v-4h1V1488z M512.5,1480h-1
	v-4h1V1480z M512.5,1472h-1v-4h1V1472z M512.5,1464h-1v-4h1V1464z M512.5,1456h-1v-4h1V1456z M512.5,1448h-1v-4h1V1448z M512.5,1440
	h-1v-4h1V1440z M512.5,1432h-1v-4h1V1432z M512.5,1424h-1v-4h1V1424z M512.5,1416h-1v-4h1V1416z M512.5,1408h-1v-4h1V1408z
	 M512.5,1400h-1v-4h1V1400z M512.5,1392h-1v-4h1V1392z M512.5,1384h-1v-4h1V1384z M512.5,1376h-1v-4h1V1376z M512.5,1368h-1v-4h1
	V1368z M512.5,1360h-1v-4h1V1360z M512.5,1352h-1v-4h1V1352z"/>
<path fill="#848484" d="M832.5,700h-1v-4h1V700z M832.5,692h-1v-4h1V692z M832.5,684h-1v-4h1V684z M832.5,676h-1v-4h1V676z
	 M832.5,668h-1v-4h1V668z M832.5,660h-1v-4h1V660z M832.5,652h-1v-4h1V652z M832.5,644h-1v-4h1V644z M832.5,636h-1v-4h1V636z
	 M832.5,628h-1v-4h1V628z M832.5,620h-1v-4h1V620z M832.5,612h-1v-4h1V612z M832.5,604h-1v-4h1V604z M832.5,596h-1v-4h1V596z
	 M832.5,588h-1v-4h1V588z M832.5,580h-1v-4h1V580z M832.5,572h-1v-4h1V572z M832.5,564h-1v-4h1V564z M832.5,556h-1v-4h1V556z
	 M832.5,548h-1v-4h1V548z M832.5,540h-1v-4h1V540z M832.5,532h-1v-4h1V532z M832.5,524h-1v-4h1V524z M832.5,516h-1v-4h1V516z
	 M832.5,508h-1v-4h1V508z M832.5,500h-1v-4h1V500z M832.5,492h-1v-4h1V492z M832.5,484h-1v-4h1V484z M832.5,476h-1v-4h1V476z
	 M832.5,468h-1v-4h1V468z M832.5,460h-1v-4h1V460z M832.5,452h-1v-4h1V452z M832.5,444h-1v-4h1V444z M832.5,436h-1v-4h1V436z
	 M832.5,428h-1v-4h1V428z M832.5,420h-1v-4h1V420z M832.5,412h-1v-4h1V412z M832.5,404h-1v-4h1V404z M832.5,396h-1v-4h1V396z
	 M832.5,388h-1v-4h1V388z M832.5,380h-1v-4h1V380z M832.5,372h-1v-4h1V372z M832.5,364h-1v-4h1V364z M832.5,356h-1v-4h1V356z
	 M832.5,348h-1v-4h1V348z M832.5,340h-1v-4h1V340z M832.5,332h-1v-4h1V332z M832.5,324h-1v-4h1V324z M832.5,316h-1v-4h1V316z
	 M832.5,308h-1v-4h1V308z M832.5,300h-1v-4h1V300z M832.5,292h-1v-4h1V292z M832.5,284h-1v-4h1V284z M832.5,276h-1v-4h1V276z
	 M832.5,268h-1v-4h1V268z M832.5,260h-1v-4h1V260z M832.5,252h-1v-4h1V252z M832.5,244h-1v-4h1V244z M832.5,236h-1v-4h1V236z
	 M832.5,228h-1v-4h1V228z M832.5,220h-1v-4h1V220z M832.5,212h-1v-4h1V212z M832.5,204h-1v-4h1V204z M832.5,196h-1v-4h1V196z
	 M832.5,188h-1v-4h1V188z M832.5,180h-1v-4h1V180z"/>
<path fill="#848484" d="M832.5,1260h-1v-4h1V1260z M832.5,1252h-1v-4h1V1252z M832.5,1244h-1v-4h1V1244z M832.5,1236h-1v-4h1V1236z
	 M832.5,1228h-1v-4h1V1228z M832.5,1220h-1v-4h1V1220z M832.5,1212h-1v-4h1V1212z M832.5,1204h-1v-4h1V1204z M832.5,1196h-1v-4h1
	V1196z M832.5,1188h-1v-4h1V1188z M832.5,1180h-1v-4h1V1180z M832.5,1172h-1v-4h1V1172z M832.5,1164h-1v-4h1V1164z M832.5,1156h-1
	v-4h1V1156z M832.5,1148h-1v-4h1V1148z M832.5,1140h-1v-4h1V1140z M832.5,1132h-1v-4h1V1132z M832.5,1124h-1v-4h1V1124z M832.5,1116
	h-1v-4h1V1116z M832.5,1108h-1v-4h1V1108z M832.5,1100h-1v-4h1V1100z M832.5,1092h-1v-4h1V1092z M832.5,1084h-1v-4h1V1084z
	 M832.5,1076h-1v-4h1V1076z M832.5,1068h-1v-4h1V1068z M832.5,1060h-1v-4h1V1060z M832.5,1052h-1v-4h1V1052z M832.5,1044h-1v-4h1
	V1044z M832.5,1036h-1v-4h1V1036z M832.5,1028h-1v-4h1V1028z M832.5,1020h-1v-4h1V1020z M832.5,1012h-1v-4h1V1012z M832.5,1004h-1
	v-4h1V1004z M832.5,996h-1v-4h1V996z"/>
<path fill="#848484" d="M832.5,1628h-1v-4h1V1628z M832.5,1620h-1v-4h1V1620z M832.5,1612h-1v-4h1V1612z M832.5,1604h-1v-4h1V1604z
	 M832.5,1596h-1v-4h1V1596z M832.5,1588h-1v-4h1V1588z M832.5,1580h-1v-4h1V1580z M832.5,1572h-1v-4h1V1572z M832.5,1564h-1v-4h1
	V1564z M832.5,1556h-1v-4h1V1556z M832.5,1548h-1v-4h1V1548z M832.5,1540h-1v-4h1V1540z M832.5,1532h-1v-4h1V1532z M832.5,1524h-1
	v-4h1V1524z M832.5,1516h-1v-4h1V1516z M832.5,1508h-1v-4h1V1508z M832.5,1500h-1v-4h1V1500z M832.5,1492h-1v-4h1V1492z M832.5,1484
	h-1v-4h1V1484z M832.5,1476h-1v-4h1V1476z M832.5,1468h-1v-4h1V1468z M832.5,1460h-1v-4h1V1460z M832.5,1452h-1v-4h1V1452z
	 M832.5,1444h-1v-4h1V1444z M832.5,1436h-1v-4h1V1436z M832.5,1428h-1v-4h1V1428z M832.5,1420h-1v-4h1V1420z M832.5,1412h-1v-4h1
	V1412z M832.5,1404h-1v-4h1V1404z M832.5,1396h-1v-4h1V1396z M832.5,1388h-1v-4h1V1388z M832.5,1380h-1v-4h1V1380z M832.5,1372h-1
	v-4h1V1372z M832.5,1364h-1v-4h1V1364z M832.5,1356h-1v-4h1V1356z M832.5,1348h-1v-4h1V1348z M832.5,1340h-1v-4h1V1340z M832.5,1332
	h-1v-4h1V1332z"/>
<path fill="#0828BE" d="M628,1073C628,1073,628,1073,628,1073h-8v-2h8c0,0,0,0,0,0c2.3,0,4.5-0.7,6.3-2l1.2,1.6
	C633.3,1072.2,630.7,1073,628,1073z M616,1073h-8v-2h8V1073z M604,1073h-8v-2h8V1073z M592,1073h-8v-2h8V1073z M580,1073h-8v-2h8
	V1073z M568,1073h-8v-2h8V1073z M556,1073h-8v-2h8V1073z M544,1073h-8v-2h8V1073z M532,1073h-8v-2h8V1073z M520,1073h-8v-2h8V1073z
	 M508,1073h-8v-2h8V1073z M496,1073h-8v-2h8V1073z M484,1073h-8v-2h8V1073z M472,1073h-8v-2h8V1073z M460,1073h-8v-2h8V1073z
	 M448,1073h-8v-2h8V1073z M436,1073h-8v-2h8V1073z M424,1073h-8v-2h8V1073z M412,1073h-8v-2h8V1073z M400,1073h-4
	c-1.5,0-2.9-0.2-4.3-0.7l0.7-1.9c1.2,0.4,2.4,0.6,3.6,0.6h4V1073z M388,1070.2c-2.3-1.8-3.9-4.3-4.6-7.2l1.9-0.5
	c0.6,2.4,2,4.5,3.9,6.1L388,1070.2z M638.6,1067.6l-1.6-1.2c1.4-1.9,2.1-4.1,2.1-6.4v-0.5h2v0.5
	C641,1062.7,640.2,1065.4,638.6,1067.6z M385,1058.8h-2v-8h2V1058.8z M641,1055.5h-2v-8h2V1055.5z M385,1046.8h-2v-8h2V1046.8z
	 M641,1043.5h-2v-8h2V1043.5z M385,1034.8h-2v-8h2V1034.8z M641,1031.5h-2v-8h2V1031.5z M385,1022.8h-2v-2.8c0-1.9,0.4-3.7,1.2-5.4
	l1.8,0.8c-0.7,1.4-1,3-1,4.6V1022.8z M639,1019.5c-0.1-2.4-1.1-4.8-2.7-6.7l1.5-1.3c1.9,2.2,3,5,3.1,7.9L639,1019.5z M388.1,1012.4
	l-1.4-1.4c2-2.1,4.7-3.5,7.6-3.9l0.3,2C392,1009.5,389.8,1010.6,388.1,1012.4z M633.5,1010.5c-1.7-1-3.6-1.5-5.5-1.5h-1.7v-2h1.7
	c2.3,0,4.5,0.6,6.5,1.8L633.5,1010.5z M622.3,1009h-8v-2h8V1009z M610.3,1009h-8v-2h8V1009z M598.3,1009h-8v-2h8V1009z M586.3,1009
	h-8v-2h8V1009z M574.3,1009h-8v-2h8V1009z M562.3,1009h-8v-2h8V1009z M550.3,1009h-8v-2h8V1009z M538.3,1009h-8v-2h8V1009z
	 M526.3,1009h-8v-2h8V1009z M514.3,1009h-8v-2h8V1009z M502.3,1009h-8v-2h8V1009z M490.3,1009h-8v-2h8V1009z M478.3,1009h-8v-2h8
	V1009z M466.3,1009h-8v-2h8V1009z M454.3,1009h-8v-2h8V1009z M442.3,1009h-8v-2h8V1009z M430.3,1009h-8v-2h8V1009z M418.3,1009h-8
	v-2h8V1009z M406.3,1009h-8v-2h8V1009z"/>
<path fill="#0828BE" d="M948,1329C948,1329,948,1329,948,1329h-8v-2h8c0,0,0,0,0,0c2.3,0,4.5-0.7,6.3-2l1.2,1.6
	C953.3,1328.2,950.7,1329,948,1329z M936,1329h-8v-2h8V1329z M924,1329h-8v-2h8V1329z M912,1329h-8v-2h8V1329z M900,1329h-8v-2h8
	V1329z M888,1329h-8v-2h8V1329z M876,1329h-8v-2h8V1329z M864,1329h-8v-2h8V1329z M852,1329h-8v-2h8V1329z M840,1329h-8v-2h8V1329z
	 M828,1329h-8v-2h8V1329z M816,1329h-8v-2h8V1329z M804,1329h-8v-2h8V1329z M792,1329h-8v-2h8V1329z M780,1329h-8v-2h8V1329z
	 M768,1329h-8v-2h8V1329z M756,1329h-8v-2h8V1329z M744,1329h-8v-2h8V1329z M732,1329h-8v-2h8V1329z M720,1329h-4
	c-1.5,0-2.9-0.2-4.3-0.7l0.7-1.9c1.2,0.4,2.4,0.6,3.6,0.6h4V1329z M708,1326.2c-2.3-1.8-3.9-4.3-4.6-7.2l1.9-0.5
	c0.6,2.4,2,4.5,3.9,6.1L708,1326.2z M958.6,1323.6l-1.6-1.2c1.4-1.9,2.1-4.1,2.1-6.4v-0.5h2v0.5
	C961,1318.7,960.2,1321.4,958.6,1323.6z M705,1314.8h-2v-8h2V1314.8z M961,1311.5h-2v-8h2V1311.5z M705,1302.8h-2v-8h2V1302.8z
	 M961,1299.5h-2v-8h2V1299.5z M705,1290.8h-2v-8h2V1290.8z M961,1287.5h-2v-8h2V1287.5z M705,1278.8h-2v-2.8c0-1.9,0.4-3.7,1.2-5.4
	l1.8,0.8c-0.7,1.4-1,3-1,4.6V1278.8z M959,1275.5c-0.1-2.4-1.1-4.8-2.7-6.7l1.5-1.3c1.9,2.2,3,5,3.1,7.9L959,1275.5z M708.1,1268.4
	l-1.4-1.4c2-2.1,4.7-3.5,7.6-3.9l0.3,2C712,1265.5,709.8,1266.6,708.1,1268.4z M953.5,1266.5c-1.7-1-3.6-1.5-5.5-1.5h-1.7v-2h1.7
	c2.3,0,4.5,0.6,6.5,1.8L953.5,1266.5z M942.3,1265h-8v-2h8V1265z M930.3,1265h-8v-2h8V1265z M918.3,1265h-8v-2h8V1265z M906.3,1265
	h-8v-2h8V1265z M894.3,1265h-8v-2h8V1265z M882.3,1265h-8v-2h8V1265z M870.3,1265h-8v-2h8V1265z M858.3,1265h-8v-2h8V1265z
	 M846.3,1265h-8v-2h8V1265z M834.3,1265h-8v-2h8V1265z M822.3,1265h-8v-2h8V1265z M810.3,1265h-8v-2h8V1265z M798.3,1265h-8v-2h8
	V1265z M786.3,1265h-8v-2h8V1265z M774.3,1265h-8v-2h8V1265z M762.3,1265h-8v-2h8V1265z M750.3,1265h-8v-2h8V1265z M738.3,1265h-8
	v-2h8V1265z M726.3,1265h-8v-2h8V1265z"/>
<path fill="#0828BE" d="M308,817C308,817,308,817,308,817h-8v-2h8c0,0,0,0,0,0c2.3,0,4.5-0.7,6.3-2l1.2,1.6
	C313.3,816.2,310.7,817,308,817z M296,817h-8v-2h8V817z M284,817h-8v-2h8V817z M272,817h-8v-2h8V817z M260,817h-8v-2h8V817z
	 M248,817h-8v-2h8V817z M236,817h-8v-2h8V817z M224,817h-8v-2h8V817z M212,817h-8v-2h8V817z M200,817h-8v-2h8V817z M188,817h-8v-2h8
	V817z M176,817h-8v-2h8V817z M164,817h-8v-2h8V817z M152,817h-8v-2h8V817z M140,817h-8v-2h8V817z M128,817h-8v-2h8V817z M116,817h-8
	v-2h8V817z M104,817h-8v-2h8V817z M92,817h-8v-2h8V817z M80,817h-4c-1.5,0-2.9-0.2-4.3-0.7l0.7-1.9c1.2,0.4,2.4,0.6,3.6,0.6h4V817z
	 M68,814.2c-2.3-1.8-3.9-4.3-4.6-7.2l1.9-0.5c0.6,2.4,2,4.5,3.9,6.1L68,814.2z M318.6,811.6l-1.6-1.2c1.4-1.9,2.1-4.1,2.1-6.4v-0.5
	h2v0.5C321,806.7,320.2,809.4,318.6,811.6z M65,802.8h-2v-8h2V802.8z M321,799.5h-2v-8h2V799.5z M65,790.8h-2v-8h2V790.8z
	 M321,787.5h-2v-8h2V787.5z M65,778.8h-2v-8h2V778.8z M321,775.5h-2v-8h2V775.5z M65,766.8h-2V764c0-1.9,0.4-3.7,1.2-5.4l1.8,0.8
	c-0.7,1.4-1,3-1,4.6V766.8z M319,763.5c-0.1-2.4-1.1-4.8-2.7-6.7l1.5-1.3c1.9,2.2,3,5,3.1,7.9L319,763.5z M68.1,756.4l-1.4-1.4
	c2-2.1,4.7-3.5,7.6-3.9l0.3,2C72,753.5,69.8,754.6,68.1,756.4z M313.5,754.5c-1.7-1-3.6-1.5-5.5-1.5h-1.7v-2h1.7
	c2.3,0,4.5,0.6,6.5,1.8L313.5,754.5z M302.3,753h-8v-2h8V753z M290.3,753h-8v-2h8V753z M278.3,753h-8v-2h8V753z M266.3,753h-8v-2h8
	V753z M254.3,753h-8v-2h8V753z M242.3,753h-8v-2h8V753z M230.3,753h-8v-2h8V753z M218.3,753h-8v-2h8V753z M206.3,753h-8v-2h8V753z
	 M194.3,753h-8v-2h8V753z M182.3,753h-8v-2h8V753z M170.3,753h-8v-2h8V753z M158.3,753h-8v-2h8V753z M146.3,753h-8v-2h8V753z
	 M134.3,753h-8v-2h8V753z M122.3,753h-8v-2h8V753z M110.3,753h-8v-2h8V753z M98.3,753h-8v-2h8V753z M86.3,753h-8v-2h8V753z"/>
</svg>
