<?xml version="1.0" encoding="utf-8"?>
<!-- Generator: Adobe Illustrator 18.0.0, SVG Export Plug-In . SVG Version: 6.00 Build 0)  -->
<!DOCTYPE svg PUBLIC "-//W3C//DTD SVG 1.1//EN" "http://www.w3.org/Graphics/SVG/1.1/DTD/svg11.dtd">
<svg version="1.1" id="Слой_1" xmlns="http://www.w3.org/2000/svg" xmlns:xlink="http://www.w3.org/1999/xlink" x="0px" y="0px"
	 viewBox="0 0 215.6 1052.6" enable-background="new 0 0 215.6 1052.6" xml:space="preserve">
<g>
	<g>
		<path fill="#FFFFFF" d="M45.1,353.8c-6.9-17-7.4-36.6,0-54.9c7.4-18.3,6.9-37.9,0-54.9h71.6c6.9,17,7.4,36.6,0,54.9
			c-7.4,18.3-6.9,37.9,0,54.9H45.1z"/>
		<path fill="#2762FF" d="M118.2,354.8H44.5l-0.3-0.6c-7.3-17.9-7.3-37.7,0-55.6c7.1-17.5,7.1-36.7,0-54.1l-0.6-1.4h73.8l0.3,0.6
			c7.3,17.9,7.3,37.7,0,55.6c-7.1,17.5-7.1,36.7,0,54.1L118.2,354.8z M45.8,352.8h69.5c-6.7-17.6-6.5-36.8,0.5-54.3
			c7-17.2,7.1-36.2,0.2-53.5H46.6c6.7,17.6,6.5,36.8-0.5,54.3C39.1,316.5,39,335.5,45.8,352.8z"/>
	</g>
	<g>
		<path fill="#FFFFFF" d="M62.9,345.8c-6.9-17-7.4-36.6,0-54.9c7.4-18.3,6.9-37.9,0-54.9h71.6c6.9,17,7.4,36.6,0,54.9
			c-7.4,18.3-6.9,37.9,0,54.9H62.9z"/>
		<path fill="#2762FF" d="M136,346.8H62.2l-0.3-0.6c-7.3-17.9-7.3-37.7,0-55.6c7.1-17.5,7.1-36.7,0-54.1l-0.6-1.4h73.8l0.3,0.6
			c7.3,17.9,7.3,37.7,0,55.6c-7.1,17.5-7.1,36.7,0,54.1L136,346.8z M63.5,344.8H133c-6.7-17.6-6.5-36.8,0.5-54.3
			c7-17.2,7.1-36.2,0.2-53.5H64.3c6.7,17.6,6.5,36.8-0.5,54.3C56.8,308.5,56.7,327.5,63.5,344.8z"/>
	</g>
	<g>
		<path fill="#FFFFFF" d="M80.8,337.8c-6.9-17-7.4-36.6,0-54.9c7.4-18.3,6.9-37.9,0-54.9h71.6c6.9,17,7.4,36.6,0,54.9
			c-7.4,18.3-6.9,37.9,0,54.9H80.8z"/>
		<path fill="#2762FF" d="M153.9,338.8H80.2l-0.3-0.6c-7.3-17.9-7.3-37.7,0-55.6c7.1-17.5,7.1-36.7,0-54.1l-0.6-1.4h73.8l0.3,0.6
			c7.3,17.9,7.3,37.7,0,55.6c-7.1,17.5-7.1,36.7,0,54.1L153.9,338.8z M81.5,336.8H151c-6.7-17.6-6.5-36.8,0.5-54.3
			c7-17.2,7.1-36.2,0.2-53.5H82.3c6.7,17.6,6.5,36.8-0.5,54.3C74.8,300.5,74.7,319.5,81.5,336.8z"/>
	</g>
	<g>
		<path fill="#FFFFFF" d="M98.8,329.8c-6.9-17-7.4-36.6,0-54.9c7.4-18.3,6.9-37.9,0-54.9h71.6c6.9,17,7.4,36.6,0,54.9
			c-7.4,18.3-6.9,37.9,0,54.9H98.8z"/>
		<path fill="#2762FF" d="M171.9,330.8H98.1l-0.3-0.6c-7.3-17.9-7.3-37.7,0-55.6c7.1-17.5,7.1-36.7,0-54.1l-0.6-1.4h73.8l0.3,0.6
			c7.3,17.9,7.3,37.7,0,55.6c-7.1,17.5-7.1,36.7,0,54.1L171.9,330.8z M99.5,328.8H169c-6.7-17.6-6.5-36.8,0.5-54.3
			c7-17.2,7.1-36.2,0.2-53.5h-69.5c6.7,17.6,6.5,36.8-0.5,54.3C92.8,292.5,92.7,311.5,99.5,328.8z"/>
	</g>
	<g>
		<path d="M7.7,527c-2-4.2-3-8.9-3-13.8c0-18,14.6-32.6,32.6-32.6c10,0,19,4.5,25,11.6l3.6-3c-6.8-8.1-17.1-13.3-28.5-13.3
			C16.7,476,0,492.7,0,513.2c0,5.6,1.2,11,3.5,15.7L7.7,527z"/>
		<path d="M37.2,535.3c-12.2,0-22.1-9.9-22.1-22.1c0-12.2,9.9-22.1,22.1-22.1c6.8,0,12.9,3.1,16.9,7.9l3.6-3
			c-4.9-5.8-12.3-9.6-20.5-9.6c-14.8,0-26.8,12-26.8,26.8c0,14.8,12,26.8,26.8,26.8V535.3z"/>
		<path d="M45.3,520c-1.9,2.3-4.8,3.7-8,3.7c-5.8,0-10.5-4.7-10.5-10.5c0-5.8,4.7-10.5,10.5-10.5c3.2,0,6.1,1.5,8,3.7l4-3.4
			c-2.9-3.4-7.2-5.6-12-5.6c-8.7,0-15.7,7-15.7,15.7c0,8.7,7,15.7,15.7,15.7c4.4,0,8.4-1.8,11.3-4.8L45.3,520z"/>
		<path d="M73.6,508.1h4.8v3.2h0.1c0.4-1,1.2-1.9,2.3-2.7c1.1-0.8,2.4-1.2,3.9-1.2c1.3,0,2.4,0.2,3.4,0.7c0.9,0.5,1.7,1.1,2.3,1.8
			c0.6,0.8,1,1.6,1.3,2.6c0.3,1,0.4,2,0.4,3v12.6h-5v-11.2c0-0.6,0-1.2-0.1-1.8c-0.1-0.6-0.3-1.2-0.5-1.7c-0.3-0.5-0.7-0.9-1.2-1.3
			c-0.5-0.3-1.1-0.5-2-0.5c-0.8,0-1.5,0.2-2.1,0.5c-0.6,0.3-1.1,0.7-1.4,1.2c-0.4,0.5-0.7,1.1-0.9,1.7c-0.2,0.7-0.3,1.3-0.3,2v11.1
			h-5V508.1z"/>
		<path d="M94.3,512.2v-4h3.5v-5.8h5v5.8h5v4h-5v9.4c0,0.9,0.2,1.6,0.5,2.2c0.3,0.6,1,0.9,2.2,0.9c0.3,0,0.7,0,1.1-0.1
			c0.4-0.1,0.7-0.2,1-0.3l0.2,3.9c-0.4,0.2-1,0.3-1.6,0.4c-0.6,0.1-1.2,0.1-1.8,0.1c-1.3,0-2.4-0.2-3.3-0.6c-0.8-0.4-1.5-0.9-2-1.6
			c-0.5-0.7-0.8-1.4-1-2.3c-0.2-0.9-0.3-1.8-0.3-2.7v-9.4H94.3z"/>
		<path d="M110.8,508.1h4.8v3.4h0.1c0.6-1.2,1.3-2.1,2.4-2.9c1-0.7,2.2-1.1,3.5-1.1c0.2,0,0.4,0,0.6,0c0.2,0,0.4,0,0.6,0.1v4.6
			c-0.3-0.1-0.6-0.1-0.9-0.2c-0.2,0-0.5,0-0.7,0c-1.1,0-2.1,0.2-2.8,0.6c-0.7,0.4-1.2,0.9-1.6,1.5c-0.4,0.6-0.7,1.2-0.8,1.8
			c-0.1,0.6-0.2,1.1-0.2,1.5v10.8h-5V508.1z"/>
		<path d="M124.4,501.3c0-0.8,0.3-1.5,0.9-2.1c0.6-0.6,1.4-0.9,2.3-0.9c0.9,0,1.7,0.3,2.3,0.9c0.6,0.6,0.9,1.3,0.9,2.2
			c0,0.9-0.3,1.6-0.9,2.2c-0.6,0.6-1.4,0.9-2.3,0.9c-0.9,0-1.7-0.3-2.3-0.9C124.7,502.8,124.4,502.1,124.4,501.3z M125.1,508.1h5
			v20.2h-5V508.1z"/>
		<path d="M136.7,512.2h-3.8v-4h3.8v-1.5c0-1.2,0.1-2.4,0.4-3.5c0.3-1.1,0.7-2.1,1.3-2.9c0.6-0.8,1.5-1.5,2.5-2
			c1-0.5,2.3-0.7,3.9-0.7c0.6,0,1,0,1.4,0.1c0.4,0,0.8,0.1,1.2,0.2l-0.3,4.3c-0.3-0.1-0.6-0.2-0.9-0.2c-0.3-0.1-0.7-0.1-1-0.1
			c-0.7,0-1.3,0.1-1.8,0.4c-0.4,0.3-0.8,0.6-1,1.1c-0.2,0.4-0.4,0.9-0.5,1.5c-0.1,0.5-0.1,1-0.1,1.6v1.8h4.7v4h-4.7v16.1h-5V512.2z"
			/>
		<path d="M167.4,528.3h-4.8v-3.2h-0.1c-0.4,1-1.2,1.9-2.3,2.7c-1.1,0.8-2.4,1.2-3.9,1.2c-1.3,0-2.4-0.2-3.4-0.7
			c-0.9-0.5-1.7-1.1-2.3-1.8c-0.6-0.8-1-1.6-1.3-2.6c-0.3-1-0.4-2-0.4-3v-12.6h5v11.2c0,0.6,0,1.2,0.1,1.8c0.1,0.6,0.3,1.2,0.5,1.7
			c0.3,0.5,0.7,0.9,1.2,1.3c0.5,0.3,1.1,0.5,2,0.5c0.8,0,1.5-0.2,2.1-0.5c0.6-0.3,1.1-0.7,1.5-1.2c0.4-0.5,0.7-1.1,0.9-1.7
			c0.2-0.7,0.3-1.3,0.3-2v-11.1h5V528.3z"/>
		<path d="M66.1,522.2c-0.6,0.8-1.3,1.4-2.1,1.9c-0.9,0.5-1.9,0.7-3.2,0.7c-0.7,0-1.4-0.1-2.1-0.4c-0.7-0.3-1.3-0.6-1.8-1
			c-0.5-0.4-1-1-1.3-1.6c-0.3-0.6-0.5-1.3-0.6-2h15.3c0-0.2,0-0.4,0-0.7c0-0.2,0-0.4,0-0.7c0-1.8-0.2-3.4-0.7-4.8
			c-0.5-1.4-1.2-2.5-2-3.4c-0.9-0.9-1.9-1.6-3.1-2.1c-1.2-0.5-2.5-0.7-3.9-0.7c-1.5,0-2.9,0.3-4.2,0.8c-1.3,0.5-2.4,1.2-3.4,2.2
			c-1,0.9-1.7,2.1-2.2,3.4c-0.5,1.3-0.8,2.8-0.8,4.4c0,1.7,0.3,3.1,0.8,4.4c0.5,1.3,1.3,2.4,2.3,3.3c1,0.9,2.1,1.6,3.4,2.1
			c1.3,0.5,2.8,0.7,4.3,0.7c3.4,0,6-1.1,8-3.2L66.1,522.2z M56.8,512.7c1-0.9,2.3-1.4,3.8-1.4c0.8,0,1.5,0.1,2.1,0.4
			c0.6,0.3,1.1,0.6,1.5,1.1c0.4,0.4,0.7,1,0.9,1.6c0.2,0.6,0.3,1.2,0.3,1.8H55C55.1,514.8,55.7,513.6,56.8,512.7z"/>
		<path d="M211.3,522.2c-0.6,0.8-1.3,1.4-2.1,1.9c-0.9,0.5-1.9,0.7-3.2,0.7c-0.7,0-1.4-0.1-2.1-0.4c-0.7-0.3-1.3-0.6-1.8-1
			c-0.5-0.4-1-1-1.3-1.6c-0.3-0.6-0.5-1.3-0.6-2h15.3c0-0.2,0-0.4,0-0.7c0-0.2,0-0.4,0-0.7c0-1.8-0.2-3.4-0.7-4.8
			c-0.5-1.4-1.2-2.5-2-3.4c-0.9-0.9-1.9-1.6-3.1-2.1c-1.2-0.5-2.5-0.7-3.9-0.7c-1.5,0-2.9,0.3-4.2,0.8c-1.3,0.5-2.4,1.2-3.4,2.2
			c-1,0.9-1.7,2.1-2.2,3.4c-0.5,1.3-0.8,2.8-0.8,4.4c0,1.7,0.3,3.1,0.8,4.4c0.5,1.3,1.3,2.4,2.3,3.3c1,0.9,2.1,1.6,3.4,2.1
			c1.3,0.5,2.8,0.7,4.3,0.7c3.4,0,6-1.1,8-3.2L211.3,522.2z M202,512.7c1-0.9,2.3-1.4,3.8-1.4c0.8,0,1.5,0.1,2.1,0.4
			c0.6,0.3,1.1,0.6,1.5,1.1c0.4,0.4,0.7,1,0.9,1.6c0.2,0.6,0.3,1.2,0.3,1.8h-10.3C200.3,514.8,200.9,513.6,202,512.7z"/>
		<path d="M187.3,508.1v3h-0.1c-0.7-1.2-1.7-2.1-2.9-2.7c-1.2-0.6-2.6-0.9-4-0.9c-1.5,0-2.9,0.3-4.1,0.8c-1.2,0.6-2.3,1.3-3.1,2.3
			c-0.9,1-1.5,2.1-2,3.4c-0.5,1.3-0.7,2.7-0.7,4.1c0,1.4,0.2,2.8,0.7,4.1c0.5,1.3,1.1,2.4,2,3.3c0.9,1,1.9,1.7,3.1,2.3
			c1.2,0.6,2.6,0.8,4.1,0.8c1.4,0,2.7-0.3,3.8-0.8c1.1-0.5,2.1-1.3,2.8-2.3h0.1v1.5c0,1-0.1,1.9-0.3,2.8c-0.2,0.8-0.6,1.6-1,2.2
			c-0.5,0.6-1.1,1.1-2,1.5c-0.8,0.4-1.8,0.5-3,0.5c-1.3,0-2.5-0.2-3.7-0.7c-1.2-0.5-2.3-1.2-3.2-2l-3,3.8c0.6,0.5,1.4,1,2.2,1.4
			c0.8,0.4,1.7,0.8,2.5,1c0.9,0.3,1.8,0.5,2.7,0.6c0.9,0.1,1.8,0.2,2.6,0.2c2,0,3.7-0.3,5.1-0.8c1.4-0.6,2.6-1.4,3.5-2.4
			c0.9-1,1.6-2.3,2.1-3.7c0.4-1.5,0.7-3.1,0.7-4.9v-18.3H187.3z M186.9,520.5c-0.3,0.8-0.7,1.4-1.2,2c-0.5,0.6-1.1,1.1-1.9,1.4
			c-0.7,0.3-1.6,0.5-2.5,0.5c-0.9,0-1.7-0.2-2.4-0.5c-0.7-0.4-1.3-0.8-1.8-1.4c-0.5-0.6-0.9-1.3-1.1-2c-0.3-0.8-0.4-1.5-0.4-2.3
			c0-0.9,0.1-1.7,0.4-2.5c0.3-0.8,0.6-1.5,1.1-2c0.5-0.6,1.1-1,1.8-1.4c0.7-0.3,1.5-0.5,2.5-0.5c0.9,0,1.7,0.2,2.5,0.5
			c0.7,0.3,1.3,0.8,1.9,1.4c0.5,0.6,0.9,1.3,1.2,2c0.3,0.8,0.4,1.6,0.4,2.5C187.3,518.9,187.2,519.7,186.9,520.5z"/>
	</g>
	<g>
		<g>
			<g>
				<rect x="80" y="1051.5" fill="#FCBA59" width="32" height="1"/>
				<rect x="80" y="1043.5" fill="#FCBA59" width="32" height="1"/>
				<rect x="80" y="1035.5" fill="#FCBA59" width="32" height="1"/>
				<rect x="80" y="1027.5" fill="#FCBA59" width="32" height="1"/>
				<rect x="80" y="1019.5" fill="#FCBA59" width="32" height="1"/>
				<rect x="80" y="1011.5" fill="#FCBA59" width="32" height="1"/>
				<rect x="80" y="1003.5" fill="#FCBA59" width="32" height="1"/>
				<rect x="80" y="1047.5" fill="#FCBA59" width="32" height="1"/>
				<rect x="80" y="1039.5" fill="#FCBA59" width="32" height="1"/>
				<rect x="80" y="1031.5" fill="#FCBA59" width="32" height="1"/>
				<rect x="80" y="1023.5" fill="#FCBA59" width="32" height="1"/>
				<rect x="80" y="1015.5" fill="#FCBA59" width="32" height="1"/>
				<rect x="80" y="1007.5" fill="#FCBA59" width="32" height="1"/>
				<rect x="80" y="999.5" fill="#FCBA59" width="32" height="1"/>
				<rect x="80" y="995.5" fill="#FCBA59" width="32" height="1"/>
				<rect x="80" y="987.5" fill="#FCBA59" width="32" height="1"/>
				<rect x="80" y="979.5" fill="#FCBA59" width="32" height="1"/>
				<rect x="80" y="971.5" fill="#FCBA59" width="32" height="1"/>
				<rect x="80" y="963.5" fill="#FCBA59" width="32" height="1"/>
				<rect x="80" y="955.5" fill="#FCBA59" width="32" height="1"/>
				<rect x="80" y="991.5" fill="#FCBA59" width="32" height="1"/>
				<rect x="80" y="983.5" fill="#FCBA59" width="32" height="1"/>
				<rect x="80" y="975.5" fill="#FCBA59" width="32" height="1"/>
				<rect x="80" y="967.5" fill="#FCBA59" width="32" height="1"/>
				<rect x="80" y="959.5" fill="#FCBA59" width="32" height="1"/>
				<rect x="80" y="951.5" fill="#FCBA59" width="64" height="1"/>
				<rect x="80" y="943.5" fill="#FCBA59" width="64" height="1"/>
				<rect x="80" y="935.5" fill="#FCBA59" width="64" height="1"/>
				<rect x="80" y="927.5" fill="#FCBA59" width="64" height="1"/>
				<rect x="80" y="947.5" fill="#FCBA59" width="64" height="1"/>
				<rect x="80" y="939.5" fill="#FCBA59" width="64" height="1"/>
				<rect x="80" y="931.5" fill="#FCBA59" width="64" height="1"/>
				<rect x="80" y="923.5" fill="#FCBA59" width="64" height="1"/>
			</g>
			<path fill="#333333" d="M176.5,1052.5h-65v-97h65V1052.5z M112.5,1051.5h63v-95h-63V1051.5z"/>
			<rect x="119.5" y="964" fill="#333333" width="1" height="88"/>
			<rect x="127.5" y="964" fill="#333333" width="1" height="88"/>
			<rect x="135.5" y="964" fill="#333333" width="1" height="88"/>
			<rect x="143.5" y="964" fill="#333333" width="1" height="88"/>
			<rect x="151.5" y="964" fill="#333333" width="1" height="88"/>
			<rect x="159.5" y="964" fill="#333333" width="1" height="88"/>
			<rect x="167.5" y="964" fill="#333333" width="1" height="88"/>
			<path fill="#FCBA59" d="M70.8,1052.5c-4.7,0-8.4-1.3-11-3.8c-9.2-9.2-1.4-33.5,19.8-62l0.8,0.6c-20.9,28.1-28.7,51.9-19.9,60.7
				c2.4,2.4,6,3.6,10.3,3.6c17.8,0,49.6-19,79.5-48.8c37.2-37.2,57.5-77.5,45.3-89.8c-7.7-7.7-27.3-2.6-51.3,13.3l-0.6-0.8
				c24.8-16.4,44.4-21.3,52.5-13.2c6.2,6.2,4.9,19.2-3.8,36.5c-8.6,17.1-23.3,36.6-41.5,54.8s-37.6,32.9-54.8,41.5
				C86.1,1049.9,77.4,1052.5,70.8,1052.5z"/>
			<g>
				<circle fill="#FCBA59" cx="166" cy="914.5" r="16"/>
				<g>
					<path fill="#FFFFFF" d="M166,927.7l-6.6-13.1l6.6-13.1l6.6,13.1L166,927.7z M160.6,914.5l5.4,10.9l5.4-10.9l-5.4-10.9
						L160.6,914.5z"/>
					<polygon fill="#FFFFFF" points="166,918.1 159.8,915 160.2,914.1 166,917 171.8,914.1 172.2,915 					"/>
				</g>
				<rect x="165.5" y="902.5" fill="#FFFFFF" width="1" height="24"/>
			</g>
			<g>
				<circle fill="#FCBA59" cx="170" cy="982.3" r="16"/>
				<g>
					<rect x="166.8" y="987.6" fill="#FFFFFF" width="1" height="2.7"/>
					<rect x="172.2" y="987.6" fill="#FFFFFF" width="1" height="2.7"/>
					<rect x="166.8" y="974.3" fill="#FFFFFF" width="1" height="2.7"/>
					<rect x="172.2" y="974.3" fill="#FFFFFF" width="1" height="2.7"/>
					<path fill="#FFFFFF" d="M175.3,988.1h-13.8v-11.7h13.8c1.7,0,3.2,1.4,3.2,3.2c0,1.1-0.6,2.1-1.5,2.7c0.9,0.6,1.5,1.5,1.5,2.7
						C178.5,986.7,177.1,988.1,175.3,988.1z M162.5,987.1h12.8c1.2,0,2.2-1,2.2-2.2s-1-2.2-2.2-2.2h-12.8V987.1z M162.5,981.8h12.8
						c1.2,0,2.2-1,2.2-2.2c0-1.2-1-2.2-2.2-2.2h-12.8V981.8z"/>
				</g>
			</g>
			<g>
				<circle fill="#FCBA59" cx="60.1" cy="1022" r="16"/>
				<g>
					<path fill="#FFFFFF" d="M58.4,1030.5h-3.2v-17h3.2c4.7,0,8.5,3.8,8.5,8.5S63.1,1030.5,58.4,1030.5z M56.2,1029.5h2.2
						c4.1,0,7.5-3.4,7.5-7.5s-3.4-7.5-7.5-7.5h-2.2V1029.5z"/>
					<rect x="53.1" y="1020.2" fill="#FFFFFF" width="16" height="1"/>
					<rect x="53.1" y="1022.8" fill="#FFFFFF" width="16" height="1"/>
				</g>
			</g>
		</g>
		<g>
			<polygon fill="#FFFFFF" points="16,1052 16,1007 70,980 124,1007 124,1052 			"/>
			<g>
				<path fill="#2762FF" d="M126.4,1007.6H13.6L70,979.4L126.4,1007.6z M18.4,1006.4h103.2L70,980.6L18.4,1006.4z"/>
				<linearGradient id="SVGID_1_" gradientUnits="userSpaceOnUse" x1="19.3777" y1="1024.9998" x2="26.1277" y2="1024.9998">
					<stop  offset="0" style="stop-color:#2762FF"/>
					<stop  offset="1" style="stop-color:#2762FF;stop-opacity:0"/>
				</linearGradient>
				<rect x="19.4" y="1007" fill="url(#SVGID_1_)" width="6.8" height="36"/>
				<linearGradient id="SVGID_2_" gradientUnits="userSpaceOnUse" x1="32.8777" y1="1024.9998" x2="39.6277" y2="1024.9998">
					<stop  offset="0" style="stop-color:#2762FF"/>
					<stop  offset="1" style="stop-color:#2762FF;stop-opacity:0"/>
				</linearGradient>
				<rect x="32.9" y="1007" fill="url(#SVGID_2_)" width="6.8" height="36"/>
				<linearGradient id="SVGID_3_" gradientUnits="userSpaceOnUse" x1="46.3777" y1="1024.9998" x2="53.1277" y2="1024.9998">
					<stop  offset="0" style="stop-color:#2762FF"/>
					<stop  offset="1" style="stop-color:#2762FF;stop-opacity:0"/>
				</linearGradient>
				<rect x="46.4" y="1007" fill="url(#SVGID_3_)" width="6.8" height="36"/>
				<linearGradient id="SVGID_4_" gradientUnits="userSpaceOnUse" x1="59.8777" y1="1024.9998" x2="66.6277" y2="1024.9998">
					<stop  offset="0" style="stop-color:#2762FF"/>
					<stop  offset="1" style="stop-color:#2762FF;stop-opacity:0"/>
				</linearGradient>
				<rect x="59.9" y="1007" fill="url(#SVGID_4_)" width="6.8" height="36"/>
				<linearGradient id="SVGID_5_" gradientUnits="userSpaceOnUse" x1="73.3777" y1="1024.9998" x2="80.1277" y2="1024.9998">
					<stop  offset="0" style="stop-color:#2762FF"/>
					<stop  offset="1" style="stop-color:#2762FF;stop-opacity:0"/>
				</linearGradient>
				<rect x="73.4" y="1007" fill="url(#SVGID_5_)" width="6.8" height="36"/>
				<linearGradient id="SVGID_6_" gradientUnits="userSpaceOnUse" x1="86.8777" y1="1024.9998" x2="93.6277" y2="1024.9998">
					<stop  offset="0" style="stop-color:#2762FF"/>
					<stop  offset="1" style="stop-color:#2762FF;stop-opacity:0"/>
				</linearGradient>
				<rect x="86.9" y="1007" fill="url(#SVGID_6_)" width="6.8" height="36"/>
				<linearGradient id="SVGID_7_" gradientUnits="userSpaceOnUse" x1="100.3777" y1="1024.9998" x2="107.1277" y2="1024.9998">
					<stop  offset="0" style="stop-color:#2762FF"/>
					<stop  offset="1" style="stop-color:#2762FF;stop-opacity:0"/>
				</linearGradient>
				<rect x="100.4" y="1007" fill="url(#SVGID_7_)" width="6.8" height="36"/>
				<linearGradient id="SVGID_8_" gradientUnits="userSpaceOnUse" x1="113.8777" y1="1024.9998" x2="120.6277" y2="1024.9998">
					<stop  offset="0" style="stop-color:#2762FF"/>
					<stop  offset="1" style="stop-color:#2762FF;stop-opacity:0"/>
				</linearGradient>
				<rect x="113.9" y="1007" fill="url(#SVGID_8_)" width="6.8" height="36"/>
				<g>
					<line fill="#FFFFFF" x1="16" y1="1045.2" x2="124" y2="1045.2"/>
					<rect x="16" y="1044.7" fill="#2762FF" width="108" height="1.1"/>
				</g>
				<g>
					<line fill="#FFFFFF" x1="16" y1="1043" x2="124" y2="1043"/>
					<rect x="16" y="1042.4" fill="#2762FF" width="108" height="1.1"/>
				</g>
				<g>
					<line fill="#FFFFFF" x1="16" y1="1047.5" x2="124" y2="1047.5"/>
					<rect x="16" y="1046.9" fill="#2762FF" width="108" height="1.1"/>
				</g>
				<g>
					<line fill="#FFFFFF" x1="16" y1="1049.7" x2="124" y2="1049.7"/>
					<rect x="16" y="1049.2" fill="#2762FF" width="108" height="1.1"/>
				</g>
				<g>
					<line fill="#FFFFFF" x1="16" y1="1052" x2="124" y2="1052"/>
					<rect x="16" y="1051.4" fill="#2762FF" width="108" height="1.1"/>
				</g>
				<g>
					<path fill="#2762FF" d="M70,1001.7c-1.8,0-3.3-1.5-3.3-3.3h1.1c0,1.2,1,2.1,2.1,2.1s2.1-1,2.1-2.1c0-1.2-1-2.1-2.1-2.1
						c-1.8,0-3.3-1.5-3.3-3.3s1.5-3.3,3.3-3.3s3.3,1.5,3.3,3.3h-1.1c0-1.2-1-2.1-2.1-2.1s-2.1,1-2.1,2.1s1,2.1,2.1,2.1
						c1.8,0,3.3,1.5,3.3,3.3S71.8,1001.7,70,1001.7z"/>
					<rect x="69.4" y="989" fill="#2762FF" width="1.1" height="13.5"/>
				</g>
			</g>
		</g>
	</g>
	<g>
		
			<linearGradient id="SVGID_9_" gradientUnits="userSpaceOnUse" x1="-551.7895" y1="60" x2="-679.7895" y2="60" gradientTransform="matrix(-1 0 0 1 -504 0)">
			<stop  offset="0" style="stop-color:#FFFFFF"/>
			<stop  offset="1" style="stop-color:#FCBA59"/>
		</linearGradient>
		<rect x="47.8" y="28" fill="url(#SVGID_9_)" width="128" height="64"/>
		<path fill="#FCBA59" d="M207.8,36c0,4.4-3.6,8-8,8s-8-3.6-8-8c0,4.4-3.6,8-8,8s-8-3.6-8-8c0,4.4-3.6,8-8,8s-8-3.6-8-8
			c0,4.4-3.6,8-8,8s-8-3.6-8-8c0,4.4-3.6,8-8,8s-8-3.6-8-8c0,4.4-3.6,8-8,8s-8-3.6-8-8c0,4.4-3.6,8-8,8s-8-3.6-8-8c0,4.4-3.6,8-8,8
			s-8-3.6-8-8l-32-8h128L207.8,36z"/>
		<rect x="7.8" y="28" fill="#FCBA59" width="39.7" height="64"/>
		<rect x="135.8" y="52" fill="#FFFFFF" width="16" height="40"/>
		<rect x="47.8" y="8" width="112" height="4"/>
		<rect x="47.8" y="0" width="112" height="4"/>
		<rect x="47.8" y="16" width="112" height="4"/>
	</g>
	<g>
		<path fill="#0828BE" d="M95.5,803.6c25.6,6.1,55.6,9.1,79.9-5.9c17.7-10.9,30.8-22.9,30.8-71.1c0-48.2-46.3-58.6-67.6-58.6
			c-39.7,0-54.2,29-86.1,41S9.4,734.3,9.4,750C9.4,781.3,61.3,795.5,95.5,803.6z"/>
		<g>
			<g>
				<path fill="#EEEEEE" d="M52.6,757.4v23.1h-5.7v-23.1h-9.4v-5.2h24.5v5.2H52.6z"/>
				<path fill="#EEEEEE" d="M70,750.8c0.6,0.7,1,1.4,1,2.3c0,0.9-0.3,1.7-1,2.3c-0.6,0.6-1.4,0.9-2.4,0.9c-1,0-1.8-0.3-2.4-0.9
					c-0.6-0.6-0.9-1.4-0.9-2.3c0-0.9,0.3-1.7,1-2.3c0.6-0.7,1.4-1,2.4-1C68.5,749.8,69.3,750.2,70,750.8z M64.8,780.5v-21h5.6v21
					H64.8z"/>
				<path fill="#EEEEEE" d="M93.1,761.3c1.5,1.6,2.3,3.8,2.3,6.4v12.8h-5.6v-11.6c0-1.5-0.4-2.7-1.2-3.6c-0.8-0.9-1.8-1.3-3.1-1.3
					c-3.5,0-5.2,2.4-5.2,7.3v9.3h-5.6v-21h5.6v1.9c1.7-1.7,3.9-2.5,6.6-2.5C89.5,758.8,91.6,759.7,93.1,761.3z"/>
				<path fill="#EEEEEE" d="M99.7,780.5v-30.4h5.6v30.4H99.7z"/>
				<path fill="#EEEEEE" d="M131.4,780.5h-5.6v-1.6c-1.9,1.5-4.2,2.3-7,2.3c-2.8,0-5.2-1.1-7.3-3.2c-2.1-2.1-3.1-4.8-3.1-8
					c0-3.2,1-5.9,3.1-8c2.1-2.1,4.5-3.2,7.2-3.2c2.8,0,5.1,0.8,7,2.3v-1.7h5.6V780.5z M124,774.5c1.2-1.2,1.8-2.7,1.8-4.5
					c0-1.9-0.6-3.4-1.8-4.6c-1.2-1.2-2.6-1.8-4.2-1.8c-1.7,0-3.1,0.6-4.2,1.7c-1.1,1.2-1.7,2.7-1.7,4.6s0.6,3.4,1.7,4.6
					c1.1,1.1,2.5,1.7,4.2,1.7C121.4,776.3,122.8,775.7,124,774.5z"/>
				<path fill="#EEEEEE" d="M150.5,780.5l-8.3-8.2h-1v8.2h-5.6v-30.4h5.6v16.7h1l7.5-7.3h7l-10.2,10.1l11.3,11H150.5z"/>
				<path fill="#EEEEEE" d="M178.1,771.5h-16c0.3,1.5,0.9,2.7,1.9,3.6c1,0.9,2.1,1.3,3.4,1.3c2.4,0,4.1-0.9,5.2-2.8l5,1.1
					c-0.9,2.1-2.2,3.8-4,4.8c-1.8,1.1-3.8,1.6-6.2,1.6c-3,0-5.6-1-7.7-3.1c-2.1-2.1-3.1-4.8-3.1-8c0-3.3,1-5.9,3.1-8
					c2.1-2.1,4.7-3.1,7.7-3.1c2.9,0,5.3,1,7.4,3c2.1,2,3.2,4.6,3.3,7.7V771.5z M164.2,764.7c-1,0.7-1.7,1.6-2,2.9h10.2
					c-0.3-1.3-1-2.3-1.9-2.9c-0.9-0.6-1.9-1-3.1-1C166.3,763.7,165.2,764,164.2,764.7z"/>
			</g>
		</g>
	</g>
	<g>
		<line fill="#FFFFFF" x1="107.8" y1="124" x2="107.8" y2="188"/>
		<g>
			<rect x="106.8" y="124" fill="#0828BE" width="2" height="52.1"/>
			<g>
				<polygon fill="#0828BE" points="100.4,170.4 107.8,173.6 115.2,170.4 107.8,188 				"/>
			</g>
		</g>
	</g>
	<g>
		<line fill="#FFFFFF" x1="107.8" y1="380" x2="107.8" y2="444"/>
		<g>
			<rect x="106.8" y="380" fill="#0828BE" width="2" height="52.1"/>
			<g>
				<polygon fill="#0828BE" points="100.4,426.4 107.8,429.6 115.2,426.4 107.8,444 				"/>
			</g>
		</g>
	</g>
	<g>
		<line fill="#FFFFFF" x1="107.8" y1="572" x2="107.8" y2="636"/>
		<g>
			<rect x="106.8" y="572" fill="#0828BE" width="2" height="52.1"/>
			<g>
				<polygon fill="#0828BE" points="100.4,618.4 107.8,621.6 115.2,618.4 107.8,636 				"/>
			</g>
		</g>
	</g>
	<g>
		<line fill="#FFFFFF" x1="107.8" y1="892" x2="107.8" y2="828"/>
		<g>
			<rect x="106.8" y="839.9" fill="#0828BE" width="2" height="52.1"/>
			<g>
				<polygon fill="#0828BE" points="115.2,845.6 107.8,842.4 100.4,845.6 107.8,828 				"/>
			</g>
		</g>
	</g>
</g>
</svg>
