<svg width="183" height="32" viewBox="0 0 183 32" fill="none" xmlns="http://www.w3.org/2000/svg">
<path fill-rule="evenodd" clip-rule="evenodd" d="M20.0156 30.8656C25.9605 32.2462 32.9425 32.9344 38.6016 29.5236C42.7129 27.0456 45.75 24.301 45.75 13.3332C45.75 2.3654 34.9798 0 30.0234 0C20.7901 0 17.4126 6.5976 10.0078 9.3332C2.60305 12.0688 0 15.1012 0 18.6666C0 25.7876 12.0696 29.0202 20.0156 30.8656Z" fill="#0828BE"/>
<path fill-rule="evenodd" clip-rule="evenodd" d="M66.3672 7.79547V28.8005H61.034V7.79547H52.289V3.07227H75.1119V7.79547H66.3672Z" fill="#333333"/>
<mask id="mask0" mask-type="alpha" maskUnits="userSpaceOnUse" x="0" y="0" width="183" height="32">
<path fill-rule="evenodd" clip-rule="evenodd" d="M0 32H183V0H0V32Z" fill="white"/>
</mask>
<g mask="url(#mask0)">
<path fill-rule="evenodd" clip-rule="evenodd" d="M77.645 28.8003H82.8212V9.63851H77.645V28.8003ZM82.4683 1.7857C83.0698 2.3873 83.3702 3.0977 83.3702 3.9167C83.3702 4.7617 83.0698 5.4657 82.4683 6.0289C81.867 6.5919 81.1219 6.8737 80.2331 6.8737C79.3181 6.8737 78.5665 6.5919 77.9782 6.0289C77.39 5.4657 77.0959 4.7617 77.0959 3.9167C77.0959 3.0977 77.3966 2.3873 77.9978 1.7857C78.5991 1.1839 79.3442 0.883301 80.2331 0.883301C81.1219 0.883301 81.867 1.1839 82.4683 1.7857Z" fill="#333333"/>
<path fill-rule="evenodd" clip-rule="evenodd" d="M104.005 11.3089C105.442 12.8065 106.162 14.7457 106.162 17.1265V28.8003H100.985V18.2017C100.985 16.8449 100.626 15.7569 99.9067 14.9377C99.1877 14.1185 98.227 13.7089 97.0244 13.7089C93.7827 13.7089 92.1619 15.9105 92.1619 20.3137V28.8003H86.9856V9.6385H92.1619V11.3665C93.7302 9.8305 95.7826 9.0625 98.3185 9.0625C100.671 9.0625 102.567 9.8113 104.005 11.3089Z" fill="#333333"/>
<path fill-rule="evenodd" clip-rule="evenodd" d="M110.15 28.8001H115.326V1.15186H110.15V28.8001Z" fill="#333333"/>
<path fill-rule="evenodd" clip-rule="evenodd" d="M132.71 23.3667C133.834 22.3043 134.396 20.9283 134.396 19.2387C134.396 17.5491 133.834 16.1665 132.71 15.0915C131.586 14.0163 130.291 13.4787 128.827 13.4787C127.233 13.4787 125.919 14.0035 124.886 15.0531C123.854 16.1027 123.337 17.4979 123.337 19.2387C123.337 20.9793 123.854 22.3683 124.886 23.4051C125.919 24.4419 127.233 24.9603 128.827 24.9603C130.291 24.9603 131.586 24.4291 132.71 23.3667ZM139.572 28.8003H134.396V27.3027C132.644 28.6851 130.488 29.3763 127.926 29.3763C125.337 29.3763 123.089 28.4163 121.181 26.4963C119.272 24.5763 118.318 22.1571 118.318 19.2387C118.318 16.3203 119.279 13.8947 121.2 11.9619C123.122 10.0291 125.363 9.0625 127.926 9.0625C130.514 9.0625 132.67 9.7665 134.396 11.1747V9.6385H139.572V28.8003Z" fill="#333333"/>
<path fill-rule="evenodd" clip-rule="evenodd" d="M157.403 28.8001L149.717 21.3121H148.815V28.8001H143.638V1.15186H148.815V16.3201H149.756L156.775 9.63826H163.285L153.834 18.8161L164.305 28.8001H157.403Z" fill="#333333"/>
<path fill-rule="evenodd" clip-rule="evenodd" d="M170.079 14.4001C169.151 15.0145 168.543 15.8849 168.255 17.0113H177.706C177.393 15.8337 176.817 14.9505 175.981 14.3617C175.144 13.7729 174.177 13.4785 173.079 13.4785C172.007 13.4785 171.007 13.7857 170.079 14.4001ZM183 20.5825H168.098C168.36 21.9393 168.942 23.0211 169.844 23.8273C170.745 24.6337 171.798 25.0371 173 25.0371C175.222 25.0371 176.843 24.1921 177.863 22.5025L182.49 23.4627C181.654 25.4083 180.412 26.8801 178.765 27.8787C177.118 28.8769 175.196 29.3761 173 29.3761C170.177 29.3761 167.798 28.4291 165.863 26.5345C163.929 24.6401 162.961 22.2081 162.961 19.2385C162.961 16.2689 163.935 13.8305 165.883 11.9233C167.831 10.0161 170.229 9.0625 173.079 9.0625C175.745 9.0625 178.04 9.9777 179.961 11.8081C181.882 13.6385 182.895 15.9873 183 18.8545V20.5825Z" fill="#333333"/>
<path fill-rule="evenodd" clip-rule="evenodd" d="M30.3352 12.0982V22.5998H27.6686V12.0982H23.2966V9.73682H34.7072V12.0982H30.3352Z" fill="#EEEEEE"/>
</g>
</svg>
