<svg  viewBox="0 0 424 566" fill="none" xmlns="http://www.w3.org/2000/svg">
<path fill-rule="evenodd" clip-rule="evenodd" d="M200 200H195.961L182.819 184.597V200H178V176H182.039L195.182 191.833V176H200V200Z" fill="#333333"/>
<path fill-rule="evenodd" clip-rule="evenodd" d="M210.896 186.28H222.597V190.687H210.896V200H206V176H224V180.406H210.896V186.28Z" fill="#333333"/>
<path fill-rule="evenodd" clip-rule="evenodd" d="M238.953 180.406V200H234.047V180.406H226V176H247V180.406H238.953Z" fill="#333333"/>
<path fill-rule="evenodd" clip-rule="evenodd" d="M86.88 525.642C89.344 525.642 91.3166 524.965 92.7955 523.613C94.2743 522.26 95.0138 520.443 95.0138 518.161C95.0138 515.879 94.2743 514.062 92.7955 512.709C91.3166 511.356 89.344 510.68 86.88 510.68H82.9708V525.642H86.88ZM86.88 506.34C90.7767 506.34 93.9105 507.428 96.2814 509.604C98.653 511.78 99.8384 514.632 99.8384 518.161C99.8384 521.69 98.653 524.542 96.2814 526.718C93.9105 528.894 90.7767 529.981 86.88 529.981H78.1821V506.34H86.88Z" fill="#333333"/>
<path fill-rule="evenodd" clip-rule="evenodd" d="M108.692 516.749C107.858 517.314 107.313 518.114 107.055 519.149H115.541C115.26 518.067 114.743 517.255 113.992 516.714C113.241 516.173 112.372 515.903 111.386 515.903C110.423 515.903 109.526 516.185 108.692 516.749V516.749ZM120.295 522.431H106.914C107.149 523.677 107.67 524.671 108.481 525.412C109.291 526.153 110.235 526.523 111.315 526.523C113.311 526.523 114.767 525.747 115.682 524.195L119.837 525.077C119.087 526.865 117.97 528.217 116.492 529.134C115.013 530.053 113.288 530.511 111.315 530.511C108.78 530.511 106.644 529.641 104.907 527.9C103.169 526.159 102.301 523.924 102.301 521.195C102.301 518.466 103.175 516.226 104.924 514.474C106.673 512.721 108.827 511.844 111.386 511.844C113.781 511.844 115.841 512.685 117.567 514.368C119.291 516.05 120.201 518.208 120.295 520.842V522.431Z" fill="#333333"/>
<path fill-rule="evenodd" clip-rule="evenodd" d="M128.604 516.467H140.049V520.808H128.604V529.982H123.815V506.34H141.422V510.68H128.604V516.467Z" fill="#333333"/>
<mask id="mask0" mask-type="alpha" maskUnits="userSpaceOnUse" x="0" y="0" width="424" height="566">
<path fill-rule="evenodd" clip-rule="evenodd" d="M0 566H424V0H0V566Z" fill="white"/>
</mask>
<g mask="url(#mask0)">
<path fill-rule="evenodd" clip-rule="evenodd" d="M145.012 529.982H149.66V512.374H145.012V529.982ZM149.343 505.158C149.883 505.711 150.153 506.363 150.153 507.117C150.153 507.892 149.883 508.54 149.343 509.057C148.804 509.575 148.134 509.834 147.336 509.834C146.514 509.834 145.839 509.575 145.312 509.057C144.783 508.54 144.52 507.892 144.52 507.117C144.52 506.363 144.789 505.711 145.329 505.158C145.869 504.605 146.538 504.329 147.336 504.329C148.134 504.329 148.804 504.605 149.343 505.158V505.158Z" fill="#333333"/>
<path fill-rule="evenodd" clip-rule="evenodd" d="M181.316 529.982H163.391V506.34H181.245V510.68H168.181V516.008H180.224V520.278H168.181V525.642H181.316V529.982Z" fill="#333333"/>
<path fill-rule="evenodd" clip-rule="evenodd" d="M198.216 522.819L202.512 523.913C202.02 525.912 200.956 527.511 199.325 528.712C197.694 529.911 195.821 530.511 193.708 530.511C191.079 530.511 188.854 529.641 187.036 527.9C185.216 526.159 184.306 523.924 184.306 521.196C184.306 518.466 185.216 516.226 187.036 514.474C188.854 512.721 191.079 511.844 193.708 511.844C195.774 511.844 197.611 512.438 199.22 513.627C200.828 514.815 201.925 516.385 202.512 518.337L198.039 519.607C197.453 517.279 196.009 516.114 193.708 516.114C192.252 516.114 191.074 516.585 190.169 517.526C189.265 518.466 188.814 519.69 188.814 521.196C188.814 522.701 189.265 523.918 190.169 524.848C191.074 525.777 192.252 526.241 193.708 526.241C195.962 526.241 197.465 525.1 198.216 522.819" fill="#333333"/>
<path fill-rule="evenodd" clip-rule="evenodd" d="M217.652 524.989C218.662 524.013 219.166 522.748 219.166 521.195C219.166 519.643 218.662 518.378 217.652 517.402C216.642 516.426 215.493 515.938 214.201 515.938C212.863 515.938 211.683 516.42 210.662 517.385C209.641 518.349 209.13 519.619 209.13 521.195C209.13 522.771 209.641 524.042 210.662 525.006C211.683 525.971 212.863 526.453 214.201 526.453C215.493 526.453 216.642 525.965 217.652 524.989M220.908 514.544C222.753 516.273 223.674 518.49 223.674 521.195C223.674 523.901 222.753 526.118 220.908 527.847C219.066 529.576 216.831 530.441 214.201 530.441C211.525 530.441 209.259 529.576 207.405 527.847C205.55 526.118 204.623 523.901 204.623 521.195C204.623 518.49 205.55 516.273 207.405 514.544C209.259 512.815 211.525 511.95 214.201 511.95C216.831 511.95 219.066 512.815 220.908 514.544" fill="#333333"/>
<path fill-rule="evenodd" clip-rule="evenodd" d="M230.398 524.371C230.608 525.971 231.818 526.771 234.024 526.771C234.87 526.771 235.539 526.607 236.032 526.277C236.525 525.948 236.771 525.524 236.771 525.006C236.771 524.23 236.126 523.701 234.835 523.419L231.243 522.678C229.646 522.348 228.419 521.749 227.563 520.878C226.706 520.007 226.277 518.937 226.277 517.667C226.277 515.95 226.929 514.55 228.232 513.468C229.535 512.386 231.277 511.844 233.461 511.844C235.504 511.844 237.212 512.327 238.584 513.292C239.958 514.256 240.798 515.514 241.104 517.067L236.666 517.949C236.572 517.22 236.226 516.632 235.627 516.185C235.028 515.738 234.259 515.514 233.32 515.514C232.475 515.514 231.865 515.685 231.489 516.026C231.115 516.367 230.925 516.773 230.925 517.243C230.925 517.997 231.454 518.491 232.511 518.725L236.701 519.643C238.204 519.973 239.348 520.578 240.135 521.46C240.922 522.342 241.314 523.395 241.314 524.618C241.314 526.523 240.616 527.983 239.219 528.994C237.822 530.005 235.95 530.511 233.601 530.511C231.513 530.511 229.729 530.082 228.25 529.223C226.77 528.365 225.925 527.065 225.714 525.324L230.398 524.371Z" fill="#333333"/>
<path fill-rule="evenodd" clip-rule="evenodd" d="M252.088 535.981H246.911L249.728 529.417L242.44 512.339H247.616L252.264 523.595L257.124 512.339H262.301L252.088 535.981Z" fill="#333333"/>
<path fill-rule="evenodd" clip-rule="evenodd" d="M267.791 524.371C268.003 525.971 269.212 526.771 271.418 526.771C272.264 526.771 272.933 526.607 273.426 526.277C273.919 525.948 274.165 525.524 274.165 525.006C274.165 524.23 273.519 523.701 272.228 523.419L268.636 522.678C267.041 522.348 265.814 521.749 264.957 520.878C264.1 520.007 263.672 518.937 263.672 517.667C263.672 515.95 264.322 514.55 265.626 513.468C266.928 512.386 268.672 511.844 270.856 511.844C272.897 511.844 274.605 512.327 275.979 513.292C277.352 514.256 278.191 515.514 278.497 517.067L274.059 517.949C273.966 517.22 273.619 516.632 273.021 516.185C272.421 515.738 271.654 515.514 270.714 515.514C269.868 515.514 269.258 515.685 268.883 516.026C268.508 516.367 268.32 516.773 268.32 517.243C268.32 517.997 268.848 518.491 269.904 518.725L274.095 519.643C275.597 519.973 276.741 520.578 277.528 521.46C278.315 522.342 278.709 523.395 278.709 524.618C278.709 526.523 278.01 527.983 276.612 528.994C275.215 530.005 273.343 530.511 270.996 530.511C268.907 530.511 267.122 530.082 265.643 529.223C264.165 528.365 263.319 527.065 263.107 525.324L267.791 524.371Z" fill="#333333"/>
<path fill-rule="evenodd" clip-rule="evenodd" d="M295.082 529.206C293.461 530.076 291.936 530.511 290.503 530.511C288.343 530.511 286.653 529.929 285.433 528.765C284.212 527.6 283.602 525.842 283.602 523.489V516.185H279.833V512.374H283.602V507.046H288.249V512.374H293.99V516.185H288.249V523.136C288.249 525.16 289.106 526.171 290.821 526.171C291.712 526.171 292.686 525.889 293.744 525.325L295.082 529.206Z" fill="#333333"/>
<path fill-rule="evenodd" clip-rule="evenodd" d="M302.211 516.749C301.377 517.314 300.831 518.114 300.574 519.149H309.06C308.777 518.067 308.262 517.255 307.511 516.714C306.758 516.173 305.891 515.903 304.905 515.903C303.942 515.903 303.044 516.185 302.211 516.749V516.749ZM313.813 522.431H300.431C300.667 523.677 301.189 524.671 301.999 525.412C302.808 526.153 303.755 526.523 304.834 526.523C306.829 526.523 308.284 525.747 309.2 524.195L313.355 525.077C312.604 526.865 311.489 528.217 310.011 529.134C308.531 530.053 306.806 530.511 304.834 530.511C302.298 530.511 300.162 529.641 298.424 527.9C296.688 526.159 295.82 523.924 295.82 521.195C295.82 518.466 296.694 516.226 298.443 514.474C300.191 512.721 302.346 511.844 304.905 511.844C307.299 511.844 309.359 512.685 311.084 514.368C312.81 516.05 313.719 518.208 313.813 520.842V522.431Z" fill="#333333"/>
<path fill-rule="evenodd" clip-rule="evenodd" d="M344.236 513.838C345.574 515.167 346.243 516.878 346.243 518.972V529.982H341.631V519.925C341.631 518.772 341.302 517.849 340.645 517.155C339.988 516.461 339.166 516.114 338.18 516.114C336.912 516.114 335.915 516.567 335.187 517.472C334.459 518.379 334.095 519.725 334.095 521.513V529.982H329.448V519.925C329.448 518.772 329.118 517.849 328.46 517.155C327.804 516.461 326.982 516.114 325.996 516.114C324.728 516.114 323.743 516.561 323.038 517.455C322.334 518.349 321.981 519.702 321.981 521.513V529.982H317.333V512.374H321.981V513.821C323.297 512.503 325.045 511.845 327.228 511.845C329.764 511.845 331.689 512.809 333.003 514.738C334.552 512.809 336.689 511.845 339.412 511.845C341.29 511.845 342.898 512.509 344.236 513.838" fill="#333333"/>
<path fill-rule="evenodd" clip-rule="evenodd" d="M176.79 41.7206L173.34 50.154H180.206L176.79 41.7206ZM184.045 59.5401L182.002 54.4939H171.579L169.501 59.5401H164.325L174.537 35.8989H179.009L189.221 59.5401H184.045Z" fill="#333333"/>
<path fill-rule="evenodd" clip-rule="evenodd" d="M194.887 53.9298C195.099 55.5293 196.308 56.3298 198.515 56.3298C199.361 56.3298 200.03 56.1651 200.523 55.8351C201.016 55.5065 201.261 55.0824 201.261 54.5649C201.261 53.7887 200.616 53.2594 199.325 52.9772L195.732 52.2362C194.137 51.9069 192.91 51.3071 192.054 50.4368C191.197 49.5657 190.768 48.4955 190.768 47.2253C190.768 45.5082 191.419 44.1086 192.723 43.0266C194.025 41.9446 195.768 41.4028 197.952 41.4028C199.994 41.4028 201.701 41.8858 203.075 42.8502C204.448 43.8146 205.288 45.073 205.593 46.6255L201.156 47.5075C201.063 46.7784 200.716 46.1903 200.117 45.7434C199.518 45.2965 198.75 45.073 197.81 45.073C196.966 45.073 196.355 45.2435 195.979 45.5846C195.604 45.9257 195.416 46.3314 195.416 46.8019C195.416 47.5553 195.944 48.0493 197.001 48.2838L201.192 49.2011C202.694 49.5312 203.838 50.1369 204.624 51.019C205.411 51.901 205.804 52.9536 205.804 54.1768C205.804 56.0821 205.106 57.5412 203.709 58.5526C202.312 59.5641 200.44 60.0698 198.092 60.0698C196.003 60.0698 194.218 59.6405 192.74 58.782C191.261 57.9234 190.416 56.6238 190.204 54.8825L194.887 53.9298Z" fill="#333333"/>
<path fill-rule="evenodd" clip-rule="evenodd" d="M212.246 53.9298C212.458 55.5293 213.667 56.3298 215.874 56.3298C216.72 56.3298 217.389 56.1651 217.882 55.8351C218.374 55.5065 218.62 55.0824 218.62 54.5649C218.62 53.7887 217.975 53.2594 216.684 52.9772L213.091 52.2362C211.496 51.9069 210.269 51.3071 209.413 50.4368C208.556 49.5657 208.127 48.4955 208.127 47.2253C208.127 45.5082 208.778 44.1086 210.082 43.0266C211.384 41.9446 213.127 41.4028 215.311 41.4028C217.353 41.4028 219.06 41.8858 220.434 42.8502C221.807 43.8146 222.647 45.073 222.952 46.6255L218.515 47.5075C218.421 46.7784 218.074 46.1903 217.476 45.7434C216.877 45.2965 216.109 45.073 215.169 45.073C214.324 45.073 213.713 45.2435 213.338 45.5846C212.963 45.9257 212.775 46.3314 212.775 46.8019C212.775 47.5553 213.303 48.0493 214.36 48.2838L218.551 49.2011C220.052 49.5312 221.197 50.1369 221.983 51.019C222.77 51.901 223.164 52.9536 223.164 54.1768C223.164 56.0821 222.465 57.5412 221.067 58.5526C219.671 59.5641 217.798 60.0698 215.451 60.0698C213.362 60.0698 211.577 59.6405 210.098 58.782C208.62 57.9234 207.774 56.6238 207.563 54.8825L212.246 53.9298Z" fill="#333333"/>
<path fill-rule="evenodd" clip-rule="evenodd" d="M231.736 46.3079C230.902 46.8725 230.356 47.6722 230.099 48.7072H238.585C238.304 47.6252 237.786 46.8136 237.036 46.2726C236.285 45.7316 235.416 45.4611 234.43 45.4611C233.467 45.4611 232.57 45.7434 231.736 46.3079V46.3079ZM243.34 51.9892H229.958C230.193 53.2359 230.714 54.2297 231.525 54.9707C232.335 55.7116 233.279 56.0821 234.359 56.0821C236.355 56.0821 237.811 55.3059 238.726 53.7534L242.881 54.6355C242.131 56.4231 241.014 57.7757 239.536 58.693C238.057 59.6111 236.331 60.0698 234.359 60.0698C231.823 60.0698 229.687 59.1995 227.951 57.4581C226.213 55.7175 225.344 53.4829 225.344 50.7536C225.344 48.025 226.219 45.7846 227.968 44.0322C229.717 42.2798 231.871 41.4028 234.43 41.4028C236.825 41.4028 238.884 42.2437 240.611 43.9263C242.335 45.6081 243.245 47.7663 243.34 50.4008V51.9892Z" fill="#333333"/>
<path fill-rule="evenodd" clip-rule="evenodd" d="M259.642 58.7638C258.021 59.6341 256.495 60.0692 255.064 60.0692C252.903 60.0692 251.214 59.4871 249.994 58.3227C248.773 57.1584 248.163 55.4001 248.163 53.0472V45.7436H244.395V41.9322H248.163V36.6045H252.81V41.9322H258.55V45.7436H252.81V52.6943C252.81 54.718 253.667 55.7294 255.38 55.7294C256.273 55.7294 257.247 55.4471 258.304 54.8826L259.642 58.7638Z" fill="#333333"/>
<path fill-rule="evenodd" clip-rule="evenodd" d="M89.4949 380.884C100.171 383.421 112.709 384.686 122.872 378.418C130.255 373.864 135.709 368.821 135.709 348.665C135.709 328.511 116.368 324.164 107.467 324.164C90.8858 324.164 84.8199 336.288 71.5226 341.315C58.2253 346.342 53.5503 351.914 53.5503 358.466C53.5503 371.552 75.2249 377.493 89.4949 380.884" fill="#0828BE"/>
<path fill-rule="evenodd" clip-rule="evenodd" d="M172.734 338.489V377.088H163.157V338.489H147.453V329.809H188.438V338.489H172.734Z" fill="#333333"/>
<path fill-rule="evenodd" clip-rule="evenodd" d="M192.987 377.088H202.283V341.876H192.987V377.088ZM201.649 327.445C202.729 328.55 203.269 329.856 203.269 331.361C203.269 332.914 202.729 334.208 201.649 335.242C200.569 336.277 199.231 336.795 197.635 336.795C195.992 336.795 194.642 336.277 193.585 335.242C192.53 334.208 192.001 332.914 192.001 331.361C192.001 329.856 192.541 328.55 193.62 327.445C194.7 326.339 196.039 325.787 197.635 325.787C199.231 325.787 200.569 326.339 201.649 327.445V327.445Z" fill="#333333"/>
<path fill-rule="evenodd" clip-rule="evenodd" d="M240.325 344.946C242.907 347.698 244.198 351.261 244.198 355.636V377.088H234.902V357.612C234.902 355.119 234.257 353.119 232.966 351.614C231.674 350.109 229.949 349.356 227.79 349.356C221.968 349.356 219.057 353.402 219.057 361.493V377.088H209.761V341.876H219.057V345.051C221.874 342.229 225.56 340.817 230.113 340.817C234.339 340.817 237.743 342.193 240.325 344.946" fill="#333333"/>
<path fill-rule="evenodd" clip-rule="evenodd" d="M251.36 377.089H260.656V326.281H251.36V377.089Z" fill="#333333"/>
<path fill-rule="evenodd" clip-rule="evenodd" d="M291.874 367.104C293.893 365.151 294.902 362.623 294.902 359.518C294.902 356.413 293.893 353.873 291.874 351.897C289.855 349.921 287.531 348.933 284.902 348.933C282.038 348.933 279.679 349.897 277.825 351.826C275.97 353.755 275.043 356.319 275.043 359.518C275.043 362.717 275.97 365.269 277.825 367.174C279.679 369.08 282.038 370.032 284.902 370.032C287.531 370.032 289.855 369.056 291.874 367.104V367.104ZM304.198 377.089H294.902V374.337C291.757 376.877 287.883 378.147 283.282 378.147C278.635 378.147 274.597 376.383 271.17 372.855C267.743 369.327 266.029 364.881 266.029 359.518C266.029 354.155 267.754 349.697 271.205 346.146C274.656 342.594 278.682 340.818 283.282 340.818C287.93 340.818 291.804 342.112 294.902 344.699V341.876H304.198V377.089Z" fill="#333333"/>
<path fill-rule="evenodd" clip-rule="evenodd" d="M336.219 377.089L322.416 363.328H320.796V377.089H311.5V326.28H320.796V354.155H322.486L335.092 341.876H346.782L329.81 358.741L348.613 377.089H336.219Z" fill="#333333"/>
<path fill-rule="evenodd" clip-rule="evenodd" d="M358.983 350.626C357.316 351.755 356.224 353.355 355.708 355.425H372.68C372.116 353.261 371.083 351.638 369.581 350.556C368.079 349.474 366.342 348.932 364.37 348.932C362.445 348.932 360.649 349.497 358.983 350.626V350.626ZM382.187 361.987H355.426C355.896 364.481 356.94 366.468 358.56 367.95C360.18 369.432 362.069 370.173 364.229 370.173C368.22 370.173 371.13 368.62 372.961 365.516L381.271 367.28C379.769 370.855 377.539 373.56 374.581 375.395C371.623 377.23 368.173 378.147 364.229 378.147C359.159 378.147 354.886 376.406 351.412 372.925C347.938 369.444 346.201 364.975 346.201 359.517C346.201 354.06 347.95 349.579 351.447 346.075C354.945 342.57 359.252 340.817 364.37 340.817C369.159 340.817 373.278 342.499 376.729 345.863C380.18 349.227 381.999 353.543 382.187 358.812V361.987Z" fill="#333333"/>
<path fill-rule="evenodd" clip-rule="evenodd" d="M108.027 346.396V365.695H103.238V346.396H95.387V342.057H115.878V346.396H108.027Z" fill="#EEEEEE"/>
<path fill-rule="evenodd" clip-rule="evenodd" d="M22.1412 1.47013H28.0097V0H22.1412V1.47013ZM30.9439 1.47013H36.8124V0H30.9439V1.47013ZM39.7467 1.47013H45.6152V0H39.7467V1.47013ZM48.5495 1.47013H54.418V0H48.5495V1.47013ZM57.3522 1.47013H63.2208V0H57.3522V1.47013ZM66.155 1.47013H72.0235V0H66.155V1.47013ZM74.9578 1.47013H80.8263V0H74.9578V1.47013ZM83.7605 1.47013H89.6291V0H83.7605V1.47013ZM92.5633 1.47013H98.4318V0H92.5633V1.47013ZM101.366 1.47013H107.235V0H101.366V1.47013ZM110.169 1.47013H116.037V0H110.169V1.47013ZM118.972 1.47013H124.84V0H118.972V1.47013ZM127.774 1.47013H133.643V0H127.774V1.47013ZM136.577 1.47013H142.446V0H136.577V1.47013ZM145.38 1.47013H151.248V0H145.38V1.47013ZM154.183 1.47013H160.051V0H154.183V1.47013ZM162.985 1.47013H168.854V0H162.985V1.47013ZM171.788 1.47013H177.657V0H171.788V1.47013ZM180.591 1.47013H186.46V0H180.591V1.47013ZM189.394 1.47013H195.262V0H189.394V1.47013ZM198.197 1.47013H204.065V0H198.197V1.47013ZM206.999 1.47013H212.868V0H206.999V1.47013ZM215.802 1.47013H221.671V0H215.802V1.47013ZM224.605 1.47013H230.473V0H224.605V1.47013ZM233.408 1.47013H239.276V0H233.408V1.47013ZM242.21 1.47013H248.079V0H242.21V1.47013ZM251.013 1.47013H256.882V0H251.013V1.47013ZM259.816 1.47013H265.684V0H259.816V1.47013ZM268.619 1.47013H274.487V0H268.619V1.47013ZM277.421 1.47013H283.29V0H277.421V1.47013ZM286.224 1.47013H292.093V0H286.224V1.47013ZM295.027 1.47013H300.895V0H295.027V1.47013ZM303.83 1.47013H309.698V0H303.83V1.47013ZM312.633 1.47013H318.501V0H312.633V1.47013ZM321.435 1.47013H327.304V0H321.435V1.47013ZM330.238 1.47013H336.107V0H330.238V1.47013ZM339.041 1.47013H344.909V0H339.041V1.47013ZM347.844 1.47013H353.712V0H347.844V1.47013ZM356.646 1.47013H362.515V0H356.646V1.47013ZM365.449 1.47013H371.318V0H365.449V1.47013ZM374.252 1.47013H380.12V0H374.252V1.47013ZM383.055 1.47013H388.923V0H383.055V1.47013ZM391.857 1.47013H397.726V0H391.857V1.47013ZM400.66 1.47013H406.529V0H400.66V1.47013ZM13.4492 1.60832L13.243 0.152894C13.9546 0.0514546 14.6823 0 15.4048 0H19.2069V1.47013H15.4048C14.7505 1.47013 14.0932 1.51644 13.4492 1.60832V1.60832ZM414.766 2.92262C413.087 2.08538 411.289 1.60465 409.419 1.49439L409.505 0.0271974C411.573 0.149218 413.563 0.68067 415.419 1.60685L414.766 2.92262ZM6.00863 5.14472L5.01758 4.0605C6.55073 2.65358 8.31275 1.58774 10.2552 0.891634L10.7497 2.27576C8.99203 2.90571 7.39653 3.87085 6.00863 5.14472V5.14472ZM420.743 8.60982C419.823 6.97724 418.605 5.56371 417.121 4.40818L418.022 3.24752C419.659 4.52285 421.004 6.08413 422.021 7.88725L420.743 8.60982ZM1.83245 12.2609L0.404199 11.925C0.875147 9.91088 1.73782 8.0372 2.96654 6.35537L4.14978 7.22348C3.03916 8.74507 2.25865 10.4401 1.83245 12.2609V12.2609ZM424 16.7404H422.533V15.4364C422.534 13.9795 422.308 12.5417 421.862 11.162L423.257 10.7092C423.751 12.2352 424.001 13.8258 424 15.4364V16.7404ZM1.46713 20.8825H5.29053e-06V15.4364C5.29053e-06 15.2842 0.00220598 15.132 0.00660737 14.9806L1.47374 15.024C1.46933 15.1614 1.46713 15.2989 1.46713 15.4364V20.8825ZM422.533 25.5611H424V19.6806H422.533V25.5611ZM5.29053e-06 29.7032H1.46713V23.8227H5.29053e-06V29.7032ZM422.533 34.3819H424V28.5014H422.533V34.3819ZM5.29053e-06 38.524H1.46713V32.6435H5.29053e-06V38.524ZM422.533 43.2027H424V37.3222H422.533V43.2027ZM5.29053e-06 47.3448H1.46713V41.4643H5.29053e-06V47.3448ZM422.533 52.0235H424V46.143H422.533V52.0235ZM5.29053e-06 56.1656H1.46713V50.2851H5.29053e-06V56.1656ZM422.533 60.8443H424V54.9637H422.533V60.8443ZM5.29053e-06 64.9864H1.46713V59.1058H5.29053e-06V64.9864ZM422.533 69.665H424V63.7845H422.533V69.665ZM5.29053e-06 73.8071H1.46713V67.9266H5.29053e-06V73.8071ZM422.533 78.4858H424V72.6053H422.533V78.4858ZM0.223009 82.7404C0.0748288 81.8782 -0.000728273 80.9968 5.29053e-06 80.1213V76.7474H1.46713V80.1221C1.4664 80.9145 1.53462 81.7106 1.66813 82.4905L0.223009 82.7404ZM422.188 87.3654L420.895 86.6722C421.78 85.0139 422.313 83.2263 422.479 81.3592L423.94 81.4886C423.757 83.5548 423.167 85.5322 422.188 87.3654V87.3654ZM4.36471 90.8621C2.91739 89.3677 1.80164 87.6337 1.05047 85.7093L2.4171 85.1734C3.09711 86.9156 4.1065 88.4842 5.41811 89.8374L4.36471 90.8621ZM415.728 93.7921L415.045 92.4917C416.7 91.6178 418.147 90.4387 419.342 88.9877L420.474 89.9234C419.154 91.5259 417.557 92.8277 415.728 93.7921V93.7921ZM12.3459 95.2505C10.322 94.8381 8.42792 94.0302 6.71432 92.849L7.54544 91.6383C9.09547 92.7064 10.8091 93.437 12.6386 93.8097L12.3459 95.2505ZM15.4049 95.5584H21.2734V94.0883H15.4049V95.5584ZM24.2076 95.5584H30.0761V94.0883H24.2076V95.5584ZM33.0104 95.5584H38.8789V94.0883H33.0104V95.5584ZM41.8132 95.5584H47.6817V94.0883H41.8132V95.5584ZM50.6159 95.5584H56.4844V94.0883H50.6159V95.5584ZM59.4187 95.5584H65.2872V94.0883H59.4187V95.5584ZM68.2215 95.5584H74.09V94.0883H68.2215V95.5584ZM77.0242 95.5584H82.8927V94.0883H77.0242V95.5584ZM85.827 95.5584H91.6955V94.0883H85.827V95.5584ZM94.6298 95.5584H100.498V94.0883H94.6298V95.5584ZM103.433 95.5584H109.301V94.0883H103.433V95.5584ZM112.235 95.5584H118.104V94.0883H112.235V95.5584ZM121.038 95.5584H126.907V94.0883H121.038V95.5584ZM129.841 95.5584H135.709V94.0883H129.841V95.5584ZM138.644 95.5584H144.512V94.0883H138.644V95.5584ZM147.446 95.5584H153.315V94.0883H147.446V95.5584ZM156.249 95.5584H162.118V94.0883H156.249V95.5584ZM165.052 95.5584H170.92V94.0883H165.052V95.5584ZM173.855 95.5584H179.723V94.0883H173.855V95.5584ZM182.657 95.5584H188.526V94.0883H182.657V95.5584ZM191.46 95.5584H197.329V94.0883H191.46V95.5584ZM200.263 95.5584H206.131V94.0883H200.263V95.5584ZM209.066 95.5584H214.934V94.0883H209.066V95.5584ZM217.869 95.5584H223.737V94.0883H217.869V95.5584ZM226.671 95.5584H232.54V94.0883H226.671V95.5584ZM235.474 95.5584H241.343V94.0883H235.474V95.5584ZM244.277 95.5584H250.145V94.0883H244.277V95.5584ZM253.08 95.5584H258.948V94.0883H253.08V95.5584ZM261.882 95.5584H267.751V94.0883H261.882V95.5584ZM270.685 95.5584H276.554V94.0883H270.685V95.5584ZM279.488 95.5584H285.356V94.0883H279.488V95.5584ZM288.291 95.5584H294.159V94.0883H288.291V95.5584ZM297.093 95.5584H302.962V94.0883H297.093V95.5584ZM305.896 95.5584H311.765V94.0883H305.896V95.5584ZM314.699 95.5584H320.567V94.0883H314.699V95.5584ZM323.502 95.5584H329.37V94.0883H323.502V95.5584ZM332.305 95.5584H338.173V94.0883H332.305V95.5584ZM341.107 95.5584H346.976V94.0883H341.107V95.5584ZM349.91 95.5584H355.779V94.0883H349.91V95.5584ZM358.713 95.5584H364.581V94.0883H358.713V95.5584ZM367.516 95.5584H373.384V94.0883H367.516V95.5584ZM376.318 95.5584H382.187V94.0883H376.318V95.5584ZM385.121 95.5584H390.99V94.0883H385.121V95.5584ZM393.924 95.5584H399.792V94.0883H393.924V95.5584ZM408.595 95.5584H402.727V94.0883H408.595C409.91 94.0883 411.213 93.9031 412.467 93.537L412.877 94.9476C411.489 95.3534 410.048 95.5584 408.595 95.5584V95.5584Z" fill="#8C8C8C"/>
<path fill-rule="evenodd" clip-rule="evenodd" d="M22.1412 142.602H28.0097V141.132H22.1412V142.602ZM30.9439 142.602H36.8124V141.132H30.9439V142.602ZM39.7467 142.602H45.6152V141.132H39.7467V142.602ZM48.5495 142.602H54.418V141.132H48.5495V142.602ZM57.3522 142.602H63.2208V141.132H57.3522V142.602ZM66.155 142.602H72.0235V141.132H66.155V142.602ZM74.9578 142.602H80.8263V141.132H74.9578V142.602ZM83.7605 142.602H89.6291V141.132H83.7605V142.602ZM92.5633 142.602H98.4318V141.132H92.5633V142.602ZM101.366 142.602H107.235V141.132H101.366V142.602ZM110.169 142.602H116.037V141.132H110.169V142.602ZM118.972 142.602H124.84V141.132H118.972V142.602ZM127.774 142.602H133.643V141.132H127.774V142.602ZM136.577 142.602H142.446V141.132H136.577V142.602ZM145.38 142.602H151.248V141.132H145.38V142.602ZM154.183 142.602H160.051V141.132H154.183V142.602ZM162.985 142.602H168.854V141.132H162.985V142.602ZM171.788 142.602H177.657V141.132H171.788V142.602ZM180.591 142.602H186.46V141.132H180.591V142.602ZM189.394 142.602H195.262V141.132H189.394V142.602ZM198.197 142.602H204.065V141.132H198.197V142.602ZM206.999 142.602H212.868V141.132H206.999V142.602ZM215.802 142.602H221.671V141.132H215.802V142.602ZM224.605 142.602H230.473V141.132H224.605V142.602ZM233.408 142.602H239.276V141.132H233.408V142.602ZM242.21 142.602H248.079V141.132H242.21V142.602ZM251.013 142.602H256.882V141.132H251.013V142.602ZM259.816 142.602H265.684V141.132H259.816V142.602ZM268.619 142.602H274.487V141.132H268.619V142.602ZM277.421 142.602H283.29V141.132H277.421V142.602ZM286.224 142.602H292.093V141.132H286.224V142.602ZM295.027 142.602H300.895V141.132H295.027V142.602ZM303.83 142.602H309.698V141.132H303.83V142.602ZM312.633 142.602H318.501V141.132H312.633V142.602ZM321.435 142.602H327.304V141.132H321.435V142.602ZM330.238 142.602H336.107V141.132H330.238V142.602ZM339.041 142.602H344.909V141.132H339.041V142.602ZM347.844 142.602H353.712V141.132H347.844V142.602ZM356.646 142.602H362.515V141.132H356.646V142.602ZM365.449 142.602H371.318V141.132H365.449V142.602ZM374.252 142.602H380.12V141.132H374.252V142.602ZM383.055 142.602H388.923V141.132H383.055V142.602ZM391.857 142.602H397.726V141.132H391.857V142.602ZM400.66 142.602H406.529V141.132H400.66V142.602ZM13.4492 142.741L13.243 141.285C13.9546 141.184 14.6823 141.132 15.4048 141.132H19.2069V142.602H15.4048C14.7505 142.602 14.0932 142.649 13.4492 142.741V142.741ZM414.766 144.055C413.087 143.218 411.289 142.737 409.419 142.627L409.505 141.16C411.573 141.282 413.563 141.813 415.419 142.739L414.766 144.055ZM6.00863 146.277L5.01758 145.193C6.55073 143.786 8.31275 142.72 10.2552 142.024L10.7497 143.408C8.99203 144.038 7.39653 145.003 6.00863 146.277V146.277ZM420.743 149.742C419.823 148.11 418.605 146.696 417.121 145.541L418.022 144.38C419.659 145.655 421.004 147.216 422.021 149.02L420.743 149.742ZM1.83245 153.393L0.404199 153.057C0.875147 151.043 1.73782 149.17 2.96654 147.488L4.14978 148.356C3.03916 149.877 2.25865 151.572 1.83245 153.393V153.393ZM424 157.873H422.533V156.569C422.534 155.112 422.308 153.674 421.862 152.294L423.257 151.841C423.751 153.367 424.001 154.958 424 156.569V157.873ZM1.46713 162.015H5.29053e-06V156.569C5.29053e-06 156.417 0.00220598 156.264 0.00660737 156.113L1.47374 156.156C1.46933 156.294 1.46713 156.431 1.46713 156.569V162.015ZM422.533 166.693H424V160.813H422.533V166.693ZM5.29053e-06 170.836H1.46713V164.955H5.29053e-06V170.836ZM422.533 175.514H424V169.634H422.533V175.514ZM5.29053e-06 179.656H1.46713V173.776H5.29053e-06V179.656ZM422.533 184.335H424V178.455H422.533V184.335ZM5.29053e-06 188.477H1.46713V182.597H5.29053e-06V188.477ZM422.533 193.156H424V187.275H422.533V193.156ZM5.29053e-06 197.298H1.46713V191.417H5.29053e-06V197.298ZM422.533 201.977H424V196.096H422.533V201.977ZM5.29053e-06 206.119H1.46713V200.238H5.29053e-06V206.119ZM422.533 210.797H424V204.917H422.533V210.797ZM5.29053e-06 214.939H1.46713V209.059H5.29053e-06V214.939ZM422.533 219.618H424V213.738H422.533V219.618ZM0.223009 223.873C0.0748288 223.01 -0.000728273 222.129 5.29053e-06 221.254V217.88H1.46713V221.254C1.4664 222.047 1.53462 222.843 1.66813 223.623L0.223009 223.873ZM422.188 228.498L420.895 227.805C421.78 226.146 422.313 224.359 422.479 222.492L423.94 222.621C423.757 224.687 423.167 226.664 422.188 228.498V228.498ZM4.36471 231.994C2.91739 230.5 1.80164 228.766 1.05047 226.842L2.4171 226.306C3.09711 228.048 4.1065 229.617 5.41811 230.97L4.36471 231.994ZM415.728 234.924L415.045 233.624C416.7 232.75 418.147 231.571 419.342 230.12L420.474 231.056C419.154 232.658 417.557 233.96 415.728 234.924V234.924ZM12.3459 236.383C10.322 235.97 8.42792 235.163 6.71432 233.981L7.54544 232.771C9.09547 233.839 10.8091 234.569 12.6386 234.942L12.3459 236.383ZM15.4049 236.691H21.2734V235.221H15.4049V236.691ZM24.2076 236.691H30.0761V235.221H24.2076V236.691ZM33.0104 236.691H38.8789V235.221H33.0104V236.691ZM41.8132 236.691H47.6817V235.221H41.8132V236.691ZM50.6159 236.691H56.4844V235.221H50.6159V236.691ZM59.4187 236.691H65.2872V235.221H59.4187V236.691ZM68.2215 236.691H74.09V235.221H68.2215V236.691ZM77.0242 236.691H82.8927V235.221H77.0242V236.691ZM85.827 236.691H91.6955V235.221H85.827V236.691ZM94.6298 236.691H100.498V235.221H94.6298V236.691ZM103.433 236.691H109.301V235.221H103.433V236.691ZM112.235 236.691H118.104V235.221H112.235V236.691ZM121.038 236.691H126.907V235.221H121.038V236.691ZM129.841 236.691H135.709V235.221H129.841V236.691ZM138.644 236.691H144.512V235.221H138.644V236.691ZM147.446 236.691H153.315V235.221H147.446V236.691ZM156.249 236.691H162.118V235.221H156.249V236.691ZM165.052 236.691H170.92V235.221H165.052V236.691ZM173.855 236.691H179.723V235.221H173.855V236.691ZM182.657 236.691H188.526V235.221H182.657V236.691ZM191.46 236.691H197.329V235.221H191.46V236.691ZM200.263 236.691H206.131V235.221H200.263V236.691ZM209.066 236.691H214.934V235.221H209.066V236.691ZM217.869 236.691H223.737V235.221H217.869V236.691ZM226.671 236.691H232.54V235.221H226.671V236.691ZM235.474 236.691H241.343V235.221H235.474V236.691ZM244.277 236.691H250.145V235.221H244.277V236.691ZM253.08 236.691H258.948V235.221H253.08V236.691ZM261.882 236.691H267.751V235.221H261.882V236.691ZM270.685 236.691H276.554V235.221H270.685V236.691ZM279.488 236.691H285.356V235.221H279.488V236.691ZM288.291 236.691H294.159V235.221H288.291V236.691ZM297.093 236.691H302.962V235.221H297.093V236.691ZM305.896 236.691H311.765V235.221H305.896V236.691ZM314.699 236.691H320.567V235.221H314.699V236.691ZM323.502 236.691H329.37V235.221H323.502V236.691ZM332.305 236.691H338.173V235.221H332.305V236.691ZM341.107 236.691H346.976V235.221H341.107V236.691ZM349.91 236.691H355.779V235.221H349.91V236.691ZM358.713 236.691H364.581V235.221H358.713V236.691ZM367.516 236.691H373.384V235.221H367.516V236.691ZM376.318 236.691H382.187V235.221H376.318V236.691ZM385.121 236.691H390.99V235.221H385.121V236.691ZM393.924 236.691H399.792V235.221H393.924V236.691ZM408.595 236.691H402.727V235.221H408.595C409.91 235.221 411.213 235.035 412.467 234.669L412.877 236.08C411.489 236.486 410.048 236.691 408.595 236.691V236.691Z" fill="#8C8C8C"/>
<path fill-rule="evenodd" clip-rule="evenodd" d="M22.1412 471.912H28.0097V470.441H22.1412V471.912ZM30.9439 471.912H36.8124V470.441H30.9439V471.912ZM39.7467 471.912H45.6152V470.441H39.7467V471.912ZM48.5495 471.912H54.418V470.441H48.5495V471.912ZM57.3522 471.912H63.2208V470.441H57.3522V471.912ZM66.155 471.912H72.0235V470.441H66.155V471.912ZM74.9578 471.912H80.8263V470.441H74.9578V471.912ZM83.7605 471.912H89.6291V470.441H83.7605V471.912ZM92.5633 471.912H98.4318V470.441H92.5633V471.912ZM101.366 471.912H107.235V470.441H101.366V471.912ZM110.169 471.912H116.037V470.441H110.169V471.912ZM118.972 471.912H124.84V470.441H118.972V471.912ZM127.774 471.912H133.643V470.441H127.774V471.912ZM136.577 471.912H142.446V470.441H136.577V471.912ZM145.38 471.912H151.248V470.441H145.38V471.912ZM154.183 471.912H160.051V470.441H154.183V471.912ZM162.985 471.912H168.854V470.441H162.985V471.912ZM171.788 471.912H177.657V470.441H171.788V471.912ZM180.591 471.912H186.46V470.441H180.591V471.912ZM189.394 471.912H195.262V470.441H189.394V471.912ZM198.197 471.912H204.065V470.441H198.197V471.912ZM206.999 471.912H212.868V470.441H206.999V471.912ZM215.802 471.912H221.671V470.441H215.802V471.912ZM224.605 471.912H230.473V470.441H224.605V471.912ZM233.408 471.912H239.276V470.441H233.408V471.912ZM242.21 471.912H248.079V470.441H242.21V471.912ZM251.013 471.912H256.882V470.441H251.013V471.912ZM259.816 471.912H265.684V470.441H259.816V471.912ZM268.619 471.912H274.487V470.441H268.619V471.912ZM277.421 471.912H283.29V470.441H277.421V471.912ZM286.224 471.912H292.093V470.441H286.224V471.912ZM295.027 471.912H300.895V470.441H295.027V471.912ZM303.83 471.912H309.698V470.441H303.83V471.912ZM312.633 471.912H318.501V470.441H312.633V471.912ZM321.435 471.912H327.304V470.441H321.435V471.912ZM330.238 471.912H336.107V470.441H330.238V471.912ZM339.041 471.912H344.909V470.441H339.041V471.912ZM347.844 471.912H353.712V470.441H347.844V471.912ZM356.646 471.912H362.515V470.441H356.646V471.912ZM365.449 471.912H371.318V470.441H365.449V471.912ZM374.252 471.912H380.12V470.441H374.252V471.912ZM383.055 471.912H388.923V470.441H383.055V471.912ZM391.857 471.912H397.726V470.441H391.857V471.912ZM400.66 471.912H406.529V470.441H400.66V471.912ZM13.4492 472.05L13.243 470.594C13.9546 470.493 14.6823 470.441 15.4048 470.441H19.2069V471.912H15.4048C14.7505 471.912 14.0932 471.958 13.4492 472.05V472.05ZM414.766 473.364C413.087 472.527 411.289 472.046 409.419 471.936L409.505 470.469C411.573 470.591 413.563 471.122 415.419 472.048L414.766 473.364ZM6.00863 475.586L5.01758 474.502C6.55073 473.095 8.31275 472.029 10.2552 471.333L10.7497 472.717C8.99203 473.347 7.39653 474.312 6.00863 475.586V475.586ZM420.743 479.051C419.823 477.419 418.605 476.005 417.121 474.85L418.022 473.689C419.659 474.964 421.004 476.526 422.021 478.329L420.743 479.051ZM1.83245 482.702L0.404199 482.366C0.875147 480.352 1.73782 478.479 2.96654 476.797L4.14978 477.665C3.03916 479.186 2.25865 480.882 1.83245 482.702V482.702ZM424 487.182H422.533V485.878C422.534 484.421 422.308 482.983 421.862 481.603L423.257 481.151C423.751 482.677 424.001 484.267 424 485.878V487.182ZM1.46713 491.324H5.29053e-06V485.878C5.29053e-06 485.726 0.00220598 485.573 0.00660737 485.422L1.47374 485.465C1.46933 485.603 1.46713 485.74 1.46713 485.878V491.324ZM422.533 496.003H424V490.122H422.533V496.003ZM5.29053e-06 500.145H1.46713V494.264H5.29053e-06V500.145ZM422.533 504.823H424V498.943H422.533V504.823ZM5.29053e-06 508.965H1.46713V503.085H5.29053e-06V508.965ZM422.533 513.644H424V507.764H422.533V513.644ZM5.29053e-06 517.786H1.46713V511.906H5.29053e-06V517.786ZM422.533 522.465H424V516.584H422.533V522.465ZM5.29053e-06 526.607H1.46713V520.726H5.29053e-06V526.607ZM422.533 531.286H424V525.405H422.533V531.286ZM5.29053e-06 535.428H1.46713V529.547H5.29053e-06V535.428ZM422.533 540.106H424V534.226H422.533V540.106ZM5.29053e-06 544.249H1.46713V538.368H5.29053e-06V544.249ZM422.533 548.927H424V543.047H422.533V548.927ZM0.223009 553.182C0.0748288 552.32 -0.000728273 551.438 5.29053e-06 550.563V547.189H1.46713V550.563C1.4664 551.356 1.53462 552.152 1.66813 552.932L0.223009 553.182ZM422.188 557.807L420.895 557.114C421.78 555.455 422.313 553.668 422.479 551.801L423.94 551.93C423.757 553.996 423.167 555.974 422.188 557.807V557.807ZM4.36471 561.304C2.91739 559.809 1.80164 558.075 1.05047 556.151L2.4171 555.615C3.09711 557.357 4.1065 558.926 5.41811 560.279L4.36471 561.304ZM415.728 564.233L415.045 562.933C416.7 562.059 418.147 560.88 419.342 559.429L420.474 560.365C419.154 561.967 417.557 563.269 415.728 564.233V564.233ZM12.3459 565.692C10.322 565.279 8.42792 564.472 6.71432 563.29L7.54544 562.08C9.09547 563.148 10.8091 563.878 12.6386 564.251L12.3459 565.692ZM15.4049 566H21.2734V564.53H15.4049V566ZM24.2076 566H30.0761V564.53H24.2076V566ZM33.0104 566H38.8789V564.53H33.0104V566ZM41.8132 566H47.6817V564.53H41.8132V566ZM50.6159 566H56.4844V564.53H50.6159V566ZM59.4187 566H65.2872V564.53H59.4187V566ZM68.2215 566H74.09V564.53H68.2215V566ZM77.0242 566H82.8927V564.53H77.0242V566ZM85.827 566H91.6955V564.53H85.827V566ZM94.6298 566H100.498V564.53H94.6298V566ZM103.433 566H109.301V564.53H103.433V566ZM112.235 566H118.104V564.53H112.235V566ZM121.038 566H126.907V564.53H121.038V566ZM129.841 566H135.709V564.53H129.841V566ZM138.644 566H144.512V564.53H138.644V566ZM147.446 566H153.315V564.53H147.446V566ZM156.249 566H162.118V564.53H156.249V566ZM165.052 566H170.92V564.53H165.052V566ZM173.855 566H179.723V564.53H173.855V566ZM182.657 566H188.526V564.53H182.657V566ZM191.46 566H197.329V564.53H191.46V566ZM200.263 566H206.131V564.53H200.263V566ZM209.066 566H214.934V564.53H209.066V566ZM217.869 566H223.737V564.53H217.869V566ZM226.671 566H232.54V564.53H226.671V566ZM235.474 566H241.343V564.53H235.474V566ZM244.277 566H250.145V564.53H244.277V566ZM253.08 566H258.948V564.53H253.08V566ZM261.882 566H267.751V564.53H261.882V566ZM270.685 566H276.554V564.53H270.685V566ZM279.488 566H285.356V564.53H279.488V566ZM288.291 566H294.159V564.53H288.291V566ZM297.093 566H302.962V564.53H297.093V566ZM305.896 566H311.765V564.53H305.896V566ZM314.699 566H320.567V564.53H314.699V566ZM323.502 566H329.37V564.53H323.502V566ZM332.305 566H338.173V564.53H332.305V566ZM341.107 566H346.976V564.53H341.107V566ZM349.91 566H355.779V564.53H349.91V566ZM358.713 566H364.581V564.53H358.713V566ZM367.516 566H373.384V564.53H367.516V566ZM376.318 566H382.187V564.53H376.318V566ZM385.121 566H390.99V564.53H385.121V566ZM393.924 566H399.792V564.53H393.924V566ZM408.595 566H402.727V564.53H408.595C409.91 564.53 411.213 564.344 412.467 563.978L412.877 565.389C411.489 565.795 410.048 566 408.595 566V566Z" fill="#8C8C8C"/>
<path fill-rule="evenodd" clip-rule="evenodd" d="M15.4048 283.735C7.71929 283.735 1.46713 290 1.46713 297.702V409.431C1.46713 417.133 7.71929 423.398 15.4048 423.398H408.595C416.281 423.398 422.533 417.133 422.533 409.431V297.702C422.533 290 416.281 283.735 408.595 283.735H15.4048ZM408.595 424.868H15.4048C6.91091 424.868 0 417.943 0 409.431V297.701C0 289.189 6.91091 282.265 15.4048 282.265H408.595C417.089 282.265 424 289.189 424 297.701V409.431C424 417.943 417.089 424.868 408.595 424.868V424.868Z" fill="#0828BE"/>
<path fill-rule="evenodd" clip-rule="evenodd" d="M211.266 100.704H212.733V94.8232H211.266V100.704ZM211.266 109.525H212.733V103.644H211.266V109.525ZM211.266 118.345H212.733V112.465H211.266V118.345ZM211.266 127.166H212.733V121.286H211.266V127.166ZM211.266 133.091H212.733V130.106H211.266V133.091Z" fill="#8C8C8C"/>
<path fill-rule="evenodd" clip-rule="evenodd" d="M206.567 128.962L212 131.275L217.433 128.962L212 141.868L206.567 128.962Z" fill="#8C8C8C"/>
<path fill-rule="evenodd" clip-rule="evenodd" d="M211.266 241.837H212.733V235.956H211.266V241.837ZM211.266 250.657H212.733V244.777H211.266V250.657ZM211.266 259.478H212.733V253.598H211.266V259.478ZM211.266 268.299H212.733V262.418H211.266V268.299ZM211.266 274.224H212.733V271.239H211.266V274.224Z" fill="#8C8C8C"/>
<path fill-rule="evenodd" clip-rule="evenodd" d="M206.567 270.095L212 272.407L217.433 270.095L212 283L206.567 270.095Z" fill="#8C8C8C"/>
<path fill-rule="evenodd" clip-rule="evenodd" d="M211.266 430.013H212.733V424.132H211.266V430.013ZM211.266 438.834H212.733V432.953H211.266V438.834ZM211.266 447.654H212.733V441.774H211.266V447.654ZM211.266 456.475H212.733V450.595H211.266V456.475ZM211.266 462.401H212.733V459.415H211.266V462.401Z" fill="#8C8C8C"/>
<path fill-rule="evenodd" clip-rule="evenodd" d="M206.567 458.271L212 460.584L217.433 458.271L212 471.177L206.567 458.271Z" fill="#8C8C8C"/>
</g>
</svg>
