<?xml version="1.0" encoding="UTF-8"?>
<svg width="1122px" height="354px" viewBox="0 0 1122 354" version="1.1" xmlns="http://www.w3.org/2000/svg" xmlns:xlink="http://www.w3.org/1999/xlink">
    <!-- Generator: Sketch 52.6 (67491) - http://www.bohemiancoding.com/sketch -->
    <title>about_big</title>
    <desc>Created with Sketch.</desc>
    <g id="Web-Page" stroke="none" stroke-width="1" fill="none" fill-rule="evenodd">
        <g id="05.5-About-XL---1200px-BW" transform="translate(-39.000000, -2702.000000)">
            <g id="about_big" transform="translate(24.000000, 2687.000000)">
                <g id="Group-91-Copy" transform="translate(768.000000, 0.000000)">
                    <path d="M384,192 C384,298.039 298.039,384 192,384 C85.961,384 0,298.039 0,192 C0,85.961 85.961,0 192,0 C298.039,0 384,85.961 384,192" id="Fill-1"></path>
                    <path d="M368,192 C368,289.202 289.202,368 192,368 C94.798,368 16,289.202 16,192 C16,94.798 94.798,16 192,16 C289.202,16 368,94.798 368,192 Z" id="Stroke-3" stroke="#FCBA59"></path>
                    <path d="M364,192 C364,286.993 286.993,364 192,364 C97.007,364 20,286.993 20,192 C20,97.007 97.007,20 192,20 C286.993,20 364,97.007 364,192 Z" id="Stroke-5" stroke="#FCBA59"></path>
                    <path d="M360,192 C360,284.784 284.784,360 192,360 C99.216,360 24,284.784 24,192 C24,99.216 99.216,24 192,24 C284.784,24 360,99.216 360,192 Z" id="Stroke-7" stroke="#FCBA59"></path>
                    <path d="M356,192 C356,282.575 282.575,356 192,356 C101.425,356 28,282.575 28,192 C28,101.425 101.425,28 192,28 C282.575,28 356,101.425 356,192 Z" id="Stroke-9" stroke="#FCBA59"></path>
                    <path d="M352,192 C352,280.366 280.366,352 192,352 C103.634,352 32,280.366 32,192 C32,103.634 103.634,32 192,32 C280.366,32 352,103.634 352,192 Z" id="Stroke-11" stroke="#FCBA59"></path>
                    <path d="M348,192 C348,278.156 278.156,348 192,348 C105.844,348 36,278.156 36,192 C36,105.844 105.844,36 192,36 C278.156,36 348,105.844 348,192 Z" id="Stroke-13" stroke="#FCBA59"></path>
                    <path d="M344,192 C344,275.947 275.947,344 192,344 C108.053,344 40,275.947 40,192 C40,108.053 108.053,40 192,40 C275.947,40 344,108.053 344,192 Z" id="Stroke-15" stroke="#FCBA59"></path>
                    <path d="M340,192 C340,273.738 273.738,340 192,340 C110.262,340 44,273.738 44,192 C44,110.262 110.262,44 192,44 C273.738,44 340,110.262 340,192 Z" id="Stroke-17" stroke="#FCBA59"></path>
                    <path d="M336,192 C336,271.529 271.529,336 192,336 C112.471,336 48,271.529 48,192 C48,112.471 112.471,48 192,48 C271.529,48 336,112.471 336,192 Z" id="Stroke-19" stroke="#FCBA59"></path>
                    <path d="M332,192 C332,269.32 269.32,332 192,332 C114.68,332 52,269.32 52,192 C52,114.68 114.68,52 192,52 C269.32,52 332,114.68 332,192 Z" id="Stroke-21" stroke="#FCBA59"></path>
                    <path d="M324,192 C324,264.902 264.902,324 192,324 C119.098,324 60,264.902 60,192 C60,119.098 119.098,60 192,60 C264.902,60 324,119.098 324,192 Z" id="Stroke-23" stroke="#FCBA59"></path>
                    <path d="M320,192 C320,262.692 262.692,320 192,320 C121.308,320 64,262.692 64,192 C64,121.308 121.308,64 192,64 C262.692,64 320,121.308 320,192 Z" id="Stroke-25" stroke="#FCBA59"></path>
                    <path d="M316,192 C316,260.483 260.483,316 192,316 C123.517,316 68,260.483 68,192 C68,123.517 123.517,68 192,68 C260.483,68 316,123.517 316,192 Z" id="Stroke-27" stroke="#FCBA59"></path>
                    <path d="M312,192 C312,258.274 258.274,312 192,312 C125.726,312 72,258.274 72,192 C72,125.726 125.726,72 192,72 C258.274,72 312,125.726 312,192 Z" id="Stroke-29" stroke="#FCBA59"></path>
                    <path d="M308,192 C308,256.065 256.065,308 192,308 C127.935,308 76,256.065 76,192 C76,127.935 127.935,76 192,76 C256.065,76 308,127.935 308,192 Z" id="Stroke-31" stroke="#FCBA59"></path>
                    <path d="M304,192 C304,253.856 253.856,304 192,304 C130.144,304 80,253.856 80,192 C80,130.144 130.144,80 192,80 C253.856,80 304,130.144 304,192 Z" id="Stroke-33" stroke="#FCBA59"></path>
                    <path d="M300,192 C300,251.647 251.647,300 192,300 C132.353,300 84,251.647 84,192 C84,132.353 132.353,84 192,84 C251.647,84 300,132.353 300,192 Z" id="Stroke-35" stroke="#FCBA59"></path>
                    <path d="M296,192 C296,249.438 249.438,296 192,296 C134.562,296 88,249.438 88,192 C88,134.562 134.562,88 192,88 C249.438,88 296,134.562 296,192 Z" id="Stroke-37" stroke="#FCBA59"></path>
                    <path d="M292,192 C292,247.228 247.228,292 192,292 C136.772,292 92,247.228 92,192 C92,136.772 136.772,92 192,92 C247.228,92 292,136.772 292,192 Z" id="Stroke-39" stroke="#FCBA59"></path>
                    <path d="M288,192 C288,245.019 245.019,288 192,288 C138.981,288 96,245.019 96,192 C96,138.981 138.981,96 192,96 C245.019,96 288,138.981 288,192 Z" id="Stroke-41" stroke="#FCBA59"></path>
                    <path d="M284,192 C284,242.81 242.81,284 192,284 C141.19,284 100,242.81 100,192 C100,141.19 141.19,100 192,100 C242.81,100 284,141.19 284,192 Z" id="Stroke-43" stroke="#FCBA59"></path>
                    <path d="M280,192 C280,240.601 240.601,280 192,280 C143.399,280 104,240.601 104,192 C104,143.399 143.399,104 192,104 C240.601,104 280,143.399 280,192 Z" id="Stroke-45" stroke="#FCBA59"></path>
                    <path d="M276,192 C276,238.392 238.392,276 192,276 C145.608,276 108,238.392 108,192 C108,145.608 145.608,108 192,108 C238.392,108 276,145.608 276,192 Z" id="Stroke-47" stroke="#FCBA59"></path>
                    <path d="M272,192 C272,236.183 236.183,272 192,272 C147.817,272 112,236.183 112,192 C112,147.817 147.817,112 192,112 C236.183,112 272,147.817 272,192 Z" id="Stroke-49" stroke="#FCBA59"></path>
                    <path d="M268,192 C268,233.974 233.974,268 192,268 C150.026,268 116,233.974 116,192 C116,150.026 150.026,116 192,116 C233.974,116 268,150.026 268,192 Z" id="Stroke-51" stroke="#FCBA59"></path>
                    <path d="M264,192 C264,231.764 231.764,264 192,264 C152.236,264 120,231.764 120,192 C120,152.236 152.236,120 192,120 C231.764,120 264,152.236 264,192 Z" id="Stroke-53" stroke="#FCBA59"></path>
                    <path d="M260,192 C260,229.555 229.555,260 192,260 C154.445,260 124,229.555 124,192 C124,154.445 154.445,124 192,124 C229.555,124 260,154.445 260,192 Z" id="Stroke-55" stroke="#FCBA59"></path>
                    <path d="M256,192 C256,227.346 227.346,256 192,256 C156.654,256 128,227.346 128,192 C128,156.654 156.654,128 192,128 C227.346,128 256,156.654 256,192 Z" id="Stroke-57" stroke="#FCBA59"></path>
                    <path d="M252,192 C252,225.137 225.137,252 192,252 C158.863,252 132,225.137 132,192 C132,158.863 158.863,132 192,132 C225.137,132 252,158.863 252,192 Z" id="Stroke-59" stroke="#FCBA59"></path>
                    <path d="M248,192 C248,222.928 222.928,248 192,248 C161.072,248 136,222.928 136,192 C136,161.072 161.072,136 192,136 C222.928,136 248,161.072 248,192 Z" id="Stroke-61" stroke="#FCBA59"></path>
                    <path d="M240,192 C240,218.51 218.51,240 192,240 C165.49,240 144,218.51 144,192 C144,165.49 165.49,144 192,144 C218.51,144 240,165.49 240,192 Z" id="Stroke-63" stroke="#FCBA59"></path>
                    <path d="M244,192 C244,220.719 220.719,244 192,244 C163.281,244 140,220.719 140,192 C140,163.281 163.281,140 192,140 C220.719,140 244,163.281 244,192 Z" id="Stroke-65" stroke="#FCBA59"></path>
                    <path d="M236,192 C236,216.301 216.301,236 192,236 C167.699,236 148,216.301 148,192 C148,167.699 167.699,148 192,148 C216.301,148 236,167.699 236,192 Z" id="Stroke-67" stroke="#FCBA59"></path>
                    <path d="M232,192 C232,214.091 214.091,232 192,232 C169.909,232 152,214.091 152,192 C152,169.909 169.909,152 192,152 C214.091,152 232,169.909 232,192 Z" id="Stroke-69" stroke="#FCBA59"></path>
                    <path d="M228,192 C228,211.882 211.882,228 192,228 C172.118,228 156,211.882 156,192 C156,172.118 172.118,156 192,156 C211.882,156 228,172.118 228,192 Z" id="Stroke-71" stroke="#FCBA59"></path>
                    <path d="M224,192 C224,209.673 209.673,224 192,224 C174.327,224 160,209.673 160,192 C160,174.327 174.327,160 192,160 C209.673,160 224,174.327 224,192 Z" id="Stroke-73" stroke="#FCBA59"></path>
                    <path d="M220,192 C220,207.464 207.464,220 192,220 C176.536,220 164,207.464 164,192 C164,176.536 176.536,164 192,164 C207.464,164 220,176.536 220,192 Z" id="Stroke-75" stroke="#FCBA59"></path>
                    <path d="M216,192 C216,205.255 205.255,216 192,216 C178.745,216 168,205.255 168,192 C168,178.745 178.745,168 192,168 C205.255,168 216,178.745 216,192 Z" id="Stroke-77" stroke="#FCBA59"></path>
                    <path d="M212,192 C212,203.046 203.046,212 192,212 C180.954,212 172,203.046 172,192 C172,180.954 180.954,172 192,172 C203.046,172 212,180.954 212,192 Z" id="Stroke-79" stroke="#FCBA59"></path>
                    <path d="M208,192 C208,200.837 200.837,208 192,208 C183.163,208 176,200.837 176,192 C176,183.163 183.163,176 192,176 C200.837,176 208,183.163 208,192 Z" id="Stroke-81" stroke="#FCBA59"></path>
                    <path d="M204,192 C204,198.627 198.627,204 192,204 C185.373,204 180,198.627 180,192 C180,185.373 185.373,180 192,180 C198.627,180 204,185.373 204,192 Z" id="Stroke-83" stroke="#FCBA59"></path>
                    <path d="M200,192 C200,196.418 196.418,200 192,200 C187.582,200 184,196.418 184,192 C184,187.582 187.582,184 192,184 C196.418,184 200,187.582 200,192 Z" id="Stroke-85" stroke="#FCBA59"></path>
                    <path d="M196,192 C196,194.209 194.209,196 192,196 C189.791,196 188,194.209 188,192 C188,189.791 189.791,188 192,188 C194.209,188 196,189.791 196,192 Z" id="Stroke-87" stroke="#FCBA59"></path>
                    <path d="M328,192 C328,267.111 267.111,328 192,328 C116.889,328 56,267.111 56,192 C56,116.889 116.889,56 192,56 C267.111,56 328,116.889 328,192 Z" id="Stroke-89" stroke="#FCBA59"></path>
                </g>
                <g id="Group-91-Copy-2">
                    <path d="M384,192 C384,298.039 298.039,384 192,384 C85.961,384 0,298.039 0,192 C0,85.961 85.961,0 192,0 C298.039,0 384,85.961 384,192" id="Fill-1"></path>
                    <path d="M368,192 C368,289.202 289.202,368 192,368 C94.798,368 16,289.202 16,192 C16,94.798 94.798,16 192,16 C289.202,16 368,94.798 368,192 Z" id="Stroke-3" stroke="#FCBA59"></path>
                    <path d="M364,192 C364,286.993 286.993,364 192,364 C97.007,364 20,286.993 20,192 C20,97.007 97.007,20 192,20 C286.993,20 364,97.007 364,192 Z" id="Stroke-5" stroke="#FCBA59"></path>
                    <path d="M360,192 C360,284.784 284.784,360 192,360 C99.216,360 24,284.784 24,192 C24,99.216 99.216,24 192,24 C284.784,24 360,99.216 360,192 Z" id="Stroke-7" stroke="#FCBA59"></path>
                    <path d="M356,192 C356,282.575 282.575,356 192,356 C101.425,356 28,282.575 28,192 C28,101.425 101.425,28 192,28 C282.575,28 356,101.425 356,192 Z" id="Stroke-9" stroke="#FCBA59"></path>
                    <path d="M352,192 C352,280.366 280.366,352 192,352 C103.634,352 32,280.366 32,192 C32,103.634 103.634,32 192,32 C280.366,32 352,103.634 352,192 Z" id="Stroke-11" stroke="#FCBA59"></path>
                    <path d="M348,192 C348,278.156 278.156,348 192,348 C105.844,348 36,278.156 36,192 C36,105.844 105.844,36 192,36 C278.156,36 348,105.844 348,192 Z" id="Stroke-13" stroke="#FCBA59"></path>
                    <path d="M344,192 C344,275.947 275.947,344 192,344 C108.053,344 40,275.947 40,192 C40,108.053 108.053,40 192,40 C275.947,40 344,108.053 344,192 Z" id="Stroke-15" stroke="#FCBA59"></path>
                    <path d="M340,192 C340,273.738 273.738,340 192,340 C110.262,340 44,273.738 44,192 C44,110.262 110.262,44 192,44 C273.738,44 340,110.262 340,192 Z" id="Stroke-17" stroke="#FCBA59"></path>
                    <path d="M336,192 C336,271.529 271.529,336 192,336 C112.471,336 48,271.529 48,192 C48,112.471 112.471,48 192,48 C271.529,48 336,112.471 336,192 Z" id="Stroke-19" stroke="#FCBA59"></path>
                    <path d="M332,192 C332,269.32 269.32,332 192,332 C114.68,332 52,269.32 52,192 C52,114.68 114.68,52 192,52 C269.32,52 332,114.68 332,192 Z" id="Stroke-21" stroke="#FCBA59"></path>
                    <path d="M324,192 C324,264.902 264.902,324 192,324 C119.098,324 60,264.902 60,192 C60,119.098 119.098,60 192,60 C264.902,60 324,119.098 324,192 Z" id="Stroke-23" stroke="#FCBA59"></path>
                    <path d="M320,192 C320,262.692 262.692,320 192,320 C121.308,320 64,262.692 64,192 C64,121.308 121.308,64 192,64 C262.692,64 320,121.308 320,192 Z" id="Stroke-25" stroke="#FCBA59"></path>
                    <path d="M316,192 C316,260.483 260.483,316 192,316 C123.517,316 68,260.483 68,192 C68,123.517 123.517,68 192,68 C260.483,68 316,123.517 316,192 Z" id="Stroke-27" stroke="#FCBA59"></path>
                    <path d="M312,192 C312,258.274 258.274,312 192,312 C125.726,312 72,258.274 72,192 C72,125.726 125.726,72 192,72 C258.274,72 312,125.726 312,192 Z" id="Stroke-29" stroke="#FCBA59"></path>
                    <path d="M308,192 C308,256.065 256.065,308 192,308 C127.935,308 76,256.065 76,192 C76,127.935 127.935,76 192,76 C256.065,76 308,127.935 308,192 Z" id="Stroke-31" stroke="#FCBA59"></path>
                    <path d="M304,192 C304,253.856 253.856,304 192,304 C130.144,304 80,253.856 80,192 C80,130.144 130.144,80 192,80 C253.856,80 304,130.144 304,192 Z" id="Stroke-33" stroke="#FCBA59"></path>
                    <path d="M300,192 C300,251.647 251.647,300 192,300 C132.353,300 84,251.647 84,192 C84,132.353 132.353,84 192,84 C251.647,84 300,132.353 300,192 Z" id="Stroke-35" stroke="#FCBA59"></path>
                    <path d="M296,192 C296,249.438 249.438,296 192,296 C134.562,296 88,249.438 88,192 C88,134.562 134.562,88 192,88 C249.438,88 296,134.562 296,192 Z" id="Stroke-37" stroke="#FCBA59"></path>
                    <path d="M292,192 C292,247.228 247.228,292 192,292 C136.772,292 92,247.228 92,192 C92,136.772 136.772,92 192,92 C247.228,92 292,136.772 292,192 Z" id="Stroke-39" stroke="#FCBA59"></path>
                    <path d="M288,192 C288,245.019 245.019,288 192,288 C138.981,288 96,245.019 96,192 C96,138.981 138.981,96 192,96 C245.019,96 288,138.981 288,192 Z" id="Stroke-41" stroke="#FCBA59"></path>
                    <path d="M284,192 C284,242.81 242.81,284 192,284 C141.19,284 100,242.81 100,192 C100,141.19 141.19,100 192,100 C242.81,100 284,141.19 284,192 Z" id="Stroke-43" stroke="#FCBA59"></path>
                    <path d="M280,192 C280,240.601 240.601,280 192,280 C143.399,280 104,240.601 104,192 C104,143.399 143.399,104 192,104 C240.601,104 280,143.399 280,192 Z" id="Stroke-45" stroke="#FCBA59"></path>
                    <path d="M276,192 C276,238.392 238.392,276 192,276 C145.608,276 108,238.392 108,192 C108,145.608 145.608,108 192,108 C238.392,108 276,145.608 276,192 Z" id="Stroke-47" stroke="#FCBA59"></path>
                    <path d="M272,192 C272,236.183 236.183,272 192,272 C147.817,272 112,236.183 112,192 C112,147.817 147.817,112 192,112 C236.183,112 272,147.817 272,192 Z" id="Stroke-49" stroke="#FCBA59"></path>
                    <path d="M268,192 C268,233.974 233.974,268 192,268 C150.026,268 116,233.974 116,192 C116,150.026 150.026,116 192,116 C233.974,116 268,150.026 268,192 Z" id="Stroke-51" stroke="#FCBA59"></path>
                    <path d="M264,192 C264,231.764 231.764,264 192,264 C152.236,264 120,231.764 120,192 C120,152.236 152.236,120 192,120 C231.764,120 264,152.236 264,192 Z" id="Stroke-53" stroke="#FCBA59"></path>
                    <path d="M260,192 C260,229.555 229.555,260 192,260 C154.445,260 124,229.555 124,192 C124,154.445 154.445,124 192,124 C229.555,124 260,154.445 260,192 Z" id="Stroke-55" stroke="#FCBA59"></path>
                    <path d="M256,192 C256,227.346 227.346,256 192,256 C156.654,256 128,227.346 128,192 C128,156.654 156.654,128 192,128 C227.346,128 256,156.654 256,192 Z" id="Stroke-57" stroke="#FCBA59"></path>
                    <path d="M252,192 C252,225.137 225.137,252 192,252 C158.863,252 132,225.137 132,192 C132,158.863 158.863,132 192,132 C225.137,132 252,158.863 252,192 Z" id="Stroke-59" stroke="#FCBA59"></path>
                    <path d="M248,192 C248,222.928 222.928,248 192,248 C161.072,248 136,222.928 136,192 C136,161.072 161.072,136 192,136 C222.928,136 248,161.072 248,192 Z" id="Stroke-61" stroke="#FCBA59"></path>
                    <path d="M240,192 C240,218.51 218.51,240 192,240 C165.49,240 144,218.51 144,192 C144,165.49 165.49,144 192,144 C218.51,144 240,165.49 240,192 Z" id="Stroke-63" stroke="#FCBA59"></path>
                    <path d="M244,192 C244,220.719 220.719,244 192,244 C163.281,244 140,220.719 140,192 C140,163.281 163.281,140 192,140 C220.719,140 244,163.281 244,192 Z" id="Stroke-65" stroke="#FCBA59"></path>
                    <path d="M236,192 C236,216.301 216.301,236 192,236 C167.699,236 148,216.301 148,192 C148,167.699 167.699,148 192,148 C216.301,148 236,167.699 236,192 Z" id="Stroke-67" stroke="#FCBA59"></path>
                    <path d="M232,192 C232,214.091 214.091,232 192,232 C169.909,232 152,214.091 152,192 C152,169.909 169.909,152 192,152 C214.091,152 232,169.909 232,192 Z" id="Stroke-69" stroke="#FCBA59"></path>
                    <path d="M228,192 C228,211.882 211.882,228 192,228 C172.118,228 156,211.882 156,192 C156,172.118 172.118,156 192,156 C211.882,156 228,172.118 228,192 Z" id="Stroke-71" stroke="#FCBA59"></path>
                    <path d="M224,192 C224,209.673 209.673,224 192,224 C174.327,224 160,209.673 160,192 C160,174.327 174.327,160 192,160 C209.673,160 224,174.327 224,192 Z" id="Stroke-73" stroke="#FCBA59"></path>
                    <path d="M220,192 C220,207.464 207.464,220 192,220 C176.536,220 164,207.464 164,192 C164,176.536 176.536,164 192,164 C207.464,164 220,176.536 220,192 Z" id="Stroke-75" stroke="#FCBA59"></path>
                    <path d="M216,192 C216,205.255 205.255,216 192,216 C178.745,216 168,205.255 168,192 C168,178.745 178.745,168 192,168 C205.255,168 216,178.745 216,192 Z" id="Stroke-77" stroke="#FCBA59"></path>
                    <path d="M212,192 C212,203.046 203.046,212 192,212 C180.954,212 172,203.046 172,192 C172,180.954 180.954,172 192,172 C203.046,172 212,180.954 212,192 Z" id="Stroke-79" stroke="#FCBA59"></path>
                    <path d="M208,192 C208,200.837 200.837,208 192,208 C183.163,208 176,200.837 176,192 C176,183.163 183.163,176 192,176 C200.837,176 208,183.163 208,192 Z" id="Stroke-81" stroke="#FCBA59"></path>
                    <path d="M204,192 C204,198.627 198.627,204 192,204 C185.373,204 180,198.627 180,192 C180,185.373 185.373,180 192,180 C198.627,180 204,185.373 204,192 Z" id="Stroke-83" stroke="#FCBA59"></path>
                    <path d="M200,192 C200,196.418 196.418,200 192,200 C187.582,200 184,196.418 184,192 C184,187.582 187.582,184 192,184 C196.418,184 200,187.582 200,192 Z" id="Stroke-85" stroke="#FCBA59"></path>
                    <path d="M196,192 C196,194.209 194.209,196 192,196 C189.791,196 188,194.209 188,192 C188,189.791 189.791,188 192,188 C194.209,188 196,189.791 196,192 Z" id="Stroke-87" stroke="#FCBA59"></path>
                    <path d="M328,192 C328,267.111 267.111,328 192,328 C116.889,328 56,267.111 56,192 C56,116.889 116.889,56 192,56 C267.111,56 328,116.889 328,192 Z" id="Stroke-89" stroke="#FCBA59"></path>
                </g>
                <g id="Group-91-Copy-3" transform="translate(256.000000, 0.000000)">
                    <path d="M384,192 C384,298.039 298.039,384 192,384 C85.961,384 0,298.039 0,192 C0,85.961 85.961,0 192,0 C298.039,0 384,85.961 384,192" id="Fill-1"></path>
                    <path d="M368,192 C368,289.202 289.202,368 192,368 C94.798,368 16,289.202 16,192 C16,94.798 94.798,16 192,16 C289.202,16 368,94.798 368,192 Z" id="Stroke-3" stroke="#FCBA59"></path>
                    <path d="M364,192 C364,286.993 286.993,364 192,364 C97.007,364 20,286.993 20,192 C20,97.007 97.007,20 192,20 C286.993,20 364,97.007 364,192 Z" id="Stroke-5" stroke="#FCBA59"></path>
                    <path d="M360,192 C360,284.784 284.784,360 192,360 C99.216,360 24,284.784 24,192 C24,99.216 99.216,24 192,24 C284.784,24 360,99.216 360,192 Z" id="Stroke-7" stroke="#FCBA59"></path>
                    <path d="M356,192 C356,282.575 282.575,356 192,356 C101.425,356 28,282.575 28,192 C28,101.425 101.425,28 192,28 C282.575,28 356,101.425 356,192 Z" id="Stroke-9" stroke="#FCBA59"></path>
                    <path d="M352,192 C352,280.366 280.366,352 192,352 C103.634,352 32,280.366 32,192 C32,103.634 103.634,32 192,32 C280.366,32 352,103.634 352,192 Z" id="Stroke-11" stroke="#FCBA59"></path>
                    <path d="M348,192 C348,278.156 278.156,348 192,348 C105.844,348 36,278.156 36,192 C36,105.844 105.844,36 192,36 C278.156,36 348,105.844 348,192 Z" id="Stroke-13" stroke="#FCBA59"></path>
                    <path d="M344,192 C344,275.947 275.947,344 192,344 C108.053,344 40,275.947 40,192 C40,108.053 108.053,40 192,40 C275.947,40 344,108.053 344,192 Z" id="Stroke-15" stroke="#FCBA59"></path>
                    <path d="M340,192 C340,273.738 273.738,340 192,340 C110.262,340 44,273.738 44,192 C44,110.262 110.262,44 192,44 C273.738,44 340,110.262 340,192 Z" id="Stroke-17" stroke="#FCBA59"></path>
                    <path d="M336,192 C336,271.529 271.529,336 192,336 C112.471,336 48,271.529 48,192 C48,112.471 112.471,48 192,48 C271.529,48 336,112.471 336,192 Z" id="Stroke-19" stroke="#FCBA59"></path>
                    <path d="M332,192 C332,269.32 269.32,332 192,332 C114.68,332 52,269.32 52,192 C52,114.68 114.68,52 192,52 C269.32,52 332,114.68 332,192 Z" id="Stroke-21" stroke="#FCBA59"></path>
                    <path d="M324,192 C324,264.902 264.902,324 192,324 C119.098,324 60,264.902 60,192 C60,119.098 119.098,60 192,60 C264.902,60 324,119.098 324,192 Z" id="Stroke-23" stroke="#FCBA59"></path>
                    <path d="M320,192 C320,262.692 262.692,320 192,320 C121.308,320 64,262.692 64,192 C64,121.308 121.308,64 192,64 C262.692,64 320,121.308 320,192 Z" id="Stroke-25" stroke="#FCBA59"></path>
                    <path d="M316,192 C316,260.483 260.483,316 192,316 C123.517,316 68,260.483 68,192 C68,123.517 123.517,68 192,68 C260.483,68 316,123.517 316,192 Z" id="Stroke-27" stroke="#FCBA59"></path>
                    <path d="M312,192 C312,258.274 258.274,312 192,312 C125.726,312 72,258.274 72,192 C72,125.726 125.726,72 192,72 C258.274,72 312,125.726 312,192 Z" id="Stroke-29" stroke="#FCBA59"></path>
                    <path d="M308,192 C308,256.065 256.065,308 192,308 C127.935,308 76,256.065 76,192 C76,127.935 127.935,76 192,76 C256.065,76 308,127.935 308,192 Z" id="Stroke-31" stroke="#FCBA59"></path>
                    <path d="M304,192 C304,253.856 253.856,304 192,304 C130.144,304 80,253.856 80,192 C80,130.144 130.144,80 192,80 C253.856,80 304,130.144 304,192 Z" id="Stroke-33" stroke="#FCBA59"></path>
                    <path d="M300,192 C300,251.647 251.647,300 192,300 C132.353,300 84,251.647 84,192 C84,132.353 132.353,84 192,84 C251.647,84 300,132.353 300,192 Z" id="Stroke-35" stroke="#FCBA59"></path>
                    <path d="M296,192 C296,249.438 249.438,296 192,296 C134.562,296 88,249.438 88,192 C88,134.562 134.562,88 192,88 C249.438,88 296,134.562 296,192 Z" id="Stroke-37" stroke="#FCBA59"></path>
                    <path d="M292,192 C292,247.228 247.228,292 192,292 C136.772,292 92,247.228 92,192 C92,136.772 136.772,92 192,92 C247.228,92 292,136.772 292,192 Z" id="Stroke-39" stroke="#FCBA59"></path>
                    <path d="M288,192 C288,245.019 245.019,288 192,288 C138.981,288 96,245.019 96,192 C96,138.981 138.981,96 192,96 C245.019,96 288,138.981 288,192 Z" id="Stroke-41" stroke="#FCBA59"></path>
                    <path d="M284,192 C284,242.81 242.81,284 192,284 C141.19,284 100,242.81 100,192 C100,141.19 141.19,100 192,100 C242.81,100 284,141.19 284,192 Z" id="Stroke-43" stroke="#FCBA59"></path>
                    <path d="M280,192 C280,240.601 240.601,280 192,280 C143.399,280 104,240.601 104,192 C104,143.399 143.399,104 192,104 C240.601,104 280,143.399 280,192 Z" id="Stroke-45" stroke="#FCBA59"></path>
                    <path d="M276,192 C276,238.392 238.392,276 192,276 C145.608,276 108,238.392 108,192 C108,145.608 145.608,108 192,108 C238.392,108 276,145.608 276,192 Z" id="Stroke-47" stroke="#FCBA59"></path>
                    <path d="M272,192 C272,236.183 236.183,272 192,272 C147.817,272 112,236.183 112,192 C112,147.817 147.817,112 192,112 C236.183,112 272,147.817 272,192 Z" id="Stroke-49" stroke="#FCBA59"></path>
                    <path d="M268,192 C268,233.974 233.974,268 192,268 C150.026,268 116,233.974 116,192 C116,150.026 150.026,116 192,116 C233.974,116 268,150.026 268,192 Z" id="Stroke-51" stroke="#FCBA59"></path>
                    <path d="M264,192 C264,231.764 231.764,264 192,264 C152.236,264 120,231.764 120,192 C120,152.236 152.236,120 192,120 C231.764,120 264,152.236 264,192 Z" id="Stroke-53" stroke="#FCBA59"></path>
                    <path d="M260,192 C260,229.555 229.555,260 192,260 C154.445,260 124,229.555 124,192 C124,154.445 154.445,124 192,124 C229.555,124 260,154.445 260,192 Z" id="Stroke-55" stroke="#FCBA59"></path>
                    <path d="M256,192 C256,227.346 227.346,256 192,256 C156.654,256 128,227.346 128,192 C128,156.654 156.654,128 192,128 C227.346,128 256,156.654 256,192 Z" id="Stroke-57" stroke="#FCBA59"></path>
                    <path d="M252,192 C252,225.137 225.137,252 192,252 C158.863,252 132,225.137 132,192 C132,158.863 158.863,132 192,132 C225.137,132 252,158.863 252,192 Z" id="Stroke-59" stroke="#FCBA59"></path>
                    <path d="M248,192 C248,222.928 222.928,248 192,248 C161.072,248 136,222.928 136,192 C136,161.072 161.072,136 192,136 C222.928,136 248,161.072 248,192 Z" id="Stroke-61" stroke="#FCBA59"></path>
                    <path d="M240,192 C240,218.51 218.51,240 192,240 C165.49,240 144,218.51 144,192 C144,165.49 165.49,144 192,144 C218.51,144 240,165.49 240,192 Z" id="Stroke-63" stroke="#FCBA59"></path>
                    <path d="M244,192 C244,220.719 220.719,244 192,244 C163.281,244 140,220.719 140,192 C140,163.281 163.281,140 192,140 C220.719,140 244,163.281 244,192 Z" id="Stroke-65" stroke="#FCBA59"></path>
                    <path d="M236,192 C236,216.301 216.301,236 192,236 C167.699,236 148,216.301 148,192 C148,167.699 167.699,148 192,148 C216.301,148 236,167.699 236,192 Z" id="Stroke-67" stroke="#FCBA59"></path>
                    <path d="M232,192 C232,214.091 214.091,232 192,232 C169.909,232 152,214.091 152,192 C152,169.909 169.909,152 192,152 C214.091,152 232,169.909 232,192 Z" id="Stroke-69" stroke="#FCBA59"></path>
                    <path d="M228,192 C228,211.882 211.882,228 192,228 C172.118,228 156,211.882 156,192 C156,172.118 172.118,156 192,156 C211.882,156 228,172.118 228,192 Z" id="Stroke-71" stroke="#FCBA59"></path>
                    <path d="M224,192 C224,209.673 209.673,224 192,224 C174.327,224 160,209.673 160,192 C160,174.327 174.327,160 192,160 C209.673,160 224,174.327 224,192 Z" id="Stroke-73" stroke="#FCBA59"></path>
                    <path d="M220,192 C220,207.464 207.464,220 192,220 C176.536,220 164,207.464 164,192 C164,176.536 176.536,164 192,164 C207.464,164 220,176.536 220,192 Z" id="Stroke-75" stroke="#FCBA59"></path>
                    <path d="M216,192 C216,205.255 205.255,216 192,216 C178.745,216 168,205.255 168,192 C168,178.745 178.745,168 192,168 C205.255,168 216,178.745 216,192 Z" id="Stroke-77" stroke="#FCBA59"></path>
                    <path d="M212,192 C212,203.046 203.046,212 192,212 C180.954,212 172,203.046 172,192 C172,180.954 180.954,172 192,172 C203.046,172 212,180.954 212,192 Z" id="Stroke-79" stroke="#FCBA59"></path>
                    <path d="M208,192 C208,200.837 200.837,208 192,208 C183.163,208 176,200.837 176,192 C176,183.163 183.163,176 192,176 C200.837,176 208,183.163 208,192 Z" id="Stroke-81" stroke="#FCBA59"></path>
                    <path d="M204,192 C204,198.627 198.627,204 192,204 C185.373,204 180,198.627 180,192 C180,185.373 185.373,180 192,180 C198.627,180 204,185.373 204,192 Z" id="Stroke-83" stroke="#FCBA59"></path>
                    <path d="M200,192 C200,196.418 196.418,200 192,200 C187.582,200 184,196.418 184,192 C184,187.582 187.582,184 192,184 C196.418,184 200,187.582 200,192 Z" id="Stroke-85" stroke="#FCBA59"></path>
                    <path d="M196,192 C196,194.209 194.209,196 192,196 C189.791,196 188,194.209 188,192 C188,189.791 189.791,188 192,188 C194.209,188 196,189.791 196,192 Z" id="Stroke-87" stroke="#FCBA59"></path>
                    <path d="M328,192 C328,267.111 267.111,328 192,328 C116.889,328 56,267.111 56,192 C56,116.889 116.889,56 192,56 C267.111,56 328,116.889 328,192 Z" id="Stroke-89" stroke="#FCBA59"></path>
                </g>
                <g id="Group-91-Copy-4" transform="translate(512.000000, 0.000000)">
                    <path d="M384,192 C384,298.039 298.039,384 192,384 C85.961,384 0,298.039 0,192 C0,85.961 85.961,0 192,0 C298.039,0 384,85.961 384,192" id="Fill-1"></path>
                    <path d="M368,192 C368,289.202 289.202,368 192,368 C94.798,368 16,289.202 16,192 C16,94.798 94.798,16 192,16 C289.202,16 368,94.798 368,192 Z" id="Stroke-3" stroke="#FCBA59"></path>
                    <path d="M364,192 C364,286.993 286.993,364 192,364 C97.007,364 20,286.993 20,192 C20,97.007 97.007,20 192,20 C286.993,20 364,97.007 364,192 Z" id="Stroke-5" stroke="#FCBA59"></path>
                    <path d="M360,192 C360,284.784 284.784,360 192,360 C99.216,360 24,284.784 24,192 C24,99.216 99.216,24 192,24 C284.784,24 360,99.216 360,192 Z" id="Stroke-7" stroke="#FCBA59"></path>
                    <path d="M356,192 C356,282.575 282.575,356 192,356 C101.425,356 28,282.575 28,192 C28,101.425 101.425,28 192,28 C282.575,28 356,101.425 356,192 Z" id="Stroke-9" stroke="#FCBA59"></path>
                    <path d="M352,192 C352,280.366 280.366,352 192,352 C103.634,352 32,280.366 32,192 C32,103.634 103.634,32 192,32 C280.366,32 352,103.634 352,192 Z" id="Stroke-11" stroke="#FCBA59"></path>
                    <path d="M348,192 C348,278.156 278.156,348 192,348 C105.844,348 36,278.156 36,192 C36,105.844 105.844,36 192,36 C278.156,36 348,105.844 348,192 Z" id="Stroke-13" stroke="#FCBA59"></path>
                    <path d="M344,192 C344,275.947 275.947,344 192,344 C108.053,344 40,275.947 40,192 C40,108.053 108.053,40 192,40 C275.947,40 344,108.053 344,192 Z" id="Stroke-15" stroke="#FCBA59"></path>
                    <path d="M340,192 C340,273.738 273.738,340 192,340 C110.262,340 44,273.738 44,192 C44,110.262 110.262,44 192,44 C273.738,44 340,110.262 340,192 Z" id="Stroke-17" stroke="#FCBA59"></path>
                    <path d="M336,192 C336,271.529 271.529,336 192,336 C112.471,336 48,271.529 48,192 C48,112.471 112.471,48 192,48 C271.529,48 336,112.471 336,192 Z" id="Stroke-19" stroke="#FCBA59"></path>
                    <path d="M332,192 C332,269.32 269.32,332 192,332 C114.68,332 52,269.32 52,192 C52,114.68 114.68,52 192,52 C269.32,52 332,114.68 332,192 Z" id="Stroke-21" stroke="#FCBA59"></path>
                    <path d="M324,192 C324,264.902 264.902,324 192,324 C119.098,324 60,264.902 60,192 C60,119.098 119.098,60 192,60 C264.902,60 324,119.098 324,192 Z" id="Stroke-23" stroke="#FCBA59"></path>
                    <path d="M320,192 C320,262.692 262.692,320 192,320 C121.308,320 64,262.692 64,192 C64,121.308 121.308,64 192,64 C262.692,64 320,121.308 320,192 Z" id="Stroke-25" stroke="#FCBA59"></path>
                    <path d="M316,192 C316,260.483 260.483,316 192,316 C123.517,316 68,260.483 68,192 C68,123.517 123.517,68 192,68 C260.483,68 316,123.517 316,192 Z" id="Stroke-27" stroke="#FCBA59"></path>
                    <path d="M312,192 C312,258.274 258.274,312 192,312 C125.726,312 72,258.274 72,192 C72,125.726 125.726,72 192,72 C258.274,72 312,125.726 312,192 Z" id="Stroke-29" stroke="#FCBA59"></path>
                    <path d="M308,192 C308,256.065 256.065,308 192,308 C127.935,308 76,256.065 76,192 C76,127.935 127.935,76 192,76 C256.065,76 308,127.935 308,192 Z" id="Stroke-31" stroke="#FCBA59"></path>
                    <path d="M304,192 C304,253.856 253.856,304 192,304 C130.144,304 80,253.856 80,192 C80,130.144 130.144,80 192,80 C253.856,80 304,130.144 304,192 Z" id="Stroke-33" stroke="#FCBA59"></path>
                    <path d="M300,192 C300,251.647 251.647,300 192,300 C132.353,300 84,251.647 84,192 C84,132.353 132.353,84 192,84 C251.647,84 300,132.353 300,192 Z" id="Stroke-35" stroke="#FCBA59"></path>
                    <path d="M296,192 C296,249.438 249.438,296 192,296 C134.562,296 88,249.438 88,192 C88,134.562 134.562,88 192,88 C249.438,88 296,134.562 296,192 Z" id="Stroke-37" stroke="#FCBA59"></path>
                    <path d="M292,192 C292,247.228 247.228,292 192,292 C136.772,292 92,247.228 92,192 C92,136.772 136.772,92 192,92 C247.228,92 292,136.772 292,192 Z" id="Stroke-39" stroke="#FCBA59"></path>
                    <path d="M288,192 C288,245.019 245.019,288 192,288 C138.981,288 96,245.019 96,192 C96,138.981 138.981,96 192,96 C245.019,96 288,138.981 288,192 Z" id="Stroke-41" stroke="#FCBA59"></path>
                    <path d="M284,192 C284,242.81 242.81,284 192,284 C141.19,284 100,242.81 100,192 C100,141.19 141.19,100 192,100 C242.81,100 284,141.19 284,192 Z" id="Stroke-43" stroke="#FCBA59"></path>
                    <path d="M280,192 C280,240.601 240.601,280 192,280 C143.399,280 104,240.601 104,192 C104,143.399 143.399,104 192,104 C240.601,104 280,143.399 280,192 Z" id="Stroke-45" stroke="#FCBA59"></path>
                    <path d="M276,192 C276,238.392 238.392,276 192,276 C145.608,276 108,238.392 108,192 C108,145.608 145.608,108 192,108 C238.392,108 276,145.608 276,192 Z" id="Stroke-47" stroke="#FCBA59"></path>
                    <path d="M272,192 C272,236.183 236.183,272 192,272 C147.817,272 112,236.183 112,192 C112,147.817 147.817,112 192,112 C236.183,112 272,147.817 272,192 Z" id="Stroke-49" stroke="#FCBA59"></path>
                    <path d="M268,192 C268,233.974 233.974,268 192,268 C150.026,268 116,233.974 116,192 C116,150.026 150.026,116 192,116 C233.974,116 268,150.026 268,192 Z" id="Stroke-51" stroke="#FCBA59"></path>
                    <path d="M264,192 C264,231.764 231.764,264 192,264 C152.236,264 120,231.764 120,192 C120,152.236 152.236,120 192,120 C231.764,120 264,152.236 264,192 Z" id="Stroke-53" stroke="#FCBA59"></path>
                    <path d="M260,192 C260,229.555 229.555,260 192,260 C154.445,260 124,229.555 124,192 C124,154.445 154.445,124 192,124 C229.555,124 260,154.445 260,192 Z" id="Stroke-55" stroke="#FCBA59"></path>
                    <path d="M256,192 C256,227.346 227.346,256 192,256 C156.654,256 128,227.346 128,192 C128,156.654 156.654,128 192,128 C227.346,128 256,156.654 256,192 Z" id="Stroke-57" stroke="#FCBA59"></path>
                    <path d="M252,192 C252,225.137 225.137,252 192,252 C158.863,252 132,225.137 132,192 C132,158.863 158.863,132 192,132 C225.137,132 252,158.863 252,192 Z" id="Stroke-59" stroke="#FCBA59"></path>
                    <path d="M248,192 C248,222.928 222.928,248 192,248 C161.072,248 136,222.928 136,192 C136,161.072 161.072,136 192,136 C222.928,136 248,161.072 248,192 Z" id="Stroke-61" stroke="#FCBA59"></path>
                    <path d="M240,192 C240,218.51 218.51,240 192,240 C165.49,240 144,218.51 144,192 C144,165.49 165.49,144 192,144 C218.51,144 240,165.49 240,192 Z" id="Stroke-63" stroke="#FCBA59"></path>
                    <path d="M244,192 C244,220.719 220.719,244 192,244 C163.281,244 140,220.719 140,192 C140,163.281 163.281,140 192,140 C220.719,140 244,163.281 244,192 Z" id="Stroke-65" stroke="#FCBA59"></path>
                    <path d="M236,192 C236,216.301 216.301,236 192,236 C167.699,236 148,216.301 148,192 C148,167.699 167.699,148 192,148 C216.301,148 236,167.699 236,192 Z" id="Stroke-67" stroke="#FCBA59"></path>
                    <path d="M232,192 C232,214.091 214.091,232 192,232 C169.909,232 152,214.091 152,192 C152,169.909 169.909,152 192,152 C214.091,152 232,169.909 232,192 Z" id="Stroke-69" stroke="#FCBA59"></path>
                    <path d="M228,192 C228,211.882 211.882,228 192,228 C172.118,228 156,211.882 156,192 C156,172.118 172.118,156 192,156 C211.882,156 228,172.118 228,192 Z" id="Stroke-71" stroke="#FCBA59"></path>
                    <path d="M224,192 C224,209.673 209.673,224 192,224 C174.327,224 160,209.673 160,192 C160,174.327 174.327,160 192,160 C209.673,160 224,174.327 224,192 Z" id="Stroke-73" stroke="#FCBA59"></path>
                    <path d="M220,192 C220,207.464 207.464,220 192,220 C176.536,220 164,207.464 164,192 C164,176.536 176.536,164 192,164 C207.464,164 220,176.536 220,192 Z" id="Stroke-75" stroke="#FCBA59"></path>
                    <path d="M216,192 C216,205.255 205.255,216 192,216 C178.745,216 168,205.255 168,192 C168,178.745 178.745,168 192,168 C205.255,168 216,178.745 216,192 Z" id="Stroke-77" stroke="#FCBA59"></path>
                    <path d="M212,192 C212,203.046 203.046,212 192,212 C180.954,212 172,203.046 172,192 C172,180.954 180.954,172 192,172 C203.046,172 212,180.954 212,192 Z" id="Stroke-79" stroke="#FCBA59"></path>
                    <path d="M208,192 C208,200.837 200.837,208 192,208 C183.163,208 176,200.837 176,192 C176,183.163 183.163,176 192,176 C200.837,176 208,183.163 208,192 Z" id="Stroke-81" stroke="#FCBA59"></path>
                    <path d="M204,192 C204,198.627 198.627,204 192,204 C185.373,204 180,198.627 180,192 C180,185.373 185.373,180 192,180 C198.627,180 204,185.373 204,192 Z" id="Stroke-83" stroke="#FCBA59"></path>
                    <path d="M200,192 C200,196.418 196.418,200 192,200 C187.582,200 184,196.418 184,192 C184,187.582 187.582,184 192,184 C196.418,184 200,187.582 200,192 Z" id="Stroke-85" stroke="#FCBA59"></path>
                    <path d="M196,192 C196,194.209 194.209,196 192,196 C189.791,196 188,194.209 188,192 C188,189.791 189.791,188 192,188 C194.209,188 196,189.791 196,192 Z" id="Stroke-87" stroke="#FCBA59"></path>
                    <path d="M328,192 C328,267.111 267.111,328 192,328 C116.889,328 56,267.111 56,192 C56,116.889 116.889,56 192,56 C267.111,56 328,116.889 328,192 Z" id="Stroke-89" stroke="#FCBA59"></path>
                </g>
            </g>
        </g>
    </g>
</svg>