<svg width="303" height="244" viewBox="0 0 303 244" fill="none" xmlns="http://www.w3.org/2000/svg">
<path d="M204.563 74.8121C203.731 77.0111 168.784 54.938 136.869 69.9972C113.665 80.9461 104.079 102.172 104.079 120.272C104.079 134.533 109.006 145.308 114.391 152.329C123.15 163.749 131.298 168.045 138.335 171.862C149.67 178.012 168.948 178.217 174.801 177.911C185.699 177.342 198.503 174.175 209.3 169.108C213.422 167.174 220.117 162.979 225.981 158.286C235.994 150.273 245.216 140.192 245.056 140.972C244.801 142.209 244.904 143.187 239.897 152.02C225.061 178.19 200.396 189.606 200.396 189.606C165.648 208.085 134.812 198.501 128.818 196.2C102.507 186.101 88.7847 167.167 85.5786 161.145C80.35 151.324 70.9764 115.255 83.5358 86.5842C92.8433 65.3378 114.421 54.8991 116.804 53.9C155.25 37.7699 205.318 72.8139 204.563 74.8121Z" fill="url(#paint0_linear)"/>
<path d="M205.661 72.9816C204.099 74.4369 192.876 60.8974 174.857 51.1192C169.705 48.3245 150.05 38.2791 126.046 38.7948C86.2514 39.6458 59.8063 68.987 55.0906 74.425C31.5205 101.603 20.4232 143.452 33.6805 176.019C50.9098 218.338 108.557 242.678 104.174 243.158L99.1306 241.537C93.0462 239.126 18.3701 205.322 15.6955 137.963C14.1876 100.008 26.3293 69.2694 33.6805 60.8784C46.5252 46.2172 56.8244 39.1589 65.507 34.4971C82.9537 25.136 115.765 17.1144 140.116 20.7993C167.439 24.9352 184.59 44.1068 192.954 53.456C200.499 61.8878 206.923 71.8056 205.661 72.9816Z" fill="url(#paint1_linear)"/>
<path d="M205.463 74.7751C207.309 73.9513 204.845 48.7473 188.548 29.5809C181.976 21.8359 174.749 14.7936 165.876 9.86496C129.197 -10.1066 84.0971 5.95372 74.3345 9.86497C64.3342 13.8698 42.9963 24.813 25.0827 47.2661C4.89013 72.5785 1.89969 99.7343 0.750049 111.621C-4.16266 162.379 22.109 202.24 23.9789 201.639C25.0685 201.289 13.1498 175.927 15.6953 137.963C16.665 123.511 18.6568 97.0406 36.8998 71.6329C47.9508 56.6482 60.735 44.1751 77.4124 35.9402C87.0629 31.1507 121.593 15.7139 156.172 27.9735C166.707 31.7853 176.407 37.6036 184.738 45.1078C199.792 58.9299 203.953 75.4508 205.463 74.7751Z" fill="url(#paint2_linear)"/>
<path d="M152.336 216.948C151.47 218.429 91.6429 201.278 69.1681 159.008C65.7854 152.649 50.1647 118.754 60.4129 92.3657C64.699 81.3281 73.1371 68.9715 76.5452 65.1334C82.0506 58.9347 91.3904 53.3618 103.25 48.3119C108.579 46.0964 118.314 43.7901 124.033 43.0262C129.702 42.3252 138.409 42.4756 144.094 43.0262C155.147 44.0967 170.084 57.0615 169.664 57.0615C169.551 57.0615 157.808 53.2797 145.667 52.4415C135.603 51.7468 124.686 54.0944 120.814 55.4694C112.272 58.5033 100.563 65.1334 93.7927 73.51C87.0225 81.8867 81.2434 93.7262 80.0124 109.597C79.1101 121.231 80.3484 138.203 85.3686 151.433C87.775 157.775 91.9197 165.846 99.8857 176.475C116.842 199.1 152.962 215.888 152.336 216.948Z" fill="url(#paint3_linear)"/>
<path d="M119.921 37.721C130.3 36.218 139.183 35.6997 149.474 37.721C161.284 40.1038 167.816 42.5598 175.86 46.6923C189.598 53.7506 206.986 71.8493 205.661 74.5658C203.302 79.408 166.692 40.4999 116.398 53.8899C102.175 58.7666 93.4025 63.3205 84.3189 70.276C68.8477 82.1227 61.1811 97.7052 58.7587 104.078C54.5996 115.018 53.4702 121.174 52.9667 132.817C52.9667 148.493 55.8871 157.587 59.4193 167.554C64.4441 181.74 73.8153 197.958 72.3098 196.907C55.0933 184.893 44.3347 147.822 43.146 140.139C41.9573 132.457 36.8815 99.1775 58.7586 71.4669C78.7032 46.2055 112.184 38.8529 119.921 37.721Z" fill="url(#paint4_linear)"/>
<path d="M169.732 102.12L168.824 104.128C166.72 102.359 163.996 101.355 160.936 101.355C153.048 101.355 147.407 107.044 147.407 115.028C147.407 123.059 153.048 128.795 160.936 128.795C163.948 128.795 166.625 127.839 168.728 126.118L169.493 127.935H176.377V102.12H169.732ZM162.131 120.955C158.785 120.955 156.347 118.422 156.347 115.028C156.347 111.681 158.785 109.195 162.131 109.195C165.477 109.195 167.916 111.681 167.916 115.028C167.916 118.422 165.477 120.955 162.131 120.955Z" fill="black"/>
<path d="M185.233 127.935H194.125V92.7982H185.233V127.935Z" fill="black"/>
<path d="M218.206 120.19C216.341 120.19 215.194 119.043 215.194 117.227V109.004H221.456V102.12H215.003V94.6148H213.138L201.569 106.901V109.004H206.302V118.709C206.302 124.445 209.792 127.935 215.481 127.935H221.6V120.19H218.206Z" fill="black"/>
<path d="M251.99 102.12L251.082 104.128C248.979 102.359 246.254 101.355 243.194 101.355C235.306 101.355 229.665 107.044 229.665 115.028C229.665 123.059 235.306 128.795 243.194 128.795C246.206 128.795 248.883 127.839 250.987 126.118L251.751 127.935H258.635V102.12H251.99ZM244.389 120.955C241.043 120.955 238.605 118.422 238.605 115.028C238.605 111.681 241.043 109.195 244.389 109.195C247.736 109.195 250.174 111.681 250.174 115.028C250.174 118.422 247.736 120.955 244.389 120.955Z" fill="black"/>
<path d="M267.539 98.9172H276.335V91.364H267.539V98.9172ZM267.491 127.935H276.383V102.12H267.491V127.935Z" fill="black"/>
<path d="M299.645 102.025C296.586 102.025 294.387 102.885 292.57 104.988L291.184 102.12H285.208V127.935H294.1V114.836C294.1 111.538 295.439 110.151 298.546 110.151H302.036V102.025H299.645Z" fill="black"/>
<defs>
<linearGradient id="paint0_linear" x1="182.67" y1="50.4849" x2="182.67" y2="201.371" gradientUnits="userSpaceOnUse">
<stop stop-color="#FAB961"/>
<stop offset="1"/>
</linearGradient>
<linearGradient id="paint1_linear" x1="110.694" y1="19.884" x2="110.694" y2="243.532" gradientUnits="userSpaceOnUse">
<stop stop-color="#FAB961"/>
<stop offset="1"/>
</linearGradient>
<linearGradient id="paint2_linear" x1="103.096" y1="1.30755" x2="103.096" y2="201.651" gradientUnits="userSpaceOnUse">
<stop/>
<stop offset="0.414296" stop-color="#FAB961"/>
</linearGradient>
<linearGradient id="paint3_linear" x1="105.495" y1="49.905" x2="105.495" y2="212.824" gradientUnits="userSpaceOnUse">
<stop/>
<stop offset="1" stop-color="#FAB961"/>
</linearGradient>
<linearGradient id="paint4_linear" x1="123.759" y1="40.3149" x2="123.759" y2="196.955" gradientUnits="userSpaceOnUse">
<stop/>
<stop offset="1" stop-color="#FAB961"/>
</linearGradient>
</defs>
</svg>
