<svg width="432" height="251" viewBox="0 0 432 251" fill="none" xmlns="http://www.w3.org/2000/svg">
<path d="M269.831 78.2386C268.999 80.4376 234.052 58.3645 202.137 73.4237C178.933 84.3726 169.347 105.599 169.347 123.698C169.347 137.959 174.274 148.734 179.659 155.755C188.418 167.175 196.566 171.471 203.603 175.289C214.938 181.438 234.216 181.643 240.069 181.338C250.967 180.769 263.771 177.601 274.569 172.535C278.691 170.601 285.385 166.405 291.249 161.712C301.262 153.699 310.485 143.619 310.324 144.399C310.069 145.636 310.172 146.614 305.165 155.447C290.329 181.617 265.664 193.033 265.664 193.033C230.916 211.512 200.08 201.927 194.086 199.627C167.775 189.527 154.053 170.593 150.847 164.572C145.618 154.751 136.245 118.681 148.804 90.0107C158.112 68.7644 179.689 58.3256 182.072 57.3265C220.518 41.1964 270.587 76.2404 269.831 78.2386Z" fill="url(#paint0_linear)"/>
<path d="M270.929 76.4082C269.367 77.8634 258.144 64.3239 240.125 54.5458C234.973 51.751 215.319 41.7056 191.314 42.2213C151.52 43.0723 125.075 72.4136 120.359 77.8515C96.7887 105.029 85.6914 146.879 98.9487 179.445C116.178 221.764 173.826 246.105 169.442 246.585L164.399 244.964C158.314 242.552 83.6383 208.749 80.9637 141.39C79.4558 103.434 91.5975 72.6959 98.9487 64.3049C111.793 49.6437 122.093 42.5854 130.775 37.9236C148.222 28.5625 181.033 20.5409 205.385 24.2258C232.708 28.3617 249.859 47.5333 258.222 56.8825C265.767 65.3143 272.191 75.2321 270.929 76.4082Z" fill="url(#paint1_linear)"/>
<path d="M270.731 78.2016C272.577 77.3778 270.113 52.1739 253.816 33.0074C247.244 25.2624 240.017 18.2201 231.145 13.2915C194.465 -6.68004 149.365 9.38024 139.603 13.2915C129.602 17.2963 108.265 28.2395 90.3509 50.6926C70.1583 76.0051 67.1679 103.161 66.0183 115.048C61.1055 165.805 87.3772 205.667 89.2471 205.066C90.3368 204.716 78.418 179.353 80.9635 141.39C81.9332 126.938 83.925 100.467 102.168 75.0594C113.219 60.0747 126.003 47.6016 142.681 39.3667C152.331 34.5772 186.861 19.1404 221.44 31.4C231.976 35.2118 241.676 41.0301 250.006 48.5343C265.06 62.3564 269.221 78.8773 270.731 78.2016Z" fill="url(#paint2_linear)"/>
<path d="M217.604 220.375C216.738 221.855 156.911 204.704 134.436 162.435C131.054 156.076 115.433 122.18 125.681 95.7922C129.967 84.7546 138.405 72.398 141.813 68.5599C147.319 62.3612 156.659 56.7884 168.518 51.7385C173.847 49.5229 183.582 47.2166 189.301 46.4528C194.97 45.7517 203.677 45.9021 209.362 46.4528C220.415 47.5232 235.352 60.488 234.932 60.488C234.819 60.488 223.077 56.7062 210.935 55.868C200.871 55.1733 189.954 57.5209 186.083 58.8959C177.54 61.9299 165.831 68.5599 159.061 76.9366C152.291 85.3132 146.512 97.1527 145.281 113.024C144.378 124.658 145.617 141.629 150.637 154.86C153.043 161.202 157.188 169.273 165.154 179.902C182.11 202.526 218.23 219.314 217.604 220.375Z" fill="url(#paint3_linear)"/>
<path d="M185.189 41.1475C195.568 39.6445 204.451 39.1263 214.742 41.1475C226.552 43.5303 233.084 45.9863 241.128 50.1188C254.866 57.1771 272.254 75.2758 270.929 77.9923C268.571 82.8345 231.961 43.9264 181.666 57.3164C167.443 62.1931 158.671 66.747 149.587 73.7025C134.116 85.5492 126.449 101.132 124.027 107.504C119.868 118.445 118.738 124.601 118.235 136.244C118.235 151.92 121.155 161.013 124.687 170.98C129.712 185.167 139.084 201.384 137.578 200.334C120.361 188.319 109.603 151.249 108.414 143.566C107.226 135.883 102.15 102.604 124.027 74.8934C143.971 49.632 177.453 42.2794 185.189 41.1475Z" fill="url(#paint4_linear)"/>
<path d="M235 105.547L234.092 107.554C231.989 105.786 229.264 104.782 226.204 104.782C218.316 104.782 212.675 110.471 212.675 118.454C212.675 126.485 218.316 132.222 226.204 132.222C229.216 132.222 231.893 131.266 233.996 129.545L234.761 131.361H241.645V105.547H235ZM227.399 124.382C224.053 124.382 221.615 121.848 221.615 118.454C221.615 115.108 224.053 112.622 227.399 112.622C230.746 112.622 233.184 115.108 233.184 118.454C233.184 121.848 230.746 124.382 227.399 124.382Z" fill="white"/>
<path d="M250.501 131.361H259.393V96.2247H250.501V131.361Z" fill="white"/>
<path d="M283.474 123.617C281.609 123.617 280.462 122.47 280.462 120.653V112.431H286.725V105.547H280.271V98.0413H278.406L266.838 110.327V112.431H271.57V122.135C271.57 127.872 275.06 131.361 280.749 131.361H286.868V123.617H283.474Z" fill="white"/>
<path d="M317.259 105.547L316.35 107.554C314.247 105.786 311.522 104.782 308.463 104.782C300.575 104.782 294.934 110.471 294.934 118.454C294.934 126.485 300.575 132.222 308.463 132.222C311.474 132.222 314.151 131.266 316.255 129.545L317.02 131.361H323.904V105.547H317.259ZM309.658 124.382C306.311 124.382 303.873 121.848 303.873 118.454C303.873 115.108 306.311 112.622 309.658 112.622C313.004 112.622 315.442 115.108 315.442 118.454C315.442 121.848 313.004 124.382 309.658 124.382Z" fill="white"/>
<path d="M332.807 102.344H341.604V94.7905H332.807V102.344ZM332.76 131.361H341.651V105.547H332.76V131.361Z" fill="white"/>
<path d="M364.914 105.451C361.854 105.451 359.655 106.312 357.838 108.415L356.452 105.547H350.476V131.361H359.368V118.263C359.368 114.964 360.707 113.578 363.814 113.578H367.304V105.451H364.914Z" fill="white"/>
<defs>
<linearGradient id="paint0_linear" x1="247.939" y1="53.9115" x2="247.939" y2="204.798" gradientUnits="userSpaceOnUse">
<stop stop-color="#FAB961"/>
<stop offset="1"/>
</linearGradient>
<linearGradient id="paint1_linear" x1="175.962" y1="23.3105" x2="175.962" y2="246.959" gradientUnits="userSpaceOnUse">
<stop stop-color="#FAB961"/>
<stop offset="1"/>
</linearGradient>
<linearGradient id="paint2_linear" x1="168.364" y1="4.73407" x2="168.364" y2="205.077" gradientUnits="userSpaceOnUse">
<stop/>
<stop offset="0.414296" stop-color="#FAB961"/>
</linearGradient>
<linearGradient id="paint3_linear" x1="170.763" y1="53.3315" x2="170.763" y2="216.25" gradientUnits="userSpaceOnUse">
<stop/>
<stop offset="1" stop-color="#FAB961"/>
</linearGradient>
<linearGradient id="paint4_linear" x1="189.027" y1="43.7414" x2="189.027" y2="200.381" gradientUnits="userSpaceOnUse">
<stop/>
<stop offset="1" stop-color="#FAB961"/>
</linearGradient>
</defs>
</svg>
