<svg width="247" height="244" viewBox="0 0 247 244" fill="none" xmlns="http://www.w3.org/2000/svg">
<path d="M205.008 75.129C204.178 77.3234 169.303 55.2958 137.454 70.324C114.298 81.2504 104.732 102.433 104.732 120.495C104.732 134.727 109.648 145.48 115.022 152.486C123.763 163.883 131.895 168.17 138.917 171.98C150.229 178.116 169.467 178.321 175.308 178.016C186.184 177.448 198.962 174.287 209.737 169.231C213.85 167.301 220.531 163.114 226.383 158.431C236.375 150.434 245.579 140.375 245.418 141.153C245.164 142.388 245.267 143.364 240.27 152.178C225.464 178.294 200.85 189.687 200.85 189.687C166.174 208.128 135.401 198.563 129.42 196.267C103.163 186.189 89.4688 167.294 86.2693 161.284C81.0515 151.484 71.6972 115.488 84.2307 86.8769C93.5191 65.6742 115.053 55.2569 117.43 54.2599C155.797 38.1631 205.763 73.1349 205.008 75.129Z" fill="url(#paint0_linear)"/>
<path d="M206.105 73.3023C204.546 74.7546 193.346 61.2429 175.364 51.4849C170.222 48.6959 150.608 38.6711 126.653 39.1858C86.9408 40.035 60.5501 69.3159 55.8441 74.7427C32.3225 101.865 21.248 143.628 34.4781 176.127C51.6719 218.359 109.201 242.65 104.827 243.129L99.7935 241.511C93.7216 239.104 19.1992 205.371 16.5301 138.15C15.0253 100.273 27.1419 69.5977 34.4781 61.224C47.2963 46.593 57.5744 39.5492 66.2391 34.897C83.6498 25.5551 116.394 17.5501 140.695 21.2274C167.962 25.3548 185.077 44.4869 193.424 53.8168C200.953 62.2313 207.364 72.1286 206.105 73.3023Z" fill="url(#paint1_linear)"/>
<path d="M205.907 75.0921C207.749 74.27 205.29 49.1179 189.027 29.9908C182.468 22.2618 175.256 15.2339 166.402 10.3155C129.798 -9.61494 84.7909 6.41229 75.0484 10.3155C65.0686 14.3121 43.7747 25.2328 25.8979 47.6396C5.74691 72.9 2.76263 99.9999 1.61535 111.862C-3.28725 162.516 22.9303 202.295 24.7964 201.695C25.8838 201.346 13.9896 176.036 16.5299 138.15C17.4975 123.728 19.4852 97.3118 37.6908 71.9563C48.7189 57.0024 61.4769 44.555 78.12 36.337C87.7506 31.5574 122.21 16.1523 156.718 28.3868C167.231 32.1907 176.911 37.997 185.225 45.4858C200.248 59.2795 204.4 75.7664 205.907 75.0921Z" fill="url(#paint2_linear)"/>
<path d="M152.889 216.972C152.025 218.45 92.3211 201.335 69.8925 159.152C66.5168 152.806 50.9282 118.98 61.1554 92.6465C65.4326 81.6316 73.8533 69.3004 77.2545 65.4703C82.7485 59.2843 92.069 53.7229 103.904 48.6834C109.222 46.4724 118.937 44.1708 124.644 43.4086C130.301 42.7089 138.991 42.8591 144.664 43.4086C155.695 44.4768 170.601 57.4149 170.182 57.4149C170.069 57.4149 158.35 53.6409 146.234 52.8045C136.191 52.1112 125.296 54.4539 121.433 55.8261C112.907 58.8538 101.223 65.4703 94.4664 73.8296C87.7102 82.189 81.9429 94.0042 80.7145 109.843C79.814 121.453 81.0498 138.389 86.0596 151.592C88.4612 157.921 92.5973 165.976 100.547 176.583C117.468 199.161 153.514 215.914 152.889 216.972Z" fill="url(#paint3_linear)"/>
<path d="M120.541 38.1143C130.899 36.6143 139.763 36.0972 150.033 38.1143C161.819 40.4922 168.337 42.9431 176.365 47.0671C190.075 54.1109 207.427 72.1724 206.105 74.8832C203.751 79.7155 167.216 40.8875 117.026 54.2499C102.831 59.1166 94.0774 63.6611 85.0125 70.6023C69.5731 82.4246 61.9223 97.975 59.5048 104.334C55.3544 115.252 54.2272 121.396 53.7248 133.015C53.7248 148.659 56.6392 157.733 60.1641 167.68C65.1785 181.837 74.5305 198.021 73.0281 196.973C55.847 184.983 45.1106 147.989 43.9243 140.322C42.7381 132.655 37.6727 99.4443 59.5048 71.7907C79.4083 46.5813 112.821 39.2438 120.541 38.1143Z" fill="url(#paint4_linear)"/>
<defs>
<linearGradient id="paint0_linear" x1="183.161" y1="50.8519" x2="183.161" y2="201.428" gradientUnits="userSpaceOnUse">
<stop stop-color="#FAB961"/>
<stop offset="1"/>
</linearGradient>
<linearGradient id="paint1_linear" x1="111.333" y1="20.314" x2="111.333" y2="243.502" gradientUnits="userSpaceOnUse">
<stop stop-color="#FAB961"/>
<stop offset="1"/>
</linearGradient>
<linearGradient id="paint2_linear" x1="103.751" y1="1.77567" x2="103.751" y2="201.706" gradientUnits="userSpaceOnUse">
<stop/>
<stop offset="0.414296" stop-color="#FAB961"/>
</linearGradient>
<linearGradient id="paint3_linear" x1="106.145" y1="50.2731" x2="106.145" y2="212.857" gradientUnits="userSpaceOnUse">
<stop/>
<stop offset="1" stop-color="#FAB961"/>
</linearGradient>
<linearGradient id="paint4_linear" x1="124.372" y1="40.7028" x2="124.372" y2="197.02" gradientUnits="userSpaceOnUse">
<stop/>
<stop offset="1" stop-color="#FAB961"/>
</linearGradient>
</defs>
</svg>
