<svg width="247" height="244" viewBox="0 0 247 244" fill="none" xmlns="http://www.w3.org/2000/svg">
<path d="M205.009 75.1287C204.178 77.3232 169.303 55.2956 137.454 70.3237C114.298 81.2502 104.732 102.433 104.732 120.495C104.732 134.727 109.648 145.479 115.022 152.486C123.763 163.882 131.895 168.17 138.917 171.979C150.229 178.116 169.467 178.321 175.308 178.016C186.184 177.448 198.962 174.287 209.737 169.231C213.85 167.301 220.531 163.114 226.383 158.431C236.375 150.434 245.579 140.374 245.418 141.153C245.164 142.387 245.267 143.363 240.27 152.178C225.464 178.294 200.85 189.687 200.85 189.687C166.174 208.127 135.401 198.563 129.42 196.267C103.163 186.189 89.4688 167.293 86.2693 161.284C81.0515 151.484 71.6972 115.488 84.2308 86.8766C93.5191 65.674 115.053 55.2567 117.43 54.2597C155.797 38.1628 205.763 73.1347 205.009 75.1287Z" fill="url(#paint0_linear)"/>
<path d="M206.105 73.3021C204.546 74.7543 193.346 61.2426 175.364 51.4847C170.222 48.6957 150.608 38.6709 126.653 39.1855C86.9408 40.0348 60.5502 69.3157 55.8441 74.7425C32.3225 101.864 21.248 143.627 34.4781 176.127C51.6719 218.359 109.201 242.649 104.827 243.129L99.7935 241.511C93.7216 239.104 19.1992 205.37 16.5301 138.15C15.0253 100.273 27.142 69.5974 34.4781 61.2237C47.2964 46.5927 57.5744 39.549 66.2391 34.8967C83.6499 25.5549 116.394 17.5498 140.695 21.2271C167.962 25.3545 185.078 44.4866 193.424 53.8166C200.953 62.2311 207.364 72.1284 206.105 73.3021Z" fill="url(#paint1_linear)"/>
<path d="M205.907 75.0918C207.749 74.2697 205.291 49.1176 189.027 29.9906C182.468 22.2615 175.256 15.2337 166.402 10.3152C129.798 -9.61519 84.7909 6.41204 75.0484 10.3152C65.0687 14.3119 43.7747 25.2325 25.8979 47.6394C5.74694 72.8998 2.76266 99.9997 1.61538 111.862C-3.28722 162.515 22.9303 202.294 24.7964 201.695C25.8838 201.346 13.9897 176.035 16.5299 138.15C17.4976 123.728 19.4853 97.3115 37.6908 71.956C48.719 57.0022 61.4769 44.5548 78.12 36.3368C87.7507 31.5571 122.21 16.1521 156.718 28.3865C167.231 32.1904 176.911 37.9968 185.225 45.4856C200.248 59.2792 204.4 75.7661 205.907 75.0918Z" fill="url(#paint2_linear)"/>
<path d="M152.889 216.972C152.025 218.45 92.3211 201.334 69.8925 159.152C66.5168 152.806 50.9282 118.98 61.1554 92.6463C65.4327 81.6314 73.8534 69.3002 77.2545 65.47C82.7485 59.284 92.0691 53.7227 103.904 48.6832C109.222 46.4721 118.937 44.1706 124.644 43.4083C130.301 42.7087 138.991 42.8588 144.664 43.4083C155.695 44.4766 170.601 57.4147 170.182 57.4147C170.069 57.4147 158.35 53.6407 146.234 52.8042C136.191 52.111 125.296 54.4537 121.433 55.8259C112.907 58.8536 101.223 65.47 94.4664 73.8294C87.7102 82.1888 81.943 94.0039 80.7146 109.842C79.8141 121.453 81.0498 138.389 86.0597 151.592C88.4612 157.921 92.5974 165.975 100.547 176.583C117.468 199.161 153.514 215.914 152.889 216.972Z" fill="url(#paint3_linear)"/>
<path d="M120.541 38.114C130.899 36.6141 139.763 36.0969 150.033 38.114C161.819 40.4919 168.337 42.9429 176.365 47.0669C190.075 54.1106 207.427 72.1721 206.105 74.8829C203.751 79.7152 167.217 40.8872 117.026 54.2497C102.831 59.1163 94.0774 63.6608 85.0125 70.602C69.5732 82.4243 61.9224 97.9747 59.5049 104.334C55.3544 115.252 54.2273 121.396 53.7248 133.014C53.7248 148.658 56.6393 157.733 60.1641 167.68C65.1786 181.837 74.5306 198.021 73.0281 196.972C55.847 184.983 45.1106 147.989 43.9244 140.322C42.7381 132.655 37.6728 99.444 59.5048 71.7904C79.4084 46.581 112.821 39.2435 120.541 38.114Z" fill="url(#paint4_linear)"/>
<defs>
<linearGradient id="paint0_linear" x1="183.161" y1="50.8517" x2="183.161" y2="201.427" gradientUnits="userSpaceOnUse">
<stop stop-color="#FAB961"/>
<stop offset="1"/>
</linearGradient>
<linearGradient id="paint1_linear" x1="111.333" y1="20.3137" x2="111.333" y2="243.501" gradientUnits="userSpaceOnUse">
<stop stop-color="#FAB961"/>
<stop offset="1"/>
</linearGradient>
<linearGradient id="paint2_linear" x1="103.751" y1="1.77543" x2="103.751" y2="201.706" gradientUnits="userSpaceOnUse">
<stop/>
<stop offset="0.414296" stop-color="#FAB961"/>
</linearGradient>
<linearGradient id="paint3_linear" x1="106.145" y1="50.2729" x2="106.145" y2="212.857" gradientUnits="userSpaceOnUse">
<stop/>
<stop offset="1" stop-color="#FAB961"/>
</linearGradient>
<linearGradient id="paint4_linear" x1="124.372" y1="40.7025" x2="124.372" y2="197.02" gradientUnits="userSpaceOnUse">
<stop/>
<stop offset="1" stop-color="#FAB961"/>
</linearGradient>
</defs>
</svg>
