<svg width="432" height="251" viewBox="0 0 432 251" fill="none" xmlns="http://www.w3.org/2000/svg">
<path d="M269.563 78.8121C268.731 81.0111 233.784 58.938 201.869 73.9972C178.665 84.9461 169.079 106.172 169.079 124.272C169.079 138.533 174.006 149.308 179.391 156.329C188.15 167.749 196.298 172.045 203.335 175.862C214.67 182.012 233.948 182.217 239.801 181.911C250.699 181.342 263.503 178.175 274.3 173.108C278.422 171.174 285.117 166.979 290.981 162.286C300.994 154.273 310.216 144.192 310.056 144.972C309.801 146.209 309.904 147.187 304.897 156.02C290.061 182.19 265.396 193.606 265.396 193.606C230.648 212.085 199.812 202.501 193.818 200.2C167.507 190.101 153.785 171.167 150.579 165.145C145.35 155.324 135.976 119.255 148.536 90.5842C157.843 69.3378 179.421 58.8991 181.804 57.9C220.25 41.7699 270.318 76.8139 269.563 78.8121Z" fill="url(#paint0_linear)"/>
<path d="M270.661 76.9817C269.099 78.4369 257.876 64.8974 239.857 55.1192C234.705 52.3245 215.05 42.2791 191.046 42.7948C151.251 43.6458 124.806 72.987 120.091 78.425C96.5205 105.603 85.4232 147.452 98.6805 180.019C115.91 222.338 173.557 246.678 169.174 247.158L164.131 245.537C158.046 243.126 83.3701 209.322 80.6956 141.963C79.1876 104.008 91.3293 73.2694 98.6805 64.8784C111.525 50.2172 121.824 43.1589 130.507 38.4971C147.954 29.136 180.765 21.1144 205.116 24.7993C232.439 28.9352 249.591 48.1068 257.954 57.456C265.499 65.8878 271.923 75.8056 270.661 76.9817Z" fill="url(#paint1_linear)"/>
<path d="M270.463 78.7751C272.309 77.9513 269.845 52.7473 253.548 33.5809C246.976 25.8359 239.749 18.7936 230.876 13.865C194.197 -6.10655 149.097 9.95372 139.335 13.865C129.334 17.8698 107.996 28.813 90.0827 51.2661C69.8901 76.5785 66.8997 103.734 65.7501 115.621C60.8374 166.379 87.109 206.24 88.9789 205.639C90.0686 205.289 78.1498 179.927 80.6954 141.963C81.665 127.511 83.6568 101.041 101.9 75.6329C112.951 60.6482 125.735 48.1751 142.412 39.9402C152.063 35.1507 186.593 19.7139 221.172 31.9735C231.707 35.7853 241.407 41.6036 249.738 49.1078C264.792 62.9299 268.953 79.4508 270.463 78.7751Z" fill="url(#paint2_linear)"/>
<path d="M217.336 220.948C216.47 222.429 156.643 205.278 134.168 163.008C130.785 156.649 115.165 122.754 125.413 96.3657C129.699 85.3281 138.137 72.9715 141.545 69.1334C147.051 62.9347 156.39 57.3618 168.25 52.3119C173.579 50.0964 183.314 47.7901 189.033 47.0262C194.702 46.3252 203.409 46.4756 209.094 47.0262C220.147 48.0967 235.084 61.0615 234.664 61.0615C234.551 61.0615 222.808 57.2797 210.667 56.4415C200.603 55.7468 189.686 58.0944 185.814 59.4694C177.272 62.5033 165.563 69.1334 158.793 77.51C152.023 85.8867 146.243 97.7262 145.012 113.597C144.11 125.231 145.348 142.203 150.369 155.433C152.775 161.775 156.92 169.846 164.886 180.475C181.842 203.1 217.962 219.888 217.336 220.948Z" fill="url(#paint3_linear)"/>
<path d="M184.921 41.721C195.3 40.218 204.183 39.6997 214.474 41.721C226.284 44.1038 232.816 46.5598 240.86 50.6923C254.598 57.7506 271.986 75.8493 270.661 78.5658C268.302 83.408 231.692 44.4999 181.398 57.8899C167.175 62.7666 158.402 67.3205 149.319 74.276C133.848 86.1227 126.181 101.705 123.759 108.078C119.6 119.018 118.47 125.174 117.967 136.817C117.967 152.493 120.887 161.587 124.419 171.554C129.444 185.74 138.815 201.958 137.31 200.907C120.093 188.893 109.335 151.822 108.146 144.139C106.957 136.457 101.882 103.177 123.759 75.4669C143.703 50.2055 177.184 42.8529 184.921 41.721Z" fill="url(#paint4_linear)"/>
<path d="M234.732 106.12L233.824 108.128C231.72 106.359 228.996 105.355 225.936 105.355C218.048 105.355 212.407 111.044 212.407 119.028C212.407 127.059 218.048 132.795 225.936 132.795C228.948 132.795 231.625 131.839 233.728 130.118L234.493 131.935H241.377V106.12H234.732ZM227.131 124.955C223.785 124.955 221.347 122.422 221.347 119.028C221.347 115.681 223.785 113.195 227.131 113.195C230.477 113.195 232.916 115.681 232.916 119.028C232.916 122.422 230.477 124.955 227.131 124.955Z" fill="black"/>
<path d="M250.233 131.935H259.125V96.7982H250.233V131.935Z" fill="black"/>
<path d="M283.206 124.19C281.341 124.19 280.194 123.043 280.194 121.227V113.004H286.456V106.12H280.003V98.6148H278.138L266.569 110.901V113.004H271.302V122.709C271.302 128.445 274.792 131.935 280.481 131.935H286.6V124.19H283.206Z" fill="black"/>
<path d="M316.99 106.12L316.082 108.128C313.979 106.359 311.254 105.355 308.194 105.355C300.306 105.355 294.665 111.044 294.665 119.028C294.665 127.059 300.306 132.795 308.194 132.795C311.206 132.795 313.883 131.839 315.987 130.118L316.751 131.935H323.635V106.12H316.99ZM309.389 124.955C306.043 124.955 303.605 122.422 303.605 119.028C303.605 115.681 306.043 113.195 309.389 113.195C312.736 113.195 315.174 115.681 315.174 119.028C315.174 122.422 312.736 124.955 309.389 124.955Z" fill="black"/>
<path d="M332.539 102.917H341.335V95.364H332.539V102.917ZM332.491 131.935H341.383V106.12H332.491V131.935Z" fill="black"/>
<path d="M364.645 106.025C361.586 106.025 359.387 106.885 357.57 108.988L356.184 106.12H350.208V131.935H359.1V118.836C359.1 115.538 360.439 114.151 363.546 114.151H367.036V106.025H364.645Z" fill="black"/>
<defs>
<linearGradient id="paint0_linear" x1="247.67" y1="54.4849" x2="247.67" y2="205.371" gradientUnits="userSpaceOnUse">
<stop stop-color="#FAB961"/>
<stop offset="1"/>
</linearGradient>
<linearGradient id="paint1_linear" x1="175.694" y1="23.884" x2="175.694" y2="247.532" gradientUnits="userSpaceOnUse">
<stop stop-color="#FAB961"/>
<stop offset="1"/>
</linearGradient>
<linearGradient id="paint2_linear" x1="168.096" y1="5.30755" x2="168.096" y2="205.651" gradientUnits="userSpaceOnUse">
<stop/>
<stop offset="0.414296" stop-color="#FAB961"/>
</linearGradient>
<linearGradient id="paint3_linear" x1="170.495" y1="53.905" x2="170.495" y2="216.824" gradientUnits="userSpaceOnUse">
<stop/>
<stop offset="1" stop-color="#FAB961"/>
</linearGradient>
<linearGradient id="paint4_linear" x1="188.759" y1="44.3149" x2="188.759" y2="200.955" gradientUnits="userSpaceOnUse">
<stop/>
<stop offset="1" stop-color="#FAB961"/>
</linearGradient>
</defs>
</svg>
