<?xml version="1.0" encoding="UTF-8"?>
<svg width="768px" height="384px" viewBox="0 0 768 384" version="1.1" xmlns="http://www.w3.org/2000/svg" xmlns:xlink="http://www.w3.org/1999/xlink">
    <!-- Generator: Sketch 52.5 (67469) - http://www.bohemiancoding.com/sketch -->
    <title>Group 5</title>
    <desc>Created with Sketch.</desc>
    <g id="Web-Page" stroke="none" stroke-width="1" fill="none" fill-rule="evenodd">
        <g id="01.5-Main-XL---1200px" transform="translate(-24.000000, -768.000000)">
            <g id="Group-5" transform="translate(24.000000, 768.000000)">
                <g id="Group-195" transform="translate(384.000000, 0.000000)">
                    <path d="M192,384 C85.961,384 0,298.039 0,192 C0,85.961 85.961,0 192,0 C298.039,0 384,85.961 384,192 C384,298.039 298.039,384 192,384 Z" id="Fill-1" fill="#FFFFFF"></path>
                    <path d="M16,192 L368,192" id="Stroke-3" stroke="#666666" stroke-linecap="round"></path>
                    <path d="M192,368 L192,16" id="Stroke-5" stroke="#666666" stroke-linecap="round"></path>
                    <path d="M39.5795,280 L344.4205,104" id="Stroke-7" stroke="#666666" stroke-linecap="round"></path>
                    <path d="M280,344.4205 L104,39.5795" id="Stroke-9" stroke="#666666" stroke-linecap="round"></path>
                    <path d="M104,344.4205 L280,39.5795" id="Stroke-11" stroke="#666666" stroke-linecap="round"></path>
                    <path d="M344.4205,280 L39.5795,104" id="Stroke-13" stroke="#666666" stroke-linecap="round"></path>
                    <path d="M21.9971,237.5522 L362.0031,146.4482" id="Stroke-15" stroke="#666666" stroke-linecap="round"></path>
                    <path d="M237.5522,362.0029 L146.4482,21.9969" id="Stroke-17" stroke="#666666" stroke-linecap="round"></path>
                    <path d="M67.5492,316.4508 L316.4512,67.5488" id="Stroke-19" stroke="#666666" stroke-linecap="round"></path>
                    <path d="M316.4508,316.4508 L67.5488,67.5488" id="Stroke-21" stroke="#666666" stroke-linecap="round"></path>
                    <path d="M146.4478,362.0029 L237.5518,21.9969" id="Stroke-23" stroke="#666666" stroke-linecap="round"></path>
                    <path d="M362.003,237.5522 L21.997,146.4482" id="Stroke-25" stroke="#666666" stroke-linecap="round"></path>
                    <path d="M17.5057,214.9726 L366.4947,169.0276" id="Stroke-27" stroke="#666666" stroke-linecap="round"></path>
                    <path d="M214.9726,366.4943 L169.0276,17.5053" id="Stroke-29" stroke="#666666" stroke-linecap="round"></path>
                    <path d="M52.3698,299.142 L331.6298,84.858" id="Stroke-31" stroke="#666666" stroke-linecap="round"></path>
                    <path d="M299.142,331.6302 L84.858,52.3702" id="Stroke-33" stroke="#666666" stroke-linecap="round"></path>
                    <path d="M124.6477,354.6028 L259.3527,29.3968" id="Stroke-35" stroke="#666666" stroke-linecap="round"></path>
                    <path d="M354.6028,259.3523 L29.3968,124.6473" id="Stroke-37" stroke="#666666" stroke-linecap="round"></path>
                    <path d="M29.3972,259.3523 L354.6032,124.6473" id="Stroke-39" stroke="#666666" stroke-linecap="round"></path>
                    <path d="M259.3523,354.6028 L124.6473,29.3968" id="Stroke-41" stroke="#666666" stroke-linecap="round"></path>
                    <path d="M84.858,331.6302 L299.142,52.3702" id="Stroke-43" stroke="#666666" stroke-linecap="round"></path>
                    <path d="M331.6302,299.142 L52.3702,84.858" id="Stroke-45" stroke="#666666" stroke-linecap="round"></path>
                    <path d="M169.0274,366.4943 L214.9724,17.5053" id="Stroke-47" stroke="#666666" stroke-linecap="round"></path>
                    <path d="M366.4943,214.9726 L17.5053,169.0276" id="Stroke-49" stroke="#666666" stroke-linecap="round"></path>
                    <path d="M16.3768,203.511 L367.6228,180.489" id="Stroke-51" stroke="#666666" stroke-linecap="round"></path>
                    <path d="M203.511,367.6232 L180.489,16.3772" id="Stroke-53" stroke="#666666" stroke-linecap="round"></path>
                    <path d="M45.6613,289.7803 L338.3383,94.2193" id="Stroke-55" stroke="#666666" stroke-linecap="round"></path>
                    <path d="M289.7804,338.3387 L94.2194,45.6617" id="Stroke-57" stroke="#666666" stroke-linecap="round"></path>
                    <path d="M114.1572,349.8496 L269.8432,34.1506" id="Stroke-59" stroke="#666666" stroke-linecap="round"></path>
                    <path d="M349.8496,269.8428 L34.1506,114.1568" id="Stroke-61" stroke="#666666" stroke-linecap="round"></path>
                    <path d="M25.3403,248.5733 L358.6593,135.4263" id="Stroke-63" stroke="#666666" stroke-linecap="round"></path>
                    <path d="M248.5733,358.6597 L135.4263,25.3407" id="Stroke-65" stroke="#666666" stroke-linecap="round"></path>
                    <path d="M75.9551,324.3238 L308.0451,59.6758" id="Stroke-67" stroke="#666666" stroke-linecap="round"></path>
                    <path d="M324.3238,308.0449 L59.6758,75.9549" id="Stroke-69" stroke="#666666" stroke-linecap="round"></path>
                    <path d="M157.6641,364.6182 L226.3361,19.3822" id="Stroke-71" stroke="#666666" stroke-linecap="round"></path>
                    <path d="M364.6182,226.3359 L19.3822,157.6639" id="Stroke-73" stroke="#666666" stroke-linecap="round"></path>
                    <path d="M19.3818,226.3359 L364.6178,157.6639" id="Stroke-75" stroke="#666666" stroke-linecap="round"></path>
                    <path d="M226.3359,364.6182 L157.6639,19.3822" id="Stroke-77" stroke="#666666" stroke-linecap="round"></path>
                    <path d="M59.6762,308.0449 L324.3242,75.9549" id="Stroke-79" stroke="#666666" stroke-linecap="round"></path>
                    <path d="M308.0449,324.3238 L75.9549,59.6758" id="Stroke-81" stroke="#666666" stroke-linecap="round"></path>
                    <path d="M135.4267,358.6597 L248.5737,25.3407" id="Stroke-83" stroke="#666666" stroke-linecap="round"></path>
                    <path d="M358.6597,248.5733 L25.3407,135.4263" id="Stroke-85" stroke="#666666" stroke-linecap="round"></path>
                    <path d="M34.1504,269.8428 L349.8494,114.1568" id="Stroke-87" stroke="#666666" stroke-linecap="round"></path>
                    <path d="M269.8428,349.8496 L114.1568,34.1506" id="Stroke-89" stroke="#666666" stroke-linecap="round"></path>
                    <path d="M94.2197,338.3387 L289.7807,45.6617" id="Stroke-91" stroke="#666666" stroke-linecap="round"></path>
                    <path d="M338.3387,289.7803 L45.6617,94.2193" id="Stroke-93" stroke="#666666" stroke-linecap="round"></path>
                    <path d="M180.489,367.6232 L203.511,16.3772" id="Stroke-95" stroke="#666666" stroke-linecap="round"></path>
                    <path d="M367.6232,203.511 L16.3772,180.489" id="Stroke-97" stroke="#666666" stroke-linecap="round"></path>
                    <path d="M16.0942,197.7586 L367.9062,186.2416" id="Stroke-99" stroke="#666666" stroke-linecap="round"></path>
                    <path d="M197.7586,367.9058 L186.2416,16.0938" id="Stroke-101" stroke="#666666" stroke-linecap="round"></path>
                    <path d="M42.5404,284.9399 L341.4594,99.0599" id="Stroke-103" stroke="#666666" stroke-linecap="round"></path>
                    <path d="M284.9399,341.4596 L99.0599,42.5406" id="Stroke-105" stroke="#666666" stroke-linecap="round"></path>
                    <path d="M109.0342,347.2181 L274.9662,36.7821" id="Stroke-107" stroke="#666666" stroke-linecap="round"></path>
                    <path d="M347.2181,274.9658 L36.7821,109.0338" id="Stroke-109" stroke="#666666" stroke-linecap="round"></path>
                    <path d="M23.5785,243.0901 L360.4215,140.9101" id="Stroke-111" stroke="#666666" stroke-linecap="round"></path>
                    <path d="M243.0901,360.4215 L140.9101,23.5785" id="Stroke-113" stroke="#666666" stroke-linecap="round"></path>
                    <path d="M71.6878,320.4561 L312.3118,63.5441" id="Stroke-115" stroke="#666666" stroke-linecap="round"></path>
                    <path d="M320.4561,312.3122 L63.5441,71.6882" id="Stroke-117" stroke="#666666" stroke-linecap="round"></path>
                    <path d="M152.0346,363.4023 L231.9656,20.5973" id="Stroke-119" stroke="#666666" stroke-linecap="round"></path>
                    <path d="M363.4023,231.9654 L20.5973,152.0344" id="Stroke-121" stroke="#666666" stroke-linecap="round"></path>
                    <path d="M18.3508,220.6696 L365.6488,163.3306" id="Stroke-123" stroke="#666666" stroke-linecap="round"></path>
                    <path d="M220.6696,365.6492 L163.3306,18.3512" id="Stroke-125" stroke="#666666" stroke-linecap="round"></path>
                    <path d="M55.9502,303.6532 L328.0502,80.3472" id="Stroke-127" stroke="#666666" stroke-linecap="round"></path>
                    <path d="M303.6532,328.0498 L80.3472,55.9498" id="Stroke-129" stroke="#666666" stroke-linecap="round"></path>
                    <path d="M130.004,356.7194 L253.996,27.2804" id="Stroke-131" stroke="#666666" stroke-linecap="round"></path>
                    <path d="M356.7195,253.996 L27.2805,130.004" id="Stroke-133" stroke="#666666" stroke-linecap="round"></path>
                    <path d="M31.688,264.6364 L352.312,119.3634" id="Stroke-135" stroke="#666666" stroke-linecap="round"></path>
                    <path d="M264.6364,352.312 L119.3634,31.688" id="Stroke-137" stroke="#666666" stroke-linecap="round"></path>
                    <path d="M89.4839,335.061 L294.5159,48.939" id="Stroke-139" stroke="#666666" stroke-linecap="round"></path>
                    <path d="M335.061,294.5161 L48.939,89.4841" id="Stroke-141" stroke="#666666" stroke-linecap="round"></path>
                    <path d="M174.749,367.1525 L209.251,16.8475" id="Stroke-143" stroke="#666666" stroke-linecap="round"></path>
                    <path d="M367.1525,209.251 L16.8475,174.749" id="Stroke-145" stroke="#666666" stroke-linecap="round"></path>
                    <path d="M16.8475,209.251 L367.1525,174.749" id="Stroke-147" stroke="#666666" stroke-linecap="round"></path>
                    <path d="M209.251,367.1525 L174.749,16.8475" id="Stroke-149" stroke="#666666" stroke-linecap="round"></path>
                    <path d="M48.939,294.5161 L335.061,89.4841" id="Stroke-151" stroke="#666666" stroke-linecap="round"></path>
                    <path d="M294.5161,335.061 L89.4841,48.939" id="Stroke-153" stroke="#666666" stroke-linecap="round"></path>
                    <path d="M119.3636,352.312 L264.6366,31.688" id="Stroke-155" stroke="#666666" stroke-linecap="round"></path>
                    <path d="M352.312,264.6364 L31.688,119.3634" id="Stroke-157" stroke="#666666" stroke-linecap="round"></path>
                    <path d="M27.2806,253.996 L356.7196,130.004" id="Stroke-159" stroke="#666666" stroke-linecap="round"></path>
                    <path d="M253.996,356.7194 L130.004,27.2804" id="Stroke-161" stroke="#666666" stroke-linecap="round"></path>
                    <path d="M80.3468,328.0498 L303.6528,55.9498" id="Stroke-163" stroke="#666666" stroke-linecap="round"></path>
                    <path d="M328.0498,303.6532 L55.9498,80.3472" id="Stroke-165" stroke="#666666" stroke-linecap="round"></path>
                    <path d="M163.3304,365.6492 L220.6694,18.3512" id="Stroke-167" stroke="#666666" stroke-linecap="round"></path>
                    <path d="M365.6492,220.6696 L18.3512,163.3306" id="Stroke-169" stroke="#666666" stroke-linecap="round"></path>
                    <path d="M20.5977,231.9654 L363.4027,152.0344" id="Stroke-171" stroke="#666666" stroke-linecap="round"></path>
                    <path d="M231.9654,363.4023 L152.0344,20.5973" id="Stroke-173" stroke="#666666" stroke-linecap="round"></path>
                    <path d="M63.5439,312.3122 L320.4559,71.6882" id="Stroke-175" stroke="#666666" stroke-linecap="round"></path>
                    <path d="M312.3123,320.4561 L71.6883,63.5441" id="Stroke-177" stroke="#666666" stroke-linecap="round"></path>
                    <path d="M140.9099,360.4215 L243.0899,23.5785" id="Stroke-179" stroke="#666666" stroke-linecap="round"></path>
                    <path d="M360.4215,243.0901 L23.5785,140.9101" id="Stroke-181" stroke="#666666" stroke-linecap="round"></path>
                    <path d="M36.7819,274.9658 L347.2179,109.0338" id="Stroke-183" stroke="#666666" stroke-linecap="round"></path>
                    <path d="M274.9658,347.2181 L109.0338,36.7821" id="Stroke-185" stroke="#666666" stroke-linecap="round"></path>
                    <path d="M99.0601,341.4596 L284.9401,42.5406" id="Stroke-187" stroke="#666666" stroke-linecap="round"></path>
                    <path d="M341.4596,284.9399 L42.5406,99.0599" id="Stroke-189" stroke="#666666" stroke-linecap="round"></path>
                    <path d="M186.2414,367.9058 L197.7584,16.0938" id="Stroke-191" stroke="#666666" stroke-linecap="round"></path>
                    <path d="M367.9058,197.7586 L16.0938,186.2416" id="Stroke-193" stroke="#666666" stroke-linecap="round"></path>
                </g>
                <g id="Group-195-Copy">
                    <path d="M384,192 C384,298.039 298.039,384 192,384 C85.961,384 0,298.039 0,192 C0,85.961 85.961,0 192,0 C298.039,0 384,85.961 384,192" id="Fill-1" fill="#FFFFFF"></path>
                    <path d="M16,192 L368,192" id="Stroke-3" stroke="#666666" stroke-linecap="round"></path>
                    <path d="M192,368 L192,16" id="Stroke-5" stroke="#666666" stroke-linecap="round"></path>
                    <path d="M39.5795,280 L344.4205,104" id="Stroke-7" stroke="#666666" stroke-linecap="round"></path>
                    <path d="M280,344.4205 L104,39.5795" id="Stroke-9" stroke="#666666" stroke-linecap="round"></path>
                    <path d="M104,344.4205 L280,39.5795" id="Stroke-11" stroke="#666666" stroke-linecap="round"></path>
                    <path d="M344.4205,280 L39.5795,104" id="Stroke-13" stroke="#666666" stroke-linecap="round"></path>
                    <path d="M21.9971,237.5522 L362.0031,146.4482" id="Stroke-15" stroke="#666666" stroke-linecap="round"></path>
                    <path d="M237.5522,362.0029 L146.4482,21.9969" id="Stroke-17" stroke="#666666" stroke-linecap="round"></path>
                    <path d="M67.5492,316.4508 L316.4512,67.5488" id="Stroke-19" stroke="#666666" stroke-linecap="round"></path>
                    <path d="M316.4508,316.4508 L67.5488,67.5488" id="Stroke-21" stroke="#666666" stroke-linecap="round"></path>
                    <path d="M146.4478,362.0029 L237.5518,21.9969" id="Stroke-23" stroke="#666666" stroke-linecap="round"></path>
                    <path d="M362.003,237.5522 L21.997,146.4482" id="Stroke-25" stroke="#666666" stroke-linecap="round"></path>
                    <path d="M17.5057,214.9726 L366.4947,169.0276" id="Stroke-27" stroke="#666666" stroke-linecap="round"></path>
                    <path d="M214.9726,366.4943 L169.0276,17.5053" id="Stroke-29" stroke="#666666" stroke-linecap="round"></path>
                    <path d="M52.3698,299.142 L331.6298,84.858" id="Stroke-31" stroke="#666666" stroke-linecap="round"></path>
                    <path d="M299.142,331.6302 L84.858,52.3702" id="Stroke-33" stroke="#666666" stroke-linecap="round"></path>
                    <path d="M124.6477,354.6028 L259.3527,29.3968" id="Stroke-35" stroke="#666666" stroke-linecap="round"></path>
                    <path d="M354.6028,259.3523 L29.3968,124.6473" id="Stroke-37" stroke="#666666" stroke-linecap="round"></path>
                    <path d="M29.3972,259.3523 L354.6032,124.6473" id="Stroke-39" stroke="#666666" stroke-linecap="round"></path>
                    <path d="M259.3523,354.6028 L124.6473,29.3968" id="Stroke-41" stroke="#666666" stroke-linecap="round"></path>
                    <path d="M84.858,331.6302 L299.142,52.3702" id="Stroke-43" stroke="#666666" stroke-linecap="round"></path>
                    <path d="M331.6302,299.142 L52.3702,84.858" id="Stroke-45" stroke="#666666" stroke-linecap="round"></path>
                    <path d="M169.0274,366.4943 L214.9724,17.5053" id="Stroke-47" stroke="#666666" stroke-linecap="round"></path>
                    <path d="M366.4943,214.9726 L17.5053,169.0276" id="Stroke-49" stroke="#666666" stroke-linecap="round"></path>
                    <path d="M16.3768,203.511 L367.6228,180.489" id="Stroke-51" stroke="#666666" stroke-linecap="round"></path>
                    <path d="M203.511,367.6232 L180.489,16.3772" id="Stroke-53" stroke="#666666" stroke-linecap="round"></path>
                    <path d="M45.6613,289.7803 L338.3383,94.2193" id="Stroke-55" stroke="#666666" stroke-linecap="round"></path>
                    <path d="M289.7804,338.3387 L94.2194,45.6617" id="Stroke-57" stroke="#666666" stroke-linecap="round"></path>
                    <path d="M114.1572,349.8496 L269.8432,34.1506" id="Stroke-59" stroke="#666666" stroke-linecap="round"></path>
                    <path d="M349.8496,269.8428 L34.1506,114.1568" id="Stroke-61" stroke="#666666" stroke-linecap="round"></path>
                    <path d="M25.3403,248.5733 L358.6593,135.4263" id="Stroke-63" stroke="#666666" stroke-linecap="round"></path>
                    <path d="M248.5733,358.6597 L135.4263,25.3407" id="Stroke-65" stroke="#666666" stroke-linecap="round"></path>
                    <path d="M75.9551,324.3238 L308.0451,59.6758" id="Stroke-67" stroke="#666666" stroke-linecap="round"></path>
                    <path d="M324.3238,308.0449 L59.6758,75.9549" id="Stroke-69" stroke="#666666" stroke-linecap="round"></path>
                    <path d="M157.6641,364.6182 L226.3361,19.3822" id="Stroke-71" stroke="#666666" stroke-linecap="round"></path>
                    <path d="M364.6182,226.3359 L19.3822,157.6639" id="Stroke-73" stroke="#666666" stroke-linecap="round"></path>
                    <path d="M19.3818,226.3359 L364.6178,157.6639" id="Stroke-75" stroke="#666666" stroke-linecap="round"></path>
                    <path d="M226.3359,364.6182 L157.6639,19.3822" id="Stroke-77" stroke="#666666" stroke-linecap="round"></path>
                    <path d="M59.6762,308.0449 L324.3242,75.9549" id="Stroke-79" stroke="#666666" stroke-linecap="round"></path>
                    <path d="M308.0449,324.3238 L75.9549,59.6758" id="Stroke-81" stroke="#666666" stroke-linecap="round"></path>
                    <path d="M135.4267,358.6597 L248.5737,25.3407" id="Stroke-83" stroke="#666666" stroke-linecap="round"></path>
                    <path d="M358.6597,248.5733 L25.3407,135.4263" id="Stroke-85" stroke="#666666" stroke-linecap="round"></path>
                    <path d="M34.1504,269.8428 L349.8494,114.1568" id="Stroke-87" stroke="#666666" stroke-linecap="round"></path>
                    <path d="M269.8428,349.8496 L114.1568,34.1506" id="Stroke-89" stroke="#666666" stroke-linecap="round"></path>
                    <path d="M94.2197,338.3387 L289.7807,45.6617" id="Stroke-91" stroke="#666666" stroke-linecap="round"></path>
                    <path d="M338.3387,289.7803 L45.6617,94.2193" id="Stroke-93" stroke="#666666" stroke-linecap="round"></path>
                    <path d="M180.489,367.6232 L203.511,16.3772" id="Stroke-95" stroke="#666666" stroke-linecap="round"></path>
                    <path d="M367.6232,203.511 L16.3772,180.489" id="Stroke-97" stroke="#666666" stroke-linecap="round"></path>
                    <path d="M16.0942,197.7586 L367.9062,186.2416" id="Stroke-99" stroke="#666666" stroke-linecap="round"></path>
                    <path d="M197.7586,367.9058 L186.2416,16.0938" id="Stroke-101" stroke="#666666" stroke-linecap="round"></path>
                    <path d="M42.5404,284.9399 L341.4594,99.0599" id="Stroke-103" stroke="#666666" stroke-linecap="round"></path>
                    <path d="M284.9399,341.4596 L99.0599,42.5406" id="Stroke-105" stroke="#666666" stroke-linecap="round"></path>
                    <path d="M109.0342,347.2181 L274.9662,36.7821" id="Stroke-107" stroke="#666666" stroke-linecap="round"></path>
                    <path d="M347.2181,274.9658 L36.7821,109.0338" id="Stroke-109" stroke="#666666" stroke-linecap="round"></path>
                    <path d="M23.5785,243.0901 L360.4215,140.9101" id="Stroke-111" stroke="#666666" stroke-linecap="round"></path>
                    <path d="M243.0901,360.4215 L140.9101,23.5785" id="Stroke-113" stroke="#666666" stroke-linecap="round"></path>
                    <path d="M71.6878,320.4561 L312.3118,63.5441" id="Stroke-115" stroke="#666666" stroke-linecap="round"></path>
                    <path d="M320.4561,312.3122 L63.5441,71.6882" id="Stroke-117" stroke="#666666" stroke-linecap="round"></path>
                    <path d="M152.0346,363.4023 L231.9656,20.5973" id="Stroke-119" stroke="#666666" stroke-linecap="round"></path>
                    <path d="M363.4023,231.9654 L20.5973,152.0344" id="Stroke-121" stroke="#666666" stroke-linecap="round"></path>
                    <path d="M18.3508,220.6696 L365.6488,163.3306" id="Stroke-123" stroke="#666666" stroke-linecap="round"></path>
                    <path d="M220.6696,365.6492 L163.3306,18.3512" id="Stroke-125" stroke="#666666" stroke-linecap="round"></path>
                    <path d="M55.9502,303.6532 L328.0502,80.3472" id="Stroke-127" stroke="#666666" stroke-linecap="round"></path>
                    <path d="M303.6532,328.0498 L80.3472,55.9498" id="Stroke-129" stroke="#666666" stroke-linecap="round"></path>
                    <path d="M130.004,356.7194 L253.996,27.2804" id="Stroke-131" stroke="#666666" stroke-linecap="round"></path>
                    <path d="M356.7195,253.996 L27.2805,130.004" id="Stroke-133" stroke="#666666" stroke-linecap="round"></path>
                    <path d="M31.688,264.6364 L352.312,119.3634" id="Stroke-135" stroke="#666666" stroke-linecap="round"></path>
                    <path d="M264.6364,352.312 L119.3634,31.688" id="Stroke-137" stroke="#666666" stroke-linecap="round"></path>
                    <path d="M89.4839,335.061 L294.5159,48.939" id="Stroke-139" stroke="#666666" stroke-linecap="round"></path>
                    <path d="M335.061,294.5161 L48.939,89.4841" id="Stroke-141" stroke="#666666" stroke-linecap="round"></path>
                    <path d="M174.749,367.1525 L209.251,16.8475" id="Stroke-143" stroke="#666666" stroke-linecap="round"></path>
                    <path d="M367.1525,209.251 L16.8475,174.749" id="Stroke-145" stroke="#666666" stroke-linecap="round"></path>
                    <path d="M16.8475,209.251 L367.1525,174.749" id="Stroke-147" stroke="#666666" stroke-linecap="round"></path>
                    <path d="M209.251,367.1525 L174.749,16.8475" id="Stroke-149" stroke="#666666" stroke-linecap="round"></path>
                    <path d="M48.939,294.5161 L335.061,89.4841" id="Stroke-151" stroke="#666666" stroke-linecap="round"></path>
                    <path d="M294.5161,335.061 L89.4841,48.939" id="Stroke-153" stroke="#666666" stroke-linecap="round"></path>
                    <path d="M119.3636,352.312 L264.6366,31.688" id="Stroke-155" stroke="#666666" stroke-linecap="round"></path>
                    <path d="M352.312,264.6364 L31.688,119.3634" id="Stroke-157" stroke="#666666" stroke-linecap="round"></path>
                    <path d="M27.2806,253.996 L356.7196,130.004" id="Stroke-159" stroke="#666666" stroke-linecap="round"></path>
                    <path d="M253.996,356.7194 L130.004,27.2804" id="Stroke-161" stroke="#666666" stroke-linecap="round"></path>
                    <path d="M80.3468,328.0498 L303.6528,55.9498" id="Stroke-163" stroke="#666666" stroke-linecap="round"></path>
                    <path d="M328.0498,303.6532 L55.9498,80.3472" id="Stroke-165" stroke="#666666" stroke-linecap="round"></path>
                    <path d="M163.3304,365.6492 L220.6694,18.3512" id="Stroke-167" stroke="#666666" stroke-linecap="round"></path>
                    <path d="M365.6492,220.6696 L18.3512,163.3306" id="Stroke-169" stroke="#666666" stroke-linecap="round"></path>
                    <path d="M20.5977,231.9654 L363.4027,152.0344" id="Stroke-171" stroke="#666666" stroke-linecap="round"></path>
                    <path d="M231.9654,363.4023 L152.0344,20.5973" id="Stroke-173" stroke="#666666" stroke-linecap="round"></path>
                    <path d="M63.5439,312.3122 L320.4559,71.6882" id="Stroke-175" stroke="#666666" stroke-linecap="round"></path>
                    <path d="M312.3123,320.4561 L71.6883,63.5441" id="Stroke-177" stroke="#666666" stroke-linecap="round"></path>
                    <path d="M140.9099,360.4215 L243.0899,23.5785" id="Stroke-179" stroke="#666666" stroke-linecap="round"></path>
                    <path d="M360.4215,243.0901 L23.5785,140.9101" id="Stroke-181" stroke="#666666" stroke-linecap="round"></path>
                    <path d="M36.7819,274.9658 L347.2179,109.0338" id="Stroke-183" stroke="#666666" stroke-linecap="round"></path>
                    <path d="M274.9658,347.2181 L109.0338,36.7821" id="Stroke-185" stroke="#666666" stroke-linecap="round"></path>
                    <path d="M99.0601,341.4596 L284.9401,42.5406" id="Stroke-187" stroke="#666666" stroke-linecap="round"></path>
                    <path d="M341.4596,284.9399 L42.5406,99.0599" id="Stroke-189" stroke="#666666" stroke-linecap="round"></path>
                    <path d="M186.2414,367.9058 L197.7584,16.0938" id="Stroke-191" stroke="#666666" stroke-linecap="round"></path>
                    <path d="M367.9058,197.7586 L16.0938,186.2416" id="Stroke-193" stroke="#666666" stroke-linecap="round"></path>
                </g>
            </g>
        </g>
    </g>
</svg>