<?xml version="1.0" encoding="UTF-8"?>
<svg width="545px" height="354px" viewBox="0 0 545 354" version="1.1" xmlns="http://www.w3.org/2000/svg" xmlns:xlink="http://www.w3.org/1999/xlink">
    <!-- Generator: Sketch 52.6 (67491) - http://www.bohemiancoding.com/sketch -->
    <title>Group 9</title>
    <desc>Created with Sketch.</desc>
    <g id="Web-Page" stroke="none" stroke-width="1" fill="none" fill-rule="evenodd">
        <g id="01.5-Main-XL---1200px" transform="translate(-135.000000, -2064.000000)">
            <g id="Group-9" transform="translate(120.000000, 2049.000000)">
                <g id="Group-93">
                    <path d="M384,192 C384,298.039 298.039,384 192,384 C85.961,384 0,298.039 0,192 C0,85.961 85.961,0 192,0 C298.039,0 384,85.961 384,192" id="Fill-1"></path>
                    <path d="M368,192 C368,289.202 289.202,368 192,368 C94.798,368 16,289.202 16,192 C16,94.798 94.798,16 192,16 C289.202,16 368,94.798 368,192 Z" id="Stroke-3" stroke="#FCBA59"></path>
                    <path d="M364,192 C364,289.202 286.993,368 192,368 C97.007,368 20,289.202 20,192 C20,94.798 97.007,16 192,16 C286.993,16 364,94.798 364,192 Z" id="Stroke-5" stroke="#FCBA59"></path>
                    <path d="M360,192 C360,289.202 284.784,368 192,368 C99.216,368 24,289.202 24,192 C24,94.798 99.216,16 192,16 C284.784,16 360,94.798 360,192 Z" id="Stroke-7" stroke="#FCBA59"></path>
                    <path d="M356,192 C356,289.202 282.575,368 192,368 C101.425,368 28,289.202 28,192 C28,94.798 101.425,16 192,16 C282.575,16 356,94.798 356,192 Z" id="Stroke-9" stroke="#FCBA59"></path>
                    <path d="M352,192 C352,289.202 280.366,368 192,368 C103.634,368 32,289.202 32,192 C32,94.798 103.634,16 192,16 C280.366,16 352,94.798 352,192 Z" id="Stroke-11" stroke="#FCBA59"></path>
                    <path d="M348,192 C348,289.202 278.156,368 192,368 C105.844,368 36,289.202 36,192 C36,94.798 105.844,16 192,16 C278.156,16 348,94.798 348,192 Z" id="Stroke-13" stroke="#FCBA59"></path>
                    <path d="M344,192 C344,289.202 275.947,368 192,368 C108.053,368 40,289.202 40,192 C40,94.798 108.053,16 192,16 C275.947,16 344,94.798 344,192 Z" id="Stroke-15" stroke="#FCBA59"></path>
                    <path d="M340.1026,192 C340.1026,289.202 273.7946,368 191.9996,368 C110.2056,368 43.8976,289.202 43.8976,192 C43.8976,94.798 110.2056,16 191.9996,16 C273.7946,16 340.1026,94.798 340.1026,192 Z" id="Stroke-17" stroke="#FCBA59"></path>
                    <path d="M336,192 C336,289.202 271.529,368 192,368 C112.471,368 48,289.202 48,192 C48,94.798 112.471,16 192,16 C271.529,16 336,94.798 336,192 Z" id="Stroke-19" stroke="#FCBA59"></path>
                    <path d="M332,192 C332,289.202 269.32,368 192,368 C114.68,368 52,289.202 52,192 C52,94.798 114.68,16 192,16 C269.32,16 332,94.798 332,192 Z" id="Stroke-21" stroke="#FCBA59"></path>
                    <path d="M328,192 C328,289.202 267.111,368 192,368 C116.889,368 56,289.202 56,192 C56,94.798 116.889,16 192,16 C267.111,16 328,94.798 328,192 Z" id="Stroke-23" stroke="#FCBA59"></path>
                    <path d="M324,192 C324,289.202 264.902,368 192,368 C119.098,368 60,289.202 60,192 C60,94.798 119.098,16 192,16 C264.902,16 324,94.798 324,192 Z" id="Stroke-25" stroke="#FCBA59"></path>
                    <path d="M320,192 C320,289.202 262.692,368 192,368 C121.308,368 64,289.202 64,192 C64,94.798 121.308,16 192,16 C262.692,16 320,94.798 320,192 Z" id="Stroke-27" stroke="#FCBA59"></path>
                    <path d="M316,192 C316,289.202 260.483,368 192,368 C123.517,368 68,289.202 68,192 C68,94.798 123.517,16 192,16 C260.483,16 316,94.798 316,192 Z" id="Stroke-29" stroke="#FCBA59"></path>
                    <path d="M312,192 C312,289.202 258.274,368 192,368 C125.726,368 72,289.202 72,192 C72,94.798 125.726,16 192,16 C258.274,16 312,94.798 312,192 Z" id="Stroke-31" stroke="#FCBA59"></path>
                    <path d="M308,192 C308,289.202 256.065,368 192,368 C127.935,368 76,289.202 76,192 C76,94.798 127.935,16 192,16 C256.065,16 308,94.798 308,192 Z" id="Stroke-33" stroke="#FCBA59"></path>
                    <path d="M304,192 C304,289.202 253.856,368 192,368 C130.144,368 80,289.202 80,192 C80,94.798 130.144,16 192,16 C253.856,16 304,94.798 304,192 Z" id="Stroke-35" stroke="#FCBA59"></path>
                    <path d="M300,192 C300,289.202 251.647,368 192,368 C132.353,368 84,289.202 84,192 C84,94.798 132.353,16 192,16 C251.647,16 300,94.798 300,192 Z" id="Stroke-37" stroke="#FCBA59"></path>
                    <path d="M296,192 C296,289.202 249.438,368 192,368 C134.562,368 88,289.202 88,192 C88,94.798 134.562,16 192,16 C249.438,16 296,94.798 296,192 Z" id="Stroke-39" stroke="#FCBA59"></path>
                    <path d="M292,192 C292,289.202 247.228,368 192,368 C136.772,368 92,289.202 92,192 C92,94.798 136.772,16 192,16 C247.228,16 292,94.798 292,192 Z" id="Stroke-41" stroke="#FCBA59"></path>
                    <path d="M288,192 C288,289.202 245.019,368 192,368 C138.981,368 96,289.202 96,192 C96,94.798 138.981,16 192,16 C245.019,16 288,94.798 288,192 Z" id="Stroke-43" stroke="#FCBA59"></path>
                    <path d="M284,192 C284,289.202 242.81,368 192,368 C141.19,368 100,289.202 100,192 C100,94.798 141.19,16 192,16 C242.81,16 284,94.798 284,192 Z" id="Stroke-45" stroke="#FCBA59"></path>
                    <path d="M280,192 C280,289.202 240.601,368 192,368 C143.399,368 104,289.202 104,192 C104,94.798 143.399,16 192,16 C240.601,16 280,94.798 280,192 Z" id="Stroke-47" stroke="#FCBA59"></path>
                    <path d="M276,192 C276,289.202 238.392,368 192,368 C145.608,368 108,289.202 108,192 C108,94.798 145.608,16 192,16 C238.392,16 276,94.798 276,192 Z" id="Stroke-49" stroke="#FCBA59"></path>
                    <path d="M272,192 C272,289.202 236.183,368 192,368 C147.817,368 112,289.202 112,192 C112,94.798 147.817,16 192,16 C236.183,16 272,94.798 272,192 Z" id="Stroke-51" stroke="#FCBA59"></path>
                    <path d="M268,192 C268,289.202 233.974,368 192,368 C150.026,368 116,289.202 116,192 C116,94.798 150.026,16 192,16 C233.974,16 268,94.798 268,192 Z" id="Stroke-53" stroke="#FCBA59"></path>
                    <path d="M264,192 C264,289.202 231.764,368 192,368 C152.236,368 120,289.202 120,192 C120,94.798 152.236,16 192,16 C231.764,16 264,94.798 264,192 Z" id="Stroke-55" stroke="#FCBA59"></path>
                    <path d="M260,192 C260,289.202 229.555,368 192,368 C154.445,368 124,289.202 124,192 C124,94.798 154.445,16 192,16 C229.555,16 260,94.798 260,192 Z" id="Stroke-57" stroke="#FCBA59"></path>
                    <path d="M256,192 C256,289.202 227.346,368 192,368 C156.654,368 128,289.202 128,192 C128,94.798 156.654,16 192,16 C227.346,16 256,94.798 256,192 Z" id="Stroke-59" stroke="#FCBA59"></path>
                    <path d="M252,192 C252,289.202 225.137,368 192,368 C158.863,368 132,289.202 132,192 C132,94.798 158.863,16 192,16 C225.137,16 252,94.798 252,192 Z" id="Stroke-61" stroke="#FCBA59"></path>
                    <path d="M248,192 C248,289.202 222.928,368 192,368 C161.072,368 136,289.202 136,192 C136,94.798 161.072,16 192,16 C222.928,16 248,94.798 248,192 Z" id="Stroke-63" stroke="#FCBA59"></path>
                    <path d="M244,192 C244,289.202 220.719,368 192,368 C163.281,368 140,289.202 140,192 C140,94.798 163.281,16 192,16 C220.719,16 244,94.798 244,192 Z" id="Stroke-65" stroke="#FCBA59"></path>
                    <path d="M240,192 C240,289.202 218.51,368 192,368 C165.49,368 144,289.202 144,192 C144,94.798 165.49,16 192,16 C218.51,16 240,94.798 240,192 Z" id="Stroke-67" stroke="#FCBA59"></path>
                    <path d="M236,192 C236,289.202 216.301,368 192,368 C167.699,368 148,289.202 148,192 C148,94.798 167.699,16 192,16 C216.301,16 236,94.798 236,192 Z" id="Stroke-69" stroke="#FCBA59"></path>
                    <path d="M232,192 C232,289.202 214.091,368 192,368 C169.909,368 152,289.202 152,192 C152,94.798 169.909,16 192,16 C214.091,16 232,94.798 232,192 Z" id="Stroke-71" stroke="#FCBA59"></path>
                    <path d="M228,192 C228,289.202 211.882,368 192,368 C172.118,368 156,289.202 156,192 C156,94.798 172.118,16 192,16 C211.882,16 228,94.798 228,192 Z" id="Stroke-73" stroke="#FCBA59"></path>
                    <path d="M224,192 C224,289.202 209.673,368 192,368 C174.327,368 160,289.202 160,192 C160,94.798 174.327,16 192,16 C209.673,16 224,94.798 224,192 Z" id="Stroke-75" stroke="#FCBA59"></path>
                    <path d="M220,192 C220,289.202 207.464,368 192,368 C176.536,368 164,289.202 164,192 C164,94.798 176.536,16 192,16 C207.464,16 220,94.798 220,192 Z" id="Stroke-77" stroke="#FCBA59"></path>
                    <path d="M216,192 C216,289.202 205.255,368 192,368 C178.745,368 168,289.202 168,192 C168,94.798 178.745,16 192,16 C205.255,16 216,94.798 216,192 Z" id="Stroke-79" stroke="#FCBA59"></path>
                    <path d="M212,192 C212,289.202 203.046,368 192,368 C180.954,368 172,289.202 172,192 C172,94.798 180.954,16 192,16 C203.046,16 212,94.798 212,192 Z" id="Stroke-81" stroke="#FCBA59"></path>
                    <path d="M208,192 C208,289.202 200.837,368 192,368 C183.163,368 176,289.202 176,192 C176,94.798 183.163,16 192,16 C200.837,16 208,94.798 208,192 Z" id="Stroke-83" stroke="#FCBA59"></path>
                    <path d="M204,192 C204,289.202 198.627,368 192,368 C185.373,368 180,289.202 180,192 C180,94.798 185.373,16 192,16 C198.627,16 204,94.798 204,192 Z" id="Stroke-85" stroke="#FCBA59"></path>
                    <path d="M200,192 C200,289.202 196.418,368 192,368 C187.582,368 184,289.202 184,192 C184,94.798 187.582,16 192,16 C196.418,16 200,94.798 200,192 Z" id="Stroke-87" stroke="#FCBA59"></path>
                    <path d="M196,192 C196,289.202 194.209,368 192,368 C189.791,368 188,289.202 188,192 C188,94.798 189.791,16 192,16 C194.209,16 196,94.798 196,192 Z" id="Stroke-89" stroke="#FCBA59"></path>
                    <path d="M192,16 L192,368" id="Stroke-91" stroke="#FCBA59"></path>
                </g>
                <g id="Group-93-Copy" transform="translate(191.000000, 0.000000)">
                    <path d="M384,192 C384,298.039 298.039,384 192,384 C85.961,384 0,298.039 0,192 C0,85.961 85.961,0 192,0 C298.039,0 384,85.961 384,192" id="Fill-1"></path>
                    <path d="M368,192 C368,289.202 289.202,368 192,368 C94.798,368 16,289.202 16,192 C16,94.798 94.798,16 192,16 C289.202,16 368,94.798 368,192 Z" id="Stroke-3" stroke="#FCBA59"></path>
                    <path d="M364,192 C364,289.202 286.993,368 192,368 C97.007,368 20,289.202 20,192 C20,94.798 97.007,16 192,16 C286.993,16 364,94.798 364,192 Z" id="Stroke-5" stroke="#FCBA59"></path>
                    <path d="M360,192 C360,289.202 284.784,368 192,368 C99.216,368 24,289.202 24,192 C24,94.798 99.216,16 192,16 C284.784,16 360,94.798 360,192 Z" id="Stroke-7" stroke="#FCBA59"></path>
                    <path d="M356,192 C356,289.202 282.575,368 192,368 C101.425,368 28,289.202 28,192 C28,94.798 101.425,16 192,16 C282.575,16 356,94.798 356,192 Z" id="Stroke-9" stroke="#FCBA59"></path>
                    <path d="M352,192 C352,289.202 280.366,368 192,368 C103.634,368 32,289.202 32,192 C32,94.798 103.634,16 192,16 C280.366,16 352,94.798 352,192 Z" id="Stroke-11" stroke="#FCBA59"></path>
                    <path d="M348,192 C348,289.202 278.156,368 192,368 C105.844,368 36,289.202 36,192 C36,94.798 105.844,16 192,16 C278.156,16 348,94.798 348,192 Z" id="Stroke-13" stroke="#FCBA59"></path>
                    <path d="M344,192 C344,289.202 275.947,368 192,368 C108.053,368 40,289.202 40,192 C40,94.798 108.053,16 192,16 C275.947,16 344,94.798 344,192 Z" id="Stroke-15" stroke="#FCBA59"></path>
                    <path d="M340.1026,192 C340.1026,289.202 273.7946,368 191.9996,368 C110.2056,368 43.8976,289.202 43.8976,192 C43.8976,94.798 110.2056,16 191.9996,16 C273.7946,16 340.1026,94.798 340.1026,192 Z" id="Stroke-17" stroke="#FCBA59"></path>
                    <path d="M336,192 C336,289.202 271.529,368 192,368 C112.471,368 48,289.202 48,192 C48,94.798 112.471,16 192,16 C271.529,16 336,94.798 336,192 Z" id="Stroke-19" stroke="#FCBA59"></path>
                    <path d="M332,192 C332,289.202 269.32,368 192,368 C114.68,368 52,289.202 52,192 C52,94.798 114.68,16 192,16 C269.32,16 332,94.798 332,192 Z" id="Stroke-21" stroke="#FCBA59"></path>
                    <path d="M328,192 C328,289.202 267.111,368 192,368 C116.889,368 56,289.202 56,192 C56,94.798 116.889,16 192,16 C267.111,16 328,94.798 328,192 Z" id="Stroke-23" stroke="#FCBA59"></path>
                    <path d="M324,192 C324,289.202 264.902,368 192,368 C119.098,368 60,289.202 60,192 C60,94.798 119.098,16 192,16 C264.902,16 324,94.798 324,192 Z" id="Stroke-25" stroke="#FCBA59"></path>
                    <path d="M320,192 C320,289.202 262.692,368 192,368 C121.308,368 64,289.202 64,192 C64,94.798 121.308,16 192,16 C262.692,16 320,94.798 320,192 Z" id="Stroke-27" stroke="#FCBA59"></path>
                    <path d="M316,192 C316,289.202 260.483,368 192,368 C123.517,368 68,289.202 68,192 C68,94.798 123.517,16 192,16 C260.483,16 316,94.798 316,192 Z" id="Stroke-29" stroke="#FCBA59"></path>
                    <path d="M312,192 C312,289.202 258.274,368 192,368 C125.726,368 72,289.202 72,192 C72,94.798 125.726,16 192,16 C258.274,16 312,94.798 312,192 Z" id="Stroke-31" stroke="#FCBA59"></path>
                    <path d="M308,192 C308,289.202 256.065,368 192,368 C127.935,368 76,289.202 76,192 C76,94.798 127.935,16 192,16 C256.065,16 308,94.798 308,192 Z" id="Stroke-33" stroke="#FCBA59"></path>
                    <path d="M304,192 C304,289.202 253.856,368 192,368 C130.144,368 80,289.202 80,192 C80,94.798 130.144,16 192,16 C253.856,16 304,94.798 304,192 Z" id="Stroke-35" stroke="#FCBA59"></path>
                    <path d="M300,192 C300,289.202 251.647,368 192,368 C132.353,368 84,289.202 84,192 C84,94.798 132.353,16 192,16 C251.647,16 300,94.798 300,192 Z" id="Stroke-37" stroke="#FCBA59"></path>
                    <path d="M296,192 C296,289.202 249.438,368 192,368 C134.562,368 88,289.202 88,192 C88,94.798 134.562,16 192,16 C249.438,16 296,94.798 296,192 Z" id="Stroke-39" stroke="#FCBA59"></path>
                    <path d="M292,192 C292,289.202 247.228,368 192,368 C136.772,368 92,289.202 92,192 C92,94.798 136.772,16 192,16 C247.228,16 292,94.798 292,192 Z" id="Stroke-41" stroke="#FCBA59"></path>
                    <path d="M288,192 C288,289.202 245.019,368 192,368 C138.981,368 96,289.202 96,192 C96,94.798 138.981,16 192,16 C245.019,16 288,94.798 288,192 Z" id="Stroke-43" stroke="#FCBA59"></path>
                    <path d="M284,192 C284,289.202 242.81,368 192,368 C141.19,368 100,289.202 100,192 C100,94.798 141.19,16 192,16 C242.81,16 284,94.798 284,192 Z" id="Stroke-45" stroke="#FCBA59"></path>
                    <path d="M280,192 C280,289.202 240.601,368 192,368 C143.399,368 104,289.202 104,192 C104,94.798 143.399,16 192,16 C240.601,16 280,94.798 280,192 Z" id="Stroke-47" stroke="#FCBA59"></path>
                    <path d="M276,192 C276,289.202 238.392,368 192,368 C145.608,368 108,289.202 108,192 C108,94.798 145.608,16 192,16 C238.392,16 276,94.798 276,192 Z" id="Stroke-49" stroke="#FCBA59"></path>
                    <path d="M272,192 C272,289.202 236.183,368 192,368 C147.817,368 112,289.202 112,192 C112,94.798 147.817,16 192,16 C236.183,16 272,94.798 272,192 Z" id="Stroke-51" stroke="#FCBA59"></path>
                    <path d="M268,192 C268,289.202 233.974,368 192,368 C150.026,368 116,289.202 116,192 C116,94.798 150.026,16 192,16 C233.974,16 268,94.798 268,192 Z" id="Stroke-53" stroke="#FCBA59"></path>
                    <path d="M264,192 C264,289.202 231.764,368 192,368 C152.236,368 120,289.202 120,192 C120,94.798 152.236,16 192,16 C231.764,16 264,94.798 264,192 Z" id="Stroke-55" stroke="#FCBA59"></path>
                    <path d="M260,192 C260,289.202 229.555,368 192,368 C154.445,368 124,289.202 124,192 C124,94.798 154.445,16 192,16 C229.555,16 260,94.798 260,192 Z" id="Stroke-57" stroke="#FCBA59"></path>
                    <path d="M256,192 C256,289.202 227.346,368 192,368 C156.654,368 128,289.202 128,192 C128,94.798 156.654,16 192,16 C227.346,16 256,94.798 256,192 Z" id="Stroke-59" stroke="#FCBA59"></path>
                    <path d="M252,192 C252,289.202 225.137,368 192,368 C158.863,368 132,289.202 132,192 C132,94.798 158.863,16 192,16 C225.137,16 252,94.798 252,192 Z" id="Stroke-61" stroke="#FCBA59"></path>
                    <path d="M248,192 C248,289.202 222.928,368 192,368 C161.072,368 136,289.202 136,192 C136,94.798 161.072,16 192,16 C222.928,16 248,94.798 248,192 Z" id="Stroke-63" stroke="#FCBA59"></path>
                    <path d="M244,192 C244,289.202 220.719,368 192,368 C163.281,368 140,289.202 140,192 C140,94.798 163.281,16 192,16 C220.719,16 244,94.798 244,192 Z" id="Stroke-65" stroke="#FCBA59"></path>
                    <path d="M240,192 C240,289.202 218.51,368 192,368 C165.49,368 144,289.202 144,192 C144,94.798 165.49,16 192,16 C218.51,16 240,94.798 240,192 Z" id="Stroke-67" stroke="#FCBA59"></path>
                    <path d="M236,192 C236,289.202 216.301,368 192,368 C167.699,368 148,289.202 148,192 C148,94.798 167.699,16 192,16 C216.301,16 236,94.798 236,192 Z" id="Stroke-69" stroke="#FCBA59"></path>
                    <path d="M232,192 C232,289.202 214.091,368 192,368 C169.909,368 152,289.202 152,192 C152,94.798 169.909,16 192,16 C214.091,16 232,94.798 232,192 Z" id="Stroke-71" stroke="#FCBA59"></path>
                    <path d="M228,192 C228,289.202 211.882,368 192,368 C172.118,368 156,289.202 156,192 C156,94.798 172.118,16 192,16 C211.882,16 228,94.798 228,192 Z" id="Stroke-73" stroke="#FCBA59"></path>
                    <path d="M224,192 C224,289.202 209.673,368 192,368 C174.327,368 160,289.202 160,192 C160,94.798 174.327,16 192,16 C209.673,16 224,94.798 224,192 Z" id="Stroke-75" stroke="#FCBA59"></path>
                    <path d="M220,192 C220,289.202 207.464,368 192,368 C176.536,368 164,289.202 164,192 C164,94.798 176.536,16 192,16 C207.464,16 220,94.798 220,192 Z" id="Stroke-77" stroke="#FCBA59"></path>
                    <path d="M216,192 C216,289.202 205.255,368 192,368 C178.745,368 168,289.202 168,192 C168,94.798 178.745,16 192,16 C205.255,16 216,94.798 216,192 Z" id="Stroke-79" stroke="#FCBA59"></path>
                    <path d="M212,192 C212,289.202 203.046,368 192,368 C180.954,368 172,289.202 172,192 C172,94.798 180.954,16 192,16 C203.046,16 212,94.798 212,192 Z" id="Stroke-81" stroke="#FCBA59"></path>
                    <path d="M208,192 C208,289.202 200.837,368 192,368 C183.163,368 176,289.202 176,192 C176,94.798 183.163,16 192,16 C200.837,16 208,94.798 208,192 Z" id="Stroke-83" stroke="#FCBA59"></path>
                    <path d="M204,192 C204,289.202 198.627,368 192,368 C185.373,368 180,289.202 180,192 C180,94.798 185.373,16 192,16 C198.627,16 204,94.798 204,192 Z" id="Stroke-85" stroke="#FCBA59"></path>
                    <path d="M200,192 C200,289.202 196.418,368 192,368 C187.582,368 184,289.202 184,192 C184,94.798 187.582,16 192,16 C196.418,16 200,94.798 200,192 Z" id="Stroke-87" stroke="#FCBA59"></path>
                    <path d="M196,192 C196,289.202 194.209,368 192,368 C189.791,368 188,289.202 188,192 C188,94.798 189.791,16 192,16 C194.209,16 196,94.798 196,192 Z" id="Stroke-89" stroke="#FCBA59"></path>
                    <path d="M192,16 L192,368" id="Stroke-91" stroke="#FCBA59"></path>
                </g>
            </g>
        </g>
    </g>
</svg>