<?xml version="1.0" encoding="UTF-8"?>
<svg width="1120px" height="354px" viewBox="0 0 1120 354" version="1.1" xmlns="http://www.w3.org/2000/svg" xmlns:xlink="http://www.w3.org/1999/xlink">
    <!-- Generator: Sketch 52.6 (67491) - http://www.bohemiancoding.com/sketch -->
    <title>careers_big</title>
    <desc>Created with Sketch.</desc>
    <g id="Web-Page" stroke="none" stroke-width="1" fill="none" fill-rule="evenodd">
        <g id="06.5-Jobs-XL---1200px" transform="translate(-39.000000, -1423.000000)">
            <g id="careers_big" transform="translate(24.000000, 1408.000000)">
                <g id="Group-19" transform="translate(767.000000, 0.000000)">
                    <path d="M384,192 C384,298.039 298.039,384 192,384 C85.961,384 0,298.039 0,192 C0,85.961 85.961,0 192,0 C298.039,0 384,85.961 384,192" id="Fill-1"></path>
                    <path d="M368,192 C368,289.202 289.202,368 192,368 C94.798,368 16,289.202 16,192 C16,94.798 94.798,16 192,16 C289.202,16 368,94.798 368,192" id="Fill-9" fill="#FCBA59"></path>
                </g>
                <g id="Group-16">
                    <path d="M384,192 C384,298.039 298.039,384 192,384 C85.961,384 0,298.039 0,192 C0,85.961 85.961,0 192,0 C298.039,0 384,85.961 384,192" id="Fill-5"></path>
                    <path d="M368,192 C368,289.202 289.202,368 192,368 C94.798,368 16,289.202 16,192 C16,94.798 94.798,16 192,16 C289.202,16 368,94.798 368,192 Z" id="Stroke-101" stroke="#FCBA59"></path>
                    <path d="M364,192 C364,286.993 286.993,364 192,364 C97.007,364 20,286.993 20,192 C20,97.007 97.007,20 192,20 C286.993,20 364,97.007 364,192 Z" id="Stroke-103" stroke="#FCBA59"></path>
                    <path d="M360,192 C360,284.784 284.784,360 192,360 C99.216,360 24,284.784 24,192 C24,99.216 99.216,24 192,24 C284.784,24 360,99.216 360,192 Z" id="Stroke-105" stroke="#FCBA59"></path>
                    <path d="M356,192 C356,282.575 282.575,356 192,356 C101.425,356 28,282.575 28,192 C28,101.425 101.425,28 192,28 C282.575,28 356,101.425 356,192 Z" id="Stroke-107" stroke="#FCBA59"></path>
                    <path d="M352,192 C352,280.366 280.366,352 192,352 C103.634,352 32,280.366 32,192 C32,103.634 103.634,32 192,32 C280.366,32 352,103.634 352,192 Z" id="Stroke-109" stroke="#FCBA59"></path>
                    <path d="M348,192 C348,278.156 278.156,348 192,348 C105.844,348 36,278.156 36,192 C36,105.844 105.844,36 192,36 C278.156,36 348,105.844 348,192 Z" id="Stroke-111" stroke="#FCBA59"></path>
                    <path d="M344,192 C344,275.947 275.947,344 192,344 C108.053,344 40,275.947 40,192 C40,108.053 108.053,40 192,40 C275.947,40 344,108.053 344,192 Z" id="Stroke-113" stroke="#FCBA59"></path>
                    <path d="M340,192 C340,273.738 273.738,340 192,340 C110.262,340 44,273.738 44,192 C44,110.262 110.262,44 192,44 C273.738,44 340,110.262 340,192 Z" id="Stroke-115" stroke="#FCBA59"></path>
                    <path d="M336,192 C336,271.529 271.529,336 192,336 C112.471,336 48,271.529 48,192 C48,112.471 112.471,48 192,48 C271.529,48 336,112.471 336,192 Z" id="Stroke-117" stroke="#FCBA59"></path>
                    <path d="M332,192 C332,269.32 269.32,332 192,332 C114.68,332 52,269.32 52,192 C52,114.68 114.68,52 192,52 C269.32,52 332,114.68 332,192 Z" id="Stroke-119" stroke="#FCBA59"></path>
                    <path d="M324,192 C324,264.902 264.902,324 192,324 C119.098,324 60,264.902 60,192 C60,119.098 119.098,60 192,60 C264.902,60 324,119.098 324,192 Z" id="Stroke-121" stroke="#FCBA59"></path>
                    <path d="M320,192 C320,262.693 262.692,320 192,320 C121.308,320 64,262.693 64,192 C64,121.307 121.308,64 192,64 C262.692,64 320,121.307 320,192 Z" id="Stroke-123" stroke="#FCBA59"></path>
                    <path d="M316,192 C316,260.483 260.483,316 192,316 C123.517,316 68,260.483 68,192 C68,123.517 123.517,68 192,68 C260.483,68 316,123.517 316,192 Z" id="Stroke-125" stroke="#FCBA59"></path>
                    <path d="M312,192 C312,258.274 258.274,312 192,312 C125.726,312 72,258.274 72,192 C72,125.726 125.726,72 192,72 C258.274,72 312,125.726 312,192 Z" id="Stroke-127" stroke="#FCBA59"></path>
                    <path d="M308,192 C308,256.065 256.065,308 192,308 C127.935,308 76,256.065 76,192 C76,127.935 127.935,76 192,76 C256.065,76 308,127.935 308,192 Z" id="Stroke-129" stroke="#FCBA59"></path>
                    <path d="M304,192 C304,253.856 253.856,304 192,304 C130.144,304 80,253.856 80,192 C80,130.144 130.144,80 192,80 C253.856,80 304,130.144 304,192 Z" id="Stroke-131" stroke="#FCBA59"></path>
                    <path d="M300,192 C300,251.647 251.647,300 192,300 C132.353,300 84,251.647 84,192 C84,132.353 132.353,84 192,84 C251.647,84 300,132.353 300,192 Z" id="Stroke-133" stroke="#FCBA59"></path>
                    <path d="M296,192 C296,249.438 249.438,296 192,296 C134.562,296 88,249.438 88,192 C88,134.562 134.562,88 192,88 C249.438,88 296,134.562 296,192 Z" id="Stroke-135" stroke="#FCBA59"></path>
                    <path d="M292,192 C292,247.229 247.228,292 192,292 C136.772,292 92,247.229 92,192 C92,136.771 136.772,92 192,92 C247.228,92 292,136.771 292,192 Z" id="Stroke-137" stroke="#FCBA59"></path>
                    <path d="M288,192 C288,245.019 245.019,288 192,288 C138.981,288 96,245.019 96,192 C96,138.981 138.981,96 192,96 C245.019,96 288,138.981 288,192 Z" id="Stroke-139" stroke="#FCBA59"></path>
                    <path d="M284,192 C284,242.81 242.81,284 192,284 C141.19,284 100,242.81 100,192 C100,141.19 141.19,100 192,100 C242.81,100 284,141.19 284,192 Z" id="Stroke-141" stroke="#FCBA59"></path>
                    <path d="M280,192 C280,240.601 240.601,280 192,280 C143.399,280 104,240.601 104,192 C104,143.399 143.399,104 192,104 C240.601,104 280,143.399 280,192 Z" id="Stroke-143" stroke="#FCBA59"></path>
                    <path d="M276,192 C276,238.392 238.392,276 192,276 C145.608,276 108,238.392 108,192 C108,145.608 145.608,108 192,108 C238.392,108 276,145.608 276,192 Z" id="Stroke-145" stroke="#FCBA59"></path>
                    <path d="M272,192 C272,236.183 236.183,272 192,272 C147.817,272 112,236.183 112,192 C112,147.817 147.817,112 192,112 C236.183,112 272,147.817 272,192 Z" id="Stroke-147" stroke="#FCBA59"></path>
                    <path d="M268,192 C268,233.974 233.974,268 192,268 C150.026,268 116,233.974 116,192 C116,150.026 150.026,116 192,116 C233.974,116 268,150.026 268,192 Z" id="Stroke-149" stroke="#FCBA59"></path>
                    <path d="M264,192 C264,231.765 231.764,264 192,264 C152.236,264 120,231.765 120,192 C120,152.235 152.236,120 192,120 C231.764,120 264,152.235 264,192 Z" id="Stroke-151" stroke="#FCBA59"></path>
                    <path d="M260,192 C260,229.555 229.555,260 192,260 C154.445,260 124,229.555 124,192 C124,154.445 154.445,124 192,124 C229.555,124 260,154.445 260,192 Z" id="Stroke-153" stroke="#FCBA59"></path>
                    <path d="M256,192 C256,227.346 227.346,256 192,256 C156.654,256 128,227.346 128,192 C128,156.654 156.654,128 192,128 C227.346,128 256,156.654 256,192 Z" id="Stroke-155" stroke="#FCBA59"></path>
                    <path d="M252,192 C252,225.137 225.137,252 192,252 C158.863,252 132,225.137 132,192 C132,158.863 158.863,132 192,132 C225.137,132 252,158.863 252,192 Z" id="Stroke-157" stroke="#FCBA59"></path>
                    <path d="M248,192 C248,222.928 222.928,248 192,248 C161.072,248 136,222.928 136,192 C136,161.072 161.072,136 192,136 C222.928,136 248,161.072 248,192 Z" id="Stroke-159" stroke="#FCBA59"></path>
                    <path d="M240,192 C240,218.51 218.51,240 192,240 C165.49,240 144,218.51 144,192 C144,165.49 165.49,144 192,144 C218.51,144 240,165.49 240,192 Z" id="Stroke-161" stroke="#FCBA59"></path>
                    <path d="M244,192 C244,220.719 220.719,244 192,244 C163.281,244 140,220.719 140,192 C140,163.281 163.281,140 192,140 C220.719,140 244,163.281 244,192 Z" id="Stroke-163" stroke="#FCBA59"></path>
                    <path d="M236,192 C236,216.301 216.301,236 192,236 C167.699,236 148,216.301 148,192 C148,167.699 167.699,148 192,148 C216.301,148 236,167.699 236,192 Z" id="Stroke-165" stroke="#FCBA59"></path>
                    <path d="M232,192 C232,214.091 214.091,232 192,232 C169.909,232 152,214.091 152,192 C152,169.909 169.909,152 192,152 C214.091,152 232,169.909 232,192 Z" id="Stroke-167" stroke="#FCBA59"></path>
                    <path d="M228,192 C228,211.882 211.882,228 192,228 C172.118,228 156,211.882 156,192 C156,172.118 172.118,156 192,156 C211.882,156 228,172.118 228,192 Z" id="Stroke-169" stroke="#FCBA59"></path>
                    <path d="M224,192 C224,209.673 209.673,224 192,224 C174.327,224 160,209.673 160,192 C160,174.327 174.327,160 192,160 C209.673,160 224,174.327 224,192 Z" id="Stroke-171" stroke="#FCBA59"></path>
                    <path d="M220,192 C220,207.464 207.464,220 192,220 C176.536,220 164,207.464 164,192 C164,176.536 176.536,164 192,164 C207.464,164 220,176.536 220,192 Z" id="Stroke-173" stroke="#FCBA59"></path>
                    <path d="M216,192 C216,205.255 205.255,216 192,216 C178.745,216 168,205.255 168,192 C168,178.745 178.745,168 192,168 C205.255,168 216,178.745 216,192 Z" id="Stroke-175" stroke="#FCBA59"></path>
                    <path d="M212,192 C212,203.046 203.046,212 192,212 C180.954,212 172,203.046 172,192 C172,180.954 180.954,172 192,172 C203.046,172 212,180.954 212,192 Z" id="Stroke-177" stroke="#FCBA59"></path>
                    <path d="M208,192 C208,200.837 200.837,208 192,208 C183.163,208 176,200.837 176,192 C176,183.163 183.163,176 192,176 C200.837,176 208,183.163 208,192 Z" id="Stroke-179" stroke="#FCBA59"></path>
                    <path d="M204,192 C204,198.627 198.627,204 192,204 C185.373,204 180,198.627 180,192 C180,185.373 185.373,180 192,180 C198.627,180 204,185.373 204,192 Z" id="Stroke-181" stroke="#FCBA59"></path>
                    <path d="M200,192 C200,196.418 196.418,200 192,200 C187.582,200 184,196.418 184,192 C184,187.582 187.582,184 192,184 C196.418,184 200,187.582 200,192 Z" id="Stroke-183" stroke="#FCBA59"></path>
                    <path d="M196,192 C196,194.209 194.209,196 192,196 C189.791,196 188,194.209 188,192 C188,189.791 189.791,188 192,188 C194.209,188 196,189.791 196,192 Z" id="Stroke-185" stroke="#FCBA59"></path>
                    <path d="M328,192 C328,267.111 267.111,328 192,328 C116.889,328 56,267.111 56,192 C56,116.889 116.889,56 192,56 C267.111,56 328,116.889 328,192 Z" id="Stroke-187" stroke="#FCBA59"></path>
                </g>
                <g id="Group-17" transform="translate(511.333333, 0.000000)">
                    <path d="M384,192 C384,298.039 298.039,384 192,384 C85.961,384 0,298.039 0,192 C0,85.961 85.961,0 192,0 C298.039,0 384,85.961 384,192" id="Fill-3"></path>
                    <path d="M16,192 L368,192" id="Stroke-189" stroke="#FCBA59" stroke-linecap="round"></path>
                    <path d="M192,368 L192,16" id="Stroke-191" stroke="#FCBA59" stroke-linecap="round"></path>
                    <path d="M39.5795,280 L344.4205,104" id="Stroke-193" stroke="#FCBA59" stroke-linecap="round"></path>
                    <path d="M280,344.4205 L104,39.5795" id="Stroke-195" stroke="#FCBA59" stroke-linecap="round"></path>
                    <path d="M104,344.4205 L280,39.5795" id="Stroke-197" stroke="#FCBA59" stroke-linecap="round"></path>
                    <path d="M344.4205,280 L39.5795,104" id="Stroke-199" stroke="#FCBA59" stroke-linecap="round"></path>
                    <path d="M21.9971,237.5521 L362.0031,146.4481" id="Stroke-201" stroke="#FCBA59" stroke-linecap="round"></path>
                    <path d="M237.5522,362.0029 L146.4482,21.9969" id="Stroke-203" stroke="#FCBA59" stroke-linecap="round"></path>
                    <path d="M67.5492,316.4508 L316.4512,67.5488" id="Stroke-205" stroke="#FCBA59" stroke-linecap="round"></path>
                    <path d="M316.4508,316.4508 L67.5488,67.5488" id="Stroke-207" stroke="#FCBA59" stroke-linecap="round"></path>
                    <path d="M146.4478,362.0029 L237.5518,21.9969" id="Stroke-209" stroke="#FCBA59" stroke-linecap="round"></path>
                    <path d="M362.003,237.5521 L21.997,146.4481" id="Stroke-211" stroke="#FCBA59" stroke-linecap="round"></path>
                    <path d="M17.5057,214.9726 L366.4947,169.0276" id="Stroke-213" stroke="#FCBA59" stroke-linecap="round"></path>
                    <path d="M214.9726,366.4943 L169.0276,17.5053" id="Stroke-215" stroke="#FCBA59" stroke-linecap="round"></path>
                    <path d="M52.3698,299.142 L331.6298,84.858" id="Stroke-217" stroke="#FCBA59" stroke-linecap="round"></path>
                    <path d="M299.142,331.6302 L84.858,52.3702" id="Stroke-219" stroke="#FCBA59" stroke-linecap="round"></path>
                    <path d="M124.6477,354.6028 L259.3527,29.3968" id="Stroke-221" stroke="#FCBA59" stroke-linecap="round"></path>
                    <path d="M354.6028,259.3523 L29.3968,124.6473" id="Stroke-223" stroke="#FCBA59" stroke-linecap="round"></path>
                    <path d="M29.3972,259.3523 L354.6032,124.6473" id="Stroke-225" stroke="#FCBA59" stroke-linecap="round"></path>
                    <path d="M259.3523,354.6028 L124.6473,29.3968" id="Stroke-227" stroke="#FCBA59" stroke-linecap="round"></path>
                    <path d="M84.858,331.6302 L299.142,52.3702" id="Stroke-229" stroke="#FCBA59" stroke-linecap="round"></path>
                    <path d="M331.6302,299.142 L52.3702,84.858" id="Stroke-231" stroke="#FCBA59" stroke-linecap="round"></path>
                    <path d="M169.0274,366.4943 L214.9724,17.5053" id="Stroke-233" stroke="#FCBA59" stroke-linecap="round"></path>
                    <path d="M366.4943,214.9726 L17.5053,169.0276" id="Stroke-235" stroke="#FCBA59" stroke-linecap="round"></path>
                    <path d="M16.3768,203.5109 L367.6228,180.4889" id="Stroke-237" stroke="#FCBA59" stroke-linecap="round"></path>
                    <path d="M203.511,367.6232 L180.489,16.3772" id="Stroke-239" stroke="#FCBA59" stroke-linecap="round"></path>
                    <path d="M45.6613,289.7803 L338.3383,94.2193" id="Stroke-241" stroke="#FCBA59" stroke-linecap="round"></path>
                    <path d="M289.7804,338.3386 L94.2194,45.6616" id="Stroke-243" stroke="#FCBA59" stroke-linecap="round"></path>
                    <path d="M114.1572,349.8496 L269.8432,34.1506" id="Stroke-245" stroke="#FCBA59" stroke-linecap="round"></path>
                    <path d="M349.8496,269.8428 L34.1506,114.1568" id="Stroke-247" stroke="#FCBA59" stroke-linecap="round"></path>
                    <path d="M25.3403,248.5734 L358.6593,135.4264" id="Stroke-249" stroke="#FCBA59" stroke-linecap="round"></path>
                    <path d="M248.5733,358.6597 L135.4263,25.3407" id="Stroke-251" stroke="#FCBA59" stroke-linecap="round"></path>
                    <path d="M75.9551,324.3238 L308.0451,59.6758" id="Stroke-253" stroke="#FCBA59" stroke-linecap="round"></path>
                    <path d="M324.3238,308.0449 L59.6758,75.9549" id="Stroke-255" stroke="#FCBA59" stroke-linecap="round"></path>
                    <path d="M157.6641,364.6182 L226.3361,19.3822" id="Stroke-257" stroke="#FCBA59" stroke-linecap="round"></path>
                    <path d="M364.6182,226.3359 L19.3822,157.6639" id="Stroke-259" stroke="#FCBA59" stroke-linecap="round"></path>
                    <path d="M19.3818,226.3359 L364.6178,157.6639" id="Stroke-261" stroke="#FCBA59" stroke-linecap="round"></path>
                    <path d="M226.3359,364.6182 L157.6639,19.3822" id="Stroke-263" stroke="#FCBA59" stroke-linecap="round"></path>
                    <path d="M59.6762,308.0449 L324.3242,75.9549" id="Stroke-265" stroke="#FCBA59" stroke-linecap="round"></path>
                    <path d="M308.0449,324.3238 L75.9549,59.6758" id="Stroke-267" stroke="#FCBA59" stroke-linecap="round"></path>
                    <path d="M135.4267,358.6597 L248.5737,25.3407" id="Stroke-269" stroke="#FCBA59" stroke-linecap="round"></path>
                    <path d="M358.6597,248.5734 L25.3407,135.4264" id="Stroke-271" stroke="#FCBA59" stroke-linecap="round"></path>
                    <path d="M34.1504,269.8428 L349.8494,114.1568" id="Stroke-273" stroke="#FCBA59" stroke-linecap="round"></path>
                    <path d="M269.8428,349.8496 L114.1568,34.1506" id="Stroke-275" stroke="#FCBA59" stroke-linecap="round"></path>
                    <path d="M94.2197,338.3386 L289.7807,45.6616" id="Stroke-277" stroke="#FCBA59" stroke-linecap="round"></path>
                    <path d="M338.3387,289.7803 L45.6617,94.2193" id="Stroke-279" stroke="#FCBA59" stroke-linecap="round"></path>
                    <path d="M180.489,367.6232 L203.511,16.3772" id="Stroke-281" stroke="#FCBA59" stroke-linecap="round"></path>
                    <path d="M367.6232,203.5109 L16.3772,180.4889" id="Stroke-283" stroke="#FCBA59" stroke-linecap="round"></path>
                    <path d="M16.0942,197.7585 L367.9062,186.2415" id="Stroke-285" stroke="#FCBA59" stroke-linecap="round"></path>
                    <path d="M197.7586,367.9058 L186.2416,16.0938" id="Stroke-287" stroke="#FCBA59" stroke-linecap="round"></path>
                    <path d="M42.5404,284.9399 L341.4594,99.0599" id="Stroke-289" stroke="#FCBA59" stroke-linecap="round"></path>
                    <path d="M284.9399,341.4596 L99.0599,42.5406" id="Stroke-291" stroke="#FCBA59" stroke-linecap="round"></path>
                    <path d="M109.0342,347.2181 L274.9662,36.7821" id="Stroke-293" stroke="#FCBA59" stroke-linecap="round"></path>
                    <path d="M347.2181,274.9658 L36.7821,109.0338" id="Stroke-295" stroke="#FCBA59" stroke-linecap="round"></path>
                    <path d="M23.5785,243.0901 L360.4215,140.9101" id="Stroke-297" stroke="#FCBA59" stroke-linecap="round"></path>
                    <path d="M243.0901,360.4215 L140.9101,23.5785" id="Stroke-299" stroke="#FCBA59" stroke-linecap="round"></path>
                    <path d="M71.6878,320.4561 L312.3118,63.5441" id="Stroke-301" stroke="#FCBA59" stroke-linecap="round"></path>
                    <path d="M320.4561,312.3123 L63.5441,71.6873" id="Stroke-303" stroke="#FCBA59" stroke-linecap="round"></path>
                    <path d="M152.0346,363.4023 L231.9656,20.5973" id="Stroke-305" stroke="#FCBA59" stroke-linecap="round"></path>
                    <path d="M363.4023,231.9654 L20.5973,152.0344" id="Stroke-307" stroke="#FCBA59" stroke-linecap="round"></path>
                    <path d="M18.3508,220.6696 L365.6488,163.3306" id="Stroke-309" stroke="#FCBA59" stroke-linecap="round"></path>
                    <path d="M220.6696,365.6492 L163.3306,18.3512" id="Stroke-311" stroke="#FCBA59" stroke-linecap="round"></path>
                    <path d="M55.9502,303.6532 L328.0502,80.3472" id="Stroke-313" stroke="#FCBA59" stroke-linecap="round"></path>
                    <path d="M303.6532,328.0499 L80.3472,55.9499" id="Stroke-315" stroke="#FCBA59" stroke-linecap="round"></path>
                    <path d="M130.004,356.7194 L253.996,27.2804" id="Stroke-317" stroke="#FCBA59" stroke-linecap="round"></path>
                    <path d="M356.7195,253.996 L27.2805,130.004" id="Stroke-319" stroke="#FCBA59" stroke-linecap="round"></path>
                    <path d="M31.688,264.6364 L352.312,119.3634" id="Stroke-321" stroke="#FCBA59" stroke-linecap="round"></path>
                    <path d="M264.6364,352.312 L119.3634,31.688" id="Stroke-323" stroke="#FCBA59" stroke-linecap="round"></path>
                    <path d="M89.4839,335.061 L294.5159,48.939" id="Stroke-325" stroke="#FCBA59" stroke-linecap="round"></path>
                    <path d="M335.061,294.5161 L48.939,89.4841" id="Stroke-327" stroke="#FCBA59" stroke-linecap="round"></path>
                    <path d="M174.749,367.1525 L209.251,16.8475" id="Stroke-329" stroke="#FCBA59" stroke-linecap="round"></path>
                    <path d="M367.1525,209.251 L16.8475,174.749" id="Stroke-331" stroke="#FCBA59" stroke-linecap="round"></path>
                    <path d="M16.8475,209.251 L367.1525,174.749" id="Stroke-333" stroke="#FCBA59" stroke-linecap="round"></path>
                    <path d="M209.251,367.1525 L174.749,16.8475" id="Stroke-335" stroke="#FCBA59" stroke-linecap="round"></path>
                    <path d="M48.939,294.5161 L335.061,89.4841" id="Stroke-337" stroke="#FCBA59" stroke-linecap="round"></path>
                    <path d="M294.5161,335.061 L89.4841,48.939" id="Stroke-339" stroke="#FCBA59" stroke-linecap="round"></path>
                    <path d="M119.3636,352.312 L264.6366,31.688" id="Stroke-341" stroke="#FCBA59" stroke-linecap="round"></path>
                    <path d="M352.312,264.6364 L31.688,119.3634" id="Stroke-343" stroke="#FCBA59" stroke-linecap="round"></path>
                    <path d="M27.2806,253.996 L356.7196,130.004" id="Stroke-345" stroke="#FCBA59" stroke-linecap="round"></path>
                    <path d="M253.996,356.7194 L130.004,27.2804" id="Stroke-347" stroke="#FCBA59" stroke-linecap="round"></path>
                    <path d="M80.3468,328.0499 L303.6528,55.9499" id="Stroke-349" stroke="#FCBA59" stroke-linecap="round"></path>
                    <path d="M328.0498,303.6532 L55.9498,80.3472" id="Stroke-351" stroke="#FCBA59" stroke-linecap="round"></path>
                    <path d="M163.3304,365.6492 L220.6694,18.3512" id="Stroke-353" stroke="#FCBA59" stroke-linecap="round"></path>
                    <path d="M365.6492,220.6696 L18.3512,163.3306" id="Stroke-355" stroke="#FCBA59" stroke-linecap="round"></path>
                    <path d="M20.5977,231.9654 L363.4027,152.0344" id="Stroke-357" stroke="#FCBA59" stroke-linecap="round"></path>
                    <path d="M231.9654,363.4023 L152.0344,20.5973" id="Stroke-359" stroke="#FCBA59" stroke-linecap="round"></path>
                    <path d="M63.5439,312.3123 L320.4559,71.6873" id="Stroke-361" stroke="#FCBA59" stroke-linecap="round"></path>
                    <path d="M312.3123,320.4561 L71.6883,63.5441" id="Stroke-363" stroke="#FCBA59" stroke-linecap="round"></path>
                    <path d="M140.9099,360.4215 L243.0899,23.5785" id="Stroke-365" stroke="#FCBA59" stroke-linecap="round"></path>
                    <path d="M360.4215,243.0901 L23.5785,140.9101" id="Stroke-367" stroke="#FCBA59" stroke-linecap="round"></path>
                    <path d="M36.7819,274.9658 L347.2179,109.0338" id="Stroke-369" stroke="#FCBA59" stroke-linecap="round"></path>
                    <path d="M274.9658,347.2181 L109.0338,36.7821" id="Stroke-371" stroke="#FCBA59" stroke-linecap="round"></path>
                    <path d="M99.0601,341.4596 L284.9401,42.5406" id="Stroke-373" stroke="#FCBA59" stroke-linecap="round"></path>
                    <path d="M341.4596,284.9399 L42.5406,99.0599" id="Stroke-375" stroke="#FCBA59" stroke-linecap="round"></path>
                    <path d="M186.2414,367.9058 L197.7584,16.0938" id="Stroke-377" stroke="#FCBA59" stroke-linecap="round"></path>
                    <path d="M367.9058,197.7585 L16.0938,186.2415" id="Stroke-379" stroke="#FCBA59" stroke-linecap="round"></path>
                </g>
                <g id="Group-15" transform="translate(255.666667, 0.000000)">
                    <path d="M384,192 C384,298.039 298.039,384 192,384 C85.961,384 0,298.039 0,192 C0,85.961 85.961,0 192,0 C298.039,0 384,85.961 384,192" id="Fill-7"></path>
                    <path d="M368,192 C368,289.202 289.202,368 192,368 C94.798,368 16,289.202 16,192 C16,94.798 94.798,16 192,16 C289.202,16 368,94.798 368,192 Z" id="Stroke-11" stroke="#FCBA59"></path>
                    <path d="M364,192 C364,289.202 286.993,368 192,368 C97.007,368 20,289.202 20,192 C20,94.798 97.007,16 192,16 C286.993,16 364,94.798 364,192 Z" id="Stroke-13" stroke="#FCBA59"></path>
                    <path d="M360,192 C360,289.202 284.784,368 192,368 C99.216,368 24,289.202 24,192 C24,94.798 99.216,16 192,16 C284.784,16 360,94.798 360,192 Z" id="Stroke-15" stroke="#FCBA59"></path>
                    <path d="M356,192 C356,289.202 282.575,368 192,368 C101.425,368 28,289.202 28,192 C28,94.798 101.425,16 192,16 C282.575,16 356,94.798 356,192 Z" id="Stroke-17" stroke="#FCBA59"></path>
                    <path d="M352,192 C352,289.202 280.366,368 192,368 C103.634,368 32,289.202 32,192 C32,94.798 103.634,16 192,16 C280.366,16 352,94.798 352,192 Z" id="Stroke-19" stroke="#FCBA59"></path>
                    <path d="M348,192 C348,289.202 278.156,368 192,368 C105.844,368 36,289.202 36,192 C36,94.798 105.844,16 192,16 C278.156,16 348,94.798 348,192 Z" id="Stroke-21" stroke="#FCBA59"></path>
                    <path d="M344,192 C344,289.202 275.947,368 192,368 C108.053,368 40,289.202 40,192 C40,94.798 108.053,16 192,16 C275.947,16 344,94.798 344,192 Z" id="Stroke-23" stroke="#FCBA59"></path>
                    <path d="M340.1026,192 C340.1026,289.202 273.7946,368 191.9996,368 C110.2056,368 43.8976,289.202 43.8976,192 C43.8976,94.798 110.2056,16 191.9996,16 C273.7946,16 340.1026,94.798 340.1026,192 Z" id="Stroke-25" stroke="#FCBA59"></path>
                    <path d="M336,192 C336,289.202 271.529,368 192,368 C112.471,368 48,289.202 48,192 C48,94.798 112.471,16 192,16 C271.529,16 336,94.798 336,192 Z" id="Stroke-27" stroke="#FCBA59"></path>
                    <path d="M332,192 C332,289.202 269.32,368 192,368 C114.68,368 52,289.202 52,192 C52,94.798 114.68,16 192,16 C269.32,16 332,94.798 332,192 Z" id="Stroke-29" stroke="#FCBA59"></path>
                    <path d="M328,192 C328,289.202 267.111,368 192,368 C116.889,368 56,289.202 56,192 C56,94.798 116.889,16 192,16 C267.111,16 328,94.798 328,192 Z" id="Stroke-31" stroke="#FCBA59"></path>
                    <path d="M324,192 C324,289.202 264.902,368 192,368 C119.098,368 60,289.202 60,192 C60,94.798 119.098,16 192,16 C264.902,16 324,94.798 324,192 Z" id="Stroke-33" stroke="#FCBA59"></path>
                    <path d="M320,192 C320,289.202 262.692,368 192,368 C121.308,368 64,289.202 64,192 C64,94.798 121.308,16 192,16 C262.692,16 320,94.798 320,192 Z" id="Stroke-35" stroke="#FCBA59"></path>
                    <path d="M316,192 C316,289.202 260.483,368 192,368 C123.517,368 68,289.202 68,192 C68,94.798 123.517,16 192,16 C260.483,16 316,94.798 316,192 Z" id="Stroke-37" stroke="#FCBA59"></path>
                    <path d="M312,192 C312,289.202 258.274,368 192,368 C125.726,368 72,289.202 72,192 C72,94.798 125.726,16 192,16 C258.274,16 312,94.798 312,192 Z" id="Stroke-39" stroke="#FCBA59"></path>
                    <path d="M308,192 C308,289.202 256.065,368 192,368 C127.935,368 76,289.202 76,192 C76,94.798 127.935,16 192,16 C256.065,16 308,94.798 308,192 Z" id="Stroke-41" stroke="#FCBA59"></path>
                    <path d="M304,192 C304,289.202 253.856,368 192,368 C130.144,368 80,289.202 80,192 C80,94.798 130.144,16 192,16 C253.856,16 304,94.798 304,192 Z" id="Stroke-43" stroke="#FCBA59"></path>
                    <path d="M300,192 C300,289.202 251.647,368 192,368 C132.353,368 84,289.202 84,192 C84,94.798 132.353,16 192,16 C251.647,16 300,94.798 300,192 Z" id="Stroke-45" stroke="#FCBA59"></path>
                    <path d="M296,192 C296,289.202 249.438,368 192,368 C134.562,368 88,289.202 88,192 C88,94.798 134.562,16 192,16 C249.438,16 296,94.798 296,192 Z" id="Stroke-47" stroke="#FCBA59"></path>
                    <path d="M292,192 C292,289.202 247.228,368 192,368 C136.772,368 92,289.202 92,192 C92,94.798 136.772,16 192,16 C247.228,16 292,94.798 292,192 Z" id="Stroke-49" stroke="#FCBA59"></path>
                    <path d="M288,192 C288,289.202 245.019,368 192,368 C138.981,368 96,289.202 96,192 C96,94.798 138.981,16 192,16 C245.019,16 288,94.798 288,192 Z" id="Stroke-51" stroke="#FCBA59"></path>
                    <path d="M284,192 C284,289.202 242.81,368 192,368 C141.19,368 100,289.202 100,192 C100,94.798 141.19,16 192,16 C242.81,16 284,94.798 284,192 Z" id="Stroke-53" stroke="#FCBA59"></path>
                    <path d="M280,192 C280,289.202 240.601,368 192,368 C143.399,368 104,289.202 104,192 C104,94.798 143.399,16 192,16 C240.601,16 280,94.798 280,192 Z" id="Stroke-55" stroke="#FCBA59"></path>
                    <path d="M276,192 C276,289.202 238.392,368 192,368 C145.608,368 108,289.202 108,192 C108,94.798 145.608,16 192,16 C238.392,16 276,94.798 276,192 Z" id="Stroke-57" stroke="#FCBA59"></path>
                    <path d="M272,192 C272,289.202 236.183,368 192,368 C147.817,368 112,289.202 112,192 C112,94.798 147.817,16 192,16 C236.183,16 272,94.798 272,192 Z" id="Stroke-59" stroke="#FCBA59"></path>
                    <path d="M268,192 C268,289.202 233.974,368 192,368 C150.026,368 116,289.202 116,192 C116,94.798 150.026,16 192,16 C233.974,16 268,94.798 268,192 Z" id="Stroke-61" stroke="#FCBA59"></path>
                    <path d="M264,192 C264,289.202 231.764,368 192,368 C152.236,368 120,289.202 120,192 C120,94.798 152.236,16 192,16 C231.764,16 264,94.798 264,192 Z" id="Stroke-63" stroke="#FCBA59"></path>
                    <path d="M260,192 C260,289.202 229.555,368 192,368 C154.445,368 124,289.202 124,192 C124,94.798 154.445,16 192,16 C229.555,16 260,94.798 260,192 Z" id="Stroke-65" stroke="#FCBA59"></path>
                    <path d="M256,192 C256,289.202 227.346,368 192,368 C156.654,368 128,289.202 128,192 C128,94.798 156.654,16 192,16 C227.346,16 256,94.798 256,192 Z" id="Stroke-67" stroke="#FCBA59"></path>
                    <path d="M252,192 C252,289.202 225.137,368 192,368 C158.863,368 132,289.202 132,192 C132,94.798 158.863,16 192,16 C225.137,16 252,94.798 252,192 Z" id="Stroke-69" stroke="#FCBA59"></path>
                    <path d="M248,192 C248,289.202 222.928,368 192,368 C161.072,368 136,289.202 136,192 C136,94.798 161.072,16 192,16 C222.928,16 248,94.798 248,192 Z" id="Stroke-71" stroke="#FCBA59"></path>
                    <path d="M244,192 C244,289.202 220.719,368 192,368 C163.281,368 140,289.202 140,192 C140,94.798 163.281,16 192,16 C220.719,16 244,94.798 244,192 Z" id="Stroke-73" stroke="#FCBA59"></path>
                    <path d="M240,192 C240,289.202 218.51,368 192,368 C165.49,368 144,289.202 144,192 C144,94.798 165.49,16 192,16 C218.51,16 240,94.798 240,192 Z" id="Stroke-75" stroke="#FCBA59"></path>
                    <path d="M236,192 C236,289.202 216.301,368 192,368 C167.699,368 148,289.202 148,192 C148,94.798 167.699,16 192,16 C216.301,16 236,94.798 236,192 Z" id="Stroke-77" stroke="#FCBA59"></path>
                    <path d="M232,192 C232,289.202 214.091,368 192,368 C169.909,368 152,289.202 152,192 C152,94.798 169.909,16 192,16 C214.091,16 232,94.798 232,192 Z" id="Stroke-79" stroke="#FCBA59"></path>
                    <path d="M228,192 C228,289.202 211.882,368 192,368 C172.118,368 156,289.202 156,192 C156,94.798 172.118,16 192,16 C211.882,16 228,94.798 228,192 Z" id="Stroke-81" stroke="#FCBA59"></path>
                    <path d="M224,192 C224,289.202 209.673,368 192,368 C174.327,368 160,289.202 160,192 C160,94.798 174.327,16 192,16 C209.673,16 224,94.798 224,192 Z" id="Stroke-83" stroke="#FCBA59"></path>
                    <path d="M220,192 C220,289.202 207.464,368 192,368 C176.536,368 164,289.202 164,192 C164,94.798 176.536,16 192,16 C207.464,16 220,94.798 220,192 Z" id="Stroke-85" stroke="#FCBA59"></path>
                    <path d="M216,192 C216,289.202 205.255,368 192,368 C178.745,368 168,289.202 168,192 C168,94.798 178.745,16 192,16 C205.255,16 216,94.798 216,192 Z" id="Stroke-87" stroke="#FCBA59"></path>
                    <path d="M212,192 C212,289.202 203.046,368 192,368 C180.954,368 172,289.202 172,192 C172,94.798 180.954,16 192,16 C203.046,16 212,94.798 212,192 Z" id="Stroke-89" stroke="#FCBA59"></path>
                    <path d="M208,192 C208,289.202 200.837,368 192,368 C183.163,368 176,289.202 176,192 C176,94.798 183.163,16 192,16 C200.837,16 208,94.798 208,192 Z" id="Stroke-91" stroke="#FCBA59"></path>
                    <path d="M204,192 C204,289.202 198.627,368 192,368 C185.373,368 180,289.202 180,192 C180,94.798 185.373,16 192,16 C198.627,16 204,94.798 204,192 Z" id="Stroke-93" stroke="#FCBA59"></path>
                    <path d="M200,192 C200,289.202 196.418,368 192,368 C187.582,368 184,289.202 184,192 C184,94.798 187.582,16 192,16 C196.418,16 200,94.798 200,192 Z" id="Stroke-95" stroke="#FCBA59"></path>
                    <path d="M196,192 C196,289.202 194.209,368 192,368 C189.791,368 188,289.202 188,192 C188,94.798 189.791,16 192,16 C194.209,16 196,94.798 196,192 Z" id="Stroke-97" stroke="#FCBA59"></path>
                    <path d="M192,16 L192,368" id="Stroke-99" stroke="#FCBA59"></path>
                </g>
            </g>
        </g>
    </g>
</svg>