<?xml version="1.0" encoding="UTF-8"?>
<svg width="162px" height="48px" viewBox="0 0 162 48" version="1.1" xmlns="http://www.w3.org/2000/svg" xmlns:xlink="http://www.w3.org/1999/xlink">
    <!-- Generator: Sketch 52.6 (67491) - http://www.bohemiancoding.com/sketch -->
    <title>centrifuge-wordmark</title>
    <desc>Created with Sketch.</desc>
    <g id="centrifuge-wordmark" stroke="none" stroke-width="1" fill="none" fill-rule="evenodd">
        <path d="M5.78644184,38.2569927 L2.61568076,39.7326574 C0.937388025,36.1468378 -3.55271368e-15,32.1462928 -3.55271368e-15,27.9272856 C-3.55271368e-15,12.503474 12.5278916,-1.0658141e-14 27.9818238,-1.0658141e-14 C36.5868469,-1.0658141e-14 44.2843921,3.87690356 49.4173217,9.97582555 L46.7379048,12.2197173 C42.2465235,6.88321488 35.511219,3.49094462 27.9818238,3.49094462 C14.4596059,3.49094462 3.49770758,14.4314233 3.49770758,27.9272856 C3.49770758,31.618944 4.31795609,35.119387 5.78644184,38.2569927 Z M27.9818184,44.5091097 L27.9818184,48 C16.8742842,48 7.86987741,39.0131434 7.86987741,27.9273127 C7.86987741,16.8414278 16.8742842,7.85457111 27.9818184,7.85457111 C34.1666651,7.85457111 39.6993047,10.6411176 43.3886011,15.0246906 L40.7084773,17.2691795 C37.6607834,13.6479717 33.0910372,11.3454615 27.9818184,11.3454615 C18.8060529,11.3454615 11.3676394,18.7694313 11.3676394,27.9273127 C11.3676394,37.085194 18.8060529,44.5091097 27.9818184,44.5091097 Z M34.0102398,32.9758847 L36.4587493,36.1244 C34.3130949,38.3344233 31.3087437,39.7091341 27.9817966,39.7091341 C21.4621724,39.7091341 16.1769724,34.434181 16.1769724,27.9272638 C16.1769724,21.4203467 21.4621724,16.1454479 27.9817966,16.1454479 C31.6120883,16.1454479 34.8589846,17.7814448 37.0244342,20.354414 L34.0102398,22.8786973 C32.5666068,21.1634026 30.401973,20.0727199 27.9817966,20.0727199 C23.6353986,20.0727199 20.1119138,23.5893372 20.1119138,27.9272638 C20.1119138,32.2652448 23.6353986,35.7818078 27.9817966,35.7818078 C30.401973,35.7818078 32.5666068,34.6911794 34.0102398,32.9758847 Z M55.288986,24.1040776 L58.88518,24.1040776 L58.88518,26.5283296 L58.9483179,26.5283296 C59.2845094,25.7726946 59.8680316,25.1065613 60.6990478,24.5290069 C61.5295746,23.9520496 62.5129701,23.663191 63.648636,23.663191 C64.6369259,23.663191 65.4831692,23.8363867 66.1880184,24.1828325 C66.8925413,24.5290069 67.4706254,24.9856336 67.9230319,25.5522784 C68.3751121,26.1190861 68.7064092,26.7699135 68.91676,27.5043264 C69.1267301,28.2392822 69.2322862,28.9949171 69.2322862,29.7712857 L69.2322862,39.2166687 L65.446733,39.2166687 L65.446733,30.8417776 C65.446733,30.4009453 65.4151913,29.9394337 65.3521078,29.4563744 C65.2889699,28.9739122 65.1520896,28.5384532 64.9421195,28.149889 C64.7315512,27.7617048 64.4421285,27.4413659 64.0743952,27.1896323 C63.7062813,26.9376816 63.2172211,26.8117063 62.6075953,26.8117063 C61.9974257,26.8117063 61.4719294,26.9327968 61.0303993,27.1738922 C60.5886517,27.4153133 60.2258129,27.7247426 59.9419916,28.1026686 C59.6580615,28.4803776 59.4422181,28.9163793 59.2951683,29.409154 C59.1479554,29.9026887 59.0744848,30.4009453 59.0744848,30.9047924 L59.0744848,39.2166687 L55.288986,39.2166687 L55.288986,24.1040776 Z M70.8406922,27.1266284 L70.8406922,24.1040884 L73.4905251,24.1040884 L73.4905251,19.7276256 L77.2129404,19.7276256 L77.2129404,24.1040884 L80.9984392,24.1040884 L80.9984392,27.1266284 L77.2129404,27.1266284 L77.2129404,34.1475965 C77.2129404,34.8195917 77.3337235,35.3755441 77.5757792,35.8163764 C77.8172911,36.2571002 78.358939,36.4775163 79.2003422,36.4775163 C79.452785,36.4775163 79.7258386,36.4514637 80.0205364,36.3988156 C80.3148535,36.3466561 80.5775745,36.2679554 80.8093519,36.1626051 L80.9353557,39.1221845 C80.5987836,39.2481598 80.1989648,39.3474855 79.7367151,39.4213556 C79.2738128,39.4946286 78.8322283,39.5315365 78.4117442,39.5315365 C77.4022453,39.5315365 76.5820511,39.3898753 75.9512162,39.1064444 C75.3201638,38.8230134 74.8203903,38.4349919 74.4526571,37.9414573 C74.0845432,37.4486826 73.8321548,36.8818207 73.6956008,36.24136 C73.558503,35.6013879 73.4905251,34.9140325 73.4905251,34.1790768 L73.4905251,27.1266284 L70.8406922,27.1266284 Z M83.2702878,24.1040776 L86.8980235,24.1040776 L86.8980235,26.6227704 L86.9611614,26.6227704 C87.3814823,25.7412143 87.9706603,25.0279692 88.7277166,24.4817865 C89.4847729,23.9363094 90.3680505,23.663191 91.3775494,23.663191 C91.5243817,23.663191 91.6821448,23.6686186 91.8508388,23.6789311 C92.0188801,23.6898407 92.1661474,23.7158933 92.2923688,23.7576861 L92.2923688,27.2211126 C92.0399261,27.1580978 91.824137,27.116305 91.6457087,27.0951372 C91.4667365,27.0743494 91.2932025,27.063657 91.1251067,27.063657 C90.2626575,27.063657 89.5685216,27.2211126 89.0432428,27.5358067 C88.5171483,27.8507179 88.10716,28.2284269 87.8128972,28.6693135 C87.5180363,29.1102 87.318562,29.5617248 87.2135497,30.0232364 C87.1079936,30.4850736 87.0557866,30.8524701 87.0557866,31.1250458 L87.0557866,39.2166687 L83.2702878,39.2166687 L83.2702878,24.1040776 Z M94.0269201,39.2166633 L94.0269201,24.1040721 L97.8124189,24.1040721 L97.8124189,39.2166633 L94.0269201,39.2166633 Z M93.4905472,18.9720286 C93.4905472,18.363591 93.7162882,17.833637 94.1686948,17.3821122 C94.620775,16.9309131 95.1939646,16.7052322 95.8881549,16.7052322 C96.5820733,16.7052322 97.16565,16.9206006 97.6388849,17.350632 C98.1120111,17.7809889 98.3486285,18.3217439 98.3486285,18.9720286 C98.3486285,19.6228017 98.1120111,20.163611 97.6388849,20.5934252 C97.16565,21.0239993 96.5820733,21.2389878 95.8881549,21.2389878 C95.1939646,21.2389878 94.620775,21.0136868 94.1686948,20.5619449 C93.7162882,20.1109087 93.4905472,19.5810089 93.4905472,18.9720286 Z M102.702613,27.1266284 L99.8319335,27.1266284 L99.8319335,24.1040884 L102.702613,24.1040884 L102.702613,22.9738925 C102.702613,22.0717115 102.802133,21.2058955 103.002368,20.3764448 C103.202006,19.5475367 103.538578,18.8178458 104.011867,18.1881862 C104.484939,17.5585808 105.110553,17.0601613 105.888819,16.6927649 C106.66654,16.3257484 107.644497,16.1416974 108.822636,16.1416974 C109.242957,16.1416974 109.595463,16.1574375 109.879447,16.1889178 C110.163214,16.2203981 110.452093,16.278528 110.746954,16.3621135 L110.494512,19.5735894 C110.283998,19.5106288 110.057876,19.4585236 109.816364,19.4161338 C109.574254,19.374341 109.316373,19.3531732 109.043319,19.3531732 C108.496233,19.3531732 108.054649,19.4585236 107.718512,19.6680844 C107.381722,19.8780253 107.124059,20.1511437 106.94563,20.48668 C106.766658,20.8225419 106.645875,21.1901554 106.582791,21.5886522 C106.519708,21.9875289 106.488112,22.3757132 106.488112,22.7534221 L106.488112,24.1040884 L109.98968,24.1040884 L109.98968,27.1266284 L106.488112,27.1266284 L106.488112,39.2166796 L102.702613,39.2166796 L102.702613,27.1266284 Z M125.826437,39.2166524 L122.230243,39.2166524 L122.230243,36.7924004 L122.167105,36.7924004 C121.830533,37.5480354 121.246848,38.2145487 120.416375,38.791506 C119.585305,39.3686804 118.602453,39.657539 117.466787,39.657539 C116.477953,39.657539 115.631656,39.4843433 114.92735,39.1378975 C114.222501,38.791506 113.644254,38.3350964 113.192174,37.7684515 C112.739767,37.2015896 112.40847,36.5513593 112.1985,35.8164035 C111.988149,35.0817735 111.883137,34.3261928 111.883137,33.5494443 L111.883137,24.1040613 L115.66869,24.1040613 L115.66869,32.4789524 C115.66869,32.9197847 115.700232,33.3816762 115.763315,33.8643556 C115.826399,34.3474148 115.962953,34.7828195 116.173304,35.1708409 C116.383274,35.5596223 116.672696,35.8792013 117.04081,36.1310977 C117.408544,36.3830484 117.897604,36.5090237 118.507828,36.5090237 C119.096244,36.5090237 119.616846,36.388476 120.069253,36.1468378 C120.521333,35.9057967 120.889447,35.5959874 121.173431,35.2180614 C121.457362,34.8403524 121.672824,34.4049477 121.820037,33.911576 C121.967087,33.4185841 122.040938,32.9197847 122.040938,32.4159376 L122.040938,24.1040613 L125.826437,24.1040613 L125.826437,39.2166524 Z M42.6568816,27.5200774 C41.8682836,28.2023851 41.4315936,29.0786764 41.3478448,30.1490055 L49.1082017,30.1490055 C49.1082017,29.6664889 49.0396256,29.2044889 48.903126,28.7637651 C48.7659737,28.3228785 48.5505654,27.9348571 48.2562483,27.5987781 C47.9616049,27.2632961 47.5884334,26.9957681 47.1365707,26.795977 C46.6838923,26.5967286 46.1531753,26.4968059 45.5433319,26.4968059 C44.407666,26.4968059 43.445534,26.8383668 42.6568816,27.5200774 Z M49.6759531,34.6199634 L51.7084379,37.2335312 C50.2452272,38.849066 48.2433053,39.6575119 45.701095,39.6575119 C44.523174,39.6575119 43.4402589,39.4734609 42.4517515,39.1064444 C41.4631353,38.7394278 40.6063419,38.2200034 39.8808274,37.5480083 C39.1553129,36.876393 38.5873983,36.0523699 38.17741,35.076373 C37.7672042,34.1003219 37.5622916,32.9934648 37.5622916,31.7548248 C37.5622916,30.5377868 37.7672042,29.4303327 38.17741,28.4331138 C38.5873983,27.4364919 39.1498746,26.5864161 39.8650565,25.8829407 C40.5798577,25.180008 41.4266992,24.6343681 42.4046564,24.2458039 C43.3823961,23.8576196 44.4392077,23.6632018 45.5749281,23.6632018 C46.626247,23.6632018 47.598766,23.8363976 48.4929201,24.1827891 C49.3865304,24.5290178 50.1595207,25.0437201 50.811619,25.7254851 C51.4631736,26.4077927 51.9734429,27.2578685 52.3415568,28.2756581 C52.7092901,29.2940448 52.8937005,30.4850845 52.8937005,31.8493199 L52.8937005,32.3530042 C52.8937005,32.521315 52.882824,32.6890832 52.8621587,32.8568513 L41.3478448,32.8568513 C41.3897192,33.4028711 41.5317114,33.9010735 41.773604,34.3522726 C42.0151159,34.8037973 42.3360803,35.1920359 42.735736,35.5172053 C43.1350653,35.842809 43.5874718,36.0996445 44.0923029,36.2885804 C44.5969708,36.4775163 45.1224672,36.5719571 45.6695533,36.5719571 C46.6159144,36.5719571 47.4148994,36.3988156 48.067161,36.0523699 C48.7186611,35.7061955 49.2550339,35.2289438 49.6759531,34.6199634 Z M151.763127,27.5200774 C150.974529,28.2023851 150.537839,29.0786764 150.45409,30.1490055 L158.214447,30.1490055 C158.214447,29.6664889 158.145871,29.2044889 158.009371,28.7637651 C157.872273,28.3228785 157.656865,27.9348571 157.362548,27.5987781 C157.06785,27.2632961 156.694733,26.9957681 156.24287,26.795977 C155.790192,26.5967286 155.25942,26.4968059 154.649577,26.4968059 C153.513911,26.4968059 152.551725,26.8383668 151.763127,27.5200774 Z M158.782198,34.6199634 L160.814737,37.2335312 C159.351527,38.849066 157.349605,39.6575119 154.807395,39.6575119 C153.629419,39.6575119 152.546504,39.4734609 151.558051,39.1064444 C150.569435,38.7394278 149.712587,38.2200034 148.987073,37.5480083 C148.261612,36.876393 147.693643,36.0523699 147.283655,35.076373 C146.873449,34.1003219 146.668591,32.9934648 146.668591,31.7548248 C146.668591,30.5377868 146.873449,29.4303327 147.283655,28.4331138 C147.693643,27.4364919 148.25612,26.5864161 148.971356,25.8829407 C149.686157,25.180008 150.532944,24.6343681 151.510956,24.2458039 C152.488696,23.8576196 153.545453,23.6632018 154.681173,23.6632018 C155.732547,23.6632018 156.705066,23.8363976 157.599165,24.1827891 C158.492776,24.5290178 159.26582,25.0437201 159.917919,25.7254851 C160.569419,26.4077927 161.079742,27.2578685 161.447802,28.2756581 C161.81559,29.2940448 162,30.4850845 162,31.8493199 L162,32.3530042 C162,32.521315 161.989069,32.6890832 161.968458,32.8568513 L150.45409,32.8568513 C150.495964,33.4028711 150.637957,33.9010735 150.879849,34.3522726 C151.121415,34.8037973 151.44238,35.1920359 151.842035,35.5172053 C152.24131,35.842809 152.693771,36.0996445 153.198548,36.2885804 C153.70327,36.4775163 154.228712,36.5719571 154.775798,36.5719571 C155.722214,36.5719571 156.521145,36.3988156 157.17346,36.0523699 C157.824961,35.7061955 158.361333,35.2289438 158.782198,34.6199634 Z M140.429754,33.35469 C140.639724,32.7796324 140.745062,32.1778708 140.745062,31.5501108 C140.745062,30.9017801 140.639724,30.2843326 140.429754,29.6983654 C140.21924,29.1129953 139.91943,28.6005182 139.530705,28.1611514 C139.141165,27.7217845 138.673531,27.3764786 138.126771,27.1255048 C137.579685,26.8746939 136.959509,26.7487729 136.265591,26.7487729 C135.571618,26.7487729 134.956336,26.8746939 134.420181,27.1255048 C133.883754,27.3764786 133.431347,27.7163569 133.063614,28.1454112 C132.6955,28.5743028 132.411516,29.081515 132.211878,29.6674822 C132.01186,30.2533951 131.912341,30.8811551 131.912341,31.5501108 C131.912341,32.1573 132.01186,32.7426702 132.211878,33.3074153 C132.411516,33.8722148 132.6955,34.3798069 133.063614,34.8294863 C133.431347,35.2791656 133.883754,35.6402117 134.420181,35.9121904 C134.956336,36.1843862 135.560742,36.320077 136.233995,36.320077 C136.928022,36.320077 137.553636,36.1897595 138.111055,35.9279305 C138.668093,35.6662644 139.141165,35.3159107 139.530705,34.876761 C139.91943,34.4373941 140.21924,33.9301276 140.429754,33.35469 Z M140.745062,24.1041047 L144.341474,24.1041047 L144.341474,37.8627187 C144.341474,39.2269541 144.172834,40.4603293 143.836643,41.5623558 C143.500125,42.6641109 142.979469,43.5979893 142.275218,44.3644253 C141.570314,45.1303727 140.681979,45.7230702 139.60956,46.1432775 C138.536977,46.5628335 137.264213,46.7729371 135.792356,46.7729371 C135.182132,46.7729371 134.535472,46.7202891 133.85243,46.6154815 C133.168572,46.5103483 132.495863,46.3528927 131.833432,46.1432775 C131.170838,45.9331739 130.53451,45.6709649 129.924884,45.3562165 C129.314715,45.0413053 128.768009,44.6842214 128.284333,44.2857246 L130.519609,41.4114676 C131.240991,42.0775466 132.05194,42.5898066 132.953218,42.9475418 C133.878533,43.3145583 134.814562,43.4986636 135.760977,43.4986636 C136.66492,43.4986636 137.427415,43.3666636 138.047917,43.103532 C138.668093,42.8398033 139.162428,42.4766947 139.530705,42.0133377 C139.898275,41.5499807 140.16154,41.0018984 140.319303,40.3701763 C140.477066,39.7381285 140.555921,39.0430659 140.555921,38.2845 L140.555921,37.1785656 L140.492892,37.1785656 C139.945588,37.9208486 139.246721,38.4880362 138.394985,38.8801826 C137.543303,39.2723291 136.59145,39.4685923 135.540076,39.4685923 C134.404356,39.4685923 133.373648,39.2584343 132.448496,38.8387698 C131.5228,38.4192681 130.739586,37.8524604 130.098255,37.1386182 C129.456544,36.4254273 128.957314,35.5910917 128.599914,34.6356655 C128.242132,33.6808364 128.063704,32.6678774 128.063704,31.5973855 C128.063704,30.5062685 128.23702,29.4775693 128.584088,28.5118307 C128.931211,27.5466891 129.424948,26.7069258 130.066659,25.9931379 C130.708098,25.2797299 131.486364,24.7130851 132.401183,24.2930406 C133.316003,23.8733218 134.341272,23.6632181 135.476993,23.6632181 C136.549575,23.6632181 137.548143,23.8836343 138.473894,24.3245209 C139.398991,24.7651903 140.134838,25.447498 140.681979,26.3708468 L140.745062,26.3708468 L140.745062,24.1041047 Z" fill="#000000"></path>
    </g>
</svg>