<svg width="171" height="166" viewBox="0 0 171 166" fill="none" xmlns="http://www.w3.org/2000/svg">
<mask id="mask0" style="mask-type:alpha" maskUnits="userSpaceOnUse" x="0" y="0" width="171" height="138">
<path fill-rule="evenodd" clip-rule="evenodd" d="M0 0H170.382V137.258H0V0Z" fill="white"/>
</mask>
<g mask="url(#mask0)">
<path fill-rule="evenodd" clip-rule="evenodd" d="M19.9506 132.161C14.8875 121.322 12.0594 109.229 12.0594 96.4761C12.0594 49.854 49.854 12.0596 96.4761 12.0596C122.436 12.0596 145.658 23.7784 161.143 42.2136L170.382 34.4619C152.684 13.3929 126.145 0 96.4761 0C43.1938 0 0 43.1938 0 96.4761C0 111.051 3.23194 124.871 9.01837 137.258L19.9506 132.161Z" fill="white"/>
</g>
<path fill-rule="evenodd" clip-rule="evenodd" d="M96.476 153.759C64.8397 153.759 39.1934 128.112 39.1934 96.4761C39.1934 64.8398 64.8397 39.1934 96.476 39.1934C114.092 39.1934 129.847 47.1475 140.355 59.6571L149.596 51.9034C136.876 36.7602 117.8 27.1339 96.476 27.1339C58.1793 27.1339 27.1338 58.1794 27.1338 96.4761C27.1338 134.773 58.1793 165.818 96.476 165.818V153.759Z" fill="white"/>
<path fill-rule="evenodd" clip-rule="evenodd" d="M117.261 113.917C112.284 119.842 104.82 123.61 96.476 123.61C81.4904 123.61 69.3421 111.462 69.3421 96.4759C69.3421 81.4904 81.4904 69.3421 96.476 69.3421C104.82 69.3421 112.284 73.1099 117.261 79.0354L127.653 70.3152C120.187 61.4267 108.993 55.7751 96.476 55.7751C73.9975 55.7751 55.7751 73.9975 55.7751 96.4759C55.7751 118.954 73.9975 137.177 96.476 137.177C107.947 137.177 118.305 132.428 125.703 124.793L117.261 113.917Z" fill="white"/>
</svg>
