<?xml version="1.0" encoding="utf-8"?>
<!-- Generator: Adobe Illustrator 18.0.0, SVG Export Plug-In . SVG Version: 6.00 Build 0)  -->
<!DOCTYPE svg PUBLIC "-//W3C//DTD SVG 1.1//EN" "http://www.w3.org/Graphics/SVG/1.1/DTD/svg11.dtd">
<svg version="1.1" xmlns="http://www.w3.org/2000/svg" xmlns:xlink="http://www.w3.org/1999/xlink" x="0px" y="0px"
	 viewBox="0 0 1090.8 290" enable-background="new 0 0 1090.8 290" xml:space="preserve">
<g id="Слой_1">
	<g>
		<g>
			<g>
				<circle fill="#FFFFFF" cx="1025.8" cy="122.5" r="64"/>
				<path d="M1090.8,157.4H969.9c-5,0-9.1-4.1-9.1-9.1v-17l130,16.2V157.4z M962.8,133.5v14.8c0,3.9,3.2,7.1,7.1,7.1h118.9v-6.1
					L962.8,133.5z"/>
				<g>
					<path fill="#FFFFFF" d="M961.8,140.4v-19.7c0-2.3,2-4,4.2-3.6l18.8,3.1c14.4,2.4,28.3-6,33-19.8v0l49.2,16.4
						c13.6,4.5,22.8,17.3,22.8,31.6v0h-120C965.4,148.4,961.8,144.8,961.8,140.4z"/>
					<path d="M1089.8,149.4h-120c-5,0-9-4-9-9v-19.7c0-2.8,2.5-5.1,5.4-4.6l18.8,3.1c1.6,0.3,3.1,0.4,4.7,0.4
						c12.3,0,23.2-7.9,27.1-19.6l0.3-0.9l50.2,16.7c14,4.7,23.5,17.8,23.5,32.5v1L1089.8,149.4z M965.4,118.1
						c-1.5,0-2.6,1.2-2.6,2.6v19.7c0,3.9,3.1,7,7,7h119c-0.4-13.5-9.2-25.3-22.1-29.6l-48.3-16.1c-4.4,12-15.8,20-28.7,20
						c-1.7,0-3.4-0.1-5.1-0.4l-18.8-3.1C965.7,118.1,965.6,118.1,965.4,118.1z"/>
				</g>
				<path d="M1065.8,149.4C1065.8,149.4,1065.8,149.4,1065.8,149.4c-0.6,0-1-0.5-1-1l1.2-31.6c0-0.6,0.5-1,1-1c0.6,0,1,0.5,1,1
					l-1.2,31.6C1066.8,149,1066.3,149.4,1065.8,149.4z"/>
				<g>
					<linearGradient id="SVGID_1_" gradientUnits="userSpaceOnUse" x1="1011.8103" y1="110.4028" x2="1027.8118" y2="110.4028">
						<stop  offset="0" style="stop-color:#FFFFFF"/>
						<stop  offset="1" style="stop-color:#FCBA59"/>
					</linearGradient>
					<path fill="url(#SVGID_1_)" d="M1015.8,122.4c-0.6,0-1.2-0.1-1.8-0.4c-2-1-2.8-3.4-1.8-5.4l8-16c1-2,3.4-2.8,5.4-1.8
						c2,1,2.8,3.4,1.8,5.4l-8,16C1018.7,121.6,1017.3,122.4,1015.8,122.4z"/>
					<linearGradient id="SVGID_2_" gradientUnits="userSpaceOnUse" x1="1021.4099" y1="113.6027" x2="1037.4114" y2="113.6027">
						<stop  offset="0" style="stop-color:#FFFFFF"/>
						<stop  offset="1" style="stop-color:#FCBA59"/>
					</linearGradient>
					<path fill="url(#SVGID_2_)" d="M1025.4,125.6c-0.6,0-1.2-0.1-1.8-0.4c-2-1-2.8-3.4-1.8-5.4l8-16c1-2,3.4-2.8,5.4-1.8
						c2,1,2.8,3.4,1.8,5.4l-8,16C1028.3,124.8,1026.9,125.6,1025.4,125.6z"/>
					<linearGradient id="SVGID_3_" gradientUnits="userSpaceOnUse" x1="1031.01" y1="116.803" x2="1047.0115" y2="116.803">
						<stop  offset="0" style="stop-color:#FFFFFF"/>
						<stop  offset="1" style="stop-color:#FCBA59"/>
					</linearGradient>
					<path fill="url(#SVGID_3_)" d="M1035,128.8c-0.6,0-1.2-0.1-1.8-0.4c-2-1-2.8-3.4-1.8-5.4l8-16c1-2,3.4-2.8,5.4-1.8
						c2,1,2.8,3.4,1.8,5.4l-8,16C1037.9,128,1036.5,128.8,1035,128.8z"/>
					<linearGradient id="SVGID_4_" gradientUnits="userSpaceOnUse" x1="1040.6101" y1="120.0027" x2="1056.6116" y2="120.0027">
						<stop  offset="0" style="stop-color:#FFFFFF"/>
						<stop  offset="1" style="stop-color:#FCBA59"/>
					</linearGradient>
					<path fill="url(#SVGID_4_)" d="M1044.6,132c-0.6,0-1.2-0.1-1.8-0.4c-2-1-2.8-3.4-1.8-5.4l8-16c1-2,3.4-2.8,5.4-1.8
						c2,1,2.8,3.4,1.8,5.4l-8,16C1047.5,131.2,1046.1,132,1044.6,132z"/>
					<linearGradient id="SVGID_5_" gradientUnits="userSpaceOnUse" x1="1050.2102" y1="123.2029" x2="1066.2117" y2="123.2029">
						<stop  offset="0" style="stop-color:#FFFFFF"/>
						<stop  offset="1" style="stop-color:#FCBA59"/>
					</linearGradient>
					<path fill="url(#SVGID_5_)" d="M1054.2,135.2c-0.6,0-1.2-0.1-1.8-0.4c-2-1-2.8-3.4-1.8-5.4l8-16c1-2,3.4-2.8,5.4-1.8
						c2,1,2.8,3.4,1.8,5.4l-8,16C1057.1,134.4,1055.7,135.2,1054.2,135.2z"/>
				</g>
				<g>
					<path fill="#FFFFFF" d="M961.8,132.4h11.8c6.6,0,11.8-5.6,11.2-12.2v0"/>
					<path d="M973.6,133.4h-11.8c-0.6,0-1-0.4-1-1s0.4-1,1-1h11.8c2.9,0,5.6-1.2,7.5-3.3s2.9-4.9,2.7-7.8c0-0.6,0.4-1,0.9-1.1
						c0.6,0,1,0.4,1.1,0.9c0.3,3.4-0.9,6.8-3.2,9.3C980.3,132,977,133.4,973.6,133.4z"/>
				</g>
				<path d="M1001.8,117.4c-0.6,0-1-0.4-1-1v-8c0-3.8,1.9-7.3,5.2-9.3c3.2-2,7.2-2.2,10.6-0.5l1.7,0.8c0.5,0.2,0.7,0.8,0.4,1.3
					c-0.2,0.5-0.8,0.7-1.3,0.4l-1.7-0.8c-2.8-1.4-6-1.2-8.6,0.4c-2.6,1.6-4.2,4.5-4.2,7.6v8C1002.8,117,1002.4,117.4,1001.8,117.4z"
					/>
			</g>
			<g>
				<g>
					<path fill="#2762FF" d="M985.1,223.4c-1.1,1.1-2.8,1.6-4.4,1.6c-1.9,0-3.4-0.5-4.5-1.5c-1-0.9-1.6-2.3-1.6-3.8h2.1
						c0,0.9,0.4,1.9,1.1,2.5c0.7,0.7,1.8,1,3,1c1.2,0,2.2-0.2,2.9-0.9c0.5-0.4,0.8-1,0.8-1.8c0-1.2-0.7-2.2-2.6-2.5
						c-0.9-0.1-1.6-0.2-2.4-0.4c-2.4-0.4-4.2-1.7-4.2-4.2c0-1.2,0.5-2.3,1.3-3.1c1.1-1,2.4-1.6,4.1-1.6c1.5,0,3,0.5,4,1.5
						c1,0.9,1.4,2.1,1.5,3.4h-2.1c0-0.8-0.3-1.4-0.8-1.9c-0.6-0.7-1.5-1.1-2.7-1.1c-1.1,0-2,0.3-2.7,1.1c-0.4,0.5-0.6,1-0.6,1.7
						c0,1.4,1.1,2.1,2.3,2.2c0.9,0.1,1.7,0.3,2.6,0.4c2.6,0.4,4.3,2,4.3,4.5C986.4,221.7,985.9,222.7,985.1,223.4z"/>
					<path fill="#2762FF" d="M998.4,224.7l-6.3-12.7v12.7h-1.9V209h2.5l6.3,12.7V209h1.9v15.7H998.4z"/>
					<path fill="#2762FF" d="M1005.7,224.7V209h10.4v1.8h-8.4v4.8h6.4v1.9h-6.4v5.4h8.4v1.8H1005.7z"/>
					<path fill="#2762FF" d="M1029.6,224.7l-1.3-4.1h-6.1l-1.3,4.1h-2l5.2-15.7h2.4l5.2,15.7H1029.6z M1025.2,211l-2.4,7.8h5
						L1025.2,211z"/>
					<path fill="#2762FF" d="M1044.3,224.7l-4.6-7.9l-2.7,3v4.9h-2V209h2v8.1l7.1-8.1h2.4l-5.5,6.2l5.5,9.5H1044.3z"/>
					<path fill="#2762FF" d="M1050.3,224.7V209h10.4v1.8h-8.4v4.8h6.4v1.9h-6.4v5.4h8.4v1.8H1050.3z"/>
					<path fill="#2762FF" d="M1073.5,224.7l-3-6.5h-3.6v6.5h-2V209h5.4c1.8,0,3.1,0.5,4,1.4c0.8,0.8,1.2,1.8,1.2,3.2
						c0,1.4-0.4,2.3-1.2,3.1c-0.5,0.5-1.1,0.9-1.9,1.1l3.2,6.9H1073.5z M1070.4,210.8h-3.4v5.5h3.4c1.9,0,3.2-0.8,3.2-2.8
						S1072.3,210.8,1070.4,210.8z"/>
				</g>
			</g>
		</g>
		<g>
			<g>
				<circle fill="#FFFFFF" cx="384" cy="129" r="64"/>
				<g>
					
						<linearGradient id="SVGID_6_" gradientUnits="userSpaceOnUse" x1="1144" y1="2038.7025" x2="1072" y2="2038.7025" gradientTransform="matrix(-1 0 0 -1 1528 2170)">
						<stop  offset="0" style="stop-color:#FFFFFF"/>
						<stop  offset="1" style="stop-color:#FCBA59"/>
					</linearGradient>
					<path fill="url(#SVGID_6_)" d="M432,179.3c13.3,0,24-10.7,24-24v-72h-48v72c0,13.3-10.7,24-24,24H432z"/>
					<g>
						<path fill="#FFFFFF" d="M384,171.3h48c8.8,0,16-7.2,16-16v0c0-8.8-7.2-16-16-16h-48c-8.8,0-16,7.2-16,16v0
							C368,164.1,375.2,171.3,384,171.3z"/>
						<path d="M432,172.3h-48c-9.4,0-17-7.6-17-17s7.6-17,17-17h48c9.4,0,17,7.6,17,17S441.4,172.3,432,172.3z M384,140.3
							c-8.3,0-15,6.7-15,15s6.7,15,15,15h48c8.3,0,15-6.7,15-15s-6.7-15-15-15H384z"/>
					</g>
					
						<linearGradient id="SVGID_7_" gradientUnits="userSpaceOnUse" x1="360" y1="1894.7025" x2="432" y2="1894.7025" gradientTransform="matrix(1 0 0 -1 0 2026)">
						<stop  offset="0" style="stop-color:#FFFFFF"/>
						<stop  offset="1" style="stop-color:#FCBA59"/>
					</linearGradient>
					<path fill="url(#SVGID_7_)" d="M384,179.3c-13.3,0-24-10.7-24-24v-48c0-13.3,10.7-24,24-24h0c13.3,0,24,10.7,24,24v48
						c0,13.3,10.7,24,24,24H384z"/>
					<g>
						<path fill="#FFFFFF" d="M336,123.3h48c8.8,0,16-7.2,16-16v0c0-8.8-7.2-16-16-16h-48c-8.8,0-16,7.2-16,16v0
							C320,116.1,327.2,123.3,336,123.3z"/>
						<path d="M384,124.3h-48c-9.4,0-17-7.6-17-17s7.6-17,17-17h48c9.4,0,17,7.6,17,17S393.4,124.3,384,124.3z M336,92.3
							c-8.3,0-15,6.7-15,15s6.7,15,15,15h48c8.3,0,15-6.7,15-15s-6.7-15-15-15H336z"/>
					</g>
					<linearGradient id="SVGID_8_" gradientUnits="userSpaceOnUse" x1="312" y1="131.2975" x2="384" y2="131.2975">
						<stop  offset="0" style="stop-color:#FFFFFF"/>
						<stop  offset="1" style="stop-color:#FCBA59"/>
					</linearGradient>
					<path fill="url(#SVGID_8_)" d="M336,83.3c-13.3,0-24,10.7-24,24v72h48v-72c0-13.3,10.7-24,24-24H336z"/>
					<circle cx="384" cy="107.3" r="16"/>
					<circle cx="432" cy="155.3" r="16"/>
					<g>
						<path fill="#FFFFFF" d="M384,115.3L384,115.3c-4.4,0-8-3.6-8-8v0c0-4.4,3.6-8,8-8l0,0c4.4,0,8,3.6,8,8v0
							C392,111.7,388.4,115.3,384,115.3z"/>
						<path d="M384,115.8c-4.7,0-8.5-3.8-8.5-8.5s3.8-8.5,8.5-8.5s8.5,3.8,8.5,8.5S388.7,115.8,384,115.8z M384,99.8
							c-4.1,0-7.5,3.4-7.5,7.5s3.4,7.5,7.5,7.5s7.5-3.4,7.5-7.5S388.1,99.8,384,99.8z"/>
					</g>
					<g>
						<path fill="#FFFFFF" d="M432,163.3L432,163.3c-4.4,0-8-3.6-8-8v0c0-4.4,3.6-8,8-8l0,0c4.4,0,8,3.6,8,8v0
							C440,159.7,436.4,163.3,432,163.3z"/>
						<path d="M432,163.8c-4.7,0-8.5-3.8-8.5-8.5s3.8-8.5,8.5-8.5s8.5,3.8,8.5,8.5S436.7,163.8,432,163.8z M432,147.8
							c-4.1,0-7.5,3.4-7.5,7.5s3.4,7.5,7.5,7.5s7.5-3.4,7.5-7.5S436.1,147.8,432,147.8z"/>
					</g>
				</g>
			</g>
			<g>
				<g>
					<path fill="#2762FF" d="M343.8,212v5.1h6.8v1.9h-6.8v6.9h-2v-15.7h10.5v1.8H343.8z"/>
					<path fill="#2762FF" d="M365.5,225.9l-1.3-4.1h-6.1l-1.3,4.1h-2l5.2-15.7h2.4l5.2,15.7H365.5z M361.1,212.2l-2.4,7.8h5
						L361.1,212.2z"/>
					<path fill="#2762FF" d="M380.7,224.5c-0.9,1-2.4,1.4-4,1.4h-5.3v-15.7h5.3c1.5,0,2.9,0.4,3.8,1.4c0.6,0.6,1,1.6,1,2.7
						c0,1.5-0.8,3-2.3,3.5c1.6,0.5,2.6,2.1,2.6,3.8C381.8,222.8,381.4,223.8,380.7,224.5z M376.6,211.9h-3.2v5h3.3
						c1.6,0,2.8-0.7,2.8-2.5C379.4,212.7,378.1,211.9,376.6,211.9z M376.7,218.6h-3.3v5.5h3.4c1.7,0,3.1-0.7,3.1-2.7
						C379.8,219.6,378.5,218.6,376.7,218.6z"/>
					<path fill="#2762FF" d="M394.5,225.9l-3-6.5H388v6.5h-2v-15.7h5.4c1.8,0,3.1,0.5,4,1.4c0.8,0.8,1.2,1.8,1.2,3.2
						c0,1.4-0.4,2.3-1.2,3.1c-0.5,0.5-1.1,0.9-1.9,1.1l3.2,6.9H394.5z M391.4,212H388v5.5h3.4c1.9,0,3.2-0.8,3.2-2.8
						S393.3,212,391.4,212z"/>
					<path fill="#2762FF" d="M401.3,225.9v-1.6h3.5v-12.5h-3.5v-1.6h9v1.6h-3.5v12.5h3.5v1.6H401.3z"/>
					<path fill="#2762FF" d="M420.9,226.2c-1.6,0-3-0.6-4.1-1.7c-1.8-1.7-1.9-4.2-1.9-6.5s0.2-4.8,1.9-6.5c1.1-1.1,2.5-1.7,4.1-1.7
						c3,0,5.5,2.1,5.6,5.2h-2.1c0-0.9-0.4-1.7-0.9-2.2c-0.6-0.7-1.6-1.1-2.7-1.1c-1.1,0-1.9,0.4-2.7,1.2c-1.3,1.3-1.3,3.4-1.3,5.1
						s0,3.8,1.3,5.1c0.7,0.8,1.6,1.2,2.7,1.2c2,0,3.6-1.4,3.6-3.5h2C426.4,223.9,424,226.2,420.9,226.2z"/>
				</g>
			</g>
		</g>
		<g>
			<g>
				<g>
					<path fill="#2762FF" d="M669.8,224.7v-15.7h2v13.9h8.1v1.8H669.8z"/>
					<path fill="#2762FF" d="M692.9,224.7l-1.3-4.1h-6.1l-1.3,4.1h-2l5.2-15.7h2.4l5.2,15.7H692.9z M688.5,211l-2.4,7.8h5L688.5,211
						z"/>
					<path fill="#2762FF" d="M703.7,225c-1.6,0-3-0.6-4.1-1.7c-1.8-1.7-1.9-4.2-1.9-6.5s0.2-4.8,1.9-6.5c1.1-1.1,2.5-1.7,4.1-1.7
						c3,0,5.5,2.1,5.6,5.2h-2.1c0-0.9-0.4-1.7-0.9-2.2c-0.6-0.7-1.6-1.1-2.7-1.1c-1.1,0-1.9,0.4-2.7,1.2c-1.3,1.3-1.3,3.4-1.3,5.1
						s0,3.8,1.3,5.1c0.7,0.8,1.6,1.2,2.7,1.2c2,0,3.6-1.4,3.6-3.5h2C709.3,222.7,706.8,225,703.7,225z"/>
					<path fill="#2762FF" d="M713.7,224.7v-15.7h10.4v1.8h-8.4v4.8h6.4v1.9h-6.4v5.4h8.4v1.8H713.7z"/>
					<path fill="#2762FF" d="M737.7,223.4c-1.1,1.1-2.8,1.6-4.4,1.6c-1.9,0-3.4-0.5-4.5-1.5c-1-0.9-1.6-2.3-1.6-3.8h2.1
						c0,0.9,0.4,1.9,1.1,2.5c0.7,0.7,1.8,1,3,1c1.2,0,2.2-0.2,2.9-0.9c0.5-0.4,0.8-1,0.8-1.8c0-1.2-0.7-2.2-2.6-2.5
						c-0.9-0.1-1.6-0.2-2.4-0.4c-2.4-0.4-4.2-1.7-4.2-4.2c0-1.2,0.5-2.3,1.3-3.1c1.1-1,2.4-1.6,4.1-1.6c1.5,0,3,0.5,4,1.5
						c1,0.9,1.4,2.1,1.5,3.4h-2.1c0-0.8-0.3-1.4-0.8-1.9c-0.6-0.7-1.5-1.1-2.7-1.1c-1.1,0-2,0.3-2.7,1.1c-0.4,0.5-0.6,1-0.6,1.7
						c0,1.4,1.1,2.1,2.3,2.2c0.9,0.1,1.7,0.3,2.6,0.4c2.6,0.4,4.3,2,4.3,4.5C739,221.7,738.5,222.7,737.7,223.4z"/>
				</g>
			</g>
			<g>
				<circle fill="#FFFFFF" cx="704" cy="127.8" r="64"/>
				<path fill="#FCBA59" d="M664,84.1h-16c-1.1,0-2-0.9-2-2s0.9-2,2-2h16c1.1,0,2,0.9,2,2S665.1,84.1,664,84.1z"/>
				<linearGradient id="SVGID_9_" gradientUnits="userSpaceOnUse" x1="648.2018" y1="176.9155" x2="759.7982" y2="83.2751">
					<stop  offset="0" style="stop-color:#FFFFFF"/>
					<stop  offset="1" style="stop-color:#FCBA59"/>
				</linearGradient>
				<path fill="url(#SVGID_9_)" d="M744,182.1h-84c-8.8,0-16-7.2-16-16s7.2-16,16-16h88c4.4,0,8-3.6,8-8s-3.6-8-8-8h-88
					c-8.8,0-16-7.2-16-16s7.2-16,16-16h88c4.4,0,8-3.6,8-8s-3.6-8-8-8h-84c-2.2,0-4-1.8-4-4s1.8-4,4-4h84c8.8,0,16,7.2,16,16
					s-7.2,16-16,16h-88c-4.4,0-8,3.6-8,8s3.6,8,8,8h88c8.8,0,16,7.2,16,16s-7.2,16-16,16h-88c-4.4,0-8,3.6-8,8s3.6,8,8,8h84
					c2.2,0,4,1.8,4,4S746.2,182.1,744,182.1z"/>
				<path fill="#FCBA59" d="M760,180.1h-16c-1.1,0-2-0.9-2-2s0.9-2,2-2h16c1.1,0,2,0.9,2,2S761.1,180.1,760,180.1z"/>
			</g>
		</g>
		<g>
			<g>
				<circle fill="#FFFFFF" cx="64" cy="129" r="64"/>
				<rect x="31" y="89" width="2" height="80"/>
				<linearGradient id="SVGID_10_" gradientUnits="userSpaceOnUse" x1="4.203002e-07" y1="105" x2="32" y2="105">
					<stop  offset="0" style="stop-color:#FCBA59"/>
					<stop  offset="1" style="stop-color:#FFFFFF"/>
				</linearGradient>
				<circle fill="url(#SVGID_10_)" cx="16" cy="105" r="16"/>
				<linearGradient id="SVGID_11_" gradientUnits="userSpaceOnUse" x1="16" y1="89" x2="48" y2="89">
					<stop  offset="0" style="stop-color:#FCBA59"/>
					<stop  offset="1" style="stop-color:#FFFFFF"/>
				</linearGradient>
				<circle fill="url(#SVGID_11_)" cx="32" cy="89" r="16"/>
				<linearGradient id="SVGID_12_" gradientUnits="userSpaceOnUse" x1="32" y1="105" x2="64" y2="105">
					<stop  offset="0" style="stop-color:#FCBA59"/>
					<stop  offset="1" style="stop-color:#FFFFFF"/>
				</linearGradient>
				<circle fill="url(#SVGID_12_)" cx="48" cy="105" r="16"/>
				<path d="M32,146h-1v-1c0-9.4,7.6-17,17-17h1v1C49,138.4,41.4,146,32,146z M47,130c-7.4,0.5-13.4,6.5-13.9,13.9
					C40.5,143.5,46.5,137.5,47,130z"/>
				<rect x="95" y="105" width="2" height="80"/>
				<linearGradient id="SVGID_13_" gradientUnits="userSpaceOnUse" x1="64" y1="121" x2="96" y2="121">
					<stop  offset="0" style="stop-color:#FCBA59"/>
					<stop  offset="1" style="stop-color:#FFFFFF"/>
				</linearGradient>
				<circle fill="url(#SVGID_13_)" cx="80" cy="121" r="16"/>
				<linearGradient id="SVGID_14_" gradientUnits="userSpaceOnUse" x1="80" y1="105" x2="112" y2="105">
					<stop  offset="0" style="stop-color:#FCBA59"/>
					<stop  offset="1" style="stop-color:#FFFFFF"/>
				</linearGradient>
				<circle fill="url(#SVGID_14_)" cx="96" cy="105" r="16"/>
				<linearGradient id="SVGID_15_" gradientUnits="userSpaceOnUse" x1="96" y1="121" x2="128" y2="121">
					<stop  offset="0" style="stop-color:#FCBA59"/>
					<stop  offset="1" style="stop-color:#FFFFFF"/>
				</linearGradient>
				<circle fill="url(#SVGID_15_)" cx="112" cy="121" r="16"/>
				<path d="M96,162h-1v-1c0-9.4,7.6-17,17-17h1v1C113,154.4,105.4,162,96,162z M111,146c-7.4,0.5-13.4,6.5-13.9,13.9
					C104.5,159.5,110.5,153.5,111,146z"/>
			</g>
			<g>
				<g>
					<path fill="#2762FF" d="M27.1,225.3c-1.6,0-3-0.6-4.1-1.7c-1.8-1.7-1.9-4.2-1.9-6.5s0.2-4.8,1.9-6.5c1.1-1.1,2.5-1.7,4.1-1.7
						c3,0,5.5,2.1,5.6,5.2h-2.1c0-0.9-0.4-1.7-0.9-2.2c-0.6-0.7-1.6-1.1-2.7-1.1c-1.1,0-1.9,0.4-2.7,1.2c-1.3,1.3-1.3,3.4-1.3,5.1
						s0,3.8,1.3,5.1c0.7,0.8,1.6,1.2,2.7,1.2c2,0,3.6-1.4,3.6-3.5h2C32.6,223,30.2,225.3,27.1,225.3z"/>
					<path fill="#2762FF" d="M45.8,223.6c-1.1,1.1-2.5,1.7-4.1,1.7s-3-0.6-4.1-1.7c-1.7-1.7-1.9-4-1.9-6.5s0.2-4.8,1.9-6.5
						c1.1-1.1,2.5-1.7,4.1-1.7s3,0.6,4.1,1.7c1.7,1.7,1.9,4,1.9,6.5S47.5,221.9,45.8,223.6z M44.4,212.1c-0.8-0.8-1.7-1.2-2.7-1.2
						c-1.1,0-2,0.4-2.7,1.2c-1.3,1.3-1.2,3.4-1.2,5.1s0,3.8,1.2,5.1c0.8,0.8,1.7,1.2,2.7,1.2c1.1,0,2-0.4,2.7-1.2
						c1.3-1.3,1.2-3.4,1.2-5.1S45.7,213.4,44.4,212.1z"/>
					<path fill="#2762FF" d="M57.6,211.1V225h-2v-13.9h-5.4v-1.8h12.7v1.8H57.6z"/>
					<path fill="#2762FF" d="M72.5,211.1V225h-2v-13.9h-5.3v-1.8h12.7v1.8H72.5z"/>
					<path fill="#2762FF" d="M90.4,223.6c-1.1,1.1-2.5,1.7-4.1,1.7c-1.6,0-3-0.6-4.1-1.7c-1.7-1.7-1.9-4-1.9-6.5s0.2-4.8,1.9-6.5
						c1.1-1.1,2.5-1.7,4.1-1.7c1.6,0,3,0.6,4.1,1.7c1.7,1.7,1.9,4,1.9,6.5S92.1,221.9,90.4,223.6z M89,212.1
						c-0.8-0.8-1.7-1.2-2.7-1.2c-1.1,0-2,0.4-2.7,1.2c-1.3,1.3-1.2,3.4-1.2,5.1s0,3.8,1.2,5.1c0.8,0.8,1.7,1.2,2.7,1.2
						c1.1,0,2-0.4,2.7-1.2c1.3-1.3,1.2-3.4,1.2-5.1S90.3,213.4,89,212.1z"/>
					<path fill="#2762FF" d="M104.1,225l-6.3-12.7V225h-1.9v-15.7h2.5l6.3,12.7v-12.7h1.9V225H104.1z"/>
				</g>
			</g>
		</g>
		<g>
			<rect x="172" y="145" fill="#2762FF" width="104" height="2"/>
			<g>
				<polygon fill="#2762FF" points="177.6,152.9 174.4,145.5 177.6,138.1 160,145.5 				"/>
			</g>
			<g>
				<polygon fill="#2762FF" points="270.4,152.9 273.6,145.5 270.4,138.1 288,145.5 				"/>
			</g>
		</g>
		<g>
			<rect x="492" y="145" fill="#2762FF" width="104" height="2"/>
			<g>
				<polygon fill="#2762FF" points="497.6,152.9 494.4,145.5 497.6,138.1 480,145.5 				"/>
			</g>
			<g>
				<polygon fill="#2762FF" points="590.4,152.9 593.6,145.5 590.4,138.1 608,145.5 				"/>
			</g>
		</g>
		<g>
			<rect x="812" y="145" fill="#2762FF" width="104" height="2"/>
			<g>
				<polygon fill="#2762FF" points="817.6,152.9 814.4,145.5 817.6,138.1 800,145.5 				"/>
			</g>
			<g>
				<polygon fill="#2762FF" points="910.4,152.9 913.6,145.5 910.4,138.1 928,145.5 				"/>
			</g>
		</g>
		<g>
			<path d="M65,33h-2C63,14.8,77.8,0,96,0h896c13.6,0,25.7,8.2,30.7,20.9l-1.9,0.7C1016.1,9.7,1004.8,2,992,2H96
				C78.9,2,65,15.9,65,33z"/>
			<g>
				<polygon points="1027.4,14.3 1020.9,18.9 1013,17.5 1024,33 				"/>
			</g>
		</g>
		<g>
			<path d="M992,290H96c-13.6,0-25.7-8.2-30.7-20.9l1.9-0.7c4.7,11.9,16,19.6,28.8,19.6h896c17.1,0,31-13.9,31-31h2
				C1025,275.2,1010.2,290,992,290z"/>
			<g>
				<polygon points="60.6,275.7 67.1,271.1 75,272.5 64,257 				"/>
			</g>
		</g>
	</g>
</g>
<g id="Слой_2">
</g>
</svg>
