<?xml version="1.0" encoding="utf-8"?>
<!-- Generator: Adobe Illustrator 18.0.0, SVG Export Plug-In . SVG Version: 6.00 Build 0)  -->
<!DOCTYPE svg PUBLIC "-//W3C//DTD SVG 1.1//EN" "http://www.w3.org/Graphics/SVG/1.1/DTD/svg11.dtd">
<svg version="1.1" id="Слой_1" xmlns="http://www.w3.org/2000/svg" xmlns:xlink="http://www.w3.org/1999/xlink" x="0px" y="0px"
	 viewBox="0 0 1408 1408" enable-background="new 0 0 1408 1408" xml:space="preserve">
<path fill="#999999" d="M1328,992.5h-152v-1h152c17.4,0,31.5-14.1,31.5-31.5V448c0-17.4-14.1-31.5-31.5-31.5H816
	c-17.4,0-31.5,14.1-31.5,31.5v512c0,17.4,14.1,31.5,31.5,31.5h152v1H816c-17.9,0-32.5-14.6-32.5-32.5V448
	c0-17.9,14.6-32.5,32.5-32.5h512c17.9,0,32.5,14.6,32.5,32.5v512C1360.5,977.9,1345.9,992.5,1328,992.5z"/>
<g>
	<circle fill="#FFFFFF" cx="880" cy="896" r="64"/>
	<path fill="#C4C4C4" d="M840,852.3h-16c-1.1,0-2-0.9-2-2s0.9-2,2-2h16c1.1,0,2,0.9,2,2S841.1,852.3,840,852.3z"/>
	<linearGradient id="SVGID_1_" gradientUnits="userSpaceOnUse" x1="824.2018" y1="945.1177" x2="935.7982" y2="851.4773">
		<stop  offset="0" style="stop-color:#FFFFFF"/>
		<stop  offset="1" style="stop-color:#C4C4C4"/>
	</linearGradient>
	<path fill="url(#SVGID_1_)" d="M920,950.3h-84c-8.8,0-16-7.2-16-16s7.2-16,16-16h88c4.4,0,8-3.6,8-8s-3.6-8-8-8h-88
		c-8.8,0-16-7.2-16-16s7.2-16,16-16h88c4.4,0,8-3.6,8-8s-3.6-8-8-8h-84c-2.2,0-4-1.8-4-4s1.8-4,4-4h84c8.8,0,16,7.2,16,16
		s-7.2,16-16,16h-88c-4.4,0-8,3.6-8,8s3.6,8,8,8h88c8.8,0,16,7.2,16,16s-7.2,16-16,16h-88c-4.4,0-8,3.6-8,8s3.6,8,8,8h84
		c2.2,0,4,1.8,4,4S922.2,950.3,920,950.3z"/>
	<path fill="#C4C4C4" d="M936,948.3h-16c-1.1,0-2-0.9-2-2s0.9-2,2-2h16c1.1,0,2,0.9,2,2S937.1,948.3,936,948.3z"/>
</g>
<g>
	<circle fill="#FFFFFF" cx="880" cy="512" r="64"/>
	<path fill="#C4C4C4" d="M840,468.3h-16c-1.1,0-2-0.9-2-2s0.9-2,2-2h16c1.1,0,2,0.9,2,2S841.1,468.3,840,468.3z"/>
	<linearGradient id="SVGID_2_" gradientUnits="userSpaceOnUse" x1="824.2018" y1="561.1177" x2="935.7982" y2="467.4773">
		<stop  offset="0" style="stop-color:#FFFFFF"/>
		<stop  offset="1" style="stop-color:#C4C4C4"/>
	</linearGradient>
	<path fill="url(#SVGID_2_)" d="M920,566.3h-84c-8.8,0-16-7.2-16-16s7.2-16,16-16h88c4.4,0,8-3.6,8-8s-3.6-8-8-8h-88
		c-8.8,0-16-7.2-16-16s7.2-16,16-16h88c4.4,0,8-3.6,8-8s-3.6-8-8-8h-84c-2.2,0-4-1.8-4-4s1.8-4,4-4h84c8.8,0,16,7.2,16,16
		s-7.2,16-16,16h-88c-4.4,0-8,3.6-8,8s3.6,8,8,8h88c8.8,0,16,7.2,16,16s-7.2,16-16,16h-88c-4.4,0-8,3.6-8,8s3.6,8,8,8h84
		c2.2,0,4,1.8,4,4S922.2,566.3,920,566.3z"/>
	<path fill="#C4C4C4" d="M936,564.3h-16c-1.1,0-2-0.9-2-2s0.9-2,2-2h16c1.1,0,2,0.9,2,2S937.1,564.3,936,564.3z"/>
</g>
<g>
	<g>
		<circle fill="#FFFFFF" cx="112" cy="1280" r="64"/>
		<path fill="#999999" d="M112,1344.2c-35.4,0-64.2-28.8-64.2-64.2s28.8-64.2,64.2-64.2s64.2,28.8,64.2,64.2
			S147.4,1344.2,112,1344.2z M112,1216.2c-35.2,0-63.8,28.6-63.8,63.8s28.6,63.8,63.8,63.8s63.8-28.6,63.8-63.8
			S147.2,1216.2,112,1216.2z"/>
	</g>
	<rect x="79" y="1240" width="2" height="80"/>
	<linearGradient id="SVGID_3_" gradientUnits="userSpaceOnUse" x1="47.9999" y1="1256" x2="79.9999" y2="1256">
		<stop  offset="0" style="stop-color:#C4C4C4"/>
		<stop  offset="1" style="stop-color:#FFFFFF"/>
	</linearGradient>
	<circle fill="url(#SVGID_3_)" cx="64" cy="1256" r="16"/>
	<linearGradient id="SVGID_4_" gradientUnits="userSpaceOnUse" x1="63.9999" y1="1240" x2="95.9999" y2="1240">
		<stop  offset="0" style="stop-color:#C4C4C4"/>
		<stop  offset="1" style="stop-color:#FFFFFF"/>
	</linearGradient>
	<circle fill="url(#SVGID_4_)" cx="80" cy="1240" r="16"/>
	<linearGradient id="SVGID_5_" gradientUnits="userSpaceOnUse" x1="79.9999" y1="1256" x2="111.9999" y2="1256">
		<stop  offset="0" style="stop-color:#C4C4C4"/>
		<stop  offset="1" style="stop-color:#FFFFFF"/>
	</linearGradient>
	<circle fill="url(#SVGID_5_)" cx="96" cy="1256" r="16"/>
	<path d="M80,1297h-1v-1c0-9.4,7.6-17,17-17h1v1C97,1289.4,89.4,1297,80,1297z M95,1281c-7.4,0.5-13.4,6.5-13.9,13.9
		C88.5,1294.5,94.5,1288.5,95,1281z"/>
	<rect x="143" y="1256" width="2" height="80"/>
	<linearGradient id="SVGID_6_" gradientUnits="userSpaceOnUse" x1="111.9999" y1="1272" x2="143.9999" y2="1272">
		<stop  offset="0" style="stop-color:#C4C4C4"/>
		<stop  offset="1" style="stop-color:#FFFFFF"/>
	</linearGradient>
	<circle fill="url(#SVGID_6_)" cx="128" cy="1272" r="16"/>
	<linearGradient id="SVGID_7_" gradientUnits="userSpaceOnUse" x1="127.9999" y1="1256" x2="159.9999" y2="1256">
		<stop  offset="0" style="stop-color:#C4C4C4"/>
		<stop  offset="1" style="stop-color:#FFFFFF"/>
	</linearGradient>
	<circle fill="url(#SVGID_7_)" cx="144" cy="1256" r="16"/>
	<linearGradient id="SVGID_8_" gradientUnits="userSpaceOnUse" x1="143.9999" y1="1272" x2="175.9999" y2="1272">
		<stop  offset="0" style="stop-color:#C4C4C4"/>
		<stop  offset="1" style="stop-color:#FFFFFF"/>
	</linearGradient>
	<circle fill="url(#SVGID_8_)" cx="160" cy="1272" r="16"/>
	<path d="M144,1313h-1v-1c0-9.4,7.6-17,17-17h1v1C161,1305.4,153.4,1313,144,1313z M159,1297c-7.4,0.5-13.4,6.5-13.9,13.9
		C152.5,1310.5,158.5,1304.5,159,1297z"/>
</g>
<g>
	<g>
		<circle fill="#FFFFFF" cx="112" cy="1088" r="64"/>
		<path fill="#999999" d="M112,1152.2c-35.4,0-64.2-28.8-64.2-64.2s28.8-64.2,64.2-64.2s64.2,28.8,64.2,64.2
			S147.4,1152.2,112,1152.2z M112,1024.2c-35.2,0-63.8,28.6-63.8,63.8s28.6,63.8,63.8,63.8s63.8-28.6,63.8-63.8
			S147.2,1024.2,112,1024.2z"/>
	</g>
	<rect x="79" y="1048" width="2" height="80"/>
	<linearGradient id="SVGID_9_" gradientUnits="userSpaceOnUse" x1="47.9999" y1="1064" x2="79.9999" y2="1064">
		<stop  offset="0" style="stop-color:#C4C4C4"/>
		<stop  offset="1" style="stop-color:#FFFFFF"/>
	</linearGradient>
	<circle fill="url(#SVGID_9_)" cx="64" cy="1064" r="16"/>
	<linearGradient id="SVGID_10_" gradientUnits="userSpaceOnUse" x1="63.9999" y1="1048" x2="95.9999" y2="1048">
		<stop  offset="0" style="stop-color:#C4C4C4"/>
		<stop  offset="1" style="stop-color:#FFFFFF"/>
	</linearGradient>
	<circle fill="url(#SVGID_10_)" cx="80" cy="1048" r="16"/>
	<linearGradient id="SVGID_11_" gradientUnits="userSpaceOnUse" x1="79.9999" y1="1064" x2="111.9999" y2="1064">
		<stop  offset="0" style="stop-color:#C4C4C4"/>
		<stop  offset="1" style="stop-color:#FFFFFF"/>
	</linearGradient>
	<circle fill="url(#SVGID_11_)" cx="96" cy="1064" r="16"/>
	<path d="M80,1105h-1v-1c0-9.4,7.6-17,17-17h1v1C97,1097.4,89.4,1105,80,1105z M95,1089c-7.4,0.5-13.4,6.5-13.9,13.9
		C88.5,1102.5,94.5,1096.5,95,1089z"/>
	<rect x="143" y="1064" width="2" height="80"/>
	<linearGradient id="SVGID_12_" gradientUnits="userSpaceOnUse" x1="111.9999" y1="1080" x2="143.9999" y2="1080">
		<stop  offset="0" style="stop-color:#C4C4C4"/>
		<stop  offset="1" style="stop-color:#FFFFFF"/>
	</linearGradient>
	<circle fill="url(#SVGID_12_)" cx="128" cy="1080" r="16"/>
	<linearGradient id="SVGID_13_" gradientUnits="userSpaceOnUse" x1="127.9999" y1="1064" x2="159.9999" y2="1064">
		<stop  offset="0" style="stop-color:#C4C4C4"/>
		<stop  offset="1" style="stop-color:#FFFFFF"/>
	</linearGradient>
	<circle fill="url(#SVGID_13_)" cx="144" cy="1064" r="16"/>
	<linearGradient id="SVGID_14_" gradientUnits="userSpaceOnUse" x1="143.9999" y1="1080" x2="175.9999" y2="1080">
		<stop  offset="0" style="stop-color:#C4C4C4"/>
		<stop  offset="1" style="stop-color:#FFFFFF"/>
	</linearGradient>
	<circle fill="url(#SVGID_14_)" cx="160" cy="1080" r="16"/>
	<path d="M144,1121h-1v-1c0-9.4,7.6-17,17-17h1v1C161,1113.4,153.4,1121,144,1121z M159,1105c-7.4,0.5-13.4,6.5-13.9,13.9
		C152.5,1118.5,158.5,1112.5,159,1105z"/>
</g>
<g>
	<g>
		<circle fill="#FFFFFF" cx="112" cy="896" r="64"/>
		<path fill="#999999" d="M112,960.2c-35.4,0-64.2-28.8-64.2-64.2s28.8-64.2,64.2-64.2s64.2,28.8,64.2,64.2S147.4,960.2,112,960.2z
			 M112,832.2c-35.2,0-63.8,28.6-63.8,63.8s28.6,63.8,63.8,63.8s63.8-28.6,63.8-63.8S147.2,832.2,112,832.2z"/>
	</g>
	<rect x="79" y="856" width="2" height="80"/>
	<linearGradient id="SVGID_15_" gradientUnits="userSpaceOnUse" x1="47.9999" y1="872.0001" x2="79.9999" y2="872.0001">
		<stop  offset="0" style="stop-color:#C4C4C4"/>
		<stop  offset="1" style="stop-color:#FFFFFF"/>
	</linearGradient>
	<circle fill="url(#SVGID_15_)" cx="64" cy="872" r="16"/>
	<linearGradient id="SVGID_16_" gradientUnits="userSpaceOnUse" x1="63.9999" y1="856.0001" x2="95.9999" y2="856.0001">
		<stop  offset="0" style="stop-color:#C4C4C4"/>
		<stop  offset="1" style="stop-color:#FFFFFF"/>
	</linearGradient>
	<circle fill="url(#SVGID_16_)" cx="80" cy="856" r="16"/>
	<linearGradient id="SVGID_17_" gradientUnits="userSpaceOnUse" x1="79.9999" y1="872.0001" x2="111.9999" y2="872.0001">
		<stop  offset="0" style="stop-color:#C4C4C4"/>
		<stop  offset="1" style="stop-color:#FFFFFF"/>
	</linearGradient>
	<circle fill="url(#SVGID_17_)" cx="96" cy="872" r="16"/>
	<path d="M80,913h-1v-1c0-9.4,7.6-17,17-17h1v1C97,905.4,89.4,913,80,913z M95,897c-7.4,0.5-13.4,6.5-13.9,13.9
		C88.5,910.5,94.5,904.5,95,897z"/>
	<rect x="143" y="872" width="2" height="80"/>
	<linearGradient id="SVGID_18_" gradientUnits="userSpaceOnUse" x1="111.9999" y1="888.0001" x2="143.9999" y2="888.0001">
		<stop  offset="0" style="stop-color:#C4C4C4"/>
		<stop  offset="1" style="stop-color:#FFFFFF"/>
	</linearGradient>
	<circle fill="url(#SVGID_18_)" cx="128" cy="888" r="16"/>
	<linearGradient id="SVGID_19_" gradientUnits="userSpaceOnUse" x1="127.9999" y1="872.0001" x2="159.9999" y2="872.0001">
		<stop  offset="0" style="stop-color:#C4C4C4"/>
		<stop  offset="1" style="stop-color:#FFFFFF"/>
	</linearGradient>
	<circle fill="url(#SVGID_19_)" cx="144" cy="872" r="16"/>
	<linearGradient id="SVGID_20_" gradientUnits="userSpaceOnUse" x1="143.9999" y1="888.0001" x2="175.9999" y2="888.0001">
		<stop  offset="0" style="stop-color:#C4C4C4"/>
		<stop  offset="1" style="stop-color:#FFFFFF"/>
	</linearGradient>
	<circle fill="url(#SVGID_20_)" cx="160" cy="888" r="16"/>
	<path d="M144,929h-1v-1c0-9.4,7.6-17,17-17h1v1C161,921.4,153.4,929,144,929z M159,913c-7.4,0.5-13.4,6.5-13.9,13.9
		C152.5,926.5,158.5,920.5,159,913z"/>
</g>
<g>
	<g>
		<circle fill="#FFFFFF" cx="112" cy="512" r="64"/>
		<path fill="#999999" d="M112,576.2c-35.4,0-64.2-28.8-64.2-64.2s28.8-64.2,64.2-64.2s64.2,28.8,64.2,64.2S147.4,576.2,112,576.2z
			 M112,448.2c-35.2,0-63.8,28.6-63.8,63.8s28.6,63.8,63.8,63.8s63.8-28.6,63.8-63.8S147.2,448.2,112,448.2z"/>
	</g>
	<rect x="79" y="472" width="2" height="80"/>
	<linearGradient id="SVGID_21_" gradientUnits="userSpaceOnUse" x1="47.9999" y1="488.0001" x2="79.9999" y2="488.0001">
		<stop  offset="0" style="stop-color:#C4C4C4"/>
		<stop  offset="1" style="stop-color:#FFFFFF"/>
	</linearGradient>
	<circle fill="url(#SVGID_21_)" cx="64" cy="488" r="16"/>
	<linearGradient id="SVGID_22_" gradientUnits="userSpaceOnUse" x1="63.9999" y1="472.0001" x2="95.9999" y2="472.0001">
		<stop  offset="0" style="stop-color:#C4C4C4"/>
		<stop  offset="1" style="stop-color:#FFFFFF"/>
	</linearGradient>
	<circle fill="url(#SVGID_22_)" cx="80" cy="472" r="16"/>
	<linearGradient id="SVGID_23_" gradientUnits="userSpaceOnUse" x1="79.9999" y1="488.0001" x2="111.9999" y2="488.0001">
		<stop  offset="0" style="stop-color:#C4C4C4"/>
		<stop  offset="1" style="stop-color:#FFFFFF"/>
	</linearGradient>
	<circle fill="url(#SVGID_23_)" cx="96" cy="488" r="16"/>
	<path d="M80,529h-1v-1c0-9.4,7.6-17,17-17h1v1C97,521.4,89.4,529,80,529z M95,513c-7.4,0.5-13.4,6.5-13.9,13.9
		C88.5,526.5,94.5,520.5,95,513z"/>
	<rect x="143" y="488" width="2" height="80"/>
	<linearGradient id="SVGID_24_" gradientUnits="userSpaceOnUse" x1="111.9999" y1="504.0001" x2="143.9999" y2="504.0001">
		<stop  offset="0" style="stop-color:#C4C4C4"/>
		<stop  offset="1" style="stop-color:#FFFFFF"/>
	</linearGradient>
	<circle fill="url(#SVGID_24_)" cx="128" cy="504" r="16"/>
	<linearGradient id="SVGID_25_" gradientUnits="userSpaceOnUse" x1="127.9999" y1="488.0001" x2="159.9999" y2="488.0001">
		<stop  offset="0" style="stop-color:#C4C4C4"/>
		<stop  offset="1" style="stop-color:#FFFFFF"/>
	</linearGradient>
	<circle fill="url(#SVGID_25_)" cx="144" cy="488" r="16"/>
	<linearGradient id="SVGID_26_" gradientUnits="userSpaceOnUse" x1="143.9999" y1="504.0001" x2="175.9999" y2="504.0001">
		<stop  offset="0" style="stop-color:#C4C4C4"/>
		<stop  offset="1" style="stop-color:#FFFFFF"/>
	</linearGradient>
	<circle fill="url(#SVGID_26_)" cx="160" cy="504" r="16"/>
	<path d="M144,545h-1v-1c0-9.4,7.6-17,17-17h1v1C161,537.4,153.4,545,144,545z M159,529c-7.4,0.5-13.4,6.5-13.9,13.9
		C152.5,542.5,158.5,536.5,159,529z"/>
</g>
<g>
	<g>
		<circle fill="#FFFFFF" cx="112" cy="320" r="64"/>
		<path fill="#999999" d="M112,384.2c-35.4,0-64.2-28.8-64.2-64.2s28.8-64.2,64.2-64.2s64.2,28.8,64.2,64.2S147.4,384.2,112,384.2z
			 M112,256.2c-35.2,0-63.8,28.6-63.8,63.8s28.6,63.8,63.8,63.8s63.8-28.6,63.8-63.8S147.2,256.2,112,256.2z"/>
	</g>
	<rect x="79" y="280" width="2" height="80"/>
	<linearGradient id="SVGID_27_" gradientUnits="userSpaceOnUse" x1="47.9999" y1="296" x2="79.9999" y2="296">
		<stop  offset="0" style="stop-color:#C4C4C4"/>
		<stop  offset="1" style="stop-color:#FFFFFF"/>
	</linearGradient>
	<circle fill="url(#SVGID_27_)" cx="64" cy="296" r="16"/>
	<linearGradient id="SVGID_28_" gradientUnits="userSpaceOnUse" x1="63.9999" y1="280" x2="95.9999" y2="280">
		<stop  offset="0" style="stop-color:#C4C4C4"/>
		<stop  offset="1" style="stop-color:#FFFFFF"/>
	</linearGradient>
	<circle fill="url(#SVGID_28_)" cx="80" cy="280" r="16"/>
	<linearGradient id="SVGID_29_" gradientUnits="userSpaceOnUse" x1="79.9999" y1="296" x2="111.9999" y2="296">
		<stop  offset="0" style="stop-color:#C4C4C4"/>
		<stop  offset="1" style="stop-color:#FFFFFF"/>
	</linearGradient>
	<circle fill="url(#SVGID_29_)" cx="96" cy="296" r="16"/>
	<path d="M80,337h-1v-1c0-9.4,7.6-17,17-17h1v1C97,329.4,89.4,337,80,337z M95,321c-7.4,0.5-13.4,6.5-13.9,13.9
		C88.5,334.5,94.5,328.5,95,321z"/>
	<rect x="143" y="296" width="2" height="80"/>
	<linearGradient id="SVGID_30_" gradientUnits="userSpaceOnUse" x1="111.9999" y1="312" x2="143.9999" y2="312">
		<stop  offset="0" style="stop-color:#C4C4C4"/>
		<stop  offset="1" style="stop-color:#FFFFFF"/>
	</linearGradient>
	<circle fill="url(#SVGID_30_)" cx="128" cy="312" r="16"/>
	<linearGradient id="SVGID_31_" gradientUnits="userSpaceOnUse" x1="127.9999" y1="296" x2="159.9999" y2="296">
		<stop  offset="0" style="stop-color:#C4C4C4"/>
		<stop  offset="1" style="stop-color:#FFFFFF"/>
	</linearGradient>
	<circle fill="url(#SVGID_31_)" cx="144" cy="296" r="16"/>
	<linearGradient id="SVGID_32_" gradientUnits="userSpaceOnUse" x1="143.9999" y1="312" x2="175.9999" y2="312">
		<stop  offset="0" style="stop-color:#C4C4C4"/>
		<stop  offset="1" style="stop-color:#FFFFFF"/>
	</linearGradient>
	<circle fill="url(#SVGID_32_)" cx="160" cy="312" r="16"/>
	<path d="M144,353h-1v-1c0-9.4,7.6-17,17-17h1v1C161,345.4,153.4,353,144,353z M159,337c-7.4,0.5-13.4,6.5-13.9,13.9
		C152.5,350.5,158.5,344.5,159,337z"/>
</g>
<g>
	<g>
		<circle fill="#FFFFFF" cx="112" cy="128" r="64"/>
		<path fill="#999999" d="M112,192.2c-35.4,0-64.2-28.8-64.2-64.2S76.6,63.8,112,63.8s64.2,28.8,64.2,64.2S147.4,192.2,112,192.2z
			 M112,64.2c-35.2,0-63.8,28.6-63.8,63.8s28.6,63.8,63.8,63.8s63.8-28.6,63.8-63.8S147.2,64.2,112,64.2z"/>
	</g>
	<rect x="79" y="88" width="2" height="80"/>
	<linearGradient id="SVGID_33_" gradientUnits="userSpaceOnUse" x1="47.9999" y1="104.0001" x2="79.9999" y2="104.0001">
		<stop  offset="0" style="stop-color:#C4C4C4"/>
		<stop  offset="1" style="stop-color:#FFFFFF"/>
	</linearGradient>
	<circle fill="url(#SVGID_33_)" cx="64" cy="104" r="16"/>
	<linearGradient id="SVGID_34_" gradientUnits="userSpaceOnUse" x1="63.9999" y1="88.0001" x2="95.9999" y2="88.0001">
		<stop  offset="0" style="stop-color:#C4C4C4"/>
		<stop  offset="1" style="stop-color:#FFFFFF"/>
	</linearGradient>
	<circle fill="url(#SVGID_34_)" cx="80" cy="88" r="16"/>
	<linearGradient id="SVGID_35_" gradientUnits="userSpaceOnUse" x1="79.9999" y1="104.0001" x2="111.9999" y2="104.0001">
		<stop  offset="0" style="stop-color:#C4C4C4"/>
		<stop  offset="1" style="stop-color:#FFFFFF"/>
	</linearGradient>
	<circle fill="url(#SVGID_35_)" cx="96" cy="104" r="16"/>
	<path d="M80,145h-1v-1c0-9.4,7.6-17,17-17h1v1C97,137.4,89.4,145,80,145z M95,129c-7.4,0.5-13.4,6.5-13.9,13.9
		C88.5,142.5,94.5,136.5,95,129z"/>
	<rect x="143" y="104" width="2" height="80"/>
	<linearGradient id="SVGID_36_" gradientUnits="userSpaceOnUse" x1="111.9999" y1="120.0001" x2="143.9999" y2="120.0001">
		<stop  offset="0" style="stop-color:#C4C4C4"/>
		<stop  offset="1" style="stop-color:#FFFFFF"/>
	</linearGradient>
	<circle fill="url(#SVGID_36_)" cx="128" cy="120" r="16"/>
	<linearGradient id="SVGID_37_" gradientUnits="userSpaceOnUse" x1="127.9999" y1="104.0001" x2="159.9999" y2="104.0001">
		<stop  offset="0" style="stop-color:#C4C4C4"/>
		<stop  offset="1" style="stop-color:#FFFFFF"/>
	</linearGradient>
	<circle fill="url(#SVGID_37_)" cx="144" cy="104" r="16"/>
	<linearGradient id="SVGID_38_" gradientUnits="userSpaceOnUse" x1="143.9999" y1="120.0001" x2="175.9999" y2="120.0001">
		<stop  offset="0" style="stop-color:#C4C4C4"/>
		<stop  offset="1" style="stop-color:#FFFFFF"/>
	</linearGradient>
	<circle fill="url(#SVGID_38_)" cx="160" cy="120" r="16"/>
	<path d="M144,161h-1v-1c0-9.4,7.6-17,17-17h1v1C161,153.4,153.4,161,144,161z M159,145c-7.4,0.5-13.4,6.5-13.9,13.9
		C152.5,158.5,158.5,152.5,159,145z"/>
</g>
<g>
	<g>
		<circle fill="#FFFFFF" cx="112" cy="704" r="64"/>
		<path fill="#999999" d="M112,768.2c-35.4,0-64.2-28.8-64.2-64.2s28.8-64.2,64.2-64.2s64.2,28.8,64.2,64.2S147.4,768.2,112,768.2z
			 M112,640.2c-35.2,0-63.8,28.6-63.8,63.8c0,35.2,28.6,63.8,63.8,63.8s63.8-28.6,63.8-63.8C175.8,668.8,147.2,640.2,112,640.2z"/>
	</g>
	<rect x="79" y="664" width="2" height="80"/>
	<linearGradient id="SVGID_39_" gradientUnits="userSpaceOnUse" x1="47.9999" y1="680" x2="79.9999" y2="680">
		<stop  offset="0" style="stop-color:#FCBA59"/>
		<stop  offset="1" style="stop-color:#FFFFFF"/>
	</linearGradient>
	<circle fill="url(#SVGID_39_)" cx="64" cy="680" r="16"/>
	<linearGradient id="SVGID_40_" gradientUnits="userSpaceOnUse" x1="63.9999" y1="664" x2="95.9999" y2="664">
		<stop  offset="0" style="stop-color:#FCBA59"/>
		<stop  offset="1" style="stop-color:#FFFFFF"/>
	</linearGradient>
	<circle fill="url(#SVGID_40_)" cx="80" cy="664" r="16"/>
	<linearGradient id="SVGID_41_" gradientUnits="userSpaceOnUse" x1="79.9999" y1="680" x2="111.9999" y2="680">
		<stop  offset="0" style="stop-color:#FCBA59"/>
		<stop  offset="1" style="stop-color:#FFFFFF"/>
	</linearGradient>
	<circle fill="url(#SVGID_41_)" cx="96" cy="680" r="16"/>
	<path d="M80,721h-1v-1c0-9.4,7.6-17,17-17h1v1C97,713.4,89.4,721,80,721z M95,705c-7.4,0.5-13.4,6.5-13.9,13.9
		C88.5,718.5,94.5,712.5,95,705z"/>
	<rect x="143" y="680" width="2" height="80"/>
	<linearGradient id="SVGID_42_" gradientUnits="userSpaceOnUse" x1="111.9999" y1="696" x2="143.9999" y2="696">
		<stop  offset="0" style="stop-color:#FCBA59"/>
		<stop  offset="1" style="stop-color:#FFFFFF"/>
	</linearGradient>
	<circle fill="url(#SVGID_42_)" cx="128" cy="696" r="16"/>
	<linearGradient id="SVGID_43_" gradientUnits="userSpaceOnUse" x1="127.9999" y1="680" x2="159.9999" y2="680">
		<stop  offset="0" style="stop-color:#FCBA59"/>
		<stop  offset="1" style="stop-color:#FFFFFF"/>
	</linearGradient>
	<circle fill="url(#SVGID_43_)" cx="144" cy="680" r="16"/>
	<linearGradient id="SVGID_44_" gradientUnits="userSpaceOnUse" x1="143.9999" y1="696" x2="175.9999" y2="696">
		<stop  offset="0" style="stop-color:#FCBA59"/>
		<stop  offset="1" style="stop-color:#FFFFFF"/>
	</linearGradient>
	<circle fill="url(#SVGID_44_)" cx="160" cy="696" r="16"/>
	<path d="M144,737h-1v-1c0-9.4,7.6-17,17-17h1v1C161,729.4,153.4,737,144,737z M159,721c-7.4,0.5-13.4,6.5-13.9,13.9
		C152.5,734.5,158.5,728.5,159,721z"/>
</g>
<g>
	<g>
		<circle fill="#FFFFFF" cx="489" cy="704" r="64"/>
		<path fill="#999999" d="M489,768.2c-35.4,0-64.2-28.8-64.2-64.2s28.8-64.2,64.2-64.2s64.2,28.8,64.2,64.2S524.4,768.2,489,768.2z
			 M489,640.2c-35.2,0-63.8,28.6-63.8,63.8c0,35.2,28.6,63.8,63.8,63.8s63.8-28.6,63.8-63.8C552.8,668.8,524.2,640.2,489,640.2z"/>
	</g>
	<g>
		
			<linearGradient id="SVGID_45_" gradientUnits="userSpaceOnUse" x1="-9130" y1="2496" x2="-9202" y2="2496" gradientTransform="matrix(-1 0 0 -1 -8634 3200)">
			<stop  offset="0" style="stop-color:#FCBA59"/>
			<stop  offset="1" style="stop-color:#FFFFFF"/>
		</linearGradient>
		<path fill="url(#SVGID_45_)" d="M544,752c13.3,0,24-10.7,24-24v-72h-48v72c0,13.3-10.7,24-24,24H544z"/>
		<g>
			<path fill="#FFFFFF" d="M496,744h48c8.8,0,16-7.2,16-16v0c0-8.8-7.2-16-16-16h-48c-8.8,0-16,7.2-16,16v0
				C480,736.8,487.2,744,496,744z"/>
			<path d="M544,745h-48c-9.4,0-17-7.6-17-17s7.6-17,17-17h48c9.4,0,17,7.6,17,17S553.4,745,544,745z M496,713c-8.3,0-15,6.7-15,15
				s6.7,15,15,15h48c8.3,0,15-6.7,15-15s-6.7-15-15-15H496z"/>
		</g>
		
			<linearGradient id="SVGID_46_" gradientUnits="userSpaceOnUse" x1="8650" y1="2352" x2="8722" y2="2352" gradientTransform="matrix(1 0 0 -1 -8178 3056)">
			<stop  offset="0" style="stop-color:#FCBA59"/>
			<stop  offset="1" style="stop-color:#FFFFFF"/>
		</linearGradient>
		<path fill="url(#SVGID_46_)" d="M496,752c-13.3,0-24-10.7-24-24v-48c0-13.3,10.7-24,24-24h0c13.3,0,24,10.7,24,24v48
			c0,13.3,10.7,24,24,24H496z"/>
		<g>
			<path fill="#FFFFFF" d="M448,696h48c8.8,0,16-7.2,16-16v0c0-8.8-7.2-16-16-16h-48c-8.8,0-16,7.2-16,16v0
				C432,688.8,439.2,696,448,696z"/>
			<path d="M496,697h-48c-9.4,0-17-7.6-17-17s7.6-17,17-17h48c9.4,0,17,7.6,17,17S505.4,697,496,697z M448,665c-8.3,0-15,6.7-15,15
				s6.7,15,15,15h48c8.3,0,15-6.7,15-15s-6.7-15-15-15H448z"/>
		</g>
		
			<linearGradient id="SVGID_47_" gradientUnits="userSpaceOnUse" x1="8602" y1="704.0001" x2="8674" y2="704.0001" gradientTransform="matrix(1 0 0 1 -8178 0)">
			<stop  offset="0" style="stop-color:#FCBA59"/>
			<stop  offset="1" style="stop-color:#FFFFFF"/>
		</linearGradient>
		<path fill="url(#SVGID_47_)" d="M448,656c-13.3,0-24,10.7-24,24v72h48v-72c0-13.3,10.7-24,24-24H448z"/>
		<circle cx="496" cy="680" r="16"/>
		<circle cx="544" cy="728" r="16"/>
		<g>
			<path fill="#FFFFFF" d="M496,688L496,688c-4.4,0-8-3.6-8-8l0,0c0-4.4,3.6-8,8-8l0,0c4.4,0,8,3.6,8,8l0,0
				C504,684.4,500.4,688,496,688z"/>
			<path d="M496,688.5c-4.7,0-8.5-3.8-8.5-8.5s3.8-8.5,8.5-8.5s8.5,3.8,8.5,8.5S500.7,688.5,496,688.5z M496,672.5
				c-4.1,0-7.5,3.4-7.5,7.5s3.4,7.5,7.5,7.5s7.5-3.4,7.5-7.5S500.1,672.5,496,672.5z"/>
		</g>
		<g>
			<path fill="#FFFFFF" d="M544,736L544,736c-4.4,0-8-3.6-8-8l0,0c0-4.4,3.6-8,8-8h0c4.4,0,8,3.6,8,8l0,0
				C552,732.4,548.4,736,544,736z"/>
			<path d="M544,736.5c-4.7,0-8.5-3.8-8.5-8.5s3.8-8.5,8.5-8.5s8.5,3.8,8.5,8.5S548.7,736.5,544,736.5z M544,720.5
				c-4.1,0-7.5,3.4-7.5,7.5s3.4,7.5,7.5,7.5s7.5-3.4,7.5-7.5S548.1,720.5,544,720.5z"/>
		</g>
	</g>
</g>
<g>
	<g>
		<circle fill="#FFFFFF" cx="489" cy="896" r="64"/>
		<path fill="#999999" d="M489,960.2c-35.4,0-64.2-28.8-64.2-64.2s28.8-64.2,64.2-64.2s64.2,28.8,64.2,64.2S524.4,960.2,489,960.2z
			 M489,832.2c-35.2,0-63.8,28.6-63.8,63.8s28.6,63.8,63.8,63.8s63.8-28.6,63.8-63.8S524.2,832.2,489,832.2z"/>
	</g>
	<g>
		
			<linearGradient id="SVGID_48_" gradientUnits="userSpaceOnUse" x1="-9130" y1="2304" x2="-9202" y2="2304" gradientTransform="matrix(-1 0 0 -1 -8634 3200)">
			<stop  offset="0" style="stop-color:#C4C4C4"/>
			<stop  offset="1" style="stop-color:#FFFFFF"/>
		</linearGradient>
		<path fill="url(#SVGID_48_)" d="M544,944c13.3,0,24-10.7,24-24v-72h-48v72c0,13.3-10.7,24-24,24H544z"/>
		<g>
			<path fill="#FFFFFF" d="M496,936h48c8.8,0,16-7.2,16-16v0c0-8.8-7.2-16-16-16h-48c-8.8,0-16,7.2-16,16v0
				C480,928.8,487.2,936,496,936z"/>
			<path d="M544,937h-48c-9.4,0-17-7.6-17-17s7.6-17,17-17h48c9.4,0,17,7.6,17,17S553.4,937,544,937z M496,905c-8.3,0-15,6.7-15,15
				s6.7,15,15,15h48c8.3,0,15-6.7,15-15s-6.7-15-15-15H496z"/>
		</g>
		
			<linearGradient id="SVGID_49_" gradientUnits="userSpaceOnUse" x1="8650" y1="2160" x2="8722" y2="2160" gradientTransform="matrix(1 0 0 -1 -8178 3056)">
			<stop  offset="0" style="stop-color:#C4C4C4"/>
			<stop  offset="1" style="stop-color:#FFFFFF"/>
		</linearGradient>
		<path fill="url(#SVGID_49_)" d="M496,944c-13.3,0-24-10.7-24-24v-48c0-13.3,10.7-24,24-24h0c13.3,0,24,10.7,24,24v48
			c0,13.3,10.7,24,24,24H496z"/>
		<g>
			<path fill="#FFFFFF" d="M448,888h48c8.8,0,16-7.2,16-16v0c0-8.8-7.2-16-16-16h-48c-8.8,0-16,7.2-16,16v0
				C432,880.8,439.2,888,448,888z"/>
			<path d="M496,889h-48c-9.4,0-17-7.6-17-17s7.6-17,17-17h48c9.4,0,17,7.6,17,17S505.4,889,496,889z M448,857c-8.3,0-15,6.7-15,15
				s6.7,15,15,15h48c8.3,0,15-6.7,15-15s-6.7-15-15-15H448z"/>
		</g>
		
			<linearGradient id="SVGID_50_" gradientUnits="userSpaceOnUse" x1="8602" y1="896.0001" x2="8674" y2="896.0001" gradientTransform="matrix(1 0 0 1 -8178 0)">
			<stop  offset="0" style="stop-color:#C4C4C4"/>
			<stop  offset="1" style="stop-color:#FFFFFF"/>
		</linearGradient>
		<path fill="url(#SVGID_50_)" d="M448,848c-13.3,0-24,10.7-24,24v72h48v-72c0-13.3,10.7-24,24-24H448z"/>
		<circle cx="496" cy="872" r="16"/>
		<circle cx="544" cy="920" r="16"/>
		<g>
			<path fill="#FFFFFF" d="M496,880L496,880c-4.4,0-8-3.6-8-8l0,0c0-4.4,3.6-8,8-8l0,0c4.4,0,8,3.6,8,8l0,0
				C504,876.4,500.4,880,496,880z"/>
			<path d="M496,880.5c-4.7,0-8.5-3.8-8.5-8.5s3.8-8.5,8.5-8.5s8.5,3.8,8.5,8.5S500.7,880.5,496,880.5z M496,864.5
				c-4.1,0-7.5,3.4-7.5,7.5s3.4,7.5,7.5,7.5s7.5-3.4,7.5-7.5S500.1,864.5,496,864.5z"/>
		</g>
		<g>
			<path fill="#FFFFFF" d="M544,928L544,928c-4.4,0-8-3.6-8-8l0,0c0-4.4,3.6-8,8-8h0c4.4,0,8,3.6,8,8l0,0
				C552,924.4,548.4,928,544,928z"/>
			<path d="M544,928.5c-4.7,0-8.5-3.8-8.5-8.5s3.8-8.5,8.5-8.5s8.5,3.8,8.5,8.5S548.7,928.5,544,928.5z M544,912.5
				c-4.1,0-7.5,3.4-7.5,7.5s3.4,7.5,7.5,7.5s7.5-3.4,7.5-7.5S548.1,912.5,544,912.5z"/>
		</g>
	</g>
</g>
<g>
	<g>
		<circle fill="#FFFFFF" cx="489" cy="1088" r="64"/>
		<path fill="#999999" d="M489,1152.2c-35.4,0-64.2-28.8-64.2-64.2s28.8-64.2,64.2-64.2s64.2,28.8,64.2,64.2
			S524.4,1152.2,489,1152.2z M489,1024.2c-35.2,0-63.8,28.6-63.8,63.8s28.6,63.8,63.8,63.8s63.8-28.6,63.8-63.8
			S524.2,1024.2,489,1024.2z"/>
	</g>
	<g>
		
			<linearGradient id="SVGID_51_" gradientUnits="userSpaceOnUse" x1="-9130" y1="2112" x2="-9202" y2="2112" gradientTransform="matrix(-1 0 0 -1 -8634 3200)">
			<stop  offset="0" style="stop-color:#C4C4C4"/>
			<stop  offset="1" style="stop-color:#FFFFFF"/>
		</linearGradient>
		<path fill="url(#SVGID_51_)" d="M544,1136c13.3,0,24-10.7,24-24v-72h-48v72c0,13.3-10.7,24-24,24H544z"/>
		<g>
			<path fill="#FFFFFF" d="M496,1128h48c8.8,0,16-7.2,16-16l0,0c0-8.8-7.2-16-16-16h-48c-8.8,0-16,7.2-16,16l0,0
				C480,1120.8,487.2,1128,496,1128z"/>
			<path d="M544,1129h-48c-9.4,0-17-7.6-17-17s7.6-17,17-17h48c9.4,0,17,7.6,17,17S553.4,1129,544,1129z M496,1097
				c-8.3,0-15,6.7-15,15s6.7,15,15,15h48c8.3,0,15-6.7,15-15s-6.7-15-15-15H496z"/>
		</g>
		
			<linearGradient id="SVGID_52_" gradientUnits="userSpaceOnUse" x1="8650" y1="1968" x2="8722" y2="1968" gradientTransform="matrix(1 0 0 -1 -8178 3056)">
			<stop  offset="0" style="stop-color:#C4C4C4"/>
			<stop  offset="1" style="stop-color:#FFFFFF"/>
		</linearGradient>
		<path fill="url(#SVGID_52_)" d="M496,1136c-13.3,0-24-10.7-24-24v-48c0-13.3,10.7-24,24-24h0c13.3,0,24,10.7,24,24v48
			c0,13.3,10.7,24,24,24H496z"/>
		<g>
			<path fill="#FFFFFF" d="M448,1080h48c8.8,0,16-7.2,16-16l0,0c0-8.8-7.2-16-16-16h-48c-8.8,0-16,7.2-16,16l0,0
				C432,1072.8,439.2,1080,448,1080z"/>
			<path d="M496,1081h-48c-9.4,0-17-7.6-17-17s7.6-17,17-17h48c9.4,0,17,7.6,17,17S505.4,1081,496,1081z M448,1049
				c-8.3,0-15,6.7-15,15s6.7,15,15,15h48c8.3,0,15-6.7,15-15s-6.7-15-15-15H448z"/>
		</g>
		
			<linearGradient id="SVGID_53_" gradientUnits="userSpaceOnUse" x1="8602" y1="1088" x2="8674" y2="1088" gradientTransform="matrix(1 0 0 1 -8178 0)">
			<stop  offset="0" style="stop-color:#C4C4C4"/>
			<stop  offset="1" style="stop-color:#FFFFFF"/>
		</linearGradient>
		<path fill="url(#SVGID_53_)" d="M448,1040c-13.3,0-24,10.7-24,24v72h48v-72c0-13.3,10.7-24,24-24H448z"/>
		<circle cx="496" cy="1064" r="16"/>
		<circle cx="544" cy="1112" r="16"/>
		<g>
			<path fill="#FFFFFF" d="M496,1072L496,1072c-4.4,0-8-3.6-8-8l0,0c0-4.4,3.6-8,8-8l0,0c4.4,0,8,3.6,8,8l0,0
				C504,1068.4,500.4,1072,496,1072z"/>
			<path d="M496,1072.5c-4.7,0-8.5-3.8-8.5-8.5s3.8-8.5,8.5-8.5s8.5,3.8,8.5,8.5S500.7,1072.5,496,1072.5z M496,1056.5
				c-4.1,0-7.5,3.4-7.5,7.5s3.4,7.5,7.5,7.5s7.5-3.4,7.5-7.5S500.1,1056.5,496,1056.5z"/>
		</g>
		<g>
			<path fill="#FFFFFF" d="M544,1120L544,1120c-4.4,0-8-3.6-8-8l0,0c0-4.4,3.6-8,8-8h0c4.4,0,8,3.6,8,8l0,0
				C552,1116.4,548.4,1120,544,1120z"/>
			<path d="M544,1120.5c-4.7,0-8.5-3.8-8.5-8.5s3.8-8.5,8.5-8.5s8.5,3.8,8.5,8.5S548.7,1120.5,544,1120.5z M544,1104.5
				c-4.1,0-7.5,3.4-7.5,7.5s3.4,7.5,7.5,7.5s7.5-3.4,7.5-7.5S548.1,1104.5,544,1104.5z"/>
		</g>
	</g>
</g>
<g>
	<g>
		<circle fill="#FFFFFF" cx="489" cy="320" r="64"/>
		<path fill="#999999" d="M489,384.2c-35.4,0-64.2-28.8-64.2-64.2s28.8-64.2,64.2-64.2s64.2,28.8,64.2,64.2S524.4,384.2,489,384.2z
			 M489,256.2c-35.2,0-63.8,28.6-63.8,63.8s28.6,63.8,63.8,63.8s63.8-28.6,63.8-63.8S524.2,256.2,489,256.2z"/>
	</g>
	<g>
		
			<linearGradient id="SVGID_54_" gradientUnits="userSpaceOnUse" x1="-9130" y1="2880" x2="-9202" y2="2880" gradientTransform="matrix(-1 0 0 -1 -8634 3200)">
			<stop  offset="0" style="stop-color:#C4C4C4"/>
			<stop  offset="1" style="stop-color:#FFFFFF"/>
		</linearGradient>
		<path fill="url(#SVGID_54_)" d="M544,368c13.3,0,24-10.7,24-24v-72h-48v72c0,13.3-10.7,24-24,24H544z"/>
		<g>
			<path fill="#FFFFFF" d="M496,360h48c8.8,0,16-7.2,16-16v0c0-8.8-7.2-16-16-16h-48c-8.8,0-16,7.2-16,16v0
				C480,352.8,487.2,360,496,360z"/>
			<path d="M544,361h-48c-9.4,0-17-7.6-17-17s7.6-17,17-17h48c9.4,0,17,7.6,17,17S553.4,361,544,361z M496,329c-8.3,0-15,6.7-15,15
				s6.7,15,15,15h48c8.3,0,15-6.7,15-15s-6.7-15-15-15H496z"/>
		</g>
		
			<linearGradient id="SVGID_55_" gradientUnits="userSpaceOnUse" x1="8650" y1="2736" x2="8722" y2="2736" gradientTransform="matrix(1 0 0 -1 -8178 3056)">
			<stop  offset="0" style="stop-color:#C4C4C4"/>
			<stop  offset="1" style="stop-color:#FFFFFF"/>
		</linearGradient>
		<path fill="url(#SVGID_55_)" d="M496,368c-13.3,0-24-10.7-24-24v-48c0-13.3,10.7-24,24-24h0c13.3,0,24,10.7,24,24v48
			c0,13.3,10.7,24,24,24H496z"/>
		<g>
			<path fill="#FFFFFF" d="M448,312h48c8.8,0,16-7.2,16-16v0c0-8.8-7.2-16-16-16h-48c-8.8,0-16,7.2-16,16v0
				C432,304.8,439.2,312,448,312z"/>
			<path d="M496,313h-48c-9.4,0-17-7.6-17-17s7.6-17,17-17h48c9.4,0,17,7.6,17,17S505.4,313,496,313z M448,281c-8.3,0-15,6.7-15,15
				s6.7,15,15,15h48c8.3,0,15-6.7,15-15s-6.7-15-15-15H448z"/>
		</g>
		
			<linearGradient id="SVGID_56_" gradientUnits="userSpaceOnUse" x1="8602" y1="320" x2="8674" y2="320" gradientTransform="matrix(1 0 0 1 -8178 0)">
			<stop  offset="0" style="stop-color:#C4C4C4"/>
			<stop  offset="1" style="stop-color:#FFFFFF"/>
		</linearGradient>
		<path fill="url(#SVGID_56_)" d="M448,272c-13.3,0-24,10.7-24,24v72h48v-72c0-13.3,10.7-24,24-24H448z"/>
		<circle cx="496" cy="296" r="16"/>
		<circle cx="544" cy="344" r="16"/>
		<g>
			<path fill="#FFFFFF" d="M496,304L496,304c-4.4,0-8-3.6-8-8v0c0-4.4,3.6-8,8-8l0,0c4.4,0,8,3.6,8,8v0C504,300.4,500.4,304,496,304
				z"/>
			<path d="M496,304.5c-4.7,0-8.5-3.8-8.5-8.5s3.8-8.5,8.5-8.5s8.5,3.8,8.5,8.5S500.7,304.5,496,304.5z M496,288.5
				c-4.1,0-7.5,3.4-7.5,7.5s3.4,7.5,7.5,7.5s7.5-3.4,7.5-7.5S500.1,288.5,496,288.5z"/>
		</g>
		<g>
			<path fill="#FFFFFF" d="M544,352L544,352c-4.4,0-8-3.6-8-8v0c0-4.4,3.6-8,8-8h0c4.4,0,8,3.6,8,8v0C552,348.4,548.4,352,544,352z"
				/>
			<path d="M544,352.5c-4.7,0-8.5-3.8-8.5-8.5s3.8-8.5,8.5-8.5s8.5,3.8,8.5,8.5S548.7,352.5,544,352.5z M544,336.5
				c-4.1,0-7.5,3.4-7.5,7.5s3.4,7.5,7.5,7.5s7.5-3.4,7.5-7.5S548.1,336.5,544,336.5z"/>
		</g>
	</g>
</g>
<g>
	<g>
		<circle fill="#FFFFFF" cx="489" cy="512" r="64"/>
		<path fill="#999999" d="M489,576.2c-35.4,0-64.2-28.8-64.2-64.2s28.8-64.2,64.2-64.2s64.2,28.8,64.2,64.2S524.4,576.2,489,576.2z
			 M489,448.2c-35.2,0-63.8,28.6-63.8,63.8s28.6,63.8,63.8,63.8s63.8-28.6,63.8-63.8S524.2,448.2,489,448.2z"/>
	</g>
	<g>
		
			<linearGradient id="SVGID_57_" gradientUnits="userSpaceOnUse" x1="-9130" y1="2688" x2="-9202" y2="2688" gradientTransform="matrix(-1 0 0 -1 -8634 3200)">
			<stop  offset="0" style="stop-color:#C4C4C4"/>
			<stop  offset="1" style="stop-color:#FFFFFF"/>
		</linearGradient>
		<path fill="url(#SVGID_57_)" d="M544,560c13.3,0,24-10.7,24-24v-72h-48v72c0,13.3-10.7,24-24,24H544z"/>
		<g>
			<path fill="#FFFFFF" d="M496,552h48c8.8,0,16-7.2,16-16l0,0c0-8.8-7.2-16-16-16h-48c-8.8,0-16,7.2-16,16l0,0
				C480,544.8,487.2,552,496,552z"/>
			<path d="M544,553h-48c-9.4,0-17-7.6-17-17s7.6-17,17-17h48c9.4,0,17,7.6,17,17S553.4,553,544,553z M496,521c-8.3,0-15,6.7-15,15
				s6.7,15,15,15h48c8.3,0,15-6.7,15-15s-6.7-15-15-15H496z"/>
		</g>
		
			<linearGradient id="SVGID_58_" gradientUnits="userSpaceOnUse" x1="8650" y1="2544" x2="8722" y2="2544" gradientTransform="matrix(1 0 0 -1 -8178 3056)">
			<stop  offset="0" style="stop-color:#C4C4C4"/>
			<stop  offset="1" style="stop-color:#FFFFFF"/>
		</linearGradient>
		<path fill="url(#SVGID_58_)" d="M496,560c-13.3,0-24-10.7-24-24v-48c0-13.3,10.7-24,24-24h0c13.3,0,24,10.7,24,24v48
			c0,13.3,10.7,24,24,24H496z"/>
		<g>
			<path fill="#FFFFFF" d="M448,504h48c8.8,0,16-7.2,16-16v0c0-8.8-7.2-16-16-16h-48c-8.8,0-16,7.2-16,16v0
				C432,496.8,439.2,504,448,504z"/>
			<path d="M496,505h-48c-9.4,0-17-7.6-17-17s7.6-17,17-17h48c9.4,0,17,7.6,17,17S505.4,505,496,505z M448,473c-8.3,0-15,6.7-15,15
				s6.7,15,15,15h48c8.3,0,15-6.7,15-15s-6.7-15-15-15H448z"/>
		</g>
		
			<linearGradient id="SVGID_59_" gradientUnits="userSpaceOnUse" x1="8602" y1="512" x2="8674" y2="512" gradientTransform="matrix(1 0 0 1 -8178 0)">
			<stop  offset="0" style="stop-color:#C4C4C4"/>
			<stop  offset="1" style="stop-color:#FFFFFF"/>
		</linearGradient>
		<path fill="url(#SVGID_59_)" d="M448,464c-13.3,0-24,10.7-24,24v72h48v-72c0-13.3,10.7-24,24-24H448z"/>
		<circle cx="496" cy="488" r="16"/>
		<circle cx="544" cy="536" r="16"/>
		<g>
			<path fill="#FFFFFF" d="M496,496L496,496c-4.4,0-8-3.6-8-8v0c0-4.4,3.6-8,8-8l0,0c4.4,0,8,3.6,8,8v0C504,492.4,500.4,496,496,496
				z"/>
			<path d="M496,496.5c-4.7,0-8.5-3.8-8.5-8.5s3.8-8.5,8.5-8.5s8.5,3.8,8.5,8.5S500.7,496.5,496,496.5z M496,480.5
				c-4.1,0-7.5,3.4-7.5,7.5s3.4,7.5,7.5,7.5s7.5-3.4,7.5-7.5S500.1,480.5,496,480.5z"/>
		</g>
		<g>
			<path fill="#FFFFFF" d="M544,544L544,544c-4.4,0-8-3.6-8-8l0,0c0-4.4,3.6-8,8-8h0c4.4,0,8,3.6,8,8l0,0
				C552,540.4,548.4,544,544,544z"/>
			<path d="M544,544.5c-4.7,0-8.5-3.8-8.5-8.5s3.8-8.5,8.5-8.5s8.5,3.8,8.5,8.5S548.7,544.5,544,544.5z M544,528.5
				c-4.1,0-7.5,3.4-7.5,7.5s3.4,7.5,7.5,7.5s7.5-3.4,7.5-7.5S548.1,528.5,544,528.5z"/>
		</g>
	</g>
</g>
<g>
	<g>
		<circle fill="#FFFFFF" cx="1264" cy="704" r="64"/>
		<path fill="#999999" d="M1264,768.2c-35.4,0-64.2-28.8-64.2-64.2s28.8-64.2,64.2-64.2s64.2,28.8,64.2,64.2
			S1299.4,768.2,1264,768.2z M1264,640.2c-35.2,0-63.8,28.6-63.8,63.8c0,35.2,28.6,63.8,63.8,63.8s63.8-28.6,63.8-63.8
			C1327.8,668.8,1299.2,640.2,1264,640.2z"/>
	</g>
	<g>
		<path fill="#FFFFFF" d="M1328,730v8h-119.9c-4.5,0-8.1-3.6-8.1-8.1V714L1328,730z"/>
		<path d="M1329,739h-120.9c-5,0-9.1-4.1-9.1-9.1v-17l130,16.2V739z M1201,715.1v14.8c0,3.9,3.2,7.1,7.1,7.1H1327v-6.1L1201,715.1z"
			/>
	</g>
	<g>
		<path fill="#FFFFFF" d="M1200,721.9v-19.7c0-2.3,2-4,4.2-3.6l18.8,3.1c14.4,2.4,28.3-6,33-19.8v0l49.2,16.4
			c13.6,4.5,22.8,17.3,22.8,31.6v0h-120C1203.6,730,1200,726.4,1200,721.9z"/>
		<path d="M1329,731h-121c-5,0-9-4-9-9v-19.7c0-2.8,2.5-5.1,5.4-4.6l18.8,3.1c1.6,0.3,3.2,0.4,4.7,0.4c12.3,0,23.2-7.9,27.1-19.6
			l0.3-0.9l50.2,16.7c14,4.7,23.5,17.8,23.5,32.5V731z M1203.6,699.6c-1.5,0-2.6,1.2-2.6,2.6v19.7c0,3.9,3.1,7,7,7h119
			c-0.4-13.5-9.2-25.3-22.1-29.6l-48.3-16.1c-4.4,12-15.8,20-28.7,20c-1.7,0-3.4-0.1-5.1-0.4l-18.8-3.1
			C1203.9,699.6,1203.8,699.6,1203.6,699.6z"/>
	</g>
	<path d="M1304,731C1304,731,1304,731,1304,731c-0.6,0-1-0.5-1-1l1.2-31.6c0-0.6,0.5-1,1-1c0.6,0,1,0.5,1,1L1305,730
		C1305,730.5,1304.5,731,1304,731z"/>
	<g>
		<linearGradient id="SVGID_60_" gradientUnits="userSpaceOnUse" x1="1249.9991" y1="691.9508" x2="1266.0009" y2="691.9508">
			<stop  offset="0" style="stop-color:#FFFFFF"/>
			<stop  offset="1" style="stop-color:#FCBA59"/>
		</linearGradient>
		<path fill="url(#SVGID_60_)" d="M1254,704c-0.6,0-1.2-0.1-1.8-0.4c-2-1-2.8-3.4-1.8-5.4l8-16c1-2,3.4-2.8,5.4-1.8
			c2,1,2.8,3.4,1.8,5.4l-8,16C1256.9,703.1,1255.5,704,1254,704z"/>
		<linearGradient id="SVGID_61_" gradientUnits="userSpaceOnUse" x1="1259.5988" y1="695.1507" x2="1275.6005" y2="695.1507">
			<stop  offset="0" style="stop-color:#FFFFFF"/>
			<stop  offset="1" style="stop-color:#FCBA59"/>
		</linearGradient>
		<path fill="url(#SVGID_61_)" d="M1263.6,707.2c-0.6,0-1.2-0.1-1.8-0.4c-2-1-2.8-3.4-1.8-5.4l8-16c1-2,3.4-2.8,5.4-1.8
			c2,1,2.8,3.4,1.8,5.4l-8,16C1266.5,706.3,1265.1,707.2,1263.6,707.2z"/>
		<linearGradient id="SVGID_62_" gradientUnits="userSpaceOnUse" x1="1269.1993" y1="698.3508" x2="1285.201" y2="698.3508">
			<stop  offset="0" style="stop-color:#FFFFFF"/>
			<stop  offset="1" style="stop-color:#FCBA59"/>
		</linearGradient>
		<path fill="url(#SVGID_62_)" d="M1273.2,710.4c-0.6,0-1.2-0.1-1.8-0.4c-2-1-2.8-3.4-1.8-5.4l8-16c1-2,3.4-2.8,5.4-1.8
			c2,1,2.8,3.4,1.8,5.4l-8,16C1276.1,709.5,1274.7,710.4,1273.2,710.4z"/>
		<linearGradient id="SVGID_63_" gradientUnits="userSpaceOnUse" x1="1278.799" y1="701.5509" x2="1294.8007" y2="701.5509">
			<stop  offset="0" style="stop-color:#FFFFFF"/>
			<stop  offset="1" style="stop-color:#FCBA59"/>
		</linearGradient>
		<path fill="url(#SVGID_63_)" d="M1282.8,713.6c-0.6,0-1.2-0.1-1.8-0.4c-2-1-2.8-3.4-1.8-5.4l8-16c1-2,3.4-2.8,5.4-1.8
			c2,1,2.8,3.4,1.8,5.4l-8,16C1285.7,712.7,1284.3,713.6,1282.8,713.6z"/>
		<linearGradient id="SVGID_64_" gradientUnits="userSpaceOnUse" x1="1288.3986" y1="704.7508" x2="1304.4003" y2="704.7508">
			<stop  offset="0" style="stop-color:#FFFFFF"/>
			<stop  offset="1" style="stop-color:#FCBA59"/>
		</linearGradient>
		<path fill="url(#SVGID_64_)" d="M1292.4,716.8c-0.6,0-1.2-0.1-1.8-0.4c-2-1-2.8-3.4-1.8-5.4l8-16c1-2,3.4-2.8,5.4-1.8
			c2,1,2.8,3.4,1.8,5.4l-8,16C1295.3,715.9,1293.9,716.8,1292.4,716.8z"/>
	</g>
	<g>
		<path fill="#FFFFFF" d="M1200,714h11.8c6.6,0,11.8-5.6,11.2-12.2l0,0"/>
		<path d="M1211.8,715H1200c-0.6,0-1-0.4-1-1s0.4-1,1-1h11.8c2.9,0,5.6-1.2,7.5-3.3s2.9-4.9,2.7-7.8c0-0.6,0.4-1,0.9-1.1
			c0.5,0,1,0.4,1.1,0.9c0.3,3.4-0.9,6.8-3.2,9.3C1218.5,713.5,1215.2,715,1211.8,715z"/>
	</g>
	<path d="M1240,699c-0.6,0-1-0.4-1-1v-8c0-3.8,1.9-7.3,5.2-9.3c3.2-2,7.2-2.2,10.6-0.5l1.7,0.8c0.5,0.2,0.7,0.8,0.4,1.3
		c-0.2,0.5-0.8,0.7-1.3,0.4l-1.7-0.8c-2.8-1.4-6-1.2-8.6,0.4c-2.6,1.6-4.2,4.5-4.2,7.6v8C1241,698.5,1240.6,699,1240,699z"/>
</g>
<g>
	<g>
		<path fill="#2762FF" d="M1223.9,798.7c-1.1,1.1-2.8,1.6-4.4,1.6c-1.9,0-3.4-0.5-4.5-1.5c-1-0.9-1.6-2.3-1.6-3.8h2.1
			c0,0.9,0.4,1.9,1.1,2.5c0.7,0.7,1.8,1,3,1c1.2,0,2.2-0.2,2.9-0.9c0.5-0.4,0.8-1,0.8-1.8c0-1.2-0.7-2.2-2.6-2.5
			c-0.9-0.1-1.6-0.2-2.4-0.4c-2.4-0.4-4.2-1.7-4.2-4.2c0-1.2,0.5-2.3,1.3-3.1c1.1-1,2.4-1.6,4.1-1.6c1.5,0,3,0.5,4,1.5
			c1,0.9,1.4,2.1,1.5,3.4h-2.1c0-0.8-0.3-1.4-0.8-1.9c-0.6-0.7-1.5-1.1-2.7-1.1c-1.1,0-2,0.3-2.7,1.1c-0.4,0.5-0.6,1-0.6,1.7
			c0,1.4,1.1,2.1,2.3,2.2c0.9,0.1,1.7,0.3,2.6,0.4c2.6,0.4,4.3,2,4.3,4.5C1225.2,797,1224.6,798,1223.9,798.7z"/>
		<path fill="#2762FF" d="M1237.2,800l-6.3-12.7V800h-1.9v-15.7h2.5l6.3,12.7v-12.7h1.9V800H1237.2z"/>
		<path fill="#2762FF" d="M1244.5,800v-15.7h10.4v1.8h-8.4v4.8h6.4v1.9h-6.4v5.4h8.4v1.8H1244.5z"/>
		<path fill="#2762FF" d="M1268.4,800l-1.3-4.1h-6.1l-1.3,4.1h-2l5.2-15.7h2.4l5.2,15.7H1268.4z M1264,786.3l-2.4,7.8h5L1264,786.3z
			"/>
		<path fill="#2762FF" d="M1283.1,800l-4.6-7.9l-2.7,3v4.9h-2v-15.7h2v8.1l7.1-8.1h2.4l-5.5,6.2l5.5,9.5H1283.1z"/>
		<path fill="#2762FF" d="M1289.1,800v-15.7h10.4v1.8h-8.4v4.8h6.4v1.9h-6.4v5.4h8.4v1.8H1289.1z"/>
		<path fill="#2762FF" d="M1312.3,800l-3-6.5h-3.6v6.5h-2v-15.7h5.4c1.8,0,3.1,0.5,4,1.4c0.8,0.8,1.2,1.8,1.2,3.2
			c0,1.4-0.4,2.3-1.2,3.1c-0.5,0.5-1.1,0.9-1.9,1.1l3.2,6.9H1312.3z M1309.1,786.1h-3.4v5.5h3.4c1.9,0,3.2-0.8,3.2-2.8
			S1311,786.1,1309.1,786.1z"/>
	</g>
</g>
<g>
	<path fill="#999999" d="M997.5,997.5c-1.3,1.7-3.4,2.9-6.2,2.9c-5,0-8.6-3.6-8.6-8.6c0-5.1,3.7-8.5,8.7-8.5c2.2,0,4.6,0.9,5.8,2.5
		l-1.8,1.4c-0.8-1.1-2.4-1.9-4-1.9c-3.8,0-6.2,3-6.2,6.5c0,3.7,2.4,6.6,6.1,6.6c1.8,0,3.4-0.8,4.4-2.2L997.5,997.5z"/>
	<path fill="#999999" d="M1007.3,1000c0-0.6-0.1-1.3-0.1-1.8h0c-0.6,1.2-2,2.1-3.6,2.1c-2.8,0-4.1-2-4.1-4.4v-6.8h2.2v6
		c0,1.8,0.5,3.4,2.5,3.4c1.7,0,2.9-1.4,2.9-3.6v-5.8h2.2v8.6c0,0.6,0,1.6,0.1,2.3H1007.3z"/>
	<path fill="#999999" d="M1013,989.1h2c0,0.6,0.1,1.4,0.1,1.8h0.1c0.6-1.3,1.9-2.1,3.3-2.1c0.3,0,0.6,0,0.8,0.1l-0.1,2
		c-0.3-0.1-0.6-0.1-1-0.1c-2.1,0-3.1,1.7-3.1,3.5v5.7h-2.2v-8.6C1013.1,990.9,1013,989.8,1013,989.1z"/>
	<path fill="#999999" d="M1021.3,989.1h2c0,0.6,0.1,1.4,0.1,1.8h0.1c0.6-1.3,1.9-2.1,3.3-2.1c0.3,0,0.6,0,0.8,0.1l-0.1,2
		c-0.3-0.1-0.6-0.1-1-0.1c-2.1,0-3.1,1.7-3.1,3.5v5.7h-2.2v-8.6C1021.4,990.9,1021.4,989.8,1021.3,989.1z"/>
	<path fill="#999999" d="M1039.8,995.2h-8.6c0.1,1.9,1.6,3.3,3.5,3.3c1.5,0,2.6-0.7,3.2-1.7l1.5,1.2c-1.2,1.5-2.8,2.2-4.7,2.2
		c-3.3,0-5.7-2.3-5.7-5.7c0-3.4,2.4-5.8,5.6-5.8c3.2,0,5.2,2.2,5.2,5.7C1039.9,994.7,1039.9,994.9,1039.8,995.2z M1037.7,993.6
		c0-1.7-1.1-3.1-3.1-3.1c-1.9,0-3.3,1.4-3.4,3.1H1037.7z"/>
	<path fill="#999999" d="M1044.8,989.1c0,0.6,0.1,1.3,0.1,1.8h0.1c0.5-1.2,2-2.1,3.5-2.1c2.8,0,4.1,2,4.1,4.4v6.8h-2.2v-6
		c0-1.8-0.5-3.3-2.5-3.3c-1.7,0-2.9,1.4-2.9,3.6v5.8h-2.2v-8.6c0-0.6,0-1.6-0.1-2.3H1044.8z"/>
	<path fill="#999999" d="M1061.6,990.9h-2.9v5.7c0,1.3,0.5,1.8,1.5,1.8c0.4,0,0.9-0.1,1.3-0.3l0.1,1.8c-0.5,0.2-1.2,0.3-1.8,0.3
		c-2,0-3.2-1.2-3.2-3.4v-5.9h-2.1v-1.8h2.1V986h2.1v3.1h2.9V990.9z"/>
	<path fill="#999999" d="M1075.5,991.9c-0.5-0.8-1.4-1.4-2.5-1.4c-1,0-2,0.4-2,1.4c0,0.9,0.8,1.3,2.5,1.6c2.1,0.5,3.7,1.3,3.7,3.2
		c0,2.6-2.1,3.5-4.3,3.5c-1.7,0-3.4-0.6-4.4-2l1.5-1.3c0.6,0.9,1.7,1.5,2.9,1.5c1.1,0,2.2-0.4,2.2-1.6c0-1-1-1.4-2.9-1.8
		c-1.4-0.3-3.2-1-3.2-3c0-2.3,2-3.3,4.1-3.3c1.5,0,3.2,0.6,4,1.8L1075.5,991.9z"/>
	<path fill="#999999" d="M1084.9,1000.3c-3.3,0-5.9-2.4-5.9-5.8s2.5-5.7,5.9-5.7s5.9,2.4,5.9,5.7S1088.3,1000.3,1084.9,1000.3z
		 M1084.9,990.6c-2.3,0-3.6,1.9-3.6,3.9c0,2.1,1.3,4,3.6,4c2.3,0,3.6-1.9,3.6-4C1088.6,992.5,1087.3,990.6,1084.9,990.6z"/>
	<path fill="#999999" d="M1096,1000h-2.2v-17.4h2.2V1000z"/>
	<path fill="#999999" d="M1107.5,1000c0-0.6-0.1-1.3-0.1-1.8h0c-0.6,1.2-2,2.1-3.6,2.1c-2.8,0-4.1-2-4.1-4.4v-6.8h2.2v6
		c0,1.8,0.5,3.4,2.5,3.4c1.7,0,2.9-1.4,2.9-3.6v-5.8h2.2v8.6c0,0.6,0,1.6,0.1,2.3H1107.5z"/>
	<path fill="#999999" d="M1118.5,990.9h-2.9v5.7c0,1.3,0.5,1.8,1.5,1.8c0.4,0,0.9-0.1,1.3-0.3l0.1,1.8c-0.5,0.2-1.2,0.3-1.8,0.3
		c-2,0-3.2-1.2-3.2-3.4v-5.9h-2.1v-1.8h2.1V986h2.1v3.1h2.9V990.9z"/>
	<path fill="#999999" d="M1121.9,986.5c-0.8,0-1.4-0.6-1.4-1.4c0-0.8,0.6-1.4,1.4-1.4s1.4,0.6,1.4,1.4
		C1123.3,985.9,1122.6,986.5,1121.9,986.5z M1122.9,1000h-2.2v-10.9h2.2V1000z"/>
	<path fill="#999999" d="M1131.9,1000.3c-3.3,0-5.9-2.4-5.9-5.8s2.5-5.7,5.9-5.7c3.3,0,5.9,2.4,5.9,5.7S1135.2,1000.3,1131.9,1000.3
		z M1131.9,990.6c-2.3,0-3.6,1.9-3.6,3.9c0,2.1,1.3,4,3.6,4c2.3,0,3.6-1.9,3.6-4C1135.5,992.5,1134.2,990.6,1131.9,990.6z"/>
	<path fill="#999999" d="M1142.7,989.1c0,0.6,0.1,1.3,0.1,1.8h0.1c0.5-1.2,2-2.1,3.5-2.1c2.8,0,4.1,2,4.1,4.4v6.8h-2.2v-6
		c0-1.8-0.5-3.3-2.5-3.3c-1.7,0-2.9,1.4-2.9,3.6v5.8h-2.2v-8.6c0-0.6,0-1.6-0.1-2.3H1142.7z"/>
	<path fill="#999999" d="M1160,991.9c-0.5-0.8-1.4-1.4-2.5-1.4c-1,0-2,0.4-2,1.4c0,0.9,0.8,1.3,2.5,1.6c2.1,0.5,3.7,1.3,3.7,3.2
		c0,2.6-2.1,3.5-4.3,3.5c-1.7,0-3.4-0.6-4.4-2l1.5-1.3c0.6,0.9,1.7,1.5,2.9,1.5c1.1,0,2.2-0.4,2.2-1.6c0-1-1-1.4-2.9-1.8
		c-1.4-0.3-3.2-1-3.2-3c0-2.3,2-3.3,4.1-3.3c1.5,0,3.2,0.6,4,1.8L1160,991.9z"/>
</g>
<g>
	<rect x="1019.9" y="703" fill="#2762FF" width="104.1" height="2"/>
	<g>
		<polygon fill="#2762FF" points="1025.6,711.4 1022.4,704 1025.6,696.6 1008,704 		"/>
	</g>
	<g>
		<polygon fill="#2762FF" points="1118.4,711.4 1121.6,704 1118.4,696.6 1136,704 		"/>
	</g>
</g>
<g>
	<rect x="251.9" y="511" fill="#C4C4C4" width="104.1" height="2"/>
	<g>
		<polygon fill="#C4C4C4" points="257.6,519.4 254.4,512 257.6,504.6 240,512 		"/>
	</g>
	<g>
		<polygon fill="#C4C4C4" points="350.4,519.4 353.6,512 350.4,504.6 368,512 		"/>
	</g>
</g>
<g>
	<rect x="251.9" y="703" fill="#2762FF" width="104.1" height="2"/>
	<g>
		<polygon fill="#2762FF" points="257.6,711.4 254.4,704 257.6,696.6 240,704 		"/>
	</g>
	<g>
		<polygon fill="#2762FF" points="350.4,711.4 353.6,704 350.4,696.6 368,704 		"/>
	</g>
</g>
<g>
	<rect x="251.9" y="895" fill="#C4C4C4" width="104.1" height="2"/>
	<g>
		<polygon fill="#C4C4C4" points="257.6,903.4 254.4,896 257.6,888.6 240,896 		"/>
	</g>
	<g>
		<polygon fill="#C4C4C4" points="350.4,903.4 353.6,896 350.4,888.6 368,896 		"/>
	</g>
</g>
<g>
	<g>
		<path fill="#2762FF" d="M846.3,800v-15.7h2v13.9h8.1v1.8H846.3z"/>
		<path fill="#2762FF" d="M869.5,800l-1.3-4.1h-6.1l-1.3,4.1h-2l5.2-15.7h2.4l5.2,15.7H869.5z M865.1,786.3l-2.4,7.8h5L865.1,786.3z
			"/>
		<path fill="#2762FF" d="M880.3,800.3c-1.6,0-3-0.6-4.1-1.7c-1.8-1.7-1.9-4.2-1.9-6.5s0.2-4.8,1.9-6.5c1.1-1.1,2.5-1.7,4.1-1.7
			c3,0,5.5,2.1,5.6,5.2h-2.1c0-0.9-0.4-1.7-0.9-2.2c-0.6-0.7-1.6-1.1-2.7-1.1c-1.1,0-1.9,0.4-2.7,1.2c-1.3,1.3-1.3,3.4-1.3,5.1
			s0,3.8,1.3,5.1c0.7,0.8,1.6,1.2,2.7,1.2c2,0,3.6-1.4,3.6-3.5h2C885.8,798,883.4,800.3,880.3,800.3z"/>
		<path fill="#2762FF" d="M890.2,800v-15.7h10.4v1.8h-8.4v4.8h6.4v1.9h-6.4v5.4h8.4v1.8H890.2z"/>
		<path fill="#2762FF" d="M914.2,798.7c-1.1,1.1-2.8,1.6-4.4,1.6c-1.9,0-3.4-0.5-4.5-1.5c-1-0.9-1.6-2.3-1.6-3.8h2.1
			c0,0.9,0.4,1.9,1.1,2.5c0.7,0.7,1.8,1,3,1c1.2,0,2.2-0.2,2.9-0.9c0.5-0.4,0.8-1,0.8-1.8c0-1.2-0.7-2.2-2.6-2.5
			c-0.9-0.1-1.6-0.2-2.4-0.4c-2.4-0.4-4.2-1.7-4.2-4.2c0-1.2,0.5-2.3,1.3-3.1c1.1-1,2.4-1.6,4.1-1.6c1.5,0,3,0.5,4,1.5
			c1,0.9,1.4,2.1,1.5,3.4h-2.1c0-0.8-0.3-1.4-0.8-1.9c-0.6-0.7-1.5-1.1-2.7-1.1c-1.1,0-2,0.3-2.7,1.1c-0.4,0.5-0.6,1-0.6,1.7
			c0,1.4,1.1,2.1,2.3,2.2c0.9,0.1,1.7,0.3,2.6,0.4c2.6,0.4,4.3,2,4.3,4.5C915.5,797,915,798,914.2,798.7z"/>
	</g>
</g>
<g>
	<g>
		<path fill="#2762FF" d="M456.4,786.1v5.1h6.8v1.9h-6.8v6.9h-2v-15.7h10.5v1.8H456.4z"/>
		<path fill="#2762FF" d="M478,800l-1.3-4.1h-6.1l-1.3,4.1h-2l5.2-15.7h2.4l5.2,15.7H478z M473.6,786.3l-2.4,7.8h5L473.6,786.3z"/>
		<path fill="#2762FF" d="M493.2,798.6c-0.9,1-2.4,1.4-4,1.4H484v-15.7h5.3c1.5,0,2.9,0.4,3.8,1.4c0.6,0.6,1,1.6,1,2.7
			c0,1.5-0.8,3-2.3,3.5c1.6,0.5,2.6,2.1,2.6,3.8C494.4,796.9,493.9,797.9,493.2,798.6z M489.2,786h-3.2v5h3.3c1.6,0,2.8-0.7,2.8-2.5
			C492,786.8,490.7,786,489.2,786z M489.3,792.7h-3.3v5.5h3.4c1.7,0,3.1-0.7,3.1-2.7C492.4,793.7,491,792.7,489.3,792.7z"/>
		<path fill="#2762FF" d="M507.1,800l-3-6.5h-3.6v6.5h-2v-15.7h5.4c1.8,0,3.1,0.5,4,1.4c0.8,0.8,1.2,1.8,1.2,3.2
			c0,1.4-0.4,2.3-1.2,3.1c-0.5,0.5-1.1,0.9-1.9,1.1l3.2,6.9H507.1z M503.9,786.1h-3.4v5.5h3.4c1.9,0,3.2-0.8,3.2-2.8
			S505.8,786.1,503.9,786.1z"/>
		<path fill="#2762FF" d="M513.8,800v-1.6h3.5v-12.5h-3.5v-1.6h9v1.6h-3.5v12.5h3.5v1.6H513.8z"/>
		<path fill="#2762FF" d="M533.5,800.3c-1.6,0-3-0.6-4.1-1.7c-1.8-1.7-1.9-4.2-1.9-6.5s0.2-4.8,1.9-6.5c1.1-1.1,2.5-1.7,4.1-1.7
			c3,0,5.5,2.1,5.6,5.2H537c0-0.9-0.4-1.7-0.9-2.2c-0.6-0.7-1.6-1.1-2.7-1.1c-1.1,0-1.9,0.4-2.7,1.2c-1.3,1.3-1.3,3.4-1.3,5.1
			s0,3.8,1.3,5.1c0.7,0.8,1.6,1.2,2.7,1.2c2,0,3.6-1.4,3.6-3.5h2C539,798,536.5,800.3,533.5,800.3z"/>
	</g>
</g>
<g>
	<g>
		<path fill="#2762FF" d="M75.1,800.3c-1.6,0-3-0.6-4.1-1.7c-1.8-1.7-1.9-4.2-1.9-6.5s0.2-4.8,1.9-6.5c1.1-1.1,2.5-1.7,4.1-1.7
			c3,0,5.5,2.1,5.6,5.2h-2.1c0-0.9-0.4-1.7-0.9-2.2c-0.6-0.7-1.6-1.1-2.7-1.1c-1.1,0-1.9,0.4-2.7,1.2c-1.3,1.3-1.3,3.4-1.3,5.1
			s0,3.8,1.3,5.1c0.7,0.8,1.6,1.2,2.7,1.2c2,0,3.6-1.4,3.6-3.5h2C80.6,798,78.2,800.3,75.1,800.3z"/>
		<path fill="#2762FF" d="M93.8,798.6c-1.1,1.1-2.5,1.7-4.1,1.7c-1.6,0-3-0.6-4.1-1.7c-1.7-1.7-1.9-4-1.9-6.5s0.2-4.8,1.9-6.5
			c1.1-1.1,2.5-1.7,4.1-1.7c1.6,0,3,0.6,4.1,1.7c1.7,1.7,1.9,4,1.9,6.5S95.5,796.9,93.8,798.6z M92.4,787.1
			c-0.8-0.8-1.7-1.2-2.7-1.2c-1.1,0-2,0.4-2.7,1.2c-1.3,1.3-1.2,3.4-1.2,5.1s0,3.8,1.2,5.1c0.8,0.8,1.7,1.2,2.7,1.2
			c1.1,0,2-0.4,2.7-1.2c1.3-1.3,1.2-3.4,1.2-5.1S93.7,788.4,92.4,787.1z"/>
		<path fill="#2762FF" d="M105.6,786.1V800h-2v-13.9h-5.4v-1.8h12.7v1.8H105.6z"/>
		<path fill="#2762FF" d="M120.5,786.1V800h-2v-13.9h-5.4v-1.8h12.7v1.8H120.5z"/>
		<path fill="#2762FF" d="M138.4,798.6c-1.1,1.1-2.5,1.7-4.1,1.7c-1.6,0-3-0.6-4.1-1.7c-1.7-1.7-1.9-4-1.9-6.5s0.2-4.8,1.9-6.5
			c1.1-1.1,2.5-1.7,4.1-1.7c1.6,0,3,0.6,4.1,1.7c1.7,1.7,1.9,4,1.9,6.5S140.1,796.9,138.4,798.6z M137,787.1
			c-0.8-0.8-1.7-1.2-2.7-1.2c-1.1,0-2,0.4-2.7,1.2c-1.3,1.3-1.2,3.4-1.2,5.1s0,3.8,1.2,5.1c0.8,0.8,1.7,1.2,2.7,1.2
			c1.1,0,2-0.4,2.7-1.2c1.3-1.3,1.2-3.4,1.2-5.1S138.3,788.4,137,787.1z"/>
		<path fill="#2762FF" d="M152.1,800l-6.3-12.7V800h-1.9v-15.7h2.5l6.3,12.7v-12.7h1.9V800H152.1z"/>
	</g>
</g>
<g>
	
		<rect x="1012.4" y="607" transform="matrix(0.8944 0.4472 -0.4472 0.8944 385.0799 -415.2247)" fill="#C4C4C4" width="119.2" height="2"/>
	<g>
		<polygon fill="#C4C4C4" points="1020.4,590.5 1020.9,582.4 1027,577.2 1008,576 		"/>
	</g>
	<g>
		<polygon fill="#C4C4C4" points="1117,638.8 1123.1,633.6 1123.6,625.5 1136,640 		"/>
	</g>
</g>
<g>
	
		<rect x="244.4" y="415" transform="matrix(0.8944 0.4472 -0.4472 0.8944 218.1359 -92.0347)" fill="#C4C4C4" width="119.2" height="2"/>
	<g>
		<polygon fill="#C4C4C4" points="252.4,398.5 252.9,390.4 259,385.2 240,384 		"/>
	</g>
	<g>
		<polygon fill="#C4C4C4" points="349,446.8 355.1,441.6 355.6,433.5 368,448 		"/>
	</g>
</g>
<g>
	<rect x="251.9" y="319" fill="#C4C4C4" width="104.1" height="2"/>
	<g>
		<polygon fill="#C4C4C4" points="257.6,327.4 254.4,320 257.6,312.6 240,320 		"/>
	</g>
	<g>
		<polygon fill="#C4C4C4" points="350.4,327.4 353.6,320 350.4,312.6 368,320 		"/>
	</g>
</g>
<g>
	
		<rect x="244.4" y="223" transform="matrix(0.8944 0.4472 -0.4472 0.8944 132.2706 -112.3048)" fill="#C4C4C4" width="119.2" height="2"/>
	<g>
		<polygon fill="#C4C4C4" points="252.4,206.5 252.9,198.4 259,193.2 240,192 		"/>
	</g>
	<g>
		<polygon fill="#C4C4C4" points="349,254.8 355.1,249.6 355.6,241.5 368,256 		"/>
	</g>
</g>
<g>
	
		<rect x="244.4" y="607" transform="matrix(0.8944 0.4472 -0.4472 0.8944 304.0012 -71.7646)" fill="#C4C4C4" width="119.2" height="2"/>
	<g>
		<polygon fill="#C4C4C4" points="252.4,590.5 252.9,582.4 259,577.2 240,576 		"/>
	</g>
	<g>
		<polygon fill="#C4C4C4" points="349,638.8 355.1,633.6 355.6,625.5 368,640 		"/>
	</g>
</g>
<g>
	
		<rect x="1071" y="740.4" transform="matrix(0.4472 0.8944 -0.8944 0.4472 1308.1288 -516.5968)" fill="#C4C4C4" width="2" height="119.2"/>
	<g>
		<polygon fill="#C4C4C4" points="1027,830.8 1020.9,825.6 1020.4,817.5 1008,832 		"/>
	</g>
	<g>
		<polygon fill="#C4C4C4" points="1123.6,782.5 1123.1,774.4 1117,769.2 1136,768 		"/>
	</g>
</g>
<g>
	
		<rect x="303" y="932.4" transform="matrix(0.4472 0.8944 -0.8944 0.4472 1055.3187 276.4585)" fill="#C4C4C4" width="2" height="119.2"/>
	<g>
		<polygon fill="#C4C4C4" points="259,1022.8 252.9,1017.6 252.4,1009.5 240,1024 		"/>
	</g>
	<g>
		<polygon fill="#C4C4C4" points="355.6,974.5 355.1,966.4 349,961.2 368,960 		"/>
	</g>
</g>
<g>
	
		<rect x="303" y="740.4" transform="matrix(0.4472 0.8944 -0.8944 0.4472 883.5887 170.3235)" fill="#C4C4C4" width="2" height="119.2"/>
	<g>
		<polygon fill="#C4C4C4" points="259,830.8 252.9,825.6 252.4,817.5 240,832 		"/>
	</g>
	<g>
		<polygon fill="#C4C4C4" points="355.6,782.5 355.1,774.4 349,769.2 368,768 		"/>
	</g>
</g>
<g>
	<rect x="251.9" y="1087" fill="#C4C4C4" width="104.1" height="2"/>
	<g>
		<polygon fill="#C4C4C4" points="257.6,1095.4 254.4,1088 257.6,1080.6 240,1088 		"/>
	</g>
	<g>
		<polygon fill="#C4C4C4" points="350.4,1095.4 353.6,1088 350.4,1080.6 368,1088 		"/>
	</g>
</g>
<g>
	
		<rect x="303" y="1124.4" transform="matrix(0.4472 0.8944 -0.8944 0.4472 1227.0487 382.5935)" fill="#C4C4C4" width="2" height="119.2"/>
	<g>
		<polygon fill="#C4C4C4" points="259,1214.8 252.9,1209.6 252.4,1201.5 240,1216 		"/>
	</g>
	<g>
		<polygon fill="#C4C4C4" points="355.6,1166.5 355.1,1158.4 349,1153.2 368,1152 		"/>
	</g>
</g>
<g>
	<rect x="635.9" y="511" fill="#C4C4C4" width="104.1" height="2"/>
	<g>
		<polygon fill="#C4C4C4" points="641.6,519.4 638.4,512 641.6,504.6 624,512 		"/>
	</g>
	<g>
		<polygon fill="#C4C4C4" points="734.4,519.4 737.6,512 734.4,504.6 752,512 		"/>
	</g>
</g>
<g>
	<rect x="635.9" y="703" fill="#2762FF" width="104.1" height="2"/>
	<g>
		<polygon fill="#2762FF" points="641.6,711.4 638.4,704 641.6,696.6 624,704 		"/>
	</g>
	<g>
		<polygon fill="#2762FF" points="734.4,711.4 737.6,704 734.4,696.6 752,704 		"/>
	</g>
</g>
<g>
	<rect x="635.9" y="895" fill="#C4C4C4" width="104.1" height="2"/>
	<g>
		<polygon fill="#C4C4C4" points="641.6,903.4 638.4,896 641.6,888.6 624,896 		"/>
	</g>
	<g>
		<polygon fill="#C4C4C4" points="734.4,903.4 737.6,896 734.4,888.6 752,896 		"/>
	</g>
</g>
<g>
	
		<rect x="628.4" y="415" transform="matrix(0.8944 0.4472 -0.4472 0.8944 258.675 -263.7646)" fill="#C4C4C4" width="119.2" height="2"/>
	<g>
		<polygon fill="#C4C4C4" points="636.4,398.5 636.9,390.4 643,385.2 624,384 		"/>
	</g>
	<g>
		<polygon fill="#C4C4C4" points="733,446.8 739.1,441.6 739.6,433.5 752,448 		"/>
	</g>
</g>
<g>
	
		<rect x="628.4" y="607" transform="matrix(0.8944 0.4472 -0.4472 0.8944 344.5399 -243.4947)" fill="#C4C4C4" width="119.2" height="2"/>
	<g>
		<polygon fill="#C4C4C4" points="636.4,590.5 636.9,582.4 643,577.2 624,576 		"/>
	</g>
	<g>
		<polygon fill="#C4C4C4" points="733,638.8 739.1,633.6 739.6,625.5 752,640 		"/>
	</g>
</g>
<g>
	
		<rect x="687" y="932.4" transform="matrix(0.4472 0.8944 -0.8944 0.4472 1267.5889 -67.0018)" fill="#C4C4C4" width="2" height="119.2"/>
	<g>
		<polygon fill="#C4C4C4" points="643,1022.8 636.9,1017.6 636.4,1009.5 624,1024 		"/>
	</g>
	<g>
		<polygon fill="#C4C4C4" points="739.6,974.5 739.1,966.4 733,961.2 752,960 		"/>
	</g>
</g>
<g>
	
		<rect x="687" y="740.4" transform="matrix(0.4472 0.8944 -0.8944 0.4472 1095.8589 -173.1368)" fill="#C4C4C4" width="2" height="119.2"/>
	<g>
		<polygon fill="#C4C4C4" points="643,830.8 636.9,825.6 636.4,817.5 624,832 		"/>
	</g>
	<g>
		<polygon fill="#C4C4C4" points="739.6,782.5 739.1,774.4 733,769.2 752,768 		"/>
	</g>
</g>
<g>
	<circle fill="#FFFFFF" cx="880" cy="704" r="64"/>
	<path fill="#FCBA59" d="M840,660.3h-16c-1.1,0-2-0.9-2-2s0.9-2,2-2h16c1.1,0,2,0.9,2,2S841.1,660.3,840,660.3z"/>
	<linearGradient id="SVGID_65_" gradientUnits="userSpaceOnUse" x1="824.2018" y1="753.1177" x2="935.7982" y2="659.4773">
		<stop  offset="0" style="stop-color:#FFFFFF"/>
		<stop  offset="1" style="stop-color:#FCBA59"/>
	</linearGradient>
	<path fill="url(#SVGID_65_)" d="M920,758.3h-84c-8.8,0-16-7.2-16-16s7.2-16,16-16h88c4.4,0,8-3.6,8-8s-3.6-8-8-8h-88
		c-8.8,0-16-7.2-16-16s7.2-16,16-16h88c4.4,0,8-3.6,8-8s-3.6-8-8-8h-84c-2.2,0-4-1.8-4-4s1.8-4,4-4h84c8.8,0,16,7.2,16,16
		s-7.2,16-16,16h-88c-4.4,0-8,3.6-8,8s3.6,8,8,8h88c8.8,0,16,7.2,16,16s-7.2,16-16,16h-88c-4.4,0-8,3.6-8,8s3.6,8,8,8h84
		c2.2,0,4,1.8,4,4S922.2,758.3,920,758.3z"/>
	<path fill="#FCBA59" d="M936,756.3h-16c-1.1,0-2-0.9-2-2s0.9-2,2-2h16c1.1,0,2,0.9,2,2S937.1,756.3,936,756.3z"/>
</g>
<path fill="#2762FF" d="M1296,1376.5H112c-53.2,0-96.5-43.3-96.5-96.5V128c0-53.2,43.3-96.5,96.5-96.5h1184
	c53.2,0,96.5,43.3,96.5,96.5v1152C1392.5,1333.2,1349.2,1376.5,1296,1376.5z M112,32.5c-52.7,0-95.5,42.8-95.5,95.5v1152
	c0,52.7,42.8,95.5,95.5,95.5h1184c52.7,0,95.5-42.8,95.5-95.5V128c0-52.7-42.8-95.5-95.5-95.5H112z"/>
<g>
	<g>
		<path d="M530.7,95.4h11.5c8.5,0,18,4,18,16.3c0,11.4-9.5,16.3-18,16.3h-11.5V95.4z M541.3,122.9c6,0,12.7-2.4,12.7-11.2
			c0-9.3-6.7-11.3-12.7-11.3h-4.8v22.5H541.3z"/>
		<path d="M584.9,118.7h-16.8c0.2,3.1,3.1,5.4,6.3,5.4c2.8,0,4.6-1.1,5.8-2.9l3.7,2.9c-2.2,2.9-5.3,4.4-9.5,4.4
			c-6.8,0-11.9-4.4-11.9-11.5c0-7.1,5-11.8,11.7-11.8c6.2,0,10.7,4,10.7,12C585,117.7,585,118.2,584.9,118.7z M579.4,114.8
			c0-2.9-1.6-5.3-5.2-5.3c-3.3,0-5.9,2.3-6.1,5.3H579.4z"/>
		<path d="M609.7,118.7h-16.8c0.2,3.1,3.1,5.4,6.3,5.4c2.8,0,4.6-1.1,5.8-2.9l3.7,2.9c-2.2,2.9-5.3,4.4-9.5,4.4
			c-6.8,0-11.9-4.4-11.9-11.5c0-7.1,5-11.8,11.7-11.8c6.2,0,10.7,4,10.7,12C609.7,117.7,609.7,118.2,609.7,118.7z M604.2,114.8
			c0-2.9-1.6-5.3-5.2-5.3c-3.3,0-5.9,2.3-6.1,5.3H604.2z"/>
		<path d="M618.7,105.9v3.1h0.1c1.1-1.7,3.6-3.7,7.6-3.7c6.3,0,10.7,5.1,10.7,11.6c0,6.4-4.1,11.8-10.9,11.8c-3.1,0-5.9-1.4-7.3-3.6
			h-0.1v14h-5.5v-33.1H618.7z M625.2,109.8c-4,0-6.5,3.7-6.5,7.2s2.4,7.1,6.5,7.1c4.3,0,6.3-3.7,6.3-7.2
			C631.6,113.4,629.5,109.8,625.2,109.8z"/>
		<path d="M662.7,128h-4.6V99.4h-10.4v-4h25.4v4h-10.4V128z"/>
		<path d="M677.5,101.1c-1.6,0-2.9-1.2-2.9-2.8c0-1.6,1.3-2.8,2.9-2.8s2.9,1.2,2.9,2.8C680.4,99.9,679.1,101.1,677.5,101.1z
			 M679.7,128h-4.3v-21.8h4.3V128z"/>
		<path d="M705.5,118.4h-17.3c0.1,3.7,3.3,6.6,7.1,6.6c2.9,0,5.1-1.5,6.3-3.3l3,2.4c-2.3,3-5.5,4.5-9.4,4.5
			c-6.6,0-11.5-4.6-11.5-11.5c0-6.8,4.9-11.5,11.3-11.5c6.4,0,10.5,4.4,10.5,11.3C705.6,117.4,705.6,117.9,705.5,118.4z
			 M701.2,115.2c-0.1-3.5-2.1-6.2-6.1-6.2c-3.7,0-6.6,2.8-6.9,6.2H701.2z"/>
		<path d="M709.4,106.2h4.1c0.1,1.1,0.2,2.8,0.2,3.7h0.1c1.2-2.5,3.7-4.3,6.7-4.3c0.6,0,1.2,0,1.7,0.2l-0.2,4
			c-0.6-0.1-1.3-0.2-2-0.2c-4.1,0-6.1,3.4-6.1,7V128h-4.3v-17.1C709.6,109.7,709.6,107.6,709.4,106.2z"/>
		<path d="M738,128h-3.3V95.4h19.6v2.9H738v11.3h15.2v2.9H738V128z"/>
		<path d="M760,100.4c-1.1,0-2.2-0.9-2.2-2.2s1.1-2.2,2.2-2.2c1.1,0,2.2,0.9,2.2,2.2S761.1,100.4,760,100.4z M761.5,128h-3.1v-21.5
			h3.1V128z"/>
		<path d="M770.7,106.5c0.1,1.2,0.2,2.8,0.2,3.7h0.1c1.2-2.5,4.3-4.2,7.4-4.2c5.5,0,8.2,3.5,8.2,8.9V128h-3.1v-11.9
			c0-4.5-1.3-7.5-5.8-7.5c-3.3,0-6.5,2.7-6.5,8.4v11h-3.1v-16.8c0-1.2,0-3.3-0.2-4.7H770.7z"/>
		<path d="M806.1,114.1c0-3.7-2-5.6-5.8-5.6c-2.5,0-4.9,1-6.4,2.5l-1.7-2.1c1.7-1.7,4.8-3.1,8.5-3.1c4.6,0,8.4,2.6,8.4,7.8v9.4
			c0,1.7,0.1,3.6,0.4,4.8h-2.8c-0.2-1.1-0.3-2.3-0.3-3.5h-0.1c-2,2.9-4.4,4-7.8,4c-3.3,0-7.5-1.7-7.5-6.5c0-6.6,7.3-7.2,15.2-7.2
			V114.1z M805.2,117.2c-5.1,0-11,0.6-11,4.6c0,3.1,2.6,4.1,5.1,4.1c4.4,0,6.9-3.3,6.9-7.1v-1.6H805.2z"/>
		<path d="M817.9,106.5c0.1,1.2,0.2,2.8,0.2,3.7h0.1c1.2-2.5,4.3-4.2,7.4-4.2c5.5,0,8.2,3.5,8.2,8.9V128h-3.1v-11.9
			c0-4.5-1.3-7.5-5.8-7.5c-3.3,0-6.5,2.7-6.5,8.4v11h-3.1v-16.8c0-1.2,0-3.3-0.2-4.7H817.9z"/>
		<path d="M855.3,111.4c-1-1.7-3.2-2.9-5.5-2.9c-5,0-8.2,3.8-8.2,8.7c0,4.9,3.2,8.6,8.2,8.6c2.7,0,4.6-1.2,5.8-2.8l2.3,1.7
			c-1.8,2.3-4.5,3.7-8.2,3.7c-6.9,0-11.5-4.8-11.5-11.3c0-6.5,4.6-11.3,11.5-11.3c2.9,0,6.2,1.2,8,3.7L855.3,111.4z"/>
		<path d="M880.3,118.1h-17.8c0.1,4.3,3.5,7.8,7.9,7.8c3.2,0,5.7-1.8,6.9-3.7l2.3,1.8c-2.5,3.2-5.7,4.6-9.2,4.6
			c-6.4,0-11.1-4.8-11.1-11.3c0-6.5,4.7-11.3,10.9-11.3c6.8,0,10.3,4.8,10.3,10.7C880.4,117,880.4,117.5,880.3,118.1z M877.2,115.6
			c-0.2-4-2.7-7-7.1-7c-4.2,0-7.3,3.4-7.5,7H877.2z"/>
	</g>
</g>
</svg>
