<?xml version="1.0" encoding="utf-8"?>
<!-- Generator: Adobe Illustrator 18.0.0, SVG Export Plug-In . SVG Version: 6.00 Build 0)  -->
<!DOCTYPE svg PUBLIC "-//W3C//DTD SVG 1.1//EN" "http://www.w3.org/Graphics/SVG/1.1/DTD/svg11.dtd">
<svg version="1.1" id="Слой_1" xmlns="http://www.w3.org/2000/svg" xmlns:xlink="http://www.w3.org/1999/xlink" x="0px" y="0px"
	 viewBox="0 0 128 128" enable-background="new 0 0 128 128" xml:space="preserve">
<g>
	<g>
		<circle fill="#FFFFFF" cx="64" cy="64" r="64"/>
		<rect x="31" y="24" width="2" height="80"/>
		<linearGradient id="SVGID_1_" gradientUnits="userSpaceOnUse" x1="-1.987155e-05" y1="40" x2="32" y2="40">
			<stop  offset="0" style="stop-color:#FCBA59"/>
			<stop  offset="1" style="stop-color:#FFFFFF"/>
		</linearGradient>
		<circle fill="url(#SVGID_1_)" cx="16" cy="40" r="16"/>
		<linearGradient id="SVGID_2_" gradientUnits="userSpaceOnUse" x1="16" y1="24" x2="48" y2="24">
			<stop  offset="0" style="stop-color:#FCBA59"/>
			<stop  offset="1" style="stop-color:#FFFFFF"/>
		</linearGradient>
		<circle fill="url(#SVGID_2_)" cx="32" cy="24" r="16"/>
		<linearGradient id="SVGID_3_" gradientUnits="userSpaceOnUse" x1="32" y1="40" x2="64" y2="40">
			<stop  offset="0" style="stop-color:#FCBA59"/>
			<stop  offset="1" style="stop-color:#FFFFFF"/>
		</linearGradient>
		<circle fill="url(#SVGID_3_)" cx="48" cy="40" r="16"/>
		<path d="M32,81h-1v-1c0-9.4,7.6-17,17-17h1v1C49,73.4,41.4,81,32,81z M47,65C39.5,65.5,33.5,71.5,33,79C40.5,78.5,46.5,72.5,47,65
			z"/>
		<rect x="95" y="40" width="2" height="80"/>
		<linearGradient id="SVGID_4_" gradientUnits="userSpaceOnUse" x1="64" y1="56" x2="96" y2="56">
			<stop  offset="0" style="stop-color:#FCBA59"/>
			<stop  offset="1" style="stop-color:#FFFFFF"/>
		</linearGradient>
		<circle fill="url(#SVGID_4_)" cx="80" cy="56" r="16"/>
		<linearGradient id="SVGID_5_" gradientUnits="userSpaceOnUse" x1="80" y1="40" x2="112" y2="40">
			<stop  offset="0" style="stop-color:#FCBA59"/>
			<stop  offset="1" style="stop-color:#FFFFFF"/>
		</linearGradient>
		<circle fill="url(#SVGID_5_)" cx="96" cy="40" r="16"/>
		<linearGradient id="SVGID_6_" gradientUnits="userSpaceOnUse" x1="96" y1="56" x2="128" y2="56">
			<stop  offset="0" style="stop-color:#FCBA59"/>
			<stop  offset="1" style="stop-color:#FFFFFF"/>
		</linearGradient>
		<circle fill="url(#SVGID_6_)" cx="112" cy="56" r="16"/>
		<path d="M96,97h-1v-1c0-9.4,7.6-17,17-17h1v1C113,89.4,105.4,97,96,97z M111,81C103.5,81.5,97.5,87.5,97,95
			C104.5,94.5,110.5,88.5,111,81z"/>
	</g>
</g>
</svg>
