<?xml version="1.0" encoding="UTF-8"?>
<svg width="158px" height="39px" viewBox="0 0 158 39" version="1.1" xmlns="http://www.w3.org/2000/svg" xmlns:xlink="http://www.w3.org/1999/xlink">
    <!-- Generator: Sketch 52.5 (67469) - http://www.bohemiancoding.com/sketch -->
    <title>Group 5</title>
    <desc>Created with Sketch.</desc>
    <g id="Page-1" stroke="none" stroke-width="1" fill="none" fill-rule="evenodd">
        <g id="13.4-DTF-L---1200px" transform="translate(-1001.000000, -319.000000)">
            <g id="Group">
                <g id="Group-5" transform="translate(1000.000000, 319.000000)">
                    <polygon id="Fill-4" fill="#174489" points="1.10034171 38.7941594 58.5928292 38.7941594 58.5928292 0.178125694 1.10034171 0.178125694"></polygon>
                    <polyline id="Fill-5" fill="#FFF101" points="28.6451957 8.40685143 29.8585058 7.51480258 31.0714491 8.40685143 30.6100392 6.96383122 31.8420551 6.07252143 30.3232168 6.07252143 29.8585058 4.61250278 29.393428 6.07399956 27.8753233 6.07252143 29.1069724 6.96383122 28.6451957 8.40685143"></polyline>
                    <polyline id="Fill-6" fill="#FFF101" points="22.4106596 10.2559867 23.6239697 9.36393782 24.8361795 10.2559867 24.3755031 8.813336 25.6071522 7.92165667 24.0879471 7.92165667 23.6232361 6.46015989 23.1585251 7.9231348 21.6400536 7.92165667 22.8717027 8.813336 22.4106596 10.2559867"></polyline>
                    <polyline id="Fill-7" fill="#FFF101" points="18.8543552 11.2640684 18.3896442 12.7274128 16.8719062 12.7255652 18.1031886 13.617614 17.6414118 15.0602647 18.8543552 14.1682159 20.0680321 15.0602647 19.6058885 13.617614 20.8375377 12.7255652 19.3194329 12.7255652 18.8543552 11.2640684"></polyline>
                    <polyline id="Fill-8" fill="#FFF101" points="17.3883332 20.4502501 18.600543 21.3422989 18.1402334 19.9000178 19.371149 19.0075994 17.8530442 19.0075994 17.3883332 17.5461026 16.9236222 19.0109252 15.4047839 19.0075994 16.6367998 19.9000178 16.1753899 21.3422989 17.3883332 20.4502501"></polyline>
                    <polyline id="Fill-9" fill="#FFF101" points="19.3194329 25.2896336 18.8543552 23.8281368 18.3896442 25.2911117 16.8719062 25.2896336 18.1031886 26.1816824 17.6414118 27.6239636 18.8543552 26.7304366 20.0680321 27.6239636 19.6058885 26.1816824 20.8375377 25.2896336 19.3194329 25.2896336"></polyline>
                    <polyline id="Fill-10" fill="#FFF101" points="24.0875803 29.7225325 23.6228693 28.2625139 23.1588919 29.7243802 21.6400536 29.7225325 22.871336 30.6145814 22.4102928 32.0572321 23.6236029 31.1651832 24.8358127 32.0572321 24.3751363 30.6145814 25.6064187 29.7225325 24.0875803 29.7225325"></polyline>
                    <polyline id="Fill-11" fill="#FFF101" points="30.32285 31.5716678 29.858139 30.110171 29.3937948 31.5735154 27.8753233 31.5716678 29.1066056 32.4637166 28.6459292 33.9063673 29.8588726 33.0143185 31.0714491 33.9063673 30.6096724 32.4637166 31.8416883 31.5716678 30.32285 31.5716678"></polyline>
                    <polyline id="Fill-12" fill="#FFF101" points="36.5573861 29.7225325 36.0934087 28.2625139 35.6279642 29.7243802 34.1105929 29.7225325 35.340775 30.6145814 34.8804654 32.0572321 36.0934087 31.1651832 37.3067188 32.0572321 36.8442085 30.6145814 38.0762245 29.7225325 36.5573861 29.7225325"></polyline>
                    <polyline id="Fill-13" fill="#FFF101" points="40.9605868 25.2896336 40.4947755 23.8281368 40.0289642 25.2911117 38.5119598 25.2896336 39.7443425 26.1816824 39.2818322 27.6239636 40.4947755 26.7304366 41.7080856 27.6239636 41.2455754 26.1816824 42.4779581 25.2896336 40.9605868 25.2896336"></polyline>
                    <polyline id="Fill-14" fill="#FFF101" points="44.3129613 19.0072298 42.7941229 19.0072298 42.3286784 17.5461026 41.864701 19.0090775 40.3458626 19.0072298 41.5778785 19.8996482 41.1168354 21.3419294 42.3286784 20.4484024 43.5416217 21.3419294 43.0809453 19.8996482 44.3129613 19.0072298"></polyline>
                    <polyline id="Fill-15" fill="#FFF101" points="39.2818322 15.0587866 40.4947755 14.1667377 41.7080856 15.0587866 41.2455754 13.6165054 42.4779581 12.7259347 40.9605868 12.7259347 40.4947755 11.2640684 40.0289642 12.7274128 38.5119598 12.7259347 39.7443425 13.6165054 39.2818322 15.0587866"></polyline>
                    <polyline id="Fill-16" fill="#FFF101" points="36.0930419 6.46015989 35.6290645 7.9231348 34.1105929 7.92017855 35.3411417 8.81370553 34.8800986 10.2559867 36.0948758 9.36245969 37.306352 10.2559867 36.8456756 8.81370553 38.0776916 7.92017855 36.5573861 7.92017855 36.0930419 6.46015989"></polyline>
                    <g id="Group-18" transform="translate(72.743132, 6.363158)" fill="#FFFFFF">
                        <polyline id="Fill-17" points="0.19026742 7.45455741 0.19026742 1.63517655 4.36679776 1.63517655 4.36679776 2.32176593 0.954638127 2.32176593 0.954638127 4.10438552 4.15003045 4.10438552 4.15003045 4.78691006 0.954638127 4.78691006 0.954638127 6.76796802 4.50067267 6.76796802 4.50067267 7.45455741 0.19026742 7.45455741"></polyline>
                        <path d="M9.47054938,1.63517655 L10.2349201,1.63517655 L10.2349201,4.99754297 C10.2349201,5.58251121 10.1692664,6.04664268 10.0379589,6.39067644 C9.90665148,6.73471019 9.66971123,7.01481501 9.3267714,7.23025183 C8.98419835,7.44605818 8.53415859,7.55396136 7.97738569,7.55396136 C7.43601757,7.55396136 6.9936802,7.45973085 6.64964002,7.27200888 C6.30523307,7.08428692 6.05985687,6.81231179 5.91277786,6.4560835 C5.76569885,6.10022474 5.69197596,5.61429092 5.69197596,4.99754297 L5.69197596,1.63517655 L6.45634666,1.63517655 L6.45634666,4.99347813 C6.45634666,5.49899711 6.5029278,5.87148479 6.59645684,6.11094115 C6.68961911,6.35039751 6.84990222,6.53516322 7.07693939,6.66449922 C7.30397656,6.79420475 7.58199623,6.85924228 7.91026484,6.85924228 C8.47253945,6.85924228 8.87306384,6.73064535 9.11220477,6.47419054 C9.35097892,6.2173662 9.47054938,5.72367222 9.47054938,4.99347813 L9.47054938,1.63517655" id="Fill-18"></path>
                        <path d="M12.3248358,4.20341994 L13.9680127,4.20341994 C14.3171878,4.20341994 14.5904393,4.16720586 14.7874005,4.09440817 C14.9843617,4.02161048 15.1340082,3.90520808 15.2367067,3.74483145 C15.3390385,3.58482434 15.3903878,3.41114457 15.3903878,3.22305308 C15.3903878,2.94775217 15.2909902,2.72159893 15.0925619,2.54422385 C14.8945004,2.36684877 14.5809031,2.27816123 14.1528701,2.27816123 L12.3248358,2.27816123 L12.3248358,4.20341994 Z M11.5604651,7.45455741 L11.5604651,1.63517655 L14.1216938,1.63517655 C14.6362869,1.63517655 15.0276418,1.68765001 15.2957584,1.79185787 C15.5635082,1.89643527 15.7777081,2.08120098 15.9379912,2.34578548 C16.0979075,2.61036998 16.1782324,2.90303886 16.1782324,3.22305308 C16.1782324,3.63581968 16.0454579,3.98391828 15.7802755,4.26697935 C15.5147264,4.55040995 15.1050325,4.73000222 14.550827,4.80686476 C14.7532899,4.90479058 14.906971,5.00123829 15.0118702,5.09657739 C15.2352396,5.30314546 15.4465052,5.56107839 15.6464006,5.87074573 L16.6510126,7.45455741 L15.6896807,7.45455741 L14.92531,6.24397246 C14.7019406,5.89439574 14.5181836,5.62722452 14.373672,5.44208927 C14.2291605,5.25695403 14.1000537,5.1272485 13.9856182,5.05297268 C13.8711827,4.9790664 13.75528,4.927332 13.6368099,4.89813902 C13.5502497,4.87966245 13.4083056,4.87042416 13.2113444,4.87042416 L12.3248358,4.87042416 L12.3248358,7.45455741 L11.5604651,7.45455741 Z" id="Fill-19"></path>
                        <path d="M17.8500183,4.73517566 C17.8500183,5.4365463 18.0370764,5.98899578 18.4115593,6.3925241 C18.7860423,6.79605241 19.2551546,6.99781657 19.8199967,6.99781657 C20.3954754,6.99781657 20.8686224,6.79420475 21.2405378,6.38661159 C21.6120866,5.97901843 21.7980443,5.40107129 21.7980443,4.65203109 C21.7980443,4.17829181 21.7184529,3.76478614 21.5596369,3.4115141 C21.4004542,3.05824206 21.1682821,2.78404974 20.8623871,2.58967622 C20.5561253,2.39530269 20.2128187,2.29811592 19.8321005,2.29811592 C19.2907323,2.29811592 18.8252878,2.48509882 18.4350333,2.85980369 C18.0451455,3.23413902 17.8500183,3.85938619 17.8500183,4.73517566 Z M17.0621736,4.72335066 C17.0621736,3.75739551 17.3196536,3.00133422 17.8342467,2.45479725 C18.3492066,1.90826027 19.013813,1.63517655 19.8280659,1.63517655 C20.360998,1.63517655 20.8418474,1.76340395 21.2702471,2.02022829 C21.6979132,2.2766831 22.0247147,2.63475905 22.2491844,3.09371708 C22.4736541,3.55304464 22.585889,4.07371441 22.585889,4.6557264 C22.585889,5.24623762 22.4677856,5.77392849 22.2315789,6.23990762 C21.9950055,6.70551721 21.6601348,7.05805019 21.2266002,7.29750655 C20.7934323,7.53733245 20.3257871,7.65706063 19.8240313,7.65706063 C19.2804625,7.65706063 18.7944782,7.52476838 18.3660785,7.25981435 C17.9380456,6.99522985 17.6138116,6.63419765 17.3930097,6.17634821 C17.1725746,5.71849878 17.0621736,5.23404308 17.0621736,4.72335066 Z" id="Fill-20"></path>
                        <path d="M24.4285946,4.40185832 L25.9217583,4.40185832 C26.4154449,4.40185832 26.7660871,4.30947546 26.9736849,4.12397069 C27.1812827,3.93883544 27.2850816,3.67831579 27.2850816,3.34204219 C27.2850816,3.09852099 27.2241961,2.89010526 27.1016913,2.71679503 C26.9795534,2.54348479 26.8189035,2.42893005 26.6193749,2.37350033 C26.4906349,2.33913391 26.2529611,2.32176593 25.9059867,2.32176593 L24.4285946,2.32176593 L24.4285946,4.40185832 Z M23.6642239,7.45455741 L23.6642239,1.63517655 L25.8429004,1.63517655 C26.2265529,1.63517655 26.5192438,1.65365312 26.7217067,1.69060626 C27.0052281,1.73827582 27.2429019,1.82918055 27.4347281,1.96258139 C27.6265543,2.09635177 27.7806022,2.2837042 27.897972,2.52426915 C28.014975,2.76520364 28.0729263,3.02978814 28.0729263,3.31839218 C28.0729263,3.81319476 27.9166778,4.23187386 27.6045475,4.57479902 C27.2916837,4.91735465 26.7268416,5.08881723 25.9100213,5.08881723 L24.4285946,5.08881723 L24.4285946,7.45455741 L23.6642239,7.45455741 Z" id="Fill-21"></path>
                        <path d="M31.4069617,1.34029047 L32.1474916,1.34029047 L32.1474916,0.526582278 L31.4069617,0.526582278 L31.4069617,1.34029047 Z M30.0990222,5.1272485 L32.0568968,5.1272485 L31.4542764,3.51572196 C31.2705193,3.02609283 31.1337101,2.62404264 31.0445825,2.30883233 C30.9712264,2.68205907 30.8670607,3.05269909 30.7331858,3.42038286 L30.0990222,5.1272485 Z M29.9372719,1.34029047 L30.6781687,1.34029047 L30.6781687,0.526582278 L29.9372719,0.526582278 L29.9372719,1.34029047 Z M28.4323713,7.51700822 L30.6506601,1.69762736 L31.4740825,1.69762736 L33.8379833,7.51700822 L32.9672462,7.51700822 L32.2934703,5.75434333 L29.8782203,5.75434333 L29.2440567,7.51700822 L28.4323713,7.51700822 Z" id="Fill-22"></path>
                        <polygon id="Fill-23" points="34.6676409 7.45455741 35.4320116 7.45455741 35.4320116 1.63517655 34.6676409 1.63517655"></polygon>
                        <path d="M36.5015438,5.68413236 L37.2226344,5.62094248 C37.256745,5.91213324 37.3363363,6.15085054 37.4610417,6.33709438 C37.5857471,6.52370775 37.7797741,6.6748461 38.0423889,6.78977038 C38.3046371,6.90506418 38.6002622,6.96234155 38.9288976,6.96234155 C39.2201214,6.96234155 39.4779681,6.91873684 39.7009707,6.83152743 C39.9239733,6.74431801 40.0904916,6.62458983 40.1994255,6.47234288 C40.3083593,6.32009594 40.3630096,6.15417633 40.3630096,5.97421452 C40.3630096,5.79129647 40.3101932,5.63202843 40.205294,5.49567133 C40.1003947,5.35931423 39.9269075,5.24512903 39.6851991,5.15237664 C39.5300509,5.09140395 39.1874779,4.99717344 38.6567464,4.8685765 C38.1263817,4.7403491 37.7544662,4.61914279 37.5417335,4.50532712 C37.2659145,4.35973173 37.0605174,4.1794004 36.9251753,3.96359405 C36.7898333,3.7477877 36.7223457,3.50648368 36.7223457,3.23894293 C36.7223457,2.94516545 36.8052381,2.67097313 36.9706561,2.41525738 C37.1360742,2.15991117 37.3777826,1.9662767 37.6954145,1.83361492 C38.0130465,1.70169221 38.366623,1.63517655 38.7554104,1.63517655 C39.1834433,1.63517655 39.5612273,1.70464846 39.8880288,1.84359227 C40.215197,1.98253609 40.4668085,2.1872565 40.6424964,2.45701443 C40.8185511,2.72677237 40.9131805,3.03274439 40.9263846,3.3738219 L40.193557,3.42962114 C40.1539447,3.06193738 40.0208033,2.78404974 39.7933994,2.59595825 C39.5663622,2.40823629 39.230758,2.31400577 38.7869535,2.31400577 C38.3244432,2.31400577 37.9877386,2.39936753 37.7761063,2.57009105 C37.5648406,2.74081457 37.4592078,2.94664357 37.4592078,3.18757806 C37.4592078,3.39636331 37.5340311,3.56856496 37.6836775,3.70344393 C37.8307566,3.8383229 38.2147758,3.97689718 38.8364689,4.11842771 C39.4574284,4.25995825 39.8836274,4.38375128 40.1146992,4.48943726 C40.4510369,4.64574906 40.6993474,4.84344837 40.8592637,5.08290473 C41.0195468,5.32236109 41.099505,5.59840107 41.099505,5.91065512 C41.099505,6.22032245 41.0114777,6.51188274 40.8357898,6.78570553 C40.6597351,7.05989785 40.4070233,7.27274795 40.0769208,7.42499489 C39.7475518,7.57687231 39.3763699,7.65336531 38.9641085,7.65336531 C38.4414462,7.65336531 38.0035102,7.57650278 37.6499337,7.4227777 C37.296724,7.26942216 37.0194379,7.03846502 36.8191757,6.73027582 C36.6178132,6.42208661 36.5121804,6.07324895 36.5015438,5.68413236" id="Fill-24"></path>
                        <path d="M45.9780533,5.51340884 L46.742424,5.7081519 C46.5825077,6.3407897 46.2942182,6.8230282 45.8779222,7.15486742 C45.4612595,7.48707617 44.9525349,7.65336531 44.3510147,7.65336531 C43.7285881,7.65336531 43.2224309,7.52550744 42.8318096,7.27016123 C42.4422887,7.01481501 42.1451964,6.64491406 41.9416332,6.16045836 C41.73807,5.6763722 41.6364717,5.15644148 41.6364717,4.60066622 C41.6364717,3.99463469 41.7512741,3.46583522 41.9808787,3.01463735 C42.2108501,2.56380902 42.5380184,2.22088386 42.9623835,1.98660093 C43.3863818,1.75231801 43.8532935,1.63517655 44.3627517,1.63517655 C44.9404311,1.63517655 45.4267821,1.78372818 45.8207045,2.07972285 C46.2146268,2.37645658 46.4889787,2.79328803 46.6441269,3.33021719 L45.8914931,3.5090704 C45.7576182,3.08558739 45.5632245,2.77739818 45.308312,2.58413324 C45.0537663,2.39086831 44.7332001,2.29442061 44.3469801,2.29442061 C43.9031757,2.29442061 43.5323605,2.40158472 43.2338011,2.61591295 C42.9359753,2.83024117 42.7261768,3.11810615 42.605506,3.47913835 C42.4848352,3.84054008 42.4243164,4.21302776 42.4243164,4.59660138 C42.4243164,5.09140395 42.4958386,5.52338619 42.6392498,5.89254808 C42.7822942,6.26170997 43.00493,6.53774994 43.3067905,6.72029847 C43.6090176,6.90284699 43.9358191,6.99412125 44.2879285,6.99412125 C44.7159614,6.99412125 45.0783406,6.86995869 45.3754329,6.62126405 C45.6725251,6.3725694 45.8731541,6.00340751 45.9780533,5.51340884" id="Fill-25"></path>
                        <polyline id="Fill-26" points="47.8717414 7.45455741 47.8717414 1.63517655 48.6361121 1.63517655 48.6361121 4.02493626 51.6385779 4.02493626 51.6385779 1.63517655 52.4029486 1.63517655 52.4029486 7.45455741 51.6385779 7.45455741 51.6385779 4.71152565 48.6361121 4.71152565 48.6361121 7.45455741 47.8717414 7.45455741"></polyline>
                        <polyline id="Fill-27" points="53.7402305 7.45455741 53.7402305 1.63517655 57.9163941 1.63517655 57.9163941 2.32176593 54.5046012 2.32176593 54.5046012 4.10438552 57.6996268 4.10438552 57.6996268 4.78691006 54.5046012 4.78691006 54.5046012 6.76796802 58.050269 6.76796802 58.050269 7.45455741 53.7402305 7.45455741"></polyline>
                        <path d="M65.2211959,1.63517655 L65.9855666,1.63517655 L65.9855666,4.99754297 C65.9855666,5.58251121 65.9199129,6.04664268 65.7886054,6.39067644 C65.6569312,6.73471019 65.4203578,7.01481501 65.0770511,7.23025183 C64.7348449,7.44605818 64.2848051,7.55396136 63.7276654,7.55396136 C63.1866641,7.55396136 62.7443267,7.45973085 62.3999198,7.27200888 C62.0558796,7.08428692 61.8105034,6.81231179 61.6630576,6.4560835 C61.5159786,6.10022474 61.4426225,5.61429092 61.4426225,4.99754297 L61.4426225,1.63517655 L62.2069932,1.63517655 L62.2069932,4.99347813 C62.2069932,5.49899711 62.2535743,5.87148479 62.3471034,6.11094115 C62.4402656,6.35039751 62.600182,6.53516322 62.8275859,6.66449922 C63.0546231,6.79420475 63.332276,6.85924228 63.6609114,6.85924228 C64.2228192,6.85924228 64.6237104,6.73064535 64.8624845,6.47419054 C65.1016254,6.2173662 65.2211959,5.72367222 65.2211959,4.99347813 L65.2211959,1.63517655" id="Fill-28"></path>
                        <polyline id="Fill-29" points="66.944331 7.45455741 66.944331 1.63517655 67.7285079 1.63517655 70.76215 6.20406307 70.76215 1.63517655 71.4949775 1.63517655 71.4949775 7.45455741 70.7108007 7.45455741 67.6771586 2.88160604 67.6771586 7.45455741 66.944331 7.45455741"></polyline>
                        <polygon id="Fill-30" points="73.1796007 7.45455741 73.9439714 7.45455741 73.9439714 1.63517655 73.1796007 1.63517655"></polygon>
                        <path d="M75.8013482,4.73517566 C75.8013482,5.4365463 75.9887731,5.98899578 76.3625225,6.3925241 C76.7373722,6.79605241 77.2064846,6.99781657 77.7713266,6.99781657 C78.3464386,6.99781657 78.8203191,6.79420475 79.191501,6.38661159 C79.5634165,5.97901843 79.7493743,5.40107129 79.7493743,4.65203109 C79.7493743,4.17829181 79.6697829,3.76478614 79.5109669,3.4115141 C79.3521509,3.05824206 79.119612,2.78404974 78.8133502,2.58967622 C78.5074552,2.39530269 78.1637819,2.29811592 77.7830636,2.29811592 C77.2420623,2.29811592 76.7766177,2.48509882 76.3863632,2.85980369 C75.9964755,3.23413902 75.8013482,3.85938619 75.8013482,4.73517566 Z M75.0135035,4.72335066 C75.0135035,3.75739551 75.2709835,3.00133422 75.7855766,2.45479725 C76.3001698,1.90826027 76.965143,1.63517655 77.7793958,1.63517655 C78.3126948,1.63517655 78.7931773,1.76340395 79.2212102,2.02022829 C79.6492432,2.2766831 79.9760446,2.63475905 80.2001476,3.09371708 C80.4249841,3.55304464 80.5372189,4.07371441 80.5372189,4.6557264 C80.5372189,5.24623762 80.4191156,5.77392849 80.1825421,6.23990762 C79.9463354,6.70551721 79.6114648,7.05805019 79.1779301,7.29750655 C78.7443955,7.53733245 78.277117,7.65706063 77.7753612,7.65706063 C77.2314256,7.65706063 76.7454414,7.52476838 76.3174085,7.25981435 C75.8893755,6.99522985 75.5651415,6.63419765 75.3443396,6.17634821 C75.1235377,5.71849878 75.0135035,5.23404308 75.0135035,4.72335066 Z" id="Fill-31"></path>
                        <polyline id="Fill-32" points="81.6155538 7.45455741 81.6155538 1.63517655 82.3997306 1.63517655 85.4333727 6.20406307 85.4333727 1.63517655 86.1662003 1.63517655 86.1662003 7.45455741 85.3823902 7.45455741 82.3483814 2.88160604 82.3483814 7.45455741 81.6155538 7.45455741"></polyline>
                        <polyline id="Fill-33" points="0.19026742 16.5332054 0.19026742 11.2429936 3.98717987 11.2429936 3.98717987 11.8671321 0.885316599 11.8671321 0.885316599 13.4875274 3.79021871 13.4875274 3.79021871 14.1079707 0.885316599 14.1079707 0.885316599 15.9090668 4.10895102 15.9090668 4.10895102 16.5332054 0.19026742 16.5332054"></polyline>
                        <path d="M7.46572679,16.5535296 L7.46572679,15.9907333 C7.16973487,16.4234546 6.76737659,16.64 6.25865194,16.64 C6.03418223,16.64 5.82475052,16.5967648 5.62999004,16.5102945 C5.43559634,16.4234546 5.2910848,16.3148123 5.19682219,16.1836287 C5.1021928,16.052445 5.0361723,15.8916989 4.99802712,15.7017597 C4.97161892,15.5742714 4.95841482,15.3721377 4.95841482,15.0957282 L4.95841482,12.7211193 L5.60321506,12.7211193 L5.60321506,14.846664 C5.60321506,15.1858938 5.61641916,15.4142643 5.64246058,15.5321448 C5.68317323,15.7032378 5.76936666,15.8370082 5.9006741,15.9345645 C6.03198155,16.0321208 6.19409856,16.080899 6.3877587,16.080899 C6.58105206,16.080899 6.76260844,16.0306427 6.93206106,15.9308692 C7.10188047,15.8310957 7.22181771,15.6951082 7.29223958,15.523276 C7.36229467,15.3514439 7.39787239,15.1016407 7.39787239,14.7746054 L7.39787239,12.7211193 L8.04230585,12.7211193 L8.04230585,16.5535296 L7.46572679,16.5535296" id="Fill-34"></path>
                        <path d="M8.99300108,16.2704686 L8.99300108,12.4380582 L9.57324794,12.4380582 L9.57324794,13.0189616 C9.72142729,12.7469865 9.85786966,12.5677637 9.98330862,12.4812934 C10.1087476,12.394823 10.2466571,12.3515878 10.3970371,12.3515878 C10.6141712,12.3515878 10.8353399,12.4210597 11.0598096,12.5607426 L10.8375406,13.1634484 C10.6798249,13.0695874 10.5224761,13.0226569 10.3647604,13.0226569 C10.2239167,13.0226569 10.0973774,13.0655225 9.98514252,13.1508843 C9.87290767,13.2362461 9.7929495,13.3544961 9.74526803,13.5063735 C9.67337904,13.7373307 9.63780132,13.9897206 9.63780132,14.2639129 L9.63780132,16.2704686 L8.99300108,16.2704686" id="Fill-35"></path>
                        <path d="M11.856457,14.3540786 C11.856457,14.8451859 11.9624566,15.2125001 12.1751893,15.4567604 C12.387922,15.7006511 12.6553051,15.822966 12.9777052,15.822966 C13.2975378,15.822966 13.5638205,15.7002816 13.7761865,15.4549127 C13.9889192,15.2095439 14.0949188,14.8355781 14.0949188,14.3326458 C14.0949188,13.858537 13.9881857,13.4993524 13.7743526,13.2554617 C13.5608863,13.0112014 13.2949704,12.8892561 12.9777052,12.8892561 C12.6553051,12.8892561 12.387922,13.0104624 12.1751893,13.253614 C11.9624566,13.4967657 11.856457,13.8633409 11.856457,14.3540786 Z M11.1936845,14.3540786 C11.1936845,13.6445783 11.3895453,13.1187351 11.781267,12.777288 C12.1084352,12.4934879 12.5071257,12.3515878 12.9777052,12.3515878 C13.5003675,12.3515878 13.9280336,12.524159 14.2599701,12.8693014 C14.5915397,13.2144437 14.7576913,13.6915088 14.7576913,14.300127 C14.7576913,14.7930819 14.6843352,15.1810899 14.5372562,15.4637815 C14.3905439,15.746473 14.1770776,15.9659747 13.8961237,16.122656 C13.6155366,16.2789678 13.3092748,16.3569389 12.9777052,16.3569389 C12.4451398,16.3569389 12.0145394,16.1851068 11.6862708,15.8410731 C11.3580022,15.4970393 11.1936845,15.0014977 11.1936845,14.3540786 Z" id="Fill-36"></path>
                        <path d="M16.1785992,14.375881 C16.1785992,14.8688359 16.27763,15.2335634 16.4760583,15.4693245 C16.6741198,15.7050855 16.914361,15.822966 17.1960485,15.822966 C17.4825041,15.822966 17.7278803,15.7006511 17.9321771,15.4567604 C18.1361071,15.2125001 18.2384389,14.8340999 18.2384389,14.3219294 C18.2384389,13.8334088 18.1386746,13.4679423 17.9391459,13.2247906 C17.7399841,12.9816389 17.5015767,12.8600631 17.2246574,12.8600631 C16.9499388,12.8600631 16.70713,12.9897686 16.4958644,13.2480711 C16.284232,13.5067431 16.1785992,13.882926 16.1785992,14.375881 Z M15.5950513,17.739356 L15.5950513,12.4380582 L16.182267,12.4380582 L16.182267,12.9361865 C16.3209101,12.741074 16.4771586,12.595109 16.6513794,12.4975527 C16.8259669,12.3999964 17.0372325,12.3515878 17.285543,12.3515878 C17.6101438,12.3515878 17.8965994,12.435841 18.1452766,12.6039778 C18.3935871,12.7724841 18.5810119,13.0100928 18.7075512,13.3168039 C18.8340905,13.623515 18.8971768,13.9597886 18.8971768,14.3252552 C18.8971768,14.717328 18.8274885,15.0706 18.6877451,15.3847018 C18.5480017,15.6984339 18.345172,15.9389989 18.0788893,16.1063966 C17.8126066,16.2734248 17.5327531,16.3569389 17.2389618,16.3569389 C17.0240284,16.3569389 16.8311018,16.3114866 16.6605489,16.2198428 C16.4899959,16.1285685 16.349519,16.0129052 16.2394848,15.8735918 L16.2394848,17.739356 L15.5950513,17.739356 Z" id="Fill-37"></path>
                        <path d="M21.7140516,11.9827955 L22.3874607,11.9827955 L22.3874607,11.2429936 L21.7140516,11.2429936 L21.7140516,11.9827955 Z M20.3782367,11.9827955 L21.0516459,11.9827955 L21.0516459,11.2429936 L20.3782367,11.2429936 L20.3782367,11.9827955 Z M22.276693,14.6423131 C22.042687,14.7383913 21.6916779,14.8204273 21.2236659,14.887682 C20.9584836,14.9261133 20.7710587,14.9693484 20.6610245,15.0177571 C20.5513572,15.0657961 20.4666308,15.1360071 20.4068456,15.2287595 C20.3470604,15.3211423 20.3173512,15.4242416 20.3173512,15.5373182 C20.3173512,15.7106285 20.3822713,15.8547457 20.5124784,15.9704091 C20.6426855,16.0857029 20.8330446,16.1433498 21.0839225,16.1433498 C21.332233,16.1433498 21.5530349,16.0886591 21.7463283,15.9792778 C21.9399884,15.8698965 22.0819325,15.7198668 22.1725273,15.5299276 C22.2422156,15.3832236 22.276693,15.1666782 22.276693,14.8802914 L22.276693,14.6423131 Z M22.3302429,16.0930935 C22.0914688,16.2974444 21.8614974,16.4419312 21.6406955,16.5261843 C21.4198935,16.6104375 21.1829533,16.6521945 20.9298747,16.6521945 C20.5121116,16.6521945 20.1908119,16.5494648 19.9663422,16.3436358 C19.7418724,16.1381763 19.6296376,15.87507 19.6296376,15.5554253 C19.6296376,15.3677033 19.6721841,15.1962407 19.7569104,15.0410375 C19.8416368,14.8858343 19.9524045,14.7613022 20.0899472,14.6674413 C20.2271231,14.5735803 20.3819045,14.5026302 20.5535578,14.4545912 C20.6804639,14.4209638 20.8711898,14.388445 21.1268359,14.3570349 C21.6472975,14.2945841 22.0305832,14.2199387 22.276693,14.1334684 C22.2788936,14.0444113 22.2803608,13.987873 22.2803608,13.9638534 C22.2803608,13.6992689 22.2191084,13.5126556 22.0973373,13.4043829 C21.9326528,13.2576789 21.6880101,13.1845117 21.3630426,13.1845117 C21.0600818,13.1845117 20.8359789,13.2380937 20.6914673,13.3448883 C20.5469558,13.4520524 20.4402226,13.6412525 20.3709011,13.9132276 L19.7407721,13.8267573 C19.7979899,13.5547821 19.8922525,13.3352805 20.0235599,13.1682523 C20.1548674,13.0008545 20.3448597,12.8722576 20.5931701,12.7820919 C20.8414806,12.6919263 21.1290366,12.6468434 21.4562048,12.6468434 C21.7811724,12.6468434 22.0448876,12.6852747 22.2480841,12.7621372 C22.4509137,12.8393693 22.6001934,12.935817 22.6955564,13.0525889 C22.7912861,13.1693609 22.8580402,13.3164344 22.8961853,13.4945485 C22.9178254,13.605408 22.928462,13.8049549 22.928462,14.0939285 L22.928462,14.9597406 C22.928462,15.5639245 22.9423997,15.9456505 22.9695415,16.1056576 C22.99705,16.2656647 23.0517003,16.4190202 23.1327588,16.5657242 L22.4593497,16.5657242 C22.3925956,16.4308452 22.3493155,16.2734248 22.3302429,16.0930935 Z" id="Fill-38"></path>
                        <path d="M23.6642239,16.5332054 L24.9545464,16.5332054 L24.9545464,12.700795 L23.6642239,12.700795 L23.6642239,16.5332054 Z M23.6642239,11.9898166 L24.9545464,11.9898166 L24.9545464,11.2429936 L23.6642239,11.2429936 L23.6642239,11.9898166 Z" id="Fill-39"></path>
                        <path d="M25.1313461,15.1263993 L25.7688108,15.0255172 C25.8047553,15.2830806 25.9045196,15.4800409 26.0681037,15.617137 C26.2313211,15.7542332 26.4601921,15.822966 26.7539834,15.822966 C27.0499753,15.822966 27.2696768,15.7619933 27.4127213,15.640787 C27.5561325,15.5192112 27.6276547,15.3769416 27.6276547,15.2132392 C27.6276547,15.0665352 27.5645684,14.9508719 27.4380291,14.8666187 C27.349635,14.8089718 27.1299334,14.735435 26.7789244,14.646378 C26.3061443,14.5262803 25.9782425,14.4224419 25.7955857,14.3344934 C25.612929,14.246545 25.4746527,14.1249691 25.3803901,13.9697659 C25.2857607,13.8145627 25.2388128,13.6434697 25.2388128,13.4557477 C25.2388128,13.2846547 25.2776916,13.1268648 25.3550823,12.9812694 C25.4328398,12.835674 25.5384726,12.7144677 25.6723475,12.6183895 C25.7724786,12.5441137 25.9092877,12.4809238 26.0824081,12.4288199 C26.2555286,12.3770855 26.4411195,12.3515878 26.639181,12.3515878 C26.9377404,12.3515878 27.1999885,12.394823 27.4255586,12.4812934 C27.6514954,12.5677637 27.817647,12.6852747 27.9251137,12.8330873 C28.0325804,12.9812694 28.1070369,13.1789687 28.147016,13.4269243 L27.5165202,13.5133946 C27.4879113,13.3160648 27.4053857,13.1619702 27.2682097,13.0514803 C27.130667,12.9409905 26.9366401,12.8855607 26.6857622,12.8855607 C26.3897703,12.8855607 26.1785047,12.9347084 26.0519654,13.0333733 C25.9250593,13.1320382 25.861973,13.2477015 25.861973,13.3799938 C25.861973,13.4642469 25.8883812,13.5400009 25.9408308,13.6072556 C25.9932805,13.677097 26.0758061,13.7347439 26.1880409,13.7805658 C26.2525943,13.8045854 26.4422199,13.8600151 26.7576512,13.9464855 C27.2135594,14.0691699 27.5315582,14.1696824 27.712381,14.2476536 C27.8921035,14.3259942 28.0340476,14.4394404 28.1363793,14.5887311 C28.2394447,14.7380218 28.2904272,14.923157 28.2904272,15.1445063 C28.2904272,15.3610517 28.2280745,15.5650331 28.1026355,15.7560808 C27.9771966,15.9474981 27.796007,16.0953107 27.5598003,16.2002576 C27.3232268,16.304835 27.0558438,16.3569389 26.7576512,16.3569389 C26.263231,16.3569389 25.8865473,16.2538397 25.6272335,16.0469021 C25.3682864,15.8395949 25.2028683,15.5328839 25.1313461,15.1263993" id="Fill-40"></path>
                        <path d="M31.4784839,14.8666187 L32.1126475,14.9497633 C32.043326,15.3898752 31.8661709,15.734648 31.5804489,15.9837122 C31.2950936,16.2324068 30.9448181,16.3569389 30.5292558,16.3569389 C30.0087941,16.3569389 29.5902975,16.1854763 29.2737659,15.8429207 C28.957601,15.4999956 28.7991518,15.0085188 28.7991518,14.3684903 C28.7991518,13.9549847 28.867373,13.5928439 29.0034486,13.2824375 C29.1395242,12.9720311 29.3467552,12.7392263 29.6247749,12.5840231 C29.9031613,12.4288199 30.2057553,12.3515878 30.5329236,12.3515878 C30.9459185,12.3515878 31.2840902,12.4565348 31.5467051,12.6671677 C31.80932,12.8778006 31.9773055,13.176382 32.0517619,13.5640204 L31.4249339,13.6612072 C31.3647819,13.4040133 31.2591491,13.2103789 31.1076687,13.0803038 C30.9561883,12.9505983 30.7727981,12.8855607 30.5578646,12.8855607 C30.2332638,12.8855607 29.9695486,13.0027022 29.7663522,13.2373547 C29.5631557,13.4720071 29.4619243,13.8430167 29.4619243,14.3507528 C29.4619243,14.8655101 29.5598547,15.2394759 29.7557155,15.4730198 C29.9515764,15.7061941 30.2068556,15.822966 30.5222869,15.822966 C30.7753655,15.822966 30.9866311,15.7449949 31.1560838,15.5883136 C31.3255364,15.4320018 31.4330031,15.1914368 31.4784839,14.8666187" id="Fill-41"></path>
                        <path d="M32.8337381,16.5332054 L32.8337381,11.2429936 L33.4785383,11.2429936 L33.4785383,13.140907 C33.7796652,12.7898521 34.1592831,12.6143247 34.6177588,12.6143247 C34.8994462,12.6143247 35.1440889,12.6701239 35.3520535,12.7820919 C35.5596513,12.8936904 35.7081974,13.0485241 35.7980586,13.2454843 C35.8875531,13.4428141 35.9323003,13.729201 35.9323003,14.1046449 L35.9323003,16.5332054 L35.2875001,16.5332054 L35.2875001,14.1046449 C35.2875001,13.7798268 35.217445,13.5433267 35.0780684,13.3955141 C34.938325,13.247332 34.7406303,13.1734257 34.485351,13.1734257 C34.2942583,13.1734257 34.1145358,13.2233125 33.9461835,13.3230859 C33.7778313,13.4228594 33.657894,13.5584775 33.586005,13.729201 C33.5144828,13.8999245 33.4785383,14.1356855 33.4785383,14.4364841 L33.4785383,16.5332054 L32.8337381,16.5332054" id="Fill-42"></path>
                        <path d="M37.2035618,13.9860253 L39.3275881,13.9860253 C39.2989792,13.6637939 39.2175539,13.4217508 39.0840458,13.2606351 C38.8786486,13.0104624 38.6123659,12.8855607 38.2851977,12.8855607 C37.988839,12.8855607 37.7401618,12.9853342 37.5384324,13.1848812 C37.3367031,13.3847977 37.2248351,13.6519689 37.2035618,13.9860253 Z M39.3202524,15.0362336 L39.9866927,15.1193782 C39.8814267,15.511451 39.6866662,15.8159449 39.4027781,16.0321208 C39.1185231,16.2486662 38.7554104,16.3569389 38.3138066,16.3569389 C37.7574004,16.3569389 37.3161634,16.1843678 36.9904623,15.8392254 C36.6643943,15.4940831 36.5015438,15.0096274 36.5015438,14.3865974 C36.5015438,13.7421346 36.6662282,13.2414195 36.9955972,12.8855607 C37.3253329,12.5293324 37.7526323,12.3515878 38.2778621,12.3515878 C38.7865867,12.3515878 39.2021491,12.5260067 39.5245492,12.8748443 C39.8469493,13.2233125 40.007966,13.7140502 40.007966,14.3470575 C40.007966,14.3854888 40.0068657,14.4431357 40.0042982,14.5203678 L37.1676173,14.5203678 C37.191458,14.941264 37.3099281,15.2634954 37.5222941,15.4874315 C37.73466,15.710998 37.9998424,15.822966 38.3174744,15.822966 C38.5536811,15.822966 38.7554104,15.7605152 38.9226623,15.6352441 C39.0899143,15.5103424 39.2226888,15.3104259 39.3202524,15.0362336 Z" id="Fill-43"></path>
                        <path d="M40.9029106,16.2704686 L40.9029106,12.4380582 L41.4831575,12.4380582 L41.4831575,13.0189616 C41.63097,12.7469865 41.7677792,12.5677637 41.8932181,12.4812934 C42.0186571,12.394823 42.1565666,12.3515878 42.3069466,12.3515878 C42.5244475,12.3515878 42.7452494,12.4210597 42.9697191,12.5607426 L42.7474501,13.1634484 C42.5901012,13.0695874 42.4323856,13.0226569 42.2746699,13.0226569 C42.134193,13.0226569 42.0072869,13.0655225 41.895052,13.1508843 C41.7828172,13.2362461 41.702859,13.3544961 41.6551776,13.5063735 C41.5836553,13.7373307 41.5477108,13.9897206 41.5477108,14.2639129 L41.5477108,16.2704686 L40.9029106,16.2704686" id="Fill-44"></path>
                        <polyline id="Fill-45" points="45.671058 16.5332054 45.671058 11.2429936 49.2134247 11.2429936 49.2134247 11.8671321 46.3657404 11.8671321 46.3657404 13.5056345 48.830139 13.5056345 48.830139 14.129773 46.3657404 14.129773 46.3657404 16.5332054 45.671058 16.5332054"></polyline>
                        <path d="M50.3684168,14.3540786 C50.3684168,14.8451859 50.4747831,15.2125001 50.6871491,15.4567604 C50.899515,15.7006511 51.1668981,15.822966 51.4892982,15.822966 C51.8091308,15.822966 52.0757803,15.7002816 52.2881463,15.4549127 C52.5005122,15.2095439 52.6068786,14.8355781 52.6068786,14.3326458 C52.6068786,13.858537 52.5001454,13.4993524 52.2863124,13.2554617 C52.0724793,13.0112014 51.8069301,12.8892561 51.4892982,12.8892561 C51.1668981,12.8892561 50.899515,13.0104624 50.6871491,13.253614 C50.4747831,13.4967657 50.3684168,13.8633409 50.3684168,14.3540786 Z M49.7056443,14.3540786 C49.7056443,13.6445783 49.9015051,13.1187351 50.29286,12.777288 C50.6200282,12.4934879 51.0190855,12.3515878 51.4892982,12.3515878 C52.0123273,12.3515878 52.4396266,12.524159 52.771563,12.8693014 C53.1038662,13.2144437 53.2696511,13.6915088 53.2696511,14.300127 C53.2696511,14.7930819 53.1962949,15.1810899 53.0492159,15.4637815 C52.9025037,15.746473 52.6886706,15.9659747 52.4080835,16.122656 C52.1274964,16.2789678 51.8212346,16.3569389 51.4892982,16.3569389 C50.9567328,16.3569389 50.5264992,16.1851068 50.1982306,15.8410731 C49.8695952,15.4970393 49.7056443,15.0014977 49.7056443,14.3540786 Z" id="Fill-46"></path>
                        <path d="M54.1070111,16.2704686 L54.1070111,12.4380582 L54.687258,12.4380582 L54.687258,12.9827475 C54.9667448,12.5618512 55.3705702,12.3515878 55.8980006,12.3515878 C56.1272385,12.3515878 56.3377705,12.3929753 56.5303303,12.4757504 C56.7225233,12.558895 56.8663013,12.6675372 56.9616643,12.8024162 C57.057394,12.9372951 57.1241481,13.0973022 57.1622932,13.2824375 C57.1865008,13.4029047 57.1982377,13.6131681 57.1982377,13.9139667 L57.1982377,16.2704686 L56.5534375,16.2704686 L56.5534375,13.9390948 C56.5534375,13.6745103 56.5284964,13.476811 56.4782475,13.3456274 C56.4279985,13.2144437 56.3392376,13.1098663 56.211598,13.0315256 C56.0835916,12.9535545 55.9339451,12.9143842 55.761925,12.9143842 C55.4872064,12.9143842 55.2502661,13.0023327 55.0507375,13.1778601 C54.8515757,13.3533875 54.7518113,13.6867049 54.7518113,14.1774426 L54.7518113,16.2704686 L54.1070111,16.2704686" id="Fill-47"></path>
                        <path d="M58.4372225,14.6205108 C58.4372225,15.1112485 58.5399211,15.4781932 58.7453182,15.7213449 C58.9507153,15.964127 59.1931573,16.0857029 59.4722773,16.0857029 C59.7543315,16.0857029 59.9934725,15.96967 60.1904336,15.7376043 C60.3877616,15.505169 60.4860588,15.1511579 60.4860588,14.6748319 C60.4860588,14.1500973 60.3859277,13.7654151 60.1852987,13.5200462 C59.9846697,13.2746773 59.7374596,13.1519929 59.4436684,13.1519929 C59.1572128,13.1519929 58.9180718,13.2695039 58.725512,13.5056345 C58.533319,13.7413955 58.4372225,14.1131441 58.4372225,14.6205108 Z M60.4754221,16.5332054 L60.4754221,16.0494888 C60.2344473,16.4297366 59.8797705,16.6196758 59.4113917,16.6196758 C59.1080642,16.6196758 58.8296777,16.5354226 58.575132,16.3672858 C58.3209531,16.1987795 58.1239919,15.963388 57.9842485,15.6618503 C57.8445051,15.3599431 57.7748168,15.0125836 57.7748168,14.6205108 C57.7748168,14.2380457 57.837903,13.8910557 57.9644423,13.5795408 C58.0909816,13.2680258 58.2806072,13.0293085 58.5340526,12.8630193 C58.7871312,12.6970997 59.0702858,12.6143247 59.3827828,12.6143247 C59.6120207,12.6143247 59.8163174,12.6627333 59.9953064,12.7602896 C60.1746621,12.8578459 60.3202739,12.9845952 60.4325088,13.140907 L60.4325088,11.2429936 L61.0736412,11.2429936 L61.0736412,16.5332054 L60.4754221,16.5332054 Z" id="Fill-48"></path>
                        <path d="M61.8094031,15.1263993 L62.4472345,15.0255172 C62.4828122,15.2830806 62.5825765,15.4800409 62.7461606,15.617137 C62.9097448,15.7542332 63.1382491,15.822966 63.4320403,15.822966 C63.728399,15.822966 63.9477338,15.7619933 64.091145,15.640787 C64.2345562,15.5192112 64.3060784,15.3769416 64.3060784,15.2132392 C64.3060784,15.0665352 64.2426253,14.9508719 64.1160861,14.8666187 C64.0276919,14.8089718 63.8079904,14.735435 63.4569814,14.646378 C62.9842012,14.5262803 62.6566662,14.4224419 62.4740094,14.3344934 C62.2913527,14.246545 62.1527097,14.1249691 62.0584471,13.9697659 C61.9641845,13.8145627 61.9168698,13.6434697 61.9168698,13.4557477 C61.9168698,13.2846547 61.9557485,13.1268648 62.033506,12.9812694 C62.1108967,12.835674 62.2168963,12.7144677 62.3504044,12.6183895 C62.4505355,12.5441137 62.5873446,12.4809238 62.7604651,12.4288199 C62.9335855,12.3770855 63.1195432,12.3515878 63.3176048,12.3515878 C63.6157974,12.3515878 63.8780455,12.394823 64.1036155,12.4812934 C64.3291856,12.5677637 64.4957039,12.6852747 64.6031706,12.8330873 C64.7106374,12.9812694 64.7850938,13.1789687 64.8254397,13.4269243 L64.1949439,13.5133946 C64.166335,13.3160648 64.0830758,13.1619702 63.9458999,13.0514803 C63.8087239,12.9409905 63.614697,12.8855607 63.3641859,12.8855607 C63.0678272,12.8855607 62.8565616,12.9347084 62.7300223,13.0333733 C62.603483,13.1320382 62.5400299,13.2477015 62.5400299,13.3799938 C62.5400299,13.4642469 62.5664381,13.5400009 62.6188878,13.6072556 C62.6717042,13.677097 62.753863,13.7347439 62.8660979,13.7805658 C62.9306513,13.8045854 63.1202768,13.8600151 63.4357081,13.9464855 C63.8916163,14.0691699 64.2099819,14.1696824 64.3900711,14.2476536 C64.5705272,14.3259942 64.7117377,14.4394404 64.814803,14.5887311 C64.9175016,14.7380218 64.9688509,14.923157 64.9688509,15.1445063 C64.9688509,15.3610517 64.9061314,15.5650331 64.7806924,15.7560808 C64.6552535,15.9474981 64.4744307,16.0953107 64.2378572,16.2002576 C64.0016505,16.304835 63.7339007,16.3569389 63.4357081,16.3569389 C62.9412879,16.3569389 62.5646042,16.2538397 62.3056572,16.0469021 C62.0467101,15.8395949 61.881292,15.5328839 61.8094031,15.1263993" id="Fill-49"></path>
                        <path d="M67.8807218,16.6237406 L67.8807218,13.2964797 L67.3111116,13.2964797 L67.3111116,12.7913302 L67.8807218,12.7913302 L67.8807218,12.3833675 C67.8807218,12.1261737 67.9030954,11.9347564 67.9485762,11.8098548 C68.0105621,11.6413484 68.1198627,11.5046218 68.276478,11.4000444 C68.4330933,11.295467 68.6516946,11.2429936 68.9337488,11.2429936 C69.1153052,11.2429936 69.3159342,11.2647959 69.5356357,11.3080311 L69.4388057,11.8745228 C69.3052975,11.8505032 69.1783915,11.8386782 69.0591878,11.8386782 C68.863327,11.8386782 68.7250507,11.8808048 68.6436254,11.965058 C68.5622001,12.0493111 68.5218542,12.2067315 68.5218542,12.4376887 L68.5218542,12.7913302 L69.2631178,12.7913302 L69.2631178,13.2964797 L68.5218542,13.2964797 L68.5218542,16.6237406 L67.8807218,16.6237406" id="Fill-50"></path>
                        <path d="M71.7517239,11.9827955 L72.4251331,11.9827955 L72.4251331,11.2429936 L71.7517239,11.2429936 L71.7517239,11.9827955 Z M70.4155423,11.9827955 L71.0889515,11.9827955 L71.0889515,11.2429936 L70.4155423,11.2429936 L70.4155423,11.9827955 Z M72.3858875,16.5657242 L72.3858875,16.0029278 C72.0895288,16.4356491 71.6871706,16.6521945 71.1784459,16.6521945 C70.9539762,16.6521945 70.7445445,16.6089594 70.5501508,16.522489 C70.3553903,16.4356491 70.2108788,16.3270069 70.1166162,16.1958232 C70.0223536,16.0646396 69.9559663,15.9038934 69.9178211,15.7139543 C69.8917797,15.5864659 69.8785756,15.3843322 69.8785756,15.1079227 L69.8785756,12.7333138 L70.523009,12.7333138 L70.523009,14.8588585 C70.523009,15.1980884 70.5365799,15.4264588 70.5626213,15.5443393 C70.6029672,15.7154324 70.6891606,15.8492028 70.8204681,15.946759 C70.9517755,16.0443153 71.1142593,16.0930935 71.3075527,16.0930935 C71.500846,16.0930935 71.6827692,16.0428372 71.851855,15.9430637 C72.0213077,15.8432903 72.1412449,15.7073027 72.2120336,15.5354706 C72.2824554,15.3636385 72.3176664,15.1138352 72.3176664,14.7867999 L72.3176664,12.7333138 L72.9624666,12.7333138 L72.9624666,16.5657242 L72.3858875,16.5657242 Z" id="Fill-51"></path>
                        <path d="M73.9131618,16.2704686 L73.9131618,12.4380582 L74.4934087,12.4380582 L74.4934087,13.0189616 C74.6412213,12.7469865 74.7783972,12.5677637 74.9034694,12.4812934 C75.0289083,12.394823 75.1668178,12.3515878 75.3171979,12.3515878 C75.5346987,12.3515878 75.7555006,12.4210597 75.9799703,12.5607426 L75.7577013,13.1634484 C75.6003525,13.0695874 75.4426368,13.0226569 75.2849212,13.0226569 C75.1444442,13.0226569 75.0175381,13.0655225 74.9053033,13.1508843 C74.7934352,13.2362461 74.7131103,13.3544961 74.6654288,13.5063735 C74.5939066,13.7373307 74.5579621,13.9897206 74.5579621,14.2639129 L74.5579621,16.2704686 L73.9131618,16.2704686" id="Fill-52"></path>
                        <path d="M0.19026742,25.1392227 L0.19026742,21.3068123 L0.770514281,21.3068123 L0.770514281,21.8877157 C0.918693631,21.6157406 1.055136,21.4365179 1.18057496,21.3500475 C1.30601391,21.2635772 1.44392341,21.220342 1.59430344,21.220342 C1.81143754,21.220342 2.03260622,21.2898139 2.25707593,21.4294968 L2.0348069,22.0322025 C1.87745804,21.9383416 1.71974239,21.8914111 1.56202675,21.8914111 C1.42118301,21.8914111 1.29464371,21.9342767 1.18240886,22.0196385 C1.07017401,22.1050002 0.990215842,22.2232503 0.942534368,22.3751277 C0.870645376,22.6060848 0.835067661,22.8584748 0.835067661,23.1326671 L0.835067661,25.1392227 L0.19026742,25.1392227" id="Fill-53"></path>
                        <path d="M3.2202417,22.9235123 L5.34426798,22.9235123 C5.31565909,22.6012809 5.23423381,22.3592378 5.10072568,22.1981221 C4.89532856,21.9479494 4.62904587,21.8230477 4.3018776,21.8230477 C4.00588568,21.8230477 3.75684168,21.9228212 3.55511236,22.1223682 C3.35338305,22.3222847 3.24151498,22.5894559 3.2202417,22.9235123 Z M5.33693237,23.9737206 L6.00337266,24.0568652 C5.89810664,24.448938 5.70371294,24.7534319 5.419458,24.9696078 C5.13520305,25.1861532 4.77245707,25.2944259 4.33048649,25.2944259 C3.77408036,25.2944259 3.33284334,25.1218548 3.00714219,24.7767124 C2.68107427,24.4315701 2.51822369,23.9471144 2.51822369,23.3240844 C2.51822369,22.6796216 2.68290817,22.1789065 3.01227712,21.8230477 C3.34201285,21.4668195 3.76931221,21.2890748 4.29454199,21.2890748 C4.80326664,21.2890748 5.21882902,21.4634937 5.54122914,21.8123313 C5.86362927,22.1607995 6.02464593,22.6515372 6.02464593,23.2845445 C6.02464593,23.3229758 6.02354559,23.3806227 6.02097813,23.4578548 L3.18429721,23.4578548 C3.20813794,23.8787511 3.32624129,24.2009825 3.53897402,24.4249185 C3.75170675,24.648485 4.01652232,24.760453 4.33415429,24.760453 C4.57036098,24.760453 4.77245707,24.6980022 4.93934223,24.5727311 C5.10659417,24.4478294 5.23900196,24.2479129 5.33693237,23.9737206 Z" id="Fill-54"></path>
                        <path d="M7.22805298,23.2232023 C7.22805298,23.7261346 7.32708374,24.0927097 7.52551202,24.3236669 C7.72394031,24.554624 7.97188398,24.6702874 8.27044336,24.6702874 C8.56643528,24.6702874 8.81511251,24.5553631 9.01574148,24.3255145 C9.21600367,24.0960355 9.31650154,23.7357424 9.31650154,23.2446351 C9.31650154,22.7756998 9.21306942,22.4220582 9.00657196,22.1837104 C8.8000745,21.9457322 8.5510305,21.8267431 8.25980672,21.8267431 C7.9733511,21.8267431 7.7298088,21.9438845 7.52917983,22.178537 C7.32855086,22.4128199 7.22805298,22.761288 7.22805298,23.2232023 Z M6.69438725,25.5253831 L7.32121525,25.6192441 C7.34762345,25.8143567 7.420246,25.9562567 7.53981647,26.0453138 C7.69973279,26.1654115 7.91833401,26.2256451 8.19525334,26.2256451 C8.49381273,26.2256451 8.72415092,26.1654115 8.88663472,26.0453138 C9.04911851,25.9248465 9.1587859,25.7563402 9.21600367,25.5397948 C9.24974748,25.4078721 9.26515226,25.1299845 9.2625848,24.7065014 C8.98089732,25.0405579 8.62988832,25.2079556 8.20955779,25.2079556 C7.68652869,25.2079556 7.28196973,25.0180164 6.9955141,24.6377686 C6.7086917,24.2575208 6.56564727,23.8018885 6.56564727,23.2701328 C6.56564727,22.9042967 6.631301,22.5669145 6.76260844,22.2579862 C6.89391588,21.9486884 7.084275,21.7099711 7.33405257,21.5414648 C7.58346335,21.373328 7.87652103,21.2890748 8.21322559,21.2890748 C8.66216501,21.2890748 9.0322466,21.4716234 9.32347037,21.8374595 L9.32347037,21.3755452 L9.91838846,21.3755452 L9.91838846,24.6883944 C9.91838846,25.2848181 9.85786966,25.7079316 9.73719886,25.9566262 C9.61689483,26.2056904 9.42580215,26.4022811 9.16428761,26.5467679 C8.90277306,26.6912547 8.5811065,26.7633133 8.19892115,26.7633133 C7.74521359,26.7633133 7.3787998,26.6605836 7.099313,26.4547546 C6.81982621,26.2489256 6.68521774,25.9392583 6.69438725,25.5253831 Z" id="Fill-56"></path>
                        <path d="M10.8269039,25.4019596 L12.1172265,25.4019596 L12.1172265,21.5695492 L10.8269039,21.5695492 L10.8269039,25.4019596 Z M10.8269039,20.8585707 L12.1172265,20.8585707 L12.1172265,20.1117477 L10.8269039,20.1117477 L10.8269039,20.8585707 Z" id="Fill-58"></path>
                        <path d="M12.9564319,23.2228328 C12.9564319,23.71394 13.0627983,24.0812543 13.275531,24.3255145 C13.487897,24.5694053 13.75528,24.6917202 14.0776801,24.6917202 C14.3978795,24.6917202 14.6637955,24.5690358 14.8765282,24.3236669 C15.0888941,24.078298 15.1952605,23.7043322 15.1952605,23.2014 C15.1952605,22.7272911 15.0881606,22.3681066 14.8746943,22.1242159 C14.6608612,21.8799556 14.3953121,21.7580102 14.0776801,21.7580102 C13.75528,21.7580102 13.487897,21.8792165 13.275531,22.1223682 C13.0627983,22.3655199 12.9564319,22.732095 12.9564319,23.2228328 Z M12.2940262,23.2228328 C12.2940262,22.5133324 12.489887,21.9874892 12.8812419,21.6460422 C13.2084102,21.3622421 13.6071006,21.220342 14.0776801,21.220342 C14.6007092,21.220342 15.0280086,21.3929132 15.359945,21.7380555 C15.6918814,22.0831979 15.858033,22.5602629 15.858033,23.1688812 C15.858033,23.6618361 15.7843101,24.0498441 15.6375979,24.3325356 C15.4908856,24.6152272 15.2770526,24.8347288 14.9964654,24.9914102 C14.7158783,25.147722 14.4096165,25.2256931 14.0776801,25.2256931 C13.5451147,25.2256931 13.1148811,25.053861 12.7866125,24.7098272 C12.4583439,24.3657935 12.2940262,23.8702518 12.2940262,23.2228328 Z" id="Fill-59"></path>
                        <path d="M16.3286125,25.1392227 L16.3286125,21.3068123 L16.9088593,21.3068123 L16.9088593,21.8515017 C17.1883461,21.4306054 17.5918047,21.220342 18.119602,21.220342 C18.3488398,21.220342 18.5597387,21.2617295 18.7519317,21.3445046 C18.9441247,21.4276491 19.0879027,21.5362914 19.1832656,21.6711703 C19.2789954,21.8060493 19.3457494,21.9660564 19.3838946,22.1511917 C19.4077353,22.2716589 19.4198391,22.4819223 19.4198391,22.7827209 L19.4198391,25.1392227 L18.7750389,25.1392227 L18.7750389,22.807849 C18.7750389,22.5432645 18.7500978,22.3455652 18.6998488,22.2143815 C18.6495999,22.0831979 18.560839,21.9786205 18.4328326,21.9002798 C18.305193,21.8223087 18.1555465,21.7831384 17.9835264,21.7831384 C17.7088077,21.7831384 17.4718675,21.8710868 17.2723389,22.0466143 C17.073177,22.2221417 16.9734127,22.555459 16.9734127,23.0461968 L16.9734127,25.1392227 L16.3286125,25.1392227" id="Fill-60"></path>
                        <path d="M23.0098873,23.2158117 C22.7758813,23.3118899 22.4248723,23.3939258 21.9568603,23.4611805 C21.6920447,23.4996118 21.5042531,23.542847 21.3945857,23.5912556 C21.2849183,23.6392947 21.1998252,23.7095057 21.1404068,23.8022581 C21.0806215,23.8946409 21.0509123,23.9977402 21.0509123,24.1108168 C21.0509123,24.284127 21.1158325,24.4282443 21.2460396,24.5439076 C21.3762467,24.6592014 21.5666058,24.7168483 21.8171169,24.7168483 C22.0657941,24.7168483 22.286596,24.6621577 22.4798894,24.5527764 C22.6731828,24.4433951 22.8154936,24.2933653 22.9060884,24.1034262 C22.9754099,23.9567222 23.0098873,23.7401768 23.0098873,23.4537899 L23.0098873,23.2158117 Z M23.0638041,24.666592 C22.8250299,24.8709429 22.5950585,25.0154297 22.3742566,25.0996829 C22.1534547,25.183936 21.9161477,25.2256931 21.6630691,25.2256931 C21.245306,25.2256931 20.9240062,25.1229634 20.6995365,24.9171344 C20.4754336,24.7116749 20.3631987,24.4485685 20.3631987,24.1289238 C20.3631987,23.9412019 20.4053785,23.7697393 20.4901048,23.6145361 C20.5748311,23.4593329 20.6859656,23.3348008 20.8231416,23.2409398 C20.9606843,23.1470788 21.1150989,23.0761288 21.287119,23.0280897 C21.4136583,22.9944624 21.604751,22.9619436 21.860397,22.9305334 C22.3808586,22.8680826 22.7641443,22.7934373 23.0098873,22.7069669 C23.0124548,22.6179098 23.0135551,22.5613715 23.0135551,22.537352 C23.0135551,22.2727675 22.9526695,22.0861541 22.8308984,21.9778814 C22.6662139,21.8311774 22.4212045,21.7580102 22.0966037,21.7580102 C21.7932762,21.7580102 21.56954,21.8115923 21.4250285,21.9183869 C21.2805169,22.025551 21.1737838,22.2147511 21.1044623,22.4867262 L20.4739665,22.4002558 C20.5311842,22.1282807 20.6258136,21.908779 20.7571211,21.7417508 C20.8884285,21.5743531 21.0780541,21.4457562 21.3263645,21.3555905 C21.5750417,21.2654248 21.8625977,21.220342 22.189766,21.220342 C22.5143668,21.220342 22.7784488,21.2587733 22.9812784,21.3356358 C23.1841081,21.4128679 23.3337546,21.5093156 23.4291175,21.6260875 C23.5244805,21.7428594 23.5916013,21.8899329 23.6297465,22.0680471 C23.6510198,22.1789065 23.6620232,22.3784535 23.6620232,22.667427 L23.6620232,23.5332392 C23.6620232,24.1374231 23.675594,24.519149 23.7031026,24.6791561 C23.7306111,24.8391632 23.7848947,24.9925188 23.8659532,25.1392227 L23.192544,25.1392227 C23.12579,25.0043438 23.0828766,24.8469234 23.0638041,24.666592 Z" id="Fill-61"></path>
                        <polygon id="Fill-62" points="24.7645656 25.4019596 25.4093658 25.4019596 25.4093658 20.1117477 24.7645656 20.1117477"></polygon>
                        <path d="M26.9337058,22.8547795 L29.0573653,22.8547795 C29.0287565,22.5325481 28.947698,22.290505 28.813823,22.1293893 C28.6091595,21.8792165 28.34251,21.7543149 28.014975,21.7543149 C27.7193498,21.7543149 27.4703058,21.8540884 27.2685765,22.0536354 C27.0668472,22.2535519 26.9549791,22.5207231 26.9337058,22.8547795 Z M29.0503965,23.9049878 L29.71647,23.9881324 C29.6119376,24.3802052 29.4171771,24.6846991 29.1325554,24.900875 C28.849034,25.1174204 28.4859212,25.2256931 28.0439506,25.2256931 C27.4875445,25.2256931 27.0463075,25.0531219 26.7206063,24.7079796 C26.3945384,24.3628372 26.2316878,23.8783815 26.2316878,23.2553515 C26.2316878,22.6108887 26.3963723,22.1101737 26.7257413,21.7543149 C27.055477,21.3980866 27.4827764,21.220342 28.0080061,21.220342 C28.5167308,21.220342 28.9319264,21.3947608 29.2543265,21.7435985 C29.5767266,22.0920666 29.7381101,22.5828044 29.7381101,23.2158117 C29.7381101,23.2542429 29.7373765,23.3118899 29.7344423,23.3891219 L26.8977613,23.3891219 C26.9216021,23.8100182 27.0397054,24.1322496 27.2524382,24.3561857 C27.4648041,24.5797522 27.7299865,24.6917202 28.0472517,24.6917202 C28.2838251,24.6917202 28.4859212,24.6292694 28.6528064,24.5039982 C28.8204251,24.3790966 28.9528329,24.1791801 29.0503965,23.9049878 Z" id="Fill-63"></path>
                        <polyline id="Fill-64" points="32.4669575 25.4019596 32.4669575 20.1117477 36.26387 20.1117477 36.26387 20.7358863 33.1620067 20.7358863 33.1620067 22.3562816 36.0669088 22.3562816 36.0669088 22.9767249 33.1620067 22.9767249 33.1620067 24.777821 36.3856411 24.777821 36.3856411 25.4019596 32.4669575 25.4019596"></polyline>
                        <path d="M37.2351049,25.1392227 L37.2351049,21.3068123 L37.8153518,21.3068123 L37.8153518,21.8515017 C38.0944718,21.4306054 38.4982972,21.220342 39.0257277,21.220342 C39.2549655,21.220342 39.4658643,21.2617295 39.6580574,21.3445046 C39.8502504,21.4276491 39.9940284,21.5362914 40.0897581,21.6711703 C40.1854878,21.8060493 40.2518751,21.9660564 40.2903871,22.1511917 C40.3142278,22.2716589 40.3259648,22.4819223 40.3259648,22.7827209 L40.3259648,25.1392227 L39.6815313,25.1392227 L39.6815313,22.807849 C39.6815313,22.5432645 39.6562234,22.3455652 39.6059745,22.2143815 C39.5560924,22.0831979 39.4673315,21.9786205 39.339325,21.9002798 C39.2113186,21.8223087 39.0616721,21.7831384 38.8896521,21.7831384 C38.6149334,21.7831384 38.3783599,21.8710868 38.1788313,22.0466143 C37.9793027,22.2221417 37.8795384,22.555459 37.8795384,23.0461968 L37.8795384,25.1392227 L37.2351049,25.1392227" id="Fill-65"></path>
                        <path d="M42.6652912,24.7020671 L42.7580867,25.2755798 C42.5765303,25.3140111 42.4144133,25.3335963 42.2710021,25.3335963 C42.0373629,25.3335963 41.8558065,25.2962736 41.7266998,25.2216282 C41.597593,25.1469829 41.5069982,25.0490571 41.4545486,24.9274812 C41.4017322,24.8059054 41.3756908,24.5505592 41.3756908,24.1607035 L41.3756908,21.9557095 L40.9029106,21.9557095 L40.9029106,21.4505601 L41.3756908,21.4505601 L41.3756908,20.5016034 L42.0168232,20.1117477 L42.0168232,21.4505601 L42.6652912,21.4505601 L42.6652912,21.9557095 L42.0168232,21.9557095 L42.0168232,24.1969176 C42.0168232,24.3820529 42.0281934,24.501042 42.0509338,24.553885 C42.0733074,24.606728 42.110719,24.6492241 42.1617015,24.6802647 C42.2130508,24.7116749 42.2864069,24.7271952 42.3821366,24.7271952 C42.4536589,24.7271952 42.5479215,24.718696 42.6652912,24.7020671" id="Fill-66"></path>
                        <path d="M44.2673888,25.4222838 L43.103594,21.5898734 L43.7696675,21.5898734 L44.3748555,23.8018885 L44.6007923,24.624835 C44.6103286,24.583817 44.6759823,24.3203411 44.7977535,23.8344073 L45.4029414,21.5898734 L46.0657139,21.5898734 L46.6349573,23.8129745 L46.8249497,24.5453857 L47.0435509,23.8055838 L47.69532,21.5898734 L48.322148,21.5898734 L47.1330454,25.4222838 L46.463304,25.4222838 L45.8577493,23.1271241 L45.7110371,22.4737926 L44.9407979,25.4222838 L44.2673888,25.4222838" id="Fill-67"></path>
                        <path d="M48.6053026,25.4019596 L49.8956251,25.4019596 L49.8956251,21.5695492 L48.6053026,21.5695492 L48.6053026,25.4019596 Z M48.6053026,20.8585707 L49.8956251,20.8585707 L49.8956251,20.1117477 L48.6053026,20.1117477 L48.6053026,20.8585707 Z" id="Fill-68"></path>
                        <path d="M52.7517569,23.7353729 L53.3855537,23.8185174 C53.316599,24.2586294 53.1390772,24.6034022 52.8537219,24.8524664 C52.5683666,25.101161 52.2180912,25.2256931 51.8025288,25.2256931 C51.2820672,25.2256931 50.8632037,25.0542305 50.5470389,24.7116749 C50.230874,24.3687497 50.0724248,23.8772729 50.0724248,23.2372445 C50.0724248,22.8237388 50.1402792,22.461598 50.2767216,22.1511917 C50.4127972,21.8407853 50.6196614,21.6079805 50.8980479,21.4527773 C51.1764343,21.2975741 51.4790283,21.220342 51.8058298,21.220342 C52.2188247,21.220342 52.5569964,21.3252889 52.8196113,21.5359218 C53.0822262,21.7465547 53.2505785,22.0451361 53.3246681,22.4327746 L52.6978401,22.5299614 C52.6380549,22.2727675 52.5324221,22.079133 52.3809417,21.949058 C52.2294614,21.8193524 52.0460711,21.7543149 51.8311377,21.7543149 C51.5061701,21.7543149 51.2424549,21.8714564 51.0396252,22.1061088 C50.8364288,22.3407613 50.7351973,22.7117708 50.7351973,23.219507 C50.7351973,23.7342643 50.832761,24.1082301 51.0286218,24.3417739 C51.2248494,24.5749483 51.4801287,24.6917202 51.7951932,24.6917202 C52.0486385,24.6917202 52.2599041,24.6137491 52.4293568,24.4570677 C52.5988094,24.3007559 52.7062761,24.060191 52.7517569,23.7353729" id="Fill-69"></path>
                        <polyline id="Fill-70" points="54.1070111 25.4019596 54.1070111 20.1117477 54.7518113 20.1117477 54.7518113 23.1286023 56.2776185 21.5695492 57.1120443 21.5695492 55.6577593 22.9915061 57.2591233 25.4019596 56.463943 25.4019596 55.2066192 23.4423344 54.7518113 23.8828159 54.7518113 25.4019596 54.1070111 25.4019596"></polyline>
                        <polygon id="Fill-71" points="57.7748168 25.4019596 58.419617 25.4019596 58.419617 20.1117477 57.7748168 20.1117477"></polygon>
                        <path d="M61.749251,25.4222838 L61.749251,24.8594875 C61.4532591,25.2922087 61.0509008,25.5087542 60.5421762,25.5087542 C60.3177065,25.5087542 60.1082748,25.465519 59.9135143,25.3790486 C59.7191206,25.2922087 59.574609,25.1835665 59.4803464,25.0523829 C59.3860838,24.9211992 59.3196965,24.760453 59.2815514,24.5705139 C59.2551432,24.4430255 59.2419391,24.2408918 59.2419391,23.9644823 L59.2419391,21.5898734 L59.8867393,21.5898734 L59.8867393,23.7154182 C59.8867393,24.054648 59.8999434,24.2830184 59.9263516,24.400899 C59.9666975,24.571992 60.0525241,24.7057624 60.1841983,24.8033187 C60.3155058,24.900875 60.4776228,24.9496531 60.6712829,24.9496531 C60.8645763,24.9496531 61.0461327,24.8993968 61.2155853,24.7996234 C61.3850379,24.6998499 61.5049752,24.5638623 61.5757638,24.3920302 C61.6461857,24.2201981 61.6813966,23.9703948 61.6813966,23.6433595 L61.6813966,21.5898734 L62.3261969,21.5898734 L62.3261969,25.4222838 L61.749251,25.4222838" id="Fill-72"></path>
                        <path d="M63.4914587,25.2079556 L63.4914587,21.3755452 L64.0717056,21.3755452 L64.0717056,21.9202345 C64.3511924,21.4993382 64.7550178,21.2890748 65.2824483,21.2890748 C65.5116861,21.2890748 65.7222182,21.3304624 65.914778,21.4132374 C66.106971,21.496382 66.250749,21.6050242 66.3464787,21.7399032 C66.4418416,21.8747821 66.5085957,22.0347893 66.5471077,22.2199245 C66.5709484,22.3403917 66.5826854,22.5506551 66.5826854,22.8514537 L66.5826854,25.2079556 L65.9378851,25.2079556 L65.9378851,22.8765818 C65.9378851,22.6119973 65.9129441,22.414298 65.8626951,22.2831144 C65.812813,22.1519307 65.7236853,22.0473533 65.5960456,21.9690127 C65.4680392,21.8910415 65.3183928,21.8518712 65.1463727,21.8518712 C64.871654,21.8518712 64.6350806,21.9398197 64.4355519,22.1153471 C64.2360233,22.2908745 64.136259,22.6241919 64.136259,23.1149296 L64.136259,25.2079556 L63.4914587,25.2079556" id="Fill-73"></path>
                        <path d="M67.9867214,23.2232023 C67.9867214,23.7261346 68.0861189,24.0927097 68.2841804,24.3236669 C68.4822419,24.554624 68.7309192,24.6702874 69.0291118,24.6702874 C69.3254705,24.6702874 69.5734141,24.5553631 69.7740431,24.3255145 C69.9746721,24.0960355 70.07517,23.7357424 70.07517,23.2446351 C70.07517,22.7756998 69.9717378,22.4220582 69.7652404,22.1837104 C69.5583761,21.9457322 69.3096989,21.8267431 69.0184751,21.8267431 C68.7320195,21.8267431 68.4881104,21.9438845 68.2878482,22.178537 C68.0872193,22.4128199 67.9867214,22.761288 67.9867214,23.2232023 Z M67.4530557,25.5253831 L68.0798837,25.6192441 C68.1059251,25.8143567 68.1792812,25.9562567 68.2984849,26.0453138 C68.4584012,26.1654115 68.6770024,26.2256451 68.9539218,26.2256451 C69.2521144,26.2256451 69.4828193,26.1654115 69.6453031,26.0453138 C69.8074201,25.9248465 69.9174543,25.7563402 69.9746721,25.5397948 C70.0080491,25.4078721 70.0238207,25.1299845 70.0212532,24.7065014 C69.7395657,25.0405579 69.3885567,25.2079556 68.9682262,25.2079556 C68.4451971,25.2079556 68.0406381,25.0180164 67.7541825,24.6377686 C67.4673601,24.2575208 67.3243157,23.8018885 67.3243157,23.2701328 C67.3243157,22.9042967 67.3896026,22.5669145 67.5212769,22.2579862 C67.6525843,21.9486884 67.8429434,21.7099711 68.0923542,21.5414648 C68.3421318,21.373328 68.6351894,21.2890748 68.971894,21.2890748 C69.4204666,21.2890748 69.790915,21.4716234 70.0821388,21.8374595 L70.0821388,21.3755452 L70.6766901,21.3755452 L70.6766901,24.6883944 C70.6766901,25.2848181 70.6165381,25.7079316 70.4958673,25.9566262 C70.3751965,26.2056904 70.1841038,26.4022811 69.922956,26.5467679 C69.6614415,26.6912547 69.3397749,26.7633133 68.9575896,26.7633133 C68.5035152,26.7633133 68.1371014,26.6605836 67.8579814,26.4547546 C67.5784946,26.2489256 67.4435194,25.9392583 67.4530557,25.5253831 Z" id="Fill-75"></path>
                    </g>
                </g>
            </g>
        </g>
    </g>
</svg>