<svg width="208" height="208" viewBox="0 0 208 208" fill="none" xmlns="http://www.w3.org/2000/svg">
<rect width="208" height="208" fill="#C4C4C4"/>
<path d="M51.1942 82.7638C53.4142 82.7638 55.1142 82.3438 56.5342 81.6638V74.3238H51.1142V76.4038H54.0942V80.0038C53.2742 80.3438 52.3342 80.5038 51.2742 80.5038C48.1542 80.5038 46.2342 78.3038 46.2342 75.2838C46.2342 72.3638 48.1742 70.1038 51.1542 70.1038C52.6742 70.1038 54.0542 70.7438 54.7742 71.5438L56.5142 69.6638C55.3742 68.6038 53.3742 67.8838 51.1342 67.8838C46.7742 67.8838 43.4542 70.7438 43.4542 75.2838C43.4542 79.7038 46.6342 82.7638 51.1942 82.7638ZM59.483 82.4038H61.883V77.2638C61.883 76.5638 62.303 74.6838 64.463 74.6838C64.683 74.6838 64.883 74.7038 65.203 74.7838V72.5838C65.043 72.5438 64.803 72.5238 64.623 72.5238C63.363 72.5238 62.343 73.3038 61.823 74.4038H61.783V72.8038H59.483V82.4038ZM69.4342 82.6438C70.7942 82.6438 71.9342 82.0238 72.4142 81.1838H72.4742V82.4038H74.7142V76.5638C74.7142 74.6438 73.8742 72.5238 70.4342 72.5238C68.9742 72.5238 67.4542 73.0438 66.3742 74.0438L67.6142 75.5038C68.2342 74.8838 69.2142 74.4038 70.2342 74.4038C71.4342 74.4038 72.4342 74.9838 72.4342 76.1638V76.4038C69.4342 76.4038 65.8342 76.8038 65.8342 79.6638C65.8342 81.9038 67.8942 82.6438 69.4342 82.6438ZM69.9142 80.8238C69.0942 80.8238 68.2342 80.5438 68.2342 79.6238C68.2342 78.2038 70.3742 78.0238 71.8942 78.0238H72.4342V78.3638C72.4342 79.8838 71.5542 80.8238 69.9142 80.8238ZM77.5103 87.2038H79.9103V81.1238H79.9503C80.5703 82.0838 81.7903 82.6838 83.1303 82.6838C86.0503 82.6838 87.8503 80.3638 87.8503 77.5638C87.8503 74.7238 85.9303 72.5238 83.1903 72.5238C81.4303 72.5238 80.3503 73.3838 79.8703 74.1438H79.8103V72.8038H77.5103V87.2038ZM82.6503 80.6838C80.8903 80.6838 79.8303 79.1038 79.8303 77.6038C79.8303 76.1038 80.8903 74.4838 82.6503 74.4838C84.5103 74.4838 85.4103 76.0638 85.4103 77.5638C85.4103 79.0638 84.5103 80.6838 82.6503 80.6838ZM90.2066 82.4038H92.6066V77.1638C92.6066 75.8838 93.3466 74.5838 94.8666 74.5838C96.4066 74.5838 96.6466 75.9838 96.6466 77.1238V82.4038H99.0466V76.4038C99.0466 74.4438 98.0066 72.5238 95.5066 72.5238C94.0866 72.5238 93.0266 73.3438 92.6466 74.1438H92.6066V67.2838H90.2066V82.4038ZM103.066 70.9838C103.946 70.9838 104.626 70.3638 104.626 69.5438C104.626 68.7238 103.946 68.1038 103.066 68.1038C102.186 68.1038 101.546 68.7838 101.546 69.5438C101.546 70.3038 102.186 70.9838 103.066 70.9838ZM101.886 82.4038H104.286V72.8038H101.886V82.4038ZM111.838 82.6838C113.258 82.6838 114.578 82.2038 115.378 81.3438L113.878 79.8238C113.418 80.3838 112.598 80.6838 111.858 80.6838C110.038 80.6838 109.138 79.1038 109.138 77.6038C109.138 76.1038 110.018 74.5238 111.778 74.5238C112.558 74.5238 113.378 74.9238 113.758 75.4638L115.398 74.0238C114.638 73.0838 113.178 72.5238 111.778 72.5238C108.958 72.5238 106.638 74.4838 106.638 77.6038C106.638 80.8038 108.998 82.6838 111.838 82.6838ZM123.943 82.4038H126.383L128.543 75.6838H128.583L130.763 82.4038H133.203L136.523 72.8038H134.023L131.983 79.6838H131.943L129.863 72.8038H127.303L125.243 79.6838H125.203L123.203 72.8038H120.603L123.943 82.4038ZM139.258 70.9838C140.138 70.9838 140.818 70.3638 140.818 69.5438C140.818 68.7238 140.138 68.1038 139.258 68.1038C138.378 68.1038 137.738 68.7838 137.738 69.5438C137.738 70.3038 138.378 70.9838 139.258 70.9838ZM138.078 82.4038H140.478V72.8038H138.078V82.4038ZM146.809 82.6038C147.349 82.6038 147.989 82.5038 148.409 82.3438L148.329 80.4638C148.049 80.6038 147.629 80.6638 147.309 80.6638C146.249 80.6638 146.049 80.0438 146.049 79.1838V74.7238H148.449V72.8038H146.049V70.0238H143.689V72.8038H142.009V74.7238H143.689V79.2038C143.689 81.0438 144.269 82.6038 146.809 82.6038ZM150.226 82.4038H152.626V77.1638C152.626 75.8838 153.366 74.5838 154.886 74.5838C156.426 74.5838 156.666 75.9838 156.666 77.1238V82.4038H159.066V76.4038C159.066 74.4438 158.026 72.5238 155.526 72.5238C154.106 72.5238 153.046 73.3438 152.666 74.1438H152.626V67.2838H150.226V82.4038ZM47.1262 119.204H49.5262V104.804H47.2262V106.144H47.1662C46.6862 105.384 45.6062 104.524 43.8462 104.524C41.1062 104.524 39.1862 106.724 39.1862 109.564C39.1862 112.364 40.9862 114.684 43.9062 114.684C45.2462 114.684 46.4662 114.084 47.0862 113.124H47.1262V119.204ZM44.3862 112.684C42.5262 112.684 41.6262 111.064 41.6262 109.564C41.6262 108.064 42.5262 106.484 44.3862 106.484C46.1462 106.484 47.2062 108.104 47.2062 109.604C47.2062 111.104 46.1462 112.684 44.3862 112.684ZM55.8629 114.684C57.2829 114.684 58.4229 113.824 58.8429 112.864H58.8829V114.404H61.1629V104.804H58.7629V110.084C58.7629 111.364 58.0429 112.684 56.5229 112.684C54.9829 112.684 54.7229 111.264 54.7229 110.124V104.804H52.3229V110.804C52.3229 112.764 53.3629 114.684 55.8629 114.684ZM68.6435 114.684C70.4635 114.684 71.8235 114.044 72.7635 112.764L71.1635 111.484C70.6235 112.244 69.8235 112.724 68.6235 112.724C67.2235 112.724 65.9835 111.724 65.8835 110.364H73.1835C73.2035 110.144 73.2035 109.944 73.2035 109.724C73.2035 106.264 71.2435 104.524 68.5635 104.524C65.6635 104.524 63.4835 106.564 63.4835 109.664C63.4835 112.784 65.6835 114.684 68.6435 114.684ZM65.8835 108.644C65.9835 107.304 67.1235 106.324 68.5435 106.324C70.1035 106.324 70.8035 107.404 70.8035 108.644H65.8835ZM78.3279 114.684C80.4279 114.684 82.3279 113.824 82.3279 111.484C82.3279 109.604 80.6479 108.964 79.2279 108.624C77.8879 108.304 77.1479 108.104 77.1479 107.364C77.1479 106.604 77.9279 106.324 78.6879 106.324C79.5679 106.324 80.3679 106.804 80.7879 107.364L82.3479 105.984C81.5679 105.004 80.1279 104.524 78.7479 104.524C76.8479 104.524 74.9279 105.444 74.9279 107.584C74.9279 109.384 76.3479 109.964 77.7679 110.304C79.2279 110.644 79.9679 110.884 79.9679 111.684C79.9679 112.544 79.1279 112.824 78.4279 112.824C77.3879 112.824 76.4879 112.304 75.9679 111.624L74.3879 113.104C75.3079 114.124 76.8479 114.684 78.3279 114.684ZM87.8346 114.604C88.3746 114.604 89.0146 114.504 89.4346 114.344L89.3546 112.464C89.0746 112.604 88.6546 112.664 88.3346 112.664C87.2746 112.664 87.0746 112.044 87.0746 111.184V106.724H89.4746V104.804H87.0746V102.024H84.7146V104.804H83.0346V106.724H84.7146V111.204C84.7146 113.044 85.2946 114.604 87.8346 114.604ZM92.4315 102.984C93.3115 102.984 93.9915 102.364 93.9915 101.544C93.9915 100.724 93.3115 100.104 92.4315 100.104C91.5515 100.104 90.9115 100.784 90.9115 101.544C90.9115 102.304 91.5515 102.984 92.4315 102.984ZM91.2515 114.404H93.6515V104.804H91.2515V114.404ZM101.223 114.684C104.123 114.684 106.443 112.584 106.443 109.564C106.443 106.544 104.123 104.524 101.223 104.524C98.3231 104.524 96.0031 106.544 96.0031 109.564C96.0031 112.584 98.3231 114.684 101.223 114.684ZM101.223 112.684C99.3231 112.684 98.4431 111.064 98.4431 109.564C98.4431 108.064 99.3231 106.484 101.223 106.484C103.123 106.484 104.003 108.064 104.003 109.564C104.003 111.064 103.123 112.684 101.223 112.684ZM108.77 114.404H111.17V109.124C111.17 107.844 111.89 106.524 113.41 106.524C114.95 106.524 115.21 107.944 115.21 109.084V114.404H117.61V108.404C117.61 106.444 116.57 104.524 114.07 104.524C112.65 104.524 111.51 105.384 111.09 106.344H111.05V104.804H108.77V114.404ZM120.411 114.404H122.811V109.124C122.811 107.844 123.471 106.524 124.911 106.524C126.131 106.524 126.691 107.424 126.691 108.604V114.404H129.091V109.164C129.091 107.924 129.711 106.524 131.211 106.524C132.751 106.524 133.011 107.944 133.011 109.084V114.404H135.411V108.404C135.411 106.444 134.371 104.524 131.871 104.524C130.431 104.524 129.351 105.184 128.711 106.344C128.171 105.264 127.191 104.524 125.711 104.524C124.171 104.524 123.151 105.404 122.731 106.344H122.691V104.804H120.411V114.404ZM141.124 114.644C142.484 114.644 143.624 114.024 144.104 113.184H144.164V114.404H146.404V108.564C146.404 106.644 145.564 104.524 142.124 104.524C140.664 104.524 139.144 105.044 138.064 106.044L139.304 107.504C139.924 106.884 140.904 106.404 141.924 106.404C143.124 106.404 144.124 106.984 144.124 108.164V108.404C141.124 108.404 137.524 108.804 137.524 111.664C137.524 113.904 139.584 114.644 141.124 114.644ZM141.604 112.824C140.784 112.824 139.924 112.544 139.924 111.624C139.924 110.204 142.064 110.024 143.584 110.024H144.124V110.364C144.124 111.884 143.244 112.824 141.604 112.824ZM149.2 114.404H151.6V109.264C151.6 108.564 152.02 106.684 154.18 106.684C154.4 106.684 154.6 106.704 154.92 106.784V104.584C154.76 104.544 154.52 104.524 154.34 104.524C153.08 104.524 152.06 105.304 151.54 106.404H151.5V104.804H149.2V114.404ZM156.525 114.404H158.925V109.484H158.985L162.785 114.404H165.965L161.545 109.144L165.705 104.804H162.625L158.985 108.844H158.925V99.2838H156.525V114.404ZM170.027 114.684C172.127 114.684 174.027 113.824 174.027 111.484C174.027 109.604 172.347 108.964 170.927 108.624C169.587 108.304 168.847 108.104 168.847 107.364C168.847 106.604 169.627 106.324 170.387 106.324C171.267 106.324 172.067 106.804 172.487 107.364L174.047 105.984C173.267 105.004 171.827 104.524 170.447 104.524C168.547 104.524 166.627 105.444 166.627 107.584C166.627 109.384 168.047 109.964 169.467 110.304C170.927 110.644 171.667 110.884 171.667 111.684C171.667 112.544 170.827 112.824 170.127 112.824C169.087 112.824 168.187 112.304 167.667 111.624L166.087 113.104C167.007 114.124 168.547 114.684 170.027 114.684ZM87.6434 142.224H90.0034V141.704C90.0034 140.544 90.2834 140.204 91.3234 139.284C92.5634 138.204 93.3234 137.444 93.3234 135.744C93.3234 133.224 91.3634 131.884 89.0634 131.884C86.6034 131.884 84.7034 133.384 84.4034 135.924L86.8634 136.144C86.9034 135.064 87.6634 134.064 88.9034 134.064C90.0834 134.064 90.7834 134.864 90.7834 135.904C90.7834 136.704 90.3634 137.224 89.8634 137.684L88.9634 138.544C87.9634 139.504 87.6434 140.184 87.6434 141.464V142.224ZM88.8434 146.524C89.7234 146.524 90.4434 145.824 90.4434 144.964C90.4434 144.104 89.7034 143.444 88.8434 143.444C87.9634 143.444 87.2434 144.144 87.2434 145.004C87.2434 145.864 88.0034 146.524 88.8434 146.524ZM103.014 142.224H105.374V141.704C105.374 140.544 105.654 140.204 106.694 139.284C107.934 138.204 108.694 137.444 108.694 135.744C108.694 133.224 106.734 131.884 104.434 131.884C101.974 131.884 100.074 133.384 99.7745 135.924L102.234 136.144C102.274 135.064 103.034 134.064 104.274 134.064C105.454 134.064 106.154 134.864 106.154 135.904C106.154 136.704 105.734 137.224 105.234 137.684L104.334 138.544C103.334 139.504 103.014 140.184 103.014 141.464V142.224ZM104.214 146.524C105.094 146.524 105.814 145.824 105.814 144.964C105.814 144.104 105.074 143.444 104.214 143.444C103.334 143.444 102.614 144.144 102.614 145.004C102.614 145.864 103.374 146.524 104.214 146.524ZM118.386 142.224H120.746V141.704C120.746 140.544 121.026 140.204 122.066 139.284C123.306 138.204 124.066 137.444 124.066 135.744C124.066 133.224 122.106 131.884 119.806 131.884C117.346 131.884 115.446 133.384 115.146 135.924L117.606 136.144C117.646 135.064 118.406 134.064 119.646 134.064C120.826 134.064 121.526 134.864 121.526 135.904C121.526 136.704 121.106 137.224 120.606 137.684L119.706 138.544C118.706 139.504 118.386 140.184 118.386 141.464V142.224ZM119.586 146.524C120.466 146.524 121.186 145.824 121.186 144.964C121.186 144.104 120.446 143.444 119.586 143.444C118.706 143.444 117.986 144.144 117.986 145.004C117.986 145.864 118.746 146.524 119.586 146.524Z" fill="black"/>
</svg>
