<svg width="98" height="164" viewBox="0 0 98 164" fill="none" xmlns="http://www.w3.org/2000/svg">
<g clip-path="url(#clip0)">
<path d="M68.5562 90.7237H57.5312C56.7 90.7237 56 90.0258 56.0438 89.1534C56.525 74.4981 63.7875 60.5407 75.6875 51.5556C81.2 47.3683 84.3062 40.7822 84 33.8471C83.5187 23.1609 74.725 14.4375 64.0062 13.9141C58.1875 13.6524 52.675 15.7024 48.5188 19.6715C44.6688 23.3354 42.3937 28.1769 42.0875 33.4109C42 34.2832 41.3437 34.8939 40.5562 34.8939H29.5313C28.6563 34.8939 28 34.196 28.0438 33.3237C28.4375 24.2949 32.2438 15.9205 38.85 9.63962C45.85 3.00983 54.9937 -0.435911 64.6625 0.000259507C73.3687 0.392813 81.55 4.01302 87.7625 10.2066C93.975 16.4003 97.6062 24.5566 98 33.2364C98.525 44.7513 93.3625 55.7428 84.175 62.7215C75.7312 69.0896 70.525 78.9471 70.0875 89.2843C70 90.113 69.3437 90.7237 68.5562 90.7237Z" fill="url(#paint0_linear)"/>
<path d="M63 118.638C67.8325 118.638 71.75 114.733 71.75 109.915C71.75 105.097 67.8325 101.191 63 101.191C58.1675 101.191 54.25 105.097 54.25 109.915C54.25 114.733 58.1675 118.638 63 118.638Z" fill="url(#paint1_linear)"/>
<path d="M29.4438 73.2764H40.4688C41.3 73.2764 42 73.9742 41.9563 74.8466C41.475 89.5019 34.2125 103.459 22.3125 112.444C16.8 116.632 13.6938 123.218 14 130.153C14.4813 140.839 23.275 149.563 33.9938 150.086C39.8125 150.348 45.325 148.298 49.4813 144.329C53.3313 140.665 55.6063 135.823 55.9125 130.589C55.9563 129.804 56.6125 129.15 57.4 129.15H68.425C69.3 129.15 69.9563 129.848 69.9125 130.72C69.5188 139.749 65.7125 148.123 59.1063 154.404C52.1063 161.034 42.9625 164.48 33.2938 164.043C24.5875 163.651 16.4063 160.031 10.1938 153.837C4.06876 147.556 0.437509 139.4 0.0437592 130.764C-0.481241 119.249 4.68126 108.257 13.8688 101.278C22.3125 94.9104 27.5188 85.053 27.9563 74.7157C28 73.887 28.6563 73.2764 29.4438 73.2764Z" fill="url(#paint2_linear)"/>
<path d="M35 62.8081C39.8325 62.8081 43.75 58.9025 43.75 54.0847C43.75 49.2669 39.8325 45.3613 35 45.3613C30.1675 45.3613 26.25 49.2669 26.25 54.0847C26.25 58.9025 30.1675 62.8081 35 62.8081Z" fill="url(#paint3_linear)"/>
</g>
<defs>
<linearGradient id="paint0_linear" x1="28.0325" y1="45.3624" x2="97.9992" y2="45.3624" gradientUnits="userSpaceOnUse">
<stop/>
<stop offset="0.1466" stop-color="#07112C"/>
<stop offset="0.4618" stop-color="#143385"/>
<stop offset="0.7188" stop-color="#1E4CC7"/>
<stop offset="0.9044" stop-color="#255CF0"/>
<stop offset="1" stop-color="#2762FF"/>
</linearGradient>
<linearGradient id="paint1_linear" x1="54.25" y1="109.916" x2="71.75" y2="109.916" gradientUnits="userSpaceOnUse">
<stop/>
<stop offset="0.1466" stop-color="#07112C"/>
<stop offset="0.4618" stop-color="#143385"/>
<stop offset="0.7188" stop-color="#1E4CC7"/>
<stop offset="0.9044" stop-color="#255CF0"/>
<stop offset="1" stop-color="#2762FF"/>
</linearGradient>
<linearGradient id="paint2_linear" x1="9.20524e-06" y1="118.638" x2="69.9668" y2="118.638" gradientUnits="userSpaceOnUse">
<stop stop-color="white"/>
<stop offset="1" stop-color="#FCBA59"/>
</linearGradient>
<linearGradient id="paint3_linear" x1="26.2492" y1="54.0847" x2="43.7492" y2="54.0847" gradientUnits="userSpaceOnUse">
<stop stop-color="white"/>
<stop offset="1" stop-color="#FCBA59"/>
</linearGradient>
<clipPath id="clip0">
<rect width="98" height="164" fill="white"/>
</clipPath>
</defs>
</svg>
