<?xml version="1.0" encoding="UTF-8"?>
<svg width="24px" height="24px" viewBox="0 0 24 24" version="1.1" xmlns="http://www.w3.org/2000/svg" xmlns:xlink="http://www.w3.org/1999/xlink">
    <!-- Generator: Sketch 52.6 (67491) - http://www.bohemiancoding.com/sketch -->
    <title>Artboard</title>
    <desc>Created with Sketch.</desc>
    <g id="Artboard" stroke="none" stroke-width="1" fill="none" fill-rule="evenodd">
        <g id="Group" transform="translate(2.000000, 0.000000)" fill="#000000">
            <path d="M9.57467133,3.15964045 L9.57467133,0.810067416 C9.57467133,0.418677486 9.88733312,0.101393258 10.273021,0.101393258 C10.6587088,0.101393258 10.9713706,0.418677486 10.9713706,0.810067416 L10.9713706,3.15964045 C10.9713706,3.5510522 10.6587303,3.86837498 10.273021,3.86844944 C9.88736351,3.86824017 9.57474468,3.55099954 9.57467133,3.15964045 Z" id="Path"></path>
            <path d="M10.6559441,23.9275955 C4.78016084,23.9275955 0,19.076764 0,13.1145169 C0,7.152 4.78016084,2.30116854 10.6559441,2.30116854 C13.5020909,2.30116854 16.178035,3.42593258 18.1905734,5.46835955 L18.8841399,6.17217978 L15.8756294,9.04961798 L14.5692797,7.64332584 L16.1108042,6.16880899 C14.5664895,4.9148764 12.6626364,4.23397753 10.6558112,4.23397753 C5.83034266,4.23397753 1.90465035,8.21757303 1.90465035,13.1145169 C1.90465035,18.0110562 5.83034266,21.9949213 10.6558112,21.9949213" id="Path"></path>
            <path d="M16.0043776,18.3730787 L14.6365105,17.0281348 C15.6436434,15.9733483 16.1983636,14.5836404 16.1983636,13.1145169 C16.1983636,11.5810787 15.6012587,10.1482247 14.5171958,9.07955056 L13.8036993,8.37626966 L14.5688811,7.64359551 L15.2207273,8.34444944 L15.8441399,7.69321348 C17.3007622,9.12889888 18.1028811,11.0542921 18.1028811,13.1145169 C18.1028811,15.0884494 17.3574965,16.9555955 16.0043776,18.3730787" id="Path" fill-opacity="0.25"></path>
            <path d="M10.6558112,16.3040899 C8.92269231,16.3040899 7.51257343,14.8732584 7.51257343,13.1145169 C7.51257343,11.3557753 8.92269231,9.92480899 10.6558112,9.92480899 C12.3889301,9.92480899 13.7989161,11.3557753 13.7989161,13.1145169 C13.7989161,14.8732584 12.3889301,16.3040899 10.6558112,16.3040899 Z M10.6559441,11.857618 C9.97274126,11.857618 9.41722378,12.4214831 9.41722378,13.1145169 C9.41722378,13.8074157 9.97274126,14.3714157 10.6558112,14.3714157 C11.3387483,14.3714157 11.8943986,13.8074157 11.8943986,13.1145169 C11.8943986,12.4214831 11.3387483,11.857618 10.6558112,11.857618 L10.6559441,11.857618 Z M17.5172028,6.15155056 L11.979965,11.3433708" id="Shape" fill-rule="nonzero"></path>
            <polygon id="Path" points="12.6263636 12.0532584 11.3335664 10.633618 16.8708042 5.44193258 18.1636014 6.8614382"></polygon>
            <polygon id="Path" points="18.7710699 23.9277303 10.4828182 23.9277303 10.4828182 21.9950562 16.8665524 21.9950562 16.8665524 20.2395506 11.116993 15.8468764 12.2624406 14.3027865 18.7712028 19.2746966"></polygon>
            <path d="M6.96728671,9.05514607 C6.58162924,9.05507163 6.26901042,8.737831 6.26893706,8.34647191 L6.26893706,0.810202247 C6.26893706,0.418775085 6.58162859,0.101460674 6.96735315,0.101460674 C7.3530777,0.101460674 7.66576923,0.418775085 7.66576923,0.810202247 L7.66576923,8.34647191 C7.66562254,8.73785281 7.3529657,9.05507166 6.96728671,9.05514607" id="Path"></path>
        </g>
    </g>
</svg>