<?xml version="1.0" encoding="UTF-8"?>
<svg width="129px" height="130px" viewBox="0 0 129 130" version="1.1" xmlns="http://www.w3.org/2000/svg" xmlns:xlink="http://www.w3.org/1999/xlink">
    <!-- Generator: Sketch 52.6 (67491) - http://www.bohemiancoding.com/sketch -->
    <title>Group 2</title>
    <desc>Created with Sketch.</desc>
    <g id="Web-Page" stroke="none" stroke-width="1" fill="none" fill-rule="evenodd">
        <g id="Group-2" transform="translate(-1.000000, 0.000000)" fill="#FCBA59">
            <path d="M65.4609,129.5 C65.1849,129.5 64.9609,129.276 64.9609,129 L64.9609,65 C64.9609,64.724 65.1849,64.5 65.4609,64.5 C65.7369,64.5 65.9609,64.724 65.9609,65 L65.9609,129 C65.9609,129.276 65.7369,129.5 65.4609,129.5" id="Fill-3"></path>
            <path d="M71.7334,129.1919 C71.4794,129.1919 71.2614,128.9989 71.2364,128.7409 L64.9634,65.0489 C64.9364,64.7749 65.1374,64.5289 65.4124,64.5029 C65.6904,64.4779 65.9314,64.6759 65.9584,64.9509 L72.2314,128.6429 C72.2584,128.9179 72.0574,129.1629 71.7824,129.1899 C71.7664,129.1909 71.7494,129.1919 71.7334,129.1919" id="Fill-5"></path>
            <path d="M77.9463,128.27 C77.7123,128.27 77.5043,128.105 77.4563,127.868 L64.9703,65.098 C64.9163,64.827 65.0923,64.563 65.3633,64.51 C65.6373,64.452 65.8973,64.631 65.9513,64.902 L78.4373,127.672 C78.4913,127.943 78.3153,128.207 78.0443,128.26 C78.0113,128.267 77.9783,128.27 77.9463,128.27" id="Fill-7"></path>
            <path d="M84.0391,126.7441 C83.8241,126.7441 83.6261,126.6051 83.5601,126.3891 L64.9821,65.1451 C64.9021,64.8811 65.0521,64.6011 65.3161,64.5211 C65.5811,64.4411 65.8591,64.5911 65.9391,64.8551 L84.5181,126.0991 C84.5981,126.3631 84.4481,126.6421 84.1841,126.7231 C84.1361,126.7371 84.0871,126.7441 84.0391,126.7441" id="Fill-9"></path>
            <path d="M89.9526,124.6284 C89.7566,124.6284 89.5706,124.5124 89.4906,124.3194 L64.9986,65.1914 C64.8936,64.9364 65.0146,64.6434 65.2696,64.5384 C65.5236,64.4344 65.8176,64.5534 65.9226,64.8084 L90.4146,123.9374 C90.5196,124.1924 90.3986,124.4844 90.1436,124.5904 C90.0816,124.6164 90.0166,124.6284 89.9526,124.6284" id="Fill-11"></path>
            <path d="M95.6309,121.9429 C95.4519,121.9429 95.2789,121.8469 95.1899,121.6789 L65.0199,65.2359 C64.8899,64.9919 64.9819,64.6899 65.2249,64.5589 C65.4689,64.4289 65.7719,64.5209 65.9019,64.7639 L96.0709,121.2069 C96.2019,121.4509 96.1099,121.7539 95.8659,121.8839 C95.7909,121.9239 95.7109,121.9429 95.6309,121.9429" id="Fill-13"></path>
            <path d="M100.6021,118.4919 L65.0451,65.2779 C64.8921,65.0479 64.9541,64.7379 65.1831,64.5849 C65.4141,64.4299 65.7231,64.4929 65.8761,64.7219 L101.4331,117.9359 C101.5871,118.1659 101.5251,118.4759 101.2951,118.6299 C101.2101,118.6869 101.1131,118.7139 101.0181,118.7139 C100.8561,118.7139 100.6981,118.6359 100.6021,118.4919 Z" id="Fill-15"></path>
            <path d="M106.0625,114.9727 C105.9175,114.9727 105.7745,114.9107 105.6755,114.7897 L65.0745,65.3177 C64.8995,65.1037 64.9305,64.7887 65.1435,64.6137 C65.3575,64.4387 65.6725,64.4707 65.8475,64.6827 L106.4485,114.1557 C106.6235,114.3687 106.5925,114.6837 106.3795,114.8597 C106.2865,114.9357 106.1735,114.9727 106.0625,114.9727" id="Fill-17"></path>
            <path d="M110.7158,110.7549 C110.5878,110.7549 110.4598,110.7059 110.3618,110.6089 L65.1078,65.3539 C64.9118,65.1579 64.9118,64.8419 65.1078,64.6469 C65.3028,64.4509 65.6188,64.4509 65.8148,64.6469 L111.0698,109.9009 C111.2648,110.0969 111.2648,110.4129 111.0698,110.6089 C110.9718,110.7059 110.8438,110.7549 110.7158,110.7549" id="Fill-19"></path>
            <path d="M114.9331,106.1011 C114.8221,106.1011 114.7091,106.0641 114.6161,105.9881 L65.1431,65.3871 C64.9301,65.2111 64.8991,64.8961 65.0741,64.6831 C65.2491,64.4701 65.5641,64.4381 65.7781,64.6131 L115.2511,105.2141 C115.4641,105.3901 115.4951,105.7051 115.3201,105.9181 C115.2211,106.0391 115.0781,106.1011 114.9331,106.1011" id="Fill-21"></path>
            <path d="M118.6743,101.0566 C118.5793,101.0566 118.4823,101.0296 118.3973,100.9726 L65.1833,65.4156 C64.9533,65.2626 64.8913,64.9516 65.0453,64.7226 C65.1983,64.4926 65.5073,64.4306 65.7383,64.5846 L118.9523,100.1406 C119.1823,100.2946 119.2443,100.6046 119.0903,100.8346 C118.9943,100.9786 118.8363,101.0566 118.6743,101.0566" id="Fill-23"></path>
            <path d="M121.9033,95.6694 C121.8233,95.6694 121.7433,95.6504 121.6683,95.6104 L65.2253,65.4404 C64.9823,65.3104 64.8893,65.0074 65.0203,64.7644 C65.1503,64.5204 65.4523,64.4284 65.6963,64.5594 L122.1393,94.7284 C122.3823,94.8584 122.4753,95.1614 122.3443,95.4054 C122.2553,95.5734 122.0823,95.6694 121.9033,95.6694" id="Fill-25"></path>
            <path d="M124.5894,89.9917 C124.5254,89.9917 124.4604,89.9797 124.3984,89.9537 L65.2694,65.4617 C65.0144,65.3567 64.8934,65.0637 64.9994,64.8087 C65.1044,64.5537 65.3984,64.4337 65.6524,64.5377 L124.7804,89.0297 C125.0354,89.1357 125.1564,89.4277 125.0514,89.6827 C124.9714,89.8757 124.7854,89.9917 124.5894,89.9917" id="Fill-27"></path>
            <path d="M126.7051,84.0781 C126.6571,84.0781 126.6081,84.0711 126.5601,84.0571 L65.3161,65.4781 C65.0521,65.3981 64.9021,65.1191 64.9821,64.8551 C65.0621,64.5911 65.3411,64.4421 65.6061,64.5211 L126.8501,83.0991 C127.1141,83.1801 127.2641,83.4591 127.1841,83.7231 C127.1181,83.9391 126.9201,84.0781 126.7051,84.0781" id="Fill-29"></path>
            <path d="M128.2314,77.9858 C128.1994,77.9858 128.1664,77.9828 128.1334,77.9758 L65.3634,65.4898 C65.0924,65.4368 64.9164,65.1728 64.9704,64.9028 C65.0244,64.6318 65.2844,64.4518 65.5584,64.5098 L128.3284,76.9958 C128.5994,77.0488 128.7754,77.3128 128.7214,77.5838 C128.6734,77.8208 128.4654,77.9858 128.2314,77.9858" id="Fill-31"></path>
            <path d="M129.1533,71.7729 C129.1373,71.7729 129.1203,71.7719 129.1043,71.7709 L65.4123,65.4979 C65.1373,65.4709 64.9363,65.2259 64.9633,64.9509 C64.9903,64.6759 65.2313,64.4769 65.5093,64.5019 L129.2013,70.7749 C129.4763,70.8019 129.6773,71.0469 129.6503,71.3219 C129.6253,71.5799 129.4073,71.7729 129.1533,71.7729" id="Fill-33"></path>
            <path d="M129.4609,65.5 L65.4609,65.5 C65.1849,65.5 64.9609,65.276 64.9609,65 C64.9609,64.724 65.1849,64.5 65.4609,64.5 L129.4609,64.5 C129.7369,64.5 129.9609,64.724 129.9609,65 C129.9609,65.276 129.7369,65.5 129.4609,65.5" id="Fill-35"></path>
            <path d="M65.4604,65.5 C65.2064,65.5 64.9884,65.307 64.9634,65.049 C64.9364,64.774 65.1374,64.529 65.4124,64.502 L129.1044,58.229 C129.3824,58.207 129.6234,58.403 129.6504,58.678 C129.6774,58.953 129.4764,59.198 129.2014,59.225 L65.5094,65.498 C65.4934,65.499 65.4764,65.5 65.4604,65.5" id="Fill-37"></path>
            <path d="M65.4604,65.5 C65.2264,65.5 65.0184,65.335 64.9704,65.098 C64.9164,64.827 65.0924,64.563 65.3634,64.51 L128.1334,52.024 C128.4074,51.968 128.6674,52.146 128.7214,52.417 C128.7754,52.687 128.5994,52.951 128.3284,53.004 L65.5584,65.49 C65.5254,65.497 65.4924,65.5 65.4604,65.5" id="Fill-39"></path>
            <path d="M65.4609,65.5 C65.2459,65.5 65.0479,65.361 64.9819,65.145 C64.9019,64.881 65.0519,64.602 65.3159,64.521 L126.5599,45.943 C126.8249,45.863 127.1039,46.013 127.1839,46.277 C127.2639,46.541 127.1139,46.82 126.8499,46.9 L65.6059,65.479 C65.5579,65.493 65.5089,65.5 65.4609,65.5" id="Fill-41"></path>
            <path d="M65.4609,65.5 C65.2649,65.5 65.0789,65.384 64.9989,65.191 C64.8939,64.936 65.0149,64.644 65.2699,64.538 L124.3979,40.046 C124.6519,39.942 124.9459,40.062 125.0509,40.317 C125.1569,40.572 125.0359,40.865 124.7809,40.97 L65.6519,65.462 C65.5899,65.488 65.5249,65.5 65.4609,65.5" id="Fill-43"></path>
            <path d="M65.4614,65.5 C65.2824,65.5 65.1094,65.404 65.0204,65.236 C64.8894,64.992 64.9824,64.689 65.2254,64.559 L121.6684,34.39 C121.9114,34.26 122.2144,34.352 122.3444,34.595 C122.4754,34.838 122.3824,35.141 122.1394,35.271 L65.6964,65.441 C65.6214,65.481 65.5414,65.5 65.4614,65.5" id="Fill-45"></path>
            <path d="M65.4614,65.5 C65.2994,65.5 65.1414,65.422 65.0454,65.278 C64.8914,65.048 64.9534,64.738 65.1834,64.584 L118.3974,29.028 C118.6274,28.874 118.9374,28.936 119.0904,29.166 C119.2444,29.395 119.1824,29.706 118.9524,29.859 L65.7384,65.416 C65.6534,65.473 65.5564,65.5 65.4614,65.5" id="Fill-47"></path>
            <path d="M65.4614,65.5 C65.3164,65.5 65.1734,65.438 65.0744,65.317 C64.8994,65.104 64.9304,64.789 65.1434,64.613 L114.6164,24.012 C114.8304,23.837 115.1454,23.869 115.3204,24.082 C115.4954,24.295 115.4644,24.61 115.2514,24.786 L65.7784,65.387 C65.6854,65.463 65.5724,65.5 65.4614,65.5" id="Fill-49"></path>
            <path d="M65.4609,65.5 C65.3329,65.5 65.2049,65.451 65.1069,65.354 C64.9119,65.158 64.9119,64.842 65.1069,64.646 L110.3619,19.392 C110.5579,19.196 110.8739,19.196 111.0689,19.392 C111.2649,19.587 111.2649,19.903 111.0689,20.099 L65.8149,65.354 C65.7169,65.451 65.5889,65.5 65.4609,65.5" id="Fill-51"></path>
            <path d="M65.4604,65.5 C65.3494,65.5 65.2364,65.463 65.1434,65.387 C64.9304,65.211 64.8994,64.896 65.0744,64.683 L105.6754,15.21 C105.8514,14.997 106.1654,14.965 106.3794,15.141 C106.5924,15.316 106.6234,15.631 106.4484,15.845 L65.8474,65.317 C65.7484,65.438 65.6054,65.5 65.4604,65.5" id="Fill-53"></path>
            <path d="M65.4604,65.5 C65.3654,65.5 65.2684,65.473 65.1834,65.416 C64.9534,65.262 64.8914,64.952 65.0454,64.722 L100.6024,11.508 C100.7544,11.279 101.0644,11.216 101.2954,11.371 C101.5244,11.524 101.5864,11.834 101.4334,12.064 L65.8764,65.278 C65.7804,65.422 65.6224,65.5 65.4604,65.5" id="Fill-55"></path>
            <path d="M65.4604,65.5 C65.3804,65.5 65.3004,65.481 65.2254,65.441 C64.9814,65.311 64.8894,65.008 65.0204,64.764 L95.1894,8.321 C95.3194,8.078 95.6224,7.986 95.8664,8.116 C96.1094,8.247 96.2014,8.549 96.0714,8.793 L65.9014,65.236 C65.8124,65.404 65.6394,65.5 65.4604,65.5" id="Fill-57"></path>
            <path d="M65.4609,65.5 C65.3969,65.5 65.3319,65.488 65.2699,65.462 C65.0149,65.356 64.8939,65.064 64.9989,64.809 L89.4909,5.68 C89.5969,5.425 89.8899,5.304 90.1439,5.41 C90.3989,5.515 90.5199,5.808 90.4149,6.063 L65.9229,65.191 C65.8429,65.384 65.6569,65.5 65.4609,65.5" id="Fill-59"></path>
            <path d="M65.4609,65.5 C65.4129,65.5 65.3639,65.493 65.3159,65.479 C65.0519,65.398 64.9019,65.119 64.9819,64.855 L83.5609,3.611 C83.6409,3.347 83.9189,3.196 84.1839,3.277 C84.4479,3.357 84.5979,3.637 84.5179,3.901 L65.9399,65.145 C65.8739,65.361 65.6759,65.5 65.4609,65.5" id="Fill-61"></path>
            <path d="M65.4614,65.5 C65.4294,65.5 65.3964,65.497 65.3634,65.49 C65.0924,65.437 64.9164,65.173 64.9704,64.902 L77.4564,2.132 C77.5104,1.862 77.7704,1.682 78.0444,1.74 C78.3154,1.793 78.4914,2.057 78.4374,2.328 L65.9514,65.098 C65.9034,65.335 65.6954,65.5 65.4614,65.5" id="Fill-63"></path>
            <path d="M65.4614,65.5 C65.4454,65.5 65.4284,65.499 65.4124,65.498 C65.1374,65.471 64.9364,65.226 64.9634,64.951 L71.2364,1.259 C71.2634,0.984 71.5054,0.785 71.7824,0.811 C72.0574,0.837 72.2584,1.083 72.2314,1.357 L65.9584,65.049 C65.9334,65.307 65.7154,65.5 65.4614,65.5" id="Fill-65"></path>
            <path d="M65.4609,65.5 C65.1849,65.5 64.9609,65.276 64.9609,65 L64.9609,1 C64.9609,0.724 65.1849,0.5 65.4609,0.5 C65.7369,0.5 65.9609,0.724 65.9609,1 L65.9609,65 C65.9609,65.276 65.7369,65.5 65.4609,65.5" id="Fill-67"></path>
            <path d="M65.4604,65.5 C65.2064,65.5 64.9884,65.307 64.9634,65.049 L58.6904,1.357 C58.6634,1.083 58.8644,0.837 59.1394,0.811 C59.4194,0.786 59.6584,0.984 59.6854,1.259 L65.9584,64.951 C65.9854,65.226 65.7844,65.471 65.5094,65.498 C65.4934,65.499 65.4764,65.5 65.4604,65.5" id="Fill-69"></path>
            <path d="M65.4604,65.5 C65.2264,65.5 65.0184,65.335 64.9704,65.098 L52.4844,2.328 C52.4304,2.057 52.6064,1.793 52.8774,1.74 C53.1514,1.681 53.4114,1.862 53.4654,2.132 L65.9514,64.902 C66.0054,65.173 65.8294,65.437 65.5584,65.49 C65.5254,65.497 65.4924,65.5 65.4604,65.5" id="Fill-71"></path>
            <path d="M65.4609,65.5 C65.2459,65.5 65.0479,65.361 64.9819,65.145 L46.4039,3.901 C46.3239,3.637 46.4739,3.357 46.7379,3.277 C47.0029,3.196 47.2809,3.347 47.3609,3.611 L65.9399,64.855 C66.0199,65.119 65.8699,65.398 65.6059,65.479 C65.5579,65.493 65.5089,65.5 65.4609,65.5" id="Fill-73"></path>
            <path d="M65.4609,65.5 C65.2649,65.5 65.0789,65.384 64.9989,65.191 L40.5069,6.063 C40.4019,5.808 40.5229,5.515 40.7779,5.41 C41.0319,5.305 41.3249,5.425 41.4309,5.68 L65.9229,64.809 C66.0279,65.064 65.9069,65.356 65.6519,65.462 C65.5899,65.488 65.5249,65.5 65.4609,65.5" id="Fill-75"></path>
            <path d="M65.4614,65.5 C65.2824,65.5 65.1094,65.404 65.0204,65.236 L34.8504,8.793 C34.7204,8.549 34.8124,8.247 35.0554,8.116 C35.2994,7.986 35.6024,8.078 35.7324,8.321 L65.9014,64.764 C66.0324,65.008 65.9404,65.311 65.6964,65.441 C65.6214,65.481 65.5414,65.5 65.4614,65.5" id="Fill-77"></path>
            <path d="M65.4614,65.5 C65.2994,65.5 65.1414,65.422 65.0454,65.278 L29.4884,12.064 C29.3354,11.834 29.3974,11.524 29.6264,11.371 C29.8574,11.216 30.1664,11.279 30.3194,11.508 L65.8764,64.722 C66.0304,64.952 65.9684,65.262 65.7384,65.416 C65.6534,65.473 65.5564,65.5 65.4614,65.5" id="Fill-79"></path>
            <path d="M65.4614,65.5 C65.3164,65.5 65.1734,65.438 65.0744,65.317 L24.4734,15.845 C24.2984,15.631 24.3294,15.316 24.5424,15.141 C24.7564,14.965 25.0714,14.997 25.2464,15.21 L65.8474,64.683 C66.0224,64.896 65.9914,65.211 65.7784,65.387 C65.6854,65.463 65.5724,65.5 65.4614,65.5" id="Fill-81"></path>
            <path d="M65.4609,65.5 C65.3329,65.5 65.2049,65.451 65.1069,65.354 L19.8529,20.099 C19.6569,19.903 19.6569,19.587 19.8529,19.392 C20.0479,19.196 20.3639,19.196 20.5599,19.392 L65.8149,64.646 C66.0099,64.842 66.0099,65.158 65.8149,65.354 C65.7169,65.451 65.5889,65.5 65.4609,65.5" id="Fill-83"></path>
            <path d="M65.4604,65.5 C65.3494,65.5 65.2364,65.463 65.1434,65.387 L15.6704,24.786 C15.4574,24.61 15.4264,24.295 15.6014,24.082 C15.7774,23.869 16.0914,23.837 16.3054,24.012 L65.7784,64.613 C65.9914,64.789 66.0224,65.104 65.8474,65.317 C65.7484,65.438 65.6054,65.5 65.4604,65.5" id="Fill-85"></path>
            <path d="M65.4604,65.5 C65.3654,65.5 65.2684,65.473 65.1834,65.416 L11.9684,29.859 C11.7394,29.706 11.6774,29.395 11.8314,29.166 C11.9834,28.936 12.2934,28.874 12.5244,29.028 L65.7384,64.584 C65.9684,64.738 66.0304,65.048 65.8764,65.278 C65.7804,65.422 65.6224,65.5 65.4604,65.5" id="Fill-87"></path>
            <path d="M65.4604,65.5 C65.3804,65.5 65.3004,65.481 65.2254,65.441 L8.7824,35.271 C8.5394,35.141 8.4464,34.838 8.5774,34.595 C8.7074,34.352 9.0094,34.26 9.2534,34.39 L65.6964,64.559 C65.9394,64.689 66.0324,64.992 65.9014,65.236 C65.8124,65.404 65.6394,65.5 65.4604,65.5" id="Fill-89"></path>
            <path d="M65.4609,65.5 C65.3969,65.5 65.3319,65.488 65.2699,65.462 L6.1409,40.97 C5.8859,40.865 5.7649,40.572 5.8709,40.317 C5.9759,40.062 6.2699,39.942 6.5239,40.046 L65.6519,64.538 C65.9069,64.644 66.0279,64.936 65.9229,65.191 C65.8429,65.384 65.6569,65.5 65.4609,65.5" id="Fill-91"></path>
            <path d="M65.4609,65.5 C65.4129,65.5 65.3639,65.493 65.3159,65.479 L4.0719,46.9 C3.8079,46.82 3.6579,46.541 3.7379,46.277 C3.8179,46.013 4.0969,45.863 4.3619,45.943 L65.6059,64.521 C65.8699,64.602 66.0199,64.881 65.9399,65.145 C65.8739,65.361 65.6759,65.5 65.4609,65.5" id="Fill-93"></path>
            <path d="M65.4614,65.5 C65.4294,65.5 65.3964,65.497 65.3634,65.49 L2.5924,53.004 C2.3224,52.951 2.1464,52.687 2.2004,52.417 C2.2544,52.146 2.5144,51.969 2.7884,52.024 L65.5584,64.51 C65.8294,64.563 66.0054,64.827 65.9514,65.098 C65.9034,65.335 65.6954,65.5 65.4614,65.5" id="Fill-95"></path>
            <path d="M65.4614,65.5 C65.4454,65.5 65.4284,65.499 65.4124,65.498 L1.7204,59.225 C1.4454,59.198 1.2444,58.953 1.2714,58.678 C1.2984,58.403 1.5384,58.207 1.8174,58.229 L65.5094,64.502 C65.7844,64.529 65.9854,64.774 65.9584,65.049 C65.9334,65.307 65.7154,65.5 65.4614,65.5" id="Fill-97"></path>
            <path d="M65.4609,65.5 L1.4609,65.5 C1.1849,65.5 0.9609,65.276 0.9609,65 C0.9609,64.724 1.1849,64.5 1.4609,64.5 L65.4609,64.5 C65.7369,64.5 65.9609,64.724 65.9609,65 C65.9609,65.276 65.7369,65.5 65.4609,65.5" id="Fill-99"></path>
            <path d="M1.7686,71.7729 C1.5146,71.7729 1.2966,71.5799 1.2716,71.3219 C1.2446,71.0469 1.4456,70.8019 1.7206,70.7749 L65.4126,64.5019 C65.6906,64.4779 65.9316,64.6759 65.9586,64.9509 C65.9856,65.2259 65.7846,65.4709 65.5096,65.4979 L1.8176,71.7709 C1.8016,71.7719 1.7846,71.7729 1.7686,71.7729" id="Fill-101"></path>
            <path d="M2.6899,77.9858 C2.4559,77.9858 2.2479,77.8208 2.1999,77.5838 C2.1459,77.3128 2.3219,77.0488 2.5929,76.9958 L65.3629,64.5098 C65.6369,64.4518 65.8969,64.6318 65.9509,64.9028 C66.0049,65.1728 65.8289,65.4368 65.5589,65.4898 L2.7879,77.9758 C2.7549,77.9828 2.7219,77.9858 2.6899,77.9858" id="Fill-103"></path>
            <path d="M4.2168,84.0781 C4.0018,84.0781 3.8038,83.9391 3.7378,83.7231 C3.6578,83.4591 3.8078,83.1801 4.0718,83.0991 L65.3158,64.5211 C65.5808,64.4411 65.8598,64.5911 65.9398,64.8551 C66.0198,65.1191 65.8698,65.3981 65.6058,65.4781 L4.3618,84.0571 C4.3138,84.0711 4.2648,84.0781 4.2168,84.0781" id="Fill-105"></path>
            <path d="M6.3325,89.9917 C6.1365,89.9917 5.9505,89.8757 5.8705,89.6827 C5.7655,89.4277 5.8865,89.1357 6.1415,89.0297 L65.2695,64.5377 C65.5235,64.4337 65.8175,64.5537 65.9225,64.8087 C66.0285,65.0637 65.9075,65.3567 65.6525,65.4617 L6.5235,89.9537 C6.4615,89.9797 6.3965,89.9917 6.3325,89.9917" id="Fill-107"></path>
            <path d="M9.0186,95.6694 C8.8396,95.6694 8.6666,95.5734 8.5776,95.4054 C8.4466,95.1614 8.5396,94.8584 8.7826,94.7284 L65.2256,64.5594 C65.4696,64.4284 65.7716,64.5204 65.9016,64.7644 C66.0326,65.0074 65.9396,65.3104 65.6966,65.4404 L9.2536,95.6104 C9.1786,95.6504 9.0986,95.6694 9.0186,95.6694" id="Fill-109"></path>
            <path d="M12.2471,101.0566 C12.0851,101.0566 11.9271,100.9786 11.8311,100.8346 C11.6771,100.6046 11.7391,100.2946 11.9691,100.1406 L65.1831,64.5846 C65.4141,64.4306 65.7231,64.4926 65.8761,64.7226 C66.0301,64.9516 65.9681,65.2626 65.7391,65.4156 L12.5241,100.9726 C12.4391,101.0296 12.3421,101.0566 12.2471,101.0566" id="Fill-111"></path>
            <path d="M15.9888,106.1011 C15.8438,106.1011 15.7008,106.0391 15.6018,105.9181 C15.4268,105.7051 15.4578,105.3901 15.6708,105.2141 L65.1438,64.6131 C65.3578,64.4381 65.6728,64.4701 65.8478,64.6831 C66.0228,64.8961 65.9918,65.2111 65.7788,65.3871 L16.3058,105.9881 C16.2128,106.0641 16.0998,106.1011 15.9888,106.1011" id="Fill-113"></path>
            <path d="M20.2061,110.7549 C20.0781,110.7549 19.9501,110.7059 19.8521,110.6089 C19.6571,110.4129 19.6571,110.0969 19.8521,109.9009 L65.1071,64.6469 C65.3031,64.4509 65.6191,64.4509 65.8141,64.6469 C66.0101,64.8419 66.0101,65.1579 65.8141,65.3539 L20.5601,110.6089 C20.4621,110.7059 20.3341,110.7549 20.2061,110.7549" id="Fill-115"></path>
            <path d="M24.8594,114.9727 C24.7484,114.9727 24.6354,114.9357 24.5424,114.8597 C24.3294,114.6837 24.2984,114.3687 24.4734,114.1557 L65.0744,64.6827 C65.2494,64.4707 65.5644,64.4387 65.7784,64.6137 C65.9914,64.7887 66.0224,65.1037 65.8474,65.3177 L25.2464,114.7897 C25.1474,114.9107 25.0044,114.9727 24.8594,114.9727" id="Fill-117"></path>
            <path d="M29.9038,118.7139 C29.8088,118.7139 29.7118,118.6869 29.6268,118.6299 C29.3968,118.4759 29.3348,118.1659 29.4888,117.9359 L65.0458,64.7219 C65.1978,64.4929 65.5078,64.4299 65.7388,64.5849 C65.9678,64.7379 66.0298,65.0479 65.8768,65.2779 L30.3198,118.4919 C30.2238,118.6359 30.0658,118.7139 29.9038,118.7139" id="Fill-119"></path>
            <path d="M35.291,121.9429 C35.211,121.9429 35.131,121.9239 35.056,121.8839 C34.812,121.7539 34.72,121.4509 34.851,121.2069 L65.02,64.7639 C65.15,64.5209 65.453,64.4289 65.697,64.5589 C65.94,64.6899 66.032,64.9919 65.902,65.2359 L35.732,121.6789 C35.643,121.8469 35.47,121.9429 35.291,121.9429" id="Fill-121"></path>
            <path d="M40.9692,124.6284 C40.9052,124.6284 40.8402,124.6164 40.7782,124.5904 C40.5232,124.4844 40.4022,124.1924 40.5072,123.9374 L64.9992,64.8084 C65.1042,64.5534 65.3982,64.4334 65.6522,64.5384 C65.9072,64.6434 66.0282,64.9364 65.9232,65.1914 L41.4312,124.3194 C41.3512,124.5124 41.1652,124.6284 40.9692,124.6284" id="Fill-123"></path>
            <path d="M46.8828,126.7441 C46.8348,126.7441 46.7858,126.7371 46.7378,126.7231 C46.4738,126.6421 46.3238,126.3631 46.4038,126.0991 L64.9828,64.8551 C65.0628,64.5911 65.3408,64.4421 65.6058,64.5211 C65.8698,64.6011 66.0198,64.8811 65.9398,65.1451 L47.3618,126.3891 C47.2958,126.6051 47.0978,126.7441 46.8828,126.7441" id="Fill-125"></path>
            <path d="M52.9756,128.27 C52.9436,128.27 52.9106,128.267 52.8776,128.26 C52.6066,128.207 52.4306,127.943 52.4846,127.672 L64.9706,64.902 C65.0246,64.631 65.2846,64.452 65.5586,64.51 C65.8296,64.563 66.0056,64.827 65.9516,65.098 L53.4656,127.868 C53.4176,128.105 53.2096,128.27 52.9756,128.27" id="Fill-127"></path>
            <path d="M59.1885,129.1919 C59.1725,129.1919 59.1555,129.1909 59.1395,129.1899 C58.8645,129.1629 58.6635,128.9179 58.6905,128.6429 L64.9635,64.9509 C64.9905,64.6759 65.2305,64.4769 65.5095,64.5029 C65.7845,64.5289 65.9855,64.7749 65.9585,65.0489 L59.6855,128.7409 C59.6605,128.9989 59.4425,129.1919 59.1885,129.1919" id="Fill-129"></path>
        </g>
    </g>
</svg>