<?xml version="1.0" encoding="UTF-8"?>
<svg width="130px" height="130px" viewBox="0 0 130 130" version="1.1" xmlns="http://www.w3.org/2000/svg" xmlns:xlink="http://www.w3.org/1999/xlink">
    <!-- Generator: Sketch 52.6 (67491) - http://www.bohemiancoding.com/sketch -->
    <title>Group 5</title>
    <desc>Created with Sketch.</desc>
    <g id="Web-Page" stroke="none" stroke-width="1" fill="none" fill-rule="evenodd">
        <g id="Group-5" fill="#FCBA59">
            <path d="M65,1.5 C29.986,1.5 1.5,29.986 1.5,65 C1.5,100.014 29.986,128.5 65,128.5 C100.014,128.5 128.5,100.014 128.5,65 C128.5,29.986 100.014,1.5 65,1.5 M65,129.5 C29.435,129.5 0.5,100.565 0.5,65 C0.5,29.435 29.435,0.5 65,0.5 C100.565,0.5 129.5,29.435 129.5,65 C129.5,100.565 100.565,129.5 65,129.5" id="Fill-3"></path>
            <path d="M65,5.5 C32.191,5.5 5.5,32.191 5.5,65 C5.5,97.809 32.191,124.5 65,124.5 C97.809,124.5 124.5,97.809 124.5,65 C124.5,32.191 97.809,5.5 65,5.5 M65,125.5 C31.64,125.5 4.5,98.36 4.5,65 C4.5,31.64 31.64,4.5 65,4.5 C98.36,4.5 125.5,31.64 125.5,65 C125.5,98.36 98.36,125.5 65,125.5" id="Fill-5"></path>
            <path d="M65,9.5 C34.397,9.5 9.5,34.397 9.5,65 C9.5,95.603 34.397,120.5 65,120.5 C95.603,120.5 120.5,95.603 120.5,65 C120.5,34.397 95.603,9.5 65,9.5 M65,121.5 C33.846,121.5 8.5,96.154 8.5,65 C8.5,33.846 33.846,8.5 65,8.5 C96.154,8.5 121.5,33.846 121.5,65 C121.5,96.154 96.154,121.5 65,121.5" id="Fill-7"></path>
            <path d="M65,17.5 C38.809,17.5 17.5,38.809 17.5,65 C17.5,91.191 38.809,112.5 65,112.5 C91.191,112.5 112.5,91.191 112.5,65 C112.5,38.809 91.191,17.5 65,17.5 M65,113.5 C38.257,113.5 16.5,91.743 16.5,65 C16.5,38.257 38.257,16.5 65,16.5 C91.743,16.5 113.5,38.257 113.5,65 C113.5,91.743 91.743,113.5 65,113.5" id="Fill-9"></path>
            <path d="M65,13.5 C36.603,13.5 13.5,36.603 13.5,65 C13.5,93.397 36.603,116.5 65,116.5 C93.397,116.5 116.5,93.397 116.5,65 C116.5,36.603 93.397,13.5 65,13.5 M65,117.5 C36.051,117.5 12.5,93.949 12.5,65 C12.5,36.051 36.051,12.5 65,12.5 C93.949,12.5 117.5,36.051 117.5,65 C117.5,93.949 93.949,117.5 65,117.5" id="Fill-11"></path>
            <path d="M65,21.5 C41.014,21.5 21.5,41.014 21.5,65 C21.5,88.986 41.014,108.5 65,108.5 C88.986,108.5 108.5,88.986 108.5,65 C108.5,41.014 88.986,21.5 65,21.5 M65,109.5 C40.462,109.5 20.5,89.538 20.5,65 C20.5,40.462 40.462,20.5 65,20.5 C89.538,20.5 109.5,40.462 109.5,65 C109.5,89.538 89.538,109.5 65,109.5" id="Fill-13"></path>
            <path d="M65,25.5 C43.22,25.5 25.5,43.22 25.5,65 C25.5,86.78 43.22,104.5 65,104.5 C86.78,104.5 104.5,86.78 104.5,65 C104.5,43.22 86.78,25.5 65,25.5 M65,105.5 C42.668,105.5 24.5,87.332 24.5,65 C24.5,42.668 42.668,24.5 65,24.5 C87.332,24.5 105.5,42.668 105.5,65 C105.5,87.332 87.332,105.5 65,105.5" id="Fill-15"></path>
            <path d="M65,29.5 C45.425,29.5 29.5,45.425 29.5,65 C29.5,84.575 45.425,100.5 65,100.5 C84.575,100.5 100.5,84.575 100.5,65 C100.5,45.425 84.575,29.5 65,29.5 M65,101.5 C44.874,101.5 28.5,85.126 28.5,65 C28.5,44.874 44.874,28.5 65,28.5 C85.126,28.5 101.5,44.874 101.5,65 C101.5,85.126 85.126,101.5 65,101.5" id="Fill-17"></path>
            <path d="M65,33.5 C47.631,33.5 33.5,47.631 33.5,65 C33.5,82.369 47.631,96.5 65,96.5 C82.369,96.5 96.5,82.369 96.5,65 C96.5,47.631 82.369,33.5 65,33.5 M65,97.5 C47.08,97.5 32.5,82.92 32.5,65 C32.5,47.08 47.08,32.5 65,32.5 C82.92,32.5 97.5,47.08 97.5,65 C97.5,82.92 82.92,97.5 65,97.5" id="Fill-19"></path>
            <path d="M65,37.5 C49.836,37.5 37.5,49.836 37.5,65 C37.5,80.164 49.836,92.5 65,92.5 C80.164,92.5 92.5,80.164 92.5,65 C92.5,49.836 80.164,37.5 65,37.5 M65,93.5 C49.285,93.5 36.5,80.715 36.5,65 C36.5,49.285 49.285,36.5 65,36.5 C80.715,36.5 93.5,49.285 93.5,65 C93.5,80.715 80.715,93.5 65,93.5" id="Fill-21"></path>
            <path d="M65,41.5 C52.042,41.5 41.5,52.042 41.5,65 C41.5,77.958 52.042,88.5 65,88.5 C77.958,88.5 88.5,77.958 88.5,65 C88.5,52.042 77.958,41.5 65,41.5 M65,89.5 C51.491,89.5 40.5,78.509 40.5,65 C40.5,51.491 51.491,40.5 65,40.5 C78.509,40.5 89.5,51.491 89.5,65 C89.5,78.509 78.509,89.5 65,89.5" id="Fill-23"></path>
            <path d="M65,45.5 C54.248,45.5 45.5,54.248 45.5,65 C45.5,75.752 54.248,84.5 65,84.5 C75.752,84.5 84.5,75.752 84.5,65 C84.5,54.248 75.752,45.5 65,45.5 M65,85.5 C53.696,85.5 44.5,76.304 44.5,65 C44.5,53.696 53.696,44.5 65,44.5 C76.304,44.5 85.5,53.696 85.5,65 C85.5,76.304 76.304,85.5 65,85.5" id="Fill-25"></path>
            <path d="M65,49.5 C56.453,49.5 49.5,56.453 49.5,65 C49.5,73.547 56.453,80.5 65,80.5 C73.547,80.5 80.5,73.547 80.5,65 C80.5,56.453 73.547,49.5 65,49.5 M65,81.5 C55.902,81.5 48.5,74.098 48.5,65 C48.5,55.902 55.902,48.5 65,48.5 C74.098,48.5 81.5,55.902 81.5,65 C81.5,74.098 74.098,81.5 65,81.5" id="Fill-27"></path>
            <path d="M65,53.5 C58.659,53.5 53.5,58.659 53.5,65 C53.5,71.341 58.659,76.5 65,76.5 C71.341,76.5 76.5,71.341 76.5,65 C76.5,58.659 71.341,53.5 65,53.5 M65,77.5 C58.107,77.5 52.5,71.893 52.5,65 C52.5,58.107 58.107,52.5 65,52.5 C71.893,52.5 77.5,58.107 77.5,65 C77.5,71.893 71.893,77.5 65,77.5" id="Fill-29"></path>
            <path d="M65,57.5 C60.864,57.5 57.5,60.864 57.5,65 C57.5,69.136 60.864,72.5 65,72.5 C69.136,72.5 72.5,69.136 72.5,65 C72.5,60.864 69.136,57.5 65,57.5 M65,73.5 C60.313,73.5 56.5,69.687 56.5,65 C56.5,60.313 60.313,56.5 65,56.5 C69.687,56.5 73.5,60.313 73.5,65 C73.5,69.687 69.687,73.5 65,73.5" id="Fill-31"></path>
            <path d="M65,61.5 C63.07,61.5 61.5,63.07 61.5,65 C61.5,66.93 63.07,68.5 65,68.5 C66.93,68.5 68.5,66.93 68.5,65 C68.5,63.07 66.93,61.5 65,61.5 M65,69.5 C62.519,69.5 60.5,67.481 60.5,65 C60.5,62.519 62.519,60.5 65,60.5 C67.481,60.5 69.5,62.519 69.5,65 C69.5,67.481 67.481,69.5 65,69.5" id="Fill-33"></path>
        </g>
    </g>
</svg>