<?xml version="1.0" encoding="UTF-8"?>
<svg width="130px" height="130px" viewBox="0 0 130 130" version="1.1" xmlns="http://www.w3.org/2000/svg" xmlns:xlink="http://www.w3.org/1999/xlink">
    <!-- Generator: Sketch 52.6 (67491) - http://www.bohemiancoding.com/sketch -->
    <title>Group 6</title>
    <desc>Created with Sketch.</desc>
    <g id="Web-Page" stroke="none" stroke-width="1" fill="none" fill-rule="evenodd">
        <g id="Group-6" fill="#FCBA59">
            <path d="M65,1.3921 C29.927,1.3921 1.392,29.9271 1.392,65.0001 C1.392,100.0731 29.927,128.6081 65,128.6081 C100.073,128.6081 128.608,100.0731 128.608,65.0001 C128.608,29.9271 100.073,1.3921 65,1.3921 M65,129.3921 C29.494,129.3921 0.608,100.5061 0.608,65.0001 C0.608,29.4941 29.494,0.6081 65,0.6081 C100.506,0.6081 129.392,29.4941 129.392,65.0001 C129.392,100.5061 100.506,129.3921 65,129.3921" id="Fill-3"></path>
            <path d="M65,1.3921 C32.132,1.3921 5.392,29.9271 5.392,65.0001 C5.392,100.0731 32.132,128.6081 65,128.6081 C97.868,128.6081 124.608,100.0731 124.608,65.0001 C124.608,29.9271 97.868,1.3921 65,1.3921 M65,129.3921 C31.7,129.3921 4.608,100.5061 4.608,65.0001 C4.608,29.4941 31.7,0.6081 65,0.6081 C98.3,0.6081 125.392,29.4941 125.392,65.0001 C125.392,100.5061 98.3,129.3921 65,129.3921" id="Fill-5"></path>
            <path d="M65,1.3921 C34.338,1.3921 9.392,29.9271 9.392,65.0001 C9.392,100.0731 34.338,128.6081 65,128.6081 C95.662,128.6081 120.608,100.0731 120.608,65.0001 C120.608,29.9271 95.662,1.3921 65,1.3921 M65,129.3921 C33.905,129.3921 8.608,100.5061 8.608,65.0001 C8.608,29.4941 33.905,0.6081 65,0.6081 C96.095,0.6081 121.392,29.4941 121.392,65.0001 C121.392,100.5061 96.095,129.3921 65,129.3921" id="Fill-7"></path>
            <path d="M65,1.3921 C36.543,1.3921 13.392,29.9271 13.392,65.0001 C13.392,100.0731 36.543,128.6081 65,128.6081 C93.457,128.6081 116.608,100.0731 116.608,65.0001 C116.608,29.9271 93.457,1.3921 65,1.3921 M65,129.3921 C36.111,129.3921 12.608,100.5061 12.608,65.0001 C12.608,29.4941 36.111,0.6081 65,0.6081 C93.889,0.6081 117.392,29.4941 117.392,65.0001 C117.392,100.5061 93.889,129.3921 65,129.3921" id="Fill-9"></path>
            <path d="M65,1.3921 C38.749,1.3921 17.392,29.9271 17.392,65.0001 C17.392,100.0731 38.749,128.6081 65,128.6081 C91.251,128.6081 112.608,100.0731 112.608,65.0001 C112.608,29.9271 91.251,1.3921 65,1.3921 M65,129.3921 C38.316,129.3921 16.608,100.5061 16.608,65.0001 C16.608,29.4941 38.316,0.6081 65,0.6081 C91.684,0.6081 113.392,29.4941 113.392,65.0001 C113.392,100.5061 91.684,129.3921 65,129.3921" id="Fill-11"></path>
            <path d="M65,1.3921 C40.955,1.3921 21.392,29.9271 21.392,65.0001 C21.392,100.0731 40.955,128.6081 65,128.6081 C89.045,128.6081 108.608,100.0731 108.608,65.0001 C108.608,29.9271 89.045,1.3921 65,1.3921 M65,129.3921 C40.522,129.3921 20.608,100.5061 20.608,65.0001 C20.608,29.4941 40.522,0.6081 65,0.6081 C89.478,0.6081 109.392,29.4941 109.392,65.0001 C109.392,100.5061 89.478,129.3921 65,129.3921" id="Fill-13"></path>
            <path d="M65,1.3921 C43.16,1.3921 25.392,29.9271 25.392,65.0001 C25.392,100.0731 43.16,128.6081 65,128.6081 C86.84,128.6081 104.608,100.0731 104.608,65.0001 C104.608,29.9271 86.84,1.3921 65,1.3921 M65,129.3921 C42.728,129.3921 24.608,100.5061 24.608,65.0001 C24.608,29.4941 42.728,0.6081 65,0.6081 C87.272,0.6081 105.392,29.4941 105.392,65.0001 C105.392,100.5061 87.272,129.3921 65,129.3921" id="Fill-15"></path>
            <path d="M65,1.3921 C45.366,1.3921 29.392,29.9271 29.392,65.0001 C29.392,100.0731 45.366,128.6081 65,128.6081 C84.634,128.6081 100.608,100.0731 100.608,65.0001 C100.608,29.9271 84.634,1.3921 65,1.3921 M65,129.3921 C44.933,129.3921 28.608,100.5061 28.608,65.0001 C28.608,29.4941 44.933,0.6081 65,0.6081 C85.067,0.6081 101.392,29.4941 101.392,65.0001 C101.392,100.5061 85.067,129.3921 65,129.3921" id="Fill-17"></path>
            <path d="M65,1.3921 C47.571,1.3921 33.392,29.9271 33.392,65.0001 C33.392,100.0731 47.571,128.6081 65,128.6081 C82.429,128.6081 96.608,100.0731 96.608,65.0001 C96.608,29.9271 82.429,1.3921 65,1.3921 M65,129.3921 C47.139,129.3921 32.608,100.5061 32.608,65.0001 C32.608,29.4941 47.139,0.6081 65,0.6081 C82.861,0.6081 97.392,29.4941 97.392,65.0001 C97.392,100.5061 82.861,129.3921 65,129.3921" id="Fill-19"></path>
            <path d="M65,1.3921 C49.777,1.3921 37.392,29.9271 37.392,65.0001 C37.392,100.0731 49.777,128.6081 65,128.6081 C80.223,128.6081 92.608,100.0731 92.608,65.0001 C92.608,29.9271 80.223,1.3921 65,1.3921 M65,129.3921 C49.344,129.3921 36.608,100.5061 36.608,65.0001 C36.608,29.4941 49.344,0.6081 65,0.6081 C80.656,0.6081 93.392,29.4941 93.392,65.0001 C93.392,100.5061 80.656,129.3921 65,129.3921" id="Fill-21"></path>
            <path d="M65,1.3921 C51.982,1.3921 41.392,29.9271 41.392,65.0001 C41.392,100.0731 51.982,128.6081 65,128.6081 C78.018,128.6081 88.608,100.0731 88.608,65.0001 C88.608,29.9271 78.018,1.3921 65,1.3921 M65,129.3921 C51.55,129.3921 40.608,100.5061 40.608,65.0001 C40.608,29.4941 51.55,0.6081 65,0.6081 C78.45,0.6081 89.392,29.4941 89.392,65.0001 C89.392,100.5061 78.45,129.3921 65,129.3921" id="Fill-23"></path>
            <path d="M65,1.3921 C54.188,1.3921 45.392,29.9271 45.392,65.0001 C45.392,100.0731 54.188,128.6081 65,128.6081 C75.812,128.6081 84.608,100.0731 84.608,65.0001 C84.608,29.9271 75.812,1.3921 65,1.3921 M65,129.3921 C53.756,129.3921 44.608,100.5061 44.608,65.0001 C44.608,29.4941 53.756,0.6081 65,0.6081 C76.244,0.6081 85.392,29.4941 85.392,65.0001 C85.392,100.5061 76.244,129.3921 65,129.3921" id="Fill-25"></path>
            <path d="M65,1.3921 C56.394,1.3921 49.392,29.9271 49.392,65.0001 C49.392,100.0731 56.394,128.6081 65,128.6081 C73.606,128.6081 80.608,100.0731 80.608,65.0001 C80.608,29.9271 73.606,1.3921 65,1.3921 M65,129.3921 C55.808,129.3921 48.608,101.1081 48.608,65.0001 C48.608,28.8921 55.808,0.6081 65,0.6081 C74.192,0.6081 81.392,28.8921 81.392,65.0001 C81.392,101.1081 74.192,129.3921 65,129.3921" id="Fill-27"></path>
            <path d="M65,1.3921 C58.057,1.3921 53.392,34.2821 53.392,65.0001 C53.392,95.7181 58.057,128.6081 65,128.6081 C71.943,128.6081 76.608,95.7181 76.608,65.0001 C76.608,34.2821 71.943,1.3921 65,1.3921 M65,129.3921 C58.051,129.3921 52.608,101.1081 52.608,65.0001 C52.608,28.8921 58.051,0.6081 65,0.6081 C71.949,0.6081 77.392,28.8921 77.392,65.0001 C77.392,101.1081 71.949,129.3921 65,129.3921" id="Fill-29"></path>
            <path d="M65,1.3921 C61.326,1.3921 57.392,26.9521 57.392,65.0001 C57.392,103.0481 61.326,128.6081 65,128.6081 C68.674,128.6081 72.608,103.0481 72.608,65.0001 C72.608,26.9521 68.674,1.3921 65,1.3921 M65,129.3921 C62.571,129.3921 60.537,122.9701 58.954,110.3031 C57.441,98.2001 56.608,82.1111 56.608,65.0001 C56.608,47.8891 57.441,31.8001 58.954,19.6971 C60.537,7.0301 62.571,0.6081 65,0.6081 C67.429,0.6081 69.463,7.0301 71.046,19.6971 C72.559,31.8001 73.392,47.8891 73.392,65.0001 C73.392,82.1111 72.559,98.2001 71.046,110.3031 C69.463,122.9701 67.429,129.3921 65,129.3921" id="Fill-31"></path>
            <path d="M65,1.417 C63.248,2.891 61.392,28.561 61.392,65 C61.392,101.439 63.248,127.109 65,128.583 C66.752,127.109 68.608,101.439 68.608,65 C68.608,28.561 66.752,2.891 65,1.417 M65,129.392 C64.394,129.392 62.975,129.392 61.78,110.279 C61.024,98.183 60.608,82.103 60.608,65 C60.608,47.897 61.024,31.817 61.78,19.721 C62.975,0.608 64.394,0.608 65,0.608 C65.606,0.608 67.025,0.608 68.22,19.721 C68.976,31.817 69.392,47.897 69.392,65 C69.392,82.103 68.976,98.183 68.22,110.279 C67.025,129.392 65.606,129.392 65,129.392" id="Fill-33"></path>
            <polygon id="Fill-35" points="64.608 129 65.392 129 65.392 1 64.608 1"></polygon>
        </g>
    </g>
</svg>