<svg width="230" height="230" viewBox="0 0 230 230" fill="none" xmlns="http://www.w3.org/2000/svg">
<path d="M229.348 114.52C229.348 177.758 178.084 229.022 114.846 229.022C51.6078 229.022 0.347656 177.758 0.347656 114.52C0.347656 112.398 0.405259 110.286 0.523665 108.193C3.80383 47.899 53.7327 0.0214844 114.846 0.0214844C175.959 0.0214844 225.891 47.899 229.172 108.193C229.29 110.286 229.348 112.398 229.348 114.52Z" fill="white"/>
<path d="M1.02287 108.221L1.02293 108.22C4.28874 48.1899 53.9997 0.521484 114.846 0.521484C175.692 0.521484 225.407 48.19 228.672 108.22L228.672 108.221C228.79 110.305 228.848 112.407 228.848 114.52C228.848 177.482 177.808 228.522 114.846 228.522C51.8839 228.522 0.847656 177.482 0.847656 114.52C0.847656 112.407 0.905015 110.305 1.02287 108.221Z" stroke="black" stroke-opacity="0.4"/>
<circle cx="84.9849" cy="84.3101" r="13.4722" fill="url(#paint0_linear_2105_13543)"/>
<circle cx="84.9849" cy="114.521" r="13.4722" fill="url(#paint1_linear_2105_13543)"/>
<circle cx="84.9849" cy="144.732" r="13.4722" fill="url(#paint2_linear_2105_13543)"/>
<circle cx="116.5" cy="84.3101" r="13.4722" fill="url(#paint3_linear_2105_13543)"/>
<circle cx="116.5" cy="114.521" r="13.4722" fill="url(#paint4_linear_2105_13543)"/>
<circle cx="116.5" cy="144.732" r="13.4722" fill="url(#paint5_linear_2105_13543)"/>
<circle cx="148.015" cy="84.3101" r="13.4722" fill="url(#paint6_linear_2105_13543)"/>
<circle cx="148.015" cy="114.521" r="13.4722" fill="url(#paint7_linear_2105_13543)"/>
<circle cx="148.015" cy="144.732" r="13.4722" fill="url(#paint8_linear_2105_13543)"/>
<circle cx="116.5" cy="114.521" r="74.9803" stroke="url(#paint9_radial_2105_13543)" stroke-width="2"/>
<defs>
<linearGradient id="paint0_linear_2105_13543" x1="112.598" y1="62.0155" x2="49.8663" y2="111.467" gradientUnits="userSpaceOnUse">
<stop offset="0.522789" stop-color="#FFC012"/>
<stop offset="1" stop-color="white"/>
</linearGradient>
<linearGradient id="paint1_linear_2105_13543" x1="112.598" y1="92.2265" x2="49.8663" y2="141.678" gradientUnits="userSpaceOnUse">
<stop offset="0.522789" stop-color="#FFC012"/>
<stop offset="1" stop-color="white"/>
</linearGradient>
<linearGradient id="paint2_linear_2105_13543" x1="112.598" y1="122.437" x2="49.8663" y2="171.888" gradientUnits="userSpaceOnUse">
<stop offset="0.522789" stop-color="#FFC012"/>
<stop offset="1" stop-color="white"/>
</linearGradient>
<linearGradient id="paint3_linear_2105_13543" x1="144.113" y1="62.0155" x2="81.3814" y2="111.467" gradientUnits="userSpaceOnUse">
<stop offset="0.522789" stop-color="#FFC012"/>
<stop offset="1" stop-color="white"/>
</linearGradient>
<linearGradient id="paint4_linear_2105_13543" x1="144.113" y1="92.2265" x2="81.3814" y2="141.678" gradientUnits="userSpaceOnUse">
<stop offset="0.522789" stop-color="#FFC012"/>
<stop offset="1" stop-color="white"/>
</linearGradient>
<linearGradient id="paint5_linear_2105_13543" x1="144.113" y1="122.437" x2="81.3814" y2="171.888" gradientUnits="userSpaceOnUse">
<stop offset="0.522789" stop-color="#FFC012"/>
<stop offset="1" stop-color="white"/>
</linearGradient>
<linearGradient id="paint6_linear_2105_13543" x1="175.628" y1="62.0155" x2="112.897" y2="111.467" gradientUnits="userSpaceOnUse">
<stop offset="0.522789" stop-color="#FFC012"/>
<stop offset="1" stop-color="white"/>
</linearGradient>
<linearGradient id="paint7_linear_2105_13543" x1="175.628" y1="92.2265" x2="112.897" y2="141.678" gradientUnits="userSpaceOnUse">
<stop offset="0.522789" stop-color="#FFC012"/>
<stop offset="1" stop-color="white"/>
</linearGradient>
<linearGradient id="paint8_linear_2105_13543" x1="175.628" y1="122.437" x2="112.897" y2="171.888" gradientUnits="userSpaceOnUse">
<stop offset="0.522789" stop-color="#FFC012"/>
<stop offset="1" stop-color="white"/>
</linearGradient>
<radialGradient id="paint9_radial_2105_13543" cx="0" cy="0" r="1" gradientUnits="userSpaceOnUse" gradientTransform="translate(186.364 18.6639) rotate(130.907) scale(462.562)">
<stop/>
<stop offset="1" stop-color="#2762FF" stop-opacity="0.08"/>
</radialGradient>
</defs>
</svg>
