<svg width="230" height="230" viewBox="0 0 230 230" fill="none" xmlns="http://www.w3.org/2000/svg">
<path d="M229.653 114.52C229.653 177.758 178.39 229.022 115.152 229.022C51.9134 229.022 0.65332 177.758 0.65332 114.52C0.65332 112.398 0.710923 110.286 0.829329 108.193C4.10949 47.899 54.0383 0.0214844 115.152 0.0214844C176.265 0.0214844 226.197 47.899 229.477 108.193C229.596 110.286 229.653 112.398 229.653 114.52Z" fill="white"/>
<path d="M1.32853 108.221L1.32859 108.22C4.5944 48.1899 54.3054 0.521484 115.152 0.521484C175.998 0.521484 225.712 48.19 228.978 108.22L228.978 108.221C229.096 110.305 229.153 112.407 229.153 114.52C229.153 177.482 178.114 228.522 115.152 228.522C52.1896 228.522 1.15332 177.482 1.15332 114.52C1.15332 112.407 1.21068 110.305 1.32853 108.221Z" stroke="black" stroke-opacity="0.4"/>
<circle cx="115.154" cy="114.521" r="45.7259" fill="url(#paint0_radial_2105_13543)"/>
<defs>
<radialGradient id="paint0_radial_2105_13543" cx="0" cy="0" r="1" gradientUnits="userSpaceOnUse" gradientTransform="translate(132.026 128.171) rotate(-164.055) scale(152.787)">
<stop stop-color="#FFC012"/>
<stop offset="1" stop-color="#FFC012" stop-opacity="0.31"/>
</radialGradient>
</defs>
</svg>
