<?xml version="1.0" encoding="UTF-8"?>
<svg width="380px" height="85px" viewBox="0 0 380 85" version="1.1" xmlns="http://www.w3.org/2000/svg" xmlns:xlink="http://www.w3.org/1999/xlink">
    <!-- Generator: Sketch 52.6 (67491) - http://www.bohemiancoding.com/sketch -->
    <title>youtube-wordmark</title>
    <desc>Created with Sketch.</desc>
    <g id="Page-1" stroke="none" stroke-width="1" fill="none" fill-rule="evenodd">
        <g id="med" transform="translate(0.000000, -1.000000)" fill="#222321">
            <path d="M189.340106,69.9913451 C190.003492,68.2551418 190.33668,65.4184433 190.33668,61.4822493 L190.33668,44.8958595 C190.33668,41.0746128 190.003492,38.2818942 189.340106,36.5157046 C188.675724,34.7505145 187.505572,33.8669199 185.830649,33.8669199 C184.212588,33.8669199 183.070368,34.7505145 182.406983,36.5157046 C181.7426,38.2818942 181.410409,41.0746128 181.410409,44.8958595 L181.410409,61.4822493 C181.410409,65.4184433 181.727637,68.2551418 182.364087,69.9913451 C182.998543,71.7285481 184.153731,72.59615 185.830649,72.59615 C187.505572,72.59615 188.675724,71.7285481 189.340106,69.9913451 Z M175.907803,78.3275203 C173.508643,76.7082633 171.803793,74.189419 170.794251,70.7729865 C169.782713,67.3585531 169.277942,62.8136384 169.277942,57.1402415 L169.277942,49.4117875 C169.277942,43.6804172 169.854538,39.0775291 171.010724,35.6041228 C172.165912,32.1307165 173.970519,29.5988782 176.427538,28.0066087 C178.882562,26.4143393 182.103721,25.6177048 186.091015,25.6177048 C190.019453,25.6177048 193.167789,26.4293324 195.537022,28.049589 C197.905257,29.6708451 199.639037,32.203683 200.737363,35.6481026 C201.833694,39.0925223 202.383356,43.6804172 202.383356,49.4117875 L202.383356,57.1402415 C202.383356,62.8136384 201.848658,67.3725467 200.780259,70.8169663 C199.710862,74.261386 197.977082,76.7802302 195.579917,78.3705006 C193.181755,79.96277 189.932664,80.7594045 185.830649,80.7594045 C181.611918,80.7594045 178.303971,79.9477769 175.907803,78.3275203 Z M361.496043,34.8624631 C360.890517,35.6151178 360.484505,36.8455532 360.282995,38.5527699 C360.079491,40.2609861 359.980731,42.8507979 359.980731,46.3242042 L359.980731,50.1454509 L368.732428,50.1454509 L368.732428,46.3242042 C368.732428,42.9097708 368.616709,40.3189595 368.38627,38.5527699 C368.154834,36.7875798 367.736851,35.5431508 367.130327,34.8194828 C366.522806,34.0948153 365.584091,33.7329813 364.313185,33.7329813 C363.041281,33.7329813 362.102566,34.110808 361.496043,34.8624631 Z M359.980731,57.2661838 L359.980731,59.9579487 C359.980731,63.3743812 360.079491,65.9362057 360.282995,67.6434224 C360.484505,69.3516387 360.902487,70.5960677 361.539936,71.3777091 C362.175389,72.1593504 363.156002,72.5501711 364.486762,72.5501711 C366.276406,72.5501711 367.505414,71.8554898 368.169797,70.4651278 C368.833182,69.0767648 369.194303,66.7608274 369.252162,63.5183151 L379.566056,64.1260363 C379.623915,64.590823 379.652845,65.2275309 379.652845,66.0371594 C379.652845,70.9579017 378.310114,74.6342149 375.622655,77.0660991 C372.937192,79.4959842 369.136444,80.7124261 364.226396,80.7124261 C358.33374,80.7124261 354.201798,78.8612754 351.833563,75.154976 C349.463333,71.4516751 348.279215,65.7193053 348.279215,57.960865 L348.279215,48.6691283 C348.279215,40.679794 349.507226,34.8484695 351.963247,31.1711568 C354.418271,27.4958431 358.622038,25.6576865 364.573551,25.6576865 C368.674568,25.6576865 371.823902,26.4103411 374.019558,27.9146509 C376.214215,29.4209598 377.760452,31.7658839 378.656271,34.9484237 C379.55209,38.1339621 380,42.5339432 380,48.1483672 L380,57.2661838 L359.980731,57.2661838 Z M146.784695,56.269641 L133.177817,7.03223227 L145.050916,7.03223227 L149.817313,29.3499924 C151.031358,34.8504686 151.92618,39.5393173 152.503774,43.4175378 L152.850929,43.4175378 C153.254945,40.6388128 154.150765,35.9789508 155.537389,29.4369525 L160.477364,7.03223227 L172.350463,7.03223227 L158.571005,56.269641 L158.571005,79.890803 L146.784695,79.890803 L146.784695,56.269641 Z M240.999357,26.6592269 L240.999357,79.890803 L231.639142,79.890803 L230.598674,73.3777914 L230.339306,73.3777914 C227.796495,78.2985336 223.982779,80.758405 218.899153,80.758405 C215.374733,80.758405 212.775061,79.6019356 211.09914,77.2849986 C209.42322,74.9710603 208.586257,71.351721 208.586257,66.4309787 L208.586257,26.6592269 L220.546144,26.6592269 L220.546144,65.7362975 C220.546144,68.1112078 220.80651,69.8034314 221.326245,70.8159668 C221.84598,71.8295018 222.71287,72.3352697 223.925917,72.3352697 C224.966384,72.3352697 225.962959,72.0184151 226.91564,71.3797081 C227.869318,70.7439998 228.576596,69.9343713 229.03947,68.949823 L229.03947,26.6592269 L240.999357,26.6592269 Z M302.346026,26.6592269 L302.346026,79.890803 L292.985811,79.890803 L291.945344,73.3777914 L291.686973,73.3777914 C289.142167,78.2985336 285.329448,80.758405 280.245823,80.758405 C276.721402,80.758405 274.12173,79.6019356 272.44581,77.2849986 C270.769889,74.9710603 269.932926,71.351721 269.932926,66.4309787 L269.932926,26.6592269 L281.892814,26.6592269 L281.892814,65.7362975 C281.892814,68.1112078 282.152182,69.8034314 282.671917,70.8159668 C283.192649,71.8295018 284.059539,72.3352697 285.272586,72.3352697 C286.313054,72.3352697 287.309628,72.0184151 288.262309,71.3797081 C289.215987,70.7439998 289.923266,69.9343713 290.386139,68.949823 L290.386139,26.6592269 L302.346026,26.6592269 Z M273.498248,16.6728089 L261.625149,16.6728089 L261.625149,79.890803 L249.925628,79.890803 L249.925628,16.6728089 L238.05253,16.6728089 L238.05253,7.03423135 L273.498248,7.03423135 L273.498248,16.6728089 Z M330.966358,56.8813603 L330.966358,50.0215078 C330.966358,45.8534202 330.835676,42.6398946 330.57531,40.3829302 C330.314944,38.1249662 329.852071,36.5177036 329.188685,35.5631416 C328.523305,34.6085796 327.585588,34.1307988 326.371543,34.1307988 C325.215357,34.1307988 324.147956,34.594586 323.165348,35.5191618 C322.182739,36.4467362 321.489427,37.6341914 321.085411,39.0795282 L321.085411,69.298663 C321.606143,70.2262374 322.283494,70.9199191 323.122452,71.3827068 C323.959415,71.8474935 324.8692,72.077388 325.852806,72.077388 C327.121717,72.077388 328.134252,71.6155999 328.885424,70.689025 C329.636595,69.7634497 330.171294,68.2011665 330.488521,65.9991768 C330.805749,63.8001858 330.966358,60.7605804 330.966358,56.8813603 Z M341.928674,35.1683228 C342.649918,38.5277814 343.012036,43.1876433 343.012036,49.1499077 L343.012036,57.573043 C343.012036,65.5044039 342.058358,71.3357283 340.151998,75.0710145 C338.244641,78.8043016 335.268885,80.6714449 331.225727,80.6714449 C328.972212,80.6714449 326.920207,80.1506838 325.071707,79.1091617 C323.222209,78.06664 321.835584,76.6482908 320.911833,74.854114 L320.652464,74.854114 L319.43842,79.8898035 L309.559467,79.8898035 L309.559467,4.34146686 L321.085411,4.34146686 L321.084413,32.3905973 L321.172199,32.3905973 C322.211669,30.3645269 323.68608,28.7292772 325.592439,27.4838486 C327.498799,26.2404191 329.549806,25.6177048 331.745462,25.6177048 C334.575573,25.6177048 336.800158,26.3703595 338.418219,27.8746693 C340.035283,29.3809781 341.205434,31.8118628 341.928674,35.1683228 Z M118.657163,14.2719105 C121.189,23.7425652 121.189,43.4995002 121.189,43.4995002 C121.189,43.4995002 121.189,63.2574348 118.657163,72.7270899 C117.263556,77.9506932 113.157551,82.0668046 107.943243,83.4621644 C98.4922491,86 60.5945002,86 60.5945002,86 C60.5945002,86 22.6977489,86 13.2467546,83.4621644 C8.03244733,82.0668046 3.92644221,77.9506932 2.53283455,72.7270899 C0,63.2574348 0,43.4995002 0,43.4995002 C0,43.4995002 0,23.7425652 2.53283455,14.2719105 C3.92644221,9.04830725 8.03244733,4.93319536 13.2467546,3.53683604 C22.6977489,1 60.5945002,1 60.5945002,1 C60.5945002,1 98.4922491,1 107.943243,3.53683604 C113.157551,4.93319536 117.263556,9.04830725 118.657163,14.2719105 Z M48.4759992,61.7141429 L79.9603597,43.5004998 L48.4759992,25.2848575 L48.4759992,61.7141429 Z" id="youtube-wordmark"></path>
        </g>
    </g>
</svg>