<svg width="105" height="50" viewBox="0 0 105 50" fill="none" xmlns="http://www.w3.org/2000/svg">
<path d="M64.3915 37.6976L54.4342 13.5443C54.356 13.3241 54.3147 13.0925 54.3119 12.8588C54.2933 12.3646 54.4689 11.8828 54.8011 11.5165C54.9719 11.3416 55.1781 11.2053 55.4059 11.1167C55.6337 11.0281 55.8778 10.9892 56.1218 11.0026C56.4916 11.0074 56.8508 11.127 57.1496 11.3448C57.4629 11.5777 57.7078 11.8904 57.8588 12.2503L67.3269 35.8897L76.7949 12.2503C76.9459 11.8904 77.1908 11.5777 77.5041 11.3448C77.803 11.127 78.1621 11.0074 78.5319 11.0026C78.776 10.9892 79.0201 11.0281 79.2479 11.1167C79.4756 11.2053 79.6818 11.3416 79.8526 11.5165C80.1856 11.8836 80.3613 12.3667 80.3419 12.8619C80.3391 13.0956 80.2978 13.3272 80.2196 13.5474L70.2623 37.7006C70.0917 38.2318 69.7597 38.6966 69.3123 39.0299C68.8649 39.3632 68.3246 39.5485 67.7668 39.5599H66.8859C66.328 39.5481 65.7876 39.3622 65.3403 39.0284C64.8932 38.6944 64.5614 38.2291 64.3915 37.6976Z" fill="black"/>
<path d="M84.5761 38.8243C84.407 38.6541 84.2743 38.4514 84.1861 38.2284C84.0977 38.0054 84.0555 37.7669 84.0622 37.5272V13.0594C84.0532 12.5684 84.2378 12.0936 84.5761 11.7377C84.7416 11.5609 84.9428 11.4214 85.1666 11.3287C85.3902 11.236 85.6311 11.1922 85.8732 11.2001H102.049C102.277 11.1938 102.505 11.2363 102.716 11.3249C102.927 11.4136 103.116 11.5462 103.272 11.714C103.438 11.871 103.569 12.0609 103.657 12.2714C103.746 12.482 103.79 12.7087 103.786 12.9371C103.792 13.1623 103.749 13.3862 103.661 13.5933C103.572 13.8004 103.439 13.9858 103.272 14.1366C103.11 14.2945 102.919 14.419 102.709 14.5029C102.499 14.5869 102.275 14.6286 102.049 14.6258H87.7325V23.5337H100.601C100.83 23.5274 101.058 23.5699 101.269 23.6586C101.479 23.7472 101.669 23.8798 101.825 24.0476C101.989 24.206 102.119 24.3962 102.207 24.6064C102.295 24.8166 102.34 25.0426 102.338 25.2707C102.345 25.4959 102.302 25.7198 102.213 25.9269C102.125 26.134 101.992 26.3194 101.825 26.4701C101.663 26.628 101.472 26.7526 101.262 26.8365C101.052 26.9204 100.828 26.9622 100.601 26.9594H87.7325V35.9146H102.049C102.277 35.9082 102.505 35.9506 102.716 36.0393C102.927 36.1279 103.116 36.2606 103.272 36.4285C103.438 36.5854 103.569 36.7752 103.657 36.9858C103.746 37.1964 103.79 37.4232 103.786 37.6515C103.792 37.8767 103.749 38.1006 103.661 38.3077C103.572 38.5148 103.439 38.7002 103.272 38.851C103.11 39.0088 102.919 39.1334 102.709 39.2173C102.499 39.3013 102.275 39.343 102.049 39.3402H85.8732C85.6321 39.3579 85.39 39.3207 85.1653 39.2313C84.9407 39.1419 84.7392 39.0027 84.5761 38.8243Z" fill="black"/>
<path d="M56.6848 37.0114L46.7275 12.8582C46.5565 12.3275 46.2241 11.8635 45.7768 11.5307C45.3294 11.198 44.7894 11.0131 44.232 11.002H43.3512C42.7934 11.0134 42.2531 11.1987 41.8057 11.532C41.3584 11.8653 41.0262 12.33 40.8557 12.8612L36.5256 23.3828H33.2469C32.7741 23.3855 32.3212 23.5746 31.9869 23.9089C31.6524 24.2434 31.4633 24.6962 31.4606 25.1691V25.1938C31.4633 25.6666 31.6524 26.1195 31.9869 26.4539C32.3212 26.7883 32.7741 26.9774 33.2469 26.9801H35.0086L30.8738 37.0124C30.7955 37.2326 30.7542 37.4642 30.7515 37.6979C30.732 38.1931 30.9077 38.6762 31.2407 39.0433C31.4115 39.2181 31.6177 39.3545 31.8454 39.4431C32.0733 39.5317 32.3174 39.5707 32.5614 39.5572C32.9312 39.5524 33.2903 39.4328 33.5892 39.215C33.9025 38.9822 34.1474 38.6694 34.2984 38.3095L38.8495 26.9811H41.9812C42.454 26.9784 42.9069 26.7893 43.2413 26.455C43.5757 26.1205 43.7648 25.6677 43.7675 25.1948V25.1444C43.7648 24.6715 43.5757 24.2187 43.2413 23.8842C42.9069 23.5499 42.454 23.3608 41.9812 23.3581H40.2935L43.788 14.6722L53.2561 38.3115C53.4071 38.6715 53.652 38.9842 53.9653 39.217C54.2641 39.4349 54.6233 39.5544 54.9931 39.5593C55.2372 39.5727 55.4813 39.5338 55.709 39.4452C55.9368 39.3566 56.143 39.2202 56.3138 39.0454C56.6468 38.6782 56.8224 38.1952 56.803 37.7C56.8141 37.4646 56.7738 37.2296 56.6848 37.0114Z" fill="black"/>
<path d="M26.9348 37.0114L16.9775 12.8582C16.8065 12.3275 16.4741 11.8635 16.0268 11.5307C15.5794 11.198 15.0394 11.0131 14.482 11.002H13.6012C13.0434 11.0134 12.5031 11.1987 12.0557 11.532C11.6083 11.8653 11.2762 12.33 11.1057 12.8612L6.77561 23.3828H3.49694C3.02402 23.3855 2.57122 23.5746 2.23681 23.9089C1.9024 24.2434 1.71333 24.6962 1.71063 25.1691V25.1938C1.71333 25.6666 1.9024 26.1195 2.23681 26.4539C2.57122 26.7883 3.02402 26.9774 3.49694 26.9801H5.25858L1.12376 37.0114C1.04554 37.2316 1.00422 37.4632 1.00145 37.6969C0.982042 38.1921 1.15771 38.6752 1.49068 39.0423C1.66147 39.2171 1.86767 39.3535 2.09546 39.4421C2.32324 39.5307 2.56735 39.5696 2.8114 39.5562C3.18119 39.5514 3.54034 39.4318 3.8392 39.2139C4.15246 38.9811 4.39739 38.6684 4.54838 38.3084L9.09946 26.9801H12.2558C12.7287 26.9774 13.1816 26.7883 13.516 26.4539C13.8503 26.1195 14.0395 25.6666 14.0421 25.1938V25.1444C14.0395 24.6715 13.8503 24.2187 13.516 23.8842C13.1816 23.5499 12.7287 23.3608 12.2558 23.3581H10.5671L14.0411 14.6722L23.5092 38.3115C23.6601 38.6715 23.9051 38.9842 24.2183 39.217C24.5172 39.4349 24.8763 39.5544 25.2461 39.5593C25.4902 39.5727 25.7343 39.5338 25.9621 39.4452C26.1899 39.3566 26.396 39.2202 26.5668 39.0454C26.8999 38.6782 27.0755 38.1952 27.0561 37.7C27.0662 37.4643 27.0248 37.2294 26.9348 37.0114Z" fill="black"/>
</svg>
