<svg width="194" height="50" viewBox="0 0 194 50" fill="none" xmlns="http://www.w3.org/2000/svg">
<path d="M5.89554 23.7363C6.18596 23.7363 6.49942 23.7363 6.83132 23.7454C7.16322 23.75 7.49512 23.7727 7.82241 23.8C8.1497 23.8319 8.45395 23.8774 8.73975 23.9411C9.02556 24.0048 9.26526 24.0959 9.46809 24.2233C9.91063 24.4827 10.284 24.8468 10.5929 25.3065C10.9017 25.7661 11.0538 26.3305 11.0538 27.004C11.0538 27.714 10.8787 28.3239 10.5329 28.8427C10.1872 29.357 9.69397 29.7393 9.0486 29.9896V30.026C9.87836 30.1989 10.5145 30.5721 10.957 31.1456C11.3996 31.719 11.6208 32.4153 11.6208 33.2345C11.6208 33.7215 11.5333 34.1948 11.3581 34.6545C11.1829 35.1141 10.9202 35.5237 10.5744 35.8787C10.2287 36.2337 9.79999 36.5204 9.28831 36.7389C8.77663 36.9573 8.19119 37.0666 7.52278 37.0666H1V23.7363H5.89554ZM6.38878 29.4662C7.40754 29.4662 8.14509 29.2887 8.59224 28.9337C9.03938 28.5787 9.26526 28.0462 9.26526 27.3363C9.26526 26.863 9.19151 26.4898 9.03938 26.2167C8.88726 25.9436 8.67982 25.7297 8.41707 25.5841C8.15431 25.4384 7.84546 25.3383 7.49973 25.2928C7.154 25.2473 6.78522 25.2291 6.39339 25.2291H2.79319V29.4662H6.38418H6.38878ZM7.2969 35.5693C8.08978 35.5693 8.71209 35.3599 9.15924 34.9366C9.60638 34.5134 9.83226 33.9308 9.83226 33.1845C9.83226 32.7476 9.74928 32.388 9.58794 32.1013C9.42199 31.8146 9.20533 31.587 8.93797 31.4186C8.666 31.2502 8.35714 31.1319 8.00219 31.0636C7.64724 30.9954 7.28307 30.959 6.90508 30.959H2.79319V35.5693H7.29229H7.2969Z" fill="black"/>
<path d="M22.3479 23.7969V35.6252H29.493V37.118H20.5547V23.7969H22.3479Z" fill="black"/>
<path d="M90.7793 23.7363H88.4514L82.0715 30.381V23.7363H80.2783V37.062H82.0715V32.3971L90.7793 23.7363Z" fill="black"/>
<path d="M84.4181 29.623C83.9018 29.8916 83.3902 30.1737 82.8877 30.465L88.8158 37.1005H91.0838L84.4181 29.6276V29.623Z" fill="black"/>
<path d="M98.0525 25.2291V23.7363H108.844V25.2291H104.345V37.0575H102.547V25.2291H98.0479H98.0525Z" fill="black"/>
<path d="M117.081 27.7773C117.372 26.9399 117.805 26.1935 118.391 25.5473C118.971 24.901 119.695 24.3822 120.557 23.9999C121.424 23.613 122.429 23.4219 123.577 23.4219C124.724 23.4219 125.729 23.613 126.596 23.9999C127.458 24.3867 128.182 24.901 128.763 25.5473C129.343 26.1935 129.781 26.9353 130.072 27.7773C130.362 28.6147 130.505 29.4931 130.505 30.3987C130.505 31.3044 130.358 32.1828 130.072 33.0202C129.781 33.8622 129.343 34.604 128.763 35.2502C128.182 35.8965 127.458 36.4108 126.596 36.7885C125.729 37.1663 124.724 37.3574 123.577 37.3574C122.429 37.3574 121.419 37.1663 120.557 36.7885C119.691 36.4108 118.971 35.8965 118.391 35.2502C117.81 34.604 117.372 33.8622 117.081 33.0202C116.791 32.1828 116.644 31.309 116.644 30.3987C116.644 29.4885 116.791 28.6147 117.081 27.7773ZM118.856 32.3876C119.045 33.0384 119.34 33.63 119.746 34.1489C120.152 34.6723 120.672 35.091 121.309 35.4095C121.945 35.7281 122.701 35.8874 123.577 35.8874C124.452 35.8874 125.213 35.7281 125.845 35.4095C126.481 35.091 127.002 34.6723 127.407 34.1489C127.813 33.6255 128.108 33.0384 128.297 32.3876C128.486 31.7368 128.583 31.0723 128.583 30.3987C128.583 29.7252 128.486 29.0653 128.297 28.4099C128.108 27.7591 127.813 27.1674 127.407 26.6486C127.002 26.1252 126.481 25.7065 125.845 25.388C125.208 25.0694 124.452 24.9101 123.577 24.9101C122.701 24.9101 121.94 25.0694 121.309 25.388C120.672 25.7065 120.152 26.1252 119.746 26.6486C119.34 27.172 119.045 27.7591 118.856 28.4099C118.667 29.0653 118.57 29.7252 118.57 30.3987C118.57 31.0723 118.663 31.7322 118.856 32.3876Z" fill="black"/>
<path d="M150.082 37.0614L147.003 25.8656H146.966L143.845 37.0614H141.974L138.056 23.7402H139.89L142.997 34.8222H143.034L146.215 23.7402H147.722L150.991 34.8222H151.027L154.231 23.7402H156.024L151.954 37.0614H150.082Z" fill="black"/>
<path d="M186.03 31.6378C188.663 31.6378 189.336 31.4102 189.336 31.4102C190.156 31.1872 191.078 30.236 191.447 29.6262C191.816 29.0163 192.005 28.0697 192.005 27.2642C192.005 26.181 191.641 25.3299 190.917 24.7064C190.193 24.0829 189.188 23.7734 187.902 23.7734H181.665V37.0946H183.458V31.6378H186.017C186.017 31.6378 186.021 31.6378 186.026 31.6378H186.03ZM183.463 25.2617H187.81C188.653 25.2617 189.266 25.471 189.644 25.8943C190.022 26.3175 190.211 26.8637 190.211 27.5372C190.211 28.0242 190.129 28.4156 189.958 28.7205C189.787 29.0254 189.562 29.5033 189.276 29.6853C188.99 29.8674 188.663 29.9857 188.285 30.0494C187.907 30.1132 187.51 30.145 187.095 30.145H183.463V25.2617Z" fill="black"/>
<path d="M36.8725 27.7773C37.1629 26.9399 37.5962 26.1935 38.1817 25.5473C38.7625 24.901 39.4862 24.3822 40.3482 23.9999C41.2149 23.613 42.2198 23.4219 43.3676 23.4219C44.5154 23.4219 45.5204 23.613 46.387 23.9999C47.249 24.3867 47.9727 24.901 48.5536 25.5473C49.1344 26.1935 49.5723 26.9353 49.8627 27.7773C50.1532 28.6147 50.2961 29.4931 50.2961 30.3987C50.2961 31.3044 50.1485 32.1828 49.8627 33.0202C49.5723 33.8622 49.1344 34.604 48.5536 35.2502C47.9727 35.8965 47.249 36.4108 46.387 36.7885C45.5204 37.1663 44.5154 37.3574 43.3676 37.3574C42.2198 37.3574 41.2103 37.1663 40.3482 36.7885C39.4816 36.4108 38.7625 35.8965 38.1817 35.2502C37.6008 34.604 37.1629 33.8622 36.8725 33.0202C36.5821 32.1828 36.4346 31.309 36.4346 30.3987C36.4346 29.4885 36.5821 28.6147 36.8725 27.7773ZM38.6472 32.3876C38.8362 33.0384 39.1313 33.63 39.5369 34.1489C39.9426 34.6723 40.4635 35.091 41.0996 35.4095C41.7358 35.7281 42.4918 35.8874 43.3676 35.8874C44.2435 35.8874 45.0041 35.7281 45.6356 35.4095C46.2718 35.091 46.7927 34.6723 47.1983 34.1489C47.604 33.6255 47.899 33.0384 48.088 32.3876C48.277 31.7368 48.3738 31.0723 48.3738 30.3987C48.3738 29.7252 48.277 29.0653 48.088 28.4099C47.899 27.7591 47.604 27.1674 47.1983 26.6486C46.7927 26.1252 46.2718 25.7065 45.6356 25.388C44.9995 25.0694 44.2435 24.9101 43.3676 24.9101C42.4918 24.9101 41.7312 25.0694 41.0996 25.388C40.4635 25.7065 39.9426 26.1252 39.5369 26.6486C39.1313 27.172 38.8362 27.7591 38.6472 28.4099C38.4582 29.0653 38.3614 29.7252 38.3614 30.3987C38.3614 31.0723 38.4536 31.7322 38.6472 32.3876Z" fill="black"/>
<path d="M70.1004 33.6892C70.0036 33.8485 69.8975 34.0032 69.7823 34.1489C69.3766 34.6723 68.8557 35.091 68.2196 35.4095C67.5835 35.7281 66.8274 35.8874 65.9516 35.8874C65.0757 35.8874 64.3151 35.7281 63.6836 35.4095C63.0475 35.091 62.5266 34.6723 62.1209 34.1489C61.7152 33.6255 61.4202 33.0384 61.2312 32.3876C61.0422 31.7368 60.9454 31.0723 60.9454 30.3987C60.9454 29.7252 61.0376 29.0653 61.2312 28.4099C61.4202 27.7591 61.7152 27.1674 62.1209 26.6486C62.5266 26.1252 63.0475 25.7065 63.6836 25.388C64.3198 25.0694 65.0757 24.9101 65.9516 24.9101C66.8274 24.9101 67.5881 25.0694 68.2196 25.388C68.8557 25.7065 69.3766 26.1252 69.7823 26.6486C69.8791 26.7715 69.9667 26.8989 70.0497 27.0264C70.5429 26.6941 71.0315 26.3573 71.5248 26.0206C71.4049 25.8567 71.2758 25.6974 71.1376 25.5473C70.5567 24.901 69.833 24.3822 68.971 23.9999C68.1043 23.613 67.0994 23.4219 65.9516 23.4219C64.8038 23.4219 63.7942 23.613 62.9322 23.9999C62.0656 24.3867 61.3465 24.901 60.7656 25.5473C60.1848 26.1935 59.7469 26.9353 59.4565 27.7773C59.1661 28.6147 59.0186 29.4931 59.0186 30.3987C59.0186 31.3044 59.1661 32.1828 59.4565 33.0202C59.7469 33.8622 60.1848 34.604 60.7656 35.2502C61.3465 35.8965 62.0702 36.4108 62.9322 36.7885C63.7989 37.1663 64.8038 37.3574 65.9516 37.3574C67.0994 37.3574 68.1043 37.1663 68.971 36.7885C69.833 36.4108 70.5567 35.8965 71.1376 35.2502C71.3219 35.0454 71.4879 34.827 71.64 34.604C71.1099 34.3218 70.589 34.026 70.0958 33.6892H70.1004Z" fill="black"/>
<path d="M187.837 30.5879C187.233 30.7517 186.615 30.8746 185.993 30.9656L189.769 37.096H192.037L187.837 30.5879Z" fill="black"/>
<path opacity="0.7" d="M173.466 23.8418H164.707V25.3073H173.466V23.8418Z" fill="black"/>
<path opacity="0.7" d="M173.469 29.7812H162.815V31.2467H173.469V29.7812Z" fill="black"/>
<path opacity="0.7" d="M173.464 35.6465H160.972V37.1119H173.464V35.6465Z" fill="black"/>
<path opacity="0.7" d="M173.468 17.9297H152.268V19.3951H173.468V17.9297Z" fill="black"/>
<path opacity="0.7" d="M173.464 12H137.882V13.4655H173.464V12Z" fill="black"/>
<path opacity="0.7" d="M135.194 12H129.542V13.4655H135.194V12Z" fill="black"/>
<path opacity="0.7" d="M126.864 12H123.476V13.4655H126.864V12Z" fill="black"/>
<path opacity="0.7" d="M149.543 17.9297H146.155V19.3951H149.543V17.9297Z" fill="black"/>
</svg>
