<svg width="165" height="50" viewBox="0 0 165 50" fill="none" xmlns="http://www.w3.org/2000/svg">
<path d="M69.4667 30.5343C69.3113 30.4081 69.116 30.3413 68.9158 30.3459C68.7156 30.3505 68.5236 30.4262 68.3742 30.5594C67.0376 31.5964 65.4876 32.5562 63.2218 32.5562C59.074 32.5562 55.6995 29.0632 55.6995 24.7666C55.6995 20.4699 59.0615 16.9465 63.1913 16.9465C64.9853 16.9465 66.9228 17.7018 68.3472 18.9522C68.4275 19.0453 68.5273 19.1197 68.6396 19.1699C68.7518 19.2201 68.8737 19.245 68.9967 19.2428C69.1032 19.2344 69.2066 19.2027 69.2996 19.15C69.3926 19.0973 69.4729 19.0249 69.5349 18.9379L70.884 17.5493C70.9698 17.4662 71.0376 17.3663 71.083 17.2557C71.1283 17.1452 71.1504 17.0265 71.1477 16.907C71.1426 16.7857 71.1126 16.6666 71.0595 16.5574C71.0064 16.4481 70.9314 16.351 70.8391 16.272C68.4836 14.2196 66.1173 13.3047 63.159 13.3047C56.8441 13.3047 51.7061 18.475 51.7061 24.8294C51.7084 27.867 52.9155 30.7796 55.0626 32.9284C57.2097 35.0771 60.1214 36.2865 63.159 36.2913C64.5859 36.3081 66.0022 36.0426 67.3261 35.51C68.65 34.9773 69.8555 34.1881 70.8732 33.1876C70.9625 33.0966 71.0326 32.9885 71.0795 32.8699C71.1263 32.7513 71.1489 32.6245 71.1459 32.4969C71.1435 32.3954 71.1206 32.2955 71.0787 32.203C71.0368 32.1105 70.9767 32.0275 70.9019 31.9587L69.4667 30.5343Z" fill="black"/>
<path d="M79.2849 13.6172H77.2415C77.0135 13.6248 76.797 13.7191 76.636 13.8807C76.4751 14.0424 76.3817 14.2593 76.375 14.4873V35.1183C76.3813 35.3467 76.4744 35.564 76.6354 35.726C76.7964 35.8881 77.0132 35.9825 77.2415 35.9902H79.2849C79.5132 35.9825 79.7299 35.8881 79.8909 35.726C80.052 35.564 80.1451 35.3467 80.1514 35.1183V14.4873C80.1447 14.2593 80.0513 14.0424 79.8904 13.8807C79.7294 13.7191 79.5129 13.6248 79.2849 13.6172Z" fill="black"/>
<path d="M103.466 20.5618C103.466 16.7334 100.314 13.6172 96.4385 13.6172H88.012C87.7819 13.6181 87.5615 13.7102 87.3991 13.8733C87.2367 14.0364 87.1455 14.2571 87.1455 14.4873V35.1183C87.145 35.3488 87.236 35.57 87.3984 35.7335C87.5609 35.8969 87.7816 35.9893 88.012 35.9902H90.0249C90.2532 35.9825 90.4699 35.8881 90.631 35.726C90.792 35.564 90.8851 35.3467 90.8914 35.1183V27.4454H95.1145L99.16 35.5453C99.2336 35.678 99.3415 35.7885 99.4725 35.8652C99.6035 35.9419 99.7527 35.982 99.9045 35.9812H102.319C102.472 35.9863 102.623 35.951 102.757 35.8788C102.892 35.8067 103.005 35.7003 103.085 35.5704C103.162 35.4333 103.202 35.2789 103.202 35.1219C103.202 34.9649 103.162 34.8106 103.085 34.6734L98.9806 27.0238C101.754 25.7913 103.466 23.3407 103.466 20.5618ZM99.6892 20.6246C99.6892 22.5675 98.0871 24.2126 96.1909 24.2126H90.9542V17.1962H96.1837C98.0835 17.1962 99.682 18.766 99.682 20.6246H99.6892Z" fill="black"/>
<path d="M125.46 30.5343C125.304 30.4081 125.109 30.3413 124.909 30.3459C124.709 30.3505 124.517 30.4262 124.367 30.5594C123.031 31.5964 121.481 32.5562 119.215 32.5562C115.067 32.5562 111.693 29.0632 111.693 24.7666C111.693 20.4699 115.053 16.9465 119.183 16.9465C120.977 16.9465 122.914 17.7018 124.34 18.9522C124.421 19.0463 124.522 19.1211 124.635 19.1714C124.748 19.2217 124.871 19.2461 124.995 19.2428C125.102 19.2344 125.205 19.2027 125.298 19.15C125.391 19.0973 125.471 19.0249 125.533 18.9379L126.882 17.5493C126.968 17.4661 127.036 17.3661 127.081 17.2556C127.126 17.1451 127.147 17.0264 127.144 16.907C127.14 16.7857 127.111 16.6666 127.058 16.5573C127.005 16.4479 126.93 16.3508 126.838 16.272C124.487 14.2196 122.121 13.3047 119.163 13.3047C112.848 13.3047 107.71 18.475 107.71 24.8294C107.712 27.867 108.919 30.7796 111.067 32.9284C113.214 35.0771 116.125 36.2865 119.163 36.2913C120.59 36.308 122.006 36.0423 123.33 35.5097C124.654 34.9771 125.859 34.1879 126.877 33.1876C126.967 33.0963 127.037 32.988 127.084 32.869C127.13 32.7501 127.153 32.623 127.15 32.4952C127.147 32.3936 127.125 32.2936 127.083 32.2011C127.041 32.1087 126.981 32.0256 126.906 31.957L125.46 30.5343Z" fill="black"/>
<path d="M144.253 32.526H136.145V14.4873C136.138 14.2593 136.044 14.0424 135.884 13.8807C135.723 13.7191 135.506 13.6248 135.278 13.6172H133.235C133.005 13.6181 132.784 13.7102 132.622 13.8733C132.459 14.0364 132.368 14.2571 132.368 14.4873V35.1183C132.368 35.3488 132.459 35.57 132.621 35.7335C132.784 35.8969 133.004 35.9893 133.235 35.9902H144.253C144.368 35.99 144.481 35.9672 144.586 35.9233C144.692 35.8794 144.788 35.8151 144.868 35.7341C144.949 35.6531 145.013 35.5571 145.056 35.4514C145.1 35.3458 145.122 35.2326 145.122 35.1183V33.4051C145.123 33.2902 145.101 33.1762 145.058 33.0697C145.015 32.9633 144.951 32.8664 144.871 32.7846C144.79 32.7029 144.694 32.638 144.588 32.5936C144.482 32.5492 144.368 32.5262 144.253 32.526Z" fill="black"/>
<path d="M162.61 17.1108C162.841 17.1098 163.061 17.0177 163.223 16.8546C163.386 16.6916 163.477 16.4708 163.477 16.2407V14.4951C163.477 14.2649 163.386 14.0442 163.223 13.8811C163.061 13.718 162.841 13.6259 162.61 13.625H150.232C150.002 13.6259 149.781 13.718 149.619 13.8811C149.456 14.0442 149.365 14.2649 149.365 14.4951V35.1261C149.365 35.3566 149.456 35.5778 149.618 35.7413C149.781 35.9047 150.001 35.9971 150.232 35.998H162.61C162.841 35.9971 163.061 35.9047 163.224 35.7413C163.386 35.5778 163.477 35.3566 163.477 35.1261V33.4129C163.477 33.1827 163.386 32.962 163.223 32.7989C163.061 32.6358 162.841 32.5437 162.61 32.5428H153.102V26.3875H161.087C161.318 26.3871 161.539 26.2952 161.701 26.1321C161.864 25.9689 161.956 25.7479 161.956 25.5175V23.7737C161.949 23.545 161.856 23.3274 161.694 23.1654C161.533 23.0033 161.316 22.909 161.087 22.9018H153.108V17.1108H162.61Z" fill="black"/>
<path d="M39.856 14.4841L38.959 12.9089C38.8886 12.7855 38.7907 12.68 38.6728 12.6006C38.555 12.5212 38.4204 12.4702 38.2795 12.4514C38.1387 12.4327 37.9954 12.4467 37.8609 12.4925C37.7264 12.5382 37.6042 12.6144 37.504 12.7152L35.4409 14.7765C35.2901 14.9281 35.1962 15.1271 35.1753 15.34C35.1544 15.5528 35.2077 15.7663 35.3261 15.9444C36.0784 17.094 36.6812 18.3346 37.1201 19.6364C37.9401 22.0701 38.169 24.6639 37.7881 27.2035C37.4072 29.7432 36.4273 32.1557 34.9294 34.2416C33.4316 36.3276 31.4587 38.0271 29.174 39.1997C26.8894 40.3723 24.3584 40.9843 21.7903 40.9851C19.1467 40.9924 16.5423 40.3459 14.2089 39.1032L17.6982 35.6121C19.8604 36.4299 22.2182 36.5803 24.4668 36.044C26.7154 35.5078 28.7515 34.3093 30.3118 32.6037C31.8722 30.8981 32.8851 28.7636 33.2196 26.4763C33.5542 24.1889 33.1949 21.8538 32.1884 19.7728C32.1245 19.6395 32.0296 19.5236 31.9115 19.4346C31.7935 19.3456 31.6559 19.2862 31.5102 19.2615C31.3645 19.2367 31.215 19.2472 31.0743 19.2922C30.9335 19.3371 30.8055 19.4152 30.7012 19.5198L28.6129 21.5937C28.5016 21.7049 28.4206 21.8427 28.3775 21.9941C28.3345 22.1454 28.3309 22.3053 28.3672 22.4584L28.5466 23.2083C28.8553 24.5219 28.7738 25.8971 28.3121 27.165C27.8504 28.433 27.0285 29.5385 25.9475 30.3461C24.8664 31.1536 23.573 31.6279 22.2262 31.7109C20.8794 31.7939 19.5376 31.4818 18.3656 30.8131L17.4453 30.2857C17.2694 30.1844 17.065 30.144 16.8638 30.171C16.6626 30.1979 16.476 30.2906 16.333 30.4346L7.80966 38.9561C7.71662 39.0491 7.64453 39.161 7.59821 39.2841C7.55189 39.4073 7.5324 39.5389 7.54107 39.6702C7.54973 39.8015 7.58634 39.9294 7.64844 40.0454C7.71054 40.1614 7.7967 40.2628 7.90116 40.3428L9.15696 41.3062C12.7785 44.0971 17.2254 45.6042 21.7975 45.5903C25.4376 45.5857 29.0127 44.6263 32.1661 42.808C35.3195 40.9897 37.9408 38.3762 39.7683 35.2281C41.5959 32.0801 42.5657 28.5078 42.5811 24.8678C42.5965 21.2278 41.6568 17.6474 39.856 14.4841Z" fill="black"/>
<path d="M34.4348 8.28597C30.8137 5.49411 26.3667 3.98631 21.7943 4.00009C18.1525 4.00292 14.5752 4.9614 11.4198 6.77976C8.26443 8.59811 5.64148 11.2127 3.81303 14.3622C1.98458 17.5117 1.01466 21.0859 1.00016 24.7277C0.985672 28.3695 1.92712 31.9513 3.73044 35.1153L4.62745 36.6887C4.69809 36.812 4.79618 36.9174 4.91412 36.9967C5.03206 37.076 5.16668 37.1271 5.30754 37.146C5.44841 37.1649 5.59173 37.1511 5.72641 37.1057C5.86109 37.0603 5.98351 36.9845 6.08418 36.8842L8.1437 34.8247C8.2935 34.6729 8.38664 34.4742 8.40754 34.262C8.42844 34.0497 8.37583 33.8367 8.25851 33.6586C7.50554 32.5094 6.90265 31.2687 6.46451 29.9665C5.64456 27.5329 5.41558 24.9391 5.79651 22.3994C6.17744 19.8598 7.15734 17.4473 8.6552 15.3613C10.1531 13.2754 12.1259 11.5759 14.4106 10.4033C16.6953 9.23068 19.2262 8.61868 21.7943 8.61786C24.4379 8.61188 27.0418 9.26025 29.3739 10.5052L25.8828 13.9945C24.134 13.3317 22.2503 13.1034 20.3938 13.3293C18.5372 13.5551 16.7633 14.2284 15.2244 15.2912C13.6855 16.354 12.4276 17.7746 11.559 19.4309C10.6903 21.0871 10.2367 22.9295 10.2373 24.7998C10.2373 24.9917 10.2893 25.8672 10.3055 26.0179C10.4469 27.3429 10.8153 28.6337 11.3944 29.8338C11.4586 29.967 11.5537 30.083 11.6718 30.172C11.79 30.2609 11.9278 30.3203 12.0736 30.345C12.2194 30.3698 12.369 30.3593 12.5099 30.3143C12.6508 30.2694 12.7789 30.1913 12.8835 30.0867L14.9717 27.9967C15.0829 27.8858 15.164 27.7483 15.2073 27.5973C15.2506 27.4463 15.2547 27.2868 15.2193 27.1338L15.0399 26.3821C14.7307 25.0685 14.812 23.6931 15.2736 22.425C15.7353 21.1569 16.5572 20.0513 17.6385 19.2438C18.7197 18.4363 20.0133 17.9622 21.3603 17.8796C22.7073 17.7971 24.049 18.1097 25.2208 18.7791L26.1411 19.3065C26.3173 19.4069 26.5215 19.4467 26.7224 19.4198C26.9234 19.3929 27.1099 19.3008 27.2534 19.1576L35.775 10.6361C35.8681 10.543 35.9404 10.4311 35.9869 10.3079C36.0333 10.1847 36.053 10.053 36.0445 9.92153C36.036 9.7901 35.9996 9.66199 35.9376 9.54577C35.8757 9.42954 35.7896 9.32788 35.6853 9.24756L34.4348 8.28597Z" fill="black"/>
</svg>
