<svg width="194" height="50" viewBox="0 0 194 50" fill="none" xmlns="http://www.w3.org/2000/svg">
<path d="M3.83601 36.2383C4.84427 36.2383 5.63198 36.976 5.63198 37.8555V39.0472C5.63198 39.9551 4.81276 40.6644 3.83601 40.6644C2.82774 40.6644 2.04004 39.9267 2.04004 39.0472V37.8555C2.04004 36.9476 2.82774 36.2383 3.83601 36.2383Z" fill="black"/>
<path d="M35.2822 36.2383C36.2905 36.2383 37.0782 36.976 37.0782 37.8555V39.0472C37.0782 39.9551 36.259 40.6644 35.2822 40.6644C34.2739 40.6644 33.4862 39.9267 33.4862 39.0472V37.8555C33.4547 36.9476 34.2739 36.2383 35.2822 36.2383Z" fill="black"/>
<path d="M57.9366 36.2383C58.9449 36.2383 59.7326 36.976 59.7326 37.8555V39.0472C59.7326 39.9551 58.9133 40.6644 57.9366 40.6644C56.9283 40.6644 56.1406 39.9267 56.1406 39.0472V37.8555C56.1406 36.9476 56.9598 36.2383 57.9366 36.2383Z" fill="black"/>
<path d="M26.5215 36.2383C27.5297 36.2383 28.3174 36.976 28.3174 37.8555V39.0472C28.3174 39.9551 27.4982 40.6644 26.5215 40.6644C25.5132 40.6644 24.7255 39.9267 24.7255 39.0472V37.8555C24.694 36.9476 25.5132 36.2383 26.5215 36.2383Z" fill="black"/>
<path d="M178.298 16.8283C178.046 16.8283 177.919 16.9418 177.667 17.0553C177.51 17.2255 177.415 17.4242 177.415 17.6511V34.9867C177.415 35.2137 177.541 35.3272 177.667 35.5825C177.793 35.696 178.046 35.8095 178.298 35.8095C178.55 35.8095 178.676 35.696 178.928 35.5825C179.085 35.4123 179.18 35.2137 179.18 34.9867V27.0992H184.095L188.601 35.469C188.727 35.696 188.979 35.9514 189.388 35.9514C189.515 35.9514 189.641 35.9514 189.767 35.8379C190.019 35.7244 190.145 35.6109 190.145 35.3556C190.271 35.1286 190.145 35.0151 190.145 34.7597L186.017 27.0992C187.435 26.8722 188.727 26.2764 189.641 25.3401C190.68 24.4038 191.058 23.3256 191.058 22.0489C191.058 20.6302 190.428 19.467 189.262 18.3888C188.097 17.4525 186.679 16.8567 185.009 16.8567C185.009 16.8283 178.298 16.8283 178.298 16.8283ZM187.971 24.3754C187.183 25.0847 186.175 25.4252 185.009 25.4252H179.211V18.3604H184.883C186.049 18.3604 187.088 18.7009 187.971 19.4102C188.884 20.1195 189.262 20.9423 189.262 21.8786C189.262 22.8433 188.758 23.6661 187.971 24.3754ZM169.538 35.8095C169.79 35.8095 169.916 35.696 170.168 35.5825C170.326 35.4123 170.421 35.2137 170.421 34.9867C170.421 34.7597 170.295 34.6462 170.168 34.3909C169.979 34.249 169.759 34.1639 169.538 34.1639H158.826V27.0992H166.829C167.081 27.0992 167.207 26.9857 167.459 26.8722C167.616 26.702 167.711 26.5033 167.711 26.2764C167.711 26.0494 167.585 25.9359 167.459 25.6805C167.27 25.5387 167.049 25.4536 166.829 25.4536H158.826V18.3888H169.538C169.79 18.3888 169.916 18.2753 170.168 18.1618C170.326 17.9916 170.421 17.793 170.421 17.566C170.421 17.339 170.295 17.2255 170.168 16.9702C169.979 16.8283 169.759 16.7432 169.538 16.7432H157.943C157.691 16.7432 157.565 16.8567 157.313 16.9702C157.156 17.1404 157.061 17.339 157.061 17.566V34.9867C157.061 35.2137 157.187 35.3272 157.313 35.5825C157.439 35.696 157.691 35.8095 157.943 35.8095H169.538ZM137.431 35.469C137.589 35.2988 137.683 35.1002 137.683 34.8732V29.7946L140.267 27.3261L148.9 35.5825C149.026 35.696 149.279 35.8095 149.531 35.8095C149.783 35.8095 149.909 35.696 150.161 35.5825C150.318 35.4123 150.413 35.2137 150.413 34.9867C150.413 34.7597 150.287 34.6462 150.161 34.3909L141.527 26.021L149.909 18.1335C150.066 17.9632 150.161 17.7646 150.161 17.5376C150.161 17.3107 150.035 17.1972 149.909 16.9418C149.72 16.8 149.499 16.7148 149.247 16.7148C148.995 16.7148 148.869 16.8283 148.617 16.9418L137.652 27.5531V17.5376C137.652 17.3107 137.526 17.1972 137.4 16.9418C137.211 16.8 136.99 16.7148 136.77 16.7148C136.518 16.7148 136.392 16.8283 136.14 16.9418C136.14 17.1688 136.014 17.2823 136.014 17.5376V34.8732C136.014 35.1002 136.14 35.2137 136.266 35.469C136.392 35.5825 136.644 35.696 136.896 35.696C137.022 35.696 137.305 35.5825 137.431 35.469ZM112.918 35.8095C113.296 35.8095 113.548 35.696 113.706 35.3272L115.502 31.3267H126.088L127.884 35.3272C128.01 35.6677 128.263 35.8095 128.672 35.8095C128.798 35.8095 128.924 35.8095 129.05 35.696C129.271 35.6109 129.46 35.4407 129.554 35.2137C129.68 34.9867 129.68 34.8732 129.554 34.6179L127.506 30.135L121.583 17.1688C121.583 17.1688 121.583 17.0553 121.457 17.0553V16.9418H121.331C121.205 16.8283 121.079 16.8283 121.079 16.8283H120.827H120.575C120.448 16.8283 120.322 16.8283 120.322 16.9418H120.196V17.0553C120.196 17.0553 120.196 17.1688 120.07 17.1688L114.084 30.1634L112.004 34.6462C111.878 34.8732 111.878 34.9867 112.004 35.2421C112.13 35.469 112.256 35.5825 112.508 35.7244C112.666 35.8095 112.792 35.8095 112.918 35.8095ZM116.132 29.7946L120.764 19.6656L125.395 29.7946H116.132ZM86.1045 20.4884L93.9816 32.263V32.3764H95.5255V32.263L103.403 20.4884V35.1002C103.403 35.3272 103.529 35.4407 103.655 35.696C103.781 35.8095 104.033 35.923 104.285 35.923C104.537 35.923 104.663 35.8095 104.915 35.696C105.072 35.5258 105.167 35.3272 105.167 35.1002V17.6511C105.167 17.3107 104.915 16.9418 104.537 16.9418C104.159 16.8283 103.749 16.9418 103.497 17.2823L94.7378 30.2485L86.1045 17.1688C85.8524 16.8283 85.4743 16.6865 85.0647 16.8283C84.6866 16.9418 84.4346 17.1688 84.4346 17.6511V35.1002C84.4346 35.3272 84.5606 35.4407 84.6866 35.696C84.8127 35.696 85.0647 35.8095 85.3168 35.8095C85.5689 35.8095 85.6949 35.696 85.947 35.5825C86.1045 35.4123 86.199 35.2137 86.199 34.9867V20.4884H86.1045Z" fill="black"/>
<path fill-rule="evenodd" clip-rule="evenodd" d="M136.326 16.5553C136.449 16.5 136.588 16.457 136.77 16.457C137.073 16.457 137.356 16.5731 137.584 16.7439L137.635 16.7825L137.662 16.8376C137.69 16.8933 137.718 16.9421 137.746 16.9902C137.751 16.9993 137.757 17.0086 137.763 17.0182C137.786 17.0567 137.811 17.0987 137.832 17.1392C137.891 17.2501 137.939 17.3742 137.939 17.5384V26.8964L148.442 16.7322L148.488 16.7113C148.543 16.6867 148.592 16.6616 148.643 16.6353L148.655 16.6289C148.7 16.6053 148.752 16.5787 148.804 16.5553C148.926 16.5 149.065 16.457 149.247 16.457C149.577 16.457 149.861 16.5699 150.093 16.7439L150.144 16.7825L150.171 16.8376C150.199 16.8933 150.227 16.9421 150.255 16.9902C150.26 16.9993 150.266 17.0087 150.272 17.0183C150.294 17.0567 150.319 17.0987 150.341 17.1392C150.4 17.2501 150.448 17.3742 150.448 17.5384C150.448 17.8354 150.323 18.091 150.129 18.2998L150.123 18.3066L141.922 26.0244L150.404 34.2473L150.423 34.2866C150.451 34.3424 150.479 34.3912 150.507 34.4393C150.512 34.4484 150.518 34.4577 150.524 34.4673C150.546 34.5058 150.571 34.5478 150.593 34.5883C150.652 34.6992 150.7 34.8233 150.7 34.9875C150.7 35.2845 150.575 35.54 150.381 35.7489L150.343 35.7904L150.289 35.8146C150.234 35.8393 150.186 35.8643 150.135 35.8906L150.123 35.897C150.077 35.9206 150.026 35.9473 149.974 35.9707C149.851 36.0259 149.713 36.0689 149.531 36.0689C149.197 36.0689 148.874 35.9249 148.697 35.7662L148.694 35.7634L140.267 27.704L137.971 29.898V34.874C137.971 35.171 137.845 35.4265 137.652 35.6354L137.644 35.6444L137.635 35.6527C137.538 35.7399 137.401 35.812 137.284 35.8607C137.174 35.9063 137.024 35.9554 136.896 35.9554C136.563 35.9554 136.239 35.8114 136.063 35.6527L136.025 35.6187L136.003 35.5749C135.976 35.5191 135.948 35.4703 135.919 35.4222C135.914 35.4131 135.909 35.4038 135.903 35.3942C135.88 35.3557 135.855 35.3137 135.833 35.2732C135.774 35.1623 135.726 35.0382 135.726 34.874V17.5384C135.726 17.3683 135.77 17.244 135.803 17.1511C135.836 17.0595 135.852 17.0104 135.852 16.9426V16.7828L136.011 16.7113C136.066 16.6867 136.115 16.6616 136.166 16.6353L136.178 16.6289C136.223 16.6053 136.274 16.5787 136.326 16.5553ZM136.411 17.1048C136.396 17.1807 136.373 17.2442 136.355 17.2958L136.35 17.3087C136.32 17.3931 136.301 17.4532 136.301 17.5384V34.874C136.301 34.9368 136.316 34.9829 136.351 35.0494C136.367 35.0787 136.384 35.1078 136.406 35.1446C136.412 35.1555 136.419 35.1671 136.427 35.1797C136.45 35.2187 136.475 35.2628 136.502 35.3128C136.537 35.3373 136.586 35.3648 136.647 35.3882C136.728 35.4194 136.814 35.4378 136.893 35.4382C136.893 35.438 136.905 35.4369 136.933 35.4295C136.964 35.4211 137.002 35.4081 137.043 35.3911C137.124 35.3576 137.188 35.3199 137.221 35.2937C137.336 35.165 137.396 35.0268 137.396 34.874V29.6927L140.267 26.9498L149.106 35.4027C149.139 35.4319 149.2 35.4704 149.281 35.5017C149.363 35.5333 149.451 35.5517 149.531 35.5517C149.601 35.5517 149.651 35.5379 149.717 35.5081C149.753 35.4919 149.79 35.4728 149.84 35.447L149.848 35.4427C149.885 35.4235 149.927 35.4018 149.974 35.3792C150.074 35.2585 150.126 35.1292 150.126 34.9875C150.126 34.9247 150.111 34.8786 150.075 34.8121C150.055 34.774 150.032 34.7366 150 34.6818C149.975 34.6398 149.947 34.5918 149.919 34.537L141.133 26.0192L149.694 17.9623C149.812 17.8324 149.874 17.6928 149.874 17.5384C149.874 17.4756 149.859 17.4295 149.823 17.363C149.807 17.3337 149.79 17.3047 149.768 17.2678C149.762 17.2569 149.755 17.2453 149.748 17.2328C149.726 17.1958 149.702 17.1542 149.677 17.1074C149.544 17.0198 149.402 16.9742 149.247 16.9742C149.177 16.9742 149.127 16.988 149.06 17.0178C149.025 17.034 148.988 17.053 148.938 17.0788L148.93 17.0832C148.89 17.1039 148.844 17.1275 148.793 17.1519L137.365 28.2114V17.5384C137.365 17.4756 137.35 17.4295 137.314 17.363C137.299 17.3337 137.282 17.3047 137.26 17.2679C137.253 17.2569 137.246 17.2453 137.239 17.2328C137.217 17.1958 137.193 17.1542 137.168 17.1074C137.033 17.0175 136.893 16.9742 136.77 16.9742C136.7 16.9742 136.649 16.988 136.583 17.0178C136.547 17.034 136.511 17.053 136.461 17.0788L136.453 17.0832C136.439 17.0901 136.425 17.0973 136.411 17.1048ZM157.5 16.5836C157.623 16.5284 157.761 16.4854 157.943 16.4854H169.538C169.841 16.4854 170.125 16.6015 170.352 16.7723L170.404 16.8109L170.431 16.8659C170.458 16.9216 170.486 16.9705 170.515 17.0186C170.52 17.0278 170.526 17.0373 170.532 17.047C170.554 17.0854 170.579 17.1272 170.601 17.1676C170.66 17.2785 170.708 17.4026 170.708 17.5668C170.708 17.8638 170.582 18.1193 170.389 18.3282L170.351 18.3697L170.297 18.3939C170.242 18.4186 170.193 18.4436 170.143 18.4699L170.131 18.4763C170.085 18.4999 170.034 18.5265 169.982 18.55C169.859 18.6052 169.72 18.6482 169.538 18.6482H159.113V25.1958H166.829C167.132 25.1958 167.415 25.3119 167.643 25.4827L167.694 25.5212L167.721 25.5763C167.749 25.632 167.777 25.6808 167.805 25.729C167.81 25.7381 167.816 25.7476 167.822 25.7572C167.845 25.7956 167.869 25.8376 167.891 25.878C167.95 25.9889 167.998 26.1129 167.998 26.2771C167.998 26.5741 167.873 26.8297 167.679 27.0385L167.641 27.0801L167.587 27.1042C167.532 27.1289 167.484 27.1539 167.433 27.1803L167.421 27.1865C167.375 27.2102 167.324 27.2369 167.272 27.2603C167.149 27.3155 167.011 27.3585 166.829 27.3585H159.113V33.9061H169.538C169.841 33.9061 170.125 34.0222 170.352 34.193L170.404 34.2316L170.431 34.2866C170.458 34.3424 170.486 34.3912 170.515 34.4393C170.52 34.4485 170.526 34.458 170.532 34.4677C170.554 34.5061 170.579 34.5479 170.601 34.5883C170.66 34.6992 170.708 34.8233 170.708 34.9875C170.708 35.2845 170.582 35.54 170.389 35.7489L170.351 35.7904L170.297 35.8146C170.242 35.8393 170.193 35.8643 170.143 35.8906L170.13 35.897C170.085 35.9206 170.034 35.9473 169.982 35.9707C169.859 36.0259 169.72 36.0689 169.538 36.0689H157.943C157.61 36.0689 157.286 35.9249 157.11 35.7662L157.072 35.7322L157.051 35.6883C157.023 35.6326 156.995 35.5838 156.967 35.5357C156.962 35.5266 156.956 35.5173 156.95 35.5077C156.928 35.4692 156.903 35.4272 156.881 35.3867C156.822 35.2758 156.774 35.1517 156.774 34.9875V17.5668C156.774 17.2698 156.899 17.0142 157.093 16.8054L157.131 16.7639L157.185 16.7397C157.24 16.715 157.288 16.69 157.339 16.6636L157.351 16.6573C157.397 16.6337 157.448 16.607 157.5 16.5836ZM157.5 17.1751C157.4 17.2958 157.348 17.4251 157.348 17.5668V34.9875C157.348 35.0503 157.363 35.0964 157.399 35.1629C157.414 35.1922 157.432 35.2212 157.453 35.2579C157.46 35.2689 157.467 35.2806 157.474 35.2931C157.497 35.3322 157.523 35.3763 157.549 35.4263C157.584 35.4508 157.633 35.4783 157.694 35.5017C157.776 35.5333 157.864 35.5517 157.943 35.5517H169.538C169.608 35.5517 169.659 35.5379 169.725 35.5081C169.763 35.491 169.802 35.4707 169.856 35.4427C169.893 35.4235 169.935 35.4018 169.982 35.3792C170.082 35.2585 170.133 35.1292 170.133 34.9875C170.133 34.9247 170.118 34.8786 170.083 34.8121C170.067 34.7827 170.05 34.7536 170.028 34.7167C170.022 34.7058 170.015 34.6943 170.007 34.6818C169.986 34.6448 169.962 34.6033 169.937 34.5565C169.801 34.4666 169.662 34.4233 169.538 34.4233H158.538V26.8414H166.829C166.899 26.8414 166.949 26.8276 167.015 26.7977C167.051 26.7816 167.088 26.7625 167.137 26.7368L167.146 26.7323C167.183 26.7131 167.225 26.6914 167.272 26.6688C167.372 26.5482 167.424 26.4189 167.424 26.2771C167.424 26.2144 167.409 26.1682 167.373 26.1018C167.358 26.0724 167.34 26.0434 167.318 26.0065C167.312 25.9956 167.305 25.984 167.298 25.9715C167.276 25.9345 167.252 25.8929 167.227 25.8461C167.091 25.7562 166.952 25.7129 166.829 25.7129H158.538V18.131H169.538C169.608 18.131 169.659 18.1172 169.725 18.0874C169.761 18.0712 169.798 18.0521 169.848 18.0262L169.856 18.022C169.893 18.0028 169.935 17.9811 169.982 17.9585C170.082 17.8378 170.133 17.7085 170.133 17.5668C170.133 17.504 170.118 17.4579 170.083 17.3914C170.067 17.362 170.05 17.3329 170.028 17.296C170.022 17.2851 170.015 17.2736 170.007 17.2611C169.986 17.2241 169.962 17.1826 169.937 17.1358C169.801 17.0459 169.662 17.0026 169.538 17.0026H157.943C157.873 17.0026 157.823 17.0163 157.757 17.0462C157.721 17.0624 157.684 17.0814 157.634 17.1072L157.626 17.1116C157.589 17.1308 157.547 17.1525 157.5 17.1751ZM85.7452 16.5766C85.9896 16.6597 86.1914 16.8207 86.3435 17.0261L86.3476 17.0317L94.7407 29.7475L103.255 17.1441L103.258 17.1396C103.572 16.7159 104.094 16.5554 104.585 16.6853C104.865 16.7002 105.083 16.8433 105.225 17.0162C105.373 17.197 105.454 17.4285 105.454 17.6519V35.101C105.454 35.398 105.329 35.6535 105.136 35.8623L105.097 35.9039L105.043 35.9281C104.989 35.9527 104.94 35.9778 104.889 36.0041L104.877 36.0105C104.831 36.0341 104.78 36.0607 104.728 36.0841C104.606 36.1394 104.467 36.1824 104.285 36.1824C103.952 36.1824 103.628 36.0384 103.452 35.8797L103.414 35.8457L103.392 35.8018C103.365 35.7461 103.337 35.6973 103.308 35.6492C103.303 35.6401 103.298 35.6307 103.292 35.6211C103.269 35.5826 103.244 35.5406 103.222 35.5002C103.163 35.3893 103.115 35.2652 103.115 35.101V21.4195L95.8127 32.3356V32.6358H93.6945V32.3356L86.4863 21.5608V34.9875C86.4863 35.2845 86.3609 35.54 86.1676 35.7489L86.1292 35.7904L86.0754 35.8146C86.0207 35.8393 85.9719 35.8643 85.9212 35.8906L85.909 35.897C85.8635 35.9206 85.8123 35.9473 85.7604 35.9707C85.6376 36.0259 85.4989 36.0689 85.3169 36.0689C85.1478 36.0689 84.9886 36.0313 84.8756 36.0022C84.8518 35.9961 84.8313 35.9906 84.8127 35.9857C84.7817 35.9776 84.7563 35.9708 84.7304 35.9648C84.6967 35.9568 84.684 35.9556 84.6841 35.9554C84.684 35.9554 84.6841 35.9554 84.6841 35.9554L84.5001 35.9554L84.4243 35.8018C84.3968 35.7461 84.3689 35.6973 84.3405 35.6492C84.3352 35.6401 84.3296 35.6307 84.3239 35.6211C84.301 35.5826 84.2761 35.5406 84.2545 35.5001C84.1954 35.3893 84.1475 35.2652 84.1475 35.101V17.6519C84.1475 17.3695 84.2219 17.133 84.3789 16.9461C84.5335 16.7623 84.7456 16.6532 84.9679 16.5856C85.2318 16.4956 85.4994 16.4929 85.7452 16.5766ZM86.4863 20.5586V20.2306H85.5963L85.9119 20.7023V34.9875C85.9119 35.1292 85.86 35.2585 85.7602 35.3792C85.7132 35.4018 85.6711 35.4235 85.6342 35.4427L85.6259 35.447C85.5761 35.4728 85.5394 35.4919 85.5035 35.5081C85.4372 35.5379 85.3869 35.5517 85.3169 35.5517C85.2339 35.5517 85.1409 35.5326 85.0334 35.5049C85.0188 35.5012 85.0027 35.4969 84.9859 35.4925C84.9515 35.4834 84.9144 35.4736 84.8821 35.4659C84.8702 35.445 84.8587 35.4252 84.8478 35.4066C84.8404 35.3941 84.8335 35.3825 84.827 35.3715C84.8051 35.3347 84.7879 35.3057 84.7723 35.2764C84.7369 35.2099 84.7218 35.1638 84.7218 35.101V17.6519C84.7218 17.452 84.7734 17.3338 84.8369 17.2582C84.9015 17.1813 85.002 17.1205 85.1556 17.0744L85.1618 17.0726L85.1679 17.0705C85.3116 17.0207 85.4356 17.0241 85.5423 17.0604C85.6509 17.0973 85.7627 17.1759 85.8617 17.3078L94.735 30.7511L103.739 17.4224C103.921 17.1808 104.194 17.1123 104.446 17.1879L104.49 17.2012H104.537C104.612 17.2012 104.692 17.2362 104.763 17.323C104.835 17.4117 104.88 17.5349 104.88 17.6519V35.101C104.88 35.2427 104.828 35.372 104.728 35.4927C104.681 35.5152 104.639 35.537 104.602 35.5562L104.594 35.5605C104.544 35.5863 104.507 35.6054 104.471 35.6216C104.405 35.6514 104.355 35.6652 104.285 35.6652C104.205 35.6652 104.118 35.6468 104.036 35.6152C103.975 35.5918 103.926 35.5643 103.891 35.5397C103.864 35.4898 103.839 35.4457 103.816 35.4066C103.808 35.3941 103.801 35.3825 103.795 35.3715C103.773 35.3347 103.756 35.3057 103.74 35.2764C103.705 35.2099 103.69 35.1638 103.69 35.101V19.5588L95.2873 32.1186H94.2198L86.4863 20.5586ZM120.563 16.5705C120.567 16.5705 120.571 16.5705 120.575 16.5705H121.079V16.8042C121.079 16.5705 121.079 16.5705 121.079 16.5705L121.079 16.5705L121.08 16.5705L121.081 16.5705L121.084 16.5706L121.089 16.5707C121.094 16.5708 121.098 16.571 121.103 16.5713C121.114 16.5719 121.127 16.573 121.141 16.5749C121.17 16.5786 121.207 16.5854 121.248 16.598C121.305 16.6149 121.369 16.6418 121.435 16.684H121.744V16.8986C121.781 16.9308 121.807 16.9659 121.824 16.9972C121.846 17.0377 121.857 17.0756 121.863 17.1028L129.818 34.517C129.885 34.6516 129.936 34.7837 129.936 34.9272C129.936 35.071 129.885 35.1958 129.818 35.3184C129.701 35.5891 129.478 35.7987 129.211 35.9148C129.013 36.0691 128.804 36.069 128.681 36.0689L128.672 36.0689C128.433 36.0689 128.205 36.0275 128.013 35.912C127.82 35.796 127.693 35.6245 127.615 35.4178L125.895 31.586H115.695L113.973 35.4229C113.879 35.6415 113.744 35.8135 113.549 35.9256C113.355 36.0365 113.137 36.0689 112.918 36.0689H112.912C112.779 36.0689 112.587 36.0689 112.361 35.9469L112.358 35.9457L112.356 35.9445C112.22 35.8678 112.103 35.7907 112.001 35.6943C111.898 35.5965 111.82 35.4884 111.747 35.3585L111.745 35.3532L111.742 35.3479C111.675 35.212 111.623 35.079 111.623 34.9343C111.623 34.7891 111.675 34.6633 111.743 34.5395L113.819 30.0651L119.879 16.911H119.909V16.684H120.151C120.203 16.6379 120.262 16.6124 120.31 16.598C120.404 16.5698 120.511 16.5703 120.563 16.5705ZM120.451 17.2012C120.447 17.2101 120.443 17.2192 120.438 17.2285C120.413 17.2733 120.371 17.3261 120.303 17.367C120.297 17.3703 120.292 17.3734 120.286 17.3764L114.349 30.2638L112.266 34.7548L112.261 34.7627C112.205 34.8633 112.197 34.9054 112.197 34.9343C112.197 34.9664 112.207 35.0167 112.264 35.1324C112.317 35.2265 112.364 35.2873 112.417 35.3376C112.472 35.3897 112.544 35.44 112.658 35.5045C112.705 35.5294 112.742 35.5397 112.775 35.545C112.814 35.5511 112.852 35.5517 112.918 35.5517C113.078 35.5517 113.174 35.5274 113.24 35.4893C113.304 35.4528 113.374 35.3844 113.438 35.2351L113.439 35.2331L115.308 31.0689H126.282L128.154 35.2385L128.157 35.2462C128.205 35.3764 128.267 35.4431 128.331 35.4816C128.399 35.5221 128.502 35.5517 128.672 35.5517C128.741 35.5517 128.768 35.5505 128.792 35.5452C128.805 35.5422 128.822 35.5369 128.847 35.514L128.886 35.4787L128.937 35.4591C129.086 35.4017 129.219 35.2843 129.286 35.1237L129.291 35.111L129.298 35.0988C129.353 34.9982 129.362 34.9561 129.362 34.9272C129.362 34.8946 129.351 34.8432 129.292 34.7237L129.29 34.7204L121.339 17.3147H121.17V17.1632L121.128 17.1254C121.1 17.1003 121.077 17.0916 121.067 17.0886C121.065 17.0882 121.064 17.0879 121.063 17.0877H120.61V17.2012H120.451ZM177.854 16.6687C177.977 16.6135 178.116 16.5705 178.298 16.5705V16.8291V17.0877C178.228 17.0877 178.177 17.1015 178.111 17.1313C178.075 17.1475 178.038 17.1666 177.988 17.1925L177.98 17.1967C177.943 17.2159 177.901 17.2376 177.854 17.2602C177.755 17.3809 177.703 17.5102 177.703 17.6519V34.9875C177.703 35.0503 177.718 35.0964 177.753 35.1629C177.769 35.1923 177.786 35.2213 177.808 35.2583C177.814 35.2691 177.821 35.2807 177.829 35.2931C177.852 35.3322 177.877 35.3763 177.903 35.4263C177.938 35.4508 177.988 35.4783 178.048 35.5017C178.13 35.5333 178.218 35.5517 178.298 35.5517C178.368 35.5517 178.418 35.5379 178.484 35.5081C178.522 35.491 178.561 35.4707 178.615 35.4427C178.652 35.4235 178.694 35.4018 178.741 35.3792C178.841 35.2585 178.893 35.1292 178.893 34.9875V26.8414H184.275L188.858 35.3542C188.858 35.3546 188.858 35.3551 188.858 35.3555C188.961 35.5392 189.135 35.6936 189.389 35.6936C189.457 35.6936 189.485 35.6923 189.508 35.6871C189.522 35.684 189.538 35.6787 189.564 35.6558L189.597 35.6261L189.638 35.6074C189.753 35.5559 189.799 35.5206 189.822 35.494C189.838 35.4754 189.858 35.4428 189.858 35.3563V35.2953L189.888 35.2407C189.918 35.1873 189.917 35.1599 189.908 35.1099C189.907 35.0996 189.903 35.0851 189.899 35.0672C189.887 35.0112 189.866 34.9222 189.86 34.8241L185.593 26.9052L185.967 26.8454C187.331 26.6271 188.56 26.0561 189.425 25.1702L189.431 25.1639L189.438 25.158C190.413 24.2798 190.771 23.2727 190.771 22.0496C190.771 20.7151 190.185 19.6154 189.064 18.5765C187.942 17.6782 186.593 17.1161 185.009 17.1161H184.722V17.1068C184.72 17.1067 184.718 17.1067 184.716 17.1067C184.534 17.104 184.273 17.1017 183.958 17.0997C183.33 17.0957 182.491 17.093 181.653 17.0912C180.814 17.0895 179.975 17.0886 179.346 17.0881C179.032 17.0879 178.769 17.0878 178.586 17.0877L178.298 17.0877C178.298 17.0877 178.298 17.0877 178.298 16.8291C178.298 16.5705 178.298 16.5705 178.298 16.5705L178.586 16.5706C178.77 16.5706 179.032 16.5707 179.347 16.571C179.976 16.5714 180.815 16.5723 181.654 16.5741C182.493 16.5758 183.332 16.5785 183.962 16.5825C184.277 16.5845 184.54 16.5868 184.725 16.5896C184.817 16.5909 184.892 16.5924 184.944 16.5941C184.969 16.5949 184.992 16.5958 185.01 16.597C185.016 16.5974 185.025 16.598 185.034 16.5989C186.776 16.6049 188.251 17.2305 189.454 18.1966L189.461 18.2027L189.468 18.2092C190.674 19.3247 191.346 20.5497 191.346 22.0496C191.346 23.3775 190.95 24.5248 189.85 25.5179C188.969 26.4178 187.762 27.0123 186.437 27.2868L190.432 34.7011V34.7605C190.432 34.8266 190.441 34.8663 190.454 34.9216C190.46 34.9508 190.468 34.9842 190.476 35.0282C190.496 35.1416 190.498 35.2671 190.43 35.4157C190.421 35.5609 190.376 35.6925 190.279 35.8074C190.185 35.9185 190.059 35.9932 189.933 36.0524C189.733 36.211 189.522 36.2108 189.398 36.2107L189.389 36.2107C188.824 36.2107 188.494 35.8551 188.344 35.5855L188.342 35.5826L183.915 27.3585H179.467V34.9875C179.467 35.2845 179.342 35.54 179.148 35.7489L179.11 35.7904L179.056 35.8146C179.001 35.8393 178.953 35.8643 178.902 35.8906L178.89 35.897C178.844 35.9206 178.793 35.9473 178.741 35.9707C178.618 36.0259 178.48 36.0689 178.298 36.0689C177.964 36.0689 177.641 35.9249 177.464 35.7662L177.427 35.7322L177.405 35.6883C177.378 35.6326 177.35 35.5838 177.321 35.5357C177.294 35.4902 177.262 35.4373 177.235 35.3867C177.176 35.2758 177.128 35.1517 177.128 34.9875V17.6519C177.128 17.3549 177.254 17.0994 177.447 16.8905L177.485 16.849L177.539 16.8248C177.594 16.8001 177.643 16.7751 177.693 16.7488L177.706 16.7424C177.751 16.7188 177.802 16.6922 177.854 16.6687ZM178.924 18.1026H184.883C186.116 18.1026 187.224 18.4644 188.16 19.2165C189.136 19.9749 189.55 20.8689 189.55 21.8794C189.55 22.9336 188.996 23.8184 188.174 24.559C187.326 25.3224 186.242 25.6846 185.009 25.6846H178.924V18.1026ZM179.499 18.6198V25.1674H185.009C186.108 25.1674 187.04 24.8486 187.768 24.1933C188.521 23.5154 188.975 22.7545 188.975 21.8794C188.975 21.0179 188.633 20.2668 187.783 19.6069L187.781 19.6054L187.779 19.6039C186.952 18.9385 185.981 18.6198 184.883 18.6198H179.499ZM120.764 18.9872L125.824 30.0539H115.703L120.764 18.9872ZM116.561 29.5367H124.967L120.764 20.3455L116.561 29.5367Z" fill="black"/>
<path fill-rule="evenodd" clip-rule="evenodd" d="M7.35614 9.51729C7.35693 9.51776 7.35771 9.51823 7.35849 9.5187L26.0408 20.6679L26.0429 20.6691C27.4856 21.5352 28.3276 22.9484 28.3276 24.4899V38.4208H24.7174V24.4899C24.7174 24.0458 24.4886 23.6436 24.0417 23.3748C24.0413 23.3745 24.0408 23.3742 24.0403 23.3739L5.61012 12.3752V38.4492H2V12.1195C2 11.5048 2.20633 10.9089 2.58673 10.3951C3.62233 8.9963 5.73959 8.54851 7.35614 9.51729Z" fill="black"/>
<path fill-rule="evenodd" clip-rule="evenodd" d="M56.195 12.3752V38.4492H59.8051V12.1195C59.8051 11.5048 59.5988 10.9089 59.2184 10.3951C58.1827 8.99627 56.0654 8.54849 54.4488 9.51736C54.4481 9.51781 54.4473 9.51826 54.4466 9.5187L35.7643 20.6679L35.7622 20.6691C34.3195 21.5352 33.4775 22.9484 33.4775 24.4899V38.4208H37.0877V24.4899C37.0877 24.0459 37.3165 23.6436 37.7632 23.3748C37.7637 23.3745 37.7643 23.3742 37.7648 23.3739L56.195 12.3752Z" fill="black"/>
</svg>
