<svg width="156" height="50" viewBox="0 0 156 50" fill="none" xmlns="http://www.w3.org/2000/svg">
<g clip-path="url(#clip0_5048_10990)">
<path d="M52.2339 12.9708V17.9654C52.8409 16.1676 53.744 14.8701 54.9425 14.0729C56.141 13.2756 57.6978 12.877 59.6124 12.877V17.004C59.1923 17.004 58.6631 17.0509 58.0247 17.1447C57.4955 17.2229 57.0207 17.3323 56.6002 17.473C56.1801 17.5981 55.7287 17.7934 55.2461 18.0592C54.779 18.3093 54.3742 18.6533 54.0319 19.091C53.7049 19.5131 53.3936 20.0368 53.0979 20.6621C52.8178 21.2717 52.5999 22.0377 52.4442 22.9601C52.3039 23.8824 52.2339 24.922 52.2339 26.0788V37.8034H47.9375V12.9708H52.2339Z" fill="black"/>
<path d="M69.0936 37.8013L62.0186 12.9688H66.525L70.4943 28.2341C70.6191 28.75 70.7904 29.5238 71.0083 30.5556C71.2418 31.5717 71.4206 32.3377 71.5453 32.8536H71.5919C71.7163 32.369 71.8876 31.6108 72.1055 30.579C72.339 29.5473 72.5181 28.7813 72.6425 28.281L76.7053 12.9688H82.3562L86.3721 28.2341L87.5166 32.9005H87.5631L88.6607 28.2341L92.5832 12.9688H97.0899L89.9448 37.8013H85.018L80.6281 21.5277L79.5309 17.3068H79.484C79.3596 17.7758 79.1805 18.4793 78.947 19.4172C78.7291 20.3396 78.5578 21.0431 78.4334 21.5277L74.0201 37.8013H69.0936Z" fill="black"/>
<path d="M99.8678 20.4728C100.008 19.5192 100.304 18.589 100.755 17.6823C101.222 16.76 101.845 15.8924 102.623 15.0795C103.401 14.2666 104.413 13.61 105.658 13.1098C106.919 12.6095 108.32 12.3594 109.861 12.3594C111.589 12.3594 113.091 12.5861 114.368 13.0394C115.644 13.4771 116.617 14.0165 117.286 14.6574C117.972 15.2983 118.509 16.0956 118.897 17.0492C119.302 17.9872 119.551 18.8313 119.645 19.5817C119.754 20.3321 119.808 21.1684 119.808 22.0908V32.7601C119.808 34.5266 119.933 36.2071 120.182 37.8017H115.605C115.543 37.0043 115.512 35.8007 115.512 34.1905V33.2291H115.465C115.294 33.7919 115.037 34.339 114.695 34.8705C114.352 35.4021 113.877 35.9492 113.27 36.512C112.663 37.0746 111.846 37.5282 110.819 37.872C109.791 38.2158 108.631 38.3878 107.339 38.3878C105.907 38.3878 104.623 38.1768 103.487 37.7548C102.366 37.3172 101.463 36.7464 100.778 36.043C100.093 35.3239 99.5717 34.5422 99.2138 33.6981C98.8559 32.8383 98.6768 31.9472 98.6768 31.0249C98.6768 30.1807 98.809 29.4069 99.0738 28.7034C99.3382 27.9999 99.673 27.4059 100.078 26.9213C100.498 26.4367 101.027 25.999 101.666 25.6081C102.304 25.2173 102.919 24.9125 103.51 24.6936C104.102 24.4591 104.794 24.2481 105.588 24.0605C106.398 23.8573 107.083 23.7166 107.643 23.6384C108.204 23.5603 108.857 23.4665 109.605 23.357C110.352 23.2476 110.881 23.1616 111.192 23.0991C112.811 22.8021 113.932 22.3956 114.555 21.8797C115.193 21.3639 115.512 20.59 115.512 19.5583C115.512 18.4952 115.022 17.6354 114.041 16.9789C113.076 16.3223 111.729 15.994 110.001 15.994C108.507 15.994 107.231 16.4004 106.172 17.2134C105.129 18.0263 104.46 19.1127 104.164 20.4728H99.8678ZM102.927 31.0249C102.927 32.1817 103.401 33.1119 104.351 33.8153C105.316 34.5188 106.561 34.8705 108.087 34.8705C109.068 34.8705 109.994 34.7064 110.865 34.3781C111.737 34.0498 112.531 33.5574 113.247 32.9008C113.979 32.2286 114.555 31.3297 114.975 30.2041C115.395 29.063 115.605 27.7498 115.605 26.2647L115.559 22.8177C115.372 23.443 115.099 23.9745 114.741 24.4122C114.399 24.8343 113.722 25.272 112.71 25.7254C111.714 26.1787 110.367 26.5539 108.671 26.8509C106.74 27.1948 105.3 27.6795 104.351 28.3048C103.401 28.9301 102.927 29.8368 102.927 31.0249Z" fill="black"/>
<path d="M123.914 35.5098H125.999V37.7988H123.914V35.5098Z" fill="black"/>
<path d="M127.639 37.8015L131.206 32.7488L127.824 27.9473H129.89L132.225 31.3809L134.56 27.9473H136.636L133.272 32.7302L136.821 37.8015H134.755L132.225 34.1073L129.705 37.8015H127.639Z" fill="black"/>
<path d="M139.277 27.9473L142.39 36.1079H142.408L145.197 27.9473H147.023L142.575 39.7092C142.346 40.3295 142.034 40.8009 141.639 41.1233C141.244 41.4522 140.728 41.6166 140.092 41.6166H138.767V40.165H139.842C140.058 40.165 140.237 40.1403 140.379 40.0905C140.527 40.0472 140.654 39.9602 140.759 39.83C140.864 39.7059 140.938 39.5975 140.981 39.5044C141.031 39.4113 141.099 39.2563 141.185 39.0391C141.204 38.9896 141.219 38.9522 141.232 38.9274L141.574 38.0714C141.117 36.9484 140.429 35.2612 139.508 33.0093C138.588 30.7575 137.902 29.0701 137.451 27.9473H139.277Z" fill="black"/>
<path d="M153.519 29.3989H152.342H148.247V27.9473H155.641V28.9801L149.859 36.3499H150.943H155.798V37.8015H147.83V36.6384L153.519 29.3989Z" fill="black"/>
<mask id="mask0_5048_10990" style="mask-type:luminance" maskUnits="userSpaceOnUse" x="0" y="4" width="42" height="42">
<path d="M41.2495 4H0.000976562V45.2391H41.2495V4Z" fill="white"/>
</mask>
<g mask="url(#mask0_5048_10990)">
<path fill-rule="evenodd" clip-rule="evenodd" d="M20.5245 4.19531H20.7275L20.7308 4.19533C26.1394 4.22306 31.3163 6.39416 35.1263 10.2325C38.9361 14.0708 41.0676 19.2631 41.0536 24.6706C41.0399 30.078 38.8817 35.2593 35.052 39.0779C31.2227 42.8969 26.0348 45.0414 20.626 45.0414C15.2173 45.0414 10.0294 42.8969 6.19993 39.0779C2.3705 35.2593 0.212178 30.078 0.198309 24.6706C0.184441 19.2631 2.31616 14.0708 6.12597 10.2325C9.93576 6.39416 15.1126 4.22306 20.5213 4.19533L20.5245 4.19531ZM20.5312 6.7482C15.7998 6.77331 11.2713 8.67291 7.93847 12.0307C4.60489 15.3893 2.73964 19.9325 2.75178 24.664C2.76391 29.3955 4.65244 33.9292 8.00322 37.2705C11.354 40.6119 15.8934 42.4883 20.626 42.4883C25.3587 42.4883 29.8981 40.6119 33.2487 37.2705C36.5996 33.9292 38.4883 29.3955 38.5003 24.664C38.5124 19.9325 36.6472 15.3893 33.3135 12.0307C29.9808 8.67291 25.4523 6.77331 20.7209 6.7482H20.5312Z" fill="black"/>
<path fill-rule="evenodd" clip-rule="evenodd" d="M11.9239 14.0053C13.4826 10.6496 15.7548 7.67434 18.5822 5.28711L19.7228 6.63739C17.092 8.85872 14.9776 11.6272 13.5272 14.7497C13.4049 15.0131 13.2875 15.2785 13.1751 15.5458C15.2926 16.217 17.5011 16.6022 19.7418 16.6825V5.47131H21.5096V16.6825C23.7503 16.6022 25.9587 16.217 28.0762 15.5458C27.9638 15.2785 27.8464 15.0131 27.7241 14.7497C26.2737 11.6272 24.1594 8.85872 21.5285 6.63739L22.6691 5.28711C25.4965 7.67434 27.7688 10.6496 29.3274 14.0053C29.4726 14.3179 29.6113 14.633 29.7434 14.9506C31.5736 14.2221 33.32 13.2729 34.9422 12.116L35.9687 13.5548C34.2211 14.8014 32.3383 15.823 30.3652 16.6054C31.1389 18.904 31.5807 21.3046 31.6746 23.7343H39.7769V25.5017H31.6815C31.6062 27.9373 31.1813 30.3457 30.4229 32.6536C32.375 33.4329 34.238 34.4467 35.9687 35.6812L34.9422 37.12C33.3405 35.9777 31.6177 35.0379 29.8128 34.3132C29.6601 34.6879 29.4983 35.0593 29.3274 35.4271C27.7688 38.7828 25.4965 41.7582 22.6691 44.1452L21.5285 42.7949C24.1594 40.5736 26.2737 37.805 27.7241 34.6827C27.8729 34.3624 28.0143 34.0392 28.1483 33.7132C26.0088 33.0278 23.7757 32.6347 21.5096 32.5535V43.7646H19.7418V32.5535C17.4756 32.6347 15.2425 33.0278 13.103 33.7132C13.2371 34.0392 13.3785 34.3624 13.5272 34.6827C14.9776 37.805 17.092 40.5736 19.7228 42.7949L18.5822 44.1452C15.7548 41.7582 13.4826 38.7828 11.9239 35.4271C11.7531 35.0593 11.5912 34.6879 11.4385 34.3132C9.63359 35.0379 7.91072 35.9777 6.30923 37.12L5.28253 35.6812C7.01328 34.4467 8.87632 33.4329 10.8285 32.6536C10.0701 30.3457 9.64515 27.9373 9.56986 25.5017H1.47461V23.7343H9.57669C9.67059 21.3046 10.1124 18.904 10.8862 16.6054C8.91303 15.823 7.03035 14.8014 5.28253 13.5548L6.30923 12.116C7.93124 13.2729 9.67775 14.2221 11.508 14.9506C11.6401 14.633 11.7787 14.3179 11.9239 14.0053ZM12.5507 17.2017C11.8447 19.3092 11.4384 21.5082 11.3459 23.7343H19.7418V18.451C17.2868 18.3688 14.8674 17.9453 12.5507 17.2017ZM21.5096 18.451V23.7343H29.9054C29.813 21.5082 29.4066 19.3092 28.7007 17.2017C26.3839 17.9453 23.9645 18.3688 21.5096 18.451ZM29.9128 25.5017H21.5096V30.785C23.9853 30.8679 26.4248 31.2979 28.7594 32.0532C29.4494 29.9378 29.8387 27.7323 29.9128 25.5017ZM19.7418 30.785V25.5017H11.3386C11.4127 27.7323 11.8019 29.9378 12.492 32.0532C14.8265 31.2979 17.2661 30.8679 19.7418 30.785Z" fill="black"/>
</g>
</g>
<defs>
<clipPath id="clip0_5048_10990">
<rect width="156" height="41.3517" fill="white" transform="translate(0 4)"/>
</clipPath>
</defs>
</svg>
