<svg width="169" height="40" viewBox="0 0 169 40" fill="none" xmlns="http://www.w3.org/2000/svg">
<path d="M45.6884 1.21109L37.0997 9.79985C36.1327 10.7669 34.9522 11.4696 33.6676 11.8631C32.889 12.1021 32.0724 12.2257 31.2432 12.2257H15.2477C14.4185 12.2257 13.602 12.1021 12.8234 11.8631C11.5388 11.4696 10.3581 10.7669 9.39124 9.79985C6.52698 6.93553 3.66543 4.07403 0.802548 1.20971C0.535535 0.942761 0.267013 0.674303 0 0.407227C0.0604962 0.993322 0.14753 1.623 0.272673 2.2877C0.508746 3.55963 0.878451 4.96229 1.45184 6.43521C1.68226 7.02973 1.93248 7.59897 2.19666 8.14287C2.86715 9.52296 3.63166 10.7458 4.42722 11.8224C5.92535 13.8504 7.95763 15.3683 10.2527 16.2537C11.7622 16.8356 13.3841 17.1448 15.0425 17.1448H31.4484C33.1068 17.1448 34.7288 16.8356 36.2382 16.2537C38.5333 15.3683 40.5656 13.8504 42.0638 11.8224C42.8578 10.7471 43.6238 9.52296 44.2928 8.14425C44.5585 7.60035 44.8086 7.02973 45.0391 6.43521C45.6125 4.96229 45.9822 3.55963 46.2183 2.2877C46.3433 1.623 46.4305 0.993322 46.491 0.407227C46.2225 0.675686 45.9554 0.942761 45.6884 1.21109ZM1.7835 18.6478L7.43486 24.3005H16.3806L11.9084 28.7727L15.3869 32.2512L23.3376 24.3005H38.8776L44.5318 18.6478C42.6106 16.728 39.4961 16.7266 37.5748 18.6478L36.8426 19.3815H9.47281L8.73918 18.6478C7.77923 17.6879 6.51994 17.2072 5.26203 17.2072C4.00275 17.2072 2.74346 17.6879 1.7835 18.6478ZM24.577 26.5366L17.0482 33.9125L20.2919 37.1562C21.8743 38.7386 24.44 38.7386 26.0224 37.1562L36.6419 26.5366H24.577Z" fill="black"/>
<path d="M59.0674 6.63772C59.0106 6.06481 58.7667 5.61972 58.3359 5.30248C57.905 4.98526 57.3202 4.82664 56.5816 4.82664C56.0797 4.82664 55.6559 4.89766 55.3103 5.03971C54.9646 5.17702 54.6995 5.36877 54.5148 5.61498C54.3349 5.8612 54.2449 6.14056 54.2449 6.45306C54.2355 6.71348 54.2899 6.94075 54.4083 7.13488C54.5314 7.32901 54.6995 7.4971 54.9126 7.63914C55.1256 7.77645 55.3718 7.89719 55.6512 8.00136C55.9305 8.10079 56.2288 8.18602 56.5461 8.25704L57.8529 8.56954C58.4874 8.71159 59.0698 8.90098 59.6001 9.13772C60.1304 9.37446 60.5896 9.66566 60.9779 10.0113C61.3662 10.3569 61.6668 10.7641 61.8799 11.2329C62.0977 11.7016 62.209 12.239 62.2137 12.8451C62.209 13.7352 61.9817 14.507 61.5319 15.1604C61.0868 15.8091 60.4429 16.3133 59.6001 16.6732C58.762 17.0283 57.7511 17.2059 56.5674 17.2059C55.3931 17.2059 54.3704 17.0259 53.4992 16.6661C52.6327 16.3062 51.9556 15.7736 51.468 15.0681C50.985 14.3579 50.7317 13.4795 50.708 12.4331H53.6839C53.717 12.9208 53.8567 13.328 54.1029 13.6547C54.3538 13.9767 54.6876 14.2205 55.1043 14.3863C55.5257 14.5472 56.0016 14.6277 56.5319 14.6277C57.0527 14.6277 57.5049 14.552 57.8884 14.4005C58.2767 14.249 58.5773 14.0383 58.7904 13.7684C59.0035 13.4985 59.11 13.1883 59.11 12.838C59.11 12.5113 59.0129 12.2366 58.8188 12.0141C58.6294 11.7916 58.3501 11.6022 57.9807 11.4459C57.6162 11.2897 57.1687 11.1476 56.6384 11.0198L55.0546 10.6221C53.8283 10.3238 52.86 9.85742 52.1498 9.22295C51.4395 8.58848 51.0868 7.73384 51.0915 6.65903C51.0868 5.77835 51.3212 5.00893 51.7947 4.35079C52.2729 3.69265 52.9287 3.17891 53.762 2.8096C54.5953 2.44028 55.5423 2.25562 56.6029 2.25562C57.6824 2.25562 58.6247 2.44028 59.4296 2.8096C60.2393 3.17891 60.869 3.69265 61.3188 4.35079C61.7686 5.00893 62.0006 5.77124 62.0148 6.63772H59.0674ZM70.228 6.09085V8.36357H63.6584V6.09085H70.228ZM65.1498 3.47721H68.1754V13.6476C68.1754 13.927 68.218 14.1448 68.3033 14.301C68.3885 14.4526 68.5069 14.5591 68.6584 14.6206C68.8146 14.6822 68.9945 14.713 69.1981 14.713C69.3402 14.713 69.4822 14.7011 69.6243 14.6775C69.7663 14.649 69.8752 14.6277 69.951 14.6135L70.4268 16.865C70.2753 16.9123 70.0622 16.9668 69.7876 17.0283C69.513 17.0946 69.1792 17.1348 68.7862 17.149C68.057 17.1775 67.4178 17.0804 66.8686 16.8579C66.3241 16.6353 65.9003 16.2897 65.5973 15.8209C65.2943 15.3522 65.1451 14.7603 65.1498 14.0454V3.47721ZM77.2533 17.213C76.1311 17.213 75.1652 16.9857 74.3555 16.5311C73.5506 16.0719 72.9303 15.4232 72.4947 14.5851C72.0591 13.7423 71.8413 12.7456 71.8413 11.5951C71.8413 10.4729 72.0591 9.4881 72.4947 8.64056C72.9303 7.79303 73.5435 7.13251 74.3342 6.65903C75.1297 6.18554 76.0624 5.9488 77.1325 5.9488C77.8522 5.9488 78.5222 6.06481 79.1425 6.29681C79.7675 6.52409 80.312 6.86736 80.776 7.32664C81.2447 7.78592 81.6093 8.36357 81.8697 9.0596C82.1301 9.75089 82.2604 10.5605 82.2604 11.4885V12.3195H73.0487V10.4445H79.4123C79.4123 10.0089 79.3176 9.62304 79.1283 9.28687C78.9389 8.9507 78.6761 8.68791 78.3399 8.49852C78.0085 8.30439 77.6226 8.20732 77.1822 8.20732C76.723 8.20732 76.3158 8.31386 75.9606 8.52693C75.6103 8.73526 75.3356 9.01698 75.1368 9.3721C74.9379 9.72248 74.8361 10.1131 74.8314 10.5439V12.3266C74.8314 12.8664 74.9308 13.3328 75.1297 13.7258C75.3333 14.1187 75.6197 14.4218 75.989 14.6348C76.3584 14.8479 76.7963 14.9544 77.303 14.9544C77.6391 14.9544 77.9469 14.9071 78.2263 14.8124C78.5056 14.7177 78.7447 14.5757 78.9436 14.3863C79.1425 14.1969 79.294 13.9649 79.3981 13.6902L82.1964 13.8749C82.0544 14.5472 81.7632 15.1344 81.3229 15.6363C80.8873 16.1334 80.3238 16.5217 79.6325 16.801C78.946 17.0757 78.1529 17.213 77.2533 17.213ZM87.5456 17.2059C86.8496 17.2059 86.2293 17.0851 85.6848 16.8436C85.1403 16.5974 84.7094 16.2352 84.3922 15.757C84.0797 15.274 83.9234 14.6727 83.9234 13.953C83.9234 13.347 84.0347 12.838 84.2572 12.426C84.4798 12.0141 84.7828 11.6827 85.1663 11.4317C85.5498 11.1808 85.9855 10.9914 86.4731 10.8635C86.9656 10.7357 87.4817 10.6457 88.0214 10.5936C88.6559 10.5274 89.1673 10.4658 89.5555 10.409C89.9438 10.3474 90.2255 10.2575 90.4007 10.1391C90.5759 10.0207 90.6635 9.84558 90.6635 9.61357V9.57096C90.6635 9.12115 90.5214 8.77314 90.2373 8.52693C89.958 8.28071 89.5603 8.15761 89.0442 8.15761C88.4997 8.15761 88.0664 8.27835 87.7444 8.51982C87.4225 8.75657 87.2094 9.05486 87.1052 9.41471L84.3069 9.18744C84.449 8.52456 84.7284 7.95164 85.145 7.46869C85.5617 6.981 86.0991 6.60694 86.7572 6.34653C87.4201 6.08138 88.1872 5.9488 89.0584 5.9488C89.6644 5.9488 90.2445 6.01982 90.7984 6.16187C91.3571 6.30392 91.8519 6.52409 92.2828 6.82238C92.7184 7.12068 93.0617 7.5042 93.3126 7.97295C93.5636 8.43696 93.6891 8.99331 93.6891 9.64198V16.9999H90.8197V15.4871H90.7345C90.5593 15.828 90.3249 16.1287 90.0314 16.3891C89.7378 16.6448 89.3851 16.846 88.9731 16.9928C88.5612 17.1348 88.0854 17.2059 87.5456 17.2059ZM88.4121 15.1178C88.8571 15.1178 89.2501 15.0302 89.591 14.855C89.932 14.6751 90.1995 14.4336 90.3936 14.1306C90.5877 13.8276 90.6848 13.4843 90.6848 13.1008V11.9431C90.5901 12.0046 90.4599 12.0615 90.2942 12.1135C90.1332 12.1609 89.9509 12.2059 89.7473 12.2485C89.5437 12.2864 89.3401 12.3219 89.1365 12.355C88.9329 12.3834 88.7482 12.4095 88.5825 12.4331C88.2274 12.4852 87.9173 12.5681 87.6521 12.6817C87.387 12.7954 87.181 12.9492 87.0342 13.1434C86.8874 13.3328 86.8141 13.5695 86.8141 13.8536C86.8141 14.2655 86.9632 14.5804 87.2615 14.7982C87.5645 15.0113 87.948 15.1178 88.4121 15.1178ZM98.9778 13.8607L98.9849 10.2314H99.4253L102.919 6.09085H106.392L101.698 11.5738H100.98L98.9778 13.8607ZM96.2364 16.9999V2.45448H99.2619V16.9999H96.2364ZM103.054 16.9999L99.8443 12.2485L101.861 10.1107L106.598 16.9999H103.054ZM111.102 10.6931V16.9999H108.077V2.45448H111.017V8.01556H111.145C111.391 7.37162 111.789 6.86736 112.338 6.50278C112.887 6.13346 113.576 5.9488 114.405 5.9488C115.162 5.9488 115.823 6.11452 116.386 6.44596C116.955 6.77266 117.395 7.24378 117.707 7.85931C118.025 8.47011 118.181 9.20164 118.176 10.0539V16.9999H115.151V10.5936C115.155 9.92134 114.985 9.39814 114.639 9.02409C114.298 8.65003 113.82 8.46301 113.205 8.46301C112.793 8.46301 112.428 8.5506 112.111 8.72579C111.798 8.90098 111.552 9.15666 111.372 9.49284C111.197 9.82428 111.107 10.2243 111.102 10.6931ZM125.686 17.213C124.583 17.213 123.629 16.9786 122.824 16.5098C122.024 16.0364 121.406 15.3782 120.97 14.5354C120.535 13.6879 120.317 12.7054 120.317 11.588C120.317 10.4611 120.535 9.47626 120.97 8.63346C121.406 7.78592 122.024 7.12778 122.824 6.65903C123.629 6.18554 124.583 5.9488 125.686 5.9488C126.789 5.9488 127.741 6.18554 128.541 6.65903C129.346 7.12778 129.967 7.78592 130.402 8.63346C130.838 9.47626 131.056 10.4611 131.056 11.588C131.056 12.7054 130.838 13.6879 130.402 14.5354C129.967 15.3782 129.346 16.0364 128.541 16.5098C127.741 16.9786 126.789 17.213 125.686 17.213ZM125.7 14.8692C126.202 14.8692 126.621 14.7272 126.958 14.4431C127.294 14.1543 127.547 13.7613 127.717 13.2641C127.893 12.7669 127.98 12.2011 127.98 11.5667C127.98 10.9322 127.893 10.3664 127.717 9.86926C127.547 9.3721 127.294 8.9791 126.958 8.69028C126.621 8.40145 126.202 8.25704 125.7 8.25704C125.194 8.25704 124.768 8.40145 124.422 8.69028C124.081 8.9791 123.823 9.3721 123.648 9.86926C123.477 10.3664 123.392 10.9322 123.392 11.5667C123.392 12.2011 123.477 12.7669 123.648 13.2641C123.823 13.7613 124.081 14.1543 124.422 14.4431C124.768 14.7272 125.194 14.8692 125.7 14.8692ZM140.219 12.355V6.09085H143.244V16.9999H140.339V15.0184H140.226C139.98 15.6576 139.57 16.1713 138.997 16.5596C138.429 16.9478 137.735 17.1419 136.916 17.1419C136.187 17.1419 135.545 16.9762 134.991 16.6448C134.437 16.3133 134.004 15.8422 133.692 15.2314C133.384 14.6206 133.228 13.8891 133.223 13.0368V6.09085H136.248V12.4971C136.253 13.141 136.426 13.65 136.767 14.024C137.108 14.3981 137.565 14.5851 138.138 14.5851C138.502 14.5851 138.843 14.5023 139.16 14.3365C139.478 14.1661 139.733 13.9151 139.927 13.5837C140.126 13.2523 140.223 12.8427 140.219 12.355ZM154.941 9.20164L152.171 9.3721C152.124 9.13535 152.022 8.92229 151.866 8.73289C151.709 8.53876 151.503 8.38488 151.248 8.27124C150.997 8.15287 150.696 8.09369 150.346 8.09369C149.877 8.09369 149.482 8.19312 149.16 8.39198C148.838 8.58611 148.677 8.84653 148.677 9.17323C148.677 9.43365 148.781 9.65382 148.989 9.83375C149.198 10.0136 149.555 10.158 150.062 10.2669L152.036 10.6647C153.097 10.8825 153.887 11.2329 154.408 11.7158C154.929 12.1988 155.19 12.8332 155.19 13.6192C155.19 14.3342 154.979 14.9615 154.557 15.5013C154.141 16.0411 153.568 16.4625 152.839 16.7655C152.114 17.0638 151.279 17.213 150.332 17.213C148.887 17.213 147.737 16.9123 146.88 16.311C146.028 15.7049 145.528 14.8811 145.381 13.8394L148.357 13.6831C148.447 14.1235 148.665 14.4597 149.011 14.6917C149.356 14.9189 149.799 15.0326 150.339 15.0326C150.869 15.0326 151.295 14.9308 151.617 14.7272C151.944 14.5188 152.11 14.2513 152.114 13.9246C152.11 13.65 151.994 13.4251 151.766 13.2499C151.539 13.07 151.189 12.9327 150.715 12.838L148.826 12.4615C147.761 12.2485 146.968 11.8792 146.447 11.3536C145.931 10.828 145.673 10.158 145.673 9.34369C145.673 8.64293 145.862 8.03924 146.241 7.53261C146.624 7.02598 147.162 6.63534 147.853 6.36072C148.549 6.0861 149.363 5.9488 150.296 5.9488C151.674 5.9488 152.758 6.23999 153.549 6.82238C154.344 7.40477 154.808 8.19785 154.941 9.20164ZM162.266 17.213C161.144 17.213 160.178 16.9857 159.369 16.5311C158.564 16.0719 157.943 15.4232 157.508 14.5851C157.072 13.7423 156.854 12.7456 156.854 11.5951C156.854 10.4729 157.072 9.4881 157.508 8.64056C157.943 7.79303 158.557 7.13251 159.347 6.65903C160.143 6.18554 161.076 5.9488 162.146 5.9488C162.865 5.9488 163.535 6.06481 164.156 6.29681C164.781 6.52409 165.325 6.86736 165.789 7.32664C166.258 7.78592 166.622 8.36357 166.883 9.0596C167.143 9.75089 167.273 10.5605 167.273 11.4885V12.3195H158.062V10.4445H164.425C164.425 10.0089 164.331 9.62304 164.141 9.28687C163.952 8.9507 163.689 8.68791 163.353 8.49852C163.022 8.30439 162.636 8.20732 162.195 8.20732C161.736 8.20732 161.329 8.31386 160.974 8.52693C160.623 8.73526 160.349 9.01698 160.15 9.3721C159.951 9.72248 159.849 10.1131 159.844 10.5439V12.3266C159.844 12.8664 159.944 13.3328 160.143 13.7258C160.346 14.1187 160.633 14.4218 161.002 14.6348C161.371 14.8479 161.809 14.9544 162.316 14.9544C162.652 14.9544 162.96 14.9071 163.239 14.8124C163.519 14.7177 163.758 14.5757 163.957 14.3863C164.156 14.1969 164.307 13.9649 164.411 13.6902L167.21 13.8749C167.067 14.5472 166.776 15.1344 166.336 15.6363C165.9 16.1334 165.337 16.5217 164.646 16.801C163.959 17.0757 163.166 17.213 162.266 17.213ZM51.1768 36.9999V22.4544H60.8074V24.99H54.252V28.4559H60.1682V30.9914H54.252V36.9999H51.1768ZM63.0192 36.9999V26.0908H66.0447V36.9999H63.0192ZM64.539 24.6846C64.0892 24.6846 63.7033 24.5354 63.3814 24.2371C63.0641 23.9341 62.9055 23.5719 62.9055 23.1505C62.9055 22.7338 63.0641 22.3763 63.3814 22.078C63.7033 21.775 64.0892 21.6235 64.539 21.6235C64.9889 21.6235 65.3724 21.775 65.6896 22.078C66.0116 22.3763 66.1726 22.7338 66.1726 23.1505C66.1726 23.5719 66.0116 23.9341 65.6896 24.2371C65.3724 24.5354 64.9889 24.6846 64.539 24.6846ZM71.6939 30.6931V36.9999H68.6684V26.0908H71.5519V28.0155H71.6797C71.9212 27.3811 72.3261 26.8792 72.8942 26.5098C73.4624 26.1358 74.1513 25.9488 74.961 25.9488C75.7186 25.9488 76.3791 26.1145 76.9425 26.4459C77.506 26.7774 77.944 27.2508 78.2565 27.8664C78.569 28.4772 78.7252 29.2063 78.7252 30.0539V36.9999H75.6996V30.5936C75.7044 29.926 75.5339 29.4052 75.1883 29.0311C74.8426 28.6524 74.3668 28.463 73.7607 28.463C73.3535 28.463 72.9937 28.5506 72.6812 28.7258C72.3734 28.9009 72.1319 29.1566 71.9567 29.4928C71.7863 29.8242 71.6987 30.2243 71.6939 30.6931ZM84.4206 37.2059C83.7246 37.2059 83.1043 37.0851 82.5598 36.8436C82.0153 36.5974 81.5844 36.2352 81.2672 35.757C80.9547 35.274 80.7984 34.6727 80.7984 33.953C80.7984 33.347 80.9097 32.838 81.1322 32.426C81.3548 32.0141 81.6578 31.6827 82.0413 31.4317C82.4248 31.1808 82.8605 30.9914 83.3481 30.8635C83.8406 30.7357 84.3567 30.6457 84.8964 30.5936C85.5309 30.5274 86.0423 30.4658 86.4305 30.409C86.8188 30.3474 87.1005 30.2575 87.2757 30.1391C87.4509 30.0207 87.5385 29.8455 87.5385 29.6135V29.5709C87.5385 29.1211 87.3964 28.7731 87.1123 28.5269C86.833 28.2807 86.4353 28.1576 85.9192 28.1576C85.3747 28.1576 84.9414 28.2783 84.6194 28.5198C84.2975 28.7565 84.0844 29.0548 83.9802 29.4147L81.1819 29.1874C81.324 28.5245 81.6033 27.9516 82.02 27.4686C82.4367 26.981 82.9741 26.6069 83.6322 26.3465C84.2951 26.0813 85.0622 25.9488 85.9334 25.9488C86.5394 25.9488 87.1194 26.0198 87.6734 26.1618C88.2321 26.3039 88.7269 26.524 89.1578 26.8223C89.5934 27.1206 89.9367 27.5042 90.1876 27.9729C90.4386 28.4369 90.5641 28.9933 90.5641 29.6419V36.9999H87.6947V35.4871H87.6095C87.4343 35.828 87.1999 36.1287 86.9064 36.3891C86.6128 36.6448 86.2601 36.846 85.8481 36.9928C85.4362 37.1348 84.9604 37.2059 84.4206 37.2059ZM85.2871 35.1178C85.7321 35.1178 86.1251 35.0302 86.466 34.855C86.8069 34.6751 87.0745 34.4336 87.2686 34.1306C87.4627 33.8276 87.5598 33.4843 87.5598 33.1008V31.9431C87.4651 32.0046 87.3349 32.0615 87.1692 32.1135C87.0082 32.1609 86.8259 32.2059 86.6223 32.2485C86.4187 32.2864 86.2151 32.3219 86.0115 32.355C85.8079 32.3834 85.6232 32.4095 85.4575 32.4331C85.1024 32.4852 84.7923 32.5681 84.5271 32.6817C84.262 32.7954 84.056 32.9492 83.9092 33.1434C83.7624 33.3328 83.689 33.5695 83.689 33.8536C83.689 34.2655 83.8382 34.5804 84.1365 34.7982C84.4395 35.0113 84.823 35.1178 85.2871 35.1178ZM96.1369 30.6931V36.9999H93.1114V26.0908H95.9949V28.0155H96.1227C96.3642 27.3811 96.769 26.8792 97.3372 26.5098C97.9054 26.1358 98.5943 25.9488 99.404 25.9488C100.161 25.9488 100.822 26.1145 101.385 26.4459C101.949 26.7774 102.387 27.2508 102.699 27.8664C103.012 28.4772 103.168 29.2063 103.168 30.0539V36.9999H100.142V30.5936C100.147 29.926 99.9769 29.4052 99.6312 29.0311C99.2856 28.6524 98.8097 28.463 98.2037 28.463C97.7965 28.463 97.4366 28.5506 97.1241 28.7258C96.8164 28.9009 96.5749 29.1566 96.3997 29.4928C96.2293 29.8242 96.1417 30.2243 96.1369 30.6931ZM110.682 37.213C109.564 37.213 108.603 36.9762 107.798 36.5027C106.998 36.0245 106.382 35.3616 105.951 34.5141C105.525 33.6666 105.312 32.6912 105.312 31.588C105.312 30.4705 105.528 29.4904 105.959 28.6476C106.394 27.8001 107.012 27.1396 107.812 26.6661C108.612 26.1879 109.564 25.9488 110.667 25.9488C111.619 25.9488 112.452 26.1216 113.167 26.4672C113.882 26.8129 114.448 27.2982 114.865 27.9232C115.281 28.5482 115.511 29.2821 115.554 30.1249H112.699C112.618 29.5804 112.405 29.1424 112.059 28.811C111.718 28.4748 111.271 28.3067 110.717 28.3067C110.248 28.3067 109.839 28.4346 109.488 28.6902C109.143 28.9412 108.873 29.3081 108.679 29.7911C108.485 30.274 108.388 30.8588 108.388 31.5454C108.388 32.2414 108.482 32.8332 108.672 33.3209C108.866 33.8086 109.138 34.1803 109.488 34.436C109.839 34.6917 110.248 34.8195 110.717 34.8195C111.063 34.8195 111.373 34.7485 111.647 34.6064C111.927 34.4644 112.156 34.2584 112.336 33.9885C112.521 33.7139 112.642 33.3848 112.699 33.0013H115.554C115.506 33.8347 115.279 34.5686 114.872 35.203C114.469 35.8328 113.913 36.3252 113.203 36.6803C112.493 37.0354 111.652 37.213 110.682 37.213ZM117.691 36.9999V26.0908H120.716V36.9999H117.691ZM119.211 24.6846C118.761 24.6846 118.375 24.5354 118.053 24.2371C117.736 23.9341 117.577 23.5719 117.577 23.1505C117.577 22.7338 117.736 22.3763 118.053 22.078C118.375 21.775 118.761 21.6235 119.211 21.6235C119.661 21.6235 120.044 21.775 120.361 22.078C120.683 22.3763 120.844 22.7338 120.844 23.1505C120.844 23.5719 120.683 23.9341 120.361 24.2371C120.044 24.5354 119.661 24.6846 119.211 24.6846ZM126.451 37.2059C125.755 37.2059 125.135 37.0851 124.59 36.8436C124.046 36.5974 123.615 36.2352 123.297 35.757C122.985 35.274 122.829 34.6727 122.829 33.953C122.829 33.347 122.94 32.838 123.163 32.426C123.385 32.0141 123.688 31.6827 124.072 31.4317C124.455 31.1808 124.891 30.9914 125.378 30.8635C125.871 30.7357 126.387 30.6457 126.927 30.5936C127.561 30.5274 128.073 30.4658 128.461 30.409C128.849 30.3474 129.131 30.2575 129.306 30.1391C129.481 30.0207 129.569 29.8455 129.569 29.6135V29.5709C129.569 29.1211 129.427 28.7731 129.143 28.5269C128.863 28.2807 128.466 28.1576 127.949 28.1576C127.405 28.1576 126.972 28.2783 126.65 28.5198C126.328 28.7565 126.115 29.0548 126.011 29.4147L123.212 29.1874C123.354 28.5245 123.634 27.9516 124.05 27.4686C124.467 26.981 125.004 26.6069 125.663 26.3465C126.325 26.0813 127.092 25.9488 127.964 25.9488C128.57 25.9488 129.15 26.0198 129.704 26.1618C130.262 26.3039 130.757 26.524 131.188 26.8223C131.624 27.1206 131.967 27.5042 132.218 27.9729C132.469 28.4369 132.594 28.9933 132.594 29.6419V36.9999H129.725V35.4871H129.64C129.465 35.828 129.23 36.1287 128.937 36.3891C128.643 36.6448 128.29 36.846 127.878 36.9928C127.466 37.1348 126.991 37.2059 126.451 37.2059ZM127.317 35.1178C127.762 35.1178 128.155 35.0302 128.496 34.855C128.837 34.6751 129.105 34.4336 129.299 34.1306C129.493 33.8276 129.59 33.4843 129.59 33.1008V31.9431C129.495 32.0046 129.365 32.0615 129.199 32.1135C129.038 32.1609 128.856 32.2059 128.653 32.2485C128.449 32.2864 128.245 32.3219 128.042 32.355C127.838 32.3834 127.654 32.4095 127.488 32.4331C127.133 32.4852 126.823 32.5681 126.557 32.6817C126.292 32.7954 126.086 32.9492 125.939 33.1434C125.793 33.3328 125.719 33.5695 125.719 33.8536C125.719 34.2655 125.868 34.5804 126.167 34.7982C126.47 35.0113 126.853 35.1178 127.317 35.1178ZM138.167 22.4544V36.9999H135.142V22.4544H138.167Z" fill="black"/>
</svg>
