<svg width="148" height="48" viewBox="0 0 148 48" fill="none" xmlns="http://www.w3.org/2000/svg">
<path d="M17.8481 30.0323H13.9098C13.8379 29.5228 13.691 29.0703 13.4692 28.6746C13.2474 28.273 12.9627 27.9313 12.615 27.6496C12.2674 27.3679 11.8658 27.1521 11.4102 27.0022C10.9606 26.8524 10.4721 26.7774 9.94457 26.7774C8.99148 26.7774 8.16126 27.0142 7.45393 27.4878C6.74661 27.9553 6.19813 28.6387 5.80849 29.5378C5.41886 30.431 5.22405 31.5159 5.22405 32.7927C5.22405 34.1055 5.41886 35.2084 5.80849 36.1016C6.20412 36.9947 6.7556 37.6691 7.46293 38.1247C8.17026 38.5802 8.98848 38.808 9.9176 38.808C10.4391 38.808 10.9216 38.7391 11.3652 38.6012C11.8148 38.4634 12.2134 38.2625 12.5611 37.9988C12.9088 37.729 13.1965 37.4024 13.4243 37.0187C13.6581 36.6351 13.8199 36.1975 13.9098 35.706L17.8481 35.7239C17.7462 36.5691 17.4914 37.3844 17.0838 38.1696C16.6822 38.9489 16.1397 39.6472 15.4564 40.2646C14.779 40.8761 13.9698 41.3616 13.0287 41.7213C12.0935 42.0749 11.0355 42.2518 9.85466 42.2518C8.21222 42.2518 6.74361 41.8801 5.44884 41.1368C4.16006 40.3935 3.14102 39.3175 2.39173 37.9089C1.64844 36.5002 1.27679 34.7948 1.27679 32.7927C1.27679 30.7846 1.65443 29.0763 2.40972 27.6676C3.165 26.2589 4.19003 25.1859 5.4848 24.4486C6.77957 23.7053 8.23619 23.3337 9.85466 23.3337C10.9216 23.3337 11.9107 23.4836 12.8218 23.7833C13.739 24.083 14.5512 24.5206 15.2585 25.096C15.9659 25.6655 16.5413 26.3638 16.9849 27.191C17.4345 28.0183 17.7222 28.9654 17.8481 30.0323ZM19.568 42V28.1891H23.2815V30.5988H23.4253C23.6771 29.7416 24.0997 29.0942 24.6931 28.6566C25.2866 28.2131 25.9699 27.9913 26.7432 27.9913C26.935 27.9913 27.1418 28.0033 27.3636 28.0272C27.5854 28.0512 27.7802 28.0842 27.9481 28.1261V31.5249C27.7682 31.471 27.5195 31.423 27.2018 31.3811C26.8841 31.3391 26.5933 31.3181 26.3296 31.3181C25.7661 31.3181 25.2626 31.441 24.819 31.6868C24.3814 31.9265 24.0338 32.2622 23.776 32.6938C23.5243 33.1254 23.3984 33.6229 23.3984 34.1864V42H19.568ZM34.5796 42.2697C33.1589 42.2697 31.9361 41.982 30.9111 41.4066C29.892 40.8251 29.1068 40.0039 28.5553 38.9429C28.0038 37.8759 27.7281 36.6141 27.7281 35.1575C27.7281 33.7368 28.0038 32.49 28.5553 31.417C29.1068 30.344 29.883 29.5078 30.8841 28.9084C31.8911 28.309 33.072 28.0093 34.4267 28.0093C35.3379 28.0093 36.1861 28.1561 36.9713 28.4498C37.7626 28.7376 38.4519 29.1722 39.0394 29.7536C39.6328 30.3351 40.0944 31.0664 40.424 31.9475C40.7537 32.8227 40.9186 33.8477 40.9186 35.0226V36.0746H29.2566V33.7009H37.313C37.313 33.1494 37.1931 32.6609 36.9533 32.2353C36.7136 31.8097 36.3809 31.477 35.9553 31.2372C35.5357 30.9914 35.0471 30.8686 34.4897 30.8686C33.9082 30.8686 33.3927 31.0034 32.9431 31.2732C32.4995 31.5369 32.1519 31.8936 31.9001 32.3432C31.6484 32.7867 31.5195 33.2813 31.5135 33.8267V36.0836C31.5135 36.767 31.6394 37.3574 31.8911 37.8549C32.1489 38.3525 32.5115 38.7361 32.9791 39.0058C33.4467 39.2756 34.0011 39.4105 34.6425 39.4105C35.0681 39.4105 35.4577 39.3505 35.8114 39.2306C36.1651 39.1107 36.4678 38.9309 36.7195 38.6911C36.9713 38.4514 37.1631 38.1576 37.295 37.81L40.8376 38.0438C40.6578 38.8949 40.2892 39.6382 39.7317 40.2736C39.1802 40.903 38.4669 41.3946 37.5917 41.7482C36.7225 42.0959 35.7185 42.2697 34.5796 42.2697ZM47.5074 42.2248C46.4584 42.2248 45.5083 41.955 44.6571 41.4156C43.8119 40.8701 43.1405 40.0698 42.643 39.0148C42.1515 37.9538 41.9057 36.6531 41.9057 35.1125C41.9057 33.53 42.1604 32.2143 42.67 31.1653C43.1795 30.1103 43.8568 29.322 44.702 28.8005C45.5532 28.273 46.4853 28.0093 47.4984 28.0093C48.2717 28.0093 48.916 28.1411 49.4316 28.4049C49.9531 28.6626 50.3727 28.9863 50.6904 29.376C51.0141 29.7596 51.2598 30.1372 51.4277 30.5089H51.5445V23.5855H55.3659V42H51.5895V39.7881H51.4277C51.2478 40.1717 50.9931 40.5524 50.6634 40.93C50.3397 41.3017 49.9171 41.6104 49.3956 41.8561C48.8801 42.1019 48.2507 42.2248 47.5074 42.2248ZM48.7212 39.1767C49.3386 39.1767 49.8601 39.0088 50.2857 38.6732C50.7173 38.3315 51.047 37.8549 51.2748 37.2435C51.5086 36.6321 51.6255 35.9158 51.6255 35.0945C51.6255 34.2733 51.5116 33.56 51.2838 32.9546C51.056 32.3491 50.7263 31.8816 50.2947 31.5519C49.8631 31.2222 49.3386 31.0574 48.7212 31.0574C48.0918 31.0574 47.5613 31.2282 47.1297 31.5699C46.6981 31.9116 46.3715 32.3851 46.1497 32.9905C45.9279 33.596 45.817 34.2973 45.817 35.0945C45.817 35.8978 45.9279 36.6081 46.1497 37.2255C46.3774 37.8369 46.7041 38.3165 47.1297 38.6642C47.5613 39.0058 48.0918 39.1767 48.7212 39.1767ZM57.5152 42V28.1891H61.3456V42H57.5152ZM59.4394 26.4088C58.8699 26.4088 58.3814 26.22 57.9738 25.8423C57.5721 25.4587 57.3713 25.0001 57.3713 24.4666C57.3713 23.9391 57.5721 23.4865 57.9738 23.1089C58.3814 22.7253 58.8699 22.5335 59.4394 22.5335C60.0088 22.5335 60.4944 22.7253 60.896 23.1089C61.3036 23.4865 61.5074 23.9391 61.5074 24.4666C61.5074 25.0001 61.3036 25.4587 60.896 25.8423C60.4944 26.22 60.0088 26.4088 59.4394 26.4088ZM70.7599 28.1891V31.0664H62.4428V28.1891H70.7599ZM64.331 24.8802H68.1614V37.756C68.1614 38.1097 68.2154 38.3854 68.3233 38.5832C68.4311 38.7751 68.581 38.9099 68.7728 38.9879C68.9706 39.0658 69.1984 39.1047 69.4562 39.1047C69.636 39.1047 69.8158 39.0898 69.9957 39.0598C70.1755 39.0238 70.3134 38.9968 70.4093 38.9789L71.0117 41.8292C70.8199 41.8891 70.5501 41.958 70.2025 42.036C69.8548 42.1199 69.4322 42.1708 68.9347 42.1888C68.0115 42.2248 67.2023 42.1019 66.507 41.8202C65.8176 41.5384 65.2811 41.1009 64.8975 40.5074C64.5139 39.914 64.325 39.1647 64.331 38.2595V24.8802ZM89.3976 29.5378C89.2717 29.1002 89.0949 28.7136 88.8671 28.3779C88.6393 28.0362 88.3606 27.7485 88.0309 27.5147C87.7072 27.275 87.3356 27.0921 86.916 26.9663C86.5024 26.8404 86.0438 26.7774 85.5403 26.7774C84.5992 26.7774 83.772 27.0112 83.0586 27.4788C82.3513 27.9463 81.7998 28.6267 81.4042 29.5198C81.0086 30.407 80.8108 31.492 80.8108 32.7747C80.8108 34.0575 81.0056 35.1485 81.3952 36.0476C81.7848 36.9468 82.3363 37.6331 83.0496 38.1067C83.763 38.5742 84.6052 38.808 85.5762 38.808C86.4574 38.808 87.2097 38.6522 87.8331 38.3405C88.4625 38.0228 88.9421 37.5762 89.2717 37.0007C89.6074 36.4253 89.7753 35.7449 89.7753 34.9597L90.5665 35.0766H85.819V32.1453H93.5247V34.4651C93.5247 36.0836 93.183 37.4743 92.4997 38.6372C91.8163 39.7941 90.8752 40.6872 89.6764 41.3166C88.4775 41.9401 87.1048 42.2518 85.5583 42.2518C83.8319 42.2518 82.3153 41.8711 81.0086 41.1098C79.7018 40.3426 78.6828 39.2546 77.9515 37.8459C77.2262 36.4313 76.8635 34.7529 76.8635 32.8107C76.8635 31.3181 77.0793 29.9874 77.5109 28.8185C77.9485 27.6436 78.5599 26.6486 79.3452 25.8333C80.1304 25.0181 81.0445 24.3977 82.0876 23.9721C83.1306 23.5465 84.2605 23.3337 85.4773 23.3337C86.5204 23.3337 87.4914 23.4865 88.3906 23.7923C89.2897 24.092 90.087 24.5176 90.7823 25.069C91.4836 25.6205 92.0561 26.2769 92.4997 27.0382C92.9433 27.7935 93.228 28.6267 93.3539 29.5378H89.3976ZM95.3773 42V28.1891H99.0907V30.5988H99.2346C99.4864 29.7416 99.909 29.0942 100.502 28.6566C101.096 28.2131 101.779 27.9913 102.552 27.9913C102.744 27.9913 102.951 28.0033 103.173 28.0272C103.395 28.0512 103.589 28.0842 103.757 28.1261V31.5249C103.577 31.471 103.329 31.423 103.011 31.3811C102.693 31.3391 102.403 31.3181 102.139 31.3181C101.575 31.3181 101.072 31.441 100.628 31.6868C100.191 31.9265 99.843 32.2622 99.5853 32.6938C99.3335 33.1254 99.2076 33.6229 99.2076 34.1864V42H95.3773ZM110.335 42.2697C108.938 42.2697 107.73 41.973 106.711 41.3796C105.698 40.7802 104.916 39.9469 104.365 38.88C103.813 37.807 103.537 36.5632 103.537 35.1485C103.537 33.7218 103.813 32.475 104.365 31.408C104.916 30.3351 105.698 29.5018 106.711 28.9084C107.73 28.309 108.938 28.0093 110.335 28.0093C111.732 28.0093 112.936 28.309 113.949 28.9084C114.968 29.5018 115.754 30.3351 116.305 31.408C116.857 32.475 117.132 33.7218 117.132 35.1485C117.132 36.5632 116.857 37.807 116.305 38.88C115.754 39.9469 114.968 40.7802 113.949 41.3796C112.936 41.973 111.732 42.2697 110.335 42.2697ZM110.353 39.3026C110.988 39.3026 111.519 39.1227 111.944 38.7631C112.37 38.3974 112.691 37.8999 112.906 37.2705C113.128 36.6411 113.239 35.9248 113.239 35.1215C113.239 34.3183 113.128 33.602 112.906 32.9726C112.691 32.3432 112.37 31.8456 111.944 31.48C111.519 31.1143 110.988 30.9315 110.353 30.9315C109.711 30.9315 109.172 31.1143 108.734 31.48C108.303 31.8456 107.976 32.3432 107.754 32.9726C107.539 33.602 107.431 34.3183 107.431 35.1215C107.431 35.9248 107.539 36.6411 107.754 37.2705C107.976 37.8999 108.303 38.3974 108.734 38.7631C109.172 39.1227 109.711 39.3026 110.353 39.3026ZM127.48 36.1196V28.1891H131.31V42H127.633V39.4914H127.489C127.177 40.3006 126.658 40.951 125.933 41.4425C125.214 41.9341 124.336 42.1798 123.299 42.1798C122.376 42.1798 121.563 41.97 120.862 41.5504C120.161 41.1308 119.612 40.5344 119.217 39.7611C118.827 38.9879 118.629 38.0617 118.623 36.9828V28.1891H122.453V36.2994C122.459 37.1146 122.678 37.759 123.11 38.2326C123.541 38.7061 124.12 38.9429 124.845 38.9429C125.307 38.9429 125.738 38.838 126.14 38.6282C126.542 38.4124 126.865 38.0947 127.111 37.6751C127.363 37.2555 127.486 36.737 127.48 36.1196ZM133.374 47.1791V28.1891H137.15V30.5089H137.321C137.489 30.1372 137.732 29.7596 138.049 29.376C138.373 28.9863 138.793 28.6626 139.308 28.4049C139.83 28.1411 140.477 28.0093 141.25 28.0093C142.257 28.0093 143.187 28.273 144.038 28.8005C144.889 29.322 145.569 30.1103 146.079 31.1653C146.588 32.2143 146.843 33.53 146.843 35.1125C146.843 36.6531 146.594 37.9538 146.097 39.0148C145.605 40.0698 144.934 40.8701 144.083 41.4156C143.238 41.955 142.29 42.2248 141.241 42.2248C140.498 42.2248 139.866 42.1019 139.344 41.8561C138.829 41.6104 138.406 41.3017 138.076 40.93C137.747 40.5524 137.495 40.1717 137.321 39.7881H137.204V47.1791H133.374ZM137.123 35.0945C137.123 35.9158 137.237 36.6321 137.465 37.2435C137.693 37.8549 138.022 38.3315 138.454 38.6732C138.886 39.0088 139.41 39.1767 140.028 39.1767C140.651 39.1767 141.179 39.0058 141.61 38.6642C142.042 38.3165 142.368 37.8369 142.59 37.2255C142.818 36.6081 142.932 35.8978 142.932 35.0945C142.932 34.2973 142.821 33.596 142.599 32.9905C142.377 32.3851 142.051 31.9116 141.619 31.5699C141.187 31.2282 140.657 31.0574 140.028 31.0574C139.404 31.0574 138.877 31.2222 138.445 31.5519C138.019 31.8816 137.693 32.3491 137.465 32.9546C137.237 33.56 137.123 34.2733 137.123 35.0945Z" fill="black"/>
<mask id="mask0_5188_11031" style="mask-type:luminance" maskUnits="userSpaceOnUse" x="46" y="0" width="19" height="14">
<path fill-rule="evenodd" clip-rule="evenodd" d="M46.7998 0H64.3813V13.9596H46.7998V0Z" fill="white"/>
</mask>
<g mask="url(#mask0_5188_11031)">
<path fill-rule="evenodd" clip-rule="evenodd" d="M48.8585 13.4412C48.336 12.3388 48.0442 11.109 48.0442 9.81194C48.0442 5.07032 51.9442 1.2265 56.7551 1.2265C59.4339 1.2265 61.8301 2.41834 63.4281 4.29326L64.3813 3.50489C62.5552 1.36211 59.8166 0 56.7551 0C51.2569 0 46.7998 4.39296 46.7998 9.81194C46.7998 11.2942 47.1333 12.6998 47.7304 13.9596L48.8585 13.4412Z" fill="black"/>
</g>
<path fill-rule="evenodd" clip-rule="evenodd" d="M56.755 15.6379C53.4904 15.6379 50.844 13.0296 50.844 9.8121C50.844 6.59458 53.4904 3.98625 56.755 3.98625C58.5727 3.98625 60.1985 4.79521 61.2828 6.06748L62.2364 5.27891C60.9238 3.73879 58.9554 2.75977 56.755 2.75977C52.8032 2.75977 49.5996 5.9172 49.5996 9.8121C49.5996 13.707 52.8032 16.8644 56.755 16.8644V15.6379Z" fill="black"/>
<path fill-rule="evenodd" clip-rule="evenodd" d="M58.8994 11.5851C58.3857 12.1877 57.6156 12.5709 56.7546 12.5709C55.2082 12.5709 53.9546 11.3354 53.9546 9.81129C53.9546 8.2872 55.2082 7.05168 56.7546 7.05168C57.6156 7.05168 58.3857 7.43488 58.8994 8.03753L59.9717 7.15065C59.2013 6.24666 58.0461 5.67188 56.7546 5.67188C54.435 5.67188 52.5547 7.52515 52.5547 9.81129C52.5547 12.0974 54.435 13.9507 56.7546 13.9507C57.9382 13.9507 59.0071 13.4677 59.7705 12.6913L58.8994 11.5851Z" fill="black"/>
<path fill-rule="evenodd" clip-rule="evenodd" d="M66.4707 8.46935H67.7501V9.32109H67.7726C67.8922 9.0556 68.0998 8.82157 68.3955 8.61865C68.691 8.41594 69.0408 8.31445 69.4449 8.31445C69.7965 8.31445 70.0976 8.3753 70.3483 8.49702C70.599 8.61865 70.8046 8.77908 70.9656 8.97816C71.1264 9.1773 71.2443 9.40597 71.3192 9.66399C71.3939 9.92221 71.4314 10.1877 71.4314 10.4605V13.779H70.0846V10.8366C70.0846 10.6817 70.0734 10.5195 70.0509 10.3498C70.0285 10.1803 69.9798 10.0273 69.9051 9.8908C69.8302 9.75442 69.7272 9.64187 69.5963 9.55343C69.4654 9.46491 69.2914 9.42065 69.0745 9.42065C68.8574 9.42065 68.6705 9.46319 68.5134 9.5479C68.3562 9.63272 68.2271 9.74143 68.1261 9.87421C68.0251 10.0069 67.9483 10.1601 67.896 10.3332C67.8436 10.5066 67.8175 10.6817 67.8175 10.8587V13.779H66.4707V8.46935Z" fill="black"/>
<path fill-rule="evenodd" clip-rule="evenodd" d="M72.0029 9.52924V8.46731H72.9457V6.92969H74.27V8.46731H75.6168V9.52924H74.27V11.996C74.27 12.2321 74.313 12.4274 74.3991 12.5823C74.485 12.7371 74.6777 12.8146 74.9771 12.8146C75.0669 12.8146 75.1641 12.8054 75.2689 12.7869C75.3736 12.7686 75.4671 12.7409 75.5495 12.7039L75.5944 13.7437C75.4746 13.788 75.3324 13.8229 75.1679 13.8489C75.0032 13.8746 74.8461 13.8876 74.6965 13.8876C74.3374 13.8876 74.0456 13.8378 73.8211 13.7382C73.5966 13.6386 73.4188 13.5023 73.288 13.3289C73.157 13.1558 73.0672 12.9566 73.0186 12.7316C72.9699 12.5068 72.9457 12.2653 72.9457 12.007V9.52924H72.0029Z" fill="black"/>
<path fill-rule="evenodd" clip-rule="evenodd" d="M76.4258 8.46935H77.7164V9.35427H77.7389C77.8884 9.04454 78.0981 8.79395 78.3674 8.60206C78.6368 8.41041 78.951 8.31445 79.3102 8.31445C79.3624 8.31445 79.4185 8.31636 79.4785 8.31998C79.5383 8.32382 79.5907 8.33297 79.6356 8.34765V9.56449C79.5458 9.54235 79.469 9.52767 79.4056 9.52023C79.3419 9.51293 79.2801 9.50917 79.2203 9.50917C78.9135 9.50917 78.6665 9.56449 78.4797 9.67505C78.2925 9.78569 78.1466 9.9184 78.0419 10.0733C77.937 10.2282 77.8661 10.3868 77.8287 10.549C77.7911 10.7112 77.7726 10.8403 77.7726 10.9361V13.779H76.4258V8.46935Z" fill="black"/>
<path fill-rule="evenodd" clip-rule="evenodd" d="M80.2515 13.7782H81.5983V8.4686H80.2515V13.7782ZM80.0605 6.66555C80.0605 6.45179 80.1409 6.26559 80.3018 6.10695C80.4627 5.94843 80.6666 5.86914 80.9136 5.86914C81.1604 5.86914 81.3681 5.94481 81.5364 6.09589C81.7048 6.2471 81.7889 6.43708 81.7889 6.66555C81.7889 6.8942 81.7048 7.0842 81.5364 7.23521C81.3681 7.38649 81.1604 7.46203 80.9136 7.46203C80.6666 7.46203 80.4627 7.38287 80.3018 7.22415C80.1409 7.06569 80.0605 6.87951 80.0605 6.66555Z" fill="black"/>
<path fill-rule="evenodd" clip-rule="evenodd" d="M83.3387 9.53131H82.3174V8.46937H83.3387V8.07229C83.3387 7.75532 83.3741 7.45112 83.4453 7.15971C83.5164 6.86848 83.6361 6.61211 83.8045 6.39089C83.9728 6.16968 84.1954 5.99457 84.4723 5.86549C84.749 5.73654 85.0969 5.67188 85.5161 5.67188C85.6656 5.67188 85.791 5.67741 85.8921 5.68847C85.993 5.69953 86.0958 5.71995 86.2007 5.74932L86.1109 6.87763C86.036 6.85551 85.9555 6.8372 85.8696 6.82231C85.7835 6.80763 85.6917 6.80019 85.5946 6.80019C85.3999 6.80019 85.2428 6.8372 85.1232 6.91083C85.0034 6.98459 84.9118 7.08055 84.8483 7.19844C84.7846 7.31644 84.7416 7.44559 84.7192 7.5856C84.6967 7.72574 84.6855 7.86213 84.6855 7.99483V8.46937H85.9313V9.53131H84.6855V13.779H83.3387V9.53131Z" fill="black"/>
<path fill-rule="evenodd" clip-rule="evenodd" d="M91.5662 13.7784H90.2867V12.9267H90.2643C90.1445 13.1921 89.9369 13.4263 89.6414 13.629C89.3457 13.8318 88.996 13.9333 88.592 13.9333C88.2402 13.9333 87.9391 13.8724 87.6885 13.7507C87.4378 13.629 87.232 13.4687 87.0712 13.2696C86.9102 13.0704 86.7924 12.842 86.7177 12.5838C86.6428 12.3256 86.6055 12.0602 86.6055 11.7873V8.46875H87.9523V11.4112C87.9523 11.5661 87.9635 11.7283 87.9859 11.8979C88.0084 12.0676 88.057 12.2206 88.1318 12.3569C88.2065 12.4935 88.3095 12.6058 88.4404 12.6943C88.5713 12.7828 88.7453 12.8271 88.9624 12.8271C89.1717 12.8271 89.3569 12.7847 89.5179 12.6998C89.6787 12.6152 89.8097 12.5063 89.9107 12.3735C90.0118 12.2408 90.0884 12.0879 90.1408 11.9145C90.1931 11.7413 90.2194 11.5661 90.2194 11.389V8.46875H91.5662V13.7784Z" fill="black"/>
<path fill-rule="evenodd" clip-rule="evenodd" d="M61.9762 9.67064C62.2568 9.43113 62.5991 9.31113 63.0032 9.31113C63.2201 9.31113 63.4089 9.34623 63.57 9.41624C63.7308 9.48643 63.8635 9.58042 63.9684 9.69829C64.0731 9.81637 64.1497 9.9527 64.1985 10.1076C64.2471 10.2624 64.2715 10.4248 64.2715 10.5943H61.5105C61.5403 10.2182 61.6957 9.91036 61.9762 9.67064ZM64.4738 12.1659C64.3241 12.3799 64.1332 12.5476 63.9015 12.6692C63.6694 12.7909 63.3851 12.8518 63.0484 12.8518C62.8538 12.8518 62.6668 12.8186 62.4873 12.7522C62.3077 12.6858 62.1467 12.5956 62.0047 12.4812C61.8625 12.3669 61.7483 12.2305 61.6624 12.0719C61.5763 11.9134 61.5258 11.7383 61.5109 11.5465H65.6074C65.6148 11.4875 65.6186 11.4286 65.6186 11.3695V11.1925C65.6186 10.7132 65.553 10.2947 65.4222 9.93694C65.2912 9.57935 65.1097 9.28069 64.8779 9.04097C64.6459 8.80144 64.3709 8.6206 64.0529 8.49896C63.7348 8.37726 63.3888 8.31641 63.0148 8.31641C62.6107 8.31641 62.2347 8.38471 61.8869 8.5211C61.5389 8.65761 61.2376 8.84932 60.9833 9.09629C60.7289 9.34345 60.5288 9.64211 60.3829 9.99226C60.237 10.3426 60.1641 10.7317 60.1641 11.1593C60.1641 11.5945 60.237 11.9834 60.3829 12.3263C60.5288 12.6692 60.7308 12.9587 60.9889 13.1947C61.2471 13.4308 61.5519 13.6133 61.9036 13.7422C62.2553 13.8712 62.6406 13.9358 63.0597 13.9358C63.9641 13.9358 64.6764 13.6518 65.1969 13.0842L64.4738 12.1659Z" fill="black"/>
<path fill-rule="evenodd" clip-rule="evenodd" d="M100.794 9.67064C101.074 9.43113 101.417 9.31113 101.821 9.31113C102.038 9.31113 102.226 9.34623 102.387 9.41624C102.548 9.48643 102.681 9.58042 102.786 9.69829C102.89 9.81637 102.967 9.9527 103.016 10.1076C103.064 10.2624 103.089 10.4248 103.089 10.5943H100.328C100.358 10.2182 100.513 9.91036 100.794 9.67064ZM103.291 12.1659C103.141 12.3799 102.951 12.5476 102.719 12.6692C102.487 12.7909 102.203 12.8518 101.866 12.8518C101.671 12.8518 101.484 12.8186 101.305 12.7522C101.125 12.6858 100.964 12.5956 100.822 12.4812C100.68 12.3669 100.566 12.2305 100.48 12.0719C100.394 11.9134 100.343 11.7383 100.328 11.5465H104.425C104.432 11.4875 104.436 11.4286 104.436 11.3695V11.1925C104.436 10.7132 104.37 10.2947 104.24 9.93694C104.109 9.57935 103.927 9.28069 103.695 9.04097C103.463 8.80144 103.188 8.6206 102.87 8.49896C102.552 8.37726 102.206 8.31641 101.832 8.31641C101.428 8.31641 101.052 8.38471 100.704 8.5211C100.356 8.65761 100.055 8.84932 99.8007 9.09629C99.5463 9.34345 99.3461 9.64211 99.2003 9.99226C99.0543 10.3426 98.9814 10.7317 98.9814 11.1593C98.9814 11.5945 99.0543 11.9834 99.2003 12.3263C99.3461 12.6692 99.5482 12.9587 99.8063 13.1947C100.064 13.4308 100.369 13.6133 100.721 13.7422C101.073 13.8712 101.458 13.9358 101.877 13.9358C102.782 13.9358 103.494 13.6518 104.014 13.0842L103.291 12.1659Z" fill="black"/>
<path fill-rule="evenodd" clip-rule="evenodd" d="M96.7614 11.7227C96.6865 11.9249 96.5799 12.1031 96.4416 12.2575C96.303 12.4118 96.1347 12.5349 95.9365 12.6268C95.7382 12.7188 95.5156 12.7646 95.2687 12.7646C95.0291 12.7646 94.8141 12.7169 94.6234 12.6213C94.4325 12.5257 94.2716 12.3989 94.1407 12.2409C94.0098 12.0829 93.9087 11.9045 93.8377 11.7061C93.7665 11.5077 93.7311 11.302 93.7311 11.0887C93.7311 10.8537 93.7665 10.6331 93.8377 10.4273C93.9087 10.2214 94.0098 10.0432 94.1407 9.8925C94.2716 9.74175 94.4325 9.62234 94.6234 9.53417C94.8141 9.44605 95.033 9.4018 95.2799 9.4018C95.5268 9.4018 95.7474 9.44605 95.9421 9.53417C96.1366 9.62234 96.303 9.74366 96.4416 9.89803C96.5799 10.0524 96.6865 10.2324 96.7614 10.4381C96.8361 10.644 96.8736 10.8609 96.8736 11.0887C96.8736 11.3093 96.8361 11.5207 96.7614 11.7227ZM96.8731 8.47131V9.2677H96.8506C96.656 8.94329 96.3942 8.70357 96.065 8.54875C95.7357 8.39385 95.3804 8.31641 94.9988 8.31641C94.5947 8.31641 94.23 8.39022 93.9045 8.53769C93.579 8.68527 93.3021 8.88435 93.0739 9.135C92.8456 9.38578 92.67 9.68082 92.5465 10.0199C92.423 10.3592 92.3613 10.7206 92.3613 11.104C92.3613 11.4801 92.4248 11.836 92.5521 12.1715C92.6793 12.5071 92.8569 12.8003 93.0852 13.0508C93.3133 13.3016 93.592 13.5008 93.9213 13.6482C94.2505 13.7956 94.6172 13.8694 95.0212 13.8694C95.3953 13.8694 95.734 13.8005 96.037 13.6627C96.34 13.5249 96.5886 13.3257 96.7833 13.0649H96.8058V13.4534C96.8058 13.7199 96.7777 13.9641 96.7216 14.1862C96.6655 14.4082 96.5718 14.6007 96.441 14.7635C96.31 14.9263 96.1341 15.0539 95.9135 15.1465C95.6927 15.239 95.4214 15.2854 95.0998 15.2854C94.7631 15.2854 94.4301 15.2207 94.1009 15.0917C93.7803 14.9661 93.4917 14.7861 93.2351 14.5521L92.4398 15.5619C92.6119 15.7019 92.8064 15.8274 93.0235 15.938C93.2404 16.0486 93.4668 16.1407 93.7025 16.2145C93.9382 16.2882 94.1775 16.3435 94.4208 16.3804C94.6638 16.4173 94.8939 16.4357 95.111 16.4357C95.6347 16.4357 96.0875 16.3619 96.4691 16.2145C96.8506 16.0669 97.1667 15.8587 97.4175 15.5895C97.668 15.3203 97.8533 14.9922 97.973 14.6051C98.0926 14.2179 98.1526 13.7846 98.1526 13.3052V8.47131H96.8731Z" fill="black"/>
</svg>
