<svg width="161" height="50" viewBox="0 0 161 50" fill="none" xmlns="http://www.w3.org/2000/svg">
<path d="M18.0505 26.5176H14.0675C13.9948 26.0023 13.8462 25.5446 13.6219 25.1445C13.3976 24.7383 13.1096 24.3928 12.758 24.1078C12.4064 23.8229 12.0002 23.6047 11.5395 23.4531C11.0848 23.3015 10.5907 23.2258 10.0572 23.2258C9.09331 23.2258 8.25367 23.4652 7.53831 23.9442C6.82295 24.417 6.26824 25.1081 5.87418 26.0175C5.48013 26.9208 5.2831 28.0181 5.2831 29.3094C5.2831 30.637 5.48013 31.7525 5.87418 32.6558C6.2743 33.5591 6.83204 34.2411 7.5474 34.7019C8.26276 35.1626 9.09028 35.393 10.0299 35.393C10.5574 35.393 11.0454 35.3233 11.494 35.1838C11.9487 35.0444 12.3518 34.8413 12.7035 34.5746C13.0551 34.3018 13.3461 33.9713 13.5764 33.5834C13.8129 33.1954 13.9766 32.7528 14.0675 32.2557L18.0505 32.2739C17.9474 33.1287 17.6898 33.9532 17.2775 34.7473C16.8714 35.5354 16.3227 36.2417 15.6316 36.8661C14.9465 37.4845 14.1281 37.9756 13.1763 38.3393C12.2306 38.697 11.1606 38.8758 9.96629 38.8758C8.3052 38.8758 6.81991 38.5 5.51044 37.7482C4.20702 36.9965 3.17642 35.9083 2.41862 34.4836C1.66688 33.059 1.29102 31.3342 1.29102 29.3094C1.29102 27.2785 1.67295 25.5507 2.43681 24.126C3.20067 22.7014 4.23734 21.6162 5.54681 20.8705C6.85629 20.1188 8.32945 19.7429 9.96629 19.7429C11.0454 19.7429 12.0457 19.8945 12.9672 20.1976C13.8947 20.5007 14.7162 20.9433 15.4315 21.5253C16.1469 22.1012 16.7289 22.8075 17.1775 23.6441C17.6322 24.4807 17.9232 25.4385 18.0505 26.5176Z" fill="black"/>
<path d="M20.8013 38.6212V24.6535H24.5569V27.0905H24.7024C24.9571 26.2236 25.3845 25.5689 25.9846 25.1263C26.5848 24.6777 27.2759 24.4534 28.058 24.4534C28.252 24.4534 28.4611 24.4655 28.6854 24.4898C28.9097 24.514 29.1068 24.5474 29.2765 24.5898V28.0272C29.0946 27.9726 28.8431 27.9241 28.5217 27.8817C28.2004 27.8392 27.9064 27.818 27.6397 27.818C27.0698 27.818 26.5606 27.9423 26.1119 28.1909C25.6694 28.4334 25.3178 28.7729 25.0571 29.2093C24.8025 29.6458 24.6752 30.149 24.6752 30.7189V38.6212H20.8013Z" fill="black"/>
<path d="M36.9947 38.894C35.5579 38.894 34.3212 38.603 33.2845 38.021C32.2539 37.433 31.4597 36.6024 30.902 35.5294C30.3443 34.4503 30.0654 33.1741 30.0654 31.701C30.0654 30.2642 30.3443 29.0032 30.902 27.9181C31.4597 26.8329 32.2448 25.9872 33.2572 25.3809C34.2757 24.7747 35.47 24.4716 36.8401 24.4716C37.7616 24.4716 38.6194 24.6201 39.4136 24.9172C40.2138 25.2082 40.911 25.6477 41.5051 26.2357C42.1053 26.8238 42.5721 27.5634 42.9055 28.4546C43.239 29.3397 43.4057 30.3764 43.4057 31.5646V32.6285H31.6113V30.2278H39.7591C39.7591 29.6701 39.6379 29.176 39.3954 28.7456C39.1529 28.3151 38.8164 27.9787 38.386 27.7362C37.9616 27.4876 37.4676 27.3633 36.9038 27.3633C36.3157 27.3633 35.7943 27.4998 35.3397 27.7726C34.891 28.0393 34.5394 28.4 34.2848 28.8547C34.0302 29.3033 33.8998 29.8035 33.8938 30.3551V32.6376C33.8938 33.3287 34.0211 33.9259 34.2757 34.4291C34.5364 34.9322 34.9032 35.3202 35.376 35.593C35.8489 35.8658 36.4097 36.0022 37.0583 36.0022C37.4888 36.0022 37.8828 35.9416 38.2405 35.8204C38.5982 35.6991 38.9043 35.5173 39.159 35.2748C39.4136 35.0323 39.6076 34.7352 39.741 34.3836L43.3238 34.62C43.142 35.4809 42.7691 36.2326 42.2053 36.8752C41.6476 37.5118 40.9262 38.0089 40.041 38.3666C39.162 38.7182 38.1465 38.894 36.9947 38.894Z" fill="black"/>
<path d="M51.0807 38.8485C50.0197 38.8485 49.0588 38.5757 48.198 38.0301C47.3432 37.4784 46.6642 36.6691 46.161 35.6021C45.6639 34.5291 45.4154 33.2136 45.4154 31.6555C45.4154 30.055 45.673 28.7244 46.1883 27.6634C46.7036 26.5965 47.3887 25.7992 48.2435 25.2718C49.1043 24.7383 50.047 24.4716 51.0716 24.4716C51.8536 24.4716 52.5053 24.605 53.0267 24.8717C53.5541 25.1324 53.9785 25.4598 54.2998 25.8538C54.6272 26.2418 54.8757 26.6237 55.0455 26.9996H55.1637V19.9975H59.0284V38.6212H55.2091V36.3842H55.0455C54.8636 36.7722 54.6059 37.1571 54.2725 37.5391C53.9451 37.9149 53.5177 38.2271 52.9903 38.4757C52.4689 38.7243 51.8324 38.8485 51.0807 38.8485ZM52.3083 35.7658C52.9327 35.7658 53.4601 35.5961 53.8906 35.2566C54.3271 34.911 54.6605 34.4291 54.8909 33.8107C55.1273 33.1923 55.2455 32.4679 55.2455 31.6373C55.2455 30.8068 55.1303 30.0854 54.9 29.4731C54.6696 28.8608 54.3362 28.3879 53.8997 28.0545C53.4632 27.721 52.9327 27.5543 52.3083 27.5543C51.6717 27.5543 51.1352 27.7271 50.6987 28.0726C50.2622 28.4182 49.9318 28.8971 49.7075 29.5094C49.4832 30.1217 49.3711 30.831 49.3711 31.6373C49.3711 32.4497 49.4832 33.1681 49.7075 33.7925C49.9379 34.4109 50.2683 34.8959 50.6987 35.2475C51.1352 35.593 51.6717 35.7658 52.3083 35.7658Z" fill="black"/>
<path d="M62.2135 38.6212V24.6535H66.0873V38.6212H62.2135ZM64.1595 22.8529C63.5836 22.8529 63.0895 22.662 62.6772 22.28C62.2711 21.892 62.068 21.4283 62.068 20.8887C62.068 20.3552 62.2711 19.8975 62.6772 19.5156C63.0895 19.1276 63.5836 18.9336 64.1595 18.9336C64.7354 18.9336 65.2265 19.1276 65.6327 19.5156C66.0449 19.8975 66.251 20.3552 66.251 20.8887C66.251 21.4283 66.0449 21.892 65.6327 22.28C65.2265 22.662 64.7354 22.8529 64.1595 22.8529Z" fill="black"/>
<path d="M76.62 24.6535V27.5634H68.2084V24.6535H76.62ZM70.1181 21.307H73.9919V34.329C73.9919 34.6867 74.0465 34.9656 74.1556 35.1656C74.2647 35.3596 74.4163 35.496 74.6103 35.5749C74.8104 35.6537 75.0407 35.6931 75.3014 35.6931C75.4833 35.6931 75.6652 35.6779 75.847 35.6476C76.0289 35.6112 76.1683 35.5839 76.2653 35.5658L76.8746 38.4484C76.6806 38.509 76.4078 38.5788 76.0562 38.6576C75.7046 38.7424 75.2772 38.794 74.774 38.8122C73.8404 38.8485 73.022 38.7243 72.3187 38.4393C71.6215 38.1544 71.079 37.7118 70.691 37.1117C70.303 36.5115 70.112 35.7537 70.1181 34.8383V21.307Z" fill="black"/>
<path d="M97.492 26.0175C97.3647 25.5749 97.1859 25.1839 96.9555 24.8444C96.7251 24.4989 96.4432 24.2079 96.1098 23.9714C95.7824 23.7289 95.4066 23.544 94.9822 23.4167C94.5639 23.2894 94.1001 23.2258 93.5909 23.2258C92.6391 23.2258 91.8025 23.4622 91.0811 23.9351C90.3657 24.4079 89.8079 25.096 89.4078 25.9993C89.0077 26.8965 88.8077 27.9938 88.8077 29.2912C88.8077 30.5885 89.0047 31.6919 89.3987 32.6012C89.7928 33.5106 90.3505 34.2048 91.072 34.6837C91.7934 35.1565 92.6451 35.393 93.6273 35.393C94.5184 35.393 95.2793 35.2354 95.9097 34.9201C96.5463 34.5988 97.0313 34.1472 97.3647 33.5652C97.7042 32.9832 97.874 32.2951 97.874 31.5009L98.6742 31.6191H93.8728V28.6546H101.666V31.0008C101.666 32.6376 101.32 34.0441 100.629 35.2202C99.9382 36.3902 98.9864 37.2935 97.7739 37.9301C96.5614 38.5606 95.1732 38.8758 93.6091 38.8758C91.8631 38.8758 90.3293 38.4909 89.0077 37.7209C87.6861 36.945 86.6555 35.8446 85.9159 34.42C85.1823 32.9892 84.8156 31.2918 84.8156 29.3276C84.8156 27.818 85.0338 26.4722 85.4703 25.29C85.9129 24.1018 86.5312 23.0954 87.3254 22.2709C88.1196 21.4465 89.0441 20.819 90.0989 20.3886C91.1538 19.9581 92.2966 19.7429 93.5272 19.7429C94.5821 19.7429 95.5642 19.8975 96.4735 20.2067C97.3829 20.5098 98.1892 20.9402 98.8924 21.498C99.6017 22.0557 100.181 22.7196 100.629 23.4895C101.078 24.2533 101.366 25.096 101.493 26.0175H97.492Z" fill="black"/>
<path d="M104.551 38.6212V24.6535H108.307V27.0905H108.452C108.707 26.2236 109.134 25.5689 109.734 25.1263C110.334 24.6777 111.026 24.4534 111.808 24.4534C112.002 24.4534 112.211 24.4655 112.435 24.4898C112.659 24.514 112.856 24.5474 113.026 24.5898V28.0272C112.844 27.9726 112.593 27.9241 112.271 27.8817C111.95 27.8392 111.656 27.818 111.389 27.818C110.819 27.818 110.31 27.9423 109.862 28.1909C109.419 28.4334 109.067 28.7729 108.807 29.2093C108.552 29.6458 108.425 30.149 108.425 30.7189V38.6212H104.551Z" fill="black"/>
<path d="M120.69 38.894C119.277 38.894 118.056 38.5939 117.025 37.9937C116 37.3875 115.209 36.5448 114.652 35.4657C114.094 34.3806 113.815 33.1226 113.815 31.6919C113.815 30.249 114.094 28.9881 114.652 27.909C115.209 26.8238 116 25.9811 117.025 25.3809C118.056 24.7747 119.277 24.4716 120.69 24.4716C122.102 24.4716 123.321 24.7747 124.345 25.3809C125.376 25.9811 126.17 26.8238 126.728 27.909C127.286 28.9881 127.565 30.249 127.565 31.6919C127.565 33.1226 127.286 34.3806 126.728 35.4657C126.17 36.5448 125.376 37.3875 124.345 37.9937C123.321 38.5939 122.102 38.894 120.69 38.894ZM120.708 35.8931C121.351 35.8931 121.887 35.7113 122.318 35.3475C122.748 34.9777 123.072 34.4745 123.291 33.838C123.515 33.2014 123.627 32.477 123.627 31.6646C123.627 30.8523 123.515 30.1278 123.291 29.4912C123.072 28.8547 122.748 28.3515 122.318 27.9817C121.887 27.6119 121.351 27.427 120.708 27.427C120.059 27.427 119.514 27.6119 119.071 27.9817C118.635 28.3515 118.304 28.8547 118.08 29.4912C117.862 30.1278 117.753 30.8523 117.753 31.6646C117.753 32.477 117.862 33.2014 118.08 33.838C118.304 34.4745 118.635 34.9777 119.071 35.3475C119.514 35.7113 120.059 35.8931 120.708 35.8931Z" fill="black"/>
<path d="M139.041 32.674V24.6535H142.914V38.6212H139.195V36.0841H139.05C138.734 36.9025 138.21 37.5603 137.477 38.0574C136.749 38.5545 135.861 38.8031 134.812 38.8031C133.878 38.8031 133.057 38.5909 132.348 38.1665C131.638 37.7422 131.084 37.1389 130.684 36.3569C130.29 35.5749 130.089 34.6382 130.083 33.547V24.6535H133.957V32.8559C133.963 33.6804 134.185 34.3321 134.621 34.811C135.058 35.2899 135.643 35.5294 136.376 35.5294C136.843 35.5294 137.279 35.4233 137.686 35.2111C138.092 34.9929 138.419 34.6716 138.668 34.2472C138.922 33.8228 139.047 33.2984 139.041 32.674Z" fill="black"/>
<path d="M146.013 43.8591V24.6535H149.832V26.9996H150.005C150.175 26.6237 150.42 26.2418 150.742 25.8538C151.069 25.4598 151.494 25.1324 152.015 24.8717C152.542 24.605 153.197 24.4716 153.979 24.4716C154.998 24.4716 155.937 24.7383 156.798 25.2718C157.659 25.7992 158.347 26.5965 158.862 27.6634C159.378 28.7244 159.635 30.055 159.635 31.6555C159.635 33.2136 159.384 34.5291 158.881 35.6021C158.383 36.6691 157.704 37.4784 156.844 38.0301C155.989 38.5757 155.031 38.8485 153.97 38.8485C153.218 38.8485 152.579 38.7243 152.051 38.4757C151.53 38.2271 151.102 37.9149 150.769 37.5391C150.436 37.1571 150.181 36.7722 150.005 36.3842H149.887V43.8591H146.013ZM149.805 31.6373C149.805 32.4679 149.92 33.1923 150.151 33.8107C150.381 34.4291 150.714 34.911 151.151 35.2566C151.587 35.5961 152.118 35.7658 152.742 35.7658C153.373 35.7658 153.906 35.593 154.343 35.2475C154.779 34.8959 155.11 34.4109 155.334 33.7925C155.564 33.1681 155.68 32.4497 155.68 31.6373C155.68 30.831 155.567 30.1217 155.343 29.5094C155.119 28.8971 154.788 28.4182 154.352 28.0726C153.915 27.7271 153.379 27.5543 152.742 27.5543C152.112 27.5543 151.578 27.721 151.142 28.0545C150.711 28.3879 150.381 28.8608 150.151 29.4731C149.92 30.0854 149.805 30.8068 149.805 31.6373Z" fill="black"/>
<path d="M2 7.3744V6H8.57899V7.3744H6.12653V13.8845H4.45245V7.3744H2Z" fill="black"/>
<path d="M11.2974 10.4658V13.8845H9.63115V6H11.2505V9.01444H11.3209C11.4565 8.66538 11.6755 8.39204 11.978 8.19442C12.2805 7.99422 12.6599 7.89413 13.1162 7.89413C13.5334 7.89413 13.8972 7.98396 14.2075 8.16362C14.5204 8.34071 14.7629 8.59609 14.935 8.92974C15.1097 9.26083 15.1958 9.65736 15.1932 10.1193V13.8845H13.5269V10.4119C13.5295 10.0475 13.4356 9.76388 13.2453 9.56112C13.0575 9.35836 12.7942 9.25698 12.4552 9.25698C12.2283 9.25698 12.0275 9.30446 11.8528 9.39942C11.6807 9.49439 11.5451 9.63298 11.446 9.81521C11.3496 9.99487 11.3 10.2117 11.2974 10.4658Z" fill="black"/>
<path d="M19.2425 14C18.6245 14 18.0925 13.8768 17.6466 13.6304C17.2033 13.3815 16.8617 13.0298 16.6218 12.5756C16.3819 12.1187 16.262 11.5784 16.262 10.9548C16.262 10.3465 16.3819 9.81264 16.6218 9.35322C16.8617 8.89381 17.1994 8.53577 17.6349 8.27912C18.0729 8.02246 18.5866 7.89413 19.176 7.89413C19.5723 7.89413 19.9413 7.95701 20.2829 8.08277C20.6271 8.20597 20.927 8.39204 21.1825 8.641C21.4407 8.88996 21.6415 9.20308 21.7849 9.58036C21.9283 9.95508 22 10.394 22 10.897V11.3475H16.9269V10.3311H20.4315C20.4315 10.095 20.3794 9.88579 20.2751 9.70356C20.1708 9.52133 20.026 9.37889 19.8409 9.27623C19.6584 9.171 19.4459 9.11838 19.2033 9.11838C18.9504 9.11838 18.7262 9.17613 18.5306 9.29163C18.3376 9.40456 18.1864 9.55727 18.0769 9.74976C17.9673 9.93969 17.9113 10.1514 17.9087 10.385V11.3513C17.9087 11.6439 17.9634 11.8967 18.0729 12.1097C18.1851 12.3227 18.3428 12.487 18.5462 12.6025C18.7496 12.718 18.9908 12.7757 19.2698 12.7757C19.455 12.7757 19.6245 12.7501 19.7783 12.6988C19.9322 12.6474 20.0639 12.5704 20.1734 12.4678C20.2829 12.3651 20.3663 12.2393 20.4237 12.0905L21.9648 12.1906C21.8866 12.555 21.7262 12.8733 21.4837 13.1453C21.2438 13.4148 20.9335 13.6253 20.5528 13.7767C20.1747 13.9256 19.7379 14 19.2425 14Z" fill="black"/>
</svg>
