<svg width="43" height="79" viewBox="0 0 43 79" fill="none" xmlns="http://www.w3.org/2000/svg">
    <g clip-path="url(#clip0)">
        <path d="M0.00012207 66.9853V75.7794C13.8486 80.0978 28.6873 80.0728 42.5211 75.7075V66.9853C42.2857 66.199 41.77 65.5262 41.072 65.0946C40.5663 64.8338 40.0055 64.6977 39.4366 64.6977C38.8676 64.6977 38.3068 64.8338 37.8011 65.0946C37.0124 65.5205 36.3759 66.1814 35.9794 66.9853C34.5827 69.53 28.33 69.9159 22.896 70.2561C14.0255 70.8121 9.54989 63.1976 2.18068 65.895C1.41565 66.1764 0.684301 66.5421 0.00012207 66.9853Z" fill="url(#paint0_linear)"/>
        <path d="M21.2617 70.2571C33.0035 70.2571 42.5222 68.5486 42.5222 66.4411C42.5222 64.3336 33.0035 62.6251 21.2617 62.6251C9.51986 62.6251 0.0012207 64.3336 0.0012207 66.4411C0.0012207 68.5486 9.51986 70.2571 21.2617 70.2571Z" fill="url(#paint1_linear)"/>
        <path d="M0.00012207 54.7521V63.5465C13.8486 67.8647 28.6872 67.8394 42.5211 63.4743V54.7521C42.2859 53.9657 41.7702 53.2931 41.072 52.8617C40.5663 52.6006 40.0056 52.4645 39.4366 52.4645C38.8675 52.4645 38.3068 52.6006 37.8011 52.8617C37.0124 53.2876 36.3759 53.9482 35.9794 54.7521C34.5827 57.2968 28.33 57.6827 22.896 58.0229C14.0255 58.579 9.54989 50.9644 2.18068 53.6618C1.41536 53.9426 0.68393 54.3083 0.00012207 54.7521Z" fill="url(#paint2_linear)"/>
        <path d="M21.2606 58.0231C33.0024 58.0231 42.5211 56.3146 42.5211 54.2071C42.5211 52.0996 33.0024 50.3911 21.2606 50.3911C9.51876 50.3911 0.00012207 52.0996 0.00012207 54.2071C0.00012207 56.3146 9.51876 58.0231 21.2606 58.0231Z" fill="url(#paint3_linear)"/>
        <path d="M0.00012207 42.9991V51.7932C13.8486 56.1116 28.6873 56.0866 42.5211 51.7214V42.9991C42.2857 42.2129 41.77 41.5401 41.072 41.1084C40.5663 40.8477 40.0055 40.7115 39.4366 40.7115C38.8676 40.7115 38.3068 40.8477 37.8011 41.1084C37.0124 41.5344 36.3759 42.1952 35.9794 42.9991C34.5827 45.5438 28.33 45.9298 22.896 46.27C14.0255 46.826 9.54989 39.2115 2.18068 41.9088C1.41565 42.1903 0.684301 42.556 0.00012207 42.9991Z" fill="url(#paint4_linear)"/>
        <path d="M21.2616 46.2709C33.0034 46.2709 42.522 44.5624 42.522 42.4549C42.522 40.3474 33.0034 38.6389 21.2616 38.6389C9.51974 38.6389 0.00109863 40.3474 0.00109863 42.4549C0.00109863 44.5624 9.51974 46.2709 21.2616 46.2709Z" fill="url(#paint5_linear)"/>
    </g>
    <circle cx="20.933" cy="20.1805" r="19.6121" fill="black" stroke="url(#paint6_linear)" stroke-width="1.13693"/>
    <path d="M27.3408 15.5921C27.2654 15.7914 22.9517 13.5818 20.2629 15.4812C18.6844 16.7846 18.1182 18.9294 18.6844 20.8147C18.9903 21.8329 19.1388 22.2497 19.641 22.9672C20.0093 23.4933 20.5259 24.0673 21.2434 24.4739C21.4071 24.5947 23.605 25.9187 26.2738 25.6044C30.4715 25.1107 33.7236 19.5992 33.7236 19.5992C33.7236 19.5992 32.9663 21.2291 32.8964 21.378C30.8691 25.6927 27.5005 26.8426 27.5005 26.8426C24.5063 27.8648 21.5095 26.5563 21.1787 26.3898C19.0163 25.3019 18.083 24.2972 17.7924 23.7514C17.3185 22.8613 16.1306 19.3834 17.269 16.7846C18.1126 14.8588 19.9439 14.0527 20.1599 13.9622C23.6447 12.5001 27.4093 15.411 27.3408 15.5921Z" fill="url(#paint7_linear)"/>
    <path d="M27.3408 15.5921C27.1992 15.724 26.1819 14.4967 24.5486 13.6104C24.0816 13.3571 22.3002 12.4466 20.1243 12.4933C16.5174 12.5705 14.1203 15.23 13.6929 15.7229C11.5565 18.1863 10.5506 21.9796 11.7523 24.9314C13.314 28.7673 18.7129 31.4489 18.1614 31.0024L17.6833 30.8208C17.1318 30.6022 10.3645 27.5875 10.1221 21.482C9.98542 18.0418 11.0859 15.2556 11.7523 14.495C12.9165 13.1661 13.8501 12.5263 14.6371 12.1038C16.2184 11.2553 19.1925 10.5282 21.3997 10.8622C23.8763 11.2371 25.4309 12.9748 26.189 13.8222C26.8728 14.5865 27.4551 15.4855 27.3408 15.5921Z" fill="url(#paint8_linear)"/>
    <path d="M20.16 13.9626C19.6579 14.2373 19.2099 14.6014 18.8382 15.0372C18.5292 15.4032 17.9779 16.1808 17.7053 17.9356C17.4716 19.4395 17.214 21.0982 18.0007 22.8954C19.2782 25.8125 22.2877 26.7729 23.0053 27.0018C24.8402 27.5656 26.8041 27.5476 28.6285 26.9501C30.8737 26.2233 32.4438 24.7209 32.5819 24.8966C32.6673 25.0057 32.0894 25.6141 31.6881 25.9859C30.4635 27.0977 28.9635 27.8594 27.3448 28.1912C26.2038 28.4186 25.0322 28.447 23.8815 28.275C22.9363 28.1362 20.1248 27.7261 17.9654 25.3284C17.3607 24.6568 15.6552 22.7634 15.7885 20.0842C15.8847 18.1542 16.8864 16.7905 17.2263 16.3403C18.0052 15.3287 19.0101 14.5143 20.16 13.9626Z" fill="url(#paint9_linear)"/>
    <path d="M27.3407 15.5921C27.508 15.5174 27.1289 13.4323 25.6517 11.695C25.056 10.993 24.3388 10.4045 23.5345 9.95774C20.2098 8.14751 16.3464 9.69409 15.4615 10.0486C14.5551 10.4116 12.5966 11.226 10.9729 13.2612C9.1426 15.5555 8.87154 18.017 8.76734 19.0944C8.32205 23.6951 10.6529 27.3244 10.8728 27.2537C11.0412 27.1997 9.89127 24.9231 10.122 21.4821C10.2099 20.1721 10.3991 17.8147 12.0526 15.5117C13.0543 14.1535 14.3658 13.0553 15.8774 12.3089C16.7521 11.8747 19.7207 10.4013 22.855 11.5125C23.8099 11.858 24.6891 12.3854 25.4442 13.0656C26.8087 14.3184 27.2038 15.6533 27.3407 15.5921Z" fill="url(#paint10_linear)"/>
    <path d="M21.7398 28.2576C21.6613 28.3918 17.1946 27.1904 15.1575 23.3591C14.8509 22.7827 13.2464 19.7409 14.1753 17.3491C14.5638 16.3486 15.3286 15.2286 15.6376 14.8807C16.1366 14.3188 17.2309 14.188 18.3059 13.7303C18.7889 13.5295 19.3299 13.4843 19.8482 13.4151C20.3621 13.3516 20.8173 13.3652 21.3326 13.4151C22.0327 13.4614 24.9145 14.346 23.946 14.1931C23.0371 14.0496 20.996 13.5516 19.8482 14.1931C19.7432 14.2517 19.625 14.3264 19.5613 14.3667C18.6341 14.9496 17.8282 15.7069 17.188 16.5967C16.9653 16.9129 16.0164 18.2972 15.9412 20.0851C15.8481 22.3221 17.0716 23.9541 17.7937 24.9176C19.6167 27.3478 21.7966 28.1615 21.7398 28.2576Z" fill="url(#paint11_linear)"/>
    <path d="M19.5691 12.3959C20.5098 12.2597 21.315 12.2127 22.2478 12.3959C23.3183 12.6119 23.9103 12.8345 24.6394 13.2091C25.8846 13.8489 27.4607 15.4894 27.3407 15.7356C27.1269 16.1745 22.0028 12.3518 17.9227 14.1041C15.7253 15.0478 14.2332 17.8349 14.0253 18.2563C13.5239 19.1854 13.494 19.9617 13.4484 21.017C13.414 22.27 13.765 23.2607 14.0851 24.1641C14.5406 25.45 15.2737 26.8215 15.2577 26.829C15.2569 26.829 15.2543 26.8257 15.2536 26.8247C12.865 23.3283 12.6101 21.6793 12.6101 21.6793C12.5024 20.9829 12.0423 18.0076 14.0253 15.4958C15.8331 13.2061 18.8678 12.4985 19.5691 12.3959Z" fill="url(#paint12_linear)"/>
    <defs>
        <linearGradient id="paint0_linear" x1="0.00012207" y1="71.8488" x2="42.5211" y2="71.8488" gradientUnits="userSpaceOnUse">
            <stop offset="0.218" stop-color="#FAB961"/>
            <stop offset="0.847" stop-color="#212121"/>
        </linearGradient>
        <linearGradient id="paint1_linear" x1="21.2617" y1="62.6251" x2="21.2617" y2="70.2571" gradientUnits="userSpaceOnUse">
            <stop offset="0.218" stop-color="#FAB961"/>
            <stop offset="0.847" stop-color="#212121"/>
        </linearGradient>
        <linearGradient id="paint2_linear" x1="0.00012207" y1="59.6156" x2="42.5211" y2="59.6156" gradientUnits="userSpaceOnUse">
            <stop offset="0.218" stop-color="#FAB961"/>
            <stop offset="0.847" stop-color="#212121"/>
        </linearGradient>
        <linearGradient id="paint3_linear" x1="21.2606" y1="50.3911" x2="21.2606" y2="58.0231" gradientUnits="userSpaceOnUse">
            <stop offset="0.218" stop-color="#FAB961"/>
            <stop offset="0.847" stop-color="#212121"/>
        </linearGradient>
        <linearGradient id="paint4_linear" x1="0.00012207" y1="47.8627" x2="42.5211" y2="47.8627" gradientUnits="userSpaceOnUse">
            <stop offset="0.218" stop-color="#FAB961"/>
            <stop offset="0.847" stop-color="#212121"/>
        </linearGradient>
        <linearGradient id="paint5_linear" x1="21.2616" y1="38.6389" x2="21.2616" y2="46.2709" gradientUnits="userSpaceOnUse">
            <stop offset="0.218" stop-color="#FAB961"/>
            <stop offset="0.847" stop-color="#212121"/>
        </linearGradient>
        <linearGradient id="paint6_linear" x1="20.933" y1="0" x2="20.933" y2="40.3611" gradientUnits="userSpaceOnUse">
            <stop stop-color="#FAB961"/>
            <stop offset="1" stop-opacity="0"/>
        </linearGradient>
        <linearGradient id="paint7_linear" x1="25.2569" y1="13.5529" x2="25.2569" y2="27.2294" gradientUnits="userSpaceOnUse">
            <stop stop-color="#FAB961"/>
            <stop offset="1"/>
        </linearGradient>
        <linearGradient id="paint8_linear" x1="18.7328" y1="10.7792" x2="18.7328" y2="31.0509" gradientUnits="userSpaceOnUse">
            <stop stop-color="#FAB961"/>
            <stop offset="1"/>
        </linearGradient>
        <linearGradient id="paint9_linear" x1="24.1858" y1="13.9626" x2="24.1858" y2="28.3858" gradientUnits="userSpaceOnUse">
            <stop stop-color="#FAB961"/>
            <stop offset="1"/>
        </linearGradient>
        <linearGradient id="paint10_linear" x1="18.0441" y1="9.09546" x2="18.0441" y2="27.2548" gradientUnits="userSpaceOnUse">
            <stop/>
            <stop offset="0.414296" stop-color="#FAB961"/>
        </linearGradient>
        <linearGradient id="paint11_linear" x1="18.2616" y1="13.5004" x2="18.2616" y2="28.2675" gradientUnits="userSpaceOnUse">
            <stop/>
            <stop offset="1" stop-color="#FAB961"/>
        </linearGradient>
        <linearGradient id="paint12_linear" x1="19.917" y1="12.6311" x2="19.917" y2="26.829" gradientUnits="userSpaceOnUse">
            <stop/>
            <stop offset="1" stop-color="#FAB961"/>
        </linearGradient>
        <clipPath id="clip0">
            <rect width="42.5209" height="40.3611" fill="white" transform="translate(0 38.6389)"/>
        </clipPath>
    </defs>
</svg>
