<svg width="58" height="80" viewBox="0 0 58 80" fill="none" xmlns="http://www.w3.org/2000/svg">
    <path d="M13.0434 78.7992C13.2543 79.0123 13.541 79.1329 13.8408 79.1348C14.1407 79.1366 14.429 79.0192 14.6425 78.8087L20.1334 73.3993C20.5824 72.9456 20.8957 72.3755 21.0382 71.7534C21.1806 71.1312 21.1466 70.4815 20.9397 69.8777L22.1196 68.7387C22.7517 68.1265 23.5982 67.785 24.4782 67.7868H39.5351C42.1919 67.7924 44.7447 66.755 46.6447 64.8979C46.7236 64.8214 46.0472 65.6181 56.9162 52.6339C57.696 51.7197 58.0808 50.5333 57.9858 49.3355C57.8909 48.1377 57.324 47.0266 56.4099 46.2468C55.4957 45.4669 54.3093 45.0822 53.1115 45.1771C51.9137 45.2721 50.8023 45.839 50.0225 46.7531L43.344 53.6222C42.9187 53.0977 42.3824 52.6743 41.7733 52.3828C41.1643 52.0913 40.4979 51.9391 39.8227 51.9369H27.1943C25.3986 51.1847 23.4706 50.7993 21.5238 50.8038C18.9333 50.7112 16.3678 51.3393 14.113 52.6178C11.8582 53.8964 10.0024 55.7754 8.75192 58.0459C8.20774 57.9418 7.64658 57.973 7.11727 58.1366C6.58795 58.3003 6.10668 58.5914 5.71623 58.9845L0.328471 64.388C0.117878 64.6006 0 64.8877 0 65.1869C0 65.4862 0.117878 65.7735 0.328471 65.9861L13.0434 78.7992ZM21.5166 53.0685C23.2326 53.0649 24.9305 53.4184 26.5024 54.1066C26.6456 54.1693 26.8003 54.2017 26.9566 54.2015H39.8179C40.4187 54.2015 40.9952 54.4402 41.42 54.865C41.8448 55.2898 42.0834 55.8659 42.0834 56.4667C42.0834 57.0675 41.8448 57.6436 41.42 58.0684C40.9952 58.4933 40.4187 58.7319 39.8179 58.7319H30.5775C30.2771 58.7319 29.9888 58.8513 29.7764 59.0636C29.5641 59.276 29.445 59.5641 29.445 59.8644C29.445 60.1647 29.5641 60.4524 29.7764 60.6648C29.9888 60.8771 30.2771 60.9965 30.5775 60.9965H39.8179C40.4633 60.9979 41.1016 60.8611 41.6897 60.5954C42.2779 60.3297 42.8022 59.9413 43.2277 59.4562C43.6533 58.971 43.97 58.4004 44.1568 57.7827C44.3436 57.1649 44.3964 56.5144 44.311 55.8747C50.777 49.229 51.6876 48.2951 51.7265 48.249C51.9171 48.0169 52.1518 47.8251 52.4172 47.6846C52.6826 47.5441 52.9731 47.4579 53.2722 47.4308C53.5713 47.4036 53.8728 47.4361 54.1592 47.5265C54.4456 47.617 54.7114 47.7633 54.9406 47.9573C55.1699 48.1512 55.3584 48.3889 55.495 48.6563C55.6317 48.9238 55.7135 49.2157 55.7363 49.5152C55.7591 49.8146 55.7224 50.1156 55.6278 50.4007C55.5333 50.6857 55.3834 50.9491 55.1861 51.1756L45.0272 63.3184C43.5528 64.7382 41.5844 65.5296 39.5375 65.5258H24.4806C23.0134 65.5226 21.6027 66.0927 20.5496 67.1142L19.5867 68.0429L10.7144 59.1704C11.7613 57.2424 13.3293 55.6478 15.2395 54.5688C17.1497 53.4898 19.325 52.9698 21.5166 53.0685ZM7.31886 60.585C7.49979 60.4032 7.73748 60.2882 7.9924 60.2592C8.24732 60.2303 8.5046 60.2891 8.72168 60.4259C8.91718 60.5473 8.35752 60.0323 18.5319 70.1946C18.7416 70.4075 18.8586 70.6942 18.8586 70.993C18.8586 71.2917 18.7416 71.5785 18.5319 71.7913L13.8509 76.4056L2.72204 65.1919L7.31886 60.585Z" fill="black"/>
    <circle cx="29.1916" cy="18.9489" r="18.4151" fill="black" stroke="url(#paint0_linear)" stroke-width="1.06754"/>
    <path d="M28.22 8.137V10.2723C27.0051 10.7031 25.9817 11.5493 25.33 12.6614C24.6783 13.7736 24.4407 15.0801 24.6586 16.3505C24.8766 17.621 25.5364 18.7734 26.5215 19.6048C27.5066 20.4361 28.7537 20.893 30.0427 20.8943C30.526 20.8943 30.989 21.0861 31.3307 21.4279C31.6724 21.7696 31.8647 22.2333 31.8647 22.7166C31.8647 23.1999 31.6724 23.6632 31.3307 24.005C30.989 24.3467 30.526 24.5386 30.0427 24.5386C29.5717 24.4923 29.116 24.3453 28.7069 24.1072C28.2979 23.8691 27.945 23.5455 27.6721 23.1588C27.3609 22.7889 26.9152 22.5578 26.4335 22.5164C25.9519 22.4749 25.4738 22.6265 25.1039 22.9377C24.734 23.2489 24.5026 23.6943 24.4611 24.1759C24.4196 24.6575 24.5712 25.136 24.8824 25.5059C25.754 26.5879 26.9073 27.4082 28.2154 27.8765V30.0037C28.2154 30.487 28.4076 30.9507 28.7494 31.2924C29.0911 31.6342 29.554 31.8261 30.0373 31.8261C30.5206 31.8261 30.9843 31.6342 31.3261 31.2924C31.6678 30.9507 31.8601 30.487 31.8601 30.0037V27.8765C33.0768 27.4473 34.1022 26.6016 34.7555 25.4889C35.4087 24.3763 35.6473 23.0684 35.4292 21.7968C35.211 20.5251 34.5507 19.3719 33.564 18.5406C32.5772 17.7093 31.3276 17.2537 30.0373 17.2546C29.554 17.2546 29.0911 17.0627 28.7494 16.7209C28.4076 16.3792 28.2154 15.9155 28.2154 15.4322C28.2154 14.9489 28.4076 14.4856 28.7494 14.1439C29.0911 13.8021 29.554 13.6099 30.0373 13.6099C30.7922 13.6591 31.4987 13.9991 32.0082 14.5583C32.1773 14.7378 32.381 14.8811 32.6071 14.9796C32.8331 15.0781 33.0774 15.1297 33.324 15.1312C33.5706 15.1328 33.8144 15.0841 34.0416 14.9885C34.2689 14.8928 34.4746 14.7522 34.6459 14.5749C34.8172 14.3975 34.951 14.1872 35.0387 13.9567C35.1263 13.7262 35.1661 13.48 35.156 13.2337C35.1458 12.9873 35.0856 12.7458 34.9793 12.5233C34.8729 12.3008 34.7224 12.1022 34.5371 11.9395C33.7808 11.183 32.8624 10.6089 31.8508 10.2611V8.13855C31.8508 7.89925 31.8035 7.66241 31.7119 7.44132C31.6203 7.22024 31.486 7.01941 31.3168 6.8502C31.1476 6.68099 30.9468 6.54667 30.7257 6.4551C30.5046 6.36352 30.2674 6.31619 30.0281 6.31619C29.7888 6.31619 29.5523 6.36352 29.3312 6.4551C29.1101 6.54667 28.9086 6.68099 28.7393 6.8502C28.5701 7.01941 28.4366 7.22024 28.345 7.44132C28.2534 7.66241 28.2061 7.89925 28.2061 8.13855L28.22 8.137Z" fill="url(#paint1_linear)"/>
    <defs>
        <linearGradient id="paint0_linear" x1="29.1916" y1="0" x2="29.1916" y2="37.8978" gradientUnits="userSpaceOnUse">
            <stop stop-color="#FAB961"/>
            <stop offset="1" stop-opacity="0"/>
        </linearGradient>
        <linearGradient id="paint1_linear" x1="29.9811" y1="31.8261" x2="29.9811" y2="6.31619" gradientUnits="userSpaceOnUse">
            <stop offset="0.218" stop-color="#FAB961"/>
            <stop offset="1" stop-color="#212121"/>
        </linearGradient>
    </defs>
</svg>
