<svg width="76" height="79" viewBox="0 0 76 79" fill="none" xmlns="http://www.w3.org/2000/svg">
    <g clip-path="url(#clip0)">
        <path d="M35.5786 70.381V68.8084C35.5786 68.7708 35.5769 68.7321 35.5732 68.6945C34.9625 62.5846 32.2907 58.5475 27.8512 57.0219L23.6419 55.5614L16.0766 49.1388C15.5497 48.6909 14.8812 48.4439 14.1896 48.4415C13.498 48.4391 12.8278 48.6815 12.2977 49.1258C11.7677 49.5701 11.4119 50.1876 11.2934 50.8689C11.1749 51.5503 11.3013 52.2517 11.6502 52.8488L11.0414 52.5685L7.61741 48.4415L6.06686 44.4974C5.76524 43.7254 5.17082 43.1039 4.41306 42.7681C3.65531 42.4323 2.79559 42.4094 2.02108 42.7045C1.24657 42.9996 0.620003 43.5888 0.277829 44.3437C-0.0643451 45.0986 -0.0943826 45.9581 0.194185 46.7351L1.96182 51.5291C1.99115 51.6089 2.02957 51.6852 2.07632 51.7563L6.8052 59.0347C6.83196 59.0756 6.86126 59.1148 6.89287 59.1521C8.5355 61.0837 10.5764 62.6372 12.8757 63.7061C14.7536 64.5727 17.456 65.9492 19.2488 67.8862C19.7092 68.3836 20.147 68.9771 20.453 70.5671C20.1109 70.7682 19.8273 71.0551 19.6302 71.3994C19.433 71.7437 19.3291 72.1336 19.3288 72.5304V75.8941C19.3294 76.498 19.5696 77.0769 19.9966 77.5039C20.4236 77.9308 21.0025 78.171 21.6064 78.1716H34.8207C35.4246 78.171 36.0035 77.9308 36.4305 77.5038C36.8575 77.0769 37.0977 76.498 37.0984 75.8941V72.5288C37.0977 72.0578 36.9512 71.5984 36.6791 71.2139C36.407 70.8293 36.0226 70.5384 35.5786 70.381ZM13.8353 61.6253C11.8597 60.7065 10.1034 59.3759 8.68435 57.7226L4.06589 50.6147L2.34232 45.9428C2.30047 45.8292 2.28327 45.708 2.29192 45.5873C2.30057 45.4665 2.33488 45.349 2.39249 45.2425C2.45009 45.1361 2.52971 45.0431 2.62605 44.9698C2.72239 44.8965 2.83318 44.8445 2.95116 44.8174C3.15011 44.7726 3.35851 44.8002 3.53898 44.8952C3.71945 44.9901 3.8602 45.1463 3.93595 45.3356L5.55322 49.4495C5.59793 49.5625 5.66012 49.6677 5.7375 49.7614L9.44483 54.2302C9.55408 54.3621 9.69159 54.4677 9.84724 54.5391L15.5256 57.1531L18.5195 60.5591C18.6188 60.6721 18.7393 60.7644 18.8743 60.8307C19.0093 60.8971 19.1559 60.9361 19.306 60.9458C19.4561 60.9554 19.6067 60.9354 19.749 60.8869C19.8913 60.8384 20.0227 60.7623 20.1357 60.663C20.2486 60.5637 20.3409 60.4431 20.4073 60.3081C20.4736 60.1732 20.5127 60.0264 20.5223 59.8763C20.5319 59.7263 20.5119 59.5757 20.4634 59.4334C20.4149 59.2911 20.3388 59.1597 20.2395 59.0467L17.0852 55.4588C17.078 55.4504 17.07 55.442 17.0625 55.4344L13.7066 51.8018C13.5976 51.6814 13.5385 51.5241 13.5412 51.3617C13.5438 51.1993 13.6082 51.0441 13.7211 50.9274C13.8341 50.8107 13.9872 50.7413 14.1494 50.7334C14.3116 50.7254 14.4708 50.7794 14.5946 50.8845L22.3233 57.4459C22.4314 57.5375 22.5557 57.6081 22.6897 57.6542L27.1048 59.1863C30.6774 60.4142 32.7579 63.6711 33.2898 68.8659V70.252H22.7246C22.3483 68.2224 21.7287 67.1919 20.9313 66.3296C18.8611 64.0938 15.8899 62.5743 13.8353 61.6253ZM34.8082 75.8802H21.6189V72.5417H34.8082V75.8802Z" fill="black"/>
        <path d="M75.5047 44.1528C75.2199 43.626 74.7906 43.1916 74.2673 42.9006C73.7439 42.6097 73.1483 42.4743 72.5506 42.5104C71.9528 42.5466 71.3779 42.7528 70.8934 43.1047C70.4089 43.4566 70.0351 43.9397 69.8159 44.4969L68.2651 48.4397L64.8414 52.5673L64.2354 52.8464C64.5819 52.2489 64.7065 51.5483 64.5869 50.868C64.4674 50.1877 64.1114 49.5715 63.5819 49.128C63.0523 48.6845 62.3832 48.4423 61.6925 48.444C61.0018 48.4457 60.3339 48.6913 59.8065 49.1374L52.2406 55.56L48.0349 57.0199C43.592 58.5467 40.9201 62.5831 40.3094 68.6937C40.3053 68.7315 40.3034 68.7696 40.3035 68.8076V70.3802C39.8595 70.5375 39.4749 70.8285 39.2028 71.2131C38.9307 71.5978 38.7844 72.0572 38.7839 72.5283V75.8915C38.7847 76.4953 39.0249 77.0742 39.4519 77.5012C39.8789 77.9281 40.4577 78.1683 41.0616 78.1691H54.2757C54.8795 78.1685 55.4585 77.9283 55.8855 77.5013C56.3125 77.0743 56.5527 76.4954 56.5533 75.8915V72.5288C56.553 72.132 56.4493 71.7421 56.2523 71.3977C56.0552 71.0533 55.7717 70.7662 55.4298 70.5649C55.7351 68.9749 56.1734 68.3816 56.6333 67.8841C58.4254 65.9471 61.1289 64.571 63.0063 63.7039C65.3058 62.6353 67.3468 61.0817 68.9893 59.1499C69.0214 59.113 69.0508 59.0737 69.0771 59.0325L73.8057 51.7547C73.8524 51.6833 73.8908 51.6069 73.9202 51.5269L75.688 46.7342C75.8425 46.3156 75.9061 45.8689 75.8745 45.4238C75.843 44.9787 75.7168 44.5454 75.5047 44.1528ZM54.2636 75.8802H41.0745V72.5416H54.2636V75.8802ZM73.5403 45.942L71.8167 50.6139L67.1982 57.7218C65.7791 59.3751 64.0229 60.7057 62.0473 61.6245C59.9927 62.5734 57.022 64.0923 54.9531 66.3289C54.1557 67.1906 53.5361 68.2212 53.1598 70.2507H42.5946V68.8653C43.1265 63.6696 45.2073 60.4127 48.7833 59.1841L53.1941 57.6532C53.3281 57.6067 53.4523 57.5359 53.5605 57.4444L61.2892 50.8829C61.4119 50.7801 61.5686 50.7267 61.7286 50.7331C61.8885 50.7395 62.0404 50.8052 62.1545 50.9174C62.2706 51.0317 62.3384 51.1861 62.3441 51.3489C62.3498 51.5116 62.2929 51.6703 62.1851 51.7924L58.8215 55.4322C58.8143 55.4405 58.8062 55.4489 58.7989 55.4573L55.6445 59.0452C55.5452 59.1581 55.4691 59.2895 55.4205 59.4318C55.372 59.5742 55.352 59.7247 55.3616 59.8748C55.3713 60.0249 55.4104 60.1716 55.4767 60.3066C55.5431 60.4415 55.6353 60.5621 55.7482 60.6614C55.8612 60.7607 55.9926 60.8368 56.1349 60.8853C56.2773 60.9338 56.4278 60.9539 56.5779 60.9442C56.728 60.9346 56.8746 60.8955 57.0096 60.8291C57.1446 60.7628 57.2652 60.6705 57.3645 60.5576L60.3584 57.1529L66.0367 54.5389C66.1924 54.4673 66.3299 54.3615 66.4391 54.2294L70.1464 49.7606C70.2241 49.6671 70.2863 49.5618 70.3307 49.4487L71.9481 45.3354C72.0236 45.1458 72.1642 44.9894 72.3447 44.8942C72.5252 44.7991 72.7337 44.7715 72.9328 44.8163C73.0508 44.8434 73.1616 44.8953 73.258 44.9687C73.3543 45.042 73.4339 45.1349 73.4914 45.2414C73.549 45.3479 73.5832 45.4655 73.5917 45.5862C73.6003 45.707 73.583 45.8282 73.541 45.9417L73.5403 45.942Z" fill="black"/>
        <path d="M56.9971 20.4777L59.5043 22.4793L58.6525 25.5722C58.5639 25.8896 58.5745 26.2264 58.6828 26.5376C58.7911 26.8487 58.992 27.1193 59.2586 27.313C59.5251 27.5067 59.8445 27.6142 60.1739 27.6211C60.5033 27.6281 60.8269 27.5341 61.1013 27.3518L63.7797 25.5864L66.4587 27.3518C66.7334 27.5329 67.0567 27.626 67.3856 27.6185C67.7145 27.611 68.0333 27.5034 68.2994 27.31C68.5655 27.1166 68.7663 26.8467 68.8749 26.5362C68.9836 26.2257 68.995 25.8894 68.9075 25.5722L68.0559 22.4793L70.5632 20.4773C70.8202 20.2721 71.0085 19.9933 71.103 19.6783C71.1975 19.3633 71.1936 19.027 71.092 18.7142C70.9904 18.4014 70.7959 18.127 70.5343 17.9276C70.2727 17.7283 69.9566 17.6134 69.628 17.5984L66.423 17.4529L65.2932 14.4494C65.1774 14.1416 64.9705 13.8763 64.7 13.6891C64.4296 13.5019 64.1085 13.4016 63.7796 13.4016C63.4507 13.4016 63.1296 13.5019 62.8591 13.6891C62.5887 13.8763 62.3817 14.1416 62.2659 14.4494L61.137 17.4529L57.9321 17.5984C57.6035 17.6134 57.2872 17.7283 57.0256 17.9276C56.764 18.127 56.5694 18.4015 56.4677 18.7144C56.3661 19.0272 56.3624 19.3636 56.4569 19.6787C56.5515 19.9938 56.7399 20.2725 56.997 20.4777H56.9971ZM61.996 19.7061C62.2198 19.696 62.4357 19.6203 62.6168 19.4887C62.798 19.357 62.9366 19.175 63.0153 18.9653L63.7803 16.9317L64.545 18.9653C64.6239 19.175 64.7625 19.357 64.9438 19.4887C65.1251 19.6204 65.341 19.696 65.5648 19.7061L67.7352 19.805L66.0372 21.1606C65.8621 21.3005 65.7319 21.4886 65.6627 21.7016C65.5935 21.9147 65.5882 22.1435 65.6477 22.3595L66.2244 24.4545L64.4101 23.2588C64.2231 23.1355 64.004 23.0698 63.78 23.0698C63.556 23.0698 63.337 23.1355 63.1499 23.2588L61.3359 24.4545L61.9125 22.3595C61.972 22.1435 61.9668 21.9147 61.8976 21.7016C61.8284 21.4886 61.6981 21.3005 61.5231 21.1606L59.8251 19.805L61.996 19.7061Z" fill="url(#paint0_linear)"/>
        <path d="M5.31964 20.4777L7.82687 22.4793L6.97522 25.5729C6.88794 25.89 6.89944 26.2261 7.00817 26.5365C7.11691 26.8469 7.31776 27.1167 7.58384 27.31C7.84992 27.5033 8.16857 27.6109 8.49737 27.6183C8.82616 27.6258 9.14943 27.5328 9.42401 27.3518L12.1031 25.5864L14.7815 27.3518C15.0561 27.5329 15.3794 27.626 15.7083 27.6185C16.0372 27.611 16.356 27.5034 16.6221 27.31C16.8882 27.1166 17.089 26.8467 17.1977 26.5362C17.3064 26.2257 17.3176 25.8894 17.2302 25.5722L16.3786 22.4793L18.8859 20.4777C19.1429 20.2725 19.3312 19.9937 19.4257 19.6787C19.5202 19.3636 19.5164 19.0273 19.4148 18.7144C19.3132 18.4016 19.1186 18.1272 18.857 17.9278C18.5954 17.7284 18.2793 17.6135 17.9507 17.5984L14.7455 17.4529L13.6166 14.4494C13.5009 14.1416 13.294 13.8763 13.0235 13.6891C12.7531 13.5019 12.432 13.4016 12.1031 13.4016C11.7742 13.4016 11.453 13.5019 11.1825 13.6891C10.9121 13.8763 10.7052 14.1416 10.5894 14.4494L9.45957 17.4529L6.25463 17.5984C5.9261 17.6135 5.60998 17.7285 5.34841 17.9278C5.08685 18.1272 4.89229 18.4016 4.79064 18.7144C4.68899 19.0271 4.68508 19.3634 4.77945 19.6785C4.87383 19.9936 5.06202 20.2724 5.31889 20.4777H5.31964ZM10.3179 19.7061C10.5418 19.696 10.7577 19.6204 10.939 19.4887C11.1203 19.357 11.259 19.175 11.3378 18.9653L12.1031 16.9317L12.8677 18.9653C12.9465 19.175 13.0852 19.3569 13.2664 19.4886C13.4477 19.6203 13.6635 19.6959 13.8873 19.7061L16.0577 19.805L14.3598 21.1606C14.1847 21.3005 14.0544 21.4886 13.9852 21.7016C13.916 21.9147 13.9108 22.1435 13.9703 22.3595L14.5471 24.4545L12.7329 23.2588C12.5459 23.1354 12.3267 23.0696 12.1027 23.0696C11.8787 23.0696 11.6596 23.1354 11.4726 23.2588L9.65839 24.4545L10.235 22.3595C10.2945 22.1435 10.2894 21.9148 10.2202 21.7017C10.151 21.4886 10.0208 21.3005 9.84573 21.1606L8.1478 19.805L10.3179 19.7061Z" fill="url(#paint1_linear)"/>
        <path d="M31.1583 7.07639L33.6656 9.07859L32.814 12.1714C32.7266 12.4885 32.7381 12.8246 32.8468 13.1351C32.9556 13.4455 33.1563 13.7154 33.4224 13.9087C33.6885 14.102 34.0072 14.2096 34.336 14.2171C34.6649 14.2245 34.9882 14.1316 35.2628 13.9505L37.9418 12.1851L40.6201 13.9511C40.8948 14.1321 41.2181 14.225 41.5469 14.2174C41.8758 14.2098 42.1945 14.1022 42.4605 13.9088C42.7266 13.7154 42.9274 13.4455 43.0361 13.1351C43.1448 12.8247 43.1563 12.4885 43.0689 12.1714L42.2173 9.07859L44.7245 7.07639C44.9815 6.87119 45.1699 6.5925 45.2644 6.27748C45.3589 5.96247 45.3551 5.62614 45.2535 5.31334C45.1519 5.00054 44.9573 4.72614 44.6957 4.52681C44.4341 4.32747 44.1179 4.21265 43.7894 4.19768L40.5844 4.05156L39.4546 1.04872C39.3389 0.740857 39.1321 0.475632 38.8617 0.288397C38.5913 0.101162 38.2702 0.000823975 37.9413 0.000823975C37.6124 0.000823975 37.2913 0.101162 37.0209 0.288397C36.7505 0.475632 36.5437 0.740857 36.428 1.04872L35.2982 4.05156L32.093 4.19768C31.7645 4.21265 31.4483 4.32747 31.1867 4.52681C30.9251 4.72614 30.7305 5.00054 30.6289 5.31334C30.5273 5.62614 30.5235 5.96247 30.618 6.27748C30.7125 6.5925 30.9008 6.87119 31.1579 7.07639H31.1583ZM36.1574 6.30525C36.3812 6.29507 36.5971 6.21938 36.7783 6.08761C36.9594 5.95583 37.0979 5.77375 37.1765 5.56397L37.9418 3.53035L38.7063 5.56397C38.7851 5.77378 38.9238 5.95584 39.1051 6.08761C39.2864 6.21937 39.5023 6.29506 39.7262 6.30525L41.8964 6.40369L40.1984 7.75993C40.0234 7.89974 39.8932 8.08783 39.824 8.30089C39.7548 8.51395 39.7497 8.74263 39.8091 8.9586L40.3858 11.0538L38.5721 9.8574C38.385 9.73402 38.1659 9.66827 37.9418 9.66827C37.7176 9.66827 37.4985 9.73402 37.3114 9.8574L35.4971 11.0538L36.0739 8.9586C36.1334 8.74261 36.1282 8.51392 36.0589 8.30086C35.9897 8.0878 35.8595 7.89972 35.6844 7.75993L33.9865 6.40369L36.1574 6.30525Z" fill="url(#paint2_linear)"/>
        <circle cx="37.9489" cy="35.9489" r="18.4151" fill="black" stroke="url(#paint3_linear)" stroke-width="1.06754"/>
        <path d="M36.9773 25.137V27.2723C35.7624 27.7031 34.739 28.5493 34.0873 29.6614C33.4356 30.7736 33.198 32.0801 33.416 33.3505C33.6339 34.621 34.2937 35.7734 35.2788 36.6048C36.2639 37.4361 37.511 37.893 38.8001 37.8943C39.2833 37.8943 39.7463 38.0861 40.088 38.4279C40.4297 38.7696 40.622 39.2333 40.622 39.7166C40.622 40.1999 40.4297 40.6632 40.088 41.005C39.7463 41.3467 39.2833 41.5386 38.8001 41.5386C38.329 41.4923 37.8733 41.3453 37.4643 41.1072C37.0552 40.8691 36.7024 40.5455 36.4294 40.1588C36.1182 39.7889 35.6725 39.5578 35.1908 39.5164C34.7092 39.4749 34.2311 39.6265 33.8612 39.9377C33.4913 40.2489 33.2599 40.6943 33.2184 41.1759C33.1769 41.6575 33.3285 42.136 33.6397 42.5059C34.5114 43.5879 35.6646 44.4082 36.9727 44.8765V47.0037C36.9727 47.487 37.165 47.9507 37.5067 48.2924C37.8484 48.6342 38.3114 48.8261 38.7947 48.8261C39.2779 48.8261 39.7416 48.6342 40.0834 48.2924C40.4251 47.9507 40.6174 47.487 40.6174 47.0037V44.8765C41.8341 44.4473 42.8595 43.6016 43.5128 42.4889C44.166 41.3763 44.4046 40.0684 44.1865 38.7968C43.9683 37.5251 43.308 36.3719 42.3213 35.5406C41.3346 34.7093 40.0849 34.2537 38.7947 34.2546C38.3114 34.2546 37.8484 34.0627 37.5067 33.7209C37.165 33.3792 36.9727 32.9155 36.9727 32.4322C36.9727 31.9489 37.165 31.4856 37.5067 31.1439C37.8484 30.8021 38.3114 30.6099 38.7947 30.6099C39.5495 30.6591 40.256 30.9991 40.7656 31.5583C40.9346 31.7378 41.1383 31.8811 41.3644 31.9796C41.5905 32.0781 41.8347 32.1297 42.0813 32.1312C42.3279 32.1328 42.5717 32.0841 42.799 31.9885C43.0263 31.8928 43.2319 31.7522 43.4032 31.5749C43.5745 31.3975 43.7084 31.1872 43.796 30.9567C43.8836 30.7262 43.9235 30.48 43.9133 30.2337C43.9031 29.9873 43.8429 29.7458 43.7366 29.5233C43.6303 29.3008 43.4797 29.1022 43.2944 28.9395C42.5382 28.183 41.6197 27.6089 40.6081 27.2611V25.1385C40.6081 24.8992 40.5608 24.6624 40.4692 24.4413C40.3777 24.2202 40.2433 24.0194 40.0741 23.8502C39.9049 23.681 39.7041 23.5467 39.483 23.4551C39.2619 23.3635 39.0247 23.3162 38.7854 23.3162C38.5461 23.3162 38.3096 23.3635 38.0886 23.4551C37.8675 23.5467 37.6659 23.681 37.4967 23.8502C37.3275 24.0194 37.1939 24.2202 37.1023 24.4413C37.0108 24.6624 36.9634 24.8992 36.9634 25.1385L36.9773 25.137Z" fill="url(#paint4_linear)"/>
    </g>
    <defs>
        <linearGradient id="paint0_linear" x1="63.7799" y1="13.4016" x2="63.7799" y2="27.6215" gradientUnits="userSpaceOnUse">
            <stop/>
            <stop offset="1" stop-color="#FAB961"/>
        </linearGradient>
        <linearGradient id="paint1_linear" x1="12.1026" y1="13.4016" x2="12.1026" y2="27.6189" gradientUnits="userSpaceOnUse">
            <stop/>
            <stop offset="1" stop-color="#FAB961"/>
        </linearGradient>
        <linearGradient id="paint2_linear" x1="37.9412" y1="0.000823975" x2="37.9412" y2="14.2178" gradientUnits="userSpaceOnUse">
            <stop/>
            <stop offset="1" stop-color="#FAB961"/>
        </linearGradient>
        <linearGradient id="paint3_linear" x1="37.9489" y1="17" x2="37.9489" y2="54.8978" gradientUnits="userSpaceOnUse">
            <stop stop-color="#FAB961"/>
            <stop offset="1" stop-opacity="0"/>
        </linearGradient>
        <linearGradient id="paint4_linear" x1="38.7384" y1="48.8261" x2="38.7384" y2="23.3162" gradientUnits="userSpaceOnUse">
            <stop offset="0.218" stop-color="#FAB961"/>
            <stop offset="1" stop-color="#212121"/>
        </linearGradient>
        <clipPath id="clip0">
            <rect width="75.8829" height="78.1704" fill="white"/>
        </clipPath>
    </defs>
</svg>
