<svg width="1440" height="272" viewBox="0 0 1440 272" fill="none" xmlns="http://www.w3.org/2000/svg">
<circle cx="63.5" cy="246.5" r="4.5" fill="#D8176C"/>
<circle cx="542.5" cy="209.5" r="4.5" fill="#D8176C"/>
<circle cx="1070" cy="227" r="4" fill="#D8176C"/>
<circle cx="862.5" cy="244.5" r="2.5" fill="#D8176C"/>
<circle cx="1020.5" cy="194.5" r="2.5" fill="#D8176C"/>
<circle cx="1094.5" cy="161.5" r="2.5" fill="#D8176C"/>
<circle cx="361.5" cy="206.5" r="2.5" fill="#D8176C"/>
<circle cx="388.5" cy="38.5" r="2.5" fill="#D8176C"/>
<circle cx="114.5" cy="159.5" r="2.5" fill="#D8176C"/>
<circle cx="166.5" cy="220.5" r="2.5" fill="#D8176C"/>
<circle cx="1229.5" cy="65.5" r="1.5" fill="#D8176C"/>
<circle cx="944.5" cy="39.5" r="1.5" fill="#D8176C"/>
<circle cx="778.5" cy="49.5" r="1.5" fill="#D8176C"/>
<circle cx="1148.5" cy="240.5" r="1.5" fill="#D8176C"/>
<circle cx="1282.5" cy="210.5" r="1.5" fill="#D8176C"/>
<circle cx="922.5" cy="212.5" r="1.5" fill="#D8176C"/>
<circle cx="400.5" cy="151.5" r="1.5" fill="#D8176C"/>
<circle cx="224.5" cy="73.5" r="1.5" fill="#D8176C"/>
<circle cx="46.5" cy="135.5" r="1.5" fill="#D8176C"/>
<circle cx="1304.5" cy="144.5" r="1.5" fill="#D8176C"/>
<circle cx="1385.5" cy="237.5" r="4.5" fill="#D8176C"/>
<circle cx="709.5" cy="255.5" r="4.5" fill="#D8176C"/>
<circle cx="213.5" cy="229.5" r="3.5" fill="#D8176C"/>
<circle cx="1344.5" cy="113.5" r="3.5" fill="#D8176C"/>
<circle cx="1193.5" cy="188.5" r="3.5" fill="#D8176C"/>
<circle cx="433.5" cy="249.5" r="3.5" fill="#D8176C"/>
</svg>
