<svg width="172" height="125" viewBox="0 0 172 125" fill="none" xmlns="http://www.w3.org/2000/svg">
<path d="M7.4165 70.6103C7.4165 105.812 55.2641 134.349 114.287 134.349C140.887 134.349 165.593 128.268 184.297 118.677V72.1036V22.4509C165.544 12.7452 141.066 6.87109 114.287 6.87109C55.2641 6.87109 7.4165 35.4081 7.4165 70.6103Z" fill="url(#paint0_radial_1943_84230)" stroke="#424242" stroke-miterlimit="10"/>
<path d="M94.3167 100.421C93.9164 86.4774 92.1757 54.8996 82.5273 27.15C79.5549 18.6199 76.102 11.1801 72.2737 5.05664" stroke="#424242" stroke-miterlimit="10"/>
<path d="M127.962 102.037C128.37 87.2916 130.134 55.7161 139.563 27.1492C142.505 18.2561 145.931 10.403 149.744 3.81152" stroke="#424242" stroke-miterlimit="10"/>
<path d="M117.785 101.663C116.612 74.9758 117.855 47.9804 121.423 22.6152C122.499 15.104 123.783 7.78426 125.267 0.708008" stroke="#424242" stroke-miterlimit="10"/>
<path d="M105.42 101.043C106.453 74.9131 105.227 48.5407 101.822 23.6599C100.76 16.012 99.4873 8.55087 98.0134 1.32812" stroke="#424242" stroke-miterlimit="10"/>
<path d="M143.273 99.8012C144.928 74.6864 149.939 51.6477 157.513 34.3317C162.593 23.0212 168.653 14.7084 175.233 10.0244" stroke="#424242" stroke-miterlimit="10"/>
<path d="M82.2044 99.1791C80.1635 75.1295 75.2105 53.1661 67.9979 36.1824C63.2629 25.237 57.6774 16.7619 51.5774 11.2666" stroke="#424242" stroke-miterlimit="10"/>
<path d="M67.5807 93.5295C58.3851 74.5607 47.5333 61.0782 35.8719 54.1338C24.2106 47.1894 12.055 46.9711 0.353638 53.4958" stroke="#424242" stroke-miterlimit="10"/>
<path d="M17.824 70.3915C17.824 102.123 60.9536 127.846 114.157 127.846C141.785 127.846 166.697 120.909 184.264 109.796V69.0156V30.9873C166.697 19.8744 141.785 12.9375 114.157 12.9375C60.9536 12.9375 17.824 38.6605 17.824 70.3915Z" stroke="#424242" stroke-miterlimit="10"/>
<path d="M67.5811 93.4114C51.9972 88.3555 36.1616 95.4711 22.3086 113.754" stroke="#424242" stroke-miterlimit="10"/>
<path d="M161.206 93.4112C168.46 89.9669 177.106 90.7597 184.328 94.5752" stroke="#424242" stroke-miterlimit="10"/>
<path d="M161.206 93.53C168.12 79.2698 175.97 68.1108 184.396 60.5" stroke="#424242" stroke-miterlimit="10"/>
<path d="M82.2643 98.959C74.882 103.37 67.7223 109.791 60.9176 118.103C57.7996 121.917 54.9407 125.905 52.3384 129.91" stroke="#424242" stroke-miterlimit="10"/>
<path d="M143.278 99.6084C150.661 104.017 157.821 110.437 164.625 118.75C167.744 122.565 170.602 126.552 173.204 130.557" stroke="#424242" stroke-miterlimit="10"/>
<path d="M94.3941 100.498C93.105 108.826 92.1196 117.419 91.4496 126.177C91.0999 130.754 90.8563 135.116 90.6921 139.222" stroke="#424242" stroke-miterlimit="10"/>
<path d="M127.729 100.503C129.018 108.831 130.003 117.424 130.673 126.182C131.023 130.759 131.266 135.121 131.431 139.226" stroke="#424242" stroke-miterlimit="10"/>
<path d="M117.904 101.461C117.924 106.366 117.939 111.291 117.949 116.238C117.965 124.579 117.965 132.861 117.949 141.084" stroke="#424242" stroke-miterlimit="10"/>
<path d="M105.498 101.137C105.518 106.013 105.533 110.908 105.543 115.823C105.559 124.111 105.559 132.341 105.543 140.512" stroke="#424242" stroke-miterlimit="10"/>
<path d="M29.8417 70.392C29.8417 97.3651 66.5039 119.231 111.729 119.231C143.249 119.231 170.61 108.61 184.298 93.0404C184.394 82.5371 184.298 80.6761 184.298 72.5021C184.298 64.3329 184.298 59.8145 184.308 47.7552C170.624 32.1796 143.257 21.5527 111.729 21.5527C66.5039 21.5527 29.8417 43.4188 29.8417 70.392Z" stroke="#424242" stroke-miterlimit="10"/>
<path d="M114.156 102.069C152.387 102.069 183.38 88.523 183.38 71.8129C183.38 55.1028 152.387 41.5566 114.156 41.5566C75.9251 41.5566 44.9327 55.1028 44.9327 71.8129C44.9327 88.523 75.9251 102.069 114.156 102.069Z" stroke="#424242" stroke-miterlimit="10"/>
<defs>
<radialGradient id="paint0_radial_1943_84230" cx="0" cy="0" r="1" gradientUnits="userSpaceOnUse" gradientTransform="translate(114.287 94.3023) rotate(90) scale(64.9161 90.5341)">
<stop stop-color="#434343"/>
<stop offset="1" stop-color="#C4C4C4" stop-opacity="0"/>
</radialGradient>
</defs>
</svg>
