<svg width="687" height="233" viewBox="0 0 687 233" fill="none" xmlns="http://www.w3.org/2000/svg">
<path d="M28.666 143.88C28.666 201.56 220.056 248.32 456.148 248.32C562.55 248.32 661.373 238.354 736.188 222.64V146.326V64.9678C661.176 49.0645 563.263 39.4395 456.148 39.4395C220.056 39.4395 28.666 86.1989 28.666 143.88Z" fill="url(#paint0_radial_2030_82551)" stroke="#424242" stroke-miterlimit="10"/>
<path d="M376.267 192.727C374.666 169.879 367.703 118.137 329.109 72.668C317.22 58.6909 303.408 46.5003 288.095 36.4668" stroke="#424242" stroke-miterlimit="10"/>
<path d="M510.848 195.376C512.479 171.214 519.535 119.476 557.254 72.6678C569.022 58.0959 582.725 45.2282 597.976 34.4277" stroke="#424242" stroke-miterlimit="10"/>
<path d="M470.14 194.762C465.449 151.034 470.419 106.8 484.693 65.2379C488.995 52.9304 494.132 40.9366 500.07 29.3418" stroke="#424242" stroke-miterlimit="10"/>
<path d="M420.681 193.746C424.81 150.93 419.906 107.718 406.289 66.9493C402.039 54.4178 396.949 42.1923 391.054 30.3574" stroke="#424242" stroke-miterlimit="10"/>
<path d="M572.092 191.712C578.712 150.56 598.756 112.809 629.05 84.4362C649.37 65.9034 673.61 52.2824 699.931 44.6074" stroke="#424242" stroke-miterlimit="10"/>
<path d="M327.818 190.692C319.654 151.285 299.842 115.297 270.992 87.4684C252.052 69.5339 229.71 55.6469 205.31 46.6426" stroke="#424242" stroke-miterlimit="10"/>
<path d="M269.322 181.435C232.54 150.354 189.133 128.262 142.488 116.883C95.842 105.505 47.2197 105.147 0.414429 115.838" stroke="#424242" stroke-miterlimit="10"/>
<path d="M70.2954 143.522C70.2954 195.515 242.814 237.664 455.627 237.664C566.141 237.664 665.79 226.297 736.054 208.088V141.268V78.9564C665.79 60.7474 566.141 49.3809 455.627 49.3809C242.814 49.3809 70.2954 91.5295 70.2954 143.522Z" stroke="#424242" stroke-miterlimit="10"/>
<path d="M269.324 181.241C206.988 172.957 143.646 184.616 88.2341 214.574" stroke="#424242" stroke-miterlimit="10"/>
<path d="M643.824 181.242C672.839 175.598 707.422 176.897 736.314 183.149" stroke="#424242" stroke-miterlimit="10"/>
<path d="M643.824 181.435C671.48 158.069 702.88 139.784 736.586 127.313" stroke="#424242" stroke-miterlimit="10"/>
<path d="M328.057 190.331C298.528 197.558 269.889 208.079 242.67 221.699C230.198 227.95 218.763 234.483 208.353 241.046" stroke="#424242" stroke-miterlimit="10"/>
<path d="M572.114 191.396C601.643 198.619 630.282 209.138 657.5 222.76C669.976 229.011 681.407 235.544 691.817 242.107" stroke="#424242" stroke-miterlimit="10"/>
<path d="M376.577 192.854C371.42 206.499 367.479 220.58 364.798 234.93C363.4 242.43 362.425 249.578 361.769 256.304" stroke="#424242" stroke-miterlimit="10"/>
<path d="M509.915 192.861C515.07 206.507 519.012 220.588 521.693 234.937C523.092 242.438 524.066 249.585 524.722 256.312" stroke="#424242" stroke-miterlimit="10"/>
<path d="M470.615 194.431C470.696 202.467 470.756 210.538 470.796 218.644C470.86 232.311 470.86 245.881 470.796 259.355" stroke="#424242" stroke-miterlimit="10"/>
<path d="M420.99 193.898C421.071 201.888 421.132 209.909 421.171 217.963C421.235 231.543 421.235 245.028 421.171 258.417" stroke="#424242" stroke-miterlimit="10"/>
<path d="M118.367 143.523C118.367 187.72 265.016 223.549 445.917 223.549C571.997 223.549 681.44 206.145 736.193 180.634C736.578 163.423 736.193 160.374 736.193 146.98C736.193 133.595 736.193 126.191 736.234 106.431C681.495 80.9097 572.029 63.4971 445.917 63.4971C265.016 63.4971 118.367 99.3258 118.367 143.523Z" stroke="#424242" stroke-miterlimit="10"/>
<path d="M455.625 195.429C608.549 195.429 732.518 173.232 732.518 145.852C732.518 118.472 608.549 96.2754 455.625 96.2754C302.7 96.2754 178.731 118.472 178.731 145.852C178.731 173.232 302.7 195.429 455.625 195.429Z" stroke="#424242" stroke-miterlimit="10"/>
<circle cx="629.599" cy="144.492" r="8.63414" fill="#D8176C"/>
<circle cx="302.437" cy="35.9119" r="2.76834" fill="#D8176C"/>
<circle cx="647.324" cy="3.5" r="3.5" fill="#D8176C"/>
<circle cx="121.867" cy="211.37" r="3.5" fill="#D8176C"/>
<defs>
<radialGradient id="paint0_radial_2030_82551" cx="0" cy="0" r="1" gradientUnits="userSpaceOnUse" gradientTransform="translate(456.148 182.7) rotate(90) scale(106.368 362.136)">
<stop stop-color="#434343"/>
<stop offset="1" stop-color="#C4C4C4" stop-opacity="0"/>
</radialGradient>
</defs>
</svg>
