<svg width="109" height="30" viewBox="0 0 109 30" fill="none" xmlns="http://www.w3.org/2000/svg">
<g clip-path="url(#clip0_2610_83780)">
<path d="M36 22.2544V7.91016H41.3725C42.5341 7.91016 43.4952 8.10148 44.2558 8.48398C45.0163 8.86648 45.5833 9.39246 45.9567 10.0618C46.33 10.7312 46.5167 11.4826 46.5167 12.316C46.5167 13.1083 46.3369 13.8391 45.9775 14.5086C45.6179 15.1643 45.0578 15.6971 44.2972 16.1069C43.5367 16.5031 42.5617 16.7012 41.3725 16.7012H38.6551V22.2544H36ZM38.6551 14.57H41.2065C42.133 14.57 42.7968 14.3719 43.1978 13.9758C43.6127 13.5659 43.8202 13.0126 43.8202 12.316C43.8202 11.6056 43.6127 11.0523 43.1978 10.6561C42.7968 10.2463 42.133 10.0414 41.2065 10.0414H38.6551V14.57Z" fill="#2F2F2F"/>
<path d="M51.8514 22.4995C50.9663 22.4995 50.2403 22.3629 49.6733 22.0897C49.1064 21.8028 48.6846 21.4271 48.408 20.9626C48.1315 20.4981 47.9932 19.9859 47.9932 19.4257C47.9932 18.4831 48.3665 17.7181 49.1133 17.1306C49.8601 16.5432 50.9802 16.2495 52.4737 16.2495H55.0873V16.0036C55.0873 15.3069 54.8868 14.7946 54.4858 14.4667C54.0847 14.1389 53.5869 13.9749 52.9922 13.9749C52.4529 13.9749 51.9827 14.1047 51.5817 14.3643C51.1807 14.6102 50.9317 14.9791 50.835 15.4708H48.2421C48.3112 14.7331 48.5602 14.0911 48.9888 13.5446C49.4314 12.9982 49.9983 12.5815 50.6898 12.2946C51.3812 11.994 52.1556 11.8438 53.013 11.8438C54.4789 11.8438 55.6336 12.2058 56.4771 12.9298C57.3206 13.6539 57.7424 14.6784 57.7424 16.0036V22.2536H55.4814L55.2325 20.6142C54.9283 21.1607 54.4996 21.6115 53.9464 21.9667C53.4071 22.3219 52.7087 22.4995 51.8514 22.4995ZM52.4529 20.4504C53.2135 20.4504 53.8012 20.2044 54.2161 19.7127C54.6448 19.2208 54.9145 18.6129 55.0251 17.8889H52.7641C52.0588 17.8889 51.554 18.0186 51.2498 18.2782C50.9456 18.5241 50.7934 18.8315 50.7934 19.2003C50.7934 19.5965 50.9456 19.9039 51.2498 20.1225C51.554 20.341 51.9551 20.4504 52.4529 20.4504Z" fill="#2F2F2F"/>
<path d="M60.6909 22.2536V12.0897H63.0556L63.3045 13.9954C63.6779 13.3397 64.1826 12.8205 64.8188 12.438C65.4687 12.0419 66.2293 11.8438 67.1005 11.8438V14.6102H66.3538C65.773 14.6102 65.2544 14.699 64.7981 14.8766C64.3417 15.0542 63.9821 15.3616 63.7194 15.7987C63.4705 16.2359 63.346 16.8438 63.346 17.6225V22.2536H60.6909Z" fill="#2F2F2F"/>
<path d="M72.8773 22.4995C71.9923 22.4995 71.2662 22.3629 70.6993 22.0897C70.1323 21.8028 69.7105 21.4271 69.4339 20.9626C69.1573 20.4981 69.019 19.9859 69.019 19.4257C69.019 18.4831 69.3925 17.7181 70.1392 17.1306C70.8859 16.5432 72.0061 16.2495 73.4995 16.2495H76.1131V16.0036C76.1131 15.3069 75.9128 14.7946 75.5116 14.4667C75.1103 14.1389 74.6128 13.9749 74.0182 13.9749C73.4788 13.9749 73.0087 14.1047 72.6076 14.3643C72.2065 14.6102 71.9577 14.9791 71.8609 15.4708H69.268C69.3371 14.7331 69.586 14.0911 70.0147 13.5446C70.4572 12.9982 71.0242 12.5815 71.7157 12.2946C72.4071 11.994 73.1815 11.8438 74.0389 11.8438C75.5048 11.8438 76.6591 12.2058 77.5028 12.9298C78.3466 13.6539 78.7681 14.6784 78.7681 16.0036V22.2536H76.5076L76.2586 20.6142C75.9541 21.1607 75.5258 21.6115 74.9723 21.9667C74.433 22.3219 73.7347 22.4995 72.8773 22.4995ZM73.4788 20.4504C74.2394 20.4504 74.8271 20.2044 75.2423 19.7127C75.6706 19.2208 75.9406 18.6129 76.0508 17.8889H73.7899C73.0847 17.8889 72.58 18.0186 72.2757 18.2782C71.9715 18.5241 71.8194 18.8315 71.8194 19.2003C71.8194 19.5965 71.9715 19.9039 72.2757 20.1225C72.58 20.341 72.981 20.4504 73.4788 20.4504Z" fill="#2F2F2F"/>
<path d="M81.717 22.2541V7.5H84.372V22.2541H81.717Z" fill="#2F2F2F"/>
<path d="M87.4995 22.2541V7.5H90.1553V22.2541H87.4995Z" fill="#2F2F2F"/>
<path d="M98.2814 22.4995C97.2449 22.4995 96.3247 22.281 95.5229 21.8438C94.7212 21.4066 94.0919 20.7918 93.6352 19.9995C93.1792 19.2072 92.9504 18.2919 92.9504 17.2537C92.9504 16.2017 93.1724 15.2659 93.6149 14.4462C94.0709 13.6266 94.6934 12.9913 95.4817 12.5405C96.2834 12.076 97.2239 11.8438 98.3024 11.8438C99.3119 11.8438 100.204 12.0624 100.978 12.4996C101.752 12.9367 102.355 13.5378 102.783 14.3028C103.225 15.0542 103.447 15.8943 103.447 16.8233C103.447 16.9736 103.44 17.1307 103.426 17.2946C103.426 17.4585 103.419 17.6293 103.405 17.8069H95.5852C95.6407 18.5992 95.9174 19.2208 96.4147 19.6716C96.9269 20.1225 97.5419 20.3478 98.2612 20.3478C98.8004 20.3478 99.2497 20.2317 99.6097 19.9995C99.9824 19.7536 100.259 19.4394 100.439 19.0569H103.135C102.942 19.6989 102.617 20.2864 102.16 20.8192C101.718 21.3383 101.165 21.7482 100.501 22.0487C99.8512 22.3492 99.1117 22.4995 98.2814 22.4995ZM98.3024 13.9749C97.6529 13.9749 97.0784 14.1594 96.5812 14.5282C96.0832 14.8834 95.7652 15.4299 95.6264 16.1676H100.75C100.708 15.4981 100.46 14.9654 100.003 14.5692C99.5474 14.173 98.9804 13.9749 98.3024 13.9749Z" fill="#2F2F2F"/>
<path d="M106.095 22.2541V7.5H108.75V22.2541H106.095Z" fill="#2F2F2F"/>
<path fill-rule="evenodd" clip-rule="evenodd" d="M8.40645 14.3633L3.12818 16.7349C1.95481 17.2622 1.95801 18.9282 3.13339 19.451L16.1472 25.2387C16.9255 25.5849 17.815 25.5812 18.5904 25.2287L26.8764 21.4622C28.0411 20.9328 28.0389 19.2787 26.8729 18.7522L21.6625 16.3998L18.5908 17.7961C17.8154 18.1486 16.926 18.1522 16.1476 17.8061L8.40645 14.3633Z" fill="url(#paint0_linear_2610_83780)"/>
<path d="M11.5669 4.76168C12.3451 4.41201 13.236 4.41281 14.0135 4.76387L26.8741 10.5702C28.0401 11.0966 28.0423 12.7507 26.8776 13.2801L18.5916 17.0467C17.8162 17.3992 16.9268 17.4028 16.1484 17.0566L3.13461 11.2689C1.95923 10.7461 1.95603 9.0801 3.1294 8.55293L11.5669 4.76168Z" fill="url(#paint1_linear_2610_83780)"/>
</g>
<defs>
<linearGradient id="paint0_linear_2610_83780" x1="27.7438" y1="18.7431" x2="2.2558" y2="18.7431" gradientUnits="userSpaceOnUse">
<stop stop-color="#EF18AC"/>
<stop offset="1" stop-color="#FAD972"/>
</linearGradient>
<linearGradient id="paint1_linear_2610_83780" x1="27.7445" y1="14.2508" x2="2.25655" y2="14.2508" gradientUnits="userSpaceOnUse">
<stop stop-color="#5314F1"/>
<stop offset="1" stop-color="#04E2FF"/>
</linearGradient>
<clipPath id="clip0_2610_83780">
<rect width="108.75" height="30" fill="white"/>
</clipPath>
</defs>
</svg>
