<svg width="106" height="24" viewBox="0 0 106 24" fill="none" xmlns="http://www.w3.org/2000/svg">
<g clip-path="url(#clip0_2610_83796)">
<path d="M82.4657 11.987C82.4657 11.3749 82.4657 10.7991 82.4459 10.2674C82.4324 9.76572 82.3828 9.2657 82.2973 8.77121C82.2174 8.31967 82.0763 7.88114 81.8779 7.46772C81.6684 7.04148 81.3885 6.65364 81.05 6.32057C80.5698 5.8286 79.9984 5.43485 79.3678 5.1613C78.6855 4.88493 77.9548 4.74793 77.2188 4.75837C76.4799 4.74882 75.7465 4.88577 75.061 5.1613C74.4267 5.43111 73.8517 5.82315 73.3689 6.31506C73.0309 6.64794 72.7521 7.03585 72.5443 7.46222C72.3475 7.87573 72.2086 8.31433 72.1314 8.76571C72.0479 9.26034 72.0001 9.76035 71.9883 10.2619C71.9751 10.7936 71.9685 11.3694 71.9718 11.9815C71.9751 12.5936 71.9718 13.165 71.9883 13.7C72.0001 14.2015 72.0479 14.7015 72.1314 15.1962C72.2086 15.6475 72.3475 16.0861 72.5443 16.4996C72.7529 16.9255 73.0317 17.3133 73.3689 17.6468C73.8509 18.1391 74.4261 18.5306 75.061 18.7984C75.7461 19.0757 76.4797 19.2134 77.2188 19.2035C77.955 19.2144 78.686 19.0766 79.3678 18.7984C79.9985 18.5285 80.5701 18.1372 81.05 17.6468C81.3878 17.3131 81.6676 16.9254 81.8779 16.4996C82.0763 16.0862 82.2174 15.6477 82.2973 15.1962C82.3818 14.7031 82.4307 14.2045 82.4437 13.7044C82.4602 13.1694 82.4679 12.5969 82.4635 11.9859L82.4657 11.987ZM79.6914 11.987C79.6914 12.6652 79.6815 13.2299 79.6584 13.6791C79.6454 14.0481 79.6086 14.4158 79.5483 14.78C79.507 15.0227 79.433 15.2586 79.3281 15.4813C79.243 15.6608 79.1317 15.8266 78.9978 15.9734C78.7912 16.21 78.5348 16.398 78.247 16.5239C77.9232 16.6624 77.5743 16.7329 77.2221 16.7309C76.8681 16.7324 76.5175 16.662 76.1916 16.5239C75.8968 16.4003 75.6335 16.2122 75.421 15.9734C75.2863 15.8273 75.1749 15.6613 75.0907 15.4813C74.9888 15.2584 74.9184 15.0223 74.8815 14.78C74.8227 14.4156 74.786 14.048 74.7714 13.6791C74.7516 13.2299 74.7417 12.6659 74.7417 11.987C74.7417 11.3088 74.7516 10.743 74.7714 10.2938C74.786 9.92493 74.8228 9.5573 74.8815 9.19286C74.9184 8.95053 74.9888 8.7145 75.0907 8.49158C75.1751 8.3117 75.2865 8.14576 75.421 7.99947C75.6338 7.76101 75.897 7.57297 76.1916 7.44901C76.517 7.30933 76.8679 7.23884 77.2221 7.24204C77.5745 7.23838 77.9237 7.3089 78.247 7.44901C78.5346 7.5753 78.7909 7.76322 78.9978 7.99947C79.1315 8.14642 79.2427 8.31224 79.3281 8.49158C79.433 8.71428 79.507 8.9502 79.5483 9.19286C79.6086 9.5571 79.6453 9.92483 79.6584 10.2938C79.6826 10.7419 79.6914 11.3077 79.6914 11.987Z" fill="#23AF91"/>
<path d="M104.572 5.12612C104.571 4.99224 104.463 4.88401 104.329 4.88281H102.04C101.906 4.88342 101.797 4.99199 101.797 5.12612V13.5812L96.2152 4.95107C96.1778 4.89272 96.1447 4.88281 96.0622 4.88281H93.9396C93.806 4.88459 93.6981 4.99249 93.6963 5.12612V18.8457C93.6981 18.9792 93.8061 19.0868 93.9396 19.0879H96.2273C96.3608 19.0873 96.4689 18.9793 96.4695 18.8457V10.3687L102.052 19.0186C102.091 19.0769 102.122 19.0868 102.205 19.0868H104.327C104.46 19.0863 104.569 18.9783 104.57 18.8446L104.572 5.12612Z" fill="#23AF91"/>
<path d="M89.2297 5.12612C89.2291 4.99199 89.1206 4.88342 88.9864 4.88281H86.6998C86.5657 4.88342 86.4571 4.99199 86.4565 5.12612V18.8446C86.4571 18.9788 86.5657 19.0873 86.6998 19.0879H88.9864C89.1206 19.0873 89.2291 18.9788 89.2297 18.8446V5.12612Z" fill="#23AF91"/>
<path d="M61.8566 11.9872C61.8566 11.3046 61.8643 10.7366 61.8841 10.2841C61.8976 9.91516 61.9344 9.54746 61.9942 9.18317C62.2056 7.96115 63.1414 7.24005 64.3359 7.24005C65.1153 7.24666 65.8221 7.5351 66.2735 8.19124C66.4779 8.49757 66.627 8.83741 66.7139 9.19528C66.7206 9.23298 66.755 9.25928 66.7931 9.25583H69.4849C69.5234 9.25583 69.5377 9.22941 69.5311 9.19198C69.2372 7.52629 68.3487 6.03014 66.7788 5.28923C66.0073 4.93199 65.1651 4.75325 64.315 4.76629C62.7994 4.76629 61.5227 5.28519 60.4849 6.32299C59.8924 6.90045 59.4879 7.6433 59.3245 8.45436C59.166 9.25289 59.086 10.4301 59.0845 11.9861C59.083 13.5421 59.163 14.719 59.3245 15.5167C59.4866 16.3289 59.8898 17.0732 60.4816 17.6525C61.5186 18.6896 62.7953 19.2081 64.3117 19.2081C65.1617 19.221 66.0037 19.0426 66.7755 18.6863C68.3454 17.9454 69.2339 16.4492 69.5278 14.7835C69.5344 14.745 69.5201 14.7197 69.4816 14.7197H66.7887C66.7504 14.7157 66.7157 14.7422 66.7095 14.7802C66.6224 15.1377 66.4733 15.4771 66.2691 15.7832C65.8177 16.4437 65.1109 16.7289 64.3315 16.7344C63.137 16.7344 62.2012 16.0144 61.9898 14.7923C61.93 14.4281 61.8933 14.0603 61.8797 13.6914C61.8643 13.2367 61.8566 12.6676 61.8566 11.9872Z" fill="#23AF91"/>
<path d="M33.4265 5.12612C33.4259 4.99199 33.3173 4.88342 33.1832 4.88281H30.8966C30.7625 4.88342 30.6539 4.99199 30.6533 5.12612V18.8457C30.6545 18.9794 30.7629 19.0874 30.8966 19.0881H33.1832C33.3169 19.0874 33.4253 18.9794 33.4265 18.8457V14.8186L35.2618 12.6245L39.0313 19.0153C39.0603 19.0624 39.1125 19.0902 39.1678 19.0881H41.9465C42.0742 19.0881 42.0974 19.0087 42.0335 18.8997L37.0981 10.5327L41.6262 5.10079C41.7175 4.9907 41.679 4.88611 41.5359 4.88611H38.4985C38.4615 4.88394 38.4259 4.90049 38.4038 4.93015L33.4265 10.8993V5.12612Z" fill="#23AF91"/>
<path d="M50.0858 16.7342C48.7988 16.7342 47.6319 15.543 47.6319 14.1206V5.12612C47.6313 4.99199 47.5227 4.88342 47.3886 4.88281H45.1019C44.9678 4.88342 44.8592 4.99199 44.8586 5.12612V14.0854C44.8586 17.2175 47.2014 19.208 50.0858 19.208C52.9702 19.208 55.313 17.2175 55.313 14.0854V5.12612C55.3118 4.99224 55.2035 4.88401 55.0697 4.88281H52.7819C52.6483 4.88402 52.5403 4.99242 52.5397 5.12612V14.1206C52.5397 15.5419 51.3717 16.7342 50.0858 16.7342Z" fill="#23AF91"/>
<path fill-rule="evenodd" clip-rule="evenodd" d="M7.66841 11.9873L14.7671 19.0871L19.2479 14.6063C20.0491 13.8849 21.2748 13.917 22.0372 14.6794C22.7996 15.4417 22.8317 16.6675 22.1102 17.4687L16.1972 23.3829C15.403 24.164 14.1291 24.164 13.3348 23.3829L4.80382 14.8496V19.9216C4.80382 21.0409 3.8964 21.9484 2.77703 21.9484C1.65767 21.9484 0.750244 21.0409 0.750244 19.9216V4.04634C0.750244 2.92698 1.65767 2.01955 2.77703 2.01955C3.8964 2.01955 4.80382 2.92698 4.80382 4.04634V9.11827L13.3337 0.587261C14.1277 -0.194452 15.4021 -0.194452 16.1961 0.587261L22.1135 6.50029C22.835 7.3015 22.8029 8.52728 22.0405 9.28964C21.2781 10.052 20.0524 10.0841 19.2512 9.36267L14.7704 4.88194L7.66841 11.9873ZM14.7704 9.95827C13.9497 9.95782 13.2095 10.4519 12.8951 11.21C12.5807 11.9682 12.754 12.8411 13.3342 13.4216C13.9144 14.0021 14.7872 14.1759 15.5455 13.8619C16.3039 13.5479 16.7983 12.808 16.7983 11.9873C16.7986 11.4491 16.5851 10.9329 16.2048 10.5522C15.8245 10.1715 15.3085 9.95746 14.7704 9.95717V9.95827Z" fill="#23AF91"/>
</g>
<defs>
<clipPath id="clip0_2610_83796">
<rect width="104.571" height="24" fill="white" transform="translate(0.75)"/>
</clipPath>
</defs>
</svg>
