<svg width="65" height="32" viewBox="0 0 65 32" fill="none" xmlns="http://www.w3.org/2000/svg">
<g clip-path="url(#clip0_2610_83794)">
<path d="M54.2983 3.04741L36.8246 5.33354C36.7287 5.34953 36.6327 5.39749 36.5528 5.46144L35.114 6.88428C34.9381 7.06013 34.6504 7.06013 34.4585 6.88428L34.2027 6.62849C34.0269 6.45263 34.0269 6.14888 34.2027 5.97302L35.9293 4.26242C36.1052 4.08656 36.1052 3.78281 35.9293 3.60695L32.5401 0.265681C32.3642 0.089825 32.0765 0.089825 31.8846 0.265681L28.4954 3.63893C28.3195 3.81478 28.3195 4.11854 28.4954 4.29439L30.222 5.98901C30.3978 6.16486 30.3978 6.46862 30.222 6.64447L29.9662 6.90026C29.7903 7.07612 29.5026 7.07612 29.3107 6.90026L27.8719 5.47743C27.792 5.41348 27.712 5.36552 27.6001 5.34953L10.1424 3.04741C9.71073 2.98346 9.43895 3.52702 9.75869 3.83077L13.5636 7.61968C13.8513 7.90744 13.6435 8.40304 13.2438 8.40304C12.8282 8.40304 12.6363 8.89863 12.9241 9.1864L16.4892 12.7355C16.5531 12.7994 16.6171 12.8314 16.697 12.8634L28.8471 15.9169C28.943 15.9489 29.0389 15.9968 29.1029 16.0768L30.9894 18.4748C31.3251 18.9384 31.8846 19.482 31.8846 19.482C32.0605 19.6578 32.3482 19.6578 32.5401 19.482C32.5401 19.482 33.0037 19.0024 33.4354 18.4748L35.3218 16.0768C35.3858 15.9968 35.4657 15.9329 35.5776 15.9169L47.7437 12.8634C47.8236 12.8474 47.9035 12.7994 47.9515 12.7355L51.5166 9.1864C51.8044 8.89863 51.5965 8.40304 51.1969 8.40304C50.7812 8.40304 50.5894 7.90744 50.8771 7.61968L54.682 3.83077C55.0018 3.51103 54.73 2.98346 54.2983 3.04741ZM6.33748 23.8944H2.77239C2.6445 23.8944 2.54858 23.9903 2.54858 24.1182V25.8448C2.54858 25.9887 2.67647 26.1006 2.82035 26.0686L5.96978 25.3332C6.28952 25.2533 6.60926 25.5091 6.60926 25.8288V27.1717C6.60926 27.3636 6.48137 27.5234 6.28952 27.5714L2.72443 28.4027C2.62851 28.4187 2.54858 28.5146 2.54858 28.6265V30.0813C2.54858 30.1932 2.50062 30.2892 2.42068 30.3691L0.933894 31.8559C0.678103 32.1117 0.230469 31.9358 0.230469 31.5681V23.8944C0.230469 23.7505 0.27843 23.6226 0.374351 23.5267L2.18088 21.7202C2.2768 21.6242 2.40469 21.5763 2.54858 21.5763H7.82427C8.19197 21.5763 8.38381 22.0239 8.11203 22.2797L6.62525 23.7665C6.54531 23.8624 6.44939 23.8944 6.33748 23.8944ZM13.5476 23.8944H9.98251C9.85461 23.8944 9.75869 23.9903 9.75869 24.1182V25.9727C9.75869 26.0526 9.83862 26.1006 9.90257 26.0846L13.2918 25.2852C13.5476 25.2213 13.8034 25.4291 13.8034 25.6849V27.1557C13.8034 27.3476 13.6755 27.5074 13.4836 27.5554L9.91856 28.3867C9.82264 28.4027 9.7427 28.4986 9.7427 28.6105V29.4419C9.7427 29.5697 9.83862 29.6657 9.96652 29.6657H13.2758C13.5636 29.6657 13.7874 29.8895 13.7874 30.1773V31.4722C13.7874 31.76 13.5636 31.9838 13.2758 31.9838H9.59882H7.95216C7.6644 31.9838 7.44058 31.76 7.44058 31.4722V23.8944C7.44058 23.7505 7.48854 23.6226 7.58446 23.5267L9.42296 21.6882C9.5029 21.6083 9.59882 21.5603 9.71073 21.5603H15.0344C15.4021 21.5603 15.5939 22.0079 15.3221 22.2637L13.8354 23.7505C13.7554 23.8624 13.6595 23.8944 13.5476 23.8944ZM14.7626 23.5746L16.6011 21.7361C16.697 21.6402 16.8249 21.5923 16.9688 21.5923H22.5163C22.804 21.5923 23.0279 21.8161 23.0279 22.1038V31.4882C23.0279 31.7759 22.804 31.9998 22.5163 31.9998H21.2213C20.9336 31.9998 20.7097 31.7759 20.7097 31.4882V27.7313C20.7097 27.6513 20.6298 27.6034 20.5659 27.6193L17.1287 28.4187C17.0328 28.4347 16.9528 28.5306 16.9528 28.6425V30.2252C16.9528 30.3371 16.9049 30.433 16.8249 30.513L15.514 31.8239C15.1943 32.1437 14.6347 31.9198 14.6347 31.4562V23.8624C14.6507 23.7505 14.6827 23.6546 14.7626 23.5746ZM20.7097 25.0774V24.1182C20.7097 23.9903 20.6138 23.8944 20.4859 23.8944H17.1766C17.0487 23.8944 16.9528 23.9903 16.9528 24.1182V25.8448C16.9528 25.9887 17.0807 26.1006 17.2246 26.0686L20.5339 25.3012C20.6458 25.2693 20.7097 25.1893 20.7097 25.0774ZM34.9221 21.9919V29.4578C34.9221 29.5857 35.0181 29.6817 35.146 29.6817H38.5192C38.807 29.6817 39.0308 29.9055 39.0308 30.1932V31.4882C39.0308 31.7759 38.807 31.9998 38.5192 31.9998H33.1156C32.8279 31.9998 32.604 31.7759 32.604 31.4882V23.4947C32.604 23.3828 32.652 23.2869 32.7319 23.2069L34.2187 21.7202C34.4745 21.4484 34.9221 21.6242 34.9221 21.9919ZM42.1003 29.6817H46.9124C47.376 29.6817 47.5998 30.2412 47.2801 30.5609L45.9851 31.8559C45.8892 31.9518 45.7613 31.9998 45.6174 31.9998H41.7166H40.054C39.7662 31.9998 39.5424 31.7759 39.5424 31.4882V23.8784C39.5424 23.7665 39.5903 23.6706 39.6703 23.5906L41.5407 21.7202C41.6207 21.6402 41.7166 21.5923 41.8285 21.5923H47.1522C47.5199 21.5923 47.7117 22.0399 47.4399 22.2957L45.9851 23.7505C45.8892 23.8464 45.7613 23.8944 45.6174 23.8944H42.0843C41.9564 23.8944 41.8605 23.9903 41.8605 24.1182V25.8448C41.8605 25.9887 41.9884 26.1006 42.1323 26.0686L45.2817 25.3332C45.6014 25.2533 45.9212 25.5091 45.9212 25.8288V27.1717C45.9212 27.3636 45.7933 27.5234 45.6014 27.5714L42.0363 28.4027C41.9404 28.4187 41.8605 28.5146 41.8605 28.6265V29.4578C41.8765 29.5698 41.9724 29.6817 42.1003 29.6817ZM55.1456 26.9159V29.7136C55.1456 29.8255 55.0977 29.9215 55.0177 30.0014L53.1792 31.8399C53.0833 31.9358 52.9554 31.9838 52.8115 31.9838H47.5358C47.1681 31.9838 46.9763 31.5361 47.2481 31.2804L48.7349 29.7936C48.8148 29.7136 48.9107 29.6657 49.0226 29.6657H52.5877C52.7156 29.6657 52.8115 29.5697 52.8115 29.4419V28.6425C52.8115 28.5306 52.7316 28.4347 52.6197 28.4187L47.1681 27.5714C46.9124 27.5394 46.7365 27.3156 46.7365 27.0598V23.8784C46.7365 23.7345 46.7845 23.6066 46.8804 23.5107L48.6869 21.7042C48.7828 21.6083 48.9107 21.5603 49.0546 21.5603H55.897C56.3606 21.5603 56.5845 22.1198 56.2647 22.4396L54.9698 23.7345C54.8739 23.8304 54.746 23.8784 54.6021 23.8784H49.3104C49.1825 23.8784 49.0866 23.9743 49.0866 24.1022V25.4131C49.0866 25.4771 49.1345 25.5251 49.1825 25.5251L54.714 26.3883C54.9698 26.4523 55.1456 26.6601 55.1456 26.9159ZM58.1032 24.1182V24.6937C58.1032 24.7417 58.1352 24.7897 58.1832 24.8056L63.8745 26.5802C64.0504 26.6282 64.1623 26.788 64.1623 26.9799V29.7136C64.1623 29.8255 64.1143 29.9215 64.0344 30.0014L62.1959 31.8399C62.1 31.9358 61.9721 31.9838 61.8282 31.9838H54.73C54.3623 31.9838 54.1704 31.5361 54.4422 31.2804L55.897 29.8255C55.9929 29.7296 56.1208 29.6817 56.2647 29.6817H61.6044C61.7323 29.6817 61.8282 29.5857 61.8282 29.4578V28.5306C61.8282 28.4826 61.7962 28.4347 61.7482 28.4187L56.0569 26.6441C55.881 26.5962 55.7691 26.4363 55.7691 26.2445V23.8464C55.7691 23.7345 55.8171 23.6386 55.897 23.5587L57.7355 21.7202C57.8314 21.6242 57.9593 21.5763 58.1032 21.5763H63.1391C63.6027 21.5763 63.8265 22.1358 63.5068 22.4556L62.2119 23.7505C62.1159 23.8464 61.988 23.8944 61.8442 23.8944H58.311C58.2151 23.8944 58.1032 24.0063 58.1032 24.1182ZM29.6944 27.5874L26.1133 28.4187C26.0174 28.4347 25.9375 28.5306 25.9375 28.6425V31.4882C25.9375 31.7759 25.7137 31.9998 25.4259 31.9998H24.131C23.8432 31.9998 23.6194 31.7759 23.6194 31.4882V23.7665V22.1038C23.6194 21.8161 23.8432 21.5923 24.131 21.5923H31.485C31.7727 21.5923 31.9965 21.8161 31.9965 22.1038V23.3668V25.2693C31.9965 25.3812 31.9486 25.4771 31.8686 25.557L30.5577 26.868C30.4138 27.0118 30.5097 27.2516 30.7176 27.2516H31.485C31.7727 27.2516 31.9965 27.4755 31.9965 27.7632V30.0494C31.9965 30.1932 31.9486 30.3211 31.8527 30.4171L30.3978 31.8719C30.142 32.1277 29.6944 31.9518 29.6944 31.5841V27.5874ZM29.6944 25.0774V24.1182C29.6944 23.9903 29.5985 23.8944 29.4706 23.8944H26.1613C26.0334 23.8944 25.9375 23.9903 25.9375 24.1182V25.8448C25.9375 25.9887 26.0654 26.1006 26.2093 26.0686L29.5186 25.3012C29.6145 25.2693 29.6944 25.1893 29.6944 25.0774Z" fill="black"/>
</g>
<defs>
<clipPath id="clip0_2610_83794">
<rect width="64" height="32" fill="white" transform="translate(0.230469)"/>
</clipPath>
</defs>
</svg>
