<svg width="11" height="14" viewBox="0 0 11 14" fill="none" xmlns="http://www.w3.org/2000/svg">
<path d="M5.31677 0C2.39114 0 0 2.37707 0 5.31677C0 5.90752 0.0984587 6.48421 0.281311 7.04683C0.4079 7.4266 0.829867 7.63758 1.2237 7.51099C1.60347 7.3844 1.81445 6.96244 1.68786 6.5686C1.53314 6.13257 1.46282 5.66841 1.47688 5.20425C1.53314 3.22101 3.13661 1.5894 5.11985 1.49095C7.32814 1.37842 9.15666 3.13661 9.15666 5.31677C9.15666 7.35627 7.55319 9.03007 5.54182 9.1426C5.54182 9.1426 4.79635 9.18479 4.43064 9.24105C4.24779 9.26918 4.10713 9.29732 4.00868 9.31138C3.96648 9.32545 3.92428 9.28325 3.93835 9.24105L4.06494 8.62217L4.75415 5.44336C4.83854 5.04953 4.58536 4.65569 4.19153 4.5713C3.79769 4.4869 3.40386 4.74008 3.31947 5.13392C3.31947 5.13392 1.65973 12.87 1.64567 12.9544C1.56127 13.3482 1.81445 13.742 2.20829 13.8264C2.60212 13.9108 2.99596 13.6576 3.08035 13.2638C3.09442 13.1794 3.31947 12.1526 3.31947 12.1526C3.48825 11.3649 4.13527 10.7883 4.8948 10.6898C5.06359 10.6617 5.72467 10.6195 5.72467 10.6195C8.46745 10.4085 10.6335 8.11581 10.6335 5.31677C10.6335 2.37707 8.2424 0 5.31677 0Z" fill="black"/>
<path d="M5.69658 12.2366C5.21835 12.1382 4.74013 12.4336 4.64167 12.9258C4.54321 13.4041 4.83859 13.8823 5.33088 13.9808C5.80911 14.0792 6.28734 13.7838 6.38579 13.2916C6.48425 12.7993 6.18888 12.3351 5.69658 12.2366Z" fill="#E6007A"/>
</svg>
