<svg width="1440" height="731" viewBox="0 0 1440 731" fill="none" xmlns="http://www.w3.org/2000/svg">
    <g clip-path="url(#clip0)">
        <rect width="1440" height="731" fill="white"/>
        <path fill-rule="evenodd" clip-rule="evenodd" d="M-1 594.169C64.8048 583.31 115 526.068 115 457.085C115 388.101 64.8048 330.86 -1 320L-1 594.169Z" fill="#FAB961"/>
        <circle cx="1397" cy="268" r="14" fill="#2762FF"/>
        <mask id="path-3-inside-1" fill="white">
            <path fill-rule="evenodd" clip-rule="evenodd" d="M1383 303.621C1383 278.977 1402.98 259 1427.62 259C1431.92 259 1436.07 259.607 1440 260.739L1440 346.503C1436.07 347.635 1431.92 348.242 1427.62 348.242C1402.98 348.242 1383 328.265 1383 303.621Z"/>
        </mask>
        <path d="M1440 260.739L1440.28 259.778L1441 259.987L1441 260.739L1440 260.739ZM1440 346.503L1441 346.503L1441 347.255L1440.28 347.464L1440 346.503ZM1427.62 260C1403.53 260 1384 279.53 1384 303.621L1382 303.621C1382 278.425 1402.43 258 1427.62 258L1427.62 260ZM1439.72 261.7C1435.88 260.593 1431.82 260 1427.62 260L1427.62 258C1432.01 258 1436.26 258.62 1440.28 259.778L1439.72 261.7ZM1441 260.739L1441 346.503L1439 346.503L1439 260.739L1441 260.739ZM1427.62 347.242C1431.82 347.242 1435.88 346.649 1439.72 345.542L1440.28 347.464C1436.26 348.622 1432.01 349.242 1427.62 349.242L1427.62 347.242ZM1384 303.621C1384 327.712 1403.53 347.242 1427.62 347.242L1427.62 349.242C1402.43 349.242 1382 328.817 1382 303.621L1384 303.621Z" fill="#D4D5D8" mask="url(#path-3-inside-1)"/>
        <path fill-rule="evenodd" clip-rule="evenodd" d="M-1 569.977C1.20659 569.341 3.53826 569 5.9495 569C19.7845 569 31 580.215 31 594.051C31 607.886 19.7845 619.101 5.9495 619.101C3.53826 619.101 1.20659 618.76 -1 618.125L-1 569.977Z" fill="#2762FF"/>
        <path fill-rule="evenodd" clip-rule="evenodd" d="M1093.4 -2.62557C1053.12 37.6546 1053.06 102.898 1093.26 143.1C1133.47 183.302 1198.71 183.239 1238.99 142.959C1261.42 120.53 1271.37 90.362 1268.85 61.0865L1290.47 59.1742C1293.52 94.613 1281.46 131.133 1254.31 158.283C1205.55 207.044 1126.57 207.12 1077.91 158.455C1029.24 109.789 1029.32 30.8102 1078.08 -17.9502L1093.4 -2.62557Z" fill="#FAB961"/>
        <g clip-path="url(#clip1)">
            <path d="M321.674 453.225C321.257 447.478 319.441 434.463 309.379 423.025C306.279 419.509 302.678 416.443 298.686 413.918" stroke="#D4D5D8" stroke-width="0.75" stroke-miterlimit="10"/>
            <path d="M356.413 453.225C357.021 447.044 359.212 434.482 368.861 423.025C371.943 419.372 375.513 416.137 379.478 413.406" stroke="#D4D5D8" stroke-width="0.75" stroke-miterlimit="10"/>
            <path d="M346.15 453.738C344.927 442.738 346.222 431.611 349.943 421.156C351.065 418.06 352.405 415.043 353.953 412.126" stroke="#D4D5D8" stroke-width="0.75" stroke-miterlimit="10"/>
            <path d="M333.257 453.482C334.333 442.711 333.054 431.842 329.504 421.587C328.396 418.434 327.069 415.359 325.532 412.382" stroke="#D4D5D8" stroke-width="0.75" stroke-miterlimit="10"/>
            <path d="M372.73 452.97C373.46 448.67 376.195 436.061 387.581 425.986C392.879 421.324 399.199 417.897 406.062 415.967" stroke="#D4D5D8" stroke-width="0.75" stroke-miterlimit="10"/>
            <path d="M309.042 452.713C308.003 447.946 304.785 436.427 294.231 426.745C289.292 422.234 283.467 418.74 277.105 416.475" stroke="#D4D5D8" stroke-width="0.75" stroke-miterlimit="10"/>
            <path d="M293.792 450.388C284.202 442.57 272.884 437.013 260.723 434.151C248.561 431.288 235.884 431.198 223.681 433.887" stroke="#D4D5D8" stroke-width="0.75" stroke-miterlimit="10"/>
            <path d="M293.792 450.336C277.539 448.253 261.025 451.186 246.577 458.721" stroke="#D4D5D8" stroke-width="0.75" stroke-miterlimit="10"/>
            <path d="M391.434 450.336C398.998 448.917 406.78 448.996 414.312 450.569C421.845 452.141 428.974 455.175 435.274 459.489" stroke="#D4D5D8" stroke-width="0.75" stroke-miterlimit="10"/>
            <path d="M342.501 469.752C410.015 469.752 464.746 456.851 464.746 440.938C464.746 425.024 410.015 412.123 342.501 412.123C274.987 412.123 220.256 425.024 220.256 440.938C220.256 456.851 274.987 469.752 342.501 469.752Z" stroke="#D4D5D8" stroke-miterlimit="10"/>
            <path d="M391.434 450.388C401.024 442.57 412.341 437.013 424.503 434.151C436.664 431.288 449.341 431.198 461.545 433.887" stroke="#D4D5D8" stroke-width="0.75" stroke-miterlimit="10"/>
            <path d="M309.106 452.623C301.407 454.441 293.94 457.087 286.843 460.513C283.591 462.085 280.61 463.729 277.896 465.379" stroke="#D4D5D8" stroke-width="0.75" stroke-miterlimit="10"/>
            <path d="M372.735 452.89C380.434 454.707 387.901 457.354 394.998 460.78C398.25 462.352 401.231 463.996 403.946 465.646" stroke="#D4D5D8" stroke-width="0.75" stroke-miterlimit="10"/>
            <path d="M321.758 453.257C320.414 456.689 319.386 460.231 318.687 463.841C318.322 465.728 318.068 467.525 317.897 469.218" stroke="#D4D5D8" stroke-width="0.75" stroke-miterlimit="10"/>
            <path d="M356.52 453.259C357.864 456.691 358.892 460.234 359.591 463.843C359.955 465.73 360.209 467.528 360.38 469.219" stroke="#D4D5D8" stroke-width="0.75" stroke-miterlimit="10"/>
            <path d="M346.271 453.656C346.294 455.678 346.309 457.708 346.319 459.748C346.336 463.185 346.336 466.598 346.319 469.988" stroke="#D4D5D8" stroke-width="0.75" stroke-miterlimit="10"/>
            <path d="M333.334 453.52C333.355 455.529 333.371 457.547 333.381 459.573C333.398 462.989 333.398 466.382 333.381 469.751" stroke="#D4D5D8" stroke-width="0.75" stroke-miterlimit="10"/>
            <path d="M342.365 453.905C382.236 453.905 414.558 448.322 414.558 441.434C414.558 434.547 382.236 428.963 342.365 428.963C302.494 428.963 270.172 434.547 270.172 441.434C270.172 448.322 302.494 453.905 342.365 453.905Z" stroke="black" stroke-miterlimit="10"/>
        </g>
        <g clip-path="url(#clip2)">
            <path d="M685.831 431.677C744.539 431.677 792.132 384.14 792.132 325.5C792.132 266.86 744.539 219.323 685.831 219.323C627.123 219.323 579.53 266.86 579.53 325.5C579.53 384.14 627.123 431.677 685.831 431.677Z" stroke="#D4D5D8" stroke-miterlimit="10"/>
            <path d="M785.024 400.696C831.777 400.696 869.677 362.839 869.677 316.141C869.677 269.443 831.777 231.586 785.024 231.586C738.272 231.586 700.371 269.443 700.371 316.141C700.371 362.839 738.272 400.696 785.024 400.696Z" stroke="#D4D5D8" stroke-miterlimit="10"/>
            <path d="M746.575 361.826C771.736 361.826 792.133 341.453 792.133 316.322C792.133 291.19 771.736 270.817 746.575 270.817C721.414 270.817 701.018 291.19 701.018 316.322C701.018 341.453 721.414 361.826 746.575 361.826Z" stroke="black" stroke-miterlimit="10"/>
            <path d="M849.049 263.331C851.586 263.331 853.643 261.277 853.643 258.743C853.643 256.209 851.586 254.155 849.049 254.155C846.513 254.155 844.456 256.209 844.456 258.743C844.456 261.277 846.513 263.331 849.049 263.331Z" fill="black"/>
            <path d="M578.95 326.421C584.446 326.421 588.901 321.971 588.901 316.482C588.901 310.993 584.446 306.544 578.95 306.544C573.455 306.544 569 310.993 569 316.482C569 321.971 573.455 326.421 578.95 326.421Z" fill="#2762FF"/>
        </g>
        <g clip-path="url(#clip3)">
            <path d="M1113.87 447.032C1113.32 439.162 1110.91 421.341 1097.56 405.68C1093.45 400.867 1088.67 396.668 1083.38 393.211" stroke="#D4D5D8" stroke-width="0.75" stroke-miterlimit="10"/>
            <path d="M1159.96 447.032C1160.76 438.568 1163.67 421.368 1176.47 405.68C1180.56 400.678 1185.29 396.249 1190.55 392.51" stroke="#D4D5D8" stroke-width="0.75" stroke-miterlimit="10"/>
            <path d="M1146.34 447.733C1144.72 432.672 1146.44 417.436 1151.37 403.121C1152.86 398.882 1154.64 394.751 1156.69 390.758" stroke="#D4D5D8" stroke-width="0.75" stroke-miterlimit="10"/>
            <path d="M1129.23 447.382C1130.66 432.636 1128.97 417.752 1124.26 403.711C1122.79 399.395 1121.03 395.184 1118.99 391.108" stroke="#D4D5D8" stroke-width="0.75" stroke-miterlimit="10"/>
            <path d="M1181.6 446.681C1182.57 440.794 1186.2 423.53 1201.3 409.733C1208.33 403.35 1216.71 398.659 1225.82 396.015" stroke="#D4D5D8" stroke-width="0.75" stroke-miterlimit="10"/>
            <path d="M1097.12 446.331C1095.74 439.804 1091.47 424.032 1077.47 410.775C1070.92 404.598 1063.19 399.814 1054.75 396.713" stroke="#D4D5D8" stroke-width="0.75" stroke-miterlimit="10"/>
            <path d="M1076.89 443.146C1064.16 432.441 1049.15 424.832 1033.02 420.913C1016.89 416.994 1000.07 416.87 983.882 420.553" stroke="#D4D5D8" stroke-width="0.75" stroke-miterlimit="10"/>
            <path d="M1141.32 462.507C1214.92 462.507 1274.59 447.991 1274.59 430.084C1274.59 412.177 1214.92 397.66 1141.32 397.66C1067.72 397.66 1008.05 412.177 1008.05 430.084C1008.05 447.991 1067.72 462.507 1141.32 462.507Z" stroke="#D4D5D8" stroke-miterlimit="10"/>
            <path d="M1076.89 443.078C1055.33 440.225 1033.42 444.24 1014.26 454.557" stroke="#D4D5D8" stroke-width="0.75" stroke-miterlimit="10"/>
            <path d="M1206.41 443.078C1216.45 441.134 1226.77 441.242 1236.76 443.395C1246.75 445.548 1256.21 449.702 1264.57 455.609" stroke="#D4D5D8" stroke-width="0.75" stroke-miterlimit="10"/>
            <path d="M1141.5 469.66C1231.06 469.66 1303.66 451.996 1303.66 430.207C1303.66 408.418 1231.06 390.754 1141.5 390.754C1051.94 390.754 979.339 408.418 979.339 430.207C979.339 451.996 1051.94 469.66 1141.5 469.66Z" stroke="#D4D5D8" stroke-miterlimit="10"/>
            <path d="M1206.41 443.146C1219.13 432.441 1234.15 424.832 1250.28 420.913C1266.41 416.994 1283.23 416.87 1299.42 420.553" stroke="#D4D5D8" stroke-width="0.75" stroke-miterlimit="10"/>
            <path d="M1097.2 446.205C1086.99 448.693 1077.08 452.317 1067.67 457.008C1063.35 459.161 1059.4 461.412 1055.8 463.671" stroke="#D4D5D8" stroke-width="0.75" stroke-miterlimit="10"/>
            <path d="M1181.61 446.572C1191.82 449.061 1201.73 452.684 1211.14 457.375C1215.45 459.528 1219.41 461.779 1223.01 464.038" stroke="#D4D5D8" stroke-width="0.75" stroke-miterlimit="10"/>
            <path d="M1113.98 447.074C1112.2 451.774 1110.84 456.625 1109.91 461.567C1109.43 464.151 1109.09 466.612 1108.86 468.929" stroke="#D4D5D8" stroke-width="0.75" stroke-miterlimit="10"/>
            <path d="M1160.1 447.078C1161.88 451.778 1163.24 456.627 1164.17 461.57C1164.65 464.153 1164.99 466.615 1165.22 468.931" stroke="#D4D5D8" stroke-width="0.75" stroke-miterlimit="10"/>
            <path d="M1146.5 447.618C1146.53 450.387 1146.55 453.167 1146.57 455.959C1146.59 460.665 1146.59 465.339 1146.57 469.98" stroke="#D4D5D8" stroke-width="0.75" stroke-miterlimit="10"/>
            <path d="M1129.34 447.435C1129.37 450.186 1129.39 452.948 1129.4 455.723C1129.43 460.401 1129.43 465.046 1129.4 469.659" stroke="#D4D5D8" stroke-width="0.75" stroke-miterlimit="10"/>
            <path opacity="0.5" d="M1141.5 466.178C1223.15 466.178 1289.35 450.073 1289.35 430.207C1289.35 410.341 1223.15 394.236 1141.5 394.236C1059.85 394.236 993.652 410.341 993.652 430.207C993.652 450.073 1059.85 466.178 1141.5 466.178Z" stroke="#D4D5D8" stroke-miterlimit="10"/>
            <path d="M1137.96 457.646C1200.53 457.646 1251.25 445.306 1251.25 430.084C1251.25 414.862 1200.53 402.522 1137.96 402.522C1075.4 402.522 1024.68 414.862 1024.68 430.084C1024.68 445.306 1075.4 457.646 1137.96 457.646Z" stroke="#D4D5D8" stroke-width="0.75" stroke-miterlimit="10"/>
            <path d="M1141.32 447.962C1194.21 447.962 1237.09 440.317 1237.09 430.887C1237.09 421.456 1194.21 413.811 1141.32 413.811C1088.43 413.811 1045.55 421.456 1045.55 430.887C1045.55 440.317 1088.43 447.962 1141.32 447.962Z" stroke="black" stroke-miterlimit="10"/>
            <path d="M1229.23 414.757C1232.75 414.757 1235.6 411.891 1235.6 408.355C1235.6 404.82 1232.75 401.954 1229.23 401.954C1225.71 401.954 1222.85 404.82 1222.85 408.355C1222.85 411.891 1225.71 414.757 1229.23 414.757Z" fill="#2762FF"/>
            <path d="M1266.04 408.856C1273.7 408.856 1279.91 402.62 1279.91 394.928C1279.91 387.236 1273.7 381 1266.04 381C1258.38 381 1252.17 387.236 1252.17 394.928C1252.17 402.62 1258.38 408.856 1266.04 408.856Z" fill="#FAB961"/>
        </g>
        <path fill-rule="evenodd" clip-rule="evenodd" d="M93.6314 0C91.2669 8.20576 90 16.8766 90 25.8434C90 77.2924 131.708 119 183.157 119C234.606 119 276.313 77.2924 276.313 25.8434C276.313 16.8766 275.046 8.20576 272.682 0L93.6314 0Z" fill="#2762FF"/>
    </g>
    <defs>
        <clipPath id="clip0">
            <rect width="1440" height="731" fill="white"/>
        </clipPath>
        <clipPath id="clip1">
            <rect width="245" height="65" fill="white" transform="translate(220 405)"/>
        </clipPath>
        <clipPath id="clip2">
            <rect width="301" height="213" fill="white" transform="translate(569 219)"/>
        </clipPath>
        <clipPath id="clip3">
            <rect width="325" height="89" fill="white" transform="translate(979 381)"/>
        </clipPath>
    </defs>
</svg>