<svg width="1440" height="731" viewBox="0 0 1440 731" fill="none" xmlns="http://www.w3.org/2000/svg">
<g clip-path="url(#clip0)">
<rect width="1440" height="731" fill="white"/>
<path fill-rule="evenodd" clip-rule="evenodd" d="M-1 655.169C64.8048 644.31 115 587.068 115 518.085C115 449.101 64.8048 391.86 -1 381L-1 655.169Z" fill="#FAB961"/>
<circle cx="1397" cy="269" r="14" fill="#2762FF"/>
<mask id="path-3-inside-1" fill="white">
<path fill-rule="evenodd" clip-rule="evenodd" d="M1383 304.621C1383 279.977 1402.98 260 1427.62 260C1431.92 260 1436.07 260.607 1440 261.739L1440 347.503C1436.07 348.635 1431.92 349.242 1427.62 349.242C1402.98 349.242 1383 329.265 1383 304.621Z"/>
</mask>
<path d="M1440 261.739L1440.28 260.778L1441 260.987L1441 261.739L1440 261.739ZM1440 347.503L1441 347.503L1441 348.255L1440.28 348.464L1440 347.503ZM1427.62 261C1403.53 261 1384 280.53 1384 304.621L1382 304.621C1382 279.425 1402.43 259 1427.62 259L1427.62 261ZM1439.72 262.7C1435.88 261.593 1431.82 261 1427.62 261L1427.62 259C1432.01 259 1436.26 259.62 1440.28 260.778L1439.72 262.7ZM1441 261.739L1441 347.503L1439 347.503L1439 261.739L1441 261.739ZM1427.62 348.242C1431.82 348.242 1435.88 347.649 1439.72 346.542L1440.28 348.464C1436.26 349.622 1432.01 350.242 1427.62 350.242L1427.62 348.242ZM1384 304.621C1384 328.712 1403.53 348.242 1427.62 348.242L1427.62 350.242C1402.43 350.242 1382 329.817 1382 304.621L1384 304.621Z" fill="#D4D5D8" mask="url(#path-3-inside-1)"/>
<path fill-rule="evenodd" clip-rule="evenodd" d="M-1 630.977C1.20659 630.341 3.53826 630 5.9495 630C19.7845 630 31 641.215 31 655.051C31 668.886 19.7845 680.101 5.9495 680.101C3.53826 680.101 1.20659 679.76 -1 679.125L-1 630.977Z" fill="#2762FF"/>
<path fill-rule="evenodd" clip-rule="evenodd" d="M1093.4 48.3745C1053.12 88.6547 1053.06 153.898 1093.26 194.1C1133.47 234.302 1198.71 234.239 1238.99 193.959C1261.42 171.53 1271.37 141.362 1268.85 112.087L1290.47 110.174C1293.52 145.613 1281.46 182.133 1254.31 209.284C1205.55 258.044 1126.57 258.121 1077.91 209.455C1029.24 160.789 1029.32 81.8102 1078.08 33.0499L1093.4 48.3745Z" fill="#FAB961"/>
<g clip-path="url(#clip1)">
<path d="M321.674 514.225C321.257 508.478 319.441 495.462 309.379 484.025C306.279 480.509 302.678 477.442 298.686 474.918" stroke="#D4D5D8" stroke-width="0.75" stroke-miterlimit="10"/>
<path d="M356.413 514.225C357.02 508.044 359.212 495.482 368.861 484.025C371.942 480.372 375.513 477.137 379.477 474.406" stroke="#D4D5D8" stroke-width="0.75" stroke-miterlimit="10"/>
<path d="M346.15 514.738C344.927 503.738 346.222 492.611 349.943 482.155C351.065 479.06 352.405 476.043 353.953 473.126" stroke="#D4D5D8" stroke-width="0.75" stroke-miterlimit="10"/>
<path d="M333.256 514.482C334.332 503.711 333.054 492.842 329.504 482.587C328.395 479.434 327.068 476.359 325.532 473.382" stroke="#D4D5D8" stroke-width="0.75" stroke-miterlimit="10"/>
<path d="M372.73 513.97C373.46 509.67 376.195 497.061 387.581 486.986C392.879 482.324 399.199 478.897 406.062 476.966" stroke="#D4D5D8" stroke-width="0.75" stroke-miterlimit="10"/>
<path d="M309.042 513.713C308.003 508.946 304.785 497.427 294.231 487.745C289.292 483.234 283.467 479.74 277.105 477.475" stroke="#D4D5D8" stroke-width="0.75" stroke-miterlimit="10"/>
<path d="M293.792 511.388C284.202 503.57 272.884 498.013 260.723 495.15C248.561 492.288 235.884 492.198 223.681 494.887" stroke="#D4D5D8" stroke-width="0.75" stroke-miterlimit="10"/>
<path d="M293.791 511.336C277.539 509.253 261.024 512.185 246.577 519.721" stroke="#D4D5D8" stroke-width="0.75" stroke-miterlimit="10"/>
<path d="M391.434 511.336C398.998 509.917 406.78 509.996 414.312 511.569C421.845 513.141 428.974 516.175 435.274 520.489" stroke="#D4D5D8" stroke-width="0.75" stroke-miterlimit="10"/>
<path d="M342.501 530.752C410.015 530.752 464.746 517.851 464.746 501.938C464.746 486.024 410.015 473.123 342.501 473.123C274.987 473.123 220.256 486.024 220.256 501.938C220.256 517.851 274.987 530.752 342.501 530.752Z" stroke="#D4D5D8" stroke-miterlimit="10"/>
<path d="M391.434 511.388C401.024 503.57 412.341 498.013 424.503 495.15C436.664 492.288 449.341 492.198 461.545 494.887" stroke="#D4D5D8" stroke-width="0.75" stroke-miterlimit="10"/>
<path d="M309.106 513.623C301.407 515.44 293.94 518.087 286.843 521.513C283.591 523.085 280.61 524.729 277.896 526.379" stroke="#D4D5D8" stroke-width="0.75" stroke-miterlimit="10"/>
<path d="M372.736 513.89C380.435 515.707 387.902 518.354 394.998 521.78C398.25 523.352 401.232 524.996 403.946 526.646" stroke="#D4D5D8" stroke-width="0.75" stroke-miterlimit="10"/>
<path d="M321.758 514.257C320.413 517.689 319.385 521.231 318.687 524.841C318.322 526.728 318.068 528.525 317.897 530.217" stroke="#D4D5D8" stroke-width="0.75" stroke-miterlimit="10"/>
<path d="M356.52 514.259C357.864 517.691 358.892 521.233 359.591 524.843C359.955 526.73 360.209 528.528 360.38 530.219" stroke="#D4D5D8" stroke-width="0.75" stroke-miterlimit="10"/>
<path d="M346.271 514.656C346.293 516.678 346.309 518.708 346.318 520.747C346.335 524.185 346.335 527.598 346.318 530.988" stroke="#D4D5D8" stroke-width="0.75" stroke-miterlimit="10"/>
<path d="M333.334 514.52C333.356 516.529 333.372 518.546 333.382 520.573C333.399 523.989 333.399 527.382 333.382 530.751" stroke="#D4D5D8" stroke-width="0.75" stroke-miterlimit="10"/>
<path d="M342.365 514.905C382.236 514.905 414.558 509.322 414.558 502.434C414.558 495.547 382.236 489.963 342.365 489.963C302.494 489.963 270.172 495.547 270.172 502.434C270.172 509.322 302.494 514.905 342.365 514.905Z" stroke="black" stroke-miterlimit="10"/>
</g>
<g clip-path="url(#clip2)">
<path d="M685.831 482.677C744.539 482.677 792.132 435.14 792.132 376.5C792.132 317.86 744.539 270.323 685.831 270.323C627.123 270.323 579.53 317.86 579.53 376.5C579.53 435.14 627.123 482.677 685.831 482.677Z" stroke="#D4D5D8" stroke-miterlimit="10"/>
<path d="M785.024 451.696C831.777 451.696 869.677 413.839 869.677 367.141C869.677 320.443 831.777 282.586 785.024 282.586C738.272 282.586 700.371 320.443 700.371 367.141C700.371 413.839 738.272 451.696 785.024 451.696Z" stroke="#D4D5D8" stroke-miterlimit="10"/>
<path d="M746.575 412.826C771.735 412.826 792.132 392.453 792.132 367.322C792.132 342.19 771.735 321.817 746.575 321.817C721.414 321.817 701.017 342.19 701.017 367.322C701.017 392.453 721.414 412.826 746.575 412.826Z" stroke="black" stroke-miterlimit="10"/>
<path d="M849.05 314.331C851.587 314.331 853.643 312.277 853.643 309.743C853.643 307.209 851.587 305.155 849.05 305.155C846.513 305.155 844.457 307.209 844.457 309.743C844.457 312.277 846.513 314.331 849.05 314.331Z" fill="black"/>
<path d="M578.95 377.421C584.446 377.421 588.901 372.972 588.901 367.483C588.901 361.994 584.446 357.544 578.95 357.544C573.455 357.544 569 361.994 569 367.483C569 372.972 573.455 377.421 578.95 377.421Z" fill="#2762FF"/>
</g>
<g clip-path="url(#clip3)">
<path d="M1115.87 508.032C1115.32 500.162 1112.91 482.341 1099.56 466.68C1095.45 461.867 1090.67 457.668 1085.38 454.211" stroke="#D4D5D8" stroke-width="0.75" stroke-miterlimit="10"/>
<path d="M1161.96 508.032C1162.76 499.568 1165.67 482.368 1178.47 466.68C1182.56 461.678 1187.29 457.249 1192.55 453.51" stroke="#D4D5D8" stroke-width="0.75" stroke-miterlimit="10"/>
<path d="M1148.34 508.733C1146.72 493.672 1148.44 478.436 1153.37 464.121C1154.86 459.882 1156.64 455.751 1158.69 451.758" stroke="#D4D5D8" stroke-width="0.75" stroke-miterlimit="10"/>
<path d="M1131.23 508.382C1132.66 493.636 1130.97 478.752 1126.26 464.711C1124.79 460.395 1123.03 456.184 1120.99 452.108" stroke="#D4D5D8" stroke-width="0.75" stroke-miterlimit="10"/>
<path d="M1183.6 507.681C1184.57 501.794 1188.2 484.53 1203.3 470.733C1210.33 464.35 1218.71 459.659 1227.81 457.015" stroke="#D4D5D8" stroke-width="0.75" stroke-miterlimit="10"/>
<path d="M1099.12 507.331C1097.74 500.804 1093.47 485.032 1079.47 471.775C1072.92 465.598 1065.19 460.814 1056.75 457.713" stroke="#D4D5D8" stroke-width="0.75" stroke-miterlimit="10"/>
<path d="M1078.89 504.146C1066.16 493.44 1051.15 485.832 1035.02 481.913C1018.89 477.993 1002.07 477.87 985.882 481.552" stroke="#D4D5D8" stroke-width="0.75" stroke-miterlimit="10"/>
<path d="M1143.32 523.507C1216.92 523.507 1276.59 508.991 1276.59 491.084C1276.59 473.177 1216.92 458.66 1143.32 458.66C1069.72 458.66 1010.05 473.177 1010.05 491.084C1010.05 508.991 1069.72 523.507 1143.32 523.507Z" stroke="#D4D5D8" stroke-miterlimit="10"/>
<path d="M1078.89 504.078C1057.33 501.225 1035.42 505.24 1016.26 515.557" stroke="#D4D5D8" stroke-width="0.75" stroke-miterlimit="10"/>
<path d="M1208.41 504.078C1218.45 502.134 1228.77 502.242 1238.76 504.395C1248.75 506.548 1258.21 510.702 1266.57 516.609" stroke="#D4D5D8" stroke-width="0.75" stroke-miterlimit="10"/>
<path d="M1143.5 530.66C1233.06 530.66 1305.66 512.996 1305.66 491.207C1305.66 469.417 1233.06 451.754 1143.5 451.754C1053.94 451.754 981.338 469.417 981.338 491.207C981.338 512.996 1053.94 530.66 1143.5 530.66Z" stroke="#D4D5D8" stroke-miterlimit="10"/>
<path d="M1208.41 504.146C1221.13 493.44 1236.14 485.832 1252.28 481.913C1268.41 477.993 1285.23 477.87 1301.41 481.552" stroke="#D4D5D8" stroke-width="0.75" stroke-miterlimit="10"/>
<path d="M1099.2 507.205C1088.99 509.693 1079.08 513.317 1069.67 518.008C1065.35 520.161 1061.4 522.412 1057.8 524.671" stroke="#D4D5D8" stroke-width="0.75" stroke-miterlimit="10"/>
<path d="M1183.61 507.572C1193.82 510.061 1203.73 513.684 1213.14 518.375C1217.45 520.528 1221.41 522.779 1225.01 525.038" stroke="#D4D5D8" stroke-width="0.75" stroke-miterlimit="10"/>
<path d="M1115.98 508.074C1114.2 512.774 1112.84 517.625 1111.91 522.567C1111.43 525.151 1111.09 527.612 1110.86 529.929" stroke="#D4D5D8" stroke-width="0.75" stroke-miterlimit="10"/>
<path d="M1162.1 508.078C1163.88 512.778 1165.24 517.628 1166.17 522.57C1166.65 525.153 1166.99 527.615 1167.22 529.931" stroke="#D4D5D8" stroke-width="0.75" stroke-miterlimit="10"/>
<path d="M1148.5 508.618C1148.53 511.387 1148.55 514.167 1148.57 516.959C1148.59 521.665 1148.59 526.339 1148.57 530.98" stroke="#D4D5D8" stroke-width="0.75" stroke-miterlimit="10"/>
<path d="M1131.34 508.435C1131.37 511.186 1131.39 513.948 1131.4 516.723C1131.43 521.401 1131.43 526.046 1131.4 530.659" stroke="#D4D5D8" stroke-width="0.75" stroke-miterlimit="10"/>
<path opacity="0.5" d="M1143.5 527.178C1225.15 527.178 1291.35 511.073 1291.35 491.207C1291.35 471.341 1225.15 455.236 1143.5 455.236C1061.85 455.236 995.652 471.341 995.652 491.207C995.652 511.073 1061.85 527.178 1143.5 527.178Z" stroke="#D4D5D8" stroke-miterlimit="10"/>
<path d="M1139.96 518.646C1202.53 518.646 1253.25 506.306 1253.25 491.084C1253.25 475.862 1202.53 463.522 1139.96 463.522C1077.4 463.522 1026.68 475.862 1026.68 491.084C1026.68 506.306 1077.4 518.646 1139.96 518.646Z" stroke="#D4D5D8" stroke-width="0.75" stroke-miterlimit="10"/>
<path d="M1143.32 508.962C1196.21 508.962 1239.09 501.317 1239.09 491.887C1239.09 482.456 1196.21 474.811 1143.32 474.811C1090.43 474.811 1047.55 482.456 1047.55 491.887C1047.55 501.317 1090.43 508.962 1143.32 508.962Z" stroke="black" stroke-miterlimit="10"/>
<path d="M1231.23 475.757C1234.75 475.757 1237.6 472.891 1237.6 469.355C1237.6 465.82 1234.75 462.954 1231.23 462.954C1227.71 462.954 1224.85 465.82 1224.85 469.355C1224.85 472.891 1227.71 475.757 1231.23 475.757Z" fill="#2762FF"/>
<path d="M1268.04 469.856C1275.7 469.856 1281.91 463.62 1281.91 455.928C1281.91 448.236 1275.7 442 1268.04 442C1260.38 442 1254.17 448.236 1254.17 455.928C1254.17 463.62 1260.38 469.856 1268.04 469.856Z" fill="#FAB961"/>
</g>
<path fill-rule="evenodd" clip-rule="evenodd" d="M92.6314 0C90.2669 8.20576 89 16.8766 89 25.8434C89 77.2924 130.708 119 182.157 119C233.606 119 275.313 77.2924 275.313 25.8434C275.313 16.8766 274.046 8.20576 271.682 0L92.6314 0Z" fill="#2762FF"/>
</g>
<defs>
<clipPath id="clip0">
<rect width="1440" height="731" fill="white"/>
</clipPath>
<clipPath id="clip1">
<rect width="245" height="65" fill="white" transform="translate(220 466)"/>
</clipPath>
<clipPath id="clip2">
<rect width="301" height="213" fill="white" transform="translate(569 270)"/>
</clipPath>
<clipPath id="clip3">
<rect width="325" height="89" fill="white" transform="translate(981 442)"/>
</clipPath>
</defs>
</svg>
