<svg width="768" height="505" viewBox="0 0 768 505" fill="none" xmlns="http://www.w3.org/2000/svg">
    <g clip-path="url(#clip0)">
        <rect width="768" height="605" fill="white"/>
        <g clip-path="url(#clip1)">
            <path d="M595.841 363.005C595.481 357.88 593.912 346.274 585.219 336.074C582.541 332.939 579.43 330.204 575.98 327.953" stroke="#D4D5D8" stroke-width="0.488463" stroke-miterlimit="10"/>
            <path d="M625.854 363.005C626.38 357.493 628.273 346.291 636.609 336.074C639.271 332.816 642.356 329.932 645.781 327.497" stroke="#D4D5D8" stroke-width="0.488463" stroke-miterlimit="10"/>
            <path d="M616.987 363.462C615.93 353.653 617.049 343.73 620.264 334.407C621.233 331.646 622.391 328.956 623.728 326.355" stroke="#D4D5D8" stroke-width="0.488463" stroke-miterlimit="10"/>
            <path d="M605.845 363.234C606.775 353.629 605.67 343.936 602.603 334.791C601.646 331.98 600.499 329.238 599.172 326.583" stroke="#D4D5D8" stroke-width="0.488463" stroke-miterlimit="10"/>
            <path d="M639.951 362.777C640.581 358.943 642.944 347.699 652.781 338.714C657.358 334.556 662.818 331.501 668.747 329.779" stroke="#D4D5D8" stroke-width="0.488463" stroke-miterlimit="10"/>
            <path d="M584.927 362.549C584.03 358.298 581.25 348.026 572.131 339.392C567.865 335.369 562.832 332.254 557.336 330.234" stroke="#D4D5D8" stroke-width="0.488463" stroke-miterlimit="10"/>
            <path d="M571.752 360.474C563.467 353.502 553.689 348.547 543.182 345.994C532.675 343.442 521.723 343.362 511.18 345.76" stroke="#D4D5D8" stroke-width="0.488463" stroke-miterlimit="10"/>
            <path d="M613.717 373.085C661.653 373.085 700.513 363.63 700.513 351.968C700.513 340.305 661.653 330.851 613.717 330.851C565.781 330.851 526.921 340.305 526.921 351.968C526.921 363.63 565.781 373.085 613.717 373.085Z" stroke="#D4D5D8" stroke-width="0.651284" stroke-miterlimit="10"/>
            <path d="M571.752 360.43C557.711 358.572 543.444 361.187 530.963 367.907" stroke="#D4D5D8" stroke-width="0.488463" stroke-miterlimit="10"/>
            <path d="M656.109 360.43C662.645 359.164 669.367 359.235 675.875 360.637C682.383 362.039 688.543 364.745 693.985 368.592" stroke="#D4D5D8" stroke-width="0.488463" stroke-miterlimit="10"/>
            <path d="M613.834 377.743C672.163 377.743 719.448 366.239 719.448 352.048C719.448 337.857 672.163 326.352 613.834 326.352C555.505 326.352 508.221 337.857 508.221 352.048C508.221 366.239 555.505 377.743 613.834 377.743Z" stroke="#D4D5D8" stroke-width="0.651284" stroke-miterlimit="10"/>
            <path d="M656.109 360.474C664.395 353.502 674.172 348.547 684.679 345.994C695.186 343.442 706.139 343.362 716.682 345.76" stroke="#D4D5D8" stroke-width="0.488463" stroke-miterlimit="10"/>
            <path d="M584.982 362.467C578.331 364.088 571.88 366.447 565.749 369.503C562.939 370.905 560.364 372.371 558.019 373.842" stroke="#D4D5D8" stroke-width="0.488463" stroke-miterlimit="10"/>
            <path d="M639.956 362.706C646.608 364.327 653.058 366.687 659.189 369.742C661.999 371.144 664.575 372.61 666.92 374.081" stroke="#D4D5D8" stroke-width="0.488463" stroke-miterlimit="10"/>
            <path d="M595.914 363.033C594.752 366.094 593.864 369.253 593.26 372.472C592.945 374.155 592.726 375.758 592.578 377.267" stroke="#D4D5D8" stroke-width="0.488463" stroke-miterlimit="10"/>
            <path d="M625.945 363.036C627.107 366.096 627.995 369.255 628.598 372.474C628.913 374.157 629.133 375.76 629.281 377.268" stroke="#D4D5D8" stroke-width="0.488463" stroke-miterlimit="10"/>
            <path d="M617.093 363.388C617.112 365.19 617.126 367.001 617.134 368.819C617.148 371.885 617.148 374.929 617.134 377.952" stroke="#D4D5D8" stroke-width="0.488463" stroke-miterlimit="10"/>
            <path d="M605.914 363.268C605.933 365.06 605.946 366.859 605.955 368.666C605.969 371.713 605.969 374.738 605.955 377.742" stroke="#D4D5D8" stroke-width="0.488463" stroke-miterlimit="10"/>
            <path opacity="0.5" d="M613.834 375.475C667.014 375.475 710.125 364.986 710.125 352.048C710.125 339.109 667.014 328.62 613.834 328.62C560.654 328.62 517.543 339.109 517.543 352.048C517.543 364.986 560.654 375.475 613.834 375.475Z" stroke="#D4D5D8" stroke-width="0.651284" stroke-miterlimit="10"/>
            <path d="M611.53 369.918C652.278 369.918 685.312 361.881 685.312 351.968C685.312 342.054 652.278 334.017 611.53 334.017C570.781 334.017 537.748 342.054 537.748 351.968C537.748 361.881 570.781 369.918 611.53 369.918Z" stroke="#D4D5D8" stroke-width="0.488463" stroke-miterlimit="10"/>
            <path d="M613.717 363.611C648.163 363.611 676.088 358.632 676.088 352.49C676.088 346.348 648.163 341.369 613.717 341.369C579.27 341.369 551.346 346.348 551.346 352.49C551.346 358.632 579.27 363.611 613.717 363.611Z" stroke="black" stroke-width="0.651284" stroke-miterlimit="10"/>
            <path d="M670.969 341.985C673.263 341.985 675.122 340.119 675.122 337.816C675.122 335.514 673.263 333.647 670.969 333.647C668.676 333.647 666.817 335.514 666.817 337.816C666.817 340.119 668.676 341.985 670.969 341.985Z" fill="#2762FF"/>
            <path d="M694.942 338.142C699.932 338.142 703.976 334.081 703.976 329.071C703.976 324.061 699.932 320 694.942 320C689.953 320 685.908 324.061 685.908 329.071C685.908 334.081 689.953 338.142 694.942 338.142Z" fill="#FAB961"/>
        </g>
        <g clip-path="url(#clip2)">
            <path d="M358.406 312.753C403.333 312.753 439.754 276.375 439.754 231.5C439.754 186.625 403.333 150.247 358.406 150.247C313.479 150.247 277.059 186.625 277.059 231.5C277.059 276.375 313.479 312.753 358.406 312.753Z" stroke="#D4D5D8" stroke-width="0.765258" stroke-miterlimit="10"/>
            <path d="M434.315 289.044C470.092 289.044 499.096 260.074 499.096 224.338C499.096 188.602 470.092 159.632 434.315 159.632C398.537 159.632 369.533 188.602 369.533 224.338C369.533 260.074 398.537 289.044 434.315 289.044Z" stroke="#D4D5D8" stroke-width="0.765258" stroke-miterlimit="10"/>
            <path d="M404.891 259.299C424.145 259.299 439.754 243.708 439.754 224.476C439.754 205.244 424.145 189.654 404.891 189.654C385.636 189.654 370.027 205.244 370.027 224.476C370.027 243.708 385.636 259.299 404.891 259.299Z" stroke="black" stroke-width="0.765258" stroke-miterlimit="10"/>
            <path d="M483.31 183.925C485.251 183.925 486.825 182.353 486.825 180.414C486.825 178.475 485.251 176.903 483.31 176.903C481.369 176.903 479.795 178.475 479.795 180.414C479.795 182.353 481.369 183.925 483.31 183.925Z" fill="black"/>
            <path d="M276.615 232.205C280.82 232.205 284.229 228.8 284.229 224.599C284.229 220.399 280.82 216.994 276.615 216.994C272.409 216.994 269 220.399 269 224.599C269 228.8 272.409 232.205 276.615 232.205Z" fill="#2762FF"/>
        </g>
        <g clip-path="url(#clip3)">
            <path d="M186.219 358.767C185.947 355.023 184.765 346.547 178.211 339.098C176.192 336.808 173.847 334.811 171.247 333.167" stroke="#D4D5D8" stroke-width="0.488463" stroke-miterlimit="10"/>
            <path d="M208.844 358.767C209.24 354.741 210.667 346.559 216.951 339.098C218.958 336.719 221.283 334.612 223.865 332.833" stroke="#D4D5D8" stroke-width="0.488463" stroke-miterlimit="10"/>
            <path d="M202.16 359.101C201.363 351.936 202.207 344.69 204.631 337.88C205.361 335.864 206.234 333.899 207.242 332" stroke="#D4D5D8" stroke-width="0.488463" stroke-miterlimit="10"/>
            <path d="M193.762 358.934C194.463 351.919 193.63 344.84 191.318 338.161C190.597 336.108 189.732 334.105 188.731 332.167" stroke="#D4D5D8" stroke-width="0.488463" stroke-miterlimit="10"/>
            <path d="M219.472 358.6C219.947 355.8 221.728 347.588 229.143 341.026C232.594 337.99 236.71 335.758 241.18 334.501" stroke="#D4D5D8" stroke-width="0.488463" stroke-miterlimit="10"/>
            <path d="M177.992 358.433C177.316 355.329 175.22 347.826 168.346 341.521C165.13 338.582 161.336 336.307 157.192 334.832" stroke="#D4D5D8" stroke-width="0.488463" stroke-miterlimit="10"/>
            <path d="M168.06 356.919C161.814 351.827 154.443 348.208 146.522 346.344C138.602 344.48 130.345 344.421 122.397 346.172" stroke="#D4D5D8" stroke-width="0.488463" stroke-miterlimit="10"/>
            <path d="M168.06 356.885C157.475 355.528 146.719 357.438 137.31 362.346" stroke="#D4D5D8" stroke-width="0.488463" stroke-miterlimit="10"/>
            <path d="M231.652 356.885C236.579 355.961 241.647 356.012 246.553 357.037C251.459 358.061 256.102 360.037 260.205 362.846" stroke="#D4D5D8" stroke-width="0.488463" stroke-miterlimit="10"/>
            <path d="M199.783 369.53C243.754 369.53 279.4 361.128 279.4 350.764C279.4 340.4 243.754 331.998 199.783 331.998C155.812 331.998 120.167 340.4 120.167 350.764C120.167 361.128 155.812 369.53 199.783 369.53Z" stroke="#D4D5D8" stroke-width="0.651284" stroke-miterlimit="10"/>
            <path d="M231.652 356.919C237.898 351.827 245.269 348.208 253.19 346.344C261.11 344.48 269.367 344.421 277.315 346.172" stroke="#D4D5D8" stroke-width="0.488463" stroke-miterlimit="10"/>
            <path d="M178.034 358.375C173.019 359.558 168.156 361.282 163.535 363.513C161.416 364.537 159.475 365.608 157.707 366.682" stroke="#D4D5D8" stroke-width="0.488463" stroke-miterlimit="10"/>
            <path d="M219.475 358.548C224.489 359.732 229.352 361.456 233.974 363.687C236.092 364.711 238.033 365.781 239.802 366.856" stroke="#D4D5D8" stroke-width="0.488463" stroke-miterlimit="10"/>
            <path d="M186.274 358.787C185.399 361.023 184.729 363.33 184.274 365.681C184.036 366.91 183.871 368.08 183.76 369.182" stroke="#D4D5D8" stroke-width="0.488463" stroke-miterlimit="10"/>
            <path d="M208.913 358.789C209.789 361.024 210.458 363.331 210.913 365.682C211.151 366.911 211.316 368.082 211.427 369.184" stroke="#D4D5D8" stroke-width="0.488463" stroke-miterlimit="10"/>
            <path d="M202.239 359.048C202.254 360.364 202.264 361.687 202.27 363.015C202.281 365.253 202.281 367.476 202.27 369.684" stroke="#D4D5D8" stroke-width="0.488463" stroke-miterlimit="10"/>
            <path d="M193.813 358.959C193.827 360.267 193.838 361.581 193.844 362.901C193.855 365.126 193.855 367.336 193.844 369.53" stroke="#D4D5D8" stroke-width="0.488463" stroke-miterlimit="10"/>
            <path d="M199.695 359.21C225.662 359.21 246.713 355.573 246.713 351.087C246.713 346.602 225.662 342.965 199.695 342.965C173.727 342.965 152.677 346.602 152.677 351.087C152.677 355.573 173.727 359.21 199.695 359.21Z" stroke="black" stroke-width="0.651284" stroke-miterlimit="10"/>
        </g>
        <path fill-rule="evenodd" clip-rule="evenodd" d="M0 358.264C48.7864 350.212 86 307.775 86 256.632C86 205.489 48.7863 163.051 0 155L0 358.264Z" fill="#FAB961"/>
        <path fill-rule="evenodd" clip-rule="evenodd" d="M-3.16457e-08 341.724C1.63592 341.253 3.36457 341 5.15222 341C15.4092 341 23.7241 349.315 23.7241 359.572C23.7241 369.829 15.4092 378.144 5.15221 378.144C3.36457 378.144 1.63592 377.891 -1.59196e-06 377.42L-3.16457e-08 341.724Z" fill="#2762FF"/>
        <path fill-rule="evenodd" clip-rule="evenodd" d="M50.2609 0C48.7888 5.10897 48 10.5075 48 16.0903C48 48.1228 73.9675 74.0903 106 74.0903C138.033 74.0903 164 48.1228 164 16.0903C164 10.5075 163.211 5.10897 161.739 0L50.2609 0Z" fill="#2762FF"/>
        <path fill-rule="evenodd" clip-rule="evenodd" d="M592.541 32.6633C566.517 58.6871 566.476 100.839 592.45 126.812C618.423 152.785 660.575 152.745 686.598 126.721C701.089 112.23 707.519 92.7396 705.892 73.8256L719.859 72.5902C721.828 95.486 714.04 119.08 696.499 136.622C664.997 168.124 613.971 168.174 582.529 136.732C551.088 105.291 551.138 54.2651 582.64 22.7626L592.541 32.6633Z" fill="#FAB961"/>
    </g>
    <defs>
        <clipPath id="clip0">
            <rect width="768" height="605" fill="white"/>
        </clipPath>
        <clipPath id="clip1">
            <rect width="211.667" height="57.9643" fill="white" transform="translate(508 320)"/>
        </clipPath>
        <clipPath id="clip2">
            <rect width="230.343" height="163" fill="white" transform="translate(269 150)"/>
        </clipPath>
        <clipPath id="clip3">
            <rect width="159.565" height="42.3335" fill="white" transform="translate(120 327.359)"/>
        </clipPath>
    </defs>
</svg>