<svg width="375" height="616" viewBox="0 0 375 616" fill="none" xmlns="http://www.w3.org/2000/svg">
    <g clip-path="url(#clip0)">
        <rect width="375" height="616" fill="white"/>
        <path fill-rule="evenodd" clip-rule="evenodd" d="M-1 562.358C24.5276 558.146 43.9998 535.94 43.9998 509.179C43.9998 482.418 24.5276 460.213 -1 456L-1 562.358Z" fill="#FAB961"/>
        <circle cx="353" cy="150" r="7" fill="#2762FF"/>
        <mask id="path-3-inside-1" fill="white">
            <path fill-rule="evenodd" clip-rule="evenodd" d="M374.873 189.704C372.851 190.287 370.714 190.599 368.504 190.599C355.824 190.599 345.545 180.32 345.545 167.641C345.545 154.961 355.824 144.682 368.504 144.682C370.714 144.682 372.851 144.994 374.873 145.577L374.873 189.704Z"/>
        </mask>
        <path d="M374.873 189.704L375.485 189.704L375.485 190.165L375.042 190.292L374.873 189.704ZM374.873 145.577L375.042 144.989L375.485 145.117L375.485 145.577L374.873 145.577ZM368.504 189.987C370.656 189.987 372.736 189.683 374.704 189.116L375.042 190.292C372.966 190.89 370.772 191.211 368.504 191.211L368.504 189.987ZM346.157 167.641C346.157 179.982 356.162 189.987 368.504 189.987L368.504 191.211C355.486 191.211 344.933 180.658 344.933 167.641L346.157 167.641ZM368.504 145.294C356.162 145.294 346.157 155.299 346.157 167.641L344.933 167.641C344.933 154.623 355.486 144.07 368.504 144.07L368.504 145.294ZM374.704 146.165C372.736 145.598 370.656 145.294 368.504 145.294L368.504 144.07C370.772 144.07 372.966 144.391 375.042 144.989L374.704 146.165ZM375.485 145.577L375.485 189.704L374.261 189.704L374.261 145.577L375.485 145.577Z" fill="#D4D5D8" mask="url(#path-3-inside-1)"/>
        <path fill-rule="evenodd" clip-rule="evenodd" d="M-1 551.486C-0.143998 551.24 0.760524 551.108 1.69591 551.108C7.06292 551.108 11.4137 555.458 11.4137 560.825C11.4137 566.192 7.06292 570.543 1.69591 570.543C0.760524 570.543 -0.143999 570.411 -1 570.164L-1 551.486Z" fill="#2762FF"/>
        <path fill-rule="evenodd" clip-rule="evenodd" d="M256.709 45.2341C240.787 61.1562 240.762 86.9459 256.653 102.837C272.544 118.728 298.334 118.703 314.256 102.781C323.122 93.9155 327.056 81.9905 326.061 70.4184L334.606 69.6625C335.811 83.6709 331.046 98.1066 320.314 108.839C301.04 128.113 269.82 128.143 250.584 108.906C231.347 89.6698 231.377 58.4507 250.651 39.1766L256.709 45.2341Z" fill="#FAB961"/>
        <g clip-path="url(#clip1)">
            <path d="M72.5297 423.583C72.4207 422.084 71.947 418.688 69.3214 415.703C68.5125 414.786 67.5729 413.986 66.5312 413.327" stroke="#D4D5D8" stroke-width="0.195697" stroke-miterlimit="10"/>
            <path d="M81.594 423.583C81.7526 421.97 82.3244 418.693 84.8421 415.703C85.6461 414.75 86.5778 413.906 87.6122 413.193" stroke="#D4D5D8" stroke-width="0.195697" stroke-miterlimit="10"/>
            <path d="M78.9162 423.717C78.597 420.847 78.935 417.943 79.906 415.215C80.1987 414.408 80.5482 413.62 80.9521 412.859" stroke="#D4D5D8" stroke-width="0.195697" stroke-miterlimit="10"/>
            <path d="M75.5519 423.65C75.8328 420.84 75.4991 418.004 74.5728 415.328C74.2836 414.505 73.9373 413.703 73.5364 412.926" stroke="#D4D5D8" stroke-width="0.195697" stroke-miterlimit="10"/>
            <path d="M85.8518 423.517C86.0421 422.395 86.7558 419.105 89.7267 416.476C91.1091 415.259 92.7583 414.365 94.5489 413.861" stroke="#D4D5D8" stroke-width="0.195697" stroke-miterlimit="10"/>
            <path d="M69.2336 423.45C68.9625 422.206 68.1228 419.2 65.3688 416.674C64.0803 415.497 62.5604 414.585 60.9004 413.994" stroke="#D4D5D8" stroke-width="0.195697" stroke-miterlimit="10"/>
            <path d="M65.2543 422.843C62.7519 420.803 59.7989 419.353 56.6256 418.606C53.4522 417.859 50.1444 417.836 46.9602 418.538" stroke="#D4D5D8" stroke-width="0.195697" stroke-miterlimit="10"/>
            <path d="M65.2543 422.83C61.0136 422.286 56.7043 423.051 52.9346 425.017" stroke="#D4D5D8" stroke-width="0.195697" stroke-miterlimit="10"/>
            <path d="M90.7319 422.829C92.7058 422.459 94.7362 422.48 96.7017 422.89C98.6672 423.3 100.527 424.092 102.171 425.218" stroke="#D4D5D8" stroke-width="0.195697" stroke-miterlimit="10"/>
            <path d="M77.964 427.896C95.5805 427.896 109.861 424.529 109.861 420.377C109.861 416.225 95.5805 412.859 77.964 412.859C60.3476 412.859 46.0667 416.225 46.0667 420.377C46.0667 424.529 60.3476 427.896 77.964 427.896Z" stroke="#D4D5D8" stroke-width="0.26093" stroke-miterlimit="10"/>
            <path d="M90.7319 422.843C93.2343 420.803 96.1873 419.353 99.3606 418.606C102.534 417.859 105.842 417.836 109.026 418.538" stroke="#D4D5D8" stroke-width="0.195697" stroke-miterlimit="10"/>
            <path d="M69.2501 423.426C67.2412 423.9 65.2929 424.591 63.4412 425.485C62.5926 425.895 61.8147 426.324 61.1064 426.755" stroke="#D4D5D8" stroke-width="0.195697" stroke-miterlimit="10"/>
            <path d="M85.853 423.496C87.8619 423.97 89.8102 424.661 91.6619 425.555C92.5105 425.965 93.2884 426.394 93.9968 426.824" stroke="#D4D5D8" stroke-width="0.195697" stroke-miterlimit="10"/>
            <path d="M72.5513 423.592C72.2005 424.487 71.9323 425.411 71.75 426.353C71.6548 426.846 71.5886 427.315 71.5439 427.756" stroke="#D4D5D8" stroke-width="0.195697" stroke-miterlimit="10"/>
            <path d="M81.6218 423.592C81.9726 424.488 82.2408 425.412 82.4232 426.354C82.5183 426.846 82.5846 427.315 82.6291 427.757" stroke="#D4D5D8" stroke-width="0.195697" stroke-miterlimit="10"/>
            <path d="M78.9478 423.696C78.9535 424.223 78.9577 424.753 78.9601 425.285C78.9646 426.182 78.9646 427.073 78.9601 427.957" stroke="#D4D5D8" stroke-width="0.195697" stroke-miterlimit="10"/>
            <path d="M75.572 423.66C75.5776 424.184 75.5817 424.711 75.5844 425.24C75.5888 426.131 75.5888 427.016 75.5844 427.895" stroke="#D4D5D8" stroke-width="0.195697" stroke-miterlimit="10"/>
            <path d="M77.9286 423.761C88.3322 423.761 96.7659 422.304 96.7659 420.507C96.7659 418.71 88.3322 417.253 77.9286 417.253C67.5251 417.253 59.0913 418.71 59.0913 420.507C59.0913 422.304 67.5251 423.761 77.9286 423.761Z" stroke="black" stroke-width="0.26093" stroke-miterlimit="10"/>
        </g>
        <g clip-path="url(#clip2)">
            <path d="M168.015 415.812C202.192 415.812 229.899 388.138 229.899 354C229.899 319.862 202.192 292.188 168.015 292.188C133.837 292.188 106.131 319.862 106.131 354C106.131 388.138 133.837 415.812 168.015 415.812Z" stroke="#D4D5D8" stroke-width="0.58216" stroke-miterlimit="10"/>
            <path d="M225.761 397.776C252.978 397.776 275.042 375.737 275.042 348.551C275.042 321.366 252.978 299.327 225.761 299.327C198.543 299.327 176.479 321.366 176.479 348.551C176.479 375.737 198.543 397.776 225.761 397.776Z" stroke="#D4D5D8" stroke-width="0.58216" stroke-miterlimit="10"/>
            <path d="M203.377 375.148C218.025 375.148 229.899 363.287 229.899 348.657C229.899 334.026 218.025 322.166 203.377 322.166C188.73 322.166 176.855 334.026 176.855 348.657C176.855 363.287 188.73 375.148 203.377 375.148Z" stroke="black" stroke-width="0.58216" stroke-miterlimit="10"/>
            <path d="M263.034 317.808C264.511 317.808 265.708 316.612 265.708 315.137C265.708 313.662 264.511 312.466 263.034 312.466C261.557 312.466 260.36 313.662 260.36 315.137C260.36 316.612 261.557 317.808 263.034 317.808Z" fill="black"/>
            <path d="M105.793 354.536C108.992 354.536 111.586 351.945 111.586 348.75C111.586 345.555 108.992 342.964 105.793 342.964C102.594 342.964 100 345.555 100 348.75C100 351.945 102.594 354.536 105.793 354.536Z" fill="#2762FF"/>
        </g>
        <g clip-path="url(#clip3)">
            <path d="M311.193 425.23C311.048 423.176 310.42 418.526 306.937 414.44C305.864 413.184 304.617 412.088 303.236 411.186" stroke="#D4D5D8" stroke-width="0.195697" stroke-miterlimit="10"/>
            <path d="M323.217 425.23C323.427 423.021 324.186 418.533 327.526 414.44C328.592 413.135 329.828 411.979 331.2 411.003" stroke="#D4D5D8" stroke-width="0.195697" stroke-miterlimit="10"/>
            <path d="M319.664 425.413C319.241 421.483 319.689 417.507 320.977 413.772C321.366 412.666 321.829 411.588 322.365 410.546" stroke="#D4D5D8" stroke-width="0.195697" stroke-miterlimit="10"/>
            <path d="M315.201 425.321C315.573 421.473 315.13 417.59 313.902 413.926C313.518 412.8 313.059 411.701 312.527 410.637" stroke="#D4D5D8" stroke-width="0.195697" stroke-miterlimit="10"/>
            <path d="M328.865 425.138C329.117 423.602 330.064 419.097 334.005 415.497C335.839 413.832 338.026 412.608 340.402 411.918" stroke="#D4D5D8" stroke-width="0.195697" stroke-miterlimit="10"/>
            <path d="M306.82 425.047C306.461 423.344 305.347 419.228 301.693 415.769C299.984 414.157 297.968 412.909 295.766 412.1" stroke="#D4D5D8" stroke-width="0.195697" stroke-miterlimit="10"/>
            <path d="M301.542 424.216C298.222 421.422 294.305 419.437 290.095 418.414C285.886 417.392 281.498 417.36 277.274 418.32" stroke="#D4D5D8" stroke-width="0.195697" stroke-miterlimit="10"/>
            <path d="M318.354 429.268C337.559 429.268 353.128 425.48 353.128 420.807C353.128 416.135 337.559 412.347 318.354 412.347C299.149 412.347 283.58 416.135 283.58 420.807C283.58 425.48 299.149 429.268 318.354 429.268Z" stroke="#D4D5D8" stroke-width="0.26093" stroke-miterlimit="10"/>
            <path d="M301.541 424.198C295.916 423.453 290.2 424.501 285.2 427.193" stroke="#D4D5D8" stroke-width="0.195697" stroke-miterlimit="10"/>
            <path d="M335.338 424.198C337.957 423.691 340.65 423.719 343.257 424.281C345.865 424.843 348.332 425.927 350.513 427.468" stroke="#D4D5D8" stroke-width="0.195697" stroke-miterlimit="10"/>
            <path d="M318.401 431.134C341.77 431.134 360.714 426.525 360.714 420.84C360.714 415.154 341.77 410.545 318.401 410.545C295.032 410.545 276.088 415.154 276.088 420.84C276.088 426.525 295.032 431.134 318.401 431.134Z" stroke="#D4D5D8" stroke-width="0.26093" stroke-miterlimit="10"/>
            <path d="M335.338 424.216C338.658 421.422 342.575 419.437 346.785 418.414C350.994 417.392 355.382 417.36 359.606 418.32" stroke="#D4D5D8" stroke-width="0.195697" stroke-miterlimit="10"/>
            <path d="M306.842 425.014C304.177 425.663 301.592 426.609 299.136 427.833C298.01 428.394 296.979 428.982 296.039 429.571" stroke="#D4D5D8" stroke-width="0.195697" stroke-miterlimit="10"/>
            <path d="M328.867 425.11C331.532 425.759 334.116 426.704 336.572 427.929C337.698 428.49 338.73 429.078 339.67 429.667" stroke="#D4D5D8" stroke-width="0.195697" stroke-miterlimit="10"/>
            <path d="M311.222 425.241C310.756 426.467 310.4 427.733 310.159 429.022C310.032 429.696 309.944 430.339 309.885 430.943" stroke="#D4D5D8" stroke-width="0.195697" stroke-miterlimit="10"/>
            <path d="M323.254 425.242C323.719 426.468 324.075 427.733 324.317 429.023C324.443 429.697 324.531 430.34 324.59 430.944" stroke="#D4D5D8" stroke-width="0.195697" stroke-miterlimit="10"/>
            <path d="M319.707 425.383C319.714 426.105 319.72 426.831 319.723 427.559C319.729 428.787 319.729 430.007 319.723 431.218" stroke="#D4D5D8" stroke-width="0.195697" stroke-miterlimit="10"/>
            <path d="M315.228 425.335C315.236 426.053 315.241 426.773 315.245 427.497C315.25 428.718 315.25 429.93 315.245 431.134" stroke="#D4D5D8" stroke-width="0.195697" stroke-miterlimit="10"/>
            <path opacity="0.5" d="M318.401 430.225C339.707 430.225 356.979 426.023 356.979 420.84C356.979 415.656 339.707 411.454 318.401 411.454C297.095 411.454 279.823 415.656 279.823 420.84C279.823 426.023 297.095 430.225 318.401 430.225Z" stroke="#D4D5D8" stroke-width="0.26093" stroke-miterlimit="10"/>
            <path d="M317.478 427.999C333.804 427.999 347.038 424.779 347.038 420.808C347.038 416.836 333.804 413.616 317.478 413.616C301.153 413.616 287.918 416.836 287.918 420.808C287.918 424.779 301.153 427.999 317.478 427.999Z" stroke="#D4D5D8" stroke-width="0.195697" stroke-miterlimit="10"/>
            <path d="M318.354 425.472C332.155 425.472 343.342 423.478 343.342 421.017C343.342 418.556 332.155 416.561 318.354 416.561C304.554 416.561 293.366 418.556 293.366 421.017C293.366 423.478 304.554 425.472 318.354 425.472Z" stroke="black" stroke-width="0.26093" stroke-miterlimit="10"/>
            <path d="M341.292 416.808C342.211 416.808 342.955 416.06 342.955 415.138C342.955 414.215 342.211 413.468 341.292 413.468C340.373 413.468 339.628 414.215 339.628 415.138C339.628 416.06 340.373 416.808 341.292 416.808Z" fill="#2762FF"/>
            <path d="M350.896 415.268C352.895 415.268 354.516 413.641 354.516 411.634C354.516 409.627 352.895 408 350.896 408C348.898 408 347.277 409.627 347.277 411.634C347.277 413.641 348.898 415.268 350.896 415.268Z" fill="#FAB961"/>
        </g>
        <path fill-rule="evenodd" clip-rule="evenodd" d="M-5.62304e-08 124.714C2.90683 125.551 5.97843 126 9.15484 126C27.3802 126 42.1548 111.225 42.1548 93C42.1548 74.7746 27.3802 60 9.15484 60C5.97842 60 2.90683 60.4488 -2.82872e-06 61.2864L-5.62304e-08 124.714Z" fill="#2762FF"/>
    </g>
    <defs>
        <clipPath id="clip0">
            <rect width="375" height="616" fill="white"/>
        </clipPath>
        <clipPath id="clip1">
            <rect width="63.9278" height="16.9604" fill="white" transform="translate(46 411)"/>
        </clipPath>
        <clipPath id="clip2">
            <rect width="175.23" height="124" fill="white" transform="translate(100 292)"/>
        </clipPath>
        <clipPath id="clip3">
            <rect width="84.8022" height="23.2228" fill="white" transform="translate(276 408)"/>
        </clipPath>
    </defs>
</svg>