<svg width="135" height="38" viewBox="0 0 135 38" fill="none" xmlns="http://www.w3.org/2000/svg">
<path fill-rule="evenodd" clip-rule="evenodd" d="M56.9147 0.840517C58.3223 0.866583 59.5474 1.75284 60.0426 3.03008L60.1208 3.23861L73.0236 34.518C73.1279 34.7526 73.18 34.9872 73.18 35.2218V35.4043C73.2061 36.0299 72.9975 36.6555 72.5544 37.1507C72.1113 37.6199 71.4857 37.8545 70.834 37.8284C70.3648 37.8284 69.8957 37.672 69.5047 37.3853C69.1658 37.1247 68.9051 36.8119 68.6966 36.4469L68.5923 36.2123L56.3152 5.61063L51.7796 16.8452H53.9692C55.1683 16.8452 56.1588 17.7835 56.263 18.9826V19.1651V19.2172C56.263 20.4162 55.3247 21.4067 54.1517 21.5371H53.9692H49.9029L43.9859 36.2123C43.8034 36.6815 43.4645 37.0725 43.0735 37.3853C42.6826 37.672 42.2134 37.8284 41.7442 37.8284C41.0925 37.8545 40.4669 37.6199 40.0238 37.1507C39.6067 36.6815 39.3721 36.0559 39.3982 35.4043C39.3982 35.1697 39.4243 34.9612 39.5025 34.7266L39.5807 34.518L44.9242 21.511H42.6304C41.4314 21.511 40.4409 20.5726 40.3366 19.3736V19.1651C40.3366 17.966 41.275 16.9755 42.4479 16.8452H42.6304H46.9313L52.5356 3.21254C52.9526 1.88317 54.1517 0.944784 55.5332 0.814453H55.7678H56.9147V0.840517ZM18.3628 0.840517C19.7704 0.866583 21.0215 1.72677 21.5168 3.03008L21.595 3.23861L34.4978 34.518C34.576 34.7266 34.6281 34.9612 34.6542 35.1697V35.6128C34.6281 36.1863 34.4196 36.7076 34.0286 37.1507C33.5854 37.6199 32.9599 37.8545 32.3082 37.8284C31.839 37.8284 31.3698 37.672 30.9788 37.3853C30.64 37.1247 30.3793 36.8119 30.1708 36.4469L30.0665 36.2123L17.7893 5.61063L13.306 16.8452H15.4955C16.7206 16.8452 17.7111 17.7835 17.8154 18.9826V19.1651V19.2172C17.8154 20.4423 16.877 21.4328 15.678 21.5371H15.4955H11.4031L5.4861 36.2123C5.30364 36.6815 4.96478 37.0725 4.57378 37.3853C4.18279 37.672 3.7136 37.8284 3.24441 37.8284C2.59275 37.8545 1.96717 37.6199 1.52404 37.1507C1.10698 36.6815 0.872383 36.0559 0.898449 35.4043C0.898449 35.1697 0.924518 34.9612 1.00272 34.7266L1.08092 34.518L6.42448 21.511H4.13066C2.93161 21.511 1.9411 20.5726 1.83683 19.3736V19.1651C1.83683 17.966 2.77522 16.9755 3.9482 16.8452H4.13066H8.37945L13.9837 3.21254C14.4007 1.88317 15.5998 0.944784 16.9813 0.814453H17.2159H18.3628V0.840517ZM72.2937 0.840517C72.7629 0.840517 73.2321 0.996913 73.6231 1.28364C74.0141 1.59644 74.353 1.98743 74.5354 2.45662L86.8126 33.0583L99.0898 2.45662C99.2983 1.98743 99.6111 1.59644 100.002 1.28364C100.393 0.996913 100.862 0.840517 101.331 0.840517C101.957 0.814451 102.583 1.04905 103.026 1.51824C103.469 1.98743 103.677 2.61302 103.677 3.26467C103.677 3.57747 103.625 3.86419 103.521 4.15092L90.6183 35.4304C90.1751 36.8379 88.8718 37.8024 87.3861 37.8284H86.2391C84.7534 37.8024 83.4501 36.8379 83.0069 35.4304L70.1042 4.15092C69.9999 3.86419 69.9478 3.57747 69.9478 3.26467C69.9217 2.61302 70.1563 2.0135 70.5734 1.51824C71.0426 1.04905 71.6681 0.788385 72.2937 0.840517ZM131.803 1.07512C132.402 1.04905 132.976 1.30971 133.393 1.75283C133.836 2.16989 134.071 2.74335 134.071 3.34287C134.097 3.9424 133.836 4.48979 133.393 4.90684C132.976 5.3239 132.402 5.5585 131.803 5.5585H113.27V17.1058H129.926C130.526 17.0798 131.099 17.3404 131.516 17.7835C131.933 18.2006 132.194 18.7741 132.194 19.3736C132.22 19.9731 131.959 20.5205 131.516 20.9375C131.099 21.3546 130.526 21.5892 129.926 21.5892H113.27V33.1887H131.803C132.402 33.1626 132.976 33.4233 133.393 33.8664C133.836 34.2834 134.071 34.8569 134.071 35.4564C134.097 36.0559 133.836 36.6033 133.393 37.0204C132.976 37.4375 132.402 37.672 131.803 37.646H110.846C110.22 37.6981 109.594 37.4375 109.177 36.9683C108.734 36.5251 108.5 35.9256 108.5 35.3V3.49927C108.474 2.84761 108.734 2.24809 109.177 1.7789C109.621 1.30971 110.22 1.07511 110.846 1.10118H131.803V1.07512Z" fill="url(#paint0_linear_2266_6260)"/>
<defs>
<linearGradient id="paint0_linear_2266_6260" x1="129.798" y1="19.3358" x2="-1.92579" y2="19.3358" gradientUnits="userSpaceOnUse">
<stop stop-color="#AD579D"/>
<stop offset="1" stop-color="#36B3C2"/>
</linearGradient>
</defs>
</svg>
