<svg width="170" height="24" viewBox="0 0 170 24" fill="none" xmlns="http://www.w3.org/2000/svg">
<path fill-rule="evenodd" clip-rule="evenodd" d="M108.756 1.55653C108.756 2.71362 108.8 2.7412 110.443 2.62467C111.952 2.51786 112.142 2.39318 112.255 1.43729C112.376 0.409924 112.311 0.369141 110.569 0.369141C108.812 0.369141 108.756 0.405651 108.756 1.55653ZM114.06 0.951765C113.538 2.28132 114.206 2.69964 116.853 2.69964C119.065 2.69964 119.452 2.59321 119.668 1.9263C120.079 0.658121 119.557 0.369141 116.856 0.369141C114.939 0.369141 114.229 0.516739 114.06 0.951765ZM121.528 1.43729L121.654 2.50543L137.375 2.60681C150.946 2.69459 153.164 2.62894 153.59 2.12633C153.862 1.80628 153.98 1.27998 153.853 0.956814C153.653 0.445659 151.527 0.369141 137.513 0.369141H121.403L121.528 1.43729ZM128.751 5.97865C128.259 7.23362 128.902 7.79993 130.678 7.67447C132.184 7.56804 132.368 7.4488 132.368 6.5838C132.368 5.71879 132.184 5.59955 130.678 5.49313C129.434 5.40496 128.925 5.53314 128.751 5.97865ZM134.3 5.99419C134.173 6.31851 134.173 6.84909 134.3 7.17342C134.499 7.68224 135.851 7.74866 144.164 7.65894L153.796 7.55484V6.5838V5.61276L144.164 5.50867C135.851 5.41894 134.499 5.48536 134.3 5.99419ZM0.919373 10.7022C0.553499 10.8637 0.42334 12.4943 0.42334 16.909V22.8973H4.40946C8.11303 22.8973 8.46502 22.8297 9.36978 21.9437C10.4975 20.8402 10.6706 18.8656 9.75229 17.5822C9.24756 16.8769 9.23843 16.5743 9.69086 15.5209C10.3662 13.949 10.1194 12.7036 8.91263 11.594C8.10986 10.856 7.43962 10.6982 4.68684 10.6C2.88763 10.5359 1.19239 10.5821 0.919373 10.7022ZM18.3797 10.7251C18.0131 10.8699 17.8837 12.4823 17.8837 16.909V22.8973H21.852H25.8202V21.9263C25.8202 20.9828 25.7408 20.9552 23.0424 20.9552H20.2647V15.9474C20.2647 11.7392 20.1643 10.9018 19.6369 10.7037C19.2917 10.574 18.9793 10.482 18.9424 10.4987C18.9059 10.5154 18.6528 10.6175 18.3797 10.7251ZM35.427 11.1158C30.5742 13.4568 30.8567 21.0201 35.8659 22.8724C39.5186 24.2234 43.8944 22.1278 44.8845 18.554C46.3238 13.3593 40.4127 8.71038 35.427 11.1158ZM55.2063 11.3314C53.217 12.3747 51.6139 14.8396 51.6139 16.8555C51.6139 21.8019 58.1274 25.0484 62.2655 22.1643C64.644 20.5062 63.3448 19.0877 60.7536 20.5132C58.9345 21.5138 58.3083 21.5401 56.4861 20.6942C53.8484 19.4687 53.3055 15.9097 55.4377 13.8224C56.9206 12.3712 58.7985 12.1281 60.5802 13.1574C62.0437 14.0025 63.5187 13.9432 63.5187 13.0397C63.5187 12.0783 61.0214 10.7166 58.971 10.5596C57.4162 10.4403 56.5782 10.6125 55.2063 11.3314ZM70.9262 10.7271C70.7806 10.8692 70.6615 13.6658 70.6615 16.9417V22.8973H71.6536C72.5762 22.8973 72.6456 22.7648 72.6456 21.0026C72.6456 19.8183 72.8623 18.9323 73.223 18.6391C73.8056 18.166 74.6143 18.8558 77.0901 21.9368C77.6429 22.6246 78.248 22.8973 79.2222 22.8973C79.9703 22.8973 80.5822 22.7256 80.5822 22.5163C80.5822 22.3065 79.4016 20.9102 77.9584 19.4128L75.3346 16.6904L77.8191 13.9474C79.5913 11.9909 80.181 11.0852 79.8766 10.7872C79.0468 9.97504 77.5782 10.856 75.225 13.5769L72.8441 16.3295L72.7246 13.7007C72.6016 10.9884 71.879 9.79406 70.9262 10.7271ZM86.7342 11.2413C86.3481 12.4314 86.821 12.7985 88.7405 12.7985H90.5028V17.8479V22.8973H91.6933H92.8838V17.8692V12.8411L94.7651 12.7227C96.2362 12.6299 96.6774 12.445 96.7882 11.8741C97.0147 10.7084 96.1397 10.4803 91.4223 10.4738C87.3374 10.4683 86.9651 10.5293 86.7342 11.2413ZM106.098 11.2758C101.765 13.3757 101.743 20.5936 106.065 22.5135C109.355 23.9751 112.833 23.1979 114.602 20.6065C115.906 18.6954 115.874 15.0668 114.535 13.1383C112.716 10.5177 109.245 9.75134 106.098 11.2758ZM121.965 10.7795C121.605 11.004 121.93 12.537 123.254 16.8578C124.229 20.0362 125.027 22.7062 125.027 22.7913C125.027 22.8767 125.595 22.8918 126.29 22.8247C127.525 22.7058 127.577 22.6223 128.564 19.1102C129.12 17.134 129.693 15.5173 129.837 15.5173C129.981 15.5173 130.219 15.9978 130.363 16.5855C130.509 17.1732 130.983 18.8333 131.415 20.2755C132.147 22.7109 132.283 22.8973 133.323 22.8973C134.559 22.8973 134.698 22.6355 136.706 16.5094C138.456 11.1757 138.433 10.0721 136.589 10.6451C136.047 10.8137 135.575 11.9214 134.756 14.9425C134.15 17.1814 133.538 19.0131 133.397 19.0131C133.255 19.0131 132.611 17.1802 131.963 14.9402C130.252 9.01801 129.343 9.0382 127.613 15.0366C127.014 17.1169 126.478 18.8686 126.423 18.9296C126.367 18.9906 125.815 17.2428 125.195 15.0454C123.925 10.546 123.419 9.87563 121.965 10.7795ZM145.261 11.2529C145.024 11.6845 144.939 12.2088 145.071 12.4182C145.204 12.6272 147.182 12.7985 149.467 12.7985C152.811 12.7985 153.668 12.6835 153.853 12.2107C154.366 10.903 153.253 10.4679 149.397 10.4679C146.083 10.4679 145.645 10.5511 145.261 11.2529ZM160.382 11.0063C160.072 11.3714 159.961 13.3411 160.035 17.1239L160.145 22.703L161.237 22.8258C162.312 22.947 162.328 22.9164 162.328 20.7866C162.328 18.667 162.351 18.6247 163.462 18.6247C164.398 18.6247 164.852 19.0007 166.046 20.761C167.265 22.5578 167.684 22.8973 168.681 22.8973C170.21 22.8973 170.176 22.4382 168.48 20.1275C167.716 19.0873 167.244 18.2363 167.43 18.2363C167.616 18.2363 168.241 17.8075 168.818 17.2839C169.645 16.5335 169.868 15.9707 169.868 14.6326C169.868 12.7654 168.992 11.634 166.965 10.8824C165.314 10.2699 160.937 10.3522 160.382 11.0063ZM40.3314 12.9786C42.9841 14.0636 43.5941 17.8238 41.4563 19.9158C40.0369 21.3051 38.4444 21.5626 36.6396 20.695C33.6548 19.2602 33.4317 14.8567 36.2583 13.1698C37.7786 12.2624 38.4976 12.2287 40.3314 12.9786ZM110.915 12.8582C112.367 13.5061 113.188 14.9569 113.188 16.8769C113.188 18.9665 112.26 20.4006 110.55 20.9529C107.75 21.8575 105.185 19.9197 105.185 16.8994C105.185 13.6596 108.101 11.6033 110.915 12.8582ZM7.55231 13.5497C8.08366 14.5215 8.07732 14.5732 7.33962 15.2956C6.94121 15.6852 6.00906 15.9058 4.76025 15.9058H2.8043V14.3521V12.7985H4.97295C6.71065 12.7985 7.22296 12.9476 7.55231 13.5497ZM167.011 13.2645C167.768 14.0061 167.565 15.4203 166.605 16.0778C166.119 16.4103 164.959 16.6826 164.026 16.6826H162.328V14.7406V12.7985H164.432C165.588 12.7985 166.749 13.0082 167.011 13.2645ZM143.463 16.7312C143.054 17.9951 143.851 18.2239 148.689 18.2305C153.282 18.2367 154.39 17.8638 153.853 16.4935C153.665 16.0122 152.726 15.9058 148.677 15.9058C143.982 15.9058 143.717 15.9478 143.463 16.7312ZM7.48684 18.3139C8.167 18.9798 8.07493 20.4417 7.33526 20.7194C6.99001 20.8492 5.8293 20.9552 4.75589 20.9552H2.8043V19.4015V17.8479H4.90748C6.06422 17.8479 7.22494 18.0576 7.48684 18.3139ZM141.938 21.5596C141.43 22.8553 141.717 22.9171 147.745 22.8103C153.496 22.7085 153.796 22.6647 153.796 21.9263C153.796 21.1898 153.496 21.1439 147.989 21.0423C142.956 20.9493 142.15 21.0181 141.938 21.5596Z" fill="black"/>
</svg>
