<svg width="16" height="16" viewBox="0 0 16 16" fill="none" xmlns="http://www.w3.org/2000/svg">
<path fill-rule="evenodd" clip-rule="evenodd" d="M0 8C0 12.4183 3.58172 16 8 16C12.4183 16 16 12.4183 16 8C16 3.58172 12.4183 0 8 0C3.58172 0 0 3.58172 0 8ZM14 8C14 11.3137 11.3137 14 8 14C4.68629 14 2 11.3137 2 8C2 4.68629 4.68629 2 8 2C11.3137 2 14 4.68629 14 8ZM9.00361 10.9983H7.00295V6.99835H9.00361V10.9983ZM9.00066 4.99835C9.00066 5.55063 8.55279 5.99835 8.00033 5.99835C7.44786 5.99835 7 5.55063 7 4.99835C7 4.44606 7.44786 3.99835 8.00033 3.99835C8.55279 3.99835 9.00066 4.44606 9.00066 4.99835Z" fill="black"/>
</svg>
