<svg width="500" height="500" viewBox="0 0 500 500" fill="none" xmlns="http://www.w3.org/2000/svg">
<g clip-path="url(#clip0_203_2)">
<rect width="500" height="500" fill="white"/>
<path d="M236 293C243.091 293 250.113 291.603 256.665 288.889C263.216 286.176 269.169 282.198 274.184 277.184C279.198 272.169 283.176 266.216 285.889 259.665C288.603 253.113 290 246.091 290 239C290 231.909 288.603 224.887 285.889 218.335C283.176 211.784 279.198 205.831 274.184 200.816C269.169 195.802 263.216 191.824 256.665 189.111C250.113 186.397 243.091 185 236 185L236 213.759C239.315 213.759 242.597 214.412 245.659 215.68C248.722 216.949 251.504 218.808 253.848 221.152C256.192 223.496 258.051 226.278 259.32 229.341C260.588 232.403 261.241 235.685 261.241 239C261.241 242.315 260.588 245.597 259.32 248.659C258.051 251.722 256.192 254.504 253.848 256.848C251.504 259.192 248.722 261.051 245.659 262.32C242.597 263.588 239.315 264.241 236 264.241L236 293Z" fill="url(#paint0_linear_203_2)"/>
<path d="M236 185C228.909 185 221.887 186.397 215.335 189.111C208.784 191.824 202.831 195.802 197.816 200.816C192.802 205.831 188.824 211.784 186.111 218.335C183.397 224.887 182 231.909 182 239C182 246.091 183.397 253.113 186.111 259.665C188.824 266.216 192.802 272.169 197.816 277.184C202.831 282.198 208.784 286.176 215.335 288.889C221.887 291.603 228.909 293 236 293L236 264.241C232.685 264.241 229.403 263.588 226.341 262.32C223.278 261.051 220.496 259.192 218.152 256.848C215.808 254.504 213.949 251.722 212.68 248.659C211.412 245.597 210.759 242.315 210.759 239C210.759 235.685 211.412 232.403 212.68 229.341C213.949 226.278 215.808 223.496 218.152 221.152C220.496 218.808 223.278 216.949 226.341 215.68C229.403 214.412 232.685 213.759 236 213.759L236 185Z" fill="url(#paint1_linear_203_2)"/>
<path d="M136.159 406L200.159 295.5C120.659 288 97.6592 182 162.659 118.5L98.6592 8C-41.8408 111.5 -34.8408 341 136.159 406Z" fill="url(#paint2_linear_203_2)"/>
<path d="M136 73.9173L199.696 184.593C245.941 119.494 349.24 152.575 371.732 240.617L499.428 240.441C480.045 67.0148 277.792 -41.673 136 73.9173Z" fill="url(#paint3_linear_203_2)"/>
<path d="M424.678 239.426L296.982 239.25C330.237 311.849 249.938 384.768 162.446 360.226L98.75 470.902C258.634 540.828 453.886 420.016 424.678 239.426Z" fill="url(#paint4_linear_203_2)"/>
</g>
<defs>
<linearGradient id="paint0_linear_203_2" x1="235.583" y1="177.787" x2="277.831" y2="287.014" gradientUnits="userSpaceOnUse">
<stop stop-color="#1051FF" stop-opacity="0"/>
<stop offset="1" stop-color="#4D7EFE"/>
</linearGradient>
<linearGradient id="paint1_linear_203_2" x1="236.417" y1="300.213" x2="194.169" y2="190.986" gradientUnits="userSpaceOnUse">
<stop stop-color="#1051FF" stop-opacity="0"/>
<stop offset="1" stop-color="#4D7EFE"/>
</linearGradient>
<linearGradient id="paint2_linear_203_2" x1="132" y1="-11" x2="22" y2="361.5" gradientUnits="userSpaceOnUse">
<stop stop-color="#FFC012" stop-opacity="0"/>
<stop offset="0.762619" stop-color="#FFC012"/>
</linearGradient>
<linearGradient id="paint3_linear_203_2" x1="499.212" y1="278.815" x2="231.618" y2="-2.69746" gradientUnits="userSpaceOnUse">
<stop stop-color="#FFC012" stop-opacity="0"/>
<stop offset="0.762619" stop-color="#FFC012"/>
</linearGradient>
<linearGradient id="paint4_linear_203_2" x1="65.6251" y1="451.528" x2="443.22" y2="360.54" gradientUnits="userSpaceOnUse">
<stop stop-color="#FFC012" stop-opacity="0"/>
<stop offset="0.762619" stop-color="#FFC012"/>
</linearGradient>
<clipPath id="clip0_203_2">
<rect width="500" height="500" fill="white"/>
</clipPath>
</defs>
</svg>
