<svg width="223" height="61" viewBox="0 0 223 61" fill="none" xmlns="http://www.w3.org/2000/svg">
<g clip-path="url(#clip0)">
<path d="M81.0926 40.6698L101.361 61H141.907V20.3302L121.639 0" fill="url(#paint0_linear)"/>
<path d="M121.639 0H81.0926V40.6698H121.639V0Z" fill="#FCBA59"/>
<path d="M162.176 40.6698L182.444 61H222.991V20.3302L202.722 0" fill="url(#paint1_linear)"/>
<path d="M202.722 0H162.176V40.6698H202.722V0Z" fill="#FCBA59"/>
<path d="M0 40.6698L20.2685 61H60.8148V20.3302L40.5463 0" fill="url(#paint2_linear)"/>
<path d="M40.5463 0H0V40.6698H40.5463V0Z" fill="#FCBA59"/>
<path d="M81.0926 29.7557H50.6852V31.2444H81.0926V29.7557Z" fill="#FCBA59"/>
<path d="M162.176 29.7557H131.768V31.2444H162.176V29.7557Z" fill="#FCBA59"/>
</g>
<defs>
<linearGradient id="paint0_linear" x1="111.5" y1="61" x2="111.5" y2="7.27177e-06" gradientUnits="userSpaceOnUse">
<stop stop-color="#FCBA59" stop-opacity="0"/>
<stop offset="1" stop-color="#FCBA59"/>
</linearGradient>
<linearGradient id="paint1_linear" x1="192.583" y1="61" x2="192.583" y2="7.27177e-06" gradientUnits="userSpaceOnUse">
<stop stop-color="#FCBA59" stop-opacity="0"/>
<stop offset="1" stop-color="#FCBA59"/>
</linearGradient>
<linearGradient id="paint2_linear" x1="30.4074" y1="61" x2="30.4074" y2="7.27177e-06" gradientUnits="userSpaceOnUse">
<stop stop-color="#FCBA59" stop-opacity="0"/>
<stop offset="1" stop-color="#FCBA59"/>
</linearGradient>
<clipPath id="clip0">
<rect width="223" height="61" fill="white"/>
</clipPath>
</defs>
</svg>
