<svg width="64" height="64" viewBox="0 0 64 64" fill="none" xmlns="http://www.w3.org/2000/svg">
<path fill-rule="evenodd" clip-rule="evenodd" d="M32 64C49.6731 64 64 49.6731 64 32C64 14.3269 49.6731 0 32 0C14.3269 0 0 14.3269 0 32C0 49.6731 14.3269 64 32 64Z" fill="url(#paint0_linear)"/>
<path fill-rule="evenodd" clip-rule="evenodd" d="M34 46.0001H30V22C30 16.4875 34.4875 12 40 12C45.5125 12 50 16.4875 50 22H46C46 18.6875 43.3125 16 40 16C36.6875 16 34 18.6875 34 22V46.0001Z" fill="white"/>
<path fill-rule="evenodd" clip-rule="evenodd" d="M24 22.5C24.2761 22.5 24.5 22.2761 24.5 22C24.5 21.7239 24.2761 21.5 24 21.5C23.7239 21.5 23.5 21.7239 23.5 22C23.5 22.2761 23.7239 22.5 24 22.5Z" fill="black"/>
<path fill-rule="evenodd" clip-rule="evenodd" d="M40 22.5C40.2761 22.5 40.5 22.2761 40.5 22C40.5 21.7239 40.2761 21.5 40 21.5C39.7239 21.5 39.5 21.7239 39.5 22C39.5 22.2761 39.7239 22.5 40 22.5Z" fill="black"/>
<path fill-rule="evenodd" clip-rule="evenodd" d="M34 49.9998C34 51.0998 33.1 51.9998 32 51.9998C30.9 51.9998 30 51.0998 30 49.9998H34Z" fill="black"/>
<path fill-rule="evenodd" clip-rule="evenodd" d="M46 26.9999C46 25.9 46.9 25 48 25C49.1 25 50 25.9 50 26.9999C50 28.0999 49.1 28.9999 48 28.9999C46.9 28.9999 46 28.0999 46 26.9999ZM46.25 27C46.25 27.9625 47.0375 28.75 48 28.75C48.9625 28.75 49.75 27.9625 49.75 27C49.75 26.0375 48.9625 25.25 48 25.25C47.0375 25.25 46.25 26.0375 46.25 27Z" fill="white"/>
<path fill-rule="evenodd" clip-rule="evenodd" d="M48.75 26.25H47.25V27.75H47.75V26.75H48.75V26.25Z" fill="white"/>
<path fill-rule="evenodd" clip-rule="evenodd" d="M46 33.9998C46 32.8998 46.9 31.9998 48 31.9998C49.1 31.9998 50 32.8998 50 33.9998C50 35.0998 49.1 35.9997 48 35.9997C46.9 35.9997 46 35.0998 46 33.9998ZM46.25 34C46.25 34.9625 47.0375 35.75 48 35.75C48.9625 35.75 49.75 34.9625 49.75 34C49.75 33.0375 48.9625 32.25 48 32.25C47.0375 32.25 46.25 33.0375 46.25 34Z" fill="white"/>
<path fill-rule="evenodd" clip-rule="evenodd" d="M48.75 33.25H47.25V34.75H47.75V33.75H48.75V33.25Z" fill="white"/>
<path fill-rule="evenodd" clip-rule="evenodd" d="M46 40.9998C46 39.8998 46.9 38.9998 48 38.9998C49.1 38.9998 50 39.8998 50 40.9998C50 42.0998 49.1 42.9997 48 42.9997C46.9 42.9997 46 42.0998 46 40.9998ZM46.25 41C46.25 41.9625 47.0375 42.75 48 42.75C48.9625 42.75 49.75 41.9625 49.75 41C49.75 40.0375 48.9625 39.25 48 39.25C47.0375 39.25 46.25 40.0375 46.25 41Z" fill="white"/>
<path fill-rule="evenodd" clip-rule="evenodd" d="M48.75 40.25H47.25V41.75H47.75V40.75H48.75V40.25Z" fill="white"/>
<path fill-rule="evenodd" clip-rule="evenodd" d="M28 38C28.55 38 29 38.45 29 39V45C29 45.55 28.55 46 28 46C27.45 46 27 45.55 27 45V39C27 38.45 27.45 38 28 38Z" fill="white"/>
<defs>
<linearGradient id="paint0_linear" x1="1.88567e-08" y1="64" x2="64" y2="64" gradientUnits="userSpaceOnUse">
<stop stop-color="#2762FF" stop-opacity="0.01"/>
<stop offset="1" stop-color="#2762FF"/>
</linearGradient>
</defs>
</svg>
