<svg width="432" height="313" viewBox="0 0 432 313" fill="none" xmlns="http://www.w3.org/2000/svg">
<path d="M0 0H432V313H0V0Z" fill="white"/>
<path d="M32 47.5C31.136 47.5 30.2826 47.4527 29.4422 47.3607L29.3878 47.8578C27.9818 47.7038 26.6113 47.4271 25.2874 47.0387L25.4281 46.5589C23.7737 46.0736 22.1932 45.41 20.7093 44.5905L20.4676 45.0281C19.2418 44.3512 18.0806 43.5702 16.9961 42.6972L17.3096 42.3077C15.9779 41.2357 14.7643 40.0221 13.6923 38.6904L13.3028 39.0039C12.4298 37.9194 11.6488 36.7582 10.9719 35.5324L11.4095 35.2907C10.59 33.8068 9.92644 32.2263 9.44108 30.5719L8.9613 30.7126C8.5729 29.3887 8.2962 28.0182 8.14224 26.6122L8.63927 26.5578C8.54725 25.7174 8.5 24.864 8.5 24C8.5 23.136 8.54725 22.2826 8.63927 21.4422L8.14224 21.3878C8.2962 19.9818 8.5729 18.6113 8.96131 17.2874L9.44109 17.4281C9.92644 15.7737 10.59 14.1932 11.4095 12.7093L10.9719 12.4676C11.6488 11.2418 12.4298 10.0806 13.3028 8.99608L13.6923 9.30961C14.7643 7.97789 15.9779 6.76429 17.3096 5.69229L16.9961 5.3028C18.0805 4.42982 19.2418 3.6488 20.4676 2.97185L20.7093 3.40955C22.1932 2.59004 23.7737 1.92644 25.4281 1.44108L25.2874 0.961305C26.6113 0.572899 27.9818 0.296203 29.3878 0.142241L29.4422 0.63927C30.2826 0.547251 31.136 0.5 32 0.5H34.4932V0H38.4824V0.5H43.4688V0H47.458V0.5H52.4444V0H56.4336V0.5H61.4201V0H65.4092V0.5H70.3957V0H74.3848V0.5H79.3713V0H83.3604V0.5H88.3469V0H92.336V0.5H97.3225V0H101.312V0.5H106.298V0H110.287V0.5H115.274V0H119.263V0.5H124.249V0H128.238V0.5H133.225V0H137.214V0.5H142.201V0H146.19V0.5H151.176V0H155.165V0.5H160.152V0H164.141V0.5H169.127V0H173.117V0.5H178.103V0H182.092V0.5H187.079V0H191.068V0.5H196.054V0H200.043V0.5H205.03V0H209.019V0.5H214.005V0H217.995V0.5H222.981V0H226.97V0.5H231.957V0H235.946V0.5H240.932V0H244.921V0.5H249.908V0H253.897V0.5H258.884V0H262.873V0.5H267.859V0H271.848V0.5H276.835V0H280.824V0.5H285.81V0H289.8V0.5H294.786V0H298.775V0.5H303.762V0H307.751V0.5H312.737V0H316.726V0.5H321.713V0H325.702V0.5H330.688V0H334.678V0.5H339.664V0H343.653V0.5H348.64V0H352.629V0.5H357.615V0H361.604V0.5H366.591V0H370.58V0.5H375.567V0H379.556V0.5H384.542V0H388.531V0.5H393.518V0H397.507V0.5H400C400.864 0.5 401.717 0.547251 402.558 0.639269L402.612 0.14224C404.018 0.296203 405.389 0.572899 406.713 0.961305L406.572 1.44108C408.226 1.92643 409.807 2.59003 411.291 3.40955L411.532 2.97185C412.758 3.64879 413.919 4.42982 415.004 5.3028L414.69 5.69228C416.022 6.76429 417.236 7.97789 418.308 9.30961L418.697 8.99608C419.57 10.0806 420.351 11.2418 421.028 12.4676L420.59 12.7093C421.41 14.1933 422.074 15.7737 422.559 17.4281L423.039 17.2874C423.427 18.6113 423.704 19.9818 423.858 21.3878L423.361 21.4422C423.453 22.2826 423.5 23.136 423.5 24C423.5 24.864 423.453 25.7174 423.361 26.5578L423.858 26.6122C423.704 28.0182 423.427 29.3887 423.039 30.7126L422.559 30.5719C422.074 32.2263 421.41 33.8068 420.59 35.2907L421.028 35.5324C420.351 36.7582 419.57 37.9194 418.697 39.0039L418.308 38.6904C417.236 40.0221 416.022 41.2357 414.69 42.3077L415.004 42.6972C413.919 43.5702 412.758 44.3512 411.532 45.0281L411.291 44.5905C409.807 45.41 408.226 46.0736 406.572 46.5589L406.713 47.0387C405.389 47.4271 404.018 47.7038 402.612 47.8578L402.558 47.3607C401.717 47.4527 400.864 47.5 400 47.5H397.507V48H393.518V47.5H388.531V48H384.542V47.5H379.556V48H375.566V47.5H370.58V48H366.591V47.5H361.604V48H357.615V47.5H352.629V48H348.64V47.5H343.653V48H339.664V47.5H334.678V48H330.688V47.5H325.702V48H321.713V47.5H316.726V48H312.737V47.5H307.751V48H303.762V47.5H298.775V48H294.786V47.5H289.799V48H285.81V47.5H280.824V48H276.835V47.5H271.848V48H267.859V47.5H262.873V48H258.883V47.5H253.897V48H249.908V47.5H244.921V48H240.932V47.5H235.946V48H231.957V47.5H226.97V48H222.981V47.5H217.995V48H214.005V47.5H209.019V48H205.03V47.5H200.043V48H196.054V47.5H191.068V48H187.079V47.5H182.092V48H178.103V47.5H173.116V48H169.127V47.5H164.141V48H160.152V47.5H155.165V48H151.176V47.5H146.19V48H142.2V47.5H137.214V48H133.225V47.5H128.238V48H124.249V47.5H119.263V48H115.274V47.5H110.287V48H106.298V47.5H101.312V48H97.3224V47.5H92.3359V48H88.3468V47.5H83.3603V48H79.3711V47.5H74.3847V48H70.3955V47.5H65.4091V48H61.4199V47.5H56.4335V48H52.4443V47.5H47.4579V48H43.4687V47.5H38.4822V48H34.4931V47.5H32Z" fill="white" stroke="#626060" stroke-linejoin="round" stroke-dasharray="5 4"/>
<path d="M256 112H32C18.8 112 8 101.2 8 88C8 74.8 18.8 64 32 64H256C269.2 64 280 74.8 280 88C280 101.2 269.2 112 256 112Z" fill="#0E30BB"/>
<path d="M112 176H32C18.8 176 8 165.2 8 152C8 138.8 18.8 128 32 128H112C125.2 128 136 138.8 136 152C136 165.2 125.2 176 112 176Z" fill="black"/>
<path d="M256 176H176C162.8 176 152 165.2 152 152C152 138.8 162.8 128 176 128H256C269.2 128 280 138.8 280 152C280 165.2 269.2 176 256 176Z" fill="black"/>
<path d="M400 176H320C306.8 176 296 165.2 296 152C296 138.8 306.8 128 320 128H400C413.2 128 424 138.8 424 152C424 165.2 413.2 176 400 176Z" fill="black"/>
<path d="M400 240H32C18.8 240 8 229.2 8 216C8 202.8 18.8 192 32 192H400C413.2 192 424 202.8 424 216C424 229.2 413.2 240 400 240Z" fill="#FCBA59"/>
<path d="M400 304H32C18.8 304 8 293.2 8 280C8 266.8 18.8 256 32 256H400C413.2 256 424 266.8 424 280C424 293.2 413.2 304 400 304Z" fill="#999999"/>
<path d="M116.7 84.95V92H115.7V84.95H113V84H119.45V84.95H116.7Z" fill="white"/>
<path d="M123.15 92V91.15H124.9V84.85H123.15V84H127.7V84.8H125.95V91.1H127.7V91.95H123.15V92Z" fill="white"/>
<path d="M136.1 92L132.9 85.6V92H131.9V84H133.15L136.35 90.45V84H137.3V92H136.1Z" fill="white"/>
<path d="M141.85 92V84H142.85V91.05H146.95V92H141.85Z" fill="white"/>
<path d="M155.3 92L154.65 89.95H151.55L150.85 92H149.85L152.45 84H153.65L156.3 92H155.3ZM153.05 85.05L151.8 89H154.3L153.05 85.05Z" fill="white"/>
<path d="M164.45 92L162.15 88L160.8 89.55V92.05H159.8V84.05H160.8V88.15L164.4 84.05H165.65L162.9 87.2L165.7 92.05H164.45V92Z" fill="white"/>
<path d="M169.15 92V84H174.45V84.9H170.15V87.35H173.4V88.3H170.15V91.05H174.45V91.95H169.15V92Z" fill="white"/>
<path d="M400 112H320C306.8 112 296 101.2 296 88C296 74.8 306.8 64 320 64H400C413.2 64 424 74.8 424 88C424 101.2 413.2 112 400 112Z" fill="#D8D8D8"/>
<path d="M314.95 91.3C314.4 91.85 313.65 92.15 312.85 92.15C312.05 92.15 311.35 91.85 310.75 91.3C309.9 90.45 309.8 89.3 309.8 88.05C309.8 86.8 309.9 85.6 310.75 84.8C311.3 84.25 312.05 83.95 312.85 83.95C313.65 83.95 314.35 84.25 314.95 84.8C315.8 85.65 315.9 86.8 315.9 88.05C315.95 89.3 315.8 90.45 314.95 91.3ZM314.25 85.45C313.85 85.05 313.4 84.85 312.85 84.85C312.3 84.85 311.85 85.05 311.45 85.45C310.8 86.15 310.8 87.2 310.8 88.05C310.8 88.9 310.8 89.95 311.45 90.65C311.85 91.05 312.3 91.25 312.85 91.25C313.4 91.25 313.85 91.05 314.25 90.65C314.9 89.95 314.9 88.9 314.9 88.05C314.9 87.2 314.9 86.1 314.25 85.45Z" fill="white"/>
<path d="M322.6 84.9502V92.0002H321.6V84.9502H318.9V84.0002H325.35V84.9502H322.6Z" fill="white"/>
<path d="M333 92.0002V88.3002H329.6V92.0002H328.6V84.0002H329.6V87.3502H333V84.0002H334V92.0002H333Z" fill="white"/>
<path d="M338.2 92.0002V84.0002H343.5V84.9002H339.2V87.3502H342.45V88.3002H339.2V91.0502H343.5V91.9502H338.2V92.0002Z" fill="white"/>
<path d="M351.65 92.0002L350.15 88.7002H348.35V92.0002H347.35V84.0002H350.1C351.05 84.0002 351.7 84.2502 352.15 84.7002C352.55 85.1002 352.8 85.6002 352.8 86.3002C352.8 87.0002 352.55 87.4502 352.2 87.9002C351.95 88.1502 351.65 88.3502 351.25 88.4502L352.85 91.9502H351.65V92.0002ZM350.05 84.9502H348.3V87.7502H350.05C351 87.7502 351.65 87.3502 351.65 86.3502C351.65 85.3502 351 84.9502 350.05 84.9502Z" fill="white"/>
<path d="M370.6 90.8002C370.15 91.5502 369.3 92.0002 368.05 92.0002H365.7V84.0002H368.05C369.3 84.0002 370.15 84.5002 370.6 85.2502C371.05 85.9502 371.15 86.9002 371.15 88.0002C371.15 89.1002 371.05 90.1002 370.6 90.8002ZM369.55 85.4502C369.25 85.1502 368.75 84.9002 368.1 84.9002H366.75V91.0502H368.1C368.8 91.0502 369.3 90.8002 369.6 90.5002C370.15 89.9502 370.15 88.9502 370.15 88.0002C370.15 86.9502 370.1 86.0502 369.55 85.4502Z" fill="white"/>
<path d="M379.65 92.0002L379 89.9502H375.9L375.25 92.0002H374.25L376.85 84.0002H378.05L380.7 92.0002H379.65ZM377.45 85.0502L376.2 89.0002H378.7L377.45 85.0502Z" fill="white"/>
<path d="M389.2 88.2002C388.75 88.6502 388 88.9002 387.15 88.9002H385.25V92.0002H384.25V84.0002H387.1C388.05 84.0002 388.8 84.3002 389.25 84.7502C389.65 85.1502 389.85 85.7002 389.85 86.4002C389.85 87.2002 389.6 87.8002 389.2 88.2002ZM387.1 84.9502H385.25V88.0002H387.1C388.15 88.0002 388.8 87.5002 388.8 86.4502C388.85 85.4002 388.1 84.9502 387.1 84.9502Z" fill="white"/>
<path d="M398.4 88.2002C397.95 88.6502 397.2 88.9002 396.35 88.9002H394.5V92.0002H393.5V84.0002H396.35C397.3 84.0002 398.05 84.3002 398.5 84.7502C398.9 85.1502 399.1 85.7002 399.1 86.4002C399.1 87.2002 398.85 87.8002 398.4 88.2002ZM396.35 84.9502H394.5V88.0002H396.35C397.4 88.0002 398.05 87.5002 398.05 86.4502C398.05 85.4002 397.3 84.9502 396.35 84.9502Z" fill="white"/>
<path d="M407.4 91.3501C406.85 91.9001 406 92.1501 405.15 92.1501C404.2 92.1501 403.45 91.9001 402.9 91.4001C402.4 90.9501 402.05 90.2501 402.05 89.5001H403.1C403.1 89.9501 403.35 90.4501 403.65 90.7501C404 91.1001 404.6 91.2501 405.15 91.2501C405.75 91.2501 406.25 91.1501 406.6 90.8001C406.85 90.5501 407 90.3001 407 89.8501C407 89.2501 406.65 88.7001 405.7 88.5501C405.25 88.5001 404.9 88.4501 404.45 88.3501C403.25 88.1501 402.35 87.5001 402.35 86.2501C402.35 85.6501 402.6 85.1001 403.05 84.6501C403.6 84.1501 404.3 83.8501 405.1 83.8501C405.9 83.8501 406.6 84.1001 407.15 84.6001C407.65 85.0501 407.9 85.6501 407.9 86.3001H406.85C406.85 85.9001 406.7 85.6001 406.45 85.3001C406.15 84.9501 405.7 84.7501 405.05 84.7501C404.5 84.7501 404 84.9001 403.65 85.3001C403.45 85.5501 403.35 85.8001 403.35 86.1501C403.35 86.8501 403.9 87.2001 404.5 87.3001C404.95 87.3501 405.35 87.4501 405.8 87.5001C407.15 87.7001 408 88.5001 408 89.7501C408.05 90.4501 407.8 91.0001 407.4 91.3501Z" fill="white"/>
<path d="M146.95 220.15C146.15 220.15 145.45 219.85 144.9 219.3C144 218.4 143.9 217.2 143.9 216C143.9 214.8 144 213.6 144.9 212.7C145.45 212.15 146.15 211.85 146.95 211.85C148.5 211.85 149.75 212.95 149.8 214.5H148.75C148.75 214.05 148.55 213.65 148.3 213.35C147.95 213 147.5 212.8 146.95 212.8C146.4 212.8 145.95 213.05 145.6 213.4C144.95 214.1 144.95 215.1 144.95 216C144.95 216.9 144.95 217.9 145.6 218.6C145.95 219 146.4 219.2 146.95 219.2C147.95 219.2 148.75 218.45 148.8 217.45H149.85C149.75 219 148.5 220.15 146.95 220.15Z" fill="white"/>
<path d="M153.7 220V212H159V212.9H154.7V215.35H157.95V216.3H154.7V219.05H159V219.95H153.7V220Z" fill="white"/>
<path d="M166.75 220L163.55 213.6V220H162.55V212H163.8L167 218.45V212H167.95V220H166.75Z" fill="white"/>
<path d="M175 212.95V220H174V212.95H171.3V212H177.75V212.95H175Z" fill="white"/>
<path d="M185.55 220L184.05 216.7H182.25V220H181.25V212H184C184.95 212 185.6 212.25 186.05 212.7C186.45 213.1 186.7 213.6 186.7 214.3C186.7 215 186.45 215.45 186.1 215.9C185.85 216.15 185.55 216.35 185.15 216.45L186.75 219.95H185.55V220ZM183.95 212.95H182.2V215.75H183.95C184.9 215.75 185.55 215.35 185.55 214.35C185.6 213.35 184.9 212.95 183.95 212.95Z" fill="white"/>
<path d="M190.65 220V219.15H192.4V212.85H190.65V212H195.2V212.8H193.45V219.1H195.2V219.95H190.65V220Z" fill="white"/>
<path d="M200.9 212.95V215.55H204.35V216.5H200.9V220H199.9V212H205.25V212.9H200.9V212.95Z" fill="white"/>
<path d="M211.4 220.15C209.55 220.15 208.6 218.9 208.6 217.1V212H209.6V217.1C209.6 218.3 210.1 219.2 211.4 219.2C212.7 219.2 213.2 218.3 213.2 217.1V212H214.2V217.1C214.2 218.9 213.25 220.15 211.4 220.15Z" fill="white"/>
<path d="M222.75 220L222.6 219.1C222.45 219.35 222.2 219.6 221.9 219.8C221.55 220.05 221.1 220.2 220.55 220.2C219.75 220.2 219.1 220 218.5 219.45C217.7 218.65 217.45 217.5 217.45 216.05C217.45 214.8 217.7 213.55 218.55 212.75C219.1 212.2 219.8 211.95 220.6 211.95C221.5 211.95 222.2 212.25 222.75 212.85C223.1 213.25 223.35 213.75 223.4 214.4H222.35C222.35 214 222.2 213.65 221.9 213.4C221.6 213.1 221.2 212.9 220.65 212.9C220.1 212.9 219.7 213.05 219.3 213.45C218.65 214.15 218.55 215.25 218.55 216.1C218.55 216.9 218.6 218.1 219.25 218.75C219.65 219.15 220 219.3 220.6 219.3C221.15 219.3 221.55 219.15 221.95 218.75C222.5 218.25 222.6 217.45 222.6 216.7H220.5V215.75H223.5V220.05H222.75V220Z" fill="white"/>
<path d="M227.5 220V212H232.8V212.9H228.5V215.35H231.75V216.3H228.5V219.05H232.8V219.95H227.5V220Z" fill="white"/>
<path d="M248.45 220.15C247.65 220.15 246.95 219.85 246.4 219.3C245.5 218.4 245.4 217.2 245.4 216C245.4 214.8 245.5 213.6 246.4 212.7C246.95 212.15 247.65 211.85 248.45 211.85C250 211.85 251.25 212.95 251.3 214.5H250.25C250.25 214.05 250.05 213.65 249.8 213.35C249.45 213 249 212.8 248.45 212.8C247.9 212.8 247.45 213.05 247.1 213.4C246.45 214.1 246.45 215.1 246.45 216C246.45 216.9 246.45 217.9 247.1 218.6C247.45 219 247.9 219.2 248.45 219.2C249.45 219.2 250.25 218.45 250.3 217.45H251.35C251.25 219 250 220.15 248.45 220.15Z" fill="white"/>
<path d="M259.2 220V216.3H255.8V220H254.8V212H255.8V215.35H259.2V212H260.2V220H259.2Z" fill="white"/>
<path d="M268.95 220L268.3 217.95H265.2L264.55 220H263.55L266.15 212H267.35L270 220H268.95ZM266.7 213.05L265.5 217H268L266.7 213.05Z" fill="white"/>
<path d="M273.7 220V219.15H275.45V212.85H273.7V212H278.25V212.8H276.5V219.1H278.25V219.95H273.7V220Z" fill="white"/>
<path d="M286.65 220L283.45 213.6V220H282.45V212H283.7L286.9 218.45V212H287.85V220H286.65Z" fill="white"/>
<path d="M121.65 280.2C121.2 280.65 120.45 280.9 119.6 280.9H117.7V284H116.7V276H119.55C120.5 276 121.25 276.3 121.7 276.75C122.1 277.15 122.3 277.7 122.3 278.4C122.35 279.2 122.1 279.8 121.65 280.2ZM119.55 276.95H117.7V280H119.55C120.6 280 121.25 279.5 121.25 278.45C121.3 277.4 120.55 276.95 119.55 276.95Z" fill="white"/>
<path d="M126.05 284V283.2L129.3 279.3C129.6 278.95 129.75 278.6 129.75 278.15C129.75 277.35 129.25 276.9 128.45 276.9C127.75 276.9 127.1 277.3 127.1 278.3H126.1C126.1 276.95 127.05 276 128.45 276C129.3 276 130 276.35 130.4 276.9C130.65 277.25 130.75 277.6 130.75 278.1C130.75 278.7 130.5 279.25 130.1 279.75L127.4 283.05H130.9V283.95H126.05V284Z" fill="white"/>
<path d="M140.1 280.2C139.65 280.65 138.9 280.9 138.05 280.9H136.15V284H135.15V276H138C138.95 276 139.7 276.3 140.15 276.75C140.55 277.15 140.75 277.7 140.75 278.4C140.8 279.2 140.55 279.8 140.1 280.2ZM138 276.95H136.15V280H138C139.05 280 139.7 279.5 139.7 278.45C139.75 277.4 139 276.95 138 276.95Z" fill="white"/>
<path d="M157.85 284V277.7L156.45 281.55H155.55L154.15 277.7V284H153.2V276H154.45L156.05 280.45L157.6 276H158.85V284H157.85Z" fill="white"/>
<path d="M162.9 284V276H168.2V276.9H163.9V279.35H167.15V280.3H163.9V283.05H168.2V283.95H162.9V284Z" fill="white"/>
<path d="M176.75 283.35C176.2 283.9 175.35 284.15 174.5 284.15C173.55 284.15 172.8 283.9 172.25 283.4C171.75 282.95 171.4 282.25 171.4 281.5H172.45C172.45 281.95 172.7 282.45 173 282.75C173.35 283.1 173.95 283.25 174.5 283.25C175.1 283.25 175.6 283.15 175.95 282.8C176.2 282.55 176.35 282.3 176.35 281.85C176.35 281.25 176 280.7 175.05 280.55C174.6 280.5 174.25 280.45 173.8 280.35C172.6 280.15 171.7 279.5 171.7 278.25C171.7 277.65 171.95 277.1 172.4 276.65C172.95 276.15 173.65 275.85 174.45 275.85C175.25 275.85 175.95 276.1 176.5 276.6C177 277.05 177.25 277.65 177.25 278.3H176.2C176.2 277.9 176.05 277.6 175.8 277.3C175.5 276.95 175.05 276.75 174.4 276.75C173.85 276.75 173.35 276.9 173 277.3C172.8 277.55 172.7 277.8 172.7 278.15C172.7 278.85 173.25 279.2 173.85 279.3C174.3 279.35 174.7 279.45 175.15 279.5C176.5 279.7 177.35 280.5 177.35 281.75C177.45 282.45 177.15 283 176.75 283.35Z" fill="white"/>
<path d="M186 283.35C185.45 283.9 184.6 284.15 183.75 284.15C182.8 284.15 182.05 283.9 181.5 283.4C181 282.95 180.65 282.25 180.65 281.5H181.7C181.7 281.95 181.95 282.45 182.25 282.75C182.6 283.1 183.2 283.25 183.75 283.25C184.35 283.25 184.85 283.15 185.2 282.8C185.45 282.55 185.6 282.3 185.6 281.85C185.6 281.25 185.25 280.7 184.3 280.55C183.85 280.5 183.5 280.45 183.05 280.35C181.85 280.15 180.95 279.5 180.95 278.25C180.95 277.65 181.2 277.1 181.65 276.65C182.2 276.15 182.9 275.85 183.7 275.85C184.5 275.85 185.2 276.1 185.75 276.6C186.25 277.05 186.5 277.65 186.5 278.3H185.45C185.45 277.9 185.3 277.6 185.05 277.3C184.75 276.95 184.3 276.75 183.65 276.75C183.1 276.75 182.6 276.9 182.25 277.3C182.05 277.55 181.95 277.8 181.95 278.15C181.95 278.85 182.5 279.2 183.1 279.3C183.55 279.35 183.95 279.45 184.4 279.5C185.75 279.7 186.6 280.5 186.6 281.75C186.65 282.45 186.4 283 186 283.35Z" fill="white"/>
<path d="M195.15 284L194.5 281.95H191.4L190.75 284H189.75L192.35 276H193.55L196.2 284H195.15ZM192.9 277.05L191.65 281H194.15L192.9 277.05Z" fill="white"/>
<path d="M204.3 284L204.15 283.1C204 283.35 203.75 283.6 203.45 283.8C203.1 284.05 202.65 284.2 202.1 284.2C201.3 284.2 200.65 284 200.05 283.45C199.25 282.65 199 281.5 199 280.05C199 278.8 199.25 277.55 200.1 276.75C200.65 276.2 201.35 275.95 202.15 275.95C203.05 275.95 203.75 276.25 204.3 276.85C204.65 277.25 204.9 277.75 204.95 278.4H203.9C203.9 278 203.75 277.65 203.45 277.4C203.15 277.1 202.75 276.9 202.2 276.9C201.65 276.9 201.25 277.05 200.85 277.45C200.2 278.15 200.1 279.25 200.1 280.1C200.1 280.9 200.15 282.1 200.8 282.75C201.2 283.15 201.55 283.3 202.15 283.3C202.7 283.3 203.1 283.15 203.5 282.75C204.05 282.25 204.15 281.45 204.15 280.7H202.1V279.75H205.1V284.05H204.3V284Z" fill="white"/>
<path d="M209.1 284V283.15H210.85V276.85H209.1V276H213.65V276.8H211.9V283.1H213.65V283.95H209.1V284Z" fill="white"/>
<path d="M222.1 284L218.9 277.6V284H217.9V276H219.15L222.35 282.45V276H223.3V284H222.1Z" fill="white"/>
<path d="M232 284L231.85 283.1C231.7 283.35 231.45 283.6 231.15 283.8C230.8 284.05 230.35 284.2 229.8 284.2C229 284.2 228.35 284 227.75 283.45C226.95 282.65 226.7 281.5 226.7 280.05C226.7 278.8 226.95 277.55 227.8 276.75C228.35 276.2 229.05 275.95 229.85 275.95C230.75 275.95 231.45 276.25 232 276.85C232.35 277.25 232.6 277.75 232.65 278.4H231.6C231.6 278 231.45 277.65 231.15 277.4C230.85 277.1 230.45 276.9 229.9 276.9C229.35 276.9 228.95 277.05 228.55 277.45C227.9 278.15 227.8 279.25 227.8 280.1C227.8 280.9 227.85 282.1 228.5 282.75C228.9 283.15 229.25 283.3 229.85 283.3C230.4 283.3 230.8 283.15 231.2 282.75C231.75 282.25 231.85 281.45 231.85 280.7H229.8V279.75H232.8V284.05H232V284Z" fill="white"/>
<path d="M250.8 280.2C250.35 280.65 249.6 280.9 248.75 280.9H246.85V284H245.85V276H248.7C249.65 276 250.4 276.3 250.85 276.75C251.25 277.15 251.45 277.7 251.45 278.4C251.5 279.2 251.25 279.8 250.8 280.2ZM248.7 276.95H246.85V280H248.7C249.75 280 250.4 279.5 250.4 278.45C250.45 277.4 249.7 276.95 248.7 276.95Z" fill="white"/>
<path d="M259.35 284L257.85 280.7H256.05V284H255.05V276H257.8C258.75 276 259.4 276.25 259.85 276.7C260.25 277.1 260.5 277.6 260.5 278.3C260.5 279 260.25 279.45 259.9 279.9C259.65 280.15 259.35 280.35 258.95 280.45L260.55 283.95H259.35V284ZM257.75 276.95H256V279.75H257.75C258.7 279.75 259.35 279.35 259.35 278.35C259.4 277.35 258.7 276.95 257.75 276.95Z" fill="white"/>
<path d="M268.8 283.3C268.25 283.85 267.5 284.15 266.7 284.15C265.9 284.15 265.2 283.85 264.6 283.3C263.75 282.45 263.65 281.3 263.65 280.05C263.65 278.8 263.75 277.6 264.6 276.8C265.15 276.25 265.9 275.95 266.7 275.95C267.5 275.95 268.2 276.25 268.8 276.8C269.65 277.65 269.75 278.8 269.75 280.05C269.8 281.3 269.7 282.45 268.8 283.3ZM268.1 277.45C267.7 277.05 267.25 276.85 266.7 276.85C266.15 276.85 265.7 277.05 265.3 277.45C264.65 278.15 264.65 279.2 264.65 280.05C264.65 280.9 264.65 281.95 265.3 282.65C265.7 283.05 266.15 283.25 266.7 283.25C267.25 283.25 267.7 283.05 268.1 282.65C268.75 281.95 268.75 280.9 268.75 280.05C268.75 279.2 268.8 278.1 268.1 277.45Z" fill="white"/>
<path d="M276.5 276.95V284H275.5V276.95H272.8V276H279.25V276.95H276.5Z" fill="white"/>
<path d="M287.25 283.3C286.7 283.85 285.95 284.15 285.15 284.15C284.35 284.15 283.65 283.85 283.05 283.3C282.2 282.45 282.1 281.3 282.1 280.05C282.1 278.8 282.2 277.6 283.05 276.8C283.6 276.25 284.35 275.95 285.15 275.95C285.95 275.95 286.65 276.25 287.25 276.8C288.1 277.65 288.2 278.8 288.2 280.05C288.25 281.3 288.15 282.45 287.25 283.3ZM286.55 277.45C286.15 277.05 285.7 276.85 285.15 276.85C284.6 276.85 284.15 277.05 283.75 277.45C283.1 278.15 283.1 279.2 283.1 280.05C283.1 280.9 283.1 281.95 283.75 282.65C284.15 283.05 284.6 283.25 285.15 283.25C285.7 283.25 286.15 283.05 286.55 282.65C287.2 281.95 287.2 280.9 287.2 280.05C287.2 279.2 287.25 278.1 286.55 277.45Z" fill="white"/>
<path d="M294.55 284.15C293.75 284.15 293.05 283.85 292.5 283.3C291.6 282.4 291.5 281.2 291.5 280C291.5 278.8 291.6 277.6 292.5 276.7C293.05 276.15 293.75 275.85 294.55 275.85C296.1 275.85 297.35 276.95 297.4 278.5H296.35C296.35 278.05 296.15 277.65 295.9 277.35C295.55 277 295.1 276.8 294.55 276.8C294 276.8 293.55 277.05 293.2 277.4C292.55 278.1 292.55 279.1 292.55 280C292.55 280.9 292.55 281.9 293.2 282.6C293.55 283 294 283.2 294.55 283.2C295.55 283.2 296.35 282.45 296.4 281.45H297.45C297.35 283 296.1 284.15 294.55 284.15Z" fill="white"/>
<path d="M305.7 283.3C305.15 283.85 304.4 284.15 303.6 284.15C302.8 284.15 302.1 283.85 301.5 283.3C300.65 282.45 300.55 281.3 300.55 280.05C300.55 278.8 300.65 277.6 301.5 276.8C302.05 276.25 302.8 275.95 303.6 275.95C304.4 275.95 305.1 276.25 305.7 276.8C306.55 277.65 306.65 278.8 306.65 280.05C306.7 281.3 306.6 282.45 305.7 283.3ZM305 277.45C304.6 277.05 304.15 276.85 303.6 276.85C303.05 276.85 302.6 277.05 302.2 277.45C301.55 278.15 301.55 279.2 301.55 280.05C301.55 280.9 301.55 281.95 302.2 282.65C302.6 283.05 303.05 283.25 303.6 283.25C304.15 283.25 304.6 283.05 305 282.65C305.65 281.95 305.65 280.9 305.65 280.05C305.65 279.2 305.65 278.1 305 277.45Z" fill="white"/>
<path d="M310.85 284V276H311.85V283.05H315.95V284H310.85Z" fill="white"/>
<path d="M200.15 27.5V20.5H200.2V20.9V27.05V27.5H200.15Z" fill="black" stroke="black"/>
<mask id="path-63-inside-1" fill="white">
<path d="M209.05 28V20H214.35V20.9H210.05V23.35H213.3V24.3H210.05V27.05H214.35V28H209.05Z"/>
</mask>
<path d="M209.05 28V20H214.35V20.9H210.05V23.35H213.3V24.3H210.05V27.05H214.35V28H209.05Z" fill="black"/>
<path d="M209.05 28H208.05V29H209.05V28ZM209.05 20V19H208.05V20H209.05ZM214.35 20H215.35V19H214.35V20ZM214.35 20.9V21.9H215.35V20.9H214.35ZM210.05 20.9V19.9H209.05V20.9H210.05ZM210.05 23.35H209.05V24.35H210.05V23.35ZM213.3 23.35H214.3V22.35H213.3V23.35ZM213.3 24.3V25.3H214.3V24.3H213.3ZM210.05 24.3V23.3H209.05V24.3H210.05ZM210.05 27.05H209.05V28.05H210.05V27.05ZM214.35 27.05H215.35V26.05H214.35V27.05ZM214.35 28V29H215.35V28H214.35ZM210.05 28V20H208.05V28H210.05ZM209.05 21H214.35V19H209.05V21ZM213.35 20V20.9H215.35V20H213.35ZM214.35 19.9H210.05V21.9H214.35V19.9ZM209.05 20.9V23.35H211.05V20.9H209.05ZM210.05 24.35H213.3V22.35H210.05V24.35ZM212.3 23.35V24.3H214.3V23.35H212.3ZM213.3 23.3H210.05V25.3H213.3V23.3ZM209.05 24.3V27.05H211.05V24.3H209.05ZM210.05 28.05H214.35V26.05H210.05V28.05ZM213.35 27.05V28H215.35V27.05H213.35ZM214.35 27H209.05V29H214.35V27Z" fill="black" mask="url(#path-63-inside-1)"/>
<mask id="path-65-inside-2" fill="white">
<path d="M219.35 20.95V23.55H222.8V24.5H219.35V28H218.35V20H223.7V20.9H219.35V20.95Z"/>
</mask>
<path d="M219.35 20.95V23.55H222.8V24.5H219.35V28H218.35V20H223.7V20.9H219.35V20.95Z" fill="black"/>
<path d="M219.35 23.55H218.35V24.55H219.35V23.55ZM222.8 23.55H223.8V22.55H222.8V23.55ZM222.8 24.5V25.5H223.8V24.5H222.8ZM219.35 24.5V23.5H218.35V24.5H219.35ZM219.35 28V29H220.35V28H219.35ZM218.35 28H217.35V29H218.35V28ZM218.35 20V19H217.35V20H218.35ZM223.7 20H224.7V19H223.7V20ZM223.7 20.9V21.9H224.7V20.9H223.7ZM219.35 20.9V19.9H218.35V20.9H219.35ZM218.35 20.95V23.55H220.35V20.95H218.35ZM219.35 24.55H222.8V22.55H219.35V24.55ZM221.8 23.55V24.5H223.8V23.55H221.8ZM222.8 23.5H219.35V25.5H222.8V23.5ZM218.35 24.5V28H220.35V24.5H218.35ZM219.35 27H218.35V29H219.35V27ZM219.35 28V20H217.35V28H219.35ZM218.35 21H223.7V19H218.35V21ZM222.7 20V20.9H224.7V20H222.7ZM223.7 19.9H219.35V21.9H223.7V19.9ZM218.35 20.9V20.95H220.35V20.9H218.35Z" fill="black" mask="url(#path-65-inside-2)"/>
<path d="M229.85 27.1V27.5H229.8V27.15V20.85V20.5H229.85V20.8V27.1Z" fill="black" stroke="black"/>
<path d="M59.65 156L56.45 149.6V156H55.45V148H56.7L59.9 154.45V148H60.85V156H59.65Z" fill="white"/>
<path d="M66.15 148.95V151.55H69.6V152.5H66.15V156H65.15V148H70.5V148.9H66.15V148.95Z" fill="white"/>
<path d="M77.15 148.95V156H76.15V148.95H73.45V148H79.9V148.95H77.15Z" fill="white"/>
<path d="M88.1 155.35C87.55 155.9 86.7 156.15 85.85 156.15C84.9 156.15 84.15 155.9 83.6 155.4C83.1 154.95 82.75 154.25 82.75 153.5H83.8C83.8 153.95 84.05 154.45 84.35 154.75C84.7 155.1 85.3 155.25 85.85 155.25C86.45 155.25 86.95 155.15 87.3 154.8C87.55 154.55 87.7 154.3 87.7 153.85C87.7 153.25 87.35 152.7 86.4 152.55C85.95 152.5 85.6 152.45 85.15 152.35C83.95 152.15 83.05 151.5 83.05 150.25C83.05 149.65 83.3 149.1 83.75 148.65C84.3 148.15 85 147.85 85.8 147.85C86.6 147.85 87.3 148.1 87.85 148.6C88.35 149.05 88.6 149.65 88.6 150.3H87.55C87.55 149.9 87.4 149.6 87.15 149.3C86.85 148.95 86.4 148.75 85.75 148.75C85.2 148.75 84.7 148.9 84.35 149.3C84.15 149.55 84.05 149.8 84.05 150.15C84.05 150.85 84.6 151.2 85.2 151.3C85.65 151.35 86.05 151.45 86.5 151.5C87.85 151.7 88.7 152.5 88.7 153.75C88.8 154.45 88.5 155 88.1 155.35Z" fill="white"/>
<path d="M190.55 156L189.9 153.95H186.8L186.15 156H185.15L187.75 148H188.95L191.6 156H190.55ZM188.3 149.05L187.05 153H189.55L188.3 149.05Z" fill="white"/>
<path d="M199.05 156L195.85 149.6V156H194.85V148H196.1L199.3 154.45V148H200.25V156H199.05Z" fill="white"/>
<path d="M206.9 156.15C206.1 156.15 205.4 155.85 204.85 155.3C203.95 154.4 203.85 153.2 203.85 152C203.85 150.8 203.95 149.6 204.85 148.7C205.4 148.15 206.1 147.85 206.9 147.85C208.45 147.85 209.7 148.95 209.75 150.5H208.7C208.7 150.05 208.5 149.65 208.25 149.35C207.9 149 207.45 148.8 206.9 148.8C206.35 148.8 205.9 149.05 205.55 149.4C204.9 150.1 204.9 151.1 204.9 152C204.9 152.9 204.9 153.9 205.55 154.6C205.9 155 206.35 155.2 206.9 155.2C207.9 155.2 208.7 154.45 208.75 153.45H209.8C209.7 155 208.5 156.15 206.9 156.15Z" fill="white"/>
<path d="M217.7 156V152.3H214.3V156H213.3V148H214.3V151.35H217.7V148H218.7V156H217.7Z" fill="white"/>
<path d="M227.3 155.3C226.75 155.85 226 156.15 225.2 156.15C224.4 156.15 223.7 155.85 223.1 155.3C222.25 154.45 222.15 153.3 222.15 152.05C222.15 150.8 222.25 149.6 223.1 148.8C223.65 148.25 224.4 147.95 225.2 147.95C226 147.95 226.7 148.25 227.3 148.8C228.15 149.65 228.25 150.8 228.25 152.05C228.3 153.3 228.15 154.45 227.3 155.3ZM226.6 149.45C226.2 149.05 225.75 148.85 225.2 148.85C224.65 148.85 224.2 149.05 223.8 149.45C223.15 150.15 223.15 151.2 223.15 152.05C223.15 152.9 223.15 153.95 223.8 154.65C224.2 155.05 224.65 155.25 225.2 155.25C225.75 155.25 226.2 155.05 226.6 154.65C227.25 153.95 227.25 152.9 227.25 152.05C227.25 151.2 227.25 150.1 226.6 149.45Z" fill="white"/>
<path d="M236.3 156L234.8 152.7H233V156H232V148H234.75C235.7 148 236.35 148.25 236.8 148.7C237.2 149.1 237.45 149.6 237.45 150.3C237.45 151 237.2 151.45 236.85 151.9C236.6 152.15 236.3 152.35 235.9 152.45L237.5 155.95H236.3V156ZM234.7 148.95H233V151.75H234.75C235.7 151.75 236.35 151.35 236.35 150.35C236.35 149.35 235.65 148.95 234.7 148.95Z" fill="white"/>
<path d="M245.95 155.35C245.4 155.9 244.55 156.15 243.7 156.15C242.75 156.15 242 155.9 241.45 155.4C240.95 154.95 240.6 154.25 240.6 153.5H241.65C241.65 153.95 241.9 154.45 242.2 154.75C242.55 155.1 243.15 155.25 243.7 155.25C244.3 155.25 244.8 155.15 245.15 154.8C245.4 154.55 245.55 154.3 245.55 153.85C245.55 153.25 245.2 152.7 244.25 152.55C243.8 152.5 243.45 152.45 243 152.35C241.8 152.15 240.9 151.5 240.9 150.25C240.9 149.65 241.15 149.1 241.6 148.65C242.15 148.15 242.85 147.85 243.65 147.85C244.45 147.85 245.15 148.1 245.7 148.6C246.2 149.05 246.45 149.65 246.45 150.3H245.4C245.4 149.9 245.25 149.6 245 149.3C244.7 148.95 244.25 148.75 243.6 148.75C243.05 148.75 242.55 148.9 242.2 149.3C242 149.55 241.9 149.8 241.9 150.15C241.9 150.85 242.45 151.2 243.05 151.3C243.5 151.35 243.9 151.45 244.35 151.5C245.7 151.7 246.55 152.5 246.55 153.75C246.6 154.45 246.35 155 245.95 155.35Z" fill="white"/>
<path d="M316.2 156V155.15H317.95V148.85H316.2V148H320.75V148.8H319V155.1H320.75V155.95H316.2V156Z" fill="white"/>
<path d="M330.1 154.8C329.65 155.55 328.8 156 327.55 156H325.2V148H327.55C328.8 148 329.65 148.5 330.1 149.25C330.55 149.95 330.65 150.9 330.65 152C330.65 153.1 330.55 154.1 330.1 154.8ZM329.05 149.45C328.75 149.15 328.25 148.9 327.6 148.9H326.25V155.05H327.6C328.3 155.05 328.8 154.8 329.1 154.5C329.65 153.95 329.65 152.95 329.65 152C329.65 150.95 329.6 150.05 329.05 149.45Z" fill="white"/>
<path d="M334.6 156V148H339.9V148.9H335.6V151.35H338.85V152.3H335.6V155.05H339.9V155.95H334.6V156Z" fill="white"/>
<path d="M347.65 156L344.45 149.6V156H343.45V148H344.7L347.9 154.45V148H348.85V156H347.65Z" fill="white"/>
<path d="M355.9 148.95V156H354.9V148.95H352.2V148H358.65V148.95H355.9Z" fill="white"/>
<path d="M362.35 156V155.15H364.1V148.85H362.35V148H366.9V148.8H365.15V155.1H366.9V155.95H362.35V156Z" fill="white"/>
<path d="M374.35 148.95V156H373.35V148.95H370.65V148H377.1V148.95H374.35Z" fill="white"/>
<path d="M380.8 156V155.15H382.55V148.85H380.8V148H385.35V148.8H383.6V155.1H385.35V155.95H380.8V156Z" fill="white"/>
<path d="M389.95 156V148H395.25V148.9H390.95V151.35H394.2V152.3H390.95V155.05H395.25V155.95H389.95V156Z" fill="white"/>
<path d="M403.8 155.35C403.25 155.9 402.4 156.15 401.55 156.15C400.6 156.15 399.85 155.9 399.3 155.4C398.8 154.95 398.45 154.25 398.45 153.5H399.5C399.5 153.95 399.75 154.45 400.05 154.75C400.4 155.1 401 155.25 401.55 155.25C402.15 155.25 402.65 155.15 403 154.8C403.25 154.55 403.4 154.3 403.4 153.85C403.4 153.25 403.05 152.7 402.1 152.55C401.65 152.5 401.3 152.45 400.85 152.35C399.65 152.15 398.75 151.5 398.75 150.25C398.75 149.65 399 149.1 399.45 148.65C400 148.15 400.7 147.85 401.5 147.85C402.3 147.85 403 148.1 403.55 148.6C404.05 149.05 404.3 149.65 404.3 150.3H403.25C403.25 149.9 403.1 149.6 402.85 149.3C402.55 148.95 402.1 148.75 401.45 148.75C400.9 148.75 400.4 148.9 400.05 149.3C399.85 149.55 399.75 149.8 399.75 150.15C399.75 150.85 400.3 151.2 400.9 151.3C401.35 151.35 401.75 151.45 402.2 151.5C403.55 151.7 404.4 152.5 404.4 153.75C404.45 154.45 404.2 155 403.8 155.35Z" fill="white"/>
<path d="M296 152H280" stroke="black" stroke-miterlimit="10" stroke-dasharray="4 4"/>
<path d="M152 152H136" stroke="black" stroke-miterlimit="10" stroke-dasharray="4 4"/>
<path d="M295 88H279" stroke="black" stroke-miterlimit="10" stroke-dasharray="4 4"/>
<path d="M404 57C418.9 57 431 69.1 431 84V285C431 299.9 418.9 312 404 312H28C13.1 312 1 299.9 1 285V84C1 69.1 13.1 57 28 57H404ZM404 56H28C12.55 56 0 68.55 0 84V285C0 300.45 12.55 313 28 313H404C419.45 313 432 300.45 432 285V84C432 68.55 419.45 56 404 56Z" fill="#2762FF"/>
</svg>
