<svg width="229" height="230" viewBox="0 0 229 230" fill="none" xmlns="http://www.w3.org/2000/svg">
<path d="M229 114.52C229 177.758 177.737 229.022 114.498 229.022C51.2601 229.022 0 177.758 0 114.52C0 112.398 0.0576028 110.286 0.176009 108.193C3.45617 47.899 53.385 0.0214844 114.498 0.0214844C175.612 0.0214844 225.544 47.899 228.824 108.193C228.942 110.286 229 112.398 229 114.52Z" fill="white"/>
<path d="M0.675211 108.221L0.67527 108.22C3.94108 48.1899 53.652 0.521484 114.498 0.521484C175.345 0.521484 225.059 48.19 228.325 108.22L228.325 108.221C228.443 110.305 228.5 112.407 228.5 114.52C228.5 177.482 177.461 228.522 114.498 228.522C51.5363 228.522 0.5 177.482 0.5 114.52C0.5 112.407 0.557358 110.305 0.675211 108.221Z" stroke="black" stroke-opacity="0.4"/>
<circle cx="114.5" cy="46.1933" r="16.2421" fill="url(#paint0_radial_2105_13543)"/>
<circle cx="114.5" cy="182.848" r="16.2421" fill="url(#paint1_radial_2105_13543)"/>
<circle cx="46.1737" cy="119.162" r="16.2421" fill="url(#paint2_radial_2105_13543)"/>
<circle cx="182.826" cy="119.162" r="16.2421" fill="url(#paint3_radial_2105_13543)"/>
<path d="M114.5 78.998L150.023 114.521L114.5 150.044L78.9766 114.521L114.5 78.998Z" fill="url(#paint4_linear_2105_13543)"/>
<defs>
<radialGradient id="paint0_radial_2105_13543" cx="0" cy="0" r="1" gradientUnits="userSpaceOnUse" gradientTransform="translate(120.493 51.0417) rotate(-164.055) scale(54.2708)">
<stop stop-color="#FFC012"/>
<stop offset="1" stop-color="#FFC012" stop-opacity="0.31"/>
</radialGradient>
<radialGradient id="paint1_radial_2105_13543" cx="0" cy="0" r="1" gradientUnits="userSpaceOnUse" gradientTransform="translate(120.493 187.696) rotate(-164.055) scale(54.2708)">
<stop stop-color="#FFC012"/>
<stop offset="1" stop-color="#FFC012" stop-opacity="0.31"/>
</radialGradient>
<radialGradient id="paint2_radial_2105_13543" cx="0" cy="0" r="1" gradientUnits="userSpaceOnUse" gradientTransform="translate(52.1668 124.01) rotate(-164.055) scale(54.2708)">
<stop stop-color="#FFC012"/>
<stop offset="1" stop-color="#FFC012" stop-opacity="0.31"/>
</radialGradient>
<radialGradient id="paint3_radial_2105_13543" cx="0" cy="0" r="1" gradientUnits="userSpaceOnUse" gradientTransform="translate(188.819 124.01) rotate(-164.055) scale(54.2708)">
<stop stop-color="#FFC012"/>
<stop offset="1" stop-color="#FFC012" stop-opacity="0.31"/>
</radialGradient>
<linearGradient id="paint4_linear_2105_13543" x1="114.5" y1="-76.3585" x2="114.5" y2="373.962" gradientUnits="userSpaceOnUse">
<stop stop-color="#2762FF"/>
<stop offset="1" stop-color="#2762FF" stop-opacity="0.62"/>
</linearGradient>
</defs>
</svg>
