<svg width="534" height="386" viewBox="0 0 534 386" fill="none" xmlns="http://www.w3.org/2000/svg">
<path d="M167.365 345.994V354.466L112.436 381.669L57.5042 354.466V345.994L66.1003 350.25L112.436 373.199L158.689 350.292L167.365 345.994Z" fill="#FFDE84" stroke="black" stroke-width="0.188696" stroke-miterlimit="10"/>
<path d="M167.365 345.995L158.689 350.293L112.436 373.2L66.1003 350.251L57.5042 345.995L111.911 319.314L167.365 345.995Z" fill="url(#paint0_linear_3066_8906)" stroke="black" stroke-width="0.188696" stroke-miterlimit="10"/>
<line x1="112.531" y1="373.084" x2="112.531" y2="381.554" stroke="black" stroke-width="0.190602"/>
<path d="M167.552 259.652V268.125L112.623 295.327L57.6912 268.125V259.652L66.2873 263.908L112.623 286.857L158.876 263.95L167.552 259.652Z" fill="white" stroke="black" stroke-width="0.188696" stroke-miterlimit="10"/>
<path d="M167.552 259.653L158.876 263.951L112.623 286.858L66.2873 263.909L57.6912 259.653L112.098 232.973L167.552 259.653Z" fill="white" stroke="black" stroke-width="0.188696" stroke-miterlimit="10"/>
<line x1="112.716" y1="286.857" x2="112.716" y2="295.328" stroke="black" stroke-width="0.190602"/>
<path d="M167.552 212.406V220.879L112.623 248.081L57.6912 220.879V212.406L66.2873 216.662L112.623 239.611L158.876 216.704L167.552 212.406Z" fill="white" stroke="black" stroke-width="0.188696" stroke-miterlimit="10"/>
<path d="M167.552 212.407L158.876 216.705L112.623 239.612L66.2873 216.663L57.6912 212.407L112.098 185.727L167.552 212.407Z" fill="white" stroke="black" stroke-width="0.188696" stroke-miterlimit="10"/>
<line x1="112.716" y1="239.611" x2="112.716" y2="248.082" stroke="black" stroke-width="0.190602"/>
<path d="M167.552 163.055V171.527L112.623 198.73L57.6912 171.527V163.055L66.2873 167.311L112.623 190.259L158.876 167.353L167.552 163.055Z" fill="white" stroke="black" stroke-width="0.188696" stroke-miterlimit="10"/>
<path d="M167.552 163.055L158.876 167.354L112.623 190.26L66.2873 167.312L57.6912 163.055L112.098 136.375L167.552 163.055Z" fill="white" stroke="black" stroke-width="0.188696" stroke-miterlimit="10"/>
<line x1="112.716" y1="190.26" x2="112.716" y2="198.73" stroke="black" stroke-width="0.190602"/>
<path d="M470.945 116.051V124.523L416.016 151.726L361.084 124.523V116.051L369.681 120.307L416.016 143.255L462.269 120.349L470.945 116.051Z" fill="#FFDE84" stroke="black" stroke-width="0.188696" stroke-miterlimit="10"/>
<path d="M470.945 116.052L462.269 120.35L416.016 143.256L369.681 120.308L361.084 116.052L415.492 89.3711L470.945 116.052Z" fill="url(#paint1_linear_3066_8906)" stroke="black" stroke-width="0.188696" stroke-miterlimit="10"/>
<line x1="416.109" y1="143.256" x2="416.109" y2="151.726" stroke="black" stroke-width="0.190602"/>
<path d="M167.552 115.449V123.921L112.623 151.124L57.6912 123.921V115.449L66.2873 119.705L112.623 142.654L158.876 119.747L167.552 115.449Z" fill="#FFDE84" stroke="black" stroke-width="0.188696" stroke-miterlimit="10"/>
<path d="M167.552 115.45L158.876 119.748L112.623 142.655L66.2873 119.706L57.6912 115.45L112.098 88.7695L167.552 115.45Z" fill="url(#paint2_linear_3066_8906)" stroke="black" stroke-width="0.188696" stroke-miterlimit="10"/>
<line x1="112.716" y1="142.654" x2="112.716" y2="151.125" stroke="black" stroke-width="0.190602"/>
<path d="M472.688 349.535V358.007L417.758 385.21L362.827 358.007V349.535L371.423 353.791L417.758 376.74L464.011 353.833L472.688 349.535Z" fill="#FFDE84" stroke="black" stroke-width="0.188696" stroke-miterlimit="10"/>
<path d="M472.688 349.536L464.011 353.834L417.758 376.741L371.423 353.792L362.827 349.536L417.234 322.855L472.688 349.536Z" fill="url(#paint3_linear_3066_8906)" stroke="black" stroke-width="0.188696" stroke-miterlimit="10"/>
<line x1="417.852" y1="376.74" x2="417.852" y2="385.211" stroke="black" stroke-width="0.190602"/>
<path d="M354.426 353.609L349.931 350.465L349.456 355.929L354.426 353.609ZM350.248 352.77C336.885 350.437 324.813 336.969 316.069 316.312C307.341 295.691 301.994 268.047 301.994 237.648H301.044C301.044 268.148 306.407 295.922 315.195 316.682C323.967 337.407 336.219 351.285 350.084 353.706L350.248 352.77ZM301.994 237.648C301.994 205.679 307.907 176.758 317.447 155.847C327.006 134.894 340.116 122.159 354.426 122.159V121.209C339.516 121.209 326.172 134.435 316.583 155.453C306.974 176.514 301.044 205.575 301.044 237.648H301.994Z" fill="black"/>
<path d="M43.6787 164.579L38.9845 161.708L38.8458 167.209L43.6787 164.579ZM39.4128 163.995C28.6242 163.448 19.0427 160.85 12.1749 156.998C5.28823 153.136 1.23774 148.083 1.23774 142.655H0.284726C0.284726 148.595 4.70381 153.9 11.7088 157.829C18.7326 161.768 28.4649 164.394 39.3646 164.946L39.4128 163.995ZM1.23774 142.655C1.23774 136.873 5.8361 131.516 13.5483 127.577C21.2348 123.65 31.8868 121.207 43.6787 121.207V120.254C31.768 120.254 20.9613 122.719 13.1147 126.728C5.29382 130.723 0.284726 136.329 0.284726 142.655H1.23774Z" fill="black"/>
<path d="M43.6787 214.081L38.9845 211.21L38.8458 216.711L43.6787 214.081ZM39.4128 213.497C28.6242 212.95 19.0427 210.351 12.1749 206.5C5.28823 202.638 1.23774 197.585 1.23774 192.157H0.284726C0.284726 198.097 4.70381 203.402 11.7088 207.331C18.7326 211.27 28.4649 213.896 39.3646 214.448L39.4128 213.497ZM1.23774 192.157C1.23774 186.375 5.8361 181.018 13.5483 177.079C21.2348 173.152 31.8868 170.709 43.6787 170.709V169.756C31.768 169.756 20.9613 172.221 13.1147 176.23C5.29382 180.225 0.284726 185.831 0.284726 192.157H1.23774Z" fill="black"/>
<path d="M43.6787 350.121L39.0444 347.155L38.7928 352.652L43.6787 350.121ZM39.4392 349.451C17.9613 347.473 1.23774 330.649 1.23774 310.247H0.284726C0.284726 331.202 17.4465 348.383 39.3518 350.4L39.4392 349.451ZM1.23774 310.247C1.23774 288.521 20.2057 270.848 43.6787 270.848V269.895C19.7466 269.895 0.284726 287.93 0.284726 310.247H1.23774Z" fill="black"/>
<path d="M43.6787 264.151L38.9845 261.281L38.8458 266.781L43.6787 264.151ZM39.4128 263.567C28.6242 263.02 19.0427 260.422 12.1749 256.57C5.28823 252.708 1.23774 247.655 1.23774 242.227H0.284726C0.284726 248.168 4.70381 253.473 11.7088 257.401C18.7326 261.341 28.4649 263.966 39.3646 264.519L39.4128 263.567ZM1.23774 242.227C1.23774 236.446 5.8361 231.089 13.5483 227.149C21.2348 223.222 31.8868 220.779 43.6787 220.779V219.826C31.768 219.826 20.9613 222.292 13.1147 226.3C5.29382 230.296 0.284726 235.901 0.284726 242.227H1.23774Z" fill="black"/>
<path d="M479.649 122.257L484.143 125.4L484.619 119.936L479.649 122.257ZM483.827 123.095C497.19 125.428 509.261 138.896 518.006 159.553C526.734 180.175 532.081 207.818 532.081 238.217H533.031C533.031 207.718 527.668 179.943 518.88 159.183C510.108 138.458 497.856 124.58 483.991 122.159L483.827 123.095ZM532.081 238.217C532.081 270.186 526.168 299.107 516.628 320.018C507.069 340.971 493.959 353.707 479.649 353.707V354.657C494.559 354.657 507.903 341.431 517.492 320.412C527.101 299.351 533.031 270.29 533.031 238.217H532.081Z" fill="black"/>
<path d="M176.259 120.73L180.954 123.6L181.092 118.1L176.259 120.73ZM180.525 121.314C191.314 121.861 200.895 124.459 207.763 128.311C214.65 132.173 218.7 137.226 218.7 142.654H219.653C219.653 136.713 215.234 131.408 208.229 127.48C201.205 123.54 191.473 120.915 180.574 120.362L180.525 121.314ZM218.7 142.654C218.7 148.435 214.102 153.792 206.39 157.732C198.703 161.659 188.051 164.102 176.259 164.102V165.055C188.17 165.055 198.977 162.589 206.823 158.581C214.644 154.585 219.653 148.98 219.653 142.654H218.7Z" fill="black"/>
<path d="M176.259 170.234L180.954 173.104L181.092 167.604L176.259 170.234ZM180.525 170.818C191.314 171.365 200.895 173.963 207.763 177.815C214.65 181.677 218.7 186.73 218.7 192.158H219.653C219.653 186.217 215.234 180.912 208.229 176.983C201.205 173.044 191.473 170.419 180.574 169.866L180.525 170.818ZM218.7 192.158C218.7 197.939 214.102 203.296 206.39 207.236C198.703 211.163 188.051 213.606 176.259 213.606V214.559C188.17 214.559 198.977 212.093 206.823 208.085C214.644 204.089 219.653 198.484 219.653 192.158H218.7Z" fill="black"/>
<path d="M176.259 270.371L180.894 273.337L181.145 267.841L176.259 270.371ZM180.499 271.041C201.977 273.019 218.7 289.844 218.7 310.245H219.653C219.653 289.29 202.492 272.109 180.586 270.092L180.499 271.041ZM218.7 310.245C218.7 331.971 199.732 349.645 176.259 349.645V350.598C200.192 350.598 219.653 332.562 219.653 310.245H218.7Z" fill="black"/>
<path d="M176.259 220.302L180.954 223.173L181.092 217.672L176.259 220.302ZM180.525 220.886C191.314 221.433 200.895 224.031 207.763 227.883C214.65 231.745 218.7 236.798 218.7 242.226H219.653C219.653 236.286 215.234 230.98 208.229 227.052C201.205 223.113 191.473 220.487 180.574 219.934L180.525 220.886ZM218.7 242.226C218.7 248.007 214.102 253.364 206.39 257.304C198.703 261.231 188.051 263.674 176.259 263.674V264.627C188.17 264.627 198.977 262.161 206.823 258.153C214.644 254.158 219.653 248.552 219.653 242.226H218.7Z" fill="black"/>
<path d="M416.638 161.222C416.521 161.105 416.332 161.105 416.215 161.222L414.31 163.127C414.193 163.244 414.193 163.433 414.31 163.55C414.427 163.667 414.616 163.667 414.733 163.55L416.427 161.857L418.12 163.55C418.237 163.667 418.426 163.667 418.543 163.55C418.66 163.433 418.66 163.244 418.543 163.127L416.638 161.222ZM416.215 299.118C416.332 299.235 416.521 299.235 416.638 299.118L418.543 297.213C418.66 297.096 418.66 296.907 418.543 296.79C418.426 296.673 418.237 296.673 418.12 296.79L416.427 298.483L414.733 296.79C414.616 296.673 414.427 296.673 414.31 296.79C414.193 296.907 414.193 297.096 414.31 297.213L416.215 299.118ZM416.127 161.434L416.127 162.508L416.726 162.508L416.726 161.434L416.127 161.434ZM416.127 164.656L416.127 166.804L416.726 166.804L416.726 164.656L416.127 164.656ZM416.127 168.952L416.127 171.1L416.726 171.1L416.726 168.952L416.127 168.952ZM416.127 173.248L416.127 175.396L416.726 175.396L416.726 173.248L416.127 173.248ZM416.127 177.544L416.127 179.692L416.726 179.692L416.726 177.544L416.127 177.544ZM416.127 181.84L416.127 183.988L416.726 183.988L416.726 181.84L416.127 181.84ZM416.127 186.136L416.127 188.284L416.726 188.284L416.726 186.136L416.127 186.136ZM416.127 190.432L416.127 192.58L416.726 192.58L416.726 190.432L416.127 190.432ZM416.127 194.728L416.127 196.876L416.726 196.876L416.726 194.728L416.127 194.728ZM416.127 199.024L416.127 201.172L416.726 201.172L416.726 199.024L416.127 199.024ZM416.127 203.32L416.127 205.468L416.726 205.468L416.726 203.32L416.127 203.32ZM416.127 207.616L416.127 209.764L416.726 209.764L416.726 207.616L416.127 207.616ZM416.127 211.912L416.127 214.06L416.726 214.06L416.726 211.912L416.127 211.912ZM416.127 216.208L416.127 218.356L416.726 218.356L416.726 216.208L416.127 216.208ZM416.127 220.504L416.127 222.652L416.726 222.652L416.726 220.504L416.127 220.504ZM416.127 224.8L416.127 226.948L416.726 226.948L416.726 224.8L416.127 224.8ZM416.127 229.096L416.127 231.244L416.726 231.244L416.726 229.096L416.127 229.096ZM416.127 233.392L416.127 235.54L416.726 235.54L416.726 233.392L416.127 233.392ZM416.127 237.688L416.127 239.836L416.726 239.836L416.726 237.688L416.127 237.688ZM416.127 241.984L416.127 244.132L416.726 244.132L416.726 241.984L416.127 241.984ZM416.127 246.28L416.127 248.428L416.726 248.428L416.726 246.28L416.127 246.28ZM416.127 250.576L416.127 252.724L416.726 252.724L416.726 250.576L416.127 250.576ZM416.127 254.872L416.127 257.02L416.726 257.02L416.726 254.872L416.127 254.872ZM416.127 259.168L416.127 261.316L416.726 261.316L416.726 259.168L416.127 259.168ZM416.127 263.464L416.127 265.612L416.726 265.612L416.726 263.464L416.127 263.464ZM416.127 267.76L416.127 269.908L416.726 269.908L416.726 267.76L416.127 267.76ZM416.127 272.056L416.127 274.204L416.726 274.204L416.726 272.056L416.127 272.056ZM416.127 276.352L416.127 278.5L416.726 278.5L416.726 276.352L416.127 276.352ZM416.127 280.648L416.127 282.796L416.726 282.796L416.726 280.648L416.127 280.648ZM416.127 284.944L416.127 287.092L416.726 287.092L416.726 284.944L416.127 284.944ZM416.127 289.24L416.127 291.388L416.726 291.388L416.726 289.24L416.127 289.24ZM416.127 293.536L416.127 295.684L416.726 295.684L416.726 293.536L416.127 293.536ZM416.127 297.832L416.127 298.906L416.726 298.906L416.726 297.832L416.127 297.832ZM416.85 161.01C416.616 160.776 416.237 160.776 416.003 161.01L412.193 164.82C411.959 165.054 411.959 165.433 412.193 165.667C412.427 165.901 412.806 165.901 413.04 165.667L416.427 162.28L419.813 165.667C420.047 165.901 420.426 165.901 420.66 165.667C420.894 165.433 420.894 165.054 420.66 164.82L416.85 161.01ZM416.003 299.33C416.237 299.564 416.616 299.564 416.85 299.33L420.66 295.52C420.894 295.286 420.894 294.907 420.66 294.673C420.426 294.439 420.047 294.439 419.813 294.673L416.427 298.06L413.04 294.673C412.806 294.439 412.427 294.439 412.193 294.673C411.959 294.907 411.959 295.286 412.193 295.52L416.003 299.33ZM415.828 161.434L415.828 162.508L417.025 162.508L417.025 161.434L415.828 161.434ZM415.828 164.656L415.828 166.804L417.025 166.804L417.025 164.656L415.828 164.656ZM415.828 168.952L415.828 171.1L417.025 171.1L417.025 168.952L415.828 168.952ZM415.828 173.248L415.828 175.396L417.025 175.396L417.025 173.248L415.828 173.248ZM415.828 177.544L415.828 179.692L417.025 179.692L417.025 177.544L415.828 177.544ZM415.828 181.84L415.828 183.988L417.025 183.988L417.025 181.84L415.828 181.84ZM415.828 186.136L415.828 188.284L417.025 188.284L417.025 186.136L415.828 186.136ZM415.828 190.432L415.828 192.58L417.025 192.58L417.025 190.432L415.828 190.432ZM415.828 194.728L415.828 196.876L417.025 196.876L417.025 194.728L415.828 194.728ZM415.828 199.024L415.828 201.172L417.025 201.172L417.025 199.024L415.828 199.024ZM415.828 203.32L415.828 205.468L417.025 205.468L417.025 203.32L415.828 203.32ZM415.828 207.616L415.828 209.764L417.025 209.764L417.025 207.616L415.828 207.616ZM415.828 211.912L415.828 214.06L417.025 214.06L417.025 211.912L415.828 211.912ZM415.828 216.208L415.828 218.356L417.025 218.356L417.025 216.208L415.828 216.208ZM415.828 220.504L415.828 222.652L417.025 222.652L417.025 220.504L415.828 220.504ZM415.828 224.8L415.828 226.948L417.025 226.948L417.025 224.8L415.828 224.8ZM415.828 229.096L415.828 231.244L417.025 231.244L417.025 229.096L415.828 229.096ZM415.828 233.392L415.828 235.54L417.025 235.54L417.025 233.392L415.828 233.392ZM415.828 237.688L415.828 239.836L417.025 239.836L417.025 237.688L415.828 237.688ZM415.828 241.984L415.828 244.132L417.025 244.132L417.025 241.984L415.828 241.984ZM415.828 246.28L415.828 248.428L417.025 248.428L417.025 246.28L415.828 246.28ZM415.828 250.576L415.828 252.724L417.025 252.724L417.025 250.576L415.828 250.576ZM415.828 254.872L415.828 257.02L417.025 257.02L417.025 254.872L415.828 254.872ZM415.828 259.168L415.828 261.316L417.025 261.316L417.025 259.168L415.828 259.168ZM415.828 263.464L415.828 265.612L417.025 265.612L417.025 263.464L415.828 263.464ZM415.828 267.76L415.828 269.908L417.025 269.908L417.025 267.76L415.828 267.76ZM415.828 272.056L415.828 274.204L417.025 274.204L417.025 272.056L415.828 272.056ZM415.828 276.352L415.828 278.5L417.025 278.5L417.025 276.352L415.828 276.352ZM415.828 280.648L415.828 282.796L417.025 282.796L417.025 280.648L415.828 280.648ZM415.828 284.944L415.828 287.092L417.025 287.092L417.025 284.944L415.828 284.944ZM415.828 289.24L415.828 291.388L417.025 291.388L417.025 289.24L415.828 289.24ZM415.828 293.536L415.828 295.684L417.025 295.684L417.025 293.536L415.828 293.536ZM415.828 297.832L415.828 298.906L417.025 298.906L417.025 297.832L415.828 297.832Z" fill="#939393"/>
<path d="M389.743 120.422V112.585H392.613C393.169 112.585 393.629 112.676 393.994 112.86C394.359 113.041 394.632 113.287 394.813 113.599C394.994 113.907 395.085 114.256 395.085 114.643C395.085 114.97 395.025 115.245 394.905 115.47C394.785 115.692 394.624 115.87 394.423 116.006C394.224 116.138 394.004 116.235 393.765 116.297V116.373C394.025 116.386 394.279 116.47 394.526 116.626C394.776 116.779 394.983 116.997 395.146 117.28C395.309 117.563 395.391 117.908 395.391 118.313C395.391 118.714 395.297 119.074 395.108 119.392C394.922 119.709 394.633 119.96 394.243 120.146C393.853 120.33 393.354 120.422 392.747 120.422H389.743ZM390.925 119.408H392.632C393.198 119.408 393.604 119.298 393.849 119.079C394.094 118.859 394.216 118.585 394.216 118.256C394.216 118.008 394.154 117.781 394.029 117.575C393.904 117.368 393.725 117.204 393.493 117.081C393.263 116.959 392.99 116.897 392.674 116.897H390.925V119.408ZM390.925 115.975H392.509C392.775 115.975 393.013 115.924 393.225 115.822C393.439 115.72 393.609 115.577 393.734 115.393C393.862 115.207 393.925 114.988 393.925 114.735C393.925 114.411 393.812 114.139 393.585 113.92C393.358 113.701 393.009 113.591 392.54 113.591H390.925V115.975ZM400.201 120.541C399.65 120.541 399.169 120.414 398.759 120.162C398.348 119.909 398.029 119.556 397.802 119.102C397.575 118.647 397.461 118.117 397.461 117.51C397.461 116.9 397.575 116.367 397.802 115.91C398.029 115.453 398.348 115.099 398.759 114.846C399.169 114.594 399.65 114.467 400.201 114.467C400.753 114.467 401.233 114.594 401.644 114.846C402.055 115.099 402.374 115.453 402.601 115.91C402.828 116.367 402.941 116.9 402.941 117.51C402.941 118.117 402.828 118.647 402.601 119.102C402.374 119.556 402.055 119.909 401.644 120.162C401.233 120.414 400.753 120.541 400.201 120.541ZM400.205 119.58C400.562 119.58 400.858 119.486 401.093 119.297C401.328 119.108 401.501 118.857 401.614 118.543C401.728 118.229 401.786 117.883 401.786 117.506C401.786 117.131 401.728 116.786 401.614 116.473C401.501 116.156 401.328 115.902 401.093 115.711C400.858 115.52 400.562 115.424 400.205 115.424C399.846 115.424 399.547 115.52 399.31 115.711C399.075 115.902 398.9 116.156 398.786 116.473C398.673 116.786 398.617 117.131 398.617 117.506C398.617 117.883 398.673 118.229 398.786 118.543C398.9 118.857 399.075 119.108 399.31 119.297C399.547 119.486 399.846 119.58 400.205 119.58ZM405.242 120.422V114.544H406.348V115.478H406.41C406.517 115.161 406.706 114.913 406.976 114.731C407.249 114.548 407.558 114.456 407.902 114.456C407.974 114.456 408.058 114.458 408.155 114.463C408.254 114.469 408.332 114.475 408.388 114.483V115.577C408.342 115.564 408.261 115.55 408.143 115.535C408.026 115.517 407.908 115.508 407.791 115.508C407.521 115.508 407.28 115.566 407.068 115.68C406.859 115.793 406.693 115.95 406.57 116.151C406.448 116.35 406.387 116.577 406.387 116.832V120.422H405.242ZM410.402 120.422V114.544H411.508V115.478H411.569C411.676 115.161 411.865 114.913 412.136 114.731C412.409 114.548 412.717 114.456 413.062 114.456C413.133 114.456 413.217 114.458 413.314 114.463C413.414 114.469 413.492 114.475 413.548 114.483V115.577C413.502 115.564 413.42 115.55 413.303 115.535C413.185 115.517 413.068 115.508 412.951 115.508C412.68 115.508 412.439 115.566 412.227 115.68C412.018 115.793 411.852 115.95 411.73 116.151C411.608 116.35 411.546 116.577 411.546 116.832V120.422H410.402ZM417.827 120.541C417.276 120.541 416.795 120.414 416.384 120.162C415.974 119.909 415.655 119.556 415.428 119.102C415.201 118.647 415.087 118.117 415.087 117.51C415.087 116.9 415.201 116.367 415.428 115.91C415.655 115.453 415.974 115.099 416.384 114.846C416.795 114.594 417.276 114.467 417.827 114.467C418.378 114.467 418.859 114.594 419.27 114.846C419.681 115.099 420 115.453 420.227 115.91C420.454 116.367 420.567 116.9 420.567 117.51C420.567 118.117 420.454 118.647 420.227 119.102C420 119.556 419.681 119.909 419.27 120.162C418.859 120.414 418.378 120.541 417.827 120.541ZM417.831 119.58C418.188 119.58 418.484 119.486 418.719 119.297C418.954 119.108 419.127 118.857 419.239 118.543C419.354 118.229 419.411 117.883 419.411 117.506C419.411 117.131 419.354 116.786 419.239 116.473C419.127 116.156 418.954 115.902 418.719 115.711C418.484 115.52 418.188 115.424 417.831 115.424C417.471 115.424 417.173 115.52 416.936 115.711C416.701 115.902 416.526 116.156 416.411 116.473C416.299 116.786 416.243 117.131 416.243 117.506C416.243 117.883 416.299 118.229 416.411 118.543C416.526 118.857 416.701 119.108 416.936 119.297C417.173 119.486 417.471 119.58 417.831 119.58ZM423.964 120.422L422.234 114.544H423.416L424.568 118.861H424.626L425.781 114.544H426.964L428.112 118.841H428.169L429.313 114.544H430.496L428.77 120.422H427.603L426.409 116.178H426.321L425.127 120.422H423.964ZM434.96 120.541C434.381 120.541 433.882 120.417 433.464 120.169C433.048 119.919 432.726 119.568 432.499 119.117C432.275 118.663 432.163 118.131 432.163 117.521C432.163 116.919 432.275 116.388 432.499 115.929C432.726 115.47 433.043 115.111 433.448 114.854C433.857 114.596 434.334 114.467 434.88 114.467C435.211 114.467 435.533 114.522 435.844 114.632C436.155 114.742 436.435 114.914 436.682 115.148C436.93 115.383 437.125 115.688 437.268 116.063C437.411 116.436 437.482 116.888 437.482 117.422V117.827H432.809V116.97H436.361C436.361 116.669 436.299 116.402 436.177 116.17C436.055 115.936 435.882 115.751 435.66 115.615C435.441 115.48 435.183 115.413 434.887 115.413C434.566 115.413 434.285 115.492 434.045 115.65C433.808 115.805 433.625 116.01 433.494 116.262C433.367 116.512 433.303 116.784 433.303 117.077V117.747C433.303 118.14 433.372 118.474 433.51 118.75C433.65 119.025 433.845 119.236 434.095 119.381C434.345 119.524 434.637 119.595 434.972 119.595C435.188 119.595 435.386 119.565 435.565 119.503C435.743 119.44 435.898 119.345 436.028 119.22C436.158 119.095 436.257 118.941 436.326 118.757L437.409 118.952C437.323 119.271 437.167 119.551 436.942 119.79C436.72 120.028 436.441 120.213 436.104 120.345C435.77 120.475 435.389 120.541 434.96 120.541ZM439.775 120.422V114.544H440.881V115.478H440.942C441.05 115.161 441.238 114.913 441.509 114.731C441.782 114.548 442.091 114.456 442.435 114.456C442.506 114.456 442.591 114.458 442.687 114.463C442.787 114.469 442.865 114.475 442.921 114.483V115.577C442.875 115.564 442.793 115.55 442.676 115.535C442.559 115.517 442.441 115.508 442.324 115.508C442.054 115.508 441.812 115.566 441.601 115.68C441.391 115.793 441.226 115.95 441.103 116.151C440.981 116.35 440.919 116.577 440.919 116.832V120.422H439.775Z" fill="black"/>
<path d="M86.3568 119.818V111.981H89.2269C89.7831 111.981 90.2436 112.073 90.6084 112.257C90.9732 112.438 91.2462 112.684 91.4273 112.995C91.6085 113.304 91.699 113.652 91.699 114.04C91.699 114.366 91.6391 114.642 91.5192 114.866C91.3993 115.088 91.2385 115.267 91.037 115.402C90.838 115.535 90.6186 115.632 90.3788 115.693V115.77C90.639 115.782 90.8929 115.867 91.1403 116.022C91.3903 116.175 91.597 116.393 91.7603 116.677C91.9235 116.96 92.0052 117.304 92.0052 117.71C92.0052 118.11 91.9108 118.47 91.722 118.789C91.5358 119.105 91.2475 119.357 90.8571 119.543C90.4668 119.727 89.968 119.818 89.3608 119.818H86.3568ZM87.5393 118.804H89.246C89.8124 118.804 90.2181 118.695 90.463 118.475C90.7079 118.256 90.8303 117.981 90.8303 117.652C90.8303 117.405 90.7678 117.178 90.6428 116.971C90.5178 116.765 90.3392 116.6 90.1071 116.478C89.8775 116.355 89.6045 116.294 89.2881 116.294H87.5393V118.804ZM87.5393 115.372H89.1236C89.3889 115.372 89.6274 115.321 89.8392 115.218C90.0535 115.116 90.2232 114.974 90.3482 114.79C90.4757 114.604 90.5395 114.384 90.5395 114.132C90.5395 113.808 90.426 113.536 90.1989 113.317C89.9719 113.097 89.6236 112.987 89.1542 112.987H87.5393V115.372ZM96.8156 119.937C96.2645 119.937 95.7836 119.811 95.3729 119.558C94.9621 119.306 94.6432 118.952 94.4162 118.498C94.1891 118.044 94.0756 117.513 94.0756 116.906C94.0756 116.296 94.1891 115.763 94.4162 115.307C94.6432 114.85 94.9621 114.495 95.3729 114.243C95.7836 113.99 96.2645 113.864 96.8156 113.864C97.3667 113.864 97.8476 113.99 98.2583 114.243C98.6691 114.495 98.988 114.85 99.215 115.307C99.4421 115.763 99.5556 116.296 99.5556 116.906C99.5556 117.513 99.4421 118.044 99.215 118.498C98.988 118.952 98.6691 119.306 98.2583 119.558C97.8476 119.811 97.3667 119.937 96.8156 119.937ZM96.8194 118.976C97.1766 118.976 97.4725 118.882 97.7073 118.693C97.942 118.504 98.1154 118.253 98.2277 117.939C98.3425 117.626 98.3999 117.28 98.3999 116.902C98.3999 116.527 98.3425 116.183 98.2277 115.869C98.1154 115.553 97.942 115.299 97.7073 115.108C97.4725 114.916 97.1766 114.821 96.8194 114.821C96.4597 114.821 96.1612 114.916 95.9239 115.108C95.6892 115.299 95.5145 115.553 95.3997 115.869C95.2874 116.183 95.2313 116.527 95.2313 116.902C95.2313 117.28 95.2874 117.626 95.3997 117.939C95.5145 118.253 95.6892 118.504 95.9239 118.693C96.1612 118.882 96.4597 118.976 96.8194 118.976ZM101.857 119.818V113.94H102.963V114.874H103.024C103.131 114.558 103.32 114.309 103.59 114.128C103.863 113.944 104.172 113.852 104.516 113.852C104.588 113.852 104.672 113.855 104.769 113.86C104.868 113.865 104.946 113.871 105.002 113.879V114.974C104.956 114.961 104.875 114.947 104.757 114.931C104.64 114.914 104.523 114.905 104.405 114.905C104.135 114.905 103.894 114.962 103.682 115.077C103.473 115.189 103.307 115.346 103.184 115.548C103.062 115.747 103.001 115.974 103.001 116.229V119.818H101.857ZM107.016 119.818V113.94H108.122V114.874H108.183C108.291 114.558 108.479 114.309 108.75 114.128C109.023 113.944 109.331 113.852 109.676 113.852C109.747 113.852 109.831 113.855 109.928 113.86C110.028 113.865 110.106 113.871 110.162 113.879V114.974C110.116 114.961 110.034 114.947 109.917 114.931C109.8 114.914 109.682 114.905 109.565 114.905C109.294 114.905 109.053 114.962 108.842 115.077C108.632 115.189 108.467 115.346 108.344 115.548C108.222 115.747 108.16 115.974 108.16 116.229V119.818H107.016ZM114.441 119.937C113.89 119.937 113.409 119.811 112.999 119.558C112.588 119.306 112.269 118.952 112.042 118.498C111.815 118.044 111.701 117.513 111.701 116.906C111.701 116.296 111.815 115.763 112.042 115.307C112.269 114.85 112.588 114.495 112.999 114.243C113.409 113.99 113.89 113.864 114.441 113.864C114.992 113.864 115.473 113.99 115.884 114.243C116.295 114.495 116.614 114.85 116.841 115.307C117.068 115.763 117.181 116.296 117.181 116.906C117.181 117.513 117.068 118.044 116.841 118.498C116.614 118.952 116.295 119.306 115.884 119.558C115.473 119.811 114.992 119.937 114.441 119.937ZM114.445 118.976C114.802 118.976 115.098 118.882 115.333 118.693C115.568 118.504 115.741 118.253 115.853 117.939C115.968 117.626 116.026 117.28 116.026 116.902C116.026 116.527 115.968 116.183 115.853 115.869C115.741 115.553 115.568 115.299 115.333 115.108C115.098 114.916 114.802 114.821 114.445 114.821C114.085 114.821 113.787 114.916 113.55 115.108C113.315 115.299 113.14 115.553 113.025 115.869C112.913 116.183 112.857 116.527 112.857 116.902C112.857 117.28 112.913 117.626 113.025 117.939C113.14 118.253 113.315 118.504 113.55 118.693C113.787 118.882 114.085 118.976 114.445 118.976ZM120.578 119.818L118.848 113.94H120.03L121.182 118.257H121.24L122.395 113.94H123.578L124.726 118.238H124.783L125.928 113.94H127.11L125.384 119.818H124.217L123.023 115.574H122.935L121.741 119.818H120.578ZM131.574 119.937C130.995 119.937 130.496 119.813 130.078 119.566C129.662 119.316 129.341 118.965 129.114 118.513C128.889 118.059 128.777 117.527 128.777 116.918C128.777 116.316 128.889 115.785 129.114 115.326C129.341 114.866 129.657 114.508 130.063 114.25C130.471 113.993 130.948 113.864 131.494 113.864C131.826 113.864 132.147 113.919 132.458 114.028C132.769 114.138 133.049 114.31 133.296 114.545C133.544 114.78 133.739 115.085 133.882 115.46C134.025 115.832 134.096 116.285 134.096 116.818V117.224H129.424V116.367H132.975C132.975 116.066 132.914 115.799 132.791 115.567C132.669 115.332 132.496 115.147 132.275 115.012C132.055 114.877 131.797 114.809 131.501 114.809C131.18 114.809 130.899 114.888 130.66 115.046C130.422 115.202 130.239 115.406 130.109 115.659C129.981 115.909 129.917 116.18 129.917 116.474V117.143C129.917 117.536 129.986 117.87 130.124 118.146C130.264 118.422 130.459 118.632 130.709 118.777C130.959 118.92 131.251 118.992 131.586 118.992C131.803 118.992 132 118.961 132.179 118.9C132.357 118.836 132.512 118.742 132.642 118.617C132.772 118.492 132.872 118.337 132.94 118.154L134.023 118.349C133.937 118.668 133.781 118.947 133.557 119.187C133.335 119.424 133.055 119.609 132.718 119.742C132.384 119.872 132.003 119.937 131.574 119.937ZM136.389 119.818V113.94H137.495V114.874H137.557C137.664 114.558 137.853 114.309 138.123 114.128C138.396 113.944 138.705 113.852 139.049 113.852C139.12 113.852 139.205 113.855 139.302 113.86C139.401 113.865 139.479 113.871 139.535 113.879V114.974C139.489 114.961 139.408 114.947 139.29 114.931C139.173 114.914 139.055 114.905 138.938 114.905C138.668 114.905 138.427 114.962 138.215 115.077C138.006 115.189 137.84 115.346 137.717 115.548C137.595 115.747 137.534 115.974 137.534 116.229V119.818H136.389Z" fill="black"/>
<path d="M77.4743 165.337V160.536H78.4296V165.337H77.4743ZM75.5532 163.412V162.461H80.3543V163.412H75.5532ZM86.6284 166.559V159.286H89.2918C89.8079 159.286 90.2352 159.371 90.5737 159.542C90.9123 159.71 91.1656 159.938 91.3337 160.227C91.5017 160.513 91.5858 160.837 91.5858 161.196C91.5858 161.499 91.5302 161.755 91.4189 161.963C91.3076 162.169 91.1585 162.335 90.9714 162.461C90.7868 162.584 90.5832 162.674 90.3606 162.73V162.801C90.6021 162.813 90.8377 162.891 91.0673 163.036C91.2993 163.178 91.4911 163.38 91.6426 163.643C91.7941 163.906 91.8699 164.225 91.8699 164.602C91.8699 164.974 91.7823 165.307 91.6071 165.603C91.4343 165.897 91.1668 166.13 90.8045 166.303C90.4423 166.473 89.9795 166.559 89.416 166.559H86.6284ZM87.7257 165.618H89.3095C89.8351 165.618 90.2115 165.516 90.4388 165.312C90.666 165.109 90.7797 164.854 90.7797 164.549C90.7797 164.319 90.7217 164.108 90.6057 163.917C90.4897 163.725 90.3239 163.572 90.1085 163.458C89.8954 163.345 89.6421 163.288 89.3486 163.288H87.7257V165.618ZM87.7257 162.432H89.1959C89.4421 162.432 89.6634 162.385 89.8599 162.29C90.0588 162.195 90.2162 162.063 90.3322 161.892C90.4506 161.72 90.5098 161.516 90.5098 161.282C90.5098 160.981 90.4044 160.729 90.1937 160.525C89.983 160.322 89.6599 160.22 89.2243 160.22H87.7257V162.432ZM94.0361 166.559V161.104H95.0624V161.971H95.1192C95.2187 161.677 95.3939 161.446 95.6448 161.278C95.8981 161.108 96.1846 161.022 96.5042 161.022C96.5705 161.022 96.6486 161.025 96.7386 161.029C96.8309 161.034 96.9031 161.04 96.9552 161.047V162.063C96.9126 162.051 96.8368 162.038 96.7279 162.024C96.619 162.007 96.5101 161.999 96.4012 161.999C96.1503 161.999 95.9265 162.052 95.73 162.159C95.5359 162.263 95.382 162.408 95.2684 162.596C95.1547 162.78 95.0979 162.991 95.0979 163.228V166.559H94.0361ZM100.926 166.669C100.415 166.669 99.9687 166.551 99.5875 166.317C99.2064 166.083 98.9104 165.755 98.6997 165.333C98.489 164.912 98.3837 164.42 98.3837 163.856C98.3837 163.29 98.489 162.796 98.6997 162.372C98.9104 161.948 99.2064 161.619 99.5875 161.385C99.9687 161.15 100.415 161.033 100.926 161.033C101.438 161.033 101.884 161.15 102.265 161.385C102.646 161.619 102.942 161.948 103.153 162.372C103.364 162.796 103.469 163.29 103.469 163.856C103.469 164.42 103.364 164.912 103.153 165.333C102.942 165.755 102.646 166.083 102.265 166.317C101.884 166.551 101.438 166.669 100.926 166.669ZM100.93 165.777C101.261 165.777 101.536 165.69 101.754 165.515C101.972 165.339 102.133 165.106 102.237 164.815C102.343 164.524 102.396 164.203 102.396 163.853C102.396 163.505 102.343 163.185 102.237 162.894C102.133 162.6 101.972 162.365 101.754 162.187C101.536 162.01 101.261 161.921 100.93 161.921C100.596 161.921 100.319 162.01 100.099 162.187C99.8811 162.365 99.7189 162.6 99.6124 162.894C99.5082 163.185 99.4561 163.505 99.4561 163.853C99.4561 164.203 99.5082 164.524 99.6124 164.815C99.7189 165.106 99.8811 165.339 100.099 165.515C100.319 165.69 100.596 165.777 100.93 165.777ZM106.581 164.708L106.574 163.412H106.758L108.932 161.104H110.203L107.724 163.732H107.557L106.581 164.708ZM105.604 166.559V159.286H106.666V166.559H105.604ZM109.049 166.559L107.096 163.966L107.827 163.224L110.352 166.559H109.049ZM114.247 166.669C113.709 166.669 113.247 166.554 112.858 166.324C112.472 166.092 112.174 165.767 111.963 165.348C111.755 164.926 111.651 164.433 111.651 163.867C111.651 163.308 111.755 162.816 111.963 162.39C112.174 161.963 112.468 161.631 112.844 161.392C113.223 161.153 113.666 161.033 114.172 161.033C114.48 161.033 114.778 161.084 115.067 161.186C115.356 161.288 115.615 161.447 115.845 161.665C116.074 161.883 116.256 162.166 116.388 162.514C116.521 162.859 116.587 163.28 116.587 163.775V164.151H112.251V163.355H115.546C115.546 163.076 115.49 162.829 115.376 162.613C115.262 162.395 115.103 162.224 114.897 162.098C114.693 161.973 114.454 161.91 114.179 161.91C113.881 161.91 113.621 161.984 113.398 162.13C113.178 162.275 113.007 162.464 112.887 162.699C112.768 162.931 112.709 163.183 112.709 163.455V164.076C112.709 164.441 112.773 164.751 112.901 165.007C113.031 165.262 113.212 165.458 113.444 165.593C113.676 165.725 113.947 165.792 114.257 165.792C114.459 165.792 114.642 165.763 114.808 165.706C114.974 165.647 115.117 165.56 115.238 165.444C115.358 165.328 115.451 165.184 115.515 165.014L116.519 165.195C116.439 165.491 116.295 165.75 116.086 165.973C115.88 166.193 115.621 166.364 115.309 166.488C114.998 166.608 114.644 166.669 114.247 166.669ZM118.715 166.559V161.104H119.741V161.971H119.798C119.898 161.677 120.073 161.446 120.324 161.278C120.577 161.108 120.863 161.022 121.183 161.022C121.249 161.022 121.328 161.025 121.417 161.029C121.51 161.034 121.582 161.04 121.634 161.047V162.063C121.591 162.051 121.516 162.038 121.407 162.024C121.298 162.007 121.189 161.999 121.08 161.999C120.829 161.999 120.605 162.052 120.409 162.159C120.215 162.263 120.061 162.408 119.947 162.596C119.834 162.78 119.777 162.991 119.777 163.228V166.559H118.715ZM127.185 166.559V159.286H131.695V160.23H128.282V162.446H131.371V163.387H128.282V166.559H127.185ZM135.859 166.669C135.322 166.669 134.859 166.554 134.471 166.324C134.085 166.092 133.787 165.767 133.576 165.348C133.368 164.926 133.263 164.433 133.263 163.867C133.263 163.308 133.368 162.816 133.576 162.39C133.787 161.963 134.08 161.631 134.457 161.392C134.835 161.153 135.278 161.033 135.785 161.033C136.092 161.033 136.391 161.084 136.68 161.186C136.968 161.288 137.228 161.447 137.457 161.665C137.687 161.883 137.868 162.166 138.001 162.514C138.133 162.859 138.199 163.28 138.199 163.775V164.151H133.864V163.355H137.159C137.159 163.076 137.102 162.829 136.989 162.613C136.875 162.395 136.715 162.224 136.509 162.098C136.306 161.973 136.066 161.91 135.792 161.91C135.493 161.91 135.233 161.984 135.011 162.13C134.79 162.275 134.62 162.464 134.499 162.699C134.381 162.931 134.322 163.183 134.322 163.455V164.076C134.322 164.441 134.386 164.751 134.513 165.007C134.644 165.262 134.825 165.458 135.057 165.593C135.289 165.725 135.56 165.792 135.87 165.792C136.071 165.792 136.255 165.763 136.42 165.706C136.586 165.647 136.729 165.56 136.85 165.444C136.971 165.328 137.063 165.184 137.127 165.014L138.132 165.195C138.051 165.491 137.907 165.75 137.699 165.973C137.493 166.193 137.234 166.364 136.921 166.488C136.611 166.608 136.257 166.669 135.859 166.669ZM142.678 166.669C142.141 166.669 141.678 166.554 141.29 166.324C140.904 166.092 140.606 165.767 140.395 165.348C140.187 164.926 140.083 164.433 140.083 163.867C140.083 163.308 140.187 162.816 140.395 162.39C140.606 161.963 140.899 161.631 141.276 161.392C141.654 161.153 142.097 161.033 142.604 161.033C142.912 161.033 143.21 161.084 143.499 161.186C143.788 161.288 144.047 161.447 144.276 161.665C144.506 161.883 144.687 162.166 144.82 162.514C144.952 162.859 145.019 163.28 145.019 163.775V164.151H140.683V163.355H143.978C143.978 163.076 143.921 162.829 143.808 162.613C143.694 162.395 143.534 162.224 143.328 162.098C143.125 161.973 142.886 161.91 142.611 161.91C142.313 161.91 142.052 161.984 141.83 162.13C141.61 162.275 141.439 162.464 141.318 162.699C141.2 162.931 141.141 163.183 141.141 163.455V164.076C141.141 164.441 141.205 164.751 141.333 165.007C141.463 165.262 141.644 165.458 141.876 165.593C142.108 165.725 142.379 165.792 142.689 165.792C142.89 165.792 143.074 165.763 143.239 165.706C143.405 165.647 143.548 165.56 143.669 165.444C143.79 165.328 143.882 165.184 143.946 165.014L144.951 165.195C144.871 165.491 144.726 165.75 144.518 165.973C144.312 166.193 144.053 166.364 143.74 166.488C143.43 166.608 143.076 166.669 142.678 166.669ZM151.234 162.436L150.272 162.606C150.231 162.483 150.168 162.366 150.08 162.255C149.995 162.143 149.879 162.052 149.732 161.981C149.585 161.91 149.402 161.875 149.181 161.875C148.881 161.875 148.63 161.942 148.429 162.077C148.227 162.21 148.127 162.381 148.127 162.592C148.127 162.774 148.194 162.921 148.329 163.032C148.464 163.144 148.682 163.235 148.983 163.306L149.849 163.505C150.351 163.621 150.725 163.799 150.971 164.041C151.217 164.282 151.341 164.596 151.341 164.982C151.341 165.309 151.246 165.6 151.056 165.855C150.869 166.109 150.608 166.308 150.272 166.452C149.938 166.596 149.551 166.669 149.11 166.669C148.5 166.669 148.001 166.538 147.615 166.278C147.23 166.015 146.993 165.642 146.905 165.159L147.931 165.003C147.995 165.271 148.127 165.473 148.326 165.61C148.525 165.745 148.784 165.813 149.103 165.813C149.451 165.813 149.73 165.741 149.938 165.596C150.146 165.449 150.25 165.271 150.25 165.06C150.25 164.89 150.186 164.746 150.059 164.63C149.933 164.514 149.74 164.427 149.48 164.368L148.556 164.165C148.047 164.049 147.671 163.864 147.427 163.611C147.186 163.358 147.065 163.037 147.065 162.649C147.065 162.327 147.155 162.045 147.335 161.804C147.515 161.562 147.763 161.374 148.081 161.239C148.398 161.102 148.761 161.033 149.171 161.033C149.76 161.033 150.224 161.161 150.563 161.417C150.901 161.67 151.125 162.01 151.234 162.436Z" fill="black"/>
<path d="M78.5733 215.312V210.51H79.5286V215.312H78.5733ZM76.6522 213.387V212.435H81.4533V213.387H76.6522ZM88.3418 216.533H87.177L89.7942 209.26H91.0619L93.6791 216.533H92.5144L90.4582 210.581H90.4014L88.3418 216.533ZM88.5371 213.685H92.3155V214.608H88.5371V213.685ZM97.7932 218.692C97.36 218.692 96.9871 218.635 96.6746 218.522C96.3645 218.408 96.1111 218.258 95.9146 218.071C95.7181 217.884 95.5714 217.679 95.4743 217.456L96.3869 217.08C96.4509 217.184 96.5361 217.294 96.6426 217.41C96.7515 217.529 96.8983 217.629 97.083 217.712C97.27 217.795 97.5103 217.836 97.8038 217.836C98.2063 217.836 98.5389 217.738 98.8017 217.542C99.0645 217.348 99.1959 217.037 99.1959 216.611V215.539H99.1284C99.0645 215.655 98.9722 215.784 98.8514 215.926C98.7331 216.068 98.5697 216.191 98.3614 216.295C98.153 216.399 97.882 216.452 97.5482 216.452C97.1173 216.452 96.729 216.351 96.3834 216.15C96.0401 215.946 95.7679 215.647 95.5666 215.251C95.3678 214.854 95.2683 214.365 95.2683 213.785C95.2683 213.205 95.3666 212.707 95.5631 212.293C95.7619 211.879 96.0342 211.562 96.3798 211.341C96.7255 211.119 97.1173 211.008 97.5553 211.008C97.8938 211.008 98.1672 211.064 98.3756 211.178C98.5839 211.289 98.7461 211.42 98.8621 211.569C98.9805 211.718 99.0716 211.849 99.1355 211.963H99.2136V211.079H100.254V216.654C100.254 217.123 100.145 217.507 99.9274 217.808C99.7096 218.109 99.4149 218.331 99.0432 218.476C98.6739 218.62 98.2572 218.692 97.7932 218.692ZM97.7825 215.571C98.0879 215.571 98.346 215.5 98.5567 215.358C98.7698 215.213 98.9307 215.007 99.0396 214.74C99.1509 214.47 99.2065 214.147 99.2065 213.77C99.2065 213.403 99.1521 213.08 99.0432 212.801C98.9343 212.522 98.7745 212.304 98.5638 212.148C98.3531 211.989 98.0927 211.91 97.7825 211.91C97.4629 211.91 97.1966 211.992 96.9835 212.158C96.7705 212.322 96.6095 212.544 96.5006 212.826C96.394 213.108 96.3408 213.422 96.3408 213.77C96.3408 214.128 96.3952 214.442 96.5041 214.711C96.613 214.981 96.774 215.192 96.9871 215.344C97.2025 215.495 97.4677 215.571 97.7825 215.571ZM104.979 216.643C104.442 216.643 103.979 216.528 103.59 216.299C103.205 216.067 102.906 215.741 102.696 215.322C102.487 214.901 102.383 214.407 102.383 213.841C102.383 213.283 102.487 212.79 102.696 212.364C102.906 211.938 103.2 211.605 103.576 211.366C103.955 211.127 104.398 211.008 104.904 211.008C105.212 211.008 105.51 211.059 105.799 211.16C106.088 211.262 106.347 211.422 106.577 211.64C106.807 211.858 106.988 212.14 107.12 212.488C107.253 212.834 107.319 213.254 107.319 213.749V214.126H102.983V213.33H106.279C106.279 213.051 106.222 212.803 106.108 212.588C105.995 212.37 105.835 212.198 105.629 212.073C105.425 211.948 105.186 211.885 104.912 211.885C104.613 211.885 104.353 211.958 104.13 212.105C103.91 212.249 103.74 212.439 103.619 212.673C103.501 212.905 103.441 213.157 103.441 213.43V214.051C103.441 214.416 103.505 214.726 103.633 214.981C103.763 215.237 103.944 215.432 104.176 215.567C104.408 215.7 104.68 215.766 104.99 215.766C105.191 215.766 105.374 215.738 105.54 215.681C105.706 215.622 105.849 215.534 105.97 215.418C106.09 215.302 106.183 215.159 106.247 214.988L107.252 215.17C107.171 215.465 107.027 215.725 106.818 215.947C106.613 216.167 106.353 216.339 106.041 216.462C105.731 216.583 105.377 216.643 104.979 216.643ZM110.509 213.295V216.533H109.447V211.079H110.466V211.966H110.534C110.659 211.678 110.856 211.446 111.123 211.27C111.393 211.095 111.733 211.008 112.143 211.008C112.514 211.008 112.84 211.086 113.119 211.242C113.399 211.396 113.615 211.626 113.769 211.931C113.923 212.236 114 212.614 114 213.064V216.533H112.938V213.192C112.938 212.796 112.835 212.487 112.629 212.265C112.423 212.04 112.14 211.927 111.78 211.927C111.534 211.927 111.315 211.981 111.123 212.087C110.934 212.194 110.784 212.35 110.672 212.556C110.564 212.76 110.509 213.006 110.509 213.295ZM118.92 211.079V211.931H115.941V211.079H118.92ZM116.74 209.772H117.801V214.932C117.801 215.138 117.832 215.293 117.894 215.397C117.955 215.499 118.035 215.568 118.132 215.606C118.231 215.642 118.339 215.66 118.455 215.66C118.54 215.66 118.615 215.654 118.679 215.642C118.742 215.63 118.792 215.621 118.828 215.613L119.019 216.491C118.958 216.514 118.87 216.538 118.757 216.562C118.643 216.588 118.501 216.602 118.331 216.604C118.051 216.609 117.791 216.559 117.549 216.455C117.308 216.351 117.112 216.19 116.963 215.972C116.814 215.754 116.74 215.481 116.74 215.152V209.772ZM124.726 216.533V209.26H129.236V210.205H125.824V212.421H128.913V213.362H125.824V216.533H124.726ZM133.401 216.643C132.863 216.643 132.401 216.528 132.012 216.299C131.626 216.067 131.328 215.741 131.117 215.322C130.909 214.901 130.805 214.407 130.805 213.841C130.805 213.283 130.909 212.79 131.117 212.364C131.328 211.938 131.622 211.605 131.998 211.366C132.377 211.127 132.82 211.008 133.326 211.008C133.634 211.008 133.932 211.059 134.221 211.16C134.51 211.262 134.769 211.422 134.999 211.64C135.229 211.858 135.41 212.14 135.542 212.488C135.675 212.834 135.741 213.254 135.741 213.749V214.126H131.405V213.33H134.701C134.701 213.051 134.644 212.803 134.53 212.588C134.416 212.37 134.257 212.198 134.051 212.073C133.847 211.948 133.608 211.885 133.333 211.885C133.035 211.885 132.775 211.958 132.552 212.105C132.332 212.249 132.162 212.439 132.041 212.673C131.922 212.905 131.863 213.157 131.863 213.43V214.051C131.863 214.416 131.927 214.726 132.055 214.981C132.185 215.237 132.366 215.432 132.598 215.567C132.83 215.7 133.101 215.766 133.412 215.766C133.613 215.766 133.796 215.738 133.962 215.681C134.128 215.622 134.271 215.534 134.392 215.418C134.512 215.302 134.605 215.159 134.669 214.988L135.674 215.17C135.593 215.465 135.449 215.725 135.24 215.947C135.034 216.167 134.775 216.339 134.463 216.462C134.153 216.583 133.799 216.643 133.401 216.643ZM140.22 216.643C139.683 216.643 139.22 216.528 138.832 216.299C138.446 216.067 138.147 215.741 137.937 215.322C137.728 214.901 137.624 214.407 137.624 213.841C137.624 213.283 137.728 212.79 137.937 212.364C138.147 211.938 138.441 211.605 138.817 211.366C139.196 211.127 139.639 211.008 140.145 211.008C140.453 211.008 140.751 211.059 141.04 211.16C141.329 211.262 141.588 211.422 141.818 211.64C142.048 211.858 142.229 212.14 142.361 212.488C142.494 212.834 142.56 213.254 142.56 213.749V214.126H138.224V213.33H141.52C141.52 213.051 141.463 212.803 141.349 212.588C141.236 212.37 141.076 212.198 140.87 212.073C140.666 211.948 140.427 211.885 140.153 211.885C139.854 211.885 139.594 211.958 139.371 212.105C139.151 212.249 138.981 212.439 138.86 212.673C138.742 212.905 138.682 213.157 138.682 213.43V214.051C138.682 214.416 138.746 214.726 138.874 214.981C139.004 215.237 139.185 215.432 139.417 215.567C139.649 215.7 139.921 215.766 140.231 215.766C140.432 215.766 140.615 215.738 140.781 215.681C140.947 215.622 141.09 215.534 141.211 215.418C141.332 215.302 141.424 215.159 141.488 214.988L142.493 215.17C142.412 215.465 142.268 215.725 142.059 215.947C141.854 216.167 141.594 216.339 141.282 216.462C140.972 216.583 140.618 216.643 140.22 216.643ZM148.776 212.41L147.813 212.581C147.773 212.458 147.709 212.34 147.622 212.229C147.536 212.118 147.42 212.027 147.274 211.956C147.127 211.885 146.943 211.849 146.723 211.849C146.422 211.849 146.171 211.917 145.97 212.052C145.769 212.184 145.668 212.356 145.668 212.567C145.668 212.749 145.736 212.896 145.871 213.007C146.006 213.118 146.224 213.209 146.524 213.28L147.391 213.479C147.893 213.595 148.267 213.774 148.513 214.015C148.759 214.257 148.882 214.571 148.882 214.956C148.882 215.283 148.787 215.574 148.598 215.83C148.411 216.083 148.149 216.282 147.813 216.427C147.479 216.571 147.092 216.643 146.652 216.643C146.041 216.643 145.543 216.513 145.157 216.253C144.771 215.99 144.534 215.617 144.447 215.134L145.473 214.978C145.537 215.245 145.668 215.448 145.867 215.585C146.066 215.72 146.325 215.787 146.645 215.787C146.993 215.787 147.271 215.715 147.479 215.571C147.688 215.424 147.792 215.245 147.792 215.035C147.792 214.864 147.728 214.721 147.6 214.605C147.475 214.489 147.282 214.401 147.021 214.342L146.098 214.14C145.589 214.024 145.213 213.839 144.969 213.586C144.727 213.332 144.607 213.012 144.607 212.623C144.607 212.301 144.697 212.02 144.876 211.778C145.056 211.537 145.305 211.349 145.622 211.214C145.939 211.076 146.303 211.008 146.712 211.008C147.302 211.008 147.766 211.135 148.104 211.391C148.443 211.644 148.667 211.984 148.776 212.41Z" fill="black"/>
<path d="M81.2798 264.208V259.407H82.235V264.208H81.2798ZM79.3586 262.284V261.328H84.1598V262.284H79.3586ZM90.3486 264.67V259.215H91.3678V260.103H91.4353C91.5489 259.802 91.7348 259.568 91.9928 259.4C92.2509 259.23 92.5598 259.144 92.9197 259.144C93.2842 259.144 93.5896 259.23 93.8359 259.4C94.0844 259.57 94.2679 259.805 94.3863 260.103H94.4431C94.5733 259.812 94.7805 259.58 95.0646 259.407C95.3486 259.232 95.6872 259.144 96.0802 259.144C96.575 259.144 96.9786 259.299 97.2911 259.61C97.606 259.92 97.7634 260.387 97.7634 261.012V264.67H96.7016V261.112C96.7016 260.742 96.601 260.475 96.3998 260.309C96.1985 260.143 95.9583 260.061 95.6789 260.061C95.3333 260.061 95.0646 260.167 94.8728 260.38C94.681 260.591 94.5851 260.862 94.5851 261.193V264.67H93.5269V261.044C93.5269 260.748 93.4346 260.51 93.2499 260.33C93.0653 260.151 92.825 260.061 92.529 260.061C92.3278 260.061 92.142 260.114 91.9715 260.22C91.8034 260.325 91.6673 260.47 91.5631 260.657C91.4613 260.844 91.4104 261.061 91.4104 261.307V264.67H90.3486ZM102.434 264.78C101.923 264.78 101.476 264.663 101.095 264.428C100.714 264.194 100.418 263.866 100.208 263.445C99.9969 263.023 99.8915 262.531 99.8915 261.968C99.8915 261.402 99.9969 260.907 100.208 260.483C100.418 260.059 100.714 259.73 101.095 259.496C101.476 259.262 101.923 259.144 102.434 259.144C102.945 259.144 103.392 259.262 103.773 259.496C104.154 259.73 104.45 260.059 104.661 260.483C104.871 260.907 104.977 261.402 104.977 261.968C104.977 262.531 104.871 263.023 104.661 263.445C104.45 263.866 104.154 264.194 103.773 264.428C103.392 264.663 102.945 264.78 102.434 264.78ZM102.438 263.889C102.769 263.889 103.044 263.801 103.262 263.626C103.479 263.451 103.64 263.218 103.744 262.926C103.851 262.635 103.904 262.314 103.904 261.964C103.904 261.616 103.851 261.296 103.744 261.005C103.64 260.712 103.479 260.476 103.262 260.298C103.044 260.121 102.769 260.032 102.438 260.032C102.104 260.032 101.827 260.121 101.607 260.298C101.389 260.476 101.227 260.712 101.12 261.005C101.016 261.296 100.964 261.616 100.964 261.964C100.964 262.314 101.016 262.635 101.12 262.926C101.227 263.218 101.389 263.451 101.607 263.626C101.827 263.801 102.104 263.889 102.438 263.889ZM107.112 264.67V259.215H108.138V260.082H108.195C108.294 259.788 108.47 259.557 108.721 259.389C108.974 259.219 109.26 259.134 109.58 259.134C109.646 259.134 109.724 259.136 109.814 259.141C109.907 259.146 109.979 259.151 110.031 259.159V260.174C109.988 260.162 109.913 260.149 109.804 260.135C109.695 260.119 109.586 260.11 109.477 260.11C109.226 260.11 109.002 260.164 108.806 260.27C108.612 260.374 108.458 260.52 108.344 260.707C108.231 260.892 108.174 261.102 108.174 261.339V264.67H107.112ZM114.055 264.78C113.518 264.78 113.055 264.665 112.667 264.436C112.281 264.204 111.983 263.878 111.772 263.459C111.564 263.038 111.459 262.544 111.459 261.978C111.459 261.419 111.564 260.927 111.772 260.501C111.983 260.075 112.276 259.742 112.653 259.503C113.031 259.264 113.474 259.144 113.981 259.144C114.289 259.144 114.587 259.195 114.876 259.297C115.164 259.399 115.424 259.559 115.653 259.776C115.883 259.994 116.064 260.277 116.197 260.625C116.329 260.971 116.396 261.391 116.396 261.886V262.262H112.06V261.467H115.355C115.355 261.187 115.298 260.94 115.185 260.725C115.071 260.507 114.911 260.335 114.705 260.21C114.502 260.084 114.263 260.021 113.988 260.021C113.69 260.021 113.429 260.095 113.207 260.242C112.986 260.386 112.816 260.575 112.695 260.81C112.577 261.042 112.518 261.294 112.518 261.566V262.188C112.518 262.552 112.582 262.862 112.709 263.118C112.84 263.374 113.021 263.569 113.253 263.704C113.485 263.837 113.756 263.903 114.066 263.903C114.267 263.903 114.451 263.874 114.616 263.818C114.782 263.758 114.925 263.671 115.046 263.555C115.167 263.439 115.259 263.296 115.323 263.125L116.328 263.306C116.248 263.602 116.103 263.861 115.895 264.084C115.689 264.304 115.43 264.476 115.117 264.599C114.807 264.72 114.453 264.78 114.055 264.78ZM122.205 264.67V257.397H126.715V258.342H123.303V260.558H126.392V261.499H123.303V264.67H122.205ZM130.88 264.78C130.343 264.78 129.88 264.665 129.491 264.436C129.106 264.204 128.807 263.878 128.597 263.459C128.388 263.038 128.284 262.544 128.284 261.978C128.284 261.419 128.388 260.927 128.597 260.501C128.807 260.075 129.101 259.742 129.477 259.503C129.856 259.264 130.299 259.144 130.805 259.144C131.113 259.144 131.411 259.195 131.7 259.297C131.989 259.399 132.248 259.559 132.478 259.776C132.708 259.994 132.889 260.277 133.021 260.625C133.154 260.971 133.22 261.391 133.22 261.886V262.262H128.884V261.467H132.18C132.18 261.187 132.123 260.94 132.009 260.725C131.896 260.507 131.736 260.335 131.53 260.21C131.326 260.084 131.087 260.021 130.812 260.021C130.514 260.021 130.254 260.095 130.031 260.242C129.811 260.386 129.641 260.575 129.52 260.81C129.402 261.042 129.342 261.294 129.342 261.566V262.188C129.342 262.552 129.406 262.862 129.534 263.118C129.664 263.374 129.845 263.569 130.077 263.704C130.309 263.837 130.58 263.903 130.891 263.903C131.092 263.903 131.275 263.874 131.441 263.818C131.607 263.758 131.75 263.671 131.871 263.555C131.991 263.439 132.084 263.296 132.148 263.125L133.153 263.306C133.072 263.602 132.928 263.861 132.719 264.084C132.513 264.304 132.254 264.476 131.942 264.599C131.632 264.72 131.278 264.78 130.88 264.78ZM137.699 264.78C137.162 264.78 136.699 264.665 136.311 264.436C135.925 264.204 135.626 263.878 135.416 263.459C135.207 263.038 135.103 262.544 135.103 261.978C135.103 261.419 135.207 260.927 135.416 260.501C135.626 260.075 135.92 259.742 136.296 259.503C136.675 259.264 137.118 259.144 137.625 259.144C137.932 259.144 138.231 259.195 138.519 259.297C138.808 259.399 139.067 259.559 139.297 259.776C139.527 259.994 139.708 260.277 139.84 260.625C139.973 260.971 140.039 261.391 140.039 261.886V262.262H135.703V261.467H138.999C138.999 261.187 138.942 260.94 138.828 260.725C138.715 260.507 138.555 260.335 138.349 260.21C138.145 260.084 137.906 260.021 137.632 260.021C137.333 260.021 137.073 260.095 136.85 260.242C136.63 260.386 136.46 260.575 136.339 260.81C136.221 261.042 136.161 261.294 136.161 261.566V262.188C136.161 262.552 136.225 262.862 136.353 263.118C136.483 263.374 136.665 263.569 136.897 263.704C137.129 263.837 137.4 263.903 137.71 263.903C137.911 263.903 138.094 263.874 138.26 263.818C138.426 263.758 138.569 263.671 138.69 263.555C138.811 263.439 138.903 263.296 138.967 263.125L139.972 263.306C139.891 263.602 139.747 263.861 139.539 264.084C139.333 264.304 139.073 264.476 138.761 264.599C138.451 264.72 138.097 264.78 137.699 264.78ZM146.255 260.547L145.292 260.718C145.252 260.594 145.188 260.477 145.101 260.366C145.015 260.255 144.899 260.164 144.753 260.093C144.606 260.021 144.422 259.986 144.202 259.986C143.902 259.986 143.651 260.053 143.449 260.188C143.248 260.321 143.148 260.493 143.148 260.703C143.148 260.886 143.215 261.032 143.35 261.144C143.485 261.255 143.703 261.346 144.003 261.417L144.87 261.616C145.372 261.732 145.746 261.911 145.992 262.152C146.238 262.394 146.361 262.707 146.361 263.093C146.361 263.42 146.267 263.711 146.077 263.967C145.89 264.22 145.629 264.419 145.292 264.563C144.959 264.708 144.572 264.78 144.131 264.78C143.52 264.78 143.022 264.65 142.636 264.389C142.25 264.127 142.014 263.754 141.926 263.271L142.952 263.115C143.016 263.382 143.148 263.584 143.346 263.722C143.545 263.857 143.804 263.924 144.124 263.924C144.472 263.924 144.75 263.852 144.959 263.708C145.167 263.561 145.271 263.382 145.271 263.171C145.271 263.001 145.207 262.858 145.079 262.742C144.954 262.626 144.761 262.538 144.5 262.479L143.577 262.276C143.068 262.16 142.692 261.976 142.448 261.722C142.206 261.469 142.086 261.148 142.086 260.76C142.086 260.438 142.176 260.156 142.356 259.915C142.536 259.673 142.784 259.485 143.101 259.35C143.419 259.213 143.782 259.144 144.192 259.144C144.781 259.144 145.245 259.272 145.584 259.528C145.922 259.781 146.146 260.121 146.255 260.547Z" fill="black"/>
<path d="M438.246 224.531C438.246 236.975 428.198 247.062 415.806 247.062C403.413 247.062 393.366 236.975 393.366 224.531C393.366 212.087 403.413 202 415.806 202C428.198 202 438.246 212.087 438.246 224.531Z" fill="white" stroke="black" stroke-width="0.288632"/>
<mask id="mask0_3066_8906" style="mask-type:alpha" maskUnits="userSpaceOnUse" x="396" y="205" width="36" height="29">
<path fill-rule="evenodd" clip-rule="evenodd" d="M396.696 205.344H431.315V233.227H396.696V205.344Z" fill="white"/>
</mask>
<g mask="url(#mask0_3066_8906)">
<path fill-rule="evenodd" clip-rule="evenodd" d="M400.75 232.191C399.721 229.989 399.146 227.533 399.146 224.942C399.146 215.471 406.826 207.794 416.299 207.794C421.573 207.794 426.292 210.174 429.438 213.919L431.315 212.344C427.719 208.064 422.327 205.344 416.299 205.344C405.472 205.344 396.696 214.118 396.696 224.942C396.696 227.903 397.352 230.71 398.528 233.227L400.75 232.191Z" fill="black"/>
</g>
<path fill-rule="evenodd" clip-rule="evenodd" d="M416.299 236.579C409.87 236.579 404.659 231.369 404.659 224.942C404.659 218.515 409.87 213.305 416.299 213.305C419.878 213.305 423.079 214.921 425.214 217.462L427.092 215.887C424.507 212.811 420.631 210.855 416.299 210.855C408.517 210.855 402.209 217.162 402.209 224.942C402.209 232.722 408.517 239.028 416.299 239.028V236.579Z" fill="black"/>
<path fill-rule="evenodd" clip-rule="evenodd" d="M420.522 228.485C419.511 229.689 417.994 230.454 416.299 230.454C413.254 230.454 410.785 227.986 410.785 224.942C410.785 221.898 413.254 219.43 416.299 219.43C417.994 219.43 419.511 220.195 420.522 221.399L422.633 219.628C421.116 217.822 418.842 216.674 416.299 216.674C411.731 216.674 408.029 220.376 408.029 224.942C408.029 229.508 411.731 233.21 416.299 233.21C418.629 233.21 420.734 232.245 422.237 230.694L420.522 228.485Z" fill="black"/>
<path d="M84.1224 16.0191V13.5903H95.5655V16.0191H91.2998V27.5234H88.388V16.0191H84.1224ZM96.8852 27.5234V17.0736H99.6949V18.8969H99.8038C99.9943 18.2483 100.314 17.7585 100.763 17.4274C101.212 17.0918 101.729 16.9239 102.314 16.9239C102.459 16.9239 102.616 16.933 102.784 16.9512C102.951 16.9693 103.099 16.9942 103.226 17.026V19.5976C103.09 19.5568 102.902 19.5205 102.661 19.4888C102.421 19.457 102.201 19.4412 102.001 19.4412C101.575 19.4412 101.194 19.5341 100.858 19.7201C100.527 19.9015 100.264 20.1555 100.069 20.4821C99.8786 20.8086 99.7834 21.1851 99.7834 21.6114V27.5234H96.8852ZM107.979 27.7207C107.313 27.7207 106.719 27.6051 106.197 27.3738C105.675 27.1379 105.263 26.791 104.959 26.3329C104.659 25.8702 104.51 25.2942 104.51 24.6048C104.51 24.0243 104.616 23.5367 104.83 23.1421C105.043 22.7475 105.333 22.4301 105.7 22.1897C106.068 21.9493 106.485 21.7679 106.952 21.6454C107.424 21.523 107.918 21.4368 108.435 21.3869C109.043 21.3234 109.533 21.2644 109.905 21.21C110.277 21.151 110.547 21.0649 110.714 20.9515C110.882 20.8381 110.966 20.6703 110.966 20.448V20.4072C110.966 19.9763 110.83 19.643 110.558 19.4071C110.29 19.1713 109.909 19.0534 109.415 19.0534C108.893 19.0534 108.478 19.169 108.17 19.4003C107.862 19.6271 107.657 19.9128 107.558 20.2575L104.877 20.0398C105.013 19.4049 105.281 18.8561 105.68 18.3934C106.079 17.9263 106.594 17.568 107.224 17.3185C107.859 17.0645 108.594 16.9376 109.429 16.9376C110.009 16.9376 110.565 17.0056 111.095 17.1416C111.631 17.2777 112.105 17.4886 112.517 17.7744C112.934 18.0601 113.263 18.4275 113.504 18.8765C113.744 19.321 113.864 19.8539 113.864 20.4752V27.5234H111.116V26.0743H111.034C110.866 26.4009 110.642 26.6889 110.361 26.9384C110.079 27.1833 109.741 27.376 109.347 27.5166C108.952 27.6527 108.496 27.7207 107.979 27.7207ZM108.809 25.7206C109.236 25.7206 109.612 25.6367 109.939 25.4689C110.265 25.2965 110.522 25.0652 110.708 24.7749C110.894 24.4846 110.986 24.1558 110.986 23.7884V22.6795C110.896 22.7385 110.771 22.7929 110.612 22.8428C110.458 22.8881 110.283 22.9312 110.088 22.9721C109.893 23.0083 109.698 23.0424 109.503 23.0741C109.308 23.1013 109.131 23.1263 108.973 23.1489C108.633 23.1988 108.335 23.2782 108.082 23.387C107.828 23.4959 107.63 23.6433 107.49 23.8293C107.349 24.0107 107.279 24.2375 107.279 24.5096C107.279 24.9042 107.422 25.2058 107.707 25.4144C107.998 25.6185 108.365 25.7206 108.809 25.7206ZM120.538 27.6935C119.744 27.6935 119.026 27.4894 118.382 27.0812C117.742 26.6685 117.234 26.063 116.858 25.2648C116.486 24.462 116.3 23.4778 116.3 22.3121C116.3 21.1148 116.492 20.1192 116.878 19.3255C117.264 18.5272 117.776 17.9308 118.416 17.5362C119.06 17.1371 119.765 16.9376 120.531 16.9376C121.116 16.9376 121.604 17.0373 121.994 17.2369C122.389 17.4319 122.706 17.6768 122.947 17.9716C123.191 18.2619 123.377 18.5477 123.504 18.8289H123.593V13.5903H126.484V27.5234H123.627V25.8498H123.504C123.368 26.1401 123.176 26.4281 122.926 26.7138C122.681 26.9951 122.361 27.2286 121.967 27.4146C121.577 27.6005 121.101 27.6935 120.538 27.6935ZM121.457 25.3872C121.924 25.3872 122.318 25.2602 122.64 25.0062C122.967 24.7477 123.216 24.3871 123.389 23.9245C123.566 23.4619 123.654 22.9199 123.654 22.2985C123.654 21.6772 123.568 21.1374 123.396 20.6793C123.223 20.2213 122.974 19.8675 122.647 19.618C122.321 19.3686 121.924 19.2439 121.457 19.2439C120.98 19.2439 120.579 19.3731 120.252 19.6316C119.926 19.8902 119.679 20.2485 119.511 20.7066C119.343 21.1646 119.259 21.6953 119.259 22.2985C119.259 22.9063 119.343 23.4437 119.511 23.9109C119.683 24.3735 119.93 24.7364 120.252 24.9994C120.579 25.2579 120.98 25.3872 121.457 25.3872ZM129.496 27.5234V13.5903H138.721V16.0191H132.442V19.3391H138.109V21.7679H132.442V27.5234H129.496ZM141.223 27.5234V17.0736H144.121V27.5234H141.223ZM142.679 15.7266C142.248 15.7266 141.879 15.5837 141.57 15.298C141.266 15.0077 141.114 14.6607 141.114 14.2571C141.114 13.8579 141.266 13.5155 141.57 13.2298C141.879 12.9395 142.248 12.7944 142.679 12.7944C143.11 12.7944 143.477 12.9395 143.781 13.2298C144.09 13.5155 144.244 13.8579 144.244 14.2571C144.244 14.6607 144.09 15.0077 143.781 15.298C143.477 15.5837 143.11 15.7266 142.679 15.7266Z" fill="black"/>
<path d="M400.395 28.5234H395.456V14.5903H400.436C401.838 14.5903 403.044 14.8693 404.056 15.4271C405.067 15.9805 405.845 16.7765 406.389 17.8151C406.938 18.8537 407.212 20.0965 407.212 21.5433C407.212 22.9946 406.938 24.2419 406.389 25.2851C405.845 26.3282 405.062 27.1288 404.042 27.6866C403.026 28.2445 401.81 28.5234 400.395 28.5234ZM398.402 25.9994H400.273C401.144 25.9994 401.876 25.8452 402.47 25.5368C403.069 25.2239 403.518 24.7408 403.817 24.0877C404.121 23.4301 404.273 22.5819 404.273 21.5433C404.273 20.5137 404.121 19.6724 403.817 19.0193C403.518 18.3662 403.071 17.8854 402.477 17.577C401.883 17.2686 401.151 17.1144 400.28 17.1144H398.402V25.9994ZM414.677 28.7275C413.602 28.7275 412.677 28.5098 411.901 28.0744C411.13 27.6345 410.536 27.0131 410.119 26.2103C409.702 25.403 409.493 24.4483 409.493 23.3461C409.493 22.2712 409.702 21.3278 410.119 20.516C410.536 19.7041 411.123 19.0714 411.881 18.6179C412.643 18.1643 413.536 17.9376 414.561 17.9376C415.251 17.9376 415.893 18.0487 416.487 18.2709C417.085 18.4886 417.607 18.8174 418.051 19.2574C418.5 19.6973 418.85 20.2507 419.099 20.9174C419.349 21.5796 419.473 22.3551 419.473 23.2441V24.0401H410.649V22.244H416.745C416.745 21.8268 416.655 21.4571 416.473 21.1351C416.292 20.8131 416.04 20.5613 415.718 20.3799C415.4 20.194 415.031 20.101 414.609 20.101C414.169 20.101 413.779 20.203 413.439 20.4071C413.103 20.6067 412.84 20.8766 412.65 21.2167C412.459 21.5524 412.362 21.9265 412.357 22.3393V24.0469C412.357 24.5639 412.452 25.0107 412.643 25.3871C412.838 25.7636 413.112 26.0539 413.466 26.2579C413.82 26.462 414.239 26.5641 414.725 26.5641C415.047 26.5641 415.341 26.5187 415.609 26.428C415.877 26.3373 416.106 26.2013 416.296 26.0198C416.487 25.8384 416.632 25.6162 416.732 25.3531L419.412 25.53C419.276 26.174 418.997 26.7364 418.575 27.2172C418.158 27.6934 417.618 28.0654 416.956 28.3329C416.298 28.596 415.539 28.7275 414.677 28.7275ZM421.994 28.5234V14.5903H431.219V17.0191H424.94V20.3391H430.607V22.7679H424.94V28.5234H421.994ZM433.721 28.5234V18.0736H436.619V28.5234H433.721ZM435.177 16.7266C434.746 16.7266 434.376 16.5837 434.068 16.298C433.764 16.0077 433.612 15.6607 433.612 15.2571C433.612 14.8579 433.764 14.5155 434.068 14.2298C434.376 13.9395 434.746 13.7944 435.177 13.7944C435.608 13.7944 435.975 13.9395 436.279 14.2298C436.587 14.5155 436.741 14.8579 436.741 15.2571C436.741 15.6607 436.587 16.0077 436.279 16.298C435.975 16.5837 435.608 16.7266 435.177 16.7266Z" fill="black"/>
<path d="M112.437 79.0522C115.249 79.0522 117.529 76.8605 117.529 74.157C117.529 71.4534 115.249 69.2617 112.437 69.2617C109.625 69.2617 107.346 71.4534 107.346 74.157C107.346 76.8605 109.625 79.0522 112.437 79.0522Z" fill="black"/>
<path d="M119.283 83.5023L119.283 93.4686C119.283 94.7804 118.343 95.8914 117.077 96.208L117.077 102.988C117.077 104.545 115.753 105.818 114.133 105.818L111.122 105.818C109.502 105.818 108.178 104.545 108.178 102.988L108.178 96.208C106.913 95.8914 105.972 94.7804 105.972 93.4686L105.972 83.5023C105.972 81.9464 107.297 80.6719 108.916 80.6719L116.339 80.6719C117.958 80.6719 119.283 81.9464 119.283 83.5023Z" fill="black"/>
<path d="M415.999 79.0522C418.811 79.0522 421.091 76.8605 421.091 74.157C421.091 71.4534 418.811 69.2617 415.999 69.2617C413.187 69.2617 410.908 71.4534 410.908 74.157C410.908 76.8605 413.187 79.0522 415.999 79.0522Z" fill="black"/>
<path d="M422.845 83.5023L422.845 93.4686C422.845 94.7804 421.904 95.8914 420.639 96.208L420.639 102.988C420.639 104.545 419.314 105.818 417.695 105.818L414.684 105.818C413.064 105.818 411.74 104.545 411.74 102.988L411.74 96.208C410.474 95.8914 409.534 94.7804 409.534 93.4686L409.534 83.5023C409.534 81.9464 410.858 80.6719 412.478 80.6719L419.901 80.6719C421.52 80.6719 422.845 81.9464 422.845 83.5023Z" fill="black"/>
<path d="M132.589 342.863V348.677C132.589 351.718 123.164 354.182 111.539 354.182C99.9128 354.182 90.4871 351.718 90.4871 348.677V342.863C90.4871 343.93 91.6485 344.927 93.6579 345.77C97.3742 347.33 103.993 348.368 111.539 348.368C119.085 348.368 125.702 347.33 129.418 345.77C131.428 344.927 132.589 343.93 132.589 342.863Z" fill="black" stroke="white" stroke-width="0.467089" stroke-miterlimit="10"/>
<path d="M132.589 342.862C132.589 343.929 131.428 344.926 129.418 345.769C125.702 347.33 119.084 348.367 111.539 348.367C103.993 348.367 97.3742 347.33 93.6579 345.769C91.6485 344.926 90.4871 343.929 90.4871 342.862C90.4871 339.822 99.9119 337.357 111.539 337.357C123.165 337.357 132.589 339.822 132.589 342.862Z" fill="black" stroke="white" stroke-width="0.467089" stroke-miterlimit="10"/>
<path d="M111.362 346.16C121.408 346.16 129.552 344.574 129.552 342.617C129.552 340.66 121.408 339.074 111.362 339.074C101.316 339.074 93.1716 340.66 93.1716 342.617C93.1716 344.574 101.316 346.16 111.362 346.16Z" fill="black" stroke="white" stroke-width="0.467089" stroke-miterlimit="10"/>
<path d="M93.6572 345.77L93.6572 351.634" stroke="white" stroke-width="0.467089" stroke-miterlimit="10"/>
<path d="M97.113 346.895V352.576" stroke="white" stroke-width="0.467089" stroke-miterlimit="10"/>
<path d="M100.567 347.645V353.326" stroke="white" stroke-width="0.467089" stroke-miterlimit="10"/>
<path d="M104.023 347.893L104.023 353.742" stroke="white" stroke-width="0.467089" stroke-miterlimit="10"/>
<path d="M107.477 348.367V354.048" stroke="white" stroke-width="0.467089" stroke-miterlimit="10"/>
<path d="M110.932 348.367V354.048" stroke="white" stroke-width="0.467089" stroke-miterlimit="10"/>
<path d="M114.388 348.367V354.048" stroke="white" stroke-width="0.467089" stroke-miterlimit="10"/>
<path d="M117.84 348.197V353.877" stroke="white" stroke-width="0.467089" stroke-miterlimit="10"/>
<path d="M121.296 347.645L121.296 353.477" stroke="white" stroke-width="0.467089" stroke-miterlimit="10"/>
<path d="M124.75 347.17V352.851" stroke="white" stroke-width="0.467089" stroke-miterlimit="10"/>
<path d="M128.204 346.16V351.972" stroke="white" stroke-width="0.467089" stroke-miterlimit="10"/>
<path d="M139.32 336.094V341.908C139.32 344.948 129.895 347.413 118.269 347.413C106.643 347.413 97.2175 344.948 97.2175 341.908V336.094C97.2175 337.161 98.379 338.157 100.388 339.001C104.105 340.561 110.723 341.599 118.269 341.599C125.815 341.599 132.433 340.561 136.149 339.001C138.158 338.157 139.32 337.161 139.32 336.094Z" fill="black" stroke="white" stroke-width="0.467089" stroke-miterlimit="10"/>
<path d="M139.32 336.093C139.32 337.16 138.158 338.156 136.149 339C132.433 340.56 125.814 341.598 118.269 341.598C110.724 341.598 104.105 340.56 100.388 339C98.379 338.156 97.2175 337.16 97.2175 336.093C97.2175 333.053 106.642 330.588 118.269 330.588C129.896 330.588 139.32 333.053 139.32 336.093Z" fill="black" stroke="white" stroke-width="0.467089" stroke-miterlimit="10"/>
<path d="M118.092 339.39C128.138 339.39 136.282 337.804 136.282 335.847C136.282 333.891 128.138 332.305 118.092 332.305C108.046 332.305 99.9023 333.891 99.9023 335.847C99.9023 337.804 108.046 339.39 118.092 339.39Z" fill="black" stroke="white" stroke-width="0.467089" stroke-miterlimit="10"/>
<path d="M100.386 339V344.825" stroke="white" stroke-width="0.467089" stroke-miterlimit="10"/>
<path d="M103.842 340.125V345.805" stroke="white" stroke-width="0.467089" stroke-miterlimit="10"/>
<path d="M107.3 340.875V346.556" stroke="white" stroke-width="0.467089" stroke-miterlimit="10"/>
<path d="M110.751 341.123L110.751 347.018" stroke="white" stroke-width="0.467089" stroke-miterlimit="10"/>
<path d="M114.208 341.598V347.279" stroke="white" stroke-width="0.467089" stroke-miterlimit="10"/>
<path d="M117.663 341.598V347.279" stroke="white" stroke-width="0.467089" stroke-miterlimit="10"/>
<path d="M121.119 341.598V347.279" stroke="white" stroke-width="0.467089" stroke-miterlimit="10"/>
<path d="M124.573 341.428V347.109" stroke="white" stroke-width="0.467089" stroke-miterlimit="10"/>
<path d="M128.027 340.875L128.027 346.801" stroke="white" stroke-width="0.467089" stroke-miterlimit="10"/>
<path d="M131.483 340.4V346.081" stroke="white" stroke-width="0.467089" stroke-miterlimit="10"/>
<path d="M134.937 339.391L134.937 345.199" stroke="white" stroke-width="0.467089" stroke-miterlimit="10"/>
<path d="M130.607 316.814V322.495" stroke="white" stroke-width="0.467089" stroke-miterlimit="10"/>
<path d="M438.093 342.59V348.404C438.093 351.444 428.668 353.909 417.042 353.909C405.416 353.909 395.991 351.444 395.991 348.404V342.59C395.991 343.657 397.152 344.653 399.162 345.497C402.878 347.057 409.496 348.095 417.042 348.095C424.588 348.095 431.206 347.057 434.922 345.497C436.932 344.653 438.093 343.657 438.093 342.59Z" fill="black" stroke="white" stroke-width="0.467089" stroke-miterlimit="10"/>
<path d="M438.093 342.589C438.093 343.656 436.932 344.652 434.922 345.496C431.206 347.056 424.588 348.094 417.042 348.094C409.497 348.094 402.878 347.056 399.162 345.496C397.152 344.652 395.991 343.656 395.991 342.589C395.991 339.549 405.416 337.084 417.042 337.084C428.669 337.084 438.093 339.549 438.093 342.589Z" fill="black" stroke="white" stroke-width="0.467089" stroke-miterlimit="10"/>
<path d="M416.865 345.886C426.911 345.886 435.055 344.3 435.055 342.344C435.055 340.387 426.911 338.801 416.865 338.801C406.819 338.801 398.675 340.387 398.675 342.344C398.675 344.3 406.819 345.886 416.865 345.886Z" fill="black" stroke="white" stroke-width="0.467089" stroke-miterlimit="10"/>
<path d="M399.161 345.496L399.161 351.361" stroke="white" stroke-width="0.467089" stroke-miterlimit="10"/>
<path d="M402.614 346.621V352.302" stroke="white" stroke-width="0.467089" stroke-miterlimit="10"/>
<path d="M406.066 347.371V353.052" stroke="white" stroke-width="0.467089" stroke-miterlimit="10"/>
<path d="M409.522 347.619L409.522 353.469" stroke="white" stroke-width="0.467089" stroke-miterlimit="10"/>
<path d="M412.976 348.094V353.775" stroke="white" stroke-width="0.467089" stroke-miterlimit="10"/>
<path d="M416.432 348.094V353.775" stroke="white" stroke-width="0.467089" stroke-miterlimit="10"/>
<path d="M419.888 348.094V353.775" stroke="white" stroke-width="0.467089" stroke-miterlimit="10"/>
<path d="M423.341 347.924V353.604" stroke="white" stroke-width="0.467089" stroke-miterlimit="10"/>
<path d="M426.797 347.371L426.797 353.204" stroke="white" stroke-width="0.467089" stroke-miterlimit="10"/>
<path d="M430.253 346.896V352.578" stroke="white" stroke-width="0.467089" stroke-miterlimit="10"/>
<path d="M433.707 345.887V351.699" stroke="white" stroke-width="0.467089" stroke-miterlimit="10"/>
<path d="M435.823 335.82V341.635C435.823 344.675 426.399 347.139 414.773 347.139C403.147 347.139 393.721 344.675 393.721 341.635V335.82C393.721 336.887 394.883 337.884 396.892 338.727C400.608 340.287 407.227 341.325 414.773 341.325C422.319 341.325 428.936 340.287 432.653 338.727C434.662 337.884 435.823 336.887 435.823 335.82Z" fill="black" stroke="white" stroke-width="0.467089" stroke-miterlimit="10"/>
<path d="M435.823 335.819C435.823 336.886 434.662 337.883 432.652 338.726C428.936 340.287 422.318 341.324 414.773 341.324C407.227 341.324 400.608 340.287 396.892 338.726C394.882 337.883 393.721 336.886 393.721 335.819C393.721 332.779 403.146 330.314 414.773 330.314C426.399 330.314 435.823 332.779 435.823 335.819Z" fill="black" stroke="white" stroke-width="0.467089" stroke-miterlimit="10"/>
<path d="M414.596 339.117C424.642 339.117 432.786 337.531 432.786 335.574C432.786 333.617 424.642 332.031 414.596 332.031C404.55 332.031 396.406 333.617 396.406 335.574C396.406 337.531 404.55 339.117 414.596 339.117Z" fill="black" stroke="white" stroke-width="0.467089" stroke-miterlimit="10"/>
<path d="M396.89 338.727V344.552" stroke="white" stroke-width="0.467089" stroke-miterlimit="10"/>
<path d="M400.346 339.852V345.532" stroke="white" stroke-width="0.467089" stroke-miterlimit="10"/>
<path d="M403.802 340.602V346.283" stroke="white" stroke-width="0.467089" stroke-miterlimit="10"/>
<path d="M407.253 340.85L407.253 346.744" stroke="white" stroke-width="0.467089" stroke-miterlimit="10"/>
<path d="M410.707 341.324V347.005" stroke="white" stroke-width="0.467089" stroke-miterlimit="10"/>
<path d="M414.163 341.324V347.005" stroke="white" stroke-width="0.467089" stroke-miterlimit="10"/>
<path d="M417.619 341.324V347.005" stroke="white" stroke-width="0.467089" stroke-miterlimit="10"/>
<path d="M421.073 341.152V346.833" stroke="white" stroke-width="0.467089" stroke-miterlimit="10"/>
<path d="M424.531 340.602L424.531 346.528" stroke="white" stroke-width="0.467089" stroke-miterlimit="10"/>
<path d="M427.986 340.127V345.807" stroke="white" stroke-width="0.467089" stroke-miterlimit="10"/>
<path d="M431.44 339.117L431.44 344.926" stroke="white" stroke-width="0.467089" stroke-miterlimit="10"/>
<path d="M442.148 328.74V334.554C442.148 337.595 432.723 340.059 421.098 340.059C409.472 340.059 400.046 337.595 400.046 334.554V328.74C400.046 329.807 401.207 330.804 403.217 331.647C406.933 333.207 413.551 334.245 421.098 334.245C428.644 334.245 435.261 333.207 438.977 331.647C440.987 330.804 442.148 329.807 442.148 328.74Z" fill="black" stroke="white" stroke-width="0.467089" stroke-miterlimit="10"/>
<path d="M442.148 328.739C442.148 329.806 440.987 330.803 438.977 331.646C435.261 333.206 428.643 334.244 421.098 334.244C413.552 334.244 406.933 333.206 403.217 331.646C401.207 330.803 400.046 329.806 400.046 328.739C400.046 325.699 409.471 323.234 421.098 323.234C432.724 323.234 442.148 325.699 442.148 328.739Z" fill="black" stroke="white" stroke-width="0.467089" stroke-miterlimit="10"/>
<path d="M420.924 332.037C430.97 332.037 439.114 330.451 439.114 328.494C439.114 326.537 430.97 324.951 420.924 324.951C410.878 324.951 402.734 326.537 402.734 328.494C402.734 330.451 410.878 332.037 420.924 332.037Z" fill="black" stroke="white" stroke-width="0.467089" stroke-miterlimit="10"/>
<path d="M403.219 331.646L403.219 337.495" stroke="white" stroke-width="0.467089" stroke-miterlimit="10"/>
<path d="M406.671 332.771V338.452" stroke="white" stroke-width="0.467089" stroke-miterlimit="10"/>
<path d="M410.127 333.521V339.202" stroke="white" stroke-width="0.467089" stroke-miterlimit="10"/>
<path d="M413.581 333.77L413.581 339.651" stroke="white" stroke-width="0.467089" stroke-miterlimit="10"/>
<path d="M417.037 334.244V339.924" stroke="white" stroke-width="0.467089" stroke-miterlimit="10"/>
<path d="M420.491 334.244V339.924" stroke="white" stroke-width="0.467089" stroke-miterlimit="10"/>
<path d="M423.945 334.244V339.924" stroke="white" stroke-width="0.467089" stroke-miterlimit="10"/>
<path d="M427.401 334.072V339.753" stroke="white" stroke-width="0.467089" stroke-miterlimit="10"/>
<path d="M430.854 333.521L430.854 339.411" stroke="white" stroke-width="0.467089" stroke-miterlimit="10"/>
<path d="M434.31 333.047V338.727" stroke="white" stroke-width="0.467089" stroke-miterlimit="10"/>
<path d="M437.764 332.037L437.764 337.821" stroke="white" stroke-width="0.467089" stroke-miterlimit="10"/>
<path d="M439.883 321.656V327.47C439.883 330.511 430.458 332.975 418.832 332.975C407.206 332.975 397.781 330.511 397.781 327.47V321.656C397.781 322.723 398.942 323.72 400.951 324.563C404.668 326.123 411.286 327.161 418.832 327.161C426.378 327.161 432.996 326.123 436.712 324.563C438.721 323.72 439.883 322.723 439.883 321.656Z" fill="black" stroke="white" stroke-width="0.467089" stroke-miterlimit="10"/>
<path d="M439.883 321.657C439.883 322.724 438.721 323.721 436.712 324.564C432.996 326.124 426.377 327.162 418.832 327.162C411.287 327.162 404.668 326.124 400.951 324.564C398.942 323.721 397.781 322.724 397.781 321.657C397.781 318.617 407.206 316.152 418.832 316.152C430.459 316.152 439.883 318.617 439.883 321.657Z" fill="black" stroke="white" stroke-width="0.467089" stroke-miterlimit="10"/>
<path d="M400.951 324.564L400.951 330.401" stroke="white" stroke-width="0.467089" stroke-miterlimit="10"/>
<path d="M404.405 325.689V331.37" stroke="white" stroke-width="0.467089" stroke-miterlimit="10"/>
<path d="M407.86 326.439V332.12" stroke="white" stroke-width="0.467089" stroke-miterlimit="10"/>
<path d="M411.314 326.688L411.314 332.569" stroke="white" stroke-width="0.467089" stroke-miterlimit="10"/>
<path d="M414.77 327.162V332.842" stroke="white" stroke-width="0.467089" stroke-miterlimit="10"/>
<path d="M418.226 327.162V332.842" stroke="white" stroke-width="0.467089" stroke-miterlimit="10"/>
<path d="M421.68 327.162V332.842" stroke="white" stroke-width="0.467089" stroke-miterlimit="10"/>
<path d="M425.134 326.992V332.672" stroke="white" stroke-width="0.467089" stroke-miterlimit="10"/>
<path d="M428.59 326.439V332.341" stroke="white" stroke-width="0.467089" stroke-miterlimit="10"/>
<path d="M432.046 325.965V331.646" stroke="white" stroke-width="0.467089" stroke-miterlimit="10"/>
<path d="M435.497 324.955V330.799" stroke="white" stroke-width="0.467089" stroke-miterlimit="10"/>
<path d="M437.034 314.852V320.666C437.034 323.706 427.609 326.171 415.983 326.171C404.357 326.171 394.932 323.706 394.932 320.666V314.852C394.932 315.919 396.093 316.915 398.102 317.759C401.819 319.319 408.437 320.356 415.983 320.356C423.529 320.356 430.147 319.319 433.863 317.759C435.872 316.915 437.034 315.919 437.034 314.852Z" fill="black" stroke="white" stroke-width="0.467089" stroke-miterlimit="10"/>
<path d="M437.034 314.853C437.034 315.92 435.872 316.916 433.863 317.76C430.147 319.32 423.528 320.358 415.983 320.358C408.438 320.358 401.819 319.32 398.102 317.76C396.093 316.916 394.932 315.92 394.932 314.853C394.932 311.812 404.356 309.348 415.983 309.348C427.61 309.348 437.034 311.812 437.034 314.853Z" fill="black" stroke="white" stroke-width="0.467089" stroke-miterlimit="10"/>
<path d="M415.807 318.15C425.853 318.15 433.997 316.564 433.997 314.607C433.997 312.651 425.853 311.064 415.807 311.064C405.761 311.064 397.617 312.651 397.617 314.607C397.617 316.564 405.761 318.15 415.807 318.15Z" fill="black" stroke="white" stroke-width="0.467089" stroke-miterlimit="10"/>
<path d="M398.103 317.76V323.441" stroke="white" stroke-width="0.467089" stroke-miterlimit="10"/>
<path d="M401.557 318.885V324.566" stroke="white" stroke-width="0.467089" stroke-miterlimit="10"/>
<path d="M405.01 319.635V325.316" stroke="white" stroke-width="0.467089" stroke-miterlimit="10"/>
<path d="M408.466 319.883L408.466 325.69" stroke="white" stroke-width="0.467089" stroke-miterlimit="10"/>
<path d="M411.92 320.357V326.038" stroke="white" stroke-width="0.467089" stroke-miterlimit="10"/>
<path d="M415.376 320.357V326.038" stroke="white" stroke-width="0.467089" stroke-miterlimit="10"/>
<path d="M418.83 320.357V326.038" stroke="white" stroke-width="0.467089" stroke-miterlimit="10"/>
<path d="M422.286 320.188V325.868" stroke="white" stroke-width="0.467089" stroke-miterlimit="10"/>
<path d="M425.742 319.635V325.513" stroke="white" stroke-width="0.467089" stroke-miterlimit="10"/>
<path d="M429.198 319.16V324.841" stroke="white" stroke-width="0.467089" stroke-miterlimit="10"/>
<path d="M432.649 318.15L432.649 324.02" stroke="white" stroke-width="0.467089" stroke-miterlimit="10"/>
<path d="M436.106 316.541V322.222" stroke="white" stroke-width="0.467089" stroke-miterlimit="10"/>
<defs>
<linearGradient id="paint0_linear_3066_8906" x1="389.048" y1="287.874" x2="82.7476" y2="358.041" gradientUnits="userSpaceOnUse">
<stop stop-color="#FFC012"/>
<stop offset="1" stop-color="white"/>
</linearGradient>
<linearGradient id="paint1_linear_3066_8906" x1="525.695" y1="58.4143" x2="386.328" y2="128.098" gradientUnits="userSpaceOnUse">
<stop stop-color="#FFC012"/>
<stop offset="1" stop-color="white"/>
</linearGradient>
<linearGradient id="paint2_linear_3066_8906" x1="222.302" y1="57.8127" x2="82.9346" y2="127.496" gradientUnits="userSpaceOnUse">
<stop stop-color="#FFC012"/>
<stop offset="1" stop-color="white"/>
</linearGradient>
<linearGradient id="paint3_linear_3066_8906" x1="584.972" y1="232.336" x2="388.07" y2="361.582" gradientUnits="userSpaceOnUse">
<stop stop-color="#FFC012"/>
<stop offset="1" stop-color="white"/>
</linearGradient>
</defs>
</svg>
