<svg width="527" height="312" viewBox="0 0 527 312" fill="none" xmlns="http://www.w3.org/2000/svg">
<path d="M483.889 188.967L441.536 164.512L399.18 188.967V237.874L441.536 262.325L483.889 237.874V188.967Z" fill="white" stroke="black" stroke-width="0.796588" stroke-miterlimit="10"/>
<path d="M399.18 188.967L441.536 213.418" stroke="black" stroke-width="0.796588" stroke-miterlimit="10"/>
<path d="M483.888 188.967L441.535 213.418" stroke="black" stroke-width="0.796588" stroke-miterlimit="10"/>
<path d="M441.535 262.325V213.418" stroke="black" stroke-width="0.796588" stroke-miterlimit="10"/>
<path d="M526.448 213.319L484.095 188.863L441.738 213.319V262.225L484.095 286.677L526.448 262.225V213.319Z" fill="url(#paint0_linear_3205_8714)" stroke="black" stroke-width="0.796588" stroke-miterlimit="10"/>
<path d="M441.738 213.318L484.095 237.77" stroke="black" stroke-width="0.796588" stroke-miterlimit="10"/>
<path d="M526.446 213.318L484.093 237.77" stroke="black" stroke-width="0.796588" stroke-miterlimit="10"/>
<path d="M484.093 286.676V237.77" stroke="black" stroke-width="0.796588" stroke-miterlimit="10"/>
<path d="M441.735 213.299L399.382 188.844L357.025 213.299V262.206L399.382 286.657L441.735 262.206V213.299Z" fill="white" stroke="black" stroke-width="0.796588" stroke-miterlimit="10"/>
<path d="M357.025 213.299L399.382 237.75" stroke="black" stroke-width="0.796588" stroke-miterlimit="10"/>
<path d="M441.733 213.299L399.381 237.75" stroke="black" stroke-width="0.796588" stroke-miterlimit="10"/>
<path d="M399.381 286.657V237.75" stroke="black" stroke-width="0.796588" stroke-miterlimit="10"/>
<path d="M526.448 164.393L484.095 139.938L441.738 164.393V213.299L484.095 237.751L526.448 213.299V164.393Z" fill="url(#paint1_linear_3205_8714)" stroke="black" stroke-width="0.796588" stroke-miterlimit="10"/>
<path d="M441.738 164.393L484.095 188.844" stroke="black" stroke-width="0.796588" stroke-miterlimit="10"/>
<path d="M526.446 164.393L484.094 188.844" stroke="black" stroke-width="0.796588" stroke-miterlimit="10"/>
<path d="M484.094 237.75V188.844" stroke="black" stroke-width="0.796588" stroke-miterlimit="10"/>
<path d="M484.094 237.752L441.741 213.297L399.385 237.752V286.659L441.741 311.11L484.094 286.659V237.752Z" fill="url(#paint2_linear_3205_8714)" stroke="black" stroke-width="0.796588" stroke-miterlimit="10"/>
<path d="M399.385 237.752L441.741 262.203" stroke="black" stroke-width="0.796588" stroke-miterlimit="10"/>
<path d="M484.093 237.752L441.74 262.203" stroke="black" stroke-width="0.796588" stroke-miterlimit="10"/>
<path d="M441.74 311.11V262.203" stroke="black" stroke-width="0.796588" stroke-miterlimit="10"/>
<path d="M488.463 63.717V63.4871L488.264 63.3721L445.911 38.9168L445.712 38.8018L445.513 38.9168L403.156 63.3721L402.957 63.4871V63.717V112.624V112.854L403.156 112.969L445.513 137.42L445.712 137.535L445.911 137.42L488.264 112.969L488.463 112.854V112.624V63.717Z" fill="url(#paint3_linear_3205_8714)" fill-opacity="0.8" stroke="black" stroke-width="0.796588" stroke-miterlimit="10"/>
<path d="M403.356 63.7168L445.712 88.1681" stroke="black" stroke-width="0.796588" stroke-miterlimit="10"/>
<path d="M488.064 63.7168L445.711 88.1681" stroke="black" stroke-width="0.796588" stroke-miterlimit="10"/>
<path d="M445.711 137.075V88.168" stroke="black" stroke-width="0.796588" stroke-miterlimit="10"/>
<path d="M21.5423 39.9473H257.244C268.601 39.9473 277.825 49.1676 277.825 60.5281V197.72C277.825 208.81 268.822 217.809 257.737 217.809H21.0537C9.96429 217.809 0.965088 208.806 0.965088 197.72V60.5281C0.965088 49.1712 10.1854 39.9473 21.5459 39.9473H21.5423Z" fill="url(#paint4_linear_3205_8714)" fill-opacity="0.8"/>
<path d="M190.223 71.8819C190.223 73.6368 189.514 75.224 188.365 76.3726C187.217 77.5247 185.626 78.2345 183.874 78.2345H94.9417C91.4319 78.2345 88.5891 75.3917 88.5891 71.8819C88.5891 70.127 89.2989 68.5397 90.4475 67.3912C91.5995 66.2391 93.1868 65.5293 94.9417 65.5293H183.874C187.381 65.5293 190.223 68.3721 190.223 71.8819Z" fill="black"/>
<path d="M180.686 42.1807C180.686 50.5878 178.171 58.4063 173.855 64.9301C170.438 70.0985 165.891 74.4537 160.562 77.6353H118.23C112.901 74.4537 108.354 70.0985 104.937 64.9301C100.621 58.4063 98.106 50.5878 98.106 42.1807C98.106 19.3777 116.593 0.890625 139.396 0.890625C162.199 0.890625 180.686 19.3777 180.686 42.1807Z" fill="black"/>
<path d="M160.707 78.1702H118.079L117.951 78.0953C112.594 74.8959 107.935 70.448 104.486 65.2261C99.9598 58.3848 97.5664 50.4164 97.5664 42.1805C97.57 19.1172 116.332 0.355469 139.395 0.355469C162.458 0.355469 181.22 19.1172 181.22 42.1805C181.22 50.4129 178.827 58.3813 174.3 65.2261C170.848 70.4444 166.193 74.8959 160.835 78.0953L160.707 78.1702ZM118.376 77.1002H160.411C165.579 73.9899 170.07 69.6811 173.405 64.634C177.817 57.9675 180.146 50.2024 180.146 42.1805C180.146 19.7093 161.863 1.42553 139.391 1.42553C116.92 1.42553 98.6365 19.7093 98.6365 42.1805C98.6365 50.2024 100.969 57.9675 105.378 64.634C108.713 69.6811 113.207 73.9863 118.372 77.1002H118.376Z" fill="black"/>
<path fill-rule="evenodd" clip-rule="evenodd" d="M111.498 55.1501C109.633 51.1588 108.591 46.7073 108.591 42.0133C108.591 24.8496 122.505 10.9352 139.669 10.9352C149.228 10.9352 157.778 15.2511 163.478 22.0389L166.881 19.1854C160.364 11.4275 150.595 6.49805 139.669 6.49805C120.051 6.49805 104.15 22.3991 104.15 42.0169C104.15 47.3815 105.342 52.4714 107.471 57.0334L111.495 55.1572L111.498 55.1501Z" fill="white"/>
<path fill-rule="evenodd" clip-rule="evenodd" d="M139.674 63.101C128.025 63.101 118.584 53.6595 118.584 42.0101C118.584 30.3608 128.025 20.9193 139.674 20.9193C146.159 20.9193 151.962 23.8477 155.829 28.4525L159.232 25.599C154.548 20.024 147.525 16.4785 139.674 16.4785C125.575 16.4785 114.143 27.9103 114.143 42.0101C114.143 56.11 125.575 67.5382 139.674 67.5382V63.0975V63.101Z" fill="white"/>
<path fill-rule="evenodd" clip-rule="evenodd" d="M147.329 48.4302C145.495 50.6131 142.749 52.0006 139.678 52.0006C134.16 52.0006 129.687 47.5277 129.687 42.0098C129.687 36.4919 134.16 32.019 139.678 32.019C142.749 32.019 145.499 33.4065 147.329 35.5894L151.156 32.3793C148.406 29.1084 144.286 27.0254 139.678 27.0254C131.403 27.0254 124.693 33.7347 124.693 42.0098C124.693 50.2849 131.403 56.9942 139.678 56.9942C143.901 56.9942 147.714 55.2464 150.439 52.4357L147.332 48.4302H147.329Z" fill="white"/>
<path d="M181.399 76.3945H114.731V78.178H181.399V76.3945Z" fill="black"/>
<path d="M84.2165 136.315L94.7547 166.036H95.0511L105.589 136.315H108.817L96.5495 170.037H93.2563L80.9892 136.315H84.2165ZM140.658 153.176C140.658 156.689 140.032 159.746 138.78 162.348C137.529 164.938 135.806 166.947 133.61 168.374C131.426 169.79 128.912 170.498 126.069 170.498C123.226 170.498 120.706 169.79 118.511 168.374C116.326 166.947 114.608 164.938 113.357 162.348C112.117 159.746 111.496 156.689 111.496 153.176C111.496 149.663 112.117 146.612 113.357 144.021C114.608 141.419 116.332 139.411 118.527 137.994C120.723 136.567 123.237 135.854 126.069 135.854C128.912 135.854 131.426 136.567 133.61 137.994C135.806 139.411 137.529 141.419 138.78 144.021C140.032 146.612 140.658 149.663 140.658 153.176ZM137.661 153.176C137.661 150.157 137.156 147.572 136.146 145.421C135.136 143.258 133.758 141.606 132.013 140.464C130.268 139.323 128.286 138.752 126.069 138.752C123.862 138.752 121.886 139.323 120.141 140.464C118.396 141.606 117.013 143.253 115.992 145.404C114.982 147.556 114.477 150.146 114.477 153.176C114.477 156.195 114.982 158.78 115.992 160.931C117.002 163.083 118.379 164.735 120.125 165.888C121.87 167.029 123.851 167.6 126.069 167.6C128.286 167.6 130.268 167.029 132.013 165.888C133.769 164.746 135.152 163.099 136.162 160.948C137.172 158.785 137.672 156.195 137.661 153.176ZM144.659 139.081V136.315H169.111V139.081H158.424V170.037H155.345V139.081H144.659ZM176.043 170.037V136.315H195.604V139.081H179.122V151.776H194.567V154.543H179.122V167.271H195.934V170.037H176.043Z" fill="black"/>
<line x1="2.21509" y1="108.464" x2="277.824" y2="108.464" stroke="black" stroke-width="1.932"/>
<path d="M389.714 82.2715L380.417 76.9037V87.6392L389.714 82.2715ZM291.939 83.2012H381.346V81.3418H291.939V83.2012Z" fill="black"/>
<defs>
<linearGradient id="paint0_linear_3205_8714" x1="507.819" y1="241.909" x2="403.838" y2="300.96" gradientUnits="userSpaceOnUse">
<stop stop-color="white"/>
<stop offset="1" stop-color="white"/>
</linearGradient>
<linearGradient id="paint1_linear_3205_8714" x1="507.469" y1="125.377" x2="446.611" y2="265.382" gradientUnits="userSpaceOnUse">
<stop stop-color="#FFC012"/>
<stop offset="1" stop-color="white"/>
</linearGradient>
<linearGradient id="paint2_linear_3205_8714" x1="465.466" y1="266.343" x2="361.484" y2="325.394" gradientUnits="userSpaceOnUse">
<stop stop-color="white"/>
<stop offset="1" stop-color="white"/>
</linearGradient>
<linearGradient id="paint3_linear_3205_8714" x1="611.718" y1="-18.4438" x2="365.455" y2="151.359" gradientUnits="userSpaceOnUse">
<stop stop-color="#2762FF"/>
<stop offset="1" stop-color="white"/>
</linearGradient>
<linearGradient id="paint4_linear_3205_8714" x1="233.296" y1="203.656" x2="437.069" y2="-4.15307" gradientUnits="userSpaceOnUse">
<stop stop-color="#FCBF18"/>
<stop offset="1" stop-color="#FCBF18" stop-opacity="0"/>
</linearGradient>
</defs>
</svg>
