<svg width="336" height="336" viewBox="0 0 336 336" fill="none" xmlns="http://www.w3.org/2000/svg">
<g filter="url(#filter0_d)">
<path d="M200 136V72L248 72.0597V136H200Z" fill="url(#paint0_linear)"/>
</g>
<rect x="204" y="77" width="40" height="1" fill="black"/>
<rect x="204" y="82" width="40" height="1" fill="black"/>
<rect x="204" y="87" width="40" height="1" fill="black"/>
<rect x="204" y="92" width="40" height="1" fill="black"/>
<rect x="204" y="97" width="32" height="1" fill="black"/>
<g filter="url(#filter1_d)">
<circle cx="168" cy="168" r="96" fill="url(#paint1_radial)"/>
</g>
<rect x="116.977" y="150" width="1.99333" height="24" fill="url(#paint2_linear)"/>
<rect x="110" y="163" width="2" height="15.9467" transform="rotate(-90 110 163)" fill="url(#paint3_linear)"/>
<rect x="146.977" y="93" width="1.99333" height="24" fill="url(#paint4_linear)"/>
<rect x="140" y="106" width="2" height="15.9467" transform="rotate(-90 140 106)" fill="url(#paint5_linear)"/>
<rect x="214.977" y="212" width="1.99333" height="24" fill="url(#paint6_linear)"/>
<rect x="208" y="225" width="2" height="15.9467" transform="rotate(-90 208 225)" fill="url(#paint7_linear)"/>
<circle cx="168" cy="168" r="144" stroke="url(#paint8_linear)"/>
<g filter="url(#filter2_d)">
<path d="M88 264V200L136 200.06V264H88Z" fill="#2762FF"/>
</g>
<rect x="92" y="204" width="40" height="1" fill="white"/>
<rect x="92" y="209" width="40" height="1" fill="white"/>
<rect x="92" y="214" width="40" height="1" fill="white"/>
<rect x="92" y="219" width="40" height="1" fill="white"/>
<rect x="92" y="224" width="32" height="1" fill="white"/>
<circle cx="168" cy="168" r="152" stroke="url(#paint9_linear)"/>
<circle cx="168" cy="168" r="160" stroke="url(#paint10_linear)"/>
<circle cx="320" cy="168" r="16" transform="rotate(-180 320 168)" fill="url(#paint11_linear)"/>
<path d="M85.3369 236.286C102.547 257.194 153.37 243.792 198.853 206.353C244.336 168.913 267.256 121.614 250.046 100.706" stroke="url(#paint12_linear)"/>
<defs>
<filter id="filter0_d" x="196" y="68" width="56" height="72" filterUnits="userSpaceOnUse" color-interpolation-filters="sRGB">
<feFlood flood-opacity="0" result="BackgroundImageFix"/>
<feColorMatrix in="SourceAlpha" type="matrix" values="0 0 0 0 0 0 0 0 0 0 0 0 0 0 0 0 0 0 127 0"/>
<feOffset/>
<feGaussianBlur stdDeviation="2"/>
<feColorMatrix type="matrix" values="0 0 0 0 0 0 0 0 0 0 0 0 0 0 0 0 0 0 0.25 0"/>
<feBlend mode="normal" in2="BackgroundImageFix" result="effect1_dropShadow"/>
<feBlend mode="normal" in="SourceGraphic" in2="effect1_dropShadow" result="shape"/>
</filter>
<filter id="filter1_d" x="56" y="56" width="224" height="224" filterUnits="userSpaceOnUse" color-interpolation-filters="sRGB">
<feFlood flood-opacity="0" result="BackgroundImageFix"/>
<feColorMatrix in="SourceAlpha" type="matrix" values="0 0 0 0 0 0 0 0 0 0 0 0 0 0 0 0 0 0 127 0"/>
<feOffset/>
<feGaussianBlur stdDeviation="8"/>
<feColorMatrix type="matrix" values="0 0 0 0 0.988 0 0 0 0 0.729 0 0 0 0 0.349 0 0 0 0.5 0"/>
<feBlend mode="normal" in2="BackgroundImageFix" result="effect1_dropShadow"/>
<feBlend mode="normal" in="SourceGraphic" in2="effect1_dropShadow" result="shape"/>
</filter>
<filter id="filter2_d" x="84" y="196" width="56" height="72" filterUnits="userSpaceOnUse" color-interpolation-filters="sRGB">
<feFlood flood-opacity="0" result="BackgroundImageFix"/>
<feColorMatrix in="SourceAlpha" type="matrix" values="0 0 0 0 0 0 0 0 0 0 0 0 0 0 0 0 0 0 127 0"/>
<feOffset/>
<feGaussianBlur stdDeviation="2"/>
<feColorMatrix type="matrix" values="0 0 0 0 0.152941 0 0 0 0 0.384314 0 0 0 0 1 0 0 0 0.5 0"/>
<feBlend mode="normal" in2="BackgroundImageFix" result="effect1_dropShadow"/>
<feBlend mode="normal" in="SourceGraphic" in2="effect1_dropShadow" result="shape"/>
</filter>
<linearGradient id="paint0_linear" x1="200" y1="103.522" x2="248" y2="103.522" gradientUnits="userSpaceOnUse">
<stop stop-color="white"/>
<stop offset="1" stop-color="white"/>
</linearGradient>
<radialGradient id="paint1_radial" cx="0" cy="0" r="1" gradientUnits="userSpaceOnUse" gradientTransform="translate(205 140.5) rotate(156.62) scale(144.897 227.915)">
<stop offset="0.266687" stop-color="#FCBA59"/>
<stop offset="1" stop-color="white"/>
</radialGradient>
<linearGradient id="paint2_linear" x1="117.973" y1="150" x2="117.973" y2="174" gradientUnits="userSpaceOnUse">
<stop stop-color="white" stop-opacity="0"/>
<stop offset="0.520833" stop-color="white"/>
<stop offset="1" stop-color="white" stop-opacity="0"/>
</linearGradient>
<linearGradient id="paint3_linear" x1="111" y1="163" x2="111" y2="178.947" gradientUnits="userSpaceOnUse">
<stop stop-color="white" stop-opacity="0"/>
<stop offset="0.520833" stop-color="white"/>
<stop offset="1" stop-color="white" stop-opacity="0"/>
</linearGradient>
<linearGradient id="paint4_linear" x1="147.973" y1="93" x2="147.973" y2="117" gradientUnits="userSpaceOnUse">
<stop stop-color="white" stop-opacity="0"/>
<stop offset="0.520833" stop-color="white"/>
<stop offset="1" stop-color="white" stop-opacity="0"/>
</linearGradient>
<linearGradient id="paint5_linear" x1="141" y1="106" x2="141" y2="121.947" gradientUnits="userSpaceOnUse">
<stop stop-color="white" stop-opacity="0"/>
<stop offset="0.520833" stop-color="white"/>
<stop offset="1" stop-color="white" stop-opacity="0"/>
</linearGradient>
<linearGradient id="paint6_linear" x1="215.973" y1="212" x2="215.973" y2="236" gradientUnits="userSpaceOnUse">
<stop stop-color="white" stop-opacity="0"/>
<stop offset="0.520833" stop-color="white"/>
<stop offset="1" stop-color="white" stop-opacity="0"/>
</linearGradient>
<linearGradient id="paint7_linear" x1="209" y1="225" x2="209" y2="240.947" gradientUnits="userSpaceOnUse">
<stop stop-color="white" stop-opacity="0"/>
<stop offset="0.520833" stop-color="white"/>
<stop offset="1" stop-color="white" stop-opacity="0"/>
</linearGradient>
<linearGradient id="paint8_linear" x1="24" y1="168" x2="312" y2="168" gradientUnits="userSpaceOnUse">
<stop offset="0.774306" stop-color="#2762FF"/>
<stop offset="0.873264" stop-color="#2762FF" stop-opacity="0"/>
</linearGradient>
<linearGradient id="paint9_linear" x1="38" y1="90" x2="307.5" y2="206" gradientUnits="userSpaceOnUse">
<stop offset="0.596742" stop-color="#2762FF"/>
<stop offset="0.726762" stop-color="#2762FF" stop-opacity="0"/>
</linearGradient>
<linearGradient id="paint10_linear" x1="8" y1="168" x2="168" y2="328" gradientUnits="userSpaceOnUse">
<stop offset="0.3625" stop-color="#2762FF"/>
<stop offset="0.528125" stop-color="#2762FF" stop-opacity="0"/>
</linearGradient>
<linearGradient id="paint11_linear" x1="304" y1="168" x2="336" y2="168" gradientUnits="userSpaceOnUse">
<stop/>
<stop offset="1" stop-color="#2762FF"/>
</linearGradient>
<linearGradient id="paint12_linear" x1="250" y1="101" x2="91" y2="243" gradientUnits="userSpaceOnUse">
<stop stop-color="#2762FF"/>
<stop offset="1" stop-color="white" stop-opacity="0"/>
</linearGradient>
</defs>
</svg>
