<svg width="231" height="32" viewBox="0 0 231 32" fill="none" xmlns="http://www.w3.org/2000/svg">
<g clip-path="url(#clip0)">
<path d="M4.91038 6.81324V31.6035H0V2.80509C0 0.495649 2.69904 -0.820819 4.58675 0.567825L27.9111 17.7258C28.6301 18.2548 29.0531 19.0834 29.0531 19.963V31.6035H24.1427V20.961L4.91038 6.81324Z" fill="#1AAB9B"/>
<path d="M84.1015 4.40344C82.1741 4.40344 80.6118 5.93068 80.6118 7.81468V29.382H85.1433V10.6964L91.2526 20.4418C91.9482 21.5513 93.1836 22.2276 94.5151 22.2276C95.843 22.2276 97.0763 21.5543 97.7728 20.4488L103.917 10.6964V29.382H108.448V7.65624C108.448 5.85976 106.959 4.40344 105.121 4.40344C103.941 4.40344 102.848 5.01456 102.251 6.00956L94.6019 18.7472L87.1222 6.10668C86.4985 5.05256 85.3471 4.40344 84.1015 4.40344Z" fill="#1AAB9B"/>
<path fill-rule="evenodd" clip-rule="evenodd" d="M129.377 4.40344C127.88 4.40344 126.534 5.29712 125.983 6.65792L116.772 29.382H121.16L124.019 22.8429H134.449L137.308 29.382H141.966L132.773 6.65992C132.221 5.29808 130.875 4.40344 129.377 4.40344ZM129.234 9.51868L132.867 18.7823H125.584L129.234 9.51868Z" fill="#1AAB9B"/>
<path d="M154.228 15.8468L165.28 4.9928C165.664 4.61552 166.186 4.40344 166.731 4.40344C168.557 4.40344 169.469 6.56328 168.175 7.8226L159.407 16.3566L172.336 29.382H166.456L154.228 17.2882V29.382H149.696V6.61828C149.696 5.39504 150.71 4.40344 151.962 4.40344C153.214 4.40344 154.228 5.39504 154.228 6.61828V15.8468Z" fill="#1AAB9B"/>
<path d="M180.354 25.382C180.354 27.5911 182.185 29.382 184.446 29.382H196.196C197.348 29.382 198.282 28.469 198.282 27.3429C198.282 26.2167 197.348 25.3038 196.196 25.3038H184.903V18.5538H195.207C196.359 18.5538 197.293 17.6409 197.293 16.5148C197.293 15.3886 196.359 14.4757 195.207 14.4757H184.903V8.48156H196.196C197.348 8.48156 198.282 7.56864 198.282 6.44248C198.282 5.31636 197.348 4.40344 196.196 4.40344H184.446C182.185 4.40344 180.354 6.19428 180.354 8.40344V25.382Z" fill="#1AAB9B"/>
<path fill-rule="evenodd" clip-rule="evenodd" d="M228.4 11.5577C228.4 12.3546 228.298 13.1163 228.095 13.8429C227.903 14.5577 227.591 15.2491 227.159 15.9171C226.74 16.5851 226.159 17.1827 225.415 17.7101C224.684 18.2374 223.815 18.6476 222.808 18.9405L230.522 29.382H224.624L217.467 19.6964H213.133V29.382H208.602V8.40344C208.602 6.19428 210.434 4.40344 212.694 4.40344H219.481C220.021 4.40344 220.512 4.421 220.956 4.45616C221.411 4.4796 221.957 4.54992 222.592 4.66708C223.239 4.77256 223.809 4.91904 224.3 5.10656C224.804 5.29404 225.319 5.56944 225.847 5.93272C226.387 6.296 226.83 6.72372 227.178 7.21592C227.537 7.6964 227.831 8.31164 228.059 9.06164C228.286 9.79992 228.4 10.632 228.4 11.5577ZM213.133 8.46396V15.6183H217.305C218.025 15.6183 218.66 15.5948 219.211 15.548C219.763 15.5011 220.332 15.4073 220.92 15.2667C221.507 15.1144 221.987 14.9093 222.358 14.6515C222.742 14.3937 223.054 14.0362 223.293 13.5792C223.545 13.1222 223.671 12.5831 223.671 11.962C223.671 9.63 221.831 8.46396 218.151 8.46396H213.133Z" fill="#1AAB9B"/>
<path d="M56.8788 31.6035V6.81324L37.6465 20.961V31.6035H32.7361V19.963C32.7361 19.0834 33.159 18.2548 33.8781 17.7258L57.2025 0.567825C59.0901 -0.820819 61.7892 0.495649 61.7892 2.80509V31.6035H56.8788Z" fill="#1AAB9B"/>
</g>
<defs>
<clipPath id="clip0">
<rect width="230.788" height="32" fill="white"/>
</clipPath>
</defs>
</svg>
