<svg width="1920" height="864" viewBox="0 0 1920 864" fill="none" xmlns="http://www.w3.org/2000/svg">
<rect width="1920" height="864" fill="#0828BE"/>
<rect x="1393.86" y="197" width="1.99333" height="24" fill="url(#paint0_linear)"/>
<rect x="1386.88" y="210" width="2" height="15.9467" transform="rotate(-90 1386.88 210)" fill="url(#paint1_linear)"/>
<rect x="1498.48" y="279" width="1.99333" height="24" fill="url(#paint2_linear)"/>
<rect x="1491.5" y="292" width="2" height="15.9467" transform="rotate(-90 1491.5 292)" fill="url(#paint3_linear)"/>
<rect x="451.977" y="311" width="1.99333" height="24" fill="url(#paint4_linear)"/>
<rect x="445" y="324" width="2" height="15.9467" transform="rotate(-90 445 324)" fill="url(#paint5_linear)"/>
<rect x="672.24" y="276" width="1.99333" height="24" fill="url(#paint6_linear)"/>
<rect x="665.264" y="289" width="2" height="15.9467" transform="rotate(-90 665.264 289)" fill="url(#paint7_linear)"/>
<rect x="926.29" y="300" width="1.99333" height="24" fill="url(#paint8_linear)"/>
<rect x="919.313" y="313" width="2" height="15.9467" transform="rotate(-90 919.313 313)" fill="url(#paint9_linear)"/>
<rect x="721.077" y="208" width="1.99333" height="24" fill="url(#paint10_linear)"/>
<rect x="714.1" y="221" width="2" height="15.9467" transform="rotate(-90 714.1 221)" fill="url(#paint11_linear)"/>
<rect x="556.29" y="591" width="1.99333" height="24" fill="url(#paint12_linear)"/>
<rect x="549.313" y="604" width="2" height="15.9467" transform="rotate(-90 549.313 604)" fill="url(#paint13_linear)"/>
<rect x="244.977" y="739" width="1.99333" height="24" fill="url(#paint14_linear)"/>
<rect x="238" y="752" width="2" height="15.9467" transform="rotate(-90 238 752)" fill="url(#paint15_linear)"/>
<rect x="1684.98" y="727" width="1.99333" height="24" fill="url(#paint16_linear)"/>
<rect x="1678" y="740" width="2" height="15.9467" transform="rotate(-90 1678 740)" fill="url(#paint17_linear)"/>
<rect x="1846.98" y="73" width="1.99333" height="24" fill="url(#paint18_linear)"/>
<rect x="1840" y="86" width="2" height="15.9467" transform="rotate(-90 1840 86)" fill="url(#paint19_linear)"/>
<rect x="655.977" y="60" width="1.99333" height="24" fill="url(#paint20_linear)"/>
<rect x="649" y="73" width="2" height="15.9467" transform="rotate(-90 649 73)" fill="url(#paint21_linear)"/>
<rect x="1364.29" y="648" width="1.99333" height="24" fill="url(#paint22_linear)"/>
<rect x="1357.31" y="661" width="2" height="15.9467" transform="rotate(-90 1357.31 661)" fill="url(#paint23_linear)"/>
<defs>
<linearGradient id="paint0_linear" x1="1394.86" y1="197" x2="1394.86" y2="221" gradientUnits="userSpaceOnUse">
<stop stop-color="white" stop-opacity="0"/>
<stop offset="0.520833" stop-color="white"/>
<stop offset="1" stop-color="white" stop-opacity="0"/>
</linearGradient>
<linearGradient id="paint1_linear" x1="1387.88" y1="210" x2="1387.88" y2="225.947" gradientUnits="userSpaceOnUse">
<stop stop-color="white" stop-opacity="0"/>
<stop offset="0.520833" stop-color="white"/>
<stop offset="1" stop-color="white" stop-opacity="0"/>
</linearGradient>
<linearGradient id="paint2_linear" x1="1499.47" y1="279" x2="1499.47" y2="303" gradientUnits="userSpaceOnUse">
<stop stop-color="white" stop-opacity="0"/>
<stop offset="0.520833" stop-color="white"/>
<stop offset="1" stop-color="white" stop-opacity="0"/>
</linearGradient>
<linearGradient id="paint3_linear" x1="1492.5" y1="292" x2="1492.5" y2="307.947" gradientUnits="userSpaceOnUse">
<stop stop-color="white" stop-opacity="0"/>
<stop offset="0.520833" stop-color="white"/>
<stop offset="1" stop-color="white" stop-opacity="0"/>
</linearGradient>
<linearGradient id="paint4_linear" x1="452.973" y1="311" x2="452.973" y2="335" gradientUnits="userSpaceOnUse">
<stop stop-color="white" stop-opacity="0"/>
<stop offset="0.520833" stop-color="white"/>
<stop offset="1" stop-color="white" stop-opacity="0"/>
</linearGradient>
<linearGradient id="paint5_linear" x1="446" y1="324" x2="446" y2="339.947" gradientUnits="userSpaceOnUse">
<stop stop-color="white" stop-opacity="0"/>
<stop offset="0.520833" stop-color="white"/>
<stop offset="1" stop-color="white" stop-opacity="0"/>
</linearGradient>
<linearGradient id="paint6_linear" x1="673.237" y1="276" x2="673.237" y2="300" gradientUnits="userSpaceOnUse">
<stop stop-color="white" stop-opacity="0"/>
<stop offset="0.520833" stop-color="white"/>
<stop offset="1" stop-color="white" stop-opacity="0"/>
</linearGradient>
<linearGradient id="paint7_linear" x1="666.264" y1="289" x2="666.264" y2="304.947" gradientUnits="userSpaceOnUse">
<stop stop-color="white" stop-opacity="0"/>
<stop offset="0.520833" stop-color="white"/>
<stop offset="1" stop-color="white" stop-opacity="0"/>
</linearGradient>
<linearGradient id="paint8_linear" x1="927.287" y1="300" x2="927.287" y2="324" gradientUnits="userSpaceOnUse">
<stop stop-color="white" stop-opacity="0"/>
<stop offset="0.520833" stop-color="white"/>
<stop offset="1" stop-color="white" stop-opacity="0"/>
</linearGradient>
<linearGradient id="paint9_linear" x1="920.313" y1="313" x2="920.313" y2="328.947" gradientUnits="userSpaceOnUse">
<stop stop-color="white" stop-opacity="0"/>
<stop offset="0.520833" stop-color="white"/>
<stop offset="1" stop-color="white" stop-opacity="0"/>
</linearGradient>
<linearGradient id="paint10_linear" x1="722.073" y1="208" x2="722.073" y2="232" gradientUnits="userSpaceOnUse">
<stop stop-color="white" stop-opacity="0"/>
<stop offset="0.520833" stop-color="white"/>
<stop offset="1" stop-color="white" stop-opacity="0"/>
</linearGradient>
<linearGradient id="paint11_linear" x1="715.1" y1="221" x2="715.1" y2="236.947" gradientUnits="userSpaceOnUse">
<stop stop-color="white" stop-opacity="0"/>
<stop offset="0.520833" stop-color="white"/>
<stop offset="1" stop-color="white" stop-opacity="0"/>
</linearGradient>
<linearGradient id="paint12_linear" x1="557.287" y1="591" x2="557.287" y2="615" gradientUnits="userSpaceOnUse">
<stop stop-color="white" stop-opacity="0"/>
<stop offset="0.520833" stop-color="white"/>
<stop offset="1" stop-color="white" stop-opacity="0"/>
</linearGradient>
<linearGradient id="paint13_linear" x1="550.313" y1="604" x2="550.313" y2="619.947" gradientUnits="userSpaceOnUse">
<stop stop-color="white" stop-opacity="0"/>
<stop offset="0.520833" stop-color="white"/>
<stop offset="1" stop-color="white" stop-opacity="0"/>
</linearGradient>
<linearGradient id="paint14_linear" x1="245.973" y1="739" x2="245.973" y2="763" gradientUnits="userSpaceOnUse">
<stop stop-color="white" stop-opacity="0"/>
<stop offset="0.520833" stop-color="white"/>
<stop offset="1" stop-color="white" stop-opacity="0"/>
</linearGradient>
<linearGradient id="paint15_linear" x1="239" y1="752" x2="239" y2="767.947" gradientUnits="userSpaceOnUse">
<stop stop-color="white" stop-opacity="0"/>
<stop offset="0.520833" stop-color="white"/>
<stop offset="1" stop-color="white" stop-opacity="0"/>
</linearGradient>
<linearGradient id="paint16_linear" x1="1685.97" y1="727" x2="1685.97" y2="751" gradientUnits="userSpaceOnUse">
<stop stop-color="white" stop-opacity="0"/>
<stop offset="0.520833" stop-color="white"/>
<stop offset="1" stop-color="white" stop-opacity="0"/>
</linearGradient>
<linearGradient id="paint17_linear" x1="1679" y1="740" x2="1679" y2="755.947" gradientUnits="userSpaceOnUse">
<stop stop-color="white" stop-opacity="0"/>
<stop offset="0.520833" stop-color="white"/>
<stop offset="1" stop-color="white" stop-opacity="0"/>
</linearGradient>
<linearGradient id="paint18_linear" x1="1847.97" y1="73" x2="1847.97" y2="97" gradientUnits="userSpaceOnUse">
<stop stop-color="white" stop-opacity="0"/>
<stop offset="0.520833" stop-color="white"/>
<stop offset="1" stop-color="white" stop-opacity="0"/>
</linearGradient>
<linearGradient id="paint19_linear" x1="1841" y1="86" x2="1841" y2="101.947" gradientUnits="userSpaceOnUse">
<stop stop-color="white" stop-opacity="0"/>
<stop offset="0.520833" stop-color="white"/>
<stop offset="1" stop-color="white" stop-opacity="0"/>
</linearGradient>
<linearGradient id="paint20_linear" x1="656.973" y1="60" x2="656.973" y2="84" gradientUnits="userSpaceOnUse">
<stop stop-color="white" stop-opacity="0"/>
<stop offset="0.520833" stop-color="white"/>
<stop offset="1" stop-color="white" stop-opacity="0"/>
</linearGradient>
<linearGradient id="paint21_linear" x1="650" y1="73" x2="650" y2="88.9467" gradientUnits="userSpaceOnUse">
<stop stop-color="white" stop-opacity="0"/>
<stop offset="0.520833" stop-color="white"/>
<stop offset="1" stop-color="white" stop-opacity="0"/>
</linearGradient>
<linearGradient id="paint22_linear" x1="1365.29" y1="648" x2="1365.29" y2="672" gradientUnits="userSpaceOnUse">
<stop stop-color="white" stop-opacity="0"/>
<stop offset="0.520833" stop-color="white"/>
<stop offset="1" stop-color="white" stop-opacity="0"/>
</linearGradient>
<linearGradient id="paint23_linear" x1="1358.31" y1="661" x2="1358.31" y2="676.947" gradientUnits="userSpaceOnUse">
<stop stop-color="white" stop-opacity="0"/>
<stop offset="0.520833" stop-color="white"/>
<stop offset="1" stop-color="white" stop-opacity="0"/>
</linearGradient>
</defs>
</svg>
