<svg width="256" height="46" viewBox="0 0 256 46" fill="none" xmlns="http://www.w3.org/2000/svg">
<path fill-rule="evenodd" clip-rule="evenodd" d="M28 44.2915C36.3163 46.2726 46.0834 47.2602 54 42.3658C59.7514 38.8099 64 34.8715 64 19.1329C64 3.39436 48.9334 6.10352e-05 42 6.10352e-05C29.0834 6.10352e-05 24.3586 9.46747 14 13.393C3.64143 17.3185 0 21.6699 0 26.7862C0 37.0047 16.8843 41.6434 28 44.2915Z" fill="white"/>
<path fill-rule="evenodd" clip-rule="evenodd" d="M92.8415 11.1861V41.3278H85.3809V11.1861H73.1475V4.40845H105.075V11.1861H92.8415Z" fill="white"/>
<mask id="mask0" mask-type="alpha" maskUnits="userSpaceOnUse" x="0" y="0" width="256" height="46">
<path fill-rule="evenodd" clip-rule="evenodd" d="M0 45.9193H256V0H0V45.9193Z" fill="white"/>
</mask>
<g mask="url(#mask0)">
<path fill-rule="evenodd" clip-rule="evenodd" d="M108.618 41.328H115.859V13.8312H108.618V41.328ZM115.366 2.56262C116.207 3.42591 116.627 4.44531 116.627 5.62056C116.627 6.83312 116.207 7.84334 115.366 8.65152C114.524 9.45941 113.482 9.86379 112.239 9.86379C110.959 9.86379 109.907 9.45941 109.084 8.65152C108.262 7.84334 107.85 6.83312 107.85 5.62056C107.85 4.44531 108.271 3.42591 109.112 2.56262C109.953 1.69905 110.995 1.2677 112.239 1.2677C113.482 1.2677 114.524 1.69905 115.366 2.56262Z" fill="white"/>
<path fill-rule="evenodd" clip-rule="evenodd" d="M145.493 16.2281C147.504 18.3771 148.51 21.1598 148.51 24.5762V41.3279H141.269V26.1191C141.269 24.1721 140.766 22.6109 139.76 21.4354C138.754 20.2598 137.41 19.6721 135.728 19.6721C131.193 19.6721 128.926 22.8313 128.926 29.1498V41.3279H121.685V13.8311H128.926V16.3108C131.12 14.1066 133.991 13.0046 137.538 13.0046C140.83 13.0046 143.481 14.0791 145.493 16.2281Z" fill="white"/>
<path fill-rule="evenodd" clip-rule="evenodd" d="M154.089 41.3276H161.33V1.65302H154.089V41.3276Z" fill="white"/>
<path fill-rule="evenodd" clip-rule="evenodd" d="M185.648 33.5307C187.221 32.0062 188.007 30.0316 188.007 27.6071C188.007 25.1826 187.221 23.1986 185.648 21.656C184.076 20.1131 182.266 19.3416 180.218 19.3416C177.987 19.3416 176.149 20.0947 174.704 21.6009C173.26 23.107 172.537 25.1091 172.537 27.6071C172.537 30.1048 173.26 32.098 174.704 33.5858C176.149 35.0736 177.987 35.8175 180.218 35.8175C182.266 35.8175 184.076 35.0552 185.648 33.5307ZM195.249 41.3278H188.007V39.1787C185.557 41.1624 182.54 42.1543 178.956 42.1543C175.335 42.1543 172.19 40.7767 169.52 38.0216C166.85 35.2664 165.516 31.7949 165.516 27.6071C165.516 23.4192 166.86 19.9386 169.548 17.165C172.236 14.3915 175.372 13.0045 178.956 13.0045C182.576 13.0045 185.594 14.0147 188.007 16.0354V13.831H195.249V41.3278Z" fill="white"/>
<path fill-rule="evenodd" clip-rule="evenodd" d="M220.192 41.3277L209.44 30.5826H208.178V41.3277H200.937V1.6532H208.178V23.4192H209.495L219.314 13.831H228.421L215.2 27.0009L229.847 41.3277H220.192Z" fill="white"/>
<path fill-rule="evenodd" clip-rule="evenodd" d="M237.925 20.664C236.627 21.5457 235.776 22.7947 235.374 24.411H248.595C248.156 22.7212 247.351 21.4538 246.181 20.6089C245.011 19.764 243.657 19.3415 242.121 19.3415C240.622 19.3415 239.223 19.7824 237.925 20.664ZM256 29.5356H235.154C235.52 31.4826 236.334 33.035 237.595 34.1919C238.857 35.349 240.329 35.9279 242.011 35.9279C245.12 35.9279 247.387 34.7153 248.814 32.2908L255.287 33.6687C254.117 36.4606 252.379 38.5726 250.075 40.0055C247.771 41.4379 245.083 42.1543 242.011 42.1543C238.061 42.1543 234.734 40.7953 232.027 38.0766C229.321 35.3582 227.968 31.8683 227.968 27.607C227.968 23.3457 229.33 19.8467 232.055 17.1099C234.779 14.3731 238.135 13.0047 242.121 13.0047C245.851 13.0047 249.061 14.318 251.749 16.9446C254.437 19.5712 255.854 22.9416 256 27.056V29.5356Z" fill="white"/>
<path fill-rule="evenodd" clip-rule="evenodd" d="M42.4361 17.3608V32.4304H38.7058V17.3608H32.5898V13.9723H48.5521V17.3608H42.4361Z" fill="#0828BE"/>
</g>
</svg>
