<svg width="424" height="1536" viewBox="0 0 424 1536" fill="none" xmlns="http://www.w3.org/2000/svg">
<rect width="424" height="1536" fill="#0828BE"/>
<rect x="121.24" y="369" width="1.99333" height="24" fill="url(#paint0_linear)"/>
<rect x="114.264" y="382" width="2" height="15.9467" transform="rotate(-90 114.264 382)" fill="url(#paint1_linear)"/>
<rect x="375.29" y="393" width="1.99333" height="24" fill="url(#paint2_linear)"/>
<rect x="368.313" y="406" width="2" height="15.9467" transform="rotate(-90 368.313 406)" fill="url(#paint3_linear)"/>
<rect x="167.977" y="956" width="1.99333" height="24" fill="url(#paint4_linear)"/>
<rect x="161" y="969" width="2" height="15.9467" transform="rotate(-90 161 969)" fill="url(#paint5_linear)"/>
<rect x="385.977" y="1316" width="1.99333" height="24" fill="url(#paint6_linear)"/>
<rect x="379" y="1329" width="2" height="15.9467" transform="rotate(-90 379 1329)" fill="url(#paint7_linear)"/>
<rect x="40.9766" y="1491" width="1.99333" height="24" fill="url(#paint8_linear)"/>
<rect x="34" y="1504" width="2" height="15.9467" transform="rotate(-90 34 1504)" fill="url(#paint9_linear)"/>
<defs>
<linearGradient id="paint0_linear" x1="122.237" y1="369" x2="122.237" y2="393" gradientUnits="userSpaceOnUse">
<stop stop-color="white" stop-opacity="0"/>
<stop offset="0.520833" stop-color="white"/>
<stop offset="1" stop-color="white" stop-opacity="0"/>
</linearGradient>
<linearGradient id="paint1_linear" x1="115.264" y1="382" x2="115.264" y2="397.947" gradientUnits="userSpaceOnUse">
<stop stop-color="white" stop-opacity="0"/>
<stop offset="0.520833" stop-color="white"/>
<stop offset="1" stop-color="white" stop-opacity="0"/>
</linearGradient>
<linearGradient id="paint2_linear" x1="376.287" y1="393" x2="376.287" y2="417" gradientUnits="userSpaceOnUse">
<stop stop-color="white" stop-opacity="0"/>
<stop offset="0.520833" stop-color="white"/>
<stop offset="1" stop-color="white" stop-opacity="0"/>
</linearGradient>
<linearGradient id="paint3_linear" x1="369.313" y1="406" x2="369.313" y2="421.947" gradientUnits="userSpaceOnUse">
<stop stop-color="white" stop-opacity="0"/>
<stop offset="0.520833" stop-color="white"/>
<stop offset="1" stop-color="white" stop-opacity="0"/>
</linearGradient>
<linearGradient id="paint4_linear" x1="168.973" y1="956" x2="168.973" y2="980" gradientUnits="userSpaceOnUse">
<stop stop-color="white" stop-opacity="0"/>
<stop offset="0.520833" stop-color="white"/>
<stop offset="1" stop-color="white" stop-opacity="0"/>
</linearGradient>
<linearGradient id="paint5_linear" x1="162" y1="969" x2="162" y2="984.947" gradientUnits="userSpaceOnUse">
<stop stop-color="white" stop-opacity="0"/>
<stop offset="0.520833" stop-color="white"/>
<stop offset="1" stop-color="white" stop-opacity="0"/>
</linearGradient>
<linearGradient id="paint6_linear" x1="386.973" y1="1316" x2="386.973" y2="1340" gradientUnits="userSpaceOnUse">
<stop stop-color="white" stop-opacity="0"/>
<stop offset="0.520833" stop-color="white"/>
<stop offset="1" stop-color="white" stop-opacity="0"/>
</linearGradient>
<linearGradient id="paint7_linear" x1="380" y1="1329" x2="380" y2="1344.95" gradientUnits="userSpaceOnUse">
<stop stop-color="white" stop-opacity="0"/>
<stop offset="0.520833" stop-color="white"/>
<stop offset="1" stop-color="white" stop-opacity="0"/>
</linearGradient>
<linearGradient id="paint8_linear" x1="41.9732" y1="1491" x2="41.9732" y2="1515" gradientUnits="userSpaceOnUse">
<stop stop-color="white" stop-opacity="0"/>
<stop offset="0.520833" stop-color="white"/>
<stop offset="1" stop-color="white" stop-opacity="0"/>
</linearGradient>
<linearGradient id="paint9_linear" x1="35" y1="1504" x2="35" y2="1519.95" gradientUnits="userSpaceOnUse">
<stop stop-color="white" stop-opacity="0"/>
<stop offset="0.520833" stop-color="white"/>
<stop offset="1" stop-color="white" stop-opacity="0"/>
</linearGradient>
</defs>
</svg>
