<svg width="30" height="30" viewBox="0 0 30 30" fill="none" xmlns="http://www.w3.org/2000/svg">
<path fill-rule="evenodd" clip-rule="evenodd" d="M3.44242 23.804C2.5688 21.9337 2.08083 19.8472 2.08083 17.6467C2.08083 9.60219 8.60219 3.08086 16.6467 3.08086C21.126 3.08086 25.133 5.1029 27.8049 8.28385L29.399 6.94633C26.3453 3.31092 21.766 1 16.6467 1C7.45299 1 0 8.45299 0 17.6467C0 20.1616 0.557663 22.5462 1.5561 24.6836L3.44242 23.804Z" fill="white"/>
<path fill-rule="evenodd" clip-rule="evenodd" d="M16.6466 27.5309C11.1878 27.5309 6.76262 23.1057 6.76262 17.647C6.76262 12.1882 11.1878 7.76296 16.6466 7.76296C19.6861 7.76296 22.4047 9.13542 24.2178 11.2939L25.8123 9.95605C23.6175 7.34312 20.326 5.68213 16.6466 5.68213C10.0386 5.68213 4.68176 11.039 4.68176 17.647C4.68176 24.2549 10.0386 29.6118 16.6466 29.6118V27.5309Z" fill="white"/>
<path fill-rule="evenodd" clip-rule="evenodd" d="M20.2331 20.656C19.3743 21.6784 18.0865 22.3285 16.6467 22.3285C14.061 22.3285 11.9648 20.2324 11.9648 17.6466C11.9648 15.0609 14.061 12.9647 16.6467 12.9647C18.0865 12.9647 19.3743 13.6149 20.2331 14.6373L22.0263 13.1326C20.7381 11.599 18.8064 10.6238 16.6467 10.6238C12.7681 10.6238 9.6239 13.768 9.6239 17.6466C9.6239 21.5252 12.7681 24.6695 16.6467 24.6695C18.626 24.6695 20.4133 23.85 21.6898 22.5327L20.2331 20.656Z" fill="white"/>
</svg>
