<svg width="52" height="38" viewBox="0 0 52 38" fill="none" xmlns="http://www.w3.org/2000/svg">
    <path d="M42.7401 7.60567L43.3231 6.80339L42.9796 7.16676C43.3231 6.80339 43.323 6.80326 43.3228 6.80311L43.3224 6.80275L43.3214 6.80182L43.3185 6.79906L43.3088 6.79004C43.3006 6.78249 43.289 6.77188 43.274 6.75834C43.244 6.73126 43.2003 6.69246 43.1428 6.64299C43.0277 6.54406 42.8573 6.40244 42.6306 6.2265C42.1772 5.87462 41.4984 5.38544 40.586 4.82597C38.9145 3.80112 36.4596 2.54077 33.1711 1.45666C33.315 1.46423 33.4913 1.47628 33.6969 1.49536C34.3354 1.5546 35.2562 1.68153 36.3715 1.95252C38.5809 2.48933 41.5505 3.59055 44.6027 5.84858C44.6078 5.85805 44.6132 5.86823 44.619 5.87912C44.6637 5.96315 44.73 6.08932 44.8146 6.25549C44.9838 6.58785 45.2267 7.08016 45.5187 7.71545C46.1028 8.98622 46.8829 10.828 47.6633 13.105C49.2142 17.6302 50.7612 23.8597 50.7827 30.7358C50.7592 30.7715 50.7297 30.8154 50.694 30.8666C50.5813 31.0286 50.4075 31.2643 50.1682 31.5501C49.6895 32.1219 48.9502 32.8928 47.9168 33.6744C45.8895 35.2077 42.7202 36.7906 38.1362 36.9857C38.1043 36.9476 38.068 36.9041 38.0277 36.8558C37.8601 36.6551 37.6231 36.3702 37.3451 36.0338C36.9172 35.5159 36.3931 34.8767 35.8769 34.2348C38.4374 33.4037 40.2534 32.1964 41.455 31.1554C42.1098 30.5881 42.5815 30.0708 42.8919 29.6915C43.0471 29.5018 43.1621 29.3465 43.2396 29.2365C43.2783 29.1816 43.3077 29.1379 43.328 29.1069C43.3382 29.0914 43.3461 29.0791 43.3518 29.0701L43.3587 29.0591L43.3609 29.0556L43.3617 29.0543L43.362 29.0537C43.3621 29.0535 43.3623 29.0533 42.9359 28.7922L43.3623 29.0533L42.6617 28.374C40.9016 29.528 39.2307 30.338 37.7367 30.8905L37.7269 30.8941L37.7173 30.8982C28.4603 34.7693 18.1486 33.4469 10.8937 29.4057C10.8502 29.379 10.775 29.336 10.6951 29.2903L10.6609 29.2708C10.5391 29.2011 10.38 29.11 10.204 29.007C9.849 28.7992 9.43771 28.5504 9.13354 28.3386L8.41961 29.007L8.84786 28.749C8.41961 29.007 8.41974 29.0073 8.41988 29.0075L8.42019 29.008L8.42097 29.0093L8.42312 29.0128L8.42978 29.0236C8.43528 29.0324 8.4429 29.0445 8.4527 29.0596C8.47229 29.09 8.50057 29.1327 8.53787 29.1865C8.61246 29.2942 8.72319 29.4462 8.87277 29.6321C9.1719 30.0038 9.6268 30.5115 10.2592 31.0705C11.4188 32.0955 13.1734 33.2915 15.6528 34.1384C15.1293 34.7924 14.5921 35.4542 14.1525 35.9928C13.8689 36.3404 13.6261 36.6363 13.4543 36.8453L13.3388 36.9857C8.75694 36.7901 5.59951 35.2076 3.58373 33.6753C2.55586 32.8939 1.82209 32.1234 1.34749 31.5518C1.11028 31.2661 0.93812 31.0305 0.826652 30.8687C0.791141 30.8172 0.761806 30.7731 0.738503 30.7374C0.75976 23.8606 2.30684 17.6305 3.85786 13.105C4.63827 10.828 5.41837 8.98622 6.00246 7.71545C6.29446 7.08016 6.53734 6.58785 6.7066 6.25549C6.79122 6.08932 6.85743 5.96315 6.90216 5.87912C6.90795 5.86823 6.91339 5.85805 6.91845 5.84858C9.97069 3.59055 12.9403 2.48933 15.1498 1.95252C15.9831 1.75004 16.7079 1.62799 17.2874 1.55451C14.2275 2.5841 11.9112 3.75973 10.2934 4.73729C9.3311 5.31878 8.61617 5.83005 8.13901 6.19861C7.90042 6.38289 7.72127 6.5315 7.60035 6.63538C7.53989 6.68732 7.49398 6.72808 7.46248 6.75654C7.44673 6.77076 7.43457 6.78191 7.426 6.78984L7.41583 6.7993L7.41276 6.80219L7.41172 6.80317L7.41133 6.80354C7.41117 6.80369 7.41102 6.80383 7.75494 7.16676L7.41102 6.80383L7.9934 7.60587L7.99356 7.60615L7.99358 7.60614L7.99359 7.60613L7.99391 7.60596L7.99563 7.60503L8.00323 7.60093L8.03492 7.58394C8.06329 7.56879 8.10605 7.54609 8.16262 7.51643C8.27575 7.45711 8.44406 7.36996 8.66278 7.25974C9.09957 7.03962 9.73716 6.7276 10.5376 6.36146C20.4759 2.01647 32.5056 2.02098 42.7401 7.60567ZM12.6304 22.0043C12.6304 24.8966 14.8279 27.3343 17.5882 27.3343C20.3939 27.3343 22.5438 24.8955 22.5458 22.0084C22.5916 19.1071 20.3868 16.6745 17.5882 16.6745C14.7811 16.6745 12.6304 19.1155 12.6304 22.0043ZM28.582 22.0043C28.582 24.8966 30.7795 27.3343 33.5397 27.3343C36.3468 27.3343 38.4975 24.8933 38.4975 22.0043C38.4975 19.1155 36.3468 16.6745 33.5397 16.6745C30.7327 16.6745 28.582 19.1155 28.582 22.0043Z" stroke="black"/>
</svg>
