<svg width="51" height="51" viewBox="0 0 51 51" fill="none" xmlns="http://www.w3.org/2000/svg">
    <path d="M25.7125 50.4724H25.712L0.5 50.4995V25.0537C0.5 11.5114 12.0162 0.5 25.7189 0.5C39.3823 0.5 50.5 11.9249 50.5 25.4936C50.5 39.0578 39.3911 50.4724 25.7125 50.4724ZM26.4654 9.20489V9.19695L25.966 9.19638C20.2804 9.1898 15.0116 12.1609 12.0714 17.0239L12.0709 17.0246C9.18972 21.8079 9.03149 27.7483 11.6446 32.6767L8.87288 41.5217L8.61377 42.3486L9.45931 42.1592L19.4862 39.9128C25.4696 42.5102 32.4497 41.2899 37.1704 36.7979C41.9308 32.2917 43.4444 25.3285 40.9807 19.2537L40.9802 19.2525C38.5525 13.3105 32.8493 9.38413 26.4654 9.20489ZM25.9821 9.1985C25.9819 9.1985 25.9817 9.1985 25.9815 9.1985L25.9821 9.1985Z" stroke="black"/>
    <path d="M14.14 23.92H13.18V23.38H14.14V21.87C14.14 21.57 14.1833 21.3233 14.27 21.13C14.3633 20.93 14.4767 20.77 14.61 20.65C14.7433 20.53 14.89 20.4467 15.05 20.4C15.2167 20.3467 15.3733 20.32 15.52 20.32C15.8 20.32 16.03 20.36 16.21 20.44L16.09 20.96C15.9567 20.8933 15.7767 20.86 15.55 20.86C15.01 20.86 14.74 21.27 14.74 22.09V23.38H15.82V23.92H14.74V28H14.14V23.92ZM16.499 25.69C16.499 25.3367 16.559 25.0133 16.679 24.72C16.799 24.42 16.9657 24.1633 17.179 23.95C17.3923 23.73 17.649 23.56 17.949 23.44C18.249 23.32 18.5757 23.26 18.929 23.26C19.2823 23.26 19.6057 23.32 19.899 23.44C20.199 23.56 20.4557 23.73 20.669 23.95C20.889 24.1633 21.059 24.42 21.179 24.72C21.299 25.0133 21.359 25.3367 21.359 25.69C21.359 26.0433 21.299 26.37 21.179 26.67C21.059 26.9633 20.889 27.22 20.669 27.44C20.4557 27.6533 20.199 27.82 19.899 27.94C19.6057 28.06 19.2823 28.12 18.929 28.12C18.5757 28.12 18.249 28.06 17.949 27.94C17.649 27.82 17.3923 27.6533 17.179 27.44C16.9657 27.22 16.799 26.9633 16.679 26.67C16.559 26.37 16.499 26.0433 16.499 25.69ZM17.099 25.69C17.099 25.95 17.139 26.1967 17.219 26.43C17.3057 26.6567 17.429 26.8567 17.589 27.03C17.749 27.1967 17.9423 27.33 18.169 27.43C18.3957 27.53 18.649 27.58 18.929 27.58C19.209 27.58 19.4623 27.53 19.689 27.43C19.9157 27.33 20.109 27.1967 20.269 27.03C20.429 26.8567 20.549 26.6567 20.629 26.43C20.7157 26.1967 20.759 25.95 20.759 25.69C20.759 25.43 20.7157 25.1867 20.629 24.96C20.549 24.7267 20.429 24.5267 20.269 24.36C20.109 24.1867 19.9157 24.05 19.689 23.95C19.4623 23.85 19.209 23.8 18.929 23.8C18.649 23.8 18.3957 23.85 18.169 23.95C17.9423 24.05 17.749 24.1867 17.589 24.36C17.429 24.5267 17.3057 24.7267 17.219 24.96C17.139 25.1867 17.099 25.43 17.099 25.69ZM22.6965 24.68C22.6965 24.5933 22.6932 24.49 22.6865 24.37C22.6798 24.2433 22.6732 24.1167 22.6665 23.99C22.6665 23.8633 22.6632 23.7467 22.6565 23.64C22.6498 23.5267 22.6465 23.44 22.6465 23.38H23.2465C23.2532 23.5533 23.2565 23.72 23.2565 23.88C23.2632 24.04 23.2732 24.1433 23.2865 24.19C23.4398 23.9167 23.6365 23.6933 23.8765 23.52C24.1165 23.3467 24.4098 23.26 24.7565 23.26C24.8165 23.26 24.8732 23.2667 24.9265 23.28C24.9865 23.2867 25.0465 23.2967 25.1065 23.31L25.0365 23.9C24.9565 23.8733 24.8798 23.86 24.8065 23.86C24.5465 23.86 24.3198 23.9033 24.1265 23.99C23.9398 24.07 23.7832 24.1833 23.6565 24.33C23.5365 24.4767 23.4465 24.65 23.3865 24.85C23.3265 25.0433 23.2965 25.2533 23.2965 25.48V28H22.6965V24.68ZM29.9366 26.7C29.9366 26.7867 29.9399 26.8933 29.9466 27.02C29.9532 27.14 29.9566 27.2633 29.9566 27.39C29.9632 27.5167 29.9699 27.6367 29.9766 27.75C29.9832 27.8567 29.9866 27.94 29.9866 28H29.3866C29.3799 27.8267 29.3732 27.66 29.3666 27.5C29.3666 27.34 29.3599 27.2367 29.3466 27.19H29.3166C29.1966 27.4433 28.9966 27.6633 28.7166 27.85C28.4366 28.03 28.1099 28.12 27.7366 28.12C27.3766 28.12 27.0799 28.0633 26.8466 27.95C26.6199 27.8367 26.4399 27.69 26.3066 27.51C26.1799 27.3233 26.0932 27.11 26.0466 26.87C25.9999 26.63 25.9766 26.3833 25.9766 26.13V23.38H26.5766V26.1C26.5766 26.2867 26.5932 26.47 26.6266 26.65C26.6599 26.8233 26.7166 26.98 26.7966 27.12C26.8832 27.26 26.9999 27.3733 27.1466 27.46C27.2999 27.54 27.4966 27.58 27.7366 27.58C27.9566 27.58 28.1632 27.5433 28.3566 27.47C28.5566 27.39 28.7266 27.2733 28.8666 27.12C29.0132 26.96 29.1266 26.7633 29.2066 26.53C29.2932 26.29 29.3366 26.01 29.3366 25.69V23.38H29.9366V26.7ZM31.5832 24.68C31.5832 24.5933 31.5799 24.49 31.5732 24.37C31.5665 24.2433 31.5599 24.1167 31.5532 23.99C31.5532 23.8633 31.5499 23.7467 31.5432 23.64C31.5365 23.5267 31.5332 23.44 31.5332 23.38H32.1332C32.1399 23.5533 32.1432 23.72 32.1432 23.88C32.1499 24.04 32.1599 24.1433 32.1732 24.19H32.2032C32.3232 23.9367 32.5232 23.72 32.8032 23.54C33.0832 23.3533 33.4099 23.26 33.7832 23.26C34.0899 23.26 34.3699 23.34 34.6232 23.5C34.8765 23.6533 35.0599 23.9067 35.1732 24.26C35.3199 23.9133 35.5365 23.66 35.8232 23.5C36.1165 23.34 36.4232 23.26 36.7432 23.26C37.1032 23.26 37.3965 23.3167 37.6232 23.43C37.8499 23.5433 38.0265 23.6933 38.1532 23.88C38.2865 24.06 38.3765 24.27 38.4232 24.51C38.4765 24.75 38.5032 24.9967 38.5032 25.25V28H37.9032V25.28C37.9032 25.0933 37.8865 24.9133 37.8532 24.74C37.8199 24.56 37.7599 24.4 37.6732 24.26C37.5932 24.12 37.4765 24.01 37.3232 23.93C37.1765 23.8433 36.9832 23.8 36.7432 23.8C36.4632 23.8 36.2332 23.8533 36.0532 23.96C35.8732 24.06 35.7299 24.19 35.6232 24.35C35.5232 24.51 35.4499 24.6833 35.4032 24.87C35.3632 25.0567 35.3432 25.2333 35.3432 25.4V28H34.7432V25.22C34.7432 24.7933 34.6632 24.45 34.5032 24.19C34.3499 23.93 34.1099 23.8 33.7832 23.8C33.5632 23.8 33.3532 23.84 33.1532 23.92C32.9599 23.9933 32.7899 24.11 32.6432 24.27C32.5032 24.4233 32.3899 24.62 32.3032 24.86C32.2232 25.0933 32.1832 25.37 32.1832 25.69V28H31.5832V24.68Z" fill="black"/>
</svg>
