<svg width="52" height="44" viewBox="0 0 52 44" fill="none" xmlns="http://www.w3.org/2000/svg">
    <path d="M50.9683 4.06489L50.9682 4.06558L43.2667 40.386C43.2664 40.3871 43.2662 40.3883 43.2659 40.3894C42.9892 41.6076 42.5222 42.2198 42.0112 42.4531C41.5073 42.6831 40.7795 42.6266 39.775 42.0695L28.0637 33.4393L27.7243 33.1892L27.4205 33.4815L21.7574 38.9284L21.7573 38.9283L21.7504 38.9352C21.429 39.2567 21.186 39.4957 20.8915 39.6669C20.7226 39.765 20.5289 39.8447 20.2852 39.892L21.073 28.7221L42.6741 9.20301C42.6746 9.20255 42.6751 9.20209 42.6757 9.20162C42.9441 8.96189 43.1755 8.65601 43.1882 8.30042C43.2037 7.86791 42.9032 7.59979 42.6033 7.49286C42.32 7.39184 41.9834 7.39952 41.6569 7.47375C41.3227 7.54972 40.9598 7.7037 40.5997 7.94282L13.9085 24.7493L2.55155 21.1948L2.55123 21.1947C1.96386 21.0113 1.56602 20.7857 1.33009 20.5637C1.10151 20.3487 1.04672 20.1624 1.06003 20.0106C1.07475 19.8427 1.18322 19.5975 1.51831 19.302C1.85056 19.0089 2.36911 18.7008 3.1071 18.412C3.10754 18.4118 3.10799 18.4116 3.10843 18.4115L48.3853 0.96834C48.386 0.968086 48.3867 0.967832 48.3873 0.967578C49.3174 0.619404 50.075 0.75932 50.5282 1.1983C50.9889 1.64452 51.2919 2.54913 50.9683 4.06489Z" stroke="black"/>
</svg>
