<svg width="50" height="43" viewBox="0 0 50 43" fill="none" xmlns="http://www.w3.org/2000/svg">
    <mask id="path-1-inside-1" fill="white">
        <path d="M15.724 43C34.592 43 44.912 26.4552 44.912 12.1076C44.912 11.6377 44.912 11.1699 44.882 10.7042C46.8896 9.16711 48.6228 7.26417 50 5.08412C48.1278 5.96216 46.1416 6.53787 44.108 6.79234C46.249 5.43585 47.8524 3.30066 48.618 0.786975C46.6044 2.05157 44.4012 2.94294 42.104 3.42242C40.1644 1.23938 37.4554 0 34.6242 0C28.9912 0 24.3562 4.90583 24.3562 10.8676C24.3562 11.6946 24.4454 12.5191 24.622 13.3247C16.378 12.8874 8.68643 8.76029 3.47998 1.98087C0.772558 6.91378 2.17344 13.3065 6.65596 16.4745C5.02363 16.4233 3.42637 15.9572 2 15.1155V15.2531C2.00137 20.4018 5.46162 24.8769 10.23 25.8964C8.71982 26.3322 7.13496 26.3959 5.59805 26.0826C6.93857 30.4945 10.8042 33.5356 15.182 33.6227C11.5502 36.6435 7.06123 38.2845 2.44199 38.2796C1.62578 38.2779 0.810352 38.2256 0 38.1229C4.69082 41.3089 10.1504 42.9994 15.724 42.9915"/>
    </mask>
    <path d="M44.882 10.7042L44.2741 9.91015L43.8498 10.235L43.8841 10.7684L44.882 10.7042ZM50 5.08412L50.8454 5.61822L52.6724 2.72626L49.5754 4.17875L50 5.08412ZM44.108 6.79234L43.5728 5.94761L44.2322 7.7846L44.108 6.79234ZM48.618 0.786975L49.5746 1.07831L50.3552 -1.48493L48.0861 -0.0598658L48.618 0.786975ZM42.104 3.42242L41.3565 4.08662L41.7412 4.51969L42.3083 4.40132L42.104 3.42242ZM24.622 13.3247L24.569 14.3233L25.8798 14.3929L25.5988 13.1106L24.622 13.3247ZM3.47998 1.98087L4.27308 1.37179L3.34024 0.157107L2.60334 1.49973L3.47998 1.98087ZM6.65596 16.4745L6.62463 17.474L9.95038 17.5782L7.2331 15.6578L6.65596 16.4745ZM2 15.1155L2.50819 14.2543L1 13.3643V15.1155H2ZM2 15.2531H1L1 15.2534L2 15.2531ZM10.23 25.8964L10.5073 26.8572L10.439 24.9185L10.23 25.8964ZM5.59805 26.0826L5.79778 25.1028L4.15333 24.7676L4.64124 26.3733L5.59805 26.0826ZM15.182 33.6227L15.8215 34.3915L17.8837 32.6762L15.2019 32.6229L15.182 33.6227ZM2.44199 38.2796L2.43997 39.2796H2.44094L2.44199 38.2796ZM0 38.1229L0.125776 37.1308L-0.561861 38.9501L0 38.1229ZM15.724 44C35.3077 44 45.912 26.8285 45.912 12.1076H43.912C43.912 26.082 33.8762 42 15.724 42V44ZM45.912 12.1076C45.912 11.6432 45.9124 11.1431 45.88 10.6399L43.8841 10.7684C43.9117 11.1967 43.912 11.6322 43.912 12.1076H45.912ZM45.4899 11.4982C47.5933 9.8878 49.4062 7.89629 50.8454 5.61822L49.1546 4.55003C47.8393 6.63205 46.186 8.44642 44.2741 9.91015L45.4899 11.4982ZM49.5754 4.17875C47.7974 5.01262 45.9125 5.55874 43.9838 5.80007L44.2322 7.7846C46.3707 7.51699 48.4583 6.9117 50.4246 5.9895L49.5754 4.17875ZM44.6432 7.63706C46.9944 6.14743 48.7421 3.81174 49.5746 1.07831L47.6613 0.495642C46.9627 2.78959 45.5037 4.72428 43.5728 5.94761L44.6432 7.63706ZM48.0861 -0.0598658C46.1717 1.14248 44.0792 1.9886 41.8997 2.44352L42.3083 4.40132C44.7232 3.89728 47.0371 2.96067 49.1498 1.63382L48.0861 -0.0598658ZM42.8516 2.75822C40.7289 0.369213 37.7511 -1 34.6242 -1V1C37.1596 1 39.5998 2.10954 41.3565 4.08662L42.8516 2.75822ZM34.6242 -1C28.3862 -1 23.3562 4.40777 23.3562 10.8676H25.3562C25.3562 5.40388 29.5962 1 34.6242 1V-1ZM23.3562 10.8676C23.3562 11.7665 23.4532 12.6628 23.6452 13.5388L25.5988 13.1106C25.4377 12.3755 25.3562 11.6228 25.3562 10.8676H23.3562ZM24.6749 12.3261C16.7344 11.9049 9.3088 7.9289 4.27308 1.37179L2.68688 2.58996C8.06405 9.59168 16.0216 13.8699 24.569 14.3233L24.6749 12.3261ZM2.60334 1.49973C-0.339181 6.86098 1.16491 13.8183 6.07881 17.2911L7.2331 15.6578C3.18196 12.7948 1.8843 6.96658 4.35662 2.46202L2.60334 1.49973ZM6.68728 15.475C5.22544 15.4292 3.79186 15.0117 2.50819 14.2543L1.49181 15.9768C3.06087 16.9026 4.82183 17.4175 6.62463 17.474L6.68728 15.475ZM1 15.1155V15.2531H3V15.1155H1ZM1 15.2534C1.00148 20.8354 4.75496 25.7485 10.0209 26.8743L10.439 24.9185C6.16828 24.0054 3.00125 19.9682 3 15.2528L1 15.2534ZM9.95268 24.9356C8.59736 25.3268 7.17617 25.3837 5.79778 25.1028L5.39832 27.0625C7.09376 27.4081 8.84229 27.3377 10.5073 26.8572L9.95268 24.9356ZM4.64124 26.3733C6.09854 31.1696 10.321 34.5262 15.1622 34.6225L15.2019 32.6229C11.2874 32.545 7.7786 29.8194 6.55485 25.7919L4.64124 26.3733ZM14.5426 32.8538C11.0861 35.7288 6.82257 37.2842 2.44304 37.2796L2.44094 39.2796C7.29989 39.2847 12.0142 37.5583 15.8215 34.3915L14.5426 32.8538ZM2.44402 37.2796C1.66918 37.278 0.895085 37.2284 0.125776 37.1308L-0.125776 39.115C0.725619 39.2229 1.58238 39.2779 2.43997 39.2796L2.44402 37.2796ZM-0.561861 38.9501C4.29203 42.2469 9.94727 43.9997 15.7254 43.9915L15.7226 41.9915C10.3535 41.9991 5.08961 40.371 0.561861 37.2957L-0.561861 38.9501Z" fill="black" mask="url(#path-1-inside-1)"/>
</svg>
