<svg width="566" height="471" viewBox="0 0 566 471" fill="none" xmlns="http://www.w3.org/2000/svg">
<path d="M71.1398 279.257L70.5399 279.246L71.1398 279.257ZM96.7376 375.363C97.0601 375.439 97.3833 375.239 97.4596 374.917L98.7014 369.662C98.7777 369.339 98.578 369.016 98.2555 368.94C97.933 368.863 97.6098 369.063 97.5336 369.386L96.4297 374.057L91.7584 372.953C91.4359 372.877 91.1127 373.076 91.0365 373.399C90.9603 373.721 91.1599 374.045 91.4824 374.121L96.7376 375.363ZM99.332 190.439C98.8216 190.124 98.8214 190.124 98.8212 190.124C98.8209 190.125 98.8206 190.125 98.8201 190.126C98.8192 190.128 98.8178 190.13 98.8161 190.133C98.8126 190.138 98.8074 190.147 98.8007 190.158C98.7871 190.18 98.7671 190.212 98.7408 190.256C98.6881 190.342 98.6104 190.471 98.5091 190.64C98.3066 190.978 98.0102 191.479 97.633 192.132C96.8787 193.437 95.8013 195.35 94.5066 197.784C91.9173 202.651 88.4576 209.603 84.9736 217.948C78.0094 234.627 70.9303 256.912 70.5399 279.246L71.7397 279.267C72.1263 257.15 79.1433 235.026 86.081 218.41C89.5479 210.106 92.9906 203.188 95.566 198.348C96.8535 195.927 97.9241 194.027 98.672 192.732C99.046 192.085 99.3393 191.589 99.5388 191.256C99.6385 191.09 99.7148 190.964 99.766 190.879C99.7915 190.837 99.8108 190.806 99.8237 190.785C99.8301 190.774 99.8349 190.767 99.838 190.762C99.8396 190.759 99.8407 190.757 99.8415 190.756C99.8418 190.755 99.8421 190.755 99.8423 190.755C99.8424 190.754 99.8424 190.754 99.332 190.439ZM70.5399 279.246C70.0804 305.535 76.5382 329.494 83.1031 346.871C86.3864 355.562 89.6987 362.612 92.1913 367.492C93.4377 369.932 94.4794 371.83 95.2103 373.119C95.5758 373.763 95.8636 374.256 96.0605 374.588C96.1589 374.754 96.2346 374.879 96.286 374.964C96.3116 375.007 96.3312 375.039 96.3445 375.06C96.3511 375.071 96.3562 375.079 96.3596 375.085C96.3614 375.088 96.3627 375.09 96.3636 375.092C96.3641 375.092 96.3645 375.093 96.3647 375.093C96.365 375.094 96.3652 375.094 96.8756 374.779C97.3861 374.463 97.3861 374.463 97.386 374.463C97.3858 374.463 97.3856 374.463 97.3852 374.462C97.3845 374.461 97.3834 374.459 97.3819 374.457C97.3789 374.452 97.3743 374.444 97.3682 374.434C97.3558 374.414 97.3372 374.384 97.3125 374.343C97.263 374.261 97.1892 374.138 97.0926 373.975C96.8996 373.65 96.6157 373.164 96.2542 372.527C95.5312 371.252 94.4979 369.369 93.26 366.946C90.7841 362.099 87.4908 355.09 84.2257 346.447C77.6939 329.157 71.2837 305.355 71.7397 279.267L70.5399 279.246Z" fill="white"/>
<path d="M499.966 285.961L499.366 285.95L499.966 285.961ZM473.502 189.853C473.178 189.782 472.858 189.986 472.786 190.31L471.622 195.583C471.551 195.906 471.755 196.226 472.079 196.298C472.402 196.369 472.723 196.165 472.794 195.841L473.829 191.154L478.516 192.189C478.84 192.26 479.16 192.056 479.231 191.732C479.303 191.409 479.098 191.089 478.775 191.017L473.502 189.853ZM470.834 374.779C471.34 375.102 471.34 375.101 471.34 375.101C471.34 375.101 471.341 375.1 471.341 375.099C471.342 375.098 471.344 375.096 471.345 375.093C471.349 375.087 471.354 375.079 471.361 375.068C471.375 375.046 471.396 375.013 471.423 374.97C471.478 374.883 471.558 374.754 471.663 374.585C471.872 374.247 472.178 373.746 472.568 373.093C473.347 371.788 474.461 369.875 475.799 367.441C478.474 362.574 482.049 355.622 485.65 347.277C492.846 330.597 500.162 308.309 500.566 285.972L499.366 285.95C498.967 308.064 491.717 330.185 484.548 346.801C480.966 355.105 477.408 362.022 474.747 366.863C473.417 369.283 472.311 371.184 471.538 372.478C471.151 373.125 470.848 373.621 470.642 373.954C470.539 374.121 470.46 374.247 470.407 374.331C470.381 374.373 470.361 374.404 470.348 374.425C470.341 374.436 470.336 374.444 470.333 374.449C470.331 374.451 470.33 374.453 470.329 374.454C470.329 374.455 470.329 374.455 470.328 374.456C470.328 374.456 470.328 374.456 470.834 374.779ZM500.566 285.972C501.041 259.68 494.367 235.719 487.583 218.341C484.19 209.649 480.767 202.599 478.191 197.719C476.903 195.279 475.827 193.381 475.071 192.092C474.694 191.447 474.396 190.955 474.193 190.623C474.091 190.457 474.013 190.331 473.96 190.246C473.933 190.204 473.913 190.172 473.899 190.15C473.893 190.139 473.887 190.131 473.884 190.125C473.882 190.122 473.881 190.12 473.88 190.119C473.879 190.118 473.879 190.117 473.879 190.117C473.878 190.116 473.878 190.116 473.372 190.439C472.867 190.762 472.867 190.762 472.867 190.762C472.867 190.762 472.867 190.763 472.867 190.763C472.868 190.764 472.869 190.766 472.871 190.769C472.874 190.773 472.879 190.781 472.885 190.791C472.898 190.811 472.917 190.842 472.943 190.883C472.994 190.964 473.07 191.087 473.17 191.25C473.369 191.575 473.663 192.061 474.036 192.698C474.783 193.973 475.851 195.856 477.13 198.279C479.688 203.126 483.091 210.135 486.465 218.777C493.214 236.066 499.837 259.866 499.366 285.95L500.566 285.972Z" fill="white"/>
<ellipse cx="286.551" cy="276.911" rx="131.393" ry="30.9199" fill="url(#paint0_radial)"/>
<ellipse cx="286.551" cy="276.911" rx="131.393" ry="30.9199" fill="url(#paint1_radial)" fill-opacity="0.2"/>
<ellipse cx="286.551" cy="276.911" rx="131.393" ry="30.9199" fill="url(#paint2_linear)"/>
<ellipse cx="286.551" cy="276.911" rx="131.393" ry="30.9199" fill="url(#paint3_linear)" fill-opacity="0.6"/>
<ellipse cx="286.551" cy="276.911" rx="131.393" ry="30.9199" fill="url(#paint4_linear)" fill-opacity="0.6"/>
<path d="M264.166 289.917C263.717 283.774 261.766 269.863 250.951 257.639C247.618 253.881 243.748 250.604 239.457 247.905" stroke="#D8176C" stroke-width="0.75" stroke-miterlimit="10"/>
<path d="M301.506 289.917C302.159 283.31 304.514 269.884 314.886 257.638C318.198 253.734 322.035 250.277 326.296 247.358" stroke="#D8176C" stroke-width="0.75" stroke-miterlimit="10"/>
<path d="M290.475 290.464C289.16 278.708 290.552 266.815 294.552 255.641C295.758 252.332 297.198 249.107 298.862 245.99" stroke="#D8176C" stroke-width="0.75" stroke-miterlimit="10"/>
<path d="M276.613 290.191C277.77 278.679 276.395 267.062 272.58 256.101C271.389 252.732 269.962 249.446 268.311 246.264" stroke="#D8176C" stroke-width="0.75" stroke-miterlimit="10"/>
<path d="M319.045 289.643C319.828 285.048 322.769 271.571 335.006 260.802C340.701 255.82 347.494 252.158 354.87 250.094" stroke="#D8176C" stroke-width="0.75" stroke-miterlimit="10"/>
<path d="M250.588 289.37C249.472 284.275 246.013 271.963 234.668 261.615C229.361 256.793 223.1 253.06 216.262 250.639" stroke="#D8176C" stroke-width="0.75" stroke-miterlimit="10"/>
<path d="M234.197 286.883C223.89 278.527 211.725 272.588 198.654 269.529C185.582 266.469 171.956 266.373 158.84 269.248" stroke="#D8176C" stroke-width="0.75" stroke-miterlimit="10"/>
<path d="M286.407 301.997C346.044 301.997 394.389 290.665 394.389 276.688C394.389 262.71 346.044 251.378 286.407 251.378C226.769 251.378 178.424 262.71 178.424 276.688C178.424 290.665 226.769 301.997 286.407 301.997Z" stroke="#D8176C" stroke-miterlimit="10"/>
<path d="M234.197 286.83C216.729 284.603 198.979 287.738 183.451 295.791" stroke="#D8176C" stroke-width="0.75" stroke-miterlimit="10"/>
<path d="M339.145 286.83C347.275 285.313 355.639 285.397 363.735 287.078C371.832 288.759 379.494 292.001 386.266 296.612" stroke="#D8176C" stroke-width="0.75" stroke-miterlimit="10"/>
<path d="M286.551 307.58C359.118 307.58 417.945 293.792 417.945 276.784C417.945 259.775 359.118 245.987 286.551 245.987C213.985 245.987 155.158 259.775 155.158 276.784C155.158 293.792 213.985 307.58 286.551 307.58Z" stroke="#D8176C" stroke-miterlimit="10"/>
<path d="M339.145 286.883C349.452 278.527 361.617 272.588 374.688 269.529C387.76 266.469 401.386 266.373 414.502 269.248" stroke="#D8176C" stroke-width="0.75" stroke-miterlimit="10"/>
<path d="M250.657 289.271C242.382 291.214 234.356 294.042 226.729 297.704C223.233 299.384 220.029 301.141 217.111 302.905" stroke="#D8176C" stroke-width="0.75" stroke-miterlimit="10"/>
<path d="M319.049 289.558C327.324 291.501 335.349 294.329 342.977 297.991C346.473 299.671 349.677 301.428 352.595 303.192" stroke="#D8176C" stroke-width="0.75" stroke-miterlimit="10"/>
<path d="M264.257 289.95C262.812 293.619 261.707 297.405 260.956 301.263C260.564 303.28 260.291 305.201 260.107 307.009" stroke="#D8176C" stroke-width="0.75" stroke-miterlimit="10"/>
<path d="M301.619 289.953C303.064 293.621 304.169 297.407 304.92 301.265C305.312 303.282 305.585 305.203 305.769 307.011" stroke="#D8176C" stroke-width="0.75" stroke-miterlimit="10"/>
<path d="M290.605 290.375C290.629 292.536 290.647 294.706 290.657 296.885C290.675 300.559 290.675 304.207 290.657 307.83" stroke="#D8176C" stroke-width="0.75" stroke-miterlimit="10"/>
<path d="M276.699 290.231C276.722 292.379 276.739 294.535 276.75 296.701C276.768 300.353 276.768 303.979 276.75 307.58" stroke="#D8176C" stroke-width="0.75" stroke-miterlimit="10"/>
<path d="M286.551 304.862C352.712 304.862 406.346 292.291 406.346 276.784C406.346 261.276 352.712 248.705 286.551 248.705C220.39 248.705 166.756 261.276 166.756 276.784C166.756 292.291 220.39 304.862 286.551 304.862Z" stroke="#D8176C" stroke-miterlimit="10"/>
<path d="M283.684 298.202C334.379 298.202 375.476 288.57 375.476 276.687C375.476 264.805 334.379 255.173 283.684 255.173C232.989 255.173 191.893 264.805 191.893 276.687C191.893 288.57 232.989 298.202 283.684 298.202Z" stroke="#D8176C" stroke-width="0.75" stroke-miterlimit="10"/>
<path d="M286.406 290.643C329.261 290.643 364.001 284.676 364.001 277.314C364.001 269.953 329.261 263.985 286.406 263.985C243.551 263.985 208.811 269.953 208.811 277.314C208.811 284.676 243.551 290.643 286.406 290.643Z" stroke="#D8176C" stroke-miterlimit="10"/>
<path d="M522.478 298.48C522.478 310.137 532.133 319.587 544.044 319.587C555.954 319.587 565.609 310.137 565.609 298.48C565.609 286.823 555.954 277.373 544.044 277.373C532.133 277.373 522.478 286.823 522.478 298.48Z" fill="white"/>
<path d="M540.03 294.15V299.95L535.06 294.15H533.531V302.943H535.353V297.299L540.33 302.943H541.859V299.527H546.215V297.914H541.859V295.762H549.922V302.943H551.751V295.762H554.738V294.15H540.03Z" fill="black"/>
<g opacity="0.9">
<path opacity="0.58" d="M349.996 221.622C350.022 221.622 350.049 221.622 350.075 221.622C350.307 221.622 350.537 221.616 350.769 221.614C350.511 221.618 350.254 221.622 349.996 221.622Z" fill="url(#paint5_linear)"/>
<path opacity="0.58" d="M288.528 215.152C257.764 215.152 232.826 239.311 232.826 269.11C232.821 275.233 233.893 281.311 235.996 287.084C251.121 289.094 268.345 290.231 286.621 290.231C306.46 290.231 325.059 288.891 341.079 286.55C343.313 280.996 344.385 275.068 344.232 269.11C343.495 246.081 322.885 215.152 288.528 215.152Z" fill="url(#paint6_linear)"/>
</g>
<path fill-rule="evenodd" clip-rule="evenodd" d="M272.7 272.213C271.666 270.057 271.088 267.652 271.088 265.116C271.088 255.844 278.807 248.327 288.329 248.327C293.631 248.327 298.374 250.658 301.537 254.324L303.424 252.783C299.809 248.593 294.389 245.929 288.329 245.929C277.447 245.929 268.625 254.519 268.625 265.116C268.625 268.015 269.285 270.763 270.467 273.227L272.7 272.213Z" fill="white"/>
<path fill-rule="evenodd" clip-rule="evenodd" d="M288.351 276.456C281.895 276.456 276.662 271.371 276.662 265.098C276.662 258.825 281.895 253.74 288.351 253.74C291.945 253.74 295.16 255.317 297.305 257.797L299.19 256.26C296.595 253.257 292.702 251.348 288.351 251.348C280.536 251.348 274.201 257.504 274.201 265.098C274.201 272.691 280.536 278.847 288.351 278.847V276.456Z" fill="white"/>
<path fill-rule="evenodd" clip-rule="evenodd" d="M292.629 268.509C291.614 269.686 290.091 270.433 288.389 270.433C285.332 270.433 282.854 268.022 282.854 265.047C282.854 262.073 285.332 259.662 288.389 259.662C290.091 259.662 291.614 260.409 292.629 261.586L294.749 259.855C293.226 258.09 290.942 256.969 288.389 256.969C283.803 256.969 280.086 260.586 280.086 265.047C280.086 269.509 283.803 273.126 288.389 273.126C290.729 273.126 292.842 272.184 294.351 270.668L292.629 268.509Z" fill="white"/>
<g clip-path="url(#clip0)">
<path d="M24.4148 322.418C37.7887 322.418 48.6304 311.576 48.6304 298.202C48.6304 284.828 37.7887 273.987 24.4148 273.987C11.0409 273.987 0.199219 284.828 0.199219 298.202C0.199219 311.576 11.0409 322.418 24.4148 322.418Z" fill="url(#paint7_linear)" fill-opacity="0.1"/>
<path d="M24.4144 320.4C36.6739 320.4 46.6121 310.461 46.6121 298.202C46.6121 285.943 36.6739 276.004 24.4144 276.004C12.155 276.004 2.2168 285.943 2.2168 298.202C2.2168 310.461 12.155 320.4 24.4144 320.4Z" fill="url(#paint8_linear)"/>
<path d="M24.4144 320.4C36.6739 320.4 46.6121 310.461 46.6121 298.202C46.6121 285.943 36.6739 276.004 24.4144 276.004C12.155 276.004 2.2168 285.943 2.2168 298.202C2.2168 310.461 12.155 320.4 24.4144 320.4Z" fill="white" fill-opacity="0.1"/>
<path d="M24.2804 300.652C23.4942 300.652 22.7297 300.718 21.9901 300.843L23.1291 298.87C23.5136 298.845 23.8986 298.832 24.2804 298.832C25.1748 298.832 26.0849 298.906 26.9647 299.047L22.5419 291.387L15.1792 304.139L14.127 302.317L22.5253 287.77L22.5426 287.8L22.5592 287.772L32.6943 305.326H30.5899L28.2211 301.223C26.9869 300.851 25.6674 300.652 24.2804 300.652Z" fill="white" fill-opacity="0.8"/>
<path d="M33.3496 304.17L23.5371 287.174H25.6416L34.4018 302.347L33.3496 304.17Z" fill="white" fill-opacity="0.8"/>
<path d="M23.6105 295.559L19.5814 302.538C21.0231 302.103 22.7201 301.909 24.3212 301.909C24.4506 301.909 24.5804 301.91 24.7104 301.913C25.6199 301.935 26.5388 302.031 27.4192 302.195L28.7635 304.524C27.3874 304.023 25.898 303.729 24.3212 303.729C21.9893 303.729 19.8476 304.306 17.9825 305.309L18.0118 305.256L17.9716 305.326H15.8672L22.5584 293.737L23.6105 295.559Z" fill="white" fill-opacity="0.8"/>
<path fill-rule="evenodd" clip-rule="evenodd" d="M24.4147 314.412C33.367 314.412 40.6243 307.154 40.6243 298.202C40.6243 289.25 33.367 281.993 24.4147 281.993C15.4624 281.993 8.20508 289.25 8.20508 298.202C8.20508 307.154 15.4624 314.412 24.4147 314.412ZM24.4542 312.435C32.3366 312.435 38.7266 306.045 38.7266 298.163C38.7266 290.28 32.3366 283.89 24.4542 283.89C16.5718 283.89 10.1819 290.28 10.1819 298.163C10.1819 306.045 16.5718 312.435 24.4542 312.435Z" fill="white" fill-opacity="0.8"/>
<path fill-rule="evenodd" clip-rule="evenodd" d="M24.4154 317.575C35.1146 317.575 43.7879 308.901 43.7879 298.202C43.7879 287.503 35.1146 278.83 24.4154 278.83C13.7163 278.83 5.04297 287.503 5.04297 298.202C5.04297 308.901 13.7163 317.575 24.4154 317.575ZM24.4945 315.756C34.1892 315.756 42.0483 307.897 42.0483 298.202C42.0483 288.507 34.1892 280.648 24.4945 280.648C14.7998 280.648 6.94068 288.507 6.94068 298.202C6.94068 307.897 14.7998 315.756 24.4945 315.756Z" fill="white" fill-opacity="0.8"/>
</g>
<path d="M291.681 29.6362L251.072 15.6036L286.708 0.745605L327.106 15.8003L291.681 29.6362Z" fill="#1C1C1C"/>
<path d="M291.681 29.6362L251.072 15.6036L286.708 0.745605L327.106 15.8003L291.681 29.6362Z" fill="url(#paint9_linear)" fill-opacity="0.72"/>
<path d="M251.072 109.316V15.5996L291.594 29.4944V124.187L251.072 109.316Z" fill="#1C1C1C"/>
<path d="M251.072 109.316V15.5996L291.594 29.4944V124.187L251.072 109.316Z" fill="url(#paint10_linear)" fill-opacity="0.24"/>
<path d="M264.293 156.828V84.8849L299.596 70.9084V139.008L264.293 156.828Z" fill="#1C1C1C"/>
<path d="M264.293 156.828V84.8849L299.596 70.9084V139.008L264.293 156.828Z" fill="url(#paint11_linear)" fill-opacity="0.3"/>
<path d="M264.253 84.931L223.678 70.996L259.438 55.9004L299.405 70.7209L264.253 84.931Z" fill="#1C1C1C"/>
<path d="M264.253 84.931L223.678 70.996L259.438 55.9004L299.405 70.7209L264.253 84.931Z" fill="url(#paint12_linear)" fill-opacity="0.72"/>
<path d="M223.803 141.959V70.9084L264.325 84.9532V156.83L223.803 141.959Z" fill="#1C1C1C"/>
<path d="M223.803 141.959V70.9084L264.325 84.9532V156.83L223.803 141.959Z" fill="url(#paint13_linear)" fill-opacity="0.69"/>
<path d="M257.098 126.921V121.453C256.331 125.137 253.389 125.674 252.014 125.482L257.098 126.921Z" fill="#A8A8A8" stroke="#1C1C1C" stroke-width="0.846376"/>
<path d="M291.598 124.056V29.4638L326.993 15.6299L327.052 106.365L291.598 124.056Z" fill="#1C1C1C"/>
<path d="M291.598 124.056V29.4638L326.993 15.6299L327.052 106.365L291.598 124.056Z" fill="url(#paint14_linear)"/>
<path d="M291.713 66.9689L283.459 64.1549V75.3234L291.713 78.0374V66.9689Z" fill="#A8A8A8"/>
<path fill-rule="evenodd" clip-rule="evenodd" d="M255.846 24.9763L262.785 27.342V33.1772L262.786 33.1774V42.4825L255.846 40.2009V34.3658L255.846 34.3655V24.9763Z" fill="url(#paint15_linear)"/>
<path d="M291.713 82.3521L283.459 79.5381V90.7066L291.713 93.4205V82.3521Z" fill="#A8A8A8"/>
<path d="M291.713 97.7353L283.459 94.9213V106.09L291.713 108.804V97.7353Z" fill="#A8A8A8"/>
<path d="M291.713 113.119L283.459 110.305V121.473L291.713 124.187V113.119Z" fill="#A8A8A8"/>
<path d="M291.713 128.502L283.459 125.688V136.856L291.713 139.57V128.502Z" fill="#A8A8A8"/>
<path d="M303.721 71.0962L295.467 68.2822V79.3506L303.721 82.1646V71.0962Z" fill="#A8A8A8"/>
<path fill-rule="evenodd" clip-rule="evenodd" d="M265.939 28.4459L272.879 30.8116V36.647L272.879 36.6471V45.9522L265.94 43.5865V37.7511L265.939 37.751V28.4459Z" fill="url(#paint16_linear)"/>
<path d="M303.721 86.4793L295.467 83.6653V94.7337L303.721 97.5478V86.4793Z" fill="#A8A8A8"/>
<path d="M303.721 101.863L295.467 99.0486V110.117L303.721 112.931V101.863Z" fill="#A8A8A8"/>
<path d="M303.721 117.246L295.467 114.432V125.5L303.721 128.314V117.246Z" fill="#A8A8A8"/>
<path d="M303.721 132.629L295.467 129.815V140.884L303.721 143.698V132.629Z" fill="#A8A8A8"/>
<path d="M315.727 75.2232L307.473 72.4092V83.4776L315.727 86.2917V75.2232Z" fill="#A8A8A8"/>
<path fill-rule="evenodd" clip-rule="evenodd" d="M276.035 31.9159L282.975 34.2816V43.5866L282.975 43.5865V49.4218L276.035 47.0561V37.7511L276.035 37.7512V31.9159Z" fill="url(#paint17_linear)"/>
<path fill-rule="evenodd" clip-rule="evenodd" d="M229.82 81.2392L236.88 83.6457V89.6503V93.1115V99.116L229.82 96.795V90.7905V87.2437V81.2392Z" fill="#252525"/>
<path fill-rule="evenodd" clip-rule="evenodd" d="M229.82 81.2392L236.88 83.6457V89.6503V93.1115V99.116L229.82 96.795V90.7905V87.2437V81.2392Z" fill="url(#paint18_linear)" fill-opacity="0.41"/>
<path fill-rule="evenodd" clip-rule="evenodd" d="M240.088 84.7688L247.147 87.1754V93.1801V96.6411V102.646L240.088 100.239V94.2346V90.7735V84.7688Z" fill="#252525"/>
<path fill-rule="evenodd" clip-rule="evenodd" d="M240.088 84.7688L247.147 87.1754V93.1801V96.6411V102.646L240.088 100.239V94.2346V90.7735V84.7688Z" fill="url(#paint19_linear)" fill-opacity="0.41"/>
<path fill-rule="evenodd" clip-rule="evenodd" d="M250.356 88.2985L257.415 90.705V100.171L257.415 100.171V106.175L250.355 103.769V94.3031L250.356 94.3034V88.2985Z" fill="#252525"/>
<path fill-rule="evenodd" clip-rule="evenodd" d="M250.356 88.2985L257.415 90.705V100.171L257.415 100.171V106.175L250.355 103.769V94.3031L250.356 94.3034V88.2985Z" fill="url(#paint20_linear)" fill-opacity="0.41"/>
<path fill-rule="evenodd" clip-rule="evenodd" d="M229.82 102.646L236.88 105.052V111.057V114.518V120.522L229.82 118.201V112.197V108.65V102.646Z" fill="#252525"/>
<path fill-rule="evenodd" clip-rule="evenodd" d="M229.82 102.646L236.88 105.052V111.057V114.518V120.522L229.82 118.201V112.197V108.65V102.646Z" fill="url(#paint21_linear)" fill-opacity="0.41"/>
<path fill-rule="evenodd" clip-rule="evenodd" d="M240.091 106.175L247.15 108.582V118.047L247.147 118.046V124.052L240.088 121.646V112.18L240.091 112.181V106.175Z" fill="#252525"/>
<path fill-rule="evenodd" clip-rule="evenodd" d="M240.091 106.175L247.15 108.582V118.047L247.147 118.046V124.052L240.088 121.646V112.18L240.091 112.181V106.175Z" fill="url(#paint22_linear)" fill-opacity="0.41"/>
<path fill-rule="evenodd" clip-rule="evenodd" d="M250.358 109.705L257.417 112.111V121.577L257.417 121.577V127.582L250.357 125.175V115.709L250.358 115.709V109.705Z" fill="#252525"/>
<path fill-rule="evenodd" clip-rule="evenodd" d="M250.358 109.705L257.417 112.111V121.577L257.417 121.577V127.582L250.357 125.175V115.709L250.358 115.709V109.705Z" fill="url(#paint23_linear)" fill-opacity="0.41"/>
<path d="M315.727 90.6066L307.473 87.7925V98.861L315.727 101.675V90.6066Z" fill="#A8A8A8"/>
<path d="M315.727 105.99L307.473 103.176V114.244L315.727 117.058V105.99Z" fill="#A8A8A8"/>
<path d="M315.727 121.373L307.473 118.559V129.628L315.727 132.442V121.373Z" fill="#A8A8A8"/>
<path d="M315.727 136.757L307.473 133.943V145.011L315.727 147.825V136.757Z" fill="#A8A8A8"/>
<path d="M320.527 70.8092L279.674 56.6493L315.343 41.6426L355.853 56.4168L320.527 70.8092Z" fill="#1C1C1C"/>
<path d="M320.527 70.8092L279.674 56.6493L315.343 41.6426L355.853 56.4168L320.527 70.8092Z" fill="url(#paint24_linear)" fill-opacity="0.72"/>
<path d="M279.707 150.213V56.6506L320.229 70.6954V165.084L279.707 150.213Z" fill="#1C1C1C"/>
<path d="M279.707 150.213V56.6506L320.229 70.6954V165.084L279.707 150.213Z" fill="url(#paint25_linear)" fill-opacity="0.69"/>
<path d="M320.238 165.09V70.6643L355.497 56.3816V147.262L320.238 165.09Z" fill="#1C1C1C"/>
<path d="M320.238 165.09V70.6643L355.497 56.3816V147.262L320.238 165.09Z" fill="url(#paint26_linear)"/>
<path fill-rule="evenodd" clip-rule="evenodd" d="M286 67.8363L293.148 70.2731V75.2628L293.149 75.263V84.8478L286.001 82.4977V77.5079L286 77.5077V67.8363Z" fill="#252525"/>
<path fill-rule="evenodd" clip-rule="evenodd" d="M286 67.8363L293.148 70.2731V75.2628L293.149 75.263V84.8478L286.001 82.4977V77.5079L286 77.5077V67.8363Z" fill="url(#paint27_linear)" fill-opacity="0.41"/>
<path fill-rule="evenodd" clip-rule="evenodd" d="M286 88.9947L293.148 91.4315V97.9974L293.149 97.9976V107.582L286.001 105.232V98.6663L286 98.6661V88.9947Z" fill="#252525"/>
<path fill-rule="evenodd" clip-rule="evenodd" d="M286 88.9947L293.148 91.4315V97.9974L293.149 97.9976V107.582L286.001 105.232V98.6663L286 98.6661V88.9947Z" fill="url(#paint28_linear)" fill-opacity="0.41"/>
<path d="M293.148 122.908L286 120.471V130.143L293.148 132.493V122.908Z" fill="#252525"/>
<path d="M293.148 122.908L286 120.471V130.143L293.148 132.493V122.908Z" fill="url(#paint29_linear)" fill-opacity="0.41"/>
<path d="M293.148 136.067L286 133.63V143.302L293.148 145.652V136.067Z" fill="#252525"/>
<path d="M293.148 136.067L286 133.63V143.302L293.148 145.652V136.067Z" fill="url(#paint30_linear)" fill-opacity="0.41"/>
<path fill-rule="evenodd" clip-rule="evenodd" d="M296.397 71.4102L303.545 73.847V83.4318L303.544 83.4317V88.4219L296.396 85.9851V76.4003L296.397 76.4003V71.4102Z" fill="#252525"/>
<path fill-rule="evenodd" clip-rule="evenodd" d="M296.397 71.4102L303.545 73.847V83.4318L303.544 83.4317V88.4219L296.396 85.9851V76.4003L296.397 76.4003V71.4102Z" fill="url(#paint31_linear)" fill-opacity="0.41"/>
<path fill-rule="evenodd" clip-rule="evenodd" d="M296.397 92.5687L303.545 95.0055V104.59L303.544 104.59V111.156L296.396 108.72V99.1347L296.397 99.1348V92.5687Z" fill="#252525"/>
<path fill-rule="evenodd" clip-rule="evenodd" d="M296.397 92.5687L303.545 95.0055V104.59L303.544 104.59V111.156L296.396 108.72V99.1347L296.397 99.1348V92.5687Z" fill="url(#paint32_linear)" fill-opacity="0.41"/>
<path d="M303.544 126.482L296.396 124.045V133.63L303.544 136.067V126.482Z" fill="#252525"/>
<path d="M303.544 126.482L296.396 124.045V133.63L303.544 136.067V126.482Z" fill="url(#paint33_linear)" fill-opacity="0.41"/>
<path d="M303.544 139.641L296.396 137.204V146.789L303.544 149.226V139.641Z" fill="#252525"/>
<path d="M303.544 139.641L296.396 137.204V146.789L303.544 149.226V139.641Z" fill="url(#paint34_linear)" fill-opacity="0.41"/>
<path fill-rule="evenodd" clip-rule="evenodd" d="M306.793 74.9841L313.941 77.4209V82.4107L313.941 82.4107V91.9955L306.793 89.5587V84.5689L306.793 84.5689V74.9841Z" fill="#252525"/>
<path fill-rule="evenodd" clip-rule="evenodd" d="M306.793 74.9841L313.941 77.4209V82.4107L313.941 82.4107V91.9955L306.793 89.5587V84.5689L306.793 84.5689V74.9841Z" fill="url(#paint35_linear)" fill-opacity="0.41"/>
<path fill-rule="evenodd" clip-rule="evenodd" d="M306.793 96.1429L313.941 98.5797V105.146L313.941 105.146V114.731L306.793 112.294V105.728L306.793 105.728V96.1429Z" fill="#252525"/>
<path fill-rule="evenodd" clip-rule="evenodd" d="M306.793 96.1429L313.941 98.5797V105.146L313.941 105.146V114.731L306.793 112.294V105.728L306.793 105.728V96.1429Z" fill="url(#paint36_linear)" fill-opacity="0.41"/>
<path d="M313.941 130.056L306.793 127.619V137.204L313.941 139.641V130.056Z" fill="#252525"/>
<path d="M313.941 130.056L306.793 127.619V137.204L313.941 139.641V130.056Z" fill="url(#paint37_linear)" fill-opacity="0.41"/>
<path d="M313.941 143.215L306.793 140.778V150.363L313.941 152.8V143.215Z" fill="#252525"/>
<path d="M313.941 143.215L306.793 140.778V150.363L313.941 152.8V143.215Z" fill="url(#paint38_linear)" fill-opacity="0.41"/>
<path fill-rule="evenodd" clip-rule="evenodd" d="M251.053 46.2585C189.171 74.0554 147.348 110.664 155.648 131.265C164.632 153.561 228.919 148.667 299.239 120.334C369.558 92.0012 419.281 50.9587 410.298 28.6631C404.02 13.083 370.737 10.7801 327.261 20.4743V22.0354C339.689 19.25 351.274 17.4497 361.619 16.6622C374.523 15.6798 385.409 16.2805 393.568 18.453C401.76 20.6342 406.9 24.3082 408.884 29.2325C410.868 34.1567 409.711 40.3685 405.32 47.6192C400.946 54.8413 393.517 62.8213 383.537 71.0597C363.589 87.5247 333.725 104.796 298.669 118.921C263.613 133.045 230.117 141.303 204.327 143.266C191.422 144.249 180.536 143.648 172.377 141.475C164.186 139.294 159.045 135.62 157.061 130.696C155.077 125.772 156.235 119.56 160.626 112.309C165 105.087 172.428 97.107 182.409 88.8686C199.202 75.0075 223.023 60.5748 251.053 47.9292V46.2585Z" fill="#ABABAB"/>
<mask id="mask0" style="mask-type:alpha" maskUnits="userSpaceOnUse" x="305" y="104" width="9" height="12">
<path d="M313.565 104.516C313.565 104.516 313.249 106.037 306.594 112.15L313.424 114.42L313.565 108.816V104.516Z" fill="#C4C4C4" stroke="black" stroke-width="0.846376"/>
</mask>
<g mask="url(#mask0)">
<circle cx="306.108" cy="104.474" r="0.402602" fill="#1C1C1C"/>
<circle cx="306.108" cy="105.883" r="0.402602" fill="#1C1C1C"/>
<circle cx="306.108" cy="107.292" r="0.402602" fill="#1C1C1C"/>
<circle cx="306.108" cy="108.701" r="0.402602" fill="#1C1C1C"/>
<circle cx="306.108" cy="110.312" r="0.402602" fill="#1C1C1C"/>
<circle cx="306.108" cy="111.721" r="0.402602" fill="#1C1C1C"/>
<circle cx="306.108" cy="113.13" r="0.402602" fill="#1C1C1C"/>
<circle cx="306.108" cy="114.539" r="0.402602" fill="#1C1C1C"/>
<circle cx="307.518" cy="104.474" r="0.402602" fill="#1C1C1C"/>
<circle cx="307.518" cy="105.883" r="0.402602" fill="#1C1C1C"/>
<circle cx="307.518" cy="107.292" r="0.402602" fill="#1C1C1C"/>
<circle cx="307.518" cy="108.701" r="0.402602" fill="#1C1C1C"/>
<circle cx="307.518" cy="110.312" r="0.402602" fill="#1C1C1C"/>
<circle cx="307.518" cy="111.721" r="0.402602" fill="#1C1C1C"/>
<circle cx="307.518" cy="113.13" r="0.402602" fill="#1C1C1C"/>
<circle cx="307.518" cy="114.539" r="0.402602" fill="#1C1C1C"/>
<circle cx="308.926" cy="104.474" r="0.402602" fill="#1C1C1C"/>
<circle cx="308.926" cy="105.883" r="0.402602" fill="#1C1C1C"/>
<circle cx="308.926" cy="107.292" r="0.402602" fill="#1C1C1C"/>
<circle cx="308.926" cy="108.701" r="0.402602" fill="#1C1C1C"/>
<circle cx="308.926" cy="110.312" r="0.402602" fill="#1C1C1C"/>
<circle cx="308.926" cy="111.721" r="0.402602" fill="#1C1C1C"/>
<circle cx="308.926" cy="113.13" r="0.402602" fill="#1C1C1C"/>
<circle cx="308.926" cy="114.539" r="0.402602" fill="#1C1C1C"/>
<circle cx="310.537" cy="104.474" r="0.402602" fill="#1C1C1C"/>
<circle cx="310.537" cy="105.883" r="0.402602" fill="#1C1C1C"/>
<circle cx="310.537" cy="107.292" r="0.402602" fill="#1C1C1C"/>
<circle cx="310.537" cy="108.701" r="0.402602" fill="#1C1C1C"/>
<circle cx="310.537" cy="110.312" r="0.402602" fill="#1C1C1C"/>
<circle cx="310.537" cy="111.721" r="0.402602" fill="#1C1C1C"/>
<circle cx="310.537" cy="113.13" r="0.402602" fill="#1C1C1C"/>
<circle cx="310.537" cy="114.539" r="0.402602" fill="#1C1C1C"/>
<circle cx="311.946" cy="104.474" r="0.402602" fill="#1C1C1C"/>
<circle cx="311.946" cy="105.883" r="0.402602" fill="#1C1C1C"/>
<circle cx="311.946" cy="107.292" r="0.402602" fill="#1C1C1C"/>
<circle cx="311.946" cy="108.701" r="0.402602" fill="#1C1C1C"/>
<circle cx="311.946" cy="110.312" r="0.402602" fill="#1C1C1C"/>
<circle cx="311.946" cy="111.721" r="0.402602" fill="#1C1C1C"/>
<circle cx="311.946" cy="113.13" r="0.402602" fill="#1C1C1C"/>
<circle cx="311.946" cy="114.539" r="0.402602" fill="#1C1C1C"/>
<circle cx="313.354" cy="104.474" r="0.402602" fill="#1C1C1C"/>
<circle cx="313.354" cy="105.883" r="0.402602" fill="#1C1C1C"/>
<circle cx="313.354" cy="107.292" r="0.402602" fill="#1C1C1C"/>
<circle cx="313.354" cy="108.701" r="0.402602" fill="#1C1C1C"/>
<circle cx="313.354" cy="110.312" r="0.402602" fill="#1C1C1C"/>
<circle cx="313.354" cy="111.721" r="0.402602" fill="#1C1C1C"/>
<circle cx="313.354" cy="113.13" r="0.402602" fill="#1C1C1C"/>
<circle cx="313.354" cy="114.539" r="0.402602" fill="#1C1C1C"/>
</g>
<path d="M400.762 35.5973C407.393 35.5973 412.769 30.2405 412.769 23.6327C412.769 17.0248 407.393 11.668 400.762 11.668C394.131 11.668 388.756 17.0248 388.756 23.6327C388.756 30.2405 394.131 35.5973 400.762 35.5973Z" fill="#616161"/>
<path d="M400.764 33.4289L395.887 23.6329L400.839 13.8368L405.792 23.6329L400.764 33.4289ZM396.712 23.6329L400.764 31.7838L404.817 23.6329L400.764 15.482L396.712 23.6329Z" fill="white"/>
<path d="M400.766 26.3249L396.113 23.9319L396.413 23.3337L400.766 25.4275L405.118 23.3337L405.418 23.9319L400.766 26.3249Z" fill="white"/>
<path d="M401.141 14.6595H400.391V32.6065H401.141V14.6595Z" fill="white"/>
<path d="M174.413 104.259C181.044 104.259 186.419 98.9025 186.419 92.2946C186.419 85.6868 181.044 80.33 174.413 80.33C167.782 80.33 162.406 85.6868 162.406 92.2946C162.406 98.9025 167.782 104.259 174.413 104.259Z" fill="#616161"/>
<path d="M173.138 98.6513H170.736V85.9388H173.138C176.665 85.9388 179.516 88.7804 179.516 92.2951C179.516 95.8097 176.665 98.6513 173.138 98.6513ZM171.562 97.9035H173.213C176.289 97.9035 178.841 95.361 178.841 92.2951C178.841 89.2291 176.289 86.6866 173.213 86.6866H171.562V97.9035Z" fill="white"/>
<path d="M181.167 90.8743H169.16V91.6221H181.167V90.8743Z" fill="white"/>
<path d="M181.167 92.8933H169.16V93.6411H181.167V92.8933Z" fill="white"/>
<path d="M318.315 125.688C324.946 125.688 330.322 120.331 330.322 113.723C330.322 107.115 324.946 101.759 318.315 101.759C311.684 101.759 306.309 107.115 306.309 113.723C306.309 120.331 311.684 125.688 318.315 125.688Z" fill="#616161"/>
<path d="M316.741 117.761H315.99V119.78H316.741V117.761Z" fill="white"/>
<path d="M320.717 117.761H319.967V119.78H320.717V117.761Z" fill="white"/>
<path d="M316.741 107.741H315.99V109.76H316.741V107.741Z" fill="white"/>
<path d="M320.717 107.741H319.967V109.76H320.717V107.741Z" fill="white"/>
<path d="M322.369 118.135H312.014V109.386H322.369C323.645 109.386 324.771 110.433 324.771 111.779C324.771 112.601 324.32 113.349 323.645 113.798C324.32 114.246 324.771 114.919 324.771 115.817C324.696 117.088 323.645 118.135 322.369 118.135ZM312.689 117.387H322.294C323.195 117.387 323.945 116.639 323.945 115.742C323.945 114.845 323.195 114.097 322.294 114.097H312.689V117.387ZM312.689 113.349H322.294C323.195 113.349 323.945 112.601 323.945 111.704C323.945 110.807 323.195 110.059 322.294 110.059H312.689V113.349Z" fill="white"/>
<circle cx="253.043" cy="406.475" r="18.1191" fill="white"/>
<circle cx="253.043" cy="406.475" r="18.1191" fill="url(#paint39_linear)"/>
<path d="M272.61 445.79C269.345 432.096 263.574 427.624 253.567 427.624C253.212 427.624 252.859 427.624 252.518 427.624C242.511 427.624 236.739 432.096 233.475 445.79L227.564 470.611L278.52 470.611L272.61 445.79Z" fill="white"/>
<path d="M272.61 445.79C269.345 432.096 263.574 427.624 253.567 427.624C253.212 427.624 252.859 427.624 252.518 427.624C242.511 427.624 236.739 432.096 233.475 445.79L227.564 470.611L278.52 470.611L272.61 445.79Z" fill="url(#paint40_linear)"/>
<mask id="mask1" style="mask-type:alpha" maskUnits="userSpaceOnUse" x="227" y="449" width="11" height="22">
<path d="M237.454 470.611C237.811 471.061 236.48 466.872 235.051 459.277C232.327 444.8 232.857 449.177 231.774 452.995L227.564 470.611C227.564 470.611 237.097 470.162 237.454 470.611Z" fill="white"/>
<path d="M237.454 470.611C237.811 471.061 236.48 466.872 235.051 459.277C232.327 444.8 232.857 449.177 231.774 452.995L227.564 470.611C227.564 470.611 237.097 470.162 237.454 470.611Z" fill="url(#paint41_linear)"/>
</mask>
<g mask="url(#mask1)">
</g>
<mask id="mask2" style="mask-type:alpha" maskUnits="userSpaceOnUse" x="235" y="395" width="12" height="29">
<path d="M240.024 409.298C240.38 410.926 242.383 419.991 246.425 423.253C244.64 422.233 227.606 412.883 239.128 395.216C239.128 395.216 238.787 403.641 240.024 409.298Z" fill="white"/>
</mask>
<g mask="url(#mask2)">
</g>
<circle cx="305.967" cy="406.475" r="18.1191" fill="white"/>
<circle cx="305.967" cy="406.475" r="18.1191" fill="url(#paint42_linear)"/>
<path d="M325.534 445.79C322.269 432.096 316.497 427.624 306.491 427.624C306.136 427.624 305.782 427.624 305.441 427.624C295.435 427.624 289.663 432.096 286.398 445.79L280.488 470.611L331.444 470.611L325.534 445.79Z" fill="white"/>
<path d="M325.534 445.79C322.269 432.096 316.497 427.624 306.491 427.624C306.136 427.624 305.782 427.624 305.441 427.624C295.435 427.624 289.663 432.096 286.398 445.79L280.488 470.611L331.444 470.611L325.534 445.79Z" fill="url(#paint43_linear)"/>
<mask id="mask3" style="mask-type:alpha" maskUnits="userSpaceOnUse" x="280" y="449" width="11" height="22">
<path d="M290.378 470.611C290.735 471.061 289.404 466.872 287.975 459.277C285.251 444.8 285.781 449.177 284.697 452.995L280.488 470.611C280.488 470.611 290.021 470.162 290.378 470.611Z" fill="white"/>
<path d="M290.378 470.611C290.735 471.061 289.404 466.872 287.975 459.277C285.251 444.8 285.781 449.177 284.697 452.995L280.488 470.611C280.488 470.611 290.021 470.162 290.378 470.611Z" fill="url(#paint44_linear)"/>
</mask>
<g mask="url(#mask3)">
</g>
<mask id="mask4" style="mask-type:alpha" maskUnits="userSpaceOnUse" x="288" y="395" width="12" height="29">
<path d="M292.948 409.298C293.304 410.926 295.307 419.991 299.349 423.253C297.564 422.233 280.53 412.883 292.052 395.216C292.052 395.216 291.71 403.641 292.948 409.298Z" fill="white"/>
</mask>
<g mask="url(#mask4)">
</g>
<defs>
<radialGradient id="paint0_radial" cx="0" cy="0" r="1" gradientUnits="userSpaceOnUse" gradientTransform="translate(286.551 287.859) rotate(-90) scale(41.8677 177.915)">
<stop stop-color="#D8176C"/>
<stop offset="0.911004" stop-color="#C4C4C4" stop-opacity="0"/>
</radialGradient>
<radialGradient id="paint1_radial" cx="0" cy="0" r="1" gradientUnits="userSpaceOnUse" gradientTransform="translate(286.551 288.893) rotate(90) scale(18.9381 80.4767)">
<stop stop-color="white"/>
<stop offset="1" stop-color="white" stop-opacity="0"/>
</radialGradient>
<linearGradient id="paint2_linear" x1="286.551" y1="310.256" x2="286.551" y2="290.296" gradientUnits="userSpaceOnUse">
<stop/>
<stop offset="1" stop-opacity="0"/>
</linearGradient>
<linearGradient id="paint3_linear" x1="445.084" y1="273.081" x2="362.84" y2="272.015" gradientUnits="userSpaceOnUse">
<stop/>
<stop offset="1" stop-opacity="0"/>
</linearGradient>
<linearGradient id="paint4_linear" x1="142.235" y1="280.185" x2="204.586" y2="278.792" gradientUnits="userSpaceOnUse">
<stop/>
<stop offset="1" stop-opacity="0"/>
</linearGradient>
<linearGradient id="paint5_linear" x1="349.996" y1="221.618" x2="350.769" y2="221.618" gradientUnits="userSpaceOnUse">
<stop stop-color="#2762FF"/>
<stop offset="1" stop-color="white"/>
</linearGradient>
<linearGradient id="paint6_linear" x1="232.826" y1="252.692" x2="344.246" y2="252.692" gradientUnits="userSpaceOnUse">
<stop stop-color="#2762FF"/>
<stop offset="1" stop-color="white"/>
</linearGradient>
<linearGradient id="paint7_linear" x1="76.7047" y1="314" x2="40.128" y2="262.646" gradientUnits="userSpaceOnUse">
<stop stop-color="#645AFF"/>
<stop offset="0.637566" stop-color="#E40C5B"/>
<stop offset="1" stop-color="#FF4C3B"/>
</linearGradient>
<linearGradient id="paint8_linear" x1="54.967" y1="327.931" x2="1.78602" y2="282.126" gradientUnits="userSpaceOnUse">
<stop stop-color="#645AFF"/>
<stop offset="0.60257" stop-color="#E40C5B"/>
<stop offset="1" stop-color="#FF4C3B"/>
</linearGradient>
<linearGradient id="paint9_linear" x1="254.957" y1="15.0423" x2="320.74" y2="5.67689" gradientUnits="userSpaceOnUse">
<stop stop-color="#C2C2C2"/>
<stop offset="1" stop-color="white" stop-opacity="0"/>
<stop offset="1" stop-color="#969696" stop-opacity="0.31"/>
</linearGradient>
<linearGradient id="paint10_linear" x1="271.333" y1="23.5777" x2="271.333" y2="124.187" gradientUnits="userSpaceOnUse">
<stop stop-color="white"/>
<stop offset="1" stop-color="#FAFAFA" stop-opacity="0"/>
</linearGradient>
<linearGradient id="paint11_linear" x1="277.138" y1="104.783" x2="269.385" y2="156.83" gradientUnits="userSpaceOnUse">
<stop stop-color="#ACACAC"/>
<stop offset="1" stop-opacity="0"/>
</linearGradient>
<linearGradient id="paint12_linear" x1="227.523" y1="70.4037" x2="293.312" y2="61.1753" gradientUnits="userSpaceOnUse">
<stop stop-color="#C2C2C2"/>
<stop offset="1" stop-color="white" stop-opacity="0"/>
<stop offset="1" stop-color="#969696" stop-opacity="0.31"/>
</linearGradient>
<linearGradient id="paint13_linear" x1="244.064" y1="79.7342" x2="244.064" y2="156.83" gradientUnits="userSpaceOnUse">
<stop offset="0.0491824" stop-color="white"/>
<stop offset="1" stop-color="white" stop-opacity="0"/>
</linearGradient>
<linearGradient id="paint14_linear" x1="309.414" y1="15.6299" x2="309.414" y2="124.182" gradientUnits="userSpaceOnUse">
<stop stop-color="#8B8B8B"/>
<stop offset="1" stop-color="#585858" stop-opacity="0.54"/>
</linearGradient>
<linearGradient id="paint15_linear" x1="259.316" y1="20.1162" x2="259.316" y2="52.6864" gradientUnits="userSpaceOnUse">
<stop offset="0.218" stop-color="#D6D6D6"/>
<stop offset="0.847" stop-color="#212121"/>
</linearGradient>
<linearGradient id="paint16_linear" x1="269.409" y1="23.5858" x2="269.409" y2="56.1561" gradientUnits="userSpaceOnUse">
<stop offset="0.218" stop-color="#D6D6D6"/>
<stop offset="0.847" stop-color="#212121"/>
</linearGradient>
<linearGradient id="paint17_linear" x1="279.505" y1="27.0558" x2="279.505" y2="59.6256" gradientUnits="userSpaceOnUse">
<stop offset="0.218" stop-color="#D6D6D6"/>
<stop offset="0.847" stop-color="#212121"/>
</linearGradient>
<linearGradient id="paint18_linear" x1="233.35" y1="81.2392" x2="233.35" y2="99.116" gradientUnits="userSpaceOnUse">
<stop stop-color="#F5F5F5"/>
<stop offset="1" stop-opacity="0"/>
</linearGradient>
<linearGradient id="paint19_linear" x1="243.617" y1="84.7688" x2="243.617" y2="102.646" gradientUnits="userSpaceOnUse">
<stop stop-color="#F5F5F5"/>
<stop offset="1" stop-opacity="0"/>
</linearGradient>
<linearGradient id="paint20_linear" x1="253.885" y1="88.2985" x2="253.885" y2="106.175" gradientUnits="userSpaceOnUse">
<stop stop-color="#F5F5F5"/>
<stop offset="1" stop-opacity="0"/>
</linearGradient>
<linearGradient id="paint21_linear" x1="233.35" y1="102.646" x2="233.35" y2="120.522" gradientUnits="userSpaceOnUse">
<stop stop-color="#F5F5F5"/>
<stop offset="1" stop-opacity="0"/>
</linearGradient>
<linearGradient id="paint22_linear" x1="243.619" y1="106.175" x2="243.619" y2="124.052" gradientUnits="userSpaceOnUse">
<stop stop-color="#F5F5F5"/>
<stop offset="1" stop-opacity="0"/>
</linearGradient>
<linearGradient id="paint23_linear" x1="253.887" y1="109.705" x2="253.887" y2="127.582" gradientUnits="userSpaceOnUse">
<stop stop-color="#F5F5F5"/>
<stop offset="1" stop-opacity="0"/>
</linearGradient>
<linearGradient id="paint24_linear" x1="283.566" y1="56.0759" x2="349.494" y2="46.7609" gradientUnits="userSpaceOnUse">
<stop stop-color="#C2C2C2"/>
<stop offset="1" stop-color="white" stop-opacity="0"/>
<stop offset="1" stop-color="#969696" stop-opacity="0.31"/>
</linearGradient>
<linearGradient id="paint25_linear" x1="299.968" y1="67.7888" x2="299.968" y2="165.084" gradientUnits="userSpaceOnUse">
<stop offset="0.0491824" stop-color="white"/>
<stop offset="1" stop-color="white" stop-opacity="0"/>
</linearGradient>
<linearGradient id="paint26_linear" x1="337.957" y1="56.3816" x2="337.957" y2="165.084" gradientUnits="userSpaceOnUse">
<stop stop-color="#BDBCBC"/>
<stop offset="1" stop-color="#585858" stop-opacity="0.54"/>
</linearGradient>
<linearGradient id="paint27_linear" x1="289.574" y1="67.8363" x2="289.574" y2="84.8478" gradientUnits="userSpaceOnUse">
<stop stop-color="#F5F5F5"/>
<stop offset="1" stop-opacity="0"/>
</linearGradient>
<linearGradient id="paint28_linear" x1="289.574" y1="88.9947" x2="289.574" y2="107.582" gradientUnits="userSpaceOnUse">
<stop stop-color="#F5F5F5"/>
<stop offset="1" stop-opacity="0"/>
</linearGradient>
<linearGradient id="paint29_linear" x1="286" y1="113.534" x2="289.574" y2="132.493" gradientUnits="userSpaceOnUse">
<stop stop-color="#F5F5F5"/>
<stop offset="1" stop-opacity="0"/>
</linearGradient>
<linearGradient id="paint30_linear" x1="286" y1="126.692" x2="289.574" y2="145.652" gradientUnits="userSpaceOnUse">
<stop stop-color="#F5F5F5"/>
<stop offset="1" stop-opacity="0"/>
</linearGradient>
<linearGradient id="paint31_linear" x1="299.971" y1="71.4102" x2="299.971" y2="88.4219" gradientUnits="userSpaceOnUse">
<stop stop-color="#F5F5F5"/>
<stop offset="1" stop-opacity="0"/>
</linearGradient>
<linearGradient id="paint32_linear" x1="299.971" y1="92.5687" x2="299.971" y2="111.156" gradientUnits="userSpaceOnUse">
<stop stop-color="#F5F5F5"/>
<stop offset="1" stop-opacity="0"/>
</linearGradient>
<linearGradient id="paint33_linear" x1="296.396" y1="117.108" x2="299.97" y2="136.067" gradientUnits="userSpaceOnUse">
<stop stop-color="#F5F5F5"/>
<stop offset="1" stop-opacity="0"/>
</linearGradient>
<linearGradient id="paint34_linear" x1="296.396" y1="130.266" x2="299.97" y2="149.226" gradientUnits="userSpaceOnUse">
<stop stop-color="#F5F5F5"/>
<stop offset="1" stop-opacity="0"/>
</linearGradient>
<linearGradient id="paint35_linear" x1="310.367" y1="74.9841" x2="310.367" y2="91.9955" gradientUnits="userSpaceOnUse">
<stop stop-color="#F5F5F5"/>
<stop offset="1" stop-opacity="0"/>
</linearGradient>
<linearGradient id="paint36_linear" x1="310.367" y1="96.1429" x2="310.367" y2="114.731" gradientUnits="userSpaceOnUse">
<stop stop-color="#F5F5F5"/>
<stop offset="1" stop-opacity="0"/>
</linearGradient>
<linearGradient id="paint37_linear" x1="306.793" y1="120.682" x2="310.367" y2="139.641" gradientUnits="userSpaceOnUse">
<stop stop-color="#F5F5F5"/>
<stop offset="1" stop-opacity="0"/>
</linearGradient>
<linearGradient id="paint38_linear" x1="306.793" y1="133.84" x2="310.367" y2="152.8" gradientUnits="userSpaceOnUse">
<stop stop-color="#F5F5F5"/>
<stop offset="1" stop-opacity="0"/>
</linearGradient>
<linearGradient id="paint39_linear" x1="234.924" y1="409.621" x2="318.495" y2="406.475" gradientUnits="userSpaceOnUse">
<stop stop-color="#333333"/>
<stop offset="1" stop-color="#F7F7F7" stop-opacity="0"/>
</linearGradient>
<linearGradient id="paint40_linear" x1="227.564" y1="452.849" x2="345.008" y2="447.609" gradientUnits="userSpaceOnUse">
<stop stop-color="#333333"/>
<stop offset="1" stop-color="#F7F7F7" stop-opacity="0"/>
</linearGradient>
<linearGradient id="paint41_linear" x1="227.564" y1="452.849" x2="334.703" y2="451.965" gradientUnits="userSpaceOnUse">
<stop stop-color="#DF3D3D"/>
<stop offset="1" stop-color="#F7F7F7" stop-opacity="0"/>
</linearGradient>
<linearGradient id="paint42_linear" x1="287.848" y1="409.621" x2="371.419" y2="406.475" gradientUnits="userSpaceOnUse">
<stop stop-color="#333333"/>
<stop offset="1" stop-color="#F7F7F7" stop-opacity="0"/>
</linearGradient>
<linearGradient id="paint43_linear" x1="280.488" y1="452.849" x2="397.932" y2="447.609" gradientUnits="userSpaceOnUse">
<stop stop-color="#333333"/>
<stop offset="1" stop-color="#F7F7F7" stop-opacity="0"/>
</linearGradient>
<linearGradient id="paint44_linear" x1="280.488" y1="452.849" x2="387.626" y2="451.965" gradientUnits="userSpaceOnUse">
<stop stop-color="#DF3D3D"/>
<stop offset="1" stop-color="#F7F7F7" stop-opacity="0"/>
</linearGradient>
<clipPath id="clip0">
<rect width="48.4312" height="48.4312" fill="white" transform="translate(0.199219 273.987)"/>
</clipPath>
</defs>
</svg>
