<svg width="336" height="473" viewBox="0 0 336 473" fill="none" xmlns="http://www.w3.org/2000/svg">
<path d="M176.997 29.1179L136.389 15.0853L172.025 0.227295L212.422 15.282L176.997 29.1179Z" fill="#1C1C1C"/>
<path d="M176.997 29.1179L136.389 15.0853L172.025 0.227295L212.422 15.282L176.997 29.1179Z" fill="url(#paint0_linear)" fill-opacity="0.72"/>
<path d="M136.389 108.798V15.0813L176.91 28.9761V123.669L136.389 108.798Z" fill="#1C1C1C"/>
<path d="M136.389 108.798V15.0813L176.91 28.9761V123.669L136.389 108.798Z" fill="url(#paint1_linear)" fill-opacity="0.24"/>
<path d="M149.609 156.309V84.3666L184.912 70.3901V138.489L149.609 156.309Z" fill="#1C1C1C"/>
<path d="M149.609 156.309V84.3666L184.912 70.3901V138.489L149.609 156.309Z" fill="url(#paint2_linear)" fill-opacity="0.3"/>
<path d="M149.569 84.4127L108.994 70.4777L144.755 55.3821L184.722 70.2026L149.569 84.4127Z" fill="#1C1C1C"/>
<path d="M149.569 84.4127L108.994 70.4777L144.755 55.3821L184.722 70.2026L149.569 84.4127Z" fill="url(#paint3_linear)" fill-opacity="0.72"/>
<path d="M109.119 141.44V70.3901L149.641 84.4349V156.311L109.119 141.44Z" fill="#1C1C1C"/>
<path d="M109.119 141.44V70.3901L149.641 84.4349V156.311L109.119 141.44Z" fill="url(#paint4_linear)" fill-opacity="0.69"/>
<path d="M142.414 126.403V120.935C141.647 124.619 138.705 125.156 137.33 124.964L142.414 126.403Z" fill="#A8A8A8" stroke="#1C1C1C" stroke-width="0.846376"/>
<path d="M176.914 123.537V28.9455L212.309 15.1116L212.368 105.847L176.914 123.537Z" fill="#1C1C1C"/>
<path d="M176.914 123.537V28.9455L212.309 15.1116L212.368 105.847L176.914 123.537Z" fill="url(#paint5_linear)"/>
<path d="M177.03 66.4506L168.775 63.6366V74.8051L177.03 77.519V66.4506Z" fill="#A8A8A8"/>
<path fill-rule="evenodd" clip-rule="evenodd" d="M141.162 24.458L148.101 26.8237V32.6589L148.102 32.6591V41.9642L141.163 39.6826V33.8475L141.162 33.8472V24.458Z" fill="url(#paint6_linear)"/>
<path d="M177.03 81.8338L168.775 79.0197V90.1883L177.03 92.9022V81.8338Z" fill="#A8A8A8"/>
<path d="M177.03 97.217L168.775 94.403V105.572L177.03 108.285V97.217Z" fill="#A8A8A8"/>
<path d="M177.03 112.6L168.775 109.786V120.955L177.03 123.669V112.6Z" fill="#A8A8A8"/>
<path d="M177.03 127.984L168.775 125.17V136.338L177.03 139.052V127.984Z" fill="#A8A8A8"/>
<path d="M189.038 70.5779L180.783 67.7639V78.8323L189.038 81.6463V70.5779Z" fill="#A8A8A8"/>
<path fill-rule="evenodd" clip-rule="evenodd" d="M151.256 27.9276L158.195 30.2933V36.1287L158.195 36.1288V45.4339L151.256 43.0682V37.2328L151.256 37.2327V27.9276Z" fill="url(#paint7_linear)"/>
<path d="M189.038 85.961L180.783 83.147V94.2154L189.038 97.0295V85.961Z" fill="#A8A8A8"/>
<path d="M189.038 101.344L180.783 98.5303V109.599L189.038 112.413V101.344Z" fill="#A8A8A8"/>
<path d="M189.038 116.728L180.783 113.914V124.982L189.038 127.796V116.728Z" fill="#A8A8A8"/>
<path d="M189.038 132.111L180.783 129.297V140.365L189.038 143.179V132.111Z" fill="#A8A8A8"/>
<path d="M201.044 74.7049L192.789 71.8909V82.9593L201.044 85.7733V74.7049Z" fill="#A8A8A8"/>
<path fill-rule="evenodd" clip-rule="evenodd" d="M161.352 31.3976L168.291 33.7633V43.0683L168.291 43.0682V48.9035L161.352 46.5378V37.2327L161.352 37.2328V31.3976Z" fill="url(#paint8_linear)"/>
<path fill-rule="evenodd" clip-rule="evenodd" d="M115.137 80.7209L122.196 83.1274V89.132V92.5932V98.5977L115.137 96.2767V90.2722V86.7254V80.7209Z" fill="#252525"/>
<path fill-rule="evenodd" clip-rule="evenodd" d="M115.137 80.7209L122.196 83.1274V89.132V92.5932V98.5977L115.137 96.2767V90.2722V86.7254V80.7209Z" fill="url(#paint9_linear)" fill-opacity="0.41"/>
<path fill-rule="evenodd" clip-rule="evenodd" d="M125.404 84.2505L132.463 86.6571V92.6617V96.1228V102.127L125.404 99.7209V93.7163V90.2552V84.2505Z" fill="#252525"/>
<path fill-rule="evenodd" clip-rule="evenodd" d="M125.404 84.2505L132.463 86.6571V92.6617V96.1228V102.127L125.404 99.7209V93.7163V90.2552V84.2505Z" fill="url(#paint10_linear)" fill-opacity="0.41"/>
<path fill-rule="evenodd" clip-rule="evenodd" d="M135.673 87.7802L142.732 90.1867V99.6524L142.731 99.6522V105.657L135.672 103.251V93.7848L135.673 93.7851V87.7802Z" fill="#252525"/>
<path fill-rule="evenodd" clip-rule="evenodd" d="M135.673 87.7802L142.732 90.1867V99.6524L142.731 99.6522V105.657L135.672 103.251V93.7848L135.673 93.7851V87.7802Z" fill="url(#paint11_linear)" fill-opacity="0.41"/>
<path fill-rule="evenodd" clip-rule="evenodd" d="M115.137 102.127L122.196 104.534V110.538V114V120.004L115.137 117.683V111.679V108.132V102.127Z" fill="#252525"/>
<path fill-rule="evenodd" clip-rule="evenodd" d="M115.137 102.127L122.196 104.534V110.538V114V120.004L115.137 117.683V111.679V108.132V102.127Z" fill="url(#paint12_linear)" fill-opacity="0.41"/>
<path fill-rule="evenodd" clip-rule="evenodd" d="M125.407 105.657L132.467 108.063V117.529L132.463 117.528V123.534L125.404 121.127V111.661L125.407 111.663V105.657Z" fill="#252525"/>
<path fill-rule="evenodd" clip-rule="evenodd" d="M125.407 105.657L132.467 108.063V117.529L132.463 117.528V123.534L125.404 121.127V111.661L125.407 111.663V105.657Z" fill="url(#paint13_linear)" fill-opacity="0.41"/>
<path fill-rule="evenodd" clip-rule="evenodd" d="M135.674 109.186L142.733 111.593V121.059L142.733 121.058V127.063L135.674 124.657V115.191L135.674 115.191V109.186Z" fill="#252525"/>
<path fill-rule="evenodd" clip-rule="evenodd" d="M135.674 109.186L142.733 111.593V121.059L142.733 121.058V127.063L135.674 124.657V115.191L135.674 115.191V109.186Z" fill="url(#paint14_linear)" fill-opacity="0.41"/>
<path d="M201.044 90.0882L192.789 87.2742V98.3427L201.044 101.157V90.0882Z" fill="#A8A8A8"/>
<path d="M201.044 105.471L192.789 102.657V113.726L201.044 116.54V105.471Z" fill="#A8A8A8"/>
<path d="M201.044 120.855L192.789 118.041V129.109L201.044 131.923V120.855Z" fill="#A8A8A8"/>
<path d="M201.044 136.238L192.789 133.424V144.493L201.044 147.307V136.238Z" fill="#A8A8A8"/>
<path d="M205.844 70.2909L164.99 56.131L200.659 41.1243L241.169 55.8985L205.844 70.2909Z" fill="#1C1C1C"/>
<path d="M205.844 70.2909L164.99 56.131L200.659 41.1243L241.169 55.8985L205.844 70.2909Z" fill="url(#paint15_linear)" fill-opacity="0.72"/>
<path d="M165.023 149.695V56.1323L205.545 70.1771V164.566L165.023 149.695Z" fill="#1C1C1C"/>
<path d="M165.023 149.695V56.1323L205.545 70.1771V164.566L165.023 149.695Z" fill="url(#paint16_linear)" fill-opacity="0.69"/>
<path d="M205.555 164.571V70.146L240.813 55.8633V146.744L205.555 164.571Z" fill="#1C1C1C"/>
<path d="M205.555 164.571V70.146L240.813 55.8633V146.744L205.555 164.571Z" fill="url(#paint17_linear)"/>
<path fill-rule="evenodd" clip-rule="evenodd" d="M171.316 67.318L178.464 69.7548V74.7445L178.465 74.7447V84.3295L171.317 81.9793V76.9896L171.316 76.9894V67.318Z" fill="#252525"/>
<path fill-rule="evenodd" clip-rule="evenodd" d="M171.316 67.318L178.464 69.7548V74.7445L178.465 74.7447V84.3295L171.317 81.9793V76.9896L171.316 76.9894V67.318Z" fill="url(#paint18_linear)" fill-opacity="0.41"/>
<path fill-rule="evenodd" clip-rule="evenodd" d="M171.316 88.4764L178.464 90.9132V97.479L178.465 97.4793V107.064L171.317 104.714V98.148L171.316 98.1478V88.4764Z" fill="#252525"/>
<path fill-rule="evenodd" clip-rule="evenodd" d="M171.316 88.4764L178.464 90.9132V97.479L178.465 97.4793V107.064L171.317 104.714V98.148L171.316 98.1478V88.4764Z" fill="url(#paint19_linear)" fill-opacity="0.41"/>
<path d="M178.464 122.39L171.316 119.953V129.625L178.464 131.975V122.39Z" fill="#252525"/>
<path d="M178.464 122.39L171.316 119.953V129.625L178.464 131.975V122.39Z" fill="url(#paint20_linear)" fill-opacity="0.41"/>
<path d="M178.464 135.549L171.316 133.112V142.783L178.464 145.133V135.549Z" fill="#252525"/>
<path d="M178.464 135.549L171.316 133.112V142.783L178.464 145.133V135.549Z" fill="url(#paint21_linear)" fill-opacity="0.41"/>
<path fill-rule="evenodd" clip-rule="evenodd" d="M181.713 70.8918L188.861 73.3287V82.9135L188.861 82.9134V87.9036L181.713 85.4668V75.882L181.713 75.882V70.8918Z" fill="#252525"/>
<path fill-rule="evenodd" clip-rule="evenodd" d="M181.713 70.8918L188.861 73.3287V82.9135L188.861 82.9134V87.9036L181.713 85.4668V75.882L181.713 75.882V70.8918Z" fill="url(#paint22_linear)" fill-opacity="0.41"/>
<path fill-rule="evenodd" clip-rule="evenodd" d="M181.713 92.0504L188.861 94.4872V104.072L188.861 104.072V110.638L181.713 108.201V98.6164L181.713 98.6165V92.0504Z" fill="#252525"/>
<path fill-rule="evenodd" clip-rule="evenodd" d="M181.713 92.0504L188.861 94.4872V104.072L188.861 104.072V110.638L181.713 108.201V98.6164L181.713 98.6165V92.0504Z" fill="url(#paint23_linear)" fill-opacity="0.41"/>
<path d="M188.861 125.964L181.713 123.527V133.112L188.861 135.549V125.964Z" fill="#252525"/>
<path d="M188.861 125.964L181.713 123.527V133.112L188.861 135.549V125.964Z" fill="url(#paint24_linear)" fill-opacity="0.41"/>
<path d="M188.861 139.123L181.713 136.686V146.271L188.861 148.707V139.123Z" fill="#252525"/>
<path d="M188.861 139.123L181.713 136.686V146.271L188.861 148.707V139.123Z" fill="url(#paint25_linear)" fill-opacity="0.41"/>
<path fill-rule="evenodd" clip-rule="evenodd" d="M192.109 74.4658L199.257 76.9026V81.8924L199.257 81.8924V91.4772L192.109 89.0404V84.0506L192.109 84.0506V74.4658Z" fill="#252525"/>
<path fill-rule="evenodd" clip-rule="evenodd" d="M192.109 74.4658L199.257 76.9026V81.8924L199.257 81.8924V91.4772L192.109 89.0404V84.0506L192.109 84.0506V74.4658Z" fill="url(#paint26_linear)" fill-opacity="0.41"/>
<path fill-rule="evenodd" clip-rule="evenodd" d="M192.109 95.6246L199.257 98.0614V104.628L199.257 104.628V114.212L192.109 111.776V105.209L192.109 105.209V95.6246Z" fill="#252525"/>
<path fill-rule="evenodd" clip-rule="evenodd" d="M192.109 95.6246L199.257 98.0614V104.628L199.257 104.628V114.212L192.109 111.776V105.209L192.109 105.209V95.6246Z" fill="url(#paint27_linear)" fill-opacity="0.41"/>
<path d="M199.257 129.538L192.109 127.101V136.686L199.257 139.123V129.538Z" fill="#252525"/>
<path d="M199.257 129.538L192.109 127.101V136.686L199.257 139.123V129.538Z" fill="url(#paint28_linear)" fill-opacity="0.41"/>
<path d="M199.257 142.697L192.109 140.26V149.845L199.257 152.281V142.697Z" fill="#252525"/>
<path d="M199.257 142.697L192.109 140.26V149.845L199.257 152.281V142.697Z" fill="url(#paint29_linear)" fill-opacity="0.41"/>
<path fill-rule="evenodd" clip-rule="evenodd" d="M136.369 45.7402C74.4876 73.5371 32.664 110.145 40.9647 130.747C49.948 153.042 114.235 148.148 184.555 119.816C254.874 91.4828 304.597 50.4404 295.614 28.1448C289.336 12.5647 256.053 10.2618 212.577 19.956V21.5171C225.005 18.7316 236.59 16.9314 246.936 16.1438C259.84 15.1615 270.726 15.7621 278.885 17.9347C287.076 20.1158 292.217 23.7899 294.201 28.7141C296.185 33.6384 295.027 39.8501 290.636 47.1008C286.263 54.323 278.834 62.3029 268.853 70.5413C248.906 87.0063 219.041 104.278 183.986 118.403C148.93 132.527 115.433 140.784 89.6431 142.748C76.7388 143.73 65.8528 143.129 57.6938 140.957C49.5026 138.776 44.3619 135.102 42.3778 130.177C40.3938 125.253 41.5514 119.041 45.9424 111.791C50.3161 104.569 57.7447 96.5887 67.7255 88.3503C84.5182 74.4892 108.339 60.0564 136.369 47.4109V45.7402Z" fill="#ABABAB"/>
<mask id="mask0" style="mask-type:alpha" maskUnits="userSpaceOnUse" x="191" y="103" width="9" height="12">
<path d="M198.882 103.997C198.882 103.997 198.566 105.519 191.91 111.631L198.741 113.902L198.882 108.298V103.997Z" fill="#C4C4C4" stroke="black" stroke-width="0.846376"/>
</mask>
<g mask="url(#mask0)">
<circle cx="191.424" cy="103.956" r="0.402602" fill="#1C1C1C"/>
<circle cx="191.424" cy="105.365" r="0.402602" fill="#1C1C1C"/>
<circle cx="191.424" cy="106.774" r="0.402602" fill="#1C1C1C"/>
<circle cx="191.424" cy="108.183" r="0.402602" fill="#1C1C1C"/>
<circle cx="191.424" cy="109.794" r="0.402602" fill="#1C1C1C"/>
<circle cx="191.424" cy="111.202" r="0.402602" fill="#1C1C1C"/>
<circle cx="191.424" cy="112.612" r="0.402602" fill="#1C1C1C"/>
<circle cx="191.424" cy="114.021" r="0.402602" fill="#1C1C1C"/>
<circle cx="192.834" cy="103.956" r="0.402602" fill="#1C1C1C"/>
<circle cx="192.834" cy="105.365" r="0.402602" fill="#1C1C1C"/>
<circle cx="192.834" cy="106.774" r="0.402602" fill="#1C1C1C"/>
<circle cx="192.834" cy="108.183" r="0.402602" fill="#1C1C1C"/>
<circle cx="192.834" cy="109.794" r="0.402602" fill="#1C1C1C"/>
<circle cx="192.834" cy="111.202" r="0.402602" fill="#1C1C1C"/>
<circle cx="192.834" cy="112.612" r="0.402602" fill="#1C1C1C"/>
<circle cx="192.834" cy="114.021" r="0.402602" fill="#1C1C1C"/>
<circle cx="194.242" cy="103.956" r="0.402602" fill="#1C1C1C"/>
<circle cx="194.242" cy="105.365" r="0.402602" fill="#1C1C1C"/>
<circle cx="194.242" cy="106.774" r="0.402602" fill="#1C1C1C"/>
<circle cx="194.242" cy="108.183" r="0.402602" fill="#1C1C1C"/>
<circle cx="194.242" cy="109.794" r="0.402602" fill="#1C1C1C"/>
<circle cx="194.242" cy="111.202" r="0.402602" fill="#1C1C1C"/>
<circle cx="194.242" cy="112.612" r="0.402602" fill="#1C1C1C"/>
<circle cx="194.242" cy="114.021" r="0.402602" fill="#1C1C1C"/>
<circle cx="195.854" cy="103.956" r="0.402602" fill="#1C1C1C"/>
<circle cx="195.854" cy="105.365" r="0.402602" fill="#1C1C1C"/>
<circle cx="195.854" cy="106.774" r="0.402602" fill="#1C1C1C"/>
<circle cx="195.854" cy="108.183" r="0.402602" fill="#1C1C1C"/>
<circle cx="195.854" cy="109.794" r="0.402602" fill="#1C1C1C"/>
<circle cx="195.854" cy="111.202" r="0.402602" fill="#1C1C1C"/>
<circle cx="195.854" cy="112.612" r="0.402602" fill="#1C1C1C"/>
<circle cx="195.854" cy="114.021" r="0.402602" fill="#1C1C1C"/>
<circle cx="197.262" cy="103.956" r="0.402602" fill="#1C1C1C"/>
<circle cx="197.262" cy="105.365" r="0.402602" fill="#1C1C1C"/>
<circle cx="197.262" cy="106.774" r="0.402602" fill="#1C1C1C"/>
<circle cx="197.262" cy="108.183" r="0.402602" fill="#1C1C1C"/>
<circle cx="197.262" cy="109.794" r="0.402602" fill="#1C1C1C"/>
<circle cx="197.262" cy="111.202" r="0.402602" fill="#1C1C1C"/>
<circle cx="197.262" cy="112.612" r="0.402602" fill="#1C1C1C"/>
<circle cx="197.262" cy="114.021" r="0.402602" fill="#1C1C1C"/>
<circle cx="198.67" cy="103.956" r="0.402602" fill="#1C1C1C"/>
<circle cx="198.67" cy="105.365" r="0.402602" fill="#1C1C1C"/>
<circle cx="198.67" cy="106.774" r="0.402602" fill="#1C1C1C"/>
<circle cx="198.67" cy="108.183" r="0.402602" fill="#1C1C1C"/>
<circle cx="198.67" cy="109.794" r="0.402602" fill="#1C1C1C"/>
<circle cx="198.67" cy="111.202" r="0.402602" fill="#1C1C1C"/>
<circle cx="198.67" cy="112.612" r="0.402602" fill="#1C1C1C"/>
<circle cx="198.67" cy="114.021" r="0.402602" fill="#1C1C1C"/>
</g>
<path d="M286.079 35.079C292.71 35.079 298.085 29.7222 298.085 23.1144C298.085 16.5065 292.71 11.1497 286.079 11.1497C279.448 11.1497 274.072 16.5065 274.072 23.1144C274.072 29.7222 279.448 35.079 286.079 35.079Z" fill="#616161"/>
<path d="M286.081 32.9106L281.203 23.1146L286.156 13.3185L291.108 23.1146L286.081 32.9106ZM282.029 23.1146L286.081 31.2655L290.133 23.1146L286.081 14.9636L282.029 23.1146Z" fill="white"/>
<path d="M286.082 25.8066L281.43 23.4136L281.73 22.8154L286.082 24.9092L290.435 22.8154L290.735 23.4136L286.082 25.8066Z" fill="white"/>
<path d="M286.457 14.1412H285.707V32.0881H286.457V14.1412Z" fill="white"/>
<path d="M59.7291 103.741C66.3601 103.741 71.7356 98.3842 71.7356 91.7763C71.7356 85.1685 66.3601 79.8117 59.7291 79.8117C53.0981 79.8117 47.7227 85.1685 47.7227 91.7763C47.7227 98.3842 53.0981 103.741 59.7291 103.741Z" fill="#616161"/>
<path d="M58.454 98.133H56.0527V85.4205H58.454C61.9809 85.4205 64.8325 88.2621 64.8325 91.7767C64.8325 95.2914 61.9809 98.133 58.454 98.133ZM56.8782 97.3852H58.5291C61.6057 97.3852 64.1571 94.8427 64.1571 91.7767C64.1571 88.7108 61.6057 86.1683 58.5291 86.1683H56.8782V97.3852Z" fill="white"/>
<path d="M66.483 90.356H54.4766V91.1038H66.483V90.356Z" fill="white"/>
<path d="M66.483 92.375H54.4766V93.1228H66.483V92.375Z" fill="white"/>
<path d="M203.631 125.17C210.262 125.17 215.638 119.813 215.638 113.205C215.638 106.597 210.262 101.24 203.631 101.24C197 101.24 191.625 106.597 191.625 113.205C191.625 119.813 197 125.17 203.631 125.17Z" fill="#616161"/>
<path d="M202.057 117.243H201.307V119.262H202.057V117.243Z" fill="white"/>
<path d="M206.034 117.243H205.283V119.262H206.034V117.243Z" fill="white"/>
<path d="M202.057 107.222H201.307V109.241H202.057V107.222Z" fill="white"/>
<path d="M206.034 107.222H205.283V109.241H206.034V107.222Z" fill="white"/>
<path d="M207.686 117.617H197.33V108.867H207.686C208.961 108.867 210.087 109.914 210.087 111.26C210.087 112.083 209.637 112.831 208.961 113.279C209.637 113.728 210.087 114.401 210.087 115.298C210.012 116.57 208.961 117.617 207.686 117.617ZM198.005 116.869H207.611C208.511 116.869 209.262 116.121 209.262 115.224C209.262 114.326 208.511 113.579 207.611 113.579H198.005V116.869ZM198.005 112.831H207.611C208.511 112.831 209.262 112.083 209.262 111.186C209.262 110.288 208.511 109.54 207.611 109.54H198.005V112.831Z" fill="white"/>
<path d="M26.2843 291.15L25.6844 291.14L26.2843 291.15ZM51.8822 387.256C52.2047 387.332 52.5279 387.133 52.6041 386.81L53.846 381.555C53.9222 381.233 53.7225 380.909 53.4 380.833C53.0776 380.757 52.7544 380.957 52.6781 381.279L51.5742 385.95L46.9029 384.847C46.5804 384.77 46.2572 384.97 46.181 385.292C46.1048 385.615 46.3044 385.938 46.6269 386.014L51.8822 387.256ZM54.4766 202.333C53.9661 202.017 53.966 202.017 53.9657 202.018C53.9655 202.018 53.9651 202.019 53.9646 202.02C53.9637 202.021 53.9624 202.023 53.9606 202.026C53.9571 202.032 53.952 202.04 53.9452 202.051C53.9316 202.073 53.9116 202.106 53.8853 202.149C53.8327 202.236 53.7549 202.364 53.6537 202.533C53.4512 202.872 53.1547 203.373 52.7775 204.026C52.0232 205.331 50.9458 207.244 49.6511 209.678C47.0618 214.545 43.6022 221.497 40.1181 229.841C33.1539 246.521 26.0748 268.806 25.6844 291.14L26.8843 291.161C27.2709 269.044 34.2878 246.92 41.2255 230.303C44.6924 222 48.1351 215.082 50.7105 210.241C51.9981 207.821 53.0686 205.92 53.8166 204.626C54.1905 203.979 54.4838 203.483 54.6833 203.15C54.7831 202.983 54.8593 202.857 54.9105 202.773C54.9361 202.731 54.9554 202.699 54.9682 202.678C54.9746 202.668 54.9794 202.66 54.9825 202.655C54.9841 202.653 54.9853 202.651 54.986 202.65C54.9864 202.649 54.9866 202.649 54.9868 202.648C54.9869 202.648 54.987 202.648 54.4766 202.333ZM25.6844 291.14C25.2249 317.429 31.6827 341.387 38.2477 358.765C41.5309 367.455 44.8432 374.506 47.3359 379.385C48.5823 381.825 49.6239 383.723 50.3548 385.012C50.7203 385.657 51.0081 386.149 51.205 386.481C51.3034 386.647 51.3792 386.773 51.4305 386.858C51.4562 386.9 51.4757 386.932 51.489 386.954C51.4956 386.965 51.5007 386.973 51.5042 386.979C51.5059 386.981 51.5072 386.984 51.5081 386.985C51.5086 386.986 51.509 386.987 51.5092 386.987C51.5095 386.987 51.5097 386.988 52.0202 386.672C52.5306 386.357 52.5306 386.357 52.5305 386.357C52.5303 386.357 52.5301 386.356 52.5298 386.356C52.5291 386.355 52.528 386.353 52.5265 386.35C52.5235 386.345 52.5189 386.338 52.5127 386.328C52.5004 386.308 52.4817 386.277 52.457 386.236C52.4075 386.155 52.3337 386.032 52.2372 385.869C52.0441 385.543 51.7602 385.058 51.3987 384.42C50.6757 383.145 49.6424 381.263 48.4045 378.84C45.9286 373.993 42.6353 366.983 39.3702 358.341C32.8384 341.051 26.4283 317.249 26.8843 291.161L25.6844 291.14Z" fill="#666666"/>
<g clip-path="url(#clip0)">
<path d="M24.8582 314.938C38.2321 314.938 49.0738 304.097 49.0738 290.723C49.0738 277.349 38.2321 266.507 24.8582 266.507C11.4843 266.507 0.642578 277.349 0.642578 290.723C0.642578 304.097 11.4843 314.938 24.8582 314.938Z" fill="url(#paint30_linear)" fill-opacity="0.1"/>
<path d="M24.8578 312.92C37.1172 312.92 47.0554 302.982 47.0554 290.723C47.0554 278.463 37.1172 268.525 24.8578 268.525C12.5984 268.525 2.66016 278.463 2.66016 290.723C2.66016 302.982 12.5984 312.92 24.8578 312.92Z" fill="url(#paint31_linear)"/>
<path d="M24.8578 312.92C37.1172 312.92 47.0554 302.982 47.0554 290.723C47.0554 278.463 37.1172 268.525 24.8578 268.525C12.5984 268.525 2.66016 278.463 2.66016 290.723C2.66016 302.982 12.5984 312.92 24.8578 312.92Z" fill="white" fill-opacity="0.1"/>
<path d="M24.7237 293.173C23.9376 293.173 23.173 293.239 22.4334 293.364L23.5725 291.391C23.957 291.366 24.342 291.353 24.7237 291.353C25.6182 291.353 26.5282 291.427 27.4081 291.568L22.9852 283.907L15.6225 296.66L14.5703 294.837L22.9686 280.291L22.986 280.321L23.0025 280.292L33.1377 297.847H31.0332L28.6645 293.744C27.4302 293.372 26.1108 293.173 24.7237 293.173Z" fill="white" fill-opacity="0.8"/>
<path d="M33.7929 296.691L23.9805 279.695H26.0849L34.8452 294.868L33.7929 296.691Z" fill="white" fill-opacity="0.8"/>
<path d="M24.0539 288.08L20.0248 295.059C21.4664 294.624 23.1635 294.429 24.7646 294.429C24.894 294.429 25.0237 294.431 25.1537 294.434C26.0633 294.456 26.9821 294.552 27.8626 294.716L29.2069 297.044C27.8308 296.544 26.3413 296.25 24.7646 296.25C22.4326 296.25 20.291 296.826 18.4258 297.83L18.4552 297.777L18.4149 297.847H16.3105L23.0017 286.257L24.0539 288.08Z" fill="white" fill-opacity="0.8"/>
<path fill-rule="evenodd" clip-rule="evenodd" d="M24.8581 306.933C33.8104 306.933 41.0677 299.675 41.0677 290.723C41.0677 281.771 33.8104 274.513 24.8581 274.513C15.9057 274.513 8.64844 281.771 8.64844 290.723C8.64844 299.675 15.9057 306.933 24.8581 306.933ZM24.8976 304.956C32.78 304.956 39.17 298.566 39.17 290.683C39.17 282.801 32.78 276.411 24.8976 276.411C17.0152 276.411 10.6252 282.801 10.6252 290.683C10.6252 298.566 17.0152 304.956 24.8976 304.956Z" fill="white" fill-opacity="0.8"/>
<path fill-rule="evenodd" clip-rule="evenodd" d="M24.8588 310.095C35.5579 310.095 44.2313 301.422 44.2313 290.723C44.2313 280.024 35.5579 271.35 24.8588 271.35C14.1597 271.35 5.48633 280.024 5.48633 290.723C5.48633 301.422 14.1597 310.095 24.8588 310.095ZM24.9379 308.277C34.6326 308.277 42.4917 300.418 42.4917 290.723C42.4917 281.028 34.6326 273.169 24.9379 273.169C15.2432 273.169 7.38404 281.028 7.38404 290.723C7.38404 300.418 15.2432 308.277 24.9379 308.277Z" fill="white" fill-opacity="0.8"/>
</g>
<path d="M315.21 295.404L314.61 295.393L315.21 295.404ZM288.746 199.296C288.422 199.225 288.102 199.429 288.031 199.753L286.866 205.026C286.795 205.35 286.999 205.67 287.323 205.741C287.646 205.813 287.967 205.608 288.038 205.285L289.073 200.598L293.76 201.632C294.084 201.704 294.404 201.499 294.475 201.176C294.547 200.852 294.342 200.532 294.019 200.461L288.746 199.296ZM286.078 384.222C286.584 384.545 286.584 384.545 286.584 384.544C286.585 384.544 286.585 384.543 286.585 384.543C286.586 384.541 286.588 384.539 286.59 384.536C286.593 384.53 286.598 384.522 286.605 384.511C286.619 384.489 286.64 384.456 286.667 384.413C286.722 384.326 286.802 384.198 286.907 384.029C287.116 383.69 287.422 383.189 287.812 382.537C288.592 381.231 289.705 379.318 291.043 376.884C293.719 372.017 297.294 365.065 300.894 356.72C308.09 340.04 315.407 317.753 315.81 295.415L314.61 295.393C314.211 317.507 306.961 339.629 299.792 356.245C296.21 364.548 292.652 371.466 289.991 376.306C288.661 378.726 287.555 380.627 286.782 381.921C286.395 382.569 286.092 383.064 285.886 383.397C285.783 383.564 285.704 383.69 285.651 383.774C285.625 383.816 285.605 383.848 285.592 383.869C285.585 383.879 285.58 383.887 285.577 383.892C285.575 383.895 285.574 383.896 285.573 383.898C285.573 383.898 285.573 383.899 285.573 383.899C285.572 383.899 285.572 383.899 286.078 384.222ZM315.81 295.415C316.285 269.123 309.611 245.162 302.827 227.784C299.434 219.093 296.011 212.042 293.435 207.162C292.147 204.722 291.071 202.824 290.316 201.535C289.938 200.891 289.641 200.398 289.437 200.066C289.335 199.9 289.257 199.774 289.204 199.689C289.177 199.647 289.157 199.615 289.144 199.593C289.137 199.582 289.131 199.574 289.128 199.569C289.126 199.566 289.125 199.564 289.124 199.562C289.123 199.561 289.123 199.561 289.123 199.56C289.122 199.56 289.122 199.559 288.616 199.882C288.111 200.205 288.111 200.205 288.111 200.205C288.111 200.206 288.111 200.206 288.112 200.207C288.112 200.208 288.113 200.209 288.115 200.212C288.118 200.217 288.123 200.224 288.129 200.234C288.142 200.255 288.161 200.285 288.187 200.326C288.238 200.408 288.314 200.53 288.414 200.693C288.613 201.019 288.907 201.504 289.28 202.142C290.027 203.417 291.095 205.299 292.374 207.722C294.932 212.569 298.335 219.578 301.709 228.22C308.458 245.509 315.081 269.309 314.61 295.393L315.81 295.415Z" fill="#666666"/>
<path d="M292.839 289.522C292.839 301.179 302.494 310.629 314.405 310.629C326.315 310.629 335.971 301.179 335.971 289.522C335.971 277.865 326.315 268.415 314.405 268.415C302.494 268.415 292.839 277.865 292.839 289.522Z" fill="black"/>
<path d="M310.392 285.192V290.993L305.421 285.192H303.893V293.985H305.715V288.342L310.692 293.985H312.22V290.569H316.576V288.957H312.22V286.805H320.283V293.985H322.112V286.805H325.1V285.192H310.392Z" fill="white"/>
<circle cx="144.855" cy="408.599" r="18.1191" fill="white"/>
<circle cx="144.855" cy="408.599" r="18.1191" fill="url(#paint32_linear)"/>
<path d="M164.422 447.913C161.158 434.219 155.386 429.747 145.379 429.747C145.024 429.747 144.671 429.747 144.33 429.747C134.323 429.747 128.552 434.219 125.287 447.913L119.377 472.735L170.332 472.735L164.422 447.913Z" fill="white"/>
<path d="M164.422 447.913C161.158 434.219 155.386 429.747 145.379 429.747C145.024 429.747 144.671 429.747 144.33 429.747C134.323 429.747 128.552 434.219 125.287 447.913L119.377 472.735L170.332 472.735L164.422 447.913Z" fill="url(#paint33_linear)"/>
<mask id="mask1" style="mask-type:alpha" maskUnits="userSpaceOnUse" x="119" y="451" width="11" height="22">
<path d="M129.267 472.735C129.624 473.185 128.293 468.996 126.863 461.401C124.139 446.924 124.67 451.3 123.586 455.118L119.377 472.735C119.377 472.735 128.91 472.285 129.267 472.735Z" fill="white"/>
<path d="M129.267 472.735C129.624 473.185 128.293 468.996 126.863 461.401C124.139 446.924 124.67 451.3 123.586 455.118L119.377 472.735C119.377 472.735 128.91 472.285 129.267 472.735Z" fill="url(#paint34_linear)"/>
</mask>
<g mask="url(#mask1)">
</g>
<mask id="mask2" style="mask-type:alpha" maskUnits="userSpaceOnUse" x="126" y="397" width="13" height="29">
<path d="M131.837 411.422C132.193 413.05 134.195 422.115 138.238 425.376C136.453 424.356 119.418 415.007 130.94 397.339C130.94 397.339 130.599 405.764 131.837 411.422Z" fill="white"/>
</mask>
<g mask="url(#mask2)">
</g>
<circle cx="197.779" cy="408.599" r="18.1191" fill="white"/>
<circle cx="197.779" cy="408.599" r="18.1191" fill="url(#paint35_linear)"/>
<path d="M217.346 447.913C214.082 434.219 208.31 429.747 198.303 429.747C197.948 429.747 197.595 429.747 197.254 429.747C187.247 429.747 181.475 434.219 178.211 447.913L172.301 472.735L223.256 472.735L217.346 447.913Z" fill="white"/>
<path d="M217.346 447.913C214.082 434.219 208.31 429.747 198.303 429.747C197.948 429.747 197.595 429.747 197.254 429.747C187.247 429.747 181.475 434.219 178.211 447.913L172.301 472.735L223.256 472.735L217.346 447.913Z" fill="url(#paint36_linear)"/>
<mask id="mask3" style="mask-type:alpha" maskUnits="userSpaceOnUse" x="172" y="451" width="11" height="22">
<path d="M182.191 472.735C182.548 473.185 181.216 468.996 179.787 461.401C177.063 446.924 177.594 451.3 176.51 455.118L172.301 472.735C172.301 472.735 181.834 472.285 182.191 472.735Z" fill="white"/>
<path d="M182.191 472.735C182.548 473.185 181.216 468.996 179.787 461.401C177.063 446.924 177.594 451.3 176.51 455.118L172.301 472.735C172.301 472.735 181.834 472.285 182.191 472.735Z" fill="url(#paint37_linear)"/>
</mask>
<g mask="url(#mask3)">
</g>
<mask id="mask4" style="mask-type:alpha" maskUnits="userSpaceOnUse" x="179" y="397" width="13" height="29">
<path d="M184.76 411.422C185.117 413.05 187.119 422.115 191.161 425.376C189.376 424.356 172.342 415.007 183.864 397.339C183.864 397.339 183.523 405.764 184.76 411.422Z" fill="white"/>
</mask>
<g mask="url(#mask4)">
</g>
<ellipse cx="172.902" cy="289.427" rx="99.8321" ry="23.4929" fill="url(#paint38_radial)"/>
<path d="M155.895 299.308C155.554 294.641 154.071 284.072 145.854 274.783C143.322 271.929 140.381 269.438 137.121 267.388" stroke="#D8176C" stroke-width="0.75" stroke-miterlimit="10"/>
<path d="M184.264 299.308C184.76 294.289 186.549 284.087 194.43 274.783C196.946 271.817 199.862 269.19 203.1 266.973" stroke="#D8176C" stroke-width="0.75" stroke-miterlimit="10"/>
<path d="M175.883 299.724C174.883 290.792 175.941 281.756 178.981 273.265C179.897 270.751 180.991 268.302 182.255 265.933" stroke="#D8176C" stroke-width="0.75" stroke-miterlimit="10"/>
<path d="M165.351 299.516C166.23 290.77 165.186 281.943 162.287 273.615C161.382 271.056 160.298 268.558 159.043 266.141" stroke="#D8176C" stroke-width="0.75" stroke-miterlimit="10"/>
<path d="M197.59 299.1C198.185 295.609 200.419 285.37 209.717 277.187C214.044 273.402 219.205 270.619 224.81 269.051" stroke="#D8176C" stroke-width="0.75" stroke-miterlimit="10"/>
<path d="M145.577 298.893C144.729 295.022 142.101 285.668 133.481 277.805C129.449 274.141 124.692 271.305 119.496 269.465" stroke="#D8176C" stroke-width="0.75" stroke-miterlimit="10"/>
<path d="M133.124 297.004C125.292 290.655 116.049 286.142 106.118 283.818C96.1857 281.493 85.8331 281.42 75.8672 283.604" stroke="#D8176C" stroke-width="0.75" stroke-miterlimit="10"/>
<path d="M172.793 308.487C218.105 308.487 254.838 299.877 254.838 289.257C254.838 278.636 218.105 270.027 172.793 270.027C127.481 270.027 90.748 278.636 90.748 289.257C90.748 299.877 127.481 308.487 172.793 308.487Z" stroke="#D8176C" stroke-miterlimit="10"/>
<path d="M133.125 296.963C119.853 295.271 106.366 297.653 94.5684 303.772" stroke="#D8176C" stroke-width="0.75" stroke-miterlimit="10"/>
<path d="M212.863 296.963C219.041 295.811 225.396 295.875 231.547 297.152C237.699 298.429 243.521 300.892 248.666 304.396" stroke="#D8176C" stroke-width="0.75" stroke-miterlimit="10"/>
<path d="M172.902 312.729C228.038 312.729 272.735 302.253 272.735 289.33C272.735 276.407 228.038 265.931 172.902 265.931C117.767 265.931 73.0703 276.407 73.0703 289.33C73.0703 302.253 117.767 312.729 172.902 312.729Z" stroke="#D8176C" stroke-miterlimit="10"/>
<path d="M212.863 297.004C220.695 290.655 229.937 286.142 239.869 283.818C249.801 281.493 260.154 281.42 270.12 283.604" stroke="#D8176C" stroke-width="0.75" stroke-miterlimit="10"/>
<path d="M145.63 298.818C139.343 300.294 133.245 302.443 127.45 305.225C124.794 306.502 122.359 307.837 120.143 309.177" stroke="#D8176C" stroke-width="0.75" stroke-miterlimit="10"/>
<path d="M197.594 299.036C203.881 300.512 209.979 302.661 215.774 305.443C218.43 306.72 220.865 308.055 223.082 309.395" stroke="#D8176C" stroke-width="0.75" stroke-miterlimit="10"/>
<path d="M155.963 299.334C154.866 302.121 154.026 304.998 153.455 307.929C153.157 309.461 152.95 310.921 152.811 312.295" stroke="#D8176C" stroke-width="0.75" stroke-miterlimit="10"/>
<path d="M184.352 299.336C185.45 302.123 186.289 305 186.86 307.931C187.157 309.463 187.365 310.923 187.504 312.297" stroke="#D8176C" stroke-width="0.75" stroke-miterlimit="10"/>
<path d="M175.982 299.656C176.001 301.298 176.014 302.947 176.022 304.603C176.035 307.394 176.035 310.166 176.022 312.919" stroke="#D8176C" stroke-width="0.75" stroke-miterlimit="10"/>
<path d="M165.418 299.547C165.436 301.179 165.448 302.818 165.457 304.463C165.47 307.237 165.47 309.993 165.457 312.729" stroke="#D8176C" stroke-width="0.75" stroke-miterlimit="10"/>
<path d="M172.901 310.664C223.17 310.664 263.921 301.112 263.921 289.33C263.921 277.547 223.17 267.996 172.901 267.996C122.632 267.996 81.8809 277.547 81.8809 289.33C81.8809 301.112 122.632 310.664 172.901 310.664Z" stroke="#D8176C" stroke-miterlimit="10"/>
<path d="M170.725 305.604C209.243 305.604 240.468 298.285 240.468 289.257C240.468 280.229 209.243 272.91 170.725 272.91C132.207 272.91 100.982 280.229 100.982 289.257C100.982 298.285 132.207 305.604 170.725 305.604Z" stroke="#D8176C" stroke-width="0.75" stroke-miterlimit="10"/>
<path d="M172.791 299.86C205.352 299.86 231.747 295.326 231.747 289.733C231.747 284.14 205.352 279.606 172.791 279.606C140.23 279.606 113.834 284.14 113.834 289.733C113.834 295.326 140.23 299.86 172.791 299.86Z" stroke="#D8176C" stroke-miterlimit="10"/>
<path opacity="0.58" d="M221.107 247.418C221.127 247.418 221.147 247.418 221.167 247.418C221.343 247.418 221.519 247.414 221.694 247.412C221.499 247.415 221.304 247.418 221.107 247.418Z" fill="url(#paint39_linear)"/>
<path opacity="0.58" d="M174.404 242.503C151.03 242.503 132.082 260.858 132.082 283.5C132.078 288.152 132.892 292.77 134.491 297.156C145.983 298.683 159.069 299.548 172.955 299.548C188.029 299.548 202.16 298.529 214.332 296.75C216.03 292.531 216.844 288.026 216.728 283.499C216.168 266.002 200.508 242.503 174.404 242.503Z" fill="url(#paint40_linear)"/>
<path fill-rule="evenodd" clip-rule="evenodd" d="M162.377 285.857C161.592 284.219 161.153 282.392 161.153 280.465C161.153 273.42 167.018 267.709 174.253 267.709C178.281 267.709 181.885 269.48 184.288 272.265L185.721 271.094C182.975 267.91 178.857 265.887 174.253 265.887C165.984 265.887 159.281 272.414 159.281 280.465C159.281 282.667 159.783 284.756 160.681 286.627L162.377 285.857Z" fill="white"/>
<path fill-rule="evenodd" clip-rule="evenodd" d="M174.268 289.081C169.364 289.081 165.387 285.217 165.387 280.451C165.387 275.685 169.364 271.821 174.268 271.821C177 271.821 179.442 273.019 181.072 274.904L182.504 273.736C180.532 271.454 177.575 270.004 174.268 270.004C168.331 270.004 163.518 274.681 163.518 280.451C163.518 286.22 168.331 290.897 174.268 290.897V289.081Z" fill="white"/>
<path fill-rule="evenodd" clip-rule="evenodd" d="M177.52 283.043C176.749 283.937 175.592 284.505 174.299 284.505C171.976 284.505 170.093 282.673 170.093 280.413C170.093 278.153 171.976 276.321 174.299 276.321C175.592 276.321 176.749 276.889 177.52 277.782L179.131 276.467C177.974 275.127 176.239 274.274 174.299 274.274C170.815 274.274 167.99 277.023 167.99 280.413C167.99 283.803 170.815 286.551 174.299 286.551C176.077 286.551 177.682 285.835 178.829 284.683L177.52 283.043Z" fill="white"/>
<defs>
<linearGradient id="paint0_linear" x1="140.273" y1="14.524" x2="206.056" y2="5.15858" gradientUnits="userSpaceOnUse">
<stop stop-color="#C2C2C2"/>
<stop offset="1" stop-color="white" stop-opacity="0"/>
<stop offset="1" stop-color="#969696" stop-opacity="0.31"/>
</linearGradient>
<linearGradient id="paint1_linear" x1="156.65" y1="23.0594" x2="156.65" y2="123.669" gradientUnits="userSpaceOnUse">
<stop stop-color="white"/>
<stop offset="1" stop-color="#FAFAFA" stop-opacity="0"/>
</linearGradient>
<linearGradient id="paint2_linear" x1="162.455" y1="104.265" x2="154.702" y2="156.311" gradientUnits="userSpaceOnUse">
<stop stop-color="#ACACAC"/>
<stop offset="1" stop-opacity="0"/>
</linearGradient>
<linearGradient id="paint3_linear" x1="112.84" y1="69.8853" x2="178.629" y2="60.657" gradientUnits="userSpaceOnUse">
<stop stop-color="#C2C2C2"/>
<stop offset="1" stop-color="white" stop-opacity="0"/>
<stop offset="1" stop-color="#969696" stop-opacity="0.31"/>
</linearGradient>
<linearGradient id="paint4_linear" x1="129.38" y1="79.2159" x2="129.38" y2="156.311" gradientUnits="userSpaceOnUse">
<stop offset="0.0491824" stop-color="white"/>
<stop offset="1" stop-color="white" stop-opacity="0"/>
</linearGradient>
<linearGradient id="paint5_linear" x1="194.731" y1="15.1116" x2="194.731" y2="123.663" gradientUnits="userSpaceOnUse">
<stop stop-color="#8B8B8B"/>
<stop offset="1" stop-color="#585858" stop-opacity="0.54"/>
</linearGradient>
<linearGradient id="paint6_linear" x1="144.632" y1="19.5979" x2="144.632" y2="52.1681" gradientUnits="userSpaceOnUse">
<stop offset="0.218" stop-color="#D6D6D6"/>
<stop offset="0.847" stop-color="#212121"/>
</linearGradient>
<linearGradient id="paint7_linear" x1="154.726" y1="23.0675" x2="154.726" y2="55.6378" gradientUnits="userSpaceOnUse">
<stop offset="0.218" stop-color="#D6D6D6"/>
<stop offset="0.847" stop-color="#212121"/>
</linearGradient>
<linearGradient id="paint8_linear" x1="164.822" y1="26.5375" x2="164.822" y2="59.1073" gradientUnits="userSpaceOnUse">
<stop offset="0.218" stop-color="#D6D6D6"/>
<stop offset="0.847" stop-color="#212121"/>
</linearGradient>
<linearGradient id="paint9_linear" x1="118.666" y1="80.7209" x2="118.666" y2="98.5977" gradientUnits="userSpaceOnUse">
<stop stop-color="#F5F5F5"/>
<stop offset="1" stop-opacity="0"/>
</linearGradient>
<linearGradient id="paint10_linear" x1="128.934" y1="84.2505" x2="128.934" y2="102.127" gradientUnits="userSpaceOnUse">
<stop stop-color="#F5F5F5"/>
<stop offset="1" stop-opacity="0"/>
</linearGradient>
<linearGradient id="paint11_linear" x1="139.202" y1="87.7802" x2="139.202" y2="105.657" gradientUnits="userSpaceOnUse">
<stop stop-color="#F5F5F5"/>
<stop offset="1" stop-opacity="0"/>
</linearGradient>
<linearGradient id="paint12_linear" x1="118.666" y1="102.127" x2="118.666" y2="120.004" gradientUnits="userSpaceOnUse">
<stop stop-color="#F5F5F5"/>
<stop offset="1" stop-opacity="0"/>
</linearGradient>
<linearGradient id="paint13_linear" x1="128.935" y1="105.657" x2="128.935" y2="123.534" gradientUnits="userSpaceOnUse">
<stop stop-color="#F5F5F5"/>
<stop offset="1" stop-opacity="0"/>
</linearGradient>
<linearGradient id="paint14_linear" x1="139.204" y1="109.186" x2="139.204" y2="127.063" gradientUnits="userSpaceOnUse">
<stop stop-color="#F5F5F5"/>
<stop offset="1" stop-opacity="0"/>
</linearGradient>
<linearGradient id="paint15_linear" x1="168.882" y1="55.5576" x2="234.811" y2="46.2425" gradientUnits="userSpaceOnUse">
<stop stop-color="#C2C2C2"/>
<stop offset="1" stop-color="white" stop-opacity="0"/>
<stop offset="1" stop-color="#969696" stop-opacity="0.31"/>
</linearGradient>
<linearGradient id="paint16_linear" x1="185.284" y1="67.2704" x2="185.284" y2="164.566" gradientUnits="userSpaceOnUse">
<stop offset="0.0491824" stop-color="white"/>
<stop offset="1" stop-color="white" stop-opacity="0"/>
</linearGradient>
<linearGradient id="paint17_linear" x1="223.273" y1="55.8633" x2="223.273" y2="164.566" gradientUnits="userSpaceOnUse">
<stop stop-color="#BDBCBC"/>
<stop offset="1" stop-color="#585858" stop-opacity="0.54"/>
</linearGradient>
<linearGradient id="paint18_linear" x1="174.891" y1="67.318" x2="174.891" y2="84.3295" gradientUnits="userSpaceOnUse">
<stop stop-color="#F5F5F5"/>
<stop offset="1" stop-opacity="0"/>
</linearGradient>
<linearGradient id="paint19_linear" x1="174.891" y1="88.4764" x2="174.891" y2="107.064" gradientUnits="userSpaceOnUse">
<stop stop-color="#F5F5F5"/>
<stop offset="1" stop-opacity="0"/>
</linearGradient>
<linearGradient id="paint20_linear" x1="171.316" y1="113.015" x2="174.89" y2="131.975" gradientUnits="userSpaceOnUse">
<stop stop-color="#F5F5F5"/>
<stop offset="1" stop-opacity="0"/>
</linearGradient>
<linearGradient id="paint21_linear" x1="171.316" y1="126.174" x2="174.89" y2="145.133" gradientUnits="userSpaceOnUse">
<stop stop-color="#F5F5F5"/>
<stop offset="1" stop-opacity="0"/>
</linearGradient>
<linearGradient id="paint22_linear" x1="185.287" y1="70.8918" x2="185.287" y2="87.9036" gradientUnits="userSpaceOnUse">
<stop stop-color="#F5F5F5"/>
<stop offset="1" stop-opacity="0"/>
</linearGradient>
<linearGradient id="paint23_linear" x1="185.287" y1="92.0504" x2="185.287" y2="110.638" gradientUnits="userSpaceOnUse">
<stop stop-color="#F5F5F5"/>
<stop offset="1" stop-opacity="0"/>
</linearGradient>
<linearGradient id="paint24_linear" x1="181.713" y1="116.589" x2="185.287" y2="135.549" gradientUnits="userSpaceOnUse">
<stop stop-color="#F5F5F5"/>
<stop offset="1" stop-opacity="0"/>
</linearGradient>
<linearGradient id="paint25_linear" x1="181.713" y1="129.748" x2="185.287" y2="148.707" gradientUnits="userSpaceOnUse">
<stop stop-color="#F5F5F5"/>
<stop offset="1" stop-opacity="0"/>
</linearGradient>
<linearGradient id="paint26_linear" x1="195.683" y1="74.4658" x2="195.683" y2="91.4772" gradientUnits="userSpaceOnUse">
<stop stop-color="#F5F5F5"/>
<stop offset="1" stop-opacity="0"/>
</linearGradient>
<linearGradient id="paint27_linear" x1="195.683" y1="95.6246" x2="195.683" y2="114.212" gradientUnits="userSpaceOnUse">
<stop stop-color="#F5F5F5"/>
<stop offset="1" stop-opacity="0"/>
</linearGradient>
<linearGradient id="paint28_linear" x1="192.109" y1="120.163" x2="195.683" y2="139.123" gradientUnits="userSpaceOnUse">
<stop stop-color="#F5F5F5"/>
<stop offset="1" stop-opacity="0"/>
</linearGradient>
<linearGradient id="paint29_linear" x1="192.109" y1="133.322" x2="195.683" y2="152.281" gradientUnits="userSpaceOnUse">
<stop stop-color="#F5F5F5"/>
<stop offset="1" stop-opacity="0"/>
</linearGradient>
<linearGradient id="paint30_linear" x1="77.1481" y1="306.521" x2="40.5714" y2="255.167" gradientUnits="userSpaceOnUse">
<stop stop-color="#645AFF"/>
<stop offset="0.637566" stop-color="#E40C5B"/>
<stop offset="1" stop-color="#FF4C3B"/>
</linearGradient>
<linearGradient id="paint31_linear" x1="55.4104" y1="320.452" x2="2.22938" y2="274.647" gradientUnits="userSpaceOnUse">
<stop stop-color="#645AFF"/>
<stop offset="0.60257" stop-color="#E40C5B"/>
<stop offset="1" stop-color="#FF4C3B"/>
</linearGradient>
<linearGradient id="paint32_linear" x1="126.736" y1="411.745" x2="210.307" y2="408.599" gradientUnits="userSpaceOnUse">
<stop stop-color="#333333"/>
<stop offset="1" stop-color="#F7F7F7" stop-opacity="0"/>
</linearGradient>
<linearGradient id="paint33_linear" x1="119.377" y1="454.973" x2="236.821" y2="449.732" gradientUnits="userSpaceOnUse">
<stop stop-color="#333333"/>
<stop offset="1" stop-color="#F7F7F7" stop-opacity="0"/>
</linearGradient>
<linearGradient id="paint34_linear" x1="119.377" y1="454.973" x2="226.515" y2="454.088" gradientUnits="userSpaceOnUse">
<stop stop-color="#DF3D3D"/>
<stop offset="1" stop-color="#F7F7F7" stop-opacity="0"/>
</linearGradient>
<linearGradient id="paint35_linear" x1="179.66" y1="411.745" x2="263.231" y2="408.599" gradientUnits="userSpaceOnUse">
<stop stop-color="#333333"/>
<stop offset="1" stop-color="#F7F7F7" stop-opacity="0"/>
</linearGradient>
<linearGradient id="paint36_linear" x1="172.301" y1="454.973" x2="289.745" y2="449.732" gradientUnits="userSpaceOnUse">
<stop stop-color="#333333"/>
<stop offset="1" stop-color="#F7F7F7" stop-opacity="0"/>
</linearGradient>
<linearGradient id="paint37_linear" x1="172.301" y1="454.973" x2="279.439" y2="454.088" gradientUnits="userSpaceOnUse">
<stop stop-color="#DF3D3D"/>
<stop offset="1" stop-color="#F7F7F7" stop-opacity="0"/>
</linearGradient>
<radialGradient id="paint38_radial" cx="0" cy="0" r="1" gradientUnits="userSpaceOnUse" gradientTransform="translate(172.902 297.746) rotate(-90) scale(31.8109 135.18)">
<stop stop-color="#D8176C"/>
<stop offset="0.911004" stop-color="#C4C4C4" stop-opacity="0"/>
</radialGradient>
<linearGradient id="paint39_linear" x1="221.107" y1="247.415" x2="221.694" y2="247.415" gradientUnits="userSpaceOnUse">
<stop stop-color="#2762FF"/>
<stop offset="1" stop-color="white"/>
</linearGradient>
<linearGradient id="paint40_linear" x1="132.082" y1="271.025" x2="216.739" y2="271.025" gradientUnits="userSpaceOnUse">
<stop stop-color="#2762FF"/>
<stop offset="1" stop-color="white"/>
</linearGradient>
<clipPath id="clip0">
<rect width="48.4312" height="48.4312" fill="white" transform="translate(0.642578 266.507)"/>
</clipPath>
</defs>
</svg>
