<svg width="129" height="82" viewBox="0 0 129 82" fill="none" xmlns="http://www.w3.org/2000/svg">
<rect x="38.3281" y="40.3251" width="5.64335" height="42.4431" transform="rotate(45.8769 38.3281 40.3251)" fill="url(#paint0_linear)"/>
<rect x="113.271" y="8.70728" width="5.64335" height="42.4431" transform="rotate(45.8769 113.271 8.70728)" fill="url(#paint1_linear)"/>
<rect x="43.2871" y="43.1467" width="5.64335" height="42.4431" transform="rotate(-90 43.2871 43.1467)" fill="url(#paint2_linear)"/>
<circle cx="7.86111" cy="73.9251" r="7.82596" fill="url(#paint3_linear)"/>
<circle cx="42.2556" cy="40.3249" r="7.82596" fill="url(#paint4_linear)"/>
<circle cx="84.199" cy="40.3249" r="7.82596" fill="url(#paint5_linear)"/>
<circle cx="117.201" cy="8.70724" r="7.82596" fill="url(#paint6_linear)"/>
<rect x="32.1289" y="65.4788" width="23.7027" height="16.274" fill="url(#paint7_linear)"/>
<rect x="68.3242" y="53.6833" width="23.7027" height="28.0687" fill="url(#paint8_linear)"/>
<rect x="104.516" y="34.5684" width="23.7027" height="47.184" fill="url(#paint9_linear)"/>
<defs>
<linearGradient id="paint0_linear" x1="41.1498" y1="40.3251" x2="40.9627" y2="92.6625" gradientUnits="userSpaceOnUse">
<stop offset="0.218" stop-color="#D6D6D6"/>
<stop offset="0.847" stop-color="#212121"/>
</linearGradient>
<linearGradient id="paint1_linear" x1="116.093" y1="8.70728" x2="115.906" y2="61.0446" gradientUnits="userSpaceOnUse">
<stop offset="0.218" stop-color="#D6D6D6"/>
<stop offset="0.847" stop-color="#212121"/>
</linearGradient>
<linearGradient id="paint2_linear" x1="53.6591" y1="64.3684" x2="38.8833" y2="64.3684" gradientUnits="userSpaceOnUse">
<stop offset="0.218" stop-color="#D6D6D6"/>
<stop offset="0.847" stop-color="#212121"/>
</linearGradient>
<linearGradient id="paint3_linear" x1="7.86162" y1="61.7538" x2="7.86162" y2="90.8741" gradientUnits="userSpaceOnUse">
<stop offset="0.218" stop-color="#D6D6D6"/>
<stop offset="0.847" stop-color="#212121"/>
</linearGradient>
<linearGradient id="paint4_linear" x1="42.2561" y1="28.1537" x2="42.2561" y2="57.274" gradientUnits="userSpaceOnUse">
<stop offset="0.218" stop-color="#D6D6D6"/>
<stop offset="0.847" stop-color="#212121"/>
</linearGradient>
<linearGradient id="paint5_linear" x1="84.1995" y1="28.1537" x2="84.1995" y2="57.274" gradientUnits="userSpaceOnUse">
<stop offset="0.218" stop-color="#D6D6D6"/>
<stop offset="0.847" stop-color="#212121"/>
</linearGradient>
<linearGradient id="paint6_linear" x1="117.201" y1="-3.46402" x2="117.201" y2="25.6563" gradientUnits="userSpaceOnUse">
<stop offset="0.218" stop-color="#D6D6D6"/>
<stop offset="0.847" stop-color="#212121"/>
</linearGradient>
<linearGradient id="paint7_linear" x1="43.981" y1="60.9608" x2="43.981" y2="91.2384" gradientUnits="userSpaceOnUse">
<stop offset="0.218" stop-color="#D6D6D6"/>
<stop offset="0.847" stop-color="#212121"/>
</linearGradient>
<linearGradient id="paint8_linear" x1="80.1763" y1="45.8909" x2="80.1763" y2="98.1125" gradientUnits="userSpaceOnUse">
<stop offset="0.218" stop-color="#D6D6D6"/>
<stop offset="0.847" stop-color="#212121"/>
</linearGradient>
<linearGradient id="paint9_linear" x1="116.368" y1="21.4691" x2="116.368" y2="109.255" gradientUnits="userSpaceOnUse">
<stop offset="0.218" stop-color="#D6D6D6"/>
<stop offset="0.847" stop-color="#212121"/>
</linearGradient>
</defs>
</svg>
