<svg width="101" height="97" viewBox="0 0 101 97" fill="none" xmlns="http://www.w3.org/2000/svg">
<rect x="0.285156" y="70.3624" width="14.2928" height="30.4562" transform="rotate(-30.269 0.285156 70.3624)" fill="url(#paint0_linear)"/>
<path d="M27.3242 84.2987L17.1289 66.5193L28.9799 60.0888L59.1329 68.4646C63.2715 72.9975 62.0398 76.4956 57.0635 76.4956L40.2133 72.0121C38.7155 72.2485 38.9771 73.7431 39.2952 74.4607L64.1865 81.3355L90.5002 66.5193C98.3706 66.5193 97.1774 71.8136 95.597 74.4607C86.3516 79.9131 67.2683 90.8416 64.8977 90.9364C62.5271 91.0313 41.4682 85.2075 31.2351 82.2837L27.3242 84.2987Z" fill="url(#paint1_linear)"/>
<circle cx="65.5609" cy="40.7618" r="14.5648" fill="url(#paint2_linear)"/>
<rect x="65.5605" y="0.667236" width="1.63051" height="14.8621" fill="url(#paint3_linear)"/>
<rect x="84.6836" y="4.26166" width="1.63051" height="14.8621" transform="rotate(28.5473 84.6836 4.26166)" fill="url(#paint4_linear)"/>
<rect x="99.7598" y="20.3043" width="1.63051" height="14.8621" transform="rotate(66.6408 99.7598 20.3043)" fill="url(#paint5_linear)"/>
<defs>
<linearGradient id="paint0_linear" x1="7.43204" y1="61.9072" x2="7.43204" y2="118.571" gradientUnits="userSpaceOnUse">
<stop offset="0.218" stop-color="#D6D6D6"/>
<stop offset="0.847" stop-color="#212121"/>
</linearGradient>
<linearGradient id="paint1_linear" x1="56.9445" y1="51.5245" x2="56.9445" y2="108.919" gradientUnits="userSpaceOnUse">
<stop offset="0.218" stop-color="#D6D6D6"/>
<stop offset="0.847" stop-color="#212121"/>
</linearGradient>
<linearGradient id="paint2_linear" x1="65.5609" y1="26.197" x2="65.5604" y2="67.1676" gradientUnits="userSpaceOnUse">
<stop offset="0.218" stop-color="#D6D6D6"/>
<stop offset="0.847" stop-color="#212121"/>
</linearGradient>
<linearGradient id="paint3_linear" x1="66.3758" y1="0.667236" x2="66.2964" y2="18.9938" gradientUnits="userSpaceOnUse">
<stop offset="0.218" stop-color="#D6D6D6"/>
<stop offset="0.847" stop-color="#212121"/>
</linearGradient>
<linearGradient id="paint4_linear" x1="85.4989" y1="4.26166" x2="85.4195" y2="22.5883" gradientUnits="userSpaceOnUse">
<stop offset="0.218" stop-color="#D6D6D6"/>
<stop offset="0.847" stop-color="#212121"/>
</linearGradient>
<linearGradient id="paint5_linear" x1="100.575" y1="20.3043" x2="100.496" y2="38.6309" gradientUnits="userSpaceOnUse">
<stop offset="0.218" stop-color="#D6D6D6"/>
<stop offset="0.847" stop-color="#212121"/>
</linearGradient>
</defs>
</svg>
