<svg width="144" height="77" viewBox="0 0 144 77" fill="none" xmlns="http://www.w3.org/2000/svg">
<g clip-path="url(#clip0)">
<path d="M0.169922 53.3413V68.9461C24.7436 76.609 51.0742 76.5646 75.6218 68.8186V53.3413C75.2041 51.9461 74.2891 50.7523 73.0504 49.9863C72.1531 49.5236 71.1581 49.2821 70.1484 49.2821C69.1388 49.2821 68.1438 49.5236 67.2464 49.9863C65.8469 50.7422 64.7174 51.9148 64.0138 53.3413C61.5355 57.8568 50.4402 58.5417 40.7978 59.1453C25.0574 60.132 17.1156 46.6203 4.03925 51.4066C2.68173 51.9061 1.38397 52.5549 0.169922 53.3413V53.3413Z" fill="url(#paint0_linear)"/>
<path d="M37.8978 59.1471C58.7333 59.1471 75.6237 56.1155 75.6237 52.3758C75.6237 48.6361 58.7333 45.6044 37.8978 45.6044C17.0624 45.6044 0.171875 48.6361 0.171875 52.3758C0.171875 56.1155 17.0624 59.1471 37.8978 59.1471Z" fill="url(#paint1_linear)"/>
<path d="M0.169922 31.634V47.2393C24.7436 54.9018 51.0742 54.8569 75.6218 47.1113V31.634C75.2046 30.2385 74.2895 29.045 73.0504 28.2795C72.1532 27.8163 71.1581 27.5748 70.1484 27.5748C69.1387 27.5748 68.1436 27.8163 67.2464 28.2795C65.8469 29.0353 64.7174 30.2075 64.0138 31.634C61.5355 36.1495 50.4402 36.8343 40.7978 37.438C25.0574 38.4246 17.1156 24.913 4.03925 29.6993C2.6812 30.1975 1.38331 30.8465 0.169922 31.634V31.634Z" fill="url(#paint2_linear)"/>
<path d="M37.8959 37.4382C58.7313 37.4382 75.6218 34.4066 75.6218 30.6669C75.6218 26.9272 58.7313 23.8956 37.8959 23.8956C17.0604 23.8956 0.169922 26.9272 0.169922 30.6669C0.169922 34.4066 17.0604 37.4382 37.8959 37.4382Z" fill="url(#paint3_linear)"/>
<path d="M0.169922 10.7787V26.3836C24.7436 34.0464 51.0742 34.002 75.6218 26.2561V10.7787C75.2041 9.38357 74.2891 8.18974 73.0504 7.42379C72.1531 6.96108 71.1581 6.71954 70.1484 6.71954C69.1388 6.71954 68.1438 6.96108 67.2464 7.42379C65.8469 8.17962 64.7174 9.35225 64.0138 10.7787C61.5355 15.2943 50.4402 15.9791 40.7978 16.5827C25.0574 17.5694 17.1156 4.05773 4.03925 8.84408C2.68173 9.34351 1.38397 9.99238 0.169922 10.7787V10.7787Z" fill="url(#paint4_linear)"/>
<path d="M37.8959 16.5844C58.7313 16.5844 75.6218 13.5528 75.6218 9.81307C75.6218 6.07337 58.7313 3.04175 37.8959 3.04175C17.0604 3.04175 0.169922 6.07337 0.169922 9.81307C0.169922 13.5528 17.0604 16.5844 37.8959 16.5844Z" fill="url(#paint5_linear)"/>
</g>
<path d="M87.7822 6.06847L76.0803 16.392C86.5909 39.889 104.044 59.6048 126.092 72.8883L137.698 62.6491C138.468 61.4129 138.758 59.937 138.513 58.5014C138.266 57.5223 137.789 56.6164 137.121 55.8593C136.453 55.1022 135.614 54.5158 134.673 54.149C133.181 53.5996 131.554 53.5283 130.019 53.9444C124.993 55.0732 117.139 47.2061 110.308 40.3747C99.1546 29.2238 104.033 14.3295 91.7928 7.69014C90.5202 7.00255 89.1751 6.45865 87.7822 6.06847V6.06847Z" fill="url(#paint6_linear)"/>
<path d="M87.7822 6.06847L76.0803 16.392C86.5909 39.889 104.044 59.6048 126.092 72.8883L137.698 62.6491C138.468 61.4129 138.758 59.937 138.513 58.5014C138.266 57.5223 137.789 56.6164 137.121 55.8593C136.453 55.1022 135.614 54.5158 134.673 54.149C133.181 53.5996 131.554 53.5283 130.019 53.9444C124.993 55.0732 117.139 47.2061 110.308 40.3747C99.1546 29.2238 104.033 14.3295 91.7928 7.69014C90.5202 7.00255 89.1751 6.45865 87.7822 6.06847V6.06847Z" fill="url(#paint7_linear)" fill-opacity="0.38"/>
<path d="M108.387 38.1991C122.17 53.8234 135.618 64.4838 138.422 62.0098C141.227 59.5357 132.326 44.8641 118.542 29.2398C104.758 13.6155 91.3106 2.95507 88.5062 5.42911C85.7019 7.90315 94.6026 22.5748 108.387 38.1991Z" fill="url(#paint8_linear)"/>
<defs>
<linearGradient id="paint0_linear" x1="0.169922" y1="61.9715" x2="75.6218" y2="61.9715" gradientUnits="userSpaceOnUse">
<stop offset="0.218" stop-color="#D6D6D6"/>
<stop offset="0.847" stop-color="#212121"/>
</linearGradient>
<linearGradient id="paint1_linear" x1="37.8978" y1="45.6044" x2="37.8978" y2="59.1471" gradientUnits="userSpaceOnUse">
<stop offset="0.218" stop-color="#D6D6D6"/>
<stop offset="0.847" stop-color="#212121"/>
</linearGradient>
<linearGradient id="paint2_linear" x1="0.169922" y1="40.2641" x2="75.6218" y2="40.2641" gradientUnits="userSpaceOnUse">
<stop offset="0.218" stop-color="#D6D6D6"/>
<stop offset="0.847" stop-color="#212121"/>
</linearGradient>
<linearGradient id="paint3_linear" x1="37.8959" y1="23.8956" x2="37.8959" y2="37.4382" gradientUnits="userSpaceOnUse">
<stop offset="0.218" stop-color="#D6D6D6"/>
<stop offset="0.847" stop-color="#212121"/>
</linearGradient>
<linearGradient id="paint4_linear" x1="0.169922" y1="19.4089" x2="75.6218" y2="19.4089" gradientUnits="userSpaceOnUse">
<stop offset="0.218" stop-color="#D6D6D6"/>
<stop offset="0.847" stop-color="#212121"/>
</linearGradient>
<linearGradient id="paint5_linear" x1="37.8959" y1="3.04175" x2="37.8959" y2="16.5844" gradientUnits="userSpaceOnUse">
<stop offset="0.218" stop-color="#D6D6D6"/>
<stop offset="0.847" stop-color="#212121"/>
</linearGradient>
<linearGradient id="paint6_linear" x1="81.3105" y1="11.7779" x2="131.227" y2="68.3585" gradientUnits="userSpaceOnUse">
<stop offset="0.218" stop-color="#D6D6D6"/>
<stop offset="0.847" stop-color="#212121"/>
</linearGradient>
<linearGradient id="paint7_linear" x1="83.364" y1="20.7002" x2="82.3841" y2="-8.69638" gradientUnits="userSpaceOnUse">
<stop/>
<stop offset="1" stop-opacity="0"/>
</linearGradient>
<linearGradient id="paint8_linear" x1="126.456" y1="23.1582" x2="107.843" y2="41.4805" gradientUnits="userSpaceOnUse">
<stop offset="0.218" stop-color="#D6D6D6"/>
<stop offset="0.847" stop-color="#212121"/>
</linearGradient>
<clipPath id="clip0">
<rect width="75.4519" height="71.6193" fill="white" transform="translate(0.169922 3.04175)"/>
</clipPath>
</defs>
</svg>
