<svg width="696" height="712" viewBox="0 0 696 712" fill="none" xmlns="http://www.w3.org/2000/svg">
<circle cx="369.593" cy="189.261" r="115.97" transform="rotate(91.4114 369.593 189.261)" fill="white"/>
<circle cx="369.593" cy="189.261" r="115.97" transform="rotate(91.4114 369.593 189.261)" fill="url(#paint0_linear_1616:138041)" fill-opacity="0.85"/>
<circle cx="369.593" cy="189.261" r="115.97" transform="rotate(91.4114 369.593 189.261)" stroke="#FCBA59" stroke-width="0.846376"/>
<circle cx="369.59" cy="189.261" r="115.469" stroke="#ABABAB"/>
<path d="M369.699 97.3594C363.397 167.87 358.15 294.207 365.455 304.166" stroke="#ABABAB"/>
<path d="M370.449 97.4773C385.99 143.332 401.429 283.208 385.107 302.822" stroke="#ABABAB"/>
<path d="M371.707 97.9968C400.835 132.839 443.543 258.832 405.877 298.647" stroke="#ABABAB"/>
<path d="M372.75 98.59C408.702 119.147 474.983 226.1 429.748 287.568" stroke="#ABABAB"/>
<path d="M371.543 97.7428C415.187 111.315 497.431 197.683 451.924 270.068" stroke="#ABABAB"/>
<path d="M375.324 97.2611C415.807 105.072 490.956 156.293 476.991 231.446" stroke="#ABABAB"/>
<path d="M372.35 96.2593C409.598 97.7253 484.266 125.704 484.53 195.14" stroke="#ABABAB"/>
<path d="M374.33 95.2687C398.972 94.1686 453.169 101.134 474.026 140.209" stroke="#ABABAB"/>
<path d="M372.35 95.2686C387.421 91.0883 423.776 87.1787 448.858 105.396" stroke="#ABABAB"/>
<path d="M369.479 97.7333C346.55 133.277 316.453 265.663 343.112 301.447" stroke="#ABABAB"/>
<path d="M368.318 97.418C339.409 115.933 275.847 244.531 322.382 294.556" stroke="#ABABAB"/>
<path d="M368.248 97.547C323.421 117.914 252.395 215.535 297.143 279.034" stroke="#ABABAB"/>
<path d="M366.144 96.9729C323.548 105.963 239.148 180.809 275.452 255.984" stroke="#ABABAB"/>
<path d="M367.069 96.1143C330.692 100.53 256.906 129.513 256.906 212.922" stroke="#ABABAB"/>
<path d="M365.094 95.6632C335.675 94.6945 272.874 108.378 255.963 170.739" stroke="#ABABAB"/>
<path d="M368.081 95.3841C348.919 91.7911 303.384 92.2186 274.846 123.426" stroke="#ABABAB"/>
<path d="M368.851 95.384C356.447 89.7379 323.059 83.1054 295.342 100.968" stroke="#ABABAB"/>
<path d="M431.138 91.677C422.2 87.2944 397.466 81.9955 370.34 94.7281" stroke="#ABABAB"/>
<path d="M413.075 82.3594C406.328 79.9374 388.61 79.2277 372.418 94.0362" stroke="#ABABAB"/>
<path d="M390.408 76.0446C385.853 77.6592 375.496 83.6911 370.514 94.9012" stroke="#ABABAB"/>
<path d="M375.357 74.1418C373.742 75.8141 370.582 82.3073 370.859 94.9013" stroke="#ABABAB"/>
<path d="M358.455 74.5894C361.831 78.2968 368.714 87.6041 369.245 95.174" stroke="#ABABAB"/>
<path d="M339.529 78.0753C343.845 77.4113 356.23 81.2961 369.244 94.8421" stroke="#ABABAB"/>
<path d="M369.411 95.6726C361.166 89.7518 339.696 79.371 319.775 85.2143" stroke="#ABABAB"/>
<ellipse cx="369.993" cy="95.8304" rx="7.38729" ry="2.98028" fill="#ABABAB"/>
<path d="M388.155 97.2614C388.155 100.039 386.258 102.641 383.003 104.576C379.758 106.505 375.243 107.714 370.229 107.714C365.215 107.714 360.7 106.505 357.455 104.576C354.2 102.641 352.303 100.039 352.303 97.2614C352.303 94.4838 354.2 91.8815 357.455 89.9464C360.7 88.0177 365.215 86.8086 370.229 86.8086C375.243 86.8086 379.758 88.0177 383.003 89.9464C386.258 91.8815 388.155 94.4838 388.155 97.2614Z" stroke="#ABABAB"/>
<path d="M405.69 100.746C405.69 106.332 401.811 111.48 395.339 115.26C388.88 119.033 379.923 121.383 370.003 121.383C360.083 121.383 351.127 119.033 344.667 115.26C338.196 111.48 334.316 106.332 334.316 100.746C334.316 95.1609 338.196 90.0122 344.667 86.2322C351.127 82.4594 360.083 80.1097 370.003 80.1097C379.923 80.1097 388.88 82.4594 395.339 86.2322C401.811 90.0122 405.69 95.1609 405.69 100.746Z" stroke="#ABABAB"/>
<path d="M420.983 106.199C420.983 114.571 415.216 122.241 405.698 127.845C396.191 133.442 383.025 136.92 368.455 136.92C353.885 136.92 340.719 133.442 331.213 127.845C321.695 122.241 315.928 114.571 315.928 106.199C315.928 97.8269 321.695 90.1572 331.213 84.5532C340.719 78.956 353.885 75.4779 368.455 75.4779C383.025 75.4779 396.191 78.956 405.698 84.5532C415.216 90.1572 420.983 97.8269 420.983 106.199Z" stroke="#ABABAB"/>
<path d="M438.141 114.245C438.141 124.285 431.241 133.996 418.935 141.224C406.64 148.446 389.02 153.136 367.794 153.136C350.406 153.136 333.999 148.452 321.952 141.227C309.883 133.987 302.303 124.272 302.303 114.245C302.303 104.212 309.891 94.1054 321.962 86.4762C334.01 78.8614 350.414 73.7916 367.794 73.7916C385.176 73.7916 402.802 78.863 416.072 86.4871C422.706 90.2987 428.233 94.7383 432.097 99.4828C435.962 104.228 438.141 109.251 438.141 114.245Z" stroke="#ABABAB"/>
<path d="M458.974 116.34C462.01 122.615 463.107 129.664 463.276 132.404C463.276 162.099 425.114 189.26 366.836 189.26C319.022 189.26 276.535 162.099 276.535 132.404C276.632 128.836 278.377 121.47 281.41 117.165" stroke="#ABABAB"/>
<path d="M470.425 133.82C473.461 140.095 472.334 145.632 472.334 148.894C472.334 178.59 426.752 206.391 368.474 206.391C320.66 206.391 271.035 182.935 268.679 151.605C267.806 140.005 270.46 133.297 271.595 128.41" stroke="#ABABAB"/>
<path d="M478.851 152.086C479.326 158.405 478.526 161.329 478.526 164.591C478.526 194.286 428.981 223.17 370.703 223.17C322.889 223.17 273.229 206.722 262.796 170.141C260.971 163.74 259.756 155.407 260.891 150.52" stroke="#ABABAB"/>
<path d="M483.265 180.179C479.6 211.095 432.521 239.681 370.703 239.681C322.889 239.681 267.985 221.554 257.552 184.972C255.727 178.571 255.111 175.224 256.245 170.337" stroke="#ABABAB"/>
<path d="M484.562 194.95C480.897 225.867 432.507 254.767 370.702 256.014C324.087 256.955 264.788 231.331 254.355 194.75" stroke="#ABABAB"/>
<path d="M483.091 210.043C479.426 240.96 432.52 269.392 370.703 269.392C322.889 269.392 267.31 249.456 256.877 212.874" stroke="#ABABAB"/>
<path d="M475.377 235.341C464.592 255.985 432.52 280.747 370.703 280.747C322.888 280.747 281.966 265.95 265.818 238.572C262.436 232.84 258.672 218.076 258.672 218.805" stroke="#ABABAB"/>
<path d="M461.339 259.296C446.676 273.056 426.304 291.175 369.411 291.938C313.408 292.69 280.574 262.651 280.574 262.651" stroke="#ABABAB"/>
<path d="M443.061 278.271C441.138 279.072 420.37 298.633 369.412 298.633C327.747 298.633 299.268 280.719 299.268 280.719" stroke="#ABABAB"/>
<path d="M300.119 98.1169C282.168 116.828 273.66 164.405 370.21 169.93C451.291 167.305 461.604 125.027 441.658 99.0973" stroke="#ABABAB"/>
<ellipse cx="348" cy="685.857" rx="348" ry="25.5" fill="#D8176C"/>
<ellipse cx="348" cy="685.857" rx="348" ry="25.5" fill="url(#paint1_radial_1616:138041)" fill-opacity="0.3"/>
<line x1="372.473" y1="556.753" x2="372.473" y2="368.183" stroke="#D4D5D8"/>
<path d="M350.973 462.468C350.973 473.79 360.375 482.968 371.973 482.968C383.571 482.968 392.973 473.79 392.973 462.468C392.973 451.146 383.571 441.968 371.973 441.968C360.375 441.968 350.973 451.146 350.973 462.468Z" fill="white"/>
<path d="M368.065 458.263V463.896L363.225 458.263H361.736V466.803H363.51V461.322L368.357 466.803H369.846V463.485H374.087V461.919H369.846V459.829H377.697V466.803H379.478V459.829H382.387V458.263H368.065Z" fill="black"/>
<path fill-rule="evenodd" clip-rule="evenodd" d="M344.935 668.459C342.914 664.268 341.786 659.592 341.786 654.661C341.786 636.634 356.87 622.02 375.477 622.02C385.837 622.02 395.105 626.551 401.286 633.679L404.973 630.682C397.91 622.535 387.317 617.357 375.477 617.357C354.211 617.357 336.973 634.058 336.973 654.661C336.973 660.296 338.263 665.64 340.572 670.43L344.935 668.459Z" fill="white"/>
<path fill-rule="evenodd" clip-rule="evenodd" d="M375.517 676.708C362.902 676.708 352.676 666.821 352.676 654.625C352.676 642.429 362.902 632.542 375.517 632.542C382.541 632.542 388.823 635.609 393.013 640.431L396.698 637.442C391.626 631.604 384.02 627.893 375.517 627.893C360.246 627.893 347.867 639.862 347.867 654.625C347.867 669.389 360.246 681.357 375.517 681.357V676.708Z" fill="white"/>
<path fill-rule="evenodd" clip-rule="evenodd" d="M383.881 661.258C381.897 663.545 378.922 664.999 375.596 664.999C369.622 664.999 364.779 660.311 364.779 654.527C364.779 648.744 369.622 644.056 375.596 644.056C378.922 644.056 381.897 645.51 383.881 647.797L388.024 644.432C385.048 641.001 380.585 638.82 375.596 638.82C366.635 638.82 359.371 645.853 359.371 654.527C359.371 663.202 366.635 670.235 375.596 670.235C380.168 670.235 384.297 668.402 387.246 665.456L383.881 661.258Z" fill="white"/>
<path d="M24.3945 320.123C24.3945 327.096 29.2571 331.634 39.6934 333.489C39.3191 326.468 45.4719 321.378 51.3105 321.558C58.9753 321.558 64.7001 328.182 62.7205 335.945L125.363 336.332C124.965 335.2 124.773 334.068 124.773 332.676C124.773 326.806 129.932 321.738 136.193 321.738C142.455 321.738 147.472 326.59 147.62 332.634C147.62 333.794 147.504 334.796 147.169 335.885H163.529C172.302 335.885 171.404 317.371 132.715 315.244C98.6226 297.851 60.1098 298.675 24.3945 307.951L24.3945 320.123Z" fill="white"/>
<path d="M24.3945 320.123C24.3945 327.096 29.2571 331.634 39.6934 333.489C39.3191 326.468 45.4719 321.378 51.3105 321.558C58.9753 321.558 64.7001 328.182 62.7205 335.945L125.363 336.332C124.965 335.2 124.773 334.068 124.773 332.676C124.773 326.806 129.932 321.738 136.193 321.738C142.455 321.738 147.472 326.59 147.62 332.634C147.62 333.794 147.504 334.796 147.169 335.885H163.529C172.302 335.885 171.404 317.371 132.715 315.244C98.6226 297.851 60.1098 298.675 24.3945 307.951L24.3945 320.123Z" fill="url(#paint2_linear_1616:138041)" fill-opacity="0.85"/>
<path d="M71.9901 308.174C84.6832 306.437 113.456 312.829 122.967 320.302L71.6732 318.768C66.5644 318.615 65.3939 315.857 65.2715 314.242C65.1491 312.628 65.7127 309.032 71.9901 308.174Z" fill="#252525"/>
<path d="M71.9901 308.174C84.6832 306.437 113.456 312.829 122.967 320.302L71.6732 318.768C66.5644 318.615 65.3939 315.857 65.2715 314.242C65.1491 312.628 65.7127 309.032 71.9901 308.174Z" fill="url(#paint3_linear_1616:138041)" fill-opacity="0.41"/>
<path fill-rule="evenodd" clip-rule="evenodd" d="M136.192 321.249C142.689 321.249 148.103 326.393 148.103 332.89C148.103 339.116 142.689 344.259 136.192 344.259C129.695 344.259 124.281 339.116 124.281 332.89C124.281 326.393 129.695 321.249 136.192 321.249ZM136.192 326.122C139.982 326.122 143.231 329.1 143.231 332.89C143.231 336.409 139.982 339.386 136.192 339.386C132.402 339.386 129.154 336.409 129.154 332.89C129.154 329.1 132.402 326.122 136.192 326.122Z" fill="white"/>
<path fill-rule="evenodd" clip-rule="evenodd" d="M136.192 321.249C142.689 321.249 148.103 326.393 148.103 332.89C148.103 339.116 142.689 344.259 136.192 344.259C129.695 344.259 124.281 339.116 124.281 332.89C124.281 326.393 129.695 321.249 136.192 321.249ZM136.192 326.122C139.982 326.122 143.231 329.1 143.231 332.89C143.231 336.409 139.982 339.386 136.192 339.386C132.402 339.386 129.154 336.409 129.154 332.89C129.154 329.1 132.402 326.122 136.192 326.122Z" fill="url(#paint4_linear_1616:138041)" fill-opacity="0.85"/>
<path fill-rule="evenodd" clip-rule="evenodd" d="M51.291 321.073C58.1624 321.073 63.6595 326.295 63.6595 332.892C63.6595 339.214 58.1624 344.436 51.291 344.436C44.6944 344.436 39.1973 339.214 39.1973 332.892C39.1973 326.295 44.6944 321.073 51.291 321.073ZM51.291 326.02C55.4138 326.02 58.4372 329.044 58.4372 332.892C58.4372 336.465 55.4138 339.488 51.291 339.488C47.443 339.488 44.4195 336.465 44.4195 332.892C44.4195 329.044 47.443 326.02 51.291 326.02Z" fill="white"/>
<path fill-rule="evenodd" clip-rule="evenodd" d="M51.291 321.073C58.1624 321.073 63.6595 326.295 63.6595 332.892C63.6595 339.214 58.1624 344.436 51.291 344.436C44.6944 344.436 39.1973 339.214 39.1973 332.892C39.1973 326.295 44.6944 321.073 51.291 321.073ZM51.291 326.02C55.4138 326.02 58.4372 329.044 58.4372 332.892C58.4372 336.465 55.4138 339.488 51.291 339.488C47.443 339.488 44.4195 336.465 44.4195 332.892C44.4195 329.044 47.443 326.02 51.291 326.02Z" fill="url(#paint5_linear_1616:138041)" fill-opacity="0.85"/>
<path d="M58.4655 332.885C58.4655 336.644 55.1224 339.479 51.3639 339.479C47.6054 339.479 44.4121 336.637 44.4121 332.879C44.4121 328.749 47.6702 325.949 51.4287 325.949C55.1873 325.949 58.4655 328.985 58.4655 332.885Z" fill="#252525"/>
<path d="M143.219 332.885C143.219 336.644 139.876 339.479 136.118 339.479C132.359 339.479 129.166 336.637 129.166 332.879C129.166 328.749 133.143 325.795 136.32 326.105C140.078 326.105 143.219 328.985 143.219 332.885Z" fill="#252525"/>
<path d="M566.047 331.176L611.808 307.489L616.928 325.137L571.936 348.441L566.047 331.176Z" fill="#B2B2B2"/>
<path d="M566.047 331.176L611.808 307.489L616.928 325.137L571.936 348.441L566.047 331.176Z" fill="url(#paint6_linear_1616:138041)" fill-opacity="0.79"/>
<path d="M550.26 325.151L596.115 301.449L611.872 307.536L566.215 331.138L550.26 325.151Z" fill="#898989"/>
<path d="M550.26 325.151L596.115 301.449L611.872 307.536L566.215 331.138L550.26 325.151Z" fill="url(#paint7_linear_1616:138041)" fill-opacity="0.8"/>
<path d="M541.324 337.395L550.343 325.17L566.326 330.892L572.021 348.561L541.324 337.395Z" fill="#B2B2B2"/>
<path d="M541.324 337.395L550.343 325.17L566.326 330.892L572.021 348.561L541.324 337.395Z" fill="url(#paint8_linear_1616:138041)" fill-opacity="0.8"/>
<path d="M596.744 342.274L642.506 318.588L647.626 336.236L602.633 359.539L596.744 342.274Z" fill="#B2B2B2"/>
<path d="M596.744 342.274L642.506 318.588L647.626 336.236L602.633 359.539L596.744 342.274Z" fill="url(#paint9_linear_1616:138041)" fill-opacity="0.79"/>
<path d="M580.957 336.25L626.812 312.548L642.569 318.635L596.913 342.237L580.957 336.25Z" fill="#898989"/>
<path d="M580.957 336.25L626.812 312.548L642.569 318.635L596.913 342.237L580.957 336.25Z" fill="url(#paint10_linear_1616:138041)" fill-opacity="0.8"/>
<path d="M572.021 348.494L581.041 336.268L597.023 341.991L602.718 359.66L572.021 348.494Z" fill="#B2B2B2"/>
<path d="M572.021 348.494L581.041 336.268L597.023 341.991L602.718 359.66L572.021 348.494Z" fill="url(#paint11_linear_1616:138041)" fill-opacity="0.8"/>
<path d="M582.941 321.678L628.703 297.992L633.823 315.64L588.83 338.943L582.941 321.678Z" fill="#B2B2B2"/>
<path d="M582.941 321.678L628.703 297.992L633.823 315.64L588.83 338.943L582.941 321.678Z" fill="url(#paint12_linear_1616:138041)" fill-opacity="0.79"/>
<path d="M567.154 315.653L613.009 291.952L628.766 298.038L583.11 321.641L567.154 315.653Z" fill="#898989"/>
<path d="M567.154 315.653L613.009 291.952L628.766 298.038L583.11 321.641L567.154 315.653Z" fill="url(#paint13_linear_1616:138041)" fill-opacity="0.8"/>
<path d="M558.219 327.898L567.238 315.672L583.221 321.395L588.915 339.064L558.219 327.898Z" fill="#B2B2B2"/>
<path d="M558.219 327.898L567.238 315.672L583.221 321.395L588.915 339.064L558.219 327.898Z" fill="url(#paint14_linear_1616:138041)" fill-opacity="0.8"/>
<path d="M611.237 78.0045V43.5764L584.093 15.4227L561.582 32.474V66.5415L611.237 78.0045Z" fill="#B2B2B2"/>
<path d="M611.237 78.0045V43.5764L584.093 15.4227L561.582 32.474V66.5415L611.237 78.0045Z" fill="url(#paint15_linear_1616:138041)" fill-opacity="0.8"/>
<path d="M647.62 57.7869V25.871L611.238 43.6134V78.0045L647.62 57.7869Z" fill="#B2B2B2"/>
<path d="M647.62 57.7869V25.871L611.238 43.6134V78.0045L647.62 57.7869Z" fill="url(#paint16_linear_1616:138041)" fill-opacity="0.8"/>
<path d="M611.242 43.6188L584.086 15.4224L621.159 0.993042L647.625 25.8806L611.242 43.6188Z" fill="#B2B2B2"/>
<path d="M611.242 43.6188L584.086 15.4224L621.159 0.993042L647.625 25.8806L611.242 43.6188Z" fill="url(#paint17_linear_1616:138041)" fill-opacity="0.8"/>
<path d="M586.094 56.5247C586.315 54.6707 589.228 53.9146 591.051 54.0707C592.874 54.2267 596.123 55.2748 596.123 58.707C596.123 62.1392 596.123 74.5552 596.123 74.5552L586.094 72.1747C586.094 72.1747 585.873 58.3788 586.094 56.5247Z" fill="#252525"/>
<path d="M586.094 56.5247C586.315 54.6707 589.228 53.9146 591.051 54.0707C592.874 54.2267 596.123 55.2748 596.123 58.707C596.123 62.1392 596.123 74.5552 596.123 74.5552L586.094 72.1747C586.094 72.1747 585.873 58.3788 586.094 56.5247Z" fill="url(#paint18_linear_1616:138041)" fill-opacity="0.81"/>
<path d="M569.805 44.9497L578.254 46.8817V61.1263L569.805 59.2057L569.805 44.9497Z" fill="#252525"/>
<path d="M569.805 44.9497L578.254 46.8817V61.1263L569.805 59.2057L569.805 44.9497Z" fill="url(#paint19_linear_1616:138041)" fill-opacity="0.41"/>
<path d="M621.953 6.69373L625.469 9.4089L625.469 23.8199L621.953 20.1862L621.953 6.69373Z" fill="#898989"/>
<path d="M621.953 6.69373L625.469 9.4089L625.469 23.8199L621.953 20.1862L621.953 6.69373Z" fill="url(#paint20_linear_1616:138041)"/>
<path d="M625.471 9.40892L631.079 6.599V21.2031L625.471 23.9253L625.471 9.40892Z" fill="#898989"/>
<path d="M625.471 9.40892L631.079 6.599V21.2031L625.471 23.9253L625.471 9.40892Z" fill="url(#paint21_linear_1616:138041)" fill-opacity="0.9"/>
<path d="M621.902 6.59896L627.799 3.9076L631.127 6.7213L625.482 9.41846L621.902 6.59896Z" fill="#BEBEBE"/>
<path d="M621.902 6.59896L627.799 3.9076L631.127 6.7213L625.482 9.41846L621.902 6.59896Z" fill="url(#paint22_linear_1616:138041)" fill-opacity="0.6"/>
<path d="M120.815 10.595H80.5889C86.8024 22.1356 83.795 33.5867 80.588 40.0014C74.6383 51.9024 77.8148 66.1713 80.5889 73.2917H120.815C118.319 66.3562 114.279 50.8953 120.815 40.0014C127.682 28.5584 123.312 16.2358 120.815 10.595Z" fill="#898989"/>
<path d="M120.815 10.595H80.5889C86.8024 22.1356 83.795 33.5867 80.588 40.0014C74.6383 51.9024 77.8148 66.1713 80.5889 73.2917H120.815C118.319 66.3562 114.279 50.8953 120.815 40.0014C127.682 28.5584 123.312 16.2358 120.815 10.595Z" fill="url(#paint23_linear_1616:138041)" fill-opacity="0.8"/>
<path d="M126.366 7.09692H86.1397C92.3532 18.6376 89.3458 30.0887 86.1388 36.5033C80.1891 48.4044 83.3656 62.6732 86.1397 69.7937H126.366C123.869 62.8582 119.83 47.3973 126.366 36.5033C133.232 25.0604 128.863 12.7378 126.366 7.09692Z" fill="#ABABAB"/>
<path d="M126.366 7.09692H86.1397C92.3532 18.6376 89.3458 30.0887 86.1388 36.5033C80.1891 48.4044 83.3656 62.6732 86.1397 69.7937H126.366C123.869 62.8582 119.83 47.3973 126.366 36.5033C133.232 25.0604 128.863 12.7378 126.366 7.09692Z" fill="url(#paint24_linear_1616:138041)" fill-opacity="0.7"/>
<path d="M132.507 2.06189H92.2803C98.4938 13.6026 95.4864 25.0536 92.2795 31.4683C86.3297 43.3694 89.5062 57.6382 92.2803 64.7586H132.507C130.01 57.8232 125.97 42.3623 132.507 31.4683C139.373 20.0253 135.004 7.70274 132.507 2.06189Z" fill="#DFDCDC"/>
<path d="M132.507 2.06189H92.2803C98.4938 13.6026 95.4864 25.0536 92.2795 31.4683C86.3297 43.3694 89.5062 57.6382 92.2803 64.7586H132.507C130.01 57.8232 125.97 42.3623 132.507 31.4683C139.373 20.0253 135.004 7.70274 132.507 2.06189Z" fill="url(#paint25_linear_1616:138041)" fill-opacity="0.7"/>
<defs>
<linearGradient id="paint0_linear_1616:138041" x1="338.483" y1="-33.5966" x2="340.239" y2="308.388" gradientUnits="userSpaceOnUse">
<stop offset="0.0671355" stop-opacity="0.54"/>
<stop offset="0.765625" stop-color="#030303"/>
</linearGradient>
<radialGradient id="paint1_radial_1616:138041" cx="0" cy="0" r="1" gradientUnits="userSpaceOnUse" gradientTransform="translate(348 685.857) rotate(89.9999) scale(25.5 348)">
<stop/>
<stop offset="1" stop-opacity="0"/>
</radialGradient>
<linearGradient id="paint2_linear_1616:138041" x1="77.5629" y1="285.371" x2="73.9194" y2="340.649" gradientUnits="userSpaceOnUse">
<stop offset="0.0671355" stop-color="#E9E9E9" stop-opacity="0.54"/>
<stop offset="0.765625" stop-color="#181818"/>
</linearGradient>
<linearGradient id="paint3_linear_1616:138041" x1="94.3715" y1="308.387" x2="94.041" y2="319.437" gradientUnits="userSpaceOnUse">
<stop stop-color="#F5F5F5"/>
<stop offset="1" stop-opacity="0"/>
</linearGradient>
<linearGradient id="paint4_linear_1616:138041" x1="132.997" y1="310.645" x2="133.165" y2="344.572" gradientUnits="userSpaceOnUse">
<stop offset="0.0671355" stop-color="#6A6A6A" stop-opacity="0.54"/>
<stop offset="0.765625" stop-color="#030303"/>
</linearGradient>
<linearGradient id="paint5_linear_1616:138041" x1="48.1473" y1="310.307" x2="48.3162" y2="344.754" gradientUnits="userSpaceOnUse">
<stop offset="0.0671355" stop-color="#6A6A6A" stop-opacity="0.54"/>
<stop offset="0.765625" stop-color="#030303"/>
</linearGradient>
<linearGradient id="paint6_linear_1616:138041" x1="576.473" y1="353.496" x2="619.959" y2="310.194" gradientUnits="userSpaceOnUse">
<stop offset="0.0080634"/>
<stop offset="1" stop-color="white" stop-opacity="0"/>
</linearGradient>
<linearGradient id="paint7_linear_1616:138041" x1="605.259" y1="295.415" x2="552.787" y2="323.082" gradientUnits="userSpaceOnUse">
<stop offset="0.0080634"/>
<stop offset="1" stop-color="white" stop-opacity="0"/>
</linearGradient>
<linearGradient id="paint8_linear_1616:138041" x1="582.045" y1="328.489" x2="541.324" y2="338.347" gradientUnits="userSpaceOnUse">
<stop/>
<stop offset="1" stop-color="white" stop-opacity="0"/>
</linearGradient>
<linearGradient id="paint9_linear_1616:138041" x1="650.268" y1="339.064" x2="602.832" y2="352.433" gradientUnits="userSpaceOnUse">
<stop offset="0.0080634"/>
<stop offset="1" stop-color="white" stop-opacity="0"/>
</linearGradient>
<linearGradient id="paint10_linear_1616:138041" x1="599.238" y1="320.175" x2="606.796" y2="349.935" gradientUnits="userSpaceOnUse">
<stop/>
<stop offset="1" stop-color="white" stop-opacity="0"/>
</linearGradient>
<linearGradient id="paint11_linear_1616:138041" x1="612.742" y1="339.587" x2="572.021" y2="349.446" gradientUnits="userSpaceOnUse">
<stop/>
<stop offset="1" stop-color="white" stop-opacity="0"/>
</linearGradient>
<linearGradient id="paint12_linear_1616:138041" x1="636.465" y1="318.467" x2="589.029" y2="331.837" gradientUnits="userSpaceOnUse">
<stop offset="0.0080634"/>
<stop offset="1" stop-color="white" stop-opacity="0"/>
</linearGradient>
<linearGradient id="paint13_linear_1616:138041" x1="622.153" y1="285.918" x2="569.681" y2="313.585" gradientUnits="userSpaceOnUse">
<stop offset="0.0080634"/>
<stop offset="1" stop-color="white" stop-opacity="0"/>
</linearGradient>
<linearGradient id="paint14_linear_1616:138041" x1="598.939" y1="318.991" x2="558.219" y2="328.85" gradientUnits="userSpaceOnUse">
<stop/>
<stop offset="1" stop-color="white" stop-opacity="0"/>
</linearGradient>
<linearGradient id="paint15_linear_1616:138041" x1="614.491" y1="52.7766" x2="523.654" y2="39.842" gradientUnits="userSpaceOnUse">
<stop offset="0.0080634"/>
<stop offset="1" stop-color="white" stop-opacity="0"/>
</linearGradient>
<linearGradient id="paint16_linear_1616:138041" x1="647.619" y1="74.2826" x2="638.525" y2="-79.211" gradientUnits="userSpaceOnUse">
<stop/>
<stop offset="0.844207" stop-color="white" stop-opacity="0"/>
</linearGradient>
<linearGradient id="paint17_linear_1616:138041" x1="624.697" y1="43.6248" x2="604.631" y2="0.99304" gradientUnits="userSpaceOnUse">
<stop offset="0.0080634"/>
<stop offset="1" stop-color="white" stop-opacity="0"/>
</linearGradient>
<linearGradient id="paint18_linear_1616:138041" x1="591.06" y1="28.3599" x2="591.06" y2="89.0711" gradientUnits="userSpaceOnUse">
<stop stop-color="#F5F5F5"/>
<stop offset="1" stop-opacity="0"/>
</linearGradient>
<linearGradient id="paint19_linear_1616:138041" x1="574.029" y1="44.9497" x2="574.029" y2="61.1263" gradientUnits="userSpaceOnUse">
<stop stop-color="#F5F5F5"/>
<stop offset="1" stop-opacity="0"/>
</linearGradient>
<linearGradient id="paint20_linear_1616:138041" x1="628.762" y1="8.40968" x2="618.131" y2="7.33462" gradientUnits="userSpaceOnUse">
<stop offset="0.0080634"/>
<stop offset="1" stop-color="white" stop-opacity="0"/>
</linearGradient>
<linearGradient id="paint21_linear_1616:138041" x1="631.079" y1="26.0023" x2="631.079" y2="6.599" gradientUnits="userSpaceOnUse">
<stop/>
<stop offset="1" stop-color="white" stop-opacity="0"/>
</linearGradient>
<linearGradient id="paint22_linear_1616:138041" x1="649.473" y1="30.9386" x2="626.514" y2="9.41847" gradientUnits="userSpaceOnUse">
<stop offset="0.0080634"/>
<stop offset="1" stop-color="white" stop-opacity="0"/>
</linearGradient>
<linearGradient id="paint23_linear_1616:138041" x1="100.858" y1="10.595" x2="100.858" y2="73.2917" gradientUnits="userSpaceOnUse">
<stop offset="0.0080634"/>
<stop offset="1" stop-color="white" stop-opacity="0"/>
</linearGradient>
<linearGradient id="paint24_linear_1616:138041" x1="106.409" y1="7.09692" x2="106.409" y2="69.7937" gradientUnits="userSpaceOnUse">
<stop offset="0.0080634"/>
<stop offset="1" stop-color="white" stop-opacity="0"/>
</linearGradient>
<linearGradient id="paint25_linear_1616:138041" x1="112.549" y1="2.06189" x2="112.549" y2="64.7586" gradientUnits="userSpaceOnUse">
<stop offset="0.0080634"/>
<stop offset="1" stop-color="white" stop-opacity="0"/>
</linearGradient>
</defs>
</svg>
