<svg width="697" height="716" viewBox="0 0 697 716" fill="none" xmlns="http://www.w3.org/2000/svg">
<circle cx="370.384" cy="193.261" r="115.97" transform="rotate(91.4114 370.384 193.261)" fill="white"/>
<circle cx="370.384" cy="193.261" r="115.97" transform="rotate(91.4114 370.384 193.261)" fill="url(#paint0_linear)" fill-opacity="0.85"/>
<circle cx="370.384" cy="193.261" r="115.97" transform="rotate(91.4114 370.384 193.261)" stroke="#FCBA59" stroke-width="0.846376"/>
<circle cx="370.381" cy="193.261" r="115.469" stroke="#ABABAB"/>
<path d="M370.491 101.359C364.188 171.87 358.941 298.207 366.246 308.166" stroke="#ABABAB"/>
<path d="M371.24 101.477C386.781 147.332 402.22 287.208 385.898 306.822" stroke="#ABABAB"/>
<path d="M372.498 101.997C401.626 136.839 444.334 262.832 406.668 302.647" stroke="#ABABAB"/>
<path d="M373.541 102.59C409.493 123.147 475.774 230.1 430.539 291.568" stroke="#ABABAB"/>
<path d="M372.334 101.743C415.978 115.315 498.222 201.683 452.715 274.068" stroke="#ABABAB"/>
<path d="M376.115 101.261C416.598 109.072 491.747 160.293 477.782 235.446" stroke="#ABABAB"/>
<path d="M373.141 100.259C410.389 101.725 485.057 129.704 485.321 199.14" stroke="#ABABAB"/>
<path d="M375.121 99.2687C399.763 98.1686 453.96 105.134 474.817 144.209" stroke="#ABABAB"/>
<path d="M373.141 99.2686C388.212 95.0883 424.567 91.1787 449.649 109.396" stroke="#ABABAB"/>
<path d="M370.27 101.733C347.341 137.277 317.244 269.663 343.904 305.447" stroke="#ABABAB"/>
<path d="M369.109 101.418C340.2 119.933 276.638 248.531 323.174 298.556" stroke="#ABABAB"/>
<path d="M369.039 101.547C324.212 121.914 253.186 219.535 297.934 283.034" stroke="#ABABAB"/>
<path d="M366.935 100.973C324.339 109.963 239.94 184.809 276.243 259.984" stroke="#ABABAB"/>
<path d="M367.86 100.114C331.483 104.53 257.697 133.513 257.697 216.922" stroke="#ABABAB"/>
<path d="M365.885 99.6632C336.466 98.6945 273.665 112.378 256.754 174.739" stroke="#ABABAB"/>
<path d="M368.873 99.3841C349.71 95.7911 304.175 96.2186 275.637 127.426" stroke="#ABABAB"/>
<path d="M369.642 99.384C357.238 93.7379 323.85 87.1054 296.133 104.968" stroke="#ABABAB"/>
<path d="M431.929 95.677C422.991 91.2944 398.257 85.9955 371.131 98.7281" stroke="#ABABAB"/>
<path d="M413.866 86.3594C407.119 83.9374 389.401 83.2277 373.209 98.0362" stroke="#ABABAB"/>
<path d="M391.199 80.0446C386.644 81.6592 376.287 87.6911 371.305 98.9012" stroke="#ABABAB"/>
<path d="M376.148 78.1418C374.533 79.8141 371.373 86.3073 371.65 98.9013" stroke="#ABABAB"/>
<path d="M359.246 78.5894C362.622 82.2968 369.505 91.6041 370.036 99.174" stroke="#ABABAB"/>
<path d="M340.32 82.0753C344.636 81.4113 357.021 85.2961 370.035 98.8421" stroke="#ABABAB"/>
<path d="M370.202 99.6726C361.957 93.7518 340.487 83.371 320.566 89.2143" stroke="#ABABAB"/>
<ellipse cx="370.784" cy="99.8304" rx="7.38729" ry="2.98028" fill="#ABABAB"/>
<path d="M388.946 101.261C388.946 104.039 387.049 106.641 383.794 108.576C380.549 110.505 376.034 111.714 371.02 111.714C366.006 111.714 361.491 110.505 358.246 108.576C354.991 106.641 353.094 104.039 353.094 101.261C353.094 98.4838 354.991 95.8815 358.246 93.9464C361.491 92.0177 366.006 90.8086 371.02 90.8086C376.034 90.8086 380.549 92.0177 383.794 93.9464C387.049 95.8815 388.946 98.4838 388.946 101.261Z" stroke="#ABABAB"/>
<path d="M406.481 104.746C406.481 110.332 402.602 115.48 396.13 119.26C389.671 123.033 380.714 125.383 370.794 125.383C360.874 125.383 351.918 123.033 345.459 119.26C338.987 115.48 335.107 110.332 335.107 104.746C335.107 99.1609 338.987 94.0122 345.459 90.2322C351.918 86.4594 360.874 84.1097 370.794 84.1097C380.714 84.1097 389.671 86.4594 396.13 90.2322C402.602 94.0122 406.481 99.1609 406.481 104.746Z" stroke="#ABABAB"/>
<path d="M421.774 110.199C421.774 118.571 416.007 126.241 406.489 131.845C396.982 137.442 383.816 140.92 369.246 140.92C354.677 140.92 341.51 137.442 332.004 131.845C322.486 126.241 316.719 118.571 316.719 110.199C316.719 101.827 322.486 94.1572 332.004 88.5532C341.51 82.956 354.677 79.4779 369.246 79.4779C383.816 79.4779 396.982 82.956 406.489 88.5532C416.007 94.1572 421.774 101.827 421.774 110.199Z" stroke="#ABABAB"/>
<path d="M438.932 118.245C438.932 128.285 432.032 137.996 419.726 145.224C407.431 152.446 389.811 157.136 368.585 157.136C351.197 157.136 334.79 152.452 322.743 145.227C310.674 137.987 303.094 128.272 303.094 118.245C303.094 108.212 310.682 98.1054 322.753 90.4762C334.801 82.8614 351.205 77.7916 368.585 77.7916C385.967 77.7916 403.593 82.863 416.863 90.4871C423.497 94.2987 429.024 98.7383 432.888 103.483C436.753 108.228 438.932 113.251 438.932 118.245Z" stroke="#ABABAB"/>
<path d="M459.765 120.34C462.801 126.615 463.898 133.664 464.067 136.404C464.067 166.099 425.905 193.26 367.627 193.26C319.813 193.26 277.326 166.099 277.326 136.404C277.423 132.836 279.168 125.47 282.201 121.165" stroke="#ABABAB"/>
<path d="M471.216 137.82C474.252 144.095 473.125 149.632 473.125 152.894C473.125 182.59 427.543 210.391 369.265 210.391C321.451 210.391 271.826 186.935 269.47 155.605C268.597 144.005 271.251 137.297 272.386 132.41" stroke="#ABABAB"/>
<path d="M479.642 156.086C480.117 162.405 479.317 165.329 479.317 168.591C479.317 198.286 429.772 227.17 371.494 227.17C323.68 227.17 274.02 210.722 263.587 174.141C261.762 167.74 260.547 159.407 261.682 154.52" stroke="#ABABAB"/>
<path d="M484.057 184.179C480.391 215.095 433.312 243.681 371.494 243.681C323.68 243.681 268.776 225.554 258.343 188.972C256.518 182.571 255.902 179.224 257.036 174.337" stroke="#ABABAB"/>
<path d="M485.353 198.95C481.688 229.867 433.298 258.767 371.493 260.014C324.878 260.955 265.579 235.331 255.146 198.75" stroke="#ABABAB"/>
<path d="M483.882 214.043C480.217 244.96 433.311 273.392 371.494 273.392C323.68 273.392 268.101 253.456 257.668 216.874" stroke="#ABABAB"/>
<path d="M476.168 239.341C465.383 259.985 433.311 284.747 371.494 284.747C323.679 284.747 282.757 269.95 266.609 242.572C263.227 236.84 259.463 222.076 259.463 222.805" stroke="#ABABAB"/>
<path d="M462.13 263.296C447.467 277.056 427.095 295.175 370.202 295.938C314.199 296.69 281.365 266.651 281.365 266.651" stroke="#ABABAB"/>
<path d="M443.852 282.271C441.929 283.072 421.161 302.633 370.203 302.633C328.538 302.633 300.059 284.719 300.059 284.719" stroke="#ABABAB"/>
<path d="M300.91 102.117C282.959 120.828 274.451 168.405 371.001 173.93C452.082 171.305 462.395 129.027 442.449 103.097" stroke="#ABABAB"/>
<g clip-path="url(#clip0)">
<path d="M153.824 75.3867H114.435C110.73 66.0333 110.475 55.2368 114.56 45.1742C118.693 34.9952 118.491 24.0828 114.833 14.5856H154.222C157.927 23.939 158.182 34.7355 154.097 44.7981C149.964 54.9771 150.166 65.8895 153.824 75.3867Z" fill="#898989"/>
<path d="M153.824 75.3867H114.435C110.73 66.0333 110.475 55.2368 114.56 45.1742C118.693 34.9952 118.491 24.0828 114.833 14.5856H154.222C157.927 23.939 158.182 34.7355 154.097 44.7981C149.964 54.9771 150.166 65.8895 153.824 75.3867Z" fill="url(#paint1_linear)" fill-opacity="0.8"/>
<path d="M153.824 75.3867H114.435C110.73 66.0333 110.475 55.2368 114.56 45.1742C118.693 34.9952 118.491 24.0828 114.833 14.5856H154.222C157.927 23.939 158.182 34.7355 154.097 44.7981C149.964 54.9771 150.166 65.8895 153.824 75.3867Z" stroke="#ABABAB"/>
<path fill-rule="evenodd" clip-rule="evenodd" d="M113.504 13.6871H154.829L154.93 13.9363C158.839 23.5684 159.153 34.7355 154.93 45.1354C150.789 55.3359 151.096 66.2888 154.93 75.7374L155.153 76.2851H113.827L113.726 76.0359C109.818 66.4038 109.504 55.2366 113.726 44.8367C117.867 34.6363 117.56 23.6834 113.726 14.2348L113.504 13.6871ZM114.685 14.4839C118.386 23.9901 118.61 34.9321 114.468 45.1354C110.363 55.2464 110.629 66.0966 114.368 75.4883H153.971C150.27 65.9821 150.046 55.0401 154.189 44.8367C158.294 34.7258 158.028 23.8756 154.289 14.4839H114.685Z" fill="#ABABAB"/>
<path d="M159.475 71.1653H120.086C116.38 61.8119 116.125 51.0153 120.211 40.9528C124.344 30.7738 124.141 19.8614 120.483 10.3641H159.872C163.577 19.7175 163.832 30.514 159.747 40.5766C155.614 50.7556 155.817 61.668 159.475 71.1653Z" fill="#898989"/>
<path d="M159.475 71.1653H120.086C116.38 61.8119 116.125 51.0153 120.211 40.9528C124.344 30.7738 124.141 19.8614 120.483 10.3641H159.872C163.577 19.7175 163.832 30.514 159.747 40.5766C155.614 50.7556 155.817 61.668 159.475 71.1653Z" fill="url(#paint2_linear)" fill-opacity="0.8"/>
<path d="M159.475 71.1653H120.086C116.38 61.8119 116.125 51.0153 120.211 40.9528C124.344 30.7738 124.141 19.8614 120.483 10.3641H159.872C163.577 19.7175 163.832 30.514 159.747 40.5766C155.614 50.7556 155.817 61.668 159.475 71.1653Z" stroke="#ABABAB"/>
<path fill-rule="evenodd" clip-rule="evenodd" d="M119.154 9.46582H160.48L160.581 9.71494C164.489 19.347 164.803 30.5142 160.581 40.9141C156.439 51.1146 156.747 62.0675 160.581 71.516L160.803 72.0637H119.477L119.376 71.8146C115.468 62.1825 115.154 51.0153 119.376 40.6154C123.518 30.4149 123.21 19.4621 119.376 10.0135L119.154 9.46582ZM120.336 10.2626C124.037 19.7688 124.261 30.7107 120.118 40.9141C116.013 51.0251 116.279 61.8753 120.018 71.2669H159.621C155.92 61.7607 155.696 50.8188 159.839 40.6154C163.944 30.5045 163.678 19.6542 159.939 10.2626H120.336Z" fill="#ABABAB"/>
<path d="M165.098 66.9439H125.709C122.003 57.5905 121.748 46.794 125.834 36.7315C129.967 26.5524 129.764 15.6401 126.106 6.14282H165.495C169.2 15.4962 169.455 26.2927 165.37 36.3553C161.237 46.5343 161.44 57.4467 165.098 66.9439Z" fill="#898989"/>
<path d="M165.098 66.9439H125.709C122.003 57.5905 121.748 46.794 125.834 36.7315C129.967 26.5524 129.764 15.6401 126.106 6.14282H165.495C169.2 15.4962 169.455 26.2927 165.37 36.3553C161.237 46.5343 161.44 57.4467 165.098 66.9439Z" fill="url(#paint3_linear)" fill-opacity="0.8"/>
<path d="M165.098 66.9439H125.709C122.003 57.5905 121.748 46.794 125.834 36.7315C129.967 26.5524 129.764 15.6401 126.106 6.14282H165.495C169.2 15.4962 169.455 26.2927 165.37 36.3553C161.237 46.5343 161.44 57.4467 165.098 66.9439Z" stroke="#ABABAB"/>
<path fill-rule="evenodd" clip-rule="evenodd" d="M124.777 5.24438H166.103L166.204 5.4935C170.112 15.1256 170.426 26.2928 166.204 36.6927C162.062 46.8932 162.37 57.8461 166.204 67.2946L166.426 67.8423H125.1L124.999 67.5932C121.091 57.9611 120.777 46.7939 124.999 36.394C129.141 26.1935 128.833 15.2406 124.999 5.79205L124.777 5.24438ZM125.959 6.04117C129.66 15.5474 129.884 26.4893 125.741 36.6927C121.636 46.8036 121.902 57.6539 125.641 67.0455H165.244C161.543 57.5393 161.319 46.5974 165.462 36.394C169.567 26.283 169.301 15.4328 165.562 6.04117H125.959Z" fill="#ABABAB"/>
<path d="M170.75 62.7507H131.361C127.656 53.3973 127.401 42.6008 131.486 32.5382C135.619 22.3592 135.417 11.4468 131.758 1.94958H171.147C174.853 11.303 175.108 22.0995 171.022 32.1621C166.89 42.3411 167.092 53.2535 170.75 62.7507Z" fill="#898989"/>
<path d="M170.75 62.7507H131.361C127.656 53.3973 127.401 42.6008 131.486 32.5382C135.619 22.3592 135.417 11.4468 131.758 1.94958H171.147C174.853 11.303 175.108 22.0995 171.022 32.1621C166.89 42.3411 167.092 53.2535 170.75 62.7507Z" fill="url(#paint4_linear)" fill-opacity="0.8"/>
<path d="M170.75 62.7507H131.361C127.656 53.3973 127.401 42.6008 131.486 32.5382C135.619 22.3592 135.417 11.4468 131.758 1.94958H171.147C174.853 11.303 175.108 22.0995 171.022 32.1621C166.89 42.3411 167.092 53.2535 170.75 62.7507Z" stroke="#ABABAB"/>
<path fill-rule="evenodd" clip-rule="evenodd" d="M130.429 1.05115H171.755L171.856 1.30027C175.764 10.9324 176.078 22.0996 171.856 32.4995C167.715 42.6999 168.022 53.6528 171.856 63.1014L172.078 63.6491H130.753L130.652 63.3999C126.743 53.7678 126.429 42.6007 130.652 32.2008C134.793 22.0003 134.486 11.0474 130.652 1.59881L130.429 1.05115ZM131.611 1.84793C135.312 11.3541 135.536 22.2961 131.393 32.4995C127.288 42.6104 127.555 53.4606 131.293 62.8523H170.897C167.196 53.3461 166.972 42.4041 171.114 32.2008C175.219 22.0898 174.953 11.2396 171.215 1.84793H131.611Z" fill="#ABABAB"/>
</g>
<path d="M592.685 77.5127V43.0846L565.541 14.9309L543.029 31.9822V66.0497L592.685 77.5127Z" fill="#898989"/>
<path d="M592.685 77.5127V43.0846L565.541 14.9309L543.029 31.9822V66.0497L592.685 77.5127Z" fill="url(#paint5_linear)" fill-opacity="0.8"/>
<path d="M592.685 77.5127V43.0846L565.541 14.9309L543.029 31.9822V66.0497L592.685 77.5127Z" stroke="#ABABAB" stroke-width="0.846376"/>
<path d="M629.067 57.2951V25.3792L592.686 43.1216V77.5127L629.067 57.2951Z" fill="#898989"/>
<path d="M629.067 57.2951V25.3792L592.686 43.1216V77.5127L629.067 57.2951Z" fill="url(#paint6_linear)" fill-opacity="0.8"/>
<path d="M629.067 25.3792H629.49L628.881 24.9988L629.067 25.3792ZM629.067 57.2951L629.272 57.665L629.49 57.544V57.2951H629.067ZM592.686 77.5127H592.262L592.891 77.8826L592.686 77.5127ZM592.686 43.1216L592.5 42.7412L592.262 42.8572V43.1216H592.686ZM628.644 25.3792V57.2951H629.49V25.3792H628.644ZM628.861 56.9251L592.48 77.1427L592.891 77.8826L629.272 57.665L628.861 56.9251ZM593.109 77.5127V43.1216H592.262V77.5127H593.109ZM592.871 43.502L629.252 25.7595L628.881 24.9988L592.5 42.7412L592.871 43.502Z" fill="#ABABAB"/>
<path d="M592.764 43.1329L565.582 14.925L602.608 0.501221L628.877 25.3856L592.764 43.1329Z" fill="#898989"/>
<path d="M592.764 43.1329L565.582 14.925L602.608 0.501221L628.877 25.3856L592.764 43.1329Z" fill="url(#paint7_linear)" fill-opacity="0.8"/>
<path d="M565.582 14.925L565.428 14.5307L565.277 15.2187L565.582 14.925ZM592.764 43.1329L592.459 43.4266L592.673 43.6489L592.95 43.5127L592.764 43.1329ZM628.877 25.3856L629.063 25.7654L629.61 25.497L629.168 25.0784L628.877 25.3856ZM602.608 0.501221L602.899 0.193995L602.704 0.00953579L602.454 0.106897L602.608 0.501221ZM565.277 15.2187L592.459 43.4266L593.068 42.8393L565.887 14.6314L565.277 15.2187ZM592.95 43.5127L629.063 25.7654L628.69 25.0058L592.577 42.7531L592.95 43.5127ZM629.168 25.0784L602.899 0.193995L602.317 0.808447L628.586 25.6928L629.168 25.0784ZM602.454 0.106897L565.428 14.5307L565.736 15.3193L602.761 0.895544L602.454 0.106897Z" fill="#ABABAB"/>
<path d="M567.542 56.0329C567.762 54.1789 570.675 53.4228 572.498 53.5789C574.321 53.7349 577.57 54.783 577.57 58.2152C577.57 61.6474 577.57 74.0634 577.57 74.0634L567.542 71.6828C567.542 71.6828 567.321 57.887 567.542 56.0329Z" fill="#898989"/>
<path d="M567.542 56.0329C567.762 54.1789 570.675 53.4228 572.498 53.5789C574.321 53.7349 577.57 54.783 577.57 58.2152C577.57 61.6474 577.57 74.0634 577.57 74.0634L567.542 71.6828C567.542 71.6828 567.321 57.887 567.542 56.0329Z" fill="url(#paint8_linear)" fill-opacity="0.8"/>
<path d="M567.542 56.0329C567.762 54.1789 570.675 53.4228 572.498 53.5789C574.321 53.7349 577.57 54.783 577.57 58.2152C577.57 61.6474 577.57 74.0634 577.57 74.0634L567.542 71.6828C567.542 71.6828 567.321 57.887 567.542 56.0329Z" stroke="#ABABAB" stroke-width="0.846376"/>
<line x1="543.138" y1="31.969" x2="592.786" y2="43.0341" stroke="#ABABAB"/>
<path d="M551.252 44.4579L559.701 46.3898V60.6345L551.252 58.7139L551.252 44.4579Z" fill="#252525" stroke="#ABABAB"/>
<mask id="mask0" style="mask-type:alpha" maskUnits="userSpaceOnUse" x="553" y="51" width="7" height="11">
<path d="M559.434 52.2399C559.434 52.2399 559.519 51.3991 553.848 59.3199L559.434 60.5645L559.434 56.0385L559.434 52.2399Z" fill="black" stroke="black" stroke-width="0.846376"/>
</mask>
<g mask="url(#mask0)">
<circle cx="553.318" cy="52.4774" r="0.330186" fill="white"/>
<circle cx="553.318" cy="53.633" r="0.330186" fill="white"/>
<circle cx="553.318" cy="54.7887" r="0.330186" fill="white"/>
<circle cx="553.318" cy="55.9442" r="0.330186" fill="white"/>
<circle cx="553.318" cy="57.265" r="0.330186" fill="white"/>
<circle cx="553.318" cy="58.4206" r="0.330186" fill="white"/>
<circle cx="553.318" cy="59.5764" r="0.330186" fill="white"/>
<circle cx="553.318" cy="60.732" r="0.330186" fill="white"/>
<circle cx="554.475" cy="52.4774" r="0.330186" fill="white"/>
<circle cx="554.475" cy="53.633" r="0.330186" fill="white"/>
<circle cx="554.475" cy="54.7887" r="0.330186" fill="white"/>
<circle cx="554.475" cy="55.9442" r="0.330186" fill="white"/>
<circle cx="554.475" cy="57.265" r="0.330186" fill="white"/>
<circle cx="554.475" cy="58.4206" r="0.330186" fill="white"/>
<circle cx="554.475" cy="59.5764" r="0.330186" fill="white"/>
<circle cx="554.475" cy="60.732" r="0.330186" fill="white"/>
<circle cx="555.631" cy="52.4774" r="0.330186" fill="white"/>
<circle cx="555.631" cy="53.633" r="0.330186" fill="white"/>
<circle cx="555.631" cy="54.7887" r="0.330186" fill="white"/>
<circle cx="555.631" cy="55.9442" r="0.330186" fill="white"/>
<circle cx="555.631" cy="57.265" r="0.330186" fill="white"/>
<circle cx="555.631" cy="58.4206" r="0.330186" fill="white"/>
<circle cx="555.631" cy="59.5764" r="0.330186" fill="white"/>
<circle cx="555.631" cy="60.732" r="0.330186" fill="white"/>
<circle cx="556.951" cy="52.4774" r="0.330186" fill="white"/>
<circle cx="556.951" cy="53.633" r="0.330186" fill="white"/>
<circle cx="556.951" cy="54.7887" r="0.330186" fill="white"/>
<circle cx="556.951" cy="55.9442" r="0.330186" fill="white"/>
<circle cx="556.951" cy="57.265" r="0.330186" fill="white"/>
<circle cx="556.951" cy="58.4206" r="0.330186" fill="white"/>
<circle cx="556.951" cy="59.5764" r="0.330186" fill="white"/>
<circle cx="556.951" cy="60.732" r="0.330186" fill="white"/>
<circle cx="558.106" cy="52.4774" r="0.330186" fill="white"/>
<circle cx="558.106" cy="53.633" r="0.330186" fill="white"/>
<circle cx="558.106" cy="54.7887" r="0.330186" fill="white"/>
<circle cx="558.106" cy="55.9442" r="0.330186" fill="white"/>
<circle cx="558.106" cy="57.265" r="0.330186" fill="white"/>
<circle cx="558.106" cy="58.4206" r="0.330186" fill="white"/>
<circle cx="558.106" cy="59.5764" r="0.330186" fill="white"/>
<circle cx="558.106" cy="60.732" r="0.330186" fill="white"/>
<circle cx="559.262" cy="52.4774" r="0.330186" fill="white"/>
<circle cx="559.262" cy="53.633" r="0.330186" fill="white"/>
<circle cx="559.262" cy="54.7887" r="0.330186" fill="white"/>
<circle cx="559.262" cy="55.9442" r="0.330186" fill="white"/>
<circle cx="559.262" cy="57.265" r="0.330186" fill="white"/>
<circle cx="559.262" cy="58.4206" r="0.330186" fill="white"/>
<circle cx="559.262" cy="59.5764" r="0.330186" fill="white"/>
<circle cx="559.262" cy="60.732" r="0.330186" fill="white"/>
</g>
<path d="M603.4 6.2019L606.917 8.91708L606.917 23.3281L603.4 19.6943L603.4 6.2019Z" fill="#898989"/>
<path d="M603.4 6.2019L606.917 8.91708L606.917 23.3281L603.4 19.6943L603.4 6.2019Z" fill="url(#paint9_linear)" fill-opacity="0.8"/>
<path d="M603.4 6.2019L606.917 8.91708L606.917 23.3281L603.4 19.6943L603.4 6.2019Z" stroke="#ABABAB" stroke-width="0.846376" stroke-linejoin="bevel"/>
<path d="M606.918 8.9171L612.527 6.10717V20.7113L606.918 23.4334L606.918 8.9171Z" fill="#898989"/>
<path d="M606.918 8.9171L612.527 6.10717V20.7113L606.918 23.4334L606.918 8.9171Z" fill="url(#paint10_linear)" fill-opacity="0.8"/>
<path d="M606.918 8.9171L606.728 8.53875L606.495 8.9171L606.918 8.9171ZM612.527 6.10717H612.95L612.337 5.72882L612.527 6.10717ZM612.527 20.7113L612.711 21.092L612.95 20.9763V20.7113H612.527ZM606.918 23.4334L606.495 23.4334L607.103 23.8142L606.918 23.4334ZM607.108 9.29546L612.716 6.48553L612.337 5.72882L606.728 8.53875L607.108 9.29546ZM612.103 6.10717V20.7113H612.95V6.10717H612.103ZM612.342 20.3305L606.733 23.0527L607.103 23.8142L612.711 21.092L612.342 20.3305ZM607.341 23.4334L607.341 8.91711L606.495 8.9171L606.495 23.4334L607.341 23.4334Z" fill="#ABABAB"/>
<path d="M603.35 6.10714L609.246 3.41578L612.574 6.22948L606.93 8.92664L603.35 6.10714Z" fill="#A6A6A6"/>
<path d="M603.35 6.10714L609.246 3.41578L612.574 6.22948L606.93 8.92664L603.35 6.10714Z" fill="url(#paint11_linear)" fill-opacity="0.6"/>
<path d="M603.35 6.10714L603.174 5.72216L603.088 6.4396L603.35 6.10714ZM609.246 3.41578L609.519 3.09263L609.315 2.91939L609.071 3.0308L609.246 3.41578ZM612.574 6.22948L612.756 6.61131L612.847 5.90633L612.574 6.22948ZM606.93 8.92664L606.668 9.2591L606.875 9.42197L607.112 9.30847L606.93 8.92664ZM603.525 6.49212L609.422 3.80076L609.071 3.0308L603.174 5.72216L603.525 6.49212ZM608.973 3.73893L612.301 6.55263L612.847 5.90633L609.519 3.09263L608.973 3.73893ZM612.391 5.84765L606.747 8.54481L607.112 9.30847L612.756 6.61131L612.391 5.84765ZM607.192 8.59418L603.611 5.77468L603.088 6.4396L606.668 9.2591L607.192 8.59418Z" fill="#ABABAB"/>
<path d="M605.24 324.444L651.002 300.758L656.122 318.406L611.129 341.709L605.24 324.444Z" fill="#898989"/>
<path d="M605.24 324.444L651.002 300.758L656.122 318.406L611.129 341.709L605.24 324.444Z" fill="url(#paint12_linear)" fill-opacity="0.8"/>
<path d="M605.24 324.444L605.01 324L604.628 324.198L604.767 324.606L605.24 324.444ZM651.002 300.758L651.482 300.618L650.772 300.314L651.002 300.758ZM656.122 318.406L656.352 318.85L656.716 318.661L656.602 318.267L656.122 318.406ZM611.129 341.709L610.656 341.871L611.359 342.153L611.129 341.709ZM605.47 324.888L651.232 301.202L650.772 300.314L605.01 324L605.47 324.888ZM650.522 300.897L655.642 318.545L656.602 318.267L651.482 300.618L650.522 300.897ZM655.892 317.962L610.899 341.265L611.359 342.153L656.352 318.85L655.892 317.962ZM611.602 341.548L605.713 324.283L604.767 324.606L610.656 341.871L611.602 341.548Z" fill="#ABABAB"/>
<path d="M589.453 318.42L635.308 294.718L651.065 300.805L605.409 324.407L589.453 318.42Z" fill="#898989"/>
<path d="M589.453 318.42L635.308 294.718L651.065 300.805L605.409 324.407L589.453 318.42Z" fill="url(#paint13_linear)" fill-opacity="0.8"/>
<path d="M589.453 318.42L589.224 317.975L589.277 318.888L589.453 318.42ZM635.308 294.718L635.488 294.252L635.278 294.171L635.078 294.274L635.308 294.718ZM651.065 300.805L651.295 301.249L651.245 300.338L651.065 300.805ZM605.409 324.407L605.233 324.875L605.638 324.851L605.409 324.407ZM589.683 318.864L635.538 295.162L635.078 294.274L589.224 317.975L589.683 318.864ZM635.128 295.185L650.885 301.271L651.245 300.338L635.488 294.252L635.128 295.185ZM650.835 300.36L605.179 323.963L605.638 324.851L651.295 301.249L650.835 300.36ZM605.584 323.939L589.629 317.951L589.277 318.888L605.233 324.875L605.584 323.939Z" fill="#ABABAB"/>
<path d="M580.518 330.664L589.537 318.438L605.519 324.161L611.214 341.83L580.518 330.664Z" fill="#A5A5A5"/>
<path d="M580.518 330.664L589.537 318.438L605.519 324.161L611.214 341.83L580.518 330.664Z" fill="url(#paint14_linear)" fill-opacity="0.8"/>
<path d="M580.518 330.664L580.115 330.367L579.718 330.905L580.347 331.134L580.518 330.664ZM589.537 318.438L589.705 317.967L589.134 318.141L589.537 318.438ZM605.519 324.161L605.995 324.007L605.92 323.773L605.688 323.69L605.519 324.161ZM611.214 341.83L611.043 342.3L611.69 341.676L611.214 341.83ZM580.92 330.96L589.939 318.735L589.134 318.141L580.115 330.367L580.92 330.96ZM589.368 318.909L605.351 324.631L605.688 323.69L589.705 317.967L589.368 318.909ZM605.043 324.314L610.738 341.983L611.69 341.676L605.995 324.007L605.043 324.314ZM611.385 341.36L580.688 330.194L580.347 331.134L611.043 342.3L611.385 341.36Z" fill="#ABABAB"/>
<path d="M636.055 335.652L681.816 311.965L686.936 329.613L641.944 352.917L636.055 335.652Z" fill="#898989"/>
<path d="M636.055 335.652L681.816 311.965L686.936 329.613L641.944 352.917L636.055 335.652Z" fill="url(#paint15_linear)" fill-opacity="0.8"/>
<path d="M636.055 335.652L635.825 335.208L635.442 335.406L635.581 335.813L636.055 335.652ZM681.816 311.965L682.296 311.826L681.586 311.521L681.816 311.965ZM686.936 329.613L687.166 330.057L687.531 329.869L687.417 329.474L686.936 329.613ZM641.944 352.917L641.47 353.078L642.174 353.361L641.944 352.917ZM636.285 336.096L682.046 312.409L681.586 311.521L635.825 335.208L636.285 336.096ZM681.336 312.104L686.456 329.753L687.417 329.474L682.296 311.826L681.336 312.104ZM686.706 329.17L641.714 352.473L642.174 353.361L687.166 330.057L686.706 329.17ZM642.417 352.755L636.528 335.49L635.581 335.813L641.47 353.078L642.417 352.755Z" fill="#ABABAB"/>
<path d="M620.268 329.627L666.122 305.926L681.88 312.012L636.223 335.614L620.268 329.627Z" fill="#898989"/>
<path d="M620.268 329.627L666.122 305.926L681.88 312.012L636.223 335.614L620.268 329.627Z" fill="url(#paint16_linear)" fill-opacity="0.8"/>
<path d="M620.268 329.627L620.038 329.183L620.092 330.095L620.268 329.627ZM666.122 305.926L666.303 305.459L666.093 305.378L665.893 305.481L666.122 305.926ZM681.88 312.012L682.109 312.456L682.06 311.546L681.88 312.012ZM636.223 335.614L636.048 336.082L636.453 336.058L636.223 335.614ZM620.497 330.071L666.352 306.37L665.893 305.481L620.038 329.183L620.497 330.071ZM665.942 306.392L681.699 312.478L682.06 311.546L666.303 305.459L665.942 306.392ZM681.65 311.568L635.994 335.17L636.453 336.058L682.109 312.456L681.65 311.568ZM636.399 335.146L620.443 329.159L620.092 330.095L636.048 336.082L636.399 335.146Z" fill="#ABABAB"/>
<path d="M611.332 341.871L620.351 329.646L636.334 335.368L642.029 353.037L611.332 341.871Z" fill="#A5A5A5"/>
<path d="M611.332 341.871L620.351 329.646L636.334 335.368L642.029 353.037L611.332 341.871Z" fill="url(#paint17_linear)" fill-opacity="0.8"/>
<path d="M611.332 341.871L610.93 341.574L610.533 342.112L611.161 342.341L611.332 341.871ZM620.351 329.646L620.52 329.175L619.949 329.349L620.351 329.646ZM636.334 335.368L636.81 335.215L636.734 334.98L636.502 334.897L636.334 335.368ZM642.029 353.037L641.858 353.507L642.505 352.884L642.029 353.037ZM611.734 342.168L620.754 329.942L619.949 329.349L610.93 341.574L611.734 342.168ZM620.183 330.116L636.165 335.839L636.502 334.897L620.52 329.175L620.183 330.116ZM635.858 335.521L641.553 353.191L642.505 352.884L636.81 335.215L635.858 335.521ZM642.2 352.567L611.503 341.401L611.161 342.341L641.858 353.507L642.2 352.567Z" fill="#ABABAB"/>
<path d="M620.074 314.093L665.836 290.406L670.956 308.055L625.963 331.358L620.074 314.093Z" fill="#898989"/>
<path d="M620.074 314.093L665.836 290.406L670.956 308.055L625.963 331.358L620.074 314.093Z" fill="url(#paint18_linear)" fill-opacity="0.8"/>
<path d="M620.074 314.093L619.844 313.649L619.462 313.847L619.601 314.254L620.074 314.093ZM665.836 290.406L666.316 290.267L665.606 289.962L665.836 290.406ZM670.956 308.055L671.186 308.499L671.55 308.31L671.436 307.915L670.956 308.055ZM625.963 331.358L625.49 331.519L626.193 331.802L625.963 331.358ZM620.304 314.537L666.066 290.85L665.606 289.962L619.844 313.649L620.304 314.537ZM665.356 290.546L670.476 308.194L671.436 307.915L666.316 290.267L665.356 290.546ZM670.726 307.611L625.733 330.914L626.193 331.802L671.186 308.499L670.726 307.611ZM626.436 331.197L620.547 313.932L619.601 314.254L625.49 331.519L626.436 331.197Z" fill="#ABABAB"/>
<path d="M604.287 308.068L650.142 284.367L665.899 290.453L620.243 314.056L604.287 308.068Z" fill="#898989"/>
<path d="M604.287 308.068L650.142 284.367L665.899 290.453L620.243 314.056L604.287 308.068Z" fill="url(#paint19_linear)" fill-opacity="0.8"/>
<path d="M604.287 308.068L604.058 307.624L604.111 308.536L604.287 308.068ZM650.142 284.367L650.322 283.9L650.112 283.819L649.912 283.923L650.142 284.367ZM665.899 290.453L666.129 290.897L666.079 289.987L665.899 290.453ZM620.243 314.056L620.067 314.524L620.472 314.5L620.243 314.056ZM604.517 308.512L650.371 284.811L649.912 283.923L604.058 307.624L604.517 308.512ZM649.962 284.833L665.719 290.92L666.079 289.987L650.322 283.9L649.962 284.833ZM665.669 290.009L620.013 313.611L620.472 314.5L666.129 290.897L665.669 290.009ZM620.418 313.587L604.463 307.6L604.111 308.536L620.067 314.524L620.418 313.587Z" fill="#ABABAB"/>
<path d="M595.352 320.312L604.371 308.087L620.353 313.809L626.048 331.478L595.352 320.312Z" fill="#A5A5A5"/>
<path d="M595.352 320.312L604.371 308.087L620.353 313.809L626.048 331.478L595.352 320.312Z" fill="url(#paint20_linear)" fill-opacity="0.8"/>
<path d="M595.352 320.312L594.949 320.015L594.552 320.554L595.181 320.782L595.352 320.312ZM604.371 308.087L604.539 307.616L603.968 307.79L604.371 308.087ZM620.353 313.809L620.829 313.656L620.754 313.422L620.522 313.339L620.353 313.809ZM626.048 331.478L625.877 331.948L626.524 331.325L626.048 331.478ZM595.754 320.609L604.773 308.384L603.968 307.79L594.949 320.015L595.754 320.609ZM604.202 308.558L620.185 314.28L620.522 313.339L604.539 307.616L604.202 308.558ZM619.877 313.963L625.572 331.632L626.524 331.325L620.829 313.656L619.877 313.963ZM626.219 331.009L595.522 319.842L595.181 320.782L625.877 331.948L626.219 331.009Z" fill="#ABABAB"/>
<ellipse cx="348.791" cy="689.857" rx="348" ry="25.5" fill="#D8176C"/>
<ellipse cx="348.791" cy="689.857" rx="348" ry="25.5" fill="url(#paint21_radial)" fill-opacity="0.3"/>
<line x1="373.264" y1="560.753" x2="373.264" y2="372.183" stroke="#D4D5D8"/>
<path d="M154.469 308.249L154.469 308.243C154.318 302.059 149.186 297.103 142.793 297.103C136.401 297.103 131.123 302.274 131.123 308.291C131.123 309.572 131.283 310.643 131.615 311.695L69.6375 311.312C71.4319 303.515 65.6251 296.925 57.914 296.923C52.0342 296.744 45.845 301.785 46.0308 308.803C40.9934 307.872 37.3192 306.305 34.896 304.153C32.4333 301.966 31.2441 299.159 31.2441 295.738L31.2441 283.76C66.8717 274.538 105.241 273.756 139.201 291.082L139.249 291.107L139.302 291.109C151.533 291.686 161.98 296.822 168.588 301.814C171.895 304.312 174.223 306.762 175.335 308.569C175.612 309.02 175.809 309.424 175.929 309.775C176.049 310.128 176.084 310.411 176.053 310.626C176.024 310.831 175.936 310.975 175.79 311.074C175.636 311.179 175.392 311.25 175.029 311.25H154.102C154.373 310.255 154.469 309.313 154.469 308.249Z" fill="white"/>
<path d="M154.469 308.249L154.469 308.243C154.318 302.059 149.186 297.103 142.793 297.103C136.401 297.103 131.123 302.274 131.123 308.291C131.123 309.572 131.283 310.643 131.615 311.695L69.6375 311.312C71.4319 303.515 65.6251 296.925 57.914 296.923C52.0342 296.744 45.845 301.785 46.0308 308.803C40.9934 307.872 37.3192 306.305 34.896 304.153C32.4333 301.966 31.2441 299.159 31.2441 295.738L31.2441 283.76C66.8717 274.538 105.241 273.756 139.201 291.082L139.249 291.107L139.302 291.109C151.533 291.686 161.98 296.822 168.588 301.814C171.895 304.312 174.223 306.762 175.335 308.569C175.612 309.02 175.809 309.424 175.929 309.775C176.049 310.128 176.084 310.411 176.053 310.626C176.024 310.831 175.936 310.975 175.79 311.074C175.636 311.179 175.392 311.25 175.029 311.25H154.102C154.373 310.255 154.469 309.313 154.469 308.249Z" fill="url(#paint22_linear)" fill-opacity="0.85"/>
<path d="M154.469 308.249L154.469 308.243C154.318 302.059 149.186 297.103 142.793 297.103C136.401 297.103 131.123 302.274 131.123 308.291C131.123 309.572 131.283 310.643 131.615 311.695L69.6375 311.312C71.4319 303.515 65.6251 296.925 57.914 296.923C52.0342 296.744 45.845 301.785 46.0308 308.803C40.9934 307.872 37.3192 306.305 34.896 304.153C32.4333 301.966 31.2441 299.159 31.2441 295.738L31.2441 283.76C66.8717 274.538 105.241 273.756 139.201 291.082L139.249 291.107L139.302 291.109C151.533 291.686 161.98 296.822 168.588 301.814C171.895 304.312 174.223 306.762 175.335 308.569C175.612 309.02 175.809 309.424 175.929 309.775C176.049 310.128 176.084 310.411 176.053 310.626C176.024 310.831 175.936 310.975 175.79 311.074C175.636 311.179 175.392 311.25 175.029 311.25H154.102C154.373 310.255 154.469 309.313 154.469 308.249Z" stroke="white" stroke-width="0.5"/>
<path d="M78.5897 283.789C91.2829 282.052 120.056 288.444 129.567 295.917L78.2728 294.383C73.164 294.23 71.9936 291.472 71.8712 289.857C71.7488 288.243 72.3123 284.647 78.5897 283.789Z" fill="#252525" stroke="white" stroke-width="0.5"/>
<path d="M142.792 297.114C149.158 297.114 154.453 302.153 154.453 308.505C154.453 314.582 149.162 319.624 142.792 319.624C136.422 319.624 131.131 314.582 131.131 308.505C131.131 302.153 136.425 297.114 142.792 297.114ZM150.08 308.505C150.08 304.564 146.707 301.487 142.792 301.487C138.877 301.487 135.504 304.564 135.504 308.505C135.504 312.181 138.884 315.251 142.792 315.251C146.7 315.251 150.08 312.181 150.08 308.505Z" fill="white"/>
<path d="M142.792 297.114C149.158 297.114 154.453 302.153 154.453 308.505C154.453 314.582 149.162 319.624 142.792 319.624C136.422 319.624 131.131 314.582 131.131 308.505C131.131 302.153 136.425 297.114 142.792 297.114ZM150.08 308.505C150.08 304.564 146.707 301.487 142.792 301.487C138.877 301.487 135.504 304.564 135.504 308.505C135.504 312.181 138.884 315.251 142.792 315.251C146.7 315.251 150.08 312.181 150.08 308.505Z" fill="url(#paint23_linear)" fill-opacity="0.85"/>
<path d="M142.792 297.114C149.158 297.114 154.453 302.153 154.453 308.505C154.453 314.582 149.162 319.624 142.792 319.624C136.422 319.624 131.131 314.582 131.131 308.505C131.131 302.153 136.425 297.114 142.792 297.114ZM150.08 308.505C150.08 304.564 146.707 301.487 142.792 301.487C138.877 301.487 135.504 304.564 135.504 308.505C135.504 312.181 138.884 315.251 142.792 315.251C146.7 315.251 150.08 312.181 150.08 308.505Z" stroke="white" stroke-width="0.5"/>
<path d="M57.8906 296.938C64.6352 296.938 70.0091 302.059 70.0091 308.507C70.0091 314.676 64.6391 319.801 57.8906 319.801C51.4206 319.801 46.0469 314.679 46.0469 308.507C46.0469 302.056 51.4245 296.938 57.8906 296.938ZM65.2869 308.507C65.2869 304.514 62.145 301.385 57.8906 301.385C53.9045 301.385 50.7692 304.521 50.7692 308.507C50.7692 312.225 53.9112 315.353 57.8906 315.353C62.1382 315.353 65.2869 312.231 65.2869 308.507Z" fill="white"/>
<path d="M57.8906 296.938C64.6352 296.938 70.0091 302.059 70.0091 308.507C70.0091 314.676 64.6391 319.801 57.8906 319.801C51.4206 319.801 46.0469 314.679 46.0469 308.507C46.0469 302.056 51.4245 296.938 57.8906 296.938ZM65.2869 308.507C65.2869 304.514 62.145 301.385 57.8906 301.385C53.9045 301.385 50.7692 304.521 50.7692 308.507C50.7692 312.225 53.9112 315.353 57.8906 315.353C62.1382 315.353 65.2869 312.231 65.2869 308.507Z" fill="url(#paint24_linear)" fill-opacity="0.85"/>
<path d="M57.8906 296.938C64.6352 296.938 70.0091 302.059 70.0091 308.507C70.0091 314.676 64.6391 319.801 57.8906 319.801C51.4206 319.801 46.0469 314.679 46.0469 308.507C46.0469 302.056 51.4245 296.938 57.8906 296.938ZM65.2869 308.507C65.2869 304.514 62.145 301.385 57.8906 301.385C53.9045 301.385 50.7692 304.521 50.7692 308.507C50.7692 312.225 53.9112 315.353 57.8906 315.353C62.1382 315.353 65.2869 312.231 65.2869 308.507Z" stroke="white" stroke-width="0.5"/>
<mask id="mask1" style="mask-type:alpha" maskUnits="userSpaceOnUse" x="72" y="283" width="59" height="14">
<path d="M84.9459 283.521C70.0655 282.821 72.1174 290.225 72.1174 290.225C72.1174 290.225 73.5921 286.742 86.181 287.206C98.7699 287.671 111.276 290.103 118.281 291.682C125.286 293.261 130.09 296.029 130.09 296.029C120.686 289.384 99.8263 284.221 84.9459 283.521Z" fill="black"/>
</mask>
<g mask="url(#mask1)">
<ellipse cx="71.609" cy="289.669" rx="0.414129" ry="0.413914" transform="rotate(-6.23454 71.609 289.669)" fill="white"/>
<ellipse cx="71.7887" cy="291.315" rx="0.414129" ry="0.41391" transform="rotate(-6.23454 71.7887 291.315)" fill="white"/>
<ellipse cx="71.9449" cy="292.755" rx="0.41413" ry="0.413914" transform="rotate(-6.23454 71.9449 292.755)" fill="white"/>
<ellipse cx="72.1031" cy="294.195" rx="0.414129" ry="0.413908" transform="rotate(-6.23454 72.1031 294.195)" fill="white"/>
<ellipse cx="72.2594" cy="295.636" rx="0.414129" ry="0.413912" transform="rotate(-6.23454 72.2594 295.636)" fill="white"/>
<ellipse cx="72.6031" cy="283.523" rx="0.41413" ry="0.413913" transform="rotate(-6.23454 72.6031 283.523)" fill="white"/>
<ellipse cx="72.7828" cy="285.169" rx="0.41413" ry="0.413914" transform="rotate(-6.23454 72.7828 285.169)" fill="white"/>
<ellipse cx="72.941" cy="286.609" rx="0.414129" ry="0.413916" transform="rotate(-6.23454 72.941 286.609)" fill="white"/>
<ellipse cx="73.0973" cy="288.049" rx="0.41413" ry="0.41391" transform="rotate(-6.23454 73.0973 288.049)" fill="white"/>
<ellipse cx="73.2555" cy="289.49" rx="0.41413" ry="0.413914" transform="rotate(-6.23454 73.2555 289.49)" fill="white"/>
<ellipse cx="73.4352" cy="291.135" rx="0.414129" ry="0.413916" transform="rotate(-6.23454 73.4352 291.135)" fill="white"/>
<ellipse cx="73.5914" cy="292.575" rx="0.41413" ry="0.413912" transform="rotate(-6.23454 73.5914 292.575)" fill="white"/>
<ellipse cx="73.7496" cy="294.016" rx="0.41413" ry="0.413914" transform="rotate(-6.23454 73.7496 294.016)" fill="white"/>
<ellipse cx="73.9078" cy="295.456" rx="0.41413" ry="0.413912" transform="rotate(-6.23454 73.9078 295.456)" fill="white"/>
<ellipse cx="74.0445" cy="283.366" rx="0.414129" ry="0.413909" transform="rotate(-6.23454 74.0445 283.366)" fill="white"/>
<ellipse cx="74.2242" cy="285.012" rx="0.41413" ry="0.413912" transform="rotate(-6.23454 74.2242 285.012)" fill="white"/>
<ellipse cx="74.3824" cy="286.452" rx="0.41413" ry="0.413912" transform="rotate(-6.23454 74.3824 286.452)" fill="white"/>
<ellipse cx="74.5387" cy="287.892" rx="0.41413" ry="0.413916" transform="rotate(-6.23454 74.5387 287.892)" fill="white"/>
<ellipse cx="74.6969" cy="289.332" rx="0.41413" ry="0.41391" transform="rotate(-6.23454 74.6969 289.332)" fill="white"/>
<ellipse cx="74.8765" cy="290.978" rx="0.414129" ry="0.413912" transform="rotate(-6.23454 74.8765 290.978)" fill="white"/>
<ellipse cx="75.0328" cy="292.418" rx="0.414129" ry="0.413916" transform="rotate(-6.23454 75.0328 292.418)" fill="white"/>
<ellipse cx="75.191" cy="293.858" rx="0.41413" ry="0.413912" transform="rotate(-6.23454 75.191 293.858)" fill="white"/>
<ellipse cx="75.3473" cy="295.298" rx="0.414129" ry="0.413912" transform="rotate(-6.23454 75.3473 295.298)" fill="white"/>
<ellipse cx="75.4859" cy="283.208" rx="0.414131" ry="0.413912" transform="rotate(-6.23454 75.4859 283.208)" fill="white"/>
<ellipse cx="75.6656" cy="284.854" rx="0.414129" ry="0.413914" transform="rotate(-6.23454 75.6656 284.854)" fill="white"/>
<ellipse cx="75.8219" cy="286.294" rx="0.41413" ry="0.41391" transform="rotate(-6.23454 75.8219 286.294)" fill="white"/>
<ellipse cx="75.9801" cy="287.735" rx="0.41413" ry="0.413914" transform="rotate(-6.23454 75.9801 287.735)" fill="white"/>
<ellipse cx="76.1363" cy="289.175" rx="0.41413" ry="0.413912" transform="rotate(-6.23454 76.1363 289.175)" fill="white"/>
<ellipse cx="76.316" cy="290.82" rx="0.414129" ry="0.413914" transform="rotate(-6.23454 76.316 290.82)" fill="white"/>
<ellipse cx="76.4742" cy="292.261" rx="0.41413" ry="0.413912" transform="rotate(-6.23454 76.4742 292.261)" fill="white"/>
<ellipse cx="76.6324" cy="293.701" rx="0.414131" ry="0.413912" transform="rotate(-6.23454 76.6324 293.701)" fill="white"/>
<ellipse cx="76.7887" cy="295.141" rx="0.414129" ry="0.413914" transform="rotate(-6.23454 76.7887 295.141)" fill="white"/>
<ellipse cx="76.9254" cy="283.051" rx="0.41413" ry="0.41391" transform="rotate(-6.23454 76.9254 283.051)" fill="white"/>
<ellipse cx="77.1051" cy="284.697" rx="0.414132" ry="0.413914" transform="rotate(-6.23454 77.1051 284.697)" fill="white"/>
<ellipse cx="77.2633" cy="286.137" rx="0.41413" ry="0.413908" transform="rotate(-6.23454 77.2633 286.137)" fill="white"/>
<ellipse cx="77.4215" cy="287.577" rx="0.41413" ry="0.413912" transform="rotate(-6.23454 77.4215 287.577)" fill="white"/>
<ellipse cx="77.5777" cy="289.017" rx="0.41413" ry="0.413914" transform="rotate(-6.23454 77.5777 289.017)" fill="white"/>
<ellipse cx="77.7574" cy="290.663" rx="0.41413" ry="0.413914" transform="rotate(-6.23454 77.7574 290.663)" fill="white"/>
<ellipse cx="77.9156" cy="292.103" rx="0.41413" ry="0.413912" transform="rotate(-6.23454 77.9156 292.103)" fill="white"/>
<ellipse cx="78.0719" cy="293.543" rx="0.41413" ry="0.413914" transform="rotate(-6.23454 78.0719 293.543)" fill="white"/>
<ellipse cx="78.2301" cy="294.984" rx="0.41413" ry="0.41391" transform="rotate(-6.23454 78.2301 294.984)" fill="white"/>
<ellipse cx="78.3863" cy="296.424" rx="0.41413" ry="0.413912" transform="rotate(-6.23454 78.3863 296.424)" fill="white"/>
<ellipse cx="78.6494" cy="284.528" rx="0.517662" ry="0.413914" transform="rotate(-6.23454 78.6494 284.528)" fill="white"/>
<ellipse cx="78.8076" cy="285.968" rx="0.517662" ry="0.413912" transform="rotate(-6.23454 78.8076 285.968)" fill="white"/>
<ellipse cx="78.9638" cy="287.408" rx="0.517662" ry="0.413912" transform="rotate(-6.23454 78.9638 287.408)" fill="white"/>
<ellipse cx="79.122" cy="288.849" rx="0.517662" ry="0.413912" transform="rotate(-6.23454 79.122 288.849)" fill="white"/>
<ellipse cx="79.3017" cy="290.495" rx="0.517662" ry="0.41391" transform="rotate(-6.23454 79.3017 290.495)" fill="white"/>
<ellipse cx="79.458" cy="291.935" rx="0.517662" ry="0.413912" transform="rotate(-6.23454 79.458 291.935)" fill="white"/>
<ellipse cx="79.6162" cy="293.375" rx="0.517661" ry="0.413914" transform="rotate(-6.23454 79.6162 293.375)" fill="white"/>
<ellipse cx="79.7724" cy="294.815" rx="0.517663" ry="0.41391" transform="rotate(-6.23454 79.7724 294.815)" fill="white"/>
<ellipse cx="79.9306" cy="296.255" rx="0.517663" ry="0.413914" transform="rotate(-6.23454 79.9306 296.255)" fill="white"/>
<ellipse cx="80.193" cy="284.36" rx="0.414129" ry="0.413914" transform="rotate(-6.23454 80.193 284.36)" fill="white"/>
<ellipse cx="80.3512" cy="285.8" rx="0.414129" ry="0.413914" transform="rotate(-6.23454 80.3512 285.8)" fill="white"/>
<ellipse cx="80.5074" cy="287.24" rx="0.414129" ry="0.413912" transform="rotate(-6.23454 80.5074 287.24)" fill="white"/>
<ellipse cx="80.6656" cy="288.68" rx="0.414129" ry="0.41391" transform="rotate(-6.23454 80.6656 288.68)" fill="white"/>
<ellipse cx="80.8453" cy="290.326" rx="0.414129" ry="0.413916" transform="rotate(-6.23454 80.8453 290.326)" fill="white"/>
<ellipse cx="81.0035" cy="291.766" rx="0.414129" ry="0.413912" transform="rotate(-6.23454 81.0035 291.766)" fill="white"/>
<ellipse cx="81.1598" cy="293.206" rx="0.414128" ry="0.413914" transform="rotate(-6.23454 81.1598 293.206)" fill="white"/>
<ellipse cx="81.318" cy="294.646" rx="0.414129" ry="0.413912" transform="rotate(-6.23454 81.318 294.646)" fill="white"/>
<ellipse cx="81.4742" cy="296.086" rx="0.414129" ry="0.413914" transform="rotate(-6.23454 81.4742 296.086)" fill="white"/>
<ellipse cx="81.6344" cy="284.202" rx="0.414129" ry="0.413914" transform="rotate(-6.23454 81.6344 284.202)" fill="white"/>
<ellipse cx="81.7926" cy="285.642" rx="0.41413" ry="0.413912" transform="rotate(-6.23454 81.7926 285.642)" fill="white"/>
<ellipse cx="81.9488" cy="287.082" rx="0.41413" ry="0.413914" transform="rotate(-6.23454 81.9488 287.082)" fill="white"/>
<ellipse cx="82.107" cy="288.522" rx="0.41413" ry="0.413914" transform="rotate(-6.23454 82.107 288.522)" fill="white"/>
<ellipse cx="82.2867" cy="290.168" rx="0.414129" ry="0.413912" transform="rotate(-6.23454 82.2867 290.168)" fill="white"/>
<ellipse cx="82.443" cy="291.609" rx="0.41413" ry="0.413914" transform="rotate(-6.23454 82.443 291.609)" fill="white"/>
<ellipse cx="82.6012" cy="293.049" rx="0.414129" ry="0.413912" transform="rotate(-6.23454 82.6012 293.049)" fill="white"/>
<ellipse cx="82.7574" cy="294.489" rx="0.414129" ry="0.41391" transform="rotate(-6.23454 82.7574 294.489)" fill="white"/>
<ellipse cx="82.9156" cy="295.929" rx="0.414129" ry="0.41391" transform="rotate(-6.23454 82.9156 295.929)" fill="white"/>
<ellipse cx="83.0758" cy="284.045" rx="0.41413" ry="0.413914" transform="rotate(-6.23454 83.0758 284.045)" fill="white"/>
<ellipse cx="83.232" cy="285.485" rx="0.414128" ry="0.41391" transform="rotate(-6.23454 83.232 285.485)" fill="white"/>
<ellipse cx="83.3902" cy="286.925" rx="0.414131" ry="0.413912" transform="rotate(-6.23454 83.3902 286.925)" fill="white"/>
<ellipse cx="83.5465" cy="288.365" rx="0.414129" ry="0.413912" transform="rotate(-6.23454 83.5465 288.365)" fill="white"/>
<ellipse cx="83.7262" cy="290.011" rx="0.414128" ry="0.413912" transform="rotate(-6.23454 83.7262 290.011)" fill="white"/>
<ellipse cx="83.8844" cy="291.451" rx="0.414129" ry="0.413914" transform="rotate(-6.23454 83.8844 291.451)" fill="white"/>
<ellipse cx="84.0426" cy="292.891" rx="0.41413" ry="0.413912" transform="rotate(-6.23454 84.0426 292.891)" fill="white"/>
<ellipse cx="84.1988" cy="294.331" rx="0.414129" ry="0.413914" transform="rotate(-6.23454 84.1988 294.331)" fill="white"/>
<ellipse cx="84.357" cy="295.772" rx="0.414129" ry="0.413908" transform="rotate(-6.23454 84.357 295.772)" fill="white"/>
<ellipse cx="84.5152" cy="283.887" rx="0.414127" ry="0.413916" transform="rotate(-6.23454 84.5152 283.887)" fill="white"/>
<ellipse cx="84.6734" cy="285.328" rx="0.414129" ry="0.413914" transform="rotate(-6.23454 84.6734 285.328)" fill="white"/>
<ellipse cx="84.8316" cy="286.768" rx="0.414129" ry="0.41391" transform="rotate(-6.23454 84.8316 286.768)" fill="white"/>
<ellipse cx="84.9879" cy="288.208" rx="0.414128" ry="0.413916" transform="rotate(-6.23454 84.9879 288.208)" fill="white"/>
<ellipse cx="85.1676" cy="289.854" rx="0.414128" ry="0.41391" transform="rotate(-6.23454 85.1676 289.854)" fill="white"/>
<ellipse cx="85.3258" cy="291.294" rx="0.414127" ry="0.413912" transform="rotate(-6.23454 85.3258 291.294)" fill="white"/>
<ellipse cx="85.482" cy="292.734" rx="0.414128" ry="0.413916" transform="rotate(-6.23454 85.482 292.734)" fill="white"/>
<ellipse cx="85.6402" cy="294.174" rx="0.414129" ry="0.413912" transform="rotate(-6.23454 85.6402 294.174)" fill="white"/>
<ellipse cx="85.7965" cy="295.614" rx="0.414129" ry="0.413916" transform="rotate(-6.23454 85.7965 295.614)" fill="white"/>
<ellipse cx="86.1637" cy="283.707" rx="0.41413" ry="0.413914" transform="rotate(-6.23454 86.1637 283.707)" fill="white"/>
<ellipse cx="86.3199" cy="285.148" rx="0.414128" ry="0.413912" transform="rotate(-6.23454 86.3199 285.148)" fill="white"/>
<ellipse cx="86.4781" cy="286.588" rx="0.414128" ry="0.41391" transform="rotate(-6.23454 86.4781 286.588)" fill="white"/>
<ellipse cx="86.6344" cy="288.028" rx="0.414129" ry="0.413912" transform="rotate(-6.23454 86.6344 288.028)" fill="white"/>
<ellipse cx="86.814" cy="289.674" rx="0.414127" ry="0.413914" transform="rotate(-6.23454 86.814 289.674)" fill="white"/>
<ellipse cx="86.9723" cy="291.114" rx="0.414128" ry="0.413912" transform="rotate(-6.23454 86.9723 291.114)" fill="white"/>
<ellipse cx="87.1285" cy="292.554" rx="0.414127" ry="0.413912" transform="rotate(-6.23454 87.1285 292.554)" fill="white"/>
<ellipse cx="87.2867" cy="293.994" rx="0.414131" ry="0.413912" transform="rotate(-6.23454 87.2867 293.994)" fill="white"/>
<ellipse cx="87.443" cy="295.434" rx="0.414128" ry="0.413912" transform="rotate(-6.23454 87.443 295.434)" fill="white"/>
<ellipse cx="87.6031" cy="283.55" rx="0.41413" ry="0.413912" transform="rotate(-6.23454 87.6031 283.55)" fill="white"/>
<ellipse cx="87.7613" cy="284.99" rx="0.414128" ry="0.413912" transform="rotate(-6.23454 87.7613 284.99)" fill="white"/>
<ellipse cx="87.9176" cy="286.43" rx="0.41413" ry="0.41391" transform="rotate(-6.23454 87.9176 286.43)" fill="white"/>
<ellipse cx="88.0758" cy="287.87" rx="0.414128" ry="0.413908" transform="rotate(-6.23454 88.0758 287.87)" fill="white"/>
<ellipse cx="88.2555" cy="289.516" rx="0.414128" ry="0.413914" transform="rotate(-6.23454 88.2555 289.516)" fill="white"/>
<ellipse cx="88.4137" cy="290.956" rx="0.414131" ry="0.413912" transform="rotate(-6.23454 88.4137 290.956)" fill="white"/>
<ellipse cx="88.5699" cy="292.397" rx="0.41413" ry="0.413914" transform="rotate(-6.23454 88.5699 292.397)" fill="white"/>
<ellipse cx="88.7281" cy="293.837" rx="0.414128" ry="0.413912" transform="rotate(-6.23454 88.7281 293.837)" fill="white"/>
<ellipse cx="88.8844" cy="295.277" rx="0.414128" ry="0.41391" transform="rotate(-6.23454 88.8844 295.277)" fill="white"/>
<ellipse cx="89.0445" cy="283.393" rx="0.414128" ry="0.413914" transform="rotate(-6.23454 89.0445 283.393)" fill="white"/>
<ellipse cx="89.2027" cy="284.833" rx="0.414128" ry="0.413914" transform="rotate(-6.23454 89.2027 284.833)" fill="white"/>
<ellipse cx="89.359" cy="286.273" rx="0.41413" ry="0.41391" transform="rotate(-6.23454 89.359 286.273)" fill="white"/>
<ellipse cx="89.5172" cy="287.713" rx="0.41413" ry="0.413914" transform="rotate(-6.23454 89.5172 287.713)" fill="white"/>
<ellipse cx="89.6969" cy="289.359" rx="0.414127" ry="0.413912" transform="rotate(-6.23454 89.6969 289.359)" fill="white"/>
<ellipse cx="89.8531" cy="290.799" rx="0.414127" ry="0.413914" transform="rotate(-6.23454 89.8531 290.799)" fill="white"/>
<ellipse cx="90.0113" cy="292.239" rx="0.41413" ry="0.413916" transform="rotate(-6.23454 90.0113 292.239)" fill="white"/>
<ellipse cx="90.1676" cy="293.679" rx="0.414128" ry="0.413912" transform="rotate(-6.23454 90.1676 293.679)" fill="white"/>
<ellipse cx="90.3258" cy="295.119" rx="0.414128" ry="0.41391" transform="rotate(-6.23454 90.3258 295.119)" fill="white"/>
<ellipse cx="90.4859" cy="283.235" rx="0.414128" ry="0.413914" transform="rotate(-6.23454 90.4859 283.235)" fill="white"/>
<ellipse cx="90.6422" cy="284.675" rx="0.414127" ry="0.413912" transform="rotate(-6.23454 90.6422 284.675)" fill="white"/>
<ellipse cx="90.8004" cy="286.116" rx="0.414128" ry="0.413912" transform="rotate(-6.23454 90.8004 286.116)" fill="white"/>
<ellipse cx="90.9566" cy="287.556" rx="0.414129" ry="0.41391" transform="rotate(-6.23454 90.9566 287.556)" fill="white"/>
<ellipse cx="91.1383" cy="289.201" rx="0.414128" ry="0.413914" transform="rotate(-6.23454 91.1383 289.201)" fill="white"/>
<ellipse cx="91.2945" cy="290.642" rx="0.414129" ry="0.413912" transform="rotate(-6.23454 91.2945 290.642)" fill="white"/>
<ellipse cx="91.4527" cy="292.082" rx="0.414129" ry="0.413912" transform="rotate(-6.23454 91.4527 292.082)" fill="white"/>
<ellipse cx="91.609" cy="293.522" rx="0.414128" ry="0.413912" transform="rotate(-6.23454 91.609 293.522)" fill="white"/>
<ellipse cx="91.7672" cy="294.962" rx="0.414129" ry="0.413912" transform="rotate(-6.23454 91.7672 294.962)" fill="white"/>
<ellipse cx="91.9273" cy="283.078" rx="0.41413" ry="0.413912" transform="rotate(-6.23454 91.9273 283.078)" fill="white"/>
<ellipse cx="92.0836" cy="284.518" rx="0.414131" ry="0.413916" transform="rotate(-6.23454 92.0836 284.518)" fill="white"/>
<ellipse cx="92.2418" cy="285.958" rx="0.414131" ry="0.413912" transform="rotate(-6.23454 92.2418 285.958)" fill="white"/>
<ellipse cx="92.398" cy="287.398" rx="0.414127" ry="0.413914" transform="rotate(-6.23454 92.398 287.398)" fill="white"/>
<ellipse cx="92.5777" cy="289.044" rx="0.414128" ry="0.413914" transform="rotate(-6.23454 92.5777 289.044)" fill="white"/>
<ellipse cx="92.7359" cy="290.484" rx="0.41413" ry="0.413912" transform="rotate(-6.23454 92.7359 290.484)" fill="white"/>
<ellipse cx="92.8922" cy="291.924" rx="0.414128" ry="0.41391" transform="rotate(-6.23454 92.8922 291.924)" fill="white"/>
<ellipse cx="93.0504" cy="293.364" rx="0.414129" ry="0.413912" transform="rotate(-6.23454 93.0504 293.364)" fill="white"/>
<ellipse cx="93.2066" cy="294.805" rx="0.414128" ry="0.413914" transform="rotate(-6.23454 93.2066 294.805)" fill="white"/>
<ellipse cx="93.3863" cy="296.45" rx="0.414131" ry="0.413914" transform="rotate(-6.23454 93.3863 296.45)" fill="white"/>
<ellipse cx="93.7301" cy="284.338" rx="0.414129" ry="0.413912" transform="rotate(-6.23454 93.7301 284.338)" fill="white"/>
<ellipse cx="93.8883" cy="285.778" rx="0.414128" ry="0.413914" transform="rotate(-6.23454 93.8883 285.778)" fill="white"/>
<ellipse cx="94.0445" cy="287.218" rx="0.414129" ry="0.41391" transform="rotate(-6.23454 94.0445 287.218)" fill="white"/>
<ellipse cx="94.2242" cy="288.864" rx="0.414129" ry="0.413912" transform="rotate(-6.23454 94.2242 288.864)" fill="white"/>
<ellipse cx="94.3824" cy="290.304" rx="0.414128" ry="0.413912" transform="rotate(-6.23454 94.3824 290.304)" fill="white"/>
<ellipse cx="94.5387" cy="291.744" rx="0.41413" ry="0.413912" transform="rotate(-6.23454 94.5387 291.744)" fill="white"/>
<ellipse cx="94.6969" cy="293.185" rx="0.414128" ry="0.413912" transform="rotate(-6.23454 94.6969 293.185)" fill="white"/>
<ellipse cx="94.8551" cy="294.625" rx="0.414128" ry="0.413916" transform="rotate(-6.23454 94.8551 294.625)" fill="white"/>
<ellipse cx="95.0348" cy="296.271" rx="0.414128" ry="0.413912" transform="rotate(-6.23454 95.0348 296.271)" fill="white"/>
<ellipse cx="95.1715" cy="284.181" rx="0.414129" ry="0.413912" transform="rotate(-6.23454 95.1715 284.181)" fill="white"/>
<ellipse cx="95.3277" cy="285.621" rx="0.41413" ry="0.413914" transform="rotate(-6.23454 95.3277 285.621)" fill="white"/>
<ellipse cx="95.4859" cy="287.061" rx="0.414129" ry="0.413908" transform="rotate(-6.23454 95.4859 287.061)" fill="white"/>
<ellipse cx="95.6656" cy="288.707" rx="0.414126" ry="0.413914" transform="rotate(-6.23454 95.6656 288.707)" fill="white"/>
<ellipse cx="95.8238" cy="290.147" rx="0.414126" ry="0.413912" transform="rotate(-6.23454 95.8238 290.147)" fill="white"/>
<ellipse cx="95.9801" cy="291.587" rx="0.414128" ry="0.413912" transform="rotate(-6.23454 95.9801 291.587)" fill="white"/>
<ellipse cx="96.1383" cy="293.027" rx="0.414129" ry="0.413914" transform="rotate(-6.23454 96.1383 293.027)" fill="white"/>
<ellipse cx="96.2945" cy="294.467" rx="0.41413" ry="0.413912" transform="rotate(-6.23454 96.2945 294.467)" fill="white"/>
<ellipse cx="96.4742" cy="296.113" rx="0.414128" ry="0.413914" transform="rotate(-6.23454 96.4742 296.113)" fill="white"/>
<ellipse cx="96.6129" cy="284.023" rx="0.414128" ry="0.41391" transform="rotate(-6.23454 96.6129 284.023)" fill="white"/>
<ellipse cx="96.7691" cy="285.463" rx="0.414129" ry="0.413914" transform="rotate(-6.23454 96.7691 285.463)" fill="white"/>
<ellipse cx="96.9273" cy="286.903" rx="0.414126" ry="0.413912" transform="rotate(-6.23454 96.9273 286.903)" fill="white"/>
<ellipse cx="97.107" cy="288.549" rx="0.414128" ry="0.41391" transform="rotate(-6.23454 97.107 288.549)" fill="white"/>
<ellipse cx="97.2633" cy="289.99" rx="0.414131" ry="0.413914" transform="rotate(-6.23454 97.2633 289.99)" fill="white"/>
<ellipse cx="97.4215" cy="291.43" rx="0.414128" ry="0.413914" transform="rotate(-6.23454 97.4215 291.43)" fill="white"/>
<ellipse cx="97.5777" cy="292.87" rx="0.414126" ry="0.413914" transform="rotate(-6.23454 97.5777 292.87)" fill="white"/>
<ellipse cx="97.7359" cy="294.31" rx="0.414128" ry="0.413908" transform="rotate(-6.23454 97.7359 294.31)" fill="white"/>
<ellipse cx="97.9156" cy="295.956" rx="0.414128" ry="0.413912" transform="rotate(-6.23454 97.9156 295.956)" fill="white"/>
<ellipse cx="98.0523" cy="283.866" rx="0.414128" ry="0.413908" transform="rotate(-6.23454 98.0523 283.866)" fill="white"/>
<ellipse cx="98.2105" cy="285.306" rx="0.414131" ry="0.41391" transform="rotate(-6.23454 98.2105 285.306)" fill="white"/>
<ellipse cx="98.3668" cy="286.746" rx="0.41413" ry="0.413914" transform="rotate(-6.23454 98.3668 286.746)" fill="white"/>
<ellipse cx="98.5484" cy="288.392" rx="0.414129" ry="0.413912" transform="rotate(-6.23454 98.5484 288.392)" fill="white"/>
<ellipse cx="98.7047" cy="289.832" rx="0.414128" ry="0.413912" transform="rotate(-6.23454 98.7047 289.832)" fill="white"/>
<ellipse cx="98.8629" cy="291.272" rx="0.414131" ry="0.413914" transform="rotate(-6.23454 98.8629 291.272)" fill="white"/>
<ellipse cx="99.0191" cy="292.712" rx="0.414132" ry="0.41391" transform="rotate(-6.23454 99.0191 292.712)" fill="white"/>
<ellipse cx="99.1773" cy="294.152" rx="0.414129" ry="0.41391" transform="rotate(-6.23454 99.1773 294.152)" fill="white"/>
<ellipse cx="99.357" cy="295.798" rx="0.414128" ry="0.413912" transform="rotate(-6.23454 99.357 295.798)" fill="white"/>
<ellipse cx="99.4937" cy="283.708" rx="0.414126" ry="0.413916" transform="rotate(-6.23454 99.4937 283.708)" fill="white"/>
<ellipse cx="99.6519" cy="285.149" rx="0.414128" ry="0.41391" transform="rotate(-6.23454 99.6519 285.149)" fill="white"/>
<ellipse cx="99.8082" cy="286.589" rx="0.414131" ry="0.413916" transform="rotate(-6.23454 99.8082 286.589)" fill="white"/>
<ellipse cx="99.9879" cy="288.235" rx="0.414128" ry="0.413916" transform="rotate(-6.23454 99.9879 288.235)" fill="white"/>
<ellipse cx="100.146" cy="289.675" rx="0.414127" ry="0.413912" transform="rotate(-6.23454 100.146 289.675)" fill="white"/>
<ellipse cx="100.302" cy="291.115" rx="0.414127" ry="0.413916" transform="rotate(-6.23454 100.302 291.115)" fill="white"/>
<ellipse cx="100.461" cy="292.555" rx="0.414127" ry="0.41391" transform="rotate(-6.23454 100.461 292.555)" fill="white"/>
<ellipse cx="100.617" cy="293.995" rx="0.414127" ry="0.413914" transform="rotate(-6.23454 100.617 293.995)" fill="white"/>
<ellipse cx="100.798" cy="295.641" rx="0.414128" ry="0.413916" transform="rotate(-6.23454 100.798 295.641)" fill="white"/>
<ellipse cx="101.14" cy="283.529" rx="0.414133" ry="0.413912" transform="rotate(-6.23454 101.14 283.529)" fill="white"/>
<ellipse cx="101.298" cy="284.969" rx="0.414133" ry="0.413914" transform="rotate(-6.23454 101.298 284.969)" fill="white"/>
<ellipse cx="101.455" cy="286.409" rx="0.414133" ry="0.41391" transform="rotate(-6.23454 101.455 286.409)" fill="white"/>
<ellipse cx="101.634" cy="288.055" rx="0.414133" ry="0.413912" transform="rotate(-6.23454 101.634 288.055)" fill="white"/>
<ellipse cx="101.793" cy="289.495" rx="0.414131" ry="0.413914" transform="rotate(-6.23454 101.793 289.495)" fill="white"/>
<ellipse cx="101.949" cy="290.935" rx="0.414135" ry="0.413912" transform="rotate(-6.23454 101.949 290.935)" fill="white"/>
<ellipse cx="102.107" cy="292.375" rx="0.414133" ry="0.413914" transform="rotate(-6.23454 102.107 292.375)" fill="white"/>
<ellipse cx="102.265" cy="293.815" rx="0.414135" ry="0.413912" transform="rotate(-6.23454 102.265 293.815)" fill="white"/>
<ellipse cx="102.445" cy="295.461" rx="0.414137" ry="0.413912" transform="rotate(-6.23454 102.445 295.461)" fill="white"/>
<ellipse cx="102.582" cy="283.371" rx="0.414131" ry="0.413912" transform="rotate(-6.23454 102.582 283.371)" fill="white"/>
<ellipse cx="102.74" cy="284.811" rx="0.414129" ry="0.413912" transform="rotate(-6.23454 102.74 284.811)" fill="white"/>
<ellipse cx="102.896" cy="286.251" rx="0.414125" ry="0.413912" transform="rotate(-6.23454 102.896 286.251)" fill="white"/>
<ellipse cx="103.076" cy="287.897" rx="0.414125" ry="0.413916" transform="rotate(-6.23454 103.076 287.897)" fill="white"/>
<ellipse cx="103.234" cy="289.337" rx="0.414129" ry="0.413912" transform="rotate(-6.23454 103.234 289.337)" fill="white"/>
<ellipse cx="103.39" cy="290.777" rx="0.414129" ry="0.413912" transform="rotate(-6.23454 103.39 290.777)" fill="white"/>
<ellipse cx="103.548" cy="292.218" rx="0.414124" ry="0.413914" transform="rotate(-6.23454 103.548 292.218)" fill="white"/>
<ellipse cx="103.705" cy="293.658" rx="0.414131" ry="0.413908" transform="rotate(-6.23454 103.705 293.658)" fill="white"/>
<ellipse cx="103.884" cy="295.304" rx="0.414131" ry="0.413914" transform="rotate(-6.23454 103.884 295.304)" fill="white"/>
<ellipse cx="104.023" cy="283.214" rx="0.414127" ry="0.413914" transform="rotate(-6.23454 104.023 283.214)" fill="white"/>
<ellipse cx="104.179" cy="284.654" rx="0.414133" ry="0.413912" transform="rotate(-6.23454 104.179 284.654)" fill="white"/>
<ellipse cx="104.337" cy="286.094" rx="0.414129" ry="0.413912" transform="rotate(-6.23454 104.337 286.094)" fill="white"/>
<ellipse cx="104.517" cy="287.74" rx="0.414131" ry="0.413912" transform="rotate(-6.23454 104.517 287.74)" fill="white"/>
<ellipse cx="104.673" cy="289.18" rx="0.414133" ry="0.413914" transform="rotate(-6.23454 104.673 289.18)" fill="white"/>
<ellipse cx="104.832" cy="290.62" rx="0.414133" ry="0.413914" transform="rotate(-6.23454 104.832 290.62)" fill="white"/>
<ellipse cx="104.99" cy="292.06" rx="0.414131" ry="0.413912" transform="rotate(-6.23454 104.99 292.06)" fill="white"/>
<ellipse cx="105.146" cy="293.5" rx="0.414129" ry="0.413916" transform="rotate(-6.23454 105.146 293.5)" fill="white"/>
<ellipse cx="105.326" cy="295.146" rx="0.414131" ry="0.413916" transform="rotate(-6.23454 105.326 295.146)" fill="white"/>
<ellipse cx="105.462" cy="283.056" rx="0.414131" ry="0.413914" transform="rotate(-6.23454 105.462 283.056)" fill="white"/>
<ellipse cx="105.621" cy="284.496" rx="0.414129" ry="0.41391" transform="rotate(-6.23454 105.621 284.496)" fill="white"/>
<ellipse cx="105.779" cy="285.937" rx="0.414129" ry="0.413914" transform="rotate(-6.23454 105.779 285.937)" fill="white"/>
<ellipse cx="105.959" cy="287.582" rx="0.414129" ry="0.413912" transform="rotate(-6.23454 105.959 287.582)" fill="white"/>
<ellipse cx="106.115" cy="289.023" rx="0.414127" ry="0.413912" transform="rotate(-6.23454 106.115 289.023)" fill="white"/>
<ellipse cx="106.273" cy="290.463" rx="0.414127" ry="0.413914" transform="rotate(-6.23454 106.273 290.463)" fill="white"/>
<ellipse cx="106.429" cy="291.903" rx="0.414129" ry="0.413912" transform="rotate(-6.23454 106.429 291.903)" fill="white"/>
<ellipse cx="106.587" cy="293.343" rx="0.414129" ry="0.413912" transform="rotate(-6.23454 106.587 293.343)" fill="white"/>
<ellipse cx="106.767" cy="294.989" rx="0.414129" ry="0.413912" transform="rotate(-6.23454 106.767 294.989)" fill="white"/>
<ellipse cx="106.923" cy="296.429" rx="0.414129" ry="0.413912" transform="rotate(-6.23454 106.923 296.429)" fill="white"/>
<ellipse cx="107.267" cy="284.317" rx="0.414133" ry="0.413912" transform="rotate(-6.23454 107.267 284.317)" fill="white"/>
<ellipse cx="107.425" cy="285.757" rx="0.414139" ry="0.413912" transform="rotate(-6.23454 107.425 285.757)" fill="white"/>
<ellipse cx="107.605" cy="287.402" rx="0.414133" ry="0.413914" transform="rotate(-6.23454 107.605 287.402)" fill="white"/>
<ellipse cx="107.761" cy="288.843" rx="0.414133" ry="0.413912" transform="rotate(-6.23454 107.761 288.843)" fill="white"/>
<ellipse cx="107.92" cy="290.283" rx="0.414129" ry="0.413912" transform="rotate(-6.23454 107.92 290.283)" fill="white"/>
<ellipse cx="108.076" cy="291.723" rx="0.414131" ry="0.413912" transform="rotate(-6.23454 108.076 291.723)" fill="white"/>
<ellipse cx="108.234" cy="293.163" rx="0.414137" ry="0.413912" transform="rotate(-6.23454 108.234 293.163)" fill="white"/>
<ellipse cx="108.414" cy="294.809" rx="0.414131" ry="0.41391" transform="rotate(-6.23454 108.414 294.809)" fill="white"/>
<ellipse cx="108.572" cy="296.249" rx="0.414131" ry="0.413912" transform="rotate(-6.23454 108.572 296.249)" fill="white"/>
<ellipse cx="108.709" cy="284.159" rx="0.414133" ry="0.413914" transform="rotate(-6.23454 108.709 284.159)" fill="white"/>
<ellipse cx="108.865" cy="285.599" rx="0.414133" ry="0.41391" transform="rotate(-6.23454 108.865 285.599)" fill="white"/>
<ellipse cx="109.045" cy="287.245" rx="0.414135" ry="0.413912" transform="rotate(-6.23454 109.045 287.245)" fill="white"/>
<ellipse cx="109.203" cy="288.685" rx="0.414133" ry="0.413912" transform="rotate(-6.23454 109.203 288.685)" fill="white"/>
<ellipse cx="109.361" cy="290.125" rx="0.414133" ry="0.413912" transform="rotate(-6.23454 109.361 290.125)" fill="white"/>
<ellipse cx="109.517" cy="291.565" rx="0.414131" ry="0.413914" transform="rotate(-6.23454 109.517 291.565)" fill="white"/>
<ellipse cx="109.675" cy="293.006" rx="0.414131" ry="0.41391" transform="rotate(-6.23454 109.675 293.006)" fill="white"/>
<ellipse cx="109.855" cy="294.652" rx="0.414135" ry="0.413912" transform="rotate(-6.23454 109.855 294.652)" fill="white"/>
<ellipse cx="110.011" cy="296.092" rx="0.414135" ry="0.413912" transform="rotate(-6.23454 110.011 296.092)" fill="white"/>
<ellipse cx="110.15" cy="284.002" rx="0.414129" ry="0.413912" transform="rotate(-6.23454 110.15 284.002)" fill="white"/>
<ellipse cx="110.306" cy="285.442" rx="0.414129" ry="0.41391" transform="rotate(-6.23454 110.306 285.442)" fill="white"/>
<ellipse cx="110.486" cy="287.088" rx="0.414129" ry="0.41391" transform="rotate(-6.23454 110.486 287.088)" fill="white"/>
<ellipse cx="110.644" cy="288.528" rx="0.414127" ry="0.413914" transform="rotate(-6.23454 110.644 288.528)" fill="white"/>
<ellipse cx="110.8" cy="289.968" rx="0.414129" ry="0.413912" transform="rotate(-6.23454 110.8 289.968)" fill="white"/>
<ellipse cx="110.959" cy="291.408" rx="0.414131" ry="0.413912" transform="rotate(-6.23454 110.959 291.408)" fill="white"/>
<ellipse cx="111.115" cy="292.848" rx="0.414131" ry="0.413908" transform="rotate(-6.23454 111.115 292.848)" fill="white"/>
<ellipse cx="111.295" cy="294.494" rx="0.414127" ry="0.413912" transform="rotate(-6.23454 111.295 294.494)" fill="white"/>
<ellipse cx="111.453" cy="295.934" rx="0.414127" ry="0.413912" transform="rotate(-6.23454 111.453 295.934)" fill="white"/>
<ellipse cx="111.589" cy="283.844" rx="0.414129" ry="0.413912" transform="rotate(-6.23454 111.589 283.844)" fill="white"/>
<ellipse cx="111.748" cy="285.284" rx="0.414129" ry="0.413914" transform="rotate(-6.23454 111.748 285.284)" fill="white"/>
<ellipse cx="111.927" cy="286.93" rx="0.414133" ry="0.413912" transform="rotate(-6.23454 111.927 286.93)" fill="white"/>
<ellipse cx="112.084" cy="288.37" rx="0.414131" ry="0.413908" transform="rotate(-6.23454 112.084 288.37)" fill="white"/>
<ellipse cx="112.242" cy="289.811" rx="0.414131" ry="0.413914" transform="rotate(-6.23454 112.242 289.811)" fill="white"/>
<ellipse cx="112.4" cy="291.251" rx="0.414125" ry="0.413912" transform="rotate(-6.23454 112.4 291.251)" fill="white"/>
<ellipse cx="112.556" cy="292.691" rx="0.414129" ry="0.413912" transform="rotate(-6.23454 112.556 292.691)" fill="white"/>
<ellipse cx="112.736" cy="294.337" rx="0.414131" ry="0.413914" transform="rotate(-6.23454 112.736 294.337)" fill="white"/>
<ellipse cx="112.894" cy="295.777" rx="0.414133" ry="0.413912" transform="rotate(-6.23454 112.894 295.777)" fill="white"/>
<ellipse cx="113.031" cy="283.687" rx="0.414129" ry="0.413912" transform="rotate(-6.23454 113.031 283.687)" fill="white"/>
<ellipse cx="113.189" cy="285.127" rx="0.414129" ry="0.413916" transform="rotate(-6.23454 113.189 285.127)" fill="white"/>
<ellipse cx="113.369" cy="286.773" rx="0.414129" ry="0.413914" transform="rotate(-6.23454 113.369 286.773)" fill="white"/>
<ellipse cx="113.525" cy="288.213" rx="0.414127" ry="0.41391" transform="rotate(-6.23454 113.525 288.213)" fill="white"/>
<ellipse cx="113.683" cy="289.653" rx="0.414127" ry="0.41391" transform="rotate(-6.23454 113.683 289.653)" fill="white"/>
<ellipse cx="113.839" cy="291.093" rx="0.414127" ry="0.413914" transform="rotate(-6.23454 113.839 291.093)" fill="white"/>
<ellipse cx="113.998" cy="292.533" rx="0.414129" ry="0.413912" transform="rotate(-6.23454 113.998 292.533)" fill="white"/>
<ellipse cx="114.177" cy="294.179" rx="0.414127" ry="0.413912" transform="rotate(-6.23454 114.177 294.179)" fill="white"/>
<ellipse cx="114.334" cy="295.619" rx="0.414129" ry="0.413912" transform="rotate(-6.23454 114.334 295.619)" fill="white"/>
<ellipse cx="114.677" cy="283.507" rx="0.414127" ry="0.413916" transform="rotate(-6.23454 114.677 283.507)" fill="white"/>
<ellipse cx="114.836" cy="284.947" rx="0.414129" ry="0.413908" transform="rotate(-6.23454 114.836 284.947)" fill="white"/>
<ellipse cx="115.015" cy="286.593" rx="0.414129" ry="0.413914" transform="rotate(-6.23454 115.015 286.593)" fill="white"/>
<ellipse cx="115.171" cy="288.033" rx="0.414127" ry="0.413912" transform="rotate(-6.23454 115.171 288.033)" fill="white"/>
<ellipse cx="115.33" cy="289.473" rx="0.414129" ry="0.413914" transform="rotate(-6.23454 115.33 289.473)" fill="white"/>
<ellipse cx="115.486" cy="290.913" rx="0.414129" ry="0.413912" transform="rotate(-6.23454 115.486 290.913)" fill="white"/>
<ellipse cx="115.644" cy="292.353" rx="0.414131" ry="0.413912" transform="rotate(-6.23454 115.644 292.353)" fill="white"/>
<ellipse cx="115.824" cy="293.999" rx="0.414127" ry="0.413914" transform="rotate(-6.23454 115.824 293.999)" fill="white"/>
<ellipse cx="115.982" cy="295.439" rx="0.414127" ry="0.413912" transform="rotate(-6.23454 115.982 295.439)" fill="white"/>
<ellipse cx="116.119" cy="283.35" rx="0.414131" ry="0.413914" transform="rotate(-6.23454 116.119 283.35)" fill="white"/>
<ellipse cx="116.275" cy="284.79" rx="0.414127" ry="0.413908" transform="rotate(-6.23454 116.275 284.79)" fill="white"/>
<ellipse cx="116.455" cy="286.436" rx="0.414129" ry="0.413914" transform="rotate(-6.23454 116.455 286.436)" fill="white"/>
<ellipse cx="116.613" cy="287.876" rx="0.414131" ry="0.413912" transform="rotate(-6.23454 116.613 287.876)" fill="white"/>
<ellipse cx="116.771" cy="289.316" rx="0.414129" ry="0.413914" transform="rotate(-6.23454 116.771 289.316)" fill="white"/>
<ellipse cx="116.927" cy="290.756" rx="0.414125" ry="0.413914" transform="rotate(-6.23454 116.927 290.756)" fill="white"/>
<ellipse cx="117.086" cy="292.196" rx="0.414129" ry="0.413914" transform="rotate(-6.23454 117.086 292.196)" fill="white"/>
<ellipse cx="117.265" cy="293.842" rx="0.414131" ry="0.413912" transform="rotate(-6.23454 117.265 293.842)" fill="white"/>
<ellipse cx="117.421" cy="295.282" rx="0.414131" ry="0.413914" transform="rotate(-6.23454 117.421 295.282)" fill="white"/>
<ellipse cx="117.56" cy="283.192" rx="0.414133" ry="0.413912" transform="rotate(-6.23454 117.56 283.192)" fill="white"/>
<ellipse cx="117.716" cy="284.632" rx="0.414131" ry="0.41391" transform="rotate(-6.23454 117.716 284.632)" fill="white"/>
<ellipse cx="117.896" cy="286.278" rx="0.414127" ry="0.413912" transform="rotate(-6.23454 117.896 286.278)" fill="white"/>
<ellipse cx="118.054" cy="287.718" rx="0.414129" ry="0.413914" transform="rotate(-6.23454 118.054 287.718)" fill="white"/>
<ellipse cx="118.211" cy="289.158" rx="0.414129" ry="0.413912" transform="rotate(-6.23454 118.211 289.158)" fill="white"/>
<ellipse cx="118.369" cy="290.599" rx="0.414131" ry="0.413912" transform="rotate(-6.23454 118.369 290.599)" fill="white"/>
<ellipse cx="118.525" cy="292.039" rx="0.414131" ry="0.41391" transform="rotate(-6.23454 118.525 292.039)" fill="white"/>
<ellipse cx="118.707" cy="293.685" rx="0.414129" ry="0.413912" transform="rotate(-6.23454 118.707 293.685)" fill="white"/>
<ellipse cx="118.863" cy="295.125" rx="0.414131" ry="0.413912" transform="rotate(-6.23454 118.863 295.125)" fill="white"/>
<ellipse cx="119" cy="283.035" rx="0.414129" ry="0.41391" transform="rotate(-6.23454 119 283.035)" fill="white"/>
<ellipse cx="119.158" cy="284.475" rx="0.414133" ry="0.413912" transform="rotate(-6.23454 119.158 284.475)" fill="white"/>
<ellipse cx="119.337" cy="286.121" rx="0.414131" ry="0.413914" transform="rotate(-6.23454 119.337 286.121)" fill="white"/>
<ellipse cx="119.494" cy="287.561" rx="0.414131" ry="0.41391" transform="rotate(-6.23454 119.494 287.561)" fill="white"/>
<ellipse cx="119.652" cy="289.001" rx="0.414129" ry="0.413916" transform="rotate(-6.23454 119.652 289.001)" fill="white"/>
<ellipse cx="119.81" cy="290.441" rx="0.414131" ry="0.41391" transform="rotate(-6.23454 119.81 290.441)" fill="white"/>
<ellipse cx="119.966" cy="291.881" rx="0.414131" ry="0.41391" transform="rotate(-6.23454 119.966 291.881)" fill="white"/>
<ellipse cx="120.146" cy="293.527" rx="0.414137" ry="0.413914" transform="rotate(-6.23454 120.146 293.527)" fill="white"/>
<ellipse cx="120.304" cy="294.967" rx="0.414129" ry="0.413912" transform="rotate(-6.23454 120.304 294.967)" fill="white"/>
<ellipse cx="120.461" cy="296.407" rx="0.414133" ry="0.413914" transform="rotate(-6.23454 120.461 296.407)" fill="white"/>
<ellipse cx="120.599" cy="284.318" rx="0.414127" ry="0.413912" transform="rotate(-6.23454 120.599 284.318)" fill="white"/>
<ellipse cx="120.779" cy="285.963" rx="0.414125" ry="0.413914" transform="rotate(-6.23454 120.779 285.963)" fill="white"/>
<ellipse cx="120.935" cy="287.403" rx="0.414129" ry="0.413912" transform="rotate(-6.23454 120.935 287.403)" fill="white"/>
<ellipse cx="121.093" cy="288.844" rx="0.414129" ry="0.413912" transform="rotate(-6.23454 121.093 288.844)" fill="white"/>
<ellipse cx="121.25" cy="290.284" rx="0.41412" ry="0.41391" transform="rotate(-6.23454 121.25 290.284)" fill="white"/>
<ellipse cx="121.408" cy="291.724" rx="0.414131" ry="0.413914" transform="rotate(-6.23454 121.408 291.724)" fill="white"/>
<ellipse cx="121.587" cy="293.37" rx="0.414127" ry="0.41391" transform="rotate(-6.23454 121.587 293.37)" fill="white"/>
<ellipse cx="121.746" cy="294.81" rx="0.414129" ry="0.413912" transform="rotate(-6.23454 121.746 294.81)" fill="white"/>
<ellipse cx="121.902" cy="296.25" rx="0.414125" ry="0.413914" transform="rotate(-6.23454 121.902 296.25)" fill="white"/>
<ellipse cx="122.246" cy="284.138" rx="0.414131" ry="0.41391" transform="rotate(-6.23454 122.246 284.138)" fill="white"/>
<ellipse cx="122.425" cy="285.783" rx="0.414135" ry="0.413914" transform="rotate(-6.23454 122.425 285.783)" fill="white"/>
<ellipse cx="122.582" cy="287.224" rx="0.414133" ry="0.413912" transform="rotate(-6.23454 122.582 287.224)" fill="white"/>
<ellipse cx="122.74" cy="288.664" rx="0.414133" ry="0.413912" transform="rotate(-6.23454 122.74 288.664)" fill="white"/>
<ellipse cx="122.896" cy="290.104" rx="0.414133" ry="0.413914" transform="rotate(-6.23454 122.896 290.104)" fill="white"/>
<ellipse cx="123.054" cy="291.544" rx="0.414133" ry="0.413912" transform="rotate(-6.23454 123.054 291.544)" fill="white"/>
<ellipse cx="123.234" cy="293.19" rx="0.414133" ry="0.413912" transform="rotate(-6.23454 123.234 293.19)" fill="white"/>
<ellipse cx="123.392" cy="294.63" rx="0.414133" ry="0.413912" transform="rotate(-6.23454 123.392 294.63)" fill="white"/>
<ellipse cx="123.548" cy="296.07" rx="0.414131" ry="0.41391" transform="rotate(-6.23454 123.548 296.07)" fill="white"/>
<ellipse cx="123.687" cy="283.98" rx="0.414135" ry="0.413912" transform="rotate(-6.23454 123.687 283.98)" fill="white"/>
<ellipse cx="123.867" cy="285.626" rx="0.414125" ry="0.413912" transform="rotate(-6.23454 123.867 285.626)" fill="white"/>
<ellipse cx="124.023" cy="287.066" rx="0.414125" ry="0.413914" transform="rotate(-6.23454 124.023 287.066)" fill="white"/>
<ellipse cx="124.181" cy="288.506" rx="0.414127" ry="0.413914" transform="rotate(-6.23454 124.181 288.506)" fill="white"/>
<ellipse cx="124.337" cy="289.946" rx="0.414127" ry="0.413914" transform="rotate(-6.23454 124.337 289.946)" fill="white"/>
<ellipse cx="124.496" cy="291.387" rx="0.414133" ry="0.413912" transform="rotate(-6.23454 124.496 291.387)" fill="white"/>
<ellipse cx="124.675" cy="293.032" rx="0.414127" ry="0.413912" transform="rotate(-6.23454 124.675 293.032)" fill="white"/>
<ellipse cx="124.832" cy="294.473" rx="0.414127" ry="0.413914" transform="rotate(-6.23454 124.832 294.473)" fill="white"/>
<ellipse cx="124.99" cy="295.913" rx="0.414129" ry="0.413916" transform="rotate(-6.23454 124.99 295.913)" fill="white"/>
<ellipse cx="125.127" cy="283.823" rx="0.414129" ry="0.413912" transform="rotate(-6.23454 125.127 283.823)" fill="white"/>
<ellipse cx="125.306" cy="285.469" rx="0.414127" ry="0.413912" transform="rotate(-6.23454 125.306 285.469)" fill="white"/>
<ellipse cx="125.464" cy="286.909" rx="0.414131" ry="0.413912" transform="rotate(-6.23454 125.464 286.909)" fill="white"/>
<ellipse cx="125.621" cy="288.349" rx="0.414124" ry="0.41391" transform="rotate(-6.23454 125.621 288.349)" fill="white"/>
<ellipse cx="125.779" cy="289.789" rx="0.414125" ry="0.413912" transform="rotate(-6.23454 125.779 289.789)" fill="white"/>
<ellipse cx="125.935" cy="291.229" rx="0.414129" ry="0.41391" transform="rotate(-6.23454 125.935 291.229)" fill="white"/>
<ellipse cx="126.117" cy="292.875" rx="0.414133" ry="0.413912" transform="rotate(-6.23454 126.117 292.875)" fill="white"/>
<ellipse cx="126.273" cy="294.315" rx="0.414129" ry="0.413912" transform="rotate(-6.23454 126.273 294.315)" fill="white"/>
<ellipse cx="126.431" cy="295.755" rx="0.414125" ry="0.413912" transform="rotate(-6.23454 126.431 295.755)" fill="white"/>
<ellipse cx="126.568" cy="283.665" rx="0.414131" ry="0.413914" transform="rotate(-6.23454 126.568 283.665)" fill="white"/>
<ellipse cx="126.748" cy="285.311" rx="0.414129" ry="0.413916" transform="rotate(-6.23454 126.748 285.311)" fill="white"/>
<ellipse cx="126.906" cy="286.751" rx="0.414133" ry="0.413912" transform="rotate(-6.23454 126.906 286.751)" fill="white"/>
<ellipse cx="127.062" cy="288.191" rx="0.414133" ry="0.413916" transform="rotate(-6.23454 127.062 288.191)" fill="white"/>
<ellipse cx="127.22" cy="289.632" rx="0.414131" ry="0.413912" transform="rotate(-6.23454 127.22 289.632)" fill="white"/>
<ellipse cx="127.377" cy="291.072" rx="0.414133" ry="0.413914" transform="rotate(-6.23454 127.377 291.072)" fill="white"/>
<ellipse cx="127.556" cy="292.718" rx="0.414129" ry="0.413912" transform="rotate(-6.23454 127.556 292.718)" fill="white"/>
<ellipse cx="127.714" cy="294.158" rx="0.414129" ry="0.413912" transform="rotate(-6.23454 127.714 294.158)" fill="white"/>
<ellipse cx="127.871" cy="295.598" rx="0.414133" ry="0.413912" transform="rotate(-6.23454 127.871 295.598)" fill="white"/>
<ellipse cx="128.214" cy="283.486" rx="0.414133" ry="0.413914" transform="rotate(-6.23454 128.214 283.486)" fill="white"/>
<ellipse cx="128.394" cy="285.131" rx="0.414131" ry="0.413912" transform="rotate(-6.23454 128.394 285.131)" fill="white"/>
<ellipse cx="128.552" cy="286.571" rx="0.414131" ry="0.413914" transform="rotate(-6.23454 128.552 286.571)" fill="white"/>
<ellipse cx="128.709" cy="288.012" rx="0.414127" ry="0.413912" transform="rotate(-6.23454 128.709 288.012)" fill="white"/>
<ellipse cx="128.867" cy="289.452" rx="0.414131" ry="0.413912" transform="rotate(-6.23454 128.867 289.452)" fill="white"/>
<ellipse cx="129.023" cy="290.892" rx="0.414131" ry="0.413912" transform="rotate(-6.23454 129.023 290.892)" fill="white"/>
<ellipse cx="129.203" cy="292.538" rx="0.414125" ry="0.41391" transform="rotate(-6.23454 129.203 292.538)" fill="white"/>
<ellipse cx="129.361" cy="293.978" rx="0.414135" ry="0.413912" transform="rotate(-6.23454 129.361 293.978)" fill="white"/>
<ellipse cx="129.517" cy="295.418" rx="0.414131" ry="0.41391" transform="rotate(-6.23454 129.517 295.418)" fill="white"/>
<ellipse cx="129.656" cy="283.328" rx="0.414127" ry="0.413908" transform="rotate(-6.23454 129.656 283.328)" fill="white"/>
<ellipse cx="129.836" cy="284.974" rx="0.414129" ry="0.413914" transform="rotate(-6.23454 129.836 284.974)" fill="white"/>
<ellipse cx="129.992" cy="286.414" rx="0.414131" ry="0.41391" transform="rotate(-6.23454 129.992 286.414)" fill="white"/>
<ellipse cx="130.15" cy="287.854" rx="0.414125" ry="0.413912" transform="rotate(-6.23454 130.15 287.854)" fill="white"/>
<ellipse cx="130.306" cy="289.294" rx="0.414125" ry="0.413916" transform="rotate(-6.23454 130.306 289.294)" fill="white"/>
<ellipse cx="130.464" cy="290.734" rx="0.414131" ry="0.413912" transform="rotate(-6.23454 130.464 290.734)" fill="white"/>
</g>
<mask id="mask2" style="mask-type:alpha" maskUnits="userSpaceOnUse" x="31" y="279" width="22" height="11">
<path d="M31.2129 283.86V289.229L52.3852 279.504C46.6312 279.991 35.8728 282.611 31.2129 283.86Z" fill="black"/>
</mask>
<g mask="url(#mask2)">
<ellipse cx="30.9801" cy="279.518" rx="0.414129" ry="0.413913" transform="rotate(-6.23453 30.9801 279.518)" fill="white"/>
<ellipse cx="31.1363" cy="280.958" rx="0.41413" ry="0.413911" transform="rotate(-6.23453 31.1363 280.958)" fill="white"/>
<ellipse cx="31.2945" cy="282.399" rx="0.414129" ry="0.413912" transform="rotate(-6.23453 31.2945 282.399)" fill="white"/>
<ellipse cx="31.4527" cy="283.839" rx="0.414129" ry="0.413912" transform="rotate(-6.23453 31.4527 283.839)" fill="white"/>
<ellipse cx="31.6324" cy="285.485" rx="0.414129" ry="0.41391" transform="rotate(-6.23453 31.6324 285.485)" fill="white"/>
<ellipse cx="31.7887" cy="286.925" rx="0.41413" ry="0.413911" transform="rotate(-6.23453 31.7887 286.925)" fill="white"/>
<ellipse cx="31.9469" cy="288.365" rx="0.414129" ry="0.413914" transform="rotate(-6.23453 31.9469 288.365)" fill="white"/>
<ellipse cx="32.6266" cy="279.338" rx="0.41413" ry="0.413913" transform="rotate(-6.23453 32.6266 279.338)" fill="white"/>
<ellipse cx="32.7848" cy="280.778" rx="0.41413" ry="0.413913" transform="rotate(-6.23453 32.7848 280.778)" fill="white"/>
<ellipse cx="32.941" cy="282.219" rx="0.41413" ry="0.413911" transform="rotate(-6.23453 32.941 282.219)" fill="white"/>
<ellipse cx="33.0992" cy="283.659" rx="0.41413" ry="0.413912" transform="rotate(-6.23453 33.0992 283.659)" fill="white"/>
<ellipse cx="33.2789" cy="285.305" rx="0.41413" ry="0.413912" transform="rotate(-6.23453 33.2789 285.305)" fill="white"/>
<ellipse cx="33.4351" cy="286.745" rx="0.414129" ry="0.413913" transform="rotate(-6.23453 33.4351 286.745)" fill="white"/>
<ellipse cx="33.5933" cy="288.185" rx="0.41413" ry="0.413911" transform="rotate(-6.23453 33.5933 288.185)" fill="white"/>
<ellipse cx="33.7496" cy="289.625" rx="0.41413" ry="0.413913" transform="rotate(-6.23453 33.7496 289.625)" fill="white"/>
<ellipse cx="34.068" cy="279.181" rx="0.414129" ry="0.413912" transform="rotate(-6.23453 34.068 279.181)" fill="white"/>
<ellipse cx="34.2242" cy="280.621" rx="0.414129" ry="0.413911" transform="rotate(-6.23453 34.2242 280.621)" fill="white"/>
<ellipse cx="34.3824" cy="282.061" rx="0.414129" ry="0.413911" transform="rotate(-6.23453 34.3824 282.061)" fill="white"/>
<ellipse cx="34.5387" cy="283.501" rx="0.41413" ry="0.413912" transform="rotate(-6.23453 34.5387 283.501)" fill="white"/>
<ellipse cx="34.7183" cy="285.147" rx="0.41413" ry="0.413913" transform="rotate(-6.23453 34.7183 285.147)" fill="white"/>
<ellipse cx="34.8766" cy="286.587" rx="0.41413" ry="0.413914" transform="rotate(-6.23453 34.8766 286.587)" fill="white"/>
<ellipse cx="35.0348" cy="288.027" rx="0.41413" ry="0.413914" transform="rotate(-6.23453 35.0348 288.027)" fill="white"/>
<ellipse cx="35.191" cy="289.468" rx="0.414129" ry="0.41391" transform="rotate(-6.23453 35.191 289.468)" fill="white"/>
<ellipse cx="35.6656" cy="280.464" rx="0.41413" ry="0.413913" transform="rotate(-6.23453 35.6656 280.464)" fill="white"/>
<ellipse cx="35.8238" cy="281.904" rx="0.414129" ry="0.413912" transform="rotate(-6.23453 35.8238 281.904)" fill="white"/>
<ellipse cx="35.9801" cy="283.344" rx="0.414129" ry="0.413911" transform="rotate(-6.23453 35.9801 283.344)" fill="white"/>
<ellipse cx="36.1598" cy="284.99" rx="0.41413" ry="0.413911" transform="rotate(-6.23453 36.1598 284.99)" fill="white"/>
<ellipse cx="36.318" cy="286.43" rx="0.414129" ry="0.413913" transform="rotate(-6.23453 36.318 286.43)" fill="white"/>
<ellipse cx="36.4742" cy="287.87" rx="0.41413" ry="0.413911" transform="rotate(-6.23453 36.4742 287.87)" fill="white"/>
<ellipse cx="36.6324" cy="289.31" rx="0.41413" ry="0.41391" transform="rotate(-6.23453 36.6324 289.31)" fill="white"/>
<ellipse cx="37.107" cy="280.306" rx="0.41413" ry="0.413912" transform="rotate(-6.23453 37.107 280.306)" fill="white"/>
<ellipse cx="37.2633" cy="281.746" rx="0.41413" ry="0.413911" transform="rotate(-6.23453 37.2633 281.746)" fill="white"/>
<ellipse cx="37.4215" cy="283.187" rx="0.414131" ry="0.413911" transform="rotate(-6.23453 37.4215 283.187)" fill="white"/>
<ellipse cx="37.6012" cy="284.832" rx="0.41413" ry="0.413913" transform="rotate(-6.23453 37.6012 284.832)" fill="white"/>
<ellipse cx="37.7574" cy="286.272" rx="0.41413" ry="0.41391" transform="rotate(-6.23453 37.7574 286.272)" fill="white"/>
<ellipse cx="37.9156" cy="287.713" rx="0.414131" ry="0.413911" transform="rotate(-6.23453 37.9156 287.713)" fill="white"/>
<ellipse cx="38.0738" cy="289.153" rx="0.41413" ry="0.413912" transform="rotate(-6.23453 38.0738 289.153)" fill="white"/>
<ellipse cx="38.6494" cy="280.138" rx="0.517662" ry="0.413911" transform="rotate(-6.23453 38.6494 280.138)" fill="white"/>
<ellipse cx="38.8076" cy="281.578" rx="0.517662" ry="0.413913" transform="rotate(-6.23453 38.8076 281.578)" fill="white"/>
<ellipse cx="38.9658" cy="283.018" rx="0.517662" ry="0.413912" transform="rotate(-6.23453 38.9658 283.018)" fill="white"/>
<ellipse cx="39.1455" cy="284.664" rx="0.517663" ry="0.413914" transform="rotate(-6.23453 39.1455 284.664)" fill="white"/>
<ellipse cx="39.3017" cy="286.104" rx="0.517662" ry="0.413914" transform="rotate(-6.23453 39.3017 286.104)" fill="white"/>
<ellipse cx="39.4599" cy="287.544" rx="0.517662" ry="0.41391" transform="rotate(-6.23453 39.4599 287.544)" fill="white"/>
<ellipse cx="39.6162" cy="288.984" rx="0.517662" ry="0.413912" transform="rotate(-6.23453 39.6162 288.984)" fill="white"/>
<ellipse cx="40.1949" cy="279.969" rx="0.414129" ry="0.413911" transform="rotate(-6.23453 40.1949 279.969)" fill="white"/>
<ellipse cx="40.3512" cy="281.409" rx="0.414129" ry="0.413912" transform="rotate(-6.23453 40.3512 281.409)" fill="white"/>
<ellipse cx="40.5094" cy="282.849" rx="0.414129" ry="0.413912" transform="rotate(-6.23453 40.5094 282.849)" fill="white"/>
<ellipse cx="40.6891" cy="284.495" rx="0.41413" ry="0.413912" transform="rotate(-6.23453 40.6891 284.495)" fill="white"/>
<ellipse cx="40.8453" cy="285.935" rx="0.41413" ry="0.413913" transform="rotate(-6.23453 40.8453 285.935)" fill="white"/>
<ellipse cx="41.0035" cy="287.375" rx="0.414129" ry="0.413912" transform="rotate(-6.23453 41.0035 287.375)" fill="white"/>
<ellipse cx="41.1598" cy="288.815" rx="0.41413" ry="0.413913" transform="rotate(-6.23453 41.1598 288.815)" fill="white"/>
<ellipse cx="41.6344" cy="279.812" rx="0.414129" ry="0.413912" transform="rotate(-6.23453 41.6344 279.812)" fill="white"/>
<ellipse cx="41.7926" cy="281.252" rx="0.414129" ry="0.413912" transform="rotate(-6.23453 41.7926 281.252)" fill="white"/>
<ellipse cx="41.9488" cy="282.692" rx="0.41413" ry="0.413912" transform="rotate(-6.23453 41.9488 282.692)" fill="white"/>
<ellipse cx="42.1305" cy="284.338" rx="0.41413" ry="0.413914" transform="rotate(-6.23453 42.1305 284.338)" fill="white"/>
<ellipse cx="42.2867" cy="285.778" rx="0.41413" ry="0.413914" transform="rotate(-6.23453 42.2867 285.778)" fill="white"/>
<ellipse cx="42.4449" cy="287.218" rx="0.414128" ry="0.41391" transform="rotate(-6.23453 42.4449 287.218)" fill="white"/>
<ellipse cx="42.6012" cy="288.658" rx="0.41413" ry="0.41391" transform="rotate(-6.23453 42.6012 288.658)" fill="white"/>
<ellipse cx="43.0758" cy="279.654" rx="0.41413" ry="0.413913" transform="rotate(-6.23453 43.0758 279.654)" fill="white"/>
<ellipse cx="43.234" cy="281.094" rx="0.414128" ry="0.413913" transform="rotate(-6.23453 43.234 281.094)" fill="white"/>
<ellipse cx="43.3902" cy="282.534" rx="0.414129" ry="0.413912" transform="rotate(-6.23453 43.3902 282.534)" fill="white"/>
<ellipse cx="43.5699" cy="284.18" rx="0.414129" ry="0.413911" transform="rotate(-6.23453 43.5699 284.18)" fill="white"/>
<ellipse cx="43.7281" cy="285.62" rx="0.414128" ry="0.413911" transform="rotate(-6.23453 43.7281 285.62)" fill="white"/>
<ellipse cx="43.8844" cy="287.061" rx="0.414129" ry="0.41391" transform="rotate(-6.23453 43.8844 287.061)" fill="white"/>
<ellipse cx="44.0426" cy="288.501" rx="0.414129" ry="0.413912" transform="rotate(-6.23453 44.0426 288.501)" fill="white"/>
<ellipse cx="44.5172" cy="279.497" rx="0.414127" ry="0.413912" transform="rotate(-6.23453 44.5172 279.497)" fill="white"/>
<ellipse cx="44.6734" cy="280.937" rx="0.414129" ry="0.413911" transform="rotate(-6.23453 44.6734 280.937)" fill="white"/>
<ellipse cx="44.8316" cy="282.377" rx="0.41413" ry="0.413911" transform="rotate(-6.23453 44.8316 282.377)" fill="white"/>
<ellipse cx="45.0113" cy="284.023" rx="0.414126" ry="0.413912" transform="rotate(-6.23453 45.0113 284.023)" fill="white"/>
<ellipse cx="45.1695" cy="285.463" rx="0.414127" ry="0.413912" transform="rotate(-6.23453 45.1695 285.463)" fill="white"/>
<ellipse cx="45.3258" cy="286.903" rx="0.414129" ry="0.413912" transform="rotate(-6.23453 45.3258 286.903)" fill="white"/>
<ellipse cx="45.484" cy="288.343" rx="0.414129" ry="0.41391" transform="rotate(-6.23453 45.484 288.343)" fill="white"/>
<ellipse cx="46.1637" cy="279.317" rx="0.414127" ry="0.413911" transform="rotate(-6.23453 46.1637 279.317)" fill="white"/>
<ellipse cx="46.3199" cy="280.757" rx="0.414128" ry="0.413911" transform="rotate(-6.23453 46.3199 280.757)" fill="white"/>
<ellipse cx="46.4781" cy="282.197" rx="0.414129" ry="0.413911" transform="rotate(-6.23453 46.4781 282.197)" fill="white"/>
<ellipse cx="46.6578" cy="283.843" rx="0.414129" ry="0.413912" transform="rotate(-6.23453 46.6578 283.843)" fill="white"/>
<ellipse cx="46.816" cy="285.283" rx="0.414128" ry="0.413914" transform="rotate(-6.23453 46.816 285.283)" fill="white"/>
<ellipse cx="46.9723" cy="286.723" rx="0.41413" ry="0.413912" transform="rotate(-6.23453 46.9723 286.723)" fill="white"/>
<ellipse cx="47.1305" cy="288.163" rx="0.41413" ry="0.413914" transform="rotate(-6.23453 47.1305 288.163)" fill="white"/>
<ellipse cx="47.2867" cy="289.604" rx="0.414129" ry="0.413911" transform="rotate(-6.23453 47.2867 289.604)" fill="white"/>
<ellipse cx="47.6051" cy="279.159" rx="0.414128" ry="0.413913" transform="rotate(-6.23453 47.6051 279.159)" fill="white"/>
<ellipse cx="47.7613" cy="280.6" rx="0.414128" ry="0.413911" transform="rotate(-6.23453 47.7613 280.6)" fill="white"/>
<ellipse cx="47.9195" cy="282.04" rx="0.414127" ry="0.413911" transform="rotate(-6.23453 47.9195 282.04)" fill="white"/>
<ellipse cx="48.0992" cy="283.686" rx="0.41413" ry="0.413913" transform="rotate(-6.23453 48.0992 283.686)" fill="white"/>
<ellipse cx="48.2555" cy="285.126" rx="0.414131" ry="0.413912" transform="rotate(-6.23453 48.2555 285.126)" fill="white"/>
<ellipse cx="48.4137" cy="286.566" rx="0.414128" ry="0.413911" transform="rotate(-6.23453 48.4137 286.566)" fill="white"/>
<ellipse cx="48.5699" cy="288.006" rx="0.414128" ry="0.413911" transform="rotate(-6.23453 48.5699 288.006)" fill="white"/>
<ellipse cx="48.7281" cy="289.446" rx="0.41413" ry="0.413909" transform="rotate(-6.23453 48.7281 289.446)" fill="white"/>
<ellipse cx="49.2027" cy="280.442" rx="0.414128" ry="0.413911" transform="rotate(-6.23453 49.2027 280.442)" fill="white"/>
<ellipse cx="49.3609" cy="281.882" rx="0.414129" ry="0.413913" transform="rotate(-6.23453 49.3609 281.882)" fill="white"/>
<ellipse cx="49.5406" cy="283.528" rx="0.414128" ry="0.413912" transform="rotate(-6.23453 49.5406 283.528)" fill="white"/>
<ellipse cx="49.6969" cy="284.968" rx="0.414128" ry="0.413912" transform="rotate(-6.23453 49.6969 284.968)" fill="white"/>
<ellipse cx="49.8551" cy="286.408" rx="0.414129" ry="0.41391" transform="rotate(-6.23453 49.8551 286.408)" fill="white"/>
<ellipse cx="50.0113" cy="287.849" rx="0.41413" ry="0.413911" transform="rotate(-6.23453 50.0113 287.849)" fill="white"/>
<ellipse cx="50.1695" cy="289.289" rx="0.414129" ry="0.413912" transform="rotate(-6.23453 50.1695 289.289)" fill="white"/>
<ellipse cx="50.6441" cy="280.285" rx="0.414126" ry="0.413912" transform="rotate(-6.23453 50.6441 280.285)" fill="white"/>
<ellipse cx="50.8004" cy="281.725" rx="0.414128" ry="0.413912" transform="rotate(-6.23453 50.8004 281.725)" fill="white"/>
<ellipse cx="50.9801" cy="283.371" rx="0.414129" ry="0.413913" transform="rotate(-6.23453 50.9801 283.371)" fill="white"/>
<ellipse cx="51.1383" cy="284.811" rx="0.41413" ry="0.413915" transform="rotate(-6.23453 51.1383 284.811)" fill="white"/>
<ellipse cx="51.2945" cy="286.251" rx="0.414126" ry="0.413913" transform="rotate(-6.23453 51.2945 286.251)" fill="white"/>
<ellipse cx="51.4527" cy="287.691" rx="0.414128" ry="0.413913" transform="rotate(-6.23453 51.4527 287.691)" fill="white"/>
<ellipse cx="51.609" cy="289.131" rx="0.41413" ry="0.413913" transform="rotate(-6.23453 51.609 289.131)" fill="white"/>
<ellipse cx="52.0836" cy="280.127" rx="0.414128" ry="0.413911" transform="rotate(-6.23453 52.0836 280.127)" fill="white"/>
<ellipse cx="52.2418" cy="281.568" rx="0.414126" ry="0.413911" transform="rotate(-6.23453 52.2418 281.568)" fill="white"/>
<ellipse cx="52.4215" cy="283.213" rx="0.414129" ry="0.413911" transform="rotate(-6.23453 52.4215 283.213)" fill="white"/>
<ellipse cx="52.5797" cy="284.653" rx="0.414131" ry="0.413911" transform="rotate(-6.23453 52.5797 284.653)" fill="white"/>
<ellipse cx="52.7359" cy="286.094" rx="0.414131" ry="0.413913" transform="rotate(-6.23453 52.7359 286.094)" fill="white"/>
</g>
<path d="M65.0651 308.5C65.0651 312.259 61.722 315.094 57.9635 315.094C54.205 315.094 51.0117 312.252 51.0117 308.494C51.0117 304.364 54.2698 301.564 58.0283 301.564C61.7869 301.564 65.0651 304.6 65.0651 308.5Z" fill="#252525"/>
<path d="M149.819 308.5C149.819 312.259 146.476 315.094 142.717 315.094C138.959 315.094 135.766 312.252 135.766 308.494C135.766 304.364 139.743 301.41 142.919 301.72C146.678 301.72 149.819 304.6 149.819 308.5Z" fill="#252525"/>
<path d="M351.764 466.468C351.764 477.79 361.166 486.968 372.764 486.968C384.362 486.968 393.764 477.79 393.764 466.468C393.764 455.146 384.362 445.968 372.764 445.968C361.166 445.968 351.764 455.146 351.764 466.468Z" fill="white"/>
<path d="M368.856 462.263V467.896L364.016 462.263H362.527V470.803H364.301V465.322L369.148 470.803H370.637V467.485H374.878V465.919H370.637V463.829H378.488V470.803H380.269V463.829H383.178V462.263H368.856Z" fill="black"/>
<path fill-rule="evenodd" clip-rule="evenodd" d="M345.726 672.459C343.705 668.268 342.577 663.592 342.577 658.661C342.577 640.634 357.661 626.02 376.268 626.02C386.628 626.02 395.896 630.551 402.077 637.679L405.764 634.682C398.701 626.535 388.108 621.357 376.268 621.357C355.002 621.357 337.764 638.058 337.764 658.661C337.764 664.296 339.054 669.64 341.363 674.43L345.726 672.459Z" fill="white"/>
<path fill-rule="evenodd" clip-rule="evenodd" d="M376.308 680.708C363.693 680.708 353.467 670.821 353.467 658.625C353.467 646.429 363.693 636.542 376.308 636.542C383.332 636.542 389.615 639.609 393.804 644.431L397.489 641.442C392.417 635.604 384.811 631.893 376.308 631.893C361.037 631.893 348.658 643.862 348.658 658.625C348.658 673.389 361.037 685.357 376.308 685.357V680.708Z" fill="white"/>
<path fill-rule="evenodd" clip-rule="evenodd" d="M384.672 665.258C382.688 667.545 379.713 668.999 376.387 668.999C370.413 668.999 365.57 664.311 365.57 658.527C365.57 652.744 370.413 648.056 376.387 648.056C379.713 648.056 382.688 649.51 384.672 651.797L388.815 648.432C385.839 645.001 381.376 642.82 376.387 642.82C367.426 642.82 360.162 649.853 360.162 658.527C360.162 667.202 367.426 674.235 376.387 674.235C380.959 674.235 385.088 672.402 388.037 669.456L384.672 665.258Z" fill="white"/>
<defs>
<linearGradient id="paint0_linear" x1="339.274" y1="-29.5966" x2="341.03" y2="312.388" gradientUnits="userSpaceOnUse">
<stop offset="0.0671355" stop-color="#6A6A6A" stop-opacity="0.54"/>
<stop offset="0.765625" stop-color="#030303"/>
</linearGradient>
<linearGradient id="paint1_linear" x1="134.329" y1="14.0856" x2="134.329" y2="75.8867" gradientUnits="userSpaceOnUse">
<stop offset="0.0080634"/>
<stop offset="1" stop-color="white" stop-opacity="0"/>
</linearGradient>
<linearGradient id="paint2_linear" x1="139.979" y1="9.86414" x2="139.979" y2="71.6653" gradientUnits="userSpaceOnUse">
<stop offset="0.0080634"/>
<stop offset="1" stop-color="white" stop-opacity="0"/>
</linearGradient>
<linearGradient id="paint3_linear" x1="145.602" y1="5.64282" x2="145.602" y2="67.4439" gradientUnits="userSpaceOnUse">
<stop offset="0.0080634"/>
<stop offset="1" stop-color="white" stop-opacity="0"/>
</linearGradient>
<linearGradient id="paint4_linear" x1="151.254" y1="1.44958" x2="151.254" y2="63.2507" gradientUnits="userSpaceOnUse">
<stop offset="0.0080634"/>
<stop offset="1" stop-color="white" stop-opacity="0"/>
</linearGradient>
<linearGradient id="paint5_linear" x1="567.857" y1="77.5127" x2="556.927" y2="-2.1911" gradientUnits="userSpaceOnUse">
<stop offset="0.0080634"/>
<stop offset="1" stop-color="white" stop-opacity="0"/>
</linearGradient>
<linearGradient id="paint6_linear" x1="637.67" y1="63.3816" x2="616.139" y2="-40.8497" gradientUnits="userSpaceOnUse">
<stop/>
<stop offset="1" stop-color="white" stop-opacity="0"/>
</linearGradient>
<linearGradient id="paint7_linear" x1="609.288" y1="43.1329" x2="583.841" y2="-8.55261" gradientUnits="userSpaceOnUse">
<stop offset="0.0080634"/>
<stop offset="1" stop-color="white" stop-opacity="0"/>
</linearGradient>
<linearGradient id="paint8_linear" x1="577.57" y1="74.0634" x2="567.443" y2="46.6814" gradientUnits="userSpaceOnUse">
<stop offset="0.0080634"/>
<stop offset="1" stop-color="white" stop-opacity="0.65"/>
</linearGradient>
<linearGradient id="paint9_linear" x1="605.159" y1="25.819" x2="605.159" y2="7.61624" gradientUnits="userSpaceOnUse">
<stop offset="0.0080634"/>
<stop offset="1" stop-color="white" stop-opacity="0"/>
</linearGradient>
<linearGradient id="paint10_linear" x1="612.527" y1="25.5105" x2="612.527" y2="6.10718" gradientUnits="userSpaceOnUse">
<stop/>
<stop offset="1" stop-color="white" stop-opacity="0"/>
</linearGradient>
<linearGradient id="paint11_linear" x1="630.92" y1="30.4468" x2="607.962" y2="8.92664" gradientUnits="userSpaceOnUse">
<stop offset="0.0080634"/>
<stop offset="1" stop-color="white" stop-opacity="0"/>
</linearGradient>
<linearGradient id="paint12_linear" x1="658.764" y1="321.234" x2="609.472" y2="339.884" gradientUnits="userSpaceOnUse">
<stop offset="0.0080634"/>
<stop offset="1" stop-color="white" stop-opacity="0"/>
</linearGradient>
<linearGradient id="paint13_linear" x1="644.452" y1="288.684" x2="591.98" y2="316.351" gradientUnits="userSpaceOnUse">
<stop offset="0.0080634"/>
<stop offset="1" stop-color="white" stop-opacity="0"/>
</linearGradient>
<linearGradient id="paint14_linear" x1="621.238" y1="321.757" x2="580.518" y2="331.616" gradientUnits="userSpaceOnUse">
<stop/>
<stop offset="1" stop-color="white" stop-opacity="0"/>
</linearGradient>
<linearGradient id="paint15_linear" x1="689.579" y1="332.441" x2="640.287" y2="351.091" gradientUnits="userSpaceOnUse">
<stop offset="0.0080634"/>
<stop offset="1" stop-color="white" stop-opacity="0"/>
</linearGradient>
<linearGradient id="paint16_linear" x1="675.267" y1="299.891" x2="622.794" y2="327.558" gradientUnits="userSpaceOnUse">
<stop offset="0.0080634"/>
<stop offset="1" stop-color="white" stop-opacity="0"/>
</linearGradient>
<linearGradient id="paint17_linear" x1="652.052" y1="332.965" x2="611.332" y2="342.823" gradientUnits="userSpaceOnUse">
<stop/>
<stop offset="1" stop-color="white" stop-opacity="0"/>
</linearGradient>
<linearGradient id="paint18_linear" x1="673.598" y1="310.882" x2="624.306" y2="329.532" gradientUnits="userSpaceOnUse">
<stop offset="0.0080634"/>
<stop offset="1" stop-color="white" stop-opacity="0"/>
</linearGradient>
<linearGradient id="paint19_linear" x1="659.286" y1="278.332" x2="606.814" y2="306" gradientUnits="userSpaceOnUse">
<stop offset="0.0080634"/>
<stop offset="1" stop-color="white" stop-opacity="0"/>
</linearGradient>
<linearGradient id="paint20_linear" x1="636.072" y1="311.406" x2="595.352" y2="321.264" gradientUnits="userSpaceOnUse">
<stop/>
<stop offset="1" stop-color="white" stop-opacity="0"/>
</linearGradient>
<radialGradient id="paint21_radial" cx="0" cy="0" r="1" gradientUnits="userSpaceOnUse" gradientTransform="translate(348.791 689.857) rotate(89.9999) scale(25.5 348)">
<stop/>
<stop offset="1" stop-opacity="0"/>
</radialGradient>
<linearGradient id="paint22_linear" x1="84.1625" y1="260.986" x2="84.2259" y2="312.423" gradientUnits="userSpaceOnUse">
<stop offset="0.0671355" stop-color="#6A6A6A" stop-opacity="0.54"/>
<stop offset="0.765625" stop-color="#181818"/>
</linearGradient>
<linearGradient id="paint23_linear" x1="139.597" y1="286.26" x2="139.765" y2="320.187" gradientUnits="userSpaceOnUse">
<stop offset="0.0671355" stop-color="#6A6A6A" stop-opacity="0.54"/>
<stop offset="0.765625" stop-color="#030303"/>
</linearGradient>
<linearGradient id="paint24_linear" x1="54.7469" y1="285.922" x2="54.9158" y2="320.369" gradientUnits="userSpaceOnUse">
<stop offset="0.0671355" stop-color="#6A6A6A" stop-opacity="0.54"/>
<stop offset="0.765625" stop-color="#030303"/>
</linearGradient>
<clipPath id="clip0">
<rect width="64" height="75" fill="white" transform="translate(110.791 1.16809)"/>
</clipPath>
</defs>
</svg>
