<svg width="786" height="660" viewBox="0 0 786 660" fill="none" xmlns="http://www.w3.org/2000/svg">
<path d="M369.85 658.134C369.85 658.134 491.759 660.884 676.868 658.134C681.852 532.301 713.248 413.019 784.171 345.898V318.395V299.95C595.825 294.799 102.378 282.215 132.962 292.679C287.395 345.517 353.424 497.682 369.85 658.134Z" fill="#2E2F31"/>
<path d="M369.85 658.134C369.85 658.134 491.759 660.884 676.868 658.134C681.852 532.301 713.248 413.019 784.171 345.898V318.395V299.95C595.825 294.799 102.378 282.215 132.962 292.679C287.395 345.517 353.424 497.682 369.85 658.134Z" fill="url(#paint0_linear)" fill-opacity="0.42"/>
<path d="M369.85 658.134C369.85 658.134 491.759 660.884 676.868 658.134C681.852 532.301 713.248 413.019 784.171 345.898V318.395V299.95C595.825 294.799 102.378 282.215 132.962 292.679C287.395 345.517 353.424 497.682 369.85 658.134Z" fill="url(#paint1_linear)" fill-opacity="0.2"/>
<path d="M369.85 658.134C369.85 658.134 491.759 660.884 676.868 658.134C681.852 532.301 713.248 413.019 784.171 345.898V318.395V299.95C595.825 294.799 102.378 282.215 132.962 292.679C287.395 345.517 353.424 497.682 369.85 658.134Z" fill="url(#paint2_linear)"/>
<path d="M369.85 658.134C369.85 658.134 491.759 660.884 676.868 658.134C681.852 532.301 713.248 413.019 784.171 345.898V318.395V299.95C595.825 294.799 102.378 282.215 132.962 292.679C287.395 345.517 353.424 497.682 369.85 658.134Z" fill="url(#paint3_linear)"/>
<g filter="url(#filter0_d)">
<path d="M494.531 394.481H499.462L502.301 431.843H496.031L494.531 394.481Z" fill="url(#paint4_linear)"/>
<path d="M463.599 393.024H455.299V394.738H463.599V393.024Z" fill="url(#paint5_linear)"/>
<path d="M501.284 392.902H492.984V394.7H501.284V392.902Z" fill="url(#paint6_linear)"/>
<path d="M442.402 386.173C441.317 385.347 440.31 384.423 439.393 383.414C439.584 383.87 439.83 384.301 440.126 384.698C441.465 387.19 442.995 389.575 444.7 391.832C444.768 391.902 444.84 391.968 444.915 392.03C445.627 392.558 446.494 392.835 447.38 392.818C450.194 392.867 453.008 393.088 455.823 393.023C456.39 393.009 458.477 393.023 462.65 393.038C463.699 393.038 465.182 393.05 467.331 393.052C467.737 393.052 468.712 393.052 470.068 393.052C471.877 393.052 472.994 393.039 475.847 393.036C483.296 393.036 484.523 393.088 489.633 393.036H490.198C495.45 392.978 502.58 392.76 502.58 392.76C502.58 392.76 506.31 392.646 510.403 392.485H510.422C510.422 392.485 510.875 391.855 511.321 391.124C511.589 390.687 511.867 390.198 512.023 389.924C512.099 389.79 512.156 389.692 512.16 389.681C513.233 387.788 516.519 383.913 516.419 383.823C515.137 385.37 513.566 386.652 511.794 387.599C511.072 387.949 510.321 388.235 509.548 388.454C506.866 389.225 504.095 389.644 501.305 389.7C497.095 389.955 495.3 389.971 495.3 389.971C484.84 389.971 477.931 390.011 477.931 390.011C464.828 389.853 466.858 389.823 465.377 389.839C460.095 389.923 454.814 389.637 449.573 388.981C447.464 388.574 445.426 387.862 443.522 386.869C443.137 386.657 442.763 386.425 442.402 386.173Z" fill="url(#paint7_linear)"/>
<path d="M513.445 386.68C511.925 387.65 510.243 388.339 508.478 388.714C503.682 389.592 498.814 390.011 493.939 389.965C491.169 389.915 501.945 390.139 476.598 389.997C472.265 389.972 467.93 389.773 463.597 389.852C458.905 389.991 454.209 389.697 449.57 388.975C448.893 388.864 448.222 388.718 447.561 388.536C447.561 388.536 446.578 388.263 445.668 387.905C442.987 386.833 439.19 383.708 439.39 383.423C439.482 383.293 440.289 383.923 442.081 384.618C442.36 384.727 442.67 384.841 443.028 384.957C444.241 385.348 445.487 385.626 446.752 385.787C456.979 387.131 461.154 387.233 461.154 387.233C463.015 387.3 461.831 387.233 474.82 387.322L484.987 387.396C487.473 387.413 490.396 387.43 492.738 387.445C497.531 387.541 502.323 387.24 507.065 386.544C508.801 386.32 510.51 385.926 512.168 385.366C514.909 384.419 516.466 383.315 516.65 383.572C516.835 383.829 515.326 385.479 513.445 386.68Z" fill="url(#paint8_linear)"/>
<path d="M456.874 394.481L454.035 431.843H460.013L461.209 394.481H456.874Z" fill="url(#paint9_linear)"/>
<path d="M461.209 431.843H451.943V439.464H461.209V431.843Z" fill="url(#paint10_linear)"/>
<path d="M504.035 431.843H494.77V439.464H504.035V431.843Z" fill="url(#paint11_linear)"/>
<path d="M513.479 397.323H443.574V401.358H513.479V397.323Z" fill="url(#paint12_linear)"/>
</g>
<path d="M76.9062 242.531C76.9062 299.788 268.297 346.203 504.388 346.203C610.79 346.203 709.613 336.311 784.428 320.712V244.96V164.2C709.416 148.413 611.503 138.859 504.388 138.859C268.297 138.859 76.9062 185.275 76.9062 242.531Z" fill="url(#paint13_radial)" stroke="#D8D8D8" stroke-miterlimit="10"/>
<path d="M424.506 291.02C422.905 268.34 415.942 216.978 377.348 171.843C365.459 157.969 351.647 145.868 336.334 135.908" stroke="#D8D8D8" stroke-miterlimit="10"/>
<path d="M559.088 293.649C560.719 269.665 567.774 218.307 605.493 171.843C617.261 157.378 630.964 144.605 646.216 133.884" stroke="#D8D8D8" stroke-miterlimit="10"/>
<path d="M518.38 293.04C513.688 249.633 518.658 205.724 532.933 164.468C537.234 152.251 542.372 140.345 548.309 128.836" stroke="#D8D8D8" stroke-miterlimit="10"/>
<path d="M468.92 292.032C473.05 249.53 468.145 206.635 454.529 166.167C450.279 153.727 445.189 141.592 439.293 129.844" stroke="#D8D8D8" stroke-miterlimit="10"/>
<path d="M620.332 290.011C626.953 249.162 646.997 211.689 677.291 183.525C697.61 165.128 721.851 151.607 748.172 143.989" stroke="#D8D8D8" stroke-miterlimit="10"/>
<path d="M376.057 288.999C367.893 249.883 348.081 214.159 319.231 186.535C300.291 168.732 277.949 154.947 253.549 146.009" stroke="#D8D8D8" stroke-miterlimit="10"/>
<path d="M317.563 279.811C280.78 248.958 237.373 227.028 190.728 215.733C144.082 204.438 95.4596 204.083 48.6543 214.695" stroke="#D8D8D8" stroke-miterlimit="10"/>
<path d="M118.535 242.177C118.535 293.788 291.054 335.626 503.867 335.626C614.381 335.626 714.029 324.344 784.294 306.268V239.939V178.086C714.029 160.011 614.381 148.728 503.867 148.728C291.054 148.728 118.535 190.566 118.535 242.177Z" stroke="#D8D8D8" stroke-miterlimit="10"/>
<path d="M317.565 279.619C255.229 271.395 191.887 282.969 136.475 312.706" stroke="#D8D8D8" stroke-miterlimit="10"/>
<path d="M692.064 279.619C721.079 274.016 755.663 275.306 784.554 281.512" stroke="#D8D8D8" stroke-miterlimit="10"/>
<path d="M692.064 279.811C719.72 256.616 751.121 238.466 784.826 226.087" stroke="#D8D8D8" stroke-miterlimit="10"/>
<path d="M376.297 288.641C346.768 295.815 318.129 306.258 290.911 319.778C278.438 325.983 267.003 332.468 256.594 338.983" stroke="#D8D8D8" stroke-miterlimit="10"/>
<path d="M620.354 289.698C649.883 296.867 678.522 307.31 705.74 320.831C718.216 327.036 729.647 333.521 740.057 340.036" stroke="#D8D8D8" stroke-miterlimit="10"/>
<path d="M424.816 291.145C419.659 304.69 415.718 318.668 413.037 332.912C411.639 340.357 410.665 347.452 410.008 354.129" stroke="#D8D8D8" stroke-miterlimit="10"/>
<path d="M558.154 291.153C563.31 304.698 567.252 318.675 569.933 332.919C571.331 340.365 572.306 347.459 572.962 354.137" stroke="#D8D8D8" stroke-miterlimit="10"/>
<path d="M518.855 292.711C518.937 300.689 518.997 308.7 519.036 316.747C519.1 330.313 519.1 343.783 519.036 357.158" stroke="#D8D8D8" stroke-miterlimit="10"/>
<path d="M469.23 292.183C469.312 300.113 469.372 308.076 469.411 316.071C469.475 329.551 469.475 342.936 469.411 356.227" stroke="#D8D8D8" stroke-miterlimit="10"/>
<path d="M166.607 242.177C166.607 286.049 313.256 321.614 494.157 321.614C620.238 321.614 729.68 304.338 784.433 279.015C784.818 261.931 784.433 258.904 784.433 245.609C784.433 232.322 784.433 224.973 784.474 205.358C729.735 180.024 620.269 162.74 494.157 162.74C313.256 162.74 166.607 198.305 166.607 242.177Z" stroke="#D8D8D8" stroke-miterlimit="10"/>
<path d="M503.864 293.701C656.788 293.701 780.758 271.668 780.758 244.489C780.758 217.31 656.788 195.277 503.864 195.277C350.94 195.277 226.971 217.31 226.971 244.489C226.971 271.668 350.94 293.701 503.864 293.701Z" stroke="#D8D8D8" stroke-miterlimit="10"/>
<circle cx="82.1639" cy="509.335" r="4.87679" fill="#D8176C"/>
<circle cx="719.243" cy="195.277" r="2.76834" fill="#D8176C"/>
<circle cx="427.966" cy="71.8189" r="2.76834" fill="#D8176C"/>
<circle cx="391.762" cy="299.93" r="7.92629" fill="#D8176C"/>
<path d="M23.8101 354.111H17.4492V367.266H23.8101V354.111Z" fill="url(#paint14_linear)"/>
<path d="M38.2653 354.111H31.9043V367.266H38.2653V354.111Z" fill="url(#paint15_linear)"/>
<path d="M31.9041 349.75H23.8086V455.505H31.9041V349.75Z" fill="url(#paint16_linear)"/>
<path d="M39.9999 367.266H31.9043V455.504H39.9999V367.266Z" fill="url(#paint17_linear)"/>
<path d="M23.8085 367.266H15.7129V455.504H23.8085V367.266Z" fill="url(#paint18_linear)"/>
<path d="M35.9506 345.328H19.3223V349.703H35.9506V345.328Z" fill="url(#paint19_linear)"/>
<path d="M23.8123 348.105H18.8145V354.079H23.8123V348.105Z" fill="url(#paint20_linear)"/>
<path d="M36.902 348.105H31.9043V354.079H36.902V348.105Z" fill="url(#paint21_linear)"/>
<path d="M33.9507 343.454H21.3125V345.328H33.9507V343.454Z" fill="url(#paint22_linear)"/>
<path d="M31.908 342.169H22.9043V343.456H31.908V342.169Z" fill="url(#paint23_linear)"/>
<path d="M31.1658 340.809H23.3555V342.096H31.1658V340.809Z" fill="url(#paint24_linear)"/>
<path d="M26.624 322.596H28.1028C28.5712 322.596 29.0205 322.782 29.3517 323.113C29.683 323.445 29.8691 323.895 29.8691 324.364V340.78H24.9551V324.266C24.9551 323.823 25.1309 323.398 25.4439 323.085C25.7569 322.772 26.1814 322.596 26.624 322.596V322.596Z" fill="url(#paint25_linear)"/>
<path d="M24.9668 323.459L27.1974 315.955L29.8628 323.459H24.9668Z" fill="url(#paint26_linear)"/>
<path d="M55.5687 455.502H0.142578V462.764H55.5687V455.502Z" fill="url(#paint27_linear)"/>
<path d="M15.7129 443.66H3.88086V455.502H15.7129V443.66Z" fill="url(#paint28_linear)"/>
<path d="M51.8321 443.66H40V455.502H51.8321V443.66Z" fill="url(#paint29_linear)"/>
<path d="M628.157 40.8403H613.924V81.38H628.157V40.8403Z" fill="url(#paint30_linear)"/>
<path d="M648.962 40.8403H634.729V81.38H648.962V40.8403Z" fill="url(#paint31_linear)"/>
<path d="M669.762 40.8403H655.529V81.38H669.762V40.8403Z" fill="url(#paint32_linear)"/>
<path d="M690.567 40.8403H676.334V81.38H690.567V40.8403Z" fill="url(#paint33_linear)"/>
<path d="M696.855 31.0046H607.01V40.8401H696.855V31.0046Z" fill="url(#paint34_linear)"/>
<path d="M703.671 73.7766H602.652V81.3778H703.671V73.7766Z" fill="url(#paint35_linear)"/>
<path d="M602.652 31.0046L651.933 0.987793L703.671 31.0046H602.652Z" fill="url(#paint36_linear)"/>
<path d="M653.162 15.3025C652.818 15.3025 652.482 15.2006 652.196 15.0095C651.911 14.8184 651.688 14.5468 651.556 14.229C651.425 13.9112 651.391 13.5616 651.458 13.2242C651.525 12.8869 651.69 12.577 651.933 12.3338C652.176 12.0906 652.486 11.925 652.823 11.8579C653.16 11.7908 653.509 11.8252 653.827 11.9568C654.144 12.0885 654.415 12.3114 654.606 12.5974C654.797 12.8833 654.899 13.2196 654.899 13.5635C654.899 13.6549 654.917 13.7453 654.952 13.8297C654.987 13.9141 655.038 13.9908 655.103 14.0554C655.167 14.12 655.244 14.1712 655.328 14.2062C655.413 14.2411 655.503 14.2591 655.594 14.2591C655.685 14.2591 655.776 14.2411 655.86 14.2062C655.944 14.1712 656.021 14.12 656.086 14.0554C656.15 13.9908 656.201 13.9141 656.236 13.8297C656.271 13.7453 656.289 13.6549 656.289 13.5635C656.288 12.8545 656.047 12.1667 655.605 11.6124C655.164 11.058 654.547 10.6699 653.857 10.5112V9.73761C653.857 9.55312 653.783 9.37618 653.653 9.24572C653.523 9.11527 653.346 9.04199 653.162 9.04199C652.977 9.04199 652.801 9.11527 652.67 9.24572C652.54 9.37618 652.467 9.55312 652.467 9.73761V10.5112C651.715 10.68 651.051 11.1209 650.604 11.7491C650.157 12.3774 649.957 13.1489 650.043 13.9155C650.129 14.6821 650.495 15.3899 651.071 15.903C651.646 16.4162 652.391 16.6985 653.162 16.6959C653.505 16.6963 653.841 16.7987 654.126 16.99C654.412 17.1813 654.634 17.4531 654.765 17.7709C654.897 18.0887 654.931 18.4383 654.863 18.7755C654.796 19.1127 654.63 19.4224 654.387 19.6654C654.144 19.9084 653.835 20.0738 653.498 20.1407C653.161 20.2077 652.812 20.1731 652.494 20.0414C652.177 19.9097 651.905 19.6868 651.715 19.4009C651.524 19.1149 651.422 18.7788 651.422 18.4349C651.422 18.2504 651.349 18.0735 651.218 17.9431C651.088 17.8126 650.911 17.7393 650.727 17.7393C650.543 17.7393 650.366 17.8126 650.236 17.9431C650.105 18.0735 650.032 18.2504 650.032 18.4349C650.033 19.1443 650.275 19.8323 650.717 20.3866C651.159 20.941 651.776 21.329 652.467 21.4872V22.2608C652.467 22.4453 652.54 22.6223 652.67 22.7527C652.801 22.8832 652.977 22.9564 653.162 22.9564C653.346 22.9564 653.523 22.8832 653.653 22.7527C653.783 22.6223 653.857 22.4453 653.857 22.2608V21.4872C654.605 21.3145 655.264 20.8723 655.708 20.2449C656.152 19.6175 656.349 18.8487 656.263 18.0848C656.178 17.3209 655.814 16.6153 655.242 16.1022C654.67 15.5892 653.93 15.3046 653.162 15.3025V15.3025Z" fill="#F2F2F2"/>
<path d="M165.733 22.7456H149.67V58.2985H165.733V22.7456Z" fill="url(#paint37_linear)"/>
<path d="M202.236 22.7456H186.779V58.2985H202.236V22.7456Z" fill="url(#paint38_linear)"/>
<path d="M165.73 22.7456V58.2943H167.663V33.4186C167.663 31.1915 168.548 29.0556 170.123 27.4808C171.697 25.906 173.833 25.0213 176.061 25.0213C178.288 25.0213 180.424 25.906 181.998 27.4808C183.573 29.0556 184.458 31.1915 184.458 33.4186V58.2985H186.776V22.7498L165.73 22.7456Z" fill="url(#paint39_linear)"/>
<path d="M205.164 14.501H146.836V15.1546H205.164V14.501Z" fill="url(#paint40_linear)"/>
<path d="M204.047 15.7617H148.884L146.836 15.1082H205.164L204.047 15.7617Z" fill="url(#paint41_linear)"/>
<path d="M204.042 15.762H148.883V17.5604H204.042V15.762Z" fill="url(#paint42_linear)"/>
<path d="M205.164 17.5603H146.836V19.3587H205.164V17.5603Z" fill="url(#paint43_linear)"/>
<path d="M202.234 19.3589H149.67V22.7444H202.234V19.3589Z" fill="url(#paint44_linear)"/>
<path d="M202.234 8.49683H149.67V14.4995H202.234V8.49683Z" fill="url(#paint45_linear)"/>
<path d="M205.164 7.59814H146.836V9.39657H205.164V7.59814Z" fill="url(#paint46_linear)"/>
<path d="M168.514 58.2986H148.986V58.9522H168.514V58.2986Z" fill="url(#paint47_linear)"/>
<path d="M203.481 58.2986H183.953V58.9522H203.481V58.2986Z" fill="url(#paint48_linear)"/>
<path d="M203.481 33.3516H183.953V34.0052H203.481V33.3516Z" fill="url(#paint49_linear)"/>
<path d="M168.514 33.679H148.986V34.3325H168.514V33.679Z" fill="url(#paint50_linear)"/>
<path d="M168.141 34.9861H149.667L148.982 34.3325H168.51L168.141 34.9861Z" fill="url(#paint51_linear)"/>
<path d="M203.109 34.6123H184.635L183.949 33.9587H203.477L203.109 34.6123Z" fill="url(#paint52_linear)"/>
<defs>
<filter id="filter0_d" x="434.383" y="380.406" width="97.2832" height="76.0588" filterUnits="userSpaceOnUse" color-interpolation-filters="sRGB">
<feFlood flood-opacity="0" result="BackgroundImageFix"/>
<feColorMatrix in="SourceAlpha" type="matrix" values="0 0 0 0 0 0 0 0 0 0 0 0 0 0 0 0 0 0 127 0" result="hardAlpha"/>
<feOffset dx="5" dy="7"/>
<feGaussianBlur stdDeviation="5"/>
<feComposite in2="hardAlpha" operator="out"/>
<feColorMatrix type="matrix" values="0 0 0 0 0 0 0 0 0 0 0 0 0 0 0 0 0 0 1 0"/>
<feBlend mode="normal" in2="BackgroundImageFix" result="effect1_dropShadow"/>
<feBlend mode="normal" in="SourceGraphic" in2="effect1_dropShadow" result="shape"/>
</filter>
<linearGradient id="paint0_linear" x1="252.61" y1="380.329" x2="380.422" y2="917.739" gradientUnits="userSpaceOnUse">
<stop/>
<stop offset="1" stop-opacity="0"/>
</linearGradient>
<linearGradient id="paint1_linear" x1="356.668" y1="726.102" x2="496.736" y2="695.754" gradientUnits="userSpaceOnUse">
<stop/>
<stop offset="1" stop-opacity="0"/>
</linearGradient>
<linearGradient id="paint2_linear" x1="322.019" y1="528.128" x2="493.625" y2="473.999" gradientUnits="userSpaceOnUse">
<stop/>
<stop offset="1" stop-opacity="0"/>
</linearGradient>
<linearGradient id="paint3_linear" x1="703.806" y1="638.135" x2="525.207" y2="604.485" gradientUnits="userSpaceOnUse">
<stop/>
<stop offset="1" stop-opacity="0"/>
</linearGradient>
<linearGradient id="paint4_linear" x1="494.531" y1="413.162" x2="502.301" y2="413.162" gradientUnits="userSpaceOnUse">
<stop offset="0.516" stop-color="#D8D8D8"/>
<stop offset="1"/>
</linearGradient>
<linearGradient id="paint5_linear" x1="455.299" y1="393.881" x2="463.599" y2="393.881" gradientUnits="userSpaceOnUse">
<stop offset="0.516" stop-color="#D8D8D8"/>
<stop offset="1"/>
</linearGradient>
<linearGradient id="paint6_linear" x1="492.984" y1="393.801" x2="501.284" y2="393.801" gradientUnits="userSpaceOnUse">
<stop offset="0.516" stop-color="#D8D8D8"/>
<stop offset="1"/>
</linearGradient>
<linearGradient id="paint7_linear" x1="439.393" y1="388.237" x2="516.421" y2="388.237" gradientUnits="userSpaceOnUse">
<stop offset="0.516" stop-color="#D8D8D8"/>
<stop offset="1"/>
</linearGradient>
<linearGradient id="paint8_linear" x1="478.024" y1="383.406" x2="478.024" y2="390.045" gradientUnits="userSpaceOnUse">
<stop stop-color="#D8D8D8"/>
<stop offset="1"/>
</linearGradient>
<linearGradient id="paint9_linear" x1="454.035" y1="413.162" x2="461.209" y2="413.162" gradientUnits="userSpaceOnUse">
<stop offset="0.516" stop-color="#D8D8D8"/>
<stop offset="1"/>
</linearGradient>
<linearGradient id="paint10_linear" x1="456.576" y1="439.464" x2="456.576" y2="431.843" gradientUnits="userSpaceOnUse">
<stop offset="0.516" stop-color="#D8D8D8"/>
<stop offset="1"/>
</linearGradient>
<linearGradient id="paint11_linear" x1="499.402" y1="439.464" x2="499.402" y2="431.843" gradientUnits="userSpaceOnUse">
<stop offset="0.516" stop-color="#D8D8D8"/>
<stop offset="1"/>
</linearGradient>
<linearGradient id="paint12_linear" x1="478.527" y1="397.323" x2="478.527" y2="401.358" gradientUnits="userSpaceOnUse">
<stop offset="0.516" stop-color="#D8D8D8"/>
<stop offset="1"/>
</linearGradient>
<radialGradient id="paint13_radial" cx="0" cy="0" r="1" gradientUnits="userSpaceOnUse" gradientTransform="translate(504.388 281.066) rotate(90) scale(105.586 362.136)">
<stop stop-color="#C4C4C4"/>
<stop offset="1" stop-color="#C4C4C4" stop-opacity="0"/>
</radialGradient>
<linearGradient id="paint14_linear" x1="20.6297" y1="367.266" x2="20.6297" y2="354.111" gradientUnits="userSpaceOnUse">
<stop stop-color="#212121"/>
<stop offset="1" stop-color="#FFFFFD"/>
</linearGradient>
<linearGradient id="paint15_linear" x1="35.0848" y1="367.266" x2="35.0848" y2="354.111" gradientUnits="userSpaceOnUse">
<stop stop-color="#212121"/>
<stop offset="1" stop-color="#FFFFFD"/>
</linearGradient>
<linearGradient id="paint16_linear" x1="27.8564" y1="455.505" x2="27.8564" y2="349.75" gradientUnits="userSpaceOnUse">
<stop stop-color="#131313"/>
<stop offset="1" stop-color="#FFFFFD"/>
</linearGradient>
<linearGradient id="paint17_linear" x1="35.9521" y1="455.504" x2="35.9521" y2="367.266" gradientUnits="userSpaceOnUse">
<stop stop-color="#212121"/>
<stop offset="1" stop-color="#FFFFFD"/>
</linearGradient>
<linearGradient id="paint18_linear" x1="19.7607" y1="455.504" x2="19.7607" y2="367.266" gradientUnits="userSpaceOnUse">
<stop stop-color="#212121"/>
<stop offset="1" stop-color="#FFFFFD"/>
</linearGradient>
<linearGradient id="paint19_linear" x1="27.6364" y1="349.703" x2="27.6364" y2="345.328" gradientUnits="userSpaceOnUse">
<stop stop-color="#212121"/>
<stop offset="1" stop-color="#FFFFFD"/>
</linearGradient>
<linearGradient id="paint20_linear" x1="21.3134" y1="354.079" x2="21.3134" y2="348.105" gradientUnits="userSpaceOnUse">
<stop stop-color="#212121"/>
<stop offset="1" stop-color="#FFFFFD"/>
</linearGradient>
<linearGradient id="paint21_linear" x1="34.4032" y1="354.079" x2="34.4032" y2="348.105" gradientUnits="userSpaceOnUse">
<stop stop-color="#212121"/>
<stop offset="1" stop-color="#FFFFFD"/>
</linearGradient>
<linearGradient id="paint22_linear" x1="27.6316" y1="345.328" x2="27.6316" y2="343.454" gradientUnits="userSpaceOnUse">
<stop stop-color="#212121"/>
<stop offset="1" stop-color="#FFFFFD"/>
</linearGradient>
<linearGradient id="paint23_linear" x1="27.4061" y1="343.456" x2="27.4061" y2="342.169" gradientUnits="userSpaceOnUse">
<stop stop-color="#212121"/>
<stop offset="1" stop-color="#FFFFFD"/>
</linearGradient>
<linearGradient id="paint24_linear" x1="27.2606" y1="342.096" x2="27.2606" y2="340.809" gradientUnits="userSpaceOnUse">
<stop stop-color="#212121"/>
<stop offset="1" stop-color="#FFFFFD"/>
</linearGradient>
<linearGradient id="paint25_linear" x1="27.4121" y1="340.78" x2="27.4121" y2="322.596" gradientUnits="userSpaceOnUse">
<stop stop-color="#212121"/>
<stop offset="1" stop-color="#FFFFFD"/>
</linearGradient>
<linearGradient id="paint26_linear" x1="27.4148" y1="323.459" x2="27.4148" y2="315.955" gradientUnits="userSpaceOnUse">
<stop stop-color="#212121"/>
<stop offset="1" stop-color="#FFFFFD"/>
</linearGradient>
<linearGradient id="paint27_linear" x1="27.8556" y1="462.764" x2="27.8556" y2="455.502" gradientUnits="userSpaceOnUse">
<stop stop-color="#212121"/>
<stop offset="1" stop-color="#FFFFFD"/>
</linearGradient>
<linearGradient id="paint28_linear" x1="9.7969" y1="455.502" x2="9.7969" y2="443.66" gradientUnits="userSpaceOnUse">
<stop stop-color="#212121"/>
<stop offset="1" stop-color="#FFFFFD"/>
</linearGradient>
<linearGradient id="paint29_linear" x1="45.916" y1="455.502" x2="45.916" y2="443.66" gradientUnits="userSpaceOnUse">
<stop stop-color="#212121"/>
<stop offset="1" stop-color="#FFFFFD"/>
</linearGradient>
<linearGradient id="paint30_linear" x1="621.04" y1="40.8403" x2="621.04" y2="81.38" gradientUnits="userSpaceOnUse">
<stop stop-color="#080305"/>
<stop offset="1" stop-color="#FFFFFD"/>
</linearGradient>
<linearGradient id="paint31_linear" x1="641.845" y1="40.8403" x2="641.845" y2="81.38" gradientUnits="userSpaceOnUse">
<stop stop-color="#080305"/>
<stop offset="1" stop-color="#FFFFFD"/>
</linearGradient>
<linearGradient id="paint32_linear" x1="662.646" y1="40.8403" x2="662.646" y2="81.38" gradientUnits="userSpaceOnUse">
<stop stop-color="#080305"/>
<stop offset="1" stop-color="#FFFFFD"/>
</linearGradient>
<linearGradient id="paint33_linear" x1="683.45" y1="40.8403" x2="683.45" y2="81.38" gradientUnits="userSpaceOnUse">
<stop stop-color="#080305"/>
<stop offset="1" stop-color="#FFFFFD"/>
</linearGradient>
<linearGradient id="paint34_linear" x1="651.933" y1="31.0046" x2="651.933" y2="43.0052" gradientUnits="userSpaceOnUse">
<stop stop-color="#080305"/>
<stop offset="1" stop-color="#FFFFFD"/>
</linearGradient>
<linearGradient id="paint35_linear" x1="616.391" y1="89.0777" x2="616.391" y2="96.6485" gradientUnits="userSpaceOnUse">
<stop stop-color="#080305"/>
<stop offset="1" stop-color="#FFFFFD"/>
</linearGradient>
<linearGradient id="paint36_linear" x1="653.161" y1="-5.05518" x2="653.161" y2="40.9944" gradientUnits="userSpaceOnUse">
<stop stop-color="#080305"/>
<stop offset="1" stop-color="#FFFFFD"/>
</linearGradient>
<linearGradient id="paint37_linear" x1="157.701" y1="22.7456" x2="157.701" y2="58.2985" gradientUnits="userSpaceOnUse">
<stop offset="0.516" stop-color="#D8D8D8"/>
<stop offset="1" stop-color="#212121"/>
</linearGradient>
<linearGradient id="paint38_linear" x1="194.508" y1="22.7456" x2="194.508" y2="58.2985" gradientUnits="userSpaceOnUse">
<stop offset="0.516" stop-color="#D8D8D8"/>
<stop offset="1" stop-color="#212121"/>
</linearGradient>
<linearGradient id="paint39_linear" x1="176.253" y1="22.7456" x2="176.253" y2="58.2985" gradientUnits="userSpaceOnUse">
<stop offset="0.516" stop-color="#D8D8D8"/>
<stop offset="1" stop-color="#212121"/>
</linearGradient>
<linearGradient id="paint40_linear" x1="176" y1="14.501" x2="176" y2="15.1546" gradientUnits="userSpaceOnUse">
<stop offset="0.516" stop-color="#D8D8D8"/>
<stop offset="1" stop-color="#212121"/>
</linearGradient>
<linearGradient id="paint41_linear" x1="176" y1="15.1082" x2="176" y2="15.7617" gradientUnits="userSpaceOnUse">
<stop offset="0.516" stop-color="#D8D8D8"/>
<stop offset="1" stop-color="#212121"/>
</linearGradient>
<linearGradient id="paint42_linear" x1="176.462" y1="15.762" x2="176.462" y2="17.5604" gradientUnits="userSpaceOnUse">
<stop offset="0.516" stop-color="#D8D8D8"/>
<stop offset="1" stop-color="#212121"/>
</linearGradient>
<linearGradient id="paint43_linear" x1="176" y1="17.5603" x2="176" y2="19.3587" gradientUnits="userSpaceOnUse">
<stop offset="0.516" stop-color="#D8D8D8"/>
<stop offset="1" stop-color="#212121"/>
</linearGradient>
<linearGradient id="paint44_linear" x1="175.952" y1="19.3589" x2="175.952" y2="22.7444" gradientUnits="userSpaceOnUse">
<stop offset="0.516" stop-color="#D8D8D8"/>
<stop offset="1" stop-color="#212121"/>
</linearGradient>
<linearGradient id="paint45_linear" x1="175.952" y1="8.49683" x2="175.952" y2="14.4995" gradientUnits="userSpaceOnUse">
<stop offset="0.516" stop-color="#D8D8D8"/>
<stop offset="1" stop-color="#212121"/>
</linearGradient>
<linearGradient id="paint46_linear" x1="176" y1="7.59814" x2="176" y2="9.39657" gradientUnits="userSpaceOnUse">
<stop offset="0.516" stop-color="#D8D8D8"/>
<stop offset="1" stop-color="#212121"/>
</linearGradient>
<linearGradient id="paint47_linear" x1="158.75" y1="58.2986" x2="158.75" y2="58.9522" gradientUnits="userSpaceOnUse">
<stop offset="0.516" stop-color="#D8D8D8"/>
<stop offset="1"/>
</linearGradient>
<linearGradient id="paint48_linear" x1="193.717" y1="58.2986" x2="193.717" y2="58.9522" gradientUnits="userSpaceOnUse">
<stop offset="0.516" stop-color="#D8D8D8"/>
<stop offset="1"/>
</linearGradient>
<linearGradient id="paint49_linear" x1="193.717" y1="33.3516" x2="193.717" y2="34.0052" gradientUnits="userSpaceOnUse">
<stop offset="0.516" stop-color="#D8D8D8"/>
<stop offset="1"/>
</linearGradient>
<linearGradient id="paint50_linear" x1="158.75" y1="33.679" x2="158.75" y2="34.3325" gradientUnits="userSpaceOnUse">
<stop offset="0.516" stop-color="#D8D8D8"/>
<stop offset="1"/>
</linearGradient>
<linearGradient id="paint51_linear" x1="158.746" y1="34.3325" x2="158.746" y2="34.9868" gradientUnits="userSpaceOnUse">
<stop offset="0.516" stop-color="#D8D8D8"/>
<stop offset="1"/>
</linearGradient>
<linearGradient id="paint52_linear" x1="193.713" y1="33.9587" x2="193.713" y2="34.613" gradientUnits="userSpaceOnUse">
<stop offset="0.516" stop-color="#D8D8D8"/>
<stop offset="1"/>
</linearGradient>
</defs>
</svg>
