<svg width="360" height="209" viewBox="0 0 360 209" fill="none" xmlns="http://www.w3.org/2000/svg">
<path d="M13.5859 101.125C13.5859 129.143 107.241 151.856 222.77 151.856C274.837 151.856 323.195 147.016 359.805 139.383V102.314V62.7946C323.098 55.0697 275.186 50.3944 222.77 50.3944C107.241 50.3944 13.5859 73.1074 13.5859 101.125Z" fill="url(#paint0_radial)" stroke="#D8D8D8" stroke-miterlimit="10"/>
<path d="M183.681 124.853C182.898 113.754 179.491 88.6213 160.605 66.535C154.787 59.7457 148.029 53.8243 140.535 48.9506" stroke="#D8D8D8" stroke-miterlimit="10"/>
<path d="M249.537 126.139C250.335 114.403 253.788 89.2719 272.245 66.535C278.004 59.4568 284.709 53.2064 292.172 47.9602" stroke="#D8D8D8" stroke-miterlimit="10"/>
<path d="M229.616 125.841C227.32 104.6 229.752 83.1144 236.737 62.9259C238.842 56.9476 241.356 51.1217 244.262 45.4896" stroke="#D8D8D8" stroke-miterlimit="10"/>
<path d="M205.414 125.348C207.435 104.55 205.035 83.5602 198.372 63.7572C196.292 57.6702 193.801 51.7317 190.916 45.983" stroke="#D8D8D8" stroke-miterlimit="10"/>
<path d="M279.508 124.359C282.748 104.37 292.556 86.0332 307.38 72.2512C317.323 63.249 329.185 56.6327 342.065 52.9047" stroke="#D8D8D8" stroke-miterlimit="10"/>
<path d="M159.971 123.864C155.977 104.723 146.282 87.2417 132.164 73.7241C122.896 65.0126 111.963 58.2671 100.023 53.8933" stroke="#D8D8D8" stroke-miterlimit="10"/>
<path d="M131.349 119.368C113.35 104.27 92.1094 93.5391 69.2839 88.0119C46.4583 82.4848 22.6654 82.311 -0.238281 87.5041" stroke="#D8D8D8" stroke-miterlimit="10"/>
<path d="M33.957 100.952C33.957 126.207 118.377 146.681 222.515 146.681C276.594 146.681 325.356 141.159 359.739 132.315V99.857V69.5897C325.356 60.7448 276.594 55.2236 222.515 55.2236C118.377 55.2236 33.957 75.697 33.957 100.952Z" stroke="#D8D8D8" stroke-miterlimit="10"/>
<path d="M131.349 119.274C100.846 115.25 69.8497 120.913 42.7344 135.465" stroke="#D8D8D8" stroke-miterlimit="10"/>
<path d="M314.607 119.274C328.805 116.532 345.729 117.163 359.866 120.2" stroke="#D8D8D8" stroke-miterlimit="10"/>
<path d="M314.607 119.368C328.141 108.018 343.506 99.1362 359.999 93.0786" stroke="#D8D8D8" stroke-miterlimit="10"/>
<path d="M160.091 123.689C145.642 127.199 131.627 132.31 118.308 138.925C112.205 141.962 106.609 145.135 101.516 148.323" stroke="#D8D8D8" stroke-miterlimit="10"/>
<path d="M279.518 124.206C293.968 127.714 307.982 132.824 321.301 139.441C327.405 142.477 332.999 145.65 338.093 148.838" stroke="#D8D8D8" stroke-miterlimit="10"/>
<path d="M183.832 124.914C181.309 131.542 179.38 138.382 178.068 145.352C177.384 148.996 176.907 152.467 176.586 155.735" stroke="#D8D8D8" stroke-miterlimit="10"/>
<path d="M249.08 124.918C251.603 131.546 253.532 138.386 254.844 145.356C255.528 148.999 256.005 152.471 256.326 155.738" stroke="#D8D8D8" stroke-miterlimit="10"/>
<path d="M229.85 125.68C229.889 129.584 229.919 133.504 229.938 137.442C229.969 144.08 229.969 150.672 229.938 157.217" stroke="#D8D8D8" stroke-miterlimit="10"/>
<path d="M205.566 125.422C205.606 129.303 205.636 133.199 205.655 137.111C205.686 143.708 205.686 150.258 205.655 156.761" stroke="#D8D8D8" stroke-miterlimit="10"/>
<path d="M57.4805 100.952C57.4805 122.42 129.242 139.824 217.764 139.824C279.46 139.824 333.014 131.37 359.807 118.978C359.996 110.619 359.807 109.137 359.807 102.632C359.807 96.1296 359.807 92.5333 359.827 82.9352C333.041 70.5383 279.475 62.0802 217.764 62.0802C129.242 62.0802 57.4805 79.4837 57.4805 100.952Z" stroke="#D8D8D8" stroke-miterlimit="10"/>
<path d="M222.515 126.165C297.346 126.165 358.01 115.383 358.01 102.083C358.01 88.7836 297.346 78.002 222.515 78.002C147.683 78.002 87.0195 88.7836 87.0195 102.083C87.0195 115.383 147.683 126.165 222.515 126.165Z" stroke="#D8D8D8" stroke-miterlimit="10"/>
<path d="M45.1418 26.4905H40.8281V35.4114H45.1418V26.4905Z" fill="url(#paint1_linear)"/>
<path d="M54.9446 26.4905H50.6309V35.4114H54.9446V26.4905Z" fill="url(#paint2_linear)"/>
<path d="M50.6306 23.5334H45.1406V95.2509H50.6306V23.5334Z" fill="url(#paint3_linear)"/>
<path d="M56.1209 35.4114H50.6309V95.2507H56.1209V35.4114Z" fill="url(#paint4_linear)"/>
<path d="M45.1405 35.4114H39.6504V95.2507H45.1405V35.4114Z" fill="url(#paint5_linear)"/>
<path d="M53.3742 20.5344H42.0977V23.5009H53.3742V20.5344Z" fill="url(#paint6_linear)"/>
<path d="M45.1432 22.4175H41.7539V26.4691H45.1432V22.4175Z" fill="url(#paint7_linear)"/>
<path d="M54.0201 22.4175H50.6309V26.4691H54.0201V22.4175Z" fill="url(#paint8_linear)"/>
<path d="M52.0179 19.2634H43.4473V20.5345H52.0179V19.2634Z" fill="url(#paint9_linear)"/>
<path d="M50.6332 18.3921H44.5273V19.2651H50.6332V18.3921Z" fill="url(#paint10_linear)"/>
<path d="M50.1306 17.4697H44.834V18.3427H50.1306V17.4697Z" fill="url(#paint11_linear)"/>
<path d="M47.0498 5.11816H48.0526C48.3703 5.11816 48.6749 5.24447 48.8996 5.46931C49.1242 5.69414 49.2504 5.99908 49.2504 6.31704V17.4497H45.918V6.25095C45.918 5.95052 46.0372 5.66239 46.2495 5.44995C46.4617 5.23751 46.7496 5.11816 47.0498 5.11816V5.11816Z" fill="url(#paint12_linear)"/>
<path d="M45.9258 5.70382L47.4385 0.614746L49.246 5.70382H45.9258Z" fill="url(#paint13_linear)"/>
<path d="M66.6772 95.2494H29.0898V100.174H66.6772V95.2494Z" fill="url(#paint14_linear)"/>
<path d="M39.649 87.2184H31.625V95.2493H39.649V87.2184Z" fill="url(#paint15_linear)"/>
<path d="M64.1431 87.2184H56.1191V95.2493H64.1431V87.2184Z" fill="url(#paint16_linear)"/>
<path d="M285.477 190.33H279.072V208.573H285.477V190.33Z" fill="url(#paint17_linear)"/>
<path d="M294.839 190.33H288.434V208.573H294.839V190.33Z" fill="url(#paint18_linear)"/>
<path d="M304.2 190.33H297.795V208.573H304.2V190.33Z" fill="url(#paint19_linear)"/>
<path d="M313.561 190.33H307.156V208.573H313.561V190.33Z" fill="url(#paint20_linear)"/>
<path d="M316.392 185.904H275.961V190.33H316.392V185.904Z" fill="url(#paint21_linear)"/>
<path d="M319.459 205.151H274V208.572H319.459V205.151Z" fill="url(#paint22_linear)"/>
<path d="M274 185.904L296.176 172.396L319.459 185.904H274Z" fill="url(#paint23_linear)"/>
<path d="M296.729 178.838C296.574 178.838 296.423 178.792 296.294 178.706C296.166 178.62 296.065 178.498 296.006 178.355C295.947 178.212 295.932 178.054 295.962 177.903C295.992 177.751 296.066 177.611 296.176 177.502C296.285 177.393 296.424 177.318 296.576 177.288C296.728 177.258 296.885 177.273 297.028 177.332C297.171 177.392 297.293 177.492 297.379 177.621C297.465 177.749 297.511 177.901 297.511 178.055C297.511 178.096 297.519 178.137 297.534 178.175C297.55 178.213 297.573 178.248 297.602 178.277C297.631 178.306 297.666 178.329 297.704 178.345C297.742 178.36 297.782 178.368 297.823 178.368C297.864 178.368 297.905 178.36 297.943 178.345C297.981 178.329 298.015 178.306 298.044 178.277C298.073 178.248 298.096 178.213 298.112 178.175C298.128 178.137 298.136 178.096 298.136 178.055C298.136 177.736 298.027 177.427 297.828 177.177C297.63 176.928 297.352 176.753 297.041 176.682V176.334C297.041 176.251 297.008 176.171 296.95 176.112C296.891 176.054 296.812 176.021 296.729 176.021C296.646 176.021 296.566 176.054 296.507 176.112C296.449 176.171 296.416 176.251 296.416 176.334V176.682C296.077 176.758 295.779 176.956 295.578 177.239C295.376 177.522 295.286 177.869 295.325 178.214C295.364 178.559 295.529 178.877 295.788 179.108C296.047 179.339 296.382 179.466 296.729 179.465C296.883 179.465 297.034 179.511 297.163 179.597C297.291 179.683 297.391 179.806 297.45 179.949C297.509 180.092 297.525 180.249 297.494 180.401C297.464 180.553 297.39 180.692 297.28 180.801C297.171 180.911 297.031 180.985 296.88 181.015C296.728 181.045 296.571 181.03 296.428 180.97C296.285 180.911 296.163 180.811 296.077 180.682C295.992 180.554 295.946 180.402 295.946 180.248C295.946 180.164 295.913 180.085 295.854 180.026C295.796 179.967 295.716 179.934 295.633 179.934C295.55 179.934 295.471 179.967 295.412 180.026C295.353 180.085 295.32 180.164 295.32 180.248C295.321 180.567 295.429 180.876 295.628 181.126C295.827 181.375 296.105 181.55 296.416 181.621V181.969C296.416 182.052 296.449 182.132 296.507 182.191C296.566 182.249 296.646 182.282 296.729 182.282C296.812 182.282 296.891 182.249 296.95 182.191C297.008 182.132 297.041 182.052 297.041 181.969V181.621C297.378 181.543 297.675 181.344 297.874 181.062C298.074 180.78 298.163 180.434 298.124 180.09C298.086 179.746 297.922 179.429 297.665 179.198C297.407 178.967 297.074 178.839 296.729 178.838Z" fill="#F2F2F2"/>
<defs>
<radialGradient id="paint0_radial" cx="0" cy="0" r="1" gradientUnits="userSpaceOnUse" gradientTransform="translate(222.77 119.982) rotate(90) scale(51.6676 177.208)">
<stop stop-color="#C4C4C4"/>
<stop offset="1" stop-color="#C4C4C4" stop-opacity="0"/>
</radialGradient>
<linearGradient id="paint1_linear" x1="42.985" y1="35.4114" x2="42.985" y2="26.4905" gradientUnits="userSpaceOnUse">
<stop stop-color="#212121"/>
<stop offset="1" stop-color="#FFFFFD"/>
</linearGradient>
<linearGradient id="paint2_linear" x1="52.7877" y1="35.4114" x2="52.7877" y2="26.4905" gradientUnits="userSpaceOnUse">
<stop stop-color="#212121"/>
<stop offset="1" stop-color="#FFFFFD"/>
</linearGradient>
<linearGradient id="paint3_linear" x1="47.8856" y1="95.2509" x2="47.8856" y2="23.5334" gradientUnits="userSpaceOnUse">
<stop stop-color="#131313"/>
<stop offset="1" stop-color="#FFFFFD"/>
</linearGradient>
<linearGradient id="paint4_linear" x1="53.3759" y1="95.2507" x2="53.3759" y2="35.4114" gradientUnits="userSpaceOnUse">
<stop stop-color="#212121"/>
<stop offset="1" stop-color="#FFFFFD"/>
</linearGradient>
<linearGradient id="paint5_linear" x1="42.3954" y1="95.2507" x2="42.3954" y2="35.4114" gradientUnits="userSpaceOnUse">
<stop stop-color="#212121"/>
<stop offset="1" stop-color="#FFFFFD"/>
</linearGradient>
<linearGradient id="paint6_linear" x1="47.7359" y1="23.5009" x2="47.7359" y2="20.5344" gradientUnits="userSpaceOnUse">
<stop stop-color="#212121"/>
<stop offset="1" stop-color="#FFFFFD"/>
</linearGradient>
<linearGradient id="paint7_linear" x1="43.4486" y1="26.4691" x2="43.4486" y2="22.4175" gradientUnits="userSpaceOnUse">
<stop stop-color="#212121"/>
<stop offset="1" stop-color="#FFFFFD"/>
</linearGradient>
<linearGradient id="paint8_linear" x1="52.3255" y1="26.4691" x2="52.3255" y2="22.4175" gradientUnits="userSpaceOnUse">
<stop stop-color="#212121"/>
<stop offset="1" stop-color="#FFFFFD"/>
</linearGradient>
<linearGradient id="paint9_linear" x1="47.7326" y1="20.5345" x2="47.7326" y2="19.2634" gradientUnits="userSpaceOnUse">
<stop stop-color="#212121"/>
<stop offset="1" stop-color="#FFFFFD"/>
</linearGradient>
<linearGradient id="paint10_linear" x1="47.5803" y1="19.2651" x2="47.5803" y2="18.3921" gradientUnits="userSpaceOnUse">
<stop stop-color="#212121"/>
<stop offset="1" stop-color="#FFFFFD"/>
</linearGradient>
<linearGradient id="paint11_linear" x1="47.4823" y1="18.3427" x2="47.4823" y2="17.4697" gradientUnits="userSpaceOnUse">
<stop stop-color="#212121"/>
<stop offset="1" stop-color="#FFFFFD"/>
</linearGradient>
<linearGradient id="paint12_linear" x1="47.5842" y1="17.4497" x2="47.5842" y2="5.11816" gradientUnits="userSpaceOnUse">
<stop stop-color="#212121"/>
<stop offset="1" stop-color="#FFFFFD"/>
</linearGradient>
<linearGradient id="paint13_linear" x1="47.5859" y1="5.70382" x2="47.5859" y2="0.614746" gradientUnits="userSpaceOnUse">
<stop stop-color="#212121"/>
<stop offset="1" stop-color="#FFFFFD"/>
</linearGradient>
<linearGradient id="paint14_linear" x1="47.8835" y1="100.174" x2="47.8835" y2="95.2494" gradientUnits="userSpaceOnUse">
<stop stop-color="#212121"/>
<stop offset="1" stop-color="#FFFFFD"/>
</linearGradient>
<linearGradient id="paint15_linear" x1="35.637" y1="95.2493" x2="35.637" y2="87.2184" gradientUnits="userSpaceOnUse">
<stop stop-color="#212121"/>
<stop offset="1" stop-color="#FFFFFD"/>
</linearGradient>
<linearGradient id="paint16_linear" x1="60.1311" y1="95.2493" x2="60.1311" y2="87.2184" gradientUnits="userSpaceOnUse">
<stop stop-color="#212121"/>
<stop offset="1" stop-color="#FFFFFD"/>
</linearGradient>
<linearGradient id="paint17_linear" x1="282.275" y1="190.33" x2="282.275" y2="208.573" gradientUnits="userSpaceOnUse">
<stop stop-color="#080305"/>
<stop offset="1" stop-color="#FFFFFD"/>
</linearGradient>
<linearGradient id="paint18_linear" x1="291.636" y1="190.33" x2="291.636" y2="208.573" gradientUnits="userSpaceOnUse">
<stop stop-color="#080305"/>
<stop offset="1" stop-color="#FFFFFD"/>
</linearGradient>
<linearGradient id="paint19_linear" x1="300.997" y1="190.33" x2="300.997" y2="208.573" gradientUnits="userSpaceOnUse">
<stop stop-color="#080305"/>
<stop offset="1" stop-color="#FFFFFD"/>
</linearGradient>
<linearGradient id="paint20_linear" x1="310.359" y1="190.33" x2="310.359" y2="208.573" gradientUnits="userSpaceOnUse">
<stop stop-color="#080305"/>
<stop offset="1" stop-color="#FFFFFD"/>
</linearGradient>
<linearGradient id="paint21_linear" x1="296.176" y1="185.904" x2="296.177" y2="191.304" gradientUnits="userSpaceOnUse">
<stop stop-color="#080305"/>
<stop offset="1" stop-color="#FFFFFD"/>
</linearGradient>
<linearGradient id="paint22_linear" x1="280.182" y1="212.037" x2="280.182" y2="215.444" gradientUnits="userSpaceOnUse">
<stop stop-color="#080305"/>
<stop offset="1" stop-color="#FFFFFD"/>
</linearGradient>
<linearGradient id="paint23_linear" x1="296.729" y1="169.677" x2="296.729" y2="190.399" gradientUnits="userSpaceOnUse">
<stop stop-color="#080305"/>
<stop offset="1" stop-color="#FFFFFD"/>
</linearGradient>
</defs>
</svg>
