<svg width="40" height="40" viewBox="0 0 40 40" fill="none" xmlns="http://www.w3.org/2000/svg">
<circle cx="20" cy="20" r="20" fill="black"/>
<path fill-rule="evenodd" clip-rule="evenodd" d="M13.8644 19.3955L8.83653 21.6547C7.71881 22.1569 7.72186 23.7439 8.84149 24.2419L21.238 29.7551C21.9795 30.0848 22.8267 30.0813 23.5653 29.7455L31.4583 26.1577C32.5678 25.6534 32.5657 24.0778 31.455 23.5763L26.4917 21.3355L23.5658 22.6655C22.8271 23.0013 21.9799 23.0047 21.2385 22.675L13.8644 19.3955Z" fill="url(#paint0_linear_2568_132499)"/>
<path d="M16.8758 10.2493C17.6171 9.91618 18.4657 9.91695 19.2064 10.2513L31.4569 15.7823C32.5676 16.2837 32.5697 17.8593 31.4603 18.3636L23.5673 21.9516C22.8287 22.2873 21.9814 22.2908 21.24 21.9611L8.84344 16.4478C7.72381 15.9499 7.72077 14.3629 8.83848 13.8607L16.8758 10.2493Z" fill="url(#paint1_linear_2568_132499)"/>
<defs>
<linearGradient id="paint0_linear_2568_132499" x1="32.2846" y1="23.5676" x2="8.00552" y2="23.5676" gradientUnits="userSpaceOnUse">
<stop stop-color="#EF18AC"/>
<stop offset="1" stop-color="#FAD972"/>
</linearGradient>
<linearGradient id="paint1_linear_2568_132499" x1="32.2861" y1="19.2883" x2="8.00703" y2="19.2883" gradientUnits="userSpaceOnUse">
<stop stop-color="#5314F1"/>
<stop offset="1" stop-color="#04E2FF"/>
</linearGradient>
</defs>
</svg>
