<svg width="32" height="31" viewBox="0 0 32 31" fill="none" xmlns="http://www.w3.org/2000/svg">
<circle cx="16.0651" cy="15.1162" r="15.0983" fill="#1253FF"/>
<path d="M23.611 14.0783L20 17.6893C18.224 19.4653 15.3235 19.4653 13.518 17.6893C12.9854 17.1566 12.6006 16.5055 12.3933 15.795L13.8436 14.3447C13.9917 14.1966 14.1397 14.0783 14.2875 13.9895C14.1395 14.759 14.3763 15.6175 14.9682 16.2094C15.945 17.1861 17.5432 17.1861 18.5199 16.2094L22.1309 12.5984C23.1076 11.6217 23.1076 10.0235 22.1309 9.04672C21.1542 8.06998 19.5559 8.06998 18.5792 9.04672L16.5961 11.0298C15.5601 10.7635 14.4355 10.8225 13.4588 11.2666C13.4883 11.2371 13.518 11.2073 13.5475 11.1778L17.1585 7.56686C18.9345 5.79087 21.835 5.79087 23.6405 7.56686C25.3867 9.40189 25.3867 12.3024 23.611 14.0784L23.611 14.0783ZM15.5307 19.2285L13.5476 21.2115C12.5709 22.1883 10.9727 22.1883 9.99593 21.2115C9.01919 20.2348 9.01919 18.6365 9.99593 17.6598L13.6069 14.0488C14.5836 13.0721 16.1819 13.0721 17.1586 14.0488C17.7505 14.6408 17.9874 15.4992 17.8393 16.2687C17.9873 16.1799 18.1649 16.0614 18.2832 15.9136L19.7336 14.4632C19.5263 13.7825 19.1417 13.1314 18.6088 12.5689C16.8328 10.793 13.9323 10.793 12.1268 12.5689L8.51583 16.2095C6.73984 17.9855 6.73984 20.886 8.51583 22.6914C10.2918 24.4674 13.1923 24.4674 14.9978 22.6914L18.6976 18.9917C17.6615 19.4356 16.5665 19.4948 15.5307 19.2285L15.5307 19.2285Z" fill="white"/>
</svg>
