<svg width="93" height="26" viewBox="0 0 93 26" fill="none" xmlns="http://www.w3.org/2000/svg">
    <g clip-path="url(#clip0)">
        <path d="M56.7809 23.9145L47.8631 2.27636C47.7926 2.07924 47.7552 1.87184 47.7523 1.66251C47.7349 1.22044 47.891 0.789086 48.1871 0.460397C48.3403 0.303437 48.5253 0.181129 48.7297 0.101713C48.9341 0.0222963 49.1532 -0.0123829 49.3722 1.15319e-05C49.7034 0.00469978 50.0251 0.111925 50.2929 0.306935C50.5717 0.515796 50.7895 0.795445 50.9238 1.11687L59.4069 22.2861L67.8899 1.11687C68.0265 0.794432 68.2474 0.514681 68.5293 0.306935C68.7971 0.111925 69.1188 0.00469978 69.4501 1.15319e-05C69.6676 -0.0111502 69.8851 0.024132 70.0879 0.103512C70.2908 0.182892 70.4744 0.30455 70.6266 0.460397C70.9258 0.787756 71.085 1.21927 71.0699 1.66251C71.067 1.87184 71.0296 2.07924 70.9591 2.27636L62.0413 23.9145C61.8886 24.3898 61.5912 24.8055 61.1908 25.1036C60.7903 25.4016 60.3067 25.5671 59.8076 25.577H59.0147C58.5155 25.5671 58.0319 25.4016 57.6315 25.1036C57.231 24.8055 56.9336 24.3898 56.7809 23.9145Z" fill="white"/>
        <path d="M74.8639 24.9119C74.7127 24.7598 74.594 24.5787 74.5149 24.3794C74.4357 24.1801 74.3979 23.9668 74.4035 23.7525V1.84153C74.3981 1.62209 74.4359 1.40373 74.5149 1.19893C74.5939 0.994127 74.7125 0.806897 74.8639 0.647933C75.0123 0.49077 75.1924 0.366934 75.3923 0.284626C75.5922 0.202318 75.8073 0.163416 76.0234 0.170497H90.517C90.7211 0.165525 90.924 0.204 91.1121 0.283371C91.3003 0.362742 91.4694 0.481196 91.6083 0.630882C91.7563 0.771089 91.8736 0.940452 91.9528 1.12828C92.032 1.31611 92.0715 1.51833 92.0687 1.72217C92.0745 1.92391 92.0364 2.12452 91.9569 2.31003C91.8774 2.49555 91.7584 2.66152 91.6083 2.7964C91.4635 2.93955 91.2917 3.05247 91.1029 3.12858C90.9141 3.2047 90.712 3.24248 90.5085 3.23973H77.6944V11.2197H89.2211C89.4252 11.2148 89.6281 11.2532 89.8162 11.3326C90.0044 11.412 90.1735 11.5304 90.3124 11.6801C90.4587 11.8216 90.575 11.9912 90.6541 12.1787C90.7332 12.3663 90.7736 12.5679 90.7727 12.7714C90.7786 12.9732 90.7405 13.1738 90.661 13.3593C90.5815 13.5448 90.4625 13.7108 90.3124 13.8456C90.1686 13.9878 89.9982 14.1001 89.811 14.1762C89.6237 14.2523 89.4232 14.2906 89.2211 14.289H77.6944V22.3031H90.5085C90.714 22.2969 90.9185 22.3348 91.1082 22.4142C91.2979 22.4936 91.4684 22.6127 91.6083 22.7635C91.7573 22.9047 91.8753 23.0754 91.9545 23.2648C92.0338 23.4542 92.0727 23.658 92.0687 23.8633C92.0745 24.065 92.0364 24.2656 91.9569 24.4512C91.8774 24.6367 91.7584 24.8026 91.6083 24.9375C91.4628 25.0791 91.2907 25.1905 91.1019 25.2651C90.9131 25.3398 90.7114 25.3762 90.5085 25.3723H76.0234C75.8079 25.388 75.5917 25.3547 75.3909 25.275C75.1901 25.1953 75.0099 25.0712 74.8639 24.9119Z" fill="white"/>
        <path d="M49.8838 23.3006L40.9574 1.6625C40.8052 1.18855 40.5091 0.77379 40.1103 0.475849C39.7116 0.177908 39.2299 0.0115871 38.7322 0L37.9478 0C37.4487 0.00983148 36.9651 0.175343 36.5647 0.473409C36.1642 0.771474 35.8668 1.1872 35.7141 1.6625L31.835 11.0919H28.8936C28.4707 11.0963 28.0665 11.2669 27.7682 11.5668C27.4699 11.8666 27.3015 12.2718 27.2993 12.6947V12.7118C27.3015 13.1347 27.4699 13.5398 27.7682 13.8397C28.0665 14.1395 28.4707 14.3101 28.8936 14.3146H30.4708L26.7707 23.3006C26.7002 23.4977 26.6628 23.7051 26.6599 23.9145C26.6425 24.3565 26.7986 24.7879 27.0947 25.1166C27.2478 25.2735 27.4329 25.3959 27.6373 25.4753C27.8417 25.5547 28.0608 25.5894 28.2798 25.577C28.611 25.5723 28.9327 25.4651 29.2005 25.27C29.4793 25.0612 29.6971 24.7815 29.8314 24.4601L33.9152 14.3146H36.7202C37.1431 14.3101 37.5473 14.1395 37.8456 13.8397C38.1438 13.5398 38.3122 13.1347 38.3144 12.7118V12.6691C38.3122 12.2462 38.1438 11.8411 37.8456 11.5412C37.5473 11.2413 37.1431 11.0708 36.7202 11.0663H35.2026L38.34 3.2909L46.8231 24.4601C46.9573 24.7815 47.1752 25.0612 47.4539 25.27C47.7218 25.4651 48.0435 25.5723 48.3747 25.577C48.5951 25.5906 48.8158 25.5565 49.0218 25.4771C49.2278 25.3976 49.4142 25.2747 49.5683 25.1166C49.8613 24.7866 50.0143 24.3554 49.9946 23.9145C50.0053 23.7049 49.9704 23.4954 49.8923 23.3006H49.8838Z" fill="white"/>
        <path d="M23.2305 23.3006L14.3127 1.6625C14.1595 1.18584 13.8609 0.769148 13.4587 0.470957C13.0565 0.172767 12.5711 0.00806775 12.0705 0L11.2861 0C10.787 0.00983148 10.3034 0.175343 9.90291 0.473409C9.50243 0.771474 9.20507 1.1872 9.05238 1.6625L5.17321 11.0919H2.23185C1.80893 11.0963 1.40472 11.2669 1.10645 11.5668C0.808183 11.8666 0.63977 12.2718 0.637555 12.6947V12.7118C0.63977 13.1347 0.808183 13.5398 1.10645 13.8397C1.40472 14.1395 1.80893 14.3101 2.23185 14.3146H3.8091L0.108965 23.3006C0.0384769 23.4977 0.00102863 23.7051 -0.00186876 23.9145C-0.0192095 24.3565 0.136814 24.7879 0.43294 25.1166C0.586105 25.2735 0.771132 25.3959 0.975555 25.4753C1.17998 25.5547 1.39905 25.5894 1.61801 25.577C1.94927 25.5723 2.27095 25.4651 2.53878 25.27C2.81757 25.0612 3.0354 24.7815 3.16968 24.4601L7.25347 14.3146H10.0755C10.4999 14.3123 10.9062 14.1427 11.2064 13.8426C11.5065 13.5425 11.676 13.1362 11.6783 12.7118V12.6691C11.676 12.2447 11.5065 11.8383 11.2064 11.5382C10.9062 11.2381 10.4999 11.0685 10.0755 11.0663H8.56642L11.6783 3.2909L20.1613 24.4601C20.2956 24.7815 20.5134 25.0612 20.7922 25.27C21.06 25.4651 21.3817 25.5723 21.713 25.577C21.9333 25.5906 22.154 25.5565 22.36 25.4771C22.566 25.3976 22.7524 25.2747 22.9066 25.1166C23.1996 24.7866 23.3525 24.3554 23.3329 23.9145C23.3436 23.7049 23.3087 23.4954 23.2305 23.3006Z" fill="white"/>
    </g>
    <defs>
        <clipPath id="clip0">
            <rect width="92.06" height="25.577" fill="white"/>
        </clipPath>
    </defs>
</svg>
