<svg width="132" height="127" viewBox="0 0 132 127" fill="none" xmlns="http://www.w3.org/2000/svg">
    <path d="M112.104 26.883L121.731 32.8343C125.154 31.0701 128.577 29.3062 132 27.5424L122.052 21.6274L112.104 26.883Z" fill="url(#paint0_linear)"/>
    <path d="M112.104 93.9645L121.731 99.9158L132 94.624L122.052 88.709L112.104 93.9645Z" fill="url(#paint1_linear)"/>
    <path opacity="0.96" d="M112.08 94.4385L121.697 100.951V32.8341L112.08 26.8828V94.4385Z" fill="url(#paint2_linear)"/>
    <path opacity="0.96" d="M121.69 100.951L131.976 95.082V27.5262L121.697 32.8342C121.695 55.5399 121.692 78.2456 121.69 100.951Z" fill="url(#paint3_linear)"/>
    <path d="M91.5637 32.318L100.484 37.8327C103.656 36.1979 106.828 34.5634 110 32.9291L100.782 27.4482L91.5637 32.318Z" fill="url(#paint4_linear)"/>
    <path d="M91.5637 94.4772L100.484 99.9918L110 95.0883L100.782 89.6073L91.5637 94.4772Z" fill="url(#paint5_linear)"/>
    <path opacity="0.96" d="M91.5419 94.9164L100.453 100.951V37.8325L91.5419 32.3178V94.9164Z" fill="url(#paint6_linear)"/>
    <path opacity="0.96" d="M100.447 100.951L109.978 95.5126V32.914L100.453 37.8325C100.451 58.8721 100.449 79.9117 100.447 100.951Z" fill="url(#paint7_linear)"/>
    <path d="M71.5637 37.7531L80.4844 42.831C83.6563 41.3257 86.8281 39.8206 90 38.3157L80.7819 33.2688L71.5637 37.7531Z" fill="url(#paint8_linear)"/>
    <path d="M71.5637 94.9898L80.4844 100.068L90 95.5525L80.7819 90.5056L71.5637 94.9898Z" fill="url(#paint9_linear)"/>
    <path opacity="0.96" d="M71.5419 95.3943L80.4528 100.951V42.8308L71.5419 37.7529V95.3943Z" fill="url(#paint10_linear)"/>
    <path opacity="0.96" d="M80.4466 100.951L89.9781 95.9433V38.3019L80.4527 42.8308C80.4507 62.2043 80.4486 81.5778 80.4466 100.951Z" fill="url(#paint11_linear)"/>
    <path d="M52.885 42.2823L61.1664 46.9963C64.1109 45.5989 67.0555 44.2017 70 42.8046L61.4425 38.1194L52.885 42.2823Z" fill="url(#paint12_linear)"/>
    <path d="M52.885 95.4171L61.1664 100.131L70 95.9394L61.4425 91.2542L52.885 95.4171Z" fill="url(#paint13_linear)"/>
    <path opacity="0.96" d="M52.8647 95.7925L61.137 100.951V46.9961L52.8647 42.2821V95.7925Z" fill="url(#paint14_linear)"/>
    <path opacity="0.96" d="M61.1313 100.951L69.9797 96.3022V42.7917L61.137 46.9961C61.1351 64.9812 61.1332 82.9662 61.1313 100.951Z" fill="url(#paint15_linear)"/>
    <path d="M34.942 45.9056L42.7119 50.3285C45.4746 49.0174 48.2373 47.7065 51 46.3957L42.971 41.9999L34.942 45.9056Z" fill="url(#paint16_linear)"/>
    <path d="M34.942 95.7589L42.7119 100.182L51 96.249L42.971 91.8531L34.942 95.7589Z" fill="url(#paint17_linear)"/>
    <path opacity="0.96" d="M34.923 96.1111L42.6843 100.951V50.3283L34.923 45.9055V96.1111Z" fill="url(#paint18_linear)"/>
    <path opacity="0.96" d="M42.679 100.951L50.981 96.5893V46.3836L42.6843 50.3284C42.6825 67.2027 42.6808 84.0769 42.679 100.951Z" fill="url(#paint19_linear)"/>
    <path d="M17.999 49.529L25.2575 53.6607C27.8383 52.4359 30.4192 51.2113 33 49.9868L25.4995 45.8803L17.999 49.529Z" fill="url(#paint20_linear)"/>
    <path d="M17.999 96.1007L25.2575 100.232L33 96.5585L25.4995 92.452L17.999 96.1007Z" fill="url(#paint21_linear)"/>
    <path opacity="0.96" d="M17.9812 96.4297L25.2317 100.951V53.6606L17.9812 49.5288V96.4297Z" fill="url(#paint22_linear)"/>
    <path opacity="0.96" d="M25.2267 100.951L32.9822 96.8764V49.9756L25.2317 53.6606C25.23 69.4242 25.2283 85.1877 25.2267 100.951Z" fill="url(#paint23_linear)"/>
    <path d="M2.53772 53.1523L9.28474 56.993C11.6837 55.8545 14.0827 54.7161 16.4817 53.5779L9.5097 49.7608L2.53772 53.1523Z" fill="url(#paint24_linear)"/>
    <path d="M2.53772 96.4425L9.28474 100.283L16.4817 96.8681L9.5097 93.0509L2.53772 96.4425Z" fill="url(#paint25_linear)"/>
    <path opacity="0.96" d="M2.52116 96.7483L9.26074 100.951V56.9928L2.52116 53.1522V96.7483Z" fill="url(#paint26_linear)"/>
    <path opacity="0.96" d="M9.25606 100.951L16.4651 97.1636V53.5674L9.2607 56.9929C9.25915 71.6456 9.25761 86.2984 9.25606 100.951Z" fill="url(#paint27_linear)"/>
    <path d="M2.57557 71.2665L2.57578 75.0967L40.2827 58.2571L51.8181 64.6351L77.8326 53.6305L91.0005 61.0058L128.064 46.6605L121.519 45.4116L92.2275 57.5828L79.1411 50.2532L53.5613 61.22L42.0995 54.825L2.57557 71.2665Z" fill="white"/>
    <path d="M131.232 47.0277L128.01 46.7528L128.064 46.6612L127.86 46.74L120.03 46.072L121.467 49.2145C111.312 53.1452 101.156 57.0759 91.0009 61.0067L77.8326 53.6312L51.8176 64.6359L40.3679 58.2229L2.57567 75.0968L2.57574 80.8675L39.6328 63.7308L51.6664 70.4708L77.981 58.9432L90.9806 66.4188L123.666 54.0523L123.674 54.0389L124.935 56.7966L131.232 47.0277Z" fill="url(#paint28_linear)"/>
    <path d="M120.03 46.0719L117.965 43.0384L129.46 44.3147L131.232 47.0276L120.03 46.0719Z" fill="white"/>
    <defs>
        <linearGradient id="paint0_linear" x1="122.052" y1="32.8343" x2="122.052" y2="21.6274" gradientUnits="userSpaceOnUse">
            <stop offset="0.283"/>
            <stop offset="0.998" stop-color="#2762FF"/>
        </linearGradient>
        <linearGradient id="paint1_linear" x1="122.052" y1="99.9158" x2="122.052" y2="88.709" gradientUnits="userSpaceOnUse">
            <stop offset="0.283"/>
            <stop offset="0.998" stop-color="#1436D4"/>
        </linearGradient>
        <linearGradient id="paint2_linear" x1="116.888" y1="100.951" x2="116.888" y2="26.8828" gradientUnits="userSpaceOnUse">
            <stop offset="0.002" stop-color="#2762FF"/>
            <stop offset="0.717"/>
        </linearGradient>
        <linearGradient id="paint3_linear" x1="126.833" y1="100.951" x2="126.833" y2="27.5262" gradientUnits="userSpaceOnUse">
            <stop offset="0.002" stop-color="#1436D4"/>
            <stop offset="0.717"/>
        </linearGradient>
        <linearGradient id="paint4_linear" x1="100.782" y1="37.8327" x2="100.782" y2="27.4482" gradientUnits="userSpaceOnUse">
            <stop offset="0.283"/>
            <stop offset="0.998" stop-color="#2762FF"/>
        </linearGradient>
        <linearGradient id="paint5_linear" x1="100.782" y1="99.9918" x2="100.782" y2="89.6073" gradientUnits="userSpaceOnUse">
            <stop offset="0.283"/>
            <stop offset="0.998" stop-color="#1436D4"/>
        </linearGradient>
        <linearGradient id="paint6_linear" x1="95.9973" y1="100.951" x2="95.9973" y2="32.3178" gradientUnits="userSpaceOnUse">
            <stop offset="0.002" stop-color="#2762FF"/>
            <stop offset="0.717"/>
        </linearGradient>
        <linearGradient id="paint7_linear" x1="105.212" y1="100.951" x2="105.212" y2="32.914" gradientUnits="userSpaceOnUse">
            <stop offset="0.002" stop-color="#1436D4"/>
            <stop offset="0.717"/>
        </linearGradient>
        <linearGradient id="paint8_linear" x1="80.7819" y1="42.831" x2="80.7819" y2="33.2688" gradientUnits="userSpaceOnUse">
            <stop offset="0.283"/>
            <stop offset="0.998" stop-color="#2762FF"/>
        </linearGradient>
        <linearGradient id="paint9_linear" x1="80.7819" y1="100.068" x2="80.7819" y2="90.5056" gradientUnits="userSpaceOnUse">
            <stop offset="0.283"/>
            <stop offset="0.998" stop-color="#1436D4"/>
        </linearGradient>
        <linearGradient id="paint10_linear" x1="75.9973" y1="100.951" x2="75.9973" y2="37.7529" gradientUnits="userSpaceOnUse">
            <stop offset="0.002" stop-color="#2762FF"/>
            <stop offset="0.717"/>
        </linearGradient>
        <linearGradient id="paint11_linear" x1="85.2124" y1="100.951" x2="85.2124" y2="38.3019" gradientUnits="userSpaceOnUse">
            <stop offset="0.002" stop-color="#1436D4"/>
            <stop offset="0.717"/>
        </linearGradient>
        <linearGradient id="paint12_linear" x1="61.4425" y1="46.9963" x2="61.4425" y2="38.1194" gradientUnits="userSpaceOnUse">
            <stop offset="0.283"/>
            <stop offset="0.998" stop-color="#2762FF"/>
        </linearGradient>
        <linearGradient id="paint13_linear" x1="61.4425" y1="100.131" x2="61.4425" y2="91.2542" gradientUnits="userSpaceOnUse">
            <stop offset="0.283"/>
            <stop offset="0.998" stop-color="#1436D4"/>
        </linearGradient>
        <linearGradient id="paint14_linear" x1="57.0008" y1="100.951" x2="57.0008" y2="42.2821" gradientUnits="userSpaceOnUse">
            <stop offset="0.002" stop-color="#2762FF"/>
            <stop offset="0.717"/>
        </linearGradient>
        <linearGradient id="paint15_linear" x1="65.5555" y1="100.951" x2="65.5555" y2="42.7917" gradientUnits="userSpaceOnUse">
            <stop offset="0.002" stop-color="#1436D4"/>
            <stop offset="0.717"/>
        </linearGradient>
        <linearGradient id="paint16_linear" x1="42.971" y1="50.3285" x2="42.971" y2="41.9999" gradientUnits="userSpaceOnUse">
            <stop offset="0.283"/>
            <stop offset="0.998" stop-color="#2762FF"/>
        </linearGradient>
        <linearGradient id="paint17_linear" x1="42.971" y1="100.182" x2="42.971" y2="91.8531" gradientUnits="userSpaceOnUse">
            <stop offset="0.283"/>
            <stop offset="0.998" stop-color="#1436D4"/>
        </linearGradient>
        <linearGradient id="paint18_linear" x1="38.8036" y1="100.951" x2="38.8036" y2="45.9055" gradientUnits="userSpaceOnUse">
            <stop offset="0.002" stop-color="#2762FF"/>
            <stop offset="0.717"/>
        </linearGradient>
        <linearGradient id="paint19_linear" x1="46.83" y1="100.951" x2="46.83" y2="46.3836" gradientUnits="userSpaceOnUse">
            <stop offset="0.002" stop-color="#1436D4"/>
            <stop offset="0.717"/>
        </linearGradient>
        <linearGradient id="paint20_linear" x1="25.4995" y1="53.6607" x2="25.4995" y2="45.8803" gradientUnits="userSpaceOnUse">
            <stop offset="0.283"/>
            <stop offset="0.998" stop-color="#2762FF"/>
        </linearGradient>
        <linearGradient id="paint21_linear" x1="25.4995" y1="100.232" x2="25.4995" y2="92.452" gradientUnits="userSpaceOnUse">
            <stop offset="0.283"/>
            <stop offset="0.998" stop-color="#1436D4"/>
        </linearGradient>
        <linearGradient id="paint22_linear" x1="21.6065" y1="100.951" x2="21.6065" y2="49.5288" gradientUnits="userSpaceOnUse">
            <stop offset="0.002" stop-color="#2762FF"/>
            <stop offset="0.717"/>
        </linearGradient>
        <linearGradient id="paint23_linear" x1="29.1044" y1="100.951" x2="29.1044" y2="49.9756" gradientUnits="userSpaceOnUse">
            <stop offset="0.002" stop-color="#1436D4"/>
            <stop offset="0.717"/>
        </linearGradient>
        <linearGradient id="paint24_linear" x1="9.5097" y1="56.993" x2="9.5097" y2="49.7608" gradientUnits="userSpaceOnUse">
            <stop offset="0.283"/>
            <stop offset="0.998" stop-color="#2762FF"/>
        </linearGradient>
        <linearGradient id="paint25_linear" x1="9.5097" y1="100.283" x2="9.5097" y2="93.0509" gradientUnits="userSpaceOnUse">
            <stop offset="0.283"/>
            <stop offset="0.998" stop-color="#1436D4"/>
        </linearGradient>
        <linearGradient id="paint26_linear" x1="5.89095" y1="100.951" x2="5.89095" y2="53.1522" gradientUnits="userSpaceOnUse">
            <stop offset="0.002" stop-color="#2762FF"/>
            <stop offset="0.717"/>
        </linearGradient>
        <linearGradient id="paint27_linear" x1="12.8606" y1="100.951" x2="12.8606" y2="53.5674" gradientUnits="userSpaceOnUse">
            <stop offset="0.002" stop-color="#1436D4"/>
            <stop offset="0.717"/>
        </linearGradient>
        <linearGradient id="paint28_linear" x1="43.2694" y1="103.66" x2="88.4196" y2="23.0484" gradientUnits="userSpaceOnUse">
            <stop/>
            <stop offset="0.998" stop-color="#2762FF"/>
        </linearGradient>
    </defs>
</svg>
