<svg width="104" height="104" viewBox="0 0 104 104" fill="none" xmlns="http://www.w3.org/2000/svg">
    <g clip-path="url(#clip0)">
        <path d="M67.0312 104H0V0H104V67.0312H67.0312V104Z" fill="url(#paint0_linear)"/>
        <path d="M52 0V104H67.0312V67.0312H104V0H52Z" fill="black"/>
        <path d="M104 30.4688H38.7895C38.3224 29.6594 37.6754 28.9684 36.8985 28.4492C36.1216 27.9299 35.2357 27.5964 34.3092 27.4744C33.3828 27.3523 32.4407 27.445 31.5558 27.7454C30.6709 28.0457 29.867 28.5456 29.2063 29.2063C28.5455 29.8671 28.0457 30.671 27.7453 31.5559C27.445 32.4407 27.3523 33.3828 27.4743 34.3093C27.5963 35.2357 27.9299 36.1217 28.4491 36.8986C28.9684 37.6755 29.6594 38.3225 30.4687 38.7896V104H36.5625V38.7896C37.4859 38.2537 38.2536 37.486 38.7895 36.5625H104V30.4688Z" fill="white"/>
        <path d="M104 30.4688H52V36.5625H104V30.4688Z" fill="#2762FF"/>
    </g>
    <defs>
        <linearGradient id="paint0_linear" x1="52" y1="0" x2="52" y2="104" gradientUnits="userSpaceOnUse">
            <stop stop-color="#2762FF"/>
            <stop offset="1"/>
        </linearGradient>
        <clipPath id="clip0">
            <rect width="104" height="104" fill="white"/>
        </clipPath>
    </defs>
</svg>
