<svg width="308" height="45" viewBox="0 0 308 45" fill="none" xmlns="http://www.w3.org/2000/svg">
    <mask id="mask0" mask-type="alpha" maskUnits="userSpaceOnUse" x="0" y="0" width="40" height="32">
        <path fill-rule="evenodd" clip-rule="evenodd" d="M0 0H39.3326V31.6861H0V0Z" fill="white"/>
    </mask>
    <g mask="url(#mask0)">
        <path fill-rule="evenodd" clip-rule="evenodd" d="M4.60559 30.5093C3.43678 28.0071 2.78392 25.2155 2.78392 22.2715C2.78392 11.5088 11.5088 2.78397 22.2715 2.78397C28.2644 2.78397 33.6252 5.48924 37.2 9.745L39.3326 7.95554C35.2472 3.09176 29.1205 0 22.2715 0C9.97129 0 0 9.97129 0 22.2715C0 25.6361 0.746093 28.8264 2.08189 31.6861L4.60559 30.5093Z" fill="black"/>
    </g>
    <path fill-rule="evenodd" clip-rule="evenodd" d="M22.2714 35.4952C14.9682 35.4952 9.04776 29.5748 9.04776 22.2716C9.04776 14.9683 14.9682 9.04784 22.2714 9.04784C26.338 9.04784 29.9752 10.884 32.4009 13.7719L34.5341 11.982C31.5977 8.48614 27.1941 6.26392 22.2714 6.26392C13.4307 6.26392 6.26379 13.4308 6.26379 22.2716C6.26379 31.1123 13.4307 38.2792 22.2714 38.2792V35.4952Z" fill="black"/>
    <path fill-rule="evenodd" clip-rule="evenodd" d="M27.0697 26.2977C25.9207 27.6656 24.1978 28.5354 22.2715 28.5354C18.8121 28.5354 16.0077 25.731 16.0077 22.2715C16.0077 18.8121 18.8121 16.0077 22.2715 16.0077C24.1978 16.0077 25.9207 16.8775 27.0697 18.2454L29.4688 16.2323C27.7453 14.1804 25.161 12.8757 22.2715 12.8757C17.0824 12.8757 12.8757 17.0824 12.8757 22.2715C12.8757 27.4607 17.0824 31.6673 22.2715 31.6673C24.9195 31.6673 27.3108 30.571 29.0186 28.8086L27.0697 26.2977Z" fill="black"/>
    <path fill-rule="evenodd" clip-rule="evenodd" d="M44.006 19.2226H46.8683V21.1559H46.9185C47.1861 20.5533 47.6506 20.022 48.312 19.5614C48.973 19.1013 49.7557 18.871 50.6597 18.871C51.4463 18.871 52.1198 19.0091 52.6808 19.2854C53.2416 19.5614 53.7017 19.9256 54.0618 20.3775C54.4216 20.8295 54.6853 21.3485 54.8527 21.9342C55.0198 22.5203 55.1038 23.1229 55.1038 23.7421V31.2746H52.0908V24.5958C52.0908 24.2442 52.0657 23.8762 52.0155 23.4909C51.9652 23.1062 51.8563 22.7589 51.6892 22.449C51.5216 22.1395 51.2912 21.884 50.9985 21.6832C50.7055 21.4823 50.3163 21.3819 49.8311 21.3819C49.3454 21.3819 48.9272 21.4784 48.5757 21.6707C48.2241 21.8632 47.9353 22.11 47.7094 22.4114C47.4834 22.7126 47.3117 23.0603 47.1946 23.4533C47.0774 23.8469 47.019 24.2442 47.019 24.646V31.2746H44.006V19.2226Z" fill="black"/>
    <path fill-rule="evenodd" clip-rule="evenodd" d="M56.384 21.633V19.2226H58.4931V15.7324H61.4559V19.2226H64.4689V21.633H61.4559V27.2321C61.4559 27.768 61.552 28.2114 61.7447 28.5629C61.9369 28.9144 62.368 29.0902 63.0377 29.0902C63.2386 29.0902 63.456 29.0694 63.6905 29.0274C63.9248 28.9858 64.1339 28.923 64.3184 28.839L64.4187 31.1992C64.1508 31.2997 63.8325 31.3789 63.4646 31.4378C63.0962 31.4962 62.7447 31.5257 62.41 31.5257C61.6066 31.5257 60.9537 31.4127 60.4516 31.1867C59.9494 30.9606 59.5516 30.6512 59.2589 30.2576C58.9659 29.8646 58.765 29.4126 58.6563 28.9018C58.5472 28.3915 58.4931 27.8433 58.4931 27.2572V21.633H56.384Z" fill="black"/>
    <path fill-rule="evenodd" clip-rule="evenodd" d="M66.2771 19.2226H69.1645V21.2312H69.2148C69.5493 20.5282 70.0183 19.9594 70.6208 19.5238C71.2234 19.0888 71.9264 18.871 72.7299 18.871C72.8468 18.871 72.9723 18.8753 73.1066 18.8835C73.2403 18.8922 73.3576 18.913 73.458 18.9463V21.7083C73.2571 21.6581 73.0853 21.6248 72.9433 21.6079C72.8009 21.5913 72.6628 21.5828 72.529 21.5828C71.8425 21.5828 71.29 21.7083 70.872 21.9593C70.4532 22.2104 70.1269 22.5117 69.8927 22.8633C69.658 23.2149 69.4992 23.5749 69.4157 23.943C69.3316 24.3113 69.2901 24.6043 69.2901 24.8217V31.2746H66.2771V19.2226Z" fill="black"/>
    <path fill-rule="evenodd" clip-rule="evenodd" d="M74.8386 31.2746H77.8516V19.2226H74.8386V31.2746ZM74.4117 15.1299C74.4117 14.6447 74.5914 14.222 74.9515 13.8619C75.3113 13.5021 75.7675 13.3221 76.3201 13.3221C76.8724 13.3221 77.3369 13.4939 77.7135 13.8368C78.0901 14.18 78.2784 14.6113 78.2784 15.1299C78.2784 15.6489 78.0901 16.0801 77.7135 16.4229C77.3369 16.7663 76.8724 16.9377 76.3201 16.9377C75.7675 16.9377 75.3113 16.7581 74.9515 16.3978C74.5914 16.0381 74.4117 15.6155 74.4117 15.1299Z" fill="black"/>
    <path fill-rule="evenodd" clip-rule="evenodd" d="M81.7438 21.633H79.459V19.2225H81.7438V18.3212C81.7438 17.6018 81.823 16.9113 81.9824 16.2498C82.1413 15.5888 82.4092 15.0069 82.7859 14.5047C83.1624 14.0026 83.6604 13.6051 84.2798 13.3121C84.8988 13.0195 85.6772 12.8727 86.6149 12.8727C86.9495 12.8727 87.23 12.8852 87.4561 12.9103C87.6819 12.9354 87.9119 12.9818 88.1466 13.0485L87.9456 15.6096C87.7781 15.5593 87.5981 15.5178 87.4059 15.484C87.2132 15.4507 87.0079 15.4338 86.7906 15.4338C86.3551 15.4338 86.0037 15.5178 85.7361 15.6849C85.4681 15.8523 85.263 16.0701 85.121 16.3377C84.9785 16.6056 84.8824 16.8987 84.8322 17.2165C84.782 17.5346 84.7568 17.8442 84.7568 18.1454V19.2225H87.5438V21.633H84.7568V31.2746H81.7438V21.633Z" fill="black"/>
    <path fill-rule="evenodd" clip-rule="evenodd" d="M100.149 31.2746H97.2865V29.3413H97.2362C96.9683 29.9439 96.5037 30.4754 95.8427 30.9355C95.1813 31.3958 94.399 31.6262 93.4951 31.6262C92.708 31.6262 92.0345 31.488 91.4739 31.2117C90.9129 30.9355 90.4526 30.5715 90.0928 30.1196C89.7327 29.6676 89.469 29.149 89.3019 28.5629C89.1345 27.9771 89.0509 27.3745 89.0509 26.7551V19.2225H92.0639V25.9014C92.0639 26.2529 92.089 26.6213 92.1392 27.0062C92.1895 27.3914 92.2981 27.7387 92.4656 28.0481C92.6327 28.3581 92.863 28.613 93.156 28.8139C93.4487 29.0148 93.838 29.1153 94.3237 29.1153C94.792 29.1153 95.2064 29.0191 95.5665 28.8264C95.9263 28.6342 96.2193 28.3871 96.4453 28.0857C96.6713 27.7845 96.8428 27.4373 96.96 27.0438C97.077 26.6507 97.1358 26.2529 97.1358 25.8511V19.2225H100.149V31.2746Z" fill="black"/>
    <path fill-rule="evenodd" clip-rule="evenodd" d="M33.9518 21.9467C34.5795 21.4031 35.3452 21.1307 36.2492 21.1307C36.7345 21.1307 37.157 21.2104 37.5173 21.3693C37.8769 21.5286 38.1739 21.742 38.4084 22.0095C38.6427 22.2775 38.8141 22.587 38.9233 22.9386C39.032 23.29 39.0865 23.6585 39.0865 24.0433H32.9099C32.9765 23.1897 33.3241 22.4909 33.9518 21.9467ZM39.5384 27.6088C39.2034 28.0944 38.7765 28.475 38.258 28.7511C37.7388 29.0274 37.1029 29.1655 36.3496 29.1655C35.9142 29.1655 35.4959 29.0902 35.0943 28.9395C34.6925 28.7888 34.3324 28.584 34.0145 28.3243C33.6964 28.065 33.441 27.7554 33.2488 27.3953C33.0562 27.0355 32.9432 26.6382 32.9099 26.2027H42.0744C42.0909 26.0689 42.0995 25.9352 42.0995 25.8009V25.3993C42.0995 24.3113 41.9528 23.3615 41.6601 22.5493C41.3671 21.7377 40.9609 21.0597 40.4424 20.5156C39.9233 19.9719 39.3081 19.5614 38.5968 19.2853C37.8852 19.0091 37.1111 18.871 36.2743 18.871C35.3704 18.871 34.5292 19.026 33.751 19.3356C32.9726 19.6455 32.2986 20.0806 31.7297 20.6412C31.1605 21.2022 30.7128 21.8801 30.3864 22.6749C30.0599 23.4702 29.8969 24.3533 29.8969 25.3239C29.8969 26.3117 30.0599 27.1944 30.3864 27.9728C30.7128 28.7511 31.1648 29.4083 31.7422 29.9439C32.3197 30.4798 33.0016 30.894 33.7885 31.1867C34.5753 31.4794 35.4372 31.6261 36.3747 31.6261C38.3982 31.6261 39.9915 30.9814 41.1562 29.6931L39.5384 27.6088Z" fill="black"/>
    <path fill-rule="evenodd" clip-rule="evenodd" d="M120.792 21.9467C121.42 21.4031 122.186 21.1307 123.09 21.1307C123.575 21.1307 123.998 21.2104 124.358 21.3693C124.718 21.5286 125.015 21.742 125.249 22.0095C125.483 22.2775 125.655 22.587 125.764 22.9386C125.873 23.29 125.927 23.6585 125.927 24.0433H119.751C119.817 23.1897 120.165 22.4909 120.792 21.9467ZM126.379 27.6088C126.044 28.0944 125.617 28.475 125.099 28.7511C124.579 29.0274 123.944 29.1655 123.19 29.1655C122.755 29.1655 122.337 29.0902 121.935 28.9395C121.533 28.7888 121.173 28.584 120.855 28.3243C120.537 28.065 120.282 27.7554 120.089 27.3953C119.897 27.0355 119.784 26.6382 119.751 26.2027H128.915C128.932 26.0689 128.94 25.9352 128.94 25.8009V25.3993C128.94 24.3113 128.793 23.3615 128.501 22.5493C128.208 21.7377 127.802 21.0597 127.283 20.5156C126.764 19.9719 126.149 19.5614 125.437 19.2853C124.726 19.0091 123.952 18.871 123.115 18.871C122.211 18.871 121.37 19.026 120.592 19.3356C119.813 19.6455 119.139 20.0806 118.57 20.6412C118.001 21.2022 117.553 21.8801 117.227 22.6749C116.901 23.4702 116.738 24.3533 116.738 25.3239C116.738 26.3117 116.901 27.1944 117.227 27.9728C117.553 28.7511 118.005 29.4083 118.583 29.9439C119.16 30.4798 119.842 30.894 120.629 31.1867C121.416 31.4794 122.278 31.6261 123.215 31.6261C125.239 31.6261 126.832 30.9814 127.997 29.6931L126.379 27.6088Z" fill="black"/>
    <path fill-rule="evenodd" clip-rule="evenodd" d="M111.772 26.5997C111.604 27.0587 111.366 27.4632 111.056 27.8136C110.746 28.1638 110.37 28.4432 109.926 28.6519C109.483 28.8607 108.985 28.9646 108.432 28.9646C107.897 28.9646 107.415 28.8564 106.989 28.6393C106.562 28.4224 106.202 28.1345 105.909 27.7759C105.616 27.4173 105.39 27.0125 105.231 26.562C105.072 26.1117 104.993 25.6449 104.993 25.1606C104.993 24.6271 105.072 24.1265 105.231 23.6593C105.39 23.192 105.616 22.7875 105.909 22.4454C106.202 22.1033 106.562 21.8322 106.989 21.6321C107.415 21.4321 107.905 21.3316 108.458 21.3316C109.01 21.3316 109.503 21.4321 109.939 21.6321C110.374 21.8322 110.746 22.1076 111.056 22.458C111.366 22.8084 111.604 23.2171 111.772 23.6839C111.939 24.1512 112.023 24.6436 112.023 25.1606C112.023 25.6613 111.939 26.1412 111.772 26.5997ZM112.023 19.2226V21.0303H111.973C111.537 20.2939 110.952 19.7498 110.215 19.3983C109.478 19.0467 108.684 18.871 107.83 18.871C106.926 18.871 106.11 19.0385 105.382 19.3732C104.654 19.7082 104.034 20.1601 103.524 20.729C103.013 21.2983 102.62 21.968 102.344 22.7377C102.067 23.5078 101.929 24.3282 101.929 25.1983C101.929 26.052 102.071 26.8598 102.356 27.6213C102.641 28.3832 103.038 29.0486 103.549 29.6174C104.059 30.1866 104.683 30.6387 105.419 30.9732C106.156 31.3079 106.976 31.4755 107.88 31.4755C108.717 31.4755 109.475 31.319 110.152 31.0062C110.83 30.6935 111.387 30.2412 111.822 29.6492H111.872V30.5312C111.872 31.1361 111.81 31.6904 111.684 32.1945C111.558 32.6983 111.349 33.1353 111.056 33.5049C110.763 33.8744 110.37 34.1639 109.876 34.3743C109.382 34.5841 108.775 34.6894 108.056 34.6894C107.303 34.6894 106.558 34.5426 105.821 34.2499C105.104 33.9646 104.458 33.5561 103.884 33.0249L102.105 35.317C102.49 35.6348 102.925 35.9196 103.411 36.1707C103.896 36.4218 104.402 36.6309 104.93 36.7984C105.457 36.9656 105.993 37.0911 106.537 37.175C107.081 37.2586 107.595 37.3006 108.081 37.3006C109.252 37.3006 110.265 37.133 111.119 36.7984C111.973 36.4633 112.68 35.9906 113.241 35.3798C113.801 34.7686 114.216 34.0238 114.484 33.1452C114.751 32.2664 114.885 31.2828 114.885 30.1948V19.2226H112.023Z" fill="black"/>
    <path d="M133.819 13.2689H140.001C141.154 13.2689 142.307 13.4385 143.46 13.7777C144.614 14.1169 145.657 14.6511 146.59 15.3804C147.522 16.1097 148.277 17.0425 148.854 18.1788C149.43 19.3151 149.719 20.6803 149.719 22.2746C149.719 23.8179 149.43 25.1577 148.854 26.294C148.277 27.4134 147.522 28.3462 146.59 29.0924C145.657 29.8217 144.614 30.3729 143.46 30.746C142.307 31.1021 141.154 31.2802 140.001 31.2802H133.819V13.2689ZM136.337 29.067H139.492C140.577 29.067 141.578 28.9143 142.494 28.609C143.427 28.3038 144.224 27.8628 144.885 27.2862C145.563 26.7095 146.089 25.9972 146.462 25.1493C146.835 24.3013 147.022 23.343 147.022 22.2746C147.022 21.1552 146.835 20.1716 146.462 19.3236C146.089 18.4756 145.563 17.7717 144.885 17.2121C144.224 16.6354 143.427 16.203 142.494 15.9146C141.578 15.6094 140.577 15.4567 139.492 15.4567H136.337V29.067Z" fill="#2762FF"/>
    <path d="M165.001 25.2256C165.001 26.1584 164.832 27.0148 164.493 27.795C164.17 28.5751 163.712 29.2535 163.119 29.8301C162.542 30.3898 161.855 30.8308 161.058 31.153C160.261 31.4583 159.405 31.6109 158.489 31.6109C157.573 31.6109 156.716 31.4583 155.919 31.153C155.122 30.8308 154.435 30.3898 153.859 29.8301C153.282 29.2535 152.824 28.5751 152.485 27.795C152.163 27.0148 152.002 26.1584 152.002 25.2256C152.002 24.2928 152.163 23.4448 152.485 22.6816C152.824 21.9015 153.282 21.2315 153.859 20.6719C154.435 20.1122 155.122 19.6797 155.919 19.3744C156.716 19.0522 157.573 18.8911 158.489 18.8911C159.405 18.8911 160.261 19.0522 161.058 19.3744C161.855 19.6797 162.542 20.1122 163.119 20.6719C163.712 21.2315 164.17 21.9015 164.493 22.6816C164.832 23.4448 165.001 24.2928 165.001 25.2256ZM162.508 25.2256C162.508 24.6489 162.415 24.0977 162.228 23.572C162.059 23.0462 161.804 22.5883 161.465 22.1982C161.126 21.7912 160.702 21.469 160.193 21.2315C159.701 20.9941 159.133 20.8754 158.489 20.8754C157.844 20.8754 157.268 20.9941 156.759 21.2315C156.267 21.469 155.852 21.7912 155.512 22.1982C155.173 22.5883 154.91 23.0462 154.724 23.572C154.554 24.0977 154.469 24.6489 154.469 25.2256C154.469 25.8022 154.554 26.3534 154.724 26.8791C154.91 27.4049 155.173 27.8713 155.512 28.2783C155.852 28.6854 156.267 29.0076 156.759 29.245C157.268 29.4825 157.844 29.6012 158.489 29.6012C159.133 29.6012 159.701 29.4825 160.193 29.245C160.702 29.0076 161.126 28.6854 161.465 28.2783C161.804 27.8713 162.059 27.4049 162.228 26.8791C162.415 26.3534 162.508 25.8022 162.508 25.2256Z" fill="#2762FF"/>
    <path d="M176.509 22.2746C176.255 21.8845 175.873 21.5623 175.364 21.3079C174.855 21.0365 174.313 20.9008 173.736 20.9008C173.109 20.9008 172.549 21.0195 172.057 21.257C171.582 21.4944 171.175 21.8167 170.836 22.2237C170.497 22.6138 170.234 23.0717 170.047 23.5974C169.878 24.1232 169.793 24.6744 169.793 25.251C169.793 25.8276 169.878 26.3788 170.047 26.9046C170.234 27.4303 170.497 27.8967 170.836 28.3038C171.175 28.6938 171.591 29.0076 172.083 29.245C172.574 29.4825 173.134 29.6012 173.762 29.6012C174.372 29.6012 174.923 29.4825 175.415 29.245C175.924 29.0076 176.339 28.6854 176.662 28.2783L178.264 29.7284C177.756 30.322 177.12 30.7884 176.356 31.1276C175.593 31.4498 174.728 31.6109 173.762 31.6109C172.829 31.6109 171.964 31.4583 171.167 31.153C170.387 30.8477 169.708 30.4237 169.132 29.881C168.555 29.3214 168.097 28.6514 167.758 27.8713C167.436 27.0911 167.274 26.2177 167.274 25.251C167.274 24.3013 167.436 23.4363 167.758 22.6562C168.08 21.876 168.529 21.2061 169.106 20.6464C169.683 20.0868 170.361 19.6543 171.141 19.349C171.938 19.0437 172.795 18.8911 173.711 18.8911C174.559 18.8911 175.398 19.0607 176.229 19.3999C177.077 19.7391 177.747 20.2309 178.239 20.8754L176.509 22.2746Z" fill="#2762FF"/>
    <path d="M188.876 31.2802C188.842 30.9749 188.817 30.6357 188.8 30.2626C188.783 29.8725 188.775 29.5503 188.775 29.2959H188.724C188.418 29.9404 187.901 30.4916 187.172 30.9495C186.459 31.3904 185.662 31.6109 184.78 31.6109C184 31.6109 183.322 31.4837 182.745 31.2293C182.186 30.9749 181.719 30.6273 181.346 30.1863C180.99 29.7284 180.719 29.2026 180.532 28.609C180.362 28.0155 180.278 27.3795 180.278 26.7011V19.2218H182.669V25.887C182.669 26.3788 182.703 26.8537 182.771 27.3116C182.856 27.7526 183 28.1427 183.203 28.4818C183.407 28.821 183.687 29.0924 184.043 29.2959C184.399 29.4994 184.857 29.6012 185.416 29.6012C186.383 29.6012 187.163 29.245 187.757 28.5327C188.351 27.8035 188.647 26.8367 188.647 25.6326V19.2218H191.039V28.6854C191.039 29.0076 191.047 29.4231 191.064 29.9319C191.081 30.4407 191.106 30.8901 191.14 31.2802H188.876Z" fill="#2762FF"/>
    <path d="M197.272 21.2061C197.577 20.5616 198.061 20.0189 198.722 19.578C199.401 19.12 200.198 18.8911 201.114 18.8911C201.928 18.8911 202.657 19.0776 203.301 19.4508C203.963 19.8239 204.48 20.4429 204.853 21.3079C205.26 20.5277 205.828 19.9341 206.558 19.5271C207.287 19.1031 208.084 18.8911 208.949 18.8911C209.729 18.8911 210.399 19.0268 210.959 19.2981C211.518 19.5525 211.985 19.9002 212.358 20.3412C212.731 20.7821 213.002 21.2994 213.172 21.893C213.359 22.4866 213.452 23.1226 213.452 23.8009V31.2802H211.06V24.5896C211.06 24.0977 211.018 23.6313 210.933 23.1904C210.848 22.7494 210.704 22.3594 210.501 22.0202C210.297 21.681 210.026 21.4096 209.687 21.2061C209.348 21.0026 208.915 20.9008 208.389 20.9008C207.847 20.9008 207.38 21.0195 206.99 21.257C206.6 21.4775 206.278 21.7743 206.023 22.1474C205.786 22.5035 205.608 22.9106 205.489 23.3685C205.387 23.8264 205.337 24.2928 205.337 24.7677V31.2802H202.945V24.1062C202.945 23.6313 202.903 23.1989 202.818 22.8088C202.733 22.4187 202.589 22.088 202.386 21.8167C202.182 21.5283 201.919 21.3079 201.597 21.1552C201.275 20.9856 200.876 20.9008 200.401 20.9008C199.519 20.9008 198.782 21.2655 198.188 21.9947C197.611 22.707 197.323 23.6653 197.323 24.8694V31.2802H194.932V21.8167C194.932 21.4944 194.923 21.0789 194.906 20.5701C194.889 20.0613 194.864 19.6119 194.83 19.2218H197.094C197.128 19.5271 197.153 19.8748 197.17 20.2648C197.187 20.6379 197.196 20.9517 197.196 21.2061H197.272Z" fill="#2762FF"/>
    <path d="M226.063 24.1825C226.046 23.7077 225.961 23.2667 225.808 22.8597C225.673 22.4357 225.461 22.071 225.172 21.7658C224.901 21.4605 224.553 21.2231 224.129 21.0535C223.722 20.8669 223.239 20.7736 222.679 20.7736C222.17 20.7736 221.687 20.8669 221.229 21.0535C220.788 21.2231 220.398 21.4605 220.059 21.7658C219.737 22.071 219.465 22.4357 219.245 22.8597C219.041 23.2667 218.923 23.7077 218.889 24.1825H226.063ZM228.479 25.1493C228.479 25.2849 228.479 25.4206 228.479 25.5563C228.479 25.692 228.471 25.8276 228.454 25.9633H218.889C218.906 26.4721 219.016 26.9555 219.219 27.4134C219.44 27.8543 219.728 28.2444 220.084 28.5836C220.441 28.9058 220.848 29.1602 221.305 29.3468C221.78 29.5334 222.281 29.6266 222.806 29.6266C223.62 29.6266 224.324 29.4486 224.918 29.0924C225.512 28.7362 225.978 28.3038 226.317 27.795L227.996 29.1433C227.352 29.9913 226.588 30.6188 225.707 31.0258C224.842 31.4159 223.875 31.6109 222.806 31.6109C221.891 31.6109 221.043 31.4583 220.262 31.153C219.482 30.8477 218.812 30.4237 218.253 29.881C217.693 29.3214 217.252 28.6514 216.93 27.8713C216.608 27.0911 216.447 26.2262 216.447 25.2764C216.447 24.3437 216.599 23.4872 216.904 22.707C217.227 21.9099 217.668 21.2315 218.227 20.6719C218.787 20.1122 219.448 19.6797 220.212 19.3744C220.975 19.0522 221.797 18.8911 222.679 18.8911C223.561 18.8911 224.358 19.0352 225.071 19.3236C225.8 19.6119 226.41 20.0274 226.902 20.5701C227.411 21.1128 227.801 21.7743 228.072 22.5544C228.344 23.3176 228.479 24.1825 228.479 25.1493Z" fill="#2762FF"/>
    <path d="M233.726 19.2218C233.76 19.5271 233.786 19.8748 233.803 20.2648C233.819 20.6379 233.828 20.9517 233.828 21.2061H233.904C234.057 20.8839 234.26 20.5871 234.515 20.3157C234.786 20.0274 235.091 19.7815 235.431 19.578C235.77 19.3575 236.143 19.1879 236.55 19.0692C236.957 18.9504 237.381 18.8911 237.822 18.8911C238.602 18.8911 239.272 19.0268 239.832 19.2981C240.391 19.5525 240.858 19.9002 241.231 20.3412C241.604 20.7821 241.875 21.2994 242.045 21.893C242.232 22.4866 242.325 23.1226 242.325 23.8009V31.2802H239.934V24.5896C239.934 24.0977 239.891 23.6313 239.806 23.1904C239.738 22.7494 239.603 22.3594 239.399 22.0202C239.196 21.681 238.916 21.4096 238.56 21.2061C238.204 21.0026 237.746 20.9008 237.186 20.9008C236.236 20.9008 235.456 21.2655 234.846 21.9947C234.252 22.707 233.955 23.6653 233.955 24.8694V31.2802H231.564V21.8167C231.564 21.4944 231.555 21.0789 231.538 20.5701C231.521 20.0613 231.496 19.6119 231.462 19.2218H233.726Z" fill="#2762FF"/>
    <path d="M252.018 21.1807H248.813V27.4643C248.813 28.1935 248.948 28.7193 249.22 29.0415C249.491 29.3468 249.924 29.4994 250.517 29.4994C250.738 29.4994 250.975 29.474 251.23 29.4231C251.484 29.3722 251.713 29.2959 251.916 29.1942L251.993 31.153C251.704 31.2548 251.382 31.3311 251.026 31.382C250.687 31.4498 250.331 31.4837 249.958 31.4837C248.821 31.4837 247.948 31.17 247.337 30.5425C246.744 29.9149 246.447 28.9737 246.447 27.7187V21.1807H244.132V19.2218H246.447V15.762H248.813V19.2218H252.018V21.1807Z" fill="#2762FF"/>
    <path d="M261.739 23.4702C261.739 22.5714 261.467 21.9099 260.925 21.4859C260.382 21.045 259.661 20.8245 258.762 20.8245C258.084 20.8245 257.439 20.9602 256.829 21.2315C256.235 21.4859 255.735 21.8167 255.328 22.2237L254.056 20.6973C254.649 20.1376 255.37 19.6967 256.218 19.3744C257.083 19.0522 258.008 18.8911 258.991 18.8911C259.856 18.8911 260.602 19.0183 261.23 19.2727C261.874 19.5101 262.4 19.8408 262.807 20.2648C263.214 20.6888 263.519 21.1891 263.723 21.7658C263.926 22.3424 264.028 22.9614 264.028 23.6229V28.8889C264.028 29.2959 264.037 29.7284 264.054 30.1863C264.088 30.6273 264.138 30.9919 264.206 31.2802H262.044C261.908 30.7036 261.84 30.1269 261.84 29.5503H261.764C261.323 30.1948 260.763 30.6951 260.085 31.0513C259.424 31.4074 258.635 31.5855 257.719 31.5855C257.244 31.5855 256.744 31.5176 256.218 31.382C255.709 31.2633 255.243 31.0597 254.819 30.7714C254.395 30.4831 254.039 30.1015 253.751 29.6266C253.479 29.1518 253.344 28.5666 253.344 27.8713C253.344 26.9555 253.59 26.2347 254.081 25.7089C254.573 25.1662 255.218 24.7592 256.015 24.4878C256.812 24.1995 257.711 24.0129 258.711 23.9281C259.712 23.8433 260.721 23.8009 261.739 23.8009V23.4702ZM261.154 25.5308C260.56 25.5308 259.941 25.5563 259.296 25.6072C258.669 25.658 258.092 25.7598 257.567 25.9124C257.058 26.0651 256.634 26.294 256.295 26.5993C255.955 26.9046 255.786 27.3116 255.786 27.8204C255.786 28.1766 255.854 28.4734 255.989 28.7108C256.142 28.9482 256.337 29.1433 256.574 29.2959C256.812 29.4486 257.075 29.5588 257.363 29.6266C257.651 29.6775 257.948 29.703 258.253 29.703C259.373 29.703 260.229 29.3722 260.823 28.7108C261.433 28.0324 261.739 27.1844 261.739 26.1668V25.5308H261.154Z" fill="#2762FF"/>
    <path d="M273.421 21.1807H270.216V27.4643C270.216 28.1935 270.352 28.7193 270.623 29.0415C270.894 29.3468 271.327 29.4994 271.92 29.4994C272.141 29.4994 272.378 29.474 272.633 29.4231C272.887 29.3722 273.116 29.2959 273.32 29.1942L273.396 31.153C273.107 31.2548 272.785 31.3311 272.429 31.382C272.09 31.4498 271.734 31.4837 271.361 31.4837C270.224 31.4837 269.351 31.17 268.74 30.5425C268.147 29.9149 267.85 28.9737 267.85 27.7187V21.1807H265.535V19.2218H267.85V15.762H270.216V19.2218H273.421V21.1807Z" fill="#2762FF"/>
    <path d="M278.054 31.2802H275.663V19.2218H278.054V31.2802ZM278.461 14.8716C278.461 15.3126 278.3 15.6772 277.978 15.9655C277.672 16.2538 277.299 16.398 276.858 16.398C276.417 16.398 276.044 16.2538 275.739 15.9655C275.434 15.6602 275.281 15.2956 275.281 14.8716C275.281 14.4307 275.434 14.066 275.739 13.7777C276.044 13.4724 276.417 13.3198 276.858 13.3198C277.299 13.3198 277.672 13.4724 277.978 13.7777C278.3 14.066 278.461 14.4307 278.461 14.8716Z" fill="#2762FF"/>
    <path d="M294.177 25.2256C294.177 26.1584 294.008 27.0148 293.668 27.795C293.346 28.5751 292.888 29.2535 292.295 29.8301C291.718 30.3898 291.031 30.8308 290.234 31.153C289.437 31.4583 288.581 31.6109 287.665 31.6109C286.749 31.6109 285.892 31.4583 285.095 31.153C284.298 30.8308 283.611 30.3898 283.035 29.8301C282.458 29.2535 282 28.5751 281.661 27.795C281.339 27.0148 281.178 26.1584 281.178 25.2256C281.178 24.2928 281.339 23.4448 281.661 22.6816C282 21.9015 282.458 21.2315 283.035 20.6719C283.611 20.1122 284.298 19.6797 285.095 19.3744C285.892 19.0522 286.749 18.8911 287.665 18.8911C288.581 18.8911 289.437 19.0522 290.234 19.3744C291.031 19.6797 291.718 20.1122 292.295 20.6719C292.888 21.2315 293.346 21.9015 293.668 22.6816C294.008 23.4448 294.177 24.2928 294.177 25.2256ZM291.684 25.2256C291.684 24.6489 291.591 24.0977 291.404 23.572C291.235 23.0462 290.98 22.5883 290.641 22.1982C290.302 21.7912 289.878 21.469 289.369 21.2315C288.877 20.9941 288.309 20.8754 287.665 20.8754C287.02 20.8754 286.444 20.9941 285.935 21.2315C285.443 21.469 285.027 21.7912 284.688 22.1982C284.349 22.5883 284.086 23.0462 283.9 23.572C283.73 24.0977 283.645 24.6489 283.645 25.2256C283.645 25.8022 283.73 26.3534 283.9 26.8791C284.086 27.4049 284.349 27.8713 284.688 28.2783C285.027 28.6854 285.443 29.0076 285.935 29.245C286.444 29.4825 287.02 29.6012 287.665 29.6012C288.309 29.6012 288.877 29.4825 289.369 29.245C289.878 29.0076 290.302 28.6854 290.641 28.2783C290.98 27.8713 291.235 27.4049 291.404 26.8791C291.591 26.3534 291.684 25.8022 291.684 25.2256Z" fill="#2762FF"/>
    <path d="M299.401 19.2218C299.435 19.5271 299.461 19.8748 299.478 20.2648C299.495 20.6379 299.503 20.9517 299.503 21.2061H299.579C299.732 20.8839 299.936 20.5871 300.19 20.3157C300.461 20.0274 300.767 19.7815 301.106 19.578C301.445 19.3575 301.818 19.1879 302.225 19.0692C302.632 18.9504 303.056 18.8911 303.497 18.8911C304.277 18.8911 304.947 19.0268 305.507 19.2981C306.067 19.5525 306.533 19.9002 306.906 20.3412C307.279 20.7821 307.551 21.2994 307.72 21.893C307.907 22.4866 308 23.1226 308 23.8009V31.2802H305.609V24.5896C305.609 24.0977 305.566 23.6313 305.481 23.1904C305.414 22.7494 305.278 22.3594 305.074 22.0202C304.871 21.681 304.591 21.4096 304.235 21.2061C303.879 21.0026 303.421 20.9008 302.861 20.9008C301.911 20.9008 301.131 21.2655 300.521 21.9947C299.927 22.707 299.63 23.6653 299.63 24.8694V31.2802H297.239V21.8167C297.239 21.4944 297.23 21.0789 297.214 20.5701C297.197 20.0613 297.171 19.6119 297.137 19.2218H299.401Z" fill="#2762FF"/>
</svg>
