<svg width="1440" height="625" viewBox="0 0 1440 625" fill="none" xmlns="http://www.w3.org/2000/svg">
    <g clip-path="url(#clip0)">
        <rect width="1440" height="625" fill="white"/>
        <rect x="0" width="1440" height="625" fill="black"/>
        <g clip-path="url(#clip1)">
            <path d="M849 540.677V615.498H1464.06V477.195H1453.64C1437.07 512.088 1415.32 544.522 1390.08 544.287C1346.92 543.884 1319.46 448.158 1290.03 454.831C1268.32 459.753 1269.55 514.958 1238.24 521.923C1223.96 525.101 1215.79 515.371 1205.28 521.923C1188.08 532.649 1196.89 566.886 1185.27 570.182C1177.2 572.475 1166.5 557.794 1165.26 556.057C1154.57 541.109 1160.28 529.954 1151.14 516.037C1145 506.689 1138.24 505.359 1127.6 498.382C1090.19 473.867 1090.8 436.03 1073.45 435.998C1061.76 435.977 1052.07 453.149 1040.5 473.664C1026.44 498.569 1027.76 510.931 1014.6 518.392C1002.06 525.497 994.075 519.018 980.466 523.1C968.613 526.656 955.067 539.563 946.068 579.139L936.915 560.765C931.016 548.213 923.337 534.977 916.905 536.047C909.349 537.307 911.059 557.063 900.427 563.119C892.973 567.367 878.664 565.33 849 540.677Z" fill="url(#paint0_linear)"/>
        </g>
        <g opacity="0.6" clip-path="url(#clip2)">
            <path d="M956 526.677V601.498H1571.06V463.195H1560.64C1544.07 498.088 1522.32 530.522 1497.08 530.287C1453.92 529.884 1426.46 434.158 1397.03 440.831C1375.32 445.753 1376.55 500.958 1345.24 507.923C1330.96 511.101 1322.79 501.371 1312.28 507.923C1295.08 518.649 1303.89 552.886 1292.27 556.182C1284.2 558.475 1273.5 543.794 1272.26 542.057C1261.57 527.109 1267.28 515.954 1258.14 502.037C1252 492.689 1245.24 491.359 1234.6 484.382C1197.19 459.867 1197.8 422.03 1180.45 421.998C1168.76 421.977 1159.07 439.149 1147.5 459.664C1133.44 484.569 1134.76 496.931 1121.6 504.392C1109.06 511.497 1101.07 505.018 1087.47 509.1C1075.61 512.656 1062.07 525.563 1053.07 565.139L1043.92 546.765C1038.02 534.213 1030.34 520.977 1023.91 522.047C1016.35 523.307 1018.06 543.063 1007.43 549.119C999.973 553.367 985.664 551.33 956 526.677Z" fill="url(#paint1_linear)" fill-opacity="0.7"/>
        </g>
        <g opacity="0.7" clip-path="url(#clip3)">
            <path d="M827 600.677V675.498H1442.06V537.195H1431.64C1415.07 572.088 1393.32 604.522 1368.08 604.287C1324.92 603.884 1297.46 508.158 1268.03 514.831C1246.32 519.753 1247.55 574.958 1216.24 581.923C1201.96 585.101 1193.79 575.371 1183.28 581.923C1166.08 592.649 1174.89 626.886 1163.27 630.182C1155.2 632.475 1144.5 617.794 1143.26 616.057C1132.57 601.109 1138.28 589.954 1129.14 576.037C1123 566.689 1116.24 565.359 1105.6 558.382C1068.19 533.867 1068.8 496.03 1051.45 495.998C1039.76 495.977 1030.07 513.149 1018.5 533.664C1004.44 558.569 1005.76 570.931 992.6 578.392C980.065 585.497 972.075 579.018 958.466 583.1C946.613 586.656 933.067 599.563 924.068 639.139L914.915 620.765C909.016 608.213 901.337 594.977 894.905 596.047C887.349 597.307 889.059 617.063 878.427 623.119C870.973 627.367 856.664 625.33 827 600.677Z" fill="url(#paint2_linear)"/>
        </g>
    </g>
    <defs>
        <linearGradient id="paint0_linear" x1="1089.12" y1="651.4" x2="1133.85" y2="368.909" gradientUnits="userSpaceOnUse">
            <stop offset="0.15625"/>
            <stop offset="0.998" stop-color="#1436D4"/>
        </linearGradient>
        <linearGradient id="paint1_linear" x1="1196.12" y1="637.4" x2="1240.85" y2="354.909" gradientUnits="userSpaceOnUse">
            <stop offset="0.171875"/>
            <stop offset="0.998" stop-color="#1436D4"/>
        </linearGradient>
        <linearGradient id="paint2_linear" x1="1067.12" y1="711.4" x2="1111.85" y2="428.909" gradientUnits="userSpaceOnUse">
            <stop/>
            <stop offset="0.998" stop-color="#1436D4"/>
        </linearGradient>
        <clipPath id="clip0">
            <rect width="1442" height="625" fill="white"/>
        </clipPath>
        <clipPath id="clip1">
            <rect width="615.061" height="179.5" fill="white" transform="translate(849 436)"/>
        </clipPath>
        <clipPath id="clip2">
            <rect width="615.061" height="179.5" fill="white" transform="translate(956 422)"/>
        </clipPath>
        <clipPath id="clip3">
            <rect width="615.061" height="179.5" fill="white" transform="translate(827 496)"/>
        </clipPath>
    </defs>
</svg>
