<svg width="104" height="104" viewBox="0 0 104 104" fill="none" xmlns="http://www.w3.org/2000/svg">
    <g clip-path="url(#clip0)">
        <path d="M24.7813 76.1719C24.7773 76.5731 24.8534 76.9711 25.0051 77.3425C25.1568 77.714 25.3811 78.0515 25.6649 78.3352C25.9486 78.6189 26.286 78.8432 26.6575 78.9949C27.0289 79.1466 27.4269 79.2227 27.8282 79.2188H49.1563V54.8438H24.7813V76.1719Z" fill="black"/>
        <path d="M101.172 0.000149256H28.047C27.6458 -0.00384177 27.2478 0.0722426 26.8763 0.223949C26.5049 0.375656 26.1674 0.599936 25.8837 0.883663C25.5999 1.16739 25.3757 1.50486 25.224 1.87633C25.0722 2.2478 24.9962 2.64579 25.0001 3.04702V48.7501H52.422C52.8233 48.7462 53.2213 48.8222 53.5927 48.9739C53.9642 49.1257 54.3017 49.3499 54.5854 49.6337C54.8691 49.9174 55.0934 50.2549 55.2451 50.6263C55.3968 50.9978 55.4729 51.3958 55.4689 51.797V79.2189H101.172C101.573 79.2229 101.971 79.1468 102.343 78.995C102.714 78.8433 103.052 78.619 103.335 78.3353C103.619 78.0516 103.843 77.7141 103.995 77.3427C104.147 76.9712 104.223 76.5732 104.219 76.172V3.04702C104.223 2.64579 104.147 2.2478 103.995 1.87633C103.843 1.50486 103.619 1.16739 103.335 0.883663C103.052 0.599936 102.714 0.375656 102.343 0.223949C101.971 0.0722426 101.573 -0.00384177 101.172 0.000149256ZM92.0314 33.5158C92.0314 34.3239 91.7104 35.0988 91.139 35.6702C90.5676 36.2416 89.7926 36.5626 88.9845 36.5626C88.1764 36.5626 87.4015 36.2416 86.8301 35.6702C86.2587 35.0988 85.9376 34.3239 85.9376 33.5158V22.608L66.7423 41.7423C66.4673 42.0312 66.1364 42.2611 65.7697 42.4183C65.4031 42.5754 65.0084 42.6564 64.6095 42.6564C64.2107 42.6564 63.8159 42.5754 63.4493 42.4183C63.0827 42.2611 62.7518 42.0312 62.4767 41.7423C62.1879 41.4673 61.9579 41.1364 61.8008 40.7697C61.6437 40.4031 61.5626 40.0084 61.5626 39.6095C61.5626 39.2107 61.6437 38.8159 61.8008 38.4493C61.9579 38.0827 62.1879 37.7518 62.4767 37.4767L81.6111 18.2814H70.7033C69.8952 18.2814 69.1202 17.9604 68.5488 17.389C67.9774 16.8176 67.6564 16.0426 67.6564 15.2345C67.6564 14.4264 67.9774 13.6515 68.5488 13.0801C69.1202 12.5087 69.8952 12.1876 70.7033 12.1876H88.9845C89.3845 12.1741 89.7818 12.2577 90.1423 12.4314C90.8831 12.7461 91.473 13.3359 91.7876 14.0767C91.9613 14.4373 92.0449 14.8346 92.0314 15.2345V33.5158Z" fill="url(#paint0_linear)"/>
        <path d="M49.1563 79.2187V97.9062H6.09378V54.8437H24.7813V48.75H3.0469C2.64567 48.746 2.24767 48.8221 1.87621 48.9738C1.50474 49.1255 1.16727 49.3498 0.883542 49.6335C0.599814 49.9172 0.375538 50.2547 0.223832 50.6262C0.0721252 50.9976 -0.00396385 51.3956 2.71771e-05 51.7969V100.953C-0.00393622 101.354 0.072165 101.752 0.223881 102.124C0.375598 102.495 0.599882 102.833 0.883604 103.116C1.16733 103.4 1.50479 103.624 1.87624 103.776C2.2477 103.928 2.64568 104.004 3.0469 104H52.2032C52.6044 104.004 53.0024 103.928 53.3738 103.776C53.7453 103.624 54.0827 103.4 54.3665 103.116C54.6502 102.833 54.8745 102.495 55.0262 102.124C55.1779 101.752 55.254 101.354 55.25 100.953V79.2187H49.1563Z" fill="#2762FF"/>
    </g>
    <defs>
        <linearGradient id="paint0_linear" x1="64.6095" y1="0" x2="64.6095" y2="79.219" gradientUnits="userSpaceOnUse">
            <stop stop-color="#2762FF"/>
            <stop offset="1"/>
        </linearGradient>
        <clipPath id="clip0">
            <rect width="104" height="104" fill="white"/>
        </clipPath>
    </defs>
</svg>
