<svg width="930" height="445" viewBox="0 0 930 445" fill="none" xmlns="http://www.w3.org/2000/svg">
    <mask id="mask0" mask-type="alpha" maskUnits="userSpaceOnUse" x="186" y="0" width="452" height="364">
        <path fill-rule="evenodd" clip-rule="evenodd" d="M186 0H637.362V363.614H186V0Z" fill="white"/>
    </mask>
    <g mask="url(#mask0)">
        <path fill-rule="evenodd" clip-rule="evenodd" d="M238.851 350.109C225.439 321.396 217.947 289.361 217.947 255.577C217.947 132.069 318.069 31.9474 441.577 31.9474C510.348 31.9474 571.866 62.9918 612.889 111.829L637.362 91.2939C590.479 35.4795 520.172 0 441.577 0C300.426 0 186 114.426 186 255.577C186 294.187 194.562 330.798 209.891 363.614L238.851 350.109Z" fill="url(#paint0_linear)"/>
    </g>
    <path fill-rule="evenodd" clip-rule="evenodd" d="M441.577 407.326C357.768 407.326 289.828 339.386 289.828 255.577C289.828 171.769 357.768 103.828 441.577 103.828C488.243 103.828 529.981 124.899 557.818 158.039L582.297 137.499C548.6 97.3822 498.067 71.8811 441.577 71.8811C340.124 71.8811 257.881 154.124 257.881 255.577C257.881 357.029 340.124 439.273 441.577 439.273V407.326Z" fill="url(#paint1_linear)"/>
    <path fill-rule="evenodd" clip-rule="evenodd" d="M496.639 301.779C483.453 317.477 463.682 327.458 441.577 327.458C401.878 327.458 369.696 295.276 369.696 255.577C369.696 215.878 401.878 183.696 441.577 183.696C463.682 183.696 483.453 193.677 496.639 209.375L524.169 186.274C504.391 162.727 474.735 147.755 441.577 147.755C382.029 147.755 333.755 196.028 333.755 255.577C333.755 315.125 382.029 363.399 441.577 363.399C471.964 363.399 499.405 350.818 519.002 330.593L496.639 301.779Z" fill="url(#paint2_linear)"/>
    <line x1="546" y1="443" x2="928" y2="443" stroke="#D4D5D8" stroke-width="2"/>
    <line x1="929" y1="378" x2="929" y2="444" stroke="#D4D5D8" stroke-width="2"/>
    <line x1="446" y1="100" x2="2" y2="100" stroke="#D4D5D8" stroke-width="2"/>
    <line x1="1" y1="165" x2="1" y2="99" stroke="#D4D5D8" stroke-width="2"/>
    <circle cx="544.5" cy="333.5" r="111.5" fill="#FCBA59"/>
    <path fill-rule="evenodd" clip-rule="evenodd" d="M588.061 220.758C580.018 151.643 521.273 98 450 98C373.232 98 311 160.232 311 237C311 307.754 363.865 366.161 432.25 374.877C426.294 360.774 423 345.272 423 329C423 263.83 475.83 211 541 211C557.728 211 573.644 214.481 588.061 220.758ZM588.977 234.454C574.571 227.129 558.268 223 541 223C482.458 223 435 270.458 435 329C435 345.855 438.934 361.792 445.934 375.942C447.285 375.98 448.64 376 450 376C526.768 376 589 313.768 589 237C589 236.149 588.992 235.301 588.977 234.454Z" fill="url(#paint3_linear)"/>
    <defs>
        <linearGradient id="paint0_linear" x1="411.681" y1="0" x2="411.681" y2="363.614" gradientUnits="userSpaceOnUse">
            <stop stop-color="#F2F2F2"/>
            <stop offset="0.973958" stop-color="white"/>
        </linearGradient>
        <linearGradient id="paint1_linear" x1="420.089" y1="71.8811" x2="420.089" y2="439.273" gradientUnits="userSpaceOnUse">
            <stop stop-color="#F2F2F2"/>
            <stop offset="0.973958" stop-color="white"/>
        </linearGradient>
        <linearGradient id="paint2_linear" x1="428.962" y1="147.755" x2="428.962" y2="363.399" gradientUnits="userSpaceOnUse">
            <stop stop-color="#F2F2F2"/>
            <stop offset="0.973958" stop-color="white"/>
        </linearGradient>
        <linearGradient id="paint3_linear" x1="311" y1="237" x2="589" y2="237" gradientUnits="userSpaceOnUse">
            <stop stop-color="#2768FF"/>
            <stop offset="1"/>
        </linearGradient>
    </defs>
</svg>
