<svg width="1444" height="656" viewBox="0 0 1444 656" fill="none" xmlns="http://www.w3.org/2000/svg">
<g clip-path="url(#clip0)">
<rect width="1444" height="656" fill="white"/>
<rect x="1444" y="656" width="1444" height="656" transform="rotate(-180 1444 656)" fill="url(#paint0_linear)"/>
<g opacity="0.55">
<path d="M301.552 136.199L269.757 156.46C258.452 150.454 247.147 144.449 235.841 138.444L268.697 118.307L301.552 136.199Z" fill="url(#paint1_linear)"/>
<path d="M301.552 366.349L269.757 386.61L235.842 368.594L268.697 348.458L301.552 366.349Z" fill="url(#paint2_linear)"/>
<path opacity="0.96" d="M301.629 366.185L269.869 388.357V156.459L301.629 136.199V366.185Z" fill="url(#paint3_linear)"/>
<path opacity="0.96" d="M269.891 388.357L235.919 368.375V138.389L269.869 156.459C269.876 233.758 269.884 311.057 269.891 388.357Z" fill="url(#paint4_linear)"/>
<path d="M363.977 88.8929L332.182 109.154C320.878 103.148 309.573 97.1424 298.267 91.138L331.122 71.0005L363.977 88.8929Z" fill="url(#paint5_linear)"/>
<path d="M363.976 319.045L332.181 339.305L298.266 321.29L331.121 301.153L363.976 319.045Z" fill="url(#paint6_linear)"/>
<path opacity="0.96" d="M364.054 318.879L332.294 341.051V109.154L364.054 88.8931V318.879Z" fill="url(#paint7_linear)"/>
<path opacity="0.96" d="M332.316 341.051L298.344 321.069V91.0833L332.294 109.154C332.301 186.453 332.308 263.752 332.316 341.051Z" fill="url(#paint8_linear)"/>
<path d="M235.841 189.101L204.046 209.362C192.741 203.356 181.436 197.351 170.131 191.346L202.986 171.209L235.841 189.101Z" fill="url(#paint9_linear)"/>
<path d="M235.841 419.253L204.046 439.514L170.131 421.498L202.986 401.361L235.841 419.253Z" fill="url(#paint10_linear)"/>
<path opacity="0.96" d="M235.919 419.087L204.159 441.259V209.362L235.919 189.101V419.087Z" fill="url(#paint11_linear)"/>
<path opacity="0.96" d="M204.181 441.259L170.209 421.278V191.292L204.159 209.362C204.166 286.661 204.174 363.96 204.181 441.259Z" fill="url(#paint12_linear)"/>
<path d="M104.421 277.75L72.6258 298.01C61.3207 292.005 50.0155 285.999 38.7104 279.995L71.5656 259.858L104.421 277.75Z" fill="url(#paint13_linear)"/>
<path d="M104.421 507.9L72.6258 528.161L38.7104 510.146L71.5656 490.009L104.421 507.9Z" fill="url(#paint14_linear)"/>
<path opacity="0.96" d="M104.498 507.736L72.7383 529.908V298.01L104.498 277.75V507.736Z" fill="url(#paint15_linear)"/>
<path opacity="0.96" d="M72.7606 529.907L38.7883 509.926V279.94L72.7387 298.01C72.746 375.309 72.7533 452.608 72.7606 529.907Z" fill="url(#paint16_linear)"/>
<path d="M170.131 228.801L138.336 249.062C127.031 243.056 115.726 237.051 104.421 231.046L137.276 210.909L170.131 228.801Z" fill="url(#paint17_linear)"/>
<path d="M170.131 458.953L138.336 479.214L104.421 461.198L137.276 441.062L170.131 458.953Z" fill="url(#paint18_linear)"/>
<path opacity="0.96" d="M170.209 458.787L138.449 480.959V249.062L170.209 228.801V458.787Z" fill="url(#paint19_linear)"/>
<path opacity="0.96" d="M138.471 480.959L104.498 460.978V230.992L138.449 249.062C138.456 326.361 138.463 403.66 138.471 480.959Z" fill="url(#paint20_linear)"/>
<path d="M38.7103 332.843L6.91529 353.103L-27 335.088L5.85515 314.95L38.7103 332.843Z" fill="url(#paint21_linear)"/>
<path d="M38.7103 562.994L6.91529 583.255L-27 565.239L5.85515 545.103L38.7103 562.994Z" fill="url(#paint22_linear)"/>
<path opacity="0.96" d="M38.7881 562.829L7.02808 585V353.103L38.7881 332.843V562.829Z" fill="url(#paint23_linear)"/>
<path opacity="0.96" d="M7.05011 585L-26.9221 565.019V335.033L7.02822 353.103C7.03552 430.402 7.04281 507.701 7.05011 585Z" fill="url(#paint24_linear)"/>
<path d="M7.02808 480.357V498.427L89.385 382.035L141.45 381.745L207.554 292.216H267.179L364.054 169.328V155.091L264.427 277.828H205.172L140.468 366.372L88.6184 366.459L7.02808 480.357Z" fill="url(#paint25_linear)"/>
<path d="M375.553 164.4L364.054 169.756V169.328L363.521 170.004L335.58 183.018L346.812 191.201C320.268 224.872 293.724 258.544 267.18 292.216H207.554L141.448 381.746H89.604L7.02808 498.427V535.115L98.2395 402.469H152.728L218.794 310.52L278.05 311.201L364.054 203.826V203.763L373.911 210.944L375.553 164.4Z" fill="url(#paint26_linear)"/>
<path d="M335.58 183.017L322.438 176.446L364.054 158.376L375.553 164.399L335.58 183.017Z" fill="url(#paint27_linear)"/>
</g>
</g>
<defs>
<linearGradient id="paint0_linear" x1="2166" y1="656" x2="2166" y2="1312" gradientUnits="userSpaceOnUse">
<stop/>
<stop offset="0.301646"/>
<stop offset="1" stop-color="#2762FF"/>
</linearGradient>
<linearGradient id="paint1_linear" x1="268.696" y1="156.46" x2="268.696" y2="118.307" gradientUnits="userSpaceOnUse">
<stop offset="0.283"/>
<stop offset="0.998" stop-color="#1436D4"/>
</linearGradient>
<linearGradient id="paint2_linear" x1="268.697" y1="386.61" x2="268.697" y2="348.458" gradientUnits="userSpaceOnUse">
<stop offset="0.283"/>
<stop offset="0.998" stop-color="#1436D4"/>
</linearGradient>
<linearGradient id="paint3_linear" x1="285.749" y1="388.357" x2="285.749" y2="136.199" gradientUnits="userSpaceOnUse">
<stop offset="0.002" stop-color="#1436D4"/>
<stop offset="0.717"/>
</linearGradient>
<linearGradient id="paint4_linear" x1="252.905" y1="388.357" x2="252.905" y2="138.389" gradientUnits="userSpaceOnUse">
<stop offset="0.002" stop-color="#1436D4"/>
<stop offset="0.717"/>
</linearGradient>
<linearGradient id="paint5_linear" x1="331.122" y1="109.154" x2="331.122" y2="71.0005" gradientUnits="userSpaceOnUse">
<stop offset="0.283"/>
<stop offset="0.998" stop-color="#1436D4"/>
</linearGradient>
<linearGradient id="paint6_linear" x1="331.121" y1="339.305" x2="331.121" y2="301.153" gradientUnits="userSpaceOnUse">
<stop offset="0.283"/>
<stop offset="0.998" stop-color="#1436D4"/>
</linearGradient>
<linearGradient id="paint7_linear" x1="348.174" y1="341.051" x2="348.174" y2="88.8931" gradientUnits="userSpaceOnUse">
<stop offset="0.002" stop-color="#1436D4"/>
<stop offset="0.717"/>
</linearGradient>
<linearGradient id="paint8_linear" x1="315.33" y1="341.051" x2="315.33" y2="91.0833" gradientUnits="userSpaceOnUse">
<stop offset="0.002" stop-color="#1436D4"/>
<stop offset="0.717"/>
</linearGradient>
<linearGradient id="paint9_linear" x1="202.986" y1="209.362" x2="202.986" y2="171.209" gradientUnits="userSpaceOnUse">
<stop offset="0.283"/>
<stop offset="0.998" stop-color="#1436D4"/>
</linearGradient>
<linearGradient id="paint10_linear" x1="202.986" y1="439.514" x2="202.986" y2="401.361" gradientUnits="userSpaceOnUse">
<stop offset="0.283"/>
<stop offset="0.998" stop-color="#1436D4"/>
</linearGradient>
<linearGradient id="paint11_linear" x1="220.039" y1="441.259" x2="220.039" y2="189.101" gradientUnits="userSpaceOnUse">
<stop offset="0.002" stop-color="#1436D4"/>
<stop offset="0.717"/>
</linearGradient>
<linearGradient id="paint12_linear" x1="187.195" y1="441.259" x2="187.195" y2="191.292" gradientUnits="userSpaceOnUse">
<stop offset="0.002" stop-color="#1436D4"/>
<stop offset="0.717"/>
</linearGradient>
<linearGradient id="paint13_linear" x1="71.5656" y1="298.01" x2="71.5656" y2="259.858" gradientUnits="userSpaceOnUse">
<stop offset="0.283"/>
<stop offset="0.998" stop-color="#1436D4"/>
</linearGradient>
<linearGradient id="paint14_linear" x1="71.5656" y1="528.161" x2="71.5656" y2="490.009" gradientUnits="userSpaceOnUse">
<stop offset="0.283"/>
<stop offset="0.998" stop-color="#1436D4"/>
</linearGradient>
<linearGradient id="paint15_linear" x1="88.6183" y1="529.908" x2="88.6183" y2="277.75" gradientUnits="userSpaceOnUse">
<stop offset="0.002" stop-color="#1436D4"/>
<stop offset="0.717"/>
</linearGradient>
<linearGradient id="paint16_linear" x1="55.7744" y1="529.907" x2="55.7744" y2="279.94" gradientUnits="userSpaceOnUse">
<stop offset="0.002" stop-color="#1436D4"/>
<stop offset="0.717"/>
</linearGradient>
<linearGradient id="paint17_linear" x1="137.276" y1="249.062" x2="137.276" y2="210.909" gradientUnits="userSpaceOnUse">
<stop offset="0.283"/>
<stop offset="0.998" stop-color="#1436D4"/>
</linearGradient>
<linearGradient id="paint18_linear" x1="137.276" y1="479.214" x2="137.276" y2="441.062" gradientUnits="userSpaceOnUse">
<stop offset="0.283"/>
<stop offset="0.998" stop-color="#1436D4"/>
</linearGradient>
<linearGradient id="paint19_linear" x1="154.329" y1="480.959" x2="154.329" y2="228.801" gradientUnits="userSpaceOnUse">
<stop offset="0.002" stop-color="#1436D4"/>
<stop offset="0.717"/>
</linearGradient>
<linearGradient id="paint20_linear" x1="121.484" y1="480.959" x2="121.484" y2="230.992" gradientUnits="userSpaceOnUse">
<stop offset="0.002" stop-color="#1436D4"/>
<stop offset="0.717"/>
</linearGradient>
<linearGradient id="paint21_linear" x1="5.85516" y1="353.103" x2="5.85516" y2="314.95" gradientUnits="userSpaceOnUse">
<stop offset="0.283"/>
<stop offset="0.998" stop-color="#1436D4"/>
</linearGradient>
<linearGradient id="paint22_linear" x1="5.85516" y1="583.255" x2="5.85516" y2="545.103" gradientUnits="userSpaceOnUse">
<stop offset="0.283"/>
<stop offset="0.998" stop-color="#1436D4"/>
</linearGradient>
<linearGradient id="paint23_linear" x1="22.9081" y1="585" x2="22.9081" y2="332.843" gradientUnits="userSpaceOnUse">
<stop offset="0.002" stop-color="#1436D4"/>
<stop offset="0.717"/>
</linearGradient>
<linearGradient id="paint24_linear" x1="-9.936" y1="585.001" x2="-9.936" y2="335.033" gradientUnits="userSpaceOnUse">
<stop offset="0.002" stop-color="#1436D4"/>
<stop offset="0.717"/>
</linearGradient>
<linearGradient id="paint25_linear" x1="185.541" y1="498.427" x2="185.541" y2="155.091" gradientUnits="userSpaceOnUse">
<stop offset="0.002" stop-color="#1436D4"/>
<stop offset="0.717"/>
</linearGradient>
<linearGradient id="paint26_linear" x1="191.291" y1="535.115" x2="191.291" y2="164.4" gradientUnits="userSpaceOnUse">
<stop/>
<stop offset="0.998" stop-color="#1436D4"/>
</linearGradient>
<linearGradient id="paint27_linear" x1="348.995" y1="183.017" x2="348.995" y2="158.376" gradientUnits="userSpaceOnUse">
<stop/>
<stop offset="0.998" stop-color="#1436D4"/>
</linearGradient>
<clipPath id="clip0">
<rect width="1444" height="656" fill="white"/>
</clipPath>
</defs>
</svg>
