<svg width="362" height="57" viewBox="0 0 362 57" fill="none" xmlns="http://www.w3.org/2000/svg">
    <path fill-rule="evenodd" clip-rule="evenodd" d="M14.3772 48.3343C12.3801 48.3345 10.4151 47.8311 8.66401 46.8706C6.91297 45.9101 5.43243 44.5236 4.35927 42.8392C3.2861 41.1549 2.65499 39.2271 2.52431 37.2342C2.39364 35.2413 2.76762 33.2477 3.61165 31.4376C4.45568 29.6276 5.74251 28.0596 7.35314 26.8786C8.96377 25.6977 10.8462 24.942 12.8263 24.6814C14.8064 24.4208 16.8202 24.6637 18.6815 25.3877C20.5429 26.1117 22.1916 27.2933 23.4752 28.8234L25.3913 27.2156C23.8373 25.3637 21.8415 23.9336 19.5884 23.0574C17.3353 22.1813 14.8976 21.8874 12.5008 22.203C10.104 22.5185 7.82553 23.4333 5.87597 24.8628C3.92641 26.2923 2.36875 28.1903 1.34707 30.3812C0.325395 32.5722 -0.12731 34.9854 0.0307793 37.3977C0.188868 39.81 0.952636 42.1435 2.25152 44.1824C3.5504 46.2213 5.34243 47.8998 7.46187 49.0626C9.58131 50.2254 11.9598 50.835 14.3772 50.8351V48.3343Z" fill="black" />
    <path fill-rule="evenodd" clip-rule="evenodd" d="M23.4321 28.7908C25.0149 30.6181 27.0329 32.0168 29.2994 32.8576C31.566 33.6983 34.008 33.954 36.3995 33.601C38.7911 33.2479 41.055 32.2975 42.982 30.8377C44.9089 29.3778 46.4366 27.4557 47.4238 25.249C48.4111 23.0422 48.8259 20.6222 48.6301 18.2127C48.4342 15.8032 47.634 13.4819 46.3033 11.4636C44.9726 9.44532 43.1546 7.79513 41.0172 6.66566C38.8798 5.53619 36.492 4.9639 34.0749 5.00171L34.114 7.50248C36.1109 7.47113 38.0834 7.9438 39.8491 8.87678C41.6149 9.80976 43.1168 11.1729 44.2161 12.8402C45.3155 14.5075 45.9766 16.425 46.1385 18.4155C46.3003 20.406 45.9576 22.4052 45.142 24.2282C44.3265 26.0512 43.0645 27.639 41.4726 28.845C39.8808 30.051 38.0106 30.8361 36.0349 31.1277C34.0592 31.4194 32.042 31.2081 30.1696 30.5135C28.2972 29.8189 26.6302 28.6634 25.3227 27.1538L23.4321 28.7908Z" fill="#2762FF" />
    <mask id="mask0" mask-type="alpha" maskUnits="userSpaceOnUse" x="317" y="5" width="45" height="36">
        <path fill-rule="evenodd" clip-rule="evenodd" d="M317 5H361.142V40.5604H317V5Z" fill="white" />
    </mask>
    <g mask="url(#mask0)">
        <path fill-rule="evenodd" clip-rule="evenodd" d="M322.169 39.2397C320.857 36.4315 320.124 33.2987 320.124 29.9947C320.124 17.916 329.916 8.12436 341.995 8.12436C348.72 8.12436 354.737 11.1604 358.748 15.9365L361.142 13.9283C356.557 8.46979 349.681 4.99999 341.995 4.99999C328.19 4.99999 317 16.1905 317 29.9947C317 33.7706 317.837 37.3511 319.336 40.5604L322.169 39.2397Z" fill="black" />
    </g>
    <path fill-rule="evenodd" clip-rule="evenodd" d="M341.995 44.8352C333.798 44.8352 327.154 38.1909 327.154 29.9947C327.154 21.7985 333.798 15.1541 341.995 15.1541C346.558 15.1541 350.64 17.2148 353.363 20.4558L355.757 18.447C352.461 14.5237 347.519 12.0298 341.995 12.0298C332.073 12.0298 324.03 20.0729 324.03 29.9947C324.03 39.9164 332.073 47.9596 341.995 47.9596V44.8352Z" fill="black" />
    <path fill-rule="evenodd" clip-rule="evenodd" d="M347.379 34.5131C346.09 36.0483 344.156 37.0244 341.995 37.0244C338.112 37.0244 334.965 33.8771 334.965 29.9946C334.965 26.1122 338.112 22.9649 341.995 22.9649C344.156 22.9649 346.09 23.941 347.379 25.4762L350.072 23.217C348.138 20.9142 345.237 19.45 341.995 19.45C336.171 19.45 331.45 24.171 331.45 29.9946C331.45 35.8183 336.171 40.5393 341.995 40.5393C344.966 40.5393 347.65 39.3089 349.567 37.331L347.379 34.5131Z" fill="black" />
    <path fill-rule="evenodd" clip-rule="evenodd" d="M119.666 22.2889C120.921 23.8426 121.764 25.6876 122.117 27.6533C122.47 29.619 122.321 31.6419 121.685 33.535C121.049 35.4281 119.946 37.1302 118.477 38.4839C117.009 39.8377 115.223 40.7993 113.285 41.2799C111.346 41.7605 109.318 41.7445 107.387 41.2335C105.457 40.7224 103.686 39.7328 102.239 38.3562C100.792 36.9795 99.7161 35.2602 99.1098 33.3574C98.5035 31.4545 98.3869 29.4295 98.7706 27.4696L96.3161 26.989C95.8517 29.3614 95.9931 31.8126 96.7271 34.1159C97.461 36.4193 98.7639 38.5003 100.515 40.1667C102.267 41.8331 104.41 43.031 106.747 43.6496C109.084 44.2682 111.539 44.2875 113.885 43.7058C116.232 43.1242 118.394 41.9602 120.171 40.3217C121.949 38.6831 123.284 36.6228 124.054 34.3314C124.824 32.0399 125.004 29.5912 124.578 27.2117C124.151 24.8323 123.131 22.5989 121.612 20.7181L119.666 22.2889Z" fill="#2762FF" />
    <mask id="mask1" mask-type="alpha" maskUnits="userSpaceOnUse" x="74" y="17" width="31" height="24">
        <path fill-rule="evenodd" clip-rule="evenodd" d="M74.6184 17H104.382V40.9769H74.6184V17Z" fill="white" />
    </mask>
    <g mask="url(#mask1)">
        <path fill-rule="evenodd" clip-rule="evenodd" d="M78.1035 40.0864C77.219 38.193 76.725 36.0807 76.725 33.8529C76.725 25.7087 83.3272 19.1066 91.4713 19.1066C96.0061 19.1066 100.063 21.1537 102.768 24.3741L104.382 23.02C101.29 19.3395 96.654 17 91.4713 17C82.1637 17 74.6184 24.5453 74.6184 33.8529C74.6184 36.3989 75.183 38.8131 76.1938 40.9769L78.1035 40.0864Z" fill="black" />
    </g>
    <path fill-rule="evenodd" clip-rule="evenodd" d="M243.04 53.0768C241.043 53.077 239.078 52.5735 237.327 51.6131C235.576 50.6526 234.095 49.266 233.022 47.5817C231.949 45.8973 231.318 43.9696 231.187 41.9767C231.057 39.9838 231.431 37.9901 232.275 36.1801C233.119 34.37 234.406 32.802 236.016 31.6211C237.627 30.4402 239.509 29.6845 241.489 29.4239C243.469 29.1633 245.483 29.4062 247.345 30.1302C249.206 30.8541 250.855 32.0358 252.138 33.5658L254.054 31.9583C252.5 30.1064 250.505 28.6762 248.251 27.8C245.998 26.9238 243.561 26.6299 241.164 26.9454C238.767 27.2609 236.488 28.1757 234.539 29.6052C232.589 31.0347 231.032 32.9327 230.01 35.1236C228.988 37.3146 228.536 39.7279 228.694 42.1402C228.852 44.5525 229.616 46.886 230.914 48.9249C232.213 50.9638 234.005 52.6423 236.125 53.8051C238.244 54.9679 240.623 55.5775 243.04 55.5776V53.0768Z" fill="black" />
    <path fill-rule="evenodd" clip-rule="evenodd" d="M247.35 44.8162C246.608 45.7008 245.611 46.3356 244.496 46.6345C243.381 46.9334 242.201 46.8819 241.116 46.4871C240.031 46.0922 239.093 45.3731 238.431 44.4272C237.769 43.4814 237.413 42.3547 237.413 41.2001C237.413 40.0454 237.769 38.9187 238.431 37.9729C239.093 37.0271 240.031 36.3079 241.116 35.913C242.201 35.5182 243.381 35.4667 244.496 35.7656C245.611 36.0645 246.608 36.6993 247.35 37.5839L249.505 35.7756C248.408 34.4685 246.941 33.5245 245.297 33.068C243.653 32.6116 241.909 32.6642 240.296 33.2188C238.682 33.7735 237.275 34.8042 236.259 36.175C235.243 37.5458 234.667 39.1924 234.606 40.8974C234.545 42.6025 235.002 44.286 235.917 45.7259C236.833 47.1659 238.163 48.2946 239.732 48.9632C241.302 49.6318 243.038 49.8089 244.71 49.4711C246.382 49.1334 247.913 48.2967 249.1 47.0713L247.35 44.8162Z" fill="black" />
    <path fill-rule="evenodd" clip-rule="evenodd" d="M262.233 16.6659C261.099 16.6648 259.979 16.9125 258.951 17.3917C257.924 17.8708 257.014 18.5697 256.286 19.4389L258.268 21.102C258.828 20.4354 259.546 19.9206 260.357 19.6052C261.168 19.2898 262.045 19.184 262.908 19.2976C263.771 19.4111 264.591 19.7404 265.293 20.2549C265.994 20.7694 266.555 21.4525 266.923 22.2412C267.29 23.0298 267.453 23.8984 267.396 24.7666C267.34 25.6349 267.065 26.4748 266.597 27.2087C266.13 27.9425 265.485 28.5466 264.722 28.9652C263.959 29.3837 263.103 29.6031 262.233 29.6031C261.718 29.5861 261.207 29.5096 260.71 29.375C259.937 29.1726 258.022 27.9522 257.636 27.4772C255.409 24.7335 256.309 27.0957 255.481 26.6356C253.89 25.7523 253.917 25.8524 253.2 25.3915C251.777 24.4767 251.622 24.0506 250.712 23.5254C249.523 22.8395 248.388 22.7601 247.187 22.696C242.039 22.4217 239.465 22.2847 238.271 22.4887C229.269 24.0282 223.084 35.5816 223.078 41.1496C223.114 43.1827 223.42 45.202 223.99 47.154C224.257 48.0068 224.58 48.8407 224.959 49.65L227.237 48.5878C225.989 45.9058 223.796 42.1089 223.99 39.1568C224.185 36.2048 226.243 32.7914 227.833 30.2964C229.423 27.8014 232.132 27.149 234.726 25.7255C237.319 24.3021 240.23 23.5553 243.188 23.554C245.778 23.554 248.415 24.3434 248.415 24.3434C249.658 24.6623 250.85 25.1545 251.957 25.8056C252.933 26.3884 254.003 26.414 254.817 27.2087C255.871 28.207 255.95 28.8563 256.214 29.375C257.636 31.1019 260.472 32.256 262.233 32.1894C265.927 32.0499 269.996 28.9852 269.996 24.4269C269.995 22.3684 269.177 20.3942 267.721 18.9387C266.265 17.4833 264.291 16.6657 262.233 16.6659Z" fill="black" />
    <path fill-rule="evenodd" clip-rule="evenodd" d="M252.095 33.5332C253.678 35.3606 255.696 36.7593 257.962 37.6002C260.229 38.441 262.671 38.6967 265.063 38.3436C267.454 37.9906 269.718 37.0402 271.645 35.5804C273.572 34.1205 275.1 32.1984 276.087 29.9916C277.074 27.7849 277.489 25.3649 277.293 22.9553C277.097 20.5458 276.297 18.2245 274.967 16.2062C273.636 14.1879 271.818 12.5377 269.68 11.4082C267.543 10.2788 265.155 9.70651 262.738 9.74436L262.777 12.2451C264.774 12.2137 266.746 12.6864 268.512 13.6194C270.278 14.5523 271.78 15.9155 272.879 17.5828C273.979 19.2501 274.64 21.1676 274.802 23.1582C274.964 25.1487 274.621 27.1479 273.805 28.9709C272.99 30.7939 271.728 32.3818 270.136 33.5877C268.544 34.7937 266.674 35.5788 264.698 35.8704C262.722 36.162 260.705 35.9507 258.833 35.2561C256.96 34.5615 255.293 33.4059 253.986 31.8963L252.095 33.5332Z" fill="#2762FF" />
    <mask id="mask2" mask-type="alpha" maskUnits="userSpaceOnUse" x="223" y="21" width="36" height="29">
        <path fill-rule="evenodd" clip-rule="evenodd" d="M223 21.0333H258.55V49.6724H223V21.0333Z" fill="white" />
    </mask>
    <g mask="url(#mask2)">
        <path fill-rule="evenodd" clip-rule="evenodd" d="M227.163 48.6088C226.106 46.3472 225.516 43.8241 225.516 41.1632C225.516 31.4354 233.402 23.5495 243.13 23.5495C248.546 23.5495 253.392 25.9947 256.623 29.8412L258.55 28.2238C254.858 23.8277 249.32 21.0333 243.13 21.0333C232.012 21.0333 223 30.0457 223 41.1632C223 44.2042 223.674 47.0878 224.882 49.6724L227.163 48.6088Z" fill="#2762FF" />
    </g>
    <mask id="mask3" mask-type="alpha" maskUnits="userSpaceOnUse" x="248" y="3" width="44" height="46">
        <path fill-rule="evenodd" clip-rule="evenodd" d="M291.856 23.0397L268.182 48.0709L248.017 28.9995L271.691 3.96834L291.856 23.0397Z" fill="white" />
    </mask>
    <g mask="url(#mask3)">
        <path fill-rule="evenodd" clip-rule="evenodd" d="M269.668 7.60763C271.964 8.36984 274.133 9.63455 276.007 11.4065C282.856 17.8844 283.157 28.6883 276.679 35.5376C273.072 39.3515 268.124 41.1348 263.264 40.8483L263.119 43.2826C268.673 43.61 274.329 41.5719 278.451 37.2133C285.854 29.3854 285.51 17.0382 277.682 9.63484C275.541 7.60975 273.062 6.16432 270.438 5.29325L269.668 7.60763Z" fill="black" />
    </g>
    <g clip-path="url(#clip0)">
        <path fill-rule="evenodd" clip-rule="evenodd" d="M170.378 53.6503C168.367 53.6505 166.389 53.1437 164.627 52.1769C162.864 51.21 161.374 49.8144 160.294 48.1189C159.214 46.4235 158.578 44.4831 158.447 42.4771C158.315 40.4711 158.692 38.4643 159.541 36.6423C160.391 34.8204 161.686 33.2421 163.307 32.0534C164.929 30.8647 166.823 30.104 168.816 29.8416C170.81 29.5793 172.837 29.8238 174.71 30.5525C176.584 31.2811 178.243 32.4705 179.536 34.0106L181.464 32.3923C179.9 30.5282 177.891 29.0886 175.623 28.2067C173.355 27.3247 170.901 27.0289 168.489 27.3465C166.076 27.6641 163.783 28.585 161.82 30.0239C159.858 31.4628 158.29 33.3733 157.262 35.5787C156.233 37.7841 155.778 40.2132 155.937 42.6414C156.096 45.0695 156.865 47.4184 158.172 49.4707C159.48 51.523 161.284 53.2125 163.417 54.3829C165.55 55.5534 167.944 56.167 170.378 56.167L170.378 53.6503Z" fill="black" />
        <path fill-rule="evenodd" clip-rule="evenodd" d="M189.696 17C188.555 16.9989 187.427 17.2484 186.393 17.7307C185.359 18.213 184.443 18.9165 183.711 19.7915L185.706 21.4654C186.269 20.7944 186.992 20.2762 187.808 19.9588C188.624 19.6413 189.508 19.5348 190.376 19.6491C191.244 19.7634 192.07 20.0948 192.776 20.6127C193.483 21.1306 194.047 21.8183 194.417 22.6121C194.787 23.4059 194.951 24.2802 194.894 25.1542C194.837 26.0282 194.56 26.8736 194.089 27.6123C193.619 28.3511 192.969 28.9591 192.202 29.3804C191.434 29.8017 190.572 30.0226 189.696 30.0225C189.178 30.0056 188.664 29.9287 188.164 29.7933C187.385 29.5904 185.56 28.3378 185.044 27.8225C181.952 24.215 183.734 27.4989 182.9 27.0361C181.299 26.1466 181.326 26.2478 180.604 25.7838C179.171 24.8628 179.016 24.4339 178.1 23.9053C176.902 23.2149 175.761 23.135 174.552 23.0706C169.37 22.7944 166.779 22.6565 165.577 22.862C156.516 24.4113 150.29 36.0407 150.284 41.6459C150.32 43.6924 150.628 45.725 151.202 47.6898C151.47 48.5481 151.681 48.6526 152.061 49.4674L153.608 48.4366C152.351 45.7371 151.866 42.1316 152.061 39.1603C152.257 36.1889 153.553 33.9413 155.154 31.4299C156.754 28.9186 159.243 26.6785 161.853 25.2457C164.464 23.8129 166.606 23.1856 169.584 23.1843C171.364 23.2264 173.539 23.4198 175.252 23.9053C176.504 24.2264 178.238 25.5458 179.351 26.2011C180.334 26.7876 181.648 26.5073 182.467 27.3071C184.529 28.3378 182.9 28.9659 183.579 29.7933C185.118 31.3925 187.923 32.6928 189.695 32.6259C193.413 32.4856 197.508 29.4006 197.508 24.8127C197.508 22.7407 196.685 20.7537 195.22 19.2886C193.755 17.8235 191.768 17.0002 189.696 17Z" fill="black" />
        <mask id="mask4" mask-type="alpha" maskUnits="userSpaceOnUse" x="150" y="21" width="36" height="29">
            <path fill-rule="evenodd" clip-rule="evenodd" d="M150 21.1228H185.615V49.8142H150V21.1228Z" fill="white" />
        </mask>
        <g mask="url(#mask4)">
            <path fill-rule="evenodd" clip-rule="evenodd" d="M154.17 48.7486C153.112 46.4829 152.521 43.9552 152.521 41.2894C152.521 31.5439 160.421 23.6437 170.167 23.6437C175.593 23.6437 180.447 26.0933 183.684 29.9468L185.615 28.3265C181.916 23.9224 176.368 21.1228 170.167 21.1228C159.029 21.1228 150 30.1517 150 41.2894C150 44.336 150.676 47.2248 151.885 49.8142L154.17 48.7486Z" fill="#2762FF" />
        </g>
    </g>
    <defs>
        <clipPath id="clip0">
            <rect width="47.5091" height="39.167" fill="white" transform="translate(150 17)" />
        </clipPath>
    </defs>
</svg>
